g general_plane_16
v 0.236076683 -0.0142531693 -4.76837158E-07
v 0.227831811 0.00553825498 -4.76837158E-07
v 0.238596797 0.0102512836 0
v 0.250599712 -0.00751417875 0
v -0.00117877312 -0.169460401 -2.38418579E-07
v -0.0211146791 -0.177348718 -2.38418579E-07
v -0.0260563642 -0.164041311 -7.15255737E-07
v -0.00576145947 -0.157127768 -4.76837158E-07
v -0.00576145947 -0.157127768 -4.76837158E-07
v -0.0260563642 -0.164041311 -7.15255737E-07
v -0.0302767381 -0.150520071 0
v -0.00968899671 -0.144534454 0
v -0.0338948444 -0.136801749 -4.76837158E-07
v -0.0130426362 -0.131815463 -4.76837158E-07
v -0.0368652605 -0.122885048 -4.76837158E-07
v -0.015778508 -0.119008482 -7.15255737E-07
v -0.015778508 -0.119008482 -7.15255737E-07
v -0.0368652605 -0.122885048 -4.76837158E-07
v -0.0391292349 -0.108767927 0
v -0.0178495422 -0.10615024 -2.38418579E-07
v -0.0178495422 -0.10615024 -2.38418579E-07
v -0.0391292349 -0.108767927 0
v -0.0403776467 -0.0944097862 2.38418579E-07
v -0.0189662278 -0.0933043584 2.38418579E-07
v -0.0189662278 -0.0933043584 2.38418579E-07
v -0.0403776467 -0.0944097862 2.38418579E-07
v -0.0404524021 -0.0798644423 4.76837158E-07
v -0.0190246515 -0.0805964172 -7.15255737E-07
v -0.0190246515 -0.0805964172 -7.15255737E-07
v -0.0404524021 -0.0798644423 4.76837158E-07
v -0.0392769277 -0.065226689 0
v -0.0180351418 -0.0681358129 0
v -0.0180351418 -0.0681358129 0
v -0.0392769277 -0.065226689 0
v -0.036638312 -0.0505989864 0
v -0.0159007218 -0.0560424998 0
v -0.0159007218 -0.0560424998 0
v -0.036638312 -0.0505989864 0
v -0.0320396088 -0.0361851379 -4.76837158E-07
v -0.0123035572 -0.0445617363 -4.76837158E-07
v -0.0123035572 -0.0445617363 -4.76837158E-07
v -0.0320396088 -0.0361851379 -4.76837158E-07
v -0.0248063318 -0.022625871 -4.76837158E-07
v -0.00677616615 -0.0342275575 -4.76837158E-07
v -0.0151303262 -0.0104522854 -4.76837158E-07
v 0.000241115689 -0.0253987163 -4.76837158E-07
v -0.00310887583 -0.000342413783 -4.76837158E-07
v 0.00864617154 -0.0182728022 -4.76837158E-07
v 0.00864617154 -0.0182728022 -4.76837158E-07
v -0.00310887583 -0.000342413783 -4.76837158E-07
v 0.0109361783 0.0070386678 -2.38418579E-07
v 0.0184183493 -0.0130534768 -2.38418579E-07
v 0.0184183493 -0.0130534768 -2.38418579E-07
v 0.0109361783 0.0070386678 -2.38418579E-07
v 0.0258248188 0.0105678588 0
v 0.0299643017 -0.0104688928 0
v 0.0299643017 -0.0104688928 0
v 0.0258248188 0.0105678588 0
v 0.0405524746 0.01233913 -2.38418579E-07
v 0.0422154218 -0.00903631747 -4.76837158E-07
v 0.0422154218 -0.00903631747 -4.76837158E-07
v 0.0405524746 0.01233913 -2.38418579E-07
v 0.0550443307 0.012788713 -2.38418579E-07
v 0.0549822077 -0.00865140557 -2.38418579E-07
v 0.0549822077 -0.00865140557 -2.38418579E-07
v 0.0550443307 0.012788713 -2.38418579E-07
v 0.0692773163 0.0122688413 -4.76837158E-07
v 0.0680774525 -0.00913774967 -4.76837158E-07
v 0.0680774525 -0.00913774967 -4.76837158E-07
v 0.0692773163 0.0122688413 -4.76837158E-07
v 0.0832595304 0.0110619664 -2.38418579E-07
v 0.0813636854 -0.0102941245 -4.76837158E-07
v 0.0971023366 0.00956439972 -2.38418579E-07
v 0.0947487429 -0.0117468089 -4.76837158E-07
v 0.110842705 0.0078920275 0
v 0.108209103 -0.0133856982 0
v 0.124488831 0.00611338019 -4.76837158E-07
v 0.121747732 -0.015150696 -4.76837158E-07
v 0.138028398 0.00431013107 -7.15255737E-07
v 0.135397196 -0.0169679001 -9.53674316E-07
v 0.151476339 0.00273783505 -4.76837158E-07
v 0.149205923 -0.0185818225 -4.76837158E-07
v 0.164852291 0.00142836571 0
v 0.163147867 -0.0199438035 0
v 0.178138927 0.000462949276 -4.76837158E-07
v 0.177243546 -0.020958215 -4.76837158E-07
v 0.191314161 -7.68303871E-05 -4.76837158E-07
v 0.191518307 -0.02151566 -4.76837158E-07
v 0.191518307 -0.02151566 -4.76837158E-07
v 0.191314161 -7.68303871E-05 -4.76837158E-07
v 0.204188079 0.000411689281 0
v 0.206154674 -0.0209378377 0
v 0.206154674 -0.0209378377 0
v 0.204188079 0.000411689281 0
v 0.216457352 0.00222717226 -4.76837158E-07
v 0.221106127 -0.0187026784 -4.76837158E-07
v 0.221106127 -0.0187026784 -4.76837158E-07
v 0.216457352 0.00222717226 -4.76837158E-07
v 0.227831811 0.00553825498 -4.76837158E-07
v 0.236076683 -0.0142531693 -4.76837158E-07
vt 0.0327148438 1.00048828
vt 0.0327148438 -0.00048828125
vt -0.00048828125 -0.00048828125
vt -0.00048828125 1.00048828
vt 0.999511719 1.00048828
vt 0.999511719 -0.00048828125
vt 0.967285156 -0.00048828125
vt 0.967285156 1.00048828
vt 0.967285156 1.00048828
vt 0.967285156 -0.00048828125
vt 0.935058594 -0.00048828125
vt 0.935058594 1.00048828
vt 0.902832031 -0.00048828125
vt 0.902832031 1.00048828
vt 0.870605469 -0.00048828125
vt 0.870605469 1.00048828
vt 0.870605469 1.00048828
vt 0.870605469 -0.00048828125
vt 0.838378906 -0.00048828125
vt 0.838378906 1.00048828
vt 0.838378906 1.00048828
vt 0.838378906 -0.00048828125
vt 0.806152344 -0.00048828125
vt 0.806152344 1.00048828
vt 0.806152344 1.00048828
vt 0.806152344 -0.00048828125
vt 0.773925781 -0.00048828125
vt 0.773925781 1.00048828
vt 0.773925781 1.00048828
vt 0.773925781 -0.00048828125
vt 0.741699219 -0.00048828125
vt 0.741699219 1.00048828
vt 0.741699219 1.00048828
vt 0.741699219 -0.00048828125
vt 0.709472656 -0.00048828125
vt 0.709472656 1.00048828
vt 0.709472656 1.00048828
vt 0.709472656 -0.00048828125
vt 0.677246094 -0.00048828125
vt 0.677246094 1.00048828
vt 0.677246094 1.00048828
vt 0.677246094 -0.00048828125
vt 0.645019531 -0.00048828125
vt 0.645019531 1.00048828
vt 0.612792969 -0.00048828125
vt 0.612792969 1.00048828
vt 0.580566406 -0.00048828125
vt 0.580566406 1.00048828
vt 0.580566406 1.00048828
vt 0.580566406 -0.00048828125
vt 0.548339844 -0.00048828125
vt 0.548339844 1.00048828
vt 0.548339844 1.00048828
vt 0.548339844 -0.00048828125
vt 0.516113281 -0.00048828125
vt 0.516113281 1.00048828
vt 0.516113281 1.00048828
vt 0.516113281 -0.00048828125
vt 0.483886719 -0.00048828125
vt 0.483886719 1.00048828
vt 0.483886719 1.00048828
vt 0.483886719 -0.00048828125
vt 0.451660156 -0.00048828125
vt 0.451660156 1.00048828
vt 0.451660156 1.00048828
vt 0.451660156 -0.00048828125
vt 0.419433594 -0.00048828125
vt 0.419433594 1.00048828
vt 0.419433594 1.00048828
vt 0.419433594 -0.00048828125
vt 0.387207031 -0.00048828125
vt 0.387207031 1.00048828
vt 0.354980469 -0.00048828125
vt 0.354980469 1.00048828
vt 0.322753906 -0.00048828125
vt 0.322753906 1.00048828
vt 0.290527344 -0.00048828125
vt 0.290527344 1.00048828
vt 0.258300781 -0.00048828125
vt 0.258300781 1.00048828
vt 0.226074219 -0.00048828125
vt 0.226074219 1.00048828
vt 0.193847656 -0.00048828125
vt 0.193847656 1.00048828
vt 0.161621094 -0.00048828125
vt 0.161621094 1.00048828
vt 0.129394531 -0.00048828125
vt 0.129394531 1.00048828
vt 0.129394531 1.00048828
vt 0.129394531 -0.00048828125
vt 0.0971679688 -0.00048828125
vt 0.0971679688 1.00048828
vt 0.0971679688 1.00048828
vt 0.0971679688 -0.00048828125
vt 0.0649414062 -0.00048828125
vt 0.0649414062 1.00048828
vt 0.0649414062 1.00048828
vt 0.0649414062 -0.00048828125
vt 0.0327148438 -0.00048828125
vt 0.0327148438 1.00048828
vn -3.03118795E-05 -1.63418372E-05 1
vn -3.03118795E-05 -1.63418372E-05 1
vn -3.03118795E-05 -1.63418372E-05 1
vn -3.03118795E-05 -1.63418372E-05 1
vn -1.42432473E-05 2.26051834E-05 1
vn -1.42432473E-05 2.26051834E-05 1
vn -1.42432473E-05 2.26051834E-05 1
vn -1.42432473E-05 2.26051834E-05 1
vn 7.8029716E-06 -4.32140369E-05 1
vn 7.8029716E-06 -4.32140369E-05 1
vn 7.8029716E-06 -4.32140369E-05 1
vn 7.8029716E-06 -4.32140369E-05 1
vn -8.92759908E-06 3.37187848E-05 1
vn -8.92759908E-06 3.37187848E-05 1
vn 3.63546201E-06 9.69789744E-06 1
vn 3.63546201E-06 9.69789744E-06 1
vn 1.62734559E-05 -3.27383495E-05 1
vn 1.62734559E-05 -3.27383495E-05 1
vn 1.62734559E-05 -3.27383495E-05 1
vn 1.62734559E-05 -3.27383495E-05 1
vn 7.81842209E-06 -2.56125586E-05 1
vn 7.81842209E-06 -2.56125586E-05 1
vn 7.81842209E-06 -2.56125586E-05 1
vn 7.81842209E-06 -2.56125586E-05 1
vn 2.75971925E-05 2.63796028E-05 1
vn 2.75971925E-05 2.63796028E-05 1
vn 2.75971925E-05 2.63796028E-05 1
vn 2.75971925E-05 2.63796028E-05 1
vn 2.70029177E-05 -1.09556222E-05 1
vn 2.70029177E-05 -1.09556222E-05 1
vn 2.70029177E-05 -1.09556222E-05 1
vn 2.70029177E-05 -1.09556222E-05 1
vn -0 0 1
vn -0 0 1
vn -0 0 1
vn -0 0 1
vn 1.13490842E-05 3.32369782E-05 1
vn 1.13490842E-05 3.32369782E-05 1
vn 1.13490842E-05 3.32369782E-05 1
vn 1.13490842E-05 3.32369782E-05 1
vn -0 0 1
vn -0 0 1
vn -0 0 1
vn -0 0 1
vn -0 0 1
vn -0 0 1
vn -0 0 1
vn -0 0 1
vn -1.579333E-05 -7.99051759E-06 1
vn -1.579333E-05 -7.99051759E-06 1
vn -1.579333E-05 -7.99051759E-06 1
vn -1.579333E-05 -7.99051759E-06 1
vn -1.693185E-05 -4.78437596E-06 1
vn -1.693185E-05 -4.78437596E-06 1
vn -1.693185E-05 -4.78437596E-06 1
vn -1.693185E-05 -4.78437596E-06 1
vn 2.67448468E-05 0 1
vn 2.67448468E-05 0 1
vn 2.67448468E-05 0 1
vn 2.67448468E-05 0 1
vn -8.56625229E-06 -5.88878447E-06 1
vn -8.56625229E-06 -5.88878447E-06 1
vn -8.56625229E-06 -5.88878447E-06 1
vn -8.56625229E-06 -5.88878447E-06 1
vn 1.74296165E-05 0 1
vn 1.74296165E-05 0 1
vn 1.74296165E-05 0 1
vn 1.74296165E-05 0 1
vn -9.1690581E-06 -4.91161882E-06 1
vn -9.1690581E-06 -4.91161882E-06 1
vn -9.1690581E-06 -4.91161882E-06 1
vn -9.1690581E-06 -4.91161882E-06 1
vn -0 -1.10563897E-05 1
vn -0 -1.10563897E-05 1
vn -2.65977924E-05 0 1
vn -2.65977924E-05 0 1
vn 3.45128319E-05 -4.36032587E-06 1
vn 3.45128319E-05 -4.36032587E-06 1
vn 2.51378115E-05 -8.77873572E-06 1
vn 2.51378115E-05 -8.77873572E-06 1
vn -2.65387935E-05 -2.54323254E-06 1
vn -2.65387935E-05 -2.54323254E-06 1
vn -3.4595254E-05 3.22101755E-06 1
vn -3.4595254E-05 3.22101755E-06 1
vn 3.46757952E-05 0 1
vn 3.46757952E-05 0 1
vn -0 0 1
vn -0 0 1
vn -3.45980698E-05 0 1
vn -3.45980698E-05 0 1
vn -3.45980698E-05 0 1
vn -3.45980698E-05 0 1
vn 3.42376843E-05 5.35712661E-06 1
vn 3.42376843E-05 5.35712661E-06 1
vn 3.42376843E-05 5.35712661E-06 1
vn 3.42376843E-05 5.35712661E-06 1
vn -0 0 1
vn -0 0 1
vn -0 0 1
vn -0 0 1
g general_plane_16_0
f 3/3/3 2/2/2 1/1/1
f 4/4/4 3/3/3 1/1/1
f 7/7/7 6/6/6 5/5/5
f 8/8/8 7/7/7 5/5/5
f 11/11/11 10/10/10 9/9/9
f 12/12/12 11/11/11 9/9/9
f 13/13/13 11/11/11 12/12/12
f 14/14/14 13/13/13 12/12/12
f 15/15/15 13/13/13 14/14/14
f 16/16/16 15/15/15 14/14/14
f 19/19/19 18/18/18 17/17/17
f 20/20/20 19/19/19 17/17/17
f 23/23/23 22/22/22 21/21/21
f 24/24/24 23/23/23 21/21/21
f 27/27/27 26/26/26 25/25/25
f 28/28/28 27/27/27 25/25/25
f 31/31/31 30/30/30 29/29/29
f 32/32/32 31/31/31 29/29/29
f 35/35/35 34/34/34 33/33/33
f 36/36/36 35/35/35 33/33/33
f 39/39/39 38/38/38 37/37/37
f 40/40/40 39/39/39 37/37/37
f 43/43/43 42/42/42 41/41/41
f 44/44/44 43/43/43 41/41/41
f 45/45/45 43/43/43 44/44/44
f 46/46/46 45/45/45 44/44/44
f 47/47/47 45/45/45 46/46/46
f 48/48/48 47/47/47 46/46/46
f 51/51/51 50/50/50 49/49/49
f 52/52/52 51/51/51 49/49/49
f 55/55/55 54/54/54 53/53/53
f 56/56/56 55/55/55 53/53/53
f 59/59/59 58/58/58 57/57/57
f 60/60/60 59/59/59 57/57/57
f 63/63/63 62/62/62 61/61/61
f 64/64/64 63/63/63 61/61/61
f 67/67/67 66/66/66 65/65/65
f 68/68/68 67/67/67 65/65/65
f 71/71/71 70/70/70 69/69/69
f 72/72/72 71/71/71 69/69/69
f 73/73/73 71/71/71 72/72/72
f 74/74/74 73/73/73 72/72/72
f 75/75/75 73/73/73 74/74/74
f 76/76/76 75/75/75 74/74/74
f 77/77/77 75/75/75 76/76/76
f 78/78/78 77/77/77 76/76/76
f 79/79/79 77/77/77 78/78/78
f 80/80/80 79/79/79 78/78/78
f 81/81/81 79/79/79 80/80/80
f 82/82/82 81/81/81 80/80/80
f 83/83/83 81/81/81 82/82/82
f 84/84/84 83/83/83 82/82/82
f 85/85/85 83/83/83 84/84/84
f 86/86/86 85/85/85 84/84/84
f 87/87/87 85/85/85 86/86/86
f 88/88/88 87/87/87 86/86/86
f 91/91/91 90/90/90 89/89/89
f 92/92/92 91/91/91 89/89/89
f 95/95/95 94/94/94 93/93/93
f 96/96/96 95/95/95 93/93/93
f 99/99/99 98/98/98 97/97/97
f 100/100/100 99/99/99 97/97/97
