g 12
v 0.0705901533 -0.0614253692 0
v 0.0766852647 -0.0531138554 0
v 0.0922001004 -0.0625335723 0
v 0.0478720143 -0.0470187441 0
v 0.025153866 -0.0464646406 0
v 0.0583999343 -0.0326121151 0
v 0.0822262764 -0.052559752 0
v 0.0994034186 -0.0619794689 0
v 0.119351059 -0.0625335723 0
v 0.037898194 -0.0231923945 0
v 0.0345735848 0.00340446155 0
v 0.0185046531 -0.0331662111 0
v 0.00243572216 -0.00823166221 0
v -0.00753809977 -0.0143267745 0
v -0.00532169547 0.00894547161 0
v -0.0319185443 0.0061749653 0
v -0.0369054601 0.030555414 0
v -0.00532169547 0.015040583 0
v -0.0119709084 0.0216897968 0
v -0.0164037161 -0.0259629022 0
v -0.0391218588 0.00783726946 0
v -0.00310529117 -0.0248546954 0
v 0.00409802375 -0.0370449238 0
v -0.023052929 0.0366505273 0
v -0.0446628705 0.0737753063 0
v 0.000773420557 0.0216897968 0
v 0.0052062287 0.0144864824 0
v 0.025153866 -0.00379885361 0
v -0.0191742238 0.0654637814 0
v 0.030140778 0.00894547161 0
v -0.0297021419 0.0721129999 0
v -0.0413382687 0.0831950158 0
v -0.0175119154 0.140821531 0
v -0.0580147468 -0.0150400335 0
v -0.0490031391 0.00533401733 0
v -0.0309799425 -0.0256188642 0
v -0.0580147468 0.0241408329 0
v -0.0540966615 0.0484329686 0
v -0.0580147468 0.033152435 0
v -0.0642836839 0.050392013 0
v -0.0572311245 0.0500002056 0
v -0.0607573986 0.055485528 0
v -0.0533130355 0.0797776654 0
v 0.0270077381 -0.0683260113 0
v -0.0270618554 -0.0330632292 0
v 0.0422882773 -0.0679342002 0
v 0.0164289065 -0.0640161112 0
v -2.70604851E-05 -0.0651915371 0
vt 0.699427783 0.0727333724
vt 0.727658927 0.109091699
vt 0.799520195 0.0678855479
vt 0.594202518 0.135754496
vt 0.488977164 0.138178408
vt 0.642965436 0.198775589
vt 0.753323674 0.111515582
vt 0.832884312 0.0703094304
vt 0.925277293 0.0678855181
vt 0.548006058 0.239981771
vt 0.532607257 0.356328458
vt 0.458179533 0.196351767
vt 0.383751899 0.305426836
vt 0.337555408 0.278764039
vt 0.347821295 0.380567402
vt 0.224630713 0.368447959
vt 0.201532453 0.475099117
vt 0.347821295 0.407230169
vt 0.317023665 0.436316848
vt 0.296491861 0.227862358
vt 0.191266596 0.375719666
vt 0.358087152 0.232710123
vt 0.391451269 0.179384559
vt 0.265694261 0.501761913
vt 0.165601969 0.664162517
vt 0.376052499 0.436316848
vt 0.396584272 0.404806256
vt 0.488977194 0.324817896
vt 0.283659577 0.62780416
vt 0.512075484 0.380567372
vt 0.23489666 0.656890869
vt 0.181000769 0.705368638
vt 0.291359127 0.957453132
vt 0.103758961 0.275643975
vt 0.145498723 0.36476928
vt 0.228978068 0.229367346
vt 0.103759021 0.447038829
vt 0.121906757 0.553303659
vt 0.103759021 0.486459672
vt 0.0747227669 0.561873436
vt 0.107388645 0.560159445
vt 0.091055721 0.584154725
vt 0.125536352 0.690419555
vt 0.497563839 0.0425468683
vt 0.247125745 0.196802318
vt 0.568339825 0.0442607999
vt 0.448565096 0.0614003241
vt 0.372344792 0.0562584996
vn -0 0 1
vn -0 0 1
vn -0 0 1
vn -0 0 1
vn -0 0 1
vn -0 0 1
vn -0 0 1
vn -0 0 1
vn -0 0 1
vn -0 0 1
vn -0 0 1
vn -0 0 1
vn -0 0 1
vn -0 0 1
vn -0 0 1
vn -0 0 1
vn -0 0 1
vn -0 0 1
vn -0 0 1
vn -0 0 1
vn -0 0 1
vn -0 0 1
vn -0 0 1
vn -0 0 1
vn -0 0 1
vn -0 0 1
vn -0 0 1
vn -0 0 1
vn -0 0 1
vn -0 0 1
vn -0 0 1
vn -0 0 1
vn -0 0 1
vn -0 0 1
vn -0 0 1
vn -0 0 1
vn -0 0 1
vn -0 0 1
vn -0 0 1
vn -0 0 1
vn -0 0 1
vn -0 0 1
vn -0 0 1
vn -0 0 1
vn -0 0 1
vn -0 0 1
vn -0 0 1
vn -0 0 1
g 12_0
f 3/3/3 2/2/2 1/1/1
f 2/2/2 4/4/4 1/1/1
f 4/4/4 5/5/5 1/1/1
f 6/6/6 4/4/4 2/2/2
f 7/7/7 6/6/6 2/2/2
f 8/8/8 6/6/6 7/7/7
f 9/9/9 6/6/6 8/8/8
f 10/10/10 4/4/4 6/6/6
f 11/11/11 10/10/10 6/6/6
f 12/12/12 4/4/4 10/10/10
f 13/13/13 12/12/12 10/10/10
f 14/14/14 12/12/12 13/13/13
f 15/15/15 14/14/14 13/13/13
f 16/16/16 14/14/14 15/15/15
f 17/17/17 16/16/16 15/15/15
f 18/18/18 17/17/17 15/15/15
f 19/19/19 17/17/17 18/18/18
f 20/20/20 14/14/14 16/16/16
f 21/21/21 20/20/20 16/16/16
f 22/22/22 14/14/14 20/20/20
f 23/23/23 22/22/22 20/20/20
f 24/24/24 17/17/17 19/19/19
f 25/25/25 17/17/17 24/24/24
f 26/26/26 24/24/24 19/19/19
f 27/27/27 26/26/26 19/19/19
f 28/28/28 27/27/27 19/19/19
f 29/29/29 24/24/24 26/26/26
f 30/30/30 29/29/29 26/26/26
f 31/31/31 24/24/24 29/29/29
f 32/32/32 31/31/31 29/29/29
f 33/33/33 32/32/32 29/29/29
f 36/36/36 35/35/35 34/34/34
f 35/35/35 37/37/37 34/34/34
f 38/38/38 37/37/37 35/35/35
f 39/39/39 37/37/37 38/38/38
f 40/40/40 37/37/37 39/39/39
f 41/41/41 39/39/39 38/38/38
f 42/42/42 41/41/41 38/38/38
f 43/43/43 42/42/42 38/38/38
f 46/46/46 45/45/45 44/44/44
f 45/45/45 47/47/47 44/44/44
f 48/48/48 47/47/47 45/45/45
