g Plane001
v 0.0213118102 -0.349714607 1.12106818E-05
v 0.0316111147 -0.354278833 1.01515452E-05
v 0.0225394722 -0.352212548 1.12137059E-05
v 0.0282744188 -0.351477295 1.03542425E-05
v 0.0463757068 -0.342217892 8.20710738E-06
v 0.0402965471 -0.336835891 8.48486525E-06
v 0.0638667867 -0.320144951 5.7952202E-06
v 0.0547922887 -0.310882121 6.05060359E-06
v 0.0810727179 -0.292251617 3.33378716E-06
v 0.0690864101 -0.278832644 3.50819664E-06
v 0.0950214937 -0.262735814 1.23561438E-06
v 0.0804915056 -0.245956734 1.31523745E-06
v 0.10286957 -0.235687211 -9.79129453E-08
v 0.0863807052 -0.21747759 -7.6435434E-08
v 0.10545662 -0.208198041 -5.1226732E-07
v 0.087311998 -0.190790489 -5.11058545E-07
v 0.104786068 -0.17781356 -3.16592889E-07
v 0.0851681828 -0.162351564 -3.24033465E-07
v 0.101331234 -0.145962819 1.48329491E-07
v 0.080407843 -0.133072451 1.4209742E-07
v 0.095554471 -0.113987446 5.54465089E-07
v 0.0734850392 -0.103816383 5.53282803E-07
v 0.0879025012 -0.0831391588 5.85802582E-07
v 0.0648448467 -0.0753928274 5.84102338E-07
v 0.0787967816 -0.054586105 -6.44240572E-08
v 0.0549076051 -0.0485580824 -8.44948929E-08
v 0.0665052682 -0.02803264 -1.74572165E-06
v 0.0418755859 -0.0233495198 -1.8123261E-06
v 0.0507047698 -0.00251033599 -4.23822303E-06
v 0.0255050566 0.000842148205 -4.35879429E-06
v 0.0331447609 0.0222321693 -7.05733055E-06
v 0.00757693266 0.0244430806 -7.21999368E-06
v 0.0155438762 0.0464467034 -9.72481303E-06
v -0.0101509048 0.0478789322 -9.89694581E-06
v -0.000386543747 0.0703789145 -1.17622758E-05
v -0.0259258188 0.0715705082 -1.18905064E-05
v -0.0129182991 0.094260551 -1.26846498E-05
v -0.0379819386 0.0959269702 -1.26963587E-05
v -0.0223423429 0.118275456 -1.21899893E-05
v -0.0471810661 0.121570028 -1.20630148E-05
v -0.0307409838 0.14228645 -1.05842173E-05
v -0.0552729815 0.148308799 -1.0337154E-05
v -0.0374274254 0.165976524 -8.22516904E-06
v -0.0614191927 0.175240919 -7.89132991E-06
v -0.0416643173 0.189038053 -5.47940544E-06
v -0.064771615 0.201468244 -5.10597283E-06
v -0.0427068658 0.211214066 -2.72689454E-06
v -0.0644816235 0.226133063 -2.371346E-06
v -0.0398142636 0.232348055 -3.62466864E-07
v -0.0597128868 0.24846378 -8.79255282E-08
v -0.0310311969 0.254889786 1.71001363E-06
v -0.0478815325 0.271317631 2.01313969E-06
v -0.0154276993 0.281587541 4.1020985E-06
v -0.0289166328 0.296544552 4.3810237E-06
v 0.003753989 0.308606654 6.48095101E-06
v -0.00650770869 0.320720553 6.67885888E-06
v 0.023181174 0.331727594 8.47373394E-06
v 0.0156867728 0.34029302 8.5621632E-06
v 0.0396102704 0.346541286 9.70155997E-06
v 0.0341375358 0.351615995 9.68590393E-06
v 0.0499979816 0.348459721 9.78292246E-06
v 0.0455597714 0.351007074 9.71244299E-06
vt -1.78813934E-07 1.00000012
vt 0.0333332308 1.1920929E-07
vt -1.03316033E-07 1.1920929E-07
vt 0.0333331563 1.00000012
vt 0.0666665658 1.1920929E-07
vt 0.0666664913 1.00000012
vt 0.0999999046 1.1920929E-07
vt 0.0999998301 1.00000012
vt 0.133333236 1.1920929E-07
vt 0.133333161 1.00000012
vt 0.166666567 1.1920929E-07
vt 0.166666493 1.00000012
vt 0.199999899 1.1920929E-07
vt 0.199999824 1.00000012
vt 0.23333323 1.1920929E-07
vt 0.233333156 1.00000012
vt 0.266666591 1.1920929E-07
vt 0.266666502 1.00000012
vt 0.299999923 1.1920929E-07
vt 0.299999833 1.00000012
vt 0.333333254 1.1920929E-07
vt 0.333333164 1.00000012
vt 0.366666585 1.1920929E-07
vt 0.366666496 1.00000012
vt 0.399999917 1.78813934E-07
vt 0.399999827 1.00000012
vt 0.433333248 1.78813934E-07
vt 0.433333158 1.00000012
vt 0.466666579 1.78813934E-07
vt 0.46666649 1.00000012
vt 0.499999881 1.78813934E-07
vt 0.499999821 1.00000012
vt 0.533333242 1.78813934E-07
vt 0.533333182 1.00000012
vt 0.566666603 1.78813934E-07
vt 0.566666543 1.00000012
vt 0.599999964 1.78813934E-07
vt 0.599999905 1.00000012
vt 0.633333325 1.78813934E-07
vt 0.633333266 1.00000012
vt 0.666666687 1.78813934E-07
vt 0.666666627 1.00000012
vt 0.700000048 1.78813934E-07
vt 0.699999988 1.00000012
vt 0.733333409 1.78813934E-07
vt 0.733333349 1.00000012
vt 0.76666677 1.78813934E-07
vt 0.76666671 1.00000012
vt 0.800000131 1.78813934E-07
vt 0.800000072 1.00000024
vt 0.833333492 1.78813934E-07
vt 0.833333433 1.00000024
vt 0.866666853 1.78813934E-07
vt 0.866666794 1.00000024
vt 0.900000215 1.78813934E-07
vt 0.900000155 1.00000024
vt 0.933333576 1.78813934E-07
vt 0.933333516 1.00000024
vt 0.966666937 1.78813934E-07
vt 0.966666877 1.00000024
vt 1.00000024 1.78813934E-07
vt 1.00000024 1.00000024
vn 0.000139311785 8.2308994E-05 1
vn 0.000103294784 5.60441331E-05 1
vn 0.000139311785 8.2308994E-05 1
vn 0.000122380763 6.99622979E-05 1
vn 8.69206051E-05 4.80121744E-05 1
vn 8.66663977E-05 4.79761147E-05 1
vn 7.62153577E-05 4.68380749E-05 1
vn 7.453336E-05 4.67277132E-05 1
vn 6.64456747E-05 4.5647037E-05 1
vn 6.37780759E-05 4.51048945E-05 1
vn 5.53310892E-05 4.21468212E-05 1
vn 5.03977208E-05 3.98588127E-05 1
vn 3.73702351E-05 3.12527045E-05 1
vn 2.42675742E-05 2.12042287E-05 1
vn 1.00711713E-05 9.09215487E-06 1
vn -4.42413267E-07 -1.25000884E-06 1
vn -7.65515961E-06 -9.41613143E-06 1
vn -1.05771196E-05 -1.42786539E-05 1
vn -1.10679293E-05 -1.63679815E-05 1
vn -9.28536792E-06 -1.55399957E-05 1
vn -6.00543672E-06 -1.10237215E-05 1
vn -2.72075522E-06 -5.11885355E-06 1
vn 1.83733266E-06 7.18927549E-06 1
vn 4.93752168E-06 1.81295491E-05 1
vn 9.33230604E-06 4.00397839E-05 1
vn 1.22066403E-05 5.90370983E-05 1
vn 1.4231252E-05 8.31692087E-05 1
vn 1.41230576E-05 0.000100006582 1
vn 1.24231547E-05 0.000113888316 1
vn 9.55091673E-06 0.000119927739 1
vn 6.18115655E-06 0.000120579374 1
vn 3.22610731E-06 0.000115955721 1
vn 6.15862007E-07 0.000104629638 1
vn -7.08484379E-07 9.19503509E-05 1
vn -1.31945001E-06 6.81468373E-05 1
vn -1.01813418E-06 5.04042546E-05 1
vn -4.79670291E-07 1.5222683E-05 1
vn -0 -2.62664503E-06 1
vn -1.74294166E-06 -3.8168404E-05 1
vn -3.2926057E-06 -5.15152533E-05 1
vn -9.85672705E-06 -7.80326445E-05 1
vn -1.46433358E-05 -8.8879955E-05 1
vn -2.57920401E-05 -0.000105673796 1
vn -3.30526746E-05 -0.000112372953 1
vn -4.4571032E-05 -0.000118215394 1
vn -5.05554744E-05 -0.000118120406 1
vn -5.61327543E-05 -0.000110999652 1
vn -5.65810442E-05 -0.000103940336 1
vn -5.3228403E-05 -8.70860022E-05 1
vn -5.07502118E-05 -8.0699283E-05 1
vn -4.60263909E-05 -6.7115725E-05 1
vn -4.56786111E-05 -6.56277625E-05 1
vn -4.43109457E-05 -5.93599325E-05 1
vn -4.41626798E-05 -5.85981506E-05 1
vn -4.2909669E-05 -5.32810955E-05 1
vn -4.27620434E-05 -5.27499797E-05 1
vn -3.96268515E-05 -4.54509354E-05 1
vn -3.96370488E-05 -4.54702531E-05 1
vn -1.79833842E-05 -1.35617829E-05 1
vn -2.83310201E-05 -2.82156161E-05 1
vn -5.21848187E-06 4.51526421E-06 1
vn -5.21848187E-06 4.51526421E-06 1
g Plane001_0
f 3/3/3 2/2/2 1/1/1
f 2/2/2 4/4/4 1/1/1
f 2/2/2 5/5/5 4/4/4
f 5/5/5 6/6/6 4/4/4
f 5/5/5 7/7/7 6/6/6
f 7/7/7 8/8/8 6/6/6
f 7/7/7 9/9/9 8/8/8
f 9/9/9 10/10/10 8/8/8
f 9/9/9 11/11/11 10/10/10
f 11/11/11 12/12/12 10/10/10
f 11/11/11 13/13/13 12/12/12
f 13/13/13 14/14/14 12/12/12
f 13/13/13 15/15/15 14/14/14
f 15/15/15 16/16/16 14/14/14
f 15/15/15 17/17/17 16/16/16
f 17/17/17 18/18/18 16/16/16
f 17/17/17 19/19/19 18/18/18
f 19/19/19 20/20/20 18/18/18
f 19/19/19 21/21/21 20/20/20
f 21/21/21 22/22/22 20/20/20
f 21/21/21 23/23/23 22/22/22
f 23/23/23 24/24/24 22/22/22
f 23/23/23 25/25/25 24/24/24
f 25/25/25 26/26/26 24/24/24
f 25/25/25 27/27/27 26/26/26
f 27/27/27 28/28/28 26/26/26
f 27/27/27 29/29/29 28/28/28
f 29/29/29 30/30/30 28/28/28
f 29/29/29 31/31/31 30/30/30
f 31/31/31 32/32/32 30/30/30
f 31/31/31 33/33/33 32/32/32
f 33/33/33 34/34/34 32/32/32
f 33/33/33 35/35/35 34/34/34
f 35/35/35 36/36/36 34/34/34
f 35/35/35 37/37/37 36/36/36
f 37/37/37 38/38/38 36/36/36
f 37/37/37 39/39/39 38/38/38
f 39/39/39 40/40/40 38/38/38
f 39/39/39 41/41/41 40/40/40
f 41/41/41 42/42/42 40/40/40
f 41/41/41 43/43/43 42/42/42
f 43/43/43 44/44/44 42/42/42
f 43/43/43 45/45/45 44/44/44
f 45/45/45 46/46/46 44/44/44
f 45/45/45 47/47/47 46/46/46
f 47/47/47 48/48/48 46/46/46
f 47/47/47 49/49/49 48/48/48
f 49/49/49 50/50/50 48/48/48
f 49/49/49 51/51/51 50/50/50
f 51/51/51 52/52/52 50/50/50
f 51/51/51 53/53/53 52/52/52
f 53/53/53 54/54/54 52/52/52
f 53/53/53 55/55/55 54/54/54
f 55/55/55 56/56/56 54/54/54
f 55/55/55 57/57/57 56/56/56
f 57/57/57 58/58/58 56/56/56
f 57/57/57 59/59/59 58/58/58
f 59/59/59 60/60/60 58/58/58
f 59/59/59 61/61/61 60/60/60
f 61/61/61 62/62/62 60/60/60
