g Sphere001
v 0.0473188348 0.0736292154 -1.51395796E-09
v 0.0246583354 0.083977975 -1.51395796E-09
v 0.0268321261 0.0913811252 1.51395796E-09
v 0.0514902622 0.0801200494 0
v -1.21116637E-08 0.0952390134 1.51395796E-09
v 0.0661458224 0.0573154688 0
v 0.0719769672 0.0623681657 3.02791592E-09
v -1.8167496E-08 0.0875233114 0
v -0.026831938 0.0913811848 1.51395796E-09
v 0.0796141028 0.0363583788 0
v 0.0866325423 0.0395635851 1.51395796E-09
v -0.0246581901 0.0839780271 -1.51395796E-09
v -0.0514901094 0.0801201835 3.02791592E-09
v 0.0866324976 0.0124557316 0
v 0.0942696482 0.0135537749 0
v -0.047318697 0.0736292973 0
v -0.0719768479 0.062368311 1.51395796E-09
v 0.0866324455 -0.0124560045 0
v 0.0942696258 -0.013554072 3.02791592E-09
v -0.0661457181 0.0573156029 0
v -0.0866324678 0.0395637415 1.51395796E-09
v 0.0796139836 -0.0363586284 1.51395796E-09
v 0.0866324082 -0.0395638384 1.51395796E-09
v -0.0796140283 0.0363585241 0
v -0.0942696333 0.0135539686 3.02791592E-09
v 0.066145651 -0.0573156886 0
v 0.0719767883 -0.0623683929 1.51395796E-09
v -0.0866324753 0.012455889 0
v -0.0942696407 -0.0135538904 1.51395796E-09
v 0.0473185927 -0.0736293867 1.51395796E-09
v 0.05149002 -0.0801202431 1.51395796E-09
v -0.0866324902 -0.012455835 0
v -0.0866324976 -0.0395636894 1.51395796E-09
v 0.0246580821 -0.0839780644 3.02791592E-09
v 0.0268318336 -0.091381222 1.51395796E-09
v -0.0796140581 -0.0363584682 1.51395796E-09
v -0.0719769076 -0.0623682626 1.51395796E-09
v -8.47816466E-08 -0.0875233412 1.51395796E-09
v -9.68933094E-08 -0.0952390358 1.51395796E-09
v -0.0661457703 -0.0573155656 1.51395796E-09
v -0.051490169 -0.0801201463 1.51395796E-09
v -0.0246582571 -0.0839780122 3.02791592E-09
v -0.0268320218 -0.0913811624 1.51395796E-09
v -0.0473187491 -0.0736292899 3.02791592E-09
v 0.0204866789 -0.069771491 3.02791592E-09
v -7.26699838E-08 -0.072717011 0
v -0.0204868 -0.0697714463 1.51395796E-09
v -0.0393138304 -0.0611734204 1.51395796E-09
v -0.0549558848 -0.0476194881 3.02791592E-09
v -0.0661457404 -0.0302077066 0
v 0.0393137038 -0.0611734949 0
v -0.0719768703 -0.0103486776 0
v 0.0549557842 -0.0476195887 1.51395796E-09
v -0.0719768554 0.0103487261 -1.51395796E-09
v 0.0661456883 -0.0302078389 0
v -0.0661457181 0.0302077495 0
v 0.0719768628 -0.0103488173 -1.51395796E-09
v -0.0549558513 0.0476195142 0
v 0.0719768703 0.0103485929 -1.51395796E-09
v -0.039313782 0.0611734316 -3.02791592E-09
v 0.0661457777 0.0302076284 -1.51395796E-09
v -0.0204867646 0.0697714463 -1.51395796E-09
v 0.0549559407 0.0476194173 -1.51395796E-09
v -1.21116637E-08 0.0727169961 -3.02791592E-09
v 0.0393139087 0.0611733496 -1.51395796E-09
v 0.0204868857 0.069771409 -1.51395796E-09
v 0.0514901169 0.0074030729 -1.51395796E-09
v 0.0473187119 0.0216096304 -1.51395796E-09
v 0.0393138379 0.0340655074 -3.02791592E-09
v 0.0281239916 0.0437616073 -1.51395796E-09
v 0.014655713 0.0499123968 -3.02791592E-09
v -0 0.0520195961 -4.54187399E-09
v 0.051490102 -0.0074032424 -1.51395796E-09
v -0.0146556217 0.049912408 -3.02791592E-09
v 0.0473186523 -0.0216097869 0
v -0.0281239133 0.0437616557 -3.02791592E-09
v 0.0393137522 -0.0340656415 -1.51395796E-09
v -0.039313782 0.0340655819 -3.02791592E-09
v 0.0281238705 -0.0437617041 1.51395796E-09
v -0.0473186895 0.0216097143 -1.51395796E-09
v 0.0146555547 -0.0499124564 1.51395796E-09
v -0.0514901094 0.00740318187 -3.02791592E-09
v -4.84466547E-08 -0.0520195961 0
v -0.0514901169 -0.00740313949 -1.51395796E-09
v -0.014655658 -0.0499124192 1.51395796E-09
v -0.0473187007 -0.0216097031 -1.51395796E-09
v -0.0281239487 -0.043761652 0
v -0.0393138081 -0.034065567 0
v -2.42233273E-08 -0.0271078534 -1.51395796E-09
v -0.00763719715 -0.0260098036 -1.51395796E-09
v -0.0146556403 -0.0228045788 -1.51395796E-09
v -0.0204867646 -0.0177518651 -1.51395796E-09
v -6.05583184E-09 -6.05583184E-09 -1.51395796E-09
v 0.00763714872 -0.0260098092 0
v -0.0246581901 -0.0112610012 -1.51395796E-09
v 0.0146555789 -0.022804603 -1.51395796E-09
v -0.026831938 -0.00385784335 -1.51395796E-09
v 0.0204867274 -0.0177519023 0
v -0.026831938 0.00385786151 -1.51395796E-09
v 0.0246581659 -0.0112610552 -1.51395796E-09
v -0.0246581789 0.0112610133 -1.51395796E-09
v 0.0268319305 -0.00385789201 -1.51395796E-09
v -0.0204867572 0.0177518725 -1.51395796E-09
v 0.0268319547 0.00385780702 -1.51395796E-09
v -0.0146556282 0.0228045676 -1.51395796E-09
v 0.0246582031 0.0112609528 -1.51395796E-09
v -0.00763716688 0.026009798 -3.02791592E-09
v 0.0204867888 0.0177518353 -3.02791592E-09
v -0 0.0271078404 -3.02791592E-09
v 0.0146556646 0.0228045546 -3.02791592E-09
v 0.00763722137 0.0260097738 -3.02791592E-09
vt 0.74839288 0.886505127
vt 0.629440188 0.940829337
vt 0.64085108 0.979691029
vt 0.770290136 0.920577765
vt 0.50000006 0.999942482
vt 0.847222209 0.80086863
vt 0.877831936 0.827391982
vt 0.50000006 0.959440172
vt 0.359149963 0.979691327
vt 0.917921782 0.69085753
vt 0.954764009 0.707682788
vt 0.370560765 0.940829635
vt 0.229710728 0.92057848
vt 0.95476377 0.565384328
vt 0.994853854 0.571148336
vt 0.251607955 0.886505723
vt 0.122168779 0.827392817
vt 0.954763532 0.434614062
vt 0.994853616 0.428849936
vt 0.152778357 0.800869465
vt 0.0452363789 0.707683802
vt 0.917921066 0.30914098
vt 0.954763293 0.292315662
vt 0.0820785761 0.690858543
vt 0.00514623523 0.571149528
vt 0.847221196 0.199130148
vt 0.877830744 0.172606736
vt 0.0452362895 0.565385401
vt 0.00514611602 0.428851098
vt 0.748391509 0.113494009
vt 0.770288706 0.079421252
vt 0.0452361703 0.434615165
vt 0.0452360809 0.292316735
vt 0.629438639 0.0591702163
vt 0.640849411 0.0203084946
vt 0.0820783079 0.309141994
vt 0.122168303 0.17260763
vt 0.499999404 0.0405598283
vt 0.499999374 5.75184822E-05
vt 0.15277797 0.199130982
vt 0.229710221 0.0794218779
vt 0.370560229 0.0591705441
vt 0.359149367 0.0203088522
vt 0.251607478 0.113494575
vt 0.607541502 0.133745402
vt 0.499999493 0.118283361
vt 0.392457545 0.13374567
vt 0.293628037 0.178879708
vt 0.211517513 0.250029027
vt 0.152778149 0.341429472
vt 0.706371129 0.178879231
vt 0.122168601 0.445676327
vt 0.788481772 0.250028312
vt 0.12216866 0.55432415
vt 0.847221375 0.341428608
vt 0.152778327 0.658571005
vt 0.877831221 0.445675433
vt 0.21151787 0.74997139
vt 0.87783134 0.554323256
vt 0.293628454 0.82112056
vt 0.847221911 0.65857017
vt 0.392458022 0.866254449
vt 0.788482666 0.749970675
vt 0.5 0.881716609
vt 0.706372201 0.821120024
vt 0.607542753 0.86625421
vt 0.770289302 0.538861275
vt 0.748392224 0.613436401
vt 0.706371903 0.678821623
vt 0.647632539 0.729719758
vt 0.576932907 0.762007356
vt 0.5 0.773068786
vt 0.770289183 0.461137801
vt 0.423067629 0.762007594
vt 0.748391867 0.386562735
vt 0.352367938 0.729720116
vt 0.706371307 0.321177661
vt 0.293628424 0.6788221
vt 0.647631764 0.270279735
vt 0.251607925 0.613436997
vt 0.576931953 0.237992316
vt 0.229710639 0.538861871
vt 0.499999642 0.226931244
vt 0.229710609 0.461138457
vt 0.423067331 0.237992555
vt 0.251607776 0.386563331
vt 0.35236761 0.270280063
vt 0.293628216 0.321178168
vt 0.499999791 0.35770151
vt 0.459909678 0.363465667
vt 0.423067451 0.380290955
vt 0.392457843 0.406814396
vt 0.49999994 0.5
vt 0.540089905 0.363465548
vt 0.370560646 0.440887183
vt 0.576932192 0.380290806
vt 0.359149873 0.479748905
vt 0.607541859 0.406814158
vt 0.359149873 0.520251274
vt 0.629439116 0.440886855
vt 0.370560735 0.559112966
vt 0.640850008 0.479748577
vt 0.392457962 0.593185723
vt 0.640850067 0.520250916
vt 0.423067629 0.619709134
vt 0.629439354 0.559112668
vt 0.459909856 0.636534393
vt 0.607542157 0.593185484
vt 0.49999997 0.64229846
vt 0.576932549 0.619708955
vt 0.540090382 0.636534333
vn -0 0 1
vn -0 0 1
vn -0 -2.90520632E-07 1
vn -0 0 1
vn -0 -2.98468819E-07 1
vn -0 0 1
vn -0 0 1
vn -0 0 1
vn -0 -3.17465663E-07 1
vn -0 0 1
vn -0 0 1
vn -0 0 1
vn -0 -2.90123069E-07 1
vn -0 0 1
vn -0 0 1
vn -0 0 1
vn -0 0 1
vn -0 0 1
vn -0 0 1
vn -0 0 1
vn -0 0 1
vn -0 0 1
vn -0 0 1
vn -0 0 1
vn 2.95431022E-07 0 1
vn -0 0 1
vn -0 0 1
vn -0 0 1
vn -0 0 1
vn -0 0 1
vn -0 0 1
vn -0 0 1
vn -0 0 1
vn -0 0 1
vn -0 0 1
vn -0 0 1
vn -0 0 1
vn -0 0 1
vn -0 0 1
vn -0 0 1
vn -0 0 1
vn -0 0 1
vn -0 0 1
vn -0 0 1
vn -0 0 1
vn -0 0 1
vn -0 0 1
vn -0 0 1
vn -0 0 1
vn -0 0 1
vn -0 0 1
vn -0 0 1
vn -0 0 1
vn -0 0 1
vn -0 0 1
vn -0 0 1
vn -0 0 1
vn -0 0 1
vn -0 0 1
vn -0 0 1
vn -0 0 1
vn -0 0 1
vn -0 0 1
vn -0 0 1
vn -0 0 1
vn -0 0 1
vn -0 0 1
vn -0 0 1
vn -0 0 1
vn -0 0 1
vn -0 0 1
vn -0 0 1
vn -0 0 1
vn -0 0 1
vn -0 0 1
vn -0 0 1
vn -0 0 1
vn -0 0 1
vn -0 0 1
vn -0 0 1
vn -0 0 1
vn -0 0 1
vn -0 0 1
vn -0 0 1
vn -0 0 1
vn -0 0 1
vn -0 0 1
vn -0 0 1
vn -0 0 1
vn -0 0 1
vn -0 0 1
vn -0 0 1
vn -0 0 1
vn -0 0 1
vn -0 0 1
vn -0 0 1
vn -0 0 1
vn -0 0 1
vn -0 0 1
vn -0 0 1
vn -0 0 1
vn -0 0 1
vn -0 0 1
vn -0 0 1
vn -0 0 1
vn -0 0 1
vn -0 0 1
vn -0 0 1
vn -0 0 1
vn -0 0 1
vn -0 0 1
g Sphere001_0
f 3/3/3 2/2/2 1/1/1
f 4/4/4 3/3/3 1/1/1
f 3/3/3 5/5/5 2/2/2
f 4/4/4 1/1/1 6/6/6
f 7/7/7 4/4/4 6/6/6
f 5/5/5 8/8/8 2/2/2
f 5/5/5 9/9/9 8/8/8
f 7/7/7 6/6/6 10/10/10
f 11/11/11 7/7/7 10/10/10
f 9/9/9 12/12/12 8/8/8
f 9/9/9 13/13/13 12/12/12
f 11/11/11 10/10/10 14/14/14
f 15/15/15 11/11/11 14/14/14
f 13/13/13 16/16/16 12/12/12
f 13/13/13 17/17/17 16/16/16
f 15/15/15 14/14/14 18/18/18
f 19/19/19 15/15/15 18/18/18
f 17/17/17 20/20/20 16/16/16
f 17/17/17 21/21/21 20/20/20
f 19/19/19 18/18/18 22/22/22
f 23/23/23 19/19/19 22/22/22
f 21/21/21 24/24/24 20/20/20
f 21/21/21 25/25/25 24/24/24
f 23/23/23 22/22/22 26/26/26
f 27/27/27 23/23/23 26/26/26
f 25/25/25 28/28/28 24/24/24
f 25/25/25 29/29/29 28/28/28
f 27/27/27 26/26/26 30/30/30
f 31/31/31 27/27/27 30/30/30
f 29/29/29 32/32/32 28/28/28
f 29/29/29 33/33/33 32/32/32
f 31/31/31 30/30/30 34/34/34
f 35/35/35 31/31/31 34/34/34
f 33/33/33 36/36/36 32/32/32
f 33/33/33 37/37/37 36/36/36
f 35/35/35 34/34/34 38/38/38
f 39/39/39 35/35/35 38/38/38
f 37/37/37 40/40/40 36/36/36
f 37/37/37 41/41/41 40/40/40
f 39/39/39 38/38/38 42/42/42
f 43/43/43 39/39/39 42/42/42
f 41/41/41 43/43/43 44/44/44
f 41/41/41 44/44/44 40/40/40
f 43/43/43 42/42/42 44/44/44
f 34/34/34 30/30/30 45/45/45
f 38/38/38 34/34/34 46/46/46
f 34/34/34 45/45/45 46/46/46
f 42/42/42 38/38/38 47/47/47
f 38/38/38 46/46/46 47/47/47
f 44/44/44 42/42/42 48/48/48
f 42/42/42 47/47/47 48/48/48
f 40/40/40 44/44/44 49/49/49
f 44/44/44 48/48/48 49/49/49
f 36/36/36 40/40/40 50/50/50
f 40/40/40 49/49/49 50/50/50
f 30/30/30 51/51/51 45/45/45
f 30/30/30 26/26/26 51/51/51
f 36/36/36 50/50/50 52/52/52
f 32/32/32 36/36/36 52/52/52
f 26/26/26 53/53/53 51/51/51
f 26/26/26 22/22/22 53/53/53
f 32/32/32 52/52/52 54/54/54
f 28/28/28 32/32/32 54/54/54
f 22/22/22 55/55/55 53/53/53
f 22/22/22 18/18/18 55/55/55
f 28/28/28 54/54/54 56/56/56
f 24/24/24 28/28/28 56/56/56
f 18/18/18 57/57/57 55/55/55
f 18/18/18 14/14/14 57/57/57
f 24/24/24 56/56/56 58/58/58
f 20/20/20 24/24/24 58/58/58
f 14/14/14 59/59/59 57/57/57
f 14/14/14 10/10/10 59/59/59
f 20/20/20 58/58/58 60/60/60
f 16/16/16 20/20/20 60/60/60
f 10/10/10 61/61/61 59/59/59
f 10/10/10 6/6/6 61/61/61
f 16/16/16 60/60/60 62/62/62
f 12/12/12 16/16/16 62/62/62
f 6/6/6 63/63/63 61/61/61
f 6/6/6 1/1/1 63/63/63
f 12/12/12 62/62/62 64/64/64
f 8/8/8 12/12/12 64/64/64
f 1/1/1 65/65/65 63/63/63
f 1/1/1 2/2/2 65/65/65
f 2/2/2 8/8/8 66/66/66
f 8/8/8 64/64/64 66/66/66
f 2/2/2 66/66/66 65/65/65
f 59/59/59 61/61/61 67/67/67
f 61/61/61 63/63/63 68/68/68
f 61/61/61 68/68/68 67/67/67
f 63/63/63 65/65/65 69/69/69
f 63/63/63 69/69/69 68/68/68
f 65/65/65 66/66/66 70/70/70
f 65/65/65 70/70/70 69/69/69
f 66/66/66 64/64/64 71/71/71
f 66/66/66 71/71/71 70/70/70
f 64/64/64 62/62/62 72/72/72
f 64/64/64 72/72/72 71/71/71
f 59/59/59 67/67/67 73/73/73
f 57/57/57 59/59/59 73/73/73
f 62/62/62 74/74/74 72/72/72
f 62/62/62 60/60/60 74/74/74
f 57/57/57 73/73/73 75/75/75
f 55/55/55 57/57/57 75/75/75
f 60/60/60 76/76/76 74/74/74
f 60/60/60 58/58/58 76/76/76
f 55/55/55 75/75/75 77/77/77
f 53/53/53 55/55/55 77/77/77
f 58/58/58 78/78/78 76/76/76
f 58/58/58 56/56/56 78/78/78
f 53/53/53 77/77/77 79/79/79
f 51/51/51 53/53/53 79/79/79
f 56/56/56 80/80/80 78/78/78
f 56/56/56 54/54/54 80/80/80
f 51/51/51 79/79/79 81/81/81
f 45/45/45 51/51/51 81/81/81
f 54/54/54 82/82/82 80/80/80
f 54/54/54 52/52/52 82/82/82
f 45/45/45 81/81/81 83/83/83
f 46/46/46 45/45/45 83/83/83
f 52/52/52 84/84/84 82/82/82
f 52/52/52 50/50/50 84/84/84
f 46/46/46 83/83/83 85/85/85
f 47/47/47 46/46/46 85/85/85
f 50/50/50 86/86/86 84/84/84
f 50/50/50 49/49/49 86/86/86
f 47/47/47 85/85/85 87/87/87
f 48/48/48 47/47/47 87/87/87
f 49/49/49 48/48/48 88/88/88
f 49/49/49 88/88/88 86/86/86
f 48/48/48 87/87/87 88/88/88
f 83/83/83 81/81/81 89/89/89
f 85/85/85 83/83/83 90/90/90
f 83/83/83 89/89/89 90/90/90
f 87/87/87 85/85/85 91/91/91
f 85/85/85 90/90/90 91/91/91
f 88/88/88 87/87/87 92/92/92
f 87/87/87 91/91/91 92/92/92
f 91/91/91 90/90/90 93/93/93
f 90/90/90 89/89/89 93/93/93
f 92/92/92 91/91/91 93/93/93
f 81/81/81 94/94/94 89/89/89
f 89/89/89 94/94/94 93/93/93
f 81/81/81 79/79/79 94/94/94
f 88/88/88 92/92/92 95/95/95
f 95/95/95 92/92/92 93/93/93
f 86/86/86 88/88/88 95/95/95
f 94/94/94 96/96/96 93/93/93
f 79/79/79 96/96/96 94/94/94
f 97/97/97 95/95/95 93/93/93
f 86/86/86 95/95/95 97/97/97
f 79/79/79 77/77/77 96/96/96
f 84/84/84 86/86/86 97/97/97
f 77/77/77 98/98/98 96/96/96
f 96/96/96 98/98/98 93/93/93
f 77/77/77 75/75/75 98/98/98
f 84/84/84 97/97/97 99/99/99
f 99/99/99 97/97/97 93/93/93
f 82/82/82 84/84/84 99/99/99
f 75/75/75 100/100/100 98/98/98
f 98/98/98 100/100/100 93/93/93
f 75/75/75 73/73/73 100/100/100
f 82/82/82 99/99/99 101/101/101
f 101/101/101 99/99/99 93/93/93
f 80/80/80 82/82/82 101/101/101
f 73/73/73 102/102/102 100/100/100
f 100/100/100 102/102/102 93/93/93
f 73/73/73 67/67/67 102/102/102
f 103/103/103 101/101/101 93/93/93
f 80/80/80 101/101/101 103/103/103
f 102/102/102 104/104/104 93/93/93
f 67/67/67 104/104/104 102/102/102
f 105/105/105 103/103/103 93/93/93
f 78/78/78 80/80/80 103/103/103
f 78/78/78 103/103/103 105/105/105
f 67/67/67 68/68/68 104/104/104
f 76/76/76 78/78/78 105/105/105
f 68/68/68 106/106/106 104/104/104
f 104/104/104 106/106/106 93/93/93
f 68/68/68 69/69/69 106/106/106
f 76/76/76 105/105/105 107/107/107
f 107/107/107 105/105/105 93/93/93
f 74/74/74 76/76/76 107/107/107
f 69/69/69 108/108/108 106/106/106
f 106/106/106 108/108/108 93/93/93
f 69/69/69 70/70/70 108/108/108
f 74/74/74 107/107/107 109/109/109
f 109/109/109 107/107/107 93/93/93
f 72/72/72 74/74/74 109/109/109
f 70/70/70 110/110/110 108/108/108
f 108/108/108 110/110/110 93/93/93
f 70/70/70 71/71/71 110/110/110
f 111/111/111 109/109/109 93/93/93
f 72/72/72 109/109/109 111/111/111
f 110/110/110 111/111/111 93/93/93
f 71/71/71 111/111/111 110/110/110
f 71/71/71 72/72/72 111/111/111
