g Plane006
v -0.773431718 0.512406111 0
v -0.897644222 0.582176268 0
v -0.791275024 0.582775056 0
v -0.902363539 0.492477 0
v -0.746756613 0.44347012 0
v -0.893856287 0.401784122 0
v -0.712743044 0.375822574 0
v -0.87421608 0.311920345 0
v -0.672814488 0.309731007 0
v -0.845606685 0.224298149 0
v -0.628442049 0.245730251 0
v -0.810144186 0.140062481 0
v -0.581169546 0.184505627 0
v -0.769871175 0.0602065697 0
v -0.532604635 0.126820982 0
v -0.7267676 -0.0143531635 0
v -0.48439911 0.0734746456 0
v -0.682768524 -0.0827357098 0
v -0.439946383 0.028679559 0
v -0.634027839 -0.149180084 0
v -0.392163068 -0.0125024524 0
v -0.575906575 -0.213519663 0
v -0.338879347 -0.0525456518 0
v -0.510805726 -0.273238897 0
v -0.280624717 -0.0910770223 0
v -0.439648122 -0.328188658 0
v -0.218007773 -0.12772496 0
v -0.363278061 -0.378217101 0
v -0.151687577 -0.162134752 0
v -0.282488436 -0.423156232 0
v -0.0823559612 -0.193973303 0
v -0.198040605 -0.46281603 0
v -0.0107224435 -0.222929925 0
v -0.110675812 -0.496985167 0
v 0.0624915212 -0.248715147 0
v -0.0211272836 -0.525429189 0
v 0.136562765 -0.27106145 0
v 0.0698771775 -0.547893286 0
v 0.210770518 -0.289723098 0
v 0.161606178 -0.564100742 0
v 0.284403533 -0.304477036 0
v 0.253317952 -0.573750913 0
v 0.356770575 -0.315125376 0
v 0.344251603 -0.57651937 0
v 0.427214622 -0.321496367 0
v 0.433611423 -0.572054982 0
v 0.495135427 -0.323442161 0
v 0.520545661 -0.559982598 0
v 0.540876329 -0.323802918 0
v 0.598688006 -0.539671302 0
v 0.584893584 -0.316100121 0
v 0.670273423 -0.505069375 0
v 0.643024623 -0.294576675 0
v 0.745133758 -0.454284579 0
v 0.70460546 -0.260106415 0
v 0.81820482 -0.386668921 0
v 0.76186049 -0.213283613 0
v 0.881533027 -0.301854819 0
v 0.80864048 -0.153567806 0
v 0.925538182 -0.200609818 0
v 0.839179218 -0.0777960047 0
v 0.940259159 -0.0863227695 0
vt 0.966666996 1
vt 1.00000036 0
vt 1.00000036 1
vt 0.966666996 0
vt 0.933333695 1
vt 0.933333695 0
vt 0.900000334 1
vt 0.900000334 0
vt 0.866667032 1
vt 0.866667032 0
vt 0.833333671 1
vt 0.833333671 0
vt 0.80000037 1
vt 0.80000037 0
vt 0.766667008 1
vt 0.766667008 0
vt 0.733333707 1
vt 0.733333707 0
vt 0.700000346 1
vt 0.700000346 0
vt 0.666666985 1
vt 0.666666985 0
vt 0.633333683 1
vt 0.633333683 0
vt 0.600000381 1
vt 0.600000381 0
vt 0.56666702 1
vt 0.56666702 0
vt 0.533333659 1
vt 0.533333659 0
vt 0.500000358 1
vt 0.500000358 0
vt 0.466666996 1
vt 0.466666996 0
vt 0.433333635 1
vt 0.433333635 0
vt 0.400000274 1
vt 0.400000274 0
vt 0.366666913 1
vt 0.366666913 0
vt 0.333333552 1
vt 0.333333552 0
vt 0.300000191 1
vt 0.300000191 0
vt 0.26666683 1
vt 0.26666683 0
vt 0.233333468 1
vt 0.233333468 0
vt 0.200000107 1
vt 0.200000107 0
vt 0.166666746 1
vt 0.166666746 0
vt 0.133333385 1
vt 0.133333385 0
vt 0.100000024 1
vt 0.100000024 0
vt 0.0666666627 1
vt 0.0666666627 0
vt 0.0333333015 1
vt 0.0333333015 0
vt 0 1
vt 0 0
vn -0 0 1
vn -0 0 1
vn -0 0 1
vn -0 0 1
vn -0 0 1
vn -0 0 1
vn -0 0 1
vn -0 0 1
vn -0 0 1
vn -0 0 1
vn -0 0 1
vn -0 0 1
vn -0 0 1
vn -0 0 1
vn -0 0 1
vn -0 0 1
vn -0 0 1
vn -0 0 1
vn -0 0 1
vn -0 0 1
vn -0 0 1
vn -0 0 1
vn -0 0 1
vn -0 0 1
vn -0 0 1
vn -0 0 1
vn -0 0 1
vn -0 0 1
vn -0 0 1
vn -0 0 1
vn -0 0 1
vn -0 0 1
vn -0 0 1
vn -0 0 1
vn -0 0 1
vn -0 0 1
vn -0 0 1
vn -0 0 1
vn -0 0 1
vn -0 0 1
vn -0 0 1
vn -0 0 1
vn -0 0 1
vn -0 0 1
vn -0 0 1
vn -0 0 1
vn -0 0 1
vn -0 0 1
vn -0 0 1
vn -0 0 1
vn -0 0 1
vn -0 0 1
vn -0 0 1
vn -0 0 1
vn -0 0 1
vn -0 0 1
vn -0 0 1
vn -0 0 1
vn -0 0 1
vn -0 0 1
vn -0 0 1
vn -0 0 1
g Plane006_0
f 3/3/3 2/2/2 1/1/1
f 4/4/4 1/1/1 2/2/2
f 1/1/1 4/4/4 5/5/5
f 6/6/6 5/5/5 4/4/4
f 5/5/5 6/6/6 7/7/7
f 8/8/8 7/7/7 6/6/6
f 7/7/7 8/8/8 9/9/9
f 10/10/10 9/9/9 8/8/8
f 9/9/9 10/10/10 11/11/11
f 12/12/12 11/11/11 10/10/10
f 11/11/11 12/12/12 13/13/13
f 14/14/14 13/13/13 12/12/12
f 13/13/13 14/14/14 15/15/15
f 16/16/16 15/15/15 14/14/14
f 15/15/15 16/16/16 17/17/17
f 18/18/18 17/17/17 16/16/16
f 17/17/17 18/18/18 19/19/19
f 20/20/20 19/19/19 18/18/18
f 19/19/19 20/20/20 21/21/21
f 22/22/22 21/21/21 20/20/20
f 21/21/21 22/22/22 23/23/23
f 24/24/24 23/23/23 22/22/22
f 23/23/23 24/24/24 25/25/25
f 26/26/26 25/25/25 24/24/24
f 25/25/25 26/26/26 27/27/27
f 28/28/28 27/27/27 26/26/26
f 27/27/27 28/28/28 29/29/29
f 30/30/30 29/29/29 28/28/28
f 29/29/29 30/30/30 31/31/31
f 32/32/32 31/31/31 30/30/30
f 31/31/31 32/32/32 33/33/33
f 34/34/34 33/33/33 32/32/32
f 33/33/33 34/34/34 35/35/35
f 36/36/36 35/35/35 34/34/34
f 35/35/35 36/36/36 37/37/37
f 38/38/38 37/37/37 36/36/36
f 37/37/37 38/38/38 39/39/39
f 40/40/40 39/39/39 38/38/38
f 39/39/39 40/40/40 41/41/41
f 42/42/42 41/41/41 40/40/40
f 41/41/41 42/42/42 43/43/43
f 44/44/44 43/43/43 42/42/42
f 43/43/43 44/44/44 45/45/45
f 46/46/46 45/45/45 44/44/44
f 45/45/45 46/46/46 47/47/47
f 48/48/48 47/47/47 46/46/46
f 47/47/47 48/48/48 49/49/49
f 50/50/50 49/49/49 48/48/48
f 49/49/49 50/50/50 51/51/51
f 52/52/52 51/51/51 50/50/50
f 51/51/51 52/52/52 53/53/53
f 54/54/54 53/53/53 52/52/52
f 53/53/53 54/54/54 55/55/55
f 56/56/56 55/55/55 54/54/54
f 55/55/55 56/56/56 57/57/57
f 58/58/58 57/57/57 56/56/56
f 57/57/57 58/58/58 59/59/59
f 60/60/60 59/59/59 58/58/58
f 59/59/59 60/60/60 61/61/61
f 62/62/62 61/61/61 60/60/60
