g Plane001
v -0.128440082 0.127000019 0.8897174
v 0.125369653 0.0423333459 0.889315784
v 0.125369653 0.127000019 0.889315784
v -0.128440082 0.0423333608 0.8897174
v 0.125369653 -0.0423333235 0.889315784
v -0.128579319 0.127000004 0.635318875
v -0.128440082 -0.0423333123 0.8897174
v 0.125369653 -0.126999974 0.889315784
v -0.128440082 -0.126999974 0.8897174
v -0.128579319 0.0423333459 0.635318875
v -0.381262541 0.127000034 0.635412753
v -0.128579319 -0.0423333235 0.635318875
v -0.128579319 -0.126999989 0.635318875
v -0.381262541 0.0423333719 0.635412753
v -0.381262541 0.127000019 0.381412774
v -0.381262541 -0.0423332974 0.635412753
v -0.381262541 -0.126999959 0.635412753
v -0.381262541 0.0423333608 0.381412774
v -0.381262541 0.127000004 0.127412781
v -0.381262541 -0.0423333123 0.381412774
v -0.381262541 -0.126999974 0.381412774
v -0.381262541 0.0423333459 0.127412781
v -0.382120371 0.127000004 -0.126811132
v -0.381262541 -0.0423333235 0.127412781
v -0.381262541 -0.126999989 0.127412781
v -0.382120371 0.0423333347 -0.126811132
v -0.128120393 0.127000004 -0.126811132
v -0.382120371 -0.0423333347 -0.126811132
v -0.382120371 -0.127000004 -0.126811132
v -0.128120393 0.0423333347 -0.126811132
v 0.125879616 0.127000004 -0.126811132
v -0.128120393 -0.0423333347 -0.126811132
v -0.128120393 -0.127000004 -0.126811132
v 0.125879616 0.0423333347 -0.126811132
v 0.379879624 0.127000004 -0.126811132
v 0.125879616 -0.0423333347 -0.126811132
v 0.125879616 -0.127000004 -0.126811132
v 0.379879624 0.0423333347 -0.126811132
v 0.380019486 0.127000004 0.127825305
v 0.379879624 -0.0423333347 -0.126811132
v 0.379879624 -0.127000004 -0.126811132
v 0.380019486 0.0423333459 0.127825305
v 0.379325181 0.127000019 0.382965833
v 0.380019486 -0.0423333235 0.127825305
v 0.380019486 -0.126999989 0.127825305
v 0.379325181 0.0423333608 0.382965833
v 0.379325181 0.127000034 0.635270238
v 0.379325181 -0.0423333123 0.382965833
v 0.379325181 -0.126999974 0.382965833
v 0.379325181 0.0423333719 0.635270238
v 0.125595331 0.127000034 0.63533628
v 0.379325181 -0.0423332974 0.635270238
v 0.379325181 -0.126999959 0.635270238
v 0.125595331 0.0423333719 0.63533628
v 0.125369653 0.127000019 0.889315784
v 0.125369653 0.0423333459 0.889315784
v 0.125595331 -0.0423332974 0.63533628
v 0.125595331 -0.126999959 0.63533628
v 0.125369653 -0.0423333235 0.889315784
v 0.125369653 -0.126999974 0.889315784
vt 0.0714285746 1
vt 0 0.666666687
vt 0 1
vt 0.0714285746 0.666666627
vt 0 0.333333373
vt 0.142857149 1
vt 0.0714285746 0.333333313
vt 0 0
vt 0.0714285746 0
vt 0.142857149 0.666666627
vt 0.214285731 1
vt 0.142857149 0.333333313
vt 0.142857149 0
vt 0.214285731 0.666666627
vt 0.285714298 1
vt 0.214285731 0.333333313
vt 0.214285731 0
vt 0.285714298 0.666666627
vt 0.357142866 1
vt 0.285714298 0.333333313
vt 0.285714298 0
vt 0.357142866 0.666666627
vt 0.428571433 1
vt 0.357142866 0.333333313
vt 0.357142866 0
vt 0.428571433 0.666666627
vt 0.5 1
vt 0.428571433 0.333333313
vt 0.428571433 0
vt 0.5 0.666666627
vt 0.571428597 1
vt 0.5 0.333333313
vt 0.5 0
vt 0.571428597 0.666666627
vt 0.642857194 1
vt 0.571428597 0.333333313
vt 0.571428597 0
vt 0.642857194 0.666666627
vt 0.714285791 1
vt 0.642857194 0.333333313
vt 0.642857194 0
vt 0.714285791 0.666666627
vt 0.785714388 1
vt 0.714285791 0.333333313
vt 0.714285791 0
vt 0.785714388 0.666666627
vt 0.857142985 1
vt 0.785714388 0.333333313
vt 0.785714388 0
vt 0.857142985 0.666666627
vt 0.928571582 1
vt 0.857142985 0.333333313
vt 0.857142985 0
vt 0.928571582 0.666666627
vt 1.00000012 1
vt 1.00000012 0.666666687
vt 0.928571582 0.333333313
vt 0.928571582 0
vt 1.00000012 0.333333373
vt 1.00000012 0
vn 0.706353486 0 -0.707859337
vn -0.707352161 0 -0.706861377
vn -0.707352161 0 -0.706861377
vn 0.706353366 0 -0.707859397
vn -0.707352102 0 -0.706861317
vn 0.706781805 0 -0.707431674
vn 0.706353366 0 -0.707859457
vn -0.707352102 0 -0.706861436
vn 0.706353366 0 -0.707859457
vn 0.706781805 0 -0.707431614
vn 0.70697546 0 -0.707238138
vn 0.706781805 0 -0.707431614
vn 0.706781805 0 -0.707431614
vn 0.706975341 0 -0.707238197
vn 1 0 0
vn 0.706975341 0 -0.707238197
vn 0.706975341 0 -0.707238197
vn 1 0 0
vn 0.999998569 0 -0.00168717618
vn 1 0 0
vn 1 0 0
vn 0.999998569 0 -0.00168717641
vn 0.708298802 0 0.705912769
vn 0.999998569 0 -0.00168717629
vn 0.999998569 0 -0.00168717641
vn 0.708298802 0 0.705912709
vn -0 0 1
vn 0.708298743 0 0.705912769
vn 0.708298743 0 0.705912769
vn -0 0 1
vn -0 0 1
vn -0 0 1
vn -0 0 1
vn -0 0 1
vn -0.706912518 0 0.707300961
vn -0 0 1
vn -0 0 1
vn -0.706912518 0 0.707300961
vn -0.999999404 0 -0.00108595996
vn -0.706912458 0 0.707300961
vn -0.706912458 0 0.707300961
vn -0.999999404 0 -0.00108595996
vn -0.999999046 0 -0.00136059709
vn -0.999999404 0 -0.00108595996
vn -0.999999404 0 -0.00108595996
vn -0.999999046 0 -0.00136059721
vn -0.707198918 0 -0.70701474
vn -0.999999046 0 -0.00136059744
vn -0.999999046 0 -0.00136059744
vn -0.707198918 0 -0.70701468
vn -0.706884742 0 -0.707328796
vn -0.707198977 0 -0.70701468
vn -0.707198977 0 -0.70701468
vn -0.706884861 0 -0.707328737
vn -0.707352161 0 -0.706861377
vn -0.707352161 0 -0.706861377
vn -0.706884801 0 -0.707328677
vn -0.706884861 0 -0.707328618
vn -0.707352102 0 -0.706861317
vn -0.707352102 0 -0.706861436
g Plane001_0
f 3/3/3 2/2/2 1/1/1
f 4/4/4 1/1/1 2/2/2
f 2/2/2 5/5/5 4/4/4
f 1/1/1 4/4/4 6/6/6
f 7/7/7 4/4/4 5/5/5
f 5/5/5 8/8/8 7/7/7
f 9/9/9 7/7/7 8/8/8
f 10/10/10 6/6/6 4/4/4
f 4/4/4 7/7/7 10/10/10
f 6/6/6 10/10/10 11/11/11
f 7/7/7 9/9/9 12/12/12
f 12/12/12 10/10/10 7/7/7
f 13/13/13 12/12/12 9/9/9
f 14/14/14 11/11/11 10/10/10
f 10/10/10 12/12/12 14/14/14
f 11/11/11 14/14/14 15/15/15
f 12/12/12 13/13/13 16/16/16
f 16/16/16 14/14/14 12/12/12
f 17/17/17 16/16/16 13/13/13
f 18/18/18 15/15/15 14/14/14
f 14/14/14 16/16/16 18/18/18
f 15/15/15 18/18/18 19/19/19
f 16/16/16 17/17/17 20/20/20
f 20/20/20 18/18/18 16/16/16
f 21/21/21 20/20/20 17/17/17
f 22/22/22 19/19/19 18/18/18
f 18/18/18 20/20/20 22/22/22
f 19/19/19 22/22/22 23/23/23
f 20/20/20 21/21/21 24/24/24
f 24/24/24 22/22/22 20/20/20
f 25/25/25 24/24/24 21/21/21
f 26/26/26 23/23/23 22/22/22
f 22/22/22 24/24/24 26/26/26
f 23/23/23 26/26/26 27/27/27
f 24/24/24 25/25/25 28/28/28
f 28/28/28 26/26/26 24/24/24
f 29/29/29 28/28/28 25/25/25
f 30/30/30 27/27/27 26/26/26
f 26/26/26 28/28/28 30/30/30
f 27/27/27 30/30/30 31/31/31
f 28/28/28 29/29/29 32/32/32
f 32/32/32 30/30/30 28/28/28
f 33/33/33 32/32/32 29/29/29
f 34/34/34 31/31/31 30/30/30
f 30/30/30 32/32/32 34/34/34
f 31/31/31 34/34/34 35/35/35
f 32/32/32 33/33/33 36/36/36
f 36/36/36 34/34/34 32/32/32
f 37/37/37 36/36/36 33/33/33
f 38/38/38 35/35/35 34/34/34
f 34/34/34 36/36/36 38/38/38
f 35/35/35 38/38/38 39/39/39
f 36/36/36 37/37/37 40/40/40
f 40/40/40 38/38/38 36/36/36
f 41/41/41 40/40/40 37/37/37
f 42/42/42 39/39/39 38/38/38
f 38/38/38 40/40/40 42/42/42
f 39/39/39 42/42/42 43/43/43
f 40/40/40 41/41/41 44/44/44
f 44/44/44 42/42/42 40/40/40
f 45/45/45 44/44/44 41/41/41
f 46/46/46 43/43/43 42/42/42
f 42/42/42 44/44/44 46/46/46
f 43/43/43 46/46/46 47/47/47
f 44/44/44 45/45/45 48/48/48
f 48/48/48 46/46/46 44/44/44
f 49/49/49 48/48/48 45/45/45
f 50/50/50 47/47/47 46/46/46
f 46/46/46 48/48/48 50/50/50
f 47/47/47 50/50/50 51/51/51
f 48/48/48 49/49/49 52/52/52
f 52/52/52 50/50/50 48/48/48
f 53/53/53 52/52/52 49/49/49
f 54/54/54 51/51/51 50/50/50
f 50/50/50 52/52/52 54/54/54
f 51/51/51 54/54/54 55/55/55
f 56/56/56 55/55/55 54/54/54
f 52/52/52 53/53/53 57/57/57
f 57/57/57 54/54/54 52/52/52
f 54/54/54 57/57/57 56/56/56
f 58/58/58 57/57/57 53/53/53
f 59/59/59 56/56/56 57/57/57
f 57/57/57 58/58/58 59/59/59
f 60/60/60 59/59/59 58/58/58
