g Sphere001
v -0.450042367 0.706114471 0.357858449
v -0.238893032 0.686514199 0.549263656
v -0.387791097 0.614808679 0.549263656
v -0.271465778 0.79211241 0.357858449
v -0.150375336 -0.823725104 0.357858449
v -0.291827112 -0.665739119 0.549263656
v -0.133905023 -0.714451611 0.549263656
v -0.339774609 -0.765303254 0.357858449
v -0.242059097 0.872497559 0.094059363
v -0.0258681867 0.855876446 0.309647828
v -0.227555171 0.825476944 0.309647828
v -0.0258681849 0.90508306 0.094059363
v -0.488478154 0.762386739 0.094059363
v -0.276992977 0.810227394 0.309647828
v -0.460759073 0.721730351 0.309647828
v -0.291496873 0.857248008 0.094059363
v -0.691493869 0.584534585 0.094059363
v -0.503505647 0.692586184 0.309647828
v -0.653022587 0.553854764 0.309647828
v -0.531224668 0.733242631 0.094059363
v -0.416006982 -0.804228067 0.094059363
v -0.563180983 -0.644996762 0.309647828
v -0.394657046 -0.759894371 0.309647828
v -0.596650004 -0.681067824 0.094059363
v -0.160474777 -0.891118586 0.094059363
v -0.348044246 -0.782341897 0.309647828
v -0.153140888 -0.842461586 0.309647828
v -0.369394183 -0.826675534 0.094059363
v 0.109316327 -0.89882946 0.094059363
v -0.101982445 -0.85017246 0.309647828
v 0.101982474 -0.85017246 0.309647828
v -0.109316312 -0.89882946 0.094059363
v -0.238340139 0.860398173 -0.178059369
v -0.0258555599 0.908952177 0.0424804576
v -0.243211582 0.87619102 0.0424804576
v -0.0258555617 0.89242506 -0.178059369
v -0.481358051 0.751921117 -0.178059369
v -0.292625278 0.86094892 0.0424804576
v -0.490668148 0.765576482 0.0424804613
v -0.287753791 0.845156014 -0.178059369
v -0.681605279 0.576632559 -0.178059369
v -0.5333938 0.736446619 0.0424804576
v -0.694526732 0.58693707 0.0424804576
v -0.524083734 0.722791195 -0.178059384
v -0.821288943 0.35010767 -0.178059384
v -0.726768076 0.546507716 0.0424804576
v -0.836673737 0.35614574 0.0424804576
v -0.713846624 0.536203206 -0.178059384
v -0.625956416 -0.636607826 -0.178059384
v -0.774247825 -0.476867765 0.0424804576
v -0.637197793 -0.648723066 0.0424804538
v -0.759934902 -0.468604177 -0.178059384
v -0.410503447 -0.792829037 -0.178059384
v -0.599290907 -0.683895469 0.0424804576
v -0.417674363 -0.807719469 0.0424804576
v -0.588049591 -0.671780229 -0.178059384
v -0.158575699 -0.878603876 -0.178059369
v -0.371084273 -0.830156088 0.0424804576
v -0.161038935 -0.894946396 0.0424804576
v -0.363913417 -0.815265536 -0.178059384
v 0.107442208 -0.886310935 -0.178059369
v -0.109905459 -0.902653575 0.0424804576
v 0.109905481 -0.902653575 0.0424804576
v -0.107442215 -0.886310935 -0.178059369
v 0.0258554816 0.892425001 -0.178059384
v 0.243213147 0.876190603 0.0424804576
v 0.0258554816 0.908952177 0.0424804576
v 0.23834163 0.860397637 -0.178059369
v -0.211099967 0.772212565 -0.434309572
v -0.0258923694 0.880899131 -0.228508562
v -0.234907627 0.849395096 -0.228508562
v -0.0258923694 0.800128162 -0.434309572
v -0.429334968 0.675682604 -0.434309572
v -0.284391642 0.8341313 -0.228508562
v -0.474834859 0.742418647 -0.228508562
v -0.260583967 0.756948769 -0.434309572
v -0.60942179 0.51911515 -0.434309572
v -0.517621398 0.713247359 -0.228508562
v -0.672571003 0.569474995 -0.228508562
v -0.472121447 0.646511197 -0.434309572
v -0.370490551 -0.709656417 -0.434309572
v -0.58018297 -0.663356185 -0.228508562
v -0.405535728 -0.782428503 -0.228508562
v -0.525244772 -0.604146838 -0.434309572
v -0.144855961 -0.787332356 -0.434309572
v -0.358879358 -0.80489707 -0.228508562
v -0.156894237 -0.867201149 -0.228508562
v -0.323834181 -0.732124925 -0.434309572
v 0.0936497077 -0.795050502 -0.434309572
v -0.105687961 -0.874919236 -0.228508562
v 0.105687961 -0.874919236 -0.228508562
v -0.0936496928 -0.795050502 -0.434309572
v -0.337058187 0.540468574 -0.651948154
v -0.253005683 0.732129753 -0.479214847
v -0.414655685 0.654283226 -0.479214847
v -0.212403089 0.600499392 -0.651948154
v -0.120530821 -0.6254493 -0.651948154
v -0.312508225 -0.708776772 -0.479214847
v -0.14106141 -0.761661053 -0.479214847
v -0.252740651 -0.584667981 -0.651948154
vt 0.606664777 0.923449516
vt 0.698955536 0.960463285
vt 0.688083291 0.922379434
vt 0.614334345 0.960866988
vt 0.606665015 0.542497158
vt 0.698955655 0.579510927
vt 0.688083291 0.541427016
vt 0.614334345 0.579914689
vt 0.509918213 0.970304072
vt 0.604497313 1.00848258
vt 0.594737053 0.969988286
vt 0.518423319 1.00849628
vt 0.509918213 0.922685027
vt 0.604497433 0.960863531
vt 0.594737053 0.922369242
vt 0.518423319 0.96087718
vt 0.509918213 0.875066042
vt 0.604497433 0.913244486
vt 0.594737053 0.874750197
vt 0.518423319 0.913258135
vt 0.509918332 0.589351654
vt 0.604497313 0.627530217
vt 0.594737053 0.589035928
vt 0.518423319 0.627543867
vt 0.509918332 0.541732669
vt 0.604497433 0.579911113
vt 0.594737053 0.541416883
vt 0.518423438 0.579924703
vt 0.509918332 0.494113624
vt 0.604497433 0.532292068
vt 0.594737172 0.493797779
vt 0.518423438 0.532305717
vt 0.414074659 0.969999135
vt 0.50905776 1.00838399
vt 0.500154495 0.969986081
vt 0.423389435 1.00849843
vt 0.414074719 0.92238003
vt 0.50905776 0.960764945
vt 0.500154495 0.922367036
vt 0.423389316 0.960879445
vt 0.41407463 0.874761045
vt 0.509057641 0.9131459
vt 0.500154495 0.874747992
vt 0.423389435 0.913260341
vt 0.4140746 0.827142
vt 0.50905776 0.865526855
vt 0.500154495 0.827128887
vt 0.423389345 0.865641356
vt 0.414074689 0.636665821
vt 0.50905776 0.675050616
vt 0.500154495 0.636652708
vt 0.423389375 0.675165176
vt 0.414074659 0.589046717
vt 0.50905776 0.627431631
vt 0.500154495 0.589033723
vt 0.423389405 0.627546072
vt 0.41407463 0.541427732
vt 0.509057641 0.579812586
vt 0.500154495 0.541414618
vt 0.423389375 0.579927087
vt 0.414074719 0.493808627
vt 0.50905776 0.532193422
vt 0.500154614 0.493795514
vt 0.423389435 0.532307982
vt 0.414074749 0.0176182389
vt 0.509057879 0.0560032725
vt 0.500154614 0.0176053047
vt 0.423389316 0.0561178923
vt 0.319074452 0.970124543
vt 0.412795246 1.00786531
vt 0.404694438 0.969992518
vt 0.329340875 1.00849199
vt 0.319074452 0.922505498
vt 0.412795305 0.960246325
vt 0.404694408 0.922373474
vt 0.329340875 0.960872889
vt 0.319074452 0.874886453
vt 0.412795305 0.91262728
vt 0.404694349 0.874754429
vt 0.329340875 0.913253844
vt 0.319074452 0.589172184
vt 0.412795275 0.626913071
vt 0.404694408 0.58904016
vt 0.329340905 0.627539515
vt 0.319074452 0.54155314
vt 0.412795335 0.579293907
vt 0.404694349 0.541421175
vt 0.329340845 0.57992053
vt 0.319074541 0.493933976
vt 0.412795365 0.531674862
vt 0.404694468 0.493802011
vt 0.329340845 0.532301545
vt 0.225373685 0.923287213
vt 0.315432876 0.959171116
vt 0.308249921 0.922386527
vt 0.237018466 0.960859895
vt 0.22537379 0.542334855
vt 0.315432936 0.578218699
vt 0.30825001 0.54143405
vt 0.237018496 0.579907537
vn -0.376802087 0.782437742 0.495793819
vn -0.376802087 0.782437742 0.495793819
vn -0.376802057 0.782437682 0.495793819
vn -0.376802087 0.782437742 0.495793819
vn -0.255976945 -0.829857945 0.495793909
vn -0.255976945 -0.829857945 0.495793909
vn -0.255977005 -0.829857945 0.495793909
vn -0.255976886 -0.829857945 0.495793909
vn -0.145385519 0.96456939 0.22015664
vn -0.145385548 0.96456939 0.220156655
vn -0.145385697 0.96456939 0.220156789
vn -0.145385399 0.964569449 0.220156506
vn -0.423238277 0.878863156 0.220156655
vn -0.423238337 0.878863156 0.220156655
vn -0.423238158 0.878863215 0.220156565
vn -0.423238307 0.878863037 0.220156729
vn -0.663484395 0.715066135 0.22015655
vn -0.663484335 0.715066135 0.220156536
vn -0.663484335 0.715066135 0.220156506
vn -0.663484335 0.715066195 0.22015655
vn -0.549498558 -0.805966794 0.22015658
vn -0.549498558 -0.805966735 0.22015658
vn -0.549498558 -0.805966794 0.22015658
vn -0.549498558 -0.805966735 0.220156565
vn -0.287523091 -0.932127416 0.220156521
vn -0.287523091 -0.932127416 0.220156521
vn -0.28752318 -0.932127416 0.220156416
vn -0.287523001 -0.932127535 0.220156595
vn -0 -0.975464582 0.220156401
vn -0 -0.975464582 0.220156416
vn -0 -0.975464582 0.220156386
vn -0 -0.975464582 0.220156401
vn -0.148634747 0.986127019 -0.073899664
vn -0.148634747 0.986127019 -0.073899664
vn -0.148634732 0.986127019 -0.073899664
vn -0.148634747 0.986127019 -0.0738996714
vn -0.432697386 0.89850527 -0.0738998353
vn -0.432697326 0.89850527 -0.0738998353
vn -0.432697535 0.89850527 -0.0738996789
vn -0.432697266 0.89850539 -0.0739000216
vn -0.678313017 0.731047392 -0.073899895
vn -0.678313017 0.731047392 -0.073899895
vn -0.678313017 0.731047392 -0.0738998428
vn -0.678312957 0.731047392 -0.0738999546
vn -0.863657236 0.498632938 -0.0738999844
vn -0.863657236 0.498632997 -0.0738999844
vn -0.863657176 0.498633116 -0.0739001259
vn -0.863657355 0.498632908 -0.0738998428
vn -0.779693604 -0.621785045 -0.0738998652
vn -0.779693663 -0.621785045 -0.0738998726
vn -0.779693663 -0.621784985 -0.0738999471
vn -0.779693544 -0.621785283 -0.0738998055
vn -0.561779439 -0.823979735 -0.0738999397
vn -0.561779439 -0.823979735 -0.0738999397
vn -0.561779499 -0.823979735 -0.0738999769
vn -0.561779439 -0.823979735 -0.0738999024
vn -0.293949127 -0.952959955 -0.0739000142
vn -0.293949097 -0.952959955 -0.0739000067
vn -0.293948919 -0.952960014 -0.0738998353
vn -0.293949336 -0.952959955 -0.073900193
vn -0 -0.997265697 -0.073900193
vn -0 -0.997265697 -0.073900193
vn -0 -0.997265697 -0.0739002004
vn -0 -0.997265697 -0.073900193
vn 0.148635566 0.9861269 -0.0739002004
vn 0.148635551 0.9861269 -0.0739002004
vn 0.148635358 0.9861269 -0.0738999844
vn 0.148635745 0.986126781 -0.073900409
vn -0.138945729 0.921844304 -0.361797303
vn -0.138945699 0.921844304 -0.361797273
vn -0.138945669 0.921844304 -0.361797273
vn -0.138945758 0.921844304 -0.361797243
vn -0.404491067 0.839934349 -0.361797243
vn -0.404491067 0.839934349 -0.361797214
vn -0.404491216 0.839934349 -0.361797124
vn -0.404490948 0.839934409 -0.361797363
vn -0.634095669 0.683392465 -0.361797333
vn -0.634095788 0.683392465 -0.361797333
vn -0.634095907 0.683392406 -0.361797214
vn -0.63409549 0.683392584 -0.361797452
vn -0.525158703 -0.77026701 -0.361797065
vn -0.525158644 -0.77026701 -0.361797065
vn -0.525158644 -0.770267069 -0.361797035
vn -0.525158763 -0.770266891 -0.361797124
vn -0.274787277 -0.890839338 -0.361797243
vn -0.274787337 -0.890839398 -0.361797184
vn -0.274787247 -0.890839398 -0.361797154
vn -0.274787337 -0.890839338 -0.361797273
vn -0 -0.932256818 -0.361797124
vn -0 -0.932256818 -0.361797124
vn -0 -0.932256818 -0.361797124
vn -0 -0.932256937 -0.361797094
vn -0.340698272 0.7074669 -0.619205296
vn -0.340698183 0.7074669 -0.619205356
vn -0.340698063 0.70746696 -0.619205356
vn -0.340698451 0.707466841 -0.619205296
vn -0.23145017 -0.750343442 -0.619205534
vn -0.231450155 -0.750343442 -0.619205534
vn -0.231450126 -0.750343502 -0.619205475
vn -0.231450245 -0.750343382 -0.619205534
g Sphere001_0
f 3/3/3 2/2/2 1/1/1
f 4/4/4 1/1/1 2/2/2
f 7/7/7 6/6/6 5/5/5
f 8/8/8 5/5/5 6/6/6
f 11/11/11 10/10/10 9/9/9
f 12/12/12 9/9/9 10/10/10
f 15/15/15 14/14/14 13/13/13
f 16/16/16 13/13/13 14/14/14
f 19/19/19 18/18/18 17/17/17
f 20/20/20 17/17/17 18/18/18
f 23/23/23 22/22/22 21/21/21
f 24/24/24 21/21/21 22/22/22
f 27/27/27 26/26/26 25/25/25
f 28/28/28 25/25/25 26/26/26
f 31/31/31 30/30/30 29/29/29
f 32/32/32 29/29/29 30/30/30
f 35/35/35 34/34/34 33/33/33
f 36/36/36 33/33/33 34/34/34
f 39/39/39 38/38/38 37/37/37
f 40/40/40 37/37/37 38/38/38
f 43/43/43 42/42/42 41/41/41
f 44/44/44 41/41/41 42/42/42
f 47/47/47 46/46/46 45/45/45
f 48/48/48 45/45/45 46/46/46
f 51/51/51 50/50/50 49/49/49
f 52/52/52 49/49/49 50/50/50
f 55/55/55 54/54/54 53/53/53
f 56/56/56 53/53/53 54/54/54
f 59/59/59 58/58/58 57/57/57
f 60/60/60 57/57/57 58/58/58
f 63/63/63 62/62/62 61/61/61
f 64/64/64 61/61/61 62/62/62
f 67/67/67 66/66/66 65/65/65
f 68/68/68 65/65/65 66/66/66
f 71/71/71 70/70/70 69/69/69
f 72/72/72 69/69/69 70/70/70
f 75/75/75 74/74/74 73/73/73
f 76/76/76 73/73/73 74/74/74
f 79/79/79 78/78/78 77/77/77
f 80/80/80 77/77/77 78/78/78
f 83/83/83 82/82/82 81/81/81
f 84/84/84 81/81/81 82/82/82
f 87/87/87 86/86/86 85/85/85
f 88/88/88 85/85/85 86/86/86
f 91/91/91 90/90/90 89/89/89
f 92/92/92 89/89/89 90/90/90
f 95/95/95 94/94/94 93/93/93
f 96/96/96 93/93/93 94/94/94
f 99/99/99 98/98/98 97/97/97
f 100/100/100 97/97/97 98/98/98
