g Cone003
v 0.144590229 0.445003003 0
v 0.073089771 0.69540298 0.0488568395
v 0.0489092506 0.465340644 0
v 0.216075018 0.665010571 0.0488568395
v 0.233951896 0.405216634 0
v 0.349616706 0.605553985 0.0488568395
v 0.313088745 0.347720355 0
v 0.46787852 0.519631743 0.0488568395
v 0.378542185 0.275026977 0
v 0.565691769 0.410999119 0.0488568395
v 0.427451432 0.190313637 0
v 0.638781548 0.28440389 0.0488568395
v 0.457679033 0.0972826853 0
v 0.683953524 0.145378813 0.0488568395
v 0.467903852 0 0
v 0.699233472 0 0.0488568395
v 0.457678854 -0.0972835869 0
v 0.683953226 -0.145380169 0.0488568395
v 0.427451134 -0.190314367 0
v 0.63878113 -0.284404963 0.0488568395
v 0.378541738 -0.275027573 0
v 0.565691113 -0.411000013 0.0488568395
v 0.313088357 -0.347720742 0
v 0.467877865 -0.519632399 0.0488568395
v 0.233951509 -0.405216843 0
v 0.34961611 -0.605554283 0.0488568395
v 0.144589871 -0.445003122 0
v 0.216074497 -0.66501075 0.0488568395
v 0.0489090011 -0.465340674 0
v 0.0730893984 -0.695403039 0.0488568395
v -0.0489094332 -0.465340585 0
v -0.0730900392 -0.69540298 0.0488568395
v -0.144590288 -0.445002973 0
v -0.216075078 -0.665010512 0.0488568395
v -0.233951882 -0.405216634 0
v -0.349616677 -0.605553985 0.0488568395
v -0.313088745 -0.347720355 0
v -0.467878461 -0.519631743 0.0488568395
v -0.378542155 -0.275027037 0
v -0.56569171 -0.410999179 0.0488568395
v -0.427451432 -0.190313682 0
v -0.638781548 -0.28440392 0.0488568395
v -0.457678974 -0.0972827226 0
v -0.683953524 -0.145378873 0.0488568395
v -0.467903852 -4.09054515E-08 0
v -0.699233472 -6.11289366E-08 0.0488568395
v -0.457679033 0.0972826481 0
v -0.683953524 0.145378754 0.0488568395
v -0.427451462 0.190313607 0
v -0.638781607 0.284403831 0.0488568395
v -0.378542185 0.275026947 0
v -0.565691829 0.410999089 0.0488568395
v -0.313088834 0.347720325 0
v -0.46787855 0.519631743 0.0488568395
v -0.233951941 0.405216604 0
v -0.349616796 0.605553925 0.0488568395
v -0.144590259 0.445002973 0
v -0.216075063 0.665010512 0.0488568395
v -0.0489092916 0.465340644 0
v -0.0730898306 0.69540298 0.0488568395
v 0.0489092506 0.465340644 0
v 0.073089771 0.69540298 0.0488568395
vt 0.949999988 0
vt 0.983333349 1
vt 0.983333349 0
vt 0.949999988 1
vt 0.916666687 0
vt 0.916666687 1
vt 0.883333325 0
vt 0.883333325 1
vt 0.850000024 0
vt 0.850000024 1
vt 0.816666663 0
vt 0.816666663 1
vt 0.783333361 0
vt 0.783333361 1
vt 0.75 0
vt 0.75 1
vt 0.7166664 0
vt 0.7166664 1
vt 0.683333099 0
vt 0.683333099 1
vt 0.649999797 0
vt 0.649999797 1
vt 0.616666436 0
vt 0.616666436 1
vt 0.583333194 0
vt 0.583333135 1
vt 0.549999893 0
vt 0.549999893 1
vt 0.516666591 0
vt 0.516666591 1
vt 0.48333329 0
vt 0.48333329 1
vt 0.449999988 0
vt 0.449999988 1
vt 0.416666687 0
vt 0.416666687 1
vt 0.383333355 0
vt 0.383333355 1
vt 0.350000024 0
vt 0.350000024 1
vt 0.316666692 0
vt 0.316666692 1
vt 0.283333361 0
vt 0.283333361 1
vt 0.25000003 0
vt 0.25000003 1
vt 0.216666684 0
vt 0.216666684 1
vt 0.183333352 0
vt 0.183333352 1
vt 0.150000021 0
vt 0.150000021 1
vt 0.116666682 0
vt 0.116666682 1
vt 0.0833333507 0
vt 0.0833333507 1
vt 0.0500000194 0
vt 0.0500000194 1
vt 0.0166666862 0
vt 0.0166666862 1
vt -0.0166666508 0
vt -0.0166666508 1
vn 0.0638557896 0.196527928 -0.978416681
vn 0.0215999279 0.205509707 -0.978416681
vn 0.0215999279 0.205509678 -0.978416681
vn 0.0638557747 0.196527928 -0.978416681
vn 0.103320867 0.178956956 -0.978416681
vn 0.103320859 0.178956941 -0.978416681
vn 0.138270274 0.153564706 -0.978416681
vn 0.138270274 0.153564692 -0.978416681
vn 0.167176619 0.12146093 -0.978416681
vn 0.167176619 0.12146093 -0.978416681
vn 0.188776568 0.0840487555 -0.978416681
vn 0.188776582 0.0840487555 -0.978416681
vn 0.202126071 0.0429632403 -0.978416681
vn 0.202126101 0.0429632403 -0.978416681
vn 0.206641719 0 -0.978416681
vn 0.206641734 0 -0.978416681
vn 0.202126041 -0.0429634824 -0.978416681
vn 0.202126011 -0.0429634973 -0.978416681
vn 0.188776404 -0.0840490609 -0.978416681
vn 0.188776419 -0.0840490758 -0.978416681
vn 0.167176455 -0.121461198 -0.978416681
vn 0.16717647 -0.121461198 -0.978416681
vn 0.138270095 -0.1535649 -0.978416681
vn 0.13827008 -0.153564885 -0.978416681
vn 0.103320651 -0.178957075 -0.978416681
vn 0.103320651 -0.178957075 -0.978416681
vn 0.063855648 -0.196527973 -0.978416681
vn 0.063855648 -0.196527958 -0.978416681
vn 0.0215998124 -0.205509692 -0.978416681
vn 0.021599818 -0.205509707 -0.978416681
vn -0.0216000248 -0.205509678 -0.978416681
vn -0.021600021 -0.205509692 -0.978416681
vn -0.0638558269 -0.196527913 -0.978416681
vn -0.0638558269 -0.196527928 -0.978416681
vn -0.103320867 -0.178956956 -0.978416681
vn -0.103320844 -0.178956941 -0.978416681
vn -0.138270289 -0.153564766 -0.978416681
vn -0.138270274 -0.153564736 -0.978416681
vn -0.167176619 -0.121461004 -0.978416681
vn -0.167176649 -0.121461004 -0.978416681
vn -0.188776553 -0.0840487555 -0.978416681
vn -0.188776553 -0.0840487555 -0.978416681
vn -0.202126056 -0.0429632328 -0.978416681
vn -0.202126056 -0.0429632403 -0.978416681
vn -0.206641689 0 -0.978416681
vn -0.206641689 0 -0.978416681
vn -0.202126116 0.0429631881 -0.978416681
vn -0.202126116 0.0429631956 -0.978416681
vn -0.188776627 0.0840487182 -0.978416681
vn -0.188776612 0.0840487182 -0.978416681
vn -0.167176679 0.121460915 -0.978416681
vn -0.167176679 0.121460915 -0.978416681
vn -0.138270289 0.153564692 -0.978416681
vn -0.138270289 0.153564677 -0.978416681
vn -0.103320815 0.178957 -0.978416681
vn -0.103320822 0.178956941 -0.978416681
vn -0.0638558194 0.196527928 -0.978416681
vn -0.0638558194 0.196527928 -0.978416681
vn -0.0215999726 0.205509663 -0.978416681
vn -0.021599967 0.205509692 -0.978416681
vn 0.0215999279 0.205509678 -0.978416681
vn 0.0215999279 0.205509707 -0.978416681
g Cone003_0
f 3/3/3 2/2/2 1/1/1
f 2/2/2 4/4/4 1/1/1
f 1/1/1 4/4/4 5/5/5
f 4/4/4 6/6/6 5/5/5
f 5/5/5 6/6/6 7/7/7
f 6/6/6 8/8/8 7/7/7
f 7/7/7 8/8/8 9/9/9
f 8/8/8 10/10/10 9/9/9
f 9/9/9 10/10/10 11/11/11
f 10/10/10 12/12/12 11/11/11
f 11/11/11 12/12/12 13/13/13
f 12/12/12 14/14/14 13/13/13
f 13/13/13 14/14/14 15/15/15
f 14/14/14 16/16/16 15/15/15
f 15/15/15 16/16/16 17/17/17
f 16/16/16 18/18/18 17/17/17
f 17/17/17 18/18/18 19/19/19
f 18/18/18 20/20/20 19/19/19
f 19/19/19 20/20/20 21/21/21
f 20/20/20 22/22/22 21/21/21
f 21/21/21 22/22/22 23/23/23
f 22/22/22 24/24/24 23/23/23
f 23/23/23 24/24/24 25/25/25
f 24/24/24 26/26/26 25/25/25
f 25/25/25 26/26/26 27/27/27
f 26/26/26 28/28/28 27/27/27
f 27/27/27 28/28/28 29/29/29
f 28/28/28 30/30/30 29/29/29
f 29/29/29 30/30/30 31/31/31
f 30/30/30 32/32/32 31/31/31
f 31/31/31 32/32/32 33/33/33
f 32/32/32 34/34/34 33/33/33
f 33/33/33 34/34/34 35/35/35
f 34/34/34 36/36/36 35/35/35
f 35/35/35 36/36/36 37/37/37
f 36/36/36 38/38/38 37/37/37
f 37/37/37 38/38/38 39/39/39
f 38/38/38 40/40/40 39/39/39
f 39/39/39 40/40/40 41/41/41
f 40/40/40 42/42/42 41/41/41
f 41/41/41 42/42/42 43/43/43
f 42/42/42 44/44/44 43/43/43
f 43/43/43 44/44/44 45/45/45
f 44/44/44 46/46/46 45/45/45
f 45/45/45 46/46/46 47/47/47
f 46/46/46 48/48/48 47/47/47
f 47/47/47 48/48/48 49/49/49
f 48/48/48 50/50/50 49/49/49
f 49/49/49 50/50/50 51/51/51
f 50/50/50 52/52/52 51/51/51
f 51/51/51 52/52/52 53/53/53
f 52/52/52 54/54/54 53/53/53
f 53/53/53 54/54/54 55/55/55
f 54/54/54 56/56/56 55/55/55
f 55/55/55 56/56/56 57/57/57
f 56/56/56 58/58/58 57/57/57
f 57/57/57 58/58/58 59/59/59
f 58/58/58 60/60/60 59/59/59
f 59/59/59 60/60/60 61/61/61
f 60/60/60 62/62/62 61/61/61
