g 01
v -0.0132082142 0.00355142262 -1.78813941E-09
v -0.0137707032 -1.19209298E-09 -1.78813941E-09
v -0.0107301865 -0.00020194026 -2.98023251E-09
v -0.0102050137 0.00311387074 -2.98023251E-09
v -0.00752774812 -0.000795300351 -4.76837192E-09
v -0.0069791493 0.00266843615 -4.76837192E-09
v -0.0137707032 -1.19209298E-09 -1.78813941E-09
v -0.01309672 -0.00425537629 -1.78813941E-09
v -0.0102050118 -0.00351775112 -2.98023251E-09
v -0.0107301865 -0.00020194026 -2.98023251E-09
v -0.00715930527 -0.00312151667 -4.76837192E-09
v -0.00752774812 -0.000795300351 -4.76837192E-09
v -0.01309672 -0.00425537629 -1.78813941E-09
v -0.0111407312 -0.00809422135 -1.78813941E-09
v -0.0086808987 -0.00650898693 -2.98023251E-09
v -0.0102050118 -0.00351775112 -2.98023251E-09
v -0.00609006826 -0.00521999877 -4.76837192E-09
v -0.00715930527 -0.00312151667 -4.76837192E-09
v -0.0111407312 -0.00809422135 -1.78813941E-09
v -0.0080942018 -0.0111407451 -1.78813941E-09
v -0.00630703848 -0.00888284482 -2.98023251E-09
v -0.0086808987 -0.00650898693 -2.98023251E-09
v -0.00442470703 -0.00688536093 -4.76837192E-09
v -0.00609006826 -0.00521999877 -4.76837192E-09
v -0.0080942018 -0.0111407451 -1.78813941E-09
v -0.00425536465 -0.0130967246 -1.78813941E-09
v -0.00331580103 -0.0104069524 -2.98023251E-09
v -0.00630703848 -0.00888284482 -2.98023251E-09
v -0.00232620677 -0.00795460399 -4.76837192E-09
v -0.00442470703 -0.00688536093 -4.76837192E-09
v -0.00425536465 -0.0130967246 -1.78813941E-09
v 8.46177084E-09 -0.0137707051 -1.78813941E-09
v 9.80938175E-09 -0.0109321224 -2.98023251E-09
v -0.00331580103 -0.0104069524 -2.98023251E-09
v 1.22286483E-08 -0.00832303613 -4.76837192E-09
v -0.00232620677 -0.00795460399 -4.76837192E-09
v 8.46177084E-09 -0.0137707051 -1.78813941E-09
v 0.00425538141 -0.01309672 -1.78813941E-09
v 0.00331582245 -0.0104069458 -2.98023251E-09
v 9.80938175E-09 -0.0109321224 -2.98023251E-09
v 0.00232623401 -0.00795459189 -4.76837192E-09
v 1.22286483E-08 -0.00832303613 -4.76837192E-09
v 0.00425538141 -0.01309672 -1.78813941E-09
v 0.00809424371 -0.0111407172 -1.78813941E-09
v 0.00630705524 -0.00888283178 -2.98023251E-09
v 0.00331582245 -0.0104069458 -2.98023251E-09
v 0.00442468328 -0.00688537303 -4.76837192E-09
v 0.00232623401 -0.00795459189 -4.76837192E-09
v 0.00809424371 -0.0111407172 -1.78813941E-09
v 0.0111407312 -0.00809422508 -1.78813941E-09
v 0.00868091267 -0.00650897017 -2.98023251E-09
v 0.00630705524 -0.00888283178 -2.98023251E-09
v 0.00609010318 -0.00521994429 -4.76837192E-09
v 0.00442468328 -0.00688537303 -4.76837192E-09
v 0.0111407312 -0.00809422508 -1.78813941E-09
v 0.0130967256 -0.00425536139 -1.78813941E-09
v 0.0102050165 -0.00351773133 -2.98023251E-09
v 0.00868091267 -0.00650897017 -2.98023251E-09
v 0.00715930713 -0.00312148663 -4.76837192E-09
v 0.00609010318 -0.00521994429 -4.76837192E-09
v 0.0130967256 -0.00425536139 -1.78813941E-09
v 0.0137707079 -1.78813941E-09 -1.78813941E-09
v 0.0107301874 -0.00020193668 -2.98023251E-09
v 0.0102050165 -0.00351773133 -2.98023251E-09
v 0.00752774067 -0.000795290514 -4.76837192E-09
v 0.00715930713 -0.00312148663 -4.76837192E-09
v 0.0132082151 0.00355142495 -1.78813941E-09
v 0.0107301874 -0.00020193668 -2.98023251E-09
v 0.0137707079 -1.78813941E-09 -1.78813941E-09
v 0.0102050137 0.00311387377 -2.98023251E-09
v 0.00697913859 0.00266843964 -4.76837192E-09
v 0.00752774067 -0.000795290514 -4.76837192E-09
v 0.0105518838 -0.000876715523 -0.00159106567
v 0.0100354366 0.00238399673 -2.0861628E-09
v 0.0100354366 0.0023839965 -0.00159106567
v 0.0105518838 -0.000876715523 -2.0861628E-09
v 0.0100354431 -0.00413741218 -0.00159106578
v 0.0105518838 -0.000876714941 0.00159106322
v 0.0100354366 0.00238399766 0.00159106322
v 0.0100354431 -0.00413741218 0.00159106322
v 0.0100354431 -0.00413741218 -2.0861628E-09
v 0.00853666384 -0.0070789461 -0.00159106567
v 0.00853666384 -0.0070789461 0.00159106322
v 0.00853666291 -0.0070789461 -2.0861628E-09
v 0.00620225351 -0.00941336248 -0.00159106578
v 0.00620225351 -0.00941336248 0.00159106299
v 0.00620225305 -0.00941336155 -2.0861628E-09
v 0.00326072425 -0.0109121501 -0.00159106578
v 0.00326072308 -0.0109121501 0.00159106299
v 0.00326072355 -0.0109121483 -2.0861628E-09
v 1.00094457E-08 -0.0114286002 -0.00159106578
v 9.55894919E-09 -0.0114286002 0.00159106299
v 9.78419656E-09 -0.0114286002 -2.0861628E-09
v -0.00326070213 -0.0109121567 -0.00159106578
v -0.00326070283 -0.0109121567 0.00159106299
v -0.00326070283 -0.0109121557 -2.0861628E-09
v -0.00620223489 -0.00941337459 -0.00159106578
v -0.00620223489 -0.00941337459 0.00159106299
v -0.00620223489 -0.00941337459 -2.0861628E-09
v -0.00853664894 -0.0070789624 -0.00159106567
v -0.00853664894 -0.0070789624 0.00159106322
v -0.00853664894 -0.0070789624 -2.0861628E-09
v -0.0100354347 -0.00413743174 -0.00159106578
v -0.0100354347 -0.00413743127 0.00159106322
v -0.0100354347 -0.00413743127 -2.0861628E-09
v -0.0105518838 -0.00087671855 -0.00159106567
v -0.0105518838 -0.00087671791 0.00159106322
v -0.0105518838 -0.000876718841 -2.0861628E-09
v -0.0100354385 0.00238399231 -0.00159106567
v -0.0100354385 0.00238399394 0.00159106322
v -0.0100354385 0.00238399324 -2.0861628E-09
vt 0.998674154 0.996209025
vt 0.921079755 0.996209025
vt 0.921079755 0.499631673
vt 0.998674154 0.499631673
vt 0.921079755 0.00300331903
vt 0.998674154 0.00300331903
vt 0.921079755 0.996209025
vt 0.836355388 0.996209025
vt 0.836355388 0.499631673
vt 0.921079755 0.499631673
vt 0.836355388 0.00300331903
vt 0.921079755 0.00300331903
vt 0.836355388 0.996209025
vt 0.750324965 0.996209025
vt 0.750324965 0.499631673
vt 0.836355388 0.499631673
vt 0.750324965 0.00300331903
vt 0.836355388 0.00300331903
vt 0.750324965 0.996209025
vt 0.66548574 0.996209025
vt 0.66548574 0.499631673
vt 0.750324965 0.499631673
vt 0.66548574 0.00300331903
vt 0.750324965 0.00300331903
vt 0.66548574 0.996209025
vt 0.581725597 0.996209025
vt 0.581725597 0.499631673
vt 0.66548574 0.499631673
vt 0.581725597 0.00300331903
vt 0.66548574 0.00300331903
vt 0.581725597 0.996209025
vt 0.498079538 0.996209025
vt 0.498079538 0.499631673
vt 0.581725597 0.499631673
vt 0.498079538 0.00300331903
vt 0.581725597 0.00300331903
vt 0.498079538 0.996209025
vt 0.413976252 0.996209025
vt 0.413976252 0.499631673
vt 0.498079538 0.499631673
vt 0.413976252 0.00300331903
vt 0.498079538 0.00300331903
vt 0.413976252 0.996209025
vt 0.32943505 0.996209025
vt 0.32943505 0.499631673
vt 0.413976252 0.499631673
vt 0.32943505 0.00300331903
vt 0.413976252 0.00300331903
vt 0.32943505 0.996209025
vt 0.244608104 0.996209025
vt 0.244608104 0.499631673
vt 0.32943505 0.499631673
vt 0.244608104 0.00300331903
vt 0.32943505 0.00300331903
vt 0.244608104 0.996209025
vt 0.159706652 0.996209025
vt 0.159706652 0.499631673
vt 0.244608104 0.499631673
vt 0.159706652 0.00300331903
vt 0.244608104 0.00300331903
vt 0.159706652 0.996209025
vt 0.0766513944 0.996209025
vt 0.0766513944 0.499631673
vt 0.159706652 0.499631673
vt 0.0766513944 0.00300331903
vt 0.159706652 0.00300331903
vt 0.00200003386 0.996209025
vt 0.0766513944 0.499631673
vt 0.0766513944 0.996209025
vt 0.00200003386 0.499631673
vt 0.00200003386 0.00300331903
vt 0.0766513944 0.00300331903
vt 0.0850938484 0.996209025
vt 0.00203696406 0.50058192
vt 0.00204293802 0.996209025
vt 0.0850758031 0.500448227
vt 0.168119565 0.996209025
vt 0.0850586146 0.00300331903
vt 0.00201916415 0.00300331903
vt 0.168080136 0.00300331903
vt 0.168099642 0.500214398
vt 0.251141667 0.996209025
vt 0.251105934 0.00300331903
vt 0.251124024 0.499975652
vt 0.334177315 0.996209025
vt 0.334160566 0.00300331903
vt 0.33416459 0.499811858
vt 0.417257011 0.996209025
vt 0.417240769 0.00300331903
vt 0.417244852 0.499720603
vt 0.500352025 0.996209025
vt 0.500333011 0.00300331903
vt 0.500342488 0.499592543
vt 0.583444178 0.996209025
vt 0.583427906 0.00300331903
vt 0.583440125 0.499464691
vt 0.66652441 0.996209025
vt 0.666507781 0.00300331903
vt 0.666520417 0.499373198
vt 0.749579072 0.996209025
vt 0.749543369 0.00300331903
vt 0.749561012 0.499210089
vt 0.832604945 0.996209025
vt 0.832565367 0.00300331903
vt 0.832585394 0.498972237
vt 0.915626764 0.996209025
vt 0.915591478 0.00300331903
vt 0.915609658 0.498736441
vt 0.998666346 0.996209025
vt 0.998642504 0.00300331903
vt 0.998648584 0.498602033
vn -3.27060121E-07 0 -1
vn -3.27060093E-07 0 -1
vn -3.27060121E-07 0 -1
vn -3.27060093E-07 0 -1
vn -3.27060121E-07 0 -1
vn -3.27060178E-07 0 -1
vn -3.27060008E-07 0 -1
vn -3.27060008E-07 0 -1
vn -3.27060008E-07 0 -1
vn -3.27060008E-07 0 -1
vn -3.27060008E-07 0 -1
vn -3.27060008E-07 0 -1
vn -2.9504514E-07 -1.50333051E-07 -1
vn -2.9504514E-07 -1.50333051E-07 -1
vn -2.95045112E-07 -1.50333037E-07 -1
vn -2.9504514E-07 -1.50333051E-07 -1
vn -2.95044998E-07 -1.50333307E-07 -1
vn -2.95044998E-07 -1.50333321E-07 -1
vn -2.34149041E-07 -2.3414934E-07 -1
vn -2.34149041E-07 -2.3414934E-07 -1
vn -2.34149041E-07 -2.34149354E-07 -1
vn -2.34149041E-07 -2.34149354E-07 -1
vn -2.34149155E-07 -2.34149226E-07 -1
vn -2.34149155E-07 -2.3414924E-07 -1
vn -1.50332667E-07 -2.95045311E-07 -1
vn -1.50332667E-07 -2.95045311E-07 -1
vn -1.50332653E-07 -2.95045311E-07 -1
vn -1.50332681E-07 -2.95045311E-07 -1
vn -1.50332937E-07 -2.95045197E-07 -1
vn -1.50332923E-07 -2.95045169E-07 -1
vn -0 -3.27060036E-07 -1
vn -0 -3.27060036E-07 -1
vn -0 -3.27060064E-07 -1
vn -0 -3.27060008E-07 -1
vn -0 -3.27060093E-07 -1
vn -0 -3.27060064E-07 -1
vn -0 -3.27059951E-07 -1
vn -0 -3.27059951E-07 -1
vn -0 -3.27060008E-07 -1
vn -0 -3.27060008E-07 -1
vn -0 -3.27059894E-07 -1
vn -0 -3.27059894E-07 -1
vn 1.50333406E-07 -2.9504514E-07 -1
vn 1.50333406E-07 -2.9504514E-07 -1
vn 1.50333406E-07 -2.9504514E-07 -1
vn 1.50333406E-07 -2.9504514E-07 -1
vn 1.50333491E-07 -2.95045112E-07 -1
vn 1.50333477E-07 -2.95045112E-07 -1
vn 2.34149198E-07 -2.34148771E-07 -1
vn 2.34149198E-07 -2.34148771E-07 -1
vn 2.34149212E-07 -2.34148771E-07 -1
vn 2.34149212E-07 -2.34148786E-07 -1
vn 2.3414934E-07 -2.34148573E-07 -1
vn 2.3414934E-07 -2.34148558E-07 -1
vn 2.9504551E-07 -1.50332696E-07 -1
vn 2.9504551E-07 -1.50332696E-07 -1
vn 2.95045538E-07 -1.50332696E-07 -1
vn 2.95045538E-07 -1.50332696E-07 -1
vn 2.95045709E-07 -1.50332212E-07 -1
vn 2.95045737E-07 -1.50332212E-07 -1
vn 3.27060008E-07 0 -1
vn 3.27060008E-07 0 -1
vn 3.27060008E-07 0 -1
vn 3.27060008E-07 0 -1
vn 3.27059979E-07 0 -1
vn 3.27060008E-07 0 -1
vn 3.27060093E-07 0 -1
vn 3.27060064E-07 0 -1
vn 3.27060064E-07 0 -1
vn 3.27060093E-07 0 -1
vn 3.27060093E-07 0 -1
vn 3.27060036E-07 0 -1
vn 1 2.44917885E-07 0
vn 0.987688363 0.156434774 0
vn 0.987688363 0.156434759 0
vn 1 2.40115583E-07 0
vn 0.951056898 -0.30901596 0
vn 1 2.3531328E-07 0
vn 0.987688363 0.156434759 0
vn 0.951056778 -0.309015989 0
vn 0.951056898 -0.309015989 0
vn 0.809017897 -0.587783992 0
vn 0.809017897 -0.587783992 0
vn 0.809017897 -0.587783992 0
vn 0.587786257 -0.809016347 0
vn 0.587786198 -0.809016347 0
vn 0.587786198 -0.809016347 0
vn 0.309018046 -0.951056242 0
vn 0.309017986 -0.951056242 0
vn 0.309018016 -0.951056242 0
vn 9.94078505E-07 -1 0
vn 9.7967154E-07 -1 0
vn 9.89276145E-07 -1 0
vn -0.309016049 -0.951056778 0
vn -0.309016049 -0.951056778 0
vn -0.309016049 -0.951056778 0
vn -0.587784648 -0.80901736 0
vn -0.587784648 -0.80901736 0
vn -0.587784648 -0.80901736 0
vn -0.809016645 -0.587785602 0
vn -0.809016645 -0.587785602 0
vn -0.809016645 -0.587785602 0
vn -0.95105648 -0.30901739 0
vn -0.95105648 -0.30901733 0
vn -0.95105648 -0.30901736 0
vn -1 -4.17801061E-07 0
vn -1 -3.98591823E-07 0
vn -1 -4.10597551E-07 0
vn -0.987688482 0.15643391 0
vn -0.987688482 0.15643394 0
vn -0.987688482 0.156433925 0
g 01_0
f 3/3/3 2/2/2 1/1/1
f 4/4/4 3/3/3 1/1/1
f 5/5/5 3/3/3 4/4/4
f 6/6/6 5/5/5 4/4/4
f 9/9/9 8/8/8 7/7/7
f 10/10/10 9/9/9 7/7/7
f 11/11/11 9/9/9 10/10/10
f 12/12/12 11/11/11 10/10/10
f 15/15/15 14/14/14 13/13/13
f 16/16/16 15/15/15 13/13/13
f 17/17/17 15/15/15 16/16/16
f 18/18/18 17/17/17 16/16/16
f 21/21/21 20/20/20 19/19/19
f 22/22/22 21/21/21 19/19/19
f 23/23/23 21/21/21 22/22/22
f 24/24/24 23/23/23 22/22/22
f 27/27/27 26/26/26 25/25/25
f 28/28/28 27/27/27 25/25/25
f 29/29/29 27/27/27 28/28/28
f 30/30/30 29/29/29 28/28/28
f 33/33/33 32/32/32 31/31/31
f 34/34/34 33/33/33 31/31/31
f 35/35/35 33/33/33 34/34/34
f 36/36/36 35/35/35 34/34/34
f 39/39/39 38/38/38 37/37/37
f 40/40/40 39/39/39 37/37/37
f 41/41/41 39/39/39 40/40/40
f 42/42/42 41/41/41 40/40/40
f 45/45/45 44/44/44 43/43/43
f 46/46/46 45/45/45 43/43/43
f 47/47/47 45/45/45 46/46/46
f 48/48/48 47/47/47 46/46/46
f 51/51/51 50/50/50 49/49/49
f 52/52/52 51/51/51 49/49/49
f 53/53/53 51/51/51 52/52/52
f 54/54/54 53/53/53 52/52/52
f 57/57/57 56/56/56 55/55/55
f 58/58/58 57/57/57 55/55/55
f 59/59/59 57/57/57 58/58/58
f 60/60/60 59/59/59 58/58/58
f 63/63/63 62/62/62 61/61/61
f 64/64/64 63/63/63 61/61/61
f 65/65/65 63/63/63 64/64/64
f 66/66/66 65/65/65 64/64/64
f 69/69/69 68/68/68 67/67/67
f 68/68/68 70/70/70 67/67/67
f 71/71/71 70/70/70 68/68/68
f 72/72/72 71/71/71 68/68/68
f 75/75/75 74/74/74 73/73/73
f 74/74/74 76/76/76 73/73/73
f 73/73/73 76/76/76 77/77/77
f 78/78/78 76/76/76 74/74/74
f 79/79/79 78/78/78 74/74/74
f 78/78/78 80/80/80 76/76/76
f 76/76/76 81/81/81 77/77/77
f 80/80/80 81/81/81 76/76/76
f 77/77/77 81/81/81 82/82/82
f 80/80/80 83/83/83 81/81/81
f 81/81/81 84/84/84 82/82/82
f 83/83/83 84/84/84 81/81/81
f 82/82/82 84/84/84 85/85/85
f 83/83/83 86/86/86 84/84/84
f 84/84/84 87/87/87 85/85/85
f 86/86/86 87/87/87 84/84/84
f 85/85/85 87/87/87 88/88/88
f 86/86/86 89/89/89 87/87/87
f 87/87/87 90/90/90 88/88/88
f 89/89/89 90/90/90 87/87/87
f 88/88/88 90/90/90 91/91/91
f 89/89/89 92/92/92 90/90/90
f 90/90/90 93/93/93 91/91/91
f 92/92/92 93/93/93 90/90/90
f 91/91/91 93/93/93 94/94/94
f 92/92/92 95/95/95 93/93/93
f 93/93/93 96/96/96 94/94/94
f 95/95/95 96/96/96 93/93/93
f 94/94/94 96/96/96 97/97/97
f 95/95/95 98/98/98 96/96/96
f 96/96/96 99/99/99 97/97/97
f 98/98/98 99/99/99 96/96/96
f 97/97/97 99/99/99 100/100/100
f 98/98/98 101/101/101 99/99/99
f 99/99/99 102/102/102 100/100/100
f 101/101/101 102/102/102 99/99/99
f 100/100/100 102/102/102 103/103/103
f 101/101/101 104/104/104 102/102/102
f 102/102/102 105/105/105 103/103/103
f 104/104/104 105/105/105 102/102/102
f 103/103/103 105/105/105 106/106/106
f 104/104/104 107/107/107 105/105/105
f 105/105/105 108/108/108 106/106/106
f 107/107/107 108/108/108 105/105/105
f 106/106/106 108/108/108 109/109/109
f 107/107/107 110/110/110 108/108/108
f 108/108/108 111/111/111 109/109/109
f 110/110/110 111/111/111 108/108/108
