g char_swire2_mesh_01
v -0.141793281 0.275094956 0
v -0.141793281 0.330113947 0
v -0.085075967 0.330113947 0
v -0.0850759745 0.275094956 0
v -0.141793281 0.220075965 0
v -0.0850759745 0.220075965 0
v 0.085075967 3.7252903E-09 0
v 0.085075967 0.055018995 0
v 0.141793281 0.055018995 0
v 0.141793281 3.7252903E-09 0
v 0.0283586532 -0.0550189912 0
v 0.0283586551 3.7252903E-09 0
v 0.085075967 -0.0550189912 0
v 0.0283586532 -0.330113947 0
v 0.085075967 -0.275094956 0
v 0.085075967 -0.330113947 0
v 0.0283586532 -0.275094956 0
v -0.0283586606 -0.275094956 0
v 0.0283586532 -0.220075965 0
v -0.0283586606 -0.220075965 0
v -0.0850759745 -0.330113947 0
v -0.0850759745 -0.275094956 0
v -0.0283586606 -0.330113947 0
v 0.085075967 -0.165056974 0
v 0.085075967 -0.220075965 0
v 0.0283586532 -0.165056974 0
v -0.0850759745 -0.220075965 0
v -0.0283586606 -0.165056974 0
v 0.0283586532 -0.110037982 0
v -0.0283586606 -0.110037982 0
v -0.0850759745 -0.165056974 0
v -0.141793281 -0.165056974 0
v -0.0850759745 -0.110037982 0
v -0.141793281 -0.110037982 0
v -0.198510587 -0.110037982 0
v -0.141793281 -0.0550189912 0
v -0.198510587 -0.0550189912 0
v 0.0283586569 0.110037982 0
v 0.0283586569 0.165056974 0
v 0.085075967 0.165056974 0
v 0.085075967 0.110037982 0
v -0.0850759745 -0.0550189912 0
v -0.0850759745 3.7252903E-09 0
v -0.0283586588 3.7252903E-09 0
v -0.0283586606 -0.0550189912 0
v -0.0850759745 0.055018995 0
v -0.0850759745 0.110037982 0
v -0.0283586569 0.110037982 0
v -0.0283586569 0.055018995 0
v 0.0877618194 -0.107008427 0
v 0.0877618194 -0.0519894361 0
v 0.144479126 -0.0519894361 0
v 0.144479126 -0.107008427 0
v 0.0877618194 -0.162027419 0
v 0.144479126 -0.162027419 0
v -0.198510587 -0.275094956 0
v -0.141793281 -0.220075965 0
v -0.141793281 -0.275094956 0
v -0.198510587 -0.220075965 0
v -0.255227894 -0.220075965 0
v -0.198510587 -0.165056974 0
v -0.255227894 -0.165056974 0
v -0.3119452 -0.275094956 0
v -0.3119452 -0.220075965 0
v -0.255227894 -0.275094956 0
v -0.198510587 3.7252903E-09 0
v -0.198510587 0.055018995 0
v -0.141793281 0.055018995 0
v -0.141793281 3.7252903E-09 0
v 0.0864486396 -0.258023679 0
v 0.0864486396 -0.203004688 0
v 0.143165946 -0.203004688 0
v 0.143165946 -0.258023679 0
v 0.0864486396 -0.31304267 0
v 0.143165946 -0.31304267 0
v -0.255227894 0.110037982 0
v -0.255227894 0.165056974 0
v -0.198510587 0.165056974 0
v -0.198510587 0.110037982 0
v -0.3119452 -0.110037982 0
v -0.3119452 -0.055018995 0
v -0.255227894 -0.0550189912 0
v -0.255227894 -0.110037982 0
v 0.0257323012 -0.519480109 0
v 0.0824496076 -0.464461118 0
v 0.0824496076 -0.519480109 0
v 0.0257323012 -0.464461118 0
v -0.0309850127 -0.464461118 0
v 0.0257323012 -0.409442127 0
v -0.0309850127 -0.409442127 0
v -0.0877023339 -0.519480109 0
v -0.0309850127 -0.519480109 0
v -0.0877023339 -0.464461118 0
v -0.14441964 -0.464461118 0
v -0.0877023339 -0.409442127 0
v -0.14441964 -0.409442127 0
v -0.201136947 -0.409442127 0
v -0.14441964 -0.354423136 0
v -0.201136947 -0.354423136 0
v -0.257854253 -0.519480109 0
v -0.257854253 -0.464461118 0
v -0.201136947 -0.464461118 0
v -0.201136947 -0.519480109 0
v -0.314571559 -0.409442127 0
v -0.314571559 -0.354423165 0
v -0.257854253 -0.354423136 0
v -0.257854253 -0.409442127 0
v 0.0283586532 -0.698072076 0
v 0.0850759596 -0.643053055 0
v 0.0850759596 -0.698072076 0
v 0.0283586532 -0.643053055 0
v -0.0283586606 -0.643053055 0
v 0.0283586532 -0.588034093 0
v -0.0283586606 -0.588034093 0
v -0.0850759819 -0.698072076 0
v -0.0283586606 -0.698072076 0
v -0.0850759819 -0.643053055 0
v -0.141793281 -0.643053055 0
v -0.0850759819 -0.588034093 0
v -0.141793281 -0.588034093 0
v -0.198510587 -0.588034093 0
v -0.141793281 -0.533015072 0
v -0.198510587 -0.533015072 0
v -0.255227894 -0.698072076 0
v -0.255227894 -0.643053055 0
v -0.198510587 -0.643053055 0
v -0.198510587 -0.698072076 0
v -0.3119452 -0.588034093 0
v -0.3119452 -0.533015132 0
v -0.255227894 -0.533015072 0
v -0.255227894 -0.588034093 0
v -0.140539587 -0.698206544 0
v -0.0838222802 -0.643187523 0
v -0.0838222802 -0.698206544 0
v -0.140539587 -0.643187523 0
v -0.197256893 -0.698206544 0
v -0.197256893 -0.643187523 0
v -0.140539587 -0.588168502 0
v -0.197256893 -0.588168502 0
v 0.0874515846 -0.698072076 0
v 0.0874515846 -0.643053055 0
v 0.144168884 -0.643053055 0
v 0.144168884 -0.698072076 0
v -0.0259830505 -0.698072076 0
v -0.0259830505 -0.643053055 0
v 0.0307342708 -0.643053055 0
v 0.0307342708 -0.698072076 0
v 0.0257323012 -0.589078486 0
v 0.0257323012 -0.534059465 0
v 0.0824496001 -0.534059465 0
v 0.0824496001 -0.589078486 0
v -0.0877023339 -0.589078486 0
v -0.0877023339 -0.534059465 0
v -0.0309850127 -0.534059465 0
v -0.0309850127 -0.589078486 0
v 0.0877618194 -0.441733927 0
v 0.144479126 -0.386714935 0
v 0.144479126 -0.441733927 0
v 0.0877618194 -0.386714935 0
v 0.144479126 -0.331695944 0
v 0.0877618194 -0.331695944 0
v 0.0838222876 -0.578304231 0
v 0.140539601 -0.52328527 0
v 0.140539601 -0.578304231 0
v 0.0838222876 -0.52328527 0
v 0.140539601 -0.468266249 0
v 0.0838222876 -0.468266249 0
vt 0.272727251 0.916666627
vt 0.272727281 1
vt 0.363636374 1
vt 0.363636404 0.916666627
vt 0.272727251 0.833333313
vt 0.363636374 0.833333313
vt 0.636363745 0.5
vt 0.636363745 0.583333313
vt 0.727272689 0.583333313
vt 0.727272689 0.5
vt 0.545454562 0.416666687
vt 0.545454562 0.5
vt 0.636363685 0.416666687
vt 0.545454562 0
vt 0.636363685 0.0833333358
vt 0.636363685 0
vt 0.545454562 0.0833333358
vt 0.454545498 0.0833333358
vt 0.545454562 0.166666672
vt 0.454545498 0.166666672
vt 0.363636374 0
vt 0.363636374 0.0833333358
vt 0.454545498 0
vt 0.636363685 0.25
vt 0.636363685 0.166666672
vt 0.545454562 0.25
vt 0.363636374 0.166666672
vt 0.454545498 0.25
vt 0.545454562 0.333333343
vt 0.454545498 0.333333343
vt 0.363636374 0.25
vt 0.272727281 0.25
vt 0.363636374 0.333333343
vt 0.272727281 0.333333343
vt 0.181818187 0.333333343
vt 0.272727281 0.416666687
vt 0.181818172 0.416666687
vt 0.545454562 0.666666687
vt 0.545454562 0.75
vt 0.636363745 0.75
vt 0.636363745 0.666666687
vt 0.363636374 0.416666687
vt 0.363636374 0.5
vt 0.454545498 0.5
vt 0.454545498 0.416666687
vt 0.363636374 0.583333254
vt 0.363636374 0.666666687
vt 0.454545498 0.666666687
vt 0.454545498 0.583333254
vt 0.181818187 0.0833333358
vt 0.181818172 0.166666672
vt 0.272727281 0.166666672
vt 0.272727281 0.0833333358
vt 0.181818187 0
vt 0.272727281 0
vt 0.181818187 0.0833333358
vt 0.272727281 0.166666672
vt 0.272727281 0.0833333358
vt 0.181818172 0.166666672
vt 0.0909090862 0.166666672
vt 0.181818172 0.25
vt 0.0909090862 0.25
vt 0 0.0833333284
vt 0 0.166666657
vt 0.0909090936 0.0833333358
vt 0.181818172 0.5
vt 0.181818172 0.583333254
vt 0.272727251 0.583333254
vt 0.272727281 0.5
vt 0.181818187 0.0833333358
vt 0.181818172 0.166666672
vt 0.272727281 0.166666672
vt 0.272727281 0.0833333358
vt 0.181818187 0
vt 0.272727281 0
vt 0.0909090787 0.666666627
vt 0.0909090862 0.75
vt 0.181818172 0.75
vt 0.181818157 0.666666627
vt 0 0.333333313
vt 0 0.416666657
vt 0.0909090936 0.416666687
vt 0.0909090936 0.333333343
vt 0.545454562 0.166666672
vt 0.636363685 0.25
vt 0.636363685 0.166666672
vt 0.545454562 0.25
vt 0.454545498 0.25
vt 0.545454562 0.333333343
vt 0.454545498 0.333333343
vt 0.363636374 0.166666672
vt 0.454545498 0.166666672
vt 0.363636374 0.25
vt 0.272727281 0.25
vt 0.363636374 0.333333343
vt 0.272727281 0.333333343
vt 0.181818187 0.333333343
vt 0.272727281 0.416666687
vt 0.181818172 0.416666687
vt 0.0909090862 0.166666672
vt 0.0909090862 0.25
vt 0.181818172 0.25
vt 0.181818172 0.166666672
vt 0 0.333333313
vt 0 0.416666657
vt 0.0909090936 0.416666687
vt 0.0909090936 0.333333343
vt 0.545454562 0.166666672
vt 0.636363685 0.25
vt 0.636363685 0.166666672
vt 0.545454562 0.25
vt 0.454545498 0.25
vt 0.545454562 0.333333343
vt 0.454545498 0.333333343
vt 0.363636374 0.166666672
vt 0.454545498 0.166666672
vt 0.363636374 0.25
vt 0.272727281 0.25
vt 0.363636374 0.333333343
vt 0.272727281 0.333333343
vt 0.181818187 0.333333343
vt 0.272727281 0.416666687
vt 0.181818172 0.416666687
vt 0.0909090862 0.166666672
vt 0.0909090862 0.25
vt 0.181818172 0.25
vt 0.181818172 0.166666672
vt 0 0.333333313
vt 0 0.416666657
vt 0.0909090936 0.416666687
vt 0.0909090936 0.333333343
vt 0.727272689 0.25
vt 0.818181694 0.333333343
vt 0.818181694 0.25
vt 0.727272749 0.333333343
vt 0.636363685 0.25
vt 0.636363685 0.333333343
vt 0.727272689 0.416666687
vt 0.636363685 0.416666687
vt 0.545454562 0.166666672
vt 0.545454562 0.25
vt 0.636363685 0.25
vt 0.636363685 0.166666672
vt 0.363636374 0.166666672
vt 0.363636374 0.25
vt 0.454545498 0.25
vt 0.454545498 0.166666672
vt 0.545454562 0.166666672
vt 0.545454562 0.25
vt 0.636363685 0.25
vt 0.636363685 0.166666672
vt 0.363636374 0.166666672
vt 0.363636374 0.25
vt 0.454545498 0.25
vt 0.454545498 0.166666672
vt 0.181818187 0
vt 0.272727281 0.0833333358
vt 0.272727281 0
vt 0.181818187 0.0833333358
vt 0.272727281 0.166666672
vt 0.181818172 0.166666672
vt 0.181818187 0
vt 0.272727281 0.0833333358
vt 0.272727281 0
vt 0.181818187 0.0833333358
vt 0.272727281 0.166666672
vt 0.181818172 0.166666672
vn -0 0 1
vn -0 0 1
vn -0 0 1
vn -0 0 1
vn -0 0 1
vn -0 0 1
vn -0 0 1
vn -0 0 1
vn -0 0 1
vn -0 0 1
vn -0 0 1
vn -0 0 1
vn -0 0 1
vn -0 0 1
vn -0 0 1
vn -0 0 1
vn -0 0 1
vn -0 0 1
vn -0 0 1
vn -0 0 1
vn -0 0 1
vn -0 0 1
vn -0 0 1
vn -0 0 1
vn -0 0 1
vn -0 0 1
vn -0 0 1
vn -0 0 1
vn -0 0 1
vn -0 0 1
vn -0 0 1
vn -0 0 1
vn -0 0 1
vn -0 0 1
vn -0 0 1
vn -0 0 1
vn -0 0 1
vn -0 0 1
vn -0 0 1
vn -0 0 1
vn -0 0 1
vn -0 0 1
vn -0 0 1
vn -0 0 1
vn -0 0 1
vn -0 0 1
vn -0 0 1
vn -0 0 1
vn -0 0 1
vn -0 0 1
vn -0 0 1
vn -0 0 1
vn -0 0 1
vn -0 0 1
vn -0 0 1
vn -0 0 1
vn -0 0 1
vn -0 0 1
vn -0 0 1
vn -0 0 1
vn -0 0 1
vn -0 0 1
vn -0 0 1
vn -0 0 1
vn -0 0 1
vn -0 0 1
vn -0 0 1
vn -0 0 1
vn -0 0 1
vn -0 0 1
vn -0 0 1
vn -0 0 1
vn -0 0 1
vn -0 0 1
vn -0 0 1
vn -0 0 1
vn -0 0 1
vn -0 0 1
vn -0 0 1
vn -0 0 1
vn -0 0 1
vn -0 0 1
vn -0 0 1
vn -0 0 1
vn -0 0 1
vn -0 0 1
vn -0 0 1
vn -0 0 1
vn -0 0 1
vn -0 0 1
vn -0 0 1
vn -0 0 1
vn -0 0 1
vn -0 0 1
vn -0 0 1
vn -0 0 1
vn -0 0 1
vn -0 0 1
vn -0 0 1
vn -0 0 1
vn -0 0 1
vn -0 0 1
vn -0 0 1
vn -0 0 1
vn -0 0 1
vn -0 0 1
vn -0 0 1
vn -0 0 1
vn -0 0 1
vn -0 0 1
vn -0 0 1
vn -0 0 1
vn -0 0 1
vn -0 0 1
vn -0 0 1
vn -0 0 1
vn -0 0 1
vn -0 0 1
vn -0 0 1
vn -0 0 1
vn -0 0 1
vn -0 0 1
vn -0 0 1
vn -0 0 1
vn -0 0 1
vn -0 0 1
vn -0 0 1
vn -0 0 1
vn -0 0 1
vn -0 0 1
vn -0 0 1
vn -0 0 1
vn -0 0 1
vn -0 0 1
vn -0 0 1
vn -0 0 1
vn -0 0 1
vn -0 0 1
vn -0 0 1
vn -0 0 1
vn -0 0 1
vn -0 0 1
vn -0 0 1
vn -0 0 1
vn -0 0 1
vn -0 0 1
vn -0 0 1
vn -0 0 1
vn -0 0 1
vn -0 0 1
vn -0 0 1
vn -0 0 1
vn -0 0 1
vn -0 0 1
vn -0 0 1
vn -0 0 1
vn -0 0 1
vn -0 0 1
vn -0 0 1
vn -0 0 1
vn -0 0 1
vn -0 0 1
vn -0 0 1
vn -0 0 1
vn -0 0 1
vn -0 0 1
vn -0 0 1
g char_swire2_mesh_01_0
f 3/3/3 2/2/2 1/1/1
f 4/4/4 3/3/3 1/1/1
f 4/4/4 1/1/1 5/5/5
f 6/6/6 4/4/4 5/5/5
f 9/9/9 8/8/8 7/7/7
f 10/10/10 9/9/9 7/7/7
f 7/7/7 12/12/12 11/11/11
f 13/13/13 7/7/7 11/11/11
f 16/16/16 15/15/15 14/14/14
f 15/15/15 17/17/17 14/14/14
f 17/17/17 19/19/19 18/18/18
f 19/19/19 20/20/20 18/18/18
f 18/18/18 22/22/22 21/21/21
f 23/23/23 18/18/18 21/21/21
f 25/25/25 24/24/24 19/19/19
f 24/24/24 26/26/26 19/19/19
f 20/20/20 28/28/28 27/27/27
f 26/26/26 29/29/29 28/28/28
f 29/29/29 30/30/30 28/28/28
f 28/28/28 31/31/31 27/27/27
f 31/31/31 33/33/33 32/32/32
f 33/33/33 34/34/34 32/32/32
f 34/34/34 36/36/36 35/35/35
f 36/36/36 37/37/37 35/35/35
f 40/40/40 39/39/39 38/38/38
f 41/41/41 40/40/40 38/38/38
f 44/44/44 43/43/43 42/42/42
f 45/45/45 44/44/44 42/42/42
f 48/48/48 47/47/47 46/46/46
f 49/49/49 48/48/48 46/46/46
f 52/52/52 51/51/51 50/50/50
f 53/53/53 52/52/52 50/50/50
f 53/53/53 50/50/50 54/54/54
f 55/55/55 53/53/53 54/54/54
f 58/58/58 57/57/57 56/56/56
f 57/57/57 59/59/59 56/56/56
f 59/59/59 61/61/61 60/60/60
f 61/61/61 62/62/62 60/60/60
f 60/60/60 64/64/64 63/63/63
f 65/65/65 60/60/60 63/63/63
f 68/68/68 67/67/67 66/66/66
f 69/69/69 68/68/68 66/66/66
f 72/72/72 71/71/71 70/70/70
f 73/73/73 72/72/72 70/70/70
f 73/73/73 70/70/70 74/74/74
f 75/75/75 73/73/73 74/74/74
f 78/78/78 77/77/77 76/76/76
f 79/79/79 78/78/78 76/76/76
f 82/82/82 81/81/81 80/80/80
f 83/83/83 82/82/82 80/80/80
f 86/86/86 85/85/85 84/84/84
f 85/85/85 87/87/87 84/84/84
f 87/87/87 89/89/89 88/88/88
f 89/89/89 90/90/90 88/88/88
f 92/92/92 88/88/88 91/91/91
f 88/88/88 93/93/93 91/91/91
f 93/93/93 95/95/95 94/94/94
f 95/95/95 96/96/96 94/94/94
f 96/96/96 98/98/98 97/97/97
f 98/98/98 99/99/99 97/97/97
f 102/102/102 101/101/101 100/100/100
f 103/103/103 102/102/102 100/100/100
f 106/106/106 105/105/105 104/104/104
f 107/107/107 106/106/106 104/104/104
f 110/110/110 109/109/109 108/108/108
f 109/109/109 111/111/111 108/108/108
f 111/111/111 113/113/113 112/112/112
f 113/113/113 114/114/114 112/112/112
f 116/116/116 112/112/112 115/115/115
f 112/112/112 117/117/117 115/115/115
f 117/117/117 119/119/119 118/118/118
f 119/119/119 120/120/120 118/118/118
f 120/120/120 122/122/122 121/121/121
f 122/122/122 123/123/123 121/121/121
f 126/126/126 125/125/125 124/124/124
f 127/127/127 126/126/126 124/124/124
f 130/130/130 129/129/129 128/128/128
f 131/131/131 130/130/130 128/128/128
f 134/134/134 133/133/133 132/132/132
f 133/133/133 135/135/135 132/132/132
f 132/132/132 135/135/135 136/136/136
f 135/135/135 137/137/137 136/136/136
f 135/135/135 138/138/138 137/137/137
f 138/138/138 139/139/139 137/137/137
f 142/142/142 141/141/141 140/140/140
f 143/143/143 142/142/142 140/140/140
f 146/146/146 145/145/145 144/144/144
f 147/147/147 146/146/146 144/144/144
f 150/150/150 149/149/149 148/148/148
f 151/151/151 150/150/150 148/148/148
f 154/154/154 153/153/153 152/152/152
f 155/155/155 154/154/154 152/152/152
f 158/158/158 157/157/157 156/156/156
f 157/157/157 159/159/159 156/156/156
f 157/157/157 160/160/160 159/159/159
f 160/160/160 161/161/161 159/159/159
f 164/164/164 163/163/163 162/162/162
f 163/163/163 165/165/165 162/162/162
f 163/163/163 166/166/166 165/165/165
f 166/166/166 167/167/167 165/165/165
