g FX_m_ringflow_01
v 5.41112104E-06 11.1988964 0.540301859
v 8.09711764E-06 20.7748356 -1.08231616
v -1.97028303 20.5866985 -0.959159374
v -1.06416357 11.0972795 0.479384154
v -2.1283257 10.9956656 0.406855255
v -3.94057822 20.3985615 -0.725072742
v -5.83965921 19.8409405 -0.112290412
v -3.15402699 10.6944876 0.0928207636
v -4.17972708 10.3933096 -0.210152581
v -9.49797058 18.3763676 1.15932119
v -5.12989283 9.90347099 -0.482067138
v -7.73874331 19.2833214 0.732936859
v -5.83965921 19.8409405 -0.112290412
v -3.15402699 10.6944876 0.0928207636
v -6.08005762 9.41363335 -0.299469322
v -12.8130054 16.2459373 0.814609885
v -6.92035675 8.75281334 0.377988487
v -11.2572041 17.4694309 0.617058396
v -9.49797058 18.3763676 1.15932119
v -5.12989283 9.90347099 -0.482067138
v -7.76064777 8.09199905 0.787821352
v -15.6649427 13.5266047 0.715370238
v -8.46069336 7.28410292 0.310917348
v -14.3688068 15.0224257 1.42122006
v -12.8130054 16.2459373 0.814609885
v -6.92035675 8.75281334 0.377988487
v -9.16074753 6.47620344 -0.364910722
v -17.9507046 10.3167076 0.610625446
v -9.6952486 5.55041552 -0.0364724584
v -16.9610786 12.0307865 1.09279835
v -15.6649427 13.5266047 0.715370238
v -8.46069336 7.28410292 0.310917348
v -10.2297525 4.62463331 0.594942749
v -19.5876827 6.73222446 0.171439052
v -10.5793896 3.61442208 0.0311589949
v -18.9403343 8.60261822 0.584903002
v -17.9507046 10.3167076 0.610625446
v -9.6952486 5.55041552 -0.0364724584
v -10.9290247 2.6042161 -0.516158462
v -20.5167122 2.90272117 -0.344926089
v -11.0811586 1.54609442 0.176109493
v -20.235033 4.86182833 0.0102889715
v -19.5876827 6.73222446 0.171439052
v -10.5793896 3.61442208 0.0311589949
v -11.2332954 0.487964988 0.21055083
v -20.7042141 -1.03339934 -0.764145672
v -11.1824341 -0.57982868 -0.618481517
v -20.7983894 0.943612039 -0.525647581
v -20.5167122 2.90272117 -0.344926089
v -11.0811586 1.54609442 0.176109493
v -11.1315632 -1.64761567 -0.24673678
v -20.1434116 -4.93387556 -0.97751528
v -10.8795357 -2.68649197 0.278889447
v -20.6100368 -3.0104177 -0.855610907
v -20.7042141 -1.03339934 -0.764145672
v -11.1824341 -0.57982868 -0.618481517
v -10.6275091 -3.72536159 -0.458123446
v -18.8545723 -8.65773582 -0.92619586
v -10.1834307 -4.69776487 -0.669574976
v -19.6767845 -6.85733366 -0.934287429
v -20.1434116 -4.93387556 -0.97751528
v -10.8795357 -2.68649197 0.278889447
v -9.73934841 -5.67016125 0.147179529
v -16.8842812 -12.0703821 -0.742312074
v -9.11926651 -6.54094744 0.212582365
v -18.0323601 -10.4581261 -0.758630991
v -18.8545723 -8.65773582 -0.92619586
v -10.1834307 -4.69776487 -0.669574976
v -8.49918175 -7.41172886 -0.556247354
v -14.3037472 -15.0484781 -0.626114786
v -7.72550964 -8.14942741 -0.692048669
v -15.7362003 -13.6826372 -0.244058505
v -16.8842812 -12.0703821 -0.742312074
v -9.11926651 -6.54094744 0.212582365
v -6.95183372 -8.88712311 -0.0120039452
v -11.2062368 -17.4843864 0.252592653
v -6.05252838 -9.46507168 0.500083566
v -12.871295 -16.41432 0.298516691
v -14.3037472 -15.0484781 -0.626114786
v -7.72550964 -8.14942741 -0.692048669
v -5.15323019 -10.0430183 0.450080425
v -7.70370483 -19.2900696 0.233406901
v -4.16079378 -10.4403238 0.0966938064
v -9.54118443 -18.5544529 -0.282081485
v -11.2062368 -17.4843864 0.252592653
v -6.05252838 -9.46507168 0.500083566
v -3.16837025 -10.8376312 -0.343217492
v -3.92274189 -20.400259 1.08408165
v -2.11868024 -11.0399427 -0.526868641
v -5.86622667 -20.0256844 0.991825044
v -7.70370483 -19.2900696 0.233406901
v -4.16079378 -10.4403238 0.0966938064
v 1.06901717 -11.2422523 -0.656448841
v 3.9227407 -20.4002609 0.737962782
v 2.11869645 -11.0399446 -0.534939468
v 1.97925305 -20.7748356 0.666860938
v -3.9898664E-06 -20.7748356 0.773149848
v -2.64686832E-06 -11.2422571 -0.653493464
v -1.06900239 -11.2422571 -0.650571048
v -1.97925842 -20.7748337 0.853554666
v -3.92274189 -20.400259 1.08408165
v -2.11868024 -11.0399427 -0.526868641
v 3.16837573 -10.8376312 -0.349194318
v 7.70370245 -19.2900696 -0.302502006
v 4.16081142 -10.4403238 0.102474138
v 5.8662262 -20.0256844 0.515337527
v 3.9227407 -20.4002609 0.737962782
v 2.11869645 -11.0399446 -0.534939468
v 5.15323925 -10.0430136 0.474810094
v 11.2062244 -17.4843903 -0.219993576
v 6.05253744 -9.46506786 0.55568558
v 9.54118252 -18.5544548 -0.830460608
v 7.70370245 -19.2900696 -0.302502006
v 4.16081142 -10.4403238 0.102474138
v 6.95184135 -8.8871212 0.0822677165
v 14.3037405 -15.0484838 -0.771912813
v 7.7255187 -8.14942646 -0.549744308
v 12.8712873 -16.4143257 -0.0488729477
v 11.2062244 -17.4843903 -0.219993576
v 6.05253744 -9.46506786 0.55568558
v 8.49918938 -7.41173029 -0.360028952
v 16.884285 -12.0703878 -0.365972757
v 9.11927319 -6.54093981 0.465060592
v 15.7361984 -13.682641 -0.149375215
v 14.3037405 -15.0484838 -0.771912813
v 7.7255187 -8.14942646 -0.549744308
v 9.73936558 -5.670156 0.45783478
v 18.8545704 -8.6577425 0.0415120088
v 10.1834354 -4.6977582 -0.308114022
v 18.0323601 -10.4581356 -0.0815220773
v 16.884285 -12.0703878 -0.365972757
v 9.11927319 -6.54093981 0.465060592
v 10.6275139 -3.72535753 -0.0488704294
v 20.1434116 -4.93388414 0.485856235
v 10.8795404 -2.68649054 0.718841493
v 19.6767883 -6.85734606 0.315886974
v 18.8545704 -8.6577425 0.0415120088
v 10.1834354 -4.6977582 -0.308114022
v 11.1315756 -1.64761567 0.216445982
v 20.7042198 -1.03341019 0.925903678
v 11.1824217 -0.57982868 -0.155745372
v 20.6100349 -3.01042175 0.781542659
v 20.1434116 -4.93388414 0.485856235
v 10.8795404 -2.68649054 0.718841493
v 11.2333031 0.487964988 0.662958384
v 20.5167198 2.90271068 1.17942941
v 11.0811682 1.54609048 0.59361577
v 20.7983894 0.94360131 1.15266728
v 20.7042198 -1.03341019 0.925903678
v 11.1824217 -0.57982868 -0.155745372
v 10.9290228 2.60421062 -0.142689839
v 19.5876923 6.73222446 1.13450027
v 10.5793943 3.61441922 0.341827214
v 20.2350407 4.86182261 1.31132507
v 20.5167198 2.90271068 1.17942941
v 11.0811682 1.54609048 0.59361577
v 10.2297535 4.62463331 0.837669432
v 17.9507141 10.3167028 0.766372502
v 9.69525623 5.55041027 0.13077119
v 18.9403419 8.60261822 1.1644609
v 19.5876923 6.73222446 1.13450027
v 10.5793943 3.61441922 0.341827214
v 9.16075897 6.4761982 -0.272227496
v 15.6649494 13.5266104 0.0751949251
v 8.46071053 7.28409433 0.334743857
v 16.9610825 12.0307817 0.824077725
v 17.9507141 10.3167028 0.766372502
v 9.69525623 5.55041027 0.13077119
v 7.7606616 8.09199715 0.749800563
v 12.8130178 16.2459297 -0.352864474
v 6.92036104 8.75280762 0.29482314
v 14.3688116 15.0224237 0.454220742
v 15.6649494 13.5266104 0.0751949251
v 8.46071053 7.28409433 0.334743857
v 6.08007145 9.41362762 -0.416815341
v 9.49798298 18.3763657 -0.116141126
v 5.12990284 9.90346718 -0.611613989
v 11.2572136 17.4694118 -0.680743337
v 12.8130178 16.2459297 -0.352864474
v 6.92036104 8.75280762 0.29482314
v 4.17972898 10.3933125 -0.340370625
v 5.83967209 19.8409328 -1.07611561
v 3.15402746 10.6944876 -0.0180043858
v 7.7387495 19.2833157 -0.451408416
v 9.49798298 18.3763657 -0.116141126
v 5.12990284 9.90346718 -0.611613989
v -3.9898664E-06 11.1988907 0.540305078
v 1.97029793 20.586689 -1.31542957
v 5.41112104E-06 20.7748356 -1.08231592
v 1.06415963 11.0972767 0.436384708
v 2.12833118 10.9956636 0.324019134
v 3.94059467 20.3985538 -1.42122006
v 5.83967209 19.8409328 -1.07611561
v 3.15402746 10.6944876 -0.0180043858
vt 0 0
vt 0 1
vt 0.0151515119 1
vt 0.0151515156 0
vt 0.0303030312 0
vt 0.0303030238 1
vt 0.0454545356 1
vt 0.0454545468 0
vt 0.0606060624 0
vt 0.0757575631 1
vt 0.075757578 0
vt 0.0606060475 1
vt 0.0454545356 1
vt 0.0454545468 0
vt 0.0909090936 0
vt 0.106060594 1
vt 0.106060609 0
vt 0.0909090787 1
vt 0.0757575631 1
vt 0.075757578 0
vt 0.121212125 0
vt 0.136363611 1
vt 0.13636364 0
vt 0.121212102 1
vt 0.106060594 1
vt 0.106060609 0
vt 0.151515156 0
vt 0.166666642 1
vt 0.166666672 0
vt 0.151515126 1
vt 0.136363611 1
vt 0.13636364 0
vt 0.181818187 0
vt 0.196969673 1
vt 0.196969703 0
vt 0.181818157 1
vt 0.166666642 1
vt 0.166666672 0
vt 0.212121218 0
vt 0.227272704 1
vt 0.227272719 0
vt 0.212121189 1
vt 0.196969673 1
vt 0.196969703 0
vt 0.24242422 0
vt 0.25757575 1
vt 0.25757575 0
vt 0.24242422 1
vt 0.227272704 1
vt 0.227272719 0
vt 0.272727251 0
vt 0.287878752 1
vt 0.287878752 0
vt 0.272727251 1
vt 0.25757575 1
vt 0.25757575 0
vt 0.303030252 0
vt 0.318181813 1
vt 0.318181753 0
vt 0.303030282 1
vt 0.287878752 1
vt 0.287878752 0
vt 0.333333254 0
vt 0.348484814 1
vt 0.348484784 0
vt 0.333333313 1
vt 0.318181813 1
vt 0.318181753 0
vt 0.363636315 0
vt 0.378787875 1
vt 0.378787816 0
vt 0.363636345 1
vt 0.348484814 1
vt 0.348484784 0
vt 0.393939346 0
vt 0.409090877 1
vt 0.409090877 0
vt 0.393939376 1
vt 0.378787875 1
vt 0.378787816 0
vt 0.424242377 0
vt 0.439393938 1
vt 0.439393908 0
vt 0.424242407 1
vt 0.409090877 1
vt 0.409090877 0
vt 0.454545438 0
vt 0.469696939 1
vt 0.469696939 0
vt 0.454545438 1
vt 0.439393938 1
vt 0.439393908 0
vt 0.515151501 0
vt 0.530303001 1
vt 0.530303001 0
vt 0.515151501 1
vt 0.5 1
vt 0.49999997 0
vt 0.48484844 0
vt 0.484848469 1
vt 0.469696939 1
vt 0.469696939 0
vt 0.545454502 0
vt 0.560606062 1
vt 0.560606003 0
vt 0.545454562 1
vt 0.530303001 1
vt 0.530303001 0
vt 0.575757504 0
vt 0.590909123 1
vt 0.590909064 0
vt 0.575757563 1
vt 0.560606062 1
vt 0.560606003 0
vt 0.606060624 0
vt 0.621212125 1
vt 0.621212125 0
vt 0.606060624 1
vt 0.590909123 1
vt 0.590909064 0
vt 0.636363626 0
vt 0.651515126 1
vt 0.651515126 0
vt 0.636363626 1
vt 0.621212125 1
vt 0.621212125 0
vt 0.666666627 0
vt 0.681818187 1
vt 0.681818128 0
vt 0.666666687 1
vt 0.651515126 1
vt 0.651515126 0
vt 0.696969628 0
vt 0.712121248 1
vt 0.712121129 0
vt 0.696969688 1
vt 0.681818187 1
vt 0.681818128 0
vt 0.72727263 0
vt 0.74242425 1
vt 0.74242419 0
vt 0.727272749 1
vt 0.712121248 1
vt 0.712121129 0
vt 0.75757575 0
vt 0.77272737 1
vt 0.772727251 0
vt 0.75757581 1
vt 0.74242425 1
vt 0.74242419 0
vt 0.787878752 0
vt 0.803030372 1
vt 0.803030252 0
vt 0.787878871 1
vt 0.77272737 1
vt 0.772727251 0
vt 0.818181813 0
vt 0.833333373 1
vt 0.833333373 0
vt 0.818181872 1
vt 0.803030372 1
vt 0.803030252 0
vt 0.848484874 0
vt 0.863636374 1
vt 0.863636374 0
vt 0.848484874 1
vt 0.833333373 1
vt 0.833333373 0
vt 0.878787875 0
vt 0.893939495 1
vt 0.893939376 0
vt 0.878787935 1
vt 0.863636374 1
vt 0.863636374 0
vt 0.909090877 0
vt 0.924242496 1
vt 0.924242377 0
vt 0.909090996 1
vt 0.893939495 1
vt 0.893939376 0
vt 0.939393878 0
vt 0.954545498 1
vt 0.954545379 0
vt 0.939393997 1
vt 0.924242496 1
vt 0.924242377 0
vt 1 0
vt 0.984848499 1
vt 1 1
vt 0.984848499 0
vt 0.969696939 0
vt 0.969696999 1
vt 0.954545498 1
vt 0.954545379 0
vn -0.012209299 -0.0165938884 -0.999787748
vn -0 0.0110626156 -0.999938846
vn -0.00509017799 -0.158764735 -0.987303317
vn -0.00509017752 -0.15876475 -0.987303317
vn 0.00584126543 0 -0.999982953
vn 0.00276564131 -0.00534054916 -0.999981999
vn -0.0750768334 -0.0897895098 -0.993126988
vn -0.0750768408 -0.0897895098 -0.993126988
vn 0.00276565598 0 -0.999996185
vn -0.107116684 0.0983635858 -0.989368856
vn -0.107116684 0.0983635932 -0.989368856
vn 0.00276564318 0.0110625727 -0.999935031
vn -0.176348671 -0.0207903776 -0.98410821
vn -0.176348656 -0.0207903758 -0.98410821
vn -0.00553131802 -0.0123977801 -0.999907851
vn -0.266312391 -0.106225088 -0.958015621
vn -0.266312391 -0.106225088 -0.958015621
vn -0 0 -1
vn 0.0401484035 0.175415233 -0.983675539
vn 0.040148396 0.175415248 -0.983675539
vn -0.00553133152 -0.0179291442 -0.999823987
vn 0.211464569 0.295140356 -0.931759059
vn 0.211464569 0.295140356 -0.931759059
vn -0.00267028762 0.0247955285 -0.999688983
vn -0.272028297 -0.165440276 -0.947961092
vn -0.272028297 -0.165440276 -0.947961092
vn 0.002765649 -0.0123977391 -0.999919295
vn -0.0678276345 0.0969867259 -0.992971838
vn -0.0678276345 0.0969867334 -0.992971838
vn -0 0.0192641113 -0.999814451
vn -0.0131125022 0.139612034 -0.990119457
vn -0.0131125031 0.139612034 -0.990119457
vn 0.00553129846 0 -0.999984741
vn 0.107472822 0.285847962 -0.952229202
vn 0.107472837 0.285847962 -0.952229321
vn -0 0.0302315634 -0.999542952
vn -0.117737867 -0.157002643 -0.980554879
vn -0.117737867 -0.157002643 -0.980554879
vn -0 -0.0123977847 -0.99992311
vn -0.0211135074 -0.107995391 -0.993927181
vn -0.0211135093 -0.107995376 -0.993927181
vn -0 0.00619888399 -0.999980807
vn 0.0316073149 0.228378877 -0.973059177
vn 0.0316073149 0.228378877 -0.973059177
vn -0.00267028902 0 -0.999996424
vn 0.0435651615 0.332394034 -0.942133844
vn 0.0435651653 0.332394034 -0.942133844
vn -0 0.00292063528 -0.999995708
vn 0.0696135908 0.0383192301 -0.996837735
vn 0.0696135983 0.0383192264 -0.996837735
vn -0 -0.00929831993 -0.999956846
vn 0.118631296 -0.105773062 -0.987288594
vn 0.118631281 -0.105773069 -0.987288594
vn -0 -0.00619891798 -0.999980807
vn 0.0480431058 -0.0892886743 -0.994846463
vn 0.0480431095 -0.0892886743 -0.994846463
vn -0 0 -1
vn 0.0101149539 0.0777345076 -0.996922791
vn 0.0101149539 0.0777345076 -0.996922791
vn -0 0 -1
vn 0.0234234426 0.233353242 -0.972109854
vn 0.0234234445 0.233353242 -0.972109854
vn -0.00686645787 -0.00276565668 -0.999972582
vn 0.0935422629 0.0338622481 -0.995039284
vn 0.0935422555 0.0338622443 -0.995039284
vn -0.00267030345 -0.00267030345 -0.999992847
vn 0.193265885 -0.248666048 -0.949111938
vn 0.1932659 -0.248666048 -0.949111938
vn 0.00276564783 0 -0.999996185
vn -0.1291821 0.10720817 -0.985808492
vn -0.1291821 0.107208155 -0.985808492
vn -0 -0.00267028902 -0.999996424
vn -0.0273608416 0.0890127644 -0.995654583
vn -0.0273608454 0.0890127644 -0.995654583
vn 0.00276565575 0.0055313115 -0.999980927
vn 0.1214967 -0.0905447826 -0.988453448
vn 0.1214967 -0.0905447826 -0.988453448
vn 0.00267028902 0 -0.999996424
vn 0.340416998 -0.317999691 -0.884868681
vn 0.340416998 -0.317999661 -0.884868681
vn 0.00829695724 0.00553130452 -0.99995029
vn 0.059923932 0.00686106784 -0.998179317
vn 0.0599239208 0.00686106645 -0.998179317
vn 0.00686645927 -0.00267028995 -0.999972939
vn -0.135932118 0.13661249 -0.981253982
vn -0.135932133 0.136612505 -0.981253982
vn 0.00276565435 -0.00267028692 -0.999992609
vn -0.057715185 -0.142921388 -0.988049805
vn -0.0577151887 -0.142921388 -0.988049805
vn -0.00276564783 0 -0.999996185
vn 0.0696076006 -0.105025634 -0.992030382
vn 0.0696076006 -0.105025634 -0.992030382
vn -0.0182389859 -0.0026702825 -0.999830127
vn 0.087372832 -0.123286836 -0.988517284
vn 0.087372832 -0.123286836 -0.988517284
vn -0 0 -1
vn -0.0270141922 -0.150623515 -0.988222063
vn -0.0270141903 -0.1506235 -0.988222063
vn -0.0030994562 0.00553133711 -0.999979973
vn -0 0 -1
vn -0.143102348 -0.140960947 -0.979618251
vn -0.143102348 -0.140960947 -0.979618251
vn -0 -0.00553129846 -0.999984741
vn -0.103928082 -0.0612484813 -0.99269706
vn -0.103928082 -0.0612484887 -0.99269706
vn -0.00686646393 0 -0.999976397
vn 0.00938664936 -0.112224393 -0.993638575
vn 0.00938664936 -0.112224393 -0.993638575
vn -0 -0.00553129846 -0.999984741
vn 0.133618414 0.199330285 -0.970779896
vn 0.1336184 0.1993303 -0.970779896
vn -0.00686643925 -0.00267028227 -0.999972939
vn -0.0794252232 0.0617275797 -0.994927883
vn -0.0794252306 0.0617275834 -0.994927883
vn -0 0.00276565598 -0.999996185
vn -0.318844378 -0.253854901 -0.91317904
vn -0.318844378 -0.253854841 -0.91317904
vn 0.00553131057 0 -0.999984741
vn -0.10596621 -0.0174832102 -0.994216025
vn -0.10596621 -0.0174832121 -0.994216025
vn -0.00553131197 0.00553131197 -0.999969482
vn 0.0951458514 0.172503397 -0.980402827
vn 0.0951458588 0.172503382 -0.980402946
vn 0.00553131429 0 -0.999984741
vn 0.177446648 0.186985418 -0.966203392
vn 0.177446648 0.186985418 -0.966203392
vn -0.017929038 -0.00553129893 -0.999823987
vn -0.103530839 -0.179550275 -0.978285789
vn -0.103530832 -0.17955026 -0.978285789
vn -0.00820159446 -0.00267028669 -0.999962807
vn -0.00926949084 0.117470481 -0.993033051
vn -0.00926949084 0.117470473 -0.993033051
vn -0 -0.00276565598 -0.999996185
vn 0.0893598571 0.280801594 -0.955596924
vn 0.0893598497 0.280801594 -0.955596805
vn -0 0.00553131429 -0.999984741
vn 0.0976769328 0.14487952 -0.98461622
vn 0.0976769328 0.14487952 -0.98461622
vn -0.00553131429 0 -0.999984741
vn 0.0786680505 -0.0781119838 -0.993835866
vn 0.0786680579 -0.0781119913 -0.993835866
vn 0.00534054916 -0.00276564131 -0.999981999
vn 0.00407756679 -0.070593603 -0.997496784
vn 0.00407756632 -0.070593603 -0.997496784
vn -0.0192642808 0.012213029 -0.999739826
vn 0.0570724681 -0.00588359172 -0.998352647
vn 0.0570724681 -0.00588359172 -0.998352647
vn -0 0 -1
vn 0.0776877254 0.320456624 -0.944072068
vn 0.0776877329 0.320456624 -0.944072068
vn 0.0165939406 0.00619888585 -0.999843121
vn 0.0818747282 0.133829013 -0.987616479
vn 0.0818747133 0.133828998 -0.987616479
vn -0.00553125795 -0.00619882299 -0.999965549
vn 0.139842167 -0.175117508 -0.974565566
vn 0.139842167 -0.175117508 -0.974565566
vn -0 -0.0123977112 -0.99992311
vn 0.197311044 -0.279411077 -0.939679563
vn 0.197311044 -0.279411048 -0.939679563
vn -0.0110626156 0 -0.999938846
vn -0.00857369788 0.176686004 -0.984229863
vn -0.00857369881 0.176685989 -0.984229863
vn -0 0.0123977475 -0.99992311
vn 0.0618559308 -0.00788272545 -0.998053908
vn 0.0618559308 -0.00788272545 -0.998053908
vn -0 0 -1
vn 0.138471141 -0.0494316854 -0.989131987
vn 0.138471141 -0.0494316891 -0.989131987
vn -0.0123977158 -0.00686642714 -0.999899626
vn 0.260612875 -0.286172003 -0.922055542
vn 0.260612875 -0.286171943 -0.922055542
vn -0 0 -1
vn -0.195317224 0.164050758 -0.966922224
vn -0.195317209 0.164050743 -0.966922224
vn 0.00686643971 -0.00553129893 -0.999961138
vn -0.0988703221 0.0710015669 -0.992564023
vn -0.0988703221 0.0710015669 -0.992564023
vn -0 0.0110626156 -0.999938846
vn 0.235158592 -0.222883776 -0.946056664
vn 0.235158563 -0.222883761 -0.946056664
vn -0.0123977391 -0.00820158143 -0.999889493
vn 0.0760182887 -0.0906854197 -0.992973924
vn 0.0760182962 -0.0906854346 -0.992973924
vn 0.0123977847 0 -0.99992311
vn 0.0283552539 0.00918563735 -0.999555647
vn 0.028355252 0.00918563828 -0.999555647
vn 0.00305318483 0 -0.999995351
vn -0.0867410749 -0.169245288 -0.981749415
vn -0 0.0110626156 -0.999938846
vn -0.0867410749 -0.169245258 -0.981749415
vn -0 0.00553129846 -0.999984741
vn -0 0 -1
vn -0.0400129184 -0.139820144 -0.989368141
vn -0.0400129184 -0.139820144 -0.989368141
g FX_m_ringflow_01_0
f 3/3/3 2/2/2 1/1/1
f 4/4/4 3/3/3 1/1/1
f 3/3/3 4/4/4 5/5/5
f 6/6/6 3/3/3 5/5/5
f 7/7/7 6/6/6 5/5/5
f 8/8/8 7/7/7 5/5/5
f 11/11/11 10/10/10 9/9/9
f 10/10/10 12/12/12 9/9/9
f 12/12/12 13/13/13 9/9/9
f 13/13/13 14/14/14 9/9/9
f 17/17/17 16/16/16 15/15/15
f 16/16/16 18/18/18 15/15/15
f 18/18/18 19/19/19 15/15/15
f 19/19/19 20/20/20 15/15/15
f 23/23/23 22/22/22 21/21/21
f 22/22/22 24/24/24 21/21/21
f 24/24/24 25/25/25 21/21/21
f 25/25/25 26/26/26 21/21/21
f 29/29/29 28/28/28 27/27/27
f 28/28/28 30/30/30 27/27/27
f 30/30/30 31/31/31 27/27/27
f 31/31/31 32/32/32 27/27/27
f 35/35/35 34/34/34 33/33/33
f 34/34/34 36/36/36 33/33/33
f 36/36/36 37/37/37 33/33/33
f 37/37/37 38/38/38 33/33/33
f 41/41/41 40/40/40 39/39/39
f 40/40/40 42/42/42 39/39/39
f 42/42/42 43/43/43 39/39/39
f 43/43/43 44/44/44 39/39/39
f 47/47/47 46/46/46 45/45/45
f 46/46/46 48/48/48 45/45/45
f 48/48/48 49/49/49 45/45/45
f 49/49/49 50/50/50 45/45/45
f 53/53/53 52/52/52 51/51/51
f 52/52/52 54/54/54 51/51/51
f 54/54/54 55/55/55 51/51/51
f 55/55/55 56/56/56 51/51/51
f 59/59/59 58/58/58 57/57/57
f 58/58/58 60/60/60 57/57/57
f 60/60/60 61/61/61 57/57/57
f 61/61/61 62/62/62 57/57/57
f 65/65/65 64/64/64 63/63/63
f 64/64/64 66/66/66 63/63/63
f 66/66/66 67/67/67 63/63/63
f 67/67/67 68/68/68 63/63/63
f 71/71/71 70/70/70 69/69/69
f 70/70/70 72/72/72 69/69/69
f 72/72/72 73/73/73 69/69/69
f 73/73/73 74/74/74 69/69/69
f 77/77/77 76/76/76 75/75/75
f 76/76/76 78/78/78 75/75/75
f 78/78/78 79/79/79 75/75/75
f 79/79/79 80/80/80 75/75/75
f 83/83/83 82/82/82 81/81/81
f 82/82/82 84/84/84 81/81/81
f 84/84/84 85/85/85 81/81/81
f 85/85/85 86/86/86 81/81/81
f 89/89/89 88/88/88 87/87/87
f 88/88/88 90/90/90 87/87/87
f 90/90/90 91/91/91 87/87/87
f 91/91/91 92/92/92 87/87/87
f 95/95/95 94/94/94 93/93/93
f 94/94/94 96/96/96 93/93/93
f 96/96/96 97/97/97 93/93/93
f 97/97/97 98/98/98 93/93/93
f 98/98/98 97/97/97 99/99/99
f 97/97/97 100/100/100 99/99/99
f 100/100/100 101/101/101 99/99/99
f 101/101/101 102/102/102 99/99/99
f 105/105/105 104/104/104 103/103/103
f 104/104/104 106/106/106 103/103/103
f 106/106/106 107/107/107 103/103/103
f 107/107/107 108/108/108 103/103/103
f 111/111/111 110/110/110 109/109/109
f 110/110/110 112/112/112 109/109/109
f 112/112/112 113/113/113 109/109/109
f 113/113/113 114/114/114 109/109/109
f 117/117/117 116/116/116 115/115/115
f 116/116/116 118/118/118 115/115/115
f 118/118/118 119/119/119 115/115/115
f 119/119/119 120/120/120 115/115/115
f 123/123/123 122/122/122 121/121/121
f 122/122/122 124/124/124 121/121/121
f 124/124/124 125/125/125 121/121/121
f 125/125/125 126/126/126 121/121/121
f 129/129/129 128/128/128 127/127/127
f 128/128/128 130/130/130 127/127/127
f 130/130/130 131/131/131 127/127/127
f 131/131/131 132/132/132 127/127/127
f 135/135/135 134/134/134 133/133/133
f 134/134/134 136/136/136 133/133/133
f 136/136/136 137/137/137 133/133/133
f 137/137/137 138/138/138 133/133/133
f 141/141/141 140/140/140 139/139/139
f 140/140/140 142/142/142 139/139/139
f 142/142/142 143/143/143 139/139/139
f 143/143/143 144/144/144 139/139/139
f 147/147/147 146/146/146 145/145/145
f 146/146/146 148/148/148 145/145/145
f 148/148/148 149/149/149 145/145/145
f 149/149/149 150/150/150 145/145/145
f 153/153/153 152/152/152 151/151/151
f 152/152/152 154/154/154 151/151/151
f 154/154/154 155/155/155 151/151/151
f 155/155/155 156/156/156 151/151/151
f 159/159/159 158/158/158 157/157/157
f 158/158/158 160/160/160 157/157/157
f 160/160/160 161/161/161 157/157/157
f 161/161/161 162/162/162 157/157/157
f 165/165/165 164/164/164 163/163/163
f 164/164/164 166/166/166 163/163/163
f 166/166/166 167/167/167 163/163/163
f 167/167/167 168/168/168 163/163/163
f 171/171/171 170/170/170 169/169/169
f 170/170/170 172/172/172 169/169/169
f 172/172/172 173/173/173 169/169/169
f 173/173/173 174/174/174 169/169/169
f 177/177/177 176/176/176 175/175/175
f 176/176/176 178/178/178 175/175/175
f 178/178/178 179/179/179 175/175/175
f 179/179/179 180/180/180 175/175/175
f 183/183/183 182/182/182 181/181/181
f 182/182/182 184/184/184 181/181/181
f 184/184/184 185/185/185 181/181/181
f 185/185/185 186/186/186 181/181/181
f 189/189/189 188/188/188 187/187/187
f 188/188/188 190/190/190 187/187/187
f 190/190/190 188/188/188 191/191/191
f 188/188/188 192/192/192 191/191/191
f 192/192/192 193/193/193 191/191/191
f 193/193/193 194/194/194 191/191/191
