g Plane001
v 0.75000006 -1 0
v 1 -0.75000006 0
v 1 -1 0
v 0.75000006 -0.75000006 0
v 0.5 -1 0
v 1 -0.5 0
v 0.5 -0.75000006 0
v 0.25 -1 0
v 0.75000006 -0.5 0
v 1 -0.25 0
v 0.25 -0.75000006 0
v -0 -1 0
v 0.5 -0.5 0
v 0.75000006 -0.25 0
v 1 0 0
v -0 -0.75000006 0
v -0.25 -1 0
v 0.25 -0.5 0
v 0.5 -0.25 0
v 0.75000006 0 0
v 1 0.25 0
v -0.25 -0.75000006 0
v -0.5 -1 0
v -0 -0.5 0
v 0.25 -0.25 0
v 0.5 0 0
v 0.75000006 0.25 0
v 1 0.5 0
v -0.5 -0.75000006 0
v -0.75000006 -1 0
v -0.25 -0.5 0
v -0 -0.25 0
v 0.25 0 0
v 0.5 0.25 0
v 0.75000006 0.5 0
v 1 0.75000006 0
v -0.75000006 -0.75000006 0
v -1 -1 0
v -1 -0.75000006 0
v -0.5 -0.5 0
v -0.75000006 -0.5 0
v -1 -0.5 0
v 0.75000006 0.75000006 0
v 1 1 0
v 0.75000006 1 0
v -0.25 -0.25 0
v -0.75000006 -0.25 0
v -1 -0.25 0
v -0.5 -0.25 0
v 0.5 0.5 0
v 0.5 0.75000006 0
v 0.5 1 0
v -0 0 0
v 0.25 0.25 0
v -0.25 0 0
v -0.5 0 0
v 0.25 0.5 0
v 0.25 0.75000006 0
v 0.25 1 0
v -0 0.25 0
v -0 0.5 0
v -0 0.75000006 0
v -0 1 0
v -0.25 0.25 0
v -0.25 0.5 0
v -0.25 0.75000006 0
v -0.25 1 0
v -0.5 0.25 0
v -0.5 0.5 0
v -0.5 0.75000006 0
v -0.5 1 0
v -0.75000006 0 0
v -1 0 0
v -0.75000006 0.25 0
v -1 0.25 0
v -0.75000006 0.5 0
v -1 0.5 0
v -0.75000006 0.75000006 0
v -0.75000006 1 0
v -1 0.75000006 0
v -1 1 0
vt 0.875 0
vt 1 0.125
vt 1 0
vt 0.875 0.125
vt 0.75 0
vt 1 0.25
vt 0.75 0.125
vt 0.625 0
vt 0.875 0.25
vt 1 0.375
vt 0.625 0.125
vt 0.5 0
vt 0.75 0.25
vt 0.875 0.375
vt 1 0.5
vt 0.5 0.125
vt 0.375 0
vt 0.625 0.25
vt 0.75 0.375
vt 0.875 0.5
vt 1 0.625
vt 0.375 0.125
vt 0.25 0
vt 0.5 0.25
vt 0.625 0.375
vt 0.75 0.5
vt 0.875 0.625
vt 1 0.75
vt 0.25 0.125
vt 0.125 0
vt 0.375 0.25
vt 0.5 0.375
vt 0.625 0.5
vt 0.75 0.625
vt 0.875 0.75
vt 1 0.875
vt 0.125 0.125
vt 0 0
vt 0 0.125
vt 0.25 0.25
vt 0.125 0.25
vt 0 0.25
vt 0.875 0.875
vt 1 1
vt 0.875 1
vt 0.375 0.375
vt 0.125 0.375
vt 0 0.375
vt 0.25 0.375
vt 0.75 0.75
vt 0.75 0.875
vt 0.75 1
vt 0.5 0.5
vt 0.625 0.625
vt 0.375 0.5
vt 0.25 0.5
vt 0.625 0.75
vt 0.625 0.875
vt 0.625 1
vt 0.5 0.625
vt 0.5 0.75
vt 0.5 0.875
vt 0.5 1
vt 0.375 0.625
vt 0.375 0.75
vt 0.375 0.875
vt 0.375 1
vt 0.25 0.625
vt 0.25 0.75
vt 0.25 0.875
vt 0.25 1
vt 0.125 0.5
vt 0 0.5
vt 0.125 0.625
vt 0 0.625
vt 0.125 0.75
vt 0 0.75
vt 0.125 0.875
vt 0.125 1
vt 0 0.875
vt 0 1
vn -0 0 1
vn -0 0 1
vn -0 0 1
vn -0 0 1
vn -0 0 1
vn -0 0 1
vn -0 0 1
vn -0 0 1
vn -0 0 1
vn -0 0 1
vn -0 0 1
vn -0 0 1
vn -0 0 1
vn -0 0 1
vn -0 0 1
vn -0 0 1
vn -0 0 1
vn -0 0 1
vn -0 0 1
vn -0 0 1
vn -0 0 1
vn -0 0 1
vn -0 0 1
vn -0 0 1
vn -0 0 1
vn -0 0 1
vn -0 0 1
vn -0 0 1
vn -0 0 1
vn -0 0 1
vn -0 0 1
vn -0 0 1
vn -0 0 1
vn -0 0 1
vn -0 0 1
vn -0 0 1
vn -0 0 1
vn -0 0 1
vn -0 0 1
vn -0 0 1
vn -0 0 1
vn -0 0 1
vn -0 0 1
vn -0 0 1
vn -0 0 1
vn -0 0 1
vn -0 0 1
vn -0 0 1
vn -0 0 1
vn -0 0 1
vn -0 0 1
vn -0 0 1
vn -0 0 1
vn -0 0 1
vn -0 0 1
vn -0 0 1
vn -0 0 1
vn -0 0 1
vn -0 0 1
vn -0 0 1
vn -0 0 1
vn -0 0 1
vn -0 0 1
vn -0 0 1
vn -0 0 1
vn -0 0 1
vn -0 0 1
vn -0 0 1
vn -0 0 1
vn -0 0 1
vn -0 0 1
vn -0 0 1
vn -0 0 1
vn -0 0 1
vn -0 0 1
vn -0 0 1
vn -0 0 1
vn -0 0 1
vn -0 0 1
vn -0 0 1
vn -0 0 1
g Plane001_0
f 3/3/3 2/2/2 1/1/1
f 2/2/2 4/4/4 1/1/1
f 1/1/1 4/4/4 5/5/5
f 2/2/2 6/6/6 4/4/4
f 4/4/4 7/7/7 5/5/5
f 5/5/5 7/7/7 8/8/8
f 6/6/6 9/9/9 4/4/4
f 4/4/4 9/9/9 7/7/7
f 6/6/6 10/10/10 9/9/9
f 7/7/7 11/11/11 8/8/8
f 8/8/8 11/11/11 12/12/12
f 9/9/9 13/13/13 7/7/7
f 7/7/7 13/13/13 11/11/11
f 10/10/10 14/14/14 9/9/9
f 9/9/9 14/14/14 13/13/13
f 10/10/10 15/15/15 14/14/14
f 11/11/11 16/16/16 12/12/12
f 12/12/12 16/16/16 17/17/17
f 13/13/13 18/18/18 11/11/11
f 11/11/11 18/18/18 16/16/16
f 14/14/14 19/19/19 13/13/13
f 13/13/13 19/19/19 18/18/18
f 15/15/15 20/20/20 14/14/14
f 14/14/14 20/20/20 19/19/19
f 15/15/15 21/21/21 20/20/20
f 16/16/16 22/22/22 17/17/17
f 17/17/17 22/22/22 23/23/23
f 18/18/18 24/24/24 16/16/16
f 16/16/16 24/24/24 22/22/22
f 19/19/19 25/25/25 18/18/18
f 18/18/18 25/25/25 24/24/24
f 20/20/20 26/26/26 19/19/19
f 19/19/19 26/26/26 25/25/25
f 21/21/21 27/27/27 20/20/20
f 20/20/20 27/27/27 26/26/26
f 21/21/21 28/28/28 27/27/27
f 22/22/22 29/29/29 23/23/23
f 23/23/23 29/29/29 30/30/30
f 24/24/24 31/31/31 22/22/22
f 22/22/22 31/31/31 29/29/29
f 25/25/25 32/32/32 24/24/24
f 24/24/24 32/32/32 31/31/31
f 26/26/26 33/33/33 25/25/25
f 25/25/25 33/33/33 32/32/32
f 27/27/27 34/34/34 26/26/26
f 26/26/26 34/34/34 33/33/33
f 28/28/28 35/35/35 27/27/27
f 27/27/27 35/35/35 34/34/34
f 28/28/28 36/36/36 35/35/35
f 29/29/29 37/37/37 30/30/30
f 30/30/30 37/37/37 38/38/38
f 37/37/37 39/39/39 38/38/38
f 31/31/31 40/40/40 29/29/29
f 29/29/29 40/40/40 37/37/37
f 37/37/37 41/41/41 39/39/39
f 40/40/40 41/41/41 37/37/37
f 41/41/41 42/42/42 39/39/39
f 36/36/36 43/43/43 35/35/35
f 36/36/36 44/44/44 43/43/43
f 44/44/44 45/45/45 43/43/43
f 31/31/31 46/46/46 40/40/40
f 32/32/32 46/46/46 31/31/31
f 41/41/41 47/47/47 42/42/42
f 47/47/47 48/48/48 42/42/42
f 40/40/40 49/49/49 41/41/41
f 46/46/46 49/49/49 40/40/40
f 49/49/49 47/47/47 41/41/41
f 35/35/35 43/43/43 50/50/50
f 35/35/35 50/50/50 34/34/34
f 43/43/43 45/45/45 51/51/51
f 43/43/43 51/51/51 50/50/50
f 45/45/45 52/52/52 51/51/51
f 32/32/32 53/53/53 46/46/46
f 33/33/33 53/53/53 32/32/32
f 34/34/34 54/54/54 33/33/33
f 34/34/34 50/50/50 54/54/54
f 33/33/33 54/54/54 53/53/53
f 46/46/46 55/55/55 49/49/49
f 53/53/53 55/55/55 46/46/46
f 49/49/49 56/56/56 47/47/47
f 55/55/55 56/56/56 49/49/49
f 50/50/50 51/51/51 57/57/57
f 50/50/50 57/57/57 54/54/54
f 51/51/51 52/52/52 58/58/58
f 51/51/51 58/58/58 57/57/57
f 52/52/52 59/59/59 58/58/58
f 54/54/54 60/60/60 53/53/53
f 53/53/53 60/60/60 55/55/55
f 54/54/54 57/57/57 60/60/60
f 57/57/57 58/58/58 61/61/61
f 57/57/57 61/61/61 60/60/60
f 58/58/58 59/59/59 62/62/62
f 58/58/58 62/62/62 61/61/61
f 59/59/59 63/63/63 62/62/62
f 60/60/60 64/64/64 55/55/55
f 60/60/60 61/61/61 64/64/64
f 55/55/55 64/64/64 56/56/56
f 61/61/61 62/62/62 65/65/65
f 61/61/61 65/65/65 64/64/64
f 62/62/62 63/63/63 66/66/66
f 62/62/62 66/66/66 65/65/65
f 63/63/63 67/67/67 66/66/66
f 64/64/64 68/68/68 56/56/56
f 64/64/64 65/65/65 68/68/68
f 65/65/65 66/66/66 69/69/69
f 65/65/65 69/69/69 68/68/68
f 66/66/66 67/67/67 70/70/70
f 66/66/66 70/70/70 69/69/69
f 67/67/67 71/71/71 70/70/70
f 56/56/56 68/68/68 72/72/72
f 56/56/56 72/72/72 47/47/47
f 47/47/47 72/72/72 48/48/48
f 72/72/72 73/73/73 48/48/48
f 68/68/68 74/74/74 72/72/72
f 72/72/72 74/74/74 73/73/73
f 68/68/68 69/69/69 74/74/74
f 74/74/74 75/75/75 73/73/73
f 69/69/69 76/76/76 74/74/74
f 74/74/74 76/76/76 75/75/75
f 69/69/69 70/70/70 76/76/76
f 76/76/76 77/77/77 75/75/75
f 70/70/70 71/71/71 78/78/78
f 70/70/70 78/78/78 76/76/76
f 76/76/76 78/78/78 77/77/77
f 71/71/71 79/79/79 78/78/78
f 78/78/78 80/80/80 77/77/77
f 78/78/78 79/79/79 80/80/80
f 79/79/79 81/81/81 80/80/80
