g Sphere001
v -0 0 0.0384045765
v -0.246143892 -0.0489612557 0.0490228906
v -0.250965983 -9.68933094E-08 0.0376666784
v -0.482828677 -0.0960406512 0.0556197204
v -0.492287576 0 0.0354812555
v -0.700958312 -0.139429182 -0.0373682007
v -0.714691103 -1.93786619E-07 0.031932272
v -0.89215076 -0.177460089 0.0971931964
v -0.909629166 -2.90679935E-07 0.0316870287
v -1.04905868 -0.208670989 0.0398037247
v -1.06961083 -3.87573238E-07 0.0320876651
v -1.1656512 -0.231862679 0.0431735441
v -1.18848777 -3.87573238E-07 0.0181214735
v -1.23744869 -0.24614428 0.010019307
v -1.26169181 -1.93786619E-07 0.00751280691
v -1.26169181 -0.250966668 -0.00104617223
v -1.28640997 -3.87573238E-07 1.49420084E-05
v -1.18848753 -0.492288023 0.00361304241
v -1.16565108 -0.482829094 0.0231302492
v -1.06961048 -0.714691699 0.0163816661
v -1.09801936 -0.454814762 0.0298904981
v -1.04905808 -0.700959027 0.0260220692
v -0.909628689 -0.909629762 0.0108000673
v -0.988191426 -0.409322768 0.0692996457
v -0.988191247 -0.660289109 0.141148522
v -0.892150402 -0.892151237 0.0209001359
v -0.714690447 -1.06961119 -0.0299001131
v -0.840387642 -0.348100364 0.0492074601
v -0.889348686 -0.594244361 0.0703217462
v -0.840387285 -0.840388238 0.0369525664
v -0.700957716 -1.04905879 -0.0112999734
v -0.492286712 -1.18848825 -0.0497967675
v -0.660288155 -0.273500741 0.160011262
v -0.756328702 -0.505363166 0.0526971593
v -0.756328523 -0.756329536 0.0149526484
v -0.660287797 -0.988192022 0.0125184171
v -0.482827604 -1.16565168 -0.0392586589
v -0.250964999 -1.26169217 -0.0211487878
v -0.454814374 -0.188390538 0.100314178
v -0.594243705 -0.397061318 0.0278073996
v -0.64320451 -0.643205225 0.148884922
v -0.594243169 -0.889349401 0.0143196378
v -0.454813808 -1.09801996 0.0263188034
v -0.246142536 -1.23744893 -0.0104030985
v 1.25961299E-06 -1.28640997 -3.76590688E-05
v -0.231862396 -0.0960406512 0.0267799124
v -0 0 0.0384045765
v -0.409321994 -0.273500651 0.147249222
v -0.489662439 -0.492283136 0.0705572739
v -0.505362391 -0.756329238 -0.0508787483
v -0.409321338 -0.988191783 -0.0437853001
v -0.231861621 -1.16565156 0.0236568674
v 1.25961299E-06 -1.26169181 0.0111411754
v 0.250967443 -1.26169169 -0.0176260136
v -0.208670497 -0.139429182 0.081043452
v -0 0 0.0384045765
v -0.348099679 -0.348100156 0.0126605397
v -0.397060543 -0.594244123 0.149172157
v -0.34809947 -0.840388119 0.104863144
v -0.208669618 -1.04905868 0.0378897786
v 7.75146475E-07 -1.18848777 0.121024095
v 0.246145055 -1.23744857 -0.00670419494
v 0.492289037 -1.18848717 -0.0292595457
v -0.177459896 -0.17746 0.128318712
v -0 0 0.0384045765
v -0.273500055 -0.409322381 0.112400249
v -0.273500055 -0.660288632 0.0251414999
v -0.177459031 -0.892150939 0.194210872
v 1.25961299E-06 -1.06961083 -0.0170782339
v 0.231864229 -1.16565108 -0.0022861734
v 0.482830107 -1.16565073 -0.0185096804
v 0.714692712 -1.06960988 -0.0208396781
v -0.139429376 -0.208670884 0.104680687
v -0 0 0.0384045765
v -0.188389763 -0.454814762 0.130994722
v -0.139428601 -0.70095855 0.13793546
v 8.72039777E-07 -0.909629047 0.124623179
v 0.208672047 -1.0490582 0.0404868573
v 0.454815924 -1.098019 0.0400926545
v 0.700959802 -1.04905748 0.0188092999
v 0.909630239 -0.909627974 0.0242279675
v -0.0960402638 -0.231862485 0.13283205
v -0 0 0.0384045765
v -0.0960402638 -0.482828617 -0.0315996446
v 8.72039777E-07 -0.714690983 0.0260963477
v 0.17746067 -0.892150581 0.0279476885
v 0.409323156 -0.988191128 0.0443711653
v 0.660289228 -0.988190651 -0.00465952046
v 0.892152011 -0.892149627 0.0333355553
v 1.06961191 -0.714689553 0.0182141848
v -0.0489609651 -0.246143788 0.0319542401
v -0 0 0.0384045765
v 4.84466568E-07 -0.492287666 0.181643873
v 0.139429763 -0.700958252 0.127753258
v 0.348101318 -0.840387285 0.120341875
v 0.594245195 -0.889348149 0.130935371
v 0.840388715 -0.840386569 0.0465419106
v 1.04905951 -0.700956941 0.0349192098
v 1.1884886 -0.492285997 -0.020983655
v 2.90679935E-07 -0.250966072 0.103441603
v -0 0 0.0384045765
v 0.0960414261 -0.482828468 0.030054003
v 0.273501039 -0.660287976 0.0116942832
v 0.50536418 -0.756328285 0.105201244
v 0.756330073 -0.756328106 0.130919352
v 0.988191903 -0.660287082 0.0415790975
v 1.16565204 -0.482826918 0.0185625721
v 1.2616924 -0.250964046 0.00138942641
v 0.0489614494 -0.246143788 0.109861597
v -0 0 0.0384045765
v 0.188391313 -0.454814196 0.123924918
v 0.397061706 -0.594243407 0.1388717
v 0.643205762 -0.643203974 -0.029902596
v 0.889349699 -0.594242573 0.104381308
v 1.09802008 -0.454813123 -0.0770167559
v 1.23744941 -0.246141955 0.0101907868
v 1.28640997 2.03475952E-06 2.8994287E-09
v 1.26169229 2.03475952E-06 0.00749226985
v 1.16565144 -0.231860742 0.0236010235
v 1.18848765 1.74407955E-06 0.014696612
v 0.988192499 -0.409320831 0.061835546
v 1.04905915 -0.208668947 0.047818806
v 1.06961095 1.84097291E-06 0.0213361904
v 0.756329894 -0.505361855 0.105354108
v 0.840388298 -0.348098606 -0.0312827192
v 0.892151237 -0.17745845 0.0818130523
v 0.909629226 1.55029295E-06 0.0290597659
v 0.505363822 -0.505362093 0.17727223
v 0.594244421 -0.397060156 0.0788043737
v 0.660289228 -0.27349928 0.083847113
v 0.700958669 -0.13942802 0.00522629172
v 0.714691162 1.25961299E-06 0.0409113616
v 0.273501337 -0.409321815 0.114583254
v 0.348100543 -0.348099589 0.138247207
v 0.409322768 -0.273499787 0.118389972
v 0.45481497 -0.188389763 0.204865202
v 0.482828766 -0.0960396826 0.0523774475
v 0.492287874 7.75146475E-07 0.0367355049
v 0.0960408449 -0.231862098 0.154850811
v -0 0 0.0384045765
v 0.139429465 -0.208670586 0.122639924
v -0 0 0.0384045765
v 0.177460194 -0.177459612 0.104986213
v -0 0 0.0384045765
v 0.208670989 -0.139429078 0.128124416
v -0 0 0.0384045765
v 0.231862396 -0.0960403606 0.0630142763
v -0 0 0.0384045765
v 0.246143788 -0.0489607714 0.0479817241
v -0 0 0.0384045765
v 0.250966072 3.87573238E-07 0.0376665294
v -0 0 0.0384045765
vt 0.00270482851 1
vt 0.13465032 0.875161052
vt 0.0723596439 0.875161052
vt 0.19385691 0.750321984
vt 0.131566241 0.750321984
vt 0.246098012 0.625483036
vt 0.183807343 0.625483036
vt 0.301821858 0.500643969
vt 0.239531189 0.500643969
vt 0.361028463 0.37580502
vt 0.298737794 0.37580502
vt 0.413269579 0.250965953
vt 0.350978911 0.250965953
vt 0.475958914 0.126127005
vt 0.413668245 0.126127005
vt 0.542131007 0.00128799677
vt 0.479840308 0.00128799677
vt 0.604421675 0.00128799677
vt 0.538249612 0.126127005
vt 0.666712463 0.00128799677
vt 0.475560308 0.250965953
vt 0.6005404 0.126127005
vt 0.729003131 0.00128799677
vt 0.423319191 0.37580502
vt 0.537851036 0.250965953
vt 0.662831068 0.126127005
vt 0.7912938 0.00128799677
vt 0.364112586 0.500643969
vt 0.485609919 0.37580502
vt 0.600141704 0.250965953
vt 0.725121737 0.126127005
vt 0.853584468 0.00128799677
vt 0.30838874 0.625483036
vt 0.426403314 0.500643969
vt 0.547900617 0.37580502
vt 0.662432432 0.250965953
vt 0.787412405 0.126127005
vt 0.915875256 0.00128799677
vt 0.256147623 0.750321984
vt 0.370679468 0.625483036
vt 0.488694042 0.500643969
vt 0.610191345 0.37580502
vt 0.724723041 0.250965953
vt 0.849703193 0.126127005
vt 0.978165925 0.00128799677
vt 0.196941018 0.875161052
vt 0.0649955049 1
vt 0.318438351 0.750321984
vt 0.432970196 0.625483036
vt 0.55098474 0.500643969
vt 0.672481954 0.37580502
vt 0.787013829 0.250965953
vt 0.911993861 0.126127005
vt 1.04045677 0.00128799677
vt 0.259231746 0.875161052
vt 0.127286211 1
vt 0.380729079 0.750321984
vt 0.495260894 0.625483036
vt 0.613275349 0.500643969
vt 0.734772742 0.37580502
vt 0.849304557 0.250965953
vt 0.974284649 0.126127005
vt 1.10274744 0.00128799677
vt 0.321522474 0.875161052
vt 0.189576924 1
vt 0.443019778 0.750321984
vt 0.557551503 0.625483036
vt 0.675566137 0.500643969
vt 0.79706347 0.37580502
vt 0.911595285 0.250965953
vt 1.03657532 0.126127005
vt 1.16503811 0.00128799677
vt 0.383813173 0.875161052
vt 0.251867652 1
vt 0.505310416 0.750321984
vt 0.619842291 0.625483036
vt 0.737856865 0.500643969
vt 0.859354198 0.37580502
vt 0.973885953 0.250965953
vt 1.09886599 0.126127005
vt 1.22732878 0.00128799677
vt 0.446103811 0.875161052
vt 0.31415835 1
vt 0.567601204 0.750321984
vt 0.682133019 0.625483036
vt 0.800147593 0.500643969
vt 0.921644866 0.37580502
vt 1.03617668 0.250965953
vt 1.16115665 0.126127005
vt 1.28961945 0.00128799677
vt 0.508394599 0.875161052
vt 0.376448989 1
vt 0.629891932 0.750321984
vt 0.744423747 0.625483036
vt 0.862438262 0.500643969
vt 0.983935595 0.37580502
vt 1.09846735 0.250965953
vt 1.22344732 0.126127005
vt 1.35191035 0.00128799677
vt 0.570685327 0.875161052
vt 0.438739777 1
vt 0.69218266 0.750321984
vt 0.806714416 0.625483036
vt 0.92472899 0.500643969
vt 1.04622626 0.37580502
vt 1.16075802 0.250965953
vt 1.28573823 0.126127005
vt 1.41420114 0.00128799677
vt 0.632976055 0.875161052
vt 0.501030505 1
vt 0.754473329 0.750321984
vt 0.869005144 0.625483036
vt 0.987019658 0.500643969
vt 1.10851693 0.37580502
vt 1.22304893 0.250965953
vt 1.34802902 0.126127005
vt 1.47649169 0.00128799677
vt 1.41031957 0.126127005
vt 1.28533971 0.250965953
vt 1.34763026 0.250965953
vt 1.17080784 0.37580502
vt 1.23309863 0.37580502
vt 1.29538918 0.37580502
vt 1.04931033 0.500643969
vt 1.11160123 0.500643969
vt 1.17389202 0.500643969
vt 1.23618257 0.500643969
vt 0.931295812 0.625483036
vt 0.993586481 0.625483036
vt 1.05587733 0.625483036
vt 1.11816812 0.625483036
vt 1.18045866 0.625483036
vt 0.816764057 0.750321984
vt 0.879054725 0.750321984
vt 0.941345394 0.750321984
vt 1.00363624 0.750321984
vt 1.06592703 0.750321984
vt 1.12821758 0.750321984
vt 0.695266724 0.875161052
vt 0.563321233 1
vt 0.757557452 0.875161052
vt 0.625611901 1
vt 0.81984812 0.875161052
vt 0.687902629 1
vt 0.882138789 0.875161052
vt 0.750193298 1
vt 0.944429696 0.875161052
vt 0.812483966 1
vt 1.00672042 0.875161052
vt 0.874774873 1
vt 1.06901097 0.875161052
vt 0.937065601 1
vn -0.0409385115 0.303901792 0.951823413
vn 0.11262808 -0.0153687 0.993518412
vn -0.00951563474 0.222409382 0.974906921
vn -0.171694696 0.374152452 0.911334693
vn -0.1625956 0.0608607605 0.984813988
vn 0.0199722983 0.134746641 0.990678728
vn 0.205160007 -0.236741558 0.949664533
vn 0.0706221685 0.0673018247 0.995230079
vn -0.0897600204 0.243476957 0.965744376
vn -0.149212211 0.0553478822 0.987254977
vn -0.0393912047 0.0595345162 0.997448623
vn -0.205260321 -0.00295185926 0.978702962
vn -0.161000997 0.0483469591 0.985769451
vn -0.401995331 -0.0430561677 0.914628863
vn -0.226254478 -0.0192413367 0.973878205
vn -0.399213433 -0.0668456629 0.914417982
vn -0.290120155 -0.0326184146 0.95643419
vn -0.580853403 -0.197266117 0.789743841
vn -0.372042328 -0.134984404 0.918348372
vn -0.310036421 -0.210007221 0.927240252
vn -0.258081108 0.0118783442 0.966050327
vn -0.518562794 -0.290742904 0.804090321
vn -0.205400199 -0.326981127 0.922439218
vn -0.126988471 0.0758289173 0.989001513
vn -0.199310243 -0.148190141 0.968666673
vn -0.152878106 -0.353697389 0.922781885
vn -0.256281137 -0.541331768 0.800799608
vn -0.0208043363 0.00414444087 0.999774992
vn 0.343544871 0.0432515815 0.938139737
vn 0.169877708 -0.180150434 0.968858778
vn -0.176620677 -0.436590552 0.882152975
vn -0.156124532 -0.370315015 0.915692031
vn -0.113789491 0.0885794237 0.989548206
vn -0.103590108 -0.0054338742 0.994605243
vn -0.063592121 -0.1705129 0.983301282
vn -0.0649756715 -0.1796792 0.981577098
vn -0.214600503 -0.461478204 0.860804498
vn -0.168446437 -0.370364964 0.913485348
vn -0.0263604447 0.29457292 0.955265343
vn 0.0437595882 -0.139006808 0.989324152
vn -0.0239583571 -0.123874627 0.992008567
vn 0.206013054 -0.0290482081 0.978118002
vn -0.0585888065 -0.148870781 0.987119436
vn -0.15294528 -0.402670532 0.902476668
vn -0.00790093374 -0.411142558 0.911536932
vn 0.0213950183 0.190363839 0.98148042
vn -0.0409385115 0.303901792 0.951823413
vn 0.0762169287 -0.0834214687 0.993595421
vn -0.0980860814 0.0747039393 0.992370129
vn 0.0216571484 -0.257545233 0.966023505
vn -0.0829742104 0.0425174646 0.995644331
vn -0.225775883 -0.240093783 0.944129348
vn -0.0434888378 -0.62060833 0.782913864
vn 0.132322446 -0.385821611 0.913034737
vn -0.338043928 0.536454022 0.773268044
vn -0.0409385115 0.303901792 0.951823413
vn 0.0218479335 -0.0663321987 0.997558355
vn -0.142637253 -0.0592517592 0.987999856
vn -0.478333384 -0.163772732 0.862772107
vn -0.266371161 -0.285237551 0.920698583
vn 0.0639554784 -0.117860481 0.990968525
vn 0.185600251 -0.276350945 0.942964852
vn 0.158798531 -0.366377085 0.916815639
vn -0.115227193 0.202821627 0.972412527
vn -0.0409385115 0.303901792 0.951823413
vn -0.341719866 0.135396764 0.929997504
vn 0.0142124491 0.0237542596 0.999616742
vn -0.111618936 -0.192049026 0.97501719
vn 0.143598258 0.00361520727 0.989629447
vn 0.128182158 -0.103235006 0.986362994
vn 0.147267044 -0.477356315 0.86628139
vn 0.389292955 -0.742852688 0.544629097
vn 0.051166907 0.102251887 0.993441701
vn -0.0409385115 0.303901792 0.951823413
vn 0.213293552 -0.124362193 0.969040751
vn 0.0876228213 0.312426031 0.945892274
vn 0.351506472 -0.135765612 0.926288724
vn -0.0337002836 -0.22645846 0.973437667
vn 0.0992700979 -0.32073161 0.941953659
vn 0.193117827 -0.361045867 0.912333012
vn 0.251236171 -0.285268128 0.924933732
vn 0.309019476 0.048555579 0.949815392
vn -0.0409385115 0.303901792 0.951823413
vn 0.0680887029 -0.0618975386 0.995757282
vn 0.0265715476 0.0204266757 0.999438226
vn 0.0272004195 -0.119370945 0.992477
vn -0.0251223762 -0.278509706 0.960104764
vn 0.0735565573 -0.175298676 0.981763661
vn 0.139211237 -0.212812707 0.967125058
vn 0.495946765 -0.251264244 0.831205785
vn 0.0308414809 -0.108493224 0.993618727
vn -0.0409385115 0.303901792 0.951823413
vn -0.16410543 0.0543600582 0.984943807
vn 0.0168885719 -0.0672739521 0.997591615
vn -0.137262911 -0.0960101262 0.985870659
vn 0.094792217 -0.385467231 0.917839527
vn 0.231640056 -0.33356455 0.91382575
vn 0.328703433 -0.158752173 0.930995047
vn 0.775396764 -0.321669608 0.543404639
vn -0.42947492 0.108432233 0.89654541
vn -0.0409385115 0.303901792 0.951823413
vn 0.232621685 -0.059500508 0.970745504
vn -0.0390228517 0.0556276366 0.99768877
vn 0.0356854461 0.270696193 0.962003171
vn 0.100772023 0.0718681142 0.992310405
vn 0.277324498 0.0143699879 0.960668802
vn 0.173949718 0.0471965484 0.983622968
vn 0.365769535 -0.0621049628 0.928631008
vn -0.434709221 -0.118250795 0.892773628
vn -0.0409385115 0.303901792 0.951823413
vn -0.301804483 -0.301939219 0.904293478
vn -0.141529113 -0.363228828 0.920887768
vn 0.0269331522 0.0275312457 0.999257982
vn 0.211930871 -0.0190618988 0.977098763
vn -0.00777268736 0.0822577775 0.99658078
vn 0.182718873 -0.0969883129 0.978369653
vn 0.293319017 -0.0187711641 0.955830336
vn 0.208889499 0.00039755943 0.977939188
vn 0.220808536 -0.162404224 0.961700857
vn 0.102070406 0.0554401912 0.993231058
vn 0.262297213 0.0243098121 0.964680851
vn 0.106648922 -0.0212132614 0.994070351
vn 0.091333203 0.157316983 0.983315647
vn 0.0334439911 0.0191986263 0.999256194
vn 0.0336841419 0.0714018419 0.996878743
vn 0.00665109092 -0.0726699531 0.997333884
vn -0.0562015548 0.192670763 0.979652643
vn 0.171005413 -0.113110766 0.978755951
vn 0.27246657 0.251808017 0.92863059
vn 0.319277197 -0.0770226121 0.944526196
vn 0.0712532923 0.219653979 0.972972274
vn 0.0835991129 -0.205159366 0.975151718
vn -0.0613686964 -0.0150834145 0.998001158
vn -0.0228442401 0.0903545916 0.995647609
vn 0.0192083772 -0.265826643 0.963829458
vn 0.0751446411 0.089401111 0.99315697
vn 0.107893519 0.504575253 0.856599629
vn -0.00415650522 0.164059341 0.986441672
vn -0.164346993 0.116295241 0.979523063
vn -0.0409385115 0.303901792 0.951823413
vn 0.247105092 0.369110018 0.895933449
vn -0.0409385115 0.303901792 0.951823413
vn -0.106373489 0.097337231 0.989550412
vn -0.0409385115 0.303901792 0.951823413
vn -0.17323415 0.245072663 0.953902185
vn -0.0409385115 0.303901792 0.951823413
vn 0.0840323046 0.616921604 0.782525599
vn -0.0409385115 0.303901792 0.951823413
vn 0.018240165 0.248016506 0.968584061
vn -0.0409385115 0.303901792 0.951823413
vn 0.00335393683 0.205838174 0.978580356
vn -0.0409385115 0.303901792 0.951823413
g Sphere001_0
f 3/3/3 2/2/2 1/1/1
f 4/4/4 2/2/2 3/3/3
f 5/5/5 4/4/4 3/3/3
f 6/6/6 4/4/4 5/5/5
f 7/7/7 6/6/6 5/5/5
f 8/8/8 6/6/6 7/7/7
f 9/9/9 8/8/8 7/7/7
f 10/10/10 8/8/8 9/9/9
f 11/11/11 10/10/10 9/9/9
f 12/12/12 10/10/10 11/11/11
f 13/13/13 12/12/12 11/11/11
f 14/14/14 12/12/12 13/13/13
f 15/15/15 14/14/14 13/13/13
f 16/16/16 14/14/14 15/15/15
f 17/17/17 16/16/16 15/15/15
f 16/16/16 18/18/18 14/14/14
f 18/18/18 19/19/19 14/14/14
f 14/14/14 19/19/19 12/12/12
f 18/18/18 20/20/20 19/19/19
f 12/12/12 21/21/21 10/10/10
f 19/19/19 21/21/21 12/12/12
f 20/20/20 22/22/22 19/19/19
f 19/19/19 22/22/22 21/21/21
f 20/20/20 23/23/23 22/22/22
f 10/10/10 24/24/24 8/8/8
f 21/21/21 24/24/24 10/10/10
f 22/22/22 25/25/25 21/21/21
f 21/21/21 25/25/25 24/24/24
f 23/23/23 26/26/26 22/22/22
f 22/22/22 26/26/26 25/25/25
f 23/23/23 27/27/27 26/26/26
f 24/24/24 28/28/28 8/8/8
f 8/8/8 28/28/28 6/6/6
f 25/25/25 29/29/29 24/24/24
f 24/24/24 29/29/29 28/28/28
f 26/26/26 30/30/30 25/25/25
f 25/25/25 30/30/30 29/29/29
f 27/27/27 31/31/31 26/26/26
f 26/26/26 31/31/31 30/30/30
f 27/27/27 32/32/32 31/31/31
f 28/28/28 33/33/33 6/6/6
f 6/6/6 33/33/33 4/4/4
f 29/29/29 34/34/34 28/28/28
f 28/28/28 34/34/34 33/33/33
f 30/30/30 35/35/35 29/29/29
f 29/29/29 35/35/35 34/34/34
f 31/31/31 36/36/36 30/30/30
f 30/30/30 36/36/36 35/35/35
f 32/32/32 37/37/37 31/31/31
f 31/31/31 37/37/37 36/36/36
f 32/32/32 38/38/38 37/37/37
f 33/33/33 39/39/39 4/4/4
f 4/4/4 39/39/39 2/2/2
f 34/34/34 40/40/40 33/33/33
f 33/33/33 40/40/40 39/39/39
f 35/35/35 41/41/41 34/34/34
f 34/34/34 41/41/41 40/40/40
f 36/36/36 42/42/42 35/35/35
f 35/35/35 42/42/42 41/41/41
f 37/37/37 43/43/43 36/36/36
f 36/36/36 43/43/43 42/42/42
f 38/38/38 44/44/44 37/37/37
f 37/37/37 44/44/44 43/43/43
f 38/38/38 45/45/45 44/44/44
f 39/39/39 46/46/46 2/2/2
f 2/2/2 46/46/46 47/47/47
f 40/40/40 48/48/48 39/39/39
f 39/39/39 48/48/48 46/46/46
f 41/41/41 49/49/49 40/40/40
f 40/40/40 49/49/49 48/48/48
f 42/42/42 50/50/50 41/41/41
f 41/41/41 50/50/50 49/49/49
f 43/43/43 51/51/51 42/42/42
f 42/42/42 51/51/51 50/50/50
f 44/44/44 52/52/52 43/43/43
f 43/43/43 52/52/52 51/51/51
f 45/45/45 53/53/53 44/44/44
f 44/44/44 53/53/53 52/52/52
f 45/45/45 54/54/54 53/53/53
f 48/48/48 55/55/55 46/46/46
f 46/46/46 55/55/55 56/56/56
f 49/49/49 57/57/57 48/48/48
f 48/48/48 57/57/57 55/55/55
f 50/50/50 58/58/58 49/49/49
f 49/49/49 58/58/58 57/57/57
f 51/51/51 59/59/59 50/50/50
f 50/50/50 59/59/59 58/58/58
f 52/52/52 60/60/60 51/51/51
f 51/51/51 60/60/60 59/59/59
f 53/53/53 61/61/61 52/52/52
f 52/52/52 61/61/61 60/60/60
f 54/54/54 62/62/62 53/53/53
f 53/53/53 62/62/62 61/61/61
f 54/54/54 63/63/63 62/62/62
f 57/57/57 64/64/64 55/55/55
f 55/55/55 64/64/64 65/65/65
f 58/58/58 66/66/66 57/57/57
f 57/57/57 66/66/66 64/64/64
f 59/59/59 67/67/67 58/58/58
f 58/58/58 67/67/67 66/66/66
f 60/60/60 68/68/68 59/59/59
f 59/59/59 68/68/68 67/67/67
f 61/61/61 69/69/69 60/60/60
f 60/60/60 69/69/69 68/68/68
f 62/62/62 70/70/70 61/61/61
f 61/61/61 70/70/70 69/69/69
f 63/63/63 71/71/71 62/62/62
f 62/62/62 71/71/71 70/70/70
f 63/63/63 72/72/72 71/71/71
f 66/66/66 73/73/73 64/64/64
f 64/64/64 73/73/73 74/74/74
f 67/67/67 75/75/75 66/66/66
f 66/66/66 75/75/75 73/73/73
f 68/68/68 76/76/76 67/67/67
f 67/67/67 76/76/76 75/75/75
f 69/69/69 77/77/77 68/68/68
f 68/68/68 77/77/77 76/76/76
f 70/70/70 78/78/78 69/69/69
f 69/69/69 78/78/78 77/77/77
f 71/71/71 79/79/79 70/70/70
f 70/70/70 79/79/79 78/78/78
f 72/72/72 80/80/80 71/71/71
f 71/71/71 80/80/80 79/79/79
f 72/72/72 81/81/81 80/80/80
f 75/75/75 82/82/82 73/73/73
f 73/73/73 82/82/82 83/83/83
f 76/76/76 84/84/84 75/75/75
f 75/75/75 84/84/84 82/82/82
f 77/77/77 85/85/85 76/76/76
f 76/76/76 85/85/85 84/84/84
f 78/78/78 86/86/86 77/77/77
f 77/77/77 86/86/86 85/85/85
f 79/79/79 87/87/87 78/78/78
f 78/78/78 87/87/87 86/86/86
f 80/80/80 88/88/88 79/79/79
f 79/79/79 88/88/88 87/87/87
f 81/81/81 89/89/89 80/80/80
f 80/80/80 89/89/89 88/88/88
f 81/81/81 90/90/90 89/89/89
f 84/84/84 91/91/91 82/82/82
f 82/82/82 91/91/91 92/92/92
f 85/85/85 93/93/93 84/84/84
f 84/84/84 93/93/93 91/91/91
f 86/86/86 94/94/94 85/85/85
f 85/85/85 94/94/94 93/93/93
f 87/87/87 95/95/95 86/86/86
f 86/86/86 95/95/95 94/94/94
f 88/88/88 96/96/96 87/87/87
f 87/87/87 96/96/96 95/95/95
f 89/89/89 97/97/97 88/88/88
f 88/88/88 97/97/97 96/96/96
f 90/90/90 98/98/98 89/89/89
f 89/89/89 98/98/98 97/97/97
f 90/90/90 99/99/99 98/98/98
f 93/93/93 100/100/100 91/91/91
f 91/91/91 100/100/100 101/101/101
f 94/94/94 102/102/102 93/93/93
f 93/93/93 102/102/102 100/100/100
f 95/95/95 103/103/103 94/94/94
f 94/94/94 103/103/103 102/102/102
f 96/96/96 104/104/104 95/95/95
f 95/95/95 104/104/104 103/103/103
f 97/97/97 105/105/105 96/96/96
f 96/96/96 105/105/105 104/104/104
f 98/98/98 106/106/106 97/97/97
f 97/97/97 106/106/106 105/105/105
f 99/99/99 107/107/107 98/98/98
f 98/98/98 107/107/107 106/106/106
f 99/99/99 108/108/108 107/107/107
f 102/102/102 109/109/109 100/100/100
f 100/100/100 109/109/109 110/110/110
f 103/103/103 111/111/111 102/102/102
f 102/102/102 111/111/111 109/109/109
f 104/104/104 112/112/112 103/103/103
f 103/103/103 112/112/112 111/111/111
f 105/105/105 113/113/113 104/104/104
f 104/104/104 113/113/113 112/112/112
f 106/106/106 114/114/114 105/105/105
f 105/105/105 114/114/114 113/113/113
f 107/107/107 115/115/115 106/106/106
f 106/106/106 115/115/115 114/114/114
f 108/108/108 116/116/116 107/107/107
f 107/107/107 116/116/116 115/115/115
f 108/108/108 117/117/117 116/116/116
f 117/117/117 118/118/118 116/116/116
f 116/116/116 118/118/118 119/119/119
f 116/116/116 119/119/119 115/115/115
f 118/118/118 120/120/120 119/119/119
f 115/115/115 121/121/121 114/114/114
f 115/115/115 119/119/119 121/121/121
f 119/119/119 120/120/120 122/122/122
f 119/119/119 122/122/122 121/121/121
f 120/120/120 123/123/123 122/122/122
f 114/114/114 124/124/124 113/113/113
f 114/114/114 121/121/121 124/124/124
f 121/121/121 122/122/122 125/125/125
f 121/121/121 125/125/125 124/124/124
f 122/122/122 123/123/123 126/126/126
f 122/122/122 126/126/126 125/125/125
f 123/123/123 127/127/127 126/126/126
f 113/113/113 124/124/124 128/128/128
f 113/113/113 128/128/128 112/112/112
f 124/124/124 125/125/125 129/129/129
f 124/124/124 129/129/129 128/128/128
f 125/125/125 126/126/126 130/130/130
f 125/125/125 130/130/130 129/129/129
f 126/126/126 127/127/127 131/131/131
f 126/126/126 131/131/131 130/130/130
f 127/127/127 132/132/132 131/131/131
f 112/112/112 128/128/128 133/133/133
f 112/112/112 133/133/133 111/111/111
f 128/128/128 129/129/129 134/134/134
f 128/128/128 134/134/134 133/133/133
f 129/129/129 130/130/130 135/135/135
f 129/129/129 135/135/135 134/134/134
f 130/130/130 131/131/131 136/136/136
f 130/130/130 136/136/136 135/135/135
f 131/131/131 132/132/132 137/137/137
f 131/131/131 137/137/137 136/136/136
f 132/132/132 138/138/138 137/137/137
f 111/111/111 133/133/133 139/139/139
f 111/111/111 139/139/139 109/109/109
f 109/109/109 139/139/139 140/140/140
f 133/133/133 141/141/141 139/139/139
f 133/133/133 134/134/134 141/141/141
f 139/139/139 141/141/141 142/142/142
f 134/134/134 143/143/143 141/141/141
f 134/134/134 135/135/135 143/143/143
f 141/141/141 143/143/143 144/144/144
f 135/135/135 145/145/145 143/143/143
f 143/143/143 145/145/145 146/146/146
f 135/135/135 136/136/136 145/145/145
f 136/136/136 147/147/147 145/145/145
f 145/145/145 147/147/147 148/148/148
f 136/136/136 137/137/137 147/147/147
f 137/137/137 149/149/149 147/147/147
f 147/147/147 149/149/149 150/150/150
f 137/137/137 138/138/138 149/149/149
f 138/138/138 151/151/151 149/149/149
f 149/149/149 151/151/151 152/152/152
