g svrash_skin_mesh_05
v 0.315919727 -0.5 -1.02939715E-07
v 0.349794626 -0.401879698 -1.13977563E-07
v 0.274084359 -0.319963723 -8.93080241E-08
v -0.115599573 -0.5 3.76671245E-08
v -0.0200685114 -0.216948077 6.53915144E-09
v -0.130530998 -0.0220873058 4.25323989E-08
v -0.239752322 -0.422979265 7.8121225E-08
v -0.264575422 0.417280376 8.62096172E-08
v -0.123084128 0.0424526334 4.01059026E-08
v -0.371314406 -0.245494545 1.20989597E-07
v -0.356420636 0.244760334 1.1613659E-07
v -0.418478161 0.0747225285 1.363575E-07
v -0.415995896 -0.0109169185 1.35548675E-07
v -0.0784027576 0.5 2.55468624E-08
v 0.0134425759 0.224901944 -4.38014736E-09
v 0.252984792 0.303094417 -8.24329121E-08
v 0.332418501 0.368875444 -1.08315703E-07
v 0.342347682 0.5 -1.11551039E-07
vt 0.184080273 0
vt 0.150205389 0.098120302
vt 0.225915641 0.180036277
vt 0.615599573 0
vt 0.520068526 0.283051938
vt 0.630531013 0.477912694
vt 0.739752412 0.0770207345
vt 0.764575422 0.917280316
vt 0.623084188 0.542452574
vt 0.871314406 0.254505455
vt 0.856420577 0.744760334
vt 0.918478131 0.574722528
vt 0.915995896 0.489083111
vt 0.578402758 1
vt 0.486557484 0.724902034
vt 0.247015238 0.803094506
vt 0.167581484 0.868875384
vt 0.157652318 1
vn -0 0 -1
vn -0 0 -1
vn -0 0 -1
vn -0 0 -1
vn -0 0 -1
vn -0 0 -1
vn -0 0 -1
vn -0 0 -1
vn -0 0 -1
vn -0 0 -1
vn -0 0 -1
vn -0 0 -1
vn -0 0 -1
vn -0 0 -1
vn -0 0 -1
vn -0 0 -1
vn -0 0 -1
vn -0 0 -1
g svrash_skin_mesh_05_0
f 3/3/3 2/2/2 1/1/1
f 1/1/1 4/4/4 3/3/3
f 4/4/4 5/5/5 3/3/3
f 4/4/4 6/6/6 5/5/5
f 4/4/4 7/7/7 6/6/6
f 6/6/6 7/7/7 8/8/8
f 9/9/9 6/6/6 8/8/8
f 7/7/7 10/10/10 8/8/8
f 10/10/10 11/11/11 8/8/8
f 10/10/10 12/12/12 11/11/11
f 10/10/10 13/13/13 12/12/12
f 9/9/9 8/8/8 14/14/14
f 15/15/15 9/9/9 14/14/14
f 16/16/16 15/15/15 14/14/14
f 17/17/17 16/16/16 14/14/14
f 14/14/14 18/18/18 17/17/17
