g svrash_s3_range002
v -0.002485367 0.0994702429 0.0022499999
v -0.002485367 0.099868983 0.00225000037
v 0.0106349699 0.0998689756 0.00225000037
v 0.0102863256 0.0994702429 0.0022499999
v 0.0102863256 0.0758282915 0.00224999571
v 0.0106349699 0.0761527121 0.00224999595
v 0.034229055 0.0758282915 0.00224999571
v 0.0345599167 0.0761527121 0.00224999595
v 0.034229055 0.0514847115 0.00224999175
v 0.0345599167 0.0518378429 0.00224999199
v 0.0585204661 0.0514847115 0.00224999175
v 0.0588981844 0.0518378429 0.00224999199
v 0.0585204661 0.0273324605 0.00224998733
v 0.0588981844 0.0276984945 0.0022499878
v 0.0833522975 0.0273324605 0.00224998733
v 0.0837269053 0.0276984945 0.0022499878
v 0.0833522975 0.00245101168 0.00224998267
v 0.0837269053 0.00245103473 0.00224998267
vt 0.133948237 0.870392978
vt 0.133948237 0.875191867
vt 0.253992051 0.875191867
vt 0.247963727 0.870392978
vt 0.247963727 0.682944477
vt 0.253992051 0.688043654
vt 0.470674992 0.682944477
vt 0.477743804 0.688043654
vt 0.470674992 0.495175123
vt 0.477743804 0.501599133
vt 0.700898111 0.495175123
vt 0.708651364 0.501599133
vt 0.700898111 0.294133514
vt 0.708651364 0.299901098
vt 0.933528721 0.294133514
vt 0.93965286 0.299901098
vt 0.933528721 0.0694873482
vt 0.93965286 0.0694875419
vn -0 0 1
vn -0 0 1
vn -0 0 1
vn -0 0 1
vn -0 0 1
vn -0 0 1
vn -0 0 1
vn -0 0 1
vn -0 0 1
vn -0 0 1
vn -0 0 1
vn -0 0 1
vn -0 0 1
vn -0 0 1
vn -0 0 1
vn -0 0 1
vn -0 0 1
vn -0 0 1
g svrash_s3_range002_0
f 3/3/3 2/2/2 1/1/1
f 4/4/4 3/3/3 1/1/1
f 4/4/4 5/5/5 3/3/3
f 5/5/5 6/6/6 3/3/3
f 5/5/5 7/7/7 6/6/6
f 7/7/7 8/8/8 6/6/6
f 7/7/7 9/9/9 8/8/8
f 9/9/9 10/10/10 8/8/8
f 9/9/9 11/11/11 10/10/10
f 11/11/11 12/12/12 10/10/10
f 11/11/11 13/13/13 12/12/12
f 13/13/13 14/14/14 12/12/12
f 13/13/13 15/15/15 14/14/14
f 15/15/15 16/16/16 14/14/14
f 15/15/15 17/17/17 16/16/16
f 17/17/17 18/18/18 16/16/16
