g svrash_skin_mesh_01
v 0.350695193 -0.5 -1.14271003E-07
v 0.355659783 -0.430526197 -1.15888668E-07
v 0.308496118 -0.331234127 -1.00520801E-07
v 0.0523948669 -0.5 -1.70724146E-08
v 0.304772586 0.311682522 -9.93075133E-08
v 0.0329604149 0.5 -1.07398668E-08
v 0.0329604112 -0.441696554 -1.07398659E-08
v 0.339524746 0.5 -1.10631206E-07
v 0.349454045 0.370016545 -1.13866584E-07
v 0.0193077326 0.438279867 -6.29125818E-09
v -0.0725374296 -0.39949736 2.36356961E-08
v -0.107289672 0.394839644 3.49594131E-08
v -0.103566274 -0.302687526 3.37461756E-08
v -0.108530879 0.301753283 3.53638505E-08
v -0.192929193 -0.274141073 6.28643093E-08
v -0.201617181 0.274447918 6.56952182E-08
v -0.251263291 -0.167402089 8.18719741E-08
v -0.242575169 0.173914671 7.90410226E-08
v -0.35055545 0.127992034 1.14225465E-07
v -0.319526643 -0.148784816 1.04114996E-07
v -0.3733055 -0.00661246479 1.21638379E-07
v -0.38034308 -0.0482514501 1.23931514E-07
vt 0.149304807 0
vt 0.144340202 0.069473803
vt 0.191503853 0.168765873
vt 0.447605133 0
vt 0.195227399 0.811682463
vt 0.467039585 1
vt 0.467039555 0.0583034456
vt 0.160475269 1
vt 0.150545955 0.870016456
vt 0.480692267 0.938279867
vt 0.572537422 0.100502655
vt 0.607289672 0.894839704
vt 0.603566289 0.197312474
vt 0.608530879 0.801753283
vt 0.692929208 0.225858927
vt 0.701617181 0.774447858
vt 0.751263201 0.332597882
vt 0.742575109 0.673914611
vt 0.85055542 0.627992034
vt 0.819526672 0.351215184
vt 0.87330544 0.49338752
vt 0.88034302 0.45174852
vn -0 0 -1
vn -0 0 -1
vn -0 0 -1
vn -0 0 -1
vn -0 0 -1
vn -0 0 -1
vn -0 0 -1
vn -0 0 -1
vn -0 0 -1
vn -0 0 -1
vn -0 0 -1
vn -0 0 -1
vn -0 0 -1
vn -0 0 -1
vn -0 0 -1
vn -0 0 -1
vn -0 0 -1
vn -0 0 -1
vn -0 0 -1
vn -0 0 -1
vn -0 0 -1
vn -0 0 -1
g svrash_skin_mesh_01_0
f 3/3/3 2/2/2 1/1/1
f 1/1/1 4/4/4 3/3/3
f 4/4/4 5/5/5 3/3/3
f 5/5/5 4/4/4 6/6/6
f 4/4/4 7/7/7 6/6/6
f 5/5/5 6/6/6 8/8/8
f 8/8/8 9/9/9 5/5/5
f 7/7/7 10/10/10 6/6/6
f 7/7/7 11/11/11 10/10/10
f 11/11/11 12/12/12 10/10/10
f 11/11/11 13/13/13 12/12/12
f 13/13/13 14/14/14 12/12/12
f 13/13/13 15/15/15 14/14/14
f 15/15/15 16/16/16 14/14/14
f 15/15/15 17/17/17 16/16/16
f 17/17/17 18/18/18 16/16/16
f 17/17/17 19/19/19 18/18/18
f 17/17/17 20/20/20 19/19/19
f 20/20/20 21/21/21 19/19/19
f 20/20/20 22/22/22 21/21/21
