g tknogi01
v -0.0140148634 -2.66228483E-07 0.0299999993
v -0.0163544323 -5.9171402E-08 0.0196109321
v -0.00934324134 -2.66228511E-07 0.0299999993
v -0.0163544323 -5.9171402E-08 0.0196109321
v -0.0140148634 -2.66228483E-07 0.0299999993
v -0.0245316494 -5.91713913E-08 0.0196109321
v -0.00934324134 -2.66228511E-07 0.0299999993
v -0.00817721616 -5.91713878E-08 0.019610934
v -0.00467162346 -2.66228483E-07 0.0299999993
v -0.00817721616 -5.91713878E-08 0.019610934
v -0.00934324134 -2.66228511E-07 0.0299999993
v -0.0163544323 -5.9171402E-08 0.0196109321
v -0.00467162346 -2.66228483E-07 0.0299999993
v 3.81469745E-09 -5.91713842E-08 0.0196109321
v -1.90734872E-09 -2.66228483E-07 0.0299999993
v 3.81469745E-09 -5.91713842E-08 0.0196109321
v -0.00467162346 -2.66228483E-07 0.0299999993
v -0.00817721616 -5.91713878E-08 0.019610934
v -1.90734872E-09 -2.66228483E-07 0.0299999993
v 0.00817721803 -5.91713736E-08 0.019610934
v 0.00467161788 -2.66228483E-07 0.0299999993
v 0.00817721803 -5.91713736E-08 0.019610934
v -1.90734872E-09 -2.66228483E-07 0.0299999993
v 3.81469745E-09 -5.91713842E-08 0.0196109321
v 0.00467161788 -2.66228483E-07 0.0299999993
v 0.0163544416 -5.91713913E-08 0.0196109321
v 0.00934324134 -2.66228483E-07 0.0299999993
v 0.0163544416 -5.91713913E-08 0.0196109321
v 0.00467161788 -2.66228483E-07 0.0299999993
v 0.00817721803 -5.91713736E-08 0.019610934
v 0.00934324134 -2.66228483E-07 0.0299999993
v 0.0245316532 -5.91713913E-08 0.0196109321
v 0.0140148606 -2.66228483E-07 0.0299999993
v 0.0245316532 -5.91713913E-08 0.0196109321
v 0.00934324134 -2.66228483E-07 0.0299999993
v 0.0163544416 -5.91713913E-08 0.0196109321
v -0.0245316494 -5.91713913E-08 0.0196109321
v -0.0201845951 7.05817129E-08 0.00846526772
v -0.0163544323 -5.9171402E-08 0.0196109321
v -0.0201845951 7.05817129E-08 0.00846526772
v -0.0245316494 -5.91713913E-08 0.0196109321
v -0.0302768927 7.05816916E-08 0.00846527144
v -0.0163544323 -5.9171402E-08 0.0196109321
v -0.0100923032 7.05817058E-08 0.00846527144
v -0.00817721616 -5.91713878E-08 0.019610934
v -0.0100923032 7.05817058E-08 0.00846527144
v -0.0163544323 -5.9171402E-08 0.0196109321
v -0.0201845951 7.05817129E-08 0.00846526772
v -0.00817721616 -5.91713878E-08 0.019610934
v -1.90734872E-09 7.05816987E-08 0.00846527144
v 3.81469745E-09 -5.91713842E-08 0.0196109321
v -1.90734872E-09 7.05816987E-08 0.00846527144
v -0.00817721616 -5.91713878E-08 0.019610934
v -0.0100923032 7.05817058E-08 0.00846527144
v 3.81469745E-09 -5.91713842E-08 0.0196109321
v 0.0100922948 7.05816987E-08 0.00846526958
v 0.00817721803 -5.91713736E-08 0.019610934
v 0.0100922948 7.05816987E-08 0.00846526958
v 3.81469745E-09 -5.91713842E-08 0.0196109321
v -1.90734872E-09 7.05816987E-08 0.00846527144
v 0.00817721803 -5.91713736E-08 0.019610934
v 0.0201845951 7.05816987E-08 0.00846526958
v 0.0163544416 -5.91713913E-08 0.0196109321
v 0.0201845951 7.05816987E-08 0.00846526958
v 0.00817721803 -5.91713736E-08 0.019610934
v 0.0100922948 7.05816987E-08 0.00846526958
v 0.0163544416 -5.91713913E-08 0.0196109321
v 0.0302768815 7.05816916E-08 0.00846527144
v 0.0245316532 -5.91713913E-08 0.0196109321
v 0.0302768815 7.05816916E-08 0.00846527144
v 0.0163544416 -5.91713913E-08 0.0196109321
v 0.0201845951 7.05816987E-08 0.00846526958
v -0.0302768927 7.05816916E-08 0.00846527144
v -0.0210148524 1.3280092E-07 -0.00340471091
v -0.0201845951 7.05817129E-08 0.00846526772
v -0.0210148524 1.3280092E-07 -0.00340471091
v -0.0302768927 7.05816916E-08 0.00846527144
v -0.031522274 1.32800892E-07 -0.0034046995
v -0.0201845951 7.05817129E-08 0.00846526772
v -0.0105074318 1.32800878E-07 -0.00340469182
v -0.0100923032 7.05817058E-08 0.00846527144
v -0.0105074318 1.32800878E-07 -0.00340469182
v -0.0201845951 7.05817129E-08 0.00846526772
v -0.0210148524 1.3280092E-07 -0.00340471091
v -0.0100923032 7.05817058E-08 0.00846527144
v -1.90734872E-09 1.32800878E-07 -0.0034046995
v -1.90734872E-09 7.05816987E-08 0.00846527144
v -1.90734872E-09 1.32800878E-07 -0.0034046995
v -0.0100923032 7.05817058E-08 0.00846527144
v -0.0105074318 1.32800878E-07 -0.00340469182
v -1.90734872E-09 7.05816987E-08 0.00846527144
v 0.0105074216 1.32800878E-07 -0.0034046995
v 0.0100922948 7.05816987E-08 0.00846526958
v 0.0105074216 1.32800878E-07 -0.0034046995
v -1.90734872E-09 7.05816987E-08 0.00846527144
v -1.90734872E-09 1.32800878E-07 -0.0034046995
v 0.0100922948 7.05816987E-08 0.00846526958
v 0.021014845 1.32800878E-07 -0.00340470322
v 0.0201845951 7.05816987E-08 0.00846526958
v 0.021014845 1.32800878E-07 -0.00340470322
v 0.0100922948 7.05816987E-08 0.00846526958
v 0.0105074216 1.32800878E-07 -0.0034046995
v 0.0201845951 7.05816987E-08 0.00846526958
v 0.0315222628 1.32800892E-07 -0.0034046995
v 0.0302768815 7.05816916E-08 0.00846527144
v 0.0315222628 1.32800892E-07 -0.0034046995
v 0.0201845951 7.05816987E-08 0.00846526958
v 0.021014845 1.32800878E-07 -0.00340470322
v -0.031522274 1.32800892E-07 -0.0034046995
v -0.0190263148 1.37256222E-07 -0.0159666743
v -0.0210148524 1.3280092E-07 -0.00340471091
v -0.0190263148 1.37256222E-07 -0.0159666743
v -0.031522274 1.32800892E-07 -0.0034046995
v -0.0285394695 1.37256208E-07 -0.0159666669
v -0.0210148524 1.3280092E-07 -0.00340471091
v -0.00951316301 1.37256208E-07 -0.0159666669
v -0.0105074318 1.32800878E-07 -0.00340469182
v -0.00951316301 1.37256208E-07 -0.0159666669
v -0.0210148524 1.3280092E-07 -0.00340471091
v -0.0190263148 1.37256222E-07 -0.0159666743
v -0.0105074318 1.32800878E-07 -0.00340469182
v -5.72204595E-09 1.37256208E-07 -0.0159666669
v -1.90734872E-09 1.32800878E-07 -0.0034046995
v -5.72204595E-09 1.37256208E-07 -0.0159666669
v -0.0105074318 1.32800878E-07 -0.00340469182
v -0.00951316301 1.37256208E-07 -0.0159666669
v -1.90734872E-09 1.32800878E-07 -0.0034046995
v 0.00951314811 1.37256194E-07 -0.0159666669
v 0.0105074216 1.32800878E-07 -0.0034046995
v 0.00951314811 1.37256194E-07 -0.0159666669
v -1.90734872E-09 1.32800878E-07 -0.0034046995
v -5.72204595E-09 1.37256208E-07 -0.0159666669
v 0.0105074216 1.32800878E-07 -0.0034046995
v 0.0190263093 1.37256208E-07 -0.0159666706
v 0.021014845 1.32800878E-07 -0.00340470322
v 0.0190263093 1.37256208E-07 -0.0159666706
v 0.0105074216 1.32800878E-07 -0.0034046995
v 0.00951314811 1.37256194E-07 -0.0159666669
v 0.021014845 1.32800878E-07 -0.00340470322
v 0.028539462 1.37256208E-07 -0.0159666669
v 0.0315222628 1.32800892E-07 -0.0034046995
v 0.028539462 1.37256208E-07 -0.0159666669
v 0.021014845 1.32800878E-07 -0.00340470322
v 0.0190263093 1.37256208E-07 -0.0159666706
v -0.0285394695 1.37256208E-07 -0.0159666669
v -0.0144001078 9.37178726E-08 -0.0291883536
v -0.0190263148 1.37256222E-07 -0.0159666743
v -0.0144001078 9.37178726E-08 -0.0291883536
v -0.0285394695 1.37256208E-07 -0.0159666669
v -0.0216001626 9.37178584E-08 -0.0291883461
v -0.0190263148 1.37256222E-07 -0.0159666743
v -0.00720005622 9.37178513E-08 -0.0291883387
v -0.00951316301 1.37256208E-07 -0.0159666669
v -0.00720005622 9.37178513E-08 -0.0291883387
v -0.0190263148 1.37256222E-07 -0.0159666743
v -0.0144001078 9.37178726E-08 -0.0291883536
v -0.00951316301 1.37256208E-07 -0.0159666669
v -3.81469745E-09 9.37178584E-08 -0.0291883424
v -5.72204595E-09 1.37256208E-07 -0.0159666669
v -3.81469745E-09 9.37178584E-08 -0.0291883424
v -0.00951316301 1.37256208E-07 -0.0159666669
v -0.00720005622 9.37178513E-08 -0.0291883387
v -5.72204595E-09 1.37256208E-07 -0.0159666669
v 0.00720004877 9.37178513E-08 -0.0291883424
v 0.00951314811 1.37256194E-07 -0.0159666669
v 0.00720004877 9.37178513E-08 -0.0291883424
v -5.72204595E-09 1.37256208E-07 -0.0159666669
v -3.81469745E-09 9.37178584E-08 -0.0291883424
v 0.00951314811 1.37256194E-07 -0.0159666669
v 0.0144001069 9.37178584E-08 -0.0291883498
v 0.0190263093 1.37256208E-07 -0.0159666706
v 0.0144001069 9.37178584E-08 -0.0291883498
v 0.00951314811 1.37256194E-07 -0.0159666669
v 0.00720004877 9.37178513E-08 -0.0291883424
v 0.0190263093 1.37256208E-07 -0.0159666706
v 0.021600157 9.37178584E-08 -0.0291883461
v 0.028539462 1.37256208E-07 -0.0159666669
v 0.021600157 9.37178584E-08 -0.0291883461
v 0.0190263093 1.37256208E-07 -0.0159666706
v 0.0144001069 9.37178584E-08 -0.0291883498
v -0.0216001626 9.37178584E-08 -0.0291883461
v -0.00731736049 1.19559651E-08 -0.0430374257
v -0.0144001078 9.37178726E-08 -0.0291883536
v -0.00731736049 1.19559651E-08 -0.0430374257
v -0.0216001626 9.37178584E-08 -0.0291883461
v -0.0109760407 1.19559607E-08 -0.0430374108
v -0.0144001078 9.37178726E-08 -0.0291883536
v -0.00365868397 1.19559607E-08 -0.0430374108
v -0.00720005622 9.37178513E-08 -0.0291883387
v -0.00365868397 1.19559607E-08 -0.0430374108
v -0.0144001078 9.37178726E-08 -0.0291883536
v -0.00731736049 1.19559651E-08 -0.0430374257
v -0.00720005622 9.37178513E-08 -0.0291883387
v -3.81469745E-09 1.19559607E-08 -0.0430374108
v -3.81469745E-09 9.37178584E-08 -0.0291883424
v -3.81469745E-09 1.19559607E-08 -0.0430374108
v -0.00720005622 9.37178513E-08 -0.0291883387
v -0.00365868397 1.19559607E-08 -0.0430374108
v -3.81469745E-09 9.37178584E-08 -0.0291883424
v 0.00365867442 1.19559607E-08 -0.0430374108
v 0.00720004877 9.37178513E-08 -0.0291883424
v 0.00365867442 1.19559607E-08 -0.0430374108
v -3.81469745E-09 9.37178584E-08 -0.0291883424
v -3.81469745E-09 1.19559607E-08 -0.0430374108
v 0.00720004877 9.37178513E-08 -0.0291883424
v 0.00731735816 1.19559607E-08 -0.0430374108
v 0.0144001069 9.37178584E-08 -0.0291883498
v 0.00731735816 1.19559607E-08 -0.0430374108
v 0.00720004877 9.37178513E-08 -0.0291883424
v 0.00365867442 1.19559607E-08 -0.0430374108
v 0.0144001069 9.37178584E-08 -0.0291883498
v 0.0109760351 1.19559607E-08 -0.0430374108
v 0.021600157 9.37178584E-08 -0.0291883461
v 0.0109760351 1.19559607E-08 -0.0430374108
v 0.0144001069 9.37178584E-08 -0.0291883498
v 0.00731735816 1.19559607E-08 -0.0430374108
vt 0.918653131 0.931763947
vt 0.918653131 0.931250095
vt 0.918653131 0.931763947
vt 0.878128707 0.299612612
vt 0.878128707 0.299612612
vt 0.877598166 0.299612612
vt 0.792744875 0.481078655
vt 0.792828441 0.481078655
vt 0.792908192 0.481078655
vt 0.817342043 0.697556615
vt 0.817342043 0.697556615
vt 0.816849828 0.697556615
vt 0.843762159 0.932359934
vt 0.844159663 0.932174683
vt 0.844159663 0.932359934
vt 0.792908192 0.574195445
vt 0.792908192 0.574195445
vt 0.792908192 0.574195445
vt 0.856395364 0.592669845
vt 0.856674612 0.59211272
vt 0.856674612 0.592669845
vt 0.79529196 0.821088076
vt 0.79529196 0.821513653
vt 0.79529196 0.821088076
vt 0.562262893 0.107233308
vt 0.562276483 0.107182905
vt 0.562276483 0.107233308
vt 0.380661488 0.417610228
vt 0.380661488 0.417610228
vt 0.380661488 0.417610228
vt 0.117215432 0.0952398628
vt 0.117215432 0.0952398628
vt 0.117215432 0.0952398628
vt 0.104626037 0.0571178459
vt 0.104601368 0.0571178459
vt 0.104626037 0.0571178459
vt 0.737194657 0.93116802
vt 0.737485051 0.930762172
vt 0.737485051 0.93116802
vt 0.695768714 0.522943974
vt 0.695768714 0.522943974
vt 0.695549488 0.522943974
vt 0.878742814 0.452473164
vt 0.879320562 0.452436209
vt 0.879320562 0.452473164
vt 0.828069091 0.393772334
vt 0.828069091 0.393772334
vt 0.828069091 0.393772334
vt 0.708415985 0.710071504
vt 0.70887959 0.709914327
vt 0.70887959 0.710071504
vt 0.568235993 0.893623352
vt 0.568235993 0.893623352
vt 0.568235993 0.893623352
vt 0.639971972 0.929976106
vt 0.640345633 0.92969358
vt 0.640345633 0.929976106
vt 0.662991643 0.651668608
vt 0.662991643 0.651668608
vt 0.662991643 0.651668608
vt 0.807806969 0.0962827727
vt 0.808402836 0.0962641388
vt 0.808402836 0.0962827727
vt 0.53188318 0.0655169785
vt 0.53188318 0.0655169785
vt 0.53188318 0.0655169785
vt 0.126516208 0.283820003
vt 0.126564354 0.283577263
vt 0.126564354 0.283820003
vt 0.0889079198 0.242625147
vt 0.0889079198 0.242625147
vt 0.0889079198 0.242625147
vt 0.54748714 0.789928436
vt 0.547973752 0.789459944
vt 0.547973752 0.789928436
vt 0.502681732 0.729141831
vt 0.502681732 0.729141831
vt 0.502681732 0.729141831
vt 0.715591431 0.42952919
vt 0.716030955 0.429457128
vt 0.716030955 0.42952919
vt 0.694576859 0.0682732388
vt 0.694576859 0.0682732388
vt 0.694576859 0.0682732388
vt 0.459244192 0.929380178
vt 0.459326565 0.929042935
vt 0.459326565 0.929380178
vt 0.665971339 0.202547669
vt 0.665971339 0.202547669
vt 0.665971339 0.202547669
vt 0.713155508 0.262961835
vt 0.713647187 0.262663901
vt 0.713647187 0.262961835
vt 0.674910605 0.363676995
vt 0.674910605 0.363676995
vt 0.674910605 0.363676995
vt 0.413791299 0.649880767
vt 0.414034545 0.649284899
vt 0.414034545 0.649880767
vt 0.522347987 0.551549435
vt 0.522347987 0.551549435
vt 0.522347987 0.551549435
vt 0.275525719 0.70887959
vt 0.275774717 0.708290815
vt 0.275774717 0.70887959
vt 0.380363524 0.583730578
vt 0.380363524 0.583730578
vt 0.380363524 0.583730578
vt 0.421060979 0.121834025
vt 0.421185911 0.121834025
vt 0.421185911 0.121834025
vt 0.247839689 0.231451124
vt 0.247714072 0.231451124
vt 0.247767031 0.231451124
vt 0.406854868 0.482270539
vt 0.40688318 0.482049644
vt 0.40688318 0.482270539
vt 0.21893622 0.667163253
vt 0.21893622 0.667163253
vt 0.21893622 0.667163253
vt 0.39258045 0.815554202
vt 0.39258045 0.815415859
vt 0.39258045 0.815554202
vt 0.351460069 0.752979696
vt 0.35124445 0.752979696
vt 0.351277828 0.752979696
vt 0.560902297 0.627830744
vt 0.561084569 0.627515912
vt 0.561084569 0.627830744
vt 0.515792608 0.387812853
vt 0.515792608 0.387812853
vt 0.515792608 0.387812853
vt 0.562666893 0.450685322
vt 0.56287241 0.450424612
vt 0.56287241 0.450685322
vt 0.530691266 0.199865907
vt 0.530691266 0.199865907
vt 0.530691266 0.199865907
vt 0.564405322 0.284117997
vt 0.564660251 0.284000307
vt 0.564660251 0.284117997
vt 0.211933836 0.812574446
vt 0.211933836 0.812574446
vt 0.211933836 0.812574446
vt 0.278158545 0.120493144
vt 0.278456479 0.120484799
vt 0.278456479 0.120493144
vt 0.386918932 0.0722958818
vt 0.386722624 0.0722958818
vt 0.386918932 0.0722958818
vt 0.420651734 0.314809293
vt 0.420887947 0.31463927
vt 0.420887947 0.314809293
vt 0.402413577 0.244710952
vt 0.4023332 0.244710952
vt 0.402413577 0.244710952
vt 0.267395794 0.56287241
vt 0.267431438 0.562367678
vt 0.267431438 0.56287241
vt 0.26176995 0.46558401
vt 0.261662722 0.46558401
vt 0.261692196 0.46558401
vt 0.839212179 0.197631106
vt 0.839392126 0.197631106
vt 0.839392126 0.197631106
vt 0.147422522 0.573192835
vt 0.147422522 0.573599517
vt 0.147422522 0.573192835
vt 0.0890131742 0.697556615
vt 0.0890569091 0.697424054
vt 0.0890569091 0.697556615
vt 0.0706570297 0.552145362
vt 0.0706570297 0.552145362
vt 0.0706570297 0.552145362
vt 0.294845045 0.923420727
vt 0.294845045 0.922945619
vt 0.294845045 0.923420727
vt 0.939511299 0.251042902
vt 0.939511299 0.251042902
vt 0.939322472 0.251042902
vt 0.135869548 0.140867099
vt 0.135950536 0.140783563
vt 0.135950536 0.140867099
vt 0.256108433 0.0743072107
vt 0.255945653 0.0743072107
vt 0.256108433 0.0743072107
vt 0.295616925 0.346692473
vt 0.295738965 0.346394539
vt 0.295738965 0.346692473
vt 0.295440972 0.273986876
vt 0.295172185 0.273986876
vt 0.295440972 0.273986876
vt 0.175400227 0.444427878
vt 0.175432056 0.444427878
vt 0.175432056 0.444427878
vt 0.156212747 0.377085805
vt 0.15617159 0.377085805
vt 0.156212747 0.377085805
vt 0.0759766176 0.918057203
vt 0.0760205537 0.917788625
vt 0.0760205537 0.918057203
vt 0.101869784 0.38840881
vt 0.101869784 0.38840881
vt 0.101869784 0.38840881
vt 0.916269362 0.138334319
vt 0.916269362 0.138236433
vt 0.916269362 0.138334319
vt 0.0514935926 0.38840881
vt 0.0514935926 0.38840881
vt 0.0514563471 0.38840881
vt 0.15725565 0.921632886
vt 0.157243192 0.921407223
vt 0.15725565 0.921632886
vt 0.935935616 0.070806019
vt 0.935935616 0.070806019
vt 0.935339749 0.070806019
vn -0 1 1.99302867E-05
vn -0 1 1.99302867E-05
vn -0 1 1.99302885E-05
vn -0 1 1.99302867E-05
vn -0 1 1.99302867E-05
vn -0 1 1.99302867E-05
vn -0 1 1.99302958E-05
vn -0 1 1.99302958E-05
vn -0 1 1.99302958E-05
vn -0 1 1.9930294E-05
vn -0 1 1.99302958E-05
vn -0 1 1.99302958E-05
vn -0 1 1.99302885E-05
vn -0 1 1.99302885E-05
vn -0 1 1.99302885E-05
vn -0 1 1.99302922E-05
vn -0 1 1.99302922E-05
vn -0 1 1.99302922E-05
vn -0 1 1.99302922E-05
vn -0 1 1.99302922E-05
vn -0 1 1.99302922E-05
vn -0 1 1.99302885E-05
vn -0 1 1.99302867E-05
vn -0 1 1.99302867E-05
vn -0 1 1.99302867E-05
vn -0 1 1.99302867E-05
vn -0 1 1.99302867E-05
vn -0 1 1.9930294E-05
vn -0 1 1.9930294E-05
vn -0 1 1.99302922E-05
vn -0 1 1.99302922E-05
vn -0 1 1.99302922E-05
vn -0 1 1.99302922E-05
vn -0 1 1.99302885E-05
vn -0 1 1.99302885E-05
vn -0 1 1.99302885E-05
vn -0 1 1.16415758E-05
vn -0 1 1.16415758E-05
vn -0 1 1.16415758E-05
vn -0 1 1.16415758E-05
vn -0 1 1.16415758E-05
vn -0 1 1.16415758E-05
vn -0 1 1.16415786E-05
vn -0 1 1.16415777E-05
vn -0 1 1.16415786E-05
vn -0 1 1.16415777E-05
vn -0 1 1.16415767E-05
vn -0 1 1.16415777E-05
vn -0 1 1.16415795E-05
vn -0 1 1.16415795E-05
vn -0 1 1.16415795E-05
vn -0 1 1.16415777E-05
vn -0 1 1.16415777E-05
vn -0 1 1.16415777E-05
vn -0 1 1.16415713E-05
vn -0 1 1.16415713E-05
vn -0 1 1.16415713E-05
vn -0 1 1.16415786E-05
vn -0 1 1.16415786E-05
vn -0 1 1.16415795E-05
vn -0 1 1.16415804E-05
vn -0 1 1.16415795E-05
vn -0 1 1.16415795E-05
vn -0 1 1.1641574E-05
vn -0 1 1.1641574E-05
vn -0 1 1.1641574E-05
vn -0 1 1.16415767E-05
vn -0 1 1.16415786E-05
vn -0 1 1.16415777E-05
vn -0 1 1.16415758E-05
vn -0 1 1.16415758E-05
vn -0 1 1.16415767E-05
vn -0 1 5.24172901E-06
vn -0 1 5.24172856E-06
vn -0 1 5.24172947E-06
vn -0 1 5.24173083E-06
vn -0 1 5.24173083E-06
vn -0 1 5.24173083E-06
vn -0 1 5.24173174E-06
vn -0 1 5.24173174E-06
vn -0 1 5.24173174E-06
vn -0 1 5.24172901E-06
vn -0 1 5.24172901E-06
vn -0 1 5.24172901E-06
vn -0 1 5.24172947E-06
vn -0 1 5.24172947E-06
vn -0 1 5.24172901E-06
vn -0 1 5.24173174E-06
vn -0 1 5.2417322E-06
vn -0 1 5.24173174E-06
vn -0 1 5.24173038E-06
vn -0 1 5.24173038E-06
vn -0 1 5.24173038E-06
vn -0 1 5.24172947E-06
vn -0 1 5.24172947E-06
vn -0 1 5.24172901E-06
vn -0 1 5.2417281E-06
vn -0 1 5.24172856E-06
vn -0 1 5.24172856E-06
vn -0 1 5.24173038E-06
vn -0 1 5.24173038E-06
vn -0 1 5.24173083E-06
vn -0 1 5.24173083E-06
vn -0 1 5.24173083E-06
vn -0 1 5.24173083E-06
vn -0 1 5.2417281E-06
vn -0 1 5.2417281E-06
vn -0 1 5.24172765E-06
vn -0 1 3.54665644E-07
vn -0 1 3.54665644E-07
vn -0 1 3.54665673E-07
vn -0 1 3.54666867E-07
vn -0 1 3.54666838E-07
vn -0 1 3.54666867E-07
vn -0 1 3.54668316E-07
vn -0 1 3.54668316E-07
vn -0 1 3.54668316E-07
vn -0 1 3.54666241E-07
vn -0 1 3.54666241E-07
vn -0 1 3.54666241E-07
vn -0 1 3.54668259E-07
vn -0 1 3.54668231E-07
vn -0 1 3.54668259E-07
vn -0 1 3.5466806E-07
vn -0 1 3.5466806E-07
vn -0 1 3.5466806E-07
vn -0 1 3.54667122E-07
vn -0 1 3.54667122E-07
vn -0 1 3.54667122E-07
vn -0 1 3.54668288E-07
vn -0 1 3.54668288E-07
vn -0 1 3.54668316E-07
vn -0 1 3.54668231E-07
vn -0 1 3.54668231E-07
vn -0 1 3.54668231E-07
vn -0 1 3.54667236E-07
vn -0 1 3.54667264E-07
vn -0 1 3.54667236E-07
vn -0 1 3.54667435E-07
vn -0 1 3.54667492E-07
vn -0 1 3.54667492E-07
vn -0 1 3.54668288E-07
vn -0 1 3.54668288E-07
vn -0 1 3.54668316E-07
vn -0 1 -3.29295244E-06
vn -0 1 -3.29295267E-06
vn -0 1 -3.29295267E-06
vn -0 1 -3.29295403E-06
vn -0 1 -3.29295403E-06
vn -0 1 -3.29295403E-06
vn -0 1 -3.2929529E-06
vn -0 1 -3.2929529E-06
vn -0 1 -3.29295267E-06
vn -0 1 -3.29294721E-06
vn -0 1 -3.29294721E-06
vn -0 1 -3.29294721E-06
vn -0 1 -3.29295176E-06
vn -0 1 -3.29295153E-06
vn -0 1 -3.29295153E-06
vn -0 1 -3.29295403E-06
vn -0 1 -3.29295381E-06
vn -0 1 -3.29295358E-06
vn -0 1 -3.29295153E-06
vn -0 1 -3.29295153E-06
vn -0 1 -3.29295153E-06
vn -0 1 -3.29295199E-06
vn -0 1 -3.29295176E-06
vn -0 1 -3.29295176E-06
vn -0 1 -3.29294971E-06
vn -0 1 -3.29294971E-06
vn -0 1 -3.29294949E-06
vn -0 1 -3.29295062E-06
vn -0 1 -3.29295062E-06
vn -0 1 -3.29295085E-06
vn -0 1 -3.29295199E-06
vn -0 1 -3.29295199E-06
vn -0 1 -3.29295199E-06
vn -0 1 -3.29295176E-06
vn -0 1 -3.29295176E-06
vn -0 1 -3.29295176E-06
vn -0 1 -5.90378795E-06
vn -0 1 -5.90378795E-06
vn -0 1 -5.90378795E-06
vn -0 1 -5.90380569E-06
vn -0 1 -5.90380614E-06
vn -0 1 -5.90380569E-06
vn -0 1 -5.90377795E-06
vn -0 1 -5.9037784E-06
vn -0 1 -5.90377795E-06
vn -0 1 -5.90377067E-06
vn -0 1 -5.90377022E-06
vn -0 1 -5.90377067E-06
vn -0 1 -5.90378386E-06
vn -0 1 -5.90378477E-06
vn -0 1 -5.90378386E-06
vn -0 1 -5.90378249E-06
vn -0 1 -5.90378295E-06
vn -0 1 -5.90378295E-06
vn -0 1 -5.90378386E-06
vn -0 1 -5.90378386E-06
vn -0 1 -5.90378386E-06
vn -0 1 -5.9037834E-06
vn -0 1 -5.90378295E-06
vn -0 1 -5.9037834E-06
vn -0 1 -5.90378477E-06
vn -0 1 -5.90378386E-06
vn -0 1 -5.90378477E-06
vn -0 1 -5.90378431E-06
vn -0 1 -5.90378386E-06
vn -0 1 -5.90378386E-06
vn -0 1 -5.90378886E-06
vn -0 1 -5.90378841E-06
vn -0 1 -5.90378886E-06
vn -0 1 -5.90378704E-06
vn -0 1 -5.9037875E-06
vn -0 1 -5.90378795E-06
g tknogi01_0
f 3/3/3 2/2/2 1/1/1
f 6/6/6 5/5/5 4/4/4
f 9/9/9 8/8/8 7/7/7
f 12/12/12 11/11/11 10/10/10
f 15/15/15 14/14/14 13/13/13
f 18/18/18 17/17/17 16/16/16
f 21/21/21 20/20/20 19/19/19
f 24/24/24 23/23/23 22/22/22
f 27/27/27 26/26/26 25/25/25
f 30/30/30 29/29/29 28/28/28
f 33/33/33 32/32/32 31/31/31
f 36/36/36 35/35/35 34/34/34
f 39/39/39 38/38/38 37/37/37
f 42/42/42 41/41/41 40/40/40
f 45/45/45 44/44/44 43/43/43
f 48/48/48 47/47/47 46/46/46
f 51/51/51 50/50/50 49/49/49
f 54/54/54 53/53/53 52/52/52
f 57/57/57 56/56/56 55/55/55
f 60/60/60 59/59/59 58/58/58
f 63/63/63 62/62/62 61/61/61
f 66/66/66 65/65/65 64/64/64
f 69/69/69 68/68/68 67/67/67
f 72/72/72 71/71/71 70/70/70
f 75/75/75 74/74/74 73/73/73
f 78/78/78 77/77/77 76/76/76
f 81/81/81 80/80/80 79/79/79
f 84/84/84 83/83/83 82/82/82
f 87/87/87 86/86/86 85/85/85
f 90/90/90 89/89/89 88/88/88
f 93/93/93 92/92/92 91/91/91
f 96/96/96 95/95/95 94/94/94
f 99/99/99 98/98/98 97/97/97
f 102/102/102 101/101/101 100/100/100
f 105/105/105 104/104/104 103/103/103
f 108/108/108 107/107/107 106/106/106
f 111/111/111 110/110/110 109/109/109
f 114/114/114 113/113/113 112/112/112
f 117/117/117 116/116/116 115/115/115
f 120/120/120 119/119/119 118/118/118
f 123/123/123 122/122/122 121/121/121
f 126/126/126 125/125/125 124/124/124
f 129/129/129 128/128/128 127/127/127
f 132/132/132 131/131/131 130/130/130
f 135/135/135 134/134/134 133/133/133
f 138/138/138 137/137/137 136/136/136
f 141/141/141 140/140/140 139/139/139
f 144/144/144 143/143/143 142/142/142
f 147/147/147 146/146/146 145/145/145
f 150/150/150 149/149/149 148/148/148
f 153/153/153 152/152/152 151/151/151
f 156/156/156 155/155/155 154/154/154
f 159/159/159 158/158/158 157/157/157
f 162/162/162 161/161/161 160/160/160
f 165/165/165 164/164/164 163/163/163
f 168/168/168 167/167/167 166/166/166
f 171/171/171 170/170/170 169/169/169
f 174/174/174 173/173/173 172/172/172
f 177/177/177 176/176/176 175/175/175
f 180/180/180 179/179/179 178/178/178
f 183/183/183 182/182/182 181/181/181
f 186/186/186 185/185/185 184/184/184
f 189/189/189 188/188/188 187/187/187
f 192/192/192 191/191/191 190/190/190
f 195/195/195 194/194/194 193/193/193
f 198/198/198 197/197/197 196/196/196
f 201/201/201 200/200/200 199/199/199
f 204/204/204 203/203/203 202/202/202
f 207/207/207 206/206/206 205/205/205
f 210/210/210 209/209/209 208/208/208
f 213/213/213 212/212/212 211/211/211
f 216/216/216 215/215/215 214/214/214
