g general_shizi_04
v -1.47926199 -0.375029922 0
v -1.47926199 0.375029922 0
v 1.47926199 0.375029922 0
v 1.47926199 -0.375029922 0
v -0.423147172 0.909915149 -1.77635684E-15
v 0.423147351 0.909915209 -1.77635684E-15
v 0.423147023 -0.909915149 -1.77635684E-15
v -0.423147351 -0.909915209 -1.77635684E-15
vt 0 0
vt 0 1
vt 1 1
vt 1 0
vt 0 0
vt 0 1
vt 1 1
vt 1 0
vn -0 0 1
vn -0 0 1
vn -0 0 1
vn -0 0 1
vn -0 0 1
vn -0 0 1
vn -0 0 1
vn -0 0 1
g general_shizi_04_0
f 3/3/3 2/2/2 1/1/1
f 4/4/4 3/3/3 1/1/1
f 7/7/7 6/6/6 5/5/5
f 8/8/8 7/7/7 5/5/5
