g Plane.054
v 0.0447083227 0.0441167876 0.019312501
v 0.197142228 0.0640208274 0.019312501
v 0.18063803 0.0447083227 0.019312501
v 0.0640208274 0.0637250543 0.019312501
v 0.0447083227 0.181293681 0.019312501
v 0.197142228 -0.0640208274 0.019312501
v 0.18063803 -0.0447083227 0.019312501
v 0.0640208274 0.197857767 0.019312501
v -0.0447083227 0.181293681 0.019312501
v 0.0638855547 -0.0640208274 0.019312501
v 0.0444377735 -0.0447083227 0.019312501
v -0.0640208274 0.197857767 0.019312501
v -0.0447083227 0.045020923 0.019312501
v 0.0640208274 -0.197857767 0.019312501
v 0.0447083227 -0.181293681 0.019312501
v -0.0640208274 0.0641771257 0.019312501
v -0.18063803 0.0447083227 0.019312501
v -0.0640208274 -0.197857767 0.019312501
v -0.0447083227 -0.181293681 0.019312501
v -0.197142228 0.0640208274 0.019312501
v -0.18063803 -0.0447083227 0.019312501
v -0.0640208274 -0.0640728027 0.019312501
v -0.0447083227 -0.0448122695 0.019312501
v -0.197142228 -0.0640208274 0.019312501
v 0.0833333284 -0.214421853 0.019312501
v 0.0833333284 -0.0833333284 0.019312501
v -0.0833333284 -0.214421853 0.019312501
v -0.0833333284 -0.0833333284 0.019312501
v 0.213646412 -0.0833333284 0.019312501
v -0.213646412 -0.0833333284 0.019312501
v -0.213646412 0.0833333284 0.019312501
v 0.213646412 0.0833333284 0.019312501
v -0.0833333284 0.0833333284 0.019312501
v 0.0833333284 0.0833333284 0.019312501
v -0.0833333284 0.214421853 0.019312501
v 0.0833333284 0.214421853 0.019312501
vt 0.666666627 0.666666687
vt 1 0.666666687
vt 1 0.666666687
vt 0.666666627 0.666666687
vt 0.666666627 1
vt 1 0.333333343
vt 1 0.333333343
vt 0.666666627 1
vt 0.333333313 1
vt 0.666666627 0.333333343
vt 0.666666627 0.333333343
vt 0.333333313 1
vt 0.333333313 0.666666687
vt 0.666666687 0
vt 0.666666687 0
vt 0.333333313 0.666666687
vt 0 0.666666627
vt 0.333333343 0
vt 0.333333343 0
vt 0 0.666666627
vt 0 0.333333313
vt 0.333333313 0.333333343
vt 0.333333313 0.333333343
vt 0 0.333333313
vt 0.666666687 0
vt 0.666666627 0.333333343
vt 0.333333343 0
vt 0.333333313 0.333333343
vt 1 0.333333343
vt 0 0.333333313
vt 0 0.666666627
vt 1 0.666666687
vt 0.333333313 0.666666687
vt 0.666666627 0.666666687
vt 0.333333313 1
vt 0.666666627 1
vn -0 0 1
vn -0 0 1
vn -0 0 1
vn -0 0 1
vn -0 0 1
vn -0 0 1
vn -0 0 1
vn -0 0 1
vn -0 0 1
vn -0 0 1
vn -0 0 1
vn -0 0 1
vn -0 0 1
vn -0 0 1
vn -0 0 1
vn -0 0 1
vn -0 0 1
vn -0 0 1
vn -0 0 1
vn -0 0 1
vn -0 0 1
vn -0 0 1
vn -0 0 1
vn -0 0 1
vn -0 0 1
vn -0 0 1
vn -0 0 1
vn -0 0 1
vn -0 0 1
vn -0 0 1
vn -0 0 1
vn -0 0 1
vn -0 0 1
vn -0 0 1
vn -0 0 1
vn -0 0 1
g Plane.054_0
f 3/3/3 2/2/2 1/1/1
f 2/2/2 4/4/4 1/1/1
f 1/1/1 4/4/4 5/5/5
f 6/6/6 2/2/2 3/3/3
f 7/7/7 6/6/6 3/3/3
f 4/4/4 8/8/8 5/5/5
f 5/5/5 8/8/8 9/9/9
f 10/10/10 6/6/6 7/7/7
f 11/11/11 10/10/10 7/7/7
f 8/8/8 12/12/12 9/9/9
f 9/9/9 12/12/12 13/13/13
f 14/14/14 10/10/10 11/11/11
f 15/15/15 14/14/14 11/11/11
f 12/12/12 16/16/16 13/13/13
f 13/13/13 16/16/16 17/17/17
f 18/18/18 14/14/14 15/15/15
f 19/19/19 18/18/18 15/15/15
f 16/16/16 20/20/20 17/17/17
f 17/17/17 20/20/20 21/21/21
f 22/22/22 18/18/18 19/19/19
f 23/23/23 22/22/22 19/19/19
f 21/21/21 24/24/24 23/23/23
f 20/20/20 24/24/24 21/21/21
f 24/24/24 22/22/22 23/23/23
f 14/14/14 25/25/25 10/10/10
f 25/25/25 26/26/26 10/10/10
f 27/27/27 25/25/25 14/14/14
f 18/18/18 27/27/27 14/14/14
f 10/10/10 26/26/26 6/6/6
f 28/28/28 27/27/27 18/18/18
f 22/22/22 28/28/28 18/18/18
f 26/26/26 29/29/29 6/6/6
f 30/30/30 28/28/28 22/22/22
f 24/24/24 30/30/30 22/22/22
f 6/6/6 29/29/29 2/2/2
f 31/31/31 30/30/30 24/24/24
f 20/20/20 31/31/31 24/24/24
f 29/29/29 32/32/32 2/2/2
f 33/33/33 31/31/31 20/20/20
f 2/2/2 32/32/32 4/4/4
f 16/16/16 33/33/33 20/20/20
f 32/32/32 34/34/34 4/4/4
f 35/35/35 33/33/33 16/16/16
f 4/4/4 34/34/34 8/8/8
f 12/12/12 35/35/35 16/16/16
f 34/34/34 36/36/36 8/8/8
f 36/36/36 35/35/35 12/12/12
f 8/8/8 36/36/36 12/12/12
