g Plane036
v -0.272308558 0.353018582 0
v -0.250447303 0.286945254 0
v -0.223560289 0.294646025 0
v -0.239947945 0.362285137 0
v -0.194675416 0.300757229 0
v -0.207534134 0.36915499 0
v -0.164120704 0.306144029 0
v -0.175825402 0.374748707 0
v -0.132502958 0.311727434 0
v -0.145391226 0.380119681 0
v -0.100367226 0.318568647 0
v -0.116863117 0.386181444 0
v -0.0682272315 0.327889234 0
v -0.0909036547 0.393687248 0
v -0.0366889425 0.341094047 0
v -0.068083249 0.403206825 0
v -0.0066919364 0.359681666 0
v -0.0486387946 0.415216029 0
v 0.0202995352 0.384874254 0
v -0.0322822332 0.430467755 0
v 0.0426057316 0.417157441 0
v -0.0185102075 0.450450838 0
v 0.0590861216 0.456481487 0
v -0.00730352709 0.477362663 0
v 0.0716793463 0.497345805 0
v 0.00515617756 0.51779753 0
v 0.0818635076 0.528970361 0
v 0.0161681026 0.551942408 0
v 0.0907463953 0.551055074 0
v 0.0281540956 0.581482232 0
v 0.0984610468 0.563718021 0
v 0.0445110425 0.607683957 0
v 0.105434552 0.570002496 0
v 0.0683416575 0.628889799 0
v 0.116609067 0.574633718 0
v 0.0982337296 0.641760051 0
v 0.137638107 0.577959299 0
v 0.132063553 0.647331595 0
v 0.170318097 0.578692257 0
v 0.17156443 0.648277104 0
v 0.213823959 0.576770425 0
v 0.218064979 0.646237016 0
vt 0 0
vt 0 1
vt 0.0500000007 1
vt 0.0500000007 0
vt 0.100000001 1
vt 0.100000001 0
vt 0.150000006 1
vt 0.150000006 0
vt 0.200000003 1
vt 0.200000003 0
vt 0.25 1
vt 0.25 0
vt 0.300000012 1
vt 0.300000012 0
vt 0.350000024 1
vt 0.350000024 0
vt 0.400000036 1
vt 0.400000036 0
vt 0.450000048 1
vt 0.450000048 0
vt 0.50000006 1
vt 0.50000006 0
vt 0.550000072 1
vt 0.550000072 0
vt 0.600000083 1
vt 0.600000083 0
vt 0.650000095 1
vt 0.650000095 0
vt 0.700000107 1
vt 0.700000107 0
vt 0.750000119 1
vt 0.750000119 0
vt 0.800000131 1
vt 0.800000131 0
vt 0.850000143 1
vt 0.850000143 0
vt 0.900000155 1
vt 0.900000155 0
vt 0.950000167 1
vt 0.950000167 0
vt 1.00000012 1
vt 1.00000012 0
vn -0 0 -1
vn -0 0 -1
vn -0 0 -1
vn -0 0 -1
vn -0 0 -1
vn -0 0 -1
vn -0 0 -1
vn -0 0 -1
vn -0 0 -1
vn -0 0 -1
vn -0 0 -1
vn -0 0 -1
vn -0 0 -1
vn -0 0 -1
vn -0 0 -1
vn -0 0 -1
vn -0 0 -1
vn -0 0 -1
vn -0 0 -1
vn -0 0 -1
vn -0 0 -1
vn -0 0 -1
vn -0 0 -1
vn -0 0 -1
vn -0 0 -1
vn -0 0 -1
vn -0 0 -1
vn -0 0 -1
vn -0 0 -1
vn -0 0 -1
vn -0 0 -1
vn -0 0 -1
vn -0 0 -1
vn -0 0 -1
vn -0 0 -1
vn -0 0 -1
vn -0 0 -1
vn -0 0 -1
vn -0 0 -1
vn -0 0 -1
vn -0 0 -1
vn -0 0 -1
g Plane036_0
f 3/3/3 2/2/2 1/1/1
f 4/4/4 3/3/3 1/1/1
f 5/5/5 3/3/3 4/4/4
f 6/6/6 5/5/5 4/4/4
f 7/7/7 5/5/5 6/6/6
f 8/8/8 7/7/7 6/6/6
f 9/9/9 7/7/7 8/8/8
f 10/10/10 9/9/9 8/8/8
f 11/11/11 9/9/9 10/10/10
f 12/12/12 11/11/11 10/10/10
f 13/13/13 11/11/11 12/12/12
f 14/14/14 13/13/13 12/12/12
f 15/15/15 13/13/13 14/14/14
f 16/16/16 15/15/15 14/14/14
f 17/17/17 15/15/15 16/16/16
f 18/18/18 17/17/17 16/16/16
f 19/19/19 17/17/17 18/18/18
f 20/20/20 19/19/19 18/18/18
f 21/21/21 19/19/19 20/20/20
f 22/22/22 21/21/21 20/20/20
f 23/23/23 21/21/21 22/22/22
f 24/24/24 23/23/23 22/22/22
f 25/25/25 23/23/23 24/24/24
f 26/26/26 25/25/25 24/24/24
f 27/27/27 25/25/25 26/26/26
f 28/28/28 27/27/27 26/26/26
f 29/29/29 27/27/27 28/28/28
f 30/30/30 29/29/29 28/28/28
f 31/31/31 29/29/29 30/30/30
f 32/32/32 31/31/31 30/30/30
f 33/33/33 31/31/31 32/32/32
f 34/34/34 33/33/33 32/32/32
f 35/35/35 33/33/33 34/34/34
f 36/36/36 35/35/35 34/34/34
f 37/37/37 35/35/35 36/36/36
f 38/38/38 37/37/37 36/36/36
f 39/39/39 37/37/37 38/38/38
f 40/40/40 39/39/39 38/38/38
f 41/41/41 39/39/39 40/40/40
f 42/42/42 41/41/41 40/40/40
