g Plane007
v -0.07390479 0.21062994 0
v -0.0697196797 0.180299565 0
v -0.158814728 0.194870874 0
v -0.155678183 0.171981826 0
v -0.0677041039 0.150496244 0
v -0.153981581 0.146722183 0
v -0.0668269247 0.121490054 0
v -0.15316695 0.119633645 0
v -0.0662035868 0.093614839 0
v -0.152529642 0.0911939517 0
v -0.0650653318 0.06729839 0
v -0.151249275 0.0617868789 0
v -0.062768586 0.0430544689 0
v -0.14838025 0.0317102596 0
v -0.0588404238 0.0214262474 0
v -0.142806277 0.00123262824 0
v -0.0530184321 0.00282751629 0
v -0.133200705 -0.0292482153 0
v -0.0451449528 -0.0127501423 0
v -0.11813195 -0.0589122958 0
v -0.0348252468 -0.0258489661 0
v -0.0964097157 -0.0863915309 0
v -0.0224310197 -0.0357218012 0
v -0.0683871284 -0.108838707 0
v -0.0062040058 -0.0438236333 0
v -0.0382300057 -0.124025762 0
v 0.0142039293 -0.0504098833 0
v -0.00775163434 -0.133932322 0
v 0.0382146724 -0.0557097271 0
v 0.0221611708 -0.140564486 0
v 0.0649524331 -0.0603341311 0
v 0.050919082 -0.145546302 0
v 0.093599081 -0.0652398169 0
v 0.0778750926 -0.150156289 0
v 0.123486646 -0.071676366 0
v 0.102232322 -0.155380026 0
v 0.154020056 -0.0812267512 0
v 0.123120703 -0.161869645 0
v 0.184357211 -0.0958515629 0
v 0.139917284 -0.169899747 0
v 0.212807551 -0.117552243 0
v 0.152847543 -0.179704055 0
vt 0 1
vt 0.0500000007 1
vt 0 0
vt 0.0500000007 0
vt 0.100000001 1
vt 0.100000001 0
vt 0.150000006 1
vt 0.150000006 0
vt 0.200000003 1
vt 0.200000003 0
vt 0.25 1
vt 0.25 0
vt 0.300000012 1
vt 0.300000012 0
vt 0.350000024 1
vt 0.350000024 0
vt 0.400000036 1
vt 0.400000036 0
vt 0.450000048 1
vt 0.450000048 0
vt 0.50000006 1
vt 0.50000006 0
vt 0.550000072 1
vt 0.550000072 0
vt 0.600000083 1
vt 0.600000083 0
vt 0.650000095 1
vt 0.650000095 0
vt 0.700000107 1
vt 0.700000107 0
vt 0.750000119 1
vt 0.750000119 0
vt 0.800000131 1
vt 0.800000131 0
vt 0.850000143 1
vt 0.850000143 0
vt 0.900000155 1
vt 0.900000155 0
vt 0.950000167 1
vt 0.950000167 0
vt 1.00000012 1
vt 1.00000012 0
vn -0 0 1
vn -0 0 1
vn -0 0 1
vn -0 0 1
vn -0 0 1
vn -0 0 1
vn -0 0 1
vn -0 0 1
vn -0 0 1
vn -0 0 1
vn -0 0 1
vn -0 0 1
vn -0 0 1
vn -0 0 1
vn -0 0 1
vn -0 0 1
vn -0 0 1
vn -0 0 1
vn -0 0 1
vn -0 0 1
vn -0 0 1
vn -0 0 1
vn -0 0 1
vn -0 0 1
vn -0 0 1
vn -0 0 1
vn -0 0 1
vn -0 0 1
vn -0 0 1
vn -0 0 1
vn -0 0 1
vn -0 0 1
vn -0 0 1
vn -0 0 1
vn -0 0 1
vn -0 0 1
vn -0 0 1
vn -0 0 1
vn -0 0 1
vn -0 0 1
vn -0 0 1
vn -0 0 1
g Plane007_0
f 3/3/3 2/2/2 1/1/1
f 2/2/2 3/3/3 4/4/4
f 4/4/4 5/5/5 2/2/2
f 5/5/5 4/4/4 6/6/6
f 6/6/6 7/7/7 5/5/5
f 7/7/7 6/6/6 8/8/8
f 8/8/8 9/9/9 7/7/7
f 9/9/9 8/8/8 10/10/10
f 10/10/10 11/11/11 9/9/9
f 11/11/11 10/10/10 12/12/12
f 12/12/12 13/13/13 11/11/11
f 13/13/13 12/12/12 14/14/14
f 14/14/14 15/15/15 13/13/13
f 15/15/15 14/14/14 16/16/16
f 16/16/16 17/17/17 15/15/15
f 17/17/17 16/16/16 18/18/18
f 18/18/18 19/19/19 17/17/17
f 19/19/19 18/18/18 20/20/20
f 20/20/20 21/21/21 19/19/19
f 21/21/21 20/20/20 22/22/22
f 22/22/22 23/23/23 21/21/21
f 23/23/23 22/22/22 24/24/24
f 24/24/24 25/25/25 23/23/23
f 25/25/25 24/24/24 26/26/26
f 26/26/26 27/27/27 25/25/25
f 27/27/27 26/26/26 28/28/28
f 28/28/28 29/29/29 27/27/27
f 29/29/29 28/28/28 30/30/30
f 30/30/30 31/31/31 29/29/29
f 31/31/31 30/30/30 32/32/32
f 32/32/32 33/33/33 31/31/31
f 33/33/33 32/32/32 34/34/34
f 34/34/34 35/35/35 33/33/33
f 35/35/35 34/34/34 36/36/36
f 36/36/36 37/37/37 35/35/35
f 37/37/37 36/36/36 38/38/38
f 38/38/38 39/39/39 37/37/37
f 39/39/39 38/38/38 40/40/40
f 40/40/40 41/41/41 39/39/39
f 41/41/41 40/40/40 42/42/42
