g Plane001
v -0.584199965 0.63499999 0
v -0.63499999 0.584199965 0
v -0.63499999 0.63499999 0
v -0.584199965 0.584199965 0
v -0.63499999 0.380999982 0
v -0.380999982 0.63499999 0
v -0.584199965 0.380999982 0
v -0.63499999 0.127000004 0
v -0.584199965 0.127000004 0
v -0.63499999 -0.127000004 0
v -0.584199965 -0.127000004 0
v -0.63499999 -0.380999982 0
v -0.380999982 0.584199965 0
v -0.380999982 0.380999982 0
v -0.127000004 0.584199965 0
v -0.127000004 0.63499999 0
v 0.0711200014 0.584199965 0
v 0.0711200014 0.63499999 0
v 0.127000004 0.63499999 0
v 0.127000004 0.584199965 0
v -0.380999982 0.127000004 0
v -0.127000004 0.380999982 0
v 0.0711200014 0.436880022 0
v 0.127000004 0.436880022 0
v 0.127000004 0.380999982 0
v -0.380999982 -0.127000004 0
v 0.0152400034 0.380999982 0
v -0.127000004 0.127000004 0
v 0.0711200014 0.127000004 0
v 0.0711200014 0.380999982 0
v -0.127000004 -0.127000004 0
v -0.380999982 -0.380999982 0
v 0.0711200014 0.325120002 0
v 0.127000004 0.325120002 0
v 0.127000004 0.127000004 0
v 0.182879999 0.325120002 0
v 0.182879999 0.380999982 0
v 0.0711200014 -0.127000004 0
v 0.325120002 0.325119972 0
v 0.325120002 0.380999982 0
v 0.380999982 0.380999982 0
v 0.380999982 0.325119972 0
v 0.182879999 0.127000004 0
v 0.325120002 0.182879999 0
v 0.380999982 0.182879999 0
v 0.380999982 0.127000004 0
v -0.127000004 -0.380999982 0
v 0.127000004 -0.127000004 0
v 0.269239992 0.127000004 0
v 0.325120002 0.127000004 0
v 0.182879999 -0.127000004 0
v 0.325120002 -0.0711200014 0
v 0.325120002 0.0711200014 0
v 0.380999982 0.0711200014 0
v 0.436880022 0.0711200014 0
v 0.436880022 0.127000004 0
v 0.380999982 -0.0711200014 0
v 0.57911998 0.0711200014 0
v 0.57911998 0.127000004 0
v 0.436880022 -0.0711200014 0
v 0.63499999 0.0711200014 0
v 0.63499999 0.127000004 0
v 0.57911998 -0.0711200014 0
v 0.63499999 -0.0711200014 0
v 0.63499999 -0.127000004 0
v 0.57911998 -0.127000004 0
v 0.436880022 -0.127000004 0
v 0.380999982 -0.127000004 0
v 0.325120002 -0.127000004 0
v 0.380999982 -0.182879999 0
v 0.269239992 -0.127000004 0
v 0.325120002 -0.182879999 0
v 0.380999982 -0.325119972 0
v 0.325120002 -0.325119972 0
v 0.325120002 -0.380999982 0
v 0.380999982 -0.380999982 0
v 0.182879999 -0.380999982 0
v 0.182879999 -0.325120002 0
v 0.127000004 -0.325120002 0
v 0.127000004 -0.380999982 0
v 0.0711200014 -0.325120002 0
v 0.0711200014 -0.380999982 0
v 0.127000004 -0.436880022 0
v 0.0152400034 -0.380999982 0
v 0.0711200014 -0.436880022 0
v 0.127000004 -0.584199965 0
v 0.0711200014 -0.584199965 0
v 0.0711200014 -0.63499999 0
v 0.127000004 -0.63499999 0
v -0.127000004 -0.63499999 0
v -0.127000004 -0.584199965 0
v -0.380999982 -0.584199965 0
v -0.380999982 -0.63499999 0
v -0.584199965 -0.584199965 0
v -0.584199965 -0.63499999 0
v -0.63499999 -0.584199965 0
v -0.63499999 -0.63499999 0
v -0.584199965 -0.380999982 0
vt 0.0400000028 1
vt 0 0.959999979
vt 0 1
vt 0.0400000028 0.959999979
vt 0 0.800000012
vt 0.200000003 1
vt 0.0400000028 0.800000012
vt 0 0.600000024
vt 0.0400000028 0.600000024
vt 0 0.400000006
vt 0.0400000028 0.400000006
vt 0 0.200000003
vt 0.200000003 0.959999979
vt 0.200000003 0.800000012
vt 0.400000006 0.959999979
vt 0.400000006 1
vt 0.555999994 0.959999979
vt 0.555999994 1
vt 0.600000024 1
vt 0.600000024 0.959999979
vt 0.200000003 0.600000024
vt 0.400000006 0.800000012
vt 0.555999994 0.843999982
vt 0.600000024 0.843999982
vt 0.600000024 0.800000012
vt 0.200000003 0.400000006
vt 0.512000024 0.800000012
vt 0.400000006 0.600000024
vt 0.555999994 0.600000024
vt 0.555999994 0.800000012
vt 0.400000006 0.400000006
vt 0.200000003 0.200000003
vt 0.555999994 0.756000042
vt 0.600000024 0.756000042
vt 0.600000024 0.600000024
vt 0.644000053 0.756000042
vt 0.644000053 0.800000012
vt 0.555999994 0.400000006
vt 0.756000042 0.755999982
vt 0.756000042 0.800000012
vt 0.800000012 0.800000012
vt 0.800000012 0.755999982
vt 0.644000053 0.600000024
vt 0.756000042 0.643999994
vt 0.800000012 0.643999994
vt 0.800000012 0.600000024
vt 0.400000006 0.200000003
vt 0.600000024 0.400000006
vt 0.712000072 0.600000024
vt 0.756000042 0.600000024
vt 0.644000053 0.400000006
vt 0.756000042 0.444000006
vt 0.756000042 0.555999994
vt 0.800000012 0.555999994
vt 0.843999982 0.555999994
vt 0.843999982 0.600000024
vt 0.800000012 0.444000006
vt 0.95599997 0.555999994
vt 0.95599997 0.600000024
vt 0.843999982 0.444000006
vt 1 0.555999994
vt 1 0.600000024
vt 0.95599997 0.444000006
vt 1 0.444000006
vt 1 0.400000006
vt 0.95599997 0.400000006
vt 0.843999982 0.400000006
vt 0.800000012 0.400000006
vt 0.756000042 0.400000006
vt 0.800000012 0.356000006
vt 0.712000072 0.400000006
vt 0.756000042 0.356000006
vt 0.800000012 0.244000018
vt 0.756000042 0.244000018
vt 0.756000042 0.200000003
vt 0.800000012 0.200000003
vt 0.644000053 0.200000003
vt 0.644000053 0.244000003
vt 0.600000024 0.244000003
vt 0.600000024 0.200000003
vt 0.555999994 0.244000003
vt 0.555999994 0.200000003
vt 0.600000024 0.156000003
vt 0.512000024 0.200000003
vt 0.555999994 0.156000003
vt 0.600000024 0.0400000028
vt 0.555999994 0.0400000028
vt 0.555999994 0
vt 0.600000024 0
vt 0.400000006 0
vt 0.400000006 0.0400000028
vt 0.200000003 0.0400000028
vt 0.200000003 0
vt 0.0400000028 0.0400000028
vt 0.0400000028 0
vt 0 0.0400000028
vt 0 0
vt 0.0400000028 0.200000003
vn -0 0 1
vn -0 0 1
vn -0 0 1
vn -0 0 1
vn -0 0 1
vn -0 0 1
vn -0 0 1
vn -0 0 1
vn -0 0 1
vn -0 0 1
vn -0 0 1
vn -0 0 1
vn -0 0 1
vn -0 0 1
vn -0 0 1
vn -0 0 1
vn -0 0 1
vn -0 0 1
vn -0 0 1
vn -0 0 1
vn -0 0 1
vn -0 0 1
vn -0 0 1
vn -0 0 1
vn -0 0 1
vn -0 0 1
vn -0 0 1
vn -0 0 1
vn -0 0 1
vn -0 0 1
vn -0 0 1
vn -0 0 1
vn -0 0 1
vn -0 0 1
vn -0 0 1
vn -0 0 1
vn -0 0 1
vn -0 0 1
vn -0 0 1
vn -0 0 1
vn -0 0 1
vn -0 0 1
vn -0 0 1
vn -0 0 1
vn -0 0 1
vn -0 0 1
vn -0 0 1
vn -0 0 1
vn -0 0 1
vn -0 0 1
vn -0 0 1
vn -0 0 1
vn -0 0 1
vn -0 0 1
vn -0 0 1
vn -0 0 1
vn -0 0 1
vn -0 0 1
vn -0 0 1
vn -0 0 1
vn -0 0 1
vn -0 0 1
vn -0 0 1
vn -0 0 1
vn -0 0 1
vn -0 0 1
vn -0 0 1
vn -0 0 1
vn -0 0 1
vn -0 0 1
vn -0 0 1
vn -0 0 1
vn -0 0 1
vn -0 0 1
vn -0 0 1
vn -0 0 1
vn -0 0 1
vn -0 0 1
vn -0 0 1
vn -0 0 1
vn -0 0 1
vn -0 0 1
vn -0 0 1
vn -0 0 1
vn -0 0 1
vn -0 0 1
vn -0 0 1
vn -0 0 1
vn -0 0 1
vn -0 0 1
vn -0 0 1
vn -0 0 1
vn -0 0 1
vn -0 0 1
vn -0 0 1
vn -0 0 1
vn -0 0 1
vn -0 0 1
g Plane001_0
f 3/3/3 2/2/2 1/1/1
f 4/4/4 1/1/1 2/2/2
f 2/2/2 5/5/5 4/4/4
f 1/1/1 4/4/4 6/6/6
f 7/7/7 4/4/4 5/5/5
f 5/5/5 8/8/8 7/7/7
f 9/9/9 7/7/7 8/8/8
f 8/8/8 10/10/10 9/9/9
f 11/11/11 9/9/9 10/10/10
f 10/10/10 12/12/12 11/11/11
f 13/13/13 6/6/6 4/4/4
f 7/7/7 14/14/14 4/4/4
f 13/13/13 4/4/4 14/14/14
f 13/13/13 15/15/15 6/6/6
f 13/13/13 14/14/14 15/15/15
f 16/16/16 6/6/6 15/15/15
f 15/15/15 17/17/17 16/16/16
f 18/18/18 16/16/16 17/17/17
f 18/18/18 17/17/17 19/19/19
f 20/20/20 19/19/19 17/17/17
f 9/9/9 21/21/21 7/7/7
f 14/14/14 7/7/7 21/21/21
f 22/22/22 15/15/15 14/14/14
f 22/22/22 17/17/17 15/15/15
f 14/14/14 21/21/21 22/22/22
f 17/17/17 23/23/23 20/20/20
f 24/24/24 20/20/20 23/23/23
f 24/24/24 23/23/23 25/25/25
f 21/21/21 9/9/9 26/26/26
f 11/11/11 26/26/26 9/9/9
f 23/23/23 17/17/17 27/27/27
f 27/27/27 17/17/17 22/22/22
f 28/28/28 22/22/22 21/21/21
f 21/21/21 26/26/26 28/28/28
f 28/28/28 29/29/29 22/22/22
f 29/29/29 27/27/27 22/22/22
f 30/30/30 23/23/23 27/27/27
f 30/30/30 25/25/25 23/23/23
f 31/31/31 28/28/28 26/26/26
f 28/28/28 31/31/31 29/29/29
f 26/26/26 11/11/11 32/32/32
f 26/26/26 32/32/32 31/31/31
f 30/30/30 27/27/27 33/33/33
f 33/33/33 27/27/27 29/29/29
f 25/25/25 30/30/30 34/34/34
f 33/33/33 34/34/34 30/30/30
f 29/29/29 35/35/35 33/33/33
f 34/34/34 33/33/33 35/35/35
f 34/34/34 36/36/36 25/25/25
f 34/34/34 35/35/35 36/36/36
f 37/37/37 25/25/25 36/36/36
f 38/38/38 29/29/29 31/31/31
f 29/29/29 38/38/38 35/35/35
f 36/36/36 39/39/39 37/37/37
f 40/40/40 37/37/37 39/39/39
f 40/40/40 39/39/39 41/41/41
f 42/42/42 41/41/41 39/39/39
f 43/43/43 36/36/36 35/35/35
f 39/39/39 36/36/36 43/43/43
f 39/39/39 44/44/44 42/42/42
f 44/44/44 39/39/39 43/43/43
f 45/45/45 42/42/42 44/44/44
f 45/45/45 44/44/44 46/46/46
f 47/47/47 38/38/38 31/31/31
f 47/47/47 31/31/31 32/32/32
f 48/48/48 35/35/35 38/38/38
f 35/35/35 48/48/48 43/43/43
f 49/49/49 44/44/44 43/43/43
f 50/50/50 46/46/46 44/44/44
f 50/50/50 44/44/44 49/49/49
f 51/51/51 43/43/43 48/48/48
f 49/49/49 43/43/43 51/51/51
f 52/52/52 49/49/49 51/51/51
f 50/50/50 49/49/49 53/53/53
f 53/53/53 49/49/49 52/52/52
f 53/53/53 54/54/54 50/50/50
f 46/46/46 50/50/50 54/54/54
f 53/53/53 52/52/52 54/54/54
f 54/54/54 55/55/55 46/46/46
f 56/56/56 46/46/46 55/55/55
f 57/57/57 54/54/54 52/52/52
f 54/54/54 57/57/57 55/55/55
f 55/55/55 58/58/58 56/56/56
f 59/59/59 56/56/56 58/58/58
f 60/60/60 55/55/55 57/57/57
f 55/55/55 60/60/60 58/58/58
f 58/58/58 61/61/61 59/59/59
f 62/62/62 59/59/59 61/61/61
f 58/58/58 63/63/63 61/61/61
f 63/63/63 58/58/58 60/60/60
f 64/64/64 61/61/61 63/63/63
f 64/64/64 63/63/63 65/65/65
f 66/66/66 65/65/65 63/63/63
f 63/63/63 60/60/60 66/66/66
f 67/67/67 66/66/66 60/60/60
f 60/60/60 57/57/57 67/67/67
f 68/68/68 67/67/67 57/57/57
f 57/57/57 52/52/52 68/68/68
f 69/69/69 68/68/68 52/52/52
f 68/68/68 69/69/69 70/70/70
f 69/69/69 52/52/52 71/71/71
f 71/71/71 52/52/52 51/51/51
f 72/72/72 70/70/70 69/69/69
f 69/69/69 71/71/71 72/72/72
f 70/70/70 72/72/72 73/73/73
f 74/74/74 72/72/72 71/71/71
f 51/51/51 74/74/74 71/71/71
f 74/74/74 73/73/73 72/72/72
f 74/74/74 75/75/75 73/73/73
f 76/76/76 73/73/73 75/75/75
f 75/75/75 74/74/74 77/77/77
f 78/78/78 74/74/74 51/51/51
f 78/78/78 77/77/77 74/74/74
f 51/51/51 48/48/48 78/78/78
f 78/78/78 79/79/79 77/77/77
f 79/79/79 78/78/78 48/48/48
f 80/80/80 77/77/77 79/79/79
f 79/79/79 48/48/48 81/81/81
f 79/79/79 81/81/81 80/80/80
f 38/38/38 81/81/81 48/48/48
f 82/82/82 80/80/80 81/81/81
f 80/80/80 82/82/82 83/83/83
f 81/81/81 38/38/38 84/84/84
f 82/82/82 81/81/81 84/84/84
f 84/84/84 38/38/38 47/47/47
f 85/85/85 83/83/83 82/82/82
f 82/82/82 84/84/84 85/85/85
f 83/83/83 85/85/85 86/86/86
f 85/85/85 84/84/84 87/87/87
f 87/87/87 86/86/86 85/85/85
f 87/87/87 84/84/84 47/47/47
f 87/87/87 88/88/88 86/86/86
f 89/89/89 86/86/86 88/88/88
f 88/88/88 87/87/87 90/90/90
f 91/91/91 87/87/87 47/47/47
f 91/91/91 90/90/90 87/87/87
f 91/91/91 47/47/47 92/92/92
f 91/91/91 92/92/92 90/90/90
f 93/93/93 90/90/90 92/92/92
f 32/32/32 92/92/92 47/47/47
f 92/92/92 94/94/94 93/93/93
f 92/92/92 32/32/32 94/94/94
f 95/95/95 93/93/93 94/94/94
f 94/94/94 96/96/96 95/95/95
f 97/97/97 95/95/95 96/96/96
f 96/96/96 94/94/94 12/12/12
f 98/98/98 94/94/94 32/32/32
f 98/98/98 12/12/12 94/94/94
f 98/98/98 32/32/32 11/11/11
f 98/98/98 11/11/11 12/12/12
