g Plane037
v -0.0681994185 -0.281806737 -4.99621189E-09
v -0.173399195 -0.237113461 4.99621189E-09
v -0.159168482 -0.203678846 4.99621189E-09
v -0.0541587099 -0.248816788 -4.99621189E-09
v -0.143908367 -0.169628307 4.99621189E-09
v -0.0406274609 -0.218593046 -4.99621189E-09
v -0.125870511 -0.134768441 4.99621189E-09
v -0.0265793856 -0.191387981 -4.99621189E-09
v -0.103485249 -0.100076161 4.99621189E-09
v -0.0113518266 -0.167721689 -4.99621189E-09
v -0.0751670226 -0.0669337288 4.99621189E-09
v 0.00570226833 -0.147709072 -4.99621189E-09
v -0.0397371091 -0.0372146368 4.99621189E-09
v 0.0256366134 -0.130973712 -4.99621189E-09
v 0.00319941714 -0.0128910737 4.99621189E-09
v 0.0502885953 -0.117040478 -4.99621189E-09
v 0.0531239845 0.0045587332 4.99621189E-09
v 0.0821600035 -0.105991714 -4.99621189E-09
v 0.0552504063 0.00536241475 4.99621189E-09
v 0.128946975 -0.0820064247 -4.99621189E-09
v 0.0572961159 0.00848174933 4.99621189E-09
v 0.159228459 -0.0432316624 -4.99621189E-09
v 0.0618967041 0.0227608196 4.99621144E-09
v 0.173638627 -0.00128594378 -4.99621144E-09
v 0.06523633 0.0485768802 4.99621189E-09
v 0.179263189 0.0406790078 -4.99621189E-09
v 0.0661935359 0.082830213 4.99621189E-09
v 0.180493444 0.0829885378 -4.99621189E-09
v 0.0655495822 0.122856207 4.99621189E-09
v 0.179818183 0.125532702 -4.99621189E-09
v 0.0647570938 0.166709736 4.996211E-09
v 0.179054469 0.167482361 -4.996211E-09
v 0.0655591786 0.212950811 4.99621189E-09
v 0.179729238 0.207502648 -4.99621189E-09
v 0.0699902996 0.260502458 4.99621189E-09
v 0.183077589 0.243896395 -4.99621189E-09
v 0.0805941075 0.308455825 4.99621189E-09
v 0.189826101 0.274797797 -4.99621189E-09
v 0.100660324 0.355428636 4.99621189E-09
v 0.199954748 0.298815101 -4.99621189E-09
v 0.126145199 0.391997635 4.99621189E-09
v 0.217482165 0.323280394 -4.99621189E-09
vt 0 0
vt 0 1
vt 0.0500000007 1
vt 0.0500000007 0
vt 0.100000001 1
vt 0.100000001 0
vt 0.150000006 1
vt 0.150000006 0
vt 0.200000003 1
vt 0.200000003 0
vt 0.25 1
vt 0.25 0
vt 0.300000012 1
vt 0.300000012 0
vt 0.350000024 1
vt 0.350000024 0
vt 0.400000036 1
vt 0.400000036 0
vt 0.450000048 1
vt 0.450000048 0
vt 0.50000006 1
vt 0.50000006 0
vt 0.550000072 1
vt 0.550000072 0
vt 0.600000083 1
vt 0.600000083 0
vt 0.650000095 1
vt 0.650000095 0
vt 0.700000107 1
vt 0.700000107 0
vt 0.750000119 1
vt 0.750000119 0
vt 0.800000131 1
vt 0.800000131 0
vt 0.850000143 1
vt 0.850000143 0
vt 0.900000155 1
vt 0.900000155 0
vt 0.950000167 1
vt 0.950000167 0
vt 1.00000012 1
vt 1.00000012 0
vn -0 0 1
vn -0 0 1
vn -0 0 1
vn -0 0 1
vn -0 0 1
vn -0 0 1
vn -0 0 1
vn -0 0 1
vn -0 0 1
vn -0 0 1
vn -0 0 1
vn -0 0 1
vn -0 0 1
vn -0 0 1
vn -0 0 1
vn -0 0 1
vn -0 0 1
vn -0 0 1
vn -0 0 1
vn -0 0 1
vn -0 0 1
vn -0 0 1
vn -0 0 1
vn -0 0 1
vn -0 0 1
vn -0 0 1
vn -0 0 1
vn -0 0 1
vn -0 0 1
vn -0 0 1
vn -0 0 1
vn -0 0 1
vn -0 0 1
vn -0 0 1
vn -0 0 1
vn -0 0 1
vn -0 0 1
vn -0 0 1
vn -0 0 1
vn -0 0 1
vn -0 0 1
vn -0 0 1
g Plane037_0
f 3/3/3 2/2/2 1/1/1
f 4/4/4 3/3/3 1/1/1
f 5/5/5 3/3/3 4/4/4
f 6/6/6 5/5/5 4/4/4
f 7/7/7 5/5/5 6/6/6
f 8/8/8 7/7/7 6/6/6
f 9/9/9 7/7/7 8/8/8
f 10/10/10 9/9/9 8/8/8
f 11/11/11 9/9/9 10/10/10
f 12/12/12 11/11/11 10/10/10
f 13/13/13 11/11/11 12/12/12
f 14/14/14 13/13/13 12/12/12
f 15/15/15 13/13/13 14/14/14
f 16/16/16 15/15/15 14/14/14
f 17/17/17 15/15/15 16/16/16
f 18/18/18 17/17/17 16/16/16
f 19/19/19 17/17/17 18/18/18
f 20/20/20 19/19/19 18/18/18
f 21/21/21 19/19/19 20/20/20
f 22/22/22 21/21/21 20/20/20
f 23/23/23 21/21/21 22/22/22
f 24/24/24 23/23/23 22/22/22
f 25/25/25 23/23/23 24/24/24
f 26/26/26 25/25/25 24/24/24
f 27/27/27 25/25/25 26/26/26
f 28/28/28 27/27/27 26/26/26
f 29/29/29 27/27/27 28/28/28
f 30/30/30 29/29/29 28/28/28
f 31/31/31 29/29/29 30/30/30
f 32/32/32 31/31/31 30/30/30
f 33/33/33 31/31/31 32/32/32
f 34/34/34 33/33/33 32/32/32
f 35/35/35 33/33/33 34/34/34
f 36/36/36 35/35/35 34/34/34
f 37/37/37 35/35/35 36/36/36
f 38/38/38 37/37/37 36/36/36
f 39/39/39 37/37/37 38/38/38
f 40/40/40 39/39/39 38/38/38
f 41/41/41 39/39/39 40/40/40
f 42/42/42 41/41/41 40/40/40
