g Plane010
v -0.0796761438 -0.0576113574 0
v 0.0776270404 0.0580455363 0
v 0.0638573393 0.0777731091 0
v -0.099355951 -0.0293817818 0
v 0.0494458191 0.100966364 0
v -0.118654773 0.00165392039 0
v 0.0343238749 0.127843454 0
v -0.137688488 0.0354719609 0
v 0.0190480612 0.157644928 0
v -0.156307906 0.071790047 0
v 0.00408773497 0.189675927 0
v -0.174276963 0.110260516 0
v -0.01013349 0.22327067 0
v -0.191313908 0.150507763 0
v -0.0232195128 0.25776875 0
v -0.207107902 0.192149699 0
v -0.0347963236 0.292497545 0
v -0.221327573 0.234817162 0
v -0.0445135608 0.32675457 0
v -0.233617902 0.278170317 0
v -0.0520530231 0.359787822 0
v -0.243590936 0.321919113 0
v -0.0571538769 0.390771091 0
v -0.25080213 0.365848005 0
v -0.0596603118 0.418778807 0
v -0.254701108 0.409840375 0
v -0.0596130267 0.442774028 0
v -0.254541814 0.45389089 0
v -0.057402309 0.461665332 0
v -0.249227807 0.49804914 0
v -0.0539548472 0.47456646 0
v -0.237126604 0.542159438 0
v -0.0506992303 0.481458217 0
v -0.216103867 0.5851987 0
v -0.0486737713 0.484063655 0
v -0.184416264 0.624401927 0
v -0.0360977948 0.493643999 0
v -0.135512263 0.661684513 0
v -0.0233090427 0.499354869 0
v -0.0835321099 0.685080349 0
v -0.00613063341 0.503197372 0
v -0.0348180309 0.696323872 0
v 0.0183333773 0.505484641 0
v 0.00723754242 0.700414598 0
v 0.0505883843 0.506920874 0
v 0.0416327305 0.701960921 0
v 0.0904735476 0.509914994 0
v 0.0680322796 0.703866541 0
v 0.137427658 0.518712223 0
v 0.0865013078 0.707198977 0
v 0.188862115 0.538589001 0
v 0.0991323218 0.711994231 0
v 0.239214852 0.572935462 0
v 0.110990897 0.720174909 0
v 0.276542425 0.614285827 0
v 0.115882851 0.725232661 0
v 0.300394833 0.656435609 0
v 0.123478509 0.739027441 0
v 0.317964315 0.700921476 0
v 0.132708952 0.762576222 0
v 0.331061184 0.747582376 0
v 0.140885979 0.791789532 0
v 0.340055585 0.795643389 0
v 0.146763518 0.823191047 0
v 0.344718874 0.844183743 0
v 0.149693578 0.853451014 0
v 0.344306111 0.892621398 0
v 0.149543583 0.878900111 0
v 0.336940289 0.941376567 0
v 0.14731504 0.894867539 0
v 0.318226308 0.990338445 0
v 0.145736843 0.898860335 0
vt 0 0
vt 0 1
vt 0.0285714287 1
vt 0.0285714287 0
vt 0.0571428575 1
vt 0.0571428575 0
vt 0.0857142881 1
vt 0.0857142881 0
vt 0.114285715 1
vt 0.114285715 0
vt 0.142857149 1
vt 0.142857149 0
vt 0.171428576 1
vt 0.171428576 0
vt 0.200000003 1
vt 0.200000003 0
vt 0.22857143 1
vt 0.22857143 0
vt 0.257142872 1
vt 0.257142872 0
vt 0.285714298 1
vt 0.285714298 0
vt 0.314285725 1
vt 0.314285725 0
vt 0.342857152 1
vt 0.342857152 0
vt 0.371428579 1
vt 0.371428579 0
vt 0.400000006 1
vt 0.400000006 0
vt 0.428571433 1
vt 0.428571433 0
vt 0.45714286 1
vt 0.45714286 0
vt 0.485714287 1
vt 0.485714287 0
vt 0.514285743 1
vt 0.514285743 0
vt 0.54285717 1
vt 0.54285717 0
vt 0.571428597 1
vt 0.571428597 0
vt 0.600000024 1
vt 0.600000024 0
vt 0.628571451 1
vt 0.628571451 0
vt 0.657142878 1
vt 0.657142878 0
vt 0.685714304 1
vt 0.685714304 0
vt 0.714285731 1
vt 0.714285731 0
vt 0.742857158 1
vt 0.742857158 0
vt 0.771428585 1
vt 0.771428585 0
vt 0.800000012 1
vt 0.800000012 0
vt 0.828571439 1
vt 0.828571439 0
vt 0.857142866 1
vt 0.857142866 0
vt 0.885714293 1
vt 0.885714293 0
vt 0.914285719 1
vt 0.914285719 0
vt 0.942857146 1
vt 0.942857146 0
vt 0.971428573 1
vt 0.971428573 0
vt 1 1
vt 1 0
vn -0 0 -1
vn -0 0 -1
vn -0 0 -1
vn -0 0 -1
vn -0 0 -1
vn -0 0 -1
vn -0 0 -1
vn -0 0 -1
vn -0 0 -1
vn -0 0 -1
vn -0 0 -1
vn -0 0 -1
vn -0 0 -1
vn -0 0 -1
vn -0 0 -1
vn -0 0 -1
vn -0 0 -1
vn -0 0 -1
vn -0 0 -1
vn -0 0 -1
vn -0 0 -1
vn -0 0 -1
vn -0 0 -1
vn -0 0 -1
vn -0 0 -1
vn -0 0 -1
vn -0 0 -1
vn -0 0 -1
vn -0 0 -1
vn -0 0 -1
vn -0 0 -1
vn -0 0 -1
vn -0 0 -1
vn -0 0 -1
vn -0 0 -1
vn -0 0 -1
vn -0 0 -1
vn -0 0 -1
vn -0 0 -1
vn -0 0 -1
vn -0 0 -1
vn -0 0 -1
vn -0 0 -1
vn -0 0 -1
vn -0 0 -1
vn -0 0 -1
vn -0 0 -1
vn -0 0 -1
vn -0 0 -1
vn -0 0 -1
vn -0 0 -1
vn -0 0 -1
vn -0 0 -1
vn -0 0 -1
vn -0 0 -1
vn -0 0 -1
vn -0 0 -1
vn -0 0 -1
vn -0 0 -1
vn -0 0 -1
vn -0 0 -1
vn -0 0 -1
vn -0 0 -1
vn -0 0 -1
vn -0 0 -1
vn -0 0 -1
vn -0 0 -1
vn -0 0 -1
vn -0 0 -1
vn -0 0 -1
vn -0 0 -1
vn -0 0 -1
g Plane010_0
f 3/3/3 2/2/2 1/1/1
f 4/4/4 3/3/3 1/1/1
f 5/5/5 3/3/3 4/4/4
f 6/6/6 5/5/5 4/4/4
f 7/7/7 5/5/5 6/6/6
f 8/8/8 7/7/7 6/6/6
f 9/9/9 7/7/7 8/8/8
f 10/10/10 9/9/9 8/8/8
f 11/11/11 9/9/9 10/10/10
f 12/12/12 11/11/11 10/10/10
f 13/13/13 11/11/11 12/12/12
f 14/14/14 13/13/13 12/12/12
f 15/15/15 13/13/13 14/14/14
f 16/16/16 15/15/15 14/14/14
f 17/17/17 15/15/15 16/16/16
f 18/18/18 17/17/17 16/16/16
f 19/19/19 17/17/17 18/18/18
f 20/20/20 19/19/19 18/18/18
f 21/21/21 19/19/19 20/20/20
f 22/22/22 21/21/21 20/20/20
f 23/23/23 21/21/21 22/22/22
f 24/24/24 23/23/23 22/22/22
f 25/25/25 23/23/23 24/24/24
f 26/26/26 25/25/25 24/24/24
f 27/27/27 25/25/25 26/26/26
f 28/28/28 27/27/27 26/26/26
f 29/29/29 27/27/27 28/28/28
f 30/30/30 29/29/29 28/28/28
f 31/31/31 29/29/29 30/30/30
f 32/32/32 31/31/31 30/30/30
f 33/33/33 31/31/31 32/32/32
f 34/34/34 33/33/33 32/32/32
f 35/35/35 33/33/33 34/34/34
f 36/36/36 35/35/35 34/34/34
f 37/37/37 35/35/35 36/36/36
f 38/38/38 37/37/37 36/36/36
f 39/39/39 37/37/37 38/38/38
f 40/40/40 39/39/39 38/38/38
f 41/41/41 39/39/39 40/40/40
f 42/42/42 41/41/41 40/40/40
f 43/43/43 41/41/41 42/42/42
f 44/44/44 43/43/43 42/42/42
f 45/45/45 43/43/43 44/44/44
f 46/46/46 45/45/45 44/44/44
f 47/47/47 45/45/45 46/46/46
f 48/48/48 47/47/47 46/46/46
f 49/49/49 47/47/47 48/48/48
f 50/50/50 49/49/49 48/48/48
f 51/51/51 49/49/49 50/50/50
f 52/52/52 51/51/51 50/50/50
f 53/53/53 51/51/51 52/52/52
f 54/54/54 53/53/53 52/52/52
f 55/55/55 53/53/53 54/54/54
f 56/56/56 55/55/55 54/54/54
f 57/57/57 55/55/55 56/56/56
f 58/58/58 57/57/57 56/56/56
f 59/59/59 57/57/57 58/58/58
f 60/60/60 59/59/59 58/58/58
f 61/61/61 59/59/59 60/60/60
f 62/62/62 61/61/61 60/60/60
f 63/63/63 61/61/61 62/62/62
f 64/64/64 63/63/63 62/62/62
f 65/65/65 63/63/63 64/64/64
f 66/66/66 65/65/65 64/64/64
f 67/67/67 65/65/65 66/66/66
f 68/68/68 67/67/67 66/66/66
f 69/69/69 67/67/67 68/68/68
f 70/70/70 69/69/69 68/68/68
f 71/71/71 69/69/69 70/70/70
f 72/72/72 71/71/71 70/70/70
