g Plane012
v -0.0558682941 0.0774080679 0
v 0.0583828688 -0.0809191912 0
v 0.0280308463 -0.102820806 0
v -0.0859831199 0.0556771718 0
v -0.0027920776 -0.123583153 0
v -0.107381038 0.0412865765 0
v -0.0366911702 -0.14396292 0
v -0.133565873 0.0255543515 0
v -0.0733505636 -0.163932234 0
v -0.163412899 0.00930049829 0
v -0.11231485 -0.18327491 0
v -0.195936099 -0.00684275106 0
v -0.15306662 -0.201688409 0
v -0.230212301 -0.0223301779 0
v -0.195071042 -0.218825355 0
v -0.265334576 -0.0366609395 0
v -0.237811059 -0.234310761 0
v -0.300378948 -0.0493618138 0
v -0.280823946 -0.247744948 0
v -0.334367186 -0.0599846132 0
v -0.323750764 -0.258690178 0
v -0.366216779 -0.0681188032 0
v -0.36641717 -0.266627312 0
v -0.394661963 -0.0734356344 0
v -0.408957213 -0.270836651 0
v -0.418127179 -0.0758065656 0
v -0.454062968 -0.2700167 0
v -0.438261241 -0.0754116774 0
v -0.501072109 -0.263691843 0
v -0.466059536 -0.0716112778 0
v -0.54593879 -0.253921211 0
v -0.498853654 -0.0644381717 0
v -0.588934958 -0.242350027 0
v -0.535343647 -0.05460345 0
v -0.629987478 -0.230329201 0
v -0.57457304 -0.0431125797 0
v -0.668698311 -0.219077572 0
v -0.615911603 -0.0311031397 0
v -0.704353869 -0.209720924 0
v -0.659043074 -0.0198058169 0
v -0.73589927 -0.203228578 0
v -0.703995407 -0.0106072985 0
v -0.761912763 -0.200206921 0
v -0.751159549 -0.00525772152 0
v -0.780806601 -0.200479016 0
v -0.801095307 -0.00629045907 0
v -0.79180789 -0.202667087 0
v -0.853546321 -0.0174396336 0
v -0.797007918 -0.205116153 0
v -0.905392408 -0.0427165292 0
v -0.801600277 -0.209350064 0
v -0.950411737 -0.0829538032 0
v -0.814354956 -0.227139086 0
v -0.978351891 -0.121187367 0
v -0.829016805 -0.252146542 0
v -1.00087106 -0.159480289 0
v -0.844160855 -0.282246739 0
v -1.02057302 -0.198583737 0
v -0.859608352 -0.316284478 0
v -1.03843856 -0.237922058 0
v -0.875465155 -0.353185326 0
v -1.05516469 -0.276838124 0
v -0.892021894 -0.391984463 0
v -1.07126248 -0.314565599 0
v -0.909717739 -0.431825906 0
v -1.08709526 -0.350229144 0
v -0.929144442 -0.471953928 0
v -1.1028738 -0.382852972 0
v -0.951095819 -0.511689961 0
v -1.11860609 -0.411385387 0
v -0.976654708 -0.550355732 0
v -1.13401222 -0.434772968 0
v -1.00727963 -0.58706373 0
v -1.14843535 -0.452171564 0
v -1.04470015 -0.620265305 0
v -1.16094923 -0.463399082 0
v -1.09018695 -0.647190988 0
v -1.17108428 -0.469493419 0
v -1.14309764 -0.664117813 0
v -1.18028605 -0.47244665 0
v -1.18032873 -0.671142817 0
v -1.21651328 -0.479279548 0
vt 0 0
vt 0 1
vt 0.0250000004 1
vt 0.0250000004 0
vt 0.0500000007 1
vt 0.0500000007 0
vt 0.075000003 1
vt 0.075000003 0
vt 0.100000001 1
vt 0.100000001 0
vt 0.125 1
vt 0.125 0
vt 0.150000006 1
vt 0.150000006 0
vt 0.175000012 1
vt 0.175000012 0
vt 0.200000018 1
vt 0.200000018 0
vt 0.225000024 1
vt 0.225000024 0
vt 0.25000003 1
vt 0.25000003 0
vt 0.275000036 1
vt 0.275000036 0
vt 0.300000042 1
vt 0.300000042 0
vt 0.325000048 1
vt 0.325000048 0
vt 0.350000054 1
vt 0.350000054 0
vt 0.37500006 1
vt 0.37500006 0
vt 0.400000066 1
vt 0.400000066 0
vt 0.425000072 1
vt 0.425000072 0
vt 0.450000077 1
vt 0.450000077 0
vt 0.475000083 1
vt 0.475000083 0
vt 0.50000006 1
vt 0.50000006 0
vt 0.525000036 1
vt 0.525000036 0
vt 0.550000012 1
vt 0.550000012 0
vt 0.574999988 1
vt 0.574999988 0
vt 0.599999964 1
vt 0.599999964 0
vt 0.62499994 1
vt 0.62499994 0
vt 0.649999917 1
vt 0.649999917 0
vt 0.674999893 1
vt 0.674999893 0
vt 0.699999869 1
vt 0.699999869 0
vt 0.724999845 1
vt 0.724999845 0
vt 0.749999821 1
vt 0.749999821 0
vt 0.774999797 1
vt 0.774999797 0
vt 0.799999774 1
vt 0.799999774 0
vt 0.82499975 1
vt 0.82499975 0
vt 0.849999726 1
vt 0.849999726 0
vt 0.874999702 1
vt 0.874999702 0
vt 0.899999678 1
vt 0.899999678 0
vt 0.924999654 1
vt 0.924999654 0
vt 0.94999963 1
vt 0.94999963 0
vt 0.974999607 1
vt 0.974999607 0
vt 0.999999583 1
vt 0.999999583 0
vn -0 0 1
vn -0 0 1
vn -0 0 1
vn -0 0 1
vn -0 0 1
vn -0 0 1
vn -0 0 1
vn -0 0 1
vn -0 0 1
vn -0 0 1
vn -0 0 1
vn -0 0 1
vn -0 0 1
vn -0 0 1
vn -0 0 1
vn -0 0 1
vn -0 0 1
vn -0 0 1
vn -0 0 1
vn -0 0 1
vn -0 0 1
vn -0 0 1
vn -0 0 1
vn -0 0 1
vn -0 0 1
vn -0 0 1
vn -0 0 1
vn -0 0 1
vn -0 0 1
vn -0 0 1
vn -0 0 1
vn -0 0 1
vn -0 0 1
vn -0 0 1
vn -0 0 1
vn -0 0 1
vn -0 0 1
vn -0 0 1
vn -0 0 1
vn -0 0 1
vn -0 0 1
vn -0 0 1
vn -0 0 1
vn -0 0 1
vn -0 0 1
vn -0 0 1
vn -0 0 1
vn -0 0 1
vn -0 0 1
vn -0 0 1
vn -0 0 1
vn -0 0 1
vn -0 0 1
vn -0 0 1
vn -0 0 1
vn -0 0 1
vn -0 0 1
vn -0 0 1
vn -0 0 1
vn -0 0 1
vn -0 0 1
vn -0 0 1
vn -0 0 1
vn -0 0 1
vn -0 0 1
vn -0 0 1
vn -0 0 1
vn -0 0 1
vn -0 0 1
vn -0 0 1
vn -0 0 1
vn -0 0 1
vn -0 0 1
vn -0 0 1
vn -0 0 1
vn -0 0 1
vn -0 0 1
vn -0 0 1
vn -0 0 1
vn -0 0 1
vn -0 0 1
vn -0 0 1
g Plane012_0
f 3/3/3 2/2/2 1/1/1
f 4/4/4 3/3/3 1/1/1
f 5/5/5 3/3/3 4/4/4
f 6/6/6 5/5/5 4/4/4
f 7/7/7 5/5/5 6/6/6
f 8/8/8 7/7/7 6/6/6
f 9/9/9 7/7/7 8/8/8
f 10/10/10 9/9/9 8/8/8
f 11/11/11 9/9/9 10/10/10
f 12/12/12 11/11/11 10/10/10
f 13/13/13 11/11/11 12/12/12
f 14/14/14 13/13/13 12/12/12
f 15/15/15 13/13/13 14/14/14
f 16/16/16 15/15/15 14/14/14
f 17/17/17 15/15/15 16/16/16
f 18/18/18 17/17/17 16/16/16
f 19/19/19 17/17/17 18/18/18
f 20/20/20 19/19/19 18/18/18
f 21/21/21 19/19/19 20/20/20
f 22/22/22 21/21/21 20/20/20
f 23/23/23 21/21/21 22/22/22
f 24/24/24 23/23/23 22/22/22
f 25/25/25 23/23/23 24/24/24
f 26/26/26 25/25/25 24/24/24
f 27/27/27 25/25/25 26/26/26
f 28/28/28 27/27/27 26/26/26
f 29/29/29 27/27/27 28/28/28
f 30/30/30 29/29/29 28/28/28
f 31/31/31 29/29/29 30/30/30
f 32/32/32 31/31/31 30/30/30
f 33/33/33 31/31/31 32/32/32
f 34/34/34 33/33/33 32/32/32
f 35/35/35 33/33/33 34/34/34
f 36/36/36 35/35/35 34/34/34
f 37/37/37 35/35/35 36/36/36
f 38/38/38 37/37/37 36/36/36
f 39/39/39 37/37/37 38/38/38
f 40/40/40 39/39/39 38/38/38
f 41/41/41 39/39/39 40/40/40
f 42/42/42 41/41/41 40/40/40
f 43/43/43 41/41/41 42/42/42
f 44/44/44 43/43/43 42/42/42
f 45/45/45 43/43/43 44/44/44
f 46/46/46 45/45/45 44/44/44
f 47/47/47 45/45/45 46/46/46
f 48/48/48 47/47/47 46/46/46
f 49/49/49 47/47/47 48/48/48
f 50/50/50 49/49/49 48/48/48
f 51/51/51 49/49/49 50/50/50
f 52/52/52 51/51/51 50/50/50
f 53/53/53 51/51/51 52/52/52
f 54/54/54 53/53/53 52/52/52
f 55/55/55 53/53/53 54/54/54
f 56/56/56 55/55/55 54/54/54
f 57/57/57 55/55/55 56/56/56
f 58/58/58 57/57/57 56/56/56
f 59/59/59 57/57/57 58/58/58
f 60/60/60 59/59/59 58/58/58
f 61/61/61 59/59/59 60/60/60
f 62/62/62 61/61/61 60/60/60
f 63/63/63 61/61/61 62/62/62
f 64/64/64 63/63/63 62/62/62
f 65/65/65 63/63/63 64/64/64
f 66/66/66 65/65/65 64/64/64
f 67/67/67 65/65/65 66/66/66
f 68/68/68 67/67/67 66/66/66
f 69/69/69 67/67/67 68/68/68
f 70/70/70 69/69/69 68/68/68
f 71/71/71 69/69/69 70/70/70
f 72/72/72 71/71/71 70/70/70
f 73/73/73 71/71/71 72/72/72
f 74/74/74 73/73/73 72/72/72
f 75/75/75 73/73/73 74/74/74
f 76/76/76 75/75/75 74/74/74
f 77/77/77 75/75/75 76/76/76
f 78/78/78 77/77/77 76/76/76
f 79/79/79 77/77/77 78/78/78
f 80/80/80 79/79/79 78/78/78
f 81/81/81 79/79/79 80/80/80
f 82/82/82 81/81/81 80/80/80
