g Plane039
v 0.126516119 0.256677151 0
v 0.195060372 0.181682184 0
v 0.156791791 0.148781106 0
v 0.095295541 0.229656205 0
v 0.106982425 0.117335729 0
v 0.0608272925 0.207846805 0
v 0.0604653023 0.0982563645 0
v 0.0297503155 0.195102394 0
v 0.0198036358 0.0881332383 0
v 0.000945872511 0.187967837 0
v -0.0122168902 0.0830076411 0
v -0.026928395 0.183536887 0
v -0.0318342969 0.0795934051 0
v -0.0561899804 0.178230956 0
v -0.0338022001 0.0794311985 0
v -0.0906413645 0.163644344 0
v -0.0265532248 0.0882603303 0
v -0.120406024 0.127172932 0
v -0.0262704883 0.0848580822 0
v -0.127856538 0.0831745639 0
v -0.022500759 0.0572743863 0
v -0.122002825 0.0367343612 0
v -0.0123097133 0.0114710294 0
v -0.111606173 -0.0100411139 0
v -0.00401390204 -0.0297797713 0
v -0.104013033 -0.0477451123 0
v 0.00142917631 -0.0668241903 0
v -0.0996028334 -0.0775531158 0
v 0.00321026915 -0.101727173 0
v -0.0983814001 -0.100426525 0
v 0.000110458372 -0.135764197 0
v -0.0999450609 -0.118116237 0
v -0.00878919195 -0.1687655 0
v -0.104189761 -0.133818403 0
v -0.0232043974 -0.200138122 0
v -0.112215437 -0.151152402 0
v -0.0423326865 -0.230592847 0
v -0.125639811 -0.172433808 0
v -0.0659800768 -0.262046307 0
v -0.145471931 -0.198772237 0
v -0.0903156102 -0.291754127 0
v -0.168575361 -0.226962253 0
vt 0 0
vt 0 1
vt 0.0500000007 1
vt 0.0500000007 0
vt 0.100000001 1
vt 0.100000001 0
vt 0.150000006 1
vt 0.150000006 0
vt 0.200000003 1
vt 0.200000003 0
vt 0.25 1
vt 0.25 0
vt 0.300000012 1
vt 0.300000012 0
vt 0.350000024 1
vt 0.350000024 0
vt 0.400000036 1
vt 0.400000036 0
vt 0.450000048 1
vt 0.450000048 0
vt 0.50000006 1
vt 0.50000006 0
vt 0.550000072 1
vt 0.550000072 0
vt 0.600000083 1
vt 0.600000083 0
vt 0.650000095 1
vt 0.650000095 0
vt 0.700000107 1
vt 0.700000107 0
vt 0.750000119 1
vt 0.750000119 0
vt 0.800000131 1
vt 0.800000131 0
vt 0.850000143 1
vt 0.850000143 0
vt 0.900000155 1
vt 0.900000155 0
vt 0.950000167 1
vt 0.950000167 0
vt 1.00000012 1
vt 1.00000012 0
vn -0 0 1
vn -0 0 1
vn -0 0 1
vn -0 0 1
vn -0 0 1
vn -0 0 1
vn -0 0 1
vn -0 0 1
vn -0 0 1
vn -0 0 1
vn -0 0 1
vn -0 0 1
vn -0 0 1
vn -0 0 1
vn -0 0 1
vn -0 0 1
vn -0 0 1
vn -0 0 1
vn -0 0 1
vn -0 0 1
vn -0 0 1
vn -0 0 1
vn -0 0 1
vn -0 0 1
vn -0 0 1
vn -0 0 1
vn -0 0 1
vn -0 0 1
vn -0 0 1
vn -0 0 1
vn -0 0 1
vn -0 0 1
vn -0 0 1
vn -0 0 1
vn -0 0 1
vn -0 0 1
vn -0 0 1
vn -0 0 1
vn -0 0 1
vn -0 0 1
vn -0 0 1
vn -0 0 1
g Plane039_0
f 3/3/3 2/2/2 1/1/1
f 4/4/4 3/3/3 1/1/1
f 5/5/5 3/3/3 4/4/4
f 6/6/6 5/5/5 4/4/4
f 7/7/7 5/5/5 6/6/6
f 8/8/8 7/7/7 6/6/6
f 9/9/9 7/7/7 8/8/8
f 10/10/10 9/9/9 8/8/8
f 11/11/11 9/9/9 10/10/10
f 12/12/12 11/11/11 10/10/10
f 13/13/13 11/11/11 12/12/12
f 14/14/14 13/13/13 12/12/12
f 15/15/15 13/13/13 14/14/14
f 16/16/16 15/15/15 14/14/14
f 17/17/17 15/15/15 16/16/16
f 18/18/18 17/17/17 16/16/16
f 19/19/19 17/17/17 18/18/18
f 20/20/20 19/19/19 18/18/18
f 21/21/21 19/19/19 20/20/20
f 22/22/22 21/21/21 20/20/20
f 23/23/23 21/21/21 22/22/22
f 24/24/24 23/23/23 22/22/22
f 25/25/25 23/23/23 24/24/24
f 26/26/26 25/25/25 24/24/24
f 27/27/27 25/25/25 26/26/26
f 28/28/28 27/27/27 26/26/26
f 29/29/29 27/27/27 28/28/28
f 30/30/30 29/29/29 28/28/28
f 31/31/31 29/29/29 30/30/30
f 32/32/32 31/31/31 30/30/30
f 33/33/33 31/31/31 32/32/32
f 34/34/34 33/33/33 32/32/32
f 35/35/35 33/33/33 34/34/34
f 36/36/36 35/35/35 34/34/34
f 37/37/37 35/35/35 36/36/36
f 38/38/38 37/37/37 36/36/36
f 39/39/39 37/37/37 38/38/38
f 40/40/40 39/39/39 38/38/38
f 41/41/41 39/39/39 40/40/40
f 42/42/42 41/41/41 40/40/40
