g Plane041
v 0.126848847 -0.0340979546 0
v 0.158991262 -0.143785477 0
v 0.12720561 -0.151841849 0
v 0.105783656 -0.0395672172 0
v 0.0922348723 -0.15615423 0
v 0.0855790749 -0.04204816 0
v 0.058244314 -0.156118929 0
v 0.0649745241 -0.0420172401 0
v 0.0256610308 -0.152449444 0
v 0.0443447717 -0.0396868102 0
v -0.00519309379 -0.145796284 0
v 0.0241698418 -0.035332229 0
v -0.0340552852 -0.136731744 0
v 0.00498884264 -0.0293071382 0
v -0.0606984273 -0.125745818 0
v -0.0126240356 -0.0220474061 0
v -0.0849289224 -0.113232911 0
v -0.0280599147 -0.0140844965 0
v -0.106610157 -0.09944392 0
v -0.0406541079 -0.00609343871 0
v -0.135693073 -0.0672246516 0
v -0.0373138078 -0.00903526507 0
v -0.149843752 -0.0359334648 0
v -0.0417765193 0.00129495491 0
v -0.158504665 -0.00478488207 0
v -0.0469998457 0.0203379896 0
v -0.164489955 0.0262069628 0
v -0.051784046 0.0452296883 0
v -0.169263303 0.0564154647 0
v -0.0562804788 0.0737184733 0
v -0.173776209 0.0846335813 0
v -0.0611518882 0.10413295 0
v -0.178654984 0.109153695 0
v -0.0673863888 0.135302603 0
v -0.183980823 0.127693236 0
v -0.0765178055 0.166631699 0
v -0.188407883 0.137437791 0
v -0.091506429 0.198056325 0
v -0.18771024 0.137178212 0
v -0.118192397 0.22790736 0
v -0.190171137 0.137095913 0
v -0.153076708 0.245209262 0
vt 0 0
vt 0 1
vt 0.0500000007 1
vt 0.0500000007 0
vt 0.100000001 1
vt 0.100000001 0
vt 0.150000006 1
vt 0.150000006 0
vt 0.200000003 1
vt 0.200000003 0
vt 0.25 1
vt 0.25 0
vt 0.300000012 1
vt 0.300000012 0
vt 0.350000024 1
vt 0.350000024 0
vt 0.400000036 1
vt 0.400000036 0
vt 0.450000048 1
vt 0.450000048 0
vt 0.50000006 1
vt 0.50000006 0
vt 0.550000072 1
vt 0.550000072 0
vt 0.600000083 1
vt 0.600000083 0
vt 0.650000095 1
vt 0.650000095 0
vt 0.700000107 1
vt 0.700000107 0
vt 0.750000119 1
vt 0.750000119 0
vt 0.800000131 1
vt 0.800000131 0
vt 0.850000143 1
vt 0.850000143 0
vt 0.900000155 1
vt 0.900000155 0
vt 0.950000167 1
vt 0.950000167 0
vt 1.00000012 1
vt 1.00000012 0
vn -0 0 1
vn -0 0 1
vn -0 0 1
vn -0 0 1
vn -0 0 1
vn -0 0 1
vn -0 0 1
vn -0 0 1
vn -0 0 1
vn -0 0 1
vn -0 0 1
vn -0 0 1
vn -0 0 1
vn -0 0 1
vn -0 0 1
vn -0 0 1
vn -0 0 1
vn -0 0 1
vn -0 0 1
vn -0 0 1
vn -0 0 1
vn -0 0 1
vn -0 0 1
vn -0 0 1
vn -0 0 1
vn -0 0 1
vn -0 0 1
vn -0 0 1
vn -0 0 1
vn -0 0 1
vn -0 0 1
vn -0 0 1
vn -0 0 1
vn -0 0 1
vn -0 0 1
vn -0 0 1
vn -0 0 1
vn -0 0 1
vn -0 0 1
vn -0 0 1
vn -0 0 1
vn -0 0 1
g Plane041_0
f 3/3/3 2/2/2 1/1/1
f 4/4/4 3/3/3 1/1/1
f 5/5/5 3/3/3 4/4/4
f 6/6/6 5/5/5 4/4/4
f 7/7/7 5/5/5 6/6/6
f 8/8/8 7/7/7 6/6/6
f 9/9/9 7/7/7 8/8/8
f 10/10/10 9/9/9 8/8/8
f 11/11/11 9/9/9 10/10/10
f 12/12/12 11/11/11 10/10/10
f 13/13/13 11/11/11 12/12/12
f 14/14/14 13/13/13 12/12/12
f 15/15/15 13/13/13 14/14/14
f 16/16/16 15/15/15 14/14/14
f 17/17/17 15/15/15 16/16/16
f 18/18/18 17/17/17 16/16/16
f 19/19/19 17/17/17 18/18/18
f 20/20/20 19/19/19 18/18/18
f 21/21/21 19/19/19 20/20/20
f 22/22/22 21/21/21 20/20/20
f 23/23/23 21/21/21 22/22/22
f 24/24/24 23/23/23 22/22/22
f 25/25/25 23/23/23 24/24/24
f 26/26/26 25/25/25 24/24/24
f 27/27/27 25/25/25 26/26/26
f 28/28/28 27/27/27 26/26/26
f 29/29/29 27/27/27 28/28/28
f 30/30/30 29/29/29 28/28/28
f 31/31/31 29/29/29 30/30/30
f 32/32/32 31/31/31 30/30/30
f 33/33/33 31/31/31 32/32/32
f 34/34/34 33/33/33 32/32/32
f 35/35/35 33/33/33 34/34/34
f 36/36/36 35/35/35 34/34/34
f 37/37/37 35/35/35 36/36/36
f 38/38/38 37/37/37 36/36/36
f 39/39/39 37/37/37 38/38/38
f 40/40/40 39/39/39 38/38/38
f 41/41/41 39/39/39 40/40/40
f 42/42/42 41/41/41 40/40/40
