g Plane043
v -0.0851188377 0.359753609 0
v 0.00318585197 0.363679916 0
v 0.00311996462 0.32307452 0
v -0.0851668939 0.327387184 0
v -0.000421098317 0.285546094 0
v -0.087951608 0.297855616 0
v -0.00677691167 0.251039684 0
v -0.0929573104 0.27068916 0
v -0.015230272 0.219480738 0
v -0.0997251123 0.245438069 0
v -0.0250283163 0.190758601 0
v -0.107832178 0.221688643 0
v -0.0354092717 0.164731815 0
v -0.116864182 0.199057549 0
v -0.0456251204 0.141254365 0
v -0.126393065 0.177166566 0
v -0.0549604036 0.120213762 0
v -0.135958567 0.155603632 0
v -0.0627620593 0.101572819 0
v -0.145037845 0.13388139 0
v -0.0685051233 0.0853922218 0
v -0.152979806 0.11141476 0
v -0.0719161555 0.0717679784 0
v -0.158881769 0.0875831917 0
v -0.0726674646 0.0658130571 0
v -0.160606086 0.0568723753 0
v -0.0714547485 0.0619653314 0
v -0.151971921 0.025494447 0
v -0.0659686476 0.0531315915 0
v -0.136640683 4.11796573E-05 0
v -0.0548094437 0.0403660201 0
v -0.118131936 -0.0213057492 0
v -0.0386594608 0.0249876212 0
v -0.0978839472 -0.0406294726 0
v -0.0187945887 0.00752575183 0
v -0.0767402798 -0.0592234433 0
v 0.00348719023 -0.0120309275 0
v -0.0555233546 -0.0778405741 0
v 0.0269507766 -0.0339969322 0
v -0.0351178162 -0.0969305411 0
v 0.0503762849 -0.0588715039 0
v -0.0164239965 -0.116758086 0
vt 0 0
vt 0 1
vt 0.0500000007 1
vt 0.0500000007 0
vt 0.100000001 1
vt 0.100000001 0
vt 0.150000006 1
vt 0.150000006 0
vt 0.200000003 1
vt 0.200000003 0
vt 0.25 1
vt 0.25 0
vt 0.300000012 1
vt 0.300000012 0
vt 0.350000024 1
vt 0.350000024 0
vt 0.400000036 1
vt 0.400000036 0
vt 0.450000048 1
vt 0.450000048 0
vt 0.50000006 1
vt 0.50000006 0
vt 0.550000072 1
vt 0.550000072 0
vt 0.600000083 1
vt 0.600000083 0
vt 0.650000095 1
vt 0.650000095 0
vt 0.700000107 1
vt 0.700000107 0
vt 0.750000119 1
vt 0.750000119 0
vt 0.800000131 1
vt 0.800000131 0
vt 0.850000143 1
vt 0.850000143 0
vt 0.900000155 1
vt 0.900000155 0
vt 0.950000167 1
vt 0.950000167 0
vt 1.00000012 1
vt 1.00000012 0
vn -0 0 1
vn -0 0 1
vn -0 0 1
vn -0 0 1
vn -0 0 1
vn -0 0 1
vn -0 0 1
vn -0 0 1
vn -0 0 1
vn -0 0 1
vn -0 0 1
vn -0 0 1
vn -0 0 1
vn -0 0 1
vn -0 0 1
vn -0 0 1
vn -0 0 1
vn -0 0 1
vn -0 0 1
vn -0 0 1
vn -0 0 1
vn -0 0 1
vn -0 0 1
vn -0 0 1
vn -0 0 1
vn -0 0 1
vn -0 0 1
vn -0 0 1
vn -0 0 1
vn -0 0 1
vn -0 0 1
vn -0 0 1
vn -0 0 1
vn -0 0 1
vn -0 0 1
vn -0 0 1
vn -0 0 1
vn -0 0 1
vn -0 0 1
vn -0 0 1
vn -0 0 1
vn -0 0 1
g Plane043_0
f 3/3/3 2/2/2 1/1/1
f 4/4/4 3/3/3 1/1/1
f 5/5/5 3/3/3 4/4/4
f 6/6/6 5/5/5 4/4/4
f 7/7/7 5/5/5 6/6/6
f 8/8/8 7/7/7 6/6/6
f 9/9/9 7/7/7 8/8/8
f 10/10/10 9/9/9 8/8/8
f 11/11/11 9/9/9 10/10/10
f 12/12/12 11/11/11 10/10/10
f 13/13/13 11/11/11 12/12/12
f 14/14/14 13/13/13 12/12/12
f 15/15/15 13/13/13 14/14/14
f 16/16/16 15/15/15 14/14/14
f 17/17/17 15/15/15 16/16/16
f 18/18/18 17/17/17 16/16/16
f 19/19/19 17/17/17 18/18/18
f 20/20/20 19/19/19 18/18/18
f 21/21/21 19/19/19 20/20/20
f 22/22/22 21/21/21 20/20/20
f 23/23/23 21/21/21 22/22/22
f 24/24/24 23/23/23 22/22/22
f 25/25/25 23/23/23 24/24/24
f 26/26/26 25/25/25 24/24/24
f 27/27/27 25/25/25 26/26/26
f 28/28/28 27/27/27 26/26/26
f 29/29/29 27/27/27 28/28/28
f 30/30/30 29/29/29 28/28/28
f 31/31/31 29/29/29 30/30/30
f 32/32/32 31/31/31 30/30/30
f 33/33/33 31/31/31 32/32/32
f 34/34/34 33/33/33 32/32/32
f 35/35/35 33/33/33 34/34/34
f 36/36/36 35/35/35 34/34/34
f 37/37/37 35/35/35 36/36/36
f 38/38/38 37/37/37 36/36/36
f 39/39/39 37/37/37 38/38/38
f 40/40/40 39/39/39 38/38/38
f 41/41/41 39/39/39 40/40/40
f 42/42/42 41/41/41 40/40/40
