g Plane013
v -0.095433712 0.00989731215 0
v 0.0993656367 -0.00329238619 0
v 0.0980037078 -0.0264427178 0
v -0.0972394124 -0.0254575051 0
v 0.0988707095 -0.0423018262 0
v -0.0952825546 -0.062925905 0
v 0.101866648 -0.0616902746 0
v -0.0896890983 -0.0994696543 0
v 0.107168265 -0.0841072202 0
v -0.0812438801 -0.135310203 0
v 0.114742994 -0.109049305 0
v -0.0705228299 -0.170672193 0
v 0.124428451 -0.136071339 0
v -0.0579712652 -0.205721259 0
v 0.135987431 -0.164797649 0
v -0.0439616553 -0.240554407 0
v 0.149144769 -0.194913536 0
v -0.0288269222 -0.275206566 0
v 0.163605511 -0.226155043 0
v -0.012880221 -0.309663177 0
v 0.179067358 -0.258297563 0
v 0.00357265002 -0.34386912 0
v 0.195223734 -0.291148841 0
v 0.0202286094 -0.377737015 0
v 0.2117704 -0.324545324 0
v 0.0367845744 -0.41115272 0
v 0.228403106 -0.358347744 0
v 0.0529359169 -0.443975508 0
v 0.244819939 -0.392442763 0
v 0.0683760568 -0.476039529 0
v 0.260719359 -0.426745415 0
v 0.0827984363 -0.507150888 0
v 0.275797129 -0.461203814 0
v 0.0958987996 -0.537081957 0
v 0.289740056 -0.495807528 0
v 0.107381038 -0.56556356 0
v 0.302217215 -0.530599892 0
v 0.116968825 -0.592274487 0
v 0.312855721 -0.56568861 0
v 0.124426126 -0.61682719 0
v 0.321204811 -0.601256549 0
v 0.12959519 -0.638759673 0
v 0.326675802 -0.637550831 0
v 0.132456645 -0.657545626 0
v 0.328451663 -0.674816251 0
v 0.133218229 -0.672660887 0
v 0.323790312 -0.721205473 0
v 0.131991163 -0.684681714 0
v 0.311540663 -0.765833974 0
v 0.127720878 -0.700023353 0
v 0.293407679 -0.807398498 0
v 0.119860515 -0.71794337 0
v 0.270524561 -0.846032083 0
v 0.108445704 -0.737168729 0
v 0.243645981 -0.881784737 0
v 0.0938900039 -0.756509066 0
v 0.213295892 -0.914562404 0
v 0.0768394917 -0.774918497 0
v 0.179840565 -0.944130719 0
v 0.0580945164 -0.791491628 0
v 0.1435114 -0.970119059 0
v 0.0385929942 -0.805458844 0
v 0.104394786 -0.991995156 0
v 0.01941742 -0.816212177 0
v 0.0624295212 -1.00898159 0
v 0.00179717713 -0.823389292 0
v 0.0174811035 -1.01989257 0
v -0.0129635492 -0.827035248 0
v -0.0225428101 -1.02359915 0
v -0.0351385511 -0.828760326 0
v -0.0552505031 -1.02571356 0
v -0.0678462461 -0.830874741 0
v -0.0879581943 -1.0278281 0
v -0.100553937 -0.832989275 0
vt 0 0
vt 0 1
vt 0.027777778 1
vt 0.027777778 0
vt 0.055555556 1
vt 0.055555556 0
vt 0.0833333358 1
vt 0.0833333358 0
vt 0.111111112 1
vt 0.111111112 0
vt 0.138888896 1
vt 0.138888896 0
vt 0.166666672 1
vt 0.166666672 0
vt 0.194444448 1
vt 0.194444448 0
vt 0.222222224 1
vt 0.222222224 0
vt 0.25 1
vt 0.25 0
vt 0.277777791 1
vt 0.277777791 0
vt 0.305555582 1
vt 0.305555582 0
vt 0.333333373 1
vt 0.333333373 0
vt 0.361111164 1
vt 0.361111164 0
vt 0.388888955 1
vt 0.388888955 0
vt 0.416666746 1
vt 0.416666746 0
vt 0.444444537 1
vt 0.444444537 0
vt 0.472222328 1
vt 0.472222328 0
vt 0.500000119 1
vt 0.500000119 0
vt 0.52777791 1
vt 0.52777791 0
vt 0.555555701 1
vt 0.555555701 0
vt 0.583333492 1
vt 0.583333492 0
vt 0.611111283 1
vt 0.611111283 0
vt 0.638889074 1
vt 0.638889074 0
vt 0.666666865 1
vt 0.666666865 0
vt 0.694444656 1
vt 0.694444656 0
vt 0.722222447 1
vt 0.722222447 0
vt 0.750000238 1
vt 0.750000238 0
vt 0.777778029 1
vt 0.777778029 0
vt 0.80555582 1
vt 0.80555582 0
vt 0.833333611 1
vt 0.833333611 0
vt 0.861111403 1
vt 0.861111403 0
vt 0.888889194 1
vt 0.888889194 0
vt 0.916666985 1
vt 0.916666985 0
vt 0.944444776 1
vt 0.944444776 0
vt 0.972222567 1
vt 0.972222567 0
vt 1.00000036 1
vt 1.00000036 0
vn -0 0 1
vn -0 0 1
vn -0 0 1
vn -0 0 1
vn -0 0 1
vn -0 0 1
vn -0 0 1
vn -0 0 1
vn -0 0 1
vn -0 0 1
vn -0 0 1
vn -0 0 1
vn -0 0 1
vn -0 0 1
vn -0 0 1
vn -0 0 1
vn -0 0 1
vn -0 0 1
vn -0 0 1
vn -0 0 1
vn -0 0 1
vn -0 0 1
vn -0 0 1
vn -0 0 1
vn -0 0 1
vn -0 0 1
vn -0 0 1
vn -0 0 1
vn -0 0 1
vn -0 0 1
vn -0 0 1
vn -0 0 1
vn -0 0 1
vn -0 0 1
vn -0 0 1
vn -0 0 1
vn -0 0 1
vn -0 0 1
vn -0 0 1
vn -0 0 1
vn -0 0 1
vn -0 0 1
vn -0 0 1
vn -0 0 1
vn -0 0 1
vn -0 0 1
vn -0 0 1
vn -0 0 1
vn -0 0 1
vn -0 0 1
vn -0 0 1
vn -0 0 1
vn -0 0 1
vn -0 0 1
vn -0 0 1
vn -0 0 1
vn -0 0 1
vn -0 0 1
vn -0 0 1
vn -0 0 1
vn -0 0 1
vn -0 0 1
vn -0 0 1
vn -0 0 1
vn -0 0 1
vn -0 0 1
vn -0 0 1
vn -0 0 1
vn -0 0 1
vn -0 0 1
vn -0 0 1
vn -0 0 1
vn -0 0 1
vn -0 0 1
g Plane013_0
f 3/3/3 2/2/2 1/1/1
f 4/4/4 3/3/3 1/1/1
f 5/5/5 3/3/3 4/4/4
f 6/6/6 5/5/5 4/4/4
f 7/7/7 5/5/5 6/6/6
f 8/8/8 7/7/7 6/6/6
f 9/9/9 7/7/7 8/8/8
f 10/10/10 9/9/9 8/8/8
f 11/11/11 9/9/9 10/10/10
f 12/12/12 11/11/11 10/10/10
f 13/13/13 11/11/11 12/12/12
f 14/14/14 13/13/13 12/12/12
f 15/15/15 13/13/13 14/14/14
f 16/16/16 15/15/15 14/14/14
f 17/17/17 15/15/15 16/16/16
f 18/18/18 17/17/17 16/16/16
f 19/19/19 17/17/17 18/18/18
f 20/20/20 19/19/19 18/18/18
f 21/21/21 19/19/19 20/20/20
f 22/22/22 21/21/21 20/20/20
f 23/23/23 21/21/21 22/22/22
f 24/24/24 23/23/23 22/22/22
f 25/25/25 23/23/23 24/24/24
f 26/26/26 25/25/25 24/24/24
f 27/27/27 25/25/25 26/26/26
f 28/28/28 27/27/27 26/26/26
f 29/29/29 27/27/27 28/28/28
f 30/30/30 29/29/29 28/28/28
f 31/31/31 29/29/29 30/30/30
f 32/32/32 31/31/31 30/30/30
f 33/33/33 31/31/31 32/32/32
f 34/34/34 33/33/33 32/32/32
f 35/35/35 33/33/33 34/34/34
f 36/36/36 35/35/35 34/34/34
f 37/37/37 35/35/35 36/36/36
f 38/38/38 37/37/37 36/36/36
f 39/39/39 37/37/37 38/38/38
f 40/40/40 39/39/39 38/38/38
f 41/41/41 39/39/39 40/40/40
f 42/42/42 41/41/41 40/40/40
f 43/43/43 41/41/41 42/42/42
f 44/44/44 43/43/43 42/42/42
f 45/45/45 43/43/43 44/44/44
f 46/46/46 45/45/45 44/44/44
f 47/47/47 45/45/45 46/46/46
f 48/48/48 47/47/47 46/46/46
f 49/49/49 47/47/47 48/48/48
f 50/50/50 49/49/49 48/48/48
f 51/51/51 49/49/49 50/50/50
f 52/52/52 51/51/51 50/50/50
f 53/53/53 51/51/51 52/52/52
f 54/54/54 53/53/53 52/52/52
f 55/55/55 53/53/53 54/54/54
f 56/56/56 55/55/55 54/54/54
f 57/57/57 55/55/55 56/56/56
f 58/58/58 57/57/57 56/56/56
f 59/59/59 57/57/57 58/58/58
f 60/60/60 59/59/59 58/58/58
f 61/61/61 59/59/59 60/60/60
f 62/62/62 61/61/61 60/60/60
f 63/63/63 61/61/61 62/62/62
f 64/64/64 63/63/63 62/62/62
f 65/65/65 63/63/63 64/64/64
f 66/66/66 65/65/65 64/64/64
f 67/67/67 65/65/65 66/66/66
f 68/68/68 67/67/67 66/66/66
f 69/69/69 67/67/67 68/68/68
f 70/70/70 69/69/69 68/68/68
f 71/71/71 69/69/69 70/70/70
f 72/72/72 71/71/71 70/70/70
f 73/73/73 71/71/71 72/72/72
f 74/74/74 73/73/73 72/72/72
