g Plane008
v -0.124796115 0.125360548 0
v -0.111361422 0.109802768 0
v -0.189793482 0.0684976131 0
v -0.178011075 0.0548857972 0
v -0.0979466885 0.0924530253 0
v -0.167683318 0.0415133275 0
v -0.0857659876 0.0750826448 0
v -0.157248348 0.0266231503 0
v -0.0744364932 0.0580640249 0
v -0.146560341 0.0105645256 0
v -0.0636483654 0.0417576618 0
v -0.135400549 -0.0063014077 0
v -0.0531638563 0.0265248884 0
v -0.123478241 -0.0236143284 0
v -0.0428179279 0.0127204927 0
v -0.110429786 -0.0410074294 0
v -0.0325163789 0.000663585961 0
v -0.0958208442 -0.0580781996 0
v -0.0222140998 -0.00941654015 0
v -0.0791679397 -0.0743342787 0
v -0.0118427603 -0.0174474213 0
v -0.0600107983 -0.0891265124 0
v -0.00116775814 -0.0235384014 0
v -0.0380554274 -0.101623945 0
v 0.00861754548 -0.0270255189 0
v -0.00891096238 -0.111587934 0
v 0.015130084 -0.0274989139 0
v 0.021086745 -0.11365325 0
v 0.0223245099 -0.0260532908 0
v 0.0478864647 -0.108543515 0
v 0.0327518284 -0.0218048226 0
v 0.0701847672 -0.0996304378 0
v 0.0467499085 -0.0143875303 0
v 0.0888910368 -0.0897677541 0
v 0.0642535388 -0.00463636918 0
v 0.105318181 -0.0806083903 0
v 0.0855543241 0.00590839051 0
v 0.120422103 -0.0730997771 0
v 0.111106053 0.0152533203 0
v 0.134996459 -0.067736432 0
v 0.133817464 0.020611085 0
v 0.152284265 -0.0637513995 0
vt 0 1
vt 0.0500000007 1
vt 0 0
vt 0.0500000007 0
vt 0.100000001 1
vt 0.100000001 0
vt 0.150000006 1
vt 0.150000006 0
vt 0.200000003 1
vt 0.200000003 0
vt 0.25 1
vt 0.25 0
vt 0.300000012 1
vt 0.300000012 0
vt 0.350000024 1
vt 0.350000024 0
vt 0.400000036 1
vt 0.400000036 0
vt 0.450000048 1
vt 0.450000048 0
vt 0.50000006 1
vt 0.50000006 0
vt 0.550000072 1
vt 0.550000072 0
vt 0.600000083 1
vt 0.600000083 0
vt 0.650000095 1
vt 0.650000095 0
vt 0.700000107 1
vt 0.700000107 0
vt 0.750000119 1
vt 0.750000119 0
vt 0.800000131 1
vt 0.800000131 0
vt 0.850000143 1
vt 0.850000143 0
vt 0.900000155 1
vt 0.900000155 0
vt 0.950000167 1
vt 0.950000167 0
vt 1.00000012 1
vt 1.00000012 0
vn -0 0 1
vn -0 0 1
vn -0 0 1
vn -0 0 1
vn -0 0 1
vn -0 0 1
vn -0 0 1
vn -0 0 1
vn -0 0 1
vn -0 0 1
vn -0 0 1
vn -0 0 1
vn -0 0 1
vn -0 0 1
vn -0 0 1
vn -0 0 1
vn -0 0 1
vn -0 0 1
vn -0 0 1
vn -0 0 1
vn -0 0 1
vn -0 0 1
vn -0 0 1
vn -0 0 1
vn -0 0 1
vn -0 0 1
vn -0 0 1
vn -0 0 1
vn -0 0 1
vn -0 0 1
vn -0 0 1
vn -0 0 1
vn -0 0 1
vn -0 0 1
vn -0 0 1
vn -0 0 1
vn -0 0 1
vn -0 0 1
vn -0 0 1
vn -0 0 1
vn -0 0 1
vn -0 0 1
g Plane008_0
f 3/3/3 2/2/2 1/1/1
f 2/2/2 3/3/3 4/4/4
f 4/4/4 5/5/5 2/2/2
f 5/5/5 4/4/4 6/6/6
f 6/6/6 7/7/7 5/5/5
f 7/7/7 6/6/6 8/8/8
f 8/8/8 9/9/9 7/7/7
f 9/9/9 8/8/8 10/10/10
f 10/10/10 11/11/11 9/9/9
f 11/11/11 10/10/10 12/12/12
f 12/12/12 13/13/13 11/11/11
f 13/13/13 12/12/12 14/14/14
f 14/14/14 15/15/15 13/13/13
f 15/15/15 14/14/14 16/16/16
f 16/16/16 17/17/17 15/15/15
f 17/17/17 16/16/16 18/18/18
f 18/18/18 19/19/19 17/17/17
f 19/19/19 18/18/18 20/20/20
f 20/20/20 21/21/21 19/19/19
f 21/21/21 20/20/20 22/22/22
f 22/22/22 23/23/23 21/21/21
f 23/23/23 22/22/22 24/24/24
f 24/24/24 25/25/25 23/23/23
f 25/25/25 24/24/24 26/26/26
f 26/26/26 27/27/27 25/25/25
f 27/27/27 26/26/26 28/28/28
f 28/28/28 29/29/29 27/27/27
f 29/29/29 28/28/28 30/30/30
f 30/30/30 31/31/31 29/29/29
f 31/31/31 30/30/30 32/32/32
f 32/32/32 33/33/33 31/31/31
f 33/33/33 32/32/32 34/34/34
f 34/34/34 35/35/35 33/33/33
f 35/35/35 34/34/34 36/36/36
f 36/36/36 37/37/37 35/35/35
f 37/37/37 36/36/36 38/38/38
f 38/38/38 39/39/39 37/37/37
f 39/39/39 38/38/38 40/40/40
f 40/40/40 41/41/41 39/39/39
f 41/41/41 40/40/40 42/42/42
