g general_plane_153
v 0.0809352249 0.0483039096 -0.171961725
v 0.0825208426 -1.03112768E-07 -0.174292773
v 0.0833213553 -1.01250123E-07 -0.149906501
v 0.0817203522 0.0487724915 -0.147426084
v 0.0825208426 -1.03112768E-07 -0.125520214
v 0.0762393177 0.0947516263 -0.169831514
v 0.0809352249 0.0483039096 -0.123189166
v 0.0769788921 0.095670782 -0.145071447
v 0.0686135814 0.137558103 -0.166685984
v 0.0762393177 0.0947516263 -0.121058933
v 0.0692791715 0.138892502 -0.141880557
v 0.0583510548 0.175078288 -0.157991141
v 0.0686135814 0.137558103 -0.11791341
v 0.0589170977 0.176776648 -0.133205667
v 0.0458461344 0.205870301 -0.14434582
v 0.0583510548 0.175078288 -0.109218568
v 0.046290867 0.207867369 -0.119443752
v 0.0315793678 0.228750855 -0.128749207
v 0.0458461344 0.205870301 -0.0955732465
v 0.0318857022 0.230969861 -0.103652358
v 0.0160990208 0.242840618 -0.114723518
v 0.0315793678 0.228750855 -0.0799766332
v 0.0162551906 0.245196313 -0.0894393027
v -0 0.247598171 -0.102927059
v 0.0160990208 0.242840618 -0.065950945
v -0 0.25 -0.0774897933
v -0.0160989873 0.242840424 -0.0911523327
v -0 0.247598156 -0.0541544892
v -0.0162551571 0.245196134 -0.0655748099
v -0.0315793194 0.228750691 -0.0772017017
v -0.0160989873 0.242840424 -0.0423797667
v -0.0318856612 0.230969727 -0.0514874049
v -0.0458460823 0.205870196 -0.0617076829
v -0.0315793194 0.228750691 -0.028429132
v -0.0462908186 0.20786728 -0.0359140858
v -0.0583510026 0.175078213 -0.0483053327
v -0.0458460823 0.205870196 -0.0129351187
v -0.0589170456 0.176776603 -0.0226085819
v -0.0686135292 0.137558073 -0.039643988
v -0.0583510026 0.175078213 0.000467231497
v -0.0692791268 0.138892487 -0.0140686072
v -0.076239273 0.0947516486 -0.0336060375
v -0.0686135292 0.137558073 0.0091285836
v -0.0769788474 0.0956708044 -0.00819883589
v -0.0809351876 0.0483039618 -0.029519612
v -0.076239273 0.0947516486 0.0151665341
v -0.0817203149 0.0487725399 -0.00436536409
v -0.0825208127 -2.958339E-08 -0.026181493
v -0.0809351876 0.0483039618 0.0192529559
v -0.083321318 -3.51512419E-08 -0.00133572577
v -0.0825208127 -2.958339E-08 0.0225910768
vt 0.0600585938 0.991699219
vt -0.00244140625 0.991699219
vt -0.00244140625 0.500488281
vt 0.0600585938 0.500488281
vt -0.00244140625 0.00927734375
vt 0.122558594 0.991699219
vt 0.0600585938 0.00927734375
vt 0.122558594 0.500488281
vt 0.184082031 0.991699219
vt 0.122558594 0.00927734375
vt 0.184082031 0.500488281
vt 0.246582031 0.991699219
vt 0.184082031 0.00927734375
vt 0.246582031 0.500488281
vt 0.309082031 0.991699219
vt 0.246582031 0.00927734375
vt 0.309082031 0.500488281
vt 0.371582031 0.991699219
vt 0.309082031 0.00927734375
vt 0.371582031 0.500488281
vt 0.434082031 0.991699219
vt 0.371582031 0.00927734375
vt 0.434082031 0.500488281
vt 0.496582031 0.991699219
vt 0.434082031 0.00927734375
vt 0.496582031 0.500488281
vt 0.558105469 0.991699219
vt 0.496582031 0.00927734375
vt 0.558105469 0.500488281
vt 0.620605469 0.991699219
vt 0.558105469 0.00927734375
vt 0.620605469 0.500488281
vt 0.683105469 0.991699219
vt 0.620605469 0.00927734375
vt 0.683105469 0.500488281
vt 0.745605469 0.991699219
vt 0.683105469 0.00927734375
vt 0.745605469 0.500488281
vt 0.808105469 0.991699219
vt 0.745605469 0.00927734375
vt 0.808105469 0.500488281
vt 0.869628906 0.991699219
vt 0.808105469 0.00927734375
vt 0.869628906 0.500488281
vt 0.932128906 0.991699219
vt 0.869628906 0.00927734375
vt 0.932128906 0.500488281
vt 0.994628906 0.991699219
vt 0.932128906 0.00927734375
vt 0.994628906 0.500488281
vt 0.994628906 0.00927734375
vn 0.997237444 0.0664666817 -0.0331591032
vn 0.998872459 0.0344097875 -0.0327046961
vn 0.999459445 0.0328606665 -0.0010608033
vn 0.997784972 0.0665218309 0
vn 0.998973489 0.0311626084 0.0328776091
vn 0.990018368 0.136596113 -0.0347125418
vn 0.997319162 0.0650070384 0.033592578
vn 0.990489006 0.137591779 -0.000254283921
vn 0.975549102 0.216495574 -0.0378636941
vn 0.990197062 0.135064393 0.0355991311
vn 0.97566843 0.219244182 -0.00178057735
vn 0.94836843 0.31422326 -0.0431388505
vn 0.976000369 0.214251548 0.0389829278
vn 0.947505057 0.319731563 -0.00242009363
vn 0.895723403 0.441631943 -0.0513889007
vn 0.949475229 0.3106803 0.044435218
vn 0.892298043 0.45144105 -0.00231035124
vn 0.785195172 0.615925789 -0.0640621036
vn 0.896455586 0.439887404 0.0535406992
vn 0.774777353 0.632232606 -0.00142080325
vn 0.536498964 0.839945674 -0.0816094279
vn 0.777829349 0.624715686 0.0686423481
vn 0.505948842 0.862563252 -0.00062069681
vn 0.0430109464 0.994647324 -0.0939509198
vn 0.49526605 0.864070058 0.0899698734
vn -0.00506730145 0.999987245 0
vn -0.490540713 0.867464602 -0.0829165131
vn -0.0366624594 0.994074643 0.102331005
vn -0.512405336 0.858743489 0.000602915476
vn -0.77551496 0.628130198 -0.0634752139
vn -0.532256842 0.841883898 0.089073278
vn -0.777317703 0.629106641 0.00142650225
vn -0.895483494 0.442308307 -0.0497267954
vn -0.783191442 0.617851555 0.0697892532
vn -0.893137276 0.449777693 0.00239975541
vn -0.949150801 0.31207478 -0.0414994061
vn -0.89501673 0.442550033 0.0556281917
vn -0.947790444 0.318885535 0.00230363291
vn -0.976002753 0.21466139 -0.0365954228
vn -0.948069274 0.314665049 0.0463735312
vn -0.975776494 0.218767464 0.000997290015
vn -0.990263581 0.135057926 -0.0337244645
vn -0.975292504 0.217184156 0.0404404178
vn -0.99049449 0.137551352 0.000579773448
vn -0.997346282 0.0652194843 -0.0323521197
vn -0.989918828 0.136806428 0.0366702192
vn -0.99778676 0.066495277 0.000202868629
vn -0.999017358 0.0306966528 -0.0319691487
vn -0.997200966 0.0663667321 0.0344343372
vn -0.999458015 0.0328931622 0.00129614468
vn -0.998820603 0.0349948592 0.0336556099
g general_plane_153_0
f 3/3/3 2/2/2 1/1/1
f 4/4/4 3/3/3 1/1/1
f 5/5/5 3/3/3 4/4/4
f 4/4/4 1/1/1 6/6/6
f 7/7/7 5/5/5 4/4/4
f 8/8/8 4/4/4 6/6/6
f 7/7/7 4/4/4 8/8/8
f 8/8/8 6/6/6 9/9/9
f 10/10/10 7/7/7 8/8/8
f 11/11/11 8/8/8 9/9/9
f 10/10/10 8/8/8 11/11/11
f 11/11/11 9/9/9 12/12/12
f 13/13/13 10/10/10 11/11/11
f 14/14/14 11/11/11 12/12/12
f 13/13/13 11/11/11 14/14/14
f 14/14/14 12/12/12 15/15/15
f 16/16/16 13/13/13 14/14/14
f 17/17/17 14/14/14 15/15/15
f 16/16/16 14/14/14 17/17/17
f 17/17/17 15/15/15 18/18/18
f 19/19/19 16/16/16 17/17/17
f 20/20/20 17/17/17 18/18/18
f 19/19/19 17/17/17 20/20/20
f 20/20/20 18/18/18 21/21/21
f 22/22/22 19/19/19 20/20/20
f 23/23/23 20/20/20 21/21/21
f 22/22/22 20/20/20 23/23/23
f 23/23/23 21/21/21 24/24/24
f 25/25/25 22/22/22 23/23/23
f 26/26/26 23/23/23 24/24/24
f 25/25/25 23/23/23 26/26/26
f 26/26/26 24/24/24 27/27/27
f 28/28/28 25/25/25 26/26/26
f 29/29/29 26/26/26 27/27/27
f 28/28/28 26/26/26 29/29/29
f 29/29/29 27/27/27 30/30/30
f 31/31/31 28/28/28 29/29/29
f 32/32/32 29/29/29 30/30/30
f 31/31/31 29/29/29 32/32/32
f 32/32/32 30/30/30 33/33/33
f 34/34/34 31/31/31 32/32/32
f 35/35/35 32/32/32 33/33/33
f 34/34/34 32/32/32 35/35/35
f 35/35/35 33/33/33 36/36/36
f 37/37/37 34/34/34 35/35/35
f 38/38/38 35/35/35 36/36/36
f 37/37/37 35/35/35 38/38/38
f 38/38/38 36/36/36 39/39/39
f 40/40/40 37/37/37 38/38/38
f 41/41/41 38/38/38 39/39/39
f 40/40/40 38/38/38 41/41/41
f 41/41/41 39/39/39 42/42/42
f 43/43/43 40/40/40 41/41/41
f 44/44/44 41/41/41 42/42/42
f 43/43/43 41/41/41 44/44/44
f 44/44/44 42/42/42 45/45/45
f 46/46/46 43/43/43 44/44/44
f 47/47/47 44/44/44 45/45/45
f 46/46/46 44/44/44 47/47/47
f 47/47/47 45/45/45 48/48/48
f 49/49/49 46/46/46 47/47/47
f 50/50/50 47/47/47 48/48/48
f 49/49/49 47/47/47 50/50/50
f 51/51/51 49/49/49 50/50/50
