g general_quad_transparent_01
v 0.400000006 -0.5 0
v 0.5 0.5 0
v 0.5 -0.5 0
v 0.400000006 0.5 0
v 0.300000012 -0.5 0
v 0.300000012 0.5 0
v 0.200000003 -0.5 0
v 0.200000018 0.5 0
v 0.100000001 -0.5 0
v 0.100000009 0.5 0
v -0 -0.5 0
v -0 0.5 0
v -0.100000009 -0.5 0
v -0.100000001 0.5 0
v -0.200000018 -0.5 0
v -0.200000003 0.5 0
v -0.300000012 -0.5 0
v -0.300000012 0.5 0
v -0.400000006 -0.5 0
v -0.400000006 0.5 0
v -0.5 -0.5 0
v -0.5 0.5 0
vt 0.899999976 0
vt 1 1
vt 1 0
vt 0.899999976 1
vt 0.800000012 0
vt 0.800000012 1
vt 0.700000048 0
vt 0.699999988 1
vt 0.600000024 0
vt 0.600000024 1
vt 0.5 0
vt 0.5 1
vt 0.400000036 0
vt 0.400000036 1
vt 0.300000012 0
vt 0.300000012 1
vt 0.200000003 0
vt 0.200000003 1
vt 0.100000001 0
vt 0.100000001 1
vt 0 0
vt 0 1
vn -0 0 1
vn -0 0 1
vn -0 0 1
vn -0 0 1
vn -0 0 1
vn -0 0 1
vn -0 0 1
vn -0 0 1
vn -0 0 1
vn -0 0 1
vn -0 0 1
vn -0 0 1
vn -0 0 1
vn -0 0 1
vn -0 0 1
vn -0 0 1
vn -0 0 1
vn -0 0 1
vn -0 0 1
vn -0 0 1
vn -0 0 1
vn -0 0 1
g general_quad_transparent_01_0
f 3/3/3 2/2/2 1/1/1
f 2/2/2 4/4/4 1/1/1
f 1/1/1 4/4/4 5/5/5
f 4/4/4 6/6/6 5/5/5
f 5/5/5 6/6/6 7/7/7
f 6/6/6 8/8/8 7/7/7
f 7/7/7 8/8/8 9/9/9
f 8/8/8 10/10/10 9/9/9
f 9/9/9 10/10/10 11/11/11
f 10/10/10 12/12/12 11/11/11
f 11/11/11 12/12/12 13/13/13
f 12/12/12 14/14/14 13/13/13
f 13/13/13 14/14/14 15/15/15
f 14/14/14 16/16/16 15/15/15
f 15/15/15 16/16/16 17/17/17
f 16/16/16 18/18/18 17/17/17
f 17/17/17 18/18/18 19/19/19
f 18/18/18 20/20/20 19/19/19
f 19/19/19 20/20/20 21/21/21
f 20/20/20 22/22/22 21/21/21
