g general_plane_151
v -1.21709108 1.95762204E-05 0
v -1.18491066 0.00511760358 0
v -1.18491066 0.00265983352 0
v -1.15273011 0.00988087524 0
v -1.15273011 0.00512850378 0
v -1.12054968 0.0142584816 0
v -1.18491066 0.000118047035 0
v -1.21709108 1.95762204E-05 0
v -1.12054968 0.00739928195 0
v -1.08836913 0.0182083379 0
v -1.15273023 0.000214432046 0
v -1.08836913 0.00944728125 0
v -1.05618858 0.0216878783 0
v -1.18491066 -0.00242385175 0
v -1.21709108 1.95762204E-05 0
v -1.12054968 0.000307737675 0
v -1.05618858 0.0112529248 0
v -1.02400815 0.0246672053 0
v -1.15273023 -0.00470012007 0
v -1.08836913 0.000397072523 0
v -1.02400815 0.0128003797 0
v -0.991827607 0.027110111 0
v -1.18491066 -0.00505142612 0
v -1.21709108 1.95762204E-05 0
v -1.15273023 -0.00978046749 0
v -1.12054968 -0.00678422768 0
v -1.12054968 -0.0141172595 0
v -1.08836913 -0.00865301676 0
v -1.08836913 -0.0180215463 0
v -1.0561887 0.000481658411 0
v -1.0561887 -0.0102892658 0
v -1.0561887 -0.0214466434 0
v -1.02400815 0.000560758868 0
v -1.02400815 -0.0116783343 0
v -1.02400815 -0.0243640542 0
v -0.991827607 0.0140774045 0
v -0.959647119 0.0290097855 0
v -0.991827667 -0.0128092226 0
v -0.991827667 -0.0267409179 0
v -0.991827607 0.000633760006 0
v -0.959647119 0.0150757171 0
v -0.927466631 0.0303584803 0
v -0.959647179 -0.0136746475 0
v -0.959647179 -0.0285696276 0
v -0.959647179 0.000700161734 0
v -0.927466631 0.015791079 0
v -0.895286083 0.0311564729 0
v -0.927466691 -0.0142711988 0
v -0.927466691 -0.0298430286 0
v -0.927466631 0.000759546878 0
v -0.895286143 0.0162233468 0
v -0.863105595 0.0314120874 0
v -0.895286202 -0.0145993317 0
v -0.895286202 -0.0305620153 0
v -0.895286143 0.000811615959 0
v -0.863105655 0.016376514 0
v -0.830925107 0.0311416425 0
v -0.863105655 -0.0146634206 0
v -0.863105714 -0.0307355803 0
v -0.863105655 0.000856175029 0
v -0.830925107 0.0162587017 0
v -0.798744559 0.0303693973 0
v -0.830925167 -0.0144717488 0
v -0.830925226 -0.0303807594 0
v -0.830925167 0.000893136719 0
v -0.798744619 0.0158821438 0
v -0.766564071 0.0291274153 0
v -0.798744678 -0.0140364971 0
v -0.798744678 -0.0295225792 0
v -0.798744678 0.000922520005 0
v -0.766564131 0.0152631113 0
v -0.734383583 0.0313908197 0
v -0.76656419 -0.0133736813 0
v -0.76656419 -0.0281939022 0
v -0.766564131 0.000944454805 0
v -0.734383583 0.0164309647 0
v -0.702203095 0.0332995541 0
v -0.734383702 -0.0144724688 0
v -0.734383702 -0.030463703 0
v -0.734383643 0.000978974975 0
v -0.702203155 0.0174185075 0
v -0.670022607 0.0348054133 0
v -0.702203155 -0.0153927701 0
v -0.702203214 -0.0323686935 0
v -0.702203155 0.00101259933 0
v -0.670022607 0.0182006732 0
v -0.637842059 0.0358673632 0
v -0.670022666 -0.0161112584 0
v -0.670022726 -0.0338608027 0
v -0.670022607 0.00104445545 0
v -0.637842119 0.0187561251 0
v -0.605661571 0.0364517681 0
v -0.637842178 -0.0166081153 0
v -0.637842178 -0.0348991528 0
v -0.637842119 0.00107378315 0
v -0.605661571 0.0190673396 0
v -0.573481083 0.0365325548 0
v -0.605661631 -0.0168671459 0
v -0.60566169 -0.0354503095 0
v -0.605661631 0.00109991338 0
v -0.573481083 0.019120723 0
v -0.541300595 0.0360913388 0
v -0.573481143 -0.0168759022 0
v -0.573481202 -0.0354884639 0
v -0.573481143 0.00112227187 0
v -0.541300595 0.0189066883 0
v -0.509120047 0.0351174995 0
v -0.541300654 -0.0166256893 0
v -0.541300714 -0.0349955186 0
v -0.541300654 0.00114040566 0
v -0.509120107 0.0184196532 0
v -0.476939559 0.0336082429 0
v -0.509120166 -0.0161116552 0
v -0.509120166 -0.033961229 0
v -0.509120107 0.00115394965 0
v -0.476939589 0.0176580921 0
v -0.444759071 0.0383363813 0
v -0.476939648 -0.0153327845 0
v -0.476939678 -0.0323831886 0
v -0.476939619 0.00116265134 0
v -0.444759071 0.0200747624 0
v -0.412578553 0.043050468 0
v -0.44475913 -0.0176812243 0
v -0.44475919 -0.0372024737 0
v -0.44475913 0.00119667815 0
v -0.412578583 0.0224852972 0
v -0.380398035 0.0476882495 0
v -0.412578642 -0.0200224239 0
v -0.412578672 -0.0420060381 0
v -0.412578613 0.00123127655 0
v -0.380398095 0.0248579849 0
v -0.348217547 0.0521887988 0
v -0.380398154 -0.0223259106 0
v -0.380398154 -0.0467307828 0
v -0.380398095 0.00126581988 0
v -0.348217577 0.0271617323 0
v -0.316037059 0.0564933456 0
v -0.348217636 -0.0245618708 0
v -0.348217666 -0.0513149835 0
v -0.348217607 0.0012996766 0
v -0.316037059 0.0293664765 0
v -0.283856571 0.0605458654 0
v -0.316037118 -0.026701482 0
v -0.316037148 -0.0556991324 0
v -0.316037089 0.0013322247 0
v -0.283856571 0.0314435139 0
v -0.251676083 0.0642938018 0
v -0.28385663 -0.028717272 0
v -0.28385663 -0.059826538 0
v -0.283856601 0.00136286451 0
v -0.251676083 0.0333658718 0
v -0.219495595 0.0677037537 0
v -0.251676142 -0.0305833872 0
v -0.251676142 -0.0636440143 0
v -0.251676112 0.00139101699 0
v -0.219495595 0.0351145379 0
v -0.187315077 0.0705978721 0
v -0.219495654 -0.032281667 0
v -0.219495654 -0.0671180785 0
v -0.219495624 0.00141624699 0
v -0.187315106 0.0365955196 0
v -0.155134559 0.0705735832 0
v -0.187315106 -0.0337257907 0
v -0.187315136 -0.0700728148 0
v -0.187315106 0.00143468357 0
v -0.155134559 0.0365648493 0
v -0.122954071 0.0667907745 0
v -0.155134618 -0.0337524638 0
v -0.155134618 -0.0701061338 0
v -0.155134588 0.00140590221 0
v -0.122954071 0.0345770009 0
v -0.0907735825 0.0589345209 0
v -0.12295413 -0.0319446102 0
v -0.12295413 -0.0663787723 0
v -0.1229541 0.00131540082 0
v -0.0907735825 0.0304702185 0
v -0.0585930943 0.0466664992 0
v -0.0907736421 -0.0281510614 0
v -0.0907736421 -0.0585763939 0
v -0.0907736421 0.00115796726 0
v -0.058593154 0.0241200253 0
v -0.0264126062 0.0297681876 0
v -0.058593154 -0.0222561751 0
v -0.058593154 -0.0463991612 0
v -0.058593154 0.000929760863 0
v -0.0264126062 0.0154574672 0
v 0.00576788187 0.00838366896 0
v 0.00576788187 0.00437630061 0
v -0.0264126062 0.000628962065 0
v 0.00576788187 0.000253012957 0
v -0.0264126062 -0.0141967293 0
v -0.0264126062 -0.0295022391 0
v 0.00576788187 -0.00387093634 0
v 0.00576788187 -0.00815415196 0
vt 0 1
vt 0.0263157822 1
vt 0.0263157822 0.758333325
vt 0.0526315644 1
vt 0.0526315644 0.758333325
vt 0.0789473504 1
vt 0.0263157859 0.508333325
vt 0 0.87417078
vt 0.0789473429 0.758333266
vt 0.105263136 1
vt 0.0526315644 0.508333325
vt 0.105263136 0.758333325
vt 0.131578922 1
vt 0.0263157859 0.258333325
vt 0 0.625
vt 0.0789473504 0.508333325
vt 0.131578922 0.758333325
vt 0.157894716 1
vt 0.0526315719 0.258333325
vt 0.105263144 0.508333325
vt 0.157894716 0.758333325
vt 0.184210494 1
vt 0.0263157897 0
vt 0 0.37582919
vt 0.0526315793 0
vt 0.0789473653 0.258333325
vt 0.0789473653 0
vt 0.105263159 0.258333325
vt 0.105263151 0
vt 0.131578922 0.508333325
vt 0.131578952 0.258333355
vt 0.131578937 0
vt 0.157894716 0.508333325
vt 0.157894731 0.258333325
vt 0.157894731 0
vt 0.184210509 0.758333385
vt 0.210526273 1
vt 0.184210509 0.258333325
vt 0.184210524 0
vt 0.184210479 0.508333325
vt 0.210526288 0.758333325
vt 0.236842051 1
vt 0.210526302 0.258333325
vt 0.210526317 0
vt 0.210526273 0.508333325
vt 0.236842066 0.758333325
vt 0.263157845 1
vt 0.236842096 0.258333355
vt 0.236842096 0
vt 0.236842066 0.508333325
vt 0.263157845 0.758333325
vt 0.289473653 1
vt 0.263157845 0.258333355
vt 0.263157845 0
vt 0.263157845 0.508333325
vt 0.289473653 0.758333325
vt 0.315789431 1
vt 0.289473653 0.258333355
vt 0.289473653 0
vt 0.289473653 0.508333325
vt 0.315789461 0.758333325
vt 0.34210521 1
vt 0.315789521 0.258333355
vt 0.315789491 0
vt 0.315789461 0.508333325
vt 0.34210518 0.758333325
vt 0.368421018 1
vt 0.342105269 0.258333325
vt 0.342105269 0
vt 0.34210521 0.508333325
vt 0.368421018 0.758333325
vt 0.394736767 1
vt 0.368421078 0.258333325
vt 0.368421018 0
vt 0.368421048 0.508333325
vt 0.394736767 0.758333325
vt 0.421052575 1
vt 0.394736826 0.258333325
vt 0.394736826 0
vt 0.394736797 0.508333325
vt 0.421052575 0.758333325
vt 0.447368324 1
vt 0.421052575 0.258333355
vt 0.421052575 0
vt 0.421052516 0.508333325
vt 0.447368324 0.758333325
vt 0.473684132 1
vt 0.447368383 0.258333325
vt 0.447368383 0
vt 0.447368383 0.508333325
vt 0.473684072 0.758333266
vt 0.49999994 1
vt 0.473684162 0.258333325
vt 0.473684132 0
vt 0.473684132 0.508333325
vt 0.49999994 0.758333325
vt 0.526315689 1
vt 0.49999994 0.258333325
vt 0.49999994 0
vt 0.49999994 0.508333325
vt 0.526315689 0.758333325
vt 0.552631497 1
vt 0.526315689 0.258333325
vt 0.526315689 0
vt 0.526315689 0.508333325
vt 0.552631497 0.758333325
vt 0.578947306 1
vt 0.552631557 0.258333355
vt 0.552631497 0
vt 0.552631557 0.508333325
vt 0.578947246 0.758333266
vt 0.605263174 1
vt 0.578947306 0.258333325
vt 0.578947306 0
vt 0.578947306 0.508333325
vt 0.605263114 0.758333325
vt 0.631578982 1
vt 0.605263233 0.258333325
vt 0.605263174 0
vt 0.605263114 0.508333325
vt 0.631579041 0.758333325
vt 0.657894731 1
vt 0.631578982 0.258333325
vt 0.631578982 0
vt 0.631578982 0.508333325
vt 0.657894731 0.758333325
vt 0.684210539 1
vt 0.657894731 0.258333325
vt 0.657894731 0
vt 0.657894731 0.508333325
vt 0.684210539 0.758333325
vt 0.710526347 1
vt 0.684210598 0.258333355
vt 0.684210539 0
vt 0.684210539 0.508333325
vt 0.710526407 0.758333325
vt 0.736842036 1
vt 0.710526407 0.258333355
vt 0.710526347 0
vt 0.710526347 0.508333325
vt 0.736841977 0.758333325
vt 0.763157904 1
vt 0.736842155 0.258333355
vt 0.736842155 0
vt 0.736842155 0.508333325
vt 0.763157904 0.758333325
vt 0.789473712 1
vt 0.763157964 0.258333325
vt 0.763157964 0
vt 0.763157964 0.508333325
vt 0.789473712 0.758333325
vt 0.815789461 1
vt 0.789473772 0.258333325
vt 0.789473772 0
vt 0.789473772 0.508333325
vt 0.815789461 0.758333325
vt 0.842105269 1
vt 0.81578958 0.258333325
vt 0.81578958 0
vt 0.815789461 0.508333325
vt 0.842105269 0.758333325
vt 0.868421018 1
vt 0.842105269 0.258333325
vt 0.842105329 0
vt 0.84210515 0.508333325
vt 0.868421078 0.758333325
vt 0.894736826 1
vt 0.868421078 0.258333325
vt 0.868421137 0
vt 0.868421078 0.508333325
vt 0.894736767 0.758333325
vt 0.921052635 1
vt 0.894736886 0.258333325
vt 0.894736886 0
vt 0.894736886 0.508333325
vt 0.921052575 0.758333266
vt 0.947368443 1
vt 0.921052694 0.258333325
vt 0.921052694 0
vt 0.921052575 0.508333325
vt 0.947368383 0.758333325
vt 0.973684192 1
vt 0.947368443 0.258333325
vt 0.947368383 0
vt 0.947368383 0.508333325
vt 0.973684192 0.758333325
vt 1 1
vt 1 0.758333325
vt 0.973684192 0.508333325
vt 1 0.508333325
vt 0.973684192 0.258333325
vt 0.973684192 0
vt 1 0.258333325
vt 1 0
vn -0 0 1
vn -0 0 1
vn -0 0 1
vn -0 0 1
vn -0 0 1
vn -0 0 1
vn -0 0 1
vn -0 0 1
vn -0 0 1
vn -0 0 1
vn -0 0 1
vn -0 0 1
vn -0 0 1
vn -0 0 1
vn -0 0 1
vn -0 0 1
vn -0 0 1
vn -0 0 1
vn -0 0 1
vn -0 0 1
vn -0 0 1
vn -0 0 1
vn -0 0 1
vn -0 0 1
vn -0 0 1
vn -0 0 1
vn -0 0 1
vn -0 0 1
vn -0 0 1
vn -0 0 1
vn -0 0 1
vn -0 0 1
vn -0 0 1
vn -0 0 1
vn -0 0 1
vn -0 0 1
vn -0 0 1
vn -0 0 1
vn -0 0 1
vn -0 0 1
vn -0 0 1
vn -0 0 1
vn -0 0 1
vn -0 0 1
vn -0 0 1
vn -0 0 1
vn -0 0 1
vn -0 0 1
vn -0 0 1
vn -0 0 1
vn -0 0 1
vn -0 0 1
vn -0 0 1
vn -0 0 1
vn -0 0 1
vn -0 0 1
vn -0 0 1
vn -0 0 1
vn -0 0 1
vn -0 0 1
vn -0 0 1
vn -0 0 1
vn -0 0 1
vn -0 0 1
vn -0 0 1
vn -0 0 1
vn -0 0 1
vn -0 0 1
vn -0 0 1
vn -0 0 1
vn -0 0 1
vn -0 0 1
vn -0 0 1
vn -0 0 1
vn -0 0 1
vn -0 0 1
vn -0 0 1
vn -0 0 1
vn -0 0 1
vn -0 0 1
vn -0 0 1
vn -0 0 1
vn -0 0 1
vn -0 0 1
vn -0 0 1
vn -0 0 1
vn -0 0 1
vn -0 0 1
vn -0 0 1
vn -0 0 1
vn -0 0 1
vn -0 0 1
vn -0 0 1
vn -0 0 1
vn -0 0 1
vn -0 0 1
vn -0 0 1
vn -0 0 1
vn -0 0 1
vn -0 0 1
vn -0 0 1
vn -0 0 1
vn -0 0 1
vn -0 0 1
vn -0 0 1
vn -0 0 1
vn -0 0 1
vn -0 0 1
vn -0 0 1
vn -0 0 1
vn -0 0 1
vn -0 0 1
vn -0 0 1
vn -0 0 1
vn -0 0 1
vn -0 0 1
vn -0 0 1
vn -0 0 1
vn -0 0 1
vn -0 0 1
vn -0 0 1
vn -0 0 1
vn -0 0 1
vn -0 0 1
vn -0 0 1
vn -0 0 1
vn -0 0 1
vn -0 0 1
vn -0 0 1
vn -0 0 1
vn -0 0 1
vn -0 0 1
vn -0 0 1
vn -0 0 1
vn -0 0 1
vn -0 0 1
vn -0 0 1
vn -0 0 1
vn -0 0 1
vn -0 0 1
vn -0 0 1
vn -0 0 1
vn -0 0 1
vn -0 0 1
vn -0 0 1
vn -0 0 1
vn -0 0 1
vn -0 0 1
vn -0 0 1
vn -0 0 1
vn -0 0 1
vn -0 0 1
vn -0 0 1
vn -0 0 1
vn -0 0 1
vn -0 0 1
vn -0 0 1
vn -0 0 1
vn -0 0 1
vn -0 0 1
vn -0 0 1
vn -0 0 1
vn -0 0 1
vn -0 0 1
vn -0 0 1
vn -0 0 1
vn -0 0 1
vn -0 0 1
vn -0 0 1
vn -0 0 1
vn -0 0 1
vn -0 0 1
vn -0 0 1
vn -0 0 1
vn -0 0 1
vn -0 0 1
vn -0 0 1
vn -0 0 1
vn -0 0 1
vn -0 0 1
vn -0 0 1
vn -0 0 1
vn -0 0 1
vn -0 0 1
vn -0 0 1
vn -0 0 1
vn -0 0 1
vn -0 0 1
vn -0 0 1
vn -0 0 1
vn -0 0 1
vn -0 0 1
vn -0 0 1
vn -0 0 1
g general_plane_151_0
f 3/3/3 2/2/2 1/1/1
f 4/4/4 2/2/2 3/3/3
f 5/5/5 4/4/4 3/3/3
f 6/6/6 4/4/4 5/5/5
f 5/5/5 3/3/3 7/7/7
f 7/7/7 3/3/3 8/8/8
f 9/9/9 6/6/6 5/5/5
f 10/10/10 6/6/6 9/9/9
f 11/11/11 5/5/5 7/7/7
f 9/9/9 5/5/5 11/11/11
f 12/12/12 10/10/10 9/9/9
f 13/13/13 10/10/10 12/12/12
f 11/11/11 7/7/7 14/14/14
f 14/14/14 7/7/7 15/15/15
f 16/16/16 9/9/9 11/11/11
f 12/12/12 9/9/9 16/16/16
f 17/17/17 13/13/13 12/12/12
f 18/18/18 13/13/13 17/17/17
f 19/19/19 11/11/11 14/14/14
f 16/16/16 11/11/11 19/19/19
f 20/20/20 12/12/12 16/16/16
f 17/17/17 12/12/12 20/20/20
f 21/21/21 18/18/18 17/17/17
f 22/22/22 18/18/18 21/21/21
f 19/19/19 14/14/14 23/23/23
f 23/23/23 14/14/14 24/24/24
f 25/25/25 19/19/19 23/23/23
f 26/26/26 16/16/16 19/19/19
f 26/26/26 19/19/19 25/25/25
f 20/20/20 16/16/16 26/26/26
f 27/27/27 26/26/26 25/25/25
f 28/28/28 26/26/26 27/27/27
f 28/28/28 20/20/20 26/26/26
f 29/29/29 28/28/28 27/27/27
f 30/30/30 17/17/17 20/20/20
f 30/30/30 20/20/20 28/28/28
f 21/21/21 17/17/17 30/30/30
f 31/31/31 28/28/28 29/29/29
f 31/31/31 30/30/30 28/28/28
f 32/32/32 31/31/31 29/29/29
f 33/33/33 21/21/21 30/30/30
f 33/33/33 30/30/30 31/31/31
f 34/34/34 31/31/31 32/32/32
f 34/34/34 33/33/33 31/31/31
f 35/35/35 34/34/34 32/32/32
f 36/36/36 21/21/21 33/33/33
f 36/36/36 22/22/22 21/21/21
f 37/37/37 22/22/22 36/36/36
f 38/38/38 34/34/34 35/35/35
f 39/39/39 38/38/38 35/35/35
f 40/40/40 33/33/33 34/34/34
f 40/40/40 36/36/36 33/33/33
f 38/38/38 40/40/40 34/34/34
f 41/41/41 37/37/37 36/36/36
f 41/41/41 36/36/36 40/40/40
f 42/42/42 37/37/37 41/41/41
f 43/43/43 38/38/38 39/39/39
f 44/44/44 43/43/43 39/39/39
f 45/45/45 40/40/40 38/38/38
f 45/45/45 41/41/41 40/40/40
f 43/43/43 45/45/45 38/38/38
f 46/46/46 42/42/42 41/41/41
f 46/46/46 41/41/41 45/45/45
f 47/47/47 42/42/42 46/46/46
f 48/48/48 43/43/43 44/44/44
f 49/49/49 48/48/48 44/44/44
f 50/50/50 45/45/45 43/43/43
f 50/50/50 46/46/46 45/45/45
f 48/48/48 50/50/50 43/43/43
f 51/51/51 47/47/47 46/46/46
f 51/51/51 46/46/46 50/50/50
f 52/52/52 47/47/47 51/51/51
f 53/53/53 48/48/48 49/49/49
f 54/54/54 53/53/53 49/49/49
f 55/55/55 50/50/50 48/48/48
f 55/55/55 51/51/51 50/50/50
f 53/53/53 55/55/55 48/48/48
f 56/56/56 52/52/52 51/51/51
f 56/56/56 51/51/51 55/55/55
f 57/57/57 52/52/52 56/56/56
f 58/58/58 53/53/53 54/54/54
f 59/59/59 58/58/58 54/54/54
f 60/60/60 55/55/55 53/53/53
f 60/60/60 56/56/56 55/55/55
f 58/58/58 60/60/60 53/53/53
f 61/61/61 57/57/57 56/56/56
f 61/61/61 56/56/56 60/60/60
f 62/62/62 57/57/57 61/61/61
f 63/63/63 58/58/58 59/59/59
f 64/64/64 63/63/63 59/59/59
f 65/65/65 60/60/60 58/58/58
f 65/65/65 61/61/61 60/60/60
f 63/63/63 65/65/65 58/58/58
f 66/66/66 62/62/62 61/61/61
f 66/66/66 61/61/61 65/65/65
f 67/67/67 62/62/62 66/66/66
f 68/68/68 63/63/63 64/64/64
f 69/69/69 68/68/68 64/64/64
f 70/70/70 65/65/65 63/63/63
f 70/70/70 66/66/66 65/65/65
f 68/68/68 70/70/70 63/63/63
f 71/71/71 67/67/67 66/66/66
f 71/71/71 66/66/66 70/70/70
f 72/72/72 67/67/67 71/71/71
f 73/73/73 68/68/68 69/69/69
f 74/74/74 73/73/73 69/69/69
f 75/75/75 70/70/70 68/68/68
f 75/75/75 71/71/71 70/70/70
f 73/73/73 75/75/75 68/68/68
f 76/76/76 72/72/72 71/71/71
f 76/76/76 71/71/71 75/75/75
f 77/77/77 72/72/72 76/76/76
f 78/78/78 73/73/73 74/74/74
f 79/79/79 78/78/78 74/74/74
f 80/80/80 75/75/75 73/73/73
f 80/80/80 76/76/76 75/75/75
f 78/78/78 80/80/80 73/73/73
f 81/81/81 77/77/77 76/76/76
f 81/81/81 76/76/76 80/80/80
f 82/82/82 77/77/77 81/81/81
f 83/83/83 78/78/78 79/79/79
f 84/84/84 83/83/83 79/79/79
f 85/85/85 80/80/80 78/78/78
f 85/85/85 81/81/81 80/80/80
f 83/83/83 85/85/85 78/78/78
f 86/86/86 82/82/82 81/81/81
f 86/86/86 81/81/81 85/85/85
f 87/87/87 82/82/82 86/86/86
f 88/88/88 83/83/83 84/84/84
f 89/89/89 88/88/88 84/84/84
f 90/90/90 85/85/85 83/83/83
f 90/90/90 86/86/86 85/85/85
f 88/88/88 90/90/90 83/83/83
f 91/91/91 87/87/87 86/86/86
f 91/91/91 86/86/86 90/90/90
f 92/92/92 87/87/87 91/91/91
f 93/93/93 88/88/88 89/89/89
f 94/94/94 93/93/93 89/89/89
f 95/95/95 90/90/90 88/88/88
f 95/95/95 91/91/91 90/90/90
f 93/93/93 95/95/95 88/88/88
f 96/96/96 92/92/92 91/91/91
f 96/96/96 91/91/91 95/95/95
f 97/97/97 92/92/92 96/96/96
f 98/98/98 93/93/93 94/94/94
f 99/99/99 98/98/98 94/94/94
f 100/100/100 95/95/95 93/93/93
f 100/100/100 96/96/96 95/95/95
f 98/98/98 100/100/100 93/93/93
f 101/101/101 97/97/97 96/96/96
f 101/101/101 96/96/96 100/100/100
f 102/102/102 97/97/97 101/101/101
f 103/103/103 98/98/98 99/99/99
f 104/104/104 103/103/103 99/99/99
f 105/105/105 100/100/100 98/98/98
f 105/105/105 101/101/101 100/100/100
f 103/103/103 105/105/105 98/98/98
f 106/106/106 102/102/102 101/101/101
f 106/106/106 101/101/101 105/105/105
f 107/107/107 102/102/102 106/106/106
f 108/108/108 103/103/103 104/104/104
f 109/109/109 108/108/108 104/104/104
f 110/110/110 105/105/105 103/103/103
f 110/110/110 106/106/106 105/105/105
f 108/108/108 110/110/110 103/103/103
f 111/111/111 107/107/107 106/106/106
f 111/111/111 106/106/106 110/110/110
f 112/112/112 107/107/107 111/111/111
f 113/113/113 108/108/108 109/109/109
f 114/114/114 113/113/113 109/109/109
f 115/115/115 110/110/110 108/108/108
f 115/115/115 111/111/111 110/110/110
f 113/113/113 115/115/115 108/108/108
f 116/116/116 112/112/112 111/111/111
f 116/116/116 111/111/111 115/115/115
f 117/117/117 112/112/112 116/116/116
f 118/118/118 113/113/113 114/114/114
f 119/119/119 118/118/118 114/114/114
f 120/120/120 115/115/115 113/113/113
f 120/120/120 116/116/116 115/115/115
f 118/118/118 120/120/120 113/113/113
f 121/121/121 117/117/117 116/116/116
f 121/121/121 116/116/116 120/120/120
f 122/122/122 117/117/117 121/121/121
f 123/123/123 118/118/118 119/119/119
f 124/124/124 123/123/123 119/119/119
f 125/125/125 120/120/120 118/118/118
f 125/125/125 121/121/121 120/120/120
f 123/123/123 125/125/125 118/118/118
f 126/126/126 122/122/122 121/121/121
f 126/126/126 121/121/121 125/125/125
f 127/127/127 122/122/122 126/126/126
f 128/128/128 123/123/123 124/124/124
f 129/129/129 128/128/128 124/124/124
f 130/130/130 125/125/125 123/123/123
f 130/130/130 126/126/126 125/125/125
f 128/128/128 130/130/130 123/123/123
f 131/131/131 127/127/127 126/126/126
f 131/131/131 126/126/126 130/130/130
f 132/132/132 127/127/127 131/131/131
f 133/133/133 128/128/128 129/129/129
f 134/134/134 133/133/133 129/129/129
f 135/135/135 130/130/130 128/128/128
f 135/135/135 131/131/131 130/130/130
f 133/133/133 135/135/135 128/128/128
f 136/136/136 132/132/132 131/131/131
f 136/136/136 131/131/131 135/135/135
f 137/137/137 132/132/132 136/136/136
f 138/138/138 133/133/133 134/134/134
f 139/139/139 138/138/138 134/134/134
f 140/140/140 135/135/135 133/133/133
f 140/140/140 136/136/136 135/135/135
f 138/138/138 140/140/140 133/133/133
f 141/141/141 137/137/137 136/136/136
f 141/141/141 136/136/136 140/140/140
f 142/142/142 137/137/137 141/141/141
f 143/143/143 138/138/138 139/139/139
f 144/144/144 143/143/143 139/139/139
f 145/145/145 140/140/140 138/138/138
f 145/145/145 141/141/141 140/140/140
f 143/143/143 145/145/145 138/138/138
f 146/146/146 142/142/142 141/141/141
f 146/146/146 141/141/141 145/145/145
f 147/147/147 142/142/142 146/146/146
f 148/148/148 143/143/143 144/144/144
f 149/149/149 148/148/148 144/144/144
f 150/150/150 145/145/145 143/143/143
f 150/150/150 146/146/146 145/145/145
f 148/148/148 150/150/150 143/143/143
f 151/151/151 147/147/147 146/146/146
f 151/151/151 146/146/146 150/150/150
f 152/152/152 147/147/147 151/151/151
f 153/153/153 148/148/148 149/149/149
f 154/154/154 153/153/153 149/149/149
f 155/155/155 150/150/150 148/148/148
f 155/155/155 151/151/151 150/150/150
f 153/153/153 155/155/155 148/148/148
f 156/156/156 152/152/152 151/151/151
f 156/156/156 151/151/151 155/155/155
f 157/157/157 152/152/152 156/156/156
f 158/158/158 153/153/153 154/154/154
f 159/159/159 158/158/158 154/154/154
f 160/160/160 155/155/155 153/153/153
f 160/160/160 156/156/156 155/155/155
f 158/158/158 160/160/160 153/153/153
f 161/161/161 157/157/157 156/156/156
f 161/161/161 156/156/156 160/160/160
f 162/162/162 157/157/157 161/161/161
f 163/163/163 158/158/158 159/159/159
f 164/164/164 163/163/163 159/159/159
f 165/165/165 160/160/160 158/158/158
f 165/165/165 161/161/161 160/160/160
f 163/163/163 165/165/165 158/158/158
f 166/166/166 162/162/162 161/161/161
f 166/166/166 161/161/161 165/165/165
f 167/167/167 162/162/162 166/166/166
f 168/168/168 163/163/163 164/164/164
f 169/169/169 168/168/168 164/164/164
f 170/170/170 165/165/165 163/163/163
f 170/170/170 166/166/166 165/165/165
f 168/168/168 170/170/170 163/163/163
f 171/171/171 167/167/167 166/166/166
f 171/171/171 166/166/166 170/170/170
f 172/172/172 167/167/167 171/171/171
f 173/173/173 168/168/168 169/169/169
f 174/174/174 173/173/173 169/169/169
f 175/175/175 170/170/170 168/168/168
f 175/175/175 171/171/171 170/170/170
f 173/173/173 175/175/175 168/168/168
f 176/176/176 172/172/172 171/171/171
f 176/176/176 171/171/171 175/175/175
f 177/177/177 172/172/172 176/176/176
f 178/178/178 173/173/173 174/174/174
f 179/179/179 178/178/178 174/174/174
f 180/180/180 175/175/175 173/173/173
f 180/180/180 176/176/176 175/175/175
f 178/178/178 180/180/180 173/173/173
f 181/181/181 177/177/177 176/176/176
f 181/181/181 176/176/176 180/180/180
f 182/182/182 177/177/177 181/181/181
f 183/183/183 178/178/178 179/179/179
f 184/184/184 183/183/183 179/179/179
f 185/185/185 180/180/180 178/178/178
f 185/185/185 181/181/181 180/180/180
f 183/183/183 185/185/185 178/178/178
f 186/186/186 182/182/182 181/181/181
f 186/186/186 181/181/181 185/185/185
f 187/187/187 182/182/182 186/186/186
f 188/188/188 187/187/187 186/186/186
f 189/189/189 186/186/186 185/185/185
f 188/188/188 186/186/186 189/189/189
f 189/189/189 185/185/185 183/183/183
f 190/190/190 188/188/188 189/189/189
f 191/191/191 183/183/183 184/184/184
f 191/191/191 189/189/189 183/183/183
f 190/190/190 189/189/189 191/191/191
f 192/192/192 191/191/191 184/184/184
f 193/193/193 190/190/190 191/191/191
f 193/193/193 191/191/191 192/192/192
f 194/194/194 193/193/193 192/192/192
