g wave_bg_02
v 0.247888833 0.166666672 0.0761742145
v 0.233841658 0.25 0.0761742145
v 0.259275526 0.24999997 0.0926329643
v 0.274210632 0.166666657 0.0926329643
v 0.260878831 0.0833333358 0.0761741996
v 0.283995986 0.249999985 0.110090815
v 0.288021743 0.0833333284 0.0926329643
v 0.266591102 4.12090095E-09 0.0761741996
v 0.29980287 0.166666672 0.110090822
v 0.308266133 0.25000003 0.128138214
v 0.294095129 3.40146578E-09 0.0926329494
v 0.260878801 -0.0833333135 0.0761741996
v 0.324935049 0.166666687 0.128138214
v 0.332419842 0.24999997 0.146336526
v 0.314420164 0.0833333358 0.110090815
v 0.288021654 -0.0833333284 0.0926329494
v 0.247888759 -0.166666672 0.0761741996
v 0.349950224 0.166666627 0.146336526
v 0.356859416 0.25 0.16417563
v 0.340349495 0.0833333358 0.128138214
v 0.320848078 2.63835842E-09 0.110090815
v 0.274210572 -0.166666642 0.0926329494
v 0.233841598 -0.25 0.0761741996
v 0.259275436 -0.249999985 0.0926329494
v 0.375262946 0.166666672 0.16417563
v 0.382059515 0.249999985 0.18099013
v 0.314420164 -0.0833333284 0.110090815
v 0.29980287 -0.166666657 0.110090815
v 0.283995986 -0.249999985 0.110090815
v 0.366161287 0.0833333209 0.146336466
v 0.347127914 1.84948235E-09 0.128138214
v 0.401362449 0.166666642 0.1809901
v 0.408425987 0.24999997 0.196019515
v 0.324935049 -0.166666672 0.128138214
v 0.308266133 -0.25000003 0.128138199
v 0.340349495 -0.0833333358 0.128138214
v 0.392281502 0.0833333358 0.16417563
v 0.373290062 1.05400932E-09 0.146336466
v 0.428666294 0.166666657 0.196019515
v 0.436215311 0.249999985 0.208387405
v 0.349950165 -0.166666627 0.146336466
v 0.332419783 -0.24999997 0.146336466
v 0.366161287 -0.083333306 0.146336466
v 0.419212699 0.0833333284 0.1809901
v 0.399765402 2.74236633E-10 0.16417563
v 0.457436085 0.166666657 0.208387405
v 0.465459138 0.25000003 0.216961324
v 0.375262886 -0.166666657 0.164175585
v 0.356859326 -0.25 0.164175585
v 0.392281502 -0.0833333284 0.16417563
v 0.447383374 0.0833333358 0.196019515
v 0.427062392 -4.60747884E-10 0.1809901
v 0.487700045 0.166666687 0.216961324
v 0.495717138 0.249999925 0.220921189
v 0.401362449 -0.166666672 0.1809901
v 0.382059425 -0.25 0.1809901
v 0.419212699 -0.0833333209 0.1809901
v 0.477059901 0.0833333358 0.208387375
v 0.45561415 -1.11770371E-09 0.196019515
v 0.518996418 0.166666627 0.220921189
v 0.526198685 0.249999955 0.21991916
v 0.428666264 -0.166666657 0.196019515
v 0.408425838 -0.25 0.196019471
v 0.447383374 -0.0833333284 0.196019515
v 0.508267164 0.0833333582 0.216961324
v 0.485689431 -1.6583197E-09 0.208387375
v 0.550502241 0.166666642 0.21991916
v 0.555970728 0.249999985 0.213641882
v 0.457436025 -0.166666701 0.208387375
v 0.436215162 -0.25000003 0.208387375
v 0.477059871 -0.0833333358 0.208387375
v 0.540523767 0.0833333284 0.220921189
v 0.517311513 -2.03309813E-09 0.216961324
v 0.581248999 0.166666657 0.213641867
v 0.584242225 0.249999985 0.202709362
v 0.487700015 -0.166666657 0.21696128
v 0.465459108 -0.24999997 0.21696128
v 0.508267164 -0.0833333433 0.216961324
v 0.572976887 0.0833333209 0.21991916
v 0.549990475 -2.20619123E-09 0.220921189
v 0.610418618 0.166666672 0.202709362
v 0.610403121 0.249999985 0.18767491
v 0.518996418 -0.166666657 0.220921189
v 0.495717019 -0.24999997 0.220921189
v 0.540523767 -0.0833333209 0.220921189
v 0.604624748 0.0833333433 0.213641867
v 0.582860112 -2.16239116E-09 0.21991916
v 0.637383521 0.166666657 0.18767491
v 0.633876383 0.25000003 0.168966636
v 0.550502241 -0.166666657 0.21991916
v 0.526198685 -0.249999985 0.21991916
v 0.572976887 -0.0833333135 0.21991916
v 0.634625018 0.0833333433 0.202709362
v 0.614904284 -1.88800175E-09 0.213641867
v 0.661553264 0.166666687 0.168966636
v 0.654099286 0.25000003 0.147004634
v 0.58124882 -0.166666687 0.213641867
v 0.555970609 -0.25 0.213641867
v 0.604624748 -0.0833333284 0.213641867
v 0.662333369 0.0833333358 0.18767491
v 0.645269811 -1.41012624E-09 0.202709377
v 0.682355642 0.166666687 0.147004679
v 0.670555532 0.24999997 0.1222969
v 0.610418618 -0.166666672 0.202709377
v 0.584242165 -0.25000003 0.202709377
v 0.634625018 -0.0833333284 0.202709377
v 0.687147439 0.0833333433 0.168966636
v 0.673305035 -7.52949703E-10 0.18767491
v 0.699268639 0.166666672 0.122296885
v 0.682414889 0.25 0.0952583477
v 0.637383521 -0.166666672 0.18767491
v 0.610403121 -0.25 0.18767491
v 0.662333369 -0.0833333284 0.18767491
v 0.708485663 0.0833333358 0.147004679
v 0.698402405 6.48161524E-11 0.168966636
v 0.711448073 0.166666672 0.0952583402
v 0.688575447 0.25 0.0665268153
v 0.661553264 -0.166666657 0.168966636
v 0.633876383 -0.25000003 0.168966636
v 0.687147439 -0.0833333358 0.168966636
v 0.725820899 0.0833333358 0.122296952
v 0.719976366 1.02480247E-09 0.147004679
v 0.717772067 0.166666657 0.0665268749
v 0.68780601 0.24999994 0.0372274667
v 0.682355642 -0.166666672 0.147004738
v 0.654099166 -0.25000003 0.147004738
v 0.708485663 -0.0833333358 0.147004738
v 0.738296449 0.0833333433 0.0952583402
v 0.73749733 2.10481099E-09 0.122296952
v 0.716982365 0.166666642 0.037227463
v 0.679091632 0.25 0.00762095954
v 0.708036065 0.166666672 0.00762096327
v 0.699268639 -0.166666657 0.122296959
v 0.670555532 -0.25 0.122296952
v 0.725820899 -0.0833333284 0.122296952
v 0.7447716 0.0833333433 0.0665268674
v 0.743962944 0.0833333284 0.037227463
v 0.734802067 0.0833333433 0.00762096327
v 0.750102997 3.28670646E-09 0.0952583402
v 0.711448073 -0.166666672 0.0952583402
v 0.682414889 -0.25 0.0952583328
v 0.738296449 -0.0833333358 0.0952583402
v 0.756644428 4.54259741E-09 0.0665268674
v 0.755827665 5.82331472E-09 0.037227463
v 0.746572614 7.11745773E-09 0.00762096327
v 0.7447716 -0.0833333135 0.0665268674
v 0.717772067 -0.166666657 0.0665268749
v 0.688575447 -0.24999997 0.06652686
v 0.743962944 -0.083333306 0.037227463
v 0.734802067 -0.0833333209 0.00762096234
v 0.716982365 -0.166666627 0.037227463
v 0.68780601 -0.24999994 0.0372274593
v 0.708036065 -0.166666657 0.00762095954
v 0.679091632 -0.25 0.00762096699
vt 0.275862038 0.833333313
vt 0.275862008 1
vt 0.310344756 1
vt 0.310344756 0.833333313
vt 0.275862038 0.666666627
vt 0.344827503 1
vt 0.310344785 0.666666627
vt 0.275862038 0.5
vt 0.344827533 0.833333313
vt 0.37931031 1
vt 0.310344815 0.5
vt 0.275862068 0.333333343
vt 0.37931031 0.833333313
vt 0.413793027 1
vt 0.344827533 0.666666627
vt 0.310344815 0.333333343
vt 0.275862068 0.166666672
vt 0.413793027 0.833333313
vt 0.448275805 1
vt 0.37931034 0.666666627
vt 0.344827563 0.5
vt 0.310344845 0.166666672
vt 0.275862098 0
vt 0.310344845 0
vt 0.448275805 0.833333313
vt 0.482758582 1
vt 0.344827563 0.333333343
vt 0.344827592 0.166666672
vt 0.344827622 0
vt 0.413793057 0.666666627
vt 0.379310369 0.5
vt 0.482758582 0.833333313
vt 0.517241299 1
vt 0.379310399 0.166666672
vt 0.379310429 0
vt 0.379310369 0.333333343
vt 0.448275834 0.666666627
vt 0.413793087 0.5
vt 0.517241359 0.833333313
vt 0.551724076 1
vt 0.413793147 0.166666672
vt 0.413793147 0
vt 0.413793117 0.333333343
vt 0.482758582 0.666666627
vt 0.448275864 0.5
vt 0.551724076 0.833333313
vt 0.586206853 1
vt 0.448275894 0.166666672
vt 0.448275924 0
vt 0.448275894 0.333333343
vt 0.517241359 0.666666627
vt 0.482758641 0.5
vt 0.586206913 0.833333313
vt 0.620689631 1
vt 0.482758641 0.166666672
vt 0.482758641 0
vt 0.482758641 0.333333343
vt 0.551724076 0.666666627
vt 0.517241359 0.5
vt 0.620689631 0.833333313
vt 0.655172348 1
vt 0.517241359 0.166666672
vt 0.517241418 0
vt 0.517241359 0.333333343
vt 0.586206913 0.666666627
vt 0.551724076 0.5
vt 0.655172348 0.833333313
vt 0.689655125 1
vt 0.551724136 0.166666672
vt 0.551724195 0
vt 0.551724136 0.333333343
vt 0.620689631 0.666666627
vt 0.586206973 0.5
vt 0.689655066 0.833333313
vt 0.724137902 1
vt 0.586206973 0.166666672
vt 0.586206973 0
vt 0.586206973 0.333333343
vt 0.655172408 0.666666627
vt 0.62068969 0.5
vt 0.724137902 0.833333313
vt 0.758620739 1
vt 0.62068969 0.166666672
vt 0.62068969 0
vt 0.62068969 0.333333343
vt 0.689655066 0.666666627
vt 0.655172467 0.5
vt 0.758620739 0.833333313
vt 0.793103456 1
vt 0.655172467 0.166666672
vt 0.655172467 0
vt 0.655172467 0.333333343
vt 0.724137902 0.666666627
vt 0.689655125 0.5
vt 0.793103456 0.833333313
vt 0.827586293 1
vt 0.689655185 0.166666672
vt 0.689655244 0
vt 0.689655185 0.333333343
vt 0.758620739 0.666666627
vt 0.724137902 0.5
vt 0.827586293 0.833333313
vt 0.862069011 1
vt 0.724137962 0.166666672
vt 0.724138021 0
vt 0.724137962 0.333333343
vt 0.793103456 0.666666627
vt 0.758620739 0.5
vt 0.862069011 0.833333313
vt 0.896551847 1
vt 0.758620739 0.166666672
vt 0.758620739 0
vt 0.758620739 0.333333343
vt 0.827586234 0.666666627
vt 0.793103516 0.5
vt 0.896551788 0.833333313
vt 0.931034565 1
vt 0.793103516 0.166666672
vt 0.793103576 0
vt 0.793103516 0.333333343
vt 0.862069011 0.666666627
vt 0.827586293 0.5
vt 0.931034565 0.833333313
vt 0.965517282 1
vt 0.827586293 0.166666672
vt 0.827586293 0
vt 0.827586293 0.333333343
vt 0.896551728 0.666666627
vt 0.862069011 0.5
vt 0.965517282 0.833333313
vt 1 1
vt 1 0.833333313
vt 0.862069011 0.166666672
vt 0.862069011 0
vt 0.86206907 0.333333343
vt 0.931034505 0.666666627
vt 0.965517223 0.666666627
vt 1 0.666666627
vt 0.896551788 0.5
vt 0.896551728 0.166666672
vt 0.896551728 0
vt 0.896551788 0.333333343
vt 0.931034505 0.5
vt 0.965517282 0.5
vt 1 0.5
vt 0.931034505 0.333333343
vt 0.931034446 0.166666672
vt 0.931034446 0
vt 0.965517282 0.333333343
vt 1 0.333333343
vt 0.965517282 0.166666672
vt 0.965517282 0
vt 1 0.166666672
vt 1 0
vn -0.528855443 -0.08880312 0.844053268
vn -0.534345806 -0.0929193646 0.840143204
vn -0.549269557 -0.0982287675 0.829851866
vn -0.54480654 -0.0940478221 0.833271146
vn -0.519368768 -0.061509233 0.852333724
vn -0.575675845 -0.1089397 0.810388446
vn -0.536057651 -0.0641133487 0.84174329
vn -0.515985966 0 0.856597066
vn -0.57059294 -0.104214117 0.814593911
vn -0.588113785 -0.117344968 0.800220251
vn -0.533238649 0 0.845964849
vn -0.519368887 0.0615093857 0.852333546
vn -0.582349956 -0.112136334 0.805167079
vn -0.585065484 -0.12274541 0.801643312
vn -0.561944544 -0.0710935295 0.824114084
vn -0.536057353 0.0641134232 0.84174341
vn -0.528855503 0.0888031572 0.844053149
vn -0.578414917 -0.117111027 0.807292521
vn -0.563183725 -0.123992734 0.81697607
vn -0.573789537 -0.0765211433 0.815420151
vn -0.559289217 0 0.828972578
vn -0.544806182 0.0940477625 0.833271384
vn -0.534345806 0.0929194093 0.840143204
vn -0.549269199 0.0982287452 0.829851985
vn -0.555215776 -0.117975779 0.823296547
vn -0.518632472 -0.119683839 0.846579134
vn -0.561944306 0.071093522 0.824114263
vn -0.570592523 0.104214013 0.81459403
vn -0.575675309 0.108939633 0.810388744
vn -0.569788039 -0.0798862875 0.817899585
vn -0.571254969 0 0.820772707
vn -0.508989573 -0.113374136 0.85327363
vn -0.448426723 -0.108381473 0.887224257
vn -0.582349956 0.11213626 0.805167079
vn -0.588113606 0.117344871 0.800220311
vn -0.573789537 0.0765211061 0.81542027
vn -0.546264052 -0.0803571269 0.833749592
vn -0.567234337 0 0.823556483
vn -0.436760128 -0.10189569 0.893788457
vn -0.347318023 -0.0878154039 0.933626592
vn -0.578415096 0.11711102 0.807292461
vn -0.585065603 0.122745432 0.801643133
vn -0.569788039 0.0798862278 0.817899585
vn -0.499565661 -0.0769953281 0.862847507
vn -0.543457985 0 0.839436412
vn -0.333112806 -0.0812731534 0.939377785
vn -0.21455586 -0.0566115193 0.975069642
vn -0.555215895 0.117975861 0.823296368
vn -0.563184083 0.123992972 0.816975713
vn -0.546264112 0.0803571269 0.833749592
vn -0.427027196 -0.0688546002 0.901613474
vn -0.496306658 0 0.868147314
vn -0.198954359 -0.0505792014 0.978702605
vn -0.0616711341 -0.0166778546 0.99795723
vn -0.508989811 0.11337433 0.853273511
vn -0.51863265 0.119684137 0.846578896
vn -0.499565721 0.0769953653 0.862847507
vn -0.323724955 -0.0544249378 0.944584548
vn -0.423258185 0 0.906009138
vn -0.0465803556 -0.0119162435 0.998843431
vn 0.102673464 0.0303150322 0.994253099
vn -0.436760247 0.101895809 0.893788397
vn -0.448426962 0.108381733 0.887224197
vn -0.427027255 0.0688546151 0.901613355
vn -0.191439658 -0.0332750194 0.980940163
vn -0.319624662 0 0.947544217
vn 0.116675138 0.0333816819 0.992608964
vn 0.265582204 0.0806451812 0.960709274
vn -0.333112389 0.0812730268 0.939377904
vn -0.347317696 0.0878154933 0.933626711
vn -0.323724836 0.0544248335 0.944584668
vn -0.0424445719 -0.00694784801 0.999074697
vn -0.187729627 0 0.982220709
vn 0.275750905 0.0809939802 0.95781076
vn 0.409833223 0.128587991 0.903051436
vn -0.198954657 0.0505791865 0.978702605
vn -0.214555979 0.0566116869 0.975069642
vn -0.191439718 0.0332749076 0.980940163
vn 0.117026269 0.0238136537 0.99284327
vn -0.0399109833 0 0.999203265
vn 0.417011082 0.126398727 0.900069594
vn 0.537926257 0.173856899 0.824869096
vn -0.0465807766 0.0119162975 0.998843431
vn -0.0616719127 0.0166781135 0.99795711
vn -0.0424447097 0.00694783451 0.999074697
vn 0.272839725 0.0560569428 0.96042496
vn 0.118212961 0 0.992988288
vn 0.543270469 0.169450104 0.822279692
vn 0.651887715 0.216110736 0.726869047
vn 0.116675377 -0.0333818048 0.992608964
vn 0.102673613 -0.0303151011 0.994253099
vn 0.117026366 -0.023813732 0.99284327
vn 0.413069248 0.0871354118 0.906521499
vn 0.272896647 0 0.962043345
vn 0.656190574 0.209744066 0.724859536
vn 0.750371873 0.25400129 0.610266745
vn 0.275750637 -0.0809940547 0.957810879
vn 0.265582472 -0.0806452855 0.960709155
vn 0.272839516 -0.0560570173 0.960425079
vn 0.540802479 0.117062762 0.832964003
vn 0.413266987 0 0.910609841
vn 0.754148602 0.245930433 0.608915627
vn 0.83369422 0.286810338 0.471904367
vn 0.417010337 -0.126398623 0.900069892
vn 0.40983209 -0.128587723 0.903051972
vn 0.41306898 -0.0871353894 0.906521559
vn 0.657569885 0.145560682 0.739198267
vn 0.54270196 0 0.839925349
vn 0.837634861 0.277399808 0.470549971
vn 0.900580049 0.313294739 0.301333547
vn 0.543270648 -0.169450194 0.822279513
vn 0.537926316 -0.173856974 0.824869037
vn 0.540802538 -0.11706277 0.832963943
vn 0.7612468 0.17161651 0.6253407
vn 0.662778854 0 0.748815179
vn 0.904652297 0.302742273 0.29991892
vn 0.940029621 0.328826576 0.0906500444
vn 0.656190276 -0.209744006 0.724859774
vn 0.651887596 -0.216110751 0.726869106
vn 0.657569468 -0.145560503 0.739198625
vn 0.851745129 0.194664776 0.486452311
vn 0.771136165 0 0.636670291
vn 0.943985164 0.317489654 0.0899578854
vn 0.932442725 0.325845361 -0.156126454
vn 0.754148126 -0.245930478 0.608916163
vn 0.750371397 -0.254001439 0.610267282
vn 0.761246681 -0.171616316 0.625340939
vn 0.925869346 0.213428497 0.311791778
vn 0.867361009 0 0.497679561
vn 0.936521888 0.314648002 -0.154672399
vn 0.908878446 0.316948473 -0.271078616
vn 0.911266088 0.306520402 -0.275026232
vn 0.837634921 -0.277399838 0.470549792
vn 0.833694041 -0.286810517 0.471904546
vn 0.851745427 -0.194664761 0.486451954
vn 0.969988048 0.224329978 0.0938040316
vn 0.961637259 0.222038493 -0.161098465
vn 0.932226956 0.219892785 -0.287402391
vn 0.947314024 0 0.320306361
vn 0.904652357 -0.302742273 0.299918711
vn 0.900580168 -0.313294768 0.301333219
vn 0.925869465 -0.213428527 0.311791688
vn 0.995325804 0 0.0965732783
vn 0.986177564 0 -0.165691555
vn 0.954883754 0 -0.296979815
vn 0.969988048 -0.224329934 0.0938040167
vn 0.943985164 -0.317489654 0.0899578482
vn 0.940029621 -0.328826576 0.0906500593
vn 0.961637259 -0.222038478 -0.161098391
vn 0.932226956 -0.219892785 -0.287402332
vn 0.936521888 -0.314647943 -0.15467234
vn 0.932442725 -0.325845331 -0.156126425
vn 0.911266088 -0.306520373 -0.275026262
vn 0.908878446 -0.316948414 -0.271078706
g wave_bg_02_0
f 3/3/3 2/2/2 1/1/1
f 4/4/4 3/3/3 1/1/1
f 4/4/4 1/1/1 5/5/5
f 6/6/6 3/3/3 4/4/4
f 7/7/7 4/4/4 5/5/5
f 7/7/7 5/5/5 8/8/8
f 9/9/9 6/6/6 4/4/4
f 9/9/9 4/4/4 7/7/7
f 10/10/10 6/6/6 9/9/9
f 11/11/11 7/7/7 8/8/8
f 11/11/11 8/8/8 12/12/12
f 13/13/13 10/10/10 9/9/9
f 14/14/14 10/10/10 13/13/13
f 15/15/15 9/9/9 7/7/7
f 15/15/15 7/7/7 11/11/11
f 13/13/13 9/9/9 15/15/15
f 16/16/16 11/11/11 12/12/12
f 16/16/16 12/12/12 17/17/17
f 18/18/18 14/14/14 13/13/13
f 19/19/19 14/14/14 18/18/18
f 20/20/20 13/13/13 15/15/15
f 18/18/18 13/13/13 20/20/20
f 21/21/21 15/15/15 11/11/11
f 21/21/21 11/11/11 16/16/16
f 20/20/20 15/15/15 21/21/21
f 22/22/22 16/16/16 17/17/17
f 22/22/22 17/17/17 23/23/23
f 24/24/24 22/22/22 23/23/23
f 25/25/25 19/19/19 18/18/18
f 26/26/26 19/19/19 25/25/25
f 27/27/27 21/21/21 16/16/16
f 27/27/27 16/16/16 22/22/22
f 28/28/28 22/22/22 24/24/24
f 28/28/28 27/27/27 22/22/22
f 29/29/29 28/28/28 24/24/24
f 30/30/30 18/18/18 20/20/20
f 25/25/25 18/18/18 30/30/30
f 31/31/31 20/20/20 21/21/21
f 31/31/31 21/21/21 27/27/27
f 30/30/30 20/20/20 31/31/31
f 32/32/32 26/26/26 25/25/25
f 33/33/33 26/26/26 32/32/32
f 34/34/34 28/28/28 29/29/29
f 35/35/35 34/34/34 29/29/29
f 36/36/36 27/27/27 28/28/28
f 36/36/36 31/31/31 27/27/27
f 34/34/34 36/36/36 28/28/28
f 37/37/37 25/25/25 30/30/30
f 32/32/32 25/25/25 37/37/37
f 38/38/38 30/30/30 31/31/31
f 38/38/38 31/31/31 36/36/36
f 37/37/37 30/30/30 38/38/38
f 39/39/39 33/33/33 32/32/32
f 40/40/40 33/33/33 39/39/39
f 41/41/41 34/34/34 35/35/35
f 42/42/42 41/41/41 35/35/35
f 43/43/43 36/36/36 34/34/34
f 43/43/43 38/38/38 36/36/36
f 41/41/41 43/43/43 34/34/34
f 44/44/44 32/32/32 37/37/37
f 39/39/39 32/32/32 44/44/44
f 45/45/45 37/37/37 38/38/38
f 45/45/45 38/38/38 43/43/43
f 44/44/44 37/37/37 45/45/45
f 46/46/46 40/40/40 39/39/39
f 47/47/47 40/40/40 46/46/46
f 48/48/48 41/41/41 42/42/42
f 49/49/49 48/48/48 42/42/42
f 50/50/50 43/43/43 41/41/41
f 50/50/50 45/45/45 43/43/43
f 48/48/48 50/50/50 41/41/41
f 51/51/51 39/39/39 44/44/44
f 46/46/46 39/39/39 51/51/51
f 52/52/52 44/44/44 45/45/45
f 52/52/52 45/45/45 50/50/50
f 51/51/51 44/44/44 52/52/52
f 53/53/53 47/47/47 46/46/46
f 54/54/54 47/47/47 53/53/53
f 55/55/55 48/48/48 49/49/49
f 56/56/56 55/55/55 49/49/49
f 57/57/57 50/50/50 48/48/48
f 57/57/57 52/52/52 50/50/50
f 55/55/55 57/57/57 48/48/48
f 58/58/58 46/46/46 51/51/51
f 53/53/53 46/46/46 58/58/58
f 59/59/59 51/51/51 52/52/52
f 59/59/59 52/52/52 57/57/57
f 58/58/58 51/51/51 59/59/59
f 60/60/60 54/54/54 53/53/53
f 61/61/61 54/54/54 60/60/60
f 62/62/62 55/55/55 56/56/56
f 63/63/63 62/62/62 56/56/56
f 64/64/64 57/57/57 55/55/55
f 64/64/64 59/59/59 57/57/57
f 62/62/62 64/64/64 55/55/55
f 65/65/65 53/53/53 58/58/58
f 60/60/60 53/53/53 65/65/65
f 66/66/66 58/58/58 59/59/59
f 66/66/66 59/59/59 64/64/64
f 65/65/65 58/58/58 66/66/66
f 67/67/67 61/61/61 60/60/60
f 68/68/68 61/61/61 67/67/67
f 69/69/69 62/62/62 63/63/63
f 70/70/70 69/69/69 63/63/63
f 71/71/71 64/64/64 62/62/62
f 71/71/71 66/66/66 64/64/64
f 69/69/69 71/71/71 62/62/62
f 72/72/72 60/60/60 65/65/65
f 67/67/67 60/60/60 72/72/72
f 73/73/73 65/65/65 66/66/66
f 73/73/73 66/66/66 71/71/71
f 72/72/72 65/65/65 73/73/73
f 74/74/74 68/68/68 67/67/67
f 75/75/75 68/68/68 74/74/74
f 76/76/76 69/69/69 70/70/70
f 77/77/77 76/76/76 70/70/70
f 78/78/78 71/71/71 69/69/69
f 78/78/78 73/73/73 71/71/71
f 76/76/76 78/78/78 69/69/69
f 79/79/79 67/67/67 72/72/72
f 74/74/74 67/67/67 79/79/79
f 80/80/80 72/72/72 73/73/73
f 80/80/80 73/73/73 78/78/78
f 79/79/79 72/72/72 80/80/80
f 81/81/81 75/75/75 74/74/74
f 82/82/82 75/75/75 81/81/81
f 83/83/83 76/76/76 77/77/77
f 84/84/84 83/83/83 77/77/77
f 85/85/85 78/78/78 76/76/76
f 85/85/85 80/80/80 78/78/78
f 83/83/83 85/85/85 76/76/76
f 86/86/86 74/74/74 79/79/79
f 81/81/81 74/74/74 86/86/86
f 87/87/87 79/79/79 80/80/80
f 87/87/87 80/80/80 85/85/85
f 86/86/86 79/79/79 87/87/87
f 88/88/88 82/82/82 81/81/81
f 89/89/89 82/82/82 88/88/88
f 90/90/90 83/83/83 84/84/84
f 91/91/91 90/90/90 84/84/84
f 92/92/92 85/85/85 83/83/83
f 92/92/92 87/87/87 85/85/85
f 90/90/90 92/92/92 83/83/83
f 93/93/93 81/81/81 86/86/86
f 88/88/88 81/81/81 93/93/93
f 94/94/94 86/86/86 87/87/87
f 94/94/94 87/87/87 92/92/92
f 93/93/93 86/86/86 94/94/94
f 95/95/95 89/89/89 88/88/88
f 96/96/96 89/89/89 95/95/95
f 97/97/97 90/90/90 91/91/91
f 98/98/98 97/97/97 91/91/91
f 99/99/99 92/92/92 90/90/90
f 99/99/99 94/94/94 92/92/92
f 97/97/97 99/99/99 90/90/90
f 100/100/100 88/88/88 93/93/93
f 95/95/95 88/88/88 100/100/100
f 101/101/101 93/93/93 94/94/94
f 101/101/101 94/94/94 99/99/99
f 100/100/100 93/93/93 101/101/101
f 102/102/102 96/96/96 95/95/95
f 103/103/103 96/96/96 102/102/102
f 104/104/104 97/97/97 98/98/98
f 105/105/105 104/104/104 98/98/98
f 106/106/106 99/99/99 97/97/97
f 106/106/106 101/101/101 99/99/99
f 104/104/104 106/106/106 97/97/97
f 107/107/107 95/95/95 100/100/100
f 102/102/102 95/95/95 107/107/107
f 108/108/108 100/100/100 101/101/101
f 108/108/108 101/101/101 106/106/106
f 107/107/107 100/100/100 108/108/108
f 109/109/109 103/103/103 102/102/102
f 110/110/110 103/103/103 109/109/109
f 111/111/111 104/104/104 105/105/105
f 112/112/112 111/111/111 105/105/105
f 113/113/113 106/106/106 104/104/104
f 113/113/113 108/108/108 106/106/106
f 111/111/111 113/113/113 104/104/104
f 114/114/114 102/102/102 107/107/107
f 109/109/109 102/102/102 114/114/114
f 115/115/115 107/107/107 108/108/108
f 115/115/115 108/108/108 113/113/113
f 114/114/114 107/107/107 115/115/115
f 116/116/116 110/110/110 109/109/109
f 117/117/117 110/110/110 116/116/116
f 118/118/118 111/111/111 112/112/112
f 119/119/119 118/118/118 112/112/112
f 120/120/120 113/113/113 111/111/111
f 120/120/120 115/115/115 113/113/113
f 118/118/118 120/120/120 111/111/111
f 121/121/121 109/109/109 114/114/114
f 116/116/116 109/109/109 121/121/121
f 122/122/122 114/114/114 115/115/115
f 122/122/122 115/115/115 120/120/120
f 121/121/121 114/114/114 122/122/122
f 123/123/123 117/117/117 116/116/116
f 124/124/124 117/117/117 123/123/123
f 125/125/125 118/118/118 119/119/119
f 126/126/126 125/125/125 119/119/119
f 127/127/127 120/120/120 118/118/118
f 127/127/127 122/122/122 120/120/120
f 125/125/125 127/127/127 118/118/118
f 128/128/128 116/116/116 121/121/121
f 123/123/123 116/116/116 128/128/128
f 129/129/129 121/121/121 122/122/122
f 129/129/129 122/122/122 127/127/127
f 128/128/128 121/121/121 129/129/129
f 130/130/130 124/124/124 123/123/123
f 131/131/131 124/124/124 130/130/130
f 132/132/132 131/131/131 130/130/130
f 133/133/133 125/125/125 126/126/126
f 134/134/134 133/133/133 126/126/126
f 135/135/135 127/127/127 125/125/125
f 135/135/135 129/129/129 127/127/127
f 133/133/133 135/135/135 125/125/125
f 136/136/136 123/123/123 128/128/128
f 130/130/130 123/123/123 136/136/136
f 132/132/132 130/130/130 137/137/137
f 137/137/137 130/130/130 136/136/136
f 138/138/138 132/132/132 137/137/137
f 139/139/139 128/128/128 129/129/129
f 139/139/139 129/129/129 135/135/135
f 136/136/136 128/128/128 139/139/139
f 140/140/140 133/133/133 134/134/134
f 141/141/141 140/140/140 134/134/134
f 142/142/142 135/135/135 133/133/133
f 142/142/142 139/139/139 135/135/135
f 140/140/140 142/142/142 133/133/133
f 143/143/143 136/136/136 139/139/139
f 137/137/137 136/136/136 143/143/143
f 143/143/143 139/139/139 142/142/142
f 138/138/138 137/137/137 144/144/144
f 144/144/144 137/137/137 143/143/143
f 145/145/145 138/138/138 144/144/144
f 146/146/146 143/143/143 142/142/142
f 146/146/146 142/142/142 140/140/140
f 144/144/144 143/143/143 146/146/146
f 147/147/147 140/140/140 141/141/141
f 147/147/147 146/146/146 140/140/140
f 148/148/148 147/147/147 141/141/141
f 145/145/145 144/144/144 149/149/149
f 149/149/149 144/144/144 146/146/146
f 149/149/149 146/146/146 147/147/147
f 150/150/150 145/145/145 149/149/149
f 151/151/151 147/147/147 148/148/148
f 151/151/151 149/149/149 147/147/147
f 150/150/150 149/149/149 151/151/151
f 152/152/152 151/151/151 148/148/148
f 153/153/153 150/150/150 151/151/151
f 153/153/153 151/151/151 152/152/152
f 154/154/154 153/153/153 152/152/152
