g Cylinder001
v -0.141375571 -0.23229216 -0.000131429711
v -0.0763799772 -0.223816156 0.00605273107
v -0.0715058297 -0.234352186 -0.000150578257
v -0.148281306 -0.217278734 0.00870813522
v -0.208841458 -0.225879282 -0.000113207723
v -0.0813366249 -0.213102639 0.0123606799
v -0.218403623 -0.205034524 0.012159626
v -0.272752702 -0.215234831 -9.75836738E-05
v -0.155281544 -0.202059612 0.0176687986
v -0.086375244 -0.202211305 0.0187732484
v -0.28563422 -0.187154144 0.0164357089
v -0.33201611 -0.200566083 -8.54053942E-05
v -0.228074133 -0.183953553 0.024571646
v -0.162376285 -0.186634809 0.026750559
v -0.0914961249 -0.191142246 0.0252904519
v -0.348893642 -0.163847938 0.0215333626
v -0.385616094 -0.182160541 -7.66062731E-05
v -0.298638225 -0.158806577 0.0331260301
v -0.237853065 -0.162636176 0.037122868
v -0.169565767 -0.171004444 0.0359534062
v -0.0966991261 -0.179895431 0.031912297
v -0.407129318 -0.135497168 0.0273977369
v -0.432632029 -0.160379484 -7.038693E-05
v -0.365905881 -0.126836717 0.0433248021
v -0.311764419 -0.130192593 0.0499733612
v -0.247740343 -0.141082332 0.0498132631
v -0.176849753 -0.155168265 0.0452773757
v -0.101984531 -0.168470964 0.0386387594
v -0.184228197 -0.139126495 0.0547224209
v -0.257736117 -0.119292162 0.0626428574
v -0.267840236 -0.0972655788 0.075611636
v -0.459308922 -0.102677681 0.0339030437
v -0.472255677 -0.13564834 -6.54817122E-05
v -0.428786814 -0.0885206759 0.0550565161
v -0.383052886 -0.0895321965 0.0652888641
v -0.325013041 -0.101311825 0.0669777244
v -0.338383853 -0.0721642375 0.0841391012
v -0.351876825 -0.0427501239 0.101457477
v -0.504418314 -0.0661682487 0.0408428609
v -0.503805935 -0.108447857 -6.04674824E-05
v -0.486135691 -0.0446517207 0.0680675209
v -0.450588912 -0.041230768 0.0828996822
v -0.400334716 -0.0519342087 0.0874256417
v -0.417751282 -0.0140431998 0.109735049
v -0.435302436 0.0241411068 0.132217079
v -0.541475296 -0.026929345 0.0479358546
v -0.526738763 -0.0793010369 -5.39514076E-05
v -0.569561958 0.0139465667 0.0548480675
v -0.53673172 0.00363751897 0.0819429532
v -0.579291046 0.0549055524 0.0961184353
v -0.612521589 0.107491113 0.109925047
v -0.513112545 0.0136989271 0.10242299
v -0.472535402 0.00637230603 0.110927358
v -0.494626254 0.0542887524 0.139139429
v -0.516861379 0.102518305 0.167535901
v -0.617252946 0.137056887 0.144487321
v -0.655617833 0.201332971 0.165177032
v -0.569195747 0.0737689584 0.123234726
v -0.540239394 0.0723738968 0.136969566
v -0.567516267 0.13137345 0.171707183
v -0.594943225 0.190697521 0.206635833
v -0.601810575 0.144225985 0.1647183
v -0.655361235 0.214653462 0.193042561
v -0.698850513 0.290600926 0.220604122
v -0.634576261 0.210137486 0.20639357
v -0.667492509 0.281245649 0.248260587
v -0.693615556 0.297437608 0.241784051
v -0.742219567 0.385037005 0.276206076
v -0.732016146 0.380538166 0.29071182
v -0.785724998 0.479770601 0.331983149
vt 0.0326659679 -1.24963151E-10
vt 0 0.166888952
vt 0 -1.24963151E-10
vt 0.0326659679 0.166888952
vt 0.0653319359 -1.24963151E-10
vt 0 0.333777875
vt 0.0653319955 0.166888952
vt 0.0979979634 -1.24963151E-10
vt 0.0326659679 0.333777875
vt 0 0.500666797
vt 0.0979979634 0.166888952
vt 0.130663872 -1.24963151E-10
vt 0.0653319955 0.333777875
vt 0.0326659679 0.500666797
vt 0 0.667555749
vt 0.130663872 0.166888952
vt 0.16332987 -1.24963151E-10
vt 0.0979979634 0.333777875
vt 0.0653319359 0.500666797
vt 0.0326659679 0.667555749
vt 0 0.834444642
vt 0.16332987 0.166888952
vt 0.195995748 -1.24963151E-10
vt 0.130663872 0.333777875
vt 0.0979979634 0.500666797
vt 0.0653319359 0.667555749
vt 0.0326659679 0.834444642
vt 0 1.00133359
vt 0.0326659679 1.00133359
vt 0.0653319359 0.834444642
vt 0.0653319359 1.00133359
vt 0.195995867 0.166888952
vt 0.228661776 -1.24963151E-10
vt 0.16332987 0.333777875
vt 0.130663872 0.500666797
vt 0.0979979634 0.667555749
vt 0.0979979634 0.834444642
vt 0.0979979634 1.00133359
vt 0.228661776 0.166888952
vt 0.261327714 -1.24963151E-10
vt 0.195995867 0.333777875
vt 0.16332987 0.500666797
vt 0.130663872 0.667555749
vt 0.130663872 0.834444642
vt 0.130663872 1.00133359
vt 0.261327714 0.166888952
vt 0.293993711 -1.24963151E-10
vt 0.293993711 0.166888952
vt 0.228661776 0.333777875
vt 0.261327714 0.333777875
vt 0.293993711 0.333777875
vt 0.195995748 0.500666797
vt 0.16332987 0.667555749
vt 0.16332987 0.834444642
vt 0.16332987 1.00133359
vt 0.261327714 0.500666797
vt 0.293993711 0.500666797
vt 0.228661776 0.500666797
vt 0.195995748 0.667555749
vt 0.195995748 0.834444642
vt 0.195995748 1.00133359
vt 0.228661776 0.667555749
vt 0.261327714 0.667555749
vt 0.293993711 0.667555749
vt 0.228661776 0.834444642
vt 0.228661776 1.00133359
vt 0.261327714 0.834444642
vt 0.293993711 0.834444642
vt 0.261327714 1.00133359
vt 0.293993711 1.00133359
vn -0.0273738634 -0.516493917 0.85585314
vn -0.0148776714 -0.512395501 0.858620644
vn -0.0148749836 -0.512393773 0.858621716
vn -0.0322199576 -0.518060088 0.854737222
vn -0.0630290583 -0.527682185 0.847100198
vn -0.0148850651 -0.512398958 0.858618557
vn -0.0692706555 -0.52956301 0.845437527
vn -0.103937298 -0.539609969 0.835474789
vn -0.0322318897 -0.518064082 0.854734302
vn -0.0148924952 -0.512400627 0.858617306
vn -0.112241015 -0.541917562 0.832902968
vn -0.152665108 -0.552593529 0.819349647
vn -0.0692791268 -0.529566169 0.845434844
vn -0.0322437435 -0.518068433 0.854731202
vn -0.0148996636 -0.512403786 0.858615398
vn -0.164184377 -0.555467427 0.815168321
vn -0.213276476 -0.566817582 0.795758069
vn -0.112206571 -0.541908979 0.83291316
vn -0.0692880973 -0.529569745 0.845431924
vn -0.0322556645 -0.51807183 0.854728639
vn -0.0149064148 -0.512404978 0.858614624
vn -0.230128169 -0.570376515 0.788486898
vn -0.292488784 -0.581917048 0.758829892
vn -0.164039791 -0.555432796 0.815221071
vn -0.112171009 -0.541899145 0.832924366
vn -0.069296129 -0.529571295 0.845430195
vn -0.032267943 -0.518075883 0.854725778
vn -0.014912297 -0.51240772 0.858612776
vn -0.0410467759 -0.52087611 0.85264492
vn -0.0693049431 -0.529573917 0.845427811
vn -0.0806725249 -0.532939315 0.842298985
vn -0.31875062 -0.585984707 0.744996607
vn -0.401537806 -0.595449567 0.695850074
vn -0.229812309 -0.570312321 0.788625538
vn -0.163893461 -0.555396259 0.815275311
vn -0.112135082 -0.541888416 0.832936227
vn -0.112099364 -0.54187876 0.832947314
vn -0.126930162 -0.545897961 0.828181148
vn -0.444953561 -0.59820509 0.666458488
vn -0.557145357 -0.597167969 0.577043831
vn -0.318357944 -0.585928023 0.745209098
vn -0.229492858 -0.570246875 0.788765907
vn -0.163745493 -0.555360079 0.815329731
vn -0.163595974 -0.555323362 0.815384746
vn -0.183383524 -0.560075879 0.807889462
vn -0.627944648 -0.589128315 0.508540452
vn -0.723227084 -0.566045761 0.395644963
vn -0.728087008 -0.564393997 0.389035583
vn -0.445271999 -0.598219216 0.666233122
vn -0.63157022 -0.588545144 0.50471133
vn -0.73381412 -0.562372625 0.381121844
vn -0.317964941 -0.585871398 0.74542135
vn -0.22917299 -0.570182383 0.788905501
vn -0.22884886 -0.570115387 0.789047897
vn -0.256336093 -0.575547636 0.776554406
vn -0.633600175 -0.594182134 0.495477915
vn -0.783794045 -0.554178774 0.280272871
vn -0.445081204 -0.598830521 0.66581136
vn -0.317733258 -0.586650729 0.744907081
vn -0.31483674 -0.592467666 0.741525352
vn -0.287486494 -0.581205666 0.761282802
vn -0.441903204 -0.611094892 0.656722546
vn -0.665681601 -0.596007466 0.44904688
vn -0.748690009 -0.557807565 0.358209461
vn -0.41156882 -0.602930188 0.683437109
vn -0.50419122 -0.599285662 0.621810257
vn -0.642712712 -0.587040126 0.492244124
vn -0.750956416 -0.555810332 0.356566042
vn -0.739642322 -0.560262501 0.37287429
vn -0.751269817 -0.555682778 0.356104255
g Cylinder001_0
f 3/3/3 2/2/2 1/1/1
f 2/2/2 4/4/4 1/1/1
f 1/1/1 4/4/4 5/5/5
f 2/2/2 6/6/6 4/4/4
f 4/4/4 7/7/7 5/5/5
f 5/5/5 7/7/7 8/8/8
f 6/6/6 9/9/9 4/4/4
f 4/4/4 9/9/9 7/7/7
f 6/6/6 10/10/10 9/9/9
f 7/7/7 11/11/11 8/8/8
f 8/8/8 11/11/11 12/12/12
f 9/9/9 13/13/13 7/7/7
f 7/7/7 13/13/13 11/11/11
f 10/10/10 14/14/14 9/9/9
f 9/9/9 14/14/14 13/13/13
f 10/10/10 15/15/15 14/14/14
f 11/11/11 16/16/16 12/12/12
f 12/12/12 16/16/16 17/17/17
f 13/13/13 18/18/18 11/11/11
f 11/11/11 18/18/18 16/16/16
f 14/14/14 19/19/19 13/13/13
f 13/13/13 19/19/19 18/18/18
f 15/15/15 20/20/20 14/14/14
f 14/14/14 20/20/20 19/19/19
f 15/15/15 21/21/21 20/20/20
f 16/16/16 22/22/22 17/17/17
f 17/17/17 22/22/22 23/23/23
f 18/18/18 24/24/24 16/16/16
f 16/16/16 24/24/24 22/22/22
f 19/19/19 25/25/25 18/18/18
f 18/18/18 25/25/25 24/24/24
f 20/20/20 26/26/26 19/19/19
f 19/19/19 26/26/26 25/25/25
f 21/21/21 27/27/27 20/20/20
f 20/20/20 27/27/27 26/26/26
f 21/21/21 28/28/28 27/27/27
f 28/28/28 29/29/29 27/27/27
f 27/27/27 29/29/29 30/30/30
f 27/27/27 30/30/30 26/26/26
f 29/29/29 31/31/31 30/30/30
f 22/22/22 32/32/32 23/23/23
f 23/23/23 32/32/32 33/33/33
f 24/24/24 34/34/34 22/22/22
f 22/22/22 34/34/34 32/32/32
f 25/25/25 35/35/35 24/24/24
f 24/24/24 35/35/35 34/34/34
f 26/26/26 36/36/36 25/25/25
f 26/26/26 30/30/30 36/36/36
f 25/25/25 36/36/36 35/35/35
f 30/30/30 31/31/31 37/37/37
f 30/30/30 37/37/37 36/36/36
f 31/31/31 38/38/38 37/37/37
f 32/32/32 39/39/39 33/33/33
f 33/33/33 39/39/39 40/40/40
f 34/34/34 41/41/41 32/32/32
f 32/32/32 41/41/41 39/39/39
f 35/35/35 42/42/42 34/34/34
f 34/34/34 42/42/42 41/41/41
f 36/36/36 43/43/43 35/35/35
f 36/36/36 37/37/37 43/43/43
f 35/35/35 43/43/43 42/42/42
f 37/37/37 38/38/38 44/44/44
f 37/37/37 44/44/44 43/43/43
f 38/38/38 45/45/45 44/44/44
f 39/39/39 46/46/46 40/40/40
f 40/40/40 46/46/46 47/47/47
f 46/46/46 48/48/48 47/47/47
f 41/41/41 49/49/49 39/39/39
f 39/39/39 49/49/49 46/46/46
f 46/46/46 50/50/50 48/48/48
f 49/49/49 50/50/50 46/46/46
f 50/50/50 51/51/51 48/48/48
f 42/42/42 52/52/52 41/41/41
f 41/41/41 52/52/52 49/49/49
f 43/43/43 53/53/53 42/42/42
f 43/43/43 44/44/44 53/53/53
f 42/42/42 53/53/53 52/52/52
f 44/44/44 45/45/45 54/54/54
f 44/44/44 54/54/54 53/53/53
f 45/45/45 55/55/55 54/54/54
f 50/50/50 56/56/56 51/51/51
f 56/56/56 57/57/57 51/51/51
f 49/49/49 58/58/58 50/50/50
f 52/52/52 58/58/58 49/49/49
f 58/58/58 56/56/56 50/50/50
f 53/53/53 59/59/59 52/52/52
f 53/53/53 54/54/54 59/59/59
f 52/52/52 59/59/59 58/58/58
f 54/54/54 55/55/55 60/60/60
f 54/54/54 60/60/60 59/59/59
f 55/55/55 61/61/61 60/60/60
f 59/59/59 62/62/62 58/58/58
f 58/58/58 62/62/62 56/56/56
f 59/59/59 60/60/60 62/62/62
f 56/56/56 63/63/63 57/57/57
f 62/62/62 63/63/63 56/56/56
f 63/63/63 64/64/64 57/57/57
f 60/60/60 61/61/61 65/65/65
f 60/60/60 65/65/65 62/62/62
f 62/62/62 65/65/65 63/63/63
f 61/61/61 66/66/66 65/65/65
f 63/63/63 67/67/67 64/64/64
f 65/65/65 67/67/67 63/63/63
f 65/65/65 66/66/66 67/67/67
f 67/67/67 68/68/68 64/64/64
f 66/66/66 69/69/69 67/67/67
f 67/67/67 69/69/69 68/68/68
f 69/69/69 70/70/70 68/68/68
