g lian_tao
v -2.90109849 2.02293539 0
v -2.93881679 1.4258678 0
v -3.23041677 1.77154577 0
v -2.64531755 1.64997363 0
v -2.38089108 2.34119272 0
v -2.64721632 1.0801897 0
v -2.15987492 1.94663465 0
v -1.77790403 2.64793444 0
v -2.3895371 1.27701235 0
v -2.35561633 0.734511554 0
v -1.60212052 2.23125172 0
v -1.24833798 2.81997776 0
v -1.93885863 1.55207694 0
v -2.13375616 0.904050827 0
v -2.06401587 0.388833433 0
v -1.87797546 0.531089365 0
v -1.71784246 1.15751922 0
v -1.49682605 0.762961388 0
v -1.14705181 2.37922335 0
v -0.728103042 2.8981607 0
v -1.42633677 1.81456959 0
v -1.25055325 1.39788735 0
v -1.07476962 0.981204808 0
v -0.691157997 2.44742894 0
v -0.213663891 2.91920161 0
v -1.04576564 1.93846786 0
v -0.944479465 1.49771261 0
v -0.843193173 1.0569576 0
v -0.207742557 2.46699715 0
v 0.354565382 2.92274976 0
v -0.654212952 1.99669695 0
v -0.617268026 1.54596555 0
v -0.5803231 1.09523368 0
v 0.357918084 2.4705193 0
v 1.00949168 2.88849378 0
v -0.201821014 2.01479244 0
v -0.195899665 1.5625881 0
v -0.189978138 1.11038339 0
v 0.949059308 2.44030643 0
v 1.63763201 2.75513649 0
v 0.361270398 2.01828837 0
v 0.3646231 1.56605792 0
v 0.367975593 1.11382675 0
v 1.51190484 2.32072115 0
v 2.22251678 2.54226661 0
v 0.888626754 1.99211884 0
v 0.828194618 1.54393172 0
v 0.767762244 1.09574437 0
v 2.03973031 2.12860799 0
v 2.75444174 2.26346445 0
v 1.38617754 1.88630593 0
v 1.26045012 1.45189083 0
v 1.13472283 1.01747525 0
v 2.51730728 1.87837839 0
v 3.22390652 1.923177 0
v 1.85694337 1.71494973 0
v 1.6741569 1.3012917 0
v 1.49136996 0.887633801 0
v 2.92951155 1.57987547 0
v 3.62036276 1.50835192 0
v 2.28017306 1.49329257 0
v 2.04303837 1.10820651 0
v 1.80590391 0.72312057 0
v 3.26069474 1.23419368 0
v 3.91016817 0.997834265 0
v 2.63511729 1.23657417 0
v 2.3407228 0.893272817 0
v 2.04632807 0.549971342 0
v 3.49190927 0.825835049 0
v 4.07490635 0.452063888 0
v 2.90102625 0.960035205 0
v 2.54135823 0.685877144 0
v 2.18168902 0.411718756 0
v 3.63224721 0.359453917 0
v 4.15183878 -0.119352452 0
v 3.07365131 0.653835952 0
v 2.65539265 0.481836855 0
v 2.23713374 0.309837669 0
v 3.70060825 -0.149594352 0
v 4.155375 -0.710814655 0
v 3.18958759 0.266844064 0
v 2.74692822 0.174234226 0
v 2.30426836 0.0816241801 0
v 3.70375848 -0.687012315 0
v 4.08869553 -1.31190372 0
v 3.24937701 -0.179836214 0
v 2.79814601 -0.210078165 0
v 2.34691501 -0.240320012 0
v 3.6428504 -1.23609769 0
v 3.94895434 -1.9095732 0
v 3.25214171 -0.663210094 0
v 2.80052567 -0.639407814 0
v 2.34890962 -0.615605474 0
v 3.5160234 -1.77882779 0
v 3.71611261 -2.49356675 0
v 3.19700575 -1.16029155 0
v 2.75116086 -1.08448553 0
v 2.30531645 -1.00867939 0
v 3.31586647 -2.28302765 0
v 3.36386991 -3.00986075 0
v 3.0830915 -1.64808273 0
v 2.65015984 -1.51733756 0
v 2.21722841 -1.38659227 0
v 3.02223539 -2.71353269 0
v 2.91163135 -3.42613268 0
v 2.91561985 -2.07248831 0
v 2.51537347 -1.86194932 0
v 2.11512685 -1.65140998 0
v 2.64356041 -3.06190443 0
v 2.38950944 -3.73549676 0
v 2.68060136 -2.41720486 0
v 2.3389678 -2.12087703 0
v 1.99733329 -1.82454908 0
v 2.1965816 -3.32646942 0
v 1.82061112 -3.94866872 0
v 2.37548971 -2.69767618 0
v 2.10741878 -2.33344865 0
v 1.83934796 -1.96922052 0
v 1.69454205 -3.5143528 0
v 1.2153523 -4.08226109 0
v 2.00365353 -2.91744304 0
v 1.81072569 -2.50841618 0
v 1.61779749 -2.09938955 0
v 1.14433634 -3.63562775 0
v 0.558052957 -4.15151358 0
v 1.5684731 -3.0800364 0
v 1.44240439 -2.64572001 0
v 1.31633568 -2.21140385 0
v 0.533686042 -3.69992757 0
v -0.14452742 -4.14360762 0
v 1.07332027 -3.18899512 0
v 1.00230408 -2.7423625 0
v 0.931288123 -2.29573011 0
v -0.1072919 -3.69290018 0
v -0.765674472 -4.0462265 0
v 0.509318709 -3.24834037 0
v 0.484951794 -2.79675436 0
v 0.460584879 -2.34516788 0
v -0.661662042 -3.606107 0
v -1.30522931 -3.87706947 0
v -0.0700567663 -3.24219227 0
v -0.0328212529 -2.79148412 0
v 0.00441407179 -2.34077644 0
v -1.13961768 -3.45624089 0
v -1.76210284 -3.6659379 0
v -0.557649553 -3.16598725 0
v -0.453637123 -2.72586751 0
v -0.349624693 -2.28574777 0
v -1.55089152 -3.26604486 0
v -2.144274 -3.44725847 0
v -0.974005818 -3.03541207 0
v -0.808394074 -2.61458349 0
v -0.64278239 -2.19375491 0
v -1.90974927 -3.06057739 0
v -2.64891076 -3.0312624 0
v -1.33968043 -2.866153 0
v -1.12846923 -2.46626067 0
v -0.917258143 -2.06636834 0
v -2.32304335 -2.71767902 0
v -2.9674654 -2.70022988 0
v -1.6752249 -2.67389607 0
v -1.44070053 -2.28721499 0
v -1.20617616 -1.90053356 0
v -2.64159799 -2.38664651 0
v -3.28601956 -2.36919665 0
v -1.99717617 -2.40409565 0
v -1.67130864 -2.09051228 0
v -1.34544134 -1.77692914 0
v -2.96015215 -2.05561328 0
v -3.60457444 -2.03816342 0
v -3.27870679 -1.72457993 0
v -2.31573057 -2.07306337 0
v -1.98986316 -1.75948 0
v -1.66399586 -1.44589651 0
v -2.63428497 -1.74202991 0
v -2.95283937 -1.41099656 0
v -2.3084178 -1.42844653 0
v -1.98255026 -1.11486328 0
v -2.62697268 -1.09741342 0
v -2.30110478 -0.783830047 0
vt 0.975110471 0.407480657
vt 1.00348282 0.460705817
vt 1.00348282 0.407480657
vt 0.975110471 0.460705817
vt 0.946738005 0.407480657
vt 1.00348282 0.513930976
vt 0.946738005 0.460705817
vt 0.918365538 0.407480657
vt 0.975110471 0.513930976
vt 1.00348282 0.567156076
vt 0.918365538 0.460705817
vt 0.889993131 0.407480657
vt 0.946738005 0.513930976
vt 0.975110471 0.567156076
vt 1.00348282 0.620381236
vt 0.975110471 0.620381236
vt 0.946738005 0.567156076
vt 0.946738005 0.620381236
vt 0.889993131 0.460705817
vt 0.861620724 0.407480657
vt 0.918365538 0.513930976
vt 0.918365538 0.567156076
vt 0.918365538 0.620381236
vt 0.861620724 0.460705817
vt 0.833248317 0.407480657
vt 0.889993131 0.513930976
vt 0.889993131 0.567156076
vt 0.889993131 0.620381236
vt 0.833248317 0.460705817
vt 0.80487591 0.407480657
vt 0.861620724 0.513930976
vt 0.861620724 0.567156076
vt 0.861620724 0.620381236
vt 0.80487591 0.460705817
vt 0.776503503 0.407480657
vt 0.833248317 0.513930976
vt 0.833248317 0.567156076
vt 0.833248317 0.620381236
vt 0.776503503 0.460705817
vt 0.748131037 0.407480657
vt 0.80487591 0.513930976
vt 0.80487591 0.567156076
vt 0.80487591 0.620381236
vt 0.748131037 0.460705817
vt 0.71975863 0.407480657
vt 0.776503503 0.513930976
vt 0.776503503 0.567156076
vt 0.776503503 0.620381236
vt 0.71975863 0.460705817
vt 0.691386223 0.407480657
vt 0.748131037 0.513930976
vt 0.748131037 0.567156076
vt 0.748131037 0.620381236
vt 0.691386223 0.460705817
vt 0.663013816 0.407480657
vt 0.71975863 0.513930976
vt 0.71975863 0.567156076
vt 0.71975863 0.620381236
vt 0.663013816 0.460705817
vt 0.634641409 0.407480657
vt 0.691386223 0.513930976
vt 0.691386223 0.567156076
vt 0.691386223 0.620381236
vt 0.634641409 0.460705817
vt 0.606269062 0.407480657
vt 0.663013816 0.513930976
vt 0.663013816 0.567156076
vt 0.663013816 0.620381236
vt 0.606269062 0.460705817
vt 0.577896595 0.407480657
vt 0.634641409 0.513930976
vt 0.634641409 0.567156076
vt 0.634641409 0.620381236
vt 0.577896595 0.460705817
vt 0.549524069 0.407480657
vt 0.606269062 0.513930976
vt 0.606269062 0.567156076
vt 0.606269062 0.620381236
vt 0.549524069 0.460705817
vt 0.521151721 0.407480657
vt 0.577896595 0.513930976
vt 0.577896595 0.567156076
vt 0.577896595 0.620381236
vt 0.521151721 0.460705817
vt 0.492779285 0.407480657
vt 0.549524069 0.513930976
vt 0.549524069 0.567156076
vt 0.549524069 0.620381236
vt 0.492779285 0.460705817
vt 0.464406818 0.407480657
vt 0.521151721 0.513930976
vt 0.521151721 0.567156076
vt 0.521151721 0.620381236
vt 0.464406818 0.460705817
vt 0.436034411 0.407480657
vt 0.492779285 0.513930976
vt 0.492779285 0.567156076
vt 0.492779285 0.620381236
vt 0.436034411 0.460705817
vt 0.407662004 0.407480657
vt 0.464406818 0.513930976
vt 0.464406818 0.567156076
vt 0.464406818 0.620381236
vt 0.407662004 0.460705817
vt 0.379289597 0.407480657
vt 0.436034411 0.513930976
vt 0.436034411 0.567156076
vt 0.436034411 0.620381236
vt 0.379289597 0.460705817
vt 0.35091719 0.407480657
vt 0.407662004 0.513930976
vt 0.407662004 0.567156076
vt 0.407662004 0.620381236
vt 0.35091719 0.460705817
vt 0.322544783 0.407480657
vt 0.379289597 0.513930976
vt 0.379289597 0.567156076
vt 0.379289597 0.620381236
vt 0.322544783 0.460705817
vt 0.294172317 0.407480657
vt 0.35091719 0.513930976
vt 0.35091719 0.567156076
vt 0.35091719 0.620381236
vt 0.294172317 0.460705817
vt 0.265799969 0.407480657
vt 0.322544783 0.513930976
vt 0.322544783 0.567156076
vt 0.322544783 0.620381236
vt 0.265799969 0.460705817
vt 0.237427533 0.407480657
vt 0.294172317 0.513930976
vt 0.294172317 0.567156076
vt 0.294172317 0.620381236
vt 0.237427533 0.460705817
vt 0.209055126 0.407480657
vt 0.265799969 0.513930976
vt 0.265799969 0.567156076
vt 0.265799969 0.620381236
vt 0.209055126 0.460705817
vt 0.180682689 0.407480657
vt 0.237427533 0.513930976
vt 0.237427533 0.567156076
vt 0.237427533 0.620381236
vt 0.180682689 0.460705817
vt 0.152310312 0.407480657
vt 0.209055126 0.513930976
vt 0.209055126 0.567156076
vt 0.209055126 0.620381236
vt 0.152310312 0.460705817
vt 0.123937875 0.407480657
vt 0.180682689 0.513930976
vt 0.180682689 0.567156076
vt 0.180682689 0.620381236
vt 0.123937875 0.460705817
vt 0.0955654681 0.407480657
vt 0.152310312 0.513930976
vt 0.152310312 0.567156076
vt 0.152310312 0.620381236
vt 0.0955654681 0.460705817
vt 0.0671930611 0.407480657
vt 0.123937875 0.513930976
vt 0.123937875 0.567156076
vt 0.123937875 0.620381236
vt 0.0671930611 0.460705817
vt 0.0388206355 0.407480657
vt 0.0955654681 0.513930976
vt 0.0955654681 0.567156076
vt 0.0955654681 0.620381236
vt 0.0388206355 0.460705817
vt 0.0104482248 0.407480657
vt 0.0104482248 0.460705817
vt 0.0671930611 0.513930976
vt 0.0671930611 0.567156076
vt 0.0671930611 0.620381236
vt 0.0388206355 0.513930976
vt 0.0104482248 0.513930976
vt 0.0388206355 0.567156076
vt 0.0388206355 0.620381236
vt 0.0104482248 0.567156076
vt 0.0104482248 0.620381236
vn -0 0 1
vn -0 0 1
vn -0 0 1
vn -0 0 1
vn -0 0 1
vn -0 0 1
vn -0 0 1
vn -0 0 1
vn -0 0 1
vn -0 0 1
vn -0 0 1
vn -0 0 1
vn -0 0 1
vn -0 0 1
vn -0 0 1
vn -0 0 1
vn -0 0 1
vn -0 0 1
vn -0 0 1
vn -0 0 1
vn -0 0 1
vn -0 0 1
vn -0 0 1
vn -0 0 1
vn -0 0 1
vn -0 0 1
vn -0 0 1
vn -0 0 1
vn -0 0 1
vn -0 0 1
vn -0 0 1
vn -0 0 1
vn -0 0 1
vn -0 0 1
vn -0 0 1
vn -0 0 1
vn -0 0 1
vn -0 0 1
vn -0 0 1
vn -0 0 1
vn -0 0 1
vn -0 0 1
vn -0 0 1
vn -0 0 1
vn -0 0 1
vn -0 0 1
vn -0 0 1
vn -0 0 1
vn -0 0 1
vn -0 0 1
vn -0 0 1
vn -0 0 1
vn -0 0 1
vn -0 0 1
vn -0 0 1
vn -0 0 1
vn -0 0 1
vn -0 0 1
vn -0 0 1
vn -0 0 1
vn -0 0 1
vn -0 0 1
vn -0 0 1
vn -0 0 1
vn -0 0 1
vn -0 0 1
vn -0 0 1
vn -0 0 1
vn -0 0 1
vn -0 0 1
vn -0 0 1
vn -0 0 1
vn -0 0 1
vn -0 0 1
vn -0 0 1
vn -0 0 1
vn -0 0 1
vn -0 0 1
vn -0 0 1
vn -0 0 1
vn -0 0 1
vn -0 0 1
vn -0 0 1
vn -0 0 1
vn -0 0 1
vn -0 0 1
vn -0 0 1
vn -0 0 1
vn -0 0 1
vn -0 0 1
vn -0 0 1
vn -0 0 1
vn -0 0 1
vn -0 0 1
vn -0 0 1
vn -0 0 1
vn -0 0 1
vn -0 0 1
vn -0 0 1
vn -0 0 1
vn -0 0 1
vn -0 0 1
vn -0 0 1
vn -0 0 1
vn -0 0 1
vn -0 0 1
vn -0 0 1
vn -0 0 1
vn -0 0 1
vn -0 0 1
vn -0 0 1
vn -0 0 1
vn -0 0 1
vn -0 0 1
vn -0 0 1
vn -0 0 1
vn -0 0 1
vn -0 0 1
vn -0 0 1
vn -0 0 1
vn -0 0 1
vn -0 0 1
vn -0 0 1
vn -0 0 1
vn -0 0 1
vn -0 0 1
vn -0 0 1
vn -0 0 1
vn -0 0 1
vn -0 0 1
vn -0 0 1
vn -0 0 1
vn -0 0 1
vn -0 0 1
vn -0 0 1
vn -0 0 1
vn -0 0 1
vn -0 0 1
vn -0 0 1
vn -0 0 1
vn -0 0 1
vn -0 0 1
vn -0 0 1
vn -0 0 1
vn -0 0 1
vn -0 0 1
vn -0 0 1
vn -0 0 1
vn -0 0 1
vn -0 0 1
vn -0 0 1
vn -0 0 1
vn -0 0 1
vn -0 0 1
vn -0 0 1
vn -0 0 1
vn -0 0 1
vn -0 0 1
vn -0 0 1
vn -0 0 1
vn -0 0 1
vn -0 0 1
vn -0 0 1
vn -0 0 1
vn -0 0 1
vn -0 0 1
vn -0 0 1
vn -0 0 1
vn -0 0 1
vn -0 0 1
vn -0 0 1
vn -0 0 1
vn -0 0 1
vn -0 0 1
vn -0 0 1
vn -0 0 1
vn -0 0 1
vn -0 0 1
vn -0 0 1
vn -0 0 1
g lian_tao_0
f 3/3/3 2/2/2 1/1/1
f 2/2/2 4/4/4 1/1/1
f 1/1/1 4/4/4 5/5/5
f 2/2/2 6/6/6 4/4/4
f 4/4/4 7/7/7 5/5/5
f 5/5/5 7/7/7 8/8/8
f 6/6/6 9/9/9 4/4/4
f 4/4/4 9/9/9 7/7/7
f 6/6/6 10/10/10 9/9/9
f 7/7/7 11/11/11 8/8/8
f 8/8/8 11/11/11 12/12/12
f 9/9/9 13/13/13 7/7/7
f 7/7/7 13/13/13 11/11/11
f 10/10/10 14/14/14 9/9/9
f 9/9/9 14/14/14 13/13/13
f 10/10/10 15/15/15 14/14/14
f 15/15/15 16/16/16 14/14/14
f 14/14/14 16/16/16 17/17/17
f 14/14/14 17/17/17 13/13/13
f 16/16/16 18/18/18 17/17/17
f 11/11/11 19/19/19 12/12/12
f 12/12/12 19/19/19 20/20/20
f 13/13/13 21/21/21 11/11/11
f 13/13/13 17/17/17 21/21/21
f 11/11/11 21/21/21 19/19/19
f 17/17/17 18/18/18 22/22/22
f 17/17/17 22/22/22 21/21/21
f 18/18/18 23/23/23 22/22/22
f 19/19/19 24/24/24 20/20/20
f 20/20/20 24/24/24 25/25/25
f 21/21/21 26/26/26 19/19/19
f 21/21/21 22/22/22 26/26/26
f 19/19/19 26/26/26 24/24/24
f 22/22/22 23/23/23 27/27/27
f 22/22/22 27/27/27 26/26/26
f 23/23/23 28/28/28 27/27/27
f 24/24/24 29/29/29 25/25/25
f 25/25/25 29/29/29 30/30/30
f 26/26/26 31/31/31 24/24/24
f 26/26/26 27/27/27 31/31/31
f 24/24/24 31/31/31 29/29/29
f 27/27/27 28/28/28 32/32/32
f 27/27/27 32/32/32 31/31/31
f 28/28/28 33/33/33 32/32/32
f 29/29/29 34/34/34 30/30/30
f 30/30/30 34/34/34 35/35/35
f 31/31/31 36/36/36 29/29/29
f 31/31/31 32/32/32 36/36/36
f 29/29/29 36/36/36 34/34/34
f 32/32/32 33/33/33 37/37/37
f 32/32/32 37/37/37 36/36/36
f 33/33/33 38/38/38 37/37/37
f 34/34/34 39/39/39 35/35/35
f 35/35/35 39/39/39 40/40/40
f 36/36/36 41/41/41 34/34/34
f 36/36/36 37/37/37 41/41/41
f 34/34/34 41/41/41 39/39/39
f 37/37/37 38/38/38 42/42/42
f 37/37/37 42/42/42 41/41/41
f 38/38/38 43/43/43 42/42/42
f 39/39/39 44/44/44 40/40/40
f 40/40/40 44/44/44 45/45/45
f 41/41/41 46/46/46 39/39/39
f 41/41/41 42/42/42 46/46/46
f 39/39/39 46/46/46 44/44/44
f 42/42/42 43/43/43 47/47/47
f 42/42/42 47/47/47 46/46/46
f 43/43/43 48/48/48 47/47/47
f 44/44/44 49/49/49 45/45/45
f 45/45/45 49/49/49 50/50/50
f 46/46/46 51/51/51 44/44/44
f 46/46/46 47/47/47 51/51/51
f 44/44/44 51/51/51 49/49/49
f 47/47/47 48/48/48 52/52/52
f 47/47/47 52/52/52 51/51/51
f 48/48/48 53/53/53 52/52/52
f 49/49/49 54/54/54 50/50/50
f 50/50/50 54/54/54 55/55/55
f 51/51/51 56/56/56 49/49/49
f 51/51/51 52/52/52 56/56/56
f 49/49/49 56/56/56 54/54/54
f 52/52/52 53/53/53 57/57/57
f 52/52/52 57/57/57 56/56/56
f 53/53/53 58/58/58 57/57/57
f 54/54/54 59/59/59 55/55/55
f 55/55/55 59/59/59 60/60/60
f 56/56/56 61/61/61 54/54/54
f 56/56/56 57/57/57 61/61/61
f 54/54/54 61/61/61 59/59/59
f 57/57/57 58/58/58 62/62/62
f 57/57/57 62/62/62 61/61/61
f 58/58/58 63/63/63 62/62/62
f 59/59/59 64/64/64 60/60/60
f 60/60/60 64/64/64 65/65/65
f 61/61/61 66/66/66 59/59/59
f 61/61/61 62/62/62 66/66/66
f 59/59/59 66/66/66 64/64/64
f 62/62/62 63/63/63 67/67/67
f 62/62/62 67/67/67 66/66/66
f 63/63/63 68/68/68 67/67/67
f 64/64/64 69/69/69 65/65/65
f 65/65/65 69/69/69 70/70/70
f 66/66/66 71/71/71 64/64/64
f 66/66/66 67/67/67 71/71/71
f 64/64/64 71/71/71 69/69/69
f 67/67/67 68/68/68 72/72/72
f 67/67/67 72/72/72 71/71/71
f 68/68/68 73/73/73 72/72/72
f 69/69/69 74/74/74 70/70/70
f 70/70/70 74/74/74 75/75/75
f 71/71/71 76/76/76 69/69/69
f 71/71/71 72/72/72 76/76/76
f 69/69/69 76/76/76 74/74/74
f 72/72/72 73/73/73 77/77/77
f 72/72/72 77/77/77 76/76/76
f 73/73/73 78/78/78 77/77/77
f 74/74/74 79/79/79 75/75/75
f 75/75/75 79/79/79 80/80/80
f 76/76/76 81/81/81 74/74/74
f 76/76/76 77/77/77 81/81/81
f 74/74/74 81/81/81 79/79/79
f 77/77/77 78/78/78 82/82/82
f 77/77/77 82/82/82 81/81/81
f 78/78/78 83/83/83 82/82/82
f 79/79/79 84/84/84 80/80/80
f 80/80/80 84/84/84 85/85/85
f 81/81/81 86/86/86 79/79/79
f 81/81/81 82/82/82 86/86/86
f 79/79/79 86/86/86 84/84/84
f 82/82/82 83/83/83 87/87/87
f 82/82/82 87/87/87 86/86/86
f 83/83/83 88/88/88 87/87/87
f 84/84/84 89/89/89 85/85/85
f 85/85/85 89/89/89 90/90/90
f 86/86/86 91/91/91 84/84/84
f 86/86/86 87/87/87 91/91/91
f 84/84/84 91/91/91 89/89/89
f 87/87/87 88/88/88 92/92/92
f 87/87/87 92/92/92 91/91/91
f 88/88/88 93/93/93 92/92/92
f 89/89/89 94/94/94 90/90/90
f 90/90/90 94/94/94 95/95/95
f 91/91/91 96/96/96 89/89/89
f 91/91/91 92/92/92 96/96/96
f 89/89/89 96/96/96 94/94/94
f 92/92/92 93/93/93 97/97/97
f 92/92/92 97/97/97 96/96/96
f 93/93/93 98/98/98 97/97/97
f 94/94/94 99/99/99 95/95/95
f 95/95/95 99/99/99 100/100/100
f 96/96/96 101/101/101 94/94/94
f 96/96/96 97/97/97 101/101/101
f 94/94/94 101/101/101 99/99/99
f 97/97/97 98/98/98 102/102/102
f 97/97/97 102/102/102 101/101/101
f 98/98/98 103/103/103 102/102/102
f 99/99/99 104/104/104 100/100/100
f 100/100/100 104/104/104 105/105/105
f 101/101/101 106/106/106 99/99/99
f 101/101/101 102/102/102 106/106/106
f 99/99/99 106/106/106 104/104/104
f 102/102/102 103/103/103 107/107/107
f 102/102/102 107/107/107 106/106/106
f 103/103/103 108/108/108 107/107/107
f 104/104/104 109/109/109 105/105/105
f 105/105/105 109/109/109 110/110/110
f 106/106/106 111/111/111 104/104/104
f 106/106/106 107/107/107 111/111/111
f 104/104/104 111/111/111 109/109/109
f 107/107/107 108/108/108 112/112/112
f 107/107/107 112/112/112 111/111/111
f 108/108/108 113/113/113 112/112/112
f 109/109/109 114/114/114 110/110/110
f 110/110/110 114/114/114 115/115/115
f 111/111/111 116/116/116 109/109/109
f 111/111/111 112/112/112 116/116/116
f 109/109/109 116/116/116 114/114/114
f 112/112/112 113/113/113 117/117/117
f 112/112/112 117/117/117 116/116/116
f 113/113/113 118/118/118 117/117/117
f 114/114/114 119/119/119 115/115/115
f 115/115/115 119/119/119 120/120/120
f 116/116/116 121/121/121 114/114/114
f 116/116/116 117/117/117 121/121/121
f 114/114/114 121/121/121 119/119/119
f 117/117/117 118/118/118 122/122/122
f 117/117/117 122/122/122 121/121/121
f 118/118/118 123/123/123 122/122/122
f 119/119/119 124/124/124 120/120/120
f 120/120/120 124/124/124 125/125/125
f 121/121/121 126/126/126 119/119/119
f 121/121/121 122/122/122 126/126/126
f 119/119/119 126/126/126 124/124/124
f 122/122/122 123/123/123 127/127/127
f 122/122/122 127/127/127 126/126/126
f 123/123/123 128/128/128 127/127/127
f 124/124/124 129/129/129 125/125/125
f 125/125/125 129/129/129 130/130/130
f 126/126/126 131/131/131 124/124/124
f 126/126/126 127/127/127 131/131/131
f 124/124/124 131/131/131 129/129/129
f 127/127/127 128/128/128 132/132/132
f 127/127/127 132/132/132 131/131/131
f 128/128/128 133/133/133 132/132/132
f 129/129/129 134/134/134 130/130/130
f 130/130/130 134/134/134 135/135/135
f 131/131/131 136/136/136 129/129/129
f 131/131/131 132/132/132 136/136/136
f 129/129/129 136/136/136 134/134/134
f 132/132/132 133/133/133 137/137/137
f 132/132/132 137/137/137 136/136/136
f 133/133/133 138/138/138 137/137/137
f 134/134/134 139/139/139 135/135/135
f 135/135/135 139/139/139 140/140/140
f 136/136/136 141/141/141 134/134/134
f 136/136/136 137/137/137 141/141/141
f 134/134/134 141/141/141 139/139/139
f 137/137/137 138/138/138 142/142/142
f 137/137/137 142/142/142 141/141/141
f 138/138/138 143/143/143 142/142/142
f 139/139/139 144/144/144 140/140/140
f 140/140/140 144/144/144 145/145/145
f 141/141/141 146/146/146 139/139/139
f 141/141/141 142/142/142 146/146/146
f 139/139/139 146/146/146 144/144/144
f 142/142/142 143/143/143 147/147/147
f 142/142/142 147/147/147 146/146/146
f 143/143/143 148/148/148 147/147/147
f 144/144/144 149/149/149 145/145/145
f 145/145/145 149/149/149 150/150/150
f 146/146/146 151/151/151 144/144/144
f 146/146/146 147/147/147 151/151/151
f 144/144/144 151/151/151 149/149/149
f 147/147/147 148/148/148 152/152/152
f 147/147/147 152/152/152 151/151/151
f 148/148/148 153/153/153 152/152/152
f 149/149/149 154/154/154 150/150/150
f 150/150/150 154/154/154 155/155/155
f 151/151/151 156/156/156 149/149/149
f 151/151/151 152/152/152 156/156/156
f 149/149/149 156/156/156 154/154/154
f 152/152/152 153/153/153 157/157/157
f 152/152/152 157/157/157 156/156/156
f 153/153/153 158/158/158 157/157/157
f 154/154/154 159/159/159 155/155/155
f 155/155/155 159/159/159 160/160/160
f 156/156/156 161/161/161 154/154/154
f 156/156/156 157/157/157 161/161/161
f 154/154/154 161/161/161 159/159/159
f 157/157/157 158/158/158 162/162/162
f 157/157/157 162/162/162 161/161/161
f 158/158/158 163/163/163 162/162/162
f 159/159/159 164/164/164 160/160/160
f 160/160/160 164/164/164 165/165/165
f 161/161/161 166/166/166 159/159/159
f 161/161/161 162/162/162 166/166/166
f 159/159/159 166/166/166 164/164/164
f 162/162/162 163/163/163 167/167/167
f 162/162/162 167/167/167 166/166/166
f 163/163/163 168/168/168 167/167/167
f 164/164/164 169/169/169 165/165/165
f 165/165/165 169/169/169 170/170/170
f 169/169/169 171/171/171 170/170/170
f 166/166/166 172/172/172 164/164/164
f 166/166/166 167/167/167 172/172/172
f 164/164/164 172/172/172 169/169/169
f 167/167/167 168/168/168 173/173/173
f 167/167/167 173/173/173 172/172/172
f 168/168/168 174/174/174 173/173/173
f 169/169/169 175/175/175 171/171/171
f 172/172/172 175/175/175 169/169/169
f 172/172/172 173/173/173 175/175/175
f 175/175/175 176/176/176 171/171/171
f 173/173/173 174/174/174 177/177/177
f 173/173/173 177/177/177 175/175/175
f 175/175/175 177/177/177 176/176/176
f 174/174/174 178/178/178 177/177/177
f 177/177/177 179/179/179 176/176/176
f 177/177/177 178/178/178 179/179/179
f 178/178/178 180/180/180 179/179/179
