g Plane002
v -0.254000008 -0.254000008 0
v -0.190499991 -0.317499995 0
v -0.254000008 -0.317499995 0
v -0.190499991 -0.254000008 0
v -0.127000004 -0.317499995 0
v -0.127000004 -0.254000008 0
v -0.063500002 -0.317499995 0
v -0.063500002 -0.254000008 0
v -0 -0.317499995 0
v -0 -0.254000008 0
v -0.254000008 -0.190499991 0
v -0.190499991 -0.190499991 0
v -0.127000004 -0.190499991 0
v -0.063500002 -0.190499991 0
v -0.317499995 -0.190499991 0
v -0.317499995 -0.254000008 0
v -0.317499995 -0.127000004 0
v -0.254000008 -0.127000004 0
v -0.317499995 -0.063500002 0
v -0.190499991 -0.127000004 0
v -0.254000008 -0.063500002 0
v -0.317499995 0 0
v -0.127000004 -0.127000004 0
v -0 -0.190499991 0
v 0.063500002 -0.254000008 0
v 0.063500002 -0.190499991 0
v -0.254000008 0 0
v -0.317499995 0.063500002 0
v -0.190499991 -0.063500002 0
v -0.063500002 -0.127000004 0
v -0 -0.127000004 0
v 0.063500002 -0.127000004 0
v -0.254000008 0.063500002 0
v -0.317499995 0.127000004 0
v -0.127000004 -0.063500002 0
v -0.190499991 0 0
v -0.063500002 -0.063500002 0
v -0 -0.063500002 0
v 0.063500002 -0.063500002 0
v -0.254000008 0.127000004 0
v -0.317499995 0.190499991 0
v -0.190499991 0.063500002 0
v -0.127000004 0 0
v -0.063500002 0 0
v -0 0 0
v -0.254000008 0.190499991 0
v -0.317499995 0.254000008 0
v -0.254000008 0.254000008 0
v -0.127000004 0.063500002 0
v -0.190499991 0.127000004 0
v -0.190499991 0.190499991 0
v -0.063500002 0.063500002 0
v -0.127000004 0.127000004 0
v 0.063500002 0 0
v 0.127000004 -0.063500002 0
v 0.127000004 0 0
v -0.190499991 0.254000008 0
v -0.254000008 0.317499995 0
v -0.190499991 0.317499995 0
v -0.127000004 0.190499991 0
v -0.127000004 0.254000008 0
v -0.127000004 0.317499995 0
v -0 0.063500002 0
v -0.063500002 0.127000004 0
v 0.063500002 0.063500002 0
v -0.063500002 0.254000008 0
v -0.063500002 0.317499995 0
v -0.063500002 0.190499991 0
v -0 0.127000004 0
v 0.127000004 0.063500002 0
v 0.190499991 0 0
v 0.190499991 0.063500002 0
v -0 0.254000008 0
v -0 0.317499995 0
v -0 0.190499991 0
v 0.063500002 0.127000004 0
v 0.127000004 0.127000004 0
v 0.190499991 0.127000004 0
v 0.063500002 0.190499991 0
v 0.063500002 0.254000008 0
v 0.063500002 0.317499995 0
v 0.127000004 0.190499991 0
v 0.190499991 0.190499991 0
v 0.127000004 0.254000008 0
v 0.127000004 0.317499995 0
v 0.190499991 0.254000008 0
vt 0.099999994 0.100000024
vt 0.199999988 0
vt 0.099999994 0
vt 0.199999988 0.100000016
vt 0.300000012 0
vt 0.300000012 0.100000016
vt 0.400000006 0
vt 0.400000006 0.100000009
vt 0.5 0
vt 0.5 0.100000009
vt 0.099999994 0.200000048
vt 0.199999988 0.200000033
vt 0.300000012 0.200000033
vt 0.400000006 0.200000018
vt 0 0.200000048
vt 0 0.100000024
vt 0 0.299999952
vt 0.099999994 0.299999952
vt 0 0.399999976
vt 0.199999988 0.299999952
vt 0.099999994 0.399999976
vt 0 0.5
vt 0.300000012 0.299999982
vt 0.5 0.200000018
vt 0.600000024 0.100000009
vt 0.600000024 0.200000018
vt 0.099999994 0.5
vt 0 0.600000024
vt 0.199999988 0.399999976
vt 0.400000006 0.299999982
vt 0.5 0.299999982
vt 0.600000024 0.299999982
vt 0.100000024 0.600000024
vt 0 0.699999988
vt 0.300000012 0.399999976
vt 0.199999988 0.5
vt 0.400000006 0.399999976
vt 0.5 0.399999976
vt 0.600000024 0.400000006
vt 0.100000024 0.699999988
vt 0 0.800000012
vt 0.200000048 0.600000024
vt 0.300000012 0.5
vt 0.400000006 0.5
vt 0.5 0.5
vt 0.100000024 0.800000012
vt 0 0.899999976
vt 0.100000024 0.899999976
vt 0.299999952 0.600000024
vt 0.200000048 0.699999988
vt 0.200000048 0.800000012
vt 0.399999976 0.600000024
vt 0.299999952 0.699999988
vt 0.600000024 0.5
vt 0.700000048 0.400000006
vt 0.700000048 0.5
vt 0.200000048 0.899999976
vt 0.100000024 1
vt 0.200000048 1
vt 0.299999952 0.800000012
vt 0.299999952 0.899999976
vt 0.299999952 1
vt 0.5 0.600000024
vt 0.399999976 0.699999988
vt 0.600000024 0.600000024
vt 0.399999976 0.899999976
vt 0.399999976 1
vt 0.399999976 0.800000012
vt 0.5 0.700000048
vt 0.699999988 0.600000024
vt 0.799999952 0.5
vt 0.800000012 0.600000024
vt 0.5 0.899999976
vt 0.5 1
vt 0.5 0.799999952
vt 0.600000024 0.700000048
vt 0.699999988 0.700000048
vt 0.800000012 0.700000048
vt 0.600000024 0.799999952
vt 0.600000024 0.899999976
vt 0.600000024 1
vt 0.699999988 0.799999952
vt 0.800000012 0.799999952
vt 0.699999988 0.899999976
vt 0.699999988 1
vt 0.800000012 0.899999976
vn -0 0 1
vn -0 0 1
vn -0 0 1
vn -0 0 1
vn -0 0 1
vn -0 0 1
vn -0 0 1
vn -0 0 1
vn -0 0 1
vn -0 0 1
vn -0 0 1
vn -0 0 1
vn -0 0 1
vn -0 0 1
vn -0 0 1
vn -0 0 1
vn -0 0 1
vn -0 0 1
vn -0 0 1
vn -0 0 1
vn -0 0 1
vn -0 0 1
vn -0 0 1
vn -0 0 1
vn -0 0 1
vn -0 0 1
vn -0 0 1
vn -0 0 1
vn -0 0 1
vn -0 0 1
vn -0 0 1
vn -0 0 1
vn -0 0 1
vn -0 0 1
vn -0 0 1
vn -0 0 1
vn -0 0 1
vn -0 0 1
vn -0 0 1
vn -0 0 1
vn -0 0 1
vn -0 0 1
vn -0 0 1
vn -0 0 1
vn -0 0 1
vn -0 0 1
vn -0 0 1
vn -0 0 1
vn -0 0 1
vn -0 0 1
vn -0 0 1
vn -0 0 1
vn -0 0 1
vn -0 0 1
vn -0 0 1
vn -0 0 1
vn -0 0 1
vn -0 0 1
vn -0 0 1
vn -0 0 1
vn -0 0 1
vn -0 0 1
vn -0 0 1
vn -0 0 1
vn -0 0 1
vn -0 0 1
vn -0 0 1
vn -0 0 1
vn -0 0 1
vn -0 0 1
vn -0 0 1
vn -0 0 1
vn -0 0 1
vn -0 0 1
vn -0 0 1
vn -0 0 1
vn -0 0 1
vn -0 0 1
vn -0 0 1
vn -0 0 1
vn -0 0 1
vn -0 0 1
vn -0 0 1
vn -0 0 1
vn -0 0 1
vn -0 0 1
g Plane002_0
f 3/3/3 2/2/2 1/1/1
f 2/2/2 4/4/4 1/1/1
f 2/2/2 5/5/5 4/4/4
f 5/5/5 6/6/6 4/4/4
f 5/5/5 7/7/7 6/6/6
f 7/7/7 8/8/8 6/6/6
f 8/8/8 7/7/7 9/9/9
f 10/10/10 8/8/8 9/9/9
f 1/1/1 4/4/4 11/11/11
f 4/4/4 6/6/6 12/12/12
f 4/4/4 12/12/12 11/11/11
f 6/6/6 8/8/8 13/13/13
f 6/6/6 13/13/13 12/12/12
f 14/14/14 8/8/8 10/10/10
f 8/8/8 14/14/14 13/13/13
f 1/1/1 11/11/11 15/15/15
f 16/16/16 1/1/1 15/15/15
f 15/15/15 11/11/11 17/17/17
f 11/11/11 18/18/18 17/17/17
f 11/11/11 12/12/12 18/18/18
f 17/17/17 18/18/18 19/19/19
f 12/12/12 13/13/13 20/20/20
f 12/12/12 20/20/20 18/18/18
f 18/18/18 21/21/21 19/19/19
f 18/18/18 20/20/20 21/21/21
f 19/19/19 21/21/21 22/22/22
f 13/13/13 23/23/23 20/20/20
f 13/13/13 14/14/14 23/23/23
f 24/24/24 14/14/14 10/10/10
f 24/24/24 10/10/10 25/25/25
f 26/26/26 24/24/24 25/25/25
f 21/21/21 27/27/27 22/22/22
f 22/22/22 27/27/27 28/28/28
f 20/20/20 29/29/29 21/21/21
f 20/20/20 23/23/23 29/29/29
f 21/21/21 29/29/29 27/27/27
f 30/30/30 14/14/14 24/24/24
f 14/14/14 30/30/30 23/23/23
f 31/31/31 24/24/24 26/26/26
f 31/31/31 30/30/30 24/24/24
f 32/32/32 31/31/31 26/26/26
f 27/27/27 33/33/33 28/28/28
f 28/28/28 33/33/33 34/34/34
f 23/23/23 35/35/35 29/29/29
f 23/23/23 30/30/30 35/35/35
f 29/29/29 36/36/36 27/27/27
f 27/27/27 36/36/36 33/33/33
f 29/29/29 35/35/35 36/36/36
f 37/37/37 30/30/30 31/31/31
f 30/30/30 37/37/37 35/35/35
f 38/38/38 31/31/31 32/32/32
f 38/38/38 37/37/37 31/31/31
f 39/39/39 38/38/38 32/32/32
f 33/33/33 40/40/40 34/34/34
f 34/34/34 40/40/40 41/41/41
f 36/36/36 42/42/42 33/33/33
f 33/33/33 42/42/42 40/40/40
f 35/35/35 43/43/43 36/36/36
f 35/35/35 37/37/37 43/43/43
f 36/36/36 43/43/43 42/42/42
f 44/44/44 37/37/37 38/38/38
f 37/37/37 44/44/44 43/43/43
f 45/45/45 38/38/38 39/39/39
f 45/45/45 44/44/44 38/38/38
f 40/40/40 46/46/46 41/41/41
f 41/41/41 46/46/46 47/47/47
f 46/46/46 48/48/48 47/47/47
f 43/43/43 49/49/49 42/42/42
f 43/43/43 44/44/44 49/49/49
f 42/42/42 50/50/50 40/40/40
f 40/40/40 50/50/50 46/46/46
f 42/42/42 49/49/49 50/50/50
f 46/46/46 51/51/51 48/48/48
f 50/50/50 51/51/51 46/46/46
f 44/44/44 52/52/52 49/49/49
f 52/52/52 44/44/44 45/45/45
f 49/49/49 53/53/53 50/50/50
f 50/50/50 53/53/53 51/51/51
f 49/49/49 52/52/52 53/53/53
f 54/54/54 45/45/45 39/39/39
f 54/54/54 39/39/39 55/55/55
f 56/56/56 54/54/54 55/55/55
f 51/51/51 57/57/57 48/48/48
f 48/48/48 57/57/57 58/58/58
f 57/57/57 59/59/59 58/58/58
f 53/53/53 60/60/60 51/51/51
f 51/51/51 60/60/60 57/57/57
f 57/57/57 61/61/61 59/59/59
f 60/60/60 61/61/61 57/57/57
f 61/61/61 62/62/62 59/59/59
f 63/63/63 52/52/52 45/45/45
f 63/63/63 45/45/45 54/54/54
f 52/52/52 64/64/64 53/53/53
f 53/53/53 64/64/64 60/60/60
f 52/52/52 63/63/63 64/64/64
f 65/65/65 54/54/54 56/56/56
f 65/65/65 63/63/63 54/54/54
f 61/61/61 66/66/66 62/62/62
f 66/66/66 67/67/67 62/62/62
f 60/60/60 68/68/68 61/61/61
f 64/64/64 68/68/68 60/60/60
f 68/68/68 66/66/66 61/61/61
f 63/63/63 69/69/69 64/64/64
f 64/64/64 69/69/69 68/68/68
f 63/63/63 65/65/65 69/69/69
f 70/70/70 65/65/65 56/56/56
f 70/70/70 56/56/56 71/71/71
f 72/72/72 70/70/70 71/71/71
f 66/66/66 73/73/73 67/67/67
f 73/73/73 74/74/74 67/67/67
f 68/68/68 75/75/75 66/66/66
f 69/69/69 75/75/75 68/68/68
f 75/75/75 73/73/73 66/66/66
f 65/65/65 76/76/76 69/69/69
f 76/76/76 65/65/65 70/70/70
f 69/69/69 76/76/76 75/75/75
f 77/77/77 70/70/70 72/72/72
f 77/77/77 76/76/76 70/70/70
f 78/78/78 77/77/77 72/72/72
f 76/76/76 79/79/79 75/75/75
f 75/75/75 79/79/79 73/73/73
f 79/79/79 76/76/76 77/77/77
f 73/73/73 80/80/80 74/74/74
f 79/79/79 80/80/80 73/73/73
f 80/80/80 81/81/81 74/74/74
f 82/82/82 77/77/77 78/78/78
f 82/82/82 79/79/79 77/77/77
f 80/80/80 79/79/79 82/82/82
f 83/83/83 82/82/82 78/78/78
f 81/81/81 80/80/80 84/84/84
f 84/84/84 80/80/80 82/82/82
f 84/84/84 82/82/82 83/83/83
f 85/85/85 81/81/81 84/84/84
f 86/86/86 84/84/84 83/83/83
