g general_ring_06_3_2
v -0.302793771 0.455932558 0
v -0.216291368 0.322110027 0
v -0.261986703 0.287902892 0
v -0.366764307 0.408044785 0
v -0.389296174 0.589755058 0
v -0.302348733 0.247540936 0
v -0.471541941 0.528186679 0
v -0.475798607 0.723577619 0
v -0.423268527 0.351540625 0
v -0.336555839 0.201845556 0
v -0.576319575 0.648328602 0
v -0.56230104 0.857400179 0
v -0.681097209 0.768470526 0
v -0.471156269 0.287570059 0
v -0.363911688 0.151747093 0
v -0.544188321 0.455540299 0
v -0.665108085 0.559539974 0
v -0.786027908 0.663539648 0
v -0.509452581 0.217435509 0
v -0.383859307 0.0982655063 0
v -0.6057567 0.373294532 0
v -0.740357161 0.459019035 0
v -0.874957561 0.544743538 0
v -0.537377954 0.142564729 0
v -0.395992666 0.042489443 0
v -0.654993534 0.28312391 0
v -0.800534487 0.348812312 0
v -0.946075439 0.414500713 0
v -0.554363847 0.0644818172 0
v -0.400064766 -0.0144456951 0
v -0.69089663 0.186863944 0
v -0.844415307 0.231163174 0
v -0.997933924 0.275462389 0
v -0.560064435 -0.0152236763 0
v -0.395992696 -0.071380876 0
v -0.712734997 0.0864741951 0
v -0.871106148 0.108466573 0
v -1.02947736 0.130458951 0
v -0.554363847 -0.0949291587 0
v -0.383859396 -0.127156943 0
v -0.720064163 -0.0160016567 0
v -0.880063891 -0.0167796388 0
v -1.04006362 -0.017557621 0
v -0.537377954 -0.173012048 0
v -0.363911778 -0.180638611 0
v -0.712734938 -0.118477441 0
v -0.871106088 -0.142025724 0
v -1.02947724 -0.165574014 0
v -0.509452522 -0.247882873 0
v -0.336556017 -0.230737031 0
v -0.690896511 -0.218867153 0
v -0.844415069 -0.264722258 0
v -0.997933626 -0.310577363 0
v -0.47115621 -0.318017364 0
v -0.302348882 -0.276432395 0
v -0.654993296 -0.315127134 0
v -0.80053407 -0.382371396 0
v -0.946074843 -0.449615657 0
v -0.423268497 -0.38198784 0
v -0.261986852 -0.316794455 0
v -0.605756402 -0.405297697 0
v -0.740356624 -0.49257803 0
v -0.874956846 -0.579858363 0
v -0.366764218 -0.43849209 0
v -0.216291517 -0.35100159 0
v -0.544188082 -0.487543285 0
v -0.665107667 -0.59309876 0
v -0.786027253 -0.698654234 0
v -0.302793741 -0.486379802 0
v -0.166193098 -0.37835744 0
v -0.471541584 -0.560189724 0
v -0.576318979 -0.681887388 0
v -0.681096375 -0.803584993 0
v -0.232659206 -0.524676144 0
v -0.112711497 -0.398305088 0
v -0.389295936 -0.621757984 0
v -0.47579816 -0.757136226 0
v -0.562300384 -0.892514467 0
v -0.157788426 -0.552601516 0
v -0.0569353923 -0.410438478 0
v -0.299125314 -0.670994878 0
v -0.365591407 -0.817313612 0
v -0.43205753 -0.963632345 0
v -0.0797055364 -0.569587469 0
v -2.64085259E-07 -0.414510578 0
v -0.202865362 -0.706897974 0
v -0.247942299 -0.861194372 0
v -0.293019235 -1.01549077 0
v -6.96281859E-08 -0.575288057 0
v 0.0569348745 -0.410438508 0
v -0.102475673 -0.728736401 0
v -0.12524581 -0.887885332 0
v -0.148015946 -1.04703426 0
v 0.0797053948 -0.569587409 0
v 0.112710975 -0.398305207 0
v 1.24828887E-07 -0.736065567 0
v 3.19285959E-07 -0.896843076 0
v 5.13743032E-07 -1.05762053 0
v 0.157788292 -0.552601516 0
v 0.166192621 -0.378357649 0
v 0.102475911 -0.728736281 0
v 0.125246435 -0.887885213 0
v 0.148016959 -1.04703414 0
v 0.232659072 -0.524676204 0
v 0.21629104 -0.351001829 0
v 0.202865601 -0.706897855 0
v 0.247942924 -0.861194193 0
v 0.293020248 -1.01549053 0
v 0.302793562 -0.486379802 0
v 0.261986464 -0.316794753 0
v 0.299125522 -0.670994699 0
v 0.365591973 -0.817313254 0
v 0.432058424 -0.963631809 0
v 0.366764128 -0.438492119 0
v 0.302348554 -0.276432693 0
v 0.389296114 -0.621757805 0
v 0.475798637 -0.757135808 0
v 0.562301159 -0.892513812 0
v 0.423268378 -0.38198787 0
v 0.33655566 -0.230737388 0
v 0.471541792 -0.560189486 0
v 0.576319456 -0.681886852 0
v 0.68109709 -0.803584218 0
v 0.47115609 -0.318017393 0
v 0.36391151 -0.180639014 0
v 0.544188201 -0.487543046 0
v 0.665108025 -0.593098223 0
v 0.786027849 -0.6986534 0
v 0.509452462 -0.247882932 0
v 0.383859187 -0.127157345 0
v 0.605756521 -0.405297399 0
v 0.740356922 -0.492577434 0
v 0.874957383 -0.579857469 0
v 0.537377834 -0.173012078 0
v 0.395992577 -0.0713812336 0
v 0.654993355 -0.315126836 0
v 0.800534308 -0.38237074 0
v 0.946075261 -0.449614644 0
v 0.554363728 -0.0949292183 0
v 0.400064677 -0.0144460928 0
v 0.690896511 -0.218866825 0
v 0.844415188 -0.264721572 0
v 0.997933805 -0.31057632 0
v 0.560064435 -0.015223722 0
v 0.395992607 0.0424890891 0
v 0.712734938 -0.118477203 0
v 0.871106148 -0.142025188 0
v 1.02947736 -0.16557318 0
v 0.554363787 0.0644817948 0
v 0.383859307 0.0982652456 0
v 0.720064163 -0.0160013512 0
v 0.880063891 -0.0167789795 0
v 1.04006362 -0.0175566077 0
v 0.537377894 0.142564714 0
v 0.363911688 0.151746914 0
v 0.712734938 0.0864744931 0
v 0.871106088 0.108467199 0
v 1.02947724 0.130459905 0
v 0.509452581 0.217435509 0
v 0.336555928 0.201845378 0
v 0.690896511 0.186864167 0
v 0.844415069 0.231163636 0
v 0.997933626 0.275463104 0
v 0.47115618 0.287570059 0
v 0.302348763 0.247540757 0
v 0.423268437 0.351540595 0
v 0.654993415 0.283124089 0
v 0.800534248 0.348812699 0
v 0.946075082 0.414501309 0
v 0.605756462 0.373294771 0
v 0.544188142 0.455540419 0
v 0.740356743 0.459019452 0
v 0.874957025 0.544744134 0
v 0.665107787 0.559540272 0
v 0.786027491 0.663540125 0
vt 0.0909090787 0.75
vt 0.0909090638 1
vt 0.113636337 1
vt 0.11363633 0.749999881
vt 0.0909090787 0.5
vt 0.136363626 1
vt 0.113636337 0.49999994
vt 0.0909090862 0.25
vt 0.136363626 0.75
vt 0.159090877 1
vt 0.11363636 0.25
vt 0.0909090936 0
vt 0.113636367 0
vt 0.159090877 0.75
vt 0.181818128 0.99999994
vt 0.136363626 0.49999997
vt 0.13636364 0.25
vt 0.13636364 0
vt 0.181818128 0.749999881
vt 0.204545408 1
vt 0.159090877 0.5
vt 0.159090891 0.25
vt 0.159090921 0
vt 0.204545423 0.75000006
vt 0.227272689 1
vt 0.181818157 0.49999994
vt 0.181818187 0.24999997
vt 0.181818202 0
vt 0.227272704 0.75000006
vt 0.24999994 1
vt 0.204545423 0.50000006
vt 0.204545438 0.25
vt 0.204545468 0
vt 0.24999994 0.75
vt 0.272727191 0.999999881
vt 0.227272704 0.5
vt 0.227272689 0.24999997
vt 0.227272734 0
vt 0.272727191 0.749999881
vt 0.295454472 1
vt 0.24999997 0.5
vt 0.24999997 0.25
vt 0.25 0
vt 0.295454472 0.74999994
vt 0.318181753 1
vt 0.272727221 0.5
vt 0.272727251 0.24999994
vt 0.272727281 0
vt 0.318181753 0.75
vt 0.340909004 1
vt 0.295454502 0.5
vt 0.295454562 0.25000003
vt 0.295454562 0
vt 0.340909004 0.75
vt 0.363636255 1
vt 0.318181753 0.5
vt 0.318181813 0.25
vt 0.318181813 0
vt 0.363636255 0.75
vt 0.386363566 1
vt 0.340909034 0.5
vt 0.340909064 0.25
vt 0.340909064 0
vt 0.386363566 0.75
vt 0.409090817 1
vt 0.363636285 0.5
vt 0.363636315 0.25
vt 0.363636315 0
vt 0.409090787 0.74999994
vt 0.431818098 1
vt 0.386363566 0.5
vt 0.386363626 0.25
vt 0.386363626 0
vt 0.431818128 0.75
vt 0.454545379 1
vt 0.409090817 0.5
vt 0.409090877 0.25
vt 0.409090877 0
vt 0.454545379 0.75000006
vt 0.47727263 1
vt 0.431818128 0.5
vt 0.431818128 0.25
vt 0.431818157 0
vt 0.4772726 0.75
vt 0.49999994 1
vt 0.454545379 0.5
vt 0.454545379 0.25
vt 0.454545379 0
vt 0.49999994 0.74999994
vt 0.522727132 1
vt 0.47727257 0.5
vt 0.47727263 0.25
vt 0.47727263 0
vt 0.522727132 0.75
vt 0.545454443 1
vt 0.5 0.5
vt 0.49999994 0.25
vt 0.49999994 0
vt 0.545454502 0.75
vt 0.568181753 1
vt 0.522727132 0.5
vt 0.522727132 0.25
vt 0.522727132 0
vt 0.568181694 0.75
vt 0.590909064 1
vt 0.545454443 0.49999994
vt 0.545454502 0.25
vt 0.545454502 0
vt 0.590908945 0.749999881
vt 0.613636255 1
vt 0.568181634 0.49999994
vt 0.568181753 0.25
vt 0.568181753 0
vt 0.613636315 0.75000006
vt 0.636363506 1
vt 0.590909004 0.5
vt 0.590909004 0.25
vt 0.590909004 0
vt 0.636363566 0.750000119
vt 0.659090877 1
vt 0.613636255 0.5
vt 0.613636255 0.25
vt 0.613636255 0
vt 0.659090757 0.75
vt 0.681818128 1
vt 0.636363506 0.5
vt 0.636363506 0.25
vt 0.636363506 0
vt 0.681818068 0.75
vt 0.704545438 1
vt 0.659090757 0.5
vt 0.659090698 0.25
vt 0.659090757 0
vt 0.704545498 0.750000119
vt 0.727272689 1
vt 0.681818008 0.5
vt 0.681818008 0.25
vt 0.681818008 0
vt 0.72727263 0.75
vt 0.749999881 1
vt 0.704545379 0.5
vt 0.704545379 0.25
vt 0.704545379 0
vt 0.749999762 0.74999994
vt 0.772727251 1
vt 0.72727263 0.5
vt 0.72727263 0.25
vt 0.72727257 0
vt 0.772727251 0.75
vt 0.795454502 1
vt 0.749999881 0.5
vt 0.749999881 0.25
vt 0.749999881 0
vt 0.795454502 0.75000006
vt 0.818181813 1
vt 0.772727191 0.5
vt 0.772727132 0.24999997
vt 0.772727132 0
vt 0.818181753 0.75
vt 0.840909064 1
vt 0.795454502 0.5
vt 0.795454443 0.25
vt 0.795454443 0
vt 0.840909004 0.75
vt 0.863636374 1
vt 0.863636374 0.75
vt 0.818181753 0.5
vt 0.818181813 0.25000003
vt 0.818181694 0
vt 0.840908945 0.49999994
vt 0.863636374 0.5
vt 0.840909004 0.25
vt 0.840909004 0
vt 0.863636374 0.25
vt 0.863636374 0
vn -0 0 1
vn -0 0 1
vn -0 0 1
vn -0 0 1
vn -0 0 1
vn -0 0 1
vn -0 0 1
vn -0 0 1
vn -0 0 1
vn -0 0 1
vn -0 0 1
vn -0 0 1
vn -0 0 1
vn -0 0 1
vn -0 0 1
vn -0 0 1
vn -0 0 1
vn -0 0 1
vn -0 0 1
vn -0 0 1
vn -0 0 1
vn -0 0 1
vn -0 0 1
vn -0 0 1
vn -0 0 1
vn -0 0 1
vn -0 0 1
vn -0 0 1
vn -0 0 1
vn -0 0 1
vn -0 0 1
vn -0 0 1
vn -0 0 1
vn -0 0 1
vn -0 0 1
vn -0 0 1
vn -0 0 1
vn -0 0 1
vn -0 0 1
vn -0 0 1
vn -0 0 1
vn -0 0 1
vn -0 0 1
vn -0 0 1
vn -0 0 1
vn -0 0 1
vn -0 0 1
vn -0 0 1
vn -0 0 1
vn -0 0 1
vn -0 0 1
vn -0 0 1
vn -0 0 1
vn -0 0 1
vn -0 0 1
vn -0 0 1
vn -0 0 1
vn -0 0 1
vn -0 0 1
vn -0 0 1
vn -0 0 1
vn -0 0 1
vn -0 0 1
vn -0 0 1
vn -0 0 1
vn -0 0 1
vn -0 0 1
vn -0 0 1
vn -0 0 1
vn -0 0 1
vn -0 0 1
vn -0 0 1
vn -0 0 1
vn -0 0 1
vn -0 0 1
vn -0 0 1
vn -0 0 1
vn -0 0 1
vn -0 0 1
vn -0 0 1
vn -0 0 1
vn -0 0 1
vn -0 0 1
vn -0 0 1
vn -0 0 1
vn -0 0 1
vn -0 0 1
vn -0 0 1
vn -0 0 1
vn -0 0 1
vn -0 0 1
vn -0 0 1
vn -0 0 1
vn -0 0 1
vn -0 0 1
vn -0 0 1
vn -0 0 1
vn -0 0 1
vn -0 0 1
vn -0 0 1
vn -0 0 1
vn -0 0 1
vn -0 0 1
vn -0 0 1
vn -0 0 1
vn -0 0 1
vn -0 0 1
vn -0 0 1
vn -0 0 1
vn -0 0 1
vn -0 0 1
vn -0 0 1
vn -0 0 1
vn -0 0 1
vn -0 0 1
vn -0 0 1
vn -0 0 1
vn -0 0 1
vn -0 0 1
vn -0 0 1
vn -0 0 1
vn -0 0 1
vn -0 0 1
vn -0 0 1
vn -0 0 1
vn -0 0 1
vn -0 0 1
vn -0 0 1
vn -0 0 1
vn -0 0 1
vn -0 0 1
vn -0 0 1
vn -0 0 1
vn -0 0 1
vn -0 0 1
vn -0 0 1
vn -0 0 1
vn -0 0 1
vn -0 0 1
vn -0 0 1
vn -0 0 1
vn -0 0 1
vn -0 0 1
vn -0 0 1
vn -0 0 1
vn -0 0 1
vn -0 0 1
vn -0 0 1
vn -0 0 1
vn -0 0 1
vn -0 0 1
vn -0 0 1
vn -0 0 1
vn -0 0 1
vn -0 0 1
vn -0 0 1
vn -0 0 1
vn -0 0 1
vn -0 0 1
vn -0 0 1
vn -0 0 1
vn -0 0 1
vn -0 0 1
vn -0 0 1
vn -0 0 1
vn -0 0 1
vn -0 0 1
vn -0 0 1
vn -0 0 1
vn -0 0 1
vn -0 0 1
vn -0 0 1
vn -0 0 1
vn -0 0 1
vn -0 0 1
g general_ring_06_3_2_0
f 3/3/3 2/2/2 1/1/1
f 4/4/4 3/3/3 1/1/1
f 4/4/4 1/1/1 5/5/5
f 6/6/6 3/3/3 4/4/4
f 7/7/7 4/4/4 5/5/5
f 7/7/7 5/5/5 8/8/8
f 9/9/9 6/6/6 4/4/4
f 9/9/9 4/4/4 7/7/7
f 10/10/10 6/6/6 9/9/9
f 11/11/11 7/7/7 8/8/8
f 11/11/11 8/8/8 12/12/12
f 13/13/13 11/11/11 12/12/12
f 14/14/14 10/10/10 9/9/9
f 15/15/15 10/10/10 14/14/14
f 16/16/16 9/9/9 7/7/7
f 16/16/16 7/7/7 11/11/11
f 14/14/14 9/9/9 16/16/16
f 17/17/17 11/11/11 13/13/13
f 17/17/17 16/16/16 11/11/11
f 18/18/18 17/17/17 13/13/13
f 19/19/19 15/15/15 14/14/14
f 20/20/20 15/15/15 19/19/19
f 21/21/21 14/14/14 16/16/16
f 21/21/21 16/16/16 17/17/17
f 19/19/19 14/14/14 21/21/21
f 22/22/22 17/17/17 18/18/18
f 22/22/22 21/21/21 17/17/17
f 23/23/23 22/22/22 18/18/18
f 24/24/24 20/20/20 19/19/19
f 25/25/25 20/20/20 24/24/24
f 26/26/26 19/19/19 21/21/21
f 26/26/26 21/21/21 22/22/22
f 24/24/24 19/19/19 26/26/26
f 27/27/27 22/22/22 23/23/23
f 27/27/27 26/26/26 22/22/22
f 28/28/28 27/27/27 23/23/23
f 29/29/29 25/25/25 24/24/24
f 30/30/30 25/25/25 29/29/29
f 31/31/31 24/24/24 26/26/26
f 31/31/31 26/26/26 27/27/27
f 29/29/29 24/24/24 31/31/31
f 32/32/32 27/27/27 28/28/28
f 32/32/32 31/31/31 27/27/27
f 33/33/33 32/32/32 28/28/28
f 34/34/34 30/30/30 29/29/29
f 35/35/35 30/30/30 34/34/34
f 36/36/36 29/29/29 31/31/31
f 36/36/36 31/31/31 32/32/32
f 34/34/34 29/29/29 36/36/36
f 37/37/37 32/32/32 33/33/33
f 37/37/37 36/36/36 32/32/32
f 38/38/38 37/37/37 33/33/33
f 39/39/39 35/35/35 34/34/34
f 40/40/40 35/35/35 39/39/39
f 41/41/41 34/34/34 36/36/36
f 41/41/41 36/36/36 37/37/37
f 39/39/39 34/34/34 41/41/41
f 42/42/42 37/37/37 38/38/38
f 42/42/42 41/41/41 37/37/37
f 43/43/43 42/42/42 38/38/38
f 44/44/44 40/40/40 39/39/39
f 45/45/45 40/40/40 44/44/44
f 46/46/46 39/39/39 41/41/41
f 46/46/46 41/41/41 42/42/42
f 44/44/44 39/39/39 46/46/46
f 47/47/47 42/42/42 43/43/43
f 47/47/47 46/46/46 42/42/42
f 48/48/48 47/47/47 43/43/43
f 49/49/49 45/45/45 44/44/44
f 50/50/50 45/45/45 49/49/49
f 51/51/51 44/44/44 46/46/46
f 51/51/51 46/46/46 47/47/47
f 49/49/49 44/44/44 51/51/51
f 52/52/52 47/47/47 48/48/48
f 52/52/52 51/51/51 47/47/47
f 53/53/53 52/52/52 48/48/48
f 54/54/54 50/50/50 49/49/49
f 55/55/55 50/50/50 54/54/54
f 56/56/56 49/49/49 51/51/51
f 56/56/56 51/51/51 52/52/52
f 54/54/54 49/49/49 56/56/56
f 57/57/57 52/52/52 53/53/53
f 57/57/57 56/56/56 52/52/52
f 58/58/58 57/57/57 53/53/53
f 59/59/59 55/55/55 54/54/54
f 60/60/60 55/55/55 59/59/59
f 61/61/61 54/54/54 56/56/56
f 61/61/61 56/56/56 57/57/57
f 59/59/59 54/54/54 61/61/61
f 62/62/62 57/57/57 58/58/58
f 62/62/62 61/61/61 57/57/57
f 63/63/63 62/62/62 58/58/58
f 64/64/64 60/60/60 59/59/59
f 65/65/65 60/60/60 64/64/64
f 66/66/66 59/59/59 61/61/61
f 66/66/66 61/61/61 62/62/62
f 64/64/64 59/59/59 66/66/66
f 67/67/67 62/62/62 63/63/63
f 67/67/67 66/66/66 62/62/62
f 68/68/68 67/67/67 63/63/63
f 69/69/69 65/65/65 64/64/64
f 70/70/70 65/65/65 69/69/69
f 71/71/71 64/64/64 66/66/66
f 71/71/71 66/66/66 67/67/67
f 69/69/69 64/64/64 71/71/71
f 72/72/72 67/67/67 68/68/68
f 72/72/72 71/71/71 67/67/67
f 73/73/73 72/72/72 68/68/68
f 74/74/74 70/70/70 69/69/69
f 75/75/75 70/70/70 74/74/74
f 76/76/76 69/69/69 71/71/71
f 76/76/76 71/71/71 72/72/72
f 74/74/74 69/69/69 76/76/76
f 77/77/77 72/72/72 73/73/73
f 77/77/77 76/76/76 72/72/72
f 78/78/78 77/77/77 73/73/73
f 79/79/79 75/75/75 74/74/74
f 80/80/80 75/75/75 79/79/79
f 81/81/81 74/74/74 76/76/76
f 81/81/81 76/76/76 77/77/77
f 79/79/79 74/74/74 81/81/81
f 82/82/82 77/77/77 78/78/78
f 82/82/82 81/81/81 77/77/77
f 83/83/83 82/82/82 78/78/78
f 84/84/84 80/80/80 79/79/79
f 85/85/85 80/80/80 84/84/84
f 86/86/86 79/79/79 81/81/81
f 86/86/86 81/81/81 82/82/82
f 84/84/84 79/79/79 86/86/86
f 87/87/87 82/82/82 83/83/83
f 87/87/87 86/86/86 82/82/82
f 88/88/88 87/87/87 83/83/83
f 89/89/89 85/85/85 84/84/84
f 90/90/90 85/85/85 89/89/89
f 91/91/91 84/84/84 86/86/86
f 91/91/91 86/86/86 87/87/87
f 89/89/89 84/84/84 91/91/91
f 92/92/92 87/87/87 88/88/88
f 92/92/92 91/91/91 87/87/87
f 93/93/93 92/92/92 88/88/88
f 94/94/94 90/90/90 89/89/89
f 95/95/95 90/90/90 94/94/94
f 96/96/96 89/89/89 91/91/91
f 96/96/96 91/91/91 92/92/92
f 94/94/94 89/89/89 96/96/96
f 97/97/97 92/92/92 93/93/93
f 97/97/97 96/96/96 92/92/92
f 98/98/98 97/97/97 93/93/93
f 99/99/99 95/95/95 94/94/94
f 100/100/100 95/95/95 99/99/99
f 101/101/101 94/94/94 96/96/96
f 101/101/101 96/96/96 97/97/97
f 99/99/99 94/94/94 101/101/101
f 102/102/102 97/97/97 98/98/98
f 102/102/102 101/101/101 97/97/97
f 103/103/103 102/102/102 98/98/98
f 104/104/104 100/100/100 99/99/99
f 105/105/105 100/100/100 104/104/104
f 106/106/106 99/99/99 101/101/101
f 106/106/106 101/101/101 102/102/102
f 104/104/104 99/99/99 106/106/106
f 107/107/107 102/102/102 103/103/103
f 107/107/107 106/106/106 102/102/102
f 108/108/108 107/107/107 103/103/103
f 109/109/109 105/105/105 104/104/104
f 110/110/110 105/105/105 109/109/109
f 111/111/111 104/104/104 106/106/106
f 111/111/111 106/106/106 107/107/107
f 109/109/109 104/104/104 111/111/111
f 112/112/112 107/107/107 108/108/108
f 112/112/112 111/111/111 107/107/107
f 113/113/113 112/112/112 108/108/108
f 114/114/114 110/110/110 109/109/109
f 115/115/115 110/110/110 114/114/114
f 116/116/116 109/109/109 111/111/111
f 116/116/116 111/111/111 112/112/112
f 114/114/114 109/109/109 116/116/116
f 117/117/117 112/112/112 113/113/113
f 117/117/117 116/116/116 112/112/112
f 118/118/118 117/117/117 113/113/113
f 119/119/119 115/115/115 114/114/114
f 120/120/120 115/115/115 119/119/119
f 121/121/121 114/114/114 116/116/116
f 121/121/121 116/116/116 117/117/117
f 119/119/119 114/114/114 121/121/121
f 122/122/122 117/117/117 118/118/118
f 122/122/122 121/121/121 117/117/117
f 123/123/123 122/122/122 118/118/118
f 124/124/124 120/120/120 119/119/119
f 125/125/125 120/120/120 124/124/124
f 126/126/126 119/119/119 121/121/121
f 126/126/126 121/121/121 122/122/122
f 124/124/124 119/119/119 126/126/126
f 127/127/127 122/122/122 123/123/123
f 127/127/127 126/126/126 122/122/122
f 128/128/128 127/127/127 123/123/123
f 129/129/129 125/125/125 124/124/124
f 130/130/130 125/125/125 129/129/129
f 131/131/131 124/124/124 126/126/126
f 131/131/131 126/126/126 127/127/127
f 129/129/129 124/124/124 131/131/131
f 132/132/132 127/127/127 128/128/128
f 132/132/132 131/131/131 127/127/127
f 133/133/133 132/132/132 128/128/128
f 134/134/134 130/130/130 129/129/129
f 135/135/135 130/130/130 134/134/134
f 136/136/136 129/129/129 131/131/131
f 136/136/136 131/131/131 132/132/132
f 134/134/134 129/129/129 136/136/136
f 137/137/137 132/132/132 133/133/133
f 137/137/137 136/136/136 132/132/132
f 138/138/138 137/137/137 133/133/133
f 139/139/139 135/135/135 134/134/134
f 140/140/140 135/135/135 139/139/139
f 141/141/141 134/134/134 136/136/136
f 141/141/141 136/136/136 137/137/137
f 139/139/139 134/134/134 141/141/141
f 142/142/142 137/137/137 138/138/138
f 142/142/142 141/141/141 137/137/137
f 143/143/143 142/142/142 138/138/138
f 144/144/144 140/140/140 139/139/139
f 145/145/145 140/140/140 144/144/144
f 146/146/146 139/139/139 141/141/141
f 146/146/146 141/141/141 142/142/142
f 144/144/144 139/139/139 146/146/146
f 147/147/147 142/142/142 143/143/143
f 147/147/147 146/146/146 142/142/142
f 148/148/148 147/147/147 143/143/143
f 149/149/149 145/145/145 144/144/144
f 150/150/150 145/145/145 149/149/149
f 151/151/151 144/144/144 146/146/146
f 151/151/151 146/146/146 147/147/147
f 149/149/149 144/144/144 151/151/151
f 152/152/152 147/147/147 148/148/148
f 152/152/152 151/151/151 147/147/147
f 153/153/153 152/152/152 148/148/148
f 154/154/154 150/150/150 149/149/149
f 155/155/155 150/150/150 154/154/154
f 156/156/156 149/149/149 151/151/151
f 156/156/156 151/151/151 152/152/152
f 154/154/154 149/149/149 156/156/156
f 157/157/157 152/152/152 153/153/153
f 157/157/157 156/156/156 152/152/152
f 158/158/158 157/157/157 153/153/153
f 159/159/159 155/155/155 154/154/154
f 160/160/160 155/155/155 159/159/159
f 161/161/161 154/154/154 156/156/156
f 161/161/161 156/156/156 157/157/157
f 159/159/159 154/154/154 161/161/161
f 162/162/162 157/157/157 158/158/158
f 162/162/162 161/161/161 157/157/157
f 163/163/163 162/162/162 158/158/158
f 164/164/164 160/160/160 159/159/159
f 165/165/165 160/160/160 164/164/164
f 166/166/166 165/165/165 164/164/164
f 167/167/167 159/159/159 161/161/161
f 167/167/167 161/161/161 162/162/162
f 164/164/164 159/159/159 167/167/167
f 168/168/168 162/162/162 163/163/163
f 168/168/168 167/167/167 162/162/162
f 169/169/169 168/168/168 163/163/163
f 166/166/166 164/164/164 170/170/170
f 170/170/170 164/164/164 167/167/167
f 170/170/170 167/167/167 168/168/168
f 171/171/171 166/166/166 170/170/170
f 172/172/172 168/168/168 169/169/169
f 172/172/172 170/170/170 168/168/168
f 171/171/171 170/170/170 172/172/172
f 173/173/173 172/172/172 169/169/169
f 174/174/174 171/171/171 172/172/172
f 174/174/174 172/172/172 173/173/173
f 175/175/175 174/174/174 173/173/173
