g general_plane_02_3
v -0.499934763 0.131449282 5.5334167E-06
v -0.499934763 0.171752468 5.5334167E-06
v -0.428506196 0.15082027 5.5334167E-06
v -0.428506196 0.116176888 5.5334167E-06
v -0.499934763 0.0912346318 5.5334167E-06
v -0.357077628 0.131916448 5.5334167E-06
v -0.428506196 0.081518285 5.5334167E-06
v -0.499934763 0.0489976965 5.5334167E-06
v -0.357077628 0.101673789 5.5334167E-06
v -0.285649031 0.112260759 5.5334167E-06
v -0.428506196 0.0437036455 5.5334167E-06
v -0.499934763 0.00679224264 5.5334167E-06
v -0.285649031 0.0865594894 5.5334167E-06
v -0.214220464 0.0962028205 5.5334167E-06
v -0.357077628 0.0713897273 5.5334167E-06
v -0.428506196 0.00594308041 5.5334167E-06
v -0.499934763 -0.0388566814 5.5334167E-06
v -0.214220464 0.0742845833 5.5334167E-06
v -0.142791897 0.0779976174 5.5334167E-06
v -0.357077628 0.0381945334 5.5334167E-06
v -0.285649031 0.0608983412 5.5334167E-06
v -0.428506196 -0.0349194407 5.5334167E-06
v -0.499934763 -0.0845334306 5.5334167E-06
v -0.142791897 0.0602771603 5.5334167E-06
v -0.0713633224 0.0568048693 5.5334167E-06
v -0.357077628 0.00506565999 5.5334167E-06
v -0.285649031 0.0324963368 5.5334167E-06
v -0.214220464 0.0523301139 5.5334167E-06
v -0.428506196 -0.0758317783 5.5334167E-06
v -0.499934763 -0.132787406 5.5334167E-06
v -0.0713633224 0.0440172255 5.5334167E-06
v 6.52431481E-05 0.035517022 5.5334167E-06
v -0.357077628 -0.0308103915 5.5334167E-06
v -0.285649031 0.00416381424 5.5334167E-06
v -0.214220464 0.0278097633 5.5334167E-06
v -0.142791897 0.042556718 5.5334167E-06
v -0.428506196 -0.118947238 5.5334167E-06
v -0.499934763 -0.181151971 5.5334167E-06
v -0.428506196 -0.162254483 5.5334167E-06
v -0.357077628 -0.0667488649 5.5334167E-06
v -0.357077628 -0.104477473 5.5334167E-06
v -0.357077628 -0.142276898 5.5334167E-06
v -0.285649031 -0.0265493207 5.5334167E-06
v -0.214220464 0.00335284392 5.5334167E-06
v -0.142791897 0.0224834494 5.5334167E-06
v -0.285649031 -0.0573291741 5.5334167E-06
v -0.285649031 -0.0894055963 5.5334167E-06
v -0.285649031 -0.121439978 5.5334167E-06
v -0.214220464 -0.0231966116 5.5334167E-06
v -0.214220464 -0.0498291031 5.5334167E-06
v -0.214220464 -0.0772411674 5.5334167E-06
v -0.214220464 -0.104695067 5.5334167E-06
v -0.142791897 0.00244319066 5.5334167E-06
v -0.0713633224 0.0312167313 5.5334167E-06
v -0.142791897 -0.0193618387 5.5334167E-06
v -0.142791897 -0.0412179045 5.5334167E-06
v -0.142791897 -0.0633737594 5.5334167E-06
v -0.142791897 -0.0855128318 5.5334167E-06
v -0.0713633224 0.0159261376 5.5334167E-06
v 6.52431263E-05 0.0260170829 5.5334167E-06
v -0.0713633224 0.000636862358 5.5334167E-06
v -0.0713633224 -0.0152348485 5.5334167E-06
v -0.0713633224 -0.0311140697 5.5334167E-06
v -0.0713633224 -0.0471189581 5.5334167E-06
v -0.0713633224 -0.0631263778 5.5334167E-06
v 6.5243119E-05 0.0165263582 5.5334167E-06
v 0.0621429384 0.011370535 5.53317886E-06
v 0.0621429384 0.0164850689 5.53317886E-06
v 6.52431045E-05 0.00703746686 5.5334167E-06
v 6.52431045E-05 -0.00244872621 5.5334167E-06
v 6.52431117E-05 -0.0119360518 5.5334167E-06
v 6.52431117E-05 -0.0214239601 5.5334167E-06
v 6.52431263E-05 -0.0309164263 5.5334167E-06
v 6.52431409E-05 -0.0404141508 5.5334167E-06
v 0.0621429384 -0.0244054776 5.53317886E-06
v 0.0621429384 -0.0192892235 5.53317886E-06
v 0.128602594 -0.00683167484 5.53317886E-06
v 0.128602594 -0.00611953624 5.53317886E-06
v 0.0621429384 -0.0141787343 5.53317886E-06
v 0.128602594 -0.00540739717 5.53317886E-06
v 0.0621429384 -0.00906891283 5.53317886E-06
v 0.128602594 -0.00469525903 5.53317886E-06
v 0.0621429384 -0.00395911001 5.53317886E-06
v 0.128602594 -0.00398312043 5.53317886E-06
v 0.0621429384 0.00114978687 5.53317886E-06
v 0.128602594 -0.00327098207 5.53317886E-06
v 0.0621429384 0.00625900039 5.53317886E-06
v 0.128602594 -0.0025588437 5.53317886E-06
v 0.128602594 -0.00184670475 5.53317886E-06
v 0.128602594 -0.0011345658 5.53317886E-06
vt 0.00341796875 0.867675781
vt 0.00341796875 0.989746094
vt 0.112792969 0.988769531
vt 0.112792969 0.866699219
vt 0.00341796875 0.744628906
vt 0.224121094 0.988769531
vt 0.112792969 0.743652344
vt 0.00439453125 0.622558594
vt 0.223144531 0.867675781
vt 0.333496094 0.988769531
vt 0.112792969 0.621582031
vt 0.00439453125 0.499511719
vt 0.333496094 0.867675781
vt 0.442871094 0.990722656
vt 0.223144531 0.744628906
vt 0.112792969 0.499511719
vt 0.00341796875 0.377441406
vt 0.442871094 0.867675781
vt 0.551269531 0.989746094
vt 0.223144531 0.622558594
vt 0.333496094 0.744628906
vt 0.112792969 0.377441406
vt 0.00341796875 0.255371094
vt 0.551269531 0.867675781
vt 0.661621094 0.988769531
vt 0.223144531 0.499511719
vt 0.332519531 0.622558594
vt 0.442871094 0.743652344
vt 0.112792969 0.255371094
vt 0.00341796875 0.132324219
vt 0.661621094 0.867675781
vt 0.771972656 0.989746094
vt 0.223144531 0.377441406
vt 0.332519531 0.499511719
vt 0.442871094 0.622558594
vt 0.551269531 0.744628906
vt 0.112792969 0.133300781
vt 0.00341796875 0.0102539062
vt 0.112792969 0.0112304688
vt 0.223144531 0.255371094
vt 0.223144531 0.132324219
vt 0.223144531 0.0102539062
vt 0.332519531 0.378417969
vt 0.442871094 0.500488281
vt 0.551269531 0.622558594
vt 0.332519531 0.256347656
vt 0.332519531 0.132324219
vt 0.332519531 0.00927734375
vt 0.442871094 0.377441406
vt 0.441894531 0.255371094
vt 0.441894531 0.133300781
vt 0.441894531 0.0112304688
vt 0.551269531 0.500488281
vt 0.661621094 0.744628906
vt 0.551269531 0.378417969
vt 0.551269531 0.255371094
vt 0.551269531 0.133300781
vt 0.551269531 0.0112304688
vt 0.661621094 0.622558594
vt 0.771972656 0.867675781
vt 0.661621094 0.500488281
vt 0.661621094 0.378417969
vt 0.661621094 0.256347656
vt 0.661621094 0.133300781
vt 0.661621094 0.0112304688
vt 0.772949219 0.744628906
vt 0.877441406 0.867675781
vt 0.877441406 0.989746094
vt 0.771972656 0.622558594
vt 0.770996094 0.500488281
vt 0.770996094 0.378417969
vt 0.771972656 0.255371094
vt 0.771972656 0.132324219
vt 0.771972656 0.0102539062
vt 0.877441406 0.0102539062
vt 0.877441406 0.132324219
vt 0.990722656 0.0102539062
vt 0.990722656 0.132324219
vt 0.877441406 0.255371094
vt 0.990722656 0.255371094
vt 0.876464844 0.378417969
vt 0.989746094 0.378417969
vt 0.876464844 0.500488281
vt 0.989746094 0.500488281
vt 0.877441406 0.622558594
vt 0.990722656 0.622558594
vt 0.877441406 0.744628906
vt 0.990722656 0.744628906
vt 0.990722656 0.867675781
vt 0.990722656 0.989746094
vn -0 0 1
vn -0 0 1
vn -0 0 1
vn -0 0 1
vn -0 0 1
vn -0 0 1
vn -0 0 1
vn -0 0 1
vn -0 0 1
vn -0 0 1
vn -0 0 1
vn -0 0 1
vn -0 0 1
vn -0 0 1
vn -0 0 1
vn -0 0 1
vn -0 0 1
vn -0 0 1
vn -0 0 1
vn -0 0 1
vn -0 0 1
vn -0 0 1
vn -0 0 1
vn -0 0 1
vn -0 0 1
vn -0 0 1
vn -0 0 1
vn -0 0 1
vn -0 0 1
vn -0 0 1
vn -0 0 1
vn -0 0 1
vn -0 0 1
vn -0 0 1
vn -0 0 1
vn -0 0 1
vn -0 0 1
vn -0 0 1
vn -0 0 1
vn -0 0 1
vn -0 0 1
vn -0 0 1
vn -0 0 1
vn -0 0 1
vn -0 0 1
vn -0 0 1
vn -0 0 1
vn -0 0 1
vn -0 0 1
vn -0 0 1
vn -0 0 1
vn -0 0 1
vn -0 0 1
vn -0 0 1
vn -0 0 1
vn -0 0 1
vn -0 0 1
vn -0 0 1
vn -0 0 1
vn -0 0 1
vn -0 0 1
vn -0 0 1
vn -0 0 1
vn -0 0 1
vn -0 0 1
vn -0 0 1
vn -0 0 1
vn -0 0 1
vn -0 0 1
vn -0 0 1
vn -0 0 1
vn -0 0 1
vn -0 0 1
vn -0 0 1
vn -0 0 1
vn -0 0 1
vn -0 0 1
vn -0 0 1
vn -0 0 1
vn -0 0 1
vn -0 0 1
vn -0 0 1
vn -0 0 1
vn -0 0 1
vn -0 0 1
vn -0 0 1
vn -0 0 1
vn -0 0 1
vn -0 0 1
vn -0 0 1
g general_plane_02_3_0
f 3/3/3 2/2/2 1/1/1
f 4/4/4 3/3/3 1/1/1
f 4/4/4 1/1/1 5/5/5
f 6/6/6 3/3/3 4/4/4
f 7/7/7 4/4/4 5/5/5
f 7/7/7 5/5/5 8/8/8
f 9/9/9 6/6/6 4/4/4
f 9/9/9 4/4/4 7/7/7
f 10/10/10 6/6/6 9/9/9
f 11/11/11 7/7/7 8/8/8
f 11/11/11 8/8/8 12/12/12
f 13/13/13 10/10/10 9/9/9
f 14/14/14 10/10/10 13/13/13
f 15/15/15 9/9/9 7/7/7
f 15/15/15 7/7/7 11/11/11
f 13/13/13 9/9/9 15/15/15
f 16/16/16 11/11/11 12/12/12
f 16/16/16 12/12/12 17/17/17
f 18/18/18 14/14/14 13/13/13
f 19/19/19 14/14/14 18/18/18
f 20/20/20 15/15/15 11/11/11
f 20/20/20 11/11/11 16/16/16
f 21/21/21 13/13/13 15/15/15
f 18/18/18 13/13/13 21/21/21
f 21/21/21 15/15/15 20/20/20
f 22/22/22 16/16/16 17/17/17
f 22/22/22 17/17/17 23/23/23
f 24/24/24 19/19/19 18/18/18
f 25/25/25 19/19/19 24/24/24
f 26/26/26 20/20/20 16/16/16
f 26/26/26 16/16/16 22/22/22
f 27/27/27 21/21/21 20/20/20
f 27/27/27 20/20/20 26/26/26
f 28/28/28 18/18/18 21/21/21
f 24/24/24 18/18/18 28/28/28
f 28/28/28 21/21/21 27/27/27
f 29/29/29 22/22/22 23/23/23
f 29/29/29 23/23/23 30/30/30
f 31/31/31 25/25/25 24/24/24
f 32/32/32 25/25/25 31/31/31
f 33/33/33 26/26/26 22/22/22
f 33/33/33 22/22/22 29/29/29
f 34/34/34 27/27/27 26/26/26
f 34/34/34 26/26/26 33/33/33
f 35/35/35 28/28/28 27/27/27
f 35/35/35 27/27/27 34/34/34
f 36/36/36 24/24/24 28/28/28
f 31/31/31 24/24/24 36/36/36
f 36/36/36 28/28/28 35/35/35
f 37/37/37 29/29/29 30/30/30
f 37/37/37 30/30/30 38/38/38
f 39/39/39 37/37/37 38/38/38
f 40/40/40 33/33/33 29/29/29
f 40/40/40 29/29/29 37/37/37
f 41/41/41 37/37/37 39/39/39
f 41/41/41 40/40/40 37/37/37
f 42/42/42 41/41/41 39/39/39
f 43/43/43 34/34/34 33/33/33
f 43/43/43 33/33/33 40/40/40
f 44/44/44 35/35/35 34/34/34
f 44/44/44 34/34/34 43/43/43
f 45/45/45 36/36/36 35/35/35
f 45/45/45 35/35/35 44/44/44
f 46/46/46 40/40/40 41/41/41
f 46/46/46 43/43/43 40/40/40
f 47/47/47 41/41/41 42/42/42
f 47/47/47 46/46/46 41/41/41
f 48/48/48 47/47/47 42/42/42
f 49/49/49 44/44/44 43/43/43
f 49/49/49 43/43/43 46/46/46
f 50/50/50 46/46/46 47/47/47
f 50/50/50 49/49/49 46/46/46
f 51/51/51 47/47/47 48/48/48
f 51/51/51 50/50/50 47/47/47
f 52/52/52 51/51/51 48/48/48
f 53/53/53 44/44/44 49/49/49
f 53/53/53 45/45/45 44/44/44
f 54/54/54 36/36/36 45/45/45
f 54/54/54 31/31/31 36/36/36
f 55/55/55 49/49/49 50/50/50
f 55/55/55 53/53/53 49/49/49
f 56/56/56 50/50/50 51/51/51
f 56/56/56 55/55/55 50/50/50
f 57/57/57 51/51/51 52/52/52
f 57/57/57 56/56/56 51/51/51
f 58/58/58 57/57/57 52/52/52
f 59/59/59 45/45/45 53/53/53
f 59/59/59 54/54/54 45/45/45
f 60/60/60 31/31/31 54/54/54
f 60/60/60 32/32/32 31/31/31
f 61/61/61 53/53/53 55/55/55
f 61/61/61 59/59/59 53/53/53
f 62/62/62 55/55/55 56/56/56
f 62/62/62 61/61/61 55/55/55
f 63/63/63 56/56/56 57/57/57
f 63/63/63 62/62/62 56/56/56
f 64/64/64 57/57/57 58/58/58
f 64/64/64 63/63/63 57/57/57
f 65/65/65 64/64/64 58/58/58
f 66/66/66 54/54/54 59/59/59
f 66/66/66 60/60/60 54/54/54
f 60/60/60 67/67/67 32/32/32
f 67/67/67 68/68/68 32/32/32
f 69/69/69 59/59/59 61/61/61
f 69/69/69 66/66/66 59/59/59
f 70/70/70 61/61/61 62/62/62
f 70/70/70 69/69/69 61/61/61
f 71/71/71 62/62/62 63/63/63
f 71/71/71 70/70/70 62/62/62
f 72/72/72 63/63/63 64/64/64
f 72/72/72 71/71/71 63/63/63
f 73/73/73 64/64/64 65/65/65
f 73/73/73 72/72/72 64/64/64
f 74/74/74 73/73/73 65/65/65
f 74/74/74 75/75/75 73/73/73
f 75/75/75 76/76/76 73/73/73
f 73/73/73 76/76/76 72/72/72
f 75/75/75 77/77/77 76/76/76
f 77/77/77 78/78/78 76/76/76
f 76/76/76 79/79/79 72/72/72
f 76/76/76 78/78/78 79/79/79
f 72/72/72 79/79/79 71/71/71
f 78/78/78 80/80/80 79/79/79
f 79/79/79 81/81/81 71/71/71
f 79/79/79 80/80/80 81/81/81
f 71/71/71 81/81/81 70/70/70
f 80/80/80 82/82/82 81/81/81
f 81/81/81 83/83/83 70/70/70
f 81/81/81 82/82/82 83/83/83
f 70/70/70 83/83/83 69/69/69
f 82/82/82 84/84/84 83/83/83
f 83/83/83 85/85/85 69/69/69
f 83/83/83 84/84/84 85/85/85
f 69/69/69 85/85/85 66/66/66
f 84/84/84 86/86/86 85/85/85
f 85/85/85 87/87/87 66/66/66
f 85/85/85 86/86/86 87/87/87
f 66/66/66 87/87/87 60/60/60
f 86/86/86 88/88/88 87/87/87
f 87/87/87 67/67/67 60/60/60
f 87/87/87 88/88/88 67/67/67
f 88/88/88 89/89/89 67/67/67
f 67/67/67 89/89/89 68/68/68
f 89/89/89 90/90/90 68/68/68
