g Cone001
v 0.0644316152 0.489406019 0
v 8.1318845E-08 0.457845747 0.273231119
v 9.61131335E-08 0.493629128 0
v 0.0597609282 0.453928769 0.273231119
v 0.127760679 0.476809114 0
v 0.118499249 0.442245007 0.273231119
v 0.188903734 0.456053853 0
v 0.175209999 0.422994286 0.273231119
v 0.246814579 0.42749536 0
v 0.228922889 0.396505982 0.273231119
v 0.30050239 0.391622275 0
v 0.278718859 0.363233387 0.273231119
v 0.349048525 0.349048495 0
v 0.323745847 0.323745787 0.273231119
v 0.391622275 0.30050236 0
v 0.363233417 0.278718799 0.273231119
v 0.42749536 0.246814564 0
v 0.396506011 0.228922844 0.273231119
v 0.456053853 0.188903689 0
v 0.422994286 0.175209969 0.273231119
v 0.476809114 0.127760604 0
v 0.442245007 0.118499182 0.273231119
v 0.489406079 0.0644315332 0
v 0.453928828 0.0597608425 0.273231119
v 0.493629128 0 0
v 0.457845747 -1.44593777E-08 0.273231119
v 0.489406228 -0.0644301474 0
v 0.453928977 -0.0597595982 0.273231119
v 0.476809442 -0.127759367 0
v 0.442245334 -0.11849805 0.273231119
v 0.45605427 -0.188902587 0
v 0.422994733 -0.175208971 0.273231119
v 0.427495897 -0.24681361 0
v 0.396506548 -0.228922024 0.273231119
v 0.391622931 -0.300501585 0
v 0.363234013 -0.278718144 0.273231119
v 0.349049121 -0.349047869 0
v 0.323746383 -0.323745251 0.273231119
v 0.300502986 -0.391621858 0
v 0.278719395 -0.36323303 0.273231119
v 0.246815115 -0.427495033 0
v 0.22892338 -0.396505773 0.273231119
v 0.188904196 -0.456053615 0
v 0.175210446 -0.422994077 0.273231119
v 0.127761066 -0.476808965 0
v 0.118499584 -0.442244887 0.273231119
v 0.0644318685 -0.489406019 0
v 0.0597611703 -0.453928739 0.273231119
v 2.41267173E-07 -0.493629128 0
v 2.15950621E-07 -0.457845747 0.273231119
v -0.0644313917 -0.489406079 0
v -0.0597607344 -0.453928828 0.273231119
v -0.127760589 -0.476809114 0
v -0.118499175 -0.442245036 0.273231119
v -0.188903749 -0.456053853 0
v -0.175210059 -0.422994286 0.273231119
v -0.246814698 -0.427495271 0
v -0.228922993 -0.396505952 0.273231119
v -0.300502598 -0.391622156 0
v -0.278719038 -0.363233328 0.273231119
v -0.349048704 -0.349048316 0
v -0.323745996 -0.323745698 0.273231119
v -0.391622484 -0.300502181 0
v -0.363233596 -0.27871868 0.273231119
v -0.42749545 -0.24681434 0
v -0.39650616 -0.228922695 0.273231119
v -0.456053883 -0.188903481 0
v -0.422994375 -0.17520979 0.273231119
v -0.476809174 -0.12776041 0
v -0.442245036 -0.118499018 0.273231119
v -0.489406079 -0.0644313246 0
v -0.453928828 -0.0597606935 0.273231119
v -0.493629128 1.92226267E-07 0
v -0.457845747 1.63832325E-07 0.273231119
v -0.489406019 0.0644317046 0
v -0.453928769 0.0597610064 0.273231119
v -0.476809055 0.127760783 0
v -0.442244947 0.118499346 0.273231119
v -0.456053734 0.188903823 0
v -0.422994226 0.175210103 0.273231119
v -0.427495271 0.246814683 0
v -0.396505952 0.228922948 0.273231119
v -0.391622245 0.300502449 0
v -0.363233358 0.278718889 0.273231119
v -0.349048406 0.349048585 0
v -0.323745728 0.323745847 0.273231119
v -0.30050227 0.391622365 0
v -0.27871874 0.363233477 0.273231119
v -0.246814489 0.42749542 0
v -0.228922799 0.396506071 0.273231119
v -0.188903555 0.456053883 0
v -0.175209865 0.422994345 0.273231119
v -0.1277605 0.476809114 0
v -0.1184991 0.442245036 0.273231119
v -0.0644314215 0.489406079 0
v -0.0597607642 0.453928828 0.273231119
v 9.61131335E-08 0.493629128 0
v 8.1318845E-08 0.457845747 0.273231119
vt 0.979166627 0
vt 1 1
vt 1 0
vt 0.979166627 1
vt 0.958333313 0
vt 0.958333313 1
vt 0.9375 0
vt 0.9375 1
vt 0.916666627 0
vt 0.916666627 1
vt 0.895833313 0
vt 0.895833313 1
vt 0.875 0
vt 0.875 1
vt 0.854166627 0
vt 0.854166627 1
vt 0.833333373 0
vt 0.833333373 1
vt 0.8125 0
vt 0.8125 1
vt 0.791666627 0
vt 0.791666627 1
vt 0.770833313 0
vt 0.770833313 1
vt 0.75 0
vt 0.75 1
vt 0.729167104 0
vt 0.729167104 1
vt 0.708333731 0
vt 0.708333731 1
vt 0.687500358 0
vt 0.687500358 1
vt 0.666667044 0
vt 0.666666985 1
vt 0.645833671 0
vt 0.645833671 1
vt 0.625000298 0
vt 0.625000238 1
vt 0.604166925 0
vt 0.604166925 1
vt 0.583333552 0
vt 0.583333552 1
vt 0.562500179 0
vt 0.562500179 1
vt 0.541666806 0
vt 0.541666806 1
vt 0.520833433 0
vt 0.520833433 1
vt 0.50000006 0
vt 0.50000006 1
vt 0.479166716 0
vt 0.479166716 1
vt 0.458333343 0
vt 0.458333343 1
vt 0.4375 0
vt 0.4375 1
vt 0.416666627 0
vt 0.416666627 1
vt 0.395833254 0
vt 0.395833254 1
vt 0.37499994 0
vt 0.374999911 1
vt 0.354166597 0
vt 0.354166567 1
vt 0.333333254 0
vt 0.333333254 1
vt 0.31249994 0
vt 0.31249994 1
vt 0.291666597 0
vt 0.291666597 1
vt 0.270833313 0
vt 0.270833254 1
vt 0.24999994 0
vt 0.24999994 1
vt 0.229166627 0
vt 0.229166627 1
vt 0.208333284 0
vt 0.208333284 1
vt 0.18749997 0
vt 0.18749997 1
vt 0.166666627 0
vt 0.166666627 1
vt 0.145833313 0
vt 0.145833313 1
vt 0.12499997 0
vt 0.12499997 1
vt 0.104166657 0
vt 0.104166657 1
vt 0.0833333135 0
vt 0.0833333135 1
vt 0.0625 0
vt 0.0625 1
vt 0.0416666567 0
vt 0.0416666567 1
vt 0.0208333433 0
vt 0.0208333433 1
vt 0 0
vt 0 1
vn 0.129421175 0.983050287 0.129854932
vn 3.75846724E-07 0.991532981 0.129854903
vn 3.77543586E-07 0.991532981 0.129854888
vn 0.12942116 0.983050287 0.129854932
vn 0.25662753 0.95774734 0.129855007
vn 0.256627589 0.95774734 0.129854992
vn 0.379443467 0.916056931 0.129855067
vn 0.379443467 0.916056931 0.129855067
vn 0.49576664 0.858692646 0.129855052
vn 0.495766729 0.858692646 0.129855081
vn 0.603607059 0.786636055 0.129855022
vn 0.603607059 0.786635935 0.129855022
vn 0.70111984 0.701119542 0.129855007
vn 0.70111984 0.701119483 0.129855022
vn 0.786636114 0.603606939 0.129855037
vn 0.786636055 0.603606939 0.129855037
vn 0.858692765 0.49576664 0.129855067
vn 0.858692646 0.49576667 0.129855067
vn 0.916056991 0.379443318 0.129855037
vn 0.916056991 0.379443318 0.129855037
vn 0.95774734 0.256627828 0.129855007
vn 0.957747221 0.256627887 0.129855007
vn 0.983050287 0.12942113 0.129854932
vn 0.983050287 0.12942113 0.129854947
vn 0.991532981 4.68345064E-07 0.129854888
vn 0.991532981 4.70399272E-07 0.129854888
vn 0.983050525 -0.129418969 0.129854873
vn 0.983050525 -0.129418969 0.129854858
vn 0.957748055 -0.256625116 0.129854888
vn 0.957748055 -0.256625116 0.129854903
vn 0.916057944 -0.379441112 0.129854873
vn 0.916057944 -0.379441112 0.129854888
vn 0.858693957 -0.495764464 0.129854888
vn 0.858693957 -0.495764464 0.129854888
vn 0.786637187 -0.603605509 0.129854888
vn 0.786637187 -0.603605449 0.129854888
vn 0.701120913 -0.701118469 0.129854903
vn 0.701120973 -0.701118469 0.129854918
vn 0.60360831 -0.786635101 0.129854918
vn 0.603608251 -0.786635101 0.129854888
vn 0.495767295 -0.858692408 0.129854873
vn 0.495767295 -0.858692288 0.129854888
vn 0.379444152 -0.916056693 0.129854888
vn 0.379444063 -0.916056693 0.129854888
vn 0.256628603 -0.957747102 0.129854947
vn 0.256628633 -0.957747102 0.129854962
vn 0.12942186 -0.983050168 0.129854962
vn 0.129421845 -0.983050168 0.129854962
vn 5.6631535E-07 -0.991532981 0.129854932
vn 5.72043348E-07 -0.991532981 0.129854932
vn -0.129420742 -0.983050287 0.129854873
vn -0.129420727 -0.983050287 0.129854858
vn -0.25662747 -0.95774734 0.129854888
vn -0.25662747 -0.95774734 0.129854888
vn -0.379443496 -0.916056931 0.129854947
vn -0.379443496 -0.916056931 0.129854947
vn -0.495766789 -0.858692646 0.129854932
vn -0.495766729 -0.858692646 0.129854932
vn -0.603607297 -0.786635876 0.129854888
vn -0.603607178 -0.786635876 0.129854888
vn -0.701120138 -0.701119304 0.129854858
vn -0.701120079 -0.701119423 0.129854873
vn -0.786636472 -0.603606462 0.129854873
vn -0.786636412 -0.603606522 0.129854888
vn -0.858693182 -0.495765865 0.129854858
vn -0.858693182 -0.495765865 0.129854828
vn -0.916057229 -0.379442751 0.129854858
vn -0.916057229 -0.379442751 0.129854828
vn -0.9577474 -0.256627321 0.129854873
vn -0.9577474 -0.256627351 0.129854888
vn -0.983050287 -0.129420742 0.129854873
vn -0.983050287 -0.129420772 0.129854903
vn -0.991532981 3.79933056E-07 0.129854888
vn -0.991532981 3.73482862E-07 0.129854888
vn -0.983050168 0.129421517 0.129854918
vn -0.983050168 0.129421517 0.129854903
vn -0.957747221 0.256628096 0.129854947
vn -0.957747221 0.256628096 0.129854947
vn -0.916056931 0.379443556 0.129854947
vn -0.916056931 0.379443616 0.129854947
vn -0.858692765 0.49576664 0.129854977
vn -0.858692765 0.49576658 0.129854977
vn -0.786635935 0.603607118 0.129855022
vn -0.786635876 0.603607118 0.129854992
vn -0.701119423 0.701119959 0.129855022
vn -0.701119423 0.701119959 0.129855022
vn -0.603607059 0.786636055 0.129854977
vn -0.603607118 0.786636055 0.129854977
vn -0.495766371 0.858692825 0.129854962
vn -0.495766371 0.858692825 0.129854962
vn -0.37944293 0.916057229 0.129854947
vn -0.37944293 0.91605711 0.129854932
vn -0.2566275 0.95774734 0.129854873
vn -0.2566275 0.95774734 0.129854873
vn -0.129420951 0.983050287 0.129854873
vn -0.129420966 0.983050287 0.129854873
vn 3.77543586E-07 0.991532981 0.129854888
vn 3.75846724E-07 0.991532981 0.129854903
g Cone001_0
f 3/3/3 2/2/2 1/1/1
f 2/2/2 4/4/4 1/1/1
f 1/1/1 4/4/4 5/5/5
f 4/4/4 6/6/6 5/5/5
f 5/5/5 6/6/6 7/7/7
f 6/6/6 8/8/8 7/7/7
f 7/7/7 8/8/8 9/9/9
f 8/8/8 10/10/10 9/9/9
f 9/9/9 10/10/10 11/11/11
f 10/10/10 12/12/12 11/11/11
f 11/11/11 12/12/12 13/13/13
f 12/12/12 14/14/14 13/13/13
f 13/13/13 14/14/14 15/15/15
f 14/14/14 16/16/16 15/15/15
f 15/15/15 16/16/16 17/17/17
f 16/16/16 18/18/18 17/17/17
f 17/17/17 18/18/18 19/19/19
f 18/18/18 20/20/20 19/19/19
f 19/19/19 20/20/20 21/21/21
f 20/20/20 22/22/22 21/21/21
f 21/21/21 22/22/22 23/23/23
f 22/22/22 24/24/24 23/23/23
f 23/23/23 24/24/24 25/25/25
f 24/24/24 26/26/26 25/25/25
f 25/25/25 26/26/26 27/27/27
f 26/26/26 28/28/28 27/27/27
f 27/27/27 28/28/28 29/29/29
f 28/28/28 30/30/30 29/29/29
f 29/29/29 30/30/30 31/31/31
f 30/30/30 32/32/32 31/31/31
f 31/31/31 32/32/32 33/33/33
f 32/32/32 34/34/34 33/33/33
f 33/33/33 34/34/34 35/35/35
f 34/34/34 36/36/36 35/35/35
f 35/35/35 36/36/36 37/37/37
f 36/36/36 38/38/38 37/37/37
f 37/37/37 38/38/38 39/39/39
f 38/38/38 40/40/40 39/39/39
f 39/39/39 40/40/40 41/41/41
f 40/40/40 42/42/42 41/41/41
f 41/41/41 42/42/42 43/43/43
f 42/42/42 44/44/44 43/43/43
f 43/43/43 44/44/44 45/45/45
f 44/44/44 46/46/46 45/45/45
f 45/45/45 46/46/46 47/47/47
f 46/46/46 48/48/48 47/47/47
f 47/47/47 48/48/48 49/49/49
f 48/48/48 50/50/50 49/49/49
f 49/49/49 50/50/50 51/51/51
f 50/50/50 52/52/52 51/51/51
f 51/51/51 52/52/52 53/53/53
f 52/52/52 54/54/54 53/53/53
f 53/53/53 54/54/54 55/55/55
f 54/54/54 56/56/56 55/55/55
f 55/55/55 56/56/56 57/57/57
f 56/56/56 58/58/58 57/57/57
f 57/57/57 58/58/58 59/59/59
f 58/58/58 60/60/60 59/59/59
f 59/59/59 60/60/60 61/61/61
f 60/60/60 62/62/62 61/61/61
f 61/61/61 62/62/62 63/63/63
f 62/62/62 64/64/64 63/63/63
f 63/63/63 64/64/64 65/65/65
f 64/64/64 66/66/66 65/65/65
f 65/65/65 66/66/66 67/67/67
f 66/66/66 68/68/68 67/67/67
f 67/67/67 68/68/68 69/69/69
f 68/68/68 70/70/70 69/69/69
f 69/69/69 70/70/70 71/71/71
f 70/70/70 72/72/72 71/71/71
f 71/71/71 72/72/72 73/73/73
f 72/72/72 74/74/74 73/73/73
f 73/73/73 74/74/74 75/75/75
f 74/74/74 76/76/76 75/75/75
f 75/75/75 76/76/76 77/77/77
f 76/76/76 78/78/78 77/77/77
f 77/77/77 78/78/78 79/79/79
f 78/78/78 80/80/80 79/79/79
f 79/79/79 80/80/80 81/81/81
f 80/80/80 82/82/82 81/81/81
f 81/81/81 82/82/82 83/83/83
f 82/82/82 84/84/84 83/83/83
f 83/83/83 84/84/84 85/85/85
f 84/84/84 86/86/86 85/85/85
f 85/85/85 86/86/86 87/87/87
f 86/86/86 88/88/88 87/87/87
f 87/87/87 88/88/88 89/89/89
f 88/88/88 90/90/90 89/89/89
f 89/89/89 90/90/90 91/91/91
f 90/90/90 92/92/92 91/91/91
f 91/91/91 92/92/92 93/93/93
f 92/92/92 94/94/94 93/93/93
f 93/93/93 94/94/94 95/95/95
f 94/94/94 96/96/96 95/95/95
f 95/95/95 96/96/96 97/97/97
f 96/96/96 98/98/98 97/97/97
