g Cone001
v 0.328700215 1.22672582 0
v 8.05411631E-08 1.0668 0.00971130375
v 9.5882335E-08 1.26999998 0
v 0.276108205 1.03044963 0.00971130375
v 0.634999931 1.09985232 0
v 6.51999912E-08 0.863600016 0.0194226075
v 0.53339994 0.923875988 0.00971130375
v 0.898025572 0.898025572 0
v 0.223516151 0.834173501 0.0194226075
v 4.98588122E-08 0.660399914 0.029133914
v 0.754341483 0.754341483 0.00971130375
v 1.0998522 0.63499999 0
v 0.431799948 0.747899592 0.0194226075
v 0.170924097 0.637897372 0.029133914
v 3.45176403E-08 0.457199991 0.038845215
v 0.923875868 0.533399999 0.00971130375
v 1.22672582 0.328700185 0
v 0.610657394 0.610657394 0.0194226075
v 0.330199957 0.571923196 0.029133914
v 0.118332081 0.441621304 0.038845215
v 1.91764666E-08 0.254000008 0.0485565178
v 0.0657400489 0.245345145 0.0485565178
v 0.228599966 0.395946831 0.038845215
v 0.126999989 0.219970465 0.0485565178
v 1.03044963 0.276108146 0.00971130375
v 1.26999998 0 0
v 0.747899473 0.431800008 0.0194226075
v 0.466973275 0.466973275 0.029133914
v 0.323289216 0.323289216 0.038845215
v 0.179605126 0.179605126 0.0485565178
v 1.0668 0 0.00971130375
v 1.22672546 -0.328701079 0
v 0.834173501 0.223516122 0.0194226075
v 0.571923137 0.330199957 0.029133914
v 0.395946801 0.228599995 0.038845215
v 0.219970435 0.127000004 0.0485565178
v 1.03044951 -0.276108921 0.00971130375
v 1.09985185 -0.635000765 0
v 0.863600016 0 0.0194226075
v 0.637897372 0.170924082 0.029133914
v 0.441621304 0.118332066 0.038845215
v 0.245345145 0.0657400414 0.0485565178
v 0.92387557 -0.533400595 0.00971130375
v 0.898025036 -0.898026168 0
v 0.834173381 -0.223516732 0.0194226075
v 0.660399914 0 0.029133914
v 0.457199991 0 0.038845215
v 0.254000008 0 0.0485565178
v 0.754341066 -0.75434196 0.00971130375
v 0.634999335 -1.09985256 0
v 0.747899234 -0.431800514 0.0194226075
v 0.637897253 -0.170924559 0.029133914
v 0.441621184 -0.118332393 0.038845215
v 0.245345101 -0.0657402202 0.0485565178
v 0.533399463 -0.923876166 0.00971130375
v 0.328699529 -1.22672594 0
v 0.610657036 -0.610657811 0.0194226075
v 0.571922958 -0.330200374 0.029133914
v 0.395946652 -0.228600264 0.038845215
v 0.21997036 -0.127000138 0.0485565178
v 0.276107609 -1.03044975 0.00971130375
v -5.90438617E-07 -1.26999998 0
v 0.431799561 -0.747899771 0.0194226075
v 0.466973007 -0.466973573 0.029133914
v 0.323289037 -0.323289424 0.038845215
v 0.179605007 -0.179605246 0.0485565178
v -4.95968436E-07 -1.0668 0.00971130375
v -0.328700662 -1.22672558 0
v 0.223515689 -0.83417356 0.0194226075
v 0.330199629 -0.571923316 0.029133914
v 0.228599757 -0.39594695 0.038845215
v 0.12699987 -0.219970539 0.0485565178
v -0.276108563 -1.03044951 0.00971130375
v -0.635000408 -1.09985209 0
v -4.01498255E-07 -0.863600016 0.0194226075
v 0.17092374 -0.637897432 0.029133914
v 0.118331835 -0.441621333 0.038845215
v 0.0657399073 -0.24534519 0.0485565178
v -0.533400357 -0.92387569 0.00971130375
v -0.898026109 -0.898025095 0
v -0.223516464 -0.834173381 0.0194226075
v -3.07028046E-07 -0.660399914 0.029133914
v -2.12557893E-07 -0.457199991 0.038845215
v -1.18087719E-07 -0.254000008 0.0485565178
v -0.75434196 -0.754341125 0.00971130375
v -1.09985256 -0.634999454 0
v -0.431800246 -0.747899354 0.0194226075
v -0.170924336 -0.637897313 0.029133914
v -0.118332237 -0.441621184 0.038845215
v -0.0657401383 -0.245345131 0.0485565178
v -0.923876166 -0.533399582 0.00971130375
v -1.22672594 -0.328699648 0
v -0.610657752 -0.610657096 0.0194226075
v -0.330200166 -0.571922958 0.029133914
v -0.228600144 -0.395946711 0.038845215
v -0.127000079 -0.21997039 0.0485565178
v -1.03044975 -0.276107699 0.00971130375
v -1.26999998 4.94556275E-07 0
v -0.747899711 -0.43179965 0.0194226075
v -0.466973513 -0.466973037 0.029133914
v -0.323289394 -0.323289067 0.038845215
v -0.179605216 -0.179605022 0.0485565178
v -1.0668 4.15427223E-07 0.00971130375
v -1.2267257 0.328700602 0
v -0.83417356 -0.223515764 0.0194226075
v -0.571923256 -0.330199718 0.029133914
v -0.39594689 -0.228599802 0.038845215
v -0.219970509 -0.126999885 0.0485565178
v -1.03044963 0.276108503 0.00971130375
v -1.09985209 0.635000288 0
v -0.863600016 3.36298228E-07 0.0194226075
v -0.637897432 -0.170923799 0.029133914
v -0.441621333 -0.118331872 0.038845215
v -0.24534519 -0.0657399297 0.0485565178
v -0.923875749 0.533400238 0.00971130375
v -0.898025393 0.898025811 0
v -0.834173501 0.22351642 0.0194226075
v -0.660399914 2.57169205E-07 0.029133914
v -0.457199991 1.78040239E-07 0.038845215
v -0.254000008 9.89112436E-08 0.0485565178
v -0.754341304 0.754341662 0.00971130375
v -0.634999812 1.09985244 0
v -0.747899413 0.431800187 0.0194226075
v -0.637897313 0.170924306 0.029133914
v -0.441621244 0.118332215 0.038845215
v -0.245345145 0.0657401159 0.0485565178
v -0.53339982 0.923875988 0.00971130375
v -0.328700036 1.22672594 0
v -0.610657215 0.610657513 0.0194226075
v -0.571923018 0.330200106 0.029133914
v -0.395946771 0.2286001 0.038845215
v -0.21997042 0.127000064 0.0485565178
v -0.276108027 1.03044963 0.00971130375
v 9.5882335E-08 1.26999998 0
v 8.05411631E-08 1.0668 0.00971130375
v -0.431799859 0.747899652 0.0194226075
v -0.466973126 0.466973394 0.029133914
v -0.323289126 0.323289305 0.038845215
v -0.179605067 0.179605171 0.0485565178
v -0.223516032 0.83417356 0.0194226075
v 6.51999912E-08 0.863600016 0.0194226075
v -0.330199867 0.571923196 0.029133914
v -0.228599921 0.39594686 0.038845215
v -0.126999959 0.21997048 0.0485565178
v -0.170924008 0.637897372 0.029133914
v 4.98588122E-08 0.660399914 0.029133914
v -0.118332006 0.441621304 0.038845215
v -0.0657400042 0.245345175 0.0485565178
v 3.45176403E-08 0.457199991 0.038845215
v 1.91764666E-08 0.254000008 0.0485565178
vt 0.958333313 0
vt 0.99999994 0.199999988
vt 0.99999994 0
vt 0.958333313 0.199999988
vt 0.916666687 0
vt 0.99999994 0.400000006
vt 0.916666687 0.199999988
vt 0.875 0
vt 0.958333313 0.400000006
vt 0.99999994 0.600000083
vt 0.875 0.199999988
vt 0.833333313 0
vt 0.916666687 0.400000006
vt 0.958333313 0.600000083
vt 0.99999994 0.800000012
vt 0.833333313 0.199999988
vt 0.791666627 0
vt 0.875 0.400000006
vt 0.916666687 0.600000083
vt 0.958333313 0.800000012
vt 0.99999994 1
vt 0.958333313 1
vt 0.916666687 0.800000012
vt 0.916666687 1
vt 0.791666627 0.199999988
vt 0.75 0
vt 0.833333313 0.400000006
vt 0.875 0.600000083
vt 0.875 0.800000012
vt 0.875 1
vt 0.75 0.199999988
vt 0.708333254 0
vt 0.791666627 0.400000006
vt 0.833333313 0.600000083
vt 0.833333313 0.800000012
vt 0.833333313 1
vt 0.708333254 0.199999988
vt 0.666666567 0
vt 0.75 0.400000006
vt 0.791666627 0.600000083
vt 0.791666627 0.800000012
vt 0.791666627 1
vt 0.666666567 0.199999988
vt 0.624999881 0
vt 0.708333254 0.400000006
vt 0.75 0.600000083
vt 0.75 0.800000012
vt 0.75 1
vt 0.624999881 0.199999988
vt 0.583333254 0
vt 0.666666508 0.400000006
vt 0.708333254 0.600000083
vt 0.708333254 0.800000012
vt 0.708333254 1
vt 0.583333254 0.199999988
vt 0.541666567 0
vt 0.624999881 0.400000006
vt 0.666666508 0.600000083
vt 0.666666567 0.800000012
vt 0.666666508 1
vt 0.541666567 0.199999988
vt 0.499999911 0
vt 0.583333254 0.400000006
vt 0.62499994 0.600000083
vt 0.624999881 0.800000012
vt 0.624999881 1
vt 0.499999911 0.199999988
vt 0.458333254 0
vt 0.541666567 0.400000006
vt 0.583333254 0.600000083
vt 0.583333254 0.800000012
vt 0.583333254 1
vt 0.458333254 0.199999988
vt 0.416666597 0
vt 0.499999911 0.400000006
vt 0.541666567 0.600000083
vt 0.541666567 0.800000012
vt 0.541666567 1
vt 0.416666597 0.199999988
vt 0.374999911 0
vt 0.458333254 0.400000006
vt 0.499999911 0.600000083
vt 0.499999911 0.800000012
vt 0.499999911 1
vt 0.374999911 0.199999988
vt 0.333333254 0
vt 0.416666597 0.400000006
vt 0.458333254 0.600000083
vt 0.458333254 0.800000012
vt 0.458333254 1
vt 0.333333254 0.199999988
vt 0.291666627 0
vt 0.374999911 0.400000006
vt 0.416666597 0.600000083
vt 0.416666597 0.800000012
vt 0.416666597 1
vt 0.291666627 0.199999988
vt 0.24999994 0
vt 0.333333254 0.400000006
vt 0.374999911 0.600000083
vt 0.374999911 0.800000012
vt 0.374999911 1
vt 0.24999994 0.199999988
vt 0.208333284 0
vt 0.291666627 0.400000006
vt 0.333333254 0.600000083
vt 0.333333254 0.800000012
vt 0.333333254 1
vt 0.208333284 0.199999988
vt 0.166666627 0
vt 0.24999994 0.400000006
vt 0.291666627 0.600000083
vt 0.291666597 0.800000012
vt 0.291666597 1
vt 0.166666627 0.199999988
vt 0.12499997 0
vt 0.208333284 0.400000006
vt 0.24999994 0.600000083
vt 0.24999994 0.800000012
vt 0.24999994 1
vt 0.12499997 0.199999988
vt 0.0833333135 0
vt 0.166666627 0.400000006
vt 0.208333284 0.600000083
vt 0.208333284 0.800000012
vt 0.208333284 1
vt 0.0833333135 0.199999988
vt 0.0416666567 0
vt 0.12499997 0.400000006
vt 0.166666627 0.600000083
vt 0.166666627 0.800000012
vt 0.166666627 1
vt 0.0416666567 0.199999988
vt -5.96046448E-08 0
vt -5.96046448E-08 0.199999988
vt 0.0833333135 0.400000006
vt 0.12499997 0.600000083
vt 0.12499997 0.800000012
vt 0.12499997 1
vt 0.0416666567 0.400000006
vt -5.96046448E-08 0.400000006
vt 0.0833333135 0.600000083
vt 0.0833333135 0.800000012
vt 0.0833333135 1
vt 0.0416666567 0.600000083
vt -5.96046448E-08 0.600000083
vt 0.0416666567 0.800000012
vt 0.0416666567 1
vt -5.96046448E-08 0.800000012
vt -5.96046448E-08 1
vn 0.0123553351 0.0461107567 0.998859882
vn -0 0.0477373637 0.998859882
vn -0 0.0477373563 0.998859882
vn 0.0123553351 0.046110753 0.998859882
vn 0.02386868 0.0413417667 0.998859882
vn -0 0.0477373563 0.998859882
vn 0.0238686781 0.0413417593 0.998859882
vn 0.0337554105 0.0337554067 0.998859882
vn 0.0123553351 0.0461107455 0.998859882
vn -0 0.0477373637 0.998859882
vn 0.0337554105 0.033755403 0.998859882
vn 0.0413417742 0.02386868 0.998859882
vn 0.0238686781 0.0413417667 0.998859882
vn 0.0123553351 0.0461107567 0.998859882
vn -0 0.0477373675 0.998859882
vn 0.0413417667 0.0238686837 0.998859882
vn 0.0461107492 0.0123553406 0.998859882
vn 0.0337554142 0.0337554105 0.998859882
vn 0.0238686781 0.0413417667 0.998859882
vn 0.0123553351 0.0461107567 0.998859882
vn -0 0.0477373637 0.998859882
vn 0.0123553397 0.046110753 0.998859882
vn 0.0238686856 0.041341763 0.998859882
vn 0.02386868 0.0413417742 0.998859882
vn 0.0461107455 0.0123553379 0.998859882
vn 0.0477373563 0 0.998859882
vn 0.0413417667 0.0238686837 0.998859882
vn 0.0337554179 0.0337554105 0.998859882
vn 0.0337554105 0.0337554105 0.998859882
vn 0.0337554179 0.0337554105 0.998859882
vn 0.0477373637 0 0.998859882
vn 0.0461107604 -0.0123553621 0.998859882
vn 0.046110753 0.0123553388 0.998859882
vn 0.0413417667 0.0238686781 0.998859882
vn 0.0413417742 0.0238686856 0.998859882
vn 0.0413417667 0.0238686819 0.998859882
vn 0.0461107567 -0.0123553565 0.998859882
vn 0.0413417555 -0.0238687098 0.998859882
vn 0.0477373675 0 0.998859882
vn 0.0461107567 0.0123553425 0.998859882
vn 0.046110753 0.0123553425 0.998859882
vn 0.046110753 0.0123553425 0.998859882
vn 0.0413417518 -0.0238687079 0.998859882
vn 0.0337553881 -0.0337554403 0.998859882
vn 0.0461107381 -0.0123553602 0.998859882
vn 0.0477373675 0 0.998859882
vn 0.0477373563 0 0.998859882
vn 0.04773736 0 0.998859882
vn 0.0337553918 -0.0337554403 0.998859882
vn 0.0238686446 -0.0413417779 0.998859882
vn 0.0413417555 -0.0238687098 0.998859882
vn 0.0461107418 -0.0123553602 0.998859882
vn 0.0461107418 -0.0123553639 0.998859882
vn 0.0461107455 -0.0123553639 0.998859882
vn 0.0238686521 -0.0413417891 0.998859882
vn 0.0123553192 -0.0461107716 0.998859882
vn 0.0337553881 -0.0337554403 0.998859882
vn 0.0413417444 -0.0238687024 0.998859882
vn 0.0413417444 -0.0238687079 0.998859882
vn 0.0413417593 -0.0238687079 0.998859882
vn 0.0123553174 -0.0461107567 0.998859882
vn -0 -0.0477373637 0.998859882
vn 0.0238686502 -0.0413417853 0.998859882
vn 0.0337553881 -0.0337554328 0.998859882
vn 0.0337553918 -0.0337554365 0.998859882
vn 0.0337553956 -0.0337554328 0.998859882
vn -0 -0.0477373675 0.998859882
vn -0.0123553555 -0.0461107455 0.998859882
vn 0.0123553136 -0.0461107567 0.998859882
vn 0.0238686521 -0.0413417891 0.998859882
vn 0.0238686539 -0.0413417853 0.998859882
vn 0.0238686558 -0.0413417891 0.998859882
vn -0.0123553583 -0.0461107418 0.998859882
vn -0.0238686912 -0.0413417481 0.998859882
vn -0 -0.0477373675 0.998859882
vn 0.0123553155 -0.0461107567 0.998859882
vn 0.0123553155 -0.0461107679 0.998859882
vn 0.0123553118 -0.0461107604 0.998859882
vn -0.023868693 -0.0413417555 0.998859882
vn -0.0337554328 -0.0337553993 0.998859882
vn -0.0123553583 -0.0461107455 0.998859882
vn -0 -0.0477373675 0.998859882
vn -0 -0.0477373675 0.998859882
vn -0 -0.0477373637 0.998859882
vn -0.0337554291 -0.0337553993 0.998859882
vn -0.0413417891 -0.0238686614 0.998859882
vn -0.0238686949 -0.041341763 0.998859882
vn -0.0123553583 -0.0461107455 0.998859882
vn -0.0123553639 -0.046110753 0.998859882
vn -0.012355363 -0.046110753 0.998859882
vn -0.0413417928 -0.0238686614 0.998859882
vn -0.0461107716 -0.0123553229 0.998859882
vn -0.0337554216 -0.0337553956 0.998859882
vn -0.0238686949 -0.0413417593 0.998859882
vn -0.023868693 -0.041341763 0.998859882
vn -0.0238686986 -0.0413417593 0.998859882
vn -0.0461107679 -0.0123553192 0.998859882
vn -0.0477373637 0 0.998859882
vn -0.0413417742 -0.0238686539 0.998859882
vn -0.0337554254 -0.0337553918 0.998859882
vn -0.0337554254 -0.0337553918 0.998859882
vn -0.0337554216 -0.0337553993 0.998859882
vn -0.0477373637 0 0.998859882
vn -0.0461107455 0.0123553555 0.998859882
vn -0.046110753 -0.0123553155 0.998859882
vn -0.0413417742 -0.0238686539 0.998859882
vn -0.0413417853 -0.0238686614 0.998859882
vn -0.0413417853 -0.0238686688 0.998859882
vn -0.0461107455 0.0123553518 0.998859882
vn -0.0413417779 0.0238687005 0.998859882
vn -0.0477373637 0 0.998859882
vn -0.0461107567 -0.0123553229 0.998859882
vn -0.046110753 -0.0123553229 0.998859882
vn -0.0461107604 -0.0123553211 0.998859882
vn -0.0413417555 0.0238686912 0.998859882
vn -0.0337554067 0.0337554105 0.998859882
vn -0.0461107455 0.0123553518 0.998859882
vn -0.0477373563 0 0.998859882
vn -0.0477373563 0 0.998859882
vn -0.0477373637 0 0.998859882
vn -0.0337553956 0.0337554142 0.998859882
vn -0.023868667 0.0413417593 0.998859882
vn -0.0413417555 0.0238686949 0.998859882
vn -0.046110753 0.0123553555 0.998859882
vn -0.046110753 0.0123553518 0.998859882
vn -0.0461107455 0.0123553509 0.998859882
vn -0.0238686744 0.041341763 0.998859882
vn -0.0123553239 0.0461107381 0.998859882
vn -0.0337553993 0.0337554142 0.998859882
vn -0.0413417593 0.0238686949 0.998859882
vn -0.041341763 0.0238686949 0.998859882
vn -0.041341763 0.0238687005 0.998859882
vn -0.0123553313 0.046110753 0.998859882
vn -0 0.0477373563 0.998859882
vn -0 0.0477373637 0.998859882
vn -0.0238686763 0.0413417742 0.998859882
vn -0.033755403 0.0337554216 0.998859882
vn -0.0337554067 0.0337554216 0.998859882
vn -0.0337554142 0.0337554254 0.998859882
vn -0.0123553313 0.0461107567 0.998859882
vn -0 0.0477373563 0.998859882
vn -0.0238686763 0.041341763 0.998859882
vn -0.0238686763 0.0413417742 0.998859882
vn -0.0238686781 0.0413417742 0.998859882
vn -0.0123553313 0.046110753 0.998859882
vn -0 0.0477373637 0.998859882
vn -0.0123553313 0.046110753 0.998859882
vn -0.0123553304 0.0461107604 0.998859882
vn -0 0.0477373675 0.998859882
vn -0 0.0477373637 0.998859882
g Cone001_0
f 3/3/3 2/2/2 1/1/1
f 2/2/2 4/4/4 1/1/1
f 1/1/1 4/4/4 5/5/5
f 2/2/2 6/6/6 4/4/4
f 4/4/4 7/7/7 5/5/5
f 5/5/5 7/7/7 8/8/8
f 6/6/6 9/9/9 4/4/4
f 4/4/4 9/9/9 7/7/7
f 6/6/6 10/10/10 9/9/9
f 7/7/7 11/11/11 8/8/8
f 8/8/8 11/11/11 12/12/12
f 9/9/9 13/13/13 7/7/7
f 7/7/7 13/13/13 11/11/11
f 10/10/10 14/14/14 9/9/9
f 9/9/9 14/14/14 13/13/13
f 10/10/10 15/15/15 14/14/14
f 11/11/11 16/16/16 12/12/12
f 12/12/12 16/16/16 17/17/17
f 13/13/13 18/18/18 11/11/11
f 11/11/11 18/18/18 16/16/16
f 14/14/14 19/19/19 13/13/13
f 13/13/13 19/19/19 18/18/18
f 15/15/15 20/20/20 14/14/14
f 14/14/14 20/20/20 19/19/19
f 15/15/15 21/21/21 20/20/20
f 21/21/21 22/22/22 20/20/20
f 20/20/20 22/22/22 23/23/23
f 20/20/20 23/23/23 19/19/19
f 22/22/22 24/24/24 23/23/23
f 16/16/16 25/25/25 17/17/17
f 17/17/17 25/25/25 26/26/26
f 18/18/18 27/27/27 16/16/16
f 16/16/16 27/27/27 25/25/25
f 19/19/19 28/28/28 18/18/18
f 19/19/19 23/23/23 28/28/28
f 18/18/18 28/28/28 27/27/27
f 23/23/23 24/24/24 29/29/29
f 23/23/23 29/29/29 28/28/28
f 24/24/24 30/30/30 29/29/29
f 25/25/25 31/31/31 26/26/26
f 26/26/26 31/31/31 32/32/32
f 27/27/27 33/33/33 25/25/25
f 25/25/25 33/33/33 31/31/31
f 28/28/28 34/34/34 27/27/27
f 28/28/28 29/29/29 34/34/34
f 27/27/27 34/34/34 33/33/33
f 29/29/29 30/30/30 35/35/35
f 29/29/29 35/35/35 34/34/34
f 30/30/30 36/36/36 35/35/35
f 31/31/31 37/37/37 32/32/32
f 32/32/32 37/37/37 38/38/38
f 33/33/33 39/39/39 31/31/31
f 31/31/31 39/39/39 37/37/37
f 34/34/34 40/40/40 33/33/33
f 34/34/34 35/35/35 40/40/40
f 33/33/33 40/40/40 39/39/39
f 35/35/35 36/36/36 41/41/41
f 35/35/35 41/41/41 40/40/40
f 36/36/36 42/42/42 41/41/41
f 37/37/37 43/43/43 38/38/38
f 38/38/38 43/43/43 44/44/44
f 39/39/39 45/45/45 37/37/37
f 37/37/37 45/45/45 43/43/43
f 40/40/40 46/46/46 39/39/39
f 40/40/40 41/41/41 46/46/46
f 39/39/39 46/46/46 45/45/45
f 41/41/41 42/42/42 47/47/47
f 41/41/41 47/47/47 46/46/46
f 42/42/42 48/48/48 47/47/47
f 43/43/43 49/49/49 44/44/44
f 44/44/44 49/49/49 50/50/50
f 45/45/45 51/51/51 43/43/43
f 43/43/43 51/51/51 49/49/49
f 46/46/46 52/52/52 45/45/45
f 46/46/46 47/47/47 52/52/52
f 45/45/45 52/52/52 51/51/51
f 47/47/47 48/48/48 53/53/53
f 47/47/47 53/53/53 52/52/52
f 48/48/48 54/54/54 53/53/53
f 49/49/49 55/55/55 50/50/50
f 50/50/50 55/55/55 56/56/56
f 51/51/51 57/57/57 49/49/49
f 49/49/49 57/57/57 55/55/55
f 52/52/52 58/58/58 51/51/51
f 52/52/52 53/53/53 58/58/58
f 51/51/51 58/58/58 57/57/57
f 53/53/53 54/54/54 59/59/59
f 53/53/53 59/59/59 58/58/58
f 54/54/54 60/60/60 59/59/59
f 55/55/55 61/61/61 56/56/56
f 56/56/56 61/61/61 62/62/62
f 57/57/57 63/63/63 55/55/55
f 55/55/55 63/63/63 61/61/61
f 58/58/58 64/64/64 57/57/57
f 58/58/58 59/59/59 64/64/64
f 57/57/57 64/64/64 63/63/63
f 59/59/59 60/60/60 65/65/65
f 59/59/59 65/65/65 64/64/64
f 60/60/60 66/66/66 65/65/65
f 61/61/61 67/67/67 62/62/62
f 62/62/62 67/67/67 68/68/68
f 63/63/63 69/69/69 61/61/61
f 61/61/61 69/69/69 67/67/67
f 64/64/64 70/70/70 63/63/63
f 64/64/64 65/65/65 70/70/70
f 63/63/63 70/70/70 69/69/69
f 65/65/65 66/66/66 71/71/71
f 65/65/65 71/71/71 70/70/70
f 66/66/66 72/72/72 71/71/71
f 67/67/67 73/73/73 68/68/68
f 68/68/68 73/73/73 74/74/74
f 69/69/69 75/75/75 67/67/67
f 67/67/67 75/75/75 73/73/73
f 70/70/70 76/76/76 69/69/69
f 70/70/70 71/71/71 76/76/76
f 69/69/69 76/76/76 75/75/75
f 71/71/71 72/72/72 77/77/77
f 71/71/71 77/77/77 76/76/76
f 72/72/72 78/78/78 77/77/77
f 73/73/73 79/79/79 74/74/74
f 74/74/74 79/79/79 80/80/80
f 75/75/75 81/81/81 73/73/73
f 73/73/73 81/81/81 79/79/79
f 76/76/76 82/82/82 75/75/75
f 76/76/76 77/77/77 82/82/82
f 75/75/75 82/82/82 81/81/81
f 77/77/77 78/78/78 83/83/83
f 77/77/77 83/83/83 82/82/82
f 78/78/78 84/84/84 83/83/83
f 79/79/79 85/85/85 80/80/80
f 80/80/80 85/85/85 86/86/86
f 81/81/81 87/87/87 79/79/79
f 79/79/79 87/87/87 85/85/85
f 82/82/82 88/88/88 81/81/81
f 82/82/82 83/83/83 88/88/88
f 81/81/81 88/88/88 87/87/87
f 83/83/83 84/84/84 89/89/89
f 83/83/83 89/89/89 88/88/88
f 84/84/84 90/90/90 89/89/89
f 85/85/85 91/91/91 86/86/86
f 86/86/86 91/91/91 92/92/92
f 87/87/87 93/93/93 85/85/85
f 85/85/85 93/93/93 91/91/91
f 88/88/88 94/94/94 87/87/87
f 88/88/88 89/89/89 94/94/94
f 87/87/87 94/94/94 93/93/93
f 89/89/89 90/90/90 95/95/95
f 89/89/89 95/95/95 94/94/94
f 90/90/90 96/96/96 95/95/95
f 91/91/91 97/97/97 92/92/92
f 92/92/92 97/97/97 98/98/98
f 93/93/93 99/99/99 91/91/91
f 91/91/91 99/99/99 97/97/97
f 94/94/94 100/100/100 93/93/93
f 94/94/94 95/95/95 100/100/100
f 93/93/93 100/100/100 99/99/99
f 95/95/95 96/96/96 101/101/101
f 95/95/95 101/101/101 100/100/100
f 96/96/96 102/102/102 101/101/101
f 97/97/97 103/103/103 98/98/98
f 98/98/98 103/103/103 104/104/104
f 99/99/99 105/105/105 97/97/97
f 97/97/97 105/105/105 103/103/103
f 100/100/100 106/106/106 99/99/99
f 100/100/100 101/101/101 106/106/106
f 99/99/99 106/106/106 105/105/105
f 101/101/101 102/102/102 107/107/107
f 101/101/101 107/107/107 106/106/106
f 102/102/102 108/108/108 107/107/107
f 103/103/103 109/109/109 104/104/104
f 104/104/104 109/109/109 110/110/110
f 105/105/105 111/111/111 103/103/103
f 103/103/103 111/111/111 109/109/109
f 106/106/106 112/112/112 105/105/105
f 106/106/106 107/107/107 112/112/112
f 105/105/105 112/112/112 111/111/111
f 107/107/107 108/108/108 113/113/113
f 107/107/107 113/113/113 112/112/112
f 108/108/108 114/114/114 113/113/113
f 109/109/109 115/115/115 110/110/110
f 110/110/110 115/115/115 116/116/116
f 111/111/111 117/117/117 109/109/109
f 109/109/109 117/117/117 115/115/115
f 112/112/112 118/118/118 111/111/111
f 112/112/112 113/113/113 118/118/118
f 111/111/111 118/118/118 117/117/117
f 113/113/113 114/114/114 119/119/119
f 113/113/113 119/119/119 118/118/118
f 114/114/114 120/120/120 119/119/119
f 115/115/115 121/121/121 116/116/116
f 116/116/116 121/121/121 122/122/122
f 117/117/117 123/123/123 115/115/115
f 115/115/115 123/123/123 121/121/121
f 118/118/118 124/124/124 117/117/117
f 118/118/118 119/119/119 124/124/124
f 117/117/117 124/124/124 123/123/123
f 119/119/119 120/120/120 125/125/125
f 119/119/119 125/125/125 124/124/124
f 120/120/120 126/126/126 125/125/125
f 121/121/121 127/127/127 122/122/122
f 122/122/122 127/127/127 128/128/128
f 123/123/123 129/129/129 121/121/121
f 121/121/121 129/129/129 127/127/127
f 124/124/124 130/130/130 123/123/123
f 124/124/124 125/125/125 130/130/130
f 123/123/123 130/130/130 129/129/129
f 125/125/125 126/126/126 131/131/131
f 125/125/125 131/131/131 130/130/130
f 126/126/126 132/132/132 131/131/131
f 127/127/127 133/133/133 128/128/128
f 128/128/128 133/133/133 134/134/134
f 133/133/133 135/135/135 134/134/134
f 129/129/129 136/136/136 127/127/127
f 127/127/127 136/136/136 133/133/133
f 130/130/130 137/137/137 129/129/129
f 130/130/130 131/131/131 137/137/137
f 129/129/129 137/137/137 136/136/136
f 131/131/131 132/132/132 138/138/138
f 131/131/131 138/138/138 137/137/137
f 132/132/132 139/139/139 138/138/138
f 133/133/133 140/140/140 135/135/135
f 136/136/136 140/140/140 133/133/133
f 140/140/140 141/141/141 135/135/135
f 137/137/137 142/142/142 136/136/136
f 137/137/137 138/138/138 142/142/142
f 136/136/136 142/142/142 140/140/140
f 138/138/138 139/139/139 143/143/143
f 138/138/138 143/143/143 142/142/142
f 139/139/139 144/144/144 143/143/143
f 140/140/140 145/145/145 141/141/141
f 142/142/142 145/145/145 140/140/140
f 142/142/142 143/143/143 145/145/145
f 145/145/145 146/146/146 141/141/141
f 143/143/143 144/144/144 147/147/147
f 143/143/143 147/147/147 145/145/145
f 145/145/145 147/147/147 146/146/146
f 144/144/144 148/148/148 147/147/147
f 147/147/147 149/149/149 146/146/146
f 147/147/147 148/148/148 149/149/149
f 148/148/148 150/150/150 149/149/149
