g Plane010
v -1.39080226 -0.138394862 0
v -1.39080226 0.317486256 0
v -1.35096633 0.284859002 0
v -1.35096633 -0.170380726 0
v -1.3111304 0.255772591 0
v -1.3111304 -0.197579458 0
v -1.27129447 0.230035618 0
v -1.27129447 -0.220237553 0
v -1.23145854 0.207456663 0
v -1.23145854 -0.238601372 0
v -1.19162261 0.187844276 0
v -1.19162261 -0.252917409 0
v -1.15178657 0.171007007 0
v -1.15178657 -0.263432145 0
v -1.11195076 0.156753346 0
v -1.11195076 -0.270391911 0
v -1.07211483 0.144892007 0
v -1.07211483 -0.274043173 0
v -1.0322789 0.135231346 0
v -1.0322789 -0.274632365 0
v -0.992442906 0.127580091 0
v -0.992442906 -0.272405982 0
v -0.952606976 0.121746756 0
v -0.952606976 -0.267610401 0
v -0.912771046 0.11753989 0
v -0.912771046 -0.260492086 0
v -0.872935057 0.114768021 0
v -0.872935057 -0.251297444 0
v -0.833099127 0.113239698 0
v -0.833099127 -0.24027288 0
v -0.793263316 0.112763517 0
v -0.793263316 -0.227664948 0
v -0.753427267 0.113148056 0
v -0.753427267 -0.213720024 0
v -0.713591397 0.114201777 0
v -0.713591397 -0.198684454 0
v -0.673755467 0.11573334 0
v -0.673755467 -0.182804823 0
v -0.633919656 0.11755123 0
v -0.633919656 -0.166327491 0
v -0.594083607 0.119464047 0
v -0.594083607 -0.149498865 0
v -0.554247677 0.121280335 0
v -0.554247677 -0.132565424 0
v -0.514411747 0.122808635 0
v -0.514411747 -0.115773603 0
v -0.474575907 0.123857528 0
v -0.474575907 -0.099369809 0
v -0.434739888 0.124235585 0
v -0.434739888 -0.0836004689 0
v -0.394904047 0.123751335 0
v -0.394904047 -0.0687120855 0
v -0.355067998 0.122213349 0
v -0.355067998 -0.0549510531 0
v -0.315231979 0.119430162 0
v -0.315231979 -0.0425637774 0
v -0.275396228 0.115210332 0
v -0.275396228 -0.0317967646 0
v -0.235560179 0.109362438 0
v -0.235560179 -0.0228963736 0
v -0.195724338 0.101695023 0
v -0.195724338 -0.0161091182 0
v -0.155888394 0.0920166671 0
v -0.155888394 -0.0116813723 0
v -0.116052456 0.0801359043 0
v -0.116052456 -0.00985959638 0
v -0.0762165189 0.0658612624 0
v -0.0762165189 -0.0108902147 0
v -0.0363805778 0.0490013584 0
v -0.0363805778 -0.0150196739 0
v 0.00345536065 0.0293647293 0
v 0.00345536065 -0.0224944241 0
vt 0 0
vt 0 1
vt 0.0285714287 1
vt 0.0285714287 0
vt 0.0571428575 1
vt 0.0571428575 0
vt 0.0857142881 1
vt 0.0857142881 0
vt 0.114285715 1
vt 0.114285715 0
vt 0.142857149 1
vt 0.142857149 0
vt 0.171428576 1
vt 0.171428576 0
vt 0.200000003 1
vt 0.200000003 0
vt 0.22857143 1
vt 0.22857143 0
vt 0.257142872 1
vt 0.257142872 0
vt 0.285714298 1
vt 0.285714298 0
vt 0.314285725 1
vt 0.314285725 0
vt 0.342857152 1
vt 0.342857152 0
vt 0.371428579 1
vt 0.371428579 0
vt 0.400000006 1
vt 0.400000006 0
vt 0.428571433 1
vt 0.428571433 0
vt 0.45714286 1
vt 0.45714286 0
vt 0.485714287 1
vt 0.485714287 0
vt 0.514285743 1
vt 0.514285743 0
vt 0.54285717 1
vt 0.54285717 0
vt 0.571428597 1
vt 0.571428597 0
vt 0.600000024 1
vt 0.600000024 0
vt 0.628571451 1
vt 0.628571451 0
vt 0.657142878 1
vt 0.657142878 0
vt 0.685714304 1
vt 0.685714304 0
vt 0.714285731 1
vt 0.714285731 0
vt 0.742857158 1
vt 0.742857158 0
vt 0.771428585 1
vt 0.771428585 0
vt 0.800000012 1
vt 0.800000012 0
vt 0.828571439 1
vt 0.828571439 0
vt 0.857142866 1
vt 0.857142866 0
vt 0.885714293 1
vt 0.885714293 0
vt 0.914285719 1
vt 0.914285719 0
vt 0.942857146 1
vt 0.942857146 0
vt 0.971428573 1
vt 0.971428573 0
vt 1 1
vt 1 0
vn -0 0 1
vn -0 0 1
vn -0 0 1
vn -0 0 1
vn -0 0 1
vn -0 0 1
vn -0 0 1
vn -0 0 1
vn -0 0 1
vn -0 0 1
vn -0 0 1
vn -0 0 1
vn -0 0 1
vn -0 0 1
vn -0 0 1
vn -0 0 1
vn -0 0 1
vn -0 0 1
vn -0 0 1
vn -0 0 1
vn -0 0 1
vn -0 0 1
vn -0 0 1
vn -0 0 1
vn -0 0 1
vn -0 0 1
vn -0 0 1
vn -0 0 1
vn -0 0 1
vn -0 0 1
vn -0 0 1
vn -0 0 1
vn -0 0 1
vn -0 0 1
vn -0 0 1
vn -0 0 1
vn -0 0 1
vn -0 0 1
vn -0 0 1
vn -0 0 1
vn -0 0 1
vn -0 0 1
vn -0 0 1
vn -0 0 1
vn -0 0 1
vn -0 0 1
vn -0 0 1
vn -0 0 1
vn -0 0 1
vn -0 0 1
vn -0 0 1
vn -0 0 1
vn -0 0 1
vn -0 0 1
vn -0 0 1
vn -0 0 1
vn -0 0 1
vn -0 0 1
vn -0 0 1
vn -0 0 1
vn -0 0 1
vn -0 0 1
vn -0 0 1
vn -0 0 1
vn -0 0 1
vn -0 0 1
vn -0 0 1
vn -0 0 1
vn -0 0 1
vn -0 0 1
vn -0 0 1
vn -0 0 1
g Plane010_0
f 3/3/3 2/2/2 1/1/1
f 4/4/4 3/3/3 1/1/1
f 5/5/5 3/3/3 4/4/4
f 6/6/6 5/5/5 4/4/4
f 7/7/7 5/5/5 6/6/6
f 8/8/8 7/7/7 6/6/6
f 9/9/9 7/7/7 8/8/8
f 10/10/10 9/9/9 8/8/8
f 11/11/11 9/9/9 10/10/10
f 12/12/12 11/11/11 10/10/10
f 13/13/13 11/11/11 12/12/12
f 14/14/14 13/13/13 12/12/12
f 15/15/15 13/13/13 14/14/14
f 16/16/16 15/15/15 14/14/14
f 17/17/17 15/15/15 16/16/16
f 18/18/18 17/17/17 16/16/16
f 19/19/19 17/17/17 18/18/18
f 20/20/20 19/19/19 18/18/18
f 21/21/21 19/19/19 20/20/20
f 22/22/22 21/21/21 20/20/20
f 23/23/23 21/21/21 22/22/22
f 24/24/24 23/23/23 22/22/22
f 25/25/25 23/23/23 24/24/24
f 26/26/26 25/25/25 24/24/24
f 27/27/27 25/25/25 26/26/26
f 28/28/28 27/27/27 26/26/26
f 29/29/29 27/27/27 28/28/28
f 30/30/30 29/29/29 28/28/28
f 31/31/31 29/29/29 30/30/30
f 32/32/32 31/31/31 30/30/30
f 33/33/33 31/31/31 32/32/32
f 34/34/34 33/33/33 32/32/32
f 35/35/35 33/33/33 34/34/34
f 36/36/36 35/35/35 34/34/34
f 37/37/37 35/35/35 36/36/36
f 38/38/38 37/37/37 36/36/36
f 39/39/39 37/37/37 38/38/38
f 40/40/40 39/39/39 38/38/38
f 41/41/41 39/39/39 40/40/40
f 42/42/42 41/41/41 40/40/40
f 43/43/43 41/41/41 42/42/42
f 44/44/44 43/43/43 42/42/42
f 45/45/45 43/43/43 44/44/44
f 46/46/46 45/45/45 44/44/44
f 47/47/47 45/45/45 46/46/46
f 48/48/48 47/47/47 46/46/46
f 49/49/49 47/47/47 48/48/48
f 50/50/50 49/49/49 48/48/48
f 51/51/51 49/49/49 50/50/50
f 52/52/52 51/51/51 50/50/50
f 53/53/53 51/51/51 52/52/52
f 54/54/54 53/53/53 52/52/52
f 55/55/55 53/53/53 54/54/54
f 56/56/56 55/55/55 54/54/54
f 57/57/57 55/55/55 56/56/56
f 58/58/58 57/57/57 56/56/56
f 59/59/59 57/57/57 58/58/58
f 60/60/60 59/59/59 58/58/58
f 61/61/61 59/59/59 60/60/60
f 62/62/62 61/61/61 60/60/60
f 63/63/63 61/61/61 62/62/62
f 64/64/64 63/63/63 62/62/62
f 65/65/65 63/63/63 64/64/64
f 66/66/66 65/65/65 64/64/64
f 67/67/67 65/65/65 66/66/66
f 68/68/68 67/67/67 66/66/66
f 69/69/69 67/67/67 68/68/68
f 70/70/70 69/69/69 68/68/68
f 71/71/71 69/69/69 70/70/70
f 72/72/72 71/71/71 70/70/70
