g Plane002
v -0.96407187 0.202266559 -4.9425222E-07
v -1.02369213 0.343436152 -4.87873592E-07
v -1.04521632 0.191767588 -5.00000056E-07
v -0.939315259 0.348273277 -4.82882172E-07
v -0.880957544 0.211641923 -4.88268029E-07
v -1.00166881 0.498622209 -4.75212971E-07
v -0.852384448 0.351397663 -4.77649792E-07
v -0.79776001 0.219596609 -4.82156338E-07
v -0.914058208 0.497230917 -4.71061895E-07
v -0.979146183 0.657325804 -4.62018164E-07
v -0.888300836 0.649139464 -4.58791391E-07
v -0.82331109 0.493600845 -4.66654626E-07
v -0.793737233 0.638251483 -4.5528256E-07
v -0.764760733 0.352414995 -4.72301878E-07
v -0.716358244 0.225911915 -4.76032E-07
v -0.731263041 0.487240344 -4.62133784E-07
v -0.697266459 0.624072492 -4.51652085E-07
v -0.678268909 0.350959241 -4.66968203E-07
v -0.638537288 0.23046957 -4.70005091E-07
v -0.639683783 0.477635294 -4.57644376E-07
v -0.600602388 0.605940044 -4.48060547E-07
v -0.594629169 0.346688271 -4.61776239E-07
v -0.565844834 0.233262822 -4.64169887E-07
v -0.550225556 0.464218467 -4.53331552E-07
v -0.50532645 0.583060205 -4.44670974E-07
v -0.515348136 0.339255631 -4.56845811E-07
v -0.49933365 0.234340906 -4.58593661E-07
v -0.464349985 0.446301371 -4.49340774E-07
v -0.412850231 0.554399967 -4.4165472E-07
v -0.441549152 0.328212291 -4.52286031E-07
v -0.405272216 0.21105054 -4.53861219E-07
v -0.383242935 0.422931254 -4.45823105E-07
v -0.324415088 0.518497705 -4.39204911E-07
v -0.345591992 0.294640988 -4.48613207E-07
v -0.307734966 0.183123678 -4.50634644E-07
v -0.285395175 0.378954947 -4.43225531E-07
v -0.22468175 0.463992506 -4.37698247E-07
v -0.249336377 0.257851452 -4.46551809E-07
v -0.224659204 0.162864968 -4.48063446E-07
v -0.190415829 0.333247095 -4.42335221E-07
v -0.130973369 0.409310639 -4.3798488E-07
v -0.167280421 0.227761433 -4.45381488E-07
v -0.146463081 0.142632708 -4.45629922E-07
v -0.109324656 0.293310523 -4.42563135E-07
v -0.0507919341 0.35951212 -4.39608357E-07
v -0.0910372213 0.197604313 -4.44500984E-07
v -0.0650058016 0.115203328 -4.42866764E-07
v -0.0135205472 0.161374345 -4.43264327E-07
v -0.0349302702 0.253251374 -4.43224366E-07
v 0.0218577217 0.309573919 -4.41800154E-07
v 0.0387927666 0.208287939 -4.43493121E-07
v 0.0919340551 0.255944043 -4.43553205E-07
v -1.02369213 -0.343436152 -3.81246338E-07
v -0.96407187 -0.202266559 -3.87624965E-07
v -1.04521632 -0.191767588 -3.93372773E-07
v -0.939315259 -0.348273277 -3.76254917E-07
v -1.00166881 -0.498622239 -3.68585745E-07
v -0.880957544 -0.211641937 -3.81640774E-07
v -0.914058208 -0.497230947 -3.64434612E-07
v -0.979146183 -0.657325745 -3.5539091E-07
v -0.888300836 -0.649139345 -3.52164164E-07
v -0.852384448 -0.351397663 -3.71022537E-07
v -0.79776001 -0.219596654 -3.75529055E-07
v -0.82331109 -0.493600875 -3.60027371E-07
v -0.793737233 -0.638251483 -3.48655306E-07
v -0.764760733 -0.352414966 -3.65674623E-07
v -0.716358244 -0.22591196 -3.69404717E-07
v -0.731263041 -0.487240344 -3.55506558E-07
v -0.697266459 -0.624072552 -3.4502483E-07
v -0.678268909 -0.350959271 -3.60340948E-07
v -0.638537288 -0.230469599 -3.63377865E-07
v -0.639683783 -0.477635294 -3.5101715E-07
v -0.600602388 -0.605940044 -3.41433292E-07
v -0.594629169 -0.346688271 -3.55148984E-07
v -0.565844834 -0.233262807 -3.57542632E-07
v -0.550225556 -0.464218467 -3.46704269E-07
v -0.50532645 -0.583060205 -3.38043748E-07
v -0.515348136 -0.339255631 -3.50218556E-07
v -0.49933365 -0.234340906 -3.51966435E-07
v -0.464349985 -0.446301371 -3.42713491E-07
v -0.412850231 -0.554399967 -3.35027494E-07
v -0.441549152 -0.328212291 -3.45658748E-07
v -0.405272216 -0.21105051 -3.47233936E-07
v -0.383242935 -0.422931254 -3.3919585E-07
v -0.324415088 -0.518497705 -3.32577656E-07
v -0.345591992 -0.294640988 -3.41985924E-07
v -0.307734966 -0.183123678 -3.44007361E-07
v -0.285395175 -0.378954947 -3.36598276E-07
v -0.22468175 -0.463992506 -3.31070964E-07
v -0.249336377 -0.257851422 -3.39924554E-07
v -0.224659204 -0.162864968 -3.41436191E-07
v -0.190415829 -0.333247095 -3.35707966E-07
v -0.130973369 -0.409310639 -3.31357597E-07
v -0.167280421 -0.227761477 -3.38754234E-07
v -0.146463081 -0.142632678 -3.39002668E-07
v -0.109324656 -0.293310493 -3.35935852E-07
v -0.0507919341 -0.35951212 -3.32981102E-07
v -0.0910372213 -0.197604313 -3.37873701E-07
v -0.0650058016 -0.115203328 -3.36239538E-07
v -0.0135205472 -0.161374375 -3.36637044E-07
v -0.0349302702 -0.253251374 -3.36597111E-07
v 0.0218577217 -0.309573919 -3.35172899E-07
v 0.0387927666 -0.20828791 -3.36865867E-07
v 0.0919340551 -0.255944014 -3.36925979E-07
vt 0.916666567 0
vt 0.999999881 0.333333343
vt 0.999999881 0
vt 0.916666567 0.333333343
vt 0.833333254 0
vt 0.999999881 0.666666687
vt 0.833333254 0.333333343
vt 0.74999994 0
vt 0.916666567 0.666666687
vt 0.999999881 1
vt 0.916666567 1
vt 0.833333254 0.666666687
vt 0.833333254 1
vt 0.74999994 0.333333343
vt 0.666666627 0
vt 0.74999994 0.666666687
vt 0.74999994 1
vt 0.666666627 0.333333343
vt 0.583333313 0
vt 0.666666627 0.666666687
vt 0.666666627 1
vt 0.583333313 0.333333343
vt 0.5 0
vt 0.583333313 0.666666687
vt 0.583333313 1
vt 0.5 0.333333343
vt 0.416666687 0
vt 0.5 0.666666687
vt 0.5 1
vt 0.416666687 0.333333343
vt 0.333333343 0
vt 0.416666687 0.666666687
vt 0.416666687 1
vt 0.333333343 0.333333343
vt 0.25 0
vt 0.333333343 0.666666687
vt 0.333333343 1
vt 0.25 0.333333343
vt 0.166666672 0
vt 0.25 0.666666687
vt 0.25 1
vt 0.166666672 0.333333343
vt 0.0833333358 0
vt 0.166666672 0.666666687
vt 0.166666672 1
vt 0.0833333358 0.333333343
vt 0 0
vt 0 0.333333343
vt 0.0833333358 0.666666687
vt 0.0833333358 1
vt 0 0.666666687
vt 0 1
vt 0.999999881 0.333333343
vt 0.916666567 0
vt 0.999999881 0
vt 0.916666567 0.333333343
vt 0.999999881 0.666666687
vt 0.833333254 0
vt 0.916666567 0.666666687
vt 0.999999881 1
vt 0.916666567 1
vt 0.833333254 0.333333343
vt 0.74999994 0
vt 0.833333254 0.666666687
vt 0.833333254 1
vt 0.74999994 0.333333343
vt 0.666666627 0
vt 0.74999994 0.666666687
vt 0.74999994 1
vt 0.666666627 0.333333343
vt 0.583333313 0
vt 0.666666627 0.666666687
vt 0.666666627 1
vt 0.583333313 0.333333343
vt 0.5 0
vt 0.583333313 0.666666687
vt 0.583333313 1
vt 0.5 0.333333343
vt 0.416666687 0
vt 0.5 0.666666687
vt 0.5 1
vt 0.416666687 0.333333343
vt 0.333333343 0
vt 0.416666687 0.666666687
vt 0.416666687 1
vt 0.333333343 0.333333343
vt 0.25 0
vt 0.333333343 0.666666687
vt 0.333333343 1
vt 0.25 0.333333343
vt 0.166666672 0
vt 0.25 0.666666687
vt 0.25 1
vt 0.166666672 0.333333343
vt 0.0833333358 0
vt 0.166666672 0.666666687
vt 0.166666672 1
vt 0.0833333358 0.333333343
vt 0 0
vt 0 0.333333343
vt 0.0833333358 0.666666687
vt 0.0833333358 1
vt 0 0.666666687
vt 0 1
vn -0 0 -1
vn -0 0 -1
vn -0 0 -1
vn -0 0 -1
vn -0 0 -1
vn -0 0 -1
vn -0 0 -1
vn -0 0 -1
vn -0 0 -1
vn -0 0 -1
vn -0 0 -1
vn -0 0 -1
vn -0 0 -1
vn -0 0 -1
vn -0 0 -1
vn -0 0 -1
vn -0 0 -1
vn -0 0 -1
vn -0 0 -1
vn -0 0 -1
vn -0 0 -1
vn -0 0 -1
vn -0 0 -1
vn -0 0 -1
vn -0 0 -1
vn -0 0 -1
vn -0 0 -1
vn -0 0 -1
vn -0 0 -1
vn -0 0 -1
vn -0 0 -1
vn -0 0 -1
vn -0 0 -1
vn -0 0 -1
vn -0 0 -1
vn -0 0 -1
vn -0 0 -1
vn -0 0 -1
vn -0 0 -1
vn -0 0 -1
vn -0 0 -1
vn -0 0 -1
vn -0 0 -1
vn -0 0 -1
vn -0 0 -1
vn -0 0 -1
vn -0 0 -1
vn -0 0 -1
vn -0 0 -1
vn -0 0 -1
vn -0 0 -1
vn -0 0 -1
vn -0 0 -1
vn -0 0 -1
vn -0 0 -1
vn -0 0 -1
vn -0 0 -1
vn -0 0 -1
vn -0 0 -1
vn -0 0 -1
vn -0 0 -1
vn -0 0 -1
vn -0 0 -1
vn -0 0 -1
vn -0 0 -1
vn -0 0 -1
vn -0 0 -1
vn -0 0 -1
vn -0 0 -1
vn -0 0 -1
vn -0 0 -1
vn -0 0 -1
vn -0 0 -1
vn -0 0 -1
vn -0 0 -1
vn -0 0 -1
vn -0 0 -1
vn -0 0 -1
vn -0 0 -1
vn -0 0 -1
vn -0 0 -1
vn -0 0 -1
vn -0 0 -1
vn -0 0 -1
vn -0 0 -1
vn -0 0 -1
vn -0 0 -1
vn -0 0 -1
vn -0 0 -1
vn -0 0 -1
vn -0 0 -1
vn -0 0 -1
vn -0 0 -1
vn -0 0 -1
vn -0 0 -1
vn -0 0 -1
vn -0 0 -1
vn -0 0 -1
vn -0 0 -1
vn -0 0 -1
vn -0 0 -1
vn -0 0 -1
vn -0 0 -1
vn -0 0 -1
g Plane002_0
f 3/3/3 2/2/2 1/1/1
f 2/2/2 4/4/4 1/1/1
f 1/1/1 4/4/4 5/5/5
f 2/2/2 6/6/6 4/4/4
f 4/4/4 7/7/7 5/5/5
f 5/5/5 7/7/7 8/8/8
f 6/6/6 9/9/9 4/4/4
f 4/4/4 9/9/9 7/7/7
f 6/6/6 10/10/10 9/9/9
f 10/10/10 11/11/11 9/9/9
f 9/9/9 11/11/11 12/12/12
f 9/9/9 12/12/12 7/7/7
f 11/11/11 13/13/13 12/12/12
f 7/7/7 14/14/14 8/8/8
f 7/7/7 12/12/12 14/14/14
f 8/8/8 14/14/14 15/15/15
f 12/12/12 13/13/13 16/16/16
f 12/12/12 16/16/16 14/14/14
f 13/13/13 17/17/17 16/16/16
f 14/14/14 18/18/18 15/15/15
f 14/14/14 16/16/16 18/18/18
f 15/15/15 18/18/18 19/19/19
f 16/16/16 17/17/17 20/20/20
f 16/16/16 20/20/20 18/18/18
f 17/17/17 21/21/21 20/20/20
f 18/18/18 22/22/22 19/19/19
f 18/18/18 20/20/20 22/22/22
f 19/19/19 22/22/22 23/23/23
f 20/20/20 21/21/21 24/24/24
f 20/20/20 24/24/24 22/22/22
f 21/21/21 25/25/25 24/24/24
f 22/22/22 26/26/26 23/23/23
f 22/22/22 24/24/24 26/26/26
f 23/23/23 26/26/26 27/27/27
f 24/24/24 25/25/25 28/28/28
f 24/24/24 28/28/28 26/26/26
f 25/25/25 29/29/29 28/28/28
f 26/26/26 30/30/30 27/27/27
f 26/26/26 28/28/28 30/30/30
f 27/27/27 30/30/30 31/31/31
f 28/28/28 29/29/29 32/32/32
f 28/28/28 32/32/32 30/30/30
f 29/29/29 33/33/33 32/32/32
f 30/30/30 34/34/34 31/31/31
f 30/30/30 32/32/32 34/34/34
f 31/31/31 34/34/34 35/35/35
f 32/32/32 33/33/33 36/36/36
f 32/32/32 36/36/36 34/34/34
f 33/33/33 37/37/37 36/36/36
f 34/34/34 38/38/38 35/35/35
f 34/34/34 36/36/36 38/38/38
f 35/35/35 38/38/38 39/39/39
f 36/36/36 37/37/37 40/40/40
f 36/36/36 40/40/40 38/38/38
f 37/37/37 41/41/41 40/40/40
f 38/38/38 42/42/42 39/39/39
f 38/38/38 40/40/40 42/42/42
f 39/39/39 42/42/42 43/43/43
f 40/40/40 41/41/41 44/44/44
f 40/40/40 44/44/44 42/42/42
f 41/41/41 45/45/45 44/44/44
f 42/42/42 46/46/46 43/43/43
f 42/42/42 44/44/44 46/46/46
f 43/43/43 46/46/46 47/47/47
f 46/46/46 48/48/48 47/47/47
f 44/44/44 45/45/45 49/49/49
f 44/44/44 49/49/49 46/46/46
f 46/46/46 49/49/49 48/48/48
f 45/45/45 50/50/50 49/49/49
f 49/49/49 51/51/51 48/48/48
f 49/49/49 50/50/50 51/51/51
f 50/50/50 52/52/52 51/51/51
f 55/55/55 54/54/54 53/53/53
f 54/54/54 56/56/56 53/53/53
f 53/53/53 56/56/56 57/57/57
f 54/54/54 58/58/58 56/56/56
f 56/56/56 59/59/59 57/57/57
f 57/57/57 59/59/59 60/60/60
f 59/59/59 61/61/61 60/60/60
f 58/58/58 62/62/62 56/56/56
f 56/56/56 62/62/62 59/59/59
f 58/58/58 63/63/63 62/62/62
f 59/59/59 64/64/64 61/61/61
f 62/62/62 64/64/64 59/59/59
f 64/64/64 65/65/65 61/61/61
f 63/63/63 66/66/66 62/62/62
f 62/62/62 66/66/66 64/64/64
f 63/63/63 67/67/67 66/66/66
f 64/64/64 68/68/68 65/65/65
f 66/66/66 68/68/68 64/64/64
f 68/68/68 69/69/69 65/65/65
f 67/67/67 70/70/70 66/66/66
f 66/66/66 70/70/70 68/68/68
f 67/67/67 71/71/71 70/70/70
f 68/68/68 72/72/72 69/69/69
f 70/70/70 72/72/72 68/68/68
f 72/72/72 73/73/73 69/69/69
f 71/71/71 74/74/74 70/70/70
f 70/70/70 74/74/74 72/72/72
f 71/71/71 75/75/75 74/74/74
f 72/72/72 76/76/76 73/73/73
f 74/74/74 76/76/76 72/72/72
f 76/76/76 77/77/77 73/73/73
f 75/75/75 78/78/78 74/74/74
f 74/74/74 78/78/78 76/76/76
f 75/75/75 79/79/79 78/78/78
f 76/76/76 80/80/80 77/77/77
f 78/78/78 80/80/80 76/76/76
f 80/80/80 81/81/81 77/77/77
f 79/79/79 82/82/82 78/78/78
f 78/78/78 82/82/82 80/80/80
f 79/79/79 83/83/83 82/82/82
f 80/80/80 84/84/84 81/81/81
f 82/82/82 84/84/84 80/80/80
f 84/84/84 85/85/85 81/81/81
f 83/83/83 86/86/86 82/82/82
f 82/82/82 86/86/86 84/84/84
f 83/83/83 87/87/87 86/86/86
f 84/84/84 88/88/88 85/85/85
f 86/86/86 88/88/88 84/84/84
f 88/88/88 89/89/89 85/85/85
f 87/87/87 90/90/90 86/86/86
f 86/86/86 90/90/90 88/88/88
f 87/87/87 91/91/91 90/90/90
f 88/88/88 92/92/92 89/89/89
f 90/90/90 92/92/92 88/88/88
f 92/92/92 93/93/93 89/89/89
f 91/91/91 94/94/94 90/90/90
f 90/90/90 94/94/94 92/92/92
f 91/91/91 95/95/95 94/94/94
f 92/92/92 96/96/96 93/93/93
f 94/94/94 96/96/96 92/92/92
f 96/96/96 97/97/97 93/93/93
f 95/95/95 98/98/98 94/94/94
f 94/94/94 98/98/98 96/96/96
f 95/95/95 99/99/99 98/98/98
f 99/99/99 100/100/100 98/98/98
f 96/96/96 101/101/101 97/97/97
f 98/98/98 101/101/101 96/96/96
f 98/98/98 100/100/100 101/101/101
f 101/101/101 102/102/102 97/97/97
f 100/100/100 103/103/103 101/101/101
f 101/101/101 103/103/103 102/102/102
f 103/103/103 104/104/104 102/102/102
