g Plane003
v -0.0701699406 0.0442512594 -1.26999998E-06
v 0.0638844743 -0.0652825311 -1.26999998E-06
v 0.0411444828 -0.0946257636 -1.26999998E-06
v -0.100354291 0.00510555087 -1.26999998E-06
v 0.0189457908 -0.128067732 -1.26999998E-06
v -0.126807749 -0.0346646458 -1.26999998E-06
v -0.00591710489 -0.166487053 -1.26999998E-06
v -0.14986439 -0.0703235865 -1.26999998E-06
v -0.0356680751 -0.207632527 -1.26999998E-06
v -0.171027988 -0.0997162163 -1.26999998E-06
v -0.0736252069 -0.248727262 -1.26999998E-06
v -0.190708444 -0.121213533 -1.26999998E-06
v -0.123273194 -0.285246253 -1.26999998E-06
v -0.20914866 -0.134934425 -1.26999998E-06
v -0.168076128 -0.308085501 -1.26999998E-06
v -0.239544168 -0.1504132 -1.26999998E-06
v -0.21423237 -0.326704264 -1.26999998E-06
v -0.272435486 -0.163668573 -1.26999998E-06
v -0.261316299 -0.341571182 -1.26999998E-06
v -0.307546109 -0.174744785 -1.26999998E-06
v -0.308957517 -0.353128195 -1.26999998E-06
v -0.344542712 -0.183711767 -1.26999998E-06
v -0.356827617 -0.361786336 -1.26999998E-06
v -0.383049637 -0.190670475 -1.26999998E-06
v -0.404619277 -0.367924005 -1.26999998E-06
v -0.422670454 -0.195754334 -1.26999998E-06
v -0.45203191 -0.371890903 -1.26999998E-06
v -0.463001758 -0.199125484 -1.26999998E-06
v -0.498763263 -0.374013782 -1.26999998E-06
v -0.503641903 -0.200969145 -1.26999998E-06
v -0.544504344 -0.374601454 -1.26999998E-06
v -0.544196069 -0.201488346 -1.26999998E-06
v -0.588753819 -0.373998761 -1.26999998E-06
v -0.585296333 -0.200919911 -1.26999998E-06
vt 0 0
vt 0 1
vt 0.0625 1
vt 0.0625 0
vt 0.125 1
vt 0.125 0
vt 0.1875 1
vt 0.1875 0
vt 0.25 1
vt 0.25 0
vt 0.3125 1
vt 0.3125 0
vt 0.375 1
vt 0.375 0
vt 0.4375 1
vt 0.4375 0
vt 0.5 1
vt 0.5 0
vt 0.5625 1
vt 0.5625 0
vt 0.625 1
vt 0.625 0
vt 0.6875 1
vt 0.6875 0
vt 0.75 1
vt 0.75 0
vt 0.8125 1
vt 0.8125 0
vt 0.875 1
vt 0.875 0
vt 0.9375 1
vt 0.9375 0
vt 1 1
vt 1 0
vn -0 0 1
vn -0 0 1
vn -0 0 1
vn -0 0 1
vn -0 0 1
vn -0 0 1
vn -0 0 1
vn -0 0 1
vn -0 0 1
vn -0 0 1
vn -0 0 1
vn -0 0 1
vn -0 0 1
vn -0 0 1
vn -0 0 1
vn -0 0 1
vn -0 0 1
vn -0 0 1
vn -0 0 1
vn -0 0 1
vn -0 0 1
vn -0 0 1
vn -0 0 1
vn -0 0 1
vn -0 0 1
vn -0 0 1
vn -0 0 1
vn -0 0 1
vn -0 0 1
vn -0 0 1
vn -0 0 1
vn -0 0 1
vn -0 0 1
vn -0 0 1
g Plane003_0
f 3/3/3 2/2/2 1/1/1
f 4/4/4 3/3/3 1/1/1
f 5/5/5 3/3/3 4/4/4
f 6/6/6 5/5/5 4/4/4
f 7/7/7 5/5/5 6/6/6
f 8/8/8 7/7/7 6/6/6
f 9/9/9 7/7/7 8/8/8
f 10/10/10 9/9/9 8/8/8
f 11/11/11 9/9/9 10/10/10
f 12/12/12 11/11/11 10/10/10
f 13/13/13 11/11/11 12/12/12
f 14/14/14 13/13/13 12/12/12
f 15/15/15 13/13/13 14/14/14
f 16/16/16 15/15/15 14/14/14
f 17/17/17 15/15/15 16/16/16
f 18/18/18 17/17/17 16/16/16
f 19/19/19 17/17/17 18/18/18
f 20/20/20 19/19/19 18/18/18
f 21/21/21 19/19/19 20/20/20
f 22/22/22 21/21/21 20/20/20
f 23/23/23 21/21/21 22/22/22
f 24/24/24 23/23/23 22/22/22
f 25/25/25 23/23/23 24/24/24
f 26/26/26 25/25/25 24/24/24
f 27/27/27 25/25/25 26/26/26
f 28/28/28 27/27/27 26/26/26
f 29/29/29 27/27/27 28/28/28
f 30/30/30 29/29/29 28/28/28
f 31/31/31 29/29/29 30/30/30
f 32/32/32 31/31/31 30/30/30
f 33/33/33 31/31/31 32/32/32
f 34/34/34 33/33/33 32/32/32
