g 003
v -0 9.77364678E-09 2.44903567E-05
v -0.0531145036 0.118007101 2.22396848E-05
v 0.0130051896 0.128754377 2.22396848E-05
v 0.0130051896 0.128754377 2.22396848E-05
v -0.106307179 0.226271495 1.56593323E-05
v 0.0210713092 0.249110401 1.56593323E-05
v -0 9.77364678E-09 2.44903567E-05
v -0.105002038 0.0756399035 2.22396848E-05
v -0.0531145036 0.118007101 2.22396848E-05
v -0 9.77364678E-09 2.44903567E-05
v -0.128754407 0.013005075 2.22396848E-05
v -0.105002038 0.0756399035 2.22396848E-05
v -0.128754407 0.013005075 2.22396848E-05
v -0.249110445 0.0210710894 1.56402584E-05
v -0.205200464 0.142803296 1.56402584E-05
v -0.352131099 0.0316811949 5.1498414E-06
v -0.289113849 0.203502208 5.1498414E-06
v -0.468926102 0.0410257801 -8.52584799E-06
v -0.385589063 0.269992352 -8.52584799E-06
v -0 9.77364678E-09 2.44903567E-05
v -0.118007123 -0.0531144552 2.22396848E-05
v -0.128754407 0.013005075 2.22396848E-05
v -0.128754407 0.013005075 2.22396848E-05
v -0.226271525 -0.106307082 1.56402584E-05
v -0.249110445 0.0210710894 1.56402584E-05
v -0 9.77364678E-09 2.44903567E-05
v 0.118007153 0.0531143844 2.22396848E-05
v 0.128754377 -0.0130051607 2.22396848E-05
v 0.128754377 -0.0130051607 2.22396848E-05
v 0.22627157 0.10630697 1.56402584E-05
v 0.249110401 -0.0210712329 1.56402584E-05
v 0.22627157 0.10630697 1.56402584E-05
v 0.320795119 0.148628563 5.1498414E-06
v 0.352131039 -0.0316814221 5.13076793E-06
v 0.42661491 0.198933363 -8.52584799E-06
v 0.468926013 -0.0410260521 -8.54492191E-06
v -0 9.77364678E-09 2.44903567E-05
v 0.0756400004 0.105001971 2.22396848E-05
v 0.118007153 0.0531143844 2.22396848E-05
v 0.0756400004 0.105001971 2.22396848E-05
v 0.14280346 0.20520027 1.56402584E-05
v 0.22627157 0.10630697 1.56402584E-05
v 0.203502476 0.2891137 5.1498414E-06
v 0.320795119 0.148628563 5.1498414E-06
v 0.269992709 0.385588825 -8.52584799E-06
v 0.42661491 0.198933363 -8.52584799E-06
v -0 9.77364678E-09 2.44903567E-05
v -0.0756399408 -0.105002031 2.22396848E-05
v -0.118007123 -0.0531144552 2.22396848E-05
v -0 9.77364678E-09 2.44903567E-05
v -0.0130051225 -0.128754377 2.22206108E-05
v -0.0756399408 -0.105002031 2.22396848E-05
v -0.0210711472 -0.24911043 1.56211845E-05
v -0.142803356 -0.205200404 1.56211845E-05
v -0.0756399408 -0.105002031 2.22396848E-05
v -0.142803356 -0.205200404 1.56211845E-05
v -0.226271525 -0.106307082 1.56402584E-05
v -0.0210711472 -0.24911043 1.56211845E-05
v -0.0316813178 -0.352131069 5.13076793E-06
v -0.203502327 -0.28911382 5.13076793E-06
v -0.041025918 -0.468926013 -8.54492191E-06
v -0.269992501 -0.385588914 -8.54492191E-06
v -0.226271525 -0.106307082 1.56402584E-05
v -0.203502327 -0.28911382 5.13076793E-06
v -0.320795119 -0.148628801 5.13076793E-06
v -0.269992501 -0.385588914 -8.54492191E-06
v -0.426614881 -0.198933631 -8.54492191E-06
v -0 9.77364678E-09 2.44903567E-05
v 0.0531144068 -0.118007131 2.22206108E-05
v -0.0130051225 -0.128754377 2.22206108E-05
v 0.106307007 -0.226271525 1.56211845E-05
v -0.0210711472 -0.24911043 1.56211845E-05
v 0.148628667 -0.320795119 5.13076793E-06
v -0.0316813178 -0.352131069 5.13076793E-06
v 0.198933467 -0.426614761 -8.54492191E-06
v -0.041025918 -0.468926013 -8.54492191E-06
v -0 9.77364678E-09 2.44903567E-05
v 0.105002001 -0.0756399781 2.22396848E-05
v 0.0531144068 -0.118007131 2.22206108E-05
v 0.205200329 -0.142803416 1.56211845E-05
v 0.106307007 -0.226271525 1.56211845E-05
v 0.28911379 -0.203502446 5.13076793E-06
v 0.148628667 -0.320795119 5.13076793E-06
v 0.385588825 -0.26999262 -8.54492191E-06
v 0.198933467 -0.426614761 -8.54492191E-06
v -0 9.77364678E-09 2.44903567E-05
v 0.128754377 -0.0130051607 2.22396848E-05
v 0.105002001 -0.0756399781 2.22396848E-05
v 0.249110401 -0.0210712329 1.56402584E-05
v 0.205200329 -0.142803416 1.56211845E-05
v 0.352131039 -0.0316814221 5.13076793E-06
v 0.28911379 -0.203502446 5.13076793E-06
v 0.468926013 -0.0410260521 -8.54492191E-06
v 0.385588825 -0.26999262 -8.54492191E-06
v -0 9.77364678E-09 2.44903567E-05
v 0.0130051896 0.128754377 2.22396848E-05
v 0.0756400004 0.105001971 2.22396848E-05
v 0.0210713092 0.249110401 1.56593323E-05
v 0.14280346 0.20520027 1.56402584E-05
v 0.031681519 0.352131039 5.1498414E-06
v 0.203502476 0.2891137 5.1498414E-06
v 0.0410261974 0.468926072 -8.52584799E-06
v 0.269992709 0.385588825 -8.52584799E-06
v -0.0531145036 0.118007101 2.22396848E-05
v -0.105002038 0.0756399035 2.22396848E-05
v -0.205200464 0.142803296 1.56402584E-05
v -0.106307179 0.226271495 1.56593323E-05
v 0.0210713092 0.249110401 1.56593323E-05
v -0.106307179 0.226271495 1.56593323E-05
v -0.14862892 0.320795 5.1498414E-06
v 0.031681519 0.352131039 5.1498414E-06
v -0.106307179 0.226271495 1.56593323E-05
v -0.205200464 0.142803296 1.56402584E-05
v -0.289113849 0.203502208 5.1498414E-06
v -0.14862892 0.320795 5.1498414E-06
v -0.289113849 0.203502208 5.1498414E-06
v -0.385589063 0.269992352 -8.52584799E-06
v -0.19893381 0.426614761 -8.52584799E-06
v -0.249110445 0.0210710894 1.56402584E-05
v -0.226271525 -0.106307082 1.56402584E-05
v -0.320795119 -0.148628801 5.13076793E-06
v -0.352131099 0.0316811949 5.1498414E-06
v 0.031681519 0.352131039 5.1498414E-06
v -0.14862892 0.320795 5.1498414E-06
v -0.19893381 0.426614761 -8.52584799E-06
v 0.0410261974 0.468926072 -8.52584799E-06
v -0.352131099 0.0316811949 5.1498414E-06
v -0.320795119 -0.148628801 5.13076793E-06
v -0.426614881 -0.198933631 -8.54492191E-06
v -0.468926102 0.0410257801 -8.52584799E-06
vt 0.972196043 1
vt 0.999209046 0.772655189
vt 0.911096692 0.752655745
vt 0.911096692 0.752655745
vt 0.999209046 0.496118128
vt 0.911096692 0.505311072
vt 0.00231350493 1
vt 0.0762887299 0.789377511
vt 0.00231350493 0.752655745
vt 0.127139285 1
vt 0.178302839 0.772443295
vt 0.0762887299 0.789377511
vt 0.178302839 0.772443295
vt 0.178302839 0.485523462
vt 0.0825774968 0.485523462
vt 0.168987498 0.264107704
vt 0.0888146162 0.28867197
vt 0.165935561 -0.0111056566
vt 0.0866998956 0.0178647041
vt 0.168400198 1
vt 0.278226584 0.741020739
vt 0.178302839 0.772443295
vt 0.178302839 0.772443295
vt 0.249070987 0.509705067
vt 0.178302839 0.485523462
vt 0.69223249 1
vt 0.733784437 0.777687252
vt 0.655113518 0.75220269
vt 0.655113518 0.75220269
vt 0.754061341 0.512756884
vt 0.671948969 0.505764186
vt 0.754061341 0.512756884
vt 0.730649769 0.268199563
vt 0.649054587 0.252704054
vt 0.765397727 0.00216324627
vt 0.678471029 0.00813695788
vt 0.787313938 1
vt 0.828574896 0.761083782
vt 0.733784437 0.777687252
vt 0.828574896 0.761083782
vt 0.828832865 0.511811793
vt 0.754061341 0.512756884
vt 0.828574836 0.257966638
vt 0.730649769 0.268199563
vt 0.830964446 0.00944617391
vt 0.765397727 0.00216324627
vt 0.292182952 1
vt 0.333716393 0.710965395
vt 0.278226584 0.741020739
vt 0.374704808 1
vt 0.415965706 0.752655745
vt 0.333716393 0.710965395
vt 0.415965706 0.505311072
vt 0.331484497 0.511331141
vt 0.333716393 0.710965395
vt 0.331484497 0.511331141
vt 0.249070987 0.509705067
vt 0.415965706 0.505311072
vt 0.419811517 0.252660155
vt 0.33344388 0.257966638
vt 0.419811517 0.0152094066
vt 0.331709683 -0.00765828788
vt 0.249070987 0.509705067
vt 0.33344388 0.257966638
vt 0.249160275 0.239543468
vt 0.331709683 -0.00765828788
vt 0.25150007 0.0167155862
vt 0.415965706 1
vt 0.495126873 0.758142471
vt 0.415965706 0.752655745
vt 0.498487502 0.505311072
vt 0.415965706 0.505311072
vt 0.499032468 0.252660155
vt 0.419811517 0.252660155
vt 0.499032468 0.0152094066
vt 0.419811517 0.0152094066
vt 0.53974843 1
vt 0.573175728 0.751928926
vt 0.495126873 0.758142471
vt 0.589729428 0.496895969
vt 0.498487502 0.505311072
vt 0.575375259 0.244550526
vt 0.499032468 0.252660155
vt 0.593485177 -0.00205205381
vt 0.499032468 0.0152094066
vt 0.622270286 1
vt 0.655113518 0.75220269
vt 0.573175728 0.751928926
vt 0.671948969 0.505764186
vt 0.589729428 0.496895969
vt 0.649054587 0.252704054
vt 0.575375259 0.244550526
vt 0.678471029 0.00813695788
vt 0.593485177 -0.00205205381
vt 0.878277242 1
vt 0.911096692 0.752655745
vt 0.828574896 0.761083782
vt 0.911096692 0.505311072
vt 0.828832865 0.511811793
vt 0.911096692 0.257966638
vt 0.828574836 0.257966638
vt 0.907147169 0.0326865613
vt 0.830964446 0.00944617391
vt 0.00231350493 0.752655745
vt 0.0762887299 0.789377511
vt 0.0825774968 0.485523462
vt 0.00231350493 0.505311072
vt 0.911096692 0.505311072
vt 0.999209046 0.496118128
vt 0.999209046 0.293963104
vt 0.911096692 0.257966638
vt 0.00231350493 0.505311072
vt 0.0825774968 0.485523462
vt 0.0888146162 0.28867197
vt 0.00231350493 0.257966638
vt 0.0888146162 0.28867197
vt 0.0866998956 0.0178647041
vt 0.00231350493 0.0106221139
vt 0.178302839 0.485523462
vt 0.249070987 0.509705067
vt 0.249160275 0.239543468
vt 0.168987498 0.264107704
vt 0.911096692 0.257966638
vt 0.999209046 0.293963104
vt 0.999209046 0.0403138101
vt 0.907147169 0.0326865613
vt 0.168987498 0.264107704
vt 0.249160275 0.239543468
vt 0.25150007 0.0167155862
vt 0.165935561 -0.0111056566
vn -0 0 1
vn -0 3.75288073E-05 1
vn 9.71319878E-06 3.62500396E-05 1
vn -3.94574126E-05 3.70824673E-05 1
vn 2.08376696E-05 7.72371932E-05 1
vn 9.71319878E-06 3.62500396E-05 1
vn -0 0 1
vn -1.77318234E-05 -3.12660609E-06 1
vn -9.74834438E-06 3.62713181E-05 1
vn -0 0 1
vn -1.37929137E-05 -1.1573622E-05 1
vn -2.65974522E-05 2.65974504E-05 1
vn -7.72315252E-05 2.06941277E-05 1
vn -5.19933237E-05 -1.56752085E-05 1
vn -5.65373884E-05 5.65373957E-05 1
vn -0.000103779443 6.88207319E-06 1
vn -9.87524472E-05 9.87524472E-05 1
vn -0.00011589106 3.26027694E-05 1
vn -0.000177901791 0.000177901777 1
vn -0 0 1
vn -6.15819863E-06 -1.691951E-05 1
vn -3.63327963E-05 9.73534497E-06 1
vn -3.63327963E-05 9.73534497E-06 1
vn -3.71899441E-05 -3.95718016E-05 1
vn -7.72315252E-05 2.06941277E-05 1
vn -0 0 1
vn 6.15821273E-06 1.69195137E-05 1
vn 3.6332789E-05 -9.73536498E-06 1
vn 3.6332789E-05 -9.73536498E-06 1
vn 3.71899732E-05 3.95717798E-05 1
vn 7.72736021E-05 -2.08780566E-05 1
vn 0.000134898364 3.6145786E-05 1
vn 9.33882475E-05 4.58962131E-05 1
vn 0.000134961127 -3.6252346E-05 1
vn 0.00011663614 2.96104117E-05 1
vn 0.000243018236 -6.51167065E-05 1
vn -0 0 1
vn -3.12658699E-06 1.77318325E-05 1
vn 3.63328036E-05 9.73531496E-06 1
vn 5.65374394E-05 5.65373448E-05 1
vn 1.24215621E-05 5.28651508E-05 1
vn 7.72315398E-05 2.06940567E-05 1
vn 5.78498184E-05 8.64345129E-05 1
vn 0.000134898364 3.6145786E-05 1
vn 8.61803928E-05 8.40631037E-05 1
vn 0.000243055343 6.50574148E-05 1
vn -0 0 1
vn 3.12659677E-06 -1.77318234E-05 1
vn -3.63540785E-05 -9.77051241E-06 1
vn -0 0 1
vn 1.18407861E-05 -1.36683393E-05 1
vn -2.64550818E-05 -2.67799624E-05 1
vn 1.58186049E-05 -5.21179245E-05 1
vn -5.65886839E-05 -5.65886512E-05 1
vn -5.65886839E-05 -5.65886512E-05 1
vn -1.23596519E-05 -5.30447396E-05 1
vn -7.72638814E-05 -2.08120437E-05 1
vn -3.61459679E-05 -0.00013489835 1
vn -6.88208365E-06 -0.000103779399 1
vn -9.87524691E-05 -9.87524108E-05 1
vn -3.2602813E-05 -0.000115891133 1
vn -0.000178048038 -0.000178047965 1
vn -7.72638814E-05 -2.08120437E-05 1
vn -5.78762556E-05 -8.65848197E-05 1
vn -0.000134938455 -3.62491264E-05 1
vn -8.61804074E-05 -8.40632638E-05 1
vn -0.000243050599 -6.51848895E-05 1
vn -0 0 1
vn 1.7062901E-05 -6.21039317E-06 1
vn -9.75284638E-06 -3.63980398E-05 1
vn 3.95718162E-05 -3.71899696E-05 1
vn -2.06941477E-05 -7.72315034E-05 1
vn 4.59296207E-05 -9.33166375E-05 1
vn -3.61459679E-05 -0.00013489835 1
vn 2.97106963E-05 -0.000116666102 1
vn -6.51702067E-05 -0.000243218135 1
vn -0 0 1
vn 1.78564114E-05 2.85942815E-06 1
vn 9.75280818E-06 -3.63980507E-05 1
vn 5.28383753E-05 -1.25193537E-05 1
vn 2.06940822E-05 -7.72315252E-05 1
vn 8.64344474E-05 -5.78497784E-05 1
vn 3.61458406E-05 -0.000134898393 1
vn 8.40631837E-05 -8.61804729E-05 1
vn 6.51699884E-05 -0.000243218194 1
vn -0 0 1
vn 1.37929237E-05 1.15736248E-05 1
vn 2.64566788E-05 -2.68593922E-05 1
vn 5.20190442E-05 1.55771104E-05 1
vn 5.6553632E-05 -5.6581739E-05 1
vn 0.000103824648 -6.94682012E-06 1
vn 9.87523963E-05 -9.87525345E-05 1
vn 0.000115891118 -3.26028385E-05 1
vn 0.000178047849 -0.000178048125 1
vn -0 0 1
vn -1.15736157E-05 1.37929273E-05 1
vn 2.65974777E-05 2.65974304E-05 1
vn -1.55317721E-05 5.1868763E-05 1
vn 5.65374394E-05 5.65373448E-05 1
vn 6.94688606E-06 0.000103824677 1
vn 9.87525273E-05 9.87523672E-05 1
vn 3.26028749E-05 0.000115891016 1
vn 0.000177901922 0.000177901617 1
vn -9.74834438E-06 3.62713181E-05 1
vn -5.65373884E-05 5.65373957E-05 1
vn -5.28919481E-05 1.23237296E-05 1
vn -2.07932972E-05 7.71938649E-05 1
vn -4.60131414E-05 9.34863492E-05 1
vn -0 0.000139741489 1
vn 3.61812272E-05 0.000134948496 1
vn 2.08376696E-05 7.72371932E-05 1
vn -2.07932972E-05 7.71938649E-05 1
vn -9.87524472E-05 9.87524472E-05 1
vn -8.65848633E-05 5.78762483E-05 1
vn -3.61677558E-05 0.000134979899 1
vn -0.000177901791 0.000177901777 1
vn -8.40632492E-05 8.61803564E-05 1
vn -6.51165756E-05 0.000243018309 1
vn -7.72315252E-05 2.06941277E-05 1
vn -0.000134938455 -3.62491264E-05 1
vn -9.34147247E-05 -4.60465235E-05 1
vn -0.000134930713 3.61218154E-05 1
vn -2.97106799E-05 0.000116666008 1
vn -0 0.000251591089 1
vn 6.51167502E-05 0.000243018236 1
vn 3.61812272E-05 0.000134948496 1
vn -0.000134930713 3.61218154E-05 1
vn -0.000243050599 -6.51848895E-05 1
vn -0.000116695875 -2.9810888E-05 1
vn -0.000243036629 6.50375441E-05 1
g 003_0
f 3/3/3 2/2/2 1/1/1
f 5/5/5 2/2/2 4/4/4
f 6/6/6 5/5/5 4/4/4
f 9/9/9 8/8/8 7/7/7
f 12/12/12 11/11/11 10/10/10
f 14/14/14 13/13/13 12/12/12
f 15/15/15 14/14/14 12/12/12
f 16/16/16 14/14/14 15/15/15
f 17/17/17 16/16/16 15/15/15
f 18/18/18 16/16/16 17/17/17
f 19/19/19 18/18/18 17/17/17
f 22/22/22 21/21/21 20/20/20
f 24/24/24 21/21/21 23/23/23
f 25/25/25 24/24/24 23/23/23
f 28/28/28 27/27/27 26/26/26
f 30/30/30 27/27/27 29/29/29
f 31/31/31 30/30/30 29/29/29
f 33/33/33 32/32/32 31/31/31
f 34/34/34 33/33/33 31/31/31
f 35/35/35 33/33/33 34/34/34
f 36/36/36 35/35/35 34/34/34
f 39/39/39 38/38/38 37/37/37
f 41/41/41 40/40/40 39/39/39
f 42/42/42 41/41/41 39/39/39
f 43/43/43 41/41/41 42/42/42
f 44/44/44 43/43/43 42/42/42
f 45/45/45 43/43/43 44/44/44
f 46/46/46 45/45/45 44/44/44
f 49/49/49 48/48/48 47/47/47
f 48/48/48 51/51/51 50/50/50
f 53/53/53 51/51/51 52/52/52
f 54/54/54 53/53/53 52/52/52
f 56/56/56 55/55/55 49/49/49
f 57/57/57 56/56/56 49/49/49
f 59/59/59 58/58/58 54/54/54
f 60/60/60 59/59/59 54/54/54
f 61/61/61 59/59/59 60/60/60
f 62/62/62 61/61/61 60/60/60
f 64/64/64 56/56/56 63/63/63
f 65/65/65 64/64/64 63/63/63
f 66/66/66 64/64/64 65/65/65
f 67/67/67 66/66/66 65/65/65
f 70/70/70 69/69/69 68/68/68
f 71/71/71 69/69/69 70/70/70
f 72/72/72 71/71/71 70/70/70
f 73/73/73 71/71/71 72/72/72
f 74/74/74 73/73/73 72/72/72
f 75/75/75 73/73/73 74/74/74
f 76/76/76 75/75/75 74/74/74
f 79/79/79 78/78/78 77/77/77
f 80/80/80 78/78/78 79/79/79
f 81/81/81 80/80/80 79/79/79
f 82/82/82 80/80/80 81/81/81
f 83/83/83 82/82/82 81/81/81
f 84/84/84 82/82/82 83/83/83
f 85/85/85 84/84/84 83/83/83
f 88/88/88 87/87/87 86/86/86
f 89/89/89 87/87/87 88/88/88
f 90/90/90 89/89/89 88/88/88
f 91/91/91 89/89/89 90/90/90
f 92/92/92 91/91/91 90/90/90
f 93/93/93 91/91/91 92/92/92
f 94/94/94 93/93/93 92/92/92
f 97/97/97 96/96/96 95/95/95
f 98/98/98 96/96/96 97/97/97
f 99/99/99 98/98/98 97/97/97
f 100/100/100 98/98/98 99/99/99
f 101/101/101 100/100/100 99/99/99
f 102/102/102 100/100/100 101/101/101
f 103/103/103 102/102/102 101/101/101
f 106/106/106 105/105/105 104/104/104
f 107/107/107 106/106/106 104/104/104
f 110/110/110 109/109/109 108/108/108
f 111/111/111 110/110/110 108/108/108
f 114/114/114 113/113/113 112/112/112
f 115/115/115 114/114/114 112/112/112
f 117/117/117 116/116/116 115/115/115
f 118/118/118 117/117/117 115/115/115
f 121/121/121 120/120/120 119/119/119
f 122/122/122 121/121/121 119/119/119
f 125/125/125 124/124/124 123/123/123
f 126/126/126 125/125/125 123/123/123
f 129/129/129 128/128/128 127/127/127
f 130/130/130 129/129/129 127/127/127
