g Sphere001
v 0.0687041208 0.950018048 0.225914821
v -0.235823631 1.0094018 0.225914821
v -0.245963037 1.15273607 8.74266561E-08
v 0.0669211298 1.16861784 8.74266561E-08
v -0.235823631 1.0094018 -0.225914702
v 0.328339428 0.859915257 0.225914821
v 0.0687041208 0.950018048 -0.225914702
v 0.35488683 1.11735511 8.74266632E-08
v 0.474141896 0.767920434 0.225914836
v 0.328339428 0.859915257 -0.225914702
v 0.619346142 0.991666198 8.74266632E-08
v 0.625770986 0.6201002 0.225914866
v 0.474141896 0.767920434 -0.225914717
v 0.81882906 0.818832159 8.74266775E-08
v 0.717036545 0.487773865 0.225914866
v 0.625770986 0.6201002 -0.225914717
v 0.962841809 0.643352926 8.74266775E-08
v 0.778618038 0.322515905 0.225914896
v 0.717036545 0.487773865 -0.225914717
v 1.06985295 0.443149835 8.74266775E-08
v 0.826576769 0.164417922 0.225914896
v 0.778618038 0.322515905 -0.225914717
v 1.13575029 0.225916773 8.74266775E-08
v 0.842770636 1.4762029E-06 0.225914896
v 0.826576769 0.164417922 -0.225914717
v 1.15800142 1.85900569E-06 8.74266775E-08
v 0.826577365 -0.164415017 0.225914896
v 0.842770636 1.4762029E-06 -0.225914717
v 1.13575101 -0.225913122 8.74266775E-08
v 0.778619051 -0.322513103 0.225914896
v 0.826577365 -0.164415017 -0.225914717
v 1.0698545 -0.443146408 8.74266775E-08
v 0.700738788 -0.468217194 0.225914896
v 0.778619051 -0.322513103 -0.225914717
v 0.962843835 -0.643349826 8.74266775E-08
v 0.595929563 -0.595927954 0.225914896
v 0.700738788 -0.468217194 -0.225914717
v 0.818831682 -0.818829536 8.74266775E-08
v 0.468219191 -0.700737476 0.225914896
v 0.595929563 -0.595927954 -0.225914717
v 0.64335227 -0.962842166 8.74266775E-08
v 0.322515279 -0.778618038 0.225914896
v 0.468219191 -0.700737476 -0.225914717
v 0.443149149 -1.06985331 8.74266775E-08
v 0.164417267 -0.826576769 0.225914896
v 0.322515279 -0.778618038 -0.225914717
v 0.225916058 -1.13575053 8.74266775E-08
v -0.00300378446 -0.848131359 0.225914896
v 0.164417267 -0.826576769 -0.225914717
v -0.00166050589 -1.16096604 8.74266775E-08
v -0.175377324 -0.863000333 0.225914866
v -0.00300378446 -0.848131359 -0.225914717
v -0.237686485 -1.15675521 8.74266775E-08
v -0.362270892 -0.861704946 0.225914836
v -0.175377324 -0.863000333 -0.225914717
v -0.476733536 -1.14994764 8.74266632E-08
v -0.602868259 -0.868135393 0.225914836
v -0.362270892 -0.861704946 -0.225914702
v -0.73160243 -1.12637818 8.74266561E-08
v -0.816007733 -0.857667208 0.225914866
v -0.602868259 -0.868135393 -0.225914627
v -0.980884135 -1.08474743 8.74266561E-08
v -1.02682817 -0.843695104 0.225914896
v -0.816007733 -0.857667208 -0.225914672
v -1.20662832 -1.02549195 8.74266561E-08
v -1.22448063 -0.797056973 0.225914896
v -1.02682817 -0.843695104 -0.225914642
v -1.40010905 -0.952946544 8.74266561E-08
v -1.45257163 -0.740404248 0.225914836
v -1.22448063 -0.797056973 -0.225914642
v -1.57429647 -0.868133366 8.74266561E-08
v -1.67160416 -0.683310926 0.225914896
v -1.45257163 -0.740404248 -0.225914553
v -1.76122773 -0.74332577 8.74266348E-08
v -1.67160416 -0.683310926 -0.225914627
vt 0.958368897 0.996503234
vt 1.00000024 0.996503234
vt 1.00000024 0.499999881
vt 0.958368897 0.499999881
vt 1.00000024 0.00349700451
vt 0.916737676 0.996503234
vt 0.958368897 0.00349700451
vt 0.916737676 0.499999881
vt 0.875106335 0.996503234
vt 0.916737676 0.00349700451
vt 0.875106335 0.499999881
vt 0.833475113 0.996503234
vt 0.875106335 0.00349700451
vt 0.833475113 0.499999881
vt 0.791843891 0.996503234
vt 0.833475113 0.00349700451
vt 0.791843891 0.499999881
vt 0.75021255 0.996503234
vt 0.791843891 0.00349700451
vt 0.75021255 0.499999881
vt 0.708581328 0.996503234
vt 0.75021255 0.00349700451
vt 0.708581328 0.499999881
vt 0.666950107 0.996503234
vt 0.708581328 0.00349700451
vt 0.666950107 0.499999881
vt 0.625318825 0.996503234
vt 0.666950107 0.00349700451
vt 0.625318825 0.499999881
vt 0.583687603 0.996503234
vt 0.625318825 0.00349700451
vt 0.583687603 0.499999881
vt 0.542056262 0.996503234
vt 0.583687603 0.00349700451
vt 0.542056262 0.499999881
vt 0.500425041 0.996503234
vt 0.542056262 0.00349700451
vt 0.500425041 0.499999881
vt 0.458793759 0.996503234
vt 0.500425041 0.00349700451
vt 0.458793759 0.499999881
vt 0.417162538 0.996503234
vt 0.458793759 0.00349700451
vt 0.417162538 0.499999881
vt 0.375531316 0.996503234
vt 0.417162538 0.00349700451
vt 0.375531316 0.499999881
vt 0.333900034 0.996503234
vt 0.375531316 0.00349700451
vt 0.333900034 0.499999881
vt 0.292268753 0.996503234
vt 0.333900034 0.00349700451
vt 0.292268753 0.499999881
vt 0.250637472 0.996503234
vt 0.292268753 0.00349700451
vt 0.250637472 0.499999881
vt 0.20900625 0.996503234
vt 0.250637472 0.00349700451
vt 0.20900625 0.499999881
vt 0.167374998 0.996503234
vt 0.20900625 0.00349700451
vt 0.167374998 0.499999881
vt 0.125743717 0.996503234
vt 0.167374998 0.00349700451
vt 0.125743717 0.499999881
vt 0.0841124654 0.996503234
vt 0.125743717 0.00349700451
vt 0.0841124654 0.499999881
vt 0.0424812138 0.996503234
vt 0.0841124654 0.00349700451
vt 0.0424812138 0.499999881
vt 0.000849992037 0.996503234
vt 0.0424812138 0.00349700451
vt 0.000849992037 0.499999881
vt 0.000849992037 0.00349700451
vn 0.159715384 0.738154709 0.655453026
vn 0.163095579 0.836376905 0.523329258
vn 0.0122226719 0.998659968 0.0502870232
vn 0.105968349 0.993742406 0.0353083387
vn 0.0481124818 0.784955323 -0.617681444
vn 0.293181956 0.629842043 0.719265819
vn 0.160969377 0.688544214 -0.707103789
vn 0.317064464 0.948197782 0.0197786223
vn 0.396969825 0.528180778 0.750626445
vn 0.279358774 0.599885762 -0.749730468
vn 0.557398975 0.830186486 0.00982989836
vn 0.485806257 0.416116834 0.768660545
vn 0.392590672 0.506542504 -0.767650545
vn 0.722613037 0.691212118 0.00749594253
vn 0.54901439 0.293140858 0.782720685
vn 0.47272414 0.408337325 -0.780892193
vn 0.839598835 0.543107867 0.010382914
vn 0.559547961 0.20282428 0.803597093
vn 0.526981592 0.28837657 -0.799455702
vn 0.927166939 0.374595046 0.00632880162
vn 0.571324766 0.113644518 0.812817872
vn 0.552963972 0.186016738 -0.812175214
vn 0.980785012 0.195091933 0
vn 0.582517922 1.06705488E-06 0.812817872
vn 0.571324944 0.113644518 -0.812817693
vn 1 1.52941232E-06 0
vn 0.571325302 -0.11364276 0.812817812
vn 0.582517982 9.81148105E-07 -0.812817812
vn 0.980785549 -0.195088819 0
vn 0.538176537 -0.2229193 0.812817872
vn 0.571325362 -0.113642648 -0.812817812
vn 0.9238801 -0.382682055 0
vn 0.484346241 -0.323628962 0.812817872
vn 0.538176596 -0.2229193 -0.812817872
vn 0.831470251 -0.555569172 0
vn 0.411902934 -0.411901683 0.812817931
vn 0.484346241 -0.323628962 -0.812817872
vn 0.707107663 -0.707105815 0
vn 0.323630184 -0.484345376 0.812817931
vn 0.411902964 -0.411901683 -0.812817872
vn 0.555571258 -0.83146888 0
vn 0.222920552 -0.538176 0.812817872
vn 0.323630244 -0.484345436 -0.812817872
vn 0.382684559 -0.923879027 0
vn 0.122562975 -0.569526136 0.812784314
vn 0.222920537 -0.538176 -0.812817872
vn 0.201853693 -0.979415298 -0.000789158337
vn 0.0613794327 -0.58243376 0.810557485
vn 0.1210692 -0.571504653 -0.811618507
vn 0.0528752171 -0.998583436 -0.00595230516
vn 0.0150202606 -0.599997878 0.799860656
vn 0.0536517538 -0.593951523 -0.802709699
vn -0.0155082224 -0.999864817 -0.00547280768
vn 0.00145127764 -0.614538729 0.788885355
vn 0.0258489531 -0.614724457 -0.788318336
vn -0.0520776212 -0.998572707 -0.0118522532
vn -0.0188203845 -0.636482656 0.771061361
vn -0.0075513497 -0.625188529 -0.780437171
vn -0.114740297 -0.993271172 -0.0157172028
vn -0.0546371564 -0.665950418 0.743992507
vn -0.0140475975 -0.664512098 -0.747145414
vn -0.192633986 -0.980951965 -0.0250056311
vn -0.118119776 -0.694200873 0.710023105
vn -0.0577602386 -0.698702335 -0.713076949
vn -0.289424092 -0.956947982 -0.0220069066
vn -0.191109613 -0.712011218 0.675660491
vn -0.105181038 -0.742454767 -0.661587358
vn -0.371930987 -0.927646399 -0.033755701
vn -0.228542879 -0.761196852 0.606916368
vn -0.201396331 -0.744064808 -0.637030005
vn -0.450119764 -0.891258717 -0.0552276634
vn -0.340100527 -0.794331729 0.503357351
vn -0.257993102 -0.808026791 -0.529652953
vn -0.490890026 -0.86920321 -0.0592683516
vn -0.237539724 -0.911296487 -0.336323559
g Sphere001_0
f 3/3/3 2/2/2 1/1/1
f 4/4/4 3/3/3 1/1/1
f 5/5/5 3/3/3 4/4/4
f 4/4/4 1/1/1 6/6/6
f 7/7/7 5/5/5 4/4/4
f 8/8/8 4/4/4 6/6/6
f 7/7/7 4/4/4 8/8/8
f 8/8/8 6/6/6 9/9/9
f 10/10/10 7/7/7 8/8/8
f 11/11/11 8/8/8 9/9/9
f 10/10/10 8/8/8 11/11/11
f 11/11/11 9/9/9 12/12/12
f 13/13/13 10/10/10 11/11/11
f 14/14/14 11/11/11 12/12/12
f 13/13/13 11/11/11 14/14/14
f 14/14/14 12/12/12 15/15/15
f 16/16/16 13/13/13 14/14/14
f 17/17/17 14/14/14 15/15/15
f 16/16/16 14/14/14 17/17/17
f 17/17/17 15/15/15 18/18/18
f 19/19/19 16/16/16 17/17/17
f 20/20/20 17/17/17 18/18/18
f 19/19/19 17/17/17 20/20/20
f 20/20/20 18/18/18 21/21/21
f 22/22/22 19/19/19 20/20/20
f 23/23/23 20/20/20 21/21/21
f 22/22/22 20/20/20 23/23/23
f 23/23/23 21/21/21 24/24/24
f 25/25/25 22/22/22 23/23/23
f 26/26/26 23/23/23 24/24/24
f 25/25/25 23/23/23 26/26/26
f 26/26/26 24/24/24 27/27/27
f 28/28/28 25/25/25 26/26/26
f 29/29/29 26/26/26 27/27/27
f 28/28/28 26/26/26 29/29/29
f 29/29/29 27/27/27 30/30/30
f 31/31/31 28/28/28 29/29/29
f 32/32/32 29/29/29 30/30/30
f 31/31/31 29/29/29 32/32/32
f 32/32/32 30/30/30 33/33/33
f 34/34/34 31/31/31 32/32/32
f 35/35/35 32/32/32 33/33/33
f 34/34/34 32/32/32 35/35/35
f 35/35/35 33/33/33 36/36/36
f 37/37/37 34/34/34 35/35/35
f 38/38/38 35/35/35 36/36/36
f 37/37/37 35/35/35 38/38/38
f 38/38/38 36/36/36 39/39/39
f 40/40/40 37/37/37 38/38/38
f 41/41/41 38/38/38 39/39/39
f 40/40/40 38/38/38 41/41/41
f 41/41/41 39/39/39 42/42/42
f 43/43/43 40/40/40 41/41/41
f 44/44/44 41/41/41 42/42/42
f 43/43/43 41/41/41 44/44/44
f 44/44/44 42/42/42 45/45/45
f 46/46/46 43/43/43 44/44/44
f 47/47/47 44/44/44 45/45/45
f 46/46/46 44/44/44 47/47/47
f 47/47/47 45/45/45 48/48/48
f 49/49/49 46/46/46 47/47/47
f 50/50/50 47/47/47 48/48/48
f 49/49/49 47/47/47 50/50/50
f 50/50/50 48/48/48 51/51/51
f 52/52/52 49/49/49 50/50/50
f 53/53/53 50/50/50 51/51/51
f 52/52/52 50/50/50 53/53/53
f 53/53/53 51/51/51 54/54/54
f 55/55/55 52/52/52 53/53/53
f 56/56/56 53/53/53 54/54/54
f 55/55/55 53/53/53 56/56/56
f 56/56/56 54/54/54 57/57/57
f 58/58/58 55/55/55 56/56/56
f 59/59/59 56/56/56 57/57/57
f 58/58/58 56/56/56 59/59/59
f 59/59/59 57/57/57 60/60/60
f 61/61/61 58/58/58 59/59/59
f 62/62/62 59/59/59 60/60/60
f 61/61/61 59/59/59 62/62/62
f 62/62/62 60/60/60 63/63/63
f 64/64/64 61/61/61 62/62/62
f 65/65/65 62/62/62 63/63/63
f 64/64/64 62/62/62 65/65/65
f 65/65/65 63/63/63 66/66/66
f 67/67/67 64/64/64 65/65/65
f 68/68/68 65/65/65 66/66/66
f 67/67/67 65/65/65 68/68/68
f 68/68/68 66/66/66 69/69/69
f 70/70/70 67/67/67 68/68/68
f 71/71/71 68/68/68 69/69/69
f 70/70/70 68/68/68 71/71/71
f 71/71/71 69/69/69 72/72/72
f 73/73/73 70/70/70 71/71/71
f 74/74/74 71/71/71 72/72/72
f 73/73/73 71/71/71 74/74/74
f 75/75/75 73/73/73 74/74/74
