g general_plane_66
v -0.0627228692 0.00425743312 -0.00282845902
v -0.0984442011 0.00920077506 -0.00611260999
v -0.0943568572 0.0233498085 -0.0158341732
v -0.0597086512 0.014622137 -0.00995497964
v -0.0881108567 0.0365304239 -0.0256470572
v -0.0550655127 0.0243593995 -0.0172145963
v -0.0798980892 0.0483880974 -0.0355432853
v -0.0488881133 0.0332104377 -0.0246228408
v -0.0699734017 0.0586044677 -0.0455146171
v -0.0413147807 0.0409261063 -0.0321956687
v -0.0586477518 0.0669093356 -0.0555526093
v -0.0325273834 0.0472750403 -0.0399495177
v -0.046278663 0.0730912983 -0.065648824
v -0.0227501951 0.0520517565 -0.0479010269
v -0.0332588218 0.0770064294 -0.0757948607
v -0.0122466646 0.0550853275 -0.0560669601
v -0.0189856458 0.0785987377 -0.0867714211
v -0.00233192556 0.0562274717 -0.0636756346
v -0.00613918109 0.0774930865 -0.0968898311
v 0.0088400282 0.0553634167 -0.0724534765
v 0.00601060735 0.0742029622 -0.107026614
v 0.0197153613 0.0524726249 -0.0815078467
v 0.0170854665 0.06891267 -0.117176577
v 0.0299226865 0.0476166494 -0.0908531845
v 0.0267492495 0.0618731864 -0.127335921
v 0.0390995257 0.0409283713 -0.100502715
v 0.0347196981 0.0533929802 -0.137502208
v 0.0469068624 0.0326113738 -0.110468291
v 0.0405851789 0.0440094657 -0.147459403
v 0.0530677699 0.0226837751 -0.120989874
v 0.0442216471 0.0338547677 -0.157504469
v 0.056949012 0.0117415972 -0.131808981
v 0.0451633222 0.02328448 -0.168957993
v 0.0586447306 0.000275004713 -0.142969236
v 0.0427418798 0.0127896834 -0.183145076
v 0.0580811724 -0.0112728458 -0.154476285
v 0.0379208773 0.00427988358 -0.197377086
v 0.0538916737 -0.0230211727 -0.169093072
v 0.0305704325 -0.00334684388 -0.213701263
v 0.0465521328 -0.0321716815 -0.18534258
v 0.0220159572 -0.00893635396 -0.230092466
v 0.0372400358 -0.0391089469 -0.20239976
v 0.0141511327 -0.0118287606 -0.243875667
v 0.0252441205 -0.0434165075 -0.222019076
v 0.00537048327 -0.0132564371 -0.258918285
v 0.013783331 -0.044023972 -0.240275696
v -0.00151948095 -0.0130765485 -0.270927936
v 0.00124828401 -0.040485017 -0.261466593
v -0.00832083914 -0.0115476912 -0.283543497
v -0.00806505326 -0.0350863636 -0.278559923
v -0.0130970273 -0.0095559191 -0.293373734
v -0.0155455479 -0.0281985085 -0.294252455
v -0.0169888996 -0.00694210175 -0.302879304
v -0.0199256241 -0.0219554994 -0.305599242
v -0.0193297546 -0.00462420937 -0.310121834
v -0.0224960148 -0.0162646305 -0.314618051
v -0.0207090154 -0.00246270862 -0.316296965
v -0.023525143 -0.0121277375 -0.320693344
v -0.0211879201 -0.000726879807 -0.32095772
v -0.0237247851 -0.00915080216 -0.325181901
v -0.0210522674 0.000899382809 -0.32488358
v -0.0234941263 -0.00724253384 -0.328703254
vt 0 0
vt 0 1
vt 0.0333333351 1
vt 0.0333333351 0
vt 0.0666666701 1
vt 0.0666666701 0
vt 0.100000009 1
vt 0.100000009 0
vt 0.13333334 1
vt 0.13333334 0
vt 0.166666672 1
vt 0.166666672 0
vt 0.200000003 1
vt 0.200000003 0
vt 0.233333334 1
vt 0.233333334 0
vt 0.266666681 1
vt 0.266666681 0
vt 0.300000012 1
vt 0.300000012 0
vt 0.333333343 1
vt 0.333333343 0
vt 0.366666675 1
vt 0.366666675 0
vt 0.400000006 1
vt 0.400000006 0
vt 0.433333337 1
vt 0.433333337 0
vt 0.466666669 1
vt 0.466666669 0
vt 0.5 1
vt 0.5 0
vt 0.533333361 1
vt 0.533333361 0
vt 0.566666722 1
vt 0.566666722 0
vt 0.600000083 1
vt 0.600000083 0
vt 0.633333445 1
vt 0.633333445 0
vt 0.666666806 1
vt 0.666666806 0
vt 0.700000167 1
vt 0.700000167 0
vt 0.733333528 1
vt 0.733333528 0
vt 0.766666889 1
vt 0.766666889 0
vt 0.80000025 1
vt 0.80000025 0
vt 0.833333611 1
vt 0.833333611 0
vt 0.866666973 1
vt 0.866666973 0
vt 0.900000334 1
vt 0.900000334 0
vt 0.933333695 1
vt 0.933333695 0
vt 0.966667056 1
vt 0.966667056 0
vt 1.00000036 1
vt 1.00000036 0
vn 0.00258029182 0.565902412 0.824468195
vn 0.00258029182 0.565902412 0.824468195
vn 0.00779303908 0.579688072 0.814801216
vn 0.00782366283 0.579768538 0.814743638
vn 0.0228775982 0.610470116 0.791708827
vn 0.0229617804 0.610614955 0.791594684
vn 0.0483831912 0.646477163 0.76139766
vn 0.0485835299 0.646719277 0.761179268
vn 0.0861962214 0.684722543 0.723688662
vn 0.0866012052 0.68507278 0.723308682
vn 0.137360349 0.721658528 0.678484321
vn 0.13806738 0.722086668 0.677885115
vn 0.201905072 0.753410399 0.625785172
vn 0.202991813 0.753836632 0.624919713
vn 0.278184652 0.776742041 0.565053225
vn 0.279654533 0.777070284 0.563875198
vn 0.372410715 0.786478877 0.492708176
vn 0.370046049 0.786480963 0.494483203
vn 0.47201857 0.777642965 0.415295035
vn 0.470732629 0.777870119 0.416327775
vn 0.569279552 0.751142323 0.334224313
vn 0.568575501 0.75140363 0.334834814
vn 0.663327992 0.70606482 0.247928083
vn 0.663036048 0.706239104 0.248212397
vn 0.749150813 0.643413484 0.157455474
vn 0.749038577 0.643512607 0.157584205
vn 0.823586643 0.5637514 0.0623650961
vn 0.823418319 0.563970327 0.0626071915
vn 0.882927835 0.46784538 -0.0394862145
vn 0.883092642 0.46750465 -0.0398340933
vn 0.919857979 0.363934577 -0.146331564
vn 0.919646919 0.364846319 -0.14538449
vn 0.930693626 0.264040649 -0.253163904
vn 0.930745065 0.269501776 -0.247148693
vn 0.921699584 0.170053899 -0.348642528
vn 0.923960209 0.184167311 -0.335231215
vn 0.903961301 0.0929932445 -0.417380303
vn 0.908171237 0.108299583 -0.404346526
vn 0.885893881 0.0324922986 -0.462748528
vn 0.890743971 0.0483845919 -0.451922745
vn 0.868445635 -0.0207820646 -0.495348722
vn 0.874645591 -0.00239713886 -0.484756887
vn 0.857215941 -0.0572889186 -0.511760592
vn 0.8600142 -0.0468887836 -0.508111238
vn 0.855625212 -0.0770895928 -0.511822879
vn 0.854929566 -0.07150767 -0.513792038
vn 0.862923265 -0.085489504 -0.498051226
vn 0.859680295 -0.0837395042 -0.503922224
vn 0.878053248 -0.089356102 -0.470146745
vn 0.873080194 -0.0886007398 -0.479458839
vn 0.898323715 -0.0968174934 -0.428533494
vn 0.894840598 -0.0951025933 -0.436137378
vn 0.921435714 -0.111961462 -0.372049451
vn 0.919028282 -0.110016994 -0.37852782
vn 0.941824555 -0.13733688 -0.306765437
vn 0.941487432 -0.136728272 -0.308069587
vn 0.958167613 -0.17718415 -0.224768043
vn 0.958074152 -0.176852807 -0.22542654
vn 0.965568602 -0.226751626 -0.127518237
vn 0.965574801 -0.227061152 -0.126919419
vn 0.964357138 -0.254265279 -0.0732427016
vn 0.964357138 -0.254265279 -0.0732427016
g general_plane_66_0
f 3/3/3 2/2/2 1/1/1
f 4/4/4 3/3/3 1/1/1
f 5/5/5 3/3/3 4/4/4
f 6/6/6 5/5/5 4/4/4
f 7/7/7 5/5/5 6/6/6
f 8/8/8 7/7/7 6/6/6
f 9/9/9 7/7/7 8/8/8
f 10/10/10 9/9/9 8/8/8
f 11/11/11 9/9/9 10/10/10
f 12/12/12 11/11/11 10/10/10
f 13/13/13 11/11/11 12/12/12
f 14/14/14 13/13/13 12/12/12
f 15/15/15 13/13/13 14/14/14
f 16/16/16 15/15/15 14/14/14
f 17/17/17 15/15/15 16/16/16
f 18/18/18 17/17/17 16/16/16
f 19/19/19 17/17/17 18/18/18
f 20/20/20 19/19/19 18/18/18
f 21/21/21 19/19/19 20/20/20
f 22/22/22 21/21/21 20/20/20
f 23/23/23 21/21/21 22/22/22
f 24/24/24 23/23/23 22/22/22
f 25/25/25 23/23/23 24/24/24
f 26/26/26 25/25/25 24/24/24
f 27/27/27 25/25/25 26/26/26
f 28/28/28 27/27/27 26/26/26
f 29/29/29 27/27/27 28/28/28
f 30/30/30 29/29/29 28/28/28
f 31/31/31 29/29/29 30/30/30
f 32/32/32 31/31/31 30/30/30
f 33/33/33 31/31/31 32/32/32
f 34/34/34 33/33/33 32/32/32
f 35/35/35 33/33/33 34/34/34
f 36/36/36 35/35/35 34/34/34
f 37/37/37 35/35/35 36/36/36
f 38/38/38 37/37/37 36/36/36
f 39/39/39 37/37/37 38/38/38
f 40/40/40 39/39/39 38/38/38
f 41/41/41 39/39/39 40/40/40
f 42/42/42 41/41/41 40/40/40
f 43/43/43 41/41/41 42/42/42
f 44/44/44 43/43/43 42/42/42
f 45/45/45 43/43/43 44/44/44
f 46/46/46 45/45/45 44/44/44
f 47/47/47 45/45/45 46/46/46
f 48/48/48 47/47/47 46/46/46
f 49/49/49 47/47/47 48/48/48
f 50/50/50 49/49/49 48/48/48
f 51/51/51 49/49/49 50/50/50
f 52/52/52 51/51/51 50/50/50
f 53/53/53 51/51/51 52/52/52
f 54/54/54 53/53/53 52/52/52
f 55/55/55 53/53/53 54/54/54
f 56/56/56 55/55/55 54/54/54
f 57/57/57 55/55/55 56/56/56
f 58/58/58 57/57/57 56/56/56
f 59/59/59 57/57/57 58/58/58
f 60/60/60 59/59/59 58/58/58
f 61/61/61 59/59/59 60/60/60
f 62/62/62 61/61/61 60/60/60
