g Plane004
v 0.0681611001 0.0546818376 0
v 0.0535323918 0.0768496692 0
v 0.0449117944 0.0419208892 0
v 0.0322095156 0.0577513203 0
v 0.0338108726 0.0968654975 0
v 0.0145746917 0.0724973157 0
v 0.0101240426 0.114589222 0
v -0.00695878081 0.0854996219 0
v -0.0165362488 0.129776567 0
v -0.0312216897 0.0962029472 0
v -0.0452413261 0.142095208 0
v -0.0569815002 0.104140058 0
v -0.0751240477 0.151139617 0
v -0.0829441622 0.10891699 0
v -0.105409406 0.156408772 0
v -0.10772346 0.110235326 0
v -0.135452196 0.157214731 0
v -0.12980336 0.107983328 0
v -0.164690763 0.152468592 0
v -0.147584543 0.102450527 0
v -0.192195296 0.140422046 0
v -0.159835592 0.0945858955 0
v -0.215505406 0.119236909 0
v -0.166855603 0.0854278281 0
v -0.229682073 0.0956458077 0
v -0.171561688 0.0734255537 0
v -0.237627327 0.0697273314 0
v -0.173181355 0.0612734891 0
v -0.239538863 0.042860657 0
v -0.172213659 0.0480050147 0
v -0.236199215 0.0160107482 0
v -0.168571174 0.0330686197 0
v -0.228478596 -0.0104000438 0
v -0.162079394 0.0164559726 0
v -0.217083186 -0.0362405218 0
v -0.152727544 -0.00155000226 0
v -0.202550381 -0.061457295 0
v -0.140673846 -0.0205890536 0
v -0.185311019 -0.0859835073 0
v -0.126182854 -0.0403145924 0
v -0.165740117 -0.109715685 0
v -0.109574996 -0.0604156926 0
v -0.144186214 -0.132516816 0
v -0.0911975801 -0.0806160122 0
v -0.120986074 -0.154222757 0
v -0.0714089125 -0.100665659 0
v -0.0964731798 -0.174649701 0
v -0.0505711846 -0.12033461 0
v -0.0709808916 -0.19359903 0
v -0.0290467255 -0.139407575 0
v -0.044844646 -0.210860386 0
v -0.00719515188 -0.157681361 0
v -0.0184045937 -0.226213902 0
v 0.0146279829 -0.174961805 0
v 0.00799171161 -0.23942937 0
v 0.0360744931 -0.19106546 0
v 0.0339856185 -0.250265837 0
v 0.056807965 -0.205819309 0
v 0.0591970161 -0.258468121 0
v 0.0765127689 -0.219064623 0
v 0.0832058191 -0.263761818 0
v 0.0949133411 -0.230662182 0
vt 0 1
vt 0.0333333351 1
vt 0 0
vt 0.0333333351 0
vt 0.0666666701 1
vt 0.0666666701 0
vt 0.100000009 1
vt 0.100000009 0
vt 0.13333334 1
vt 0.13333334 0
vt 0.166666672 1
vt 0.166666672 0
vt 0.200000003 1
vt 0.200000003 0
vt 0.233333334 1
vt 0.233333334 0
vt 0.266666681 1
vt 0.266666681 0
vt 0.300000012 1
vt 0.300000012 0
vt 0.333333343 1
vt 0.333333343 0
vt 0.366666675 1
vt 0.366666675 0
vt 0.400000006 1
vt 0.400000006 0
vt 0.433333337 1
vt 0.433333337 0
vt 0.466666669 1
vt 0.466666669 0
vt 0.5 1
vt 0.5 0
vt 0.533333361 1
vt 0.533333361 0
vt 0.566666722 1
vt 0.566666722 0
vt 0.600000083 1
vt 0.600000083 0
vt 0.633333445 1
vt 0.633333445 0
vt 0.666666806 1
vt 0.666666806 0
vt 0.700000167 1
vt 0.700000167 0
vt 0.733333528 1
vt 0.733333528 0
vt 0.766666889 1
vt 0.766666889 0
vt 0.80000025 1
vt 0.80000025 0
vt 0.833333611 1
vt 0.833333611 0
vt 0.866666973 1
vt 0.866666973 0
vt 0.900000334 1
vt 0.900000334 0
vt 0.933333695 1
vt 0.933333695 0
vt 0.966667056 1
vt 0.966667056 0
vt 1.00000036 1
vt 1.00000036 0
vn -0 0 -1
vn -0 0 -1
vn -0 0 -1
vn -0 0 -1
vn -0 0 -1
vn -0 0 -1
vn -0 0 -1
vn -0 0 -1
vn -0 0 -1
vn -0 0 -1
vn -0 0 -1
vn -0 0 -1
vn -0 0 -1
vn -0 0 -1
vn -0 0 -1
vn -0 0 -1
vn -0 0 -1
vn -0 0 -1
vn -0 0 -1
vn -0 0 -1
vn -0 0 -1
vn -0 0 -1
vn -0 0 -1
vn -0 0 -1
vn -0 0 -1
vn -0 0 -1
vn -0 0 -1
vn -0 0 -1
vn -0 0 -1
vn -0 0 -1
vn -0 0 -1
vn -0 0 -1
vn -0 0 -1
vn -0 0 -1
vn -0 0 -1
vn -0 0 -1
vn -0 0 -1
vn -0 0 -1
vn -0 0 -1
vn -0 0 -1
vn -0 0 -1
vn -0 0 -1
vn -0 0 -1
vn -0 0 -1
vn -0 0 -1
vn -0 0 -1
vn -0 0 -1
vn -0 0 -1
vn -0 0 -1
vn -0 0 -1
vn -0 0 -1
vn -0 0 -1
vn -0 0 -1
vn -0 0 -1
vn -0 0 -1
vn -0 0 -1
vn -0 0 -1
vn -0 0 -1
vn -0 0 -1
vn -0 0 -1
vn -0 0 -1
vn -0 0 -1
g Plane004_0
f 3/3/3 2/2/2 1/1/1
f 2/2/2 3/3/3 4/4/4
f 4/4/4 5/5/5 2/2/2
f 5/5/5 4/4/4 6/6/6
f 6/6/6 7/7/7 5/5/5
f 7/7/7 6/6/6 8/8/8
f 8/8/8 9/9/9 7/7/7
f 9/9/9 8/8/8 10/10/10
f 10/10/10 11/11/11 9/9/9
f 11/11/11 10/10/10 12/12/12
f 12/12/12 13/13/13 11/11/11
f 13/13/13 12/12/12 14/14/14
f 14/14/14 15/15/15 13/13/13
f 15/15/15 14/14/14 16/16/16
f 16/16/16 17/17/17 15/15/15
f 17/17/17 16/16/16 18/18/18
f 18/18/18 19/19/19 17/17/17
f 19/19/19 18/18/18 20/20/20
f 20/20/20 21/21/21 19/19/19
f 21/21/21 20/20/20 22/22/22
f 22/22/22 23/23/23 21/21/21
f 23/23/23 22/22/22 24/24/24
f 24/24/24 25/25/25 23/23/23
f 25/25/25 24/24/24 26/26/26
f 26/26/26 27/27/27 25/25/25
f 27/27/27 26/26/26 28/28/28
f 28/28/28 29/29/29 27/27/27
f 29/29/29 28/28/28 30/30/30
f 30/30/30 31/31/31 29/29/29
f 31/31/31 30/30/30 32/32/32
f 32/32/32 33/33/33 31/31/31
f 33/33/33 32/32/32 34/34/34
f 34/34/34 35/35/35 33/33/33
f 35/35/35 34/34/34 36/36/36
f 36/36/36 37/37/37 35/35/35
f 37/37/37 36/36/36 38/38/38
f 38/38/38 39/39/39 37/37/37
f 39/39/39 38/38/38 40/40/40
f 40/40/40 41/41/41 39/39/39
f 41/41/41 40/40/40 42/42/42
f 42/42/42 43/43/43 41/41/41
f 43/43/43 42/42/42 44/44/44
f 44/44/44 45/45/45 43/43/43
f 45/45/45 44/44/44 46/46/46
f 46/46/46 47/47/47 45/45/45
f 47/47/47 46/46/46 48/48/48
f 48/48/48 49/49/49 47/47/47
f 49/49/49 48/48/48 50/50/50
f 50/50/50 51/51/51 49/49/49
f 51/51/51 50/50/50 52/52/52
f 52/52/52 53/53/53 51/51/51
f 53/53/53 52/52/52 54/54/54
f 54/54/54 55/55/55 53/53/53
f 55/55/55 54/54/54 56/56/56
f 56/56/56 57/57/57 55/55/55
f 57/57/57 56/56/56 58/58/58
f 58/58/58 59/59/59 57/57/57
f 59/59/59 58/58/58 60/60/60
f 60/60/60 61/61/61 59/59/59
f 61/61/61 60/60/60 62/62/62
