g general_plane_03
v 0.465898931 0.284312963 0
v 0.432542175 0.438140512 0
v 0.465737164 0.472014904 0
v 0.433056146 0.263810664 0
v 0.466060698 0.096611008 0
v 0.49855125 0.103741169 0
v 0.498741686 0.304815233 0
v 0.465737164 0.472014904 0
v 0.498360813 -0.0973328948 0
v 0.498932153 0.505889297 0
v 0.466222465 -0.0910909623 0
v 0.498170346 -0.298406959 0
v 0.281062067 0.471093833 0
v 0.299503326 0.504578531 0
v 0.433570117 0.0894808173 0
v 0.466384232 -0.278792918 0
v 0.497979909 -0.499481022 0
v 0.466545969 -0.466494858 0
v 0.434084088 -0.0848490298 0
v 0.434598058 -0.259178877 0
v 0.262620807 0.437609136 0
v 0.432542175 0.438140512 0
v 0.0963869393 0.470172733 0
v 0.100074485 0.503267765 0
v 0.435112029 -0.433508694 0
v 0.282093883 -0.466842175 0
v 0.0926994532 0.437077761 0
v -0.0882881582 0.469251662 0
v -0.0993543565 0.501956999 0
v -0.0772219151 0.436546385 0
v -0.272963256 0.468330592 0
v -0.298783183 0.500646234 0
v -0.457638353 0.467409521 0
v -0.498212039 0.499335408 0
v -0.417064667 0.435483634 0
v -0.247143283 0.43601501 0
v -0.37649101 0.403557777 0
v -0.221323371 0.403699428 0
v -0.0661557317 0.403841078 0
v 0.0890119076 0.403982759 0
v 0.244179547 0.404124439 0
v 0.399347186 0.404266089 0
v 0.400213361 0.24330835 0
v 0.401079535 0.0823506266 0
v 0.40194571 -0.0786071122 0
v 0.402811885 -0.239564836 0
v 0.403678089 -0.40052256 0
v 0.264814407 -0.433782488 0
v 0.247534916 -0.400722831 0
v 0.094516784 -0.434056282 0
v 0.0913917571 -0.400923073 0
v 0.097641781 -0.467189491 0
v -0.0757808387 -0.434330076 0
v -0.0647514164 -0.401123345 0
v -0.0868103206 -0.467536807 0
v -0.246078476 -0.43460387 0
v -0.220894575 -0.401323617 0
v -0.271262407 -0.467884123 0
v -0.416376114 -0.434877634 0
v -0.377037734 -0.401523858 0
v -0.455714524 -0.46823144 0
v -0.416505277 -0.326158285 0
v -0.376948595 -0.301030636 0
v -0.456061959 -0.351285964 0
v -0.416634411 -0.217438951 0
v -0.376859456 -0.200537413 0
v -0.456409395 -0.234340489 0
v -0.416763544 -0.10871961 0
v -0.376770318 -0.100044206 0
v -0.45675683 -0.117395014 0
v -0.416892707 -2.68220901E-07 0
v -0.376681179 0.000449001789 0
v -0.457104266 -0.00044953078 0
v -0.417021871 0.108719066 0
v -0.37659204 0.100942202 0
v -0.457451701 0.116495945 0
v -0.417151004 0.2174384 0
v -0.376502872 0.201435417 0
v -0.457799137 0.233441412 0
v -0.417280138 0.326157749 0
v -0.376413703 0.30192861 0
v -0.417409301 0.434877068 0
v -0.376324564 0.402421802 0
v -0.458494037 0.467332363 0
v -0.458146572 0.350386888 0
v -0.499578774 0.499787629 0
v -0.499013036 0.374616027 0
v -0.498447299 0.24944441 0
v -0.497881562 0.124272794 0
v -0.497315824 -0.000898823142 0
v -0.496750116 -0.126070425 0
v -0.496184379 -0.251242042 0
v -0.495618641 -0.376413643 0
v -0.495052934 -0.501585245 0
v -0.296446383 -0.501164377 0
v -0.0978398025 -0.500743508 0
v 0.100766778 -0.5003227 0
v 0.299373329 -0.499901861 0
v 0.466545969 -0.466494858 0
v 0.497979909 -0.499481022 0
vt 0.699999928 0.333333373
vt 0.75 0.666666687
vt 0.75 0.333333373
vt 0.700000048 0.666666746
vt 0.649999976 0.333333373
vt 0.649999976 0
vt 0.699999928 0
vt 0.75 0.333333373
vt 0.600000024 0
vt 0.75 0
vt 0.599999905 0.333333373
vt 0.550000012 0
vt 0.799999952 0.333333343
vt 0.800000012 0
vt 0.650000036 0.666666746
vt 0.549999952 0.333333343
vt 0.5 0
vt 0.49999994 0.333333343
vt 0.599999905 0.666666627
vt 0.549999952 0.666666627
vt 0.799999893 0.666666687
vt 0.75 0.666666687
vt 0.849999905 0.333333343
vt 0.850000024 0
vt 0.49999994 0.666666687
vt 0.449999928 0.333333313
vt 0.849999964 0.666666746
vt 0.899999976 0.333333373
vt 0.899999976 0
vt 0.900000036 0.666666746
vt 0.949999869 0.333333373
vt 0.949999988 0
vt 0.99999994 0.333333343
vt 1 0
vt 1 0.666666746
vt 0.950000048 0.666666746
vt 1 1
vt 0.950000048 1
vt 0.899999976 1
vt 0.849999964 1
vt 0.799999893 0.999999881
vt 0.75 1
vt 0.699999988 0.999999881
vt 0.650000036 1
vt 0.600000024 1
vt 0.550000012 1
vt 0.49999997 1
vt 0.449999899 0.666666627
vt 0.449999988 1
vt 0.399999946 0.666666627
vt 0.399999976 0.99999994
vt 0.399999917 0.333333343
vt 0.349999964 0.666666627
vt 0.349999964 1
vt 0.349999994 0.333333343
vt 0.299999893 0.666666508
vt 0.299999952 1
vt 0.299999982 0.333333343
vt 0.24999997 0.666666627
vt 0.249999985 1
vt 0.24999997 0.333333343
vt 0.218749955 0.666666508
vt 0.21875 1
vt 0.21874994 0.333333343
vt 0.18749994 0.666666567
vt 0.1875 1
vt 0.18749997 0.333333343
vt 0.156249955 0.666666627
vt 0.156249985 1
vt 0.15624997 0.333333373
vt 0.12499997 0.666666567
vt 0.124999985 1
vt 0.12499997 0.333333343
vt 0.0937499851 0.666666627
vt 0.0937499851 0.99999994
vt 0.0937499776 0.333333284
vt 0.0624999776 0.666666508
vt 0.0624999925 1
vt 0.0624999888 0.333333313
vt 0.0312499925 0.666666627
vt 0.03125 1
vt 0 0.666666627
vt 0 1
vt 0 0.333333313
vt 0.0312499925 0.333333313
vt 0 0
vt 0.03125 0
vt 0.0625 0
vt 0.09375 0
vt 0.125 0
vt 0.15625 0
vt 0.1875 0
vt 0.21875 0
vt 0.25 0
vt 0.300000012 0
vt 0.350000024 0
vt 0.400000036 0
vt 0.449999958 0
vt 0.49999994 0.333333343
vt 0.5 0
vn -0 0 1
vn -0 0 1
vn -0 0 1
vn -0 0 1
vn -0 0 1
vn -0 0 1
vn -0 0 1
vn -0 0 1
vn -0 0 1
vn -0 0 1
vn -0 0 1
vn -0 0 1
vn -0 0 1
vn -0 0 1
vn -0 0 1
vn -0 0 1
vn -0 0 1
vn -0 0 1
vn -0 0 1
vn -0 0 1
vn -0 0 1
vn -0 0 1
vn -0 0 1
vn -0 0 1
vn -0 0 1
vn -0 0 1
vn -0 0 1
vn -0 0 1
vn -0 0 1
vn -0 0 1
vn -0 0 1
vn -0 0 1
vn -0 0 1
vn -0 0 1
vn -0 0 1
vn -0 0 1
vn -0 0 1
vn -0 0 1
vn -0 0 1
vn -0 0 1
vn -0 0 1
vn -0 0 1
vn -0 0 1
vn -0 0 1
vn -0 0 1
vn -0 0 1
vn -0 0 1
vn -0 0 1
vn -0 0 1
vn -0 0 1
vn -0 0 1
vn -0 0 1
vn -0 0 1
vn -0 0 1
vn -0 0 1
vn -0 0 1
vn -0 0 1
vn -0 0 1
vn -0 0 1
vn -0 0 1
vn -0 0 1
vn -0 0 1
vn -0 0 1
vn -0 0 1
vn -0 0 1
vn -0 0 1
vn -0 0 1
vn -0 0 1
vn -0 0 1
vn -0 0 1
vn -0 0 1
vn -0 0 1
vn -0 0 1
vn -0 0 1
vn -0 0 1
vn -0 0 1
vn -0 0 1
vn -0 0 1
vn -0 0 1
vn -0 0 1
vn -0 0 1
vn -0 0 1
vn -0 0 1
vn -0 0 1
vn -0 0 1
vn -0 0 1
vn -0 0 1
vn -0 0 1
vn -0 0 1
vn -0 0 1
vn -0 0 1
vn -0 0 1
vn -0 0 1
vn -0 0 1
vn -0 0 1
vn -0 0 1
vn -0 0 1
vn -0 0 1
vn -0 0 1
vn -0 0 1
g general_plane_03_0
f 3/3/3 2/2/2 1/1/1
f 2/2/2 4/4/4 1/1/1
f 1/1/1 4/4/4 5/5/5
f 1/1/1 5/5/5 6/6/6
f 7/7/7 1/1/1 6/6/6
f 8/8/8 1/1/1 7/7/7
f 6/6/6 5/5/5 9/9/9
f 10/10/10 8/8/8 7/7/7
f 5/5/5 11/11/11 9/9/9
f 9/9/9 11/11/11 12/12/12
f 13/13/13 8/8/8 10/10/10
f 14/14/14 13/13/13 10/10/10
f 4/4/4 15/15/15 5/5/5
f 5/5/5 15/15/15 11/11/11
f 11/11/11 16/16/16 12/12/12
f 12/12/12 16/16/16 17/17/17
f 16/16/16 18/18/18 17/17/17
f 11/11/11 19/19/19 16/16/16
f 15/15/15 19/19/19 11/11/11
f 16/16/16 20/20/20 18/18/18
f 19/19/19 20/20/20 16/16/16
f 13/13/13 21/21/21 8/8/8
f 21/21/21 22/22/22 8/8/8
f 23/23/23 13/13/13 14/14/14
f 24/24/24 23/23/23 14/14/14
f 20/20/20 25/25/25 18/18/18
f 18/18/18 25/25/25 26/26/26
f 27/27/27 21/21/21 13/13/13
f 23/23/23 27/27/27 13/13/13
f 28/28/28 23/23/23 24/24/24
f 29/29/29 28/28/28 24/24/24
f 30/30/30 27/27/27 23/23/23
f 28/28/28 30/30/30 23/23/23
f 31/31/31 28/28/28 29/29/29
f 32/32/32 31/31/31 29/29/29
f 33/33/33 31/31/31 32/32/32
f 34/34/34 33/33/33 32/32/32
f 33/33/33 35/35/35 31/31/31
f 31/31/31 36/36/36 28/28/28
f 35/35/35 36/36/36 31/31/31
f 36/36/36 30/30/30 28/28/28
f 35/35/35 37/37/37 36/36/36
f 37/37/37 38/38/38 36/36/36
f 36/36/36 38/38/38 30/30/30
f 38/38/38 39/39/39 30/30/30
f 30/30/30 39/39/39 27/27/27
f 39/39/39 40/40/40 27/27/27
f 27/27/27 40/40/40 21/21/21
f 40/40/40 41/41/41 21/21/21
f 21/21/21 41/41/41 22/22/22
f 41/41/41 42/42/42 22/22/22
f 22/22/22 42/42/42 4/4/4
f 42/42/42 43/43/43 4/4/4
f 4/4/4 43/43/43 15/15/15
f 43/43/43 44/44/44 15/15/15
f 15/15/15 44/44/44 19/19/19
f 44/44/44 45/45/45 19/19/19
f 19/19/19 45/45/45 20/20/20
f 45/45/45 46/46/46 20/20/20
f 20/20/20 46/46/46 25/25/25
f 46/46/46 47/47/47 25/25/25
f 25/25/25 47/47/47 48/48/48
f 47/47/47 49/49/49 48/48/48
f 25/25/25 48/48/48 26/26/26
f 48/48/48 49/49/49 50/50/50
f 49/49/49 51/51/51 50/50/50
f 26/26/26 48/48/48 52/52/52
f 48/48/48 50/50/50 52/52/52
f 50/50/50 51/51/51 53/53/53
f 51/51/51 54/54/54 53/53/53
f 52/52/52 50/50/50 55/55/55
f 50/50/50 53/53/53 55/55/55
f 53/53/53 54/54/54 56/56/56
f 54/54/54 57/57/57 56/56/56
f 55/55/55 53/53/53 58/58/58
f 53/53/53 56/56/56 58/58/58
f 56/56/56 57/57/57 59/59/59
f 57/57/57 60/60/60 59/59/59
f 58/58/58 56/56/56 61/61/61
f 56/56/56 59/59/59 61/61/61
f 59/59/59 60/60/60 62/62/62
f 60/60/60 63/63/63 62/62/62
f 61/61/61 59/59/59 64/64/64
f 59/59/59 62/62/62 64/64/64
f 62/62/62 63/63/63 65/65/65
f 63/63/63 66/66/66 65/65/65
f 64/64/64 62/62/62 67/67/67
f 62/62/62 65/65/65 67/67/67
f 65/65/65 66/66/66 68/68/68
f 66/66/66 69/69/69 68/68/68
f 67/67/67 65/65/65 70/70/70
f 65/65/65 68/68/68 70/70/70
f 68/68/68 69/69/69 71/71/71
f 69/69/69 72/72/72 71/71/71
f 70/70/70 68/68/68 73/73/73
f 68/68/68 71/71/71 73/73/73
f 71/71/71 72/72/72 74/74/74
f 72/72/72 75/75/75 74/74/74
f 73/73/73 71/71/71 76/76/76
f 71/71/71 74/74/74 76/76/76
f 74/74/74 75/75/75 77/77/77
f 75/75/75 78/78/78 77/77/77
f 76/76/76 74/74/74 79/79/79
f 74/74/74 77/77/77 79/79/79
f 77/77/77 78/78/78 80/80/80
f 78/78/78 81/81/81 80/80/80
f 80/80/80 81/81/81 82/82/82
f 81/81/81 83/83/83 82/82/82
f 80/80/80 82/82/82 84/84/84
f 77/77/77 80/80/80 85/85/85
f 85/85/85 80/80/80 84/84/84
f 79/79/79 77/77/77 85/85/85
f 85/85/85 84/84/84 86/86/86
f 87/87/87 85/85/85 86/86/86
f 79/79/79 85/85/85 87/87/87
f 88/88/88 79/79/79 87/87/87
f 76/76/76 79/79/79 88/88/88
f 89/89/89 76/76/76 88/88/88
f 73/73/73 76/76/76 89/89/89
f 90/90/90 73/73/73 89/89/89
f 70/70/70 73/73/73 90/90/90
f 91/91/91 70/70/70 90/90/90
f 67/67/67 70/70/70 91/91/91
f 92/92/92 67/67/67 91/91/91
f 64/64/64 67/67/67 92/92/92
f 93/93/93 64/64/64 92/92/92
f 61/61/61 64/64/64 93/93/93
f 94/94/94 61/61/61 93/93/93
f 58/58/58 61/61/61 94/94/94
f 95/95/95 58/58/58 94/94/94
f 55/55/55 58/58/58 95/95/95
f 96/96/96 55/55/55 95/95/95
f 52/52/52 55/55/55 96/96/96
f 97/97/97 52/52/52 96/96/96
f 26/26/26 52/52/52 97/97/97
f 98/98/98 26/26/26 97/97/97
f 99/99/99 26/26/26 98/98/98
f 100/100/100 99/99/99 98/98/98
