g Cone003
v 0.971684873 0.971684873 0
v 0.597476304 1.03485954 0
v 0.687084913 1.19006622 0
v 0.844959199 0.844959199 0
v 0.507867694 0.879652798 0
v 0.718233407 0.718233407 0
v 1.03485942 0.597476363 0
v 0.418258995 0.724445999 0
v 0.879652679 0.507867754 0
v 1.1542356 0.309276521 0
v 0.591507614 0.591507614 0
v 0.328650445 0.569239378 0
v 0.46478194 0.46478194 0
v 0.23904182 0.414032668 0
v 0.338056237 0.338056237 0
v 0.724445939 0.418259054 0
v 0.981125057 0.26289168 0
v 1.19495273 0 0
v 0.808014452 0.216506809 0
v 1.01573551 0 0
v 1.15423548 -0.309277385 0
v 0.836518109 0 0
v 0.981124878 -0.262892395 0
v 1.03485906 -0.597477078 0
v 0.808014274 -0.21650742 0
v 0.879652381 -0.50786829 0
v 0.724445701 -0.418259531 0
v 0.844958663 -0.844959736 0
v 0.718232989 -0.718233883 0
v 0.591507256 -0.591508031 0
v 0.507867217 -0.879652977 0
v 0.418258607 -0.724446177 0
v 0.597475767 -1.03485978 0
v 0.262891173 -0.981125295 0
v 0.216506407 -0.808014512 0
v 0.687084317 -1.19006646 0
v 0.971684277 -0.971685529 0
v 0.355660677 -1.32734644 0
v 0.309275895 -1.15423584 0
v -5.55548183E-07 -1.19495273 0
v -4.72227924E-07 -1.01573551 0
v -3.88907551E-07 -0.836518109 0
v -0.309276968 -1.15423548 0
v -0.262892067 -0.981124997 0
v -0.216507137 -0.808014333 0
v -0.507868052 -0.8796525 0
v -0.418259293 -0.72444582 0
v -0.597476721 -1.03485918 0
v -0.718233883 -0.718233049 0
v -0.591507971 -0.591507375 0
v -0.68708539 -1.19006586 0
v -0.355661899 -1.32734609 0
v -0.971685469 -0.971684396 0
v -0.844959676 -0.844958663 0
v -1.03485966 -0.597475886 0
v -0.879652977 -0.507867277 0
v -0.724446118 -0.418258727 0
v -1.15423584 -0.309276044 0
v -0.981125295 -0.262891263 0
v -0.808014512 -0.216506481 0
v -1.19495273 4.65331766E-07 0
v -1.01573551 3.95541974E-07 0
v -0.836518109 3.25752154E-07 0
v -1.1542356 0.309276909 0
v -0.981125057 0.262892008 0
v -0.808014393 0.216507077 0
v -1.0348593 0.597476661 0
v -0.879652619 0.507867992 0
v -0.72444582 0.418259263 0
v -0.844958961 0.844959378 0
v -0.718233228 0.718233645 0
v -0.597476184 1.03485954 0
v -0.591507494 0.591507792 0
v -0.507867575 0.879652798 0
v -0.418258905 0.724446058 0
vt 0.879600763 0.879600763
vt 0.733411551 0.904280782
vt 0.768418312 0.964914203
vt 0.830093861 0.830093861
vt 0.698404908 0.843647361
vt 0.780586958 0.780586958
vt 0.904280782 0.73341167
vt 0.663398147 0.783013821
vt 0.843647361 0.698404908
vt 0.950916529 0.620822787
vt 0.731079817 0.731079817
vt 0.628391385 0.7223804
vt 0.681572914 0.681572914
vt 0.593384743 0.661746979
vt 0.632065892 0.632065892
vt 0.783013821 0.663398147
vt 0.883288741 0.602701902
vt 0.96682322 0.5
vt 0.815660954 0.584581017
vt 0.896809697 0.5
vt 0.950916529 0.379176944
vt 0.826796293 0.5
vt 0.883288741 0.397297829
vt 0.904280543 0.266588151
vt 0.815660954 0.415418655
vt 0.843647122 0.301594913
vt 0.783013701 0.336601704
vt 0.830093622 0.169905931
vt 0.7805866 0.219412923
vt 0.731079698 0.268920004
vt 0.698404551 0.15635258
vt 0.663397908 0.216986045
vt 0.733411312 0.0957191065
vt 0.602701783 0.116711169
vt 0.584580898 0.184339046
vt 0.768418074 0.0350856632
vt 0.879600644 0.120398909
vt 0.638943195 -0.0185444243
vt 0.620822549 0.0490833595
vt 0.499999762 0.0331767872
vt 0.499999821 0.103190266
vt 0.499999821 0.173203766
vt 0.379177064 0.0490834862
vt 0.397297949 0.116711274
vt 0.415418774 0.184339121
vt 0.301595002 0.156352773
vt 0.336601794 0.216986224
vt 0.266588271 0.0957193226
vt 0.219412953 0.219413295
vt 0.268920004 0.268920273
vt 0.231581494 0.0350859463
vt 0.361056209 -0.0185443275
vt 0.120398939 0.120399348
vt 0.169905961 0.169906333
vt 0.0957191363 0.266588598
vt 0.15635258 0.3015953
vt 0.216986075 0.336602002
vt 0.0490833595 0.379177481
vt 0.116711169 0.397298276
vt 0.184339046 0.415419042
vt 0.0331767872 0.500000179
vt 0.103190266 0.500000119
vt 0.173203766 0.500000119
vt 0.0490834489 0.620822906
vt 0.116711229 0.602702022
vt 0.184339091 0.584581256
vt 0.0957192928 0.733411789
vt 0.156352729 0.698404908
vt 0.216986194 0.663398266
vt 0.169906244 0.830093861
vt 0.219413221 0.780586958
vt 0.266588449 0.904280782
vt 0.268920213 0.731079936
vt 0.301595181 0.843647361
vt 0.336601913 0.783013821
vn -0 0 1
vn -0 0 1
vn -0 0 1
vn -0 0 1
vn -0 0 1
vn -0 0 1
vn -0 0 1
vn -0 0 1
vn -0 0 1
vn -0 0 1
vn -0 0 1
vn -0 0 1
vn -0 0 1
vn -0 0 1
vn -0 0 1
vn -0 0 1
vn -0 0 1
vn -0 0 1
vn -0 0 1
vn -0 0 1
vn -0 0 1
vn -0 0 1
vn -0 0 1
vn -0 0 1
vn -0 0 1
vn -0 0 1
vn -0 0 1
vn -0 0 1
vn -0 0 1
vn -0 0 1
vn -0 0 1
vn -0 0 1
vn -0 0 1
vn -0 0 1
vn -0 0 1
vn -0 0 1
vn -0 0 1
vn -0 0 1
vn -0 0 1
vn -0 0 1
vn -0 0 1
vn -0 0 1
vn -0 0 1
vn -0 0 1
vn -0 0 1
vn -0 0 1
vn -0 0 1
vn -0 0 1
vn -0 0 1
vn -0 0 1
vn -0 0 1
vn -0 0 1
vn -0 0 1
vn -0 0 1
vn -0 0 1
vn -0 0 1
vn -0 0 1
vn -0 0 1
vn -0 0 1
vn -0 0 1
vn -0 0 1
vn -0 0 1
vn -0 0 1
vn -0 0 1
vn -0 0 1
vn -0 0 1
vn -0 0 1
vn -0 0 1
vn -0 0 1
vn -0 0 1
vn -0 0 1
vn -0 0 1
vn -0 0 1
vn -0 0 1
vn -0 0 1
g Cone003_0
f 3/3/3 2/2/2 1/1/1
f 2/2/2 4/4/4 1/1/1
f 2/2/2 5/5/5 4/4/4
f 5/5/5 6/6/6 4/4/4
f 4/4/4 6/6/6 7/7/7
f 5/5/5 8/8/8 6/6/6
f 6/6/6 9/9/9 7/7/7
f 7/7/7 9/9/9 10/10/10
f 8/8/8 11/11/11 6/6/6
f 6/6/6 11/11/11 9/9/9
f 8/8/8 12/12/12 11/11/11
f 12/12/12 13/13/13 11/11/11
f 12/12/12 14/14/14 13/13/13
f 14/14/14 15/15/15 13/13/13
f 11/11/11 16/16/16 9/9/9
f 9/9/9 17/17/17 10/10/10
f 9/9/9 16/16/16 17/17/17
f 10/10/10 17/17/17 18/18/18
f 16/16/16 19/19/19 17/17/17
f 17/17/17 20/20/20 18/18/18
f 17/17/17 19/19/19 20/20/20
f 18/18/18 20/20/20 21/21/21
f 19/19/19 22/22/22 20/20/20
f 20/20/20 23/23/23 21/21/21
f 20/20/20 22/22/22 23/23/23
f 21/21/21 23/23/23 24/24/24
f 22/22/22 25/25/25 23/23/23
f 23/23/23 26/26/26 24/24/24
f 23/23/23 25/25/25 26/26/26
f 25/25/25 27/27/27 26/26/26
f 24/24/24 26/26/26 28/28/28
f 26/26/26 27/27/27 29/29/29
f 26/26/26 29/29/29 28/28/28
f 27/27/27 30/30/30 29/29/29
f 29/29/29 30/30/30 31/31/31
f 30/30/30 32/32/32 31/31/31
f 28/28/28 29/29/29 33/33/33
f 29/29/29 31/31/31 33/33/33
f 31/31/31 32/32/32 34/34/34
f 32/32/32 35/35/35 34/34/34
f 28/28/28 33/33/33 36/36/36
f 37/37/37 28/28/28 36/36/36
f 36/36/36 33/33/33 38/38/38
f 33/33/33 39/39/39 38/38/38
f 33/33/33 31/31/31 39/39/39
f 31/31/31 34/34/34 39/39/39
f 39/39/39 34/34/34 40/40/40
f 34/34/34 35/35/35 41/41/41
f 34/34/34 41/41/41 40/40/40
f 35/35/35 42/42/42 41/41/41
f 40/40/40 41/41/41 43/43/43
f 41/41/41 42/42/42 44/44/44
f 41/41/41 44/44/44 43/43/43
f 42/42/42 45/45/45 44/44/44
f 44/44/44 45/45/45 46/46/46
f 45/45/45 47/47/47 46/46/46
f 43/43/43 44/44/44 48/48/48
f 44/44/44 46/46/46 48/48/48
f 46/46/46 47/47/47 49/49/49
f 47/47/47 50/50/50 49/49/49
f 43/43/43 48/48/48 51/51/51
f 52/52/52 43/43/43 51/51/51
f 51/51/51 48/48/48 53/53/53
f 48/48/48 54/54/54 53/53/53
f 48/48/48 46/46/46 54/54/54
f 46/46/46 49/49/49 54/54/54
f 54/54/54 49/49/49 55/55/55
f 49/49/49 50/50/50 56/56/56
f 49/49/49 56/56/56 55/55/55
f 50/50/50 57/57/57 56/56/56
f 55/55/55 56/56/56 58/58/58
f 56/56/56 57/57/57 59/59/59
f 56/56/56 59/59/59 58/58/58
f 57/57/57 60/60/60 59/59/59
f 58/58/58 59/59/59 61/61/61
f 59/59/59 60/60/60 62/62/62
f 59/59/59 62/62/62 61/61/61
f 60/60/60 63/63/63 62/62/62
f 61/61/61 62/62/62 64/64/64
f 62/62/62 63/63/63 65/65/65
f 62/62/62 65/65/65 64/64/64
f 63/63/63 66/66/66 65/65/65
f 64/64/64 65/65/65 67/67/67
f 65/65/65 66/66/66 68/68/68
f 65/65/65 68/68/68 67/67/67
f 66/66/66 69/69/69 68/68/68
f 67/67/67 68/68/68 70/70/70
f 68/68/68 69/69/69 71/71/71
f 68/68/68 71/71/71 70/70/70
f 70/70/70 71/71/71 72/72/72
f 69/69/69 73/73/73 71/71/71
f 71/71/71 74/74/74 72/72/72
f 71/71/71 73/73/73 74/74/74
f 73/73/73 75/75/75 74/74/74
