g Plane005
v 0.162142754 -0.245074555 0
v 0.14987421 -0.230700627 -3.27006148E-07
v 0.144833982 -0.261003137 0
v 0.132906482 -0.254872292 -3.27006148E-07
v 0.13140288 -0.216210037 -6.31460068E-07
v 0.114726573 -0.247157946 -6.31460068E-07
v 0.106385097 -0.201010182 -9.13361873E-07
v 0.0896546319 -0.237771988 -9.13361873E-07
v 0.0743107125 -0.184625581 -1.1727119E-06
v 0.0572172068 -0.226508945 -1.1727119E-06
v 0.0398986042 -0.168722644 -1.40950931E-06
v 0.0232149344 -0.215535507 -1.40950931E-06
v 0.0175196193 -0.159661189 -1.62375488E-06
v 0.00325391954 -0.211503446 -1.62375488E-06
v -0.0085758334 -0.15117158 -1.81544794E-06
v -0.0217336304 -0.207098573 -1.81544794E-06
v -0.0375603512 -0.142976061 -1.98458906E-06
v -0.050422091 -0.202350095 -1.98458906E-06
v -0.0684505701 -0.134902567 -2.13117801E-06
v -0.0816422999 -0.197181538 -2.13117801E-06
v -0.100188799 -0.126817092 -2.25521467E-06
v -0.114299178 -0.191478252 -2.25521467E-06
v -0.131666526 -0.118609011 -2.3566995E-06
v -0.147348464 -0.185102239 -2.3566995E-06
v -0.161721185 -0.110195793 -2.43563204E-06
v -0.179800317 -0.177887514 -2.43563204E-06
v -0.189109683 -0.101547286 -2.49201207E-06
v -0.210744843 -0.169615597 -2.49201207E-06
v -0.212448463 -0.0927572772 -2.52584027E-06
v -0.239412993 -0.159944117 -2.52584027E-06
v -0.2301002 -0.0842570439 -2.53711642E-06
v -0.265289426 -0.14819321 -2.53711642E-06
v -0.240115821 -0.0774867609 -2.5258405E-06
v -0.288170487 -0.132674068 -2.5258405E-06
v -0.241610244 -0.0763695538 -2.4920123E-06
v -0.306788445 -0.109215014 -2.4920123E-06
v -0.240736321 -0.0817886069 -2.43563204E-06
v -0.312655389 -0.0733862743 -2.43563204E-06
v -0.238791913 -0.075581558 -2.35669972E-06
v -0.302412063 -0.0430776812 -2.35669972E-06
v -0.229509056 -0.0601651669 -2.25521489E-06
v -0.285215586 -0.0176296346 -2.25521489E-06
v -0.21357809 -0.0401937552 -2.13117801E-06
v -0.263609886 0.00637143757 -2.13117801E-06
v -0.192960024 -0.0178528596 -1.98458929E-06
v -0.238868266 0.0298704449 -1.98458929E-06
v -0.169551224 0.00563982641 -1.81544794E-06
v -0.21232909 0.0528442487 -1.81544794E-06
v -0.145120591 0.0294216592 -1.62375466E-06
v -0.185457647 0.0749148726 -1.62375466E-06
v -0.121343903 0.0527924225 -1.40950976E-06
v -0.159812644 0.0955417901 -1.40950976E-06
v -0.099810645 0.075177066 -1.17271213E-06
v -0.137038782 0.11405956 -1.17271213E-06
v -0.0819829032 0.0962202698 -9.13362157E-07
v -0.118908532 0.129582688 -9.13362157E-07
v -0.0690892637 0.11632061 -6.31460637E-07
v -0.107427843 0.140471682 -6.31460637E-07
v -0.0603756495 0.144759715 -3.27007001E-07
v -0.0998188332 0.153819144 -3.27007001E-07
v -0.0640053228 0.176966056 0
v -0.0969392359 0.164423347 0
v 0.218660757 -0.198479712 0
v 0.238891765 -0.190305412 0
v 0.199812323 -0.165412307 0
v 0.215450943 -0.152474627 0
v 0.259233385 -0.180481911 0
v 0.230256796 -0.139161482 0
v 0.277975678 -0.169859782 0
v 0.242927924 -0.126243427 0
v 0.295113057 -0.15833886 0
v 0.253469884 -0.113820665 0
v 0.310609758 -0.145801872 0
v 0.261918455 -0.102010727 0
v 0.324381977 -0.132124946 0
v 0.268357396 -0.0909372121 0
v 0.336279571 -0.117203385 0
v 0.27293691 -0.0807049051 0
v 0.346078008 -0.100994699 0
v 0.275881529 -0.0713562742 0
v 0.353498131 -0.0835722759 0
v 0.27747038 -0.0628179461 0
v 0.358264565 -0.0651625618 0
v 0.277978808 -0.0548635535 0
v 0.359820008 -0.0437258258 0
v 0.277410001 -0.0493088961 0
v 0.356972218 -0.0221553948 0
v 0.275624156 -0.0421758778 0
v 0.350868285 -0.00186512957 0
v 0.272114694 -0.0324200951 0
v 0.342384636 0.0173549522 0
v 0.266776919 -0.0208062828 0
v 0.332090586 0.0356304236 0
v 0.2598131 -0.00801446009 0
v 0.320422828 0.0529636145 0
v 0.251558214 0.00539841363 0
v 0.307765663 0.0692648068 0
v 0.242399693 0.0189672522 0
v 0.294482112 0.0843856037 0
v 0.23274596 0.0322860815 0
v 0.280924052 0.0981427208 0
v 0.223017156 0.0449832864 0
v 0.26742956 0.110336579 0
v 0.213646427 0.0567041561 0
v 0.253273457 0.121668756 0
v 0.204611436 0.0674918741 0
v 0.237736717 0.132365882 0
v 0.194998488 0.0779256001 0
v 0.221515208 0.141715527 0
v 0.184804976 0.087925829 0
v 0.204687461 0.149692684 0
v 0.17395246 0.0975175574 0
v 0.187331751 0.156286657 0
v 0.16236265 0.106711484 0
v 0.169521943 0.161500722 0
v 0.149961635 0.115504287 0
v 0.151323825 0.165350631 0
v 0.136683494 0.123880327 0
v 0.132792935 0.167861819 0
v 0.122473069 0.131814018 0
v 0.113972619 0.169066623 0
v 0.107286669 0.139273152 0
v 0.0954246968 0.168943465 0
v 0.0912834033 0.146223605 0
vt 0 1
vt 0.0333333351 1
vt 0 0
vt 0.0333333351 0
vt 0.0666666701 1
vt 0.0666666701 0
vt 0.100000009 1
vt 0.100000009 0
vt 0.13333334 1
vt 0.13333334 0
vt 0.166666672 1
vt 0.166666672 0
vt 0.200000003 1
vt 0.200000003 0
vt 0.233333334 1
vt 0.233333334 0
vt 0.266666681 1
vt 0.266666681 0
vt 0.300000012 1
vt 0.300000012 0
vt 0.333333343 1
vt 0.333333343 0
vt 0.366666675 1
vt 0.366666675 0
vt 0.400000006 1
vt 0.400000006 0
vt 0.433333337 1
vt 0.433333337 0
vt 0.466666669 1
vt 0.466666669 0
vt 0.5 1
vt 0.5 0
vt 0.533333361 1
vt 0.533333361 0
vt 0.566666722 1
vt 0.566666722 0
vt 0.600000083 1
vt 0.600000083 0
vt 0.633333445 1
vt 0.633333445 0
vt 0.666666806 1
vt 0.666666806 0
vt 0.700000167 1
vt 0.700000167 0
vt 0.733333528 1
vt 0.733333528 0
vt 0.766666889 1
vt 0.766666889 0
vt 0.80000025 1
vt 0.80000025 0
vt 0.833333611 1
vt 0.833333611 0
vt 0.866666973 1
vt 0.866666973 0
vt 0.900000334 1
vt 0.900000334 0
vt 0.933333695 1
vt 0.933333695 0
vt 0.966667056 1
vt 0.966667056 0
vt 1.00000036 1
vt 1.00000036 0
vt 0.435551554 1
vt 0.468884885 1
vt 0.435551554 0
vt 0.468884885 0
vt 0.502218246 1
vt 0.502218246 0
vt 0.535551548 1
vt 0.535551548 0
vt 0.568884909 1
vt 0.568884909 0
vt 0.602218211 1
vt 0.602218211 0
vt 0.635551572 1
vt 0.635551572 0
vt 0.668884873 1
vt 0.668884873 0
vt 0.702218235 1
vt 0.702218235 0
vt 0.735551596 1
vt 0.735551596 0
vt 0.768884897 1
vt 0.768884897 0
vt 0.802218199 1
vt 0.802218199 0
vt 0.83555156 1
vt 0.83555156 0
vt 0.868884921 1
vt 0.868884921 0
vt 0.902218223 1
vt 0.902218223 0
vt 0.935551524 1
vt 0.935551524 0
vt 0.968884945 1
vt 0.968884945 0
vt 1.00221825 1
vt 1.00221825 0
vt 1.03555167 1
vt 1.03555167 0
vt 1.06888497 1
vt 1.06888497 0
vt 1.10221839 1
vt 1.10221839 0
vt 1.13555169 1
vt 1.13555169 0
vt 1.16888511 1
vt 1.16888511 0
vt 1.20221841 1
vt 1.20221841 0
vt 1.23555183 1
vt 1.23555183 0
vt 1.26888514 1
vt 1.26888514 0
vt 1.30221856 1
vt 1.30221856 0
vt 1.33555186 1
vt 1.33555186 0
vt 1.36888528 1
vt 1.36888528 0
vt 1.40221858 1
vt 1.40221858 0
vt 1.43555188 1
vt 1.43555188 0
vn 1.17257105E-05 -1.27417316E-05 -1
vn 1.24004227E-05 -1.0040415E-05 -1
vn 1.72473356E-05 -1.36601466E-05 -1
vn 1.59282426E-05 -1.03992616E-05 -1
vn 1.00095413E-05 -5.89084812E-06 -1
vn 1.12376347E-05 -5.79424886E-06 -1
vn 7.69404232E-06 -3.69763757E-06 -1
vn 8.13948554E-06 -3.60500326E-06 -1
vn 6.25413395E-06 -2.63366996E-06 -1
vn 6.51108439E-06 -2.55850932E-06 -1
vn 7.22661798E-06 -2.65747394E-06 -1
vn 8.06550725E-06 -2.55224086E-06 -1
vn 7.72847943E-06 -2.36660026E-06 -1
vn 8.60375621E-06 -2.25588587E-06 -1
vn 6.16610259E-06 -1.54283839E-06 -1
vn 6.46301532E-06 -1.48132119E-06 -1
vn 4.99708358E-06 -1.11690042E-06 -1
vn 5.0890535E-06 -1.09445364E-06 -1
vn 4.09542145E-06 -8.74733871E-07 -1
vn 4.09355926E-06 -8.75611761E-07 -1
vn 3.36401763E-06 -7.26072187E-07 -1
vn 3.30654825E-06 -7.40547307E-07 -1
vn 2.73432192E-06 -6.26464669E-07 -1
vn 2.63365814E-06 -6.47907541E-07 -1
vn 2.15217892E-06 -5.47937077E-07 -1
vn 2.01048465E-06 -5.69645977E-07 -1
vn 1.56225587E-06 -4.62070233E-07 -1
vn 1.38363873E-06 -4.74273719E-07 -1
vn 8.77641185E-07 -3.12465602E-07 -1
vn 7.08545599E-07 -3.06015608E-07 -1
vn -0 0 -1
vn -0 0 -1
vn -6.80870789E-06 5.82004441E-06 -1
vn -5.30535999E-07 7.39384348E-07 -1
vn -3.71307906E-05 4.1517982E-05 -1
vn -3.08939349E-07 1.61844912E-06 -1
vn -1.32358637E-05 8.57620544E-05 -1
vn 6.83090377E-07 2.24845098E-06 -1
vn 1.94681911E-06 7.44128283E-06 -1
vn 1.62282413E-06 2.62998492E-06 -1
vn 2.68187864E-06 4.15311251E-06 -1
vn 2.34870799E-06 2.84167686E-06 -1
vn 3.06628613E-06 3.5539656E-06 -1
vn 2.87896455E-06 2.96938538E-06 -1
vn 3.44756108E-06 3.45074409E-06 -1
vn 3.3451272E-06 3.15038619E-06 -1
vn 3.89928937E-06 3.60656622E-06 -1
vn 3.84982741E-06 3.4622974E-06 -1
vn 4.47497223E-06 3.99657438E-06 -1
vn 4.47202319E-06 3.9858046E-06 -1
vn 5.23722838E-06 4.6901614E-06 -1
vn 5.30293437E-06 4.87997568E-06 -1
vn 6.25414577E-06 5.86773376E-06 -1
vn 6.48284777E-06 6.56080329E-06 -1
vn 7.45899069E-06 7.85522025E-06 -1
vn 8.22908078E-06 1.06115867E-05 -1
vn 7.1305285E-06 9.62488502E-06 -1
vn 7.56471127E-06 1.55964772E-05 -1
vn 4.06406389E-06 1.09252751E-05 -1
vn 2.82391994E-07 2.09405043E-05 -1
vn -0 1.42375475E-05 -1
vn -1.30990011E-05 3.43945721E-05 -1
vn -0 0 -1
vn -0 0 -1
vn -0 0 -1
vn -0 0 -1
vn -0 0 -1
vn -0 0 -1
vn -0 0 -1
vn -0 0 -1
vn -0 0 -1
vn -0 0 -1
vn -0 0 -1
vn -0 0 -1
vn -0 0 -1
vn -0 0 -1
vn -0 0 -1
vn -0 0 -1
vn -0 0 -1
vn -0 0 -1
vn -0 0 -1
vn -0 0 -1
vn -0 0 -1
vn -0 0 -1
vn -0 0 -1
vn -0 0 -1
vn -0 0 -1
vn -0 0 -1
vn -0 0 -1
vn -0 0 -1
vn -0 0 -1
vn -0 0 -1
vn -0 0 -1
vn -0 0 -1
vn -0 0 -1
vn -0 0 -1
vn -0 0 -1
vn -0 0 -1
vn -0 0 -1
vn -0 0 -1
vn -0 0 -1
vn -0 0 -1
vn -0 0 -1
vn -0 0 -1
vn -0 0 -1
vn -0 0 -1
vn -0 0 -1
vn -0 0 -1
vn -0 0 -1
vn -0 0 -1
vn -0 0 -1
vn -0 0 -1
vn -0 0 -1
vn -0 0 -1
vn -0 0 -1
vn -0 0 -1
vn -0 0 -1
vn -0 0 -1
vn -0 0 -1
vn -0 0 -1
vn -0 0 -1
vn -0 0 -1
vn -0 0 -1
vn -0 0 -1
g Plane005_0
f 3/3/3 2/2/2 1/1/1
f 2/2/2 3/3/3 4/4/4
f 4/4/4 5/5/5 2/2/2
f 5/5/5 4/4/4 6/6/6
f 6/6/6 7/7/7 5/5/5
f 7/7/7 6/6/6 8/8/8
f 8/8/8 9/9/9 7/7/7
f 9/9/9 8/8/8 10/10/10
f 10/10/10 11/11/11 9/9/9
f 11/11/11 10/10/10 12/12/12
f 12/12/12 13/13/13 11/11/11
f 13/13/13 12/12/12 14/14/14
f 14/14/14 15/15/15 13/13/13
f 15/15/15 14/14/14 16/16/16
f 16/16/16 17/17/17 15/15/15
f 17/17/17 16/16/16 18/18/18
f 18/18/18 19/19/19 17/17/17
f 19/19/19 18/18/18 20/20/20
f 20/20/20 21/21/21 19/19/19
f 21/21/21 20/20/20 22/22/22
f 22/22/22 23/23/23 21/21/21
f 23/23/23 22/22/22 24/24/24
f 24/24/24 25/25/25 23/23/23
f 25/25/25 24/24/24 26/26/26
f 26/26/26 27/27/27 25/25/25
f 27/27/27 26/26/26 28/28/28
f 28/28/28 29/29/29 27/27/27
f 29/29/29 28/28/28 30/30/30
f 30/30/30 31/31/31 29/29/29
f 31/31/31 30/30/30 32/32/32
f 32/32/32 33/33/33 31/31/31
f 33/33/33 32/32/32 34/34/34
f 34/34/34 35/35/35 33/33/33
f 35/35/35 34/34/34 36/36/36
f 36/36/36 37/37/37 35/35/35
f 37/37/37 36/36/36 38/38/38
f 38/38/38 39/39/39 37/37/37
f 39/39/39 38/38/38 40/40/40
f 40/40/40 41/41/41 39/39/39
f 41/41/41 40/40/40 42/42/42
f 42/42/42 43/43/43 41/41/41
f 43/43/43 42/42/42 44/44/44
f 44/44/44 45/45/45 43/43/43
f 45/45/45 44/44/44 46/46/46
f 46/46/46 47/47/47 45/45/45
f 47/47/47 46/46/46 48/48/48
f 48/48/48 49/49/49 47/47/47
f 49/49/49 48/48/48 50/50/50
f 50/50/50 51/51/51 49/49/49
f 51/51/51 50/50/50 52/52/52
f 52/52/52 53/53/53 51/51/51
f 53/53/53 52/52/52 54/54/54
f 54/54/54 55/55/55 53/53/53
f 55/55/55 54/54/54 56/56/56
f 56/56/56 57/57/57 55/55/55
f 57/57/57 56/56/56 58/58/58
f 58/58/58 59/59/59 57/57/57
f 59/59/59 58/58/58 60/60/60
f 60/60/60 61/61/61 59/59/59
f 61/61/61 60/60/60 62/62/62
f 65/65/65 64/64/64 63/63/63
f 64/64/64 65/65/65 66/66/66
f 66/66/66 67/67/67 64/64/64
f 67/67/67 66/66/66 68/68/68
f 68/68/68 69/69/69 67/67/67
f 69/69/69 68/68/68 70/70/70
f 70/70/70 71/71/71 69/69/69
f 71/71/71 70/70/70 72/72/72
f 72/72/72 73/73/73 71/71/71
f 73/73/73 72/72/72 74/74/74
f 74/74/74 75/75/75 73/73/73
f 75/75/75 74/74/74 76/76/76
f 76/76/76 77/77/77 75/75/75
f 77/77/77 76/76/76 78/78/78
f 78/78/78 79/79/79 77/77/77
f 79/79/79 78/78/78 80/80/80
f 80/80/80 81/81/81 79/79/79
f 81/81/81 80/80/80 82/82/82
f 82/82/82 83/83/83 81/81/81
f 83/83/83 82/82/82 84/84/84
f 84/84/84 85/85/85 83/83/83
f 85/85/85 84/84/84 86/86/86
f 86/86/86 87/87/87 85/85/85
f 87/87/87 86/86/86 88/88/88
f 88/88/88 89/89/89 87/87/87
f 89/89/89 88/88/88 90/90/90
f 90/90/90 91/91/91 89/89/89
f 91/91/91 90/90/90 92/92/92
f 92/92/92 93/93/93 91/91/91
f 93/93/93 92/92/92 94/94/94
f 94/94/94 95/95/95 93/93/93
f 95/95/95 94/94/94 96/96/96
f 96/96/96 97/97/97 95/95/95
f 97/97/97 96/96/96 98/98/98
f 98/98/98 99/99/99 97/97/97
f 99/99/99 98/98/98 100/100/100
f 100/100/100 101/101/101 99/99/99
f 101/101/101 100/100/100 102/102/102
f 102/102/102 103/103/103 101/101/101
f 103/103/103 102/102/102 104/104/104
f 104/104/104 105/105/105 103/103/103
f 105/105/105 104/104/104 106/106/106
f 106/106/106 107/107/107 105/105/105
f 107/107/107 106/106/106 108/108/108
f 108/108/108 109/109/109 107/107/107
f 109/109/109 108/108/108 110/110/110
f 110/110/110 111/111/111 109/109/109
f 111/111/111 110/110/110 112/112/112
f 112/112/112 113/113/113 111/111/111
f 113/113/113 112/112/112 114/114/114
f 114/114/114 115/115/115 113/113/113
f 115/115/115 114/114/114 116/116/116
f 116/116/116 117/117/117 115/115/115
f 117/117/117 116/116/116 118/118/118
f 118/118/118 119/119/119 117/117/117
f 119/119/119 118/118/118 120/120/120
f 120/120/120 121/121/121 119/119/119
f 121/121/121 120/120/120 122/122/122
f 122/122/122 123/123/123 121/121/121
f 123/123/123 122/122/122 124/124/124
