g Ed_Ring
v 0.468571842 -0.152248204 -2.29888428E-08
v 0.430260122 -0.312602252 -0.0527463518
v 0.398590982 -0.289593309 -4.37273719E-08
v 0.505801082 -0.164344713 -0.0527463332
v 0.492685556 0 0
v 0.43987596 -0.319588542 -0.105492659
v 0.531830728 9.51720214E-09 -0.0527463071
v 0.46857205 0.152247518 2.29887362E-08
v 0.517105222 -0.168017656 -0.105492637
v 0.430260122 -0.312602222 -0.158238977
v 0.50580132 0.164344013 -0.052746281
v 0.398591399 0.289592773 4.37272973E-08
v 0.54371655 1.83825595E-08 -0.105492614
v 0.505801082 -0.164344698 -0.158238962
v 0.398590982 -0.289593279 -0.210985273
v 0.468571842 -0.152248174 -0.210985258
v 0.531830728 2.54461465E-08 -0.158238932
v 0.492685556 3.18578834E-08 -0.210985228
v 0.430260479 0.312601715 -0.0527462587
v 0.289593786 0.398590654 6.01855135E-08
v 0.51710552 0.168016925 -0.105492592
v 0.50580132 0.164344028 -0.158238903
v 0.46857205 0.152247548 -0.210985199
v 0.312602818 0.430259734 -0.05274624
v 0.152248725 0.468571633 7.07523569E-08
v 0.439876437 0.319588095 -0.10549257
v 0.430260479 0.312601775 -0.158238888
v 0.398591399 0.289592832 -0.210985184
v 0.164345279 0.505800903 -0.0527462289
v 4.75736755E-07 0.492685556 7.4393455E-08
v 0.319589168 0.439875633 -0.105492547
v 0.312602818 0.430259764 -0.158238873
v 0.289593786 0.398590684 -0.210985169
v 5.00695933E-07 0.531830788 -0.0527462251
v -0.152247831 0.468571961 7.07523995E-08
v 0.168018237 0.517105043 -0.105492532
v 0.164345279 0.505800962 -0.158238858
v 0.152248725 0.468571663 -0.210985154
v -0.164344341 0.50580126 -0.0527462289
v -0.289593041 0.398591161 6.01855987E-08
v 5.07988091E-07 0.543716669 -0.105492525
v 5.00695933E-07 0.531830788 -0.158238858
v 4.75736755E-07 0.492685586 -0.210985154
v -0.312602013 0.43026033 -0.05274624
v -0.398590833 0.289593518 4.37274075E-08
v -0.168017268 0.517105401 -0.105492532
v -0.164344341 0.50580126 -0.158238858
v -0.152247831 0.468571991 -0.210985154
v -0.430260032 0.31260252 -0.0527462587
v -0.468571752 0.152248427 2.2988873E-08
v -0.319588304 0.439876199 -0.105492547
v -0.312602013 0.43026036 -0.158238873
v -0.289593041 0.398591191 -0.210985169
v -0.505800962 0.164344996 -0.052746281
v -0.492685556 1.60537354E-07 2.42404651E-14
v -0.439875871 0.3195889 -0.10549257
v -0.430260032 0.31260255 -0.158238888
v -0.398590833 0.289593548 -0.210985184
v -0.531830847 1.82809657E-07 -0.0527463071
v -0.468571842 -0.152248114 -2.29888268E-08
v -0.517105103 0.168017924 -0.105492592
v -0.505800962 0.164345011 -0.158238903
v -0.468571752 0.152248457 -0.210985199
v -0.505801201 -0.164344624 -0.0527463332
v -0.398591012 -0.289593279 -4.37273719E-08
v -0.430260181 -0.312602252 -0.0527463518
v -0.543716729 1.95547912E-07 -0.105492614
v -0.531830847 1.98738604E-07 -0.158238932
v -0.492685556 1.92395234E-07 -0.210985228
v -0.517105222 -0.168017566 -0.105492637
v -0.43987602 -0.319588542 -0.105492659
v -0.505801201 -0.164344609 -0.158238962
v -0.468571842 -0.152248085 -0.210985258
v -0.430260181 -0.312602222 -0.158238977
v -0.398591012 -0.28959325 -0.210985273
vt 0.0739998817 0.999999821
vt 0.00299983122 0.749999821
vt 0.00299984217 0.999999821
vt 0.0739998743 0.749999821
vt 0.144999862 0.999999821
vt 0.00299987989 0.499999791
vt 0.144999906 0.749999821
vt 0.215999484 0.999999821
vt 0.0739998594 0.499999791
vt 0.00299974973 0.249999821
vt 0.215999469 0.749999762
vt 0.286999464 0.999999762
vt 0.144999906 0.499999791
vt 0.0739997327 0.249999821
vt 0.00299973879 -1.78813934E-07
vt 0.0739997178 -1.78813934E-07
vt 0.144999772 0.249999821
vt 0.144999757 -1.78813934E-07
vt 0.286999464 0.749999762
vt 0.357999623 0.999999762
vt 0.215999469 0.499999791
vt 0.215999335 0.249999821
vt 0.21599932 -1.78813934E-07
vt 0.357999623 0.749999762
vt 0.428999603 0.999999762
vt 0.286999494 0.499999791
vt 0.286999375 0.249999821
vt 0.286999375 -1.78813934E-07
vt 0.428999603 0.749999762
vt 0.499999642 0.999999762
vt 0.357999653 0.499999791
vt 0.357999474 0.249999762
vt 0.357999474 -2.38418579E-07
vt 0.499999642 0.749999762
vt 0.570999622 0.999999762
vt 0.428999633 0.499999791
vt 0.428999454 0.249999762
vt 0.428999454 -2.38418579E-07
vt 0.570999622 0.749999762
vt 0.641999722 0.999999762
vt 0.499999613 0.499999791
vt 0.499999434 0.249999762
vt 0.499999434 -2.38418579E-07
vt 0.641999722 0.749999762
vt 0.712999761 0.999999762
vt 0.570999563 0.499999791
vt 0.570999622 0.249999762
vt 0.570999622 -2.38418579E-07
vt 0.712999761 0.749999762
vt 0.783999741 0.999999762
vt 0.641999662 0.499999791
vt 0.641999602 0.249999762
vt 0.641999602 -2.38418579E-07
vt 0.783999741 0.749999762
vt 0.85499984 0.999999762
vt 0.712999642 0.499999762
vt 0.712999582 0.249999702
vt 0.712999582 -2.98023224E-07
vt 0.85499984 0.749999762
vt 0.92599982 0.999999762
vt 0.783999681 0.499999732
vt 0.783999681 0.249999702
vt 0.783999622 -2.98023224E-07
vt 0.92599982 0.749999762
vt 0.9969998 0.999999762
vt 0.9969998 0.749999762
vt 0.854999721 0.499999732
vt 0.854999661 0.249999702
vt 0.854999661 -2.98023224E-07
vt 0.92599982 0.499999732
vt 0.9969998 0.499999732
vt 0.925999761 0.249999702
vt 0.925999761 -2.98023224E-07
vt 0.996999741 0.249999702
vt 0.996999621 -2.98023224E-07
vn 0.44555679 -0.144958541 0.883439958
vn 0.610431969 -0.311320305 0.728321671
vn 0.421142668 -0.216674849 0.880733132
vn 0.650035441 -0.210574836 0.730145395
vn 0.469970673 -2.94204654E-07 0.882682085
vn 0.890736699 -0.454519778 0
vn 0.683458805 -3.27990023E-07 0.729988992
vn 0.44555673 0.144958511 0.883439958
vn 0.951391995 -0.307982653 0
vn 0.610601604 -0.311406821 -0.72814244
vn 0.650035441 0.210574836 0.730145395
vn 0.378418177 0.274658352 0.883947134
vn 1 -3.19648109E-07 0
vn 0.649673343 -0.210457563 -0.730501235
vn 0.424329102 -0.216743648 -0.879185438
vn 0.445539355 -0.144952878 -0.883449674
vn 0.683078408 -1.1832693E-07 -0.730345011
vn 0.469638288 -2.76290812E-08 -0.882858932
vn 0.552450597 0.399839938 0.731386602
vn 0.277709991 0.378417999 0.882993221
vn 0.950944424 0.309361726 0
vn 0.649673343 0.210457563 -0.730501235
vn 0.445539355 0.144952878 -0.883449674
vn 0.399839938 0.552450597 0.731386602
vn 0.144958541 0.44555679 0.883439958
vn 0.808340192 0.588715672 0
vn 0.552604735 0.399951547 -0.73120904
vn 0.378573 0.274770766 -0.883845925
vn 0.210574836 0.650035441 0.730145395
vn 4.65661259E-07 0.469970673 0.882682085
vn 0.588715672 0.808340192 0
vn 0.399951547 0.552604735 -0.73120904
vn 0.277589679 0.378254056 -0.883101285
vn 6.75075626E-07 0.683458805 0.729988992
vn -0.144958541 0.44555679 0.883439958
vn 0.309361726 0.950944424 0
vn 0.210457563 0.649673343 -0.730501235
vn 0.144952878 0.445539355 -0.883449674
vn -0.210574836 0.650035441 0.730145395
vn -0.274658173 0.381469727 0.882634521
vn 9.88564921E-07 1 0
vn 6.80516223E-07 0.683078408 -0.730345011
vn 4.71148496E-07 0.469638288 -0.882858932
vn -0.399839938 0.552450597 0.731386602
vn -0.381469578 0.277709872 0.881679177
vn -0.309361726 0.950944424 0
vn -0.210457563 0.649673343 -0.730501235
vn -0.144952878 0.445539355 -0.883449674
vn -0.552450597 0.399839938 0.731386602
vn -0.44555673 0.144958511 0.883439958
vn -0.588715672 0.808340192 0
vn -0.399951547 0.552604735 -0.73120904
vn -0.274822295 0.381697625 -0.882484972
vn -0.650035441 0.210574836 0.730145395
vn -0.469970673 7.8580328E-08 0.882682085
vn -0.808340192 0.588715672 0
vn -0.552604735 0.399951547 -0.73120904
vn -0.381375968 0.277641714 -0.881741226
vn -0.683458805 1.99321903E-07 0.729988992
vn -0.44555679 -0.144958541 0.883439958
vn -0.950944424 0.309361726 0
vn -0.649673343 0.210457563 -0.730501235
vn -0.445539355 0.144952878 -0.883449674
vn -0.650035441 -0.210574836 0.730145395
vn -0.421142668 -0.216674849 0.880733132
vn -0.610431969 -0.311320305 0.728321671
vn -1 4.63753253E-07 0
vn -0.683078408 4.21687417E-07 -0.730345011
vn -0.469638288 3.38819774E-07 -0.882858932
vn -0.951391995 -0.307982653 0
vn -0.890736699 -0.454519778 0
vn -0.649673343 -0.210457563 -0.730501235
vn -0.445539355 -0.144952878 -0.883449674
vn -0.610601604 -0.311406821 -0.72814244
vn -0.424329102 -0.216743648 -0.879185438
g Ed_Ring_0
f 3/3/3 2/2/2 1/1/1
f 2/2/2 4/4/4 1/1/1
f 1/1/1 4/4/4 5/5/5
f 2/2/2 6/6/6 4/4/4
f 4/4/4 7/7/7 5/5/5
f 5/5/5 7/7/7 8/8/8
f 6/6/6 9/9/9 4/4/4
f 4/4/4 9/9/9 7/7/7
f 6/6/6 10/10/10 9/9/9
f 7/7/7 11/11/11 8/8/8
f 8/8/8 11/11/11 12/12/12
f 9/9/9 13/13/13 7/7/7
f 7/7/7 13/13/13 11/11/11
f 10/10/10 14/14/14 9/9/9
f 9/9/9 14/14/14 13/13/13
f 10/10/10 15/15/15 14/14/14
f 15/15/15 16/16/16 14/14/14
f 14/14/14 16/16/16 17/17/17
f 14/14/14 17/17/17 13/13/13
f 16/16/16 18/18/18 17/17/17
f 11/11/11 19/19/19 12/12/12
f 12/12/12 19/19/19 20/20/20
f 13/13/13 21/21/21 11/11/11
f 13/13/13 17/17/17 21/21/21
f 11/11/11 21/21/21 19/19/19
f 17/17/17 18/18/18 22/22/22
f 17/17/17 22/22/22 21/21/21
f 18/18/18 23/23/23 22/22/22
f 19/19/19 24/24/24 20/20/20
f 20/20/20 24/24/24 25/25/25
f 21/21/21 26/26/26 19/19/19
f 21/21/21 22/22/22 26/26/26
f 19/19/19 26/26/26 24/24/24
f 22/22/22 23/23/23 27/27/27
f 22/22/22 27/27/27 26/26/26
f 23/23/23 28/28/28 27/27/27
f 24/24/24 29/29/29 25/25/25
f 25/25/25 29/29/29 30/30/30
f 26/26/26 31/31/31 24/24/24
f 26/26/26 27/27/27 31/31/31
f 24/24/24 31/31/31 29/29/29
f 27/27/27 28/28/28 32/32/32
f 27/27/27 32/32/32 31/31/31
f 28/28/28 33/33/33 32/32/32
f 29/29/29 34/34/34 30/30/30
f 30/30/30 34/34/34 35/35/35
f 31/31/31 36/36/36 29/29/29
f 31/31/31 32/32/32 36/36/36
f 29/29/29 36/36/36 34/34/34
f 32/32/32 33/33/33 37/37/37
f 32/32/32 37/37/37 36/36/36
f 33/33/33 38/38/38 37/37/37
f 34/34/34 39/39/39 35/35/35
f 35/35/35 39/39/39 40/40/40
f 36/36/36 41/41/41 34/34/34
f 36/36/36 37/37/37 41/41/41
f 34/34/34 41/41/41 39/39/39
f 37/37/37 38/38/38 42/42/42
f 37/37/37 42/42/42 41/41/41
f 38/38/38 43/43/43 42/42/42
f 39/39/39 44/44/44 40/40/40
f 40/40/40 44/44/44 45/45/45
f 41/41/41 46/46/46 39/39/39
f 41/41/41 42/42/42 46/46/46
f 39/39/39 46/46/46 44/44/44
f 42/42/42 43/43/43 47/47/47
f 42/42/42 47/47/47 46/46/46
f 43/43/43 48/48/48 47/47/47
f 44/44/44 49/49/49 45/45/45
f 45/45/45 49/49/49 50/50/50
f 46/46/46 51/51/51 44/44/44
f 46/46/46 47/47/47 51/51/51
f 44/44/44 51/51/51 49/49/49
f 47/47/47 48/48/48 52/52/52
f 47/47/47 52/52/52 51/51/51
f 48/48/48 53/53/53 52/52/52
f 49/49/49 54/54/54 50/50/50
f 50/50/50 54/54/54 55/55/55
f 51/51/51 56/56/56 49/49/49
f 51/51/51 52/52/52 56/56/56
f 49/49/49 56/56/56 54/54/54
f 52/52/52 53/53/53 57/57/57
f 52/52/52 57/57/57 56/56/56
f 53/53/53 58/58/58 57/57/57
f 54/54/54 59/59/59 55/55/55
f 55/55/55 59/59/59 60/60/60
f 56/56/56 61/61/61 54/54/54
f 56/56/56 57/57/57 61/61/61
f 54/54/54 61/61/61 59/59/59
f 57/57/57 58/58/58 62/62/62
f 57/57/57 62/62/62 61/61/61
f 58/58/58 63/63/63 62/62/62
f 59/59/59 64/64/64 60/60/60
f 60/60/60 64/64/64 65/65/65
f 64/64/64 66/66/66 65/65/65
f 61/61/61 67/67/67 59/59/59
f 61/61/61 62/62/62 67/67/67
f 59/59/59 67/67/67 64/64/64
f 62/62/62 63/63/63 68/68/68
f 62/62/62 68/68/68 67/67/67
f 63/63/63 69/69/69 68/68/68
f 64/64/64 70/70/70 66/66/66
f 67/67/67 70/70/70 64/64/64
f 67/67/67 68/68/68 70/70/70
f 70/70/70 71/71/71 66/66/66
f 68/68/68 69/69/69 72/72/72
f 68/68/68 72/72/72 70/70/70
f 70/70/70 72/72/72 71/71/71
f 69/69/69 73/73/73 72/72/72
f 72/72/72 74/74/74 71/71/71
f 72/72/72 73/73/73 74/74/74
f 73/73/73 75/75/75 74/74/74
