g FX_m_plane_01
v 1.05064476 0.00918472838 -1.62951244E-06
v 0.835001051 0.158314094 -1.55576151E-06
v 1.05064476 0.0109166848 -1.6351687E-06
v 0.835001051 0.128594816 -1.54260363E-06
v 1.05064499 0.00134301861 -1.63766254E-06
v 0.189082131 0.59809339 -1.31289414E-06
v 0.83500123 0.0178810265 -1.51678842E-06
v 1.05064499 -0.000126358544 -1.63083894E-06
v 0.83500123 -0.000126222527 -1.50360063E-06
v 0.189082116 0.501387 -1.27068915E-06
v -0.537083566 0.955827594 -1.07033236E-06
v 0.18908225 0.08191818 -1.11335578E-06
v 0.189082161 -0.000125888633 -1.07552478E-06
v -0.537184358 0.809466124 -9.99120402E-07
v -1.05064499 1.16058326 -9.9061981E-07
v -1.05064499 0.968902469 -9.11865982E-07
v -1.05064487 0.162493378 -5.89048966E-07
v -0.540669203 0.131394774 -7.10450649E-07
v -0.540669203 0.000142590623 -6.48010712E-07
v -1.05064511 -0.000125406441 -5.20210506E-07
vt 1.00000012 0.860991359
vt 0.88929379 1
vt 1.00000012 1
vt 0.89053297 0.859752178
vt 1.00000012 0.14319703
vt 0.50000006 1
vt 0.89053297 0.141957864
vt 1.00000012 0
vt 0.88929379 -1.09278471E-08
vt 0.50123924 0.859752178
vt 0.133184761 0.99999994
vt 0.5012393 0.141957864
vt 0.500000119 -2.18556941E-08
vt 0.133184761 0.86099124
vt 1.1920929E-07 0.99999994
vt 1.1920929E-07 0.86099124
vt 1.1920929E-07 0.143196985
vt 0.133184701 0.143197
vt 0.133184701 -3.27835394E-08
vt 1.1920929E-07 -4.37113883E-08
vn 6.05683738E-07 3.01293369E-07 1
vn 6.99223961E-07 4.87490922E-07 1
vn 7.55691929E-07 5.98200643E-07 1
vn 6.64894799E-07 4.11090497E-07 1
vn 5.73806176E-07 6.09635435E-07 1
vn 6.0218531E-07 4.57143869E-07 1
vn 6.12403483E-07 4.9984294E-07 1
vn 6.14681994E-07 1.02745412E-06 1
vn 6.41811312E-07 7.68690143E-07 1
vn 6.13499878E-07 4.17333638E-07 1
vn 4.09993277E-07 4.51837622E-07 1
vn 6.13808083E-07 4.30632156E-07 1
vn 6.26973474E-07 4.90016021E-07 1
vn 4.31309388E-07 4.33827694E-07 1
vn 3.19855616E-07 4.4353493E-07 1
vn 3.03926498E-07 4.30491099E-07 1
vn 2.69575253E-07 4.28303679E-07 1
vn 4.2077238E-07 4.32809145E-07 1
vn 4.21405417E-07 4.58410511E-07 1
vn 2.57830493E-07 4.46720804E-07 1
g FX_m_plane_01_0
f 3/3/3 2/2/2 1/1/1
f 2/2/2 4/4/4 1/1/1
f 1/1/1 4/4/4 5/5/5
f 2/2/2 6/6/6 4/4/4
f 4/4/4 7/7/7 5/5/5
f 5/5/5 7/7/7 8/8/8
f 7/7/7 9/9/9 8/8/8
f 6/6/6 10/10/10 4/4/4
f 4/4/4 10/10/10 7/7/7
f 6/6/6 11/11/11 10/10/10
f 7/7/7 12/12/12 9/9/9
f 10/10/10 12/12/12 7/7/7
f 12/12/12 13/13/13 9/9/9
f 11/11/11 14/14/14 10/10/10
f 10/10/10 14/14/14 12/12/12
f 11/11/11 15/15/15 14/14/14
f 15/15/15 16/16/16 14/14/14
f 14/14/14 16/16/16 17/17/17
f 12/12/12 18/18/18 13/13/13
f 14/14/14 18/18/18 12/12/12
f 18/18/18 14/14/14 17/17/17
f 18/18/18 19/19/19 13/13/13
f 18/18/18 17/17/17 19/19/19
f 17/17/17 20/20/20 19/19/19
