g FX_m_slash_04
v -9.0649147 -0.00436038105 19.2875919
v -7.74783611 -0.915780067 17.9428635
v -9.0028019 -0.999181449 18.0746517
v -7.73434258 -0.00436040852 19.1869698
v -9.05811501 -0.00434471387 20.2454834
v -6.81264448 -0.843218088 17.6905918
v -7.60975266 -0.00434474414 20.1875668
v -9.04975796 -0.0043290644 21.111515
v -6.5574646 -0.00436036941 18.9070015
v -5.81065416 -0.748458028 17.1685295
v -7.53891325 -0.00432909559 21.0777874
v -9.06921959 -0.00431336369 22.0343285
v -7.49523306 -0.00431339676 22.0002689
v -6.18476057 -0.00434469804 19.9003658
v -5.38892841 -0.00436028233 18.3551159
v -4.64516735 -0.630582392 16.44804
v -5.87234402 -0.00432904204 20.7766361
v -5.59523344 -0.00431333715 21.6660233
v -4.84776831 -0.00434459932 19.3347359
v -4.13857126 -0.00436017662 17.651701
v -3.62933588 -0.524465859 15.7700949
v -4.3749795 -0.00432893168 20.1907368
v -3.9455812 -0.00431321841 21.04496
v -3.52127528 -0.00434448989 18.6610069
v -3.00805759 -0.00436007977 16.9656773
v -2.70110273 -0.416369736 14.9859142
v -2.98816895 -0.00432881759 19.5367928
v -2.51141334 -0.00431310385 20.3956509
v -2.28037167 -0.00434438651 17.9802799
v -1.90933383 -0.00435995916 16.1216965
v -1.90515947 -0.311450809 14.1325531
v -1.64883363 -0.0043287049 18.8544197
v -1.08439422 -0.00431298697 19.6983852
v -1.00996923 -0.00434425054 17.0916176
v -0.995974481 -0.00435982784 15.2357206
v -1.10297942 -0.196532533 13.1367092
v -0.215322316 -0.0043285517 17.9174099
v 0.501862407 -0.00431282213 18.7006664
v 0.0145703312 -0.00434410945 16.1839199
v -0.0740380213 -0.00435967557 14.2049828
v -0.390892476 -0.0846175253 12.1061687
v 0.907563806 -0.0043283999 16.9844112
v 1.70949566 -0.00431266334 17.7322483
v 1.04713356 -0.004343946 15.128912
v 0.759728253 -0.00435951445 13.126008
v 0.221200109 0.0238016658 11.039526
v 2.03530526 -0.00432822341 15.9019051
v 2.91593671 -0.0043124808 16.6121674
v 1.99361277 -0.0043437737 14.0110054
v 1.49183774 -0.00435934309 11.9996538
v 0.76165092 0.13228333 9.90903473
v 3.07940316 -0.00432803622 14.7429438
v 4.04061937 -0.00431228615 15.4031467
v 2.83654737 -0.00434359023 12.8331118
v 2.14716935 -0.00435916288 10.8088722
v 1.20215642 0.233706027 8.79520416
v 4.01828098 -0.00432783738 13.5125847
v 5.05785036 -0.004312078 14.1126823
v 3.59572077 -0.00434339512 11.5892687
v 2.6962595 -0.00435898174 9.62858772
v 1.53867996 0.330371946 7.66043091
v 4.8654108 -0.00432762643 12.2158327
v 5.97413969 -0.00431185961 12.75667
v 4.24267292 -0.00434320047 10.3484554
v 3.14831901 -0.00435878849 8.38678169
v 1.76823449 0.424393564 6.47082376
v 5.59524345 -0.00432741549 10.9156542
v 6.76847458 -0.00431163982 11.3921738
v 4.80307817 -0.00434298906 9.00354576
v 3.4795084 -0.00435859011 7.1102705
v 1.95253849 0.521237016 5.19972038
v 6.25160217 -0.00432717986 9.46964169
v 7.50273657 -0.00431138929 9.84094238
v 5.22473431 -0.004342773 7.64330912
v 3.75763106 -0.00435838336 5.85434008
v 2.09826946 0.616754532 3.91435361
v 6.74947309 -0.00432694517 8.02952194
v 8.05769157 -0.00431114389 8.31913567
v 5.57937098 -0.0043425574 6.28473806
v 4.00133181 -0.00435816916 4.48918581
v 2.16391635 0.702843845 2.69815397
v 7.1626811 -0.00432671793 6.635077
v 8.50859261 -0.00431091292 6.88890648
v 5.90612411 -0.00434233015 4.86070967
v 4.15909576 -0.00435796101 3.2313683
v 2.12862778 0.782340586 1.49084771
v 7.55618191 -0.00432647485 5.14919901
v 8.94826412 -0.00431066286 5.34139967
v 6.14454794 -0.00434210571 3.45810986
v 4.20906067 -0.00435774866 1.87397492
v 1.98862374 0.854933262 0.293726265
v 7.86204481 -0.00432623085 3.66005874
v 9.30286407 -0.00431040768 3.76660371
v 6.27012396 -0.00434187427 2.02543998
v 4.14440203 -0.00435753679 0.546127677
v 1.73539853 0.921794236 -0.918033898
v 3.96145105 -0.00435732305 -0.819414318
v 8.05205059 -0.0043259766 2.1212976
v 9.53967381 -0.00431014039 2.12406635
v 6.27162075 -0.00434164284 0.589860141
v 6.14735699 -0.0043414128 -0.889795184
v 8.10986805 -0.00432572188 0.573566556
v 9.63726044 -0.00430986984 0.46838215
v 8.03392315 -0.00432547322 -0.992102802
v 9.59336853 -0.0043096114 -1.11953557
vt 8.6425743E-08 0.250000179
vt 0.0500000864 1.1920929E-07
vt 7.54978942E-08 1.1920929E-07
vt 0.050000038 0.250000179
vt 9.73535919E-08 0.500000179
vt 0.100000039 1.1920929E-07
vt 0.0500001088 0.500000179
vt 1.08281426E-07 0.750000119
vt 0.100000054 0.250000179
vt 0.150000051 1.1920929E-07
vt 0.05000012 0.750000119
vt 1.19209275E-07 1.00000012
vt 0.0500001311 1.00000012
vt 0.100000121 0.500000179
vt 0.150000066 0.250000179
vt 0.200000063 1.1920929E-07
vt 0.100000136 0.750000119
vt 0.100000143 1.00000012
vt 0.15000014 0.500000179
vt 0.200000077 0.250000179
vt 0.25000003 1.1920929E-07
vt 0.15000014 0.750000119
vt 0.150000095 1.00000012
vt 0.200000152 0.500000179
vt 0.25000003 0.250000179
vt 0.300000101 1.1920929E-07
vt 0.200000152 0.750000119
vt 0.200000107 1.00000012
vt 0.250000089 0.500000179
vt 0.300000101 0.250000179
vt 0.350000054 1.1920929E-07
vt 0.250000119 0.750000119
vt 0.250000119 1.00000012
vt 0.300000161 0.500000179
vt 0.350000054 0.250000119
vt 0.400000125 1.1920929E-07
vt 0.300000131 0.750000119
vt 0.300000131 1.00000012
vt 0.350000113 0.500000119
vt 0.400000125 0.250000119
vt 0.450000077 1.1920929E-07
vt 0.350000143 0.750000119
vt 0.350000143 1.00000012
vt 0.400000185 0.500000119
vt 0.450000077 0.250000119
vt 0.500000119 1.1920929E-07
vt 0.400000155 0.750000119
vt 0.400000155 1.00000012
vt 0.450000137 0.500000119
vt 0.500000119 0.250000119
vt 0.550000131 1.1920929E-07
vt 0.450000167 0.750000119
vt 0.450000167 1.00000012
vt 0.500000179 0.500000119
vt 0.550000131 0.250000119
vt 0.600000203 1.1920929E-07
vt 0.500000179 0.750000119
vt 0.500000179 1.00000012
vt 0.550000191 0.500000119
vt 0.600000203 0.250000119
vt 0.650000155 1.1920929E-07
vt 0.550000191 0.750000119
vt 0.550000191 1.00000012
vt 0.600000143 0.500000119
vt 0.650000155 0.250000119
vt 0.700000226 2.38418579E-07
vt 0.600000203 0.750000119
vt 0.600000203 1.00000012
vt 0.650000215 0.500000119
vt 0.700000226 0.250000119
vt 0.750000179 2.38418579E-07
vt 0.650000215 0.750000119
vt 0.650000215 1.00000012
vt 0.700000167 0.50000006
vt 0.750000179 0.250000119
vt 0.800000191 2.38418579E-07
vt 0.700000226 0.750000119
vt 0.700000226 1.00000012
vt 0.750000238 0.50000006
vt 0.80000025 0.250000119
vt 0.850000203 2.38418579E-07
vt 0.750000238 0.750000119
vt 0.750000238 1.00000012
vt 0.80000025 0.50000006
vt 0.850000203 0.250000119
vt 0.900000215 2.38418579E-07
vt 0.80000025 0.750000119
vt 0.80000025 1.00000012
vt 0.850000262 0.50000006
vt 0.900000274 0.250000119
vt 0.950000226 2.38418579E-07
vt 0.850000262 0.750000119
vt 0.850000262 1.00000012
vt 0.900000274 0.50000006
vt 0.950000226 0.250000119
vt 1.00000024 2.38418579E-07
vt 1.00000024 0.250000119
vt 0.900000274 0.750000119
vt 0.900000274 1.00000012
vt 0.950000286 0.50000006
vt 1.00000024 0.50000006
vt 0.950000286 0.750000119
vt 0.950000286 1.00000012
vt 1.00000024 0.750000119
vt 1.00000024 1.00000012
vn -0 -1 0
vn -0 -1 0
vn -0 -1 0
vn -0 -1 0
vn -0 -1 0
vn -0 -1 0
vn -0 -1 0
vn -0 -1 0
vn -0 -1 0
vn -0 -1 0
vn -0 -1 0
vn -0 -1 0
vn -0 -1 0
vn -0 -1 0
vn -0 -1 0
vn -0 -1 0
vn -0 -1 0
vn -0 -1 0
vn -0 -1 0
vn -0 -1 0
vn -0 -1 0
vn -0 -1 0
vn -0 -1 0
vn -0 -1 0
vn -0 -1 0
vn -0 -1 0
vn -0 -1 0
vn -0 -1 0
vn -0 -1 0
vn -0 -1 0
vn -0 -1 0
vn -0 -1 0
vn -0 -1 0
vn -0 -1 0
vn -0 -1 0
vn -0 -1 0
vn -0 -1 0
vn -0 -1 0
vn 1.19209226E-05 -1 0
vn 2.38418452E-05 -1 0
vn -0 -1 0
vn -0 -1 0
vn -0 -1 0
vn -0 -1 0
vn -0 -1 0
vn -0 -1 0
vn -0 -1 0
vn -0 -1 0
vn -0 -1 0
vn -0 -1 0
vn -0 -1 0
vn -0 -1 0
vn -0 -1 0
vn -0 -1 0
vn -0 -1 0
vn -0 -1 0
vn -0 -1 0
vn -0 -1 0
vn -0 -1 0
vn -0 -1 0
vn -0 -1 0
vn -0 -1 0
vn -0 -1 0
vn -0 -1 0
vn -0 -1 0
vn -0 -1 0
vn -0 -1 0
vn -0 -1 0
vn -0 -1 0
vn -0 -1 0
vn -0 -1 0
vn -0 -1 0
vn -0 -1 0
vn -0 -1 0
vn -0 -1 0
vn -0 -1 0
vn -0 -1 0
vn -0 -1 0
vn -0 -1 0
vn -0 -1 0
vn -0 -1 0
vn -0 -1 0
vn -0 -1 0
vn -0 -1 0
vn -0 -1 0
vn -0 -1 0
vn -0 -1 0
vn -0 -1 0
vn -0 -1 0
vn -0 -1 0
vn -0 -1 0
vn -0 -1 0
vn -0 -1 0
vn -0 -1 0
vn -0 -1 0
vn -0 -1 0
vn -0 -1 0
vn -0 -1 0
vn -0 -1 0
vn -0 -1 0
vn -0 -1 0
vn -0 -1 0
vn -0 -1 0
vn -0 -1 0
vn -0 -1 0
g FX_m_slash_04_0
f 3/3/3 2/2/2 1/1/1
f 2/2/2 4/4/4 1/1/1
f 1/1/1 4/4/4 5/5/5
f 2/2/2 6/6/6 4/4/4
f 4/4/4 7/7/7 5/5/5
f 5/5/5 7/7/7 8/8/8
f 6/6/6 9/9/9 4/4/4
f 4/4/4 9/9/9 7/7/7
f 6/6/6 10/10/10 9/9/9
f 7/7/7 11/11/11 8/8/8
f 8/8/8 11/11/11 12/12/12
f 11/11/11 13/13/13 12/12/12
f 9/9/9 14/14/14 7/7/7
f 7/7/7 14/14/14 11/11/11
f 10/10/10 15/15/15 9/9/9
f 9/9/9 15/15/15 14/14/14
f 10/10/10 16/16/16 15/15/15
f 11/11/11 17/17/17 13/13/13
f 14/14/14 17/17/17 11/11/11
f 17/17/17 18/18/18 13/13/13
f 15/15/15 19/19/19 14/14/14
f 14/14/14 19/19/19 17/17/17
f 16/16/16 20/20/20 15/15/15
f 15/15/15 20/20/20 19/19/19
f 16/16/16 21/21/21 20/20/20
f 17/17/17 22/22/22 18/18/18
f 19/19/19 22/22/22 17/17/17
f 22/22/22 23/23/23 18/18/18
f 20/20/20 24/24/24 19/19/19
f 19/19/19 24/24/24 22/22/22
f 21/21/21 25/25/25 20/20/20
f 20/20/20 25/25/25 24/24/24
f 21/21/21 26/26/26 25/25/25
f 22/22/22 27/27/27 23/23/23
f 24/24/24 27/27/27 22/22/22
f 27/27/27 28/28/28 23/23/23
f 25/25/25 29/29/29 24/24/24
f 24/24/24 29/29/29 27/27/27
f 26/26/26 30/30/30 25/25/25
f 25/25/25 30/30/30 29/29/29
f 26/26/26 31/31/31 30/30/30
f 27/27/27 32/32/32 28/28/28
f 29/29/29 32/32/32 27/27/27
f 32/32/32 33/33/33 28/28/28
f 30/30/30 34/34/34 29/29/29
f 29/29/29 34/34/34 32/32/32
f 31/31/31 35/35/35 30/30/30
f 30/30/30 35/35/35 34/34/34
f 31/31/31 36/36/36 35/35/35
f 32/32/32 37/37/37 33/33/33
f 34/34/34 37/37/37 32/32/32
f 37/37/37 38/38/38 33/33/33
f 35/35/35 39/39/39 34/34/34
f 34/34/34 39/39/39 37/37/37
f 36/36/36 40/40/40 35/35/35
f 35/35/35 40/40/40 39/39/39
f 36/36/36 41/41/41 40/40/40
f 37/37/37 42/42/42 38/38/38
f 39/39/39 42/42/42 37/37/37
f 42/42/42 43/43/43 38/38/38
f 40/40/40 44/44/44 39/39/39
f 39/39/39 44/44/44 42/42/42
f 41/41/41 45/45/45 40/40/40
f 40/40/40 45/45/45 44/44/44
f 41/41/41 46/46/46 45/45/45
f 42/42/42 47/47/47 43/43/43
f 44/44/44 47/47/47 42/42/42
f 47/47/47 48/48/48 43/43/43
f 45/45/45 49/49/49 44/44/44
f 44/44/44 49/49/49 47/47/47
f 46/46/46 50/50/50 45/45/45
f 45/45/45 50/50/50 49/49/49
f 46/46/46 51/51/51 50/50/50
f 47/47/47 52/52/52 48/48/48
f 49/49/49 52/52/52 47/47/47
f 52/52/52 53/53/53 48/48/48
f 50/50/50 54/54/54 49/49/49
f 49/49/49 54/54/54 52/52/52
f 51/51/51 55/55/55 50/50/50
f 50/50/50 55/55/55 54/54/54
f 51/51/51 56/56/56 55/55/55
f 52/52/52 57/57/57 53/53/53
f 54/54/54 57/57/57 52/52/52
f 57/57/57 58/58/58 53/53/53
f 55/55/55 59/59/59 54/54/54
f 54/54/54 59/59/59 57/57/57
f 56/56/56 60/60/60 55/55/55
f 55/55/55 60/60/60 59/59/59
f 56/56/56 61/61/61 60/60/60
f 57/57/57 62/62/62 58/58/58
f 59/59/59 62/62/62 57/57/57
f 62/62/62 63/63/63 58/58/58
f 60/60/60 64/64/64 59/59/59
f 59/59/59 64/64/64 62/62/62
f 61/61/61 65/65/65 60/60/60
f 60/60/60 65/65/65 64/64/64
f 61/61/61 66/66/66 65/65/65
f 62/62/62 67/67/67 63/63/63
f 64/64/64 67/67/67 62/62/62
f 67/67/67 68/68/68 63/63/63
f 65/65/65 69/69/69 64/64/64
f 64/64/64 69/69/69 67/67/67
f 66/66/66 70/70/70 65/65/65
f 65/65/65 70/70/70 69/69/69
f 66/66/66 71/71/71 70/70/70
f 67/67/67 72/72/72 68/68/68
f 69/69/69 72/72/72 67/67/67
f 72/72/72 73/73/73 68/68/68
f 70/70/70 74/74/74 69/69/69
f 69/69/69 74/74/74 72/72/72
f 71/71/71 75/75/75 70/70/70
f 70/70/70 75/75/75 74/74/74
f 71/71/71 76/76/76 75/75/75
f 72/72/72 77/77/77 73/73/73
f 74/74/74 77/77/77 72/72/72
f 77/77/77 78/78/78 73/73/73
f 75/75/75 79/79/79 74/74/74
f 74/74/74 79/79/79 77/77/77
f 76/76/76 80/80/80 75/75/75
f 75/75/75 80/80/80 79/79/79
f 76/76/76 81/81/81 80/80/80
f 77/77/77 82/82/82 78/78/78
f 79/79/79 82/82/82 77/77/77
f 82/82/82 83/83/83 78/78/78
f 80/80/80 84/84/84 79/79/79
f 79/79/79 84/84/84 82/82/82
f 81/81/81 85/85/85 80/80/80
f 80/80/80 85/85/85 84/84/84
f 81/81/81 86/86/86 85/85/85
f 82/82/82 87/87/87 83/83/83
f 84/84/84 87/87/87 82/82/82
f 87/87/87 88/88/88 83/83/83
f 85/85/85 89/89/89 84/84/84
f 84/84/84 89/89/89 87/87/87
f 86/86/86 90/90/90 85/85/85
f 85/85/85 90/90/90 89/89/89
f 86/86/86 91/91/91 90/90/90
f 87/87/87 92/92/92 88/88/88
f 89/89/89 92/92/92 87/87/87
f 92/92/92 93/93/93 88/88/88
f 90/90/90 94/94/94 89/89/89
f 89/89/89 94/94/94 92/92/92
f 91/91/91 95/95/95 90/90/90
f 90/90/90 95/95/95 94/94/94
f 91/91/91 96/96/96 95/95/95
f 96/96/96 97/97/97 95/95/95
f 92/92/92 98/98/98 93/93/93
f 94/94/94 98/98/98 92/92/92
f 98/98/98 99/99/99 93/93/93
f 95/95/95 100/100/100 94/94/94
f 95/95/95 97/97/97 100/100/100
f 94/94/94 100/100/100 98/98/98
f 97/97/97 101/101/101 100/100/100
f 98/98/98 102/102/102 99/99/99
f 100/100/100 102/102/102 98/98/98
f 100/100/100 101/101/101 102/102/102
f 102/102/102 103/103/103 99/99/99
f 101/101/101 104/104/104 102/102/102
f 102/102/102 104/104/104 103/103/103
f 104/104/104 105/105/105 103/103/103
