g general_ring_56
v 0.0547124557 0.610000849 -0.0446835011
v -2.67627467E-08 0.329679191 0.0568334423
v -5.14810203E-08 0.612423182 -0.0447189286
v 0.0297234058 0.32836318 0.0572533049
v 0.108996615 0.602752209 -0.044572033
v 0.059214212 0.32442528 0.0584953465
v 0.162427723 0.590734482 -0.0443680175
v 0.088241592 0.317896426 0.0605042316
v 0.214587778 0.574041486 -0.0440402851
v 0.116578355 0.308827698 0.063179791
v 0.265068382 0.552803874 -0.0435368605
v 0.144002736 0.297290027 0.0663646758
v 0.313474298 0.527187943 -0.0427750871
v 0.170300037 0.283373833 0.0698308796
v 0.359426856 0.497394085 -0.0416267365
v 0.195264578 0.267187834 0.0732665211
v 0.402566463 0.463655591 -0.0398975126
v 0.21870093 0.248858809 0.07626912
v 0.442555308 0.42623651 -0.0373017788
v 0.240425646 0.228530228 0.0783508867
v 0.479080707 0.385429621 -0.0334380232
v 0.260268718 0.206361175 0.0789649189
v 0.511856616 0.341554165 -0.0277786981
v 0.278074801 0.182525098 0.0775577128
v 0.540626705 0.294953644 -0.0197021943
v 0.293704629 0.157208562 0.0736501068
v 0.565165579 0.245992839 -0.00860754773
v 0.307035804 0.13060981 0.0669388175
v 0.585281193 0.195054829 0.00584379584
v 0.317964017 0.102936864 0.0573992394
v 0.60081619 0.142538428 0.0233502649
v 0.326403707 0.0744063854 0.0453588851
v 0.611649036 0.0888544321 0.0425412692
v 0.332288861 0.0452416539 0.0315082483
v 0.617694914 0.0344231725 0.0607245155
v 0.335573375 0.0156709254 0.0168247707
v 0.618906438 -0.0203295052 0.0741441697
v 0.336231619 -0.0140743852 0.00241481885
v 0.615274191 -0.0749749541 0.0789799541
v 0.334258348 -0.0437614918 -0.0106934197
v 0.606826603 -0.129085541 0.0729052126
v 0.329669058 -0.0731579959 -0.0217415933
v 0.593629777 -0.182237804 0.0564516075
v 0.322499663 -0.102033883 -0.0303587336
v 0.575786948 -0.234015703 0.0332163982
v 0.312806278 -0.130163133 -0.0365685523
v 0.553437829 -0.284014076 0.0085109584
v 0.300664753 -0.157325625 -0.0406967662
v 0.52675736 -0.331841469 -0.0128569826
v 0.286170125 -0.183308721 -0.0432254598
v 0.495954186 -0.377123833 -0.0282987431
v 0.269435793 -0.207909107 -0.0446518101
v 0.461269528 -0.41950655 -0.0377297476
v 0.250592798 -0.230934262 -0.0453929491
v 0.422974885 -0.45865795 -0.0426273011
v 0.229788557 -0.252203971 -0.0457025543
v 0.381369799 -0.494271666 -0.0448003151
v 0.207185894 -0.271551758 -0.0452960171
v 0.336780012 -0.526068985 -0.0456290655
v 0.182961732 -0.288826197 -0.0444722883
v 0.289554447 -0.553801 -0.045311369
v 0.157305673 -0.303892136 -0.042957522
v 0.240062758 -0.577250719 -0.0440228768
v 0.13041845 -0.316631585 -0.0404652879
v 0.188692242 -0.59623456 -0.0412326977
v 0.102510557 -0.326944917 -0.0368712768
v 0.135844946 -0.610603988 -0.036448162
v 0.0738003552 -0.334751368 -0.0324810967
v 0.0819344893 -0.620246589 -0.0304145273
v 0.0445125699 -0.339989871 -0.0282368548
v 0.0273827892 -0.625086725 -0.0258531459
v 0.014876416 -0.342619449 -0.0255493019
v -0.0273832306 -0.625086725 -0.0258531459
v -0.0148761682 -0.342619449 -0.0255493019
v -0.0819349363 -0.62024647 -0.0304145608
v -0.0445123166 -0.33998993 -0.0282368194
v -0.135845408 -0.610603869 -0.0364482068
v -0.0738001093 -0.334751427 -0.0324810371
v -0.188692689 -0.596234441 -0.0412327349
v -0.102510311 -0.326945007 -0.0368712358
v -0.240063176 -0.57725054 -0.0440228917
v -0.130418241 -0.316631705 -0.0404652581
v -0.289554864 -0.553800821 -0.0453113802
v -0.157305449 -0.303892255 -0.0429575071
v -0.336780339 -0.526068747 -0.0456290618
v -0.182961553 -0.288826317 -0.0444722809
v -0.381370127 -0.494271427 -0.0448003039
v -0.207185715 -0.271551907 -0.0452960134
v -0.422975183 -0.458657652 -0.042627275
v -0.229788408 -0.25220412 -0.0457025543
v -0.461269826 -0.419506222 -0.037729688
v -0.250592619 -0.230934441 -0.0453929529
v -0.495954454 -0.377123445 -0.028298635
v -0.269435674 -0.207909286 -0.0446518138
v -0.526757538 -0.331841171 -0.012856815
v -0.286170006 -0.183308899 -0.0432254747
v -0.553438008 -0.284013689 0.00851110741
v -0.300664634 -0.157325834 -0.0406967923
v -0.575787127 -0.234015316 0.0332166217
v -0.312806189 -0.130163372 -0.036568597
v -0.593629897 -0.182237387 0.0564518087
v -0.322499603 -0.102034122 -0.0303587969
v -0.606826663 -0.129085124 0.072905302
v -0.329669029 -0.0731582344 -0.0217416808
v -0.61527431 -0.0749745071 0.0789799541
v -0.334258318 -0.0437617302 -0.0106935315
v -0.618906498 -0.0203290582 0.0741440356
v -0.336231589 -0.0140746236 0.00241468847
v -0.617694855 0.0344235897 0.0607243963
v -0.335573405 0.015670687 0.0168246962
v -0.611648977 0.0888549089 0.0425410457
v -0.332288891 0.0452414155 0.0315080918
v -0.600816131 0.142538846 0.0233501159
v -0.326403767 0.074406147 0.0453588106
v -0.585281014 0.195055306 0.005843658
v -0.317964107 0.102936625 0.0573991649
v -0.565165341 0.245993257 -0.00860760361
v -0.307035923 0.130609572 0.0669387579
v -0.540626466 0.294954062 -0.019702239
v -0.293704748 0.157208383 0.0736500621
v -0.511856377 0.341554582 -0.0277787708
v -0.27807495 0.18252492 0.0775577128
v -0.479080439 0.385429919 -0.0334380493
v -0.260268837 0.206360996 0.0789649189
v -0.44255501 0.426236868 -0.0373018198
v -0.24042581 0.228530049 0.0783508867
v -0.402566016 0.463655949 -0.0398975238
v -0.218701169 0.248858571 0.0762691498
v -0.359426379 0.497394502 -0.0416267589
v -0.195264846 0.267187595 0.0732665807
v -0.313473791 0.527188182 -0.0427750982
v -0.17030032 0.283373594 0.0698309243
v -0.265067965 0.552803993 -0.0435368679
v -0.144002959 0.297289968 0.0663647205
v -0.214587495 0.574041605 -0.0440402851
v -0.116578504 0.308827639 0.0631798506
v -0.162427604 0.590734482 -0.0443680175
v -0.0882416591 0.317896366 0.0605042912
v -0.108996466 0.602752328 -0.0445720367
v -0.0592142865 0.32442528 0.0584953465
v -0.054712303 0.610000849 -0.0446835011
v -0.0297234822 0.32836318 0.0572533049
v 5.67585126E-08 0.612423182 -0.0447189286
v 3.20402407E-08 0.329679191 0.0568334423
vt 0.985915482 0
vt 1 1
vt 1 0
vt 0.985915482 1
vt 0.971830964 0
vt 0.971830964 1
vt 0.957746506 0
vt 0.957746446 1
vt 0.943662047 0
vt 0.943661928 1
vt 0.929577589 0
vt 0.92957741 1
vt 0.915493071 0
vt 0.915492892 1
vt 0.901408553 0
vt 0.901408374 1
vt 0.887324095 0
vt 0.887323856 1
vt 0.873239577 0
vt 0.873239338 1
vt 0.859155059 0
vt 0.85915482 1
vt 0.845070601 0
vt 0.845070302 1
vt 0.830986142 0
vt 0.830985785 1
vt 0.816901684 0
vt 0.816901267 1
vt 0.802817166 0
vt 0.802816808 1
vt 0.788732648 0
vt 0.78873229 1
vt 0.77464813 0
vt 0.774647772 1
vt 0.760563612 0
vt 0.760563254 1
vt 0.746479094 0
vt 0.746478736 1
vt 0.732394636 0
vt 0.732394218 1
vt 0.718310118 0
vt 0.7183097 1
vt 0.7042256 0
vt 0.704225183 1
vt 0.690141082 0
vt 0.690140665 1
vt 0.676056564 0
vt 0.676056147 1
vt 0.661972046 0
vt 0.661971629 1
vt 0.647887528 0
vt 0.647887111 1
vt 0.63380301 0
vt 0.633802593 1
vt 0.619718492 0
vt 0.619718075 1
vt 0.605633974 0
vt 0.605633557 1
vt 0.591549456 0
vt 0.591549039 1
vt 0.577464938 0
vt 0.577464521 1
vt 0.56338042 0
vt 0.563380063 1
vt 0.549295902 0
vt 0.549295604 1
vt 0.535211384 0
vt 0.535211086 1
vt 0.521126866 0
vt 0.521126509 0.99999994
vt 0.507042348 0
vt 0.50704205 1
vt 0.49295783 0
vt 0.492957532 1
vt 0.478873312 0
vt 0.478873044 1
vt 0.464788854 0
vt 0.464788526 1
vt 0.450704306 0
vt 0.450704038 1
vt 0.436619788 0
vt 0.43661955 1
vt 0.42253527 0
vt 0.422535062 1
vt 0.408450782 0
vt 0.408450544 1
vt 0.394366264 0
vt 0.394366026 1
vt 0.380281746 0
vt 0.380281538 1
vt 0.366197228 0
vt 0.36619705 1
vt 0.35211274 0
vt 0.352112532 1
vt 0.338028222 0
vt 0.338028014 1
vt 0.323943704 0
vt 0.323943496 1
vt 0.309859216 0
vt 0.309859008 1
vt 0.295774698 0
vt 0.29577449 1
vt 0.28169018 0
vt 0.281690001 1
vt 0.267605662 0
vt 0.267605484 1
vt 0.253521144 0
vt 0.253520995 1
vt 0.239436641 0
vt 0.239436492 1
vt 0.225352138 0
vt 0.225351989 1
vt 0.21126762 0
vt 0.211267486 1
vt 0.197183102 0
vt 0.197182983 1
vt 0.183098599 0
vt 0.18309848 1
vt 0.169014096 0
vt 0.169013977 1
vt 0.154929593 0
vt 0.154929489 1
vt 0.14084509 0
vt 0.140844986 1
vt 0.126760572 0
vt 0.126760483 1
vt 0.112676062 0
vt 0.112675987 1
vt 0.0985915512 0
vt 0.0985914916 1
vt 0.0845070481 0
vt 0.084506996 1
vt 0.0704225376 0
vt 0.0704224929 1
vt 0.0563380271 0
vt 0.0563379936 1
vt 0.0422535203 0
vt 0.0422534943 1
vt 0.0281690136 0
vt 0.0281689949 1
vt 0.0140845068 0
vt 0.0140844975 1
vt 0 0
vt 0 1
vn 0.0200777985 0.339439094 0.940413713
vn 0.00992585253 0.338773817 0.940815449
vn 0.00992585253 0.338773817 0.940815449
vn 0.020140186 0.339443058 0.940410972
vn 0.0410230346 0.341200322 0.93909502
vn 0.041154664 0.341213912 0.939084411
vn 0.0636155456 0.343519509 0.936988413
vn 0.0638277456 0.343541205 0.936966121
vn 0.088452138 0.345471263 0.934251547
vn 0.0887557343 0.345488548 0.93421638
vn 0.115805015 0.345779777 0.931141973
vn 0.116201647 0.345767558 0.931097269
vn 0.145442039 0.342886478 0.928049326
vn 0.14591296 0.34281075 0.928003311
vn 0.176409781 0.335100502 0.925520003
vn 0.176906243 0.334931046 0.925486505
vn 0.206811309 0.320858359 0.92427212
vn 0.207255065 0.320589721 0.924265921
vn 0.233629614 0.299096227 0.925180316
vn 0.233935446 0.298768848 0.925208867
vn 0.252674818 0.269688606 0.929205835
vn 0.252799034 0.269390225 0.929258585
vn 0.258753687 0.23381722 0.937217176
vn 0.258744091 0.233642355 0.937263429
vn 0.246153191 0.194051012 0.949606657
vn 0.246143207 0.194033921 0.949612677
vn 0.209589019 0.153863728 0.965607822
vn 0.209698871 0.153949484 0.965570271
vn 0.145941049 0.116359077 0.982426524
vn 0.146159843 0.116458319 0.982382119
vn 0.0570473671 0.0822183266 0.994980276
vn 0.0572204813 0.0822748393 0.994965613
vn -0.0476650856 0.0478465334 0.997716784
vn -0.0477814637 0.0478081182 0.997713089
vn -0.152408883 0.00637034886 0.988297045
vn -0.15312548 0.00603791 0.988188326
vn -0.241457686 -0.0468136519 0.969281495
vn -0.242969841 -0.0479534641 0.968847811
vn -0.30515337 -0.108049601 0.9461537
vn -0.307027787 -0.110423423 0.945272684
vn -0.340424091 -0.165587649 0.925576687
vn -0.341519058 -0.168349683 0.924674571
vn -0.347400367 -0.204834029 0.915071547
vn -0.346960008 -0.206237465 0.914923429
vn -0.326719552 -0.21421434 0.920525074
vn -0.325152695 -0.213811725 0.921173334
vn -0.28005749 -0.190913752 0.940807998
vn -0.278417975 -0.189823031 0.941515028
vn -0.214094579 -0.144024283 0.966136873
vn -0.213121504 -0.143292844 0.966460764
vn -0.143081889 -0.0912426338 0.985495985
vn -0.142741024 -0.0909924209 0.985568583
vn -0.0825792253 -0.0483053289 0.995413125
vn -0.0825082064 -0.0482572503 0.99542135
vn -0.0383021943 -0.0197580121 0.999070883
vn -0.0382931866 -0.0197526179 0.99907124
vn -0.00967847928 -0.0048881527 0.99994123
vn -0.00967833865 -0.00488809915 0.99994123
vn 0.0112362588 0.00231633103 0.999934196
vn 0.0112370476 0.00231657666 0.999934196
vn 0.0333533995 0.00765408715 0.999414325
vn 0.0333578996 0.00765488297 0.999414206
vn 0.0601905957 0.0113442875 0.998122394
vn 0.060206417 0.0113459984 0.99812144
vn 0.091756478 0.0135861766 0.995688736
vn 0.0917870775 0.013587282 0.995685935
vn 0.114349306 0.0123984953 0.993363261
vn 0.114362873 0.0123947216 0.993361712
vn 0.103173427 0.00691882474 0.994639337
vn 0.103153065 0.00691453042 0.994641423
vn 0.042873878 0.00106366968 0.999079943
vn 0.0428668894 0.00106332044 0.999080181
vn -0.0428739004 0.0010637145 0.999079943
vn -0.0428667814 0.00106335909 0.9990803
vn -0.10317333 0.00691885501 0.994639337
vn -0.103152923 0.00691455044 0.994641423
vn -0.114349306 0.012398486 0.993363261
vn -0.114362881 0.0123947049 0.993361712
vn -0.0917564929 0.0135861384 0.995688736
vn -0.0917871222 0.0135872448 0.995685935
vn -0.0601905845 0.011344268 0.998122394
vn -0.0602064505 0.0113459816 0.99812144
vn -0.0333534181 0.00765408482 0.999414325
vn -0.0333579443 0.00765488436 0.999414086
vn -0.0112361982 0.00231629726 0.999934196
vn -0.0112370132 0.00231655152 0.999934196
vn 0.00967856497 -0.00488820346 0.99994123
vn 0.00967839174 -0.00488813827 0.99994123
vn 0.038302388 -0.0197581779 0.999070883
vn 0.0382933319 -0.0197527576 0.99907124
vn 0.0825795606 -0.048305653 0.995413125
vn 0.0825084448 -0.0482575111 0.995421231
vn 0.143082306 -0.0912431404 0.985495865
vn 0.142741337 -0.090992853 0.985568464
vn 0.214094833 -0.144024521 0.966136873
vn 0.213121638 -0.143292993 0.966460645
vn 0.28005749 -0.190913871 0.940807998
vn 0.278417915 -0.189823106 0.941515148
vn 0.326719612 -0.214214325 0.920525074
vn 0.325152755 -0.213811785 0.921173275
vn 0.347400308 -0.204833299 0.915071845
vn 0.346959919 -0.20623678 0.914923608
vn 0.340423882 -0.165586218 0.925576985
vn 0.341519028 -0.168348402 0.924674869
vn 0.305153102 -0.108047925 0.946153879
vn 0.307027698 -0.110421866 0.945273042
vn 0.241457537 -0.046813298 0.969281614
vn 0.242969751 -0.0479531214 0.968847811
vn 0.152408823 0.00637089182 0.988297045
vn 0.153125539 0.0060383724 0.988188326
vn 0.0476648919 0.047846809 0.997716784
vn 0.0477814376 0.0478083305 0.997713089
vn -0.0570477359 0.0822174698 0.994980276
vn -0.057220716 0.0822739378 0.994965732
vn -0.145941257 0.116358563 0.982426524
vn -0.146159977 0.116457768 0.982382238
vn -0.209589243 0.153863132 0.965607822
vn -0.20969902 0.153948873 0.96557039
vn -0.24615328 0.194050699 0.949606657
vn -0.246143267 0.194033563 0.949612796
vn -0.258753836 0.233816966 0.937217176
vn -0.25874421 0.233642057 0.937263429
vn -0.252674878 0.269688517 0.929205835
vn -0.252799064 0.269390017 0.929258585
vn -0.233629748 0.299096078 0.925180316
vn -0.233935654 0.298768759 0.925208807
vn -0.206811637 0.320858121 0.92427212
vn -0.207255408 0.320589364 0.924265921
vn -0.176409632 0.335100532 0.925520003
vn -0.176906198 0.334931016 0.925486624
vn -0.145441875 0.342886597 0.928049326
vn -0.145912841 0.342810869 0.928003311
vn -0.115805298 0.345779806 0.931141973
vn -0.116201974 0.345767617 0.93109715
vn -0.0884520561 0.345471531 0.934251428
vn -0.0887556896 0.345488816 0.934216261
vn -0.0636153594 0.343519688 0.936988413
vn -0.0638275743 0.343541324 0.936966002
vn -0.0410227552 0.341200322 0.93909502
vn -0.0411544107 0.341213942 0.939084411
vn -0.0200775154 0.339439064 0.940413713
vn -0.0201399121 0.339443058 0.940410972
vn -0.00992586184 0.338773876 0.940815449
vn -0.00992586091 0.338773787 0.940815449
g general_ring_56_0
f 3/3/3 2/2/2 1/1/1
f 2/2/2 4/4/4 1/1/1
f 1/1/1 4/4/4 5/5/5
f 4/4/4 6/6/6 5/5/5
f 5/5/5 6/6/6 7/7/7
f 6/6/6 8/8/8 7/7/7
f 7/7/7 8/8/8 9/9/9
f 8/8/8 10/10/10 9/9/9
f 9/9/9 10/10/10 11/11/11
f 10/10/10 12/12/12 11/11/11
f 11/11/11 12/12/12 13/13/13
f 12/12/12 14/14/14 13/13/13
f 13/13/13 14/14/14 15/15/15
f 14/14/14 16/16/16 15/15/15
f 15/15/15 16/16/16 17/17/17
f 16/16/16 18/18/18 17/17/17
f 17/17/17 18/18/18 19/19/19
f 18/18/18 20/20/20 19/19/19
f 19/19/19 20/20/20 21/21/21
f 20/20/20 22/22/22 21/21/21
f 21/21/21 22/22/22 23/23/23
f 22/22/22 24/24/24 23/23/23
f 23/23/23 24/24/24 25/25/25
f 24/24/24 26/26/26 25/25/25
f 25/25/25 26/26/26 27/27/27
f 26/26/26 28/28/28 27/27/27
f 27/27/27 28/28/28 29/29/29
f 28/28/28 30/30/30 29/29/29
f 29/29/29 30/30/30 31/31/31
f 30/30/30 32/32/32 31/31/31
f 31/31/31 32/32/32 33/33/33
f 32/32/32 34/34/34 33/33/33
f 33/33/33 34/34/34 35/35/35
f 34/34/34 36/36/36 35/35/35
f 35/35/35 36/36/36 37/37/37
f 36/36/36 38/38/38 37/37/37
f 37/37/37 38/38/38 39/39/39
f 38/38/38 40/40/40 39/39/39
f 39/39/39 40/40/40 41/41/41
f 40/40/40 42/42/42 41/41/41
f 41/41/41 42/42/42 43/43/43
f 42/42/42 44/44/44 43/43/43
f 43/43/43 44/44/44 45/45/45
f 44/44/44 46/46/46 45/45/45
f 45/45/45 46/46/46 47/47/47
f 46/46/46 48/48/48 47/47/47
f 47/47/47 48/48/48 49/49/49
f 48/48/48 50/50/50 49/49/49
f 49/49/49 50/50/50 51/51/51
f 50/50/50 52/52/52 51/51/51
f 51/51/51 52/52/52 53/53/53
f 52/52/52 54/54/54 53/53/53
f 53/53/53 54/54/54 55/55/55
f 54/54/54 56/56/56 55/55/55
f 55/55/55 56/56/56 57/57/57
f 56/56/56 58/58/58 57/57/57
f 57/57/57 58/58/58 59/59/59
f 58/58/58 60/60/60 59/59/59
f 59/59/59 60/60/60 61/61/61
f 60/60/60 62/62/62 61/61/61
f 61/61/61 62/62/62 63/63/63
f 62/62/62 64/64/64 63/63/63
f 63/63/63 64/64/64 65/65/65
f 64/64/64 66/66/66 65/65/65
f 65/65/65 66/66/66 67/67/67
f 66/66/66 68/68/68 67/67/67
f 67/67/67 68/68/68 69/69/69
f 68/68/68 70/70/70 69/69/69
f 69/69/69 70/70/70 71/71/71
f 70/70/70 72/72/72 71/71/71
f 71/71/71 72/72/72 73/73/73
f 72/72/72 74/74/74 73/73/73
f 73/73/73 74/74/74 75/75/75
f 74/74/74 76/76/76 75/75/75
f 75/75/75 76/76/76 77/77/77
f 76/76/76 78/78/78 77/77/77
f 77/77/77 78/78/78 79/79/79
f 78/78/78 80/80/80 79/79/79
f 79/79/79 80/80/80 81/81/81
f 80/80/80 82/82/82 81/81/81
f 81/81/81 82/82/82 83/83/83
f 82/82/82 84/84/84 83/83/83
f 83/83/83 84/84/84 85/85/85
f 84/84/84 86/86/86 85/85/85
f 85/85/85 86/86/86 87/87/87
f 86/86/86 88/88/88 87/87/87
f 87/87/87 88/88/88 89/89/89
f 88/88/88 90/90/90 89/89/89
f 89/89/89 90/90/90 91/91/91
f 90/90/90 92/92/92 91/91/91
f 91/91/91 92/92/92 93/93/93
f 92/92/92 94/94/94 93/93/93
f 93/93/93 94/94/94 95/95/95
f 94/94/94 96/96/96 95/95/95
f 95/95/95 96/96/96 97/97/97
f 96/96/96 98/98/98 97/97/97
f 97/97/97 98/98/98 99/99/99
f 98/98/98 100/100/100 99/99/99
f 99/99/99 100/100/100 101/101/101
f 100/100/100 102/102/102 101/101/101
f 101/101/101 102/102/102 103/103/103
f 102/102/102 104/104/104 103/103/103
f 103/103/103 104/104/104 105/105/105
f 104/104/104 106/106/106 105/105/105
f 105/105/105 106/106/106 107/107/107
f 106/106/106 108/108/108 107/107/107
f 107/107/107 108/108/108 109/109/109
f 108/108/108 110/110/110 109/109/109
f 109/109/109 110/110/110 111/111/111
f 110/110/110 112/112/112 111/111/111
f 111/111/111 112/112/112 113/113/113
f 112/112/112 114/114/114 113/113/113
f 113/113/113 114/114/114 115/115/115
f 114/114/114 116/116/116 115/115/115
f 115/115/115 116/116/116 117/117/117
f 116/116/116 118/118/118 117/117/117
f 117/117/117 118/118/118 119/119/119
f 118/118/118 120/120/120 119/119/119
f 119/119/119 120/120/120 121/121/121
f 120/120/120 122/122/122 121/121/121
f 121/121/121 122/122/122 123/123/123
f 122/122/122 124/124/124 123/123/123
f 123/123/123 124/124/124 125/125/125
f 124/124/124 126/126/126 125/125/125
f 125/125/125 126/126/126 127/127/127
f 126/126/126 128/128/128 127/127/127
f 127/127/127 128/128/128 129/129/129
f 128/128/128 130/130/130 129/129/129
f 129/129/129 130/130/130 131/131/131
f 130/130/130 132/132/132 131/131/131
f 131/131/131 132/132/132 133/133/133
f 132/132/132 134/134/134 133/133/133
f 133/133/133 134/134/134 135/135/135
f 134/134/134 136/136/136 135/135/135
f 135/135/135 136/136/136 137/137/137
f 136/136/136 138/138/138 137/137/137
f 137/137/137 138/138/138 139/139/139
f 138/138/138 140/140/140 139/139/139
f 139/139/139 140/140/140 141/141/141
f 140/140/140 142/142/142 141/141/141
f 141/141/141 142/142/142 143/143/143
f 142/142/142 144/144/144 143/143/143
