g vvana_helix02
v -0.00414342619 0.446196496 -2.04385217E-10
v 0.0378234051 0.408936173 -5.75926973E-10
v -0.00650346745 0.44216001 -4.08771073E-10
v 0.0419358723 0.414082795 -2.87963375E-10
v -0.00178338995 0.450233042 4.16864274E-16
v 0.0725877061 0.368483722 -7.43082873E-10
v 0.0460483432 0.419229358 4.16864274E-16
v 0.000576647522 0.454269499 2.0438605E-10
v 0.0792639554 0.373744458 -3.71541325E-10
v 0.0995423496 0.32140094 -9.10238329E-10
v 0.0501608104 0.424375892 2.87963792E-10
v 0.00293668732 0.458305985 4.08771877E-10
v 0.0542732812 0.429522514 5.75927361E-10
v 0.0859402046 0.379005224 2.08432137E-16
v 0.108575083 0.326579541 -4.55118887E-10
v 0.115400188 0.273242384 -1.07739428E-09
v 0.0926164612 0.384266019 3.7154177E-10
v 0.0992927179 0.389526755 7.43083095E-10
v 0.117607817 0.331758112 4.16864274E-16
v 0.12746495 0.275756627 -5.38696809E-10
v 0.109899282 0.231208891 -1.24455013E-09
v 0.126640558 0.336936712 4.55119692E-10
v 0.135673285 0.342115283 9.10238773E-10
v 0.13952975 0.278270721 4.16864274E-16
v 0.123762108 0.227970764 -6.22275176E-10
v 0.0881764665 0.185555726 -1.41170575E-09
v 0.15159452 0.280784905 5.3869742E-10
v 0.163659304 0.283299088 1.07739451E-09
v 0.137624949 0.224732667 2.08432137E-16
v 0.102426 0.177959025 -7.0585271E-10
v 0.0581208542 0.149351597 -1.57886115E-09
v 0.151487783 0.221494555 6.22275009E-10
v 0.165350601 0.218256429 1.24455013E-09
v 0.116675526 0.170362324 0
v 0.0712637529 0.136964887 -7.89430243E-10
v 0.0163039081 0.117306605 -1.746017E-09
v 0.130925059 0.162765607 7.05852932E-10
v 0.145174593 0.155168936 1.41170575E-09
v 0.0844066292 0.124578185 0
v 0.0287037361 0.101649985 -8.73008221E-10
v -0.0307119712 0.0859087557 -1.91317295E-09
v 0.0975495204 0.112191476 7.89430854E-10
v 0.110692419 0.0998047739 1.5788616E-09
v 0.0411035568 0.0859933868 0
v -0.0176705308 0.0683350042 -9.56586144E-10
v -0.0777922049 0.0605674349 -2.08032835E-09
v 0.053503383 0.0703367665 8.7300861E-10
v 0.0659032017 0.0546801649 1.746017E-09
v -0.00462905504 0.0507612787 0
v -0.0656626523 0.0400947072 -1.04016418E-09
v -0.132631421 0.028686136 -2.24748375E-09
v 0.00841236953 0.0331875235 9.56586366E-10
v 0.0214538611 0.0156138055 1.91317273E-09
v -0.0535331033 0.0196219888 0
v -0.116499268 0.00866950024 -1.12374254E-09
v -0.181739956 -0.0120311687 -2.41464027E-09
v -0.0414035544 -0.000850729935 1.04016418E-09
v -0.0292740036 -0.0213234555 2.08032858E-09
v -0.100367106 -0.0113471504 0
v -0.161680073 -0.0310174692 -1.20732035E-09
v -0.226716265 -0.0637979358 -2.58179567E-09
v -0.084234938 -0.0313637964 1.1237421E-09
v -0.0681027845 -0.0513804369 2.2474842E-09
v -0.141620159 -0.0500037819 0
v -0.201516777 -0.0791973621 -1.29089794E-09
v -0.259301871 -0.125149012 -2.74895173E-09
v -0.121560283 -0.0689900815 1.2073198E-09
v -0.101500392 -0.0879763737 2.41463982E-09
v -0.176317289 -0.0945967808 0
v -0.229620963 -0.135531217 -1.37447598E-09
v -0.28106603 -0.18981944 -2.91610713E-09
v -0.151117802 -0.109996222 1.29089783E-09
v -0.125918314 -0.125395641 2.58179544E-09
v -0.199940071 -0.145913422 -4.16864274E-16
v -0.248404801 -0.196593791 -1.45805346E-09
v -0.293561578 -0.257291138 -3.0832632E-09
v -0.170259163 -0.156295642 1.37447553E-09
v -0.140578255 -0.166677848 2.74895129E-09
v -0.215743572 -0.203368142 -4.16864274E-16
v -0.258305311 -0.25821647 -1.54163182E-09
v -0.290294081 -0.330728441 -3.25041882E-09
v -0.183082342 -0.210142493 1.45805323E-09
v -0.150421113 -0.216916844 2.91610691E-09
v -0.22304903 -0.259141803 -4.16864274E-16
v -0.253871888 -0.323257655 -1.62520974E-09
v -0.278680801 -0.392335087 -3.41757445E-09
v -0.187792748 -0.260067135 1.54163116E-09
v -0.152536482 -0.260992467 3.08326253E-09
v -0.217449754 -0.315786779 -4.16864274E-16
v -0.241238862 -0.381095737 -1.70878778E-09
v -0.258718431 -0.45666492 -3.58473007E-09
v -0.181027606 -0.308316022 1.62520897E-09
v -0.144605458 -0.300845146 3.25041838E-09
v -0.203796893 -0.369856328 -4.16864274E-16
v -0.221327543 -0.439833641 -1.79236537E-09
v -0.232653767 -0.515397608 -3.75188591E-09
v -0.195091248 -0.494639754 -1.87594362E-09
v -0.166354954 -0.358616948 1.70878678E-09
v -0.128913015 -0.347377568 3.41757378E-09
v -0.183936656 -0.423002303 -4.16864274E-16
v -0.157528713 -0.47388193 -4.16864274E-16
v -0.146545768 -0.406171024 1.79236459E-09
v -0.109154873 -0.389339715 3.58472985E-09
v -0.119966187 -0.453124076 1.87594229E-09
v -0.0824036598 -0.432366222 3.75188547E-09
vt 0.75 0
vt 1 0.0500000007
vt 1 0
vt 0.75 0.0500000007
vt 0.5 0
vt 1 0.100000001
vt 0.5 0.0500000007
vt 0.25 0
vt 0.75 0.100000001
vt 1 0.150000006
vt 0.25 0.0500000007
vt 0 0
vt 0 0.0500000007
vt 0.5 0.100000001
vt 0.75 0.150000006
vt 1 0.200000003
vt 0.25 0.100000001
vt 0 0.100000001
vt 0.5 0.150000006
vt 0.75 0.200000003
vt 1 0.25
vt 0.25 0.150000006
vt 0 0.150000006
vt 0.5 0.200000003
vt 0.75 0.25
vt 1 0.300000012
vt 0.25 0.200000003
vt 0 0.200000003
vt 0.5 0.25
vt 0.75 0.300000012
vt 1 0.350000024
vt 0.25 0.25
vt 0 0.25
vt 0.5 0.300000012
vt 0.75 0.350000024
vt 1 0.400000036
vt 0.25 0.300000012
vt 0 0.300000012
vt 0.5 0.350000024
vt 0.75 0.400000036
vt 1 0.450000048
vt 0.25 0.350000024
vt 0 0.350000024
vt 0.5 0.400000036
vt 0.75 0.450000048
vt 1 0.50000006
vt 0.25 0.400000036
vt 0 0.400000036
vt 0.5 0.450000048
vt 0.75 0.50000006
vt 1 0.550000072
vt 0.25 0.450000048
vt 0 0.450000048
vt 0.5 0.50000006
vt 0.75 0.550000072
vt 1 0.600000083
vt 0.25 0.50000006
vt 0 0.50000006
vt 0.5 0.550000072
vt 0.75 0.600000083
vt 1 0.650000095
vt 0.25 0.550000072
vt 0 0.550000072
vt 0.5 0.600000083
vt 0.75 0.650000095
vt 1 0.700000107
vt 0.25 0.600000083
vt 0 0.600000083
vt 0.5 0.650000095
vt 0.75 0.700000107
vt 1 0.750000119
vt 0.25 0.650000095
vt 0 0.650000095
vt 0.5 0.700000107
vt 0.75 0.750000119
vt 1 0.800000131
vt 0.25 0.700000107
vt 0 0.700000107
vt 0.5 0.750000119
vt 0.75 0.800000131
vt 1 0.850000143
vt 0.25 0.750000119
vt 0 0.750000119
vt 0.5 0.800000131
vt 0.75 0.850000143
vt 1 0.900000155
vt 0.25 0.800000131
vt 0 0.800000131
vt 0.5 0.850000143
vt 0.75 0.900000155
vt 1 0.950000167
vt 0.25 0.850000143
vt 0 0.850000143
vt 0.5 0.900000155
vt 0.75 0.950000167
vt 1 1.00000012
vt 0.75 1.00000012
vt 0.25 0.900000155
vt 0 0.900000155
vt 0.5 0.950000167
vt 0.5 1.00000012
vt 0.25 0.950000167
vt 0 0.950000167
vt 0.25 1.00000012
vt 0 1.00000012
vn -0 0 1
vn -0 0 1
vn -0 0 1
vn -0 0 1
vn -0 0 1
vn -0 0 1
vn -0 0 1
vn -0 0 1
vn -0 0 1
vn -0 0 1
vn -0 0 1
vn -0 0 1
vn -0 0 1
vn -0 0 1
vn -0 0 1
vn -0 0 1
vn -0 0 1
vn -0 0 1
vn -0 0 1
vn -0 0 1
vn -0 0 1
vn -0 0 1
vn -0 0 1
vn -0 0 1
vn -0 0 1
vn -0 0 1
vn -0 0 1
vn -0 0 1
vn -0 0 1
vn -0 0 1
vn -0 0 1
vn -0 0 1
vn -0 0 1
vn -0 0 1
vn -0 0 1
vn -0 0 1
vn -0 0 1
vn -0 0 1
vn -0 0 1
vn -0 0 1
vn -0 0 1
vn -0 0 1
vn -0 0 1
vn -0 0 1
vn -0 0 1
vn -0 0 1
vn -0 0 1
vn -0 0 1
vn -0 0 1
vn -0 0 1
vn -0 0 1
vn -0 0 1
vn -0 0 1
vn -0 0 1
vn -0 0 1
vn -0 0 1
vn -0 0 1
vn -0 0 1
vn -0 0 1
vn -0 0 1
vn -0 0 1
vn -0 0 1
vn -0 0 1
vn -0 0 1
vn -0 0 1
vn -0 0 1
vn -0 0 1
vn -0 0 1
vn -0 0 1
vn -0 0 1
vn -0 0 1
vn -0 0 1
vn -0 0 1
vn -0 0 1
vn -0 0 1
vn -0 0 1
vn -0 0 1
vn -0 0 1
vn -0 0 1
vn -0 0 1
vn -0 0 1
vn -0 0 1
vn -0 0 1
vn -0 0 1
vn -0 0 1
vn -0 0 1
vn -0 0 1
vn -0 0 1
vn -0 0 1
vn -0 0 1
vn -0 0 1
vn -0 0 1
vn -0 0 1
vn -0 0 1
vn -0 0 1
vn -0 0 1
vn -0 0 1
vn -0 0 1
vn -0 0 1
vn -0 0 1
vn -0 0 1
vn -0 0 1
vn -0 0 1
vn -0 0 1
vn -0 0 1
g vvana_helix02_0
f 3/3/3 2/2/2 1/1/1
f 2/2/2 4/4/4 1/1/1
f 1/1/1 4/4/4 5/5/5
f 2/2/2 6/6/6 4/4/4
f 4/4/4 7/7/7 5/5/5
f 5/5/5 7/7/7 8/8/8
f 6/6/6 9/9/9 4/4/4
f 4/4/4 9/9/9 7/7/7
f 6/6/6 10/10/10 9/9/9
f 7/7/7 11/11/11 8/8/8
f 8/8/8 11/11/11 12/12/12
f 11/11/11 13/13/13 12/12/12
f 9/9/9 14/14/14 7/7/7
f 7/7/7 14/14/14 11/11/11
f 10/10/10 15/15/15 9/9/9
f 9/9/9 15/15/15 14/14/14
f 10/10/10 16/16/16 15/15/15
f 11/11/11 17/17/17 13/13/13
f 14/14/14 17/17/17 11/11/11
f 17/17/17 18/18/18 13/13/13
f 15/15/15 19/19/19 14/14/14
f 14/14/14 19/19/19 17/17/17
f 16/16/16 20/20/20 15/15/15
f 15/15/15 20/20/20 19/19/19
f 16/16/16 21/21/21 20/20/20
f 17/17/17 22/22/22 18/18/18
f 19/19/19 22/22/22 17/17/17
f 22/22/22 23/23/23 18/18/18
f 20/20/20 24/24/24 19/19/19
f 19/19/19 24/24/24 22/22/22
f 21/21/21 25/25/25 20/20/20
f 20/20/20 25/25/25 24/24/24
f 21/21/21 26/26/26 25/25/25
f 22/22/22 27/27/27 23/23/23
f 24/24/24 27/27/27 22/22/22
f 27/27/27 28/28/28 23/23/23
f 25/25/25 29/29/29 24/24/24
f 24/24/24 29/29/29 27/27/27
f 26/26/26 30/30/30 25/25/25
f 25/25/25 30/30/30 29/29/29
f 26/26/26 31/31/31 30/30/30
f 27/27/27 32/32/32 28/28/28
f 29/29/29 32/32/32 27/27/27
f 32/32/32 33/33/33 28/28/28
f 30/30/30 34/34/34 29/29/29
f 29/29/29 34/34/34 32/32/32
f 31/31/31 35/35/35 30/30/30
f 30/30/30 35/35/35 34/34/34
f 31/31/31 36/36/36 35/35/35
f 32/32/32 37/37/37 33/33/33
f 34/34/34 37/37/37 32/32/32
f 37/37/37 38/38/38 33/33/33
f 35/35/35 39/39/39 34/34/34
f 34/34/34 39/39/39 37/37/37
f 36/36/36 40/40/40 35/35/35
f 35/35/35 40/40/40 39/39/39
f 36/36/36 41/41/41 40/40/40
f 37/37/37 42/42/42 38/38/38
f 39/39/39 42/42/42 37/37/37
f 42/42/42 43/43/43 38/38/38
f 40/40/40 44/44/44 39/39/39
f 39/39/39 44/44/44 42/42/42
f 41/41/41 45/45/45 40/40/40
f 40/40/40 45/45/45 44/44/44
f 41/41/41 46/46/46 45/45/45
f 42/42/42 47/47/47 43/43/43
f 44/44/44 47/47/47 42/42/42
f 47/47/47 48/48/48 43/43/43
f 45/45/45 49/49/49 44/44/44
f 44/44/44 49/49/49 47/47/47
f 46/46/46 50/50/50 45/45/45
f 45/45/45 50/50/50 49/49/49
f 46/46/46 51/51/51 50/50/50
f 47/47/47 52/52/52 48/48/48
f 49/49/49 52/52/52 47/47/47
f 52/52/52 53/53/53 48/48/48
f 50/50/50 54/54/54 49/49/49
f 49/49/49 54/54/54 52/52/52
f 51/51/51 55/55/55 50/50/50
f 50/50/50 55/55/55 54/54/54
f 51/51/51 56/56/56 55/55/55
f 52/52/52 57/57/57 53/53/53
f 54/54/54 57/57/57 52/52/52
f 57/57/57 58/58/58 53/53/53
f 55/55/55 59/59/59 54/54/54
f 54/54/54 59/59/59 57/57/57
f 56/56/56 60/60/60 55/55/55
f 55/55/55 60/60/60 59/59/59
f 56/56/56 61/61/61 60/60/60
f 57/57/57 62/62/62 58/58/58
f 59/59/59 62/62/62 57/57/57
f 62/62/62 63/63/63 58/58/58
f 60/60/60 64/64/64 59/59/59
f 59/59/59 64/64/64 62/62/62
f 61/61/61 65/65/65 60/60/60
f 60/60/60 65/65/65 64/64/64
f 61/61/61 66/66/66 65/65/65
f 62/62/62 67/67/67 63/63/63
f 64/64/64 67/67/67 62/62/62
f 67/67/67 68/68/68 63/63/63
f 65/65/65 69/69/69 64/64/64
f 64/64/64 69/69/69 67/67/67
f 66/66/66 70/70/70 65/65/65
f 65/65/65 70/70/70 69/69/69
f 66/66/66 71/71/71 70/70/70
f 67/67/67 72/72/72 68/68/68
f 69/69/69 72/72/72 67/67/67
f 72/72/72 73/73/73 68/68/68
f 70/70/70 74/74/74 69/69/69
f 69/69/69 74/74/74 72/72/72
f 71/71/71 75/75/75 70/70/70
f 70/70/70 75/75/75 74/74/74
f 71/71/71 76/76/76 75/75/75
f 72/72/72 77/77/77 73/73/73
f 74/74/74 77/77/77 72/72/72
f 77/77/77 78/78/78 73/73/73
f 75/75/75 79/79/79 74/74/74
f 74/74/74 79/79/79 77/77/77
f 76/76/76 80/80/80 75/75/75
f 75/75/75 80/80/80 79/79/79
f 76/76/76 81/81/81 80/80/80
f 77/77/77 82/82/82 78/78/78
f 79/79/79 82/82/82 77/77/77
f 82/82/82 83/83/83 78/78/78
f 80/80/80 84/84/84 79/79/79
f 79/79/79 84/84/84 82/82/82
f 81/81/81 85/85/85 80/80/80
f 80/80/80 85/85/85 84/84/84
f 81/81/81 86/86/86 85/85/85
f 82/82/82 87/87/87 83/83/83
f 84/84/84 87/87/87 82/82/82
f 87/87/87 88/88/88 83/83/83
f 85/85/85 89/89/89 84/84/84
f 84/84/84 89/89/89 87/87/87
f 86/86/86 90/90/90 85/85/85
f 85/85/85 90/90/90 89/89/89
f 86/86/86 91/91/91 90/90/90
f 87/87/87 92/92/92 88/88/88
f 89/89/89 92/92/92 87/87/87
f 92/92/92 93/93/93 88/88/88
f 90/90/90 94/94/94 89/89/89
f 89/89/89 94/94/94 92/92/92
f 91/91/91 95/95/95 90/90/90
f 90/90/90 95/95/95 94/94/94
f 91/91/91 96/96/96 95/95/95
f 96/96/96 97/97/97 95/95/95
f 92/92/92 98/98/98 93/93/93
f 94/94/94 98/98/98 92/92/92
f 98/98/98 99/99/99 93/93/93
f 95/95/95 100/100/100 94/94/94
f 95/95/95 97/97/97 100/100/100
f 94/94/94 100/100/100 98/98/98
f 97/97/97 101/101/101 100/100/100
f 98/98/98 102/102/102 99/99/99
f 100/100/100 102/102/102 98/98/98
f 100/100/100 101/101/101 102/102/102
f 102/102/102 103/103/103 99/99/99
f 101/101/101 104/104/104 102/102/102
f 102/102/102 104/104/104 103/103/103
f 104/104/104 105/105/105 103/103/103
