g vvana_helix
v 0.0414380021 0.00233154302 0.203529894
v 0.0419701822 -0.0115744015 0.212161765
v 0.0422451235 -0.0109699247 0.21275799
v 0.0407632105 0.000848007156 0.20206663
v 0.0397626162 0.0155303953 0.193861768
v 0.0416952372 -0.0121788401 0.211565569
v 0.0387580916 0.0131333154 0.191745788
v 0.0345806926 0.027962951 0.183300972
v 0.04008843 -0.000635490404 0.200603381
v 0.0414202921 -0.0127832787 0.210969374
v 0.0334616266 0.0244434737 0.180953443
v 0.025987057 0.0384284966 0.171916306
v 0.0377535746 0.0107362745 0.189629838
v 0.0394136459 -0.00211898796 0.199140146
v 0.0411453471 -0.0133877564 0.210373148
v 0.0387388654 -0.00360248564 0.197676897
v 0.0367490426 0.00833923277 0.187513828
v 0.035744518 0.00594215374 0.185397834
v 0.0250972603 0.0337264612 0.169723317
v 0.0145767014 0.0458388142 0.159740686
v 0.0323425867 0.0209239572 0.178605959
v 0.031223515 0.0174044408 0.17625843
v 0.0301044788 0.0138849253 0.173910931
v 0.0143209593 0.0400651172 0.158072025
v 0.00139269349 0.0492868796 0.146889031
v 0.0242074635 0.0290243905 0.167530328
v 0.0233176704 0.024322357 0.165337324
v 0.0224278737 0.0196202844 0.163144335
v 0.002121625 0.0427495167 0.146057427
v -0.0121575044 0.0482689664 0.133543685
v 0.0140652414 0.0342914201 0.156403393
v 0.0138094807 0.0285177231 0.154734716
v 0.0135537386 0.022744026 0.153066054
v -0.0102584427 0.0414227657 0.133771271
v -0.0245002899 0.0428458788 0.11993368
v 0.00285055628 0.0362121947 0.145225823
v 0.00357951154 0.0296748728 0.144394264
v 0.0043084193 0.0231375489 0.143562645
v -0.021472156 0.0361837372 0.12132895
v -0.0341588631 0.0336872078 0.106309861
v -0.00835936982 0.0345765688 0.133998856
v -0.00646027317 0.0277304072 0.134226471
v -0.00456116442 0.0208842084 0.134454101
v -0.0302562993 0.0276145171 0.108857118
v -0.040010538 0.0219820775 0.0929179192
v -0.0184440091 0.0295215975 0.122724235
v -0.0154158687 0.0228593815 0.124119505
v -0.012387733 0.0161972418 0.125514776
v -0.0356188565 0.0167219155 0.0964803174
v -0.0414684825 0.00923961587 0.0799725354
v -0.026353756 0.0215418618 0.111404352
v -0.0224511959 0.0154691692 0.113951601
v -0.018548632 0.00939651486 0.11649885
v -0.0369831659 0.00480354298 0.0843083113
v -0.0382970944 -0.0032736205 0.0672413036
v -0.0312272049 0.0114617916 0.100042693
v -0.0268355291 0.00620166771 0.103605084
v -0.022443857 0.000941505423 0.107167467
v -0.0340842903 -0.0068634795 0.0722278506
v -0.0314800031 -0.0131110381 0.0558608994
v -0.0324978754 0.000367431639 0.0886440352
v -0.0280125607 -0.00406867964 0.0929797813
v -0.0235272478 -0.00850482937 0.0973154977
v -0.0275665708 -0.0163813401 0.0608125329
v -0.0220007133 -0.0199322514 0.0451700091
v -0.0298714507 -0.0104533769 0.0772144124
v -0.0256586466 -0.0140432352 0.0822009742
v -0.0214458294 -0.0176331326 0.0871875063
v -0.0183090437 -0.0230072774 0.0497389771
v -0.0113895293 -0.0230130386 0.0354724936
v -0.023653144 -0.0196516421 0.0657641217
v -0.0197396912 -0.0229219813 0.0707157776
v -0.0158262663 -0.0261922833 0.0756673664
v -0.00761544704 -0.025888443 0.0391703025
v -0.000302424422 -0.0222316347 0.0259333346
v -0.0146173639 -0.0260823052 0.0543079376
v -0.010925727 -0.0291573331 0.0588768832
v -0.00723405834 -0.0322323591 0.0634458512
v 0.00344631658 -0.02467205 0.0287085045
v 0.00927686226 -0.018010674 0.0171540584
v -0.00384136662 -0.0287638474 0.0428681113
v -6.72864917E-05 -0.0316392519 0.0465659238
v 0.00370679842 -0.0345146917 0.0502637289
v 0.0130434176 -0.0196244046 0.0186899547
v 0.016794743 -0.0105284499 0.0083246734
v 0.00719504338 -0.0271125026 0.0314836875
v 0.0109437797 -0.0295529161 0.0342588574
v 0.0146925114 -0.0319933295 0.0370340422
v 0.0200613588 -0.0111134332 0.00879316032
v 0.0206082761 0.000690345769 -0.000447646482
v 0.0168099646 -0.0212380979 0.0202258639
v 0.0205765292 -0.0228518285 0.0217617452
v 0.0243430808 -0.0244655218 0.0232976414
v 0.0227983706 0.000714683498 -0.000463410805
v 0.0229920577 0.0141427228 -0.00917051639
v 0.0238844249 0.0141526414 -0.00917693973
v 0.0233279373 -0.0116983792 0.00926164165
v 0.0265945476 -0.0122833252 0.00973012857
v 0.0298611578 -0.0128682703 0.0101986155
v 0.0249884259 0.000738983159 -0.000479174865
v 0.0247767586 0.0141625209 -0.00918336306
v 0.0271784775 0.000763282762 -0.000494938926
v 0.0293685328 0.000787620549 -0.000510703016
v 0.0256690923 0.0141724395 -0.00918978639
v 0.0265614651 0.0141823571 -0.00919620879
vt 0.950000167 0
vt 1.00000012 0.25
vt 1.00000012 0
vt 0.950000167 0.25
vt 0.900000155 0
vt 1.00000012 0.5
vt 0.900000155 0.25
vt 0.850000143 0
vt 0.950000167 0.5
vt 1.00000012 0.75
vt 0.850000143 0.25
vt 0.800000131 0
vt 0.900000155 0.5
vt 0.950000167 0.75
vt 1.00000012 1
vt 0.950000167 1
vt 0.900000155 0.75
vt 0.900000155 1
vt 0.800000131 0.25
vt 0.750000119 0
vt 0.850000143 0.5
vt 0.850000143 0.75
vt 0.850000143 1
vt 0.750000119 0.25
vt 0.700000107 0
vt 0.800000131 0.5
vt 0.800000131 0.75
vt 0.800000131 1
vt 0.700000107 0.25
vt 0.650000095 0
vt 0.750000119 0.5
vt 0.750000119 0.75
vt 0.750000119 1
vt 0.650000095 0.25
vt 0.600000083 0
vt 0.700000107 0.5
vt 0.700000107 0.75
vt 0.700000107 1
vt 0.600000083 0.25
vt 0.550000072 0
vt 0.650000095 0.5
vt 0.650000095 0.75
vt 0.650000095 1
vt 0.550000072 0.25
vt 0.50000006 0
vt 0.600000083 0.5
vt 0.600000083 0.75
vt 0.600000083 1
vt 0.50000006 0.25
vt 0.450000048 0
vt 0.550000072 0.5
vt 0.550000072 0.75
vt 0.550000072 1
vt 0.450000048 0.25
vt 0.400000036 0
vt 0.50000006 0.5
vt 0.50000006 0.75
vt 0.50000006 1
vt 0.400000036 0.25
vt 0.350000024 0
vt 0.450000048 0.5
vt 0.450000048 0.75
vt 0.450000048 1
vt 0.350000024 0.25
vt 0.300000012 0
vt 0.400000036 0.5
vt 0.400000036 0.75
vt 0.400000036 1
vt 0.300000012 0.25
vt 0.25 0
vt 0.350000024 0.5
vt 0.350000024 0.75
vt 0.350000024 1
vt 0.25 0.25
vt 0.200000003 0
vt 0.300000012 0.5
vt 0.300000012 0.75
vt 0.300000012 1
vt 0.200000003 0.25
vt 0.150000006 0
vt 0.25 0.5
vt 0.25 0.75
vt 0.25 1
vt 0.150000006 0.25
vt 0.100000001 0
vt 0.200000003 0.5
vt 0.200000003 0.75
vt 0.200000003 1
vt 0.100000001 0.25
vt 0.0500000007 0
vt 0.150000006 0.5
vt 0.150000006 0.75
vt 0.150000006 1
vt 0.0500000007 0.25
vt 0 0
vt 0 0.25
vt 0.100000001 0.5
vt 0.100000001 0.75
vt 0.100000001 1
vt 0.0500000007 0.5
vt 0 0.5
vt 0.0500000007 0.75
vt 0.0500000007 1
vt 0 0.75
vt 0 1
vn 0.94357872 -0.127511904 -0.305614322
vn 0.946043551 -0.143988594 -0.290291011
vn 0.946044326 -0.143987209 -0.290289402
vn 0.943804085 -0.128897354 -0.304334342
vn 0.922605515 -0.0500741526 -0.3824808
vn 0.946042895 -0.14399001 -0.290292263
vn 0.924047649 -0.0542330109 -0.378410786
vn 0.867961645 0.0534974858 -0.493741453
vn 0.943808854 -0.128926307 -0.304307103
vn 0.946043432 -0.143988937 -0.290291011
vn 0.869908631 0.0508342795 -0.490586102
vn 0.799353838 0.123186596 -0.588097274
vn 0.923989117 -0.0540947877 -0.378573567
vn 0.943814576 -0.128954113 -0.304277658
vn 0.946044087 -0.143987596 -0.290289879
vn 0.943561614 -0.127393529 -0.305716366
vn 0.923926115 -0.0539449751 -0.378748477
vn 0.921703517 -0.0476339646 -0.38495931
vn 0.801179469 0.121836297 -0.585890114
vn 0.736896694 0.157433107 -0.657417655
vn 0.869720459 0.0510983095 -0.49089238
vn 0.869515777 0.0513850637 -0.491224945
vn 0.86638546 0.0556387343 -0.496266723
vn 0.738146067 0.157008529 -0.656116307
vn 0.697518647 0.166439533 -0.696968853
vn 0.801042795 0.121946998 -0.586054027
vn 0.800889194 0.122071125 -0.586238027
vn 0.798078358 0.124150068 -0.589625001
vn 0.697991431 0.166433051 -0.696496964
vn 0.69062525 0.168230101 -0.703374386
vn 0.738101065 0.157029346 -0.656161964
vn 0.738048613 0.157053411 -0.65621525
vn 0.736269772 0.157663479 -0.658064604
vn 0.690491498 0.168189019 -0.70351541
vn 0.714714348 0.183715895 -0.67485702
vn 0.697988212 0.166433573 -0.696500123
vn 0.697984517 0.16643402 -0.696503639
vn 0.697353065 0.166444167 -0.697133482
vn 0.714434206 0.183518752 -0.675207019
vn 0.757067859 0.230532438 -0.611312509
vn 0.690513432 0.168199837 -0.703491271
vn 0.690540135 0.168212906 -0.703461885
vn 0.690751731 0.168284059 -0.703237295
vn 0.757058918 0.230532691 -0.611323535
vn 0.796693563 0.317458332 -0.514295161
vn 0.714560091 0.183628798 -0.675043941
vn 0.714712977 0.183762923 -0.674845457
vn 0.715342283 0.184240878 -0.674048007
vn 0.796932101 0.318283558 -0.51341486
vn 0.810069144 0.443425894 -0.383616358
vn 0.75734359 0.230967954 -0.610806525
vn 0.75768441 0.231488958 -0.610186279
vn 0.758339822 0.232455984 -0.609003186
vn 0.809974372 0.445358127 -0.381572664
vn 0.772467256 0.594328463 -0.22375907
vn 0.79722029 0.319278568 -0.512348413
vn 0.797555685 0.320437431 -0.511101425
vn 0.797909677 0.321690798 -0.509759843
vn 0.772168577 0.595002472 -0.222997159
vn 0.67851764 0.732697845 -0.052607961
vn 0.809942365 0.446393102 -0.380429476
vn 0.809903264 0.447582066 -0.379113436
vn 0.809877694 0.448286951 -0.378334403
vn 0.676958799 0.734298646 -0.0503226072
vn 0.537732422 0.833683789 0.125758201
vn 0.772033632 0.595334291 -0.222578377
vn 0.771877766 0.595716178 -0.222096741
vn 0.773012996 0.593240917 -0.224757746
vn 0.534596086 0.835163474 0.129262999
vn 0.371898562 0.877258778 0.303493917
vn 0.676914036 0.734344423 -0.0502558537
vn 0.676870406 0.734388947 -0.0501916781
vn 0.679302037 0.731886804 -0.0537612662
vn 0.366316736 0.877578616 0.309302121
vn 0.21143645 0.857764006 0.468546212
vn 0.534130752 0.835373759 0.12982671
vn 0.533697128 0.835569322 0.130350918
vn 0.5378865 0.833590567 0.125716791
vn 0.207057521 0.856323957 0.473113596
vn 0.0926735848 0.792480886 0.602814734
vn 0.365694851 0.877614439 0.309936017
vn 0.365121931 0.877646565 0.310519814
vn 0.369107217 0.87743926 0.306365997
vn 0.0880766511 0.788212121 0.609068334
vn 0.02265645 0.689841866 0.723605514
vn 0.206661463 0.856173217 0.473559409
vn 0.206309035 0.856040776 0.473952353
vn 0.211799353 0.857837737 0.468247294
vn 0.0199318901 0.682337761 0.730765283
vn -0.00112830405 0.585691869 0.810533047
vn 0.0875024498 0.787546396 0.610011399
vn 0.0870078132 0.786973417 0.610821187
vn 0.0898416415 0.789575338 0.607041419
vn -0.000984308659 0.5809021 0.813972831
vn -6.70684494E-06 0.544060469 0.839046061
vn 2.50331027E-07 0.544060171 0.83904624
vn 0.0195908826 0.681811213 0.731265783
vn 0.0192939844 0.681357503 0.731696427
vn 0.0204458572 0.684912682 0.728338242
vn -0.000968655921 0.580987811 0.813911617
vn 3.20245317E-06 0.544060111 0.839046299
vn -0.000960446429 0.581067383 0.813854873
vn -0.00101273321 0.583247066 0.812294126
vn -3.30153034E-06 0.544059575 0.839046538
vn -6.82774726E-06 0.544059098 0.839046896
g vvana_helix_0
f 3/3/3 2/2/2 1/1/1
f 2/2/2 4/4/4 1/1/1
f 1/1/1 4/4/4 5/5/5
f 2/2/2 6/6/6 4/4/4
f 4/4/4 7/7/7 5/5/5
f 5/5/5 7/7/7 8/8/8
f 6/6/6 9/9/9 4/4/4
f 4/4/4 9/9/9 7/7/7
f 6/6/6 10/10/10 9/9/9
f 7/7/7 11/11/11 8/8/8
f 8/8/8 11/11/11 12/12/12
f 9/9/9 13/13/13 7/7/7
f 7/7/7 13/13/13 11/11/11
f 10/10/10 14/14/14 9/9/9
f 9/9/9 14/14/14 13/13/13
f 10/10/10 15/15/15 14/14/14
f 15/15/15 16/16/16 14/14/14
f 14/14/14 16/16/16 17/17/17
f 14/14/14 17/17/17 13/13/13
f 16/16/16 18/18/18 17/17/17
f 11/11/11 19/19/19 12/12/12
f 12/12/12 19/19/19 20/20/20
f 13/13/13 21/21/21 11/11/11
f 13/13/13 17/17/17 21/21/21
f 11/11/11 21/21/21 19/19/19
f 17/17/17 18/18/18 22/22/22
f 17/17/17 22/22/22 21/21/21
f 18/18/18 23/23/23 22/22/22
f 19/19/19 24/24/24 20/20/20
f 20/20/20 24/24/24 25/25/25
f 21/21/21 26/26/26 19/19/19
f 21/21/21 22/22/22 26/26/26
f 19/19/19 26/26/26 24/24/24
f 22/22/22 23/23/23 27/27/27
f 22/22/22 27/27/27 26/26/26
f 23/23/23 28/28/28 27/27/27
f 24/24/24 29/29/29 25/25/25
f 25/25/25 29/29/29 30/30/30
f 26/26/26 31/31/31 24/24/24
f 26/26/26 27/27/27 31/31/31
f 24/24/24 31/31/31 29/29/29
f 27/27/27 28/28/28 32/32/32
f 27/27/27 32/32/32 31/31/31
f 28/28/28 33/33/33 32/32/32
f 29/29/29 34/34/34 30/30/30
f 30/30/30 34/34/34 35/35/35
f 31/31/31 36/36/36 29/29/29
f 31/31/31 32/32/32 36/36/36
f 29/29/29 36/36/36 34/34/34
f 32/32/32 33/33/33 37/37/37
f 32/32/32 37/37/37 36/36/36
f 33/33/33 38/38/38 37/37/37
f 34/34/34 39/39/39 35/35/35
f 35/35/35 39/39/39 40/40/40
f 36/36/36 41/41/41 34/34/34
f 36/36/36 37/37/37 41/41/41
f 34/34/34 41/41/41 39/39/39
f 37/37/37 38/38/38 42/42/42
f 37/37/37 42/42/42 41/41/41
f 38/38/38 43/43/43 42/42/42
f 39/39/39 44/44/44 40/40/40
f 40/40/40 44/44/44 45/45/45
f 41/41/41 46/46/46 39/39/39
f 41/41/41 42/42/42 46/46/46
f 39/39/39 46/46/46 44/44/44
f 42/42/42 43/43/43 47/47/47
f 42/42/42 47/47/47 46/46/46
f 43/43/43 48/48/48 47/47/47
f 44/44/44 49/49/49 45/45/45
f 45/45/45 49/49/49 50/50/50
f 46/46/46 51/51/51 44/44/44
f 46/46/46 47/47/47 51/51/51
f 44/44/44 51/51/51 49/49/49
f 47/47/47 48/48/48 52/52/52
f 47/47/47 52/52/52 51/51/51
f 48/48/48 53/53/53 52/52/52
f 49/49/49 54/54/54 50/50/50
f 50/50/50 54/54/54 55/55/55
f 51/51/51 56/56/56 49/49/49
f 51/51/51 52/52/52 56/56/56
f 49/49/49 56/56/56 54/54/54
f 52/52/52 53/53/53 57/57/57
f 52/52/52 57/57/57 56/56/56
f 53/53/53 58/58/58 57/57/57
f 54/54/54 59/59/59 55/55/55
f 55/55/55 59/59/59 60/60/60
f 56/56/56 61/61/61 54/54/54
f 56/56/56 57/57/57 61/61/61
f 54/54/54 61/61/61 59/59/59
f 57/57/57 58/58/58 62/62/62
f 57/57/57 62/62/62 61/61/61
f 58/58/58 63/63/63 62/62/62
f 59/59/59 64/64/64 60/60/60
f 60/60/60 64/64/64 65/65/65
f 61/61/61 66/66/66 59/59/59
f 61/61/61 62/62/62 66/66/66
f 59/59/59 66/66/66 64/64/64
f 62/62/62 63/63/63 67/67/67
f 62/62/62 67/67/67 66/66/66
f 63/63/63 68/68/68 67/67/67
f 64/64/64 69/69/69 65/65/65
f 65/65/65 69/69/69 70/70/70
f 66/66/66 71/71/71 64/64/64
f 66/66/66 67/67/67 71/71/71
f 64/64/64 71/71/71 69/69/69
f 67/67/67 68/68/68 72/72/72
f 67/67/67 72/72/72 71/71/71
f 68/68/68 73/73/73 72/72/72
f 69/69/69 74/74/74 70/70/70
f 70/70/70 74/74/74 75/75/75
f 71/71/71 76/76/76 69/69/69
f 71/71/71 72/72/72 76/76/76
f 69/69/69 76/76/76 74/74/74
f 72/72/72 73/73/73 77/77/77
f 72/72/72 77/77/77 76/76/76
f 73/73/73 78/78/78 77/77/77
f 74/74/74 79/79/79 75/75/75
f 75/75/75 79/79/79 80/80/80
f 76/76/76 81/81/81 74/74/74
f 76/76/76 77/77/77 81/81/81
f 74/74/74 81/81/81 79/79/79
f 77/77/77 78/78/78 82/82/82
f 77/77/77 82/82/82 81/81/81
f 78/78/78 83/83/83 82/82/82
f 79/79/79 84/84/84 80/80/80
f 80/80/80 84/84/84 85/85/85
f 81/81/81 86/86/86 79/79/79
f 81/81/81 82/82/82 86/86/86
f 79/79/79 86/86/86 84/84/84
f 82/82/82 83/83/83 87/87/87
f 82/82/82 87/87/87 86/86/86
f 83/83/83 88/88/88 87/87/87
f 84/84/84 89/89/89 85/85/85
f 85/85/85 89/89/89 90/90/90
f 86/86/86 91/91/91 84/84/84
f 86/86/86 87/87/87 91/91/91
f 84/84/84 91/91/91 89/89/89
f 87/87/87 88/88/88 92/92/92
f 87/87/87 92/92/92 91/91/91
f 88/88/88 93/93/93 92/92/92
f 89/89/89 94/94/94 90/90/90
f 90/90/90 94/94/94 95/95/95
f 94/94/94 96/96/96 95/95/95
f 91/91/91 97/97/97 89/89/89
f 91/91/91 92/92/92 97/97/97
f 89/89/89 97/97/97 94/94/94
f 92/92/92 93/93/93 98/98/98
f 92/92/92 98/98/98 97/97/97
f 93/93/93 99/99/99 98/98/98
f 94/94/94 100/100/100 96/96/96
f 97/97/97 100/100/100 94/94/94
f 97/97/97 98/98/98 100/100/100
f 100/100/100 101/101/101 96/96/96
f 98/98/98 99/99/99 102/102/102
f 98/98/98 102/102/102 100/100/100
f 100/100/100 102/102/102 101/101/101
f 99/99/99 103/103/103 102/102/102
f 102/102/102 104/104/104 101/101/101
f 102/102/102 103/103/103 104/104/104
f 103/103/103 105/105/105 104/104/104
