g Plane008
v -0.380674273 -1.07600164 2.48980143E-07
v -0.439097077 -0.945297837 1.57105092E-07
v -0.177616224 -0.978176415 2.37318474E-07
v -0.24458766 -0.851639688 1.45940149E-07
v -0.497519851 -0.81459403 6.52300258E-08
v 0.0114848707 -0.867715597 2.24150511E-07
v -0.311559141 -0.725102961 5.45618732E-08
v -0.0661423877 -0.747421265 1.33516366E-07
v 0.181227297 -0.746441007 2.09693454E-07
v -0.143769637 -0.627126992 4.28822133E-08
v 0.0922963321 -0.6342448 1.2002468E-07
v 0.331239492 -0.61406225 1.93912669E-07
v 0.00336528779 -0.522048712 3.03559098E-08
v 0.230728328 -0.512110233 1.05465091E-07
v 0.460962564 -0.470435172 1.76790977E-07
v 0.130217165 -0.410158217 1.701755E-08
v 0.349153847 -0.381017357 8.98376129E-08
v 0.578537464 -0.301038712 1.56597352E-07
v 0.237345159 -0.291599661 2.88425772E-09
v 0.455544323 -0.227762774 7.15682376E-08
v 0.672965407 -0.112407319 1.34110763E-07
v 0.332550913 -0.154486939 -1.34608715E-08
v 0.540577888 -0.0579075813 5.13199048E-08
v 0.738985598 0.0886415616 1.10143844E-07
v 0.408190191 -0.00340784062 -3.14708863E-08
v 0.60009557 0.123372704 2.97096214E-08
v 0.776450455 0.300836533 8.48482529E-08
v 0.461205482 0.158103913 -5.07245979E-08
v 0.634097457 0.316077918 6.73736844E-09
v 0.785985112 0.518851459 5.88588165E-08
v 0.491744399 0.331319183 -7.13734707E-08
v 0.642819524 0.518261254 -1.73647674E-08
v 0.499654114 0.517671049 -9.35883477E-08
v 1.41788113 -0.205852315 -0.349662572
v 1.21548021 -0.331027687 -0.351952761
v 1.24979758 -0.0316646956 -0.333849758
v 1.04121637 -0.150423765 -0.335557818
v 1.0130775 -0.456204057 -0.354242921
v 1.10946596 0.146130905 -0.31858623
v 0.832633734 -0.269183278 -0.337265879
v 0.895019293 0.0348212421 -0.31965515
v 0.996658027 0.327442467 -0.303871483
v 0.680571914 -0.0764889121 -0.32072413
v 0.776889086 0.224707052 -0.304244906
v 0.91109997 0.512211084 -0.2897017
v 0.5571208 0.121970594 -0.304618359
v 0.686826169 0.419233203 -0.289327145
v 0.852500916 0.700430214 -0.276068866
v 0.462553233 0.326255798 -0.288952619
v 0.62483108 0.618400991 -0.274901688
v 0.819058418 0.908891261 -0.261853218
v 0.397160977 0.536372185 -0.27373454
v 0.589289665 0.840025067 -0.259788752
v 0.817224562 1.12860048 -0.247808456
v 0.359520167 0.771157503 -0.257724285
v 0.587341964 1.07449412 -0.244800776
v 0.84838903 1.35329247 -0.234372795
v 0.357457876 1.02038705 -0.241793036
v 0.620674789 1.31479704 -0.230431706
v 0.912540436 1.58341348 -0.221517488
v 0.392959476 1.27630234 -0.226490632
v 0.689287603 1.56093407 -0.216681629
v 1.00986969 1.8194474 -0.209217027
v 0.466035306 1.53845406 -0.211845756
v 0.793181956 1.81290376 -0.203550443
v 0.576493204 1.80636191 -0.197883755
v -1.21895611 -0.686346591 1.59099216E-07
v -1.31715143 -0.582162261 1.46679469E-07
v -1.06382167 -0.533207476 1.40843582E-07
v -1.16689312 -0.433844626 1.28998622E-07
v -1.41534698 -0.477978021 1.34259722E-07
v -0.918547928 -0.374672502 1.21944751E-07
v -1.26996469 -0.334481835 1.17153654E-07
v -1.0265516 -0.280694127 1.10741652E-07
v -0.783504605 -0.211039007 1.02438115E-07
v -1.13455522 -0.186715737 9.95385463E-08
v -0.896296203 -0.122864336 9.19268643E-08
v -0.658750653 -0.0423279554 8.23261885E-08
v -1.00908768 -0.034689635 8.14156209E-08
v -0.776126981 0.0396446586 7.25542932E-08
v -0.544344485 0.131427497 6.16129157E-08
v -0.893503189 0.121617392 6.27823837E-08
v -0.666043818 0.206832841 5.26238892E-08
v -0.437424064 0.315544248 3.96644992E-08
v -0.78774327 0.282238185 4.36348806E-08
v -0.56324333 0.383854032 3.15213384E-08
v -0.341362 0.505369425 1.70355818E-08
v -0.689062536 0.452163726 2.33781794E-08
v -0.470921934 0.566286862 9.77364856E-09
v -0.256475896 0.700387537 -6.21241236E-09
v -0.600481868 0.627204299 2.51171506E-09
v -0.389344543 0.753704071 -1.25682158E-08
v -0.182795331 0.900520742 -3.00701686E-08
v -0.522213042 0.807020545 -1.89240552E-08
v -0.318511128 0.94610548 -3.55042538E-08
v -0.120407328 1.10541105 -5.44949756E-08
v -0.454226762 0.991689861 -4.09383567E-08
v -0.258432835 1.14343309 -5.90275313E-08
v -0.396458268 1.1814549 -6.3560087E-08
vt 1 0
vt 0.876403928 0
vt 1 0.100000001
vt 0.876403928 0.100000001
vt 0.752807915 0
vt 1 0.200000003
vt 0.752807915 0.100000001
vt 0.876403928 0.200000003
vt 1 0.300000012
vt 0.752807915 0.200000003
vt 0.876403928 0.300000012
vt 1 0.400000006
vt 0.752807915 0.300000012
vt 0.876403928 0.400000006
vt 1 0.5
vt 0.752807915 0.400000006
vt 0.876403928 0.5
vt 1 0.600000024
vt 0.752807915 0.5
vt 0.876403928 0.600000024
vt 1 0.700000048
vt 0.752807915 0.600000024
vt 0.876403928 0.700000048
vt 1 0.800000072
vt 0.752807915 0.700000048
vt 0.876403928 0.800000072
vt 1 0.900000095
vt 0.752807915 0.800000072
vt 0.876403928 0.900000095
vt 1 1.00000012
vt 0.752807915 0.900000095
vt 0.876403928 1.00000012
vt 0.752807915 1.00000012
vt 0.753529131 0
vt 0.629933059 0
vt 0.753529131 0.100000001
vt 0.629933059 0.100000001
vt 0.506336927 0
vt 0.753529131 0.200000003
vt 0.506336927 0.100000001
vt 0.629933059 0.200000003
vt 0.753529131 0.300000012
vt 0.506336927 0.200000003
vt 0.629933059 0.300000012
vt 0.753529131 0.400000006
vt 0.506336927 0.300000012
vt 0.629933059 0.400000006
vt 0.753529131 0.5
vt 0.506336927 0.400000006
vt 0.629933059 0.5
vt 0.753529131 0.600000024
vt 0.506336927 0.5
vt 0.629933059 0.600000024
vt 0.753529131 0.700000048
vt 0.506336927 0.600000024
vt 0.629933059 0.700000048
vt 0.753529131 0.800000072
vt 0.506336927 0.700000048
vt 0.629933059 0.800000072
vt 0.753529131 0.900000095
vt 0.506336927 0.800000072
vt 0.629933059 0.900000095
vt 0.753529131 1.00000012
vt 0.506336927 0.900000095
vt 0.629933059 1.00000012
vt 0.506336927 1.00000012
vt 0.24842447 0
vt 0.124212235 0
vt 0.24842447 0.100000001
vt 0.124212235 0.100000001
vt 0 0
vt 0.24842447 0.200000003
vt 0 0.100000001
vt 0.124212235 0.200000003
vt 0.24842447 0.300000012
vt 0 0.200000003
vt 0.124212235 0.300000012
vt 0.24842447 0.400000006
vt 0 0.300000012
vt 0.124212235 0.400000006
vt 0.24842447 0.5
vt 0 0.400000006
vt 0.124212235 0.5
vt 0.24842447 0.600000024
vt 0 0.5
vt 0.124212235 0.600000024
vt 0.24842447 0.700000048
vt 0 0.600000024
vt 0.124212235 0.700000048
vt 0.24842447 0.800000072
vt 0 0.700000048
vt 0.124212235 0.800000072
vt 0.24842447 0.900000095
vt 0 0.800000072
vt 0.124212235 0.900000095
vt 0.24842447 1.00000012
vt 0 0.900000095
vt 0.124212235 1.00000012
vt 0 1.00000012
vn -2.31384718E-07 5.99499856E-07 1
vn -2.31331583E-07 5.99557836E-07 1
vn -2.50172633E-07 5.89706417E-07 1
vn -2.50161207E-07 5.89735293E-07 1
vn -2.31274413E-07 5.99621899E-07 1
vn -2.89562507E-07 5.66565575E-07 1
vn -2.50141767E-07 5.89771446E-07 1
vn -2.89562621E-07 5.66579956E-07 1
vn -3.31597192E-07 5.36360233E-07 1
vn -2.89557107E-07 5.66600818E-07 1
vn -3.3159796E-07 5.36377343E-07 1
vn -3.74600319E-07 4.98214206E-07 1
vn -3.31591849E-07 5.36403945E-07 1
vn -3.74602024E-07 4.98231998E-07 1
vn -4.17415663E-07 4.50477188E-07 1
vn -3.74596965E-07 4.98261841E-07 1
vn -4.17459205E-07 4.50442883E-07 1
vn -4.58284262E-07 3.91144908E-07 1
vn -4.17494078E-07 4.50425659E-07 1
vn -4.58303731E-07 3.91125809E-07 1
vn -4.92741435E-07 3.22158002E-07 1
vn -4.58318965E-07 3.9111805E-07 1
vn -4.92738536E-07 3.22156666E-07 1
vn -5.16872035E-07 2.48968831E-07 1
vn -4.92735865E-07 3.22152914E-07 1
vn -5.16861576E-07 2.48960788E-07 1
vn -5.29752413E-07 1.77235691E-07 1
vn -5.16850776E-07 2.48939244E-07 1
vn -5.29706767E-07 1.7716448E-07 1
vn -5.33178479E-07 1.42335082E-07 1
vn -5.29653732E-07 1.7704906E-07 1
vn -5.3309941E-07 1.42102408E-07 1
vn -5.33000843E-07 1.41832516E-07 1
vn -4.42797528E-07 4.16124749E-07 1
vn -4.42795852E-07 4.16133815E-07 1
vn -4.33134517E-07 4.29654563E-07 1
vn -4.33136023E-07 4.29658968E-07 1
vn -4.42794118E-07 4.161422E-07 1
vn -4.12073433E-07 4.57109678E-07 1
vn -4.33138098E-07 4.29661952E-07 1
vn -4.12074485E-07 4.57115107E-07 1
vn -3.87378861E-07 4.85157784E-07 1
vn -4.12076417E-07 4.57118972E-07 1
vn -3.87379373E-07 4.85164207E-07 1
vn -3.58785996E-07 5.1323093E-07 1
vn -3.87380993E-07 4.85168812E-07 1
vn -3.58785741E-07 5.13237865E-07 1
vn -3.25400805E-07 5.4122421E-07 1
vn -3.58786821E-07 5.13242469E-07 1
vn -3.25419848E-07 5.41215343E-07 1
vn -2.85990581E-07 5.6886455E-07 1
vn -3.25441789E-07 5.41203747E-07 1
vn -2.85999619E-07 5.68864266E-07 1
vn -2.409991E-07 5.94499738E-07 1
vn -2.86011101E-07 5.68861878E-07 1
vn -2.40998418E-07 5.94503206E-07 1
vn -1.92336188E-07 6.16190675E-07 1
vn -2.40998958E-07 5.94505536E-07 1
vn -1.92336387E-07 6.1619096E-07 1
vn -1.41694585E-07 6.32930039E-07 1
vn -1.92336699E-07 6.16191414E-07 1
vn -1.41696134E-07 6.32927595E-07 1
vn -1.16064449E-07 6.3997993E-07 1
vn -1.41696447E-07 6.32925605E-07 1
vn -1.16071917E-07 6.39974701E-07 1
vn -1.16078752E-07 6.39969755E-07 1
vn -0 1.19209474E-07 1
vn -0 1.19209389E-07 1
vn -0 1.1920929E-07 1
vn -0 1.19209247E-07 1
vn -0 1.19209304E-07 1
vn -0 1.19209261E-07 1
vn -0 1.19209254E-07 1
vn -0 1.19209318E-07 1
vn -0 1.19209346E-07 1
vn -0 1.19209417E-07 1
vn -0 1.19209332E-07 1
vn -0 1.19209282E-07 1
vn -0 1.1920929E-07 1
vn -0 1.19209304E-07 1
vn -0 1.19209332E-07 1
vn -0 1.1920929E-07 1
vn -0 1.19209282E-07 1
vn -0 1.19209247E-07 1
vn -0 1.1920929E-07 1
vn -0 1.1920929E-07 1
vn -0 1.19209346E-07 1
vn -0 1.19209332E-07 1
vn -0 1.19209332E-07 1
vn -0 1.19209304E-07 1
vn -0 1.19209318E-07 1
vn -0 1.19209304E-07 1
vn -0 1.19209183E-07 1
vn -0 1.19209361E-07 1
vn -0 1.19209247E-07 1
vn -0 1.19209218E-07 1
vn -0 1.1920929E-07 1
vn -0 1.19209254E-07 1
vn -0 1.19209204E-07 1
g Plane008_0
f 3/3/3 2/2/2 1/1/1
f 2/2/2 3/3/3 4/4/4
f 4/4/4 5/5/5 2/2/2
f 6/6/6 4/4/4 3/3/3
f 5/5/5 4/4/4 7/7/7
f 4/4/4 6/6/6 8/8/8
f 8/8/8 7/7/7 4/4/4
f 9/9/9 8/8/8 6/6/6
f 7/7/7 8/8/8 10/10/10
f 8/8/8 9/9/9 11/11/11
f 11/11/11 10/10/10 8/8/8
f 12/12/12 11/11/11 9/9/9
f 10/10/10 11/11/11 13/13/13
f 11/11/11 12/12/12 14/14/14
f 14/14/14 13/13/13 11/11/11
f 15/15/15 14/14/14 12/12/12
f 13/13/13 14/14/14 16/16/16
f 14/14/14 15/15/15 17/17/17
f 17/17/17 16/16/16 14/14/14
f 18/18/18 17/17/17 15/15/15
f 16/16/16 17/17/17 19/19/19
f 17/17/17 18/18/18 20/20/20
f 20/20/20 19/19/19 17/17/17
f 21/21/21 20/20/20 18/18/18
f 19/19/19 20/20/20 22/22/22
f 20/20/20 21/21/21 23/23/23
f 23/23/23 22/22/22 20/20/20
f 24/24/24 23/23/23 21/21/21
f 22/22/22 23/23/23 25/25/25
f 23/23/23 24/24/24 26/26/26
f 26/26/26 25/25/25 23/23/23
f 27/27/27 26/26/26 24/24/24
f 25/25/25 26/26/26 28/28/28
f 26/26/26 27/27/27 29/29/29
f 29/29/29 28/28/28 26/26/26
f 30/30/30 29/29/29 27/27/27
f 28/28/28 29/29/29 31/31/31
f 29/29/29 30/30/30 32/32/32
f 32/32/32 31/31/31 29/29/29
f 31/31/31 32/32/32 33/33/33
f 36/36/36 35/35/35 34/34/34
f 35/35/35 36/36/36 37/37/37
f 37/37/37 38/38/38 35/35/35
f 39/39/39 37/37/37 36/36/36
f 38/38/38 37/37/37 40/40/40
f 37/37/37 39/39/39 41/41/41
f 41/41/41 40/40/40 37/37/37
f 42/42/42 41/41/41 39/39/39
f 40/40/40 41/41/41 43/43/43
f 41/41/41 42/42/42 44/44/44
f 44/44/44 43/43/43 41/41/41
f 45/45/45 44/44/44 42/42/42
f 43/43/43 44/44/44 46/46/46
f 44/44/44 45/45/45 47/47/47
f 47/47/47 46/46/46 44/44/44
f 48/48/48 47/47/47 45/45/45
f 46/46/46 47/47/47 49/49/49
f 47/47/47 48/48/48 50/50/50
f 50/50/50 49/49/49 47/47/47
f 51/51/51 50/50/50 48/48/48
f 49/49/49 50/50/50 52/52/52
f 50/50/50 51/51/51 53/53/53
f 53/53/53 52/52/52 50/50/50
f 54/54/54 53/53/53 51/51/51
f 52/52/52 53/53/53 55/55/55
f 53/53/53 54/54/54 56/56/56
f 56/56/56 55/55/55 53/53/53
f 57/57/57 56/56/56 54/54/54
f 55/55/55 56/56/56 58/58/58
f 56/56/56 57/57/57 59/59/59
f 59/59/59 58/58/58 56/56/56
f 60/60/60 59/59/59 57/57/57
f 58/58/58 59/59/59 61/61/61
f 59/59/59 60/60/60 62/62/62
f 62/62/62 61/61/61 59/59/59
f 63/63/63 62/62/62 60/60/60
f 61/61/61 62/62/62 64/64/64
f 62/62/62 63/63/63 65/65/65
f 65/65/65 64/64/64 62/62/62
f 64/64/64 65/65/65 66/66/66
f 69/69/69 68/68/68 67/67/67
f 68/68/68 69/69/69 70/70/70
f 70/70/70 71/71/71 68/68/68
f 72/72/72 70/70/70 69/69/69
f 71/71/71 70/70/70 73/73/73
f 70/70/70 72/72/72 74/74/74
f 74/74/74 73/73/73 70/70/70
f 75/75/75 74/74/74 72/72/72
f 73/73/73 74/74/74 76/76/76
f 74/74/74 75/75/75 77/77/77
f 77/77/77 76/76/76 74/74/74
f 78/78/78 77/77/77 75/75/75
f 76/76/76 77/77/77 79/79/79
f 77/77/77 78/78/78 80/80/80
f 80/80/80 79/79/79 77/77/77
f 81/81/81 80/80/80 78/78/78
f 79/79/79 80/80/80 82/82/82
f 80/80/80 81/81/81 83/83/83
f 83/83/83 82/82/82 80/80/80
f 84/84/84 83/83/83 81/81/81
f 82/82/82 83/83/83 85/85/85
f 83/83/83 84/84/84 86/86/86
f 86/86/86 85/85/85 83/83/83
f 87/87/87 86/86/86 84/84/84
f 85/85/85 86/86/86 88/88/88
f 86/86/86 87/87/87 89/89/89
f 89/89/89 88/88/88 86/86/86
f 90/90/90 89/89/89 87/87/87
f 88/88/88 89/89/89 91/91/91
f 89/89/89 90/90/90 92/92/92
f 92/92/92 91/91/91 89/89/89
f 93/93/93 92/92/92 90/90/90
f 91/91/91 92/92/92 94/94/94
f 92/92/92 93/93/93 95/95/95
f 95/95/95 94/94/94 92/92/92
f 96/96/96 95/95/95 93/93/93
f 94/94/94 95/95/95 97/97/97
f 95/95/95 96/96/96 98/98/98
f 98/98/98 97/97/97 95/95/95
f 97/97/97 98/98/98 99/99/99
