g daoguang
v 0.241445228 0.0513207801 -6.72171518E-05
v 0.225498885 0.10039857 -6.72171518E-05
v 0.108371139 0.0482499376 0.00026691315
v 0.116034664 0.0246639401 0.00026691315
v 0.246839225 0 -6.72171518E-05
v 0.118626967 0 0.00026691315
v 0.241445184 -0.0513212383 -6.72171518E-05
v 0.116034649 -0.0246641636 0.00026691315
v 0.225498691 -0.100398965 -6.72171518E-05
v 0.108371034 -0.0482501239 0.00026691315
v 0.199696943 -0.145088792 -6.72171518E-05
v 0.0959711447 -0.0697273314 0.00026691315
v 0.165167511 -0.183437526 -6.72171518E-05
v 0.0793768242 -0.0881571174 0.00026691315
v 0.123419404 -0.213769212 -6.72171518E-05
v 0.0593133792 -0.102734029 0.00026691315
v 0.076277338 -0.234758198 -6.72171518E-05
v 0.03665765 -0.112820983 0.00026691315
v 0.0258015878 -0.245487064 -6.72171518E-05
v 0.0123998253 -0.117977135 0.00026691315
v -0.0258018151 -0.245487005 -6.72171518E-05
v -0.0123999342 -0.117977083 0.00026691315
v -0.0762775466 -0.234758124 -6.72171518E-05
v -0.0366577655 -0.112820931 0.00026691315
v -0.123419598 -0.213769093 -6.72171518E-05
v -0.0593134835 -0.102733955 0.00026691315
v -0.16516766 -0.183437362 -6.72171518E-05
v -0.0793769285 -0.0881570578 0.00026691315
v -0.199697152 -0.145088494 -6.72171518E-05
v -0.0959712267 -0.0697271898 0.00026691315
v -0.225498885 -0.100398585 -6.72171518E-05
v -0.108371139 -0.0482499227 0.00026691315
v -0.241445228 -0.051320795 -6.72171518E-05
v -0.116034664 -0.0246639401 0.00026691315
v -0.246839225 -2.15793712E-08 -6.72171518E-05
v -0.118626967 -1.03706981E-08 0.00026691315
v -0.241445228 0.0513207614 -6.72171518E-05
v -0.116034664 0.024663927 0.00026691315
v -0.225498915 0.100398563 -6.72171518E-05
v -0.108371146 0.048249919 0.00026691315
vt 0.0568554364 -0.00267903158
vt 0.0046418868 -0.00267903158
vt 0.0046418868 0.993838191
vt 0.0568554364 0.993838191
vt 0.10906893 -0.00267903158
vt 0.10906893 0.993838191
vt 0.161282837 -0.00267903158
vt 0.161282837 0.993838191
vt 0.213496268 -0.00267903158
vt 0.213496268 0.993838191
vt 0.265709639 -0.00267903158
vt 0.265709639 0.993838191
vt 0.317923129 -0.00267903158
vt 0.317923069 0.993838191
vt 0.370136559 -0.00267903158
vt 0.370136559 0.993838191
vt 0.42234993 -0.00267903158
vt 0.42234993 0.993838191
vt 0.474563241 -0.00267903158
vt 0.474563241 0.993838191
vt 0.526776671 -0.00267903158
vt 0.526776671 0.993838191
vt 0.578990102 -0.00267903158
vt 0.578990102 0.993838191
vt 0.631203413 -0.00267903158
vt 0.631203413 0.993838191
vt 0.683416903 -0.00267903158
vt 0.683416903 0.993838191
vt 0.735630333 -0.00267903158
vt 0.735630333 0.993838191
vt 0.787843823 -0.00267903158
vt 0.787843823 0.993838191
vt 0.840057254 -0.00267903158
vt 0.840057254 0.993838191
vt 0.892270744 -0.00267903158
vt 0.892270744 0.993838191
vt 0.944484174 -0.00267903158
vt 0.944484174 0.993838191
vt 0.996697664 -0.00267903158
vt 0.996697664 0.993838191
vn -0.00254911324 -0.000541830319 -0.999996662
vn -0.00249216449 -0.000809752732 -0.999996543
vn -0.00249216449 -0.000809752732 -0.999996543
vn -0.00254911301 -0.000541830144 -0.999996662
vn -0.00260606222 0 -0.999996662
vn -0.00260606245 0 -0.999996662
vn -0.00254911184 0.000541834102 -0.999996662
vn -0.00254911184 0.000541833811 -0.999996662
vn -0.00238075433 0.00105998584 -0.999996662
vn -0.00238075433 0.00105998595 -0.999996662
vn -0.00210834644 0.00153180747 -0.999996662
vn -0.00210834644 0.00153180724 -0.999996662
vn -0.00174379314 0.00193668366 -0.999996662
vn -0.00174379302 0.00193668366 -0.999996662
vn -0.00130302913 0.00225691707 -0.999996662
vn -0.00130302901 0.00225691684 -0.999996662
vn -0.000805315096 0.00247851224 -0.999996662
vn -0.000805315154 0.00247851224 -0.999996662
vn -0.000272404344 0.00259178621 -0.999996662
vn -0.000272404082 0.00259178597 -0.999996662
vn 0.000272408157 0.00259178621 -0.999996662
vn 0.000272408099 0.00259178621 -0.999996662
vn 0.000805316609 0.002478512 -0.999996662
vn 0.000805316551 0.002478512 -0.999996662
vn 0.00130303088 0.0022569159 -0.999996662
vn 0.00130303088 0.0022569159 -0.999996662
vn 0.00174379547 0.00193668192 -0.999996662
vn 0.00174379547 0.00193668203 -0.999996662
vn 0.00210834877 0.00153180503 -0.999996662
vn 0.00210834877 0.00153180503 -0.999996662
vn 0.0023807562 0.00105998083 -0.999996662
vn 0.00238075643 0.00105998071 -0.999996662
vn 0.00254911324 0.000541830377 -0.999996662
vn 0.00254911301 0.000541830261 -0.999996662
vn 0.00260606222 0 -0.999996662
vn 0.00260606222 0 -0.999996662
vn 0.00254911324 -0.000541829562 -0.999996662
vn 0.00254911347 -0.000541829446 -0.999996662
vn 0.00249216473 -0.000809751335 -0.999996543
vn 0.00249216473 -0.000809751335 -0.999996543
g daoguang_0
f 3/3/3 2/2/2 1/1/1
f 4/4/4 3/3/3 1/1/1
f 4/4/4 1/1/1 5/5/5
f 6/6/6 4/4/4 5/5/5
f 6/6/6 5/5/5 7/7/7
f 8/8/8 6/6/6 7/7/7
f 8/8/8 7/7/7 9/9/9
f 10/10/10 8/8/8 9/9/9
f 10/10/10 9/9/9 11/11/11
f 12/12/12 10/10/10 11/11/11
f 12/12/12 11/11/11 13/13/13
f 14/14/14 12/12/12 13/13/13
f 14/14/14 13/13/13 15/15/15
f 16/16/16 14/14/14 15/15/15
f 16/16/16 15/15/15 17/17/17
f 18/18/18 16/16/16 17/17/17
f 18/18/18 17/17/17 19/19/19
f 20/20/20 18/18/18 19/19/19
f 20/20/20 19/19/19 21/21/21
f 22/22/22 20/20/20 21/21/21
f 22/22/22 21/21/21 23/23/23
f 24/24/24 22/22/22 23/23/23
f 24/24/24 23/23/23 25/25/25
f 26/26/26 24/24/24 25/25/25
f 26/26/26 25/25/25 27/27/27
f 28/28/28 26/26/26 27/27/27
f 28/28/28 27/27/27 29/29/29
f 30/30/30 28/28/28 29/29/29
f 30/30/30 29/29/29 31/31/31
f 32/32/32 30/30/30 31/31/31
f 32/32/32 31/31/31 33/33/33
f 34/34/34 32/32/32 33/33/33
f 34/34/34 33/33/33 35/35/35
f 36/36/36 34/34/34 35/35/35
f 36/36/36 35/35/35 37/37/37
f 38/38/38 36/36/36 37/37/37
f 38/38/38 37/37/37 39/39/39
f 40/40/40 38/38/38 39/39/39
