g Cylinder002
v 0.131810904 0.402900577 -0.29093647
v 0.0531397797 0.45010829 -0.0889400914
v 0.0500056669 0.420288891 -0.282053888
v 0.141076371 0.431416869 -0.0984884277
v 0.208213359 0.368884146 -0.308313429
v 0.0531397797 0.45010829 0.0889405981
v 0.223205179 0.394850761 -0.117167838
v 0.275873601 0.31972596 -0.333425343
v 0.141076371 0.431416869 0.0793923214
v 0.0500056185 0.420288771 0.251588434
v 0.131810904 0.402900577 0.242705896
v 0.223205075 0.394850761 0.0607129112
v 0.208213359 0.368884146 0.225328952
v 0.295936644 0.342008203 -0.14416191
v 0.331834882 0.257574648 -0.365174711
v 0.295936674 0.342008263 0.0337188952
v 0.275873601 0.31972596 0.200216964
v 0.356092364 0.275198668 -0.178290829
v 0.373651326 0.18514657 -0.402173847
v 0.356092274 0.275198668 -0.000410076696
v 0.331834882 0.257574618 0.168467641
v 0.401042819 0.197341993 -0.218063086
v 0.399495244 0.105607048 -0.442805767
v 0.401042819 0.197341949 -0.0401823111
v 0.373651266 0.185146526 0.13146852
v 0.428823769 0.111840919 -0.261740386
v 0.408237427 0.0224323757 -0.48529464
v 0.428823769 0.111841016 -0.0838595256
v 0.399495244 0.105606996 0.0908365846
v 0.438221067 0.0224323273 -0.307413846
v 0.399495035 -0.0607430711 -0.52778399
v 0.438221067 0.0224323273 -0.129533097
v 0.408237427 0.0224323273 0.0483477265
v 0.42882368 -0.0669770911 -0.353087693
v 0.373651028 -0.140282452 -0.568415761
v 0.42882368 -0.0669771358 -0.175206944
v 0.399495035 -0.0607430451 0.00585838733
v 0.401042521 -0.15247795 -0.396764934
v 0.331834584 -0.21271041 -0.605414808
v 0.401042432 -0.152478024 -0.21888417
v 0.373650968 -0.140282452 -0.0347734094
v 0.356091917 -0.230334491 -0.436537057
v 0.275873274 -0.274861544 -0.637164116
v 0.356092006 -0.230334491 -0.258656323
v 0.331834584 -0.21271041 -0.0717724562
v 0.295936495 -0.297143847 -0.470665932
v 0.208212867 -0.324019521 -0.66227597
v 0.295936286 -0.297143847 -0.292785138
v 0.275873274 -0.274861544 -0.103521705
v 0.223204881 -0.349986225 -0.497659922
v 0.131810561 -0.358035922 -0.67965287
v 0.141075984 -0.386552244 -0.516339302
v 0.223204881 -0.349986225 -0.319779158
v 0.208212867 -0.324019521 -0.128633589
v 0.141075984 -0.386552244 -0.338458508
v 0.131810561 -0.358035952 -0.146010458
v -0.191834673 -0.324019313 -0.662275851
v -0.124697886 -0.386552095 -0.516339183
v -0.115432367 -0.358035833 -0.67965281
v -0.206826568 -0.349986076 -0.497659832
v -0.25949502 -0.274861187 -0.637163937
v -0.124697864 -0.386552095 -0.338458359
v -0.279558152 -0.297143489 -0.470665753
v -0.315456331 -0.212709978 -0.605414629
v -0.206826523 -0.349986076 -0.319779038
v -0.115432367 -0.358035833 -0.146010429
v -0.191834673 -0.324019313 -0.128633395
v -0.279558122 -0.297143489 -0.292784989
v -0.25949502 -0.274861187 -0.103521526
v -0.339713752 -0.230333999 -0.436536819
v -0.357272714 -0.140281841 -0.568415463
v -0.339713722 -0.230333969 -0.258656055
v -0.315456331 -0.212709978 -0.071772337
v -0.384664327 -0.152477399 -0.396764636
v -0.383116692 -0.0607423186 -0.527783573
v -0.384664297 -0.152477399 -0.218883902
v -0.357272714 -0.140281841 -0.0347730964
v -0.412445277 -0.0669762194 -0.353087276
v -0.391858697 0.0224322788 -0.4852947
v -0.412445277 -0.0669762641 -0.175206453
v -0.383116692 -0.0607423186 0.00585877523
v -0.421842515 0.0224323273 -0.307413876
v -0.383116692 0.105607048 -0.442805767
v -0.421842515 0.0224323273 -0.129533112
v -0.391858697 0.0224322788 0.0483477041
v -0.412445307 0.111840874 -0.261740476
v -0.357272774 0.18514657 -0.402173787
v -0.412445277 0.111840874 -0.0838596076
v -0.383116692 0.105607048 0.0908366293
v -0.384664327 0.197341949 -0.218063146
v -0.315456361 0.257574767 -0.365174651
v -0.384664327 0.197341904 -0.0401824303
v -0.357272774 0.18514657 0.131468549
v -0.339713812 0.275198668 -0.178290829
v -0.25949508 0.319725901 -0.333425373
v -0.339713782 0.275198668 -0.000410076696
v -0.315456361 0.257574767 0.168467745
v -0.279558212 0.342008203 -0.14416188
v -0.191834733 0.368884087 -0.308313459
v -0.279558182 0.342008203 0.0337188467
v -0.259495109 0.319725841 0.200216964
v -0.206826612 0.39485082 -0.117167771
v -0.115432344 0.402900577 -0.29093647
v -0.206826672 0.394850761 0.0607129857
v -0.191834733 0.368884087 0.225328952
v -0.124697864 0.431416869 -0.0984884128
v -0.0336271375 0.420288771 -0.282053888
v -0.124697886 0.431416869 0.0793923885
v -0.115432367 0.402900517 0.242705792
v -0.0367612727 0.450108379 -0.0889400914
v 0.0500056669 0.420288891 -0.282053888
v 0.0531397797 0.45010829 -0.0889400914
v -0.0367613211 0.450108379 0.0889406204
v -0.0336271375 0.420288771 0.251588404
v 0.0531397797 0.45010829 0.0889405981
v 0.0500056185 0.420288771 0.251588434
vt 0.949999988 0
vt 0.983333349 0.333333343
vt 0.983333349 0
vt 0.949999988 0.333333343
vt 0.916666687 0
vt 0.983333349 0.666666687
vt 0.916666687 0.333333343
vt 0.883333325 0
vt 0.949999988 0.666666687
vt 0.983333349 1
vt 0.949999988 1
vt 0.916666687 0.666666687
vt 0.916666687 1
vt 0.883333325 0.333333343
vt 0.850000024 0
vt 0.883333325 0.666666687
vt 0.883333325 1
vt 0.850000024 0.333333343
vt 0.816666663 0
vt 0.850000024 0.666666687
vt 0.850000024 1
vt 0.816666663 0.333333343
vt 0.783333361 0
vt 0.816666663 0.666666687
vt 0.816666663 1
vt 0.783333361 0.333333343
vt 0.75 0
vt 0.783333361 0.666666687
vt 0.783333361 1
vt 0.75 0.333333343
vt 0.7166664 0
vt 0.75 0.666666687
vt 0.75 1
vt 0.7166664 0.333333343
vt 0.683333099 0
vt 0.7166664 0.666666687
vt 0.7166664 1
vt 0.683333099 0.333333343
vt 0.649999797 0
vt 0.683333099 0.666666687
vt 0.683333099 1
vt 0.649999797 0.333333343
vt 0.616666436 0
vt 0.649999797 0.666666687
vt 0.649999797 1
vt 0.616666436 0.333333343
vt 0.583333135 0
vt 0.616666436 0.666666687
vt 0.616666436 1
vt 0.583333135 0.333333343
vt 0.549999893 0
vt 0.549999893 0.333333343
vt 0.583333135 0.666666687
vt 0.583333135 1
vt 0.549999893 0.666666687
vt 0.549999893 1
vt 0.416666687 0
vt 0.449999988 0.333333343
vt 0.449999988 0
vt 0.416666687 0.333333343
vt 0.383333355 0
vt 0.449999988 0.666666687
vt 0.383333355 0.333333343
vt 0.350000024 0
vt 0.416666687 0.666666687
vt 0.449999988 1
vt 0.416666687 1
vt 0.383333355 0.666666687
vt 0.383333355 1
vt 0.350000024 0.333333343
vt 0.316666692 0
vt 0.350000024 0.666666687
vt 0.350000024 1
vt 0.316666692 0.333333343
vt 0.283333361 0
vt 0.316666692 0.666666687
vt 0.316666692 1
vt 0.283333361 0.333333343
vt 0.25000003 0
vt 0.283333361 0.666666687
vt 0.283333361 1
vt 0.25000003 0.333333343
vt 0.216666684 0
vt 0.25000003 0.666666687
vt 0.25000003 1
vt 0.216666684 0.333333343
vt 0.183333352 0
vt 0.216666684 0.666666687
vt 0.216666684 1
vt 0.183333352 0.333333343
vt 0.150000021 0
vt 0.183333352 0.666666687
vt 0.183333352 1
vt 0.150000051 0.333333343
vt 0.116666682 0
vt 0.150000051 0.666666687
vt 0.150000021 1
vt 0.116666682 0.333333343
vt 0.0833333507 0
vt 0.116666682 0.666666687
vt 0.116666682 1
vt 0.0833333507 0.333333343
vt 0.0500000194 0
vt 0.0833333507 0.666666687
vt 0.0833333507 1
vt 0.0500000194 0.333333343
vt 0.0166666862 0
vt 0.0500000194 0.666666687
vt 0.0500000194 1
vt 0.0166666862 0.333333343
vt -0.0166666508 0
vt -0.0166666508 0.333333343
vt 0.0166666862 0.666666687
vt 0.0166666862 1
vt -0.0166666508 0.666666687
vt -0.0166666508 1
vn 0.290962636 0.94427067 -0.153926998
vn 0.100524314 0.992179513 -0.0739904866
vn 0.098250486 0.98326391 -0.153424352
vn 0.297559261 0.951801121 -0.0743839964
vn 0.472438037 0.867641509 -0.154921055
vn 0.109072566 0.989627838 0.0934877619
vn 0.482701927 0.872555494 -0.0751385018
vn 0.635583878 0.756027281 -0.156383887
vn 0.32167986 0.942281127 0.0928888917
vn 0.108496085 0.977426469 0.18129012
vn 0.32004714 0.930038095 0.180551931
vn 0.518119752 0.850370884 0.0917670056
vn 0.515595376 0.837899148 0.179126993
vn 0.648492038 0.757397592 -0.0762033165
vn 0.773841739 0.613283277 -0.158279598
vn 0.6889925 0.719128013 0.0902459323
vn 0.685561717 0.706141829 0.177112445
vn 0.78811866 0.610621512 -0.0775263309
vn 0.881319702 0.444406241 -0.160557806
vn 0.826681197 0.555673301 0.0884601697
vn 0.822017848 0.542022049 0.174638957
vn 0.895613194 0.437751114 -0.0790627375
vn 0.952941179 0.255508393 -0.163151786
vn 0.925634503 0.368392408 0.0865317211
vn 0.919203699 0.354301989 0.171856418
vn 0.966044724 0.245424628 -0.080773741
vn 0.984661758 0.0537918061 -0.165975362
vn 0.982435524 0.16634354 0.0845597014
vn 0.97375983 0.15250513 0.168919846
vn 0.995726824 0.0412546732 -0.0826210678
vn 0.973759592 -0.152506411 -0.168919981
vn 0.995726824 -0.0412551612 0.0826210976
vn 0.984661639 -0.0537925363 0.165975332
vn 0.982435286 -0.16634503 -0.0845597386
vn 0.919203222 -0.354303449 -0.171856359
vn 0.966044188 -0.245426357 0.080773972
vn 0.952940762 -0.255510032 0.163152233
vn 0.925633907 -0.368394017 -0.0865316465
vn 0.822017074 -0.542023122 -0.174638957
vn 0.89561224 -0.437752962 0.0790629461
vn 0.881318569 -0.444408029 0.160558105
vn 0.826680601 -0.555674434 -0.0884600431
vn 0.685560465 -0.706142902 -0.177113086
vn 0.788117886 -0.610622406 0.0775264502
vn 0.773841202 -0.613284051 0.158279687
vn 0.688991487 -0.719128907 -0.0902460366
vn 0.515594304 -0.837899625 -0.179127738
vn 0.648490906 -0.757398486 0.0762036219
vn 0.635582447 -0.756028354 0.156384125
vn 0.51811862 -0.850371599 -0.0917673409
vn 0.433835208 -0.883071423 -0.17880711
vn 0.423726082 -0.900149822 -0.100927815
vn 0.482700825 -0.87255615 0.0751387849
vn 0.472436607 -0.867642224 0.154921487
vn 0.393154711 -0.917058051 0.0665866435
vn 0.372556478 -0.915217876 0.153550774
vn -0.515595615 -0.837898791 -0.179127499
vn -0.423727304 -0.900149286 -0.100927688
vn -0.433836341 -0.883070767 -0.178806961
vn -0.518119872 -0.850370884 -0.0917672515
vn -0.685561359 -0.706142128 -0.177112848
vn -0.393155873 -0.917057693 0.0665866509
vn -0.688992202 -0.719128251 -0.0902459696
vn -0.822017431 -0.542022765 -0.174639091
vn -0.482701868 -0.872555494 0.0751387328
vn -0.37255758 -0.915217459 0.153550699
vn -0.472437769 -0.867641509 0.154921427
vn -0.648491919 -0.757397771 0.0762035102
vn -0.63558358 -0.75602746 0.156384096
vn -0.826680899 -0.555673897 -0.0884601474
vn -0.919203699 -0.35430187 -0.171856672
vn -0.788118303 -0.610622048 0.0775265917
vn -0.77384156 -0.613283575 0.158279762
vn -0.925634503 -0.368392617 -0.0865317211
vn -0.973759949 -0.152504265 -0.168920144
vn -0.895613015 -0.437751442 0.0790629536
vn -0.881319344 -0.444406569 0.160558254
vn -0.982435584 -0.166342646 -0.0845598727
vn -0.984661639 0.053792581 -0.165975749
vn -0.966044724 -0.24542442 0.0807740763
vn -0.952941179 -0.255508065 0.163152412
vn -0.995726824 0.041254703 -0.0826213211
vn -0.952941179 0.255507737 -0.163152367
vn -0.995726705 -0.0412549749 0.0826213136
vn -0.984661639 -0.053792946 0.165975705
vn -0.966044724 0.245424256 -0.0807738751
vn -0.881319523 0.44440636 -0.160557985
vn -0.982435584 0.166342646 0.0845599398
vn -0.973759949 0.152504429 0.168919891
vn -0.895613194 0.437751055 -0.0790627524
vn -0.773841918 0.613283217 -0.158279568
vn -0.925634623 0.368392289 0.0865315273
vn -0.919203937 0.354301751 0.171856135
vn -0.78811866 0.610621512 -0.0775263533
vn -0.63558358 0.75602746 -0.156384081
vn -0.826681197 0.555673361 0.0884600654
vn -0.822017491 0.542022645 0.174638733
vn -0.648491979 0.757397592 -0.0762033686
vn -0.47243765 0.867641628 -0.154921472
vn -0.688992321 0.719128072 0.0902459919
vn -0.685561657 0.706141949 0.177112788
vn -0.482701808 0.872555494 -0.0751386434
vn -0.290962666 0.944270551 -0.153927401
vn -0.518119991 0.850370765 0.0917674154
vn -0.515595675 0.837898791 0.179127708
vn -0.29755947 0.951801121 -0.0743842497
vn -0.0982504711 0.983263791 -0.153424606
vn -0.321680367 0.942280948 0.0928892419
vn -0.320047587 0.930037796 0.180552557
vn -0.100524075 0.992179632 -0.0739906356
vn 0.098250486 0.98326391 -0.153424352
vn 0.100524314 0.992179513 -0.0739904866
vn -0.109072275 0.989627838 0.0934879333
vn -0.108495928 0.977426469 0.181290463
vn 0.109072566 0.989627838 0.0934877619
vn 0.108496085 0.977426469 0.18129012
g Cylinder002_0
f 3/3/3 2/2/2 1/1/1
f 2/2/2 4/4/4 1/1/1
f 1/1/1 4/4/4 5/5/5
f 2/2/2 6/6/6 4/4/4
f 4/4/4 7/7/7 5/5/5
f 5/5/5 7/7/7 8/8/8
f 6/6/6 9/9/9 4/4/4
f 4/4/4 9/9/9 7/7/7
f 6/6/6 10/10/10 9/9/9
f 10/10/10 11/11/11 9/9/9
f 9/9/9 11/11/11 12/12/12
f 9/9/9 12/12/12 7/7/7
f 11/11/11 13/13/13 12/12/12
f 7/7/7 14/14/14 8/8/8
f 7/7/7 12/12/12 14/14/14
f 8/8/8 14/14/14 15/15/15
f 12/12/12 13/13/13 16/16/16
f 12/12/12 16/16/16 14/14/14
f 13/13/13 17/17/17 16/16/16
f 14/14/14 18/18/18 15/15/15
f 14/14/14 16/16/16 18/18/18
f 15/15/15 18/18/18 19/19/19
f 16/16/16 17/17/17 20/20/20
f 16/16/16 20/20/20 18/18/18
f 17/17/17 21/21/21 20/20/20
f 18/18/18 22/22/22 19/19/19
f 18/18/18 20/20/20 22/22/22
f 19/19/19 22/22/22 23/23/23
f 20/20/20 21/21/21 24/24/24
f 20/20/20 24/24/24 22/22/22
f 21/21/21 25/25/25 24/24/24
f 22/22/22 26/26/26 23/23/23
f 22/22/22 24/24/24 26/26/26
f 23/23/23 26/26/26 27/27/27
f 24/24/24 25/25/25 28/28/28
f 24/24/24 28/28/28 26/26/26
f 25/25/25 29/29/29 28/28/28
f 26/26/26 30/30/30 27/27/27
f 26/26/26 28/28/28 30/30/30
f 27/27/27 30/30/30 31/31/31
f 28/28/28 29/29/29 32/32/32
f 28/28/28 32/32/32 30/30/30
f 29/29/29 33/33/33 32/32/32
f 30/30/30 34/34/34 31/31/31
f 30/30/30 32/32/32 34/34/34
f 31/31/31 34/34/34 35/35/35
f 32/32/32 33/33/33 36/36/36
f 32/32/32 36/36/36 34/34/34
f 33/33/33 37/37/37 36/36/36
f 34/34/34 38/38/38 35/35/35
f 34/34/34 36/36/36 38/38/38
f 35/35/35 38/38/38 39/39/39
f 36/36/36 37/37/37 40/40/40
f 36/36/36 40/40/40 38/38/38
f 37/37/37 41/41/41 40/40/40
f 38/38/38 42/42/42 39/39/39
f 38/38/38 40/40/40 42/42/42
f 39/39/39 42/42/42 43/43/43
f 40/40/40 41/41/41 44/44/44
f 40/40/40 44/44/44 42/42/42
f 41/41/41 45/45/45 44/44/44
f 42/42/42 46/46/46 43/43/43
f 42/42/42 44/44/44 46/46/46
f 43/43/43 46/46/46 47/47/47
f 44/44/44 45/45/45 48/48/48
f 44/44/44 48/48/48 46/46/46
f 45/45/45 49/49/49 48/48/48
f 46/46/46 50/50/50 47/47/47
f 46/46/46 48/48/48 50/50/50
f 47/47/47 50/50/50 51/51/51
f 50/50/50 52/52/52 51/51/51
f 48/48/48 49/49/49 53/53/53
f 48/48/48 53/53/53 50/50/50
f 50/50/50 53/53/53 52/52/52
f 49/49/49 54/54/54 53/53/53
f 53/53/53 55/55/55 52/52/52
f 53/53/53 54/54/54 55/55/55
f 54/54/54 56/56/56 55/55/55
f 59/59/59 58/58/58 57/57/57
f 58/58/58 60/60/60 57/57/57
f 57/57/57 60/60/60 61/61/61
f 58/58/58 62/62/62 60/60/60
f 60/60/60 63/63/63 61/61/61
f 61/61/61 63/63/63 64/64/64
f 62/62/62 65/65/65 60/60/60
f 60/60/60 65/65/65 63/63/63
f 62/62/62 66/66/66 65/65/65
f 66/66/66 67/67/67 65/65/65
f 65/65/65 67/67/67 68/68/68
f 65/65/65 68/68/68 63/63/63
f 67/67/67 69/69/69 68/68/68
f 63/63/63 70/70/70 64/64/64
f 63/63/63 68/68/68 70/70/70
f 64/64/64 70/70/70 71/71/71
f 68/68/68 69/69/69 72/72/72
f 68/68/68 72/72/72 70/70/70
f 69/69/69 73/73/73 72/72/72
f 70/70/70 74/74/74 71/71/71
f 70/70/70 72/72/72 74/74/74
f 71/71/71 74/74/74 75/75/75
f 72/72/72 73/73/73 76/76/76
f 72/72/72 76/76/76 74/74/74
f 73/73/73 77/77/77 76/76/76
f 74/74/74 78/78/78 75/75/75
f 74/74/74 76/76/76 78/78/78
f 75/75/75 78/78/78 79/79/79
f 76/76/76 77/77/77 80/80/80
f 76/76/76 80/80/80 78/78/78
f 77/77/77 81/81/81 80/80/80
f 78/78/78 82/82/82 79/79/79
f 78/78/78 80/80/80 82/82/82
f 79/79/79 82/82/82 83/83/83
f 80/80/80 81/81/81 84/84/84
f 80/80/80 84/84/84 82/82/82
f 81/81/81 85/85/85 84/84/84
f 82/82/82 86/86/86 83/83/83
f 82/82/82 84/84/84 86/86/86
f 83/83/83 86/86/86 87/87/87
f 84/84/84 85/85/85 88/88/88
f 84/84/84 88/88/88 86/86/86
f 85/85/85 89/89/89 88/88/88
f 86/86/86 90/90/90 87/87/87
f 86/86/86 88/88/88 90/90/90
f 87/87/87 90/90/90 91/91/91
f 88/88/88 89/89/89 92/92/92
f 88/88/88 92/92/92 90/90/90
f 89/89/89 93/93/93 92/92/92
f 90/90/90 94/94/94 91/91/91
f 90/90/90 92/92/92 94/94/94
f 91/91/91 94/94/94 95/95/95
f 92/92/92 93/93/93 96/96/96
f 92/92/92 96/96/96 94/94/94
f 93/93/93 97/97/97 96/96/96
f 94/94/94 98/98/98 95/95/95
f 94/94/94 96/96/96 98/98/98
f 95/95/95 98/98/98 99/99/99
f 96/96/96 97/97/97 100/100/100
f 96/96/96 100/100/100 98/98/98
f 97/97/97 101/101/101 100/100/100
f 98/98/98 102/102/102 99/99/99
f 98/98/98 100/100/100 102/102/102
f 99/99/99 102/102/102 103/103/103
f 100/100/100 101/101/101 104/104/104
f 100/100/100 104/104/104 102/102/102
f 101/101/101 105/105/105 104/104/104
f 102/102/102 106/106/106 103/103/103
f 102/102/102 104/104/104 106/106/106
f 103/103/103 106/106/106 107/107/107
f 104/104/104 105/105/105 108/108/108
f 104/104/104 108/108/108 106/106/106
f 105/105/105 109/109/109 108/108/108
f 106/106/106 110/110/110 107/107/107
f 106/106/106 108/108/108 110/110/110
f 107/107/107 110/110/110 111/111/111
f 110/110/110 112/112/112 111/111/111
f 108/108/108 109/109/109 113/113/113
f 108/108/108 113/113/113 110/110/110
f 110/110/110 113/113/113 112/112/112
f 109/109/109 114/114/114 113/113/113
f 113/113/113 115/115/115 112/112/112
f 113/113/113 114/114/114 115/115/115
f 114/114/114 116/116/116 115/115/115
