g char_whitw2_mesh_02
v -1.52889427E-07 0.704062819 0
v -1.33054314E-07 0.544840813 0
v -0.0797055066 0.539140165 0
v -0.102475874 0.696733594 0
v -1.72724555E-07 0.863284767 0
v -0.157788381 0.522154331 0
v -0.125246242 0.854326963 0
v -1.92559668E-07 1.02250671 0
v -0.148016617 1.01192033 0
v -0.202865541 0.674895167 0
v -0.23265928 0.49422887 0
v -0.247942716 0.827636003 0
v -0.293019891 0.98037684 0
v -0.299125612 0.638991952 0
v -0.302793771 0.455932558 0
v -0.365591973 0.783755064 0
v -0.432058305 0.928518176 0
v -0.389296174 0.589755058 0
v -0.366764307 0.408044785 0
v -0.475798607 0.723577619 0
v -0.56230104 0.857400179 0
v -0.471541941 0.528186679 0
v -0.423268527 0.351540625 0
v -0.576319575 0.648328602 0
v -0.681097209 0.768470526 0
v -0.544188321 0.455540299 0
v -0.471156269 0.287570059 0
v -0.665108085 0.559539974 0
v -0.786027908 0.663539648 0
v -0.6057567 0.373294532 0
v -0.509452581 0.217435509 0
v -0.740357161 0.459019035 0
v -0.874957561 0.544743538 0
v -0.654993534 0.28312391 0
v -0.537377954 0.142564729 0
v -0.800534487 0.348812312 0
v -0.946075439 0.414500713 0
v -0.69089663 0.186863944 0
v -0.554363847 0.0644818172 0
v -0.844415307 0.231163174 0
v -0.997933924 0.275462389 0
v -0.712734997 0.0864741951 0
v -0.560064435 -0.0152236763 0
v -0.871106148 0.108466573 0
v -1.02947736 0.130458951 0
v -0.720064163 -0.0160016567 0
v -0.554363847 -0.0949291587 0
v -0.880063891 -0.0167796388 0
v -1.04006362 -0.017557621 0
v -0.712734938 -0.118477441 0
v -0.537377954 -0.173012048 0
v -0.871106088 -0.142025724 0
v -1.02947724 -0.165574014 0
v -0.690896511 -0.218867153 0
v -0.509452522 -0.247882873 0
v -0.844415069 -0.264722258 0
v -0.997933626 -0.310577363 0
v -0.654993296 -0.315127134 0
v -0.47115621 -0.318017364 0
v -0.80053407 -0.382371396 0
v -0.946074843 -0.449615657 0
v -0.605756402 -0.405297697 0
v -0.423268497 -0.38198784 0
v -0.740356624 -0.49257803 0
v -0.874956846 -0.579858363 0
v -0.544188082 -0.487543285 0
v -0.366764218 -0.43849209 0
v -0.665107667 -0.59309876 0
v -0.786027253 -0.698654234 0
v -0.471541584 -0.560189724 0
v -0.302793741 -0.486379802 0
v -0.576318979 -0.681887388 0
v -0.681096375 -0.803584993 0
v -0.389295936 -0.621757984 0
v -0.232659206 -0.524676144 0
v -0.47579816 -0.757136226 0
v -0.562300384 -0.892514467 0
v -0.299125314 -0.670994878 0
v -0.157788426 -0.552601516 0
v -0.365591407 -0.817313612 0
v -0.43205753 -0.963632345 0
v -0.202865362 -0.706897974 0
v -0.0797055364 -0.569587469 0
v -0.247942299 -0.861194372 0
v -0.293019235 -1.01549077 0
v -0.102475673 -0.728736401 0
v -6.96281859E-08 -0.575288057 0
v -0.12524581 -0.887885332 0
v -0.148015946 -1.04703426 0
v 1.24828887E-07 -0.736065567 0
v 0.0797053948 -0.569587409 0
v 3.19285959E-07 -0.896843076 0
v 5.13743032E-07 -1.05762053 0
v 0.102475911 -0.728736281 0
v 0.157788292 -0.552601516 0
v 0.125246435 -0.887885213 0
v 0.148016959 -1.04703414 0
v 0.202865601 -0.706897855 0
v 0.232659072 -0.524676204 0
v 0.247942924 -0.861194193 0
v 0.293020248 -1.01549053 0
v 0.299125522 -0.670994699 0
v 0.302793562 -0.486379802 0
v 0.365591973 -0.817313254 0
v 0.432058424 -0.963631809 0
v 0.389296114 -0.621757805 0
v 0.366764128 -0.438492119 0
v 0.475798637 -0.757135808 0
v 0.562301159 -0.892513812 0
v 0.471541792 -0.560189486 0
v 0.423268378 -0.38198787 0
v 0.576319456 -0.681886852 0
v 0.68109709 -0.803584218 0
v 0.544188201 -0.487543046 0
v 0.47115609 -0.318017393 0
v 0.665108025 -0.593098223 0
v 0.786027849 -0.6986534 0
v 0.605756521 -0.405297399 0
v 0.509452462 -0.247882932 0
v 0.740356922 -0.492577434 0
v 0.874957383 -0.579857469 0
v 0.654993355 -0.315126836 0
v 0.537377834 -0.173012078 0
v 0.800534308 -0.38237074 0
v 0.946075261 -0.449614644 0
v 0.690896511 -0.218866825 0
v 0.554363728 -0.0949292183 0
v 0.844415188 -0.264721572 0
v 0.997933805 -0.31057632 0
v 0.712734938 -0.118477203 0
v 0.560064435 -0.015223722 0
v 0.871106148 -0.142025188 0
v 1.02947736 -0.16557318 0
v 0.720064163 -0.0160013512 0
v 0.554363787 0.0644817948 0
v 0.880063891 -0.0167789795 0
v 1.04006362 -0.0175566077 0
v 0.712734938 0.0864744931 0
v 0.537377894 0.142564714 0
v 0.871106088 0.108467199 0
v 1.02947724 0.130459905 0
v 0.690896511 0.186864167 0
v 0.509452581 0.217435509 0
v 0.844415069 0.231163636 0
v 0.997933626 0.275463104 0
v 0.654993415 0.283124089 0
v 0.47115618 0.287570059 0
v 0.800534248 0.348812699 0
v 0.946075082 0.414501309 0
v 0.605756462 0.373294771 0
v 0.423268437 0.351540595 0
v 0.740356743 0.459019452 0
v 0.874957025 0.544744134 0
v 0.544188142 0.455540419 0
v 0.366764247 0.408044815 0
v 0.665107787 0.559540272 0
v 0.786027491 0.663540125 0
v 0.471541733 0.528186798 0
v 0.302793652 0.455932617 0
v 0.576319218 0.648328781 0
v 0.681096733 0.768470764 0
v 0.389295995 0.589755237 0
v 0.232659191 0.494228929 0
v 0.475798368 0.723577857 0
v 0.562300742 0.857400417 0
v 0.299125463 0.638992071 0
v 0.157788306 0.522154331 0
v 0.365591735 0.783755183 0
v 0.432058007 0.928518295 0
v 0.202865392 0.674895227 0
v 0.0797054321 0.539140165 0
v 0.247942477 0.827636123 0
v 0.293019563 0.980376959 0
v 0.102475725 0.696733594 0
v 3.60804435E-08 0.544840813 0
v 6.4563892E-08 0.704062819 0
v 0.125246018 0.854326963 0
v 0.148016319 1.01192033 0
v 9.30473476E-08 0.863284767 0
v 1.21530803E-07 1.02250671 0
vt 0 0.49999994
vt 0 0.75
vt 0.0227272697 0.75
vt 0.0227272697 0.49999997
vt 0 0.24999997
vt 0.0454545394 0.750000119
vt 0.0227272697 0.25
vt 0 0
vt 0.0227272734 0
vt 0.0454545394 0.49999997
vt 0.0681817979 0.75
vt 0.0454545431 0.25
vt 0.0454545468 0
vt 0.0681818128 0.5
vt 0.0909090787 0.75
vt 0.0681818128 0.25
vt 0.0681818128 0
vt 0.0909090787 0.5
vt 0.11363633 0.749999881
vt 0.0909090862 0.25
vt 0.0909090936 0
vt 0.113636337 0.49999994
vt 0.136363626 0.75
vt 0.11363636 0.25
vt 0.113636367 0
vt 0.136363626 0.49999997
vt 0.159090877 0.75
vt 0.13636364 0.25
vt 0.13636364 0
vt 0.159090877 0.5
vt 0.181818128 0.749999881
vt 0.159090891 0.25
vt 0.159090921 0
vt 0.181818157 0.49999994
vt 0.204545423 0.75000006
vt 0.181818187 0.24999997
vt 0.181818202 0
vt 0.204545423 0.50000006
vt 0.227272704 0.75000006
vt 0.204545438 0.25
vt 0.204545468 0
vt 0.227272704 0.5
vt 0.24999994 0.75
vt 0.227272689 0.24999997
vt 0.227272734 0
vt 0.24999997 0.5
vt 0.272727191 0.749999881
vt 0.24999997 0.25
vt 0.25 0
vt 0.272727221 0.5
vt 0.295454472 0.74999994
vt 0.272727251 0.24999994
vt 0.272727281 0
vt 0.295454502 0.5
vt 0.318181753 0.75
vt 0.295454562 0.25000003
vt 0.295454562 0
vt 0.318181753 0.5
vt 0.340909004 0.75
vt 0.318181813 0.25
vt 0.318181813 0
vt 0.340909034 0.5
vt 0.363636255 0.75
vt 0.340909064 0.25
vt 0.340909064 0
vt 0.363636285 0.5
vt 0.386363566 0.75
vt 0.363636315 0.25
vt 0.363636315 0
vt 0.386363566 0.5
vt 0.409090787 0.74999994
vt 0.386363626 0.25
vt 0.386363626 0
vt 0.409090817 0.5
vt 0.431818128 0.75
vt 0.409090877 0.25
vt 0.409090877 0
vt 0.431818128 0.5
vt 0.454545379 0.75000006
vt 0.431818128 0.25
vt 0.431818157 0
vt 0.454545379 0.5
vt 0.4772726 0.75
vt 0.454545379 0.25
vt 0.454545379 0
vt 0.47727257 0.5
vt 0.49999994 0.74999994
vt 0.47727263 0.25
vt 0.47727263 0
vt 0.5 0.5
vt 0.522727132 0.75
vt 0.49999994 0.25
vt 0.49999994 0
vt 0.522727132 0.5
vt 0.545454502 0.75
vt 0.522727132 0.25
vt 0.522727132 0
vt 0.545454443 0.49999994
vt 0.568181694 0.75
vt 0.545454502 0.25
vt 0.545454502 0
vt 0.568181634 0.49999994
vt 0.590908945 0.749999881
vt 0.568181753 0.25
vt 0.568181753 0
vt 0.590909004 0.5
vt 0.613636315 0.75000006
vt 0.590909004 0.25
vt 0.590909004 0
vt 0.613636255 0.5
vt 0.636363566 0.750000119
vt 0.613636255 0.25
vt 0.613636255 0
vt 0.636363506 0.5
vt 0.659090757 0.75
vt 0.636363506 0.25
vt 0.636363506 0
vt 0.659090757 0.5
vt 0.681818068 0.75
vt 0.659090698 0.25
vt 0.659090757 0
vt 0.681818008 0.5
vt 0.704545498 0.750000119
vt 0.681818008 0.25
vt 0.681818008 0
vt 0.704545379 0.5
vt 0.72727263 0.75
vt 0.704545379 0.25
vt 0.704545379 0
vt 0.72727263 0.5
vt 0.749999762 0.74999994
vt 0.72727263 0.25
vt 0.72727257 0
vt 0.749999881 0.5
vt 0.772727251 0.75
vt 0.749999881 0.25
vt 0.749999881 0
vt 0.772727191 0.5
vt 0.795454502 0.75000006
vt 0.772727132 0.24999997
vt 0.772727132 0
vt 0.795454502 0.5
vt 0.818181753 0.75
vt 0.795454443 0.25
vt 0.795454443 0
vt 0.818181753 0.5
vt 0.840909004 0.75
vt 0.818181813 0.25000003
vt 0.818181694 0
vt 0.840908945 0.49999994
vt 0.863636374 0.75
vt 0.840909004 0.25
vt 0.840909004 0
vt 0.863636374 0.5
vt 0.886363626 0.75
vt 0.863636374 0.25
vt 0.863636374 0
vt 0.886363626 0.5
vt 0.909090936 0.75000006
vt 0.886363626 0.249999985
vt 0.886363626 0
vt 0.909090877 0.5
vt 0.931818128 0.75
vt 0.909090817 0.249999985
vt 0.909090877 0
vt 0.931818128 0.5
vt 0.954545379 0.75
vt 0.931818128 0.25
vt 0.931818128 0
vt 0.954545379 0.5
vt 0.97727263 0.75
vt 0.954545438 0.25
vt 0.954545379 0
vt 0.977272511 0.49999994
vt 1 0.75
vt 1 0.5
vt 0.977272749 0.25000003
vt 0.97727263 0
vt 1 0.25
vt 1 0
vn -0 0 1
vn -0 0 1
vn -0 0 1
vn -0 0 1
vn -0 0 1
vn -0 0 1
vn -0 0 1
vn -0 0 1
vn -0 0 1
vn -0 0 1
vn -0 0 1
vn -0 0 1
vn -0 0 1
vn -0 0 1
vn -0 0 1
vn -0 0 1
vn -0 0 1
vn -0 0 1
vn -0 0 1
vn -0 0 1
vn -0 0 1
vn -0 0 1
vn -0 0 1
vn -0 0 1
vn -0 0 1
vn -0 0 1
vn -0 0 1
vn -0 0 1
vn -0 0 1
vn -0 0 1
vn -0 0 1
vn -0 0 1
vn -0 0 1
vn -0 0 1
vn -0 0 1
vn -0 0 1
vn -0 0 1
vn -0 0 1
vn -0 0 1
vn -0 0 1
vn -0 0 1
vn -0 0 1
vn -0 0 1
vn -0 0 1
vn -0 0 1
vn -0 0 1
vn -0 0 1
vn -0 0 1
vn -0 0 1
vn -0 0 1
vn -0 0 1
vn -0 0 1
vn -0 0 1
vn -0 0 1
vn -0 0 1
vn -0 0 1
vn -0 0 1
vn -0 0 1
vn -0 0 1
vn -0 0 1
vn -0 0 1
vn -0 0 1
vn -0 0 1
vn -0 0 1
vn -0 0 1
vn -0 0 1
vn -0 0 1
vn -0 0 1
vn -0 0 1
vn -0 0 1
vn -0 0 1
vn -0 0 1
vn -0 0 1
vn -0 0 1
vn -0 0 1
vn -0 0 1
vn -0 0 1
vn -0 0 1
vn -0 0 1
vn -0 0 1
vn -0 0 1
vn -0 0 1
vn -0 0 1
vn -0 0 1
vn -0 0 1
vn -0 0 1
vn -0 0 1
vn -0 0 1
vn -0 0 1
vn -0 0 1
vn -0 0 1
vn -0 0 1
vn -0 0 1
vn -0 0 1
vn -0 0 1
vn -0 0 1
vn -0 0 1
vn -0 0 1
vn -0 0 1
vn -0 0 1
vn -0 0 1
vn -0 0 1
vn -0 0 1
vn -0 0 1
vn -0 0 1
vn -0 0 1
vn -0 0 1
vn -0 0 1
vn -0 0 1
vn -0 0 1
vn -0 0 1
vn -0 0 1
vn -0 0 1
vn -0 0 1
vn -0 0 1
vn -0 0 1
vn -0 0 1
vn -0 0 1
vn -0 0 1
vn -0 0 1
vn -0 0 1
vn -0 0 1
vn -0 0 1
vn -0 0 1
vn -0 0 1
vn -0 0 1
vn -0 0 1
vn -0 0 1
vn -0 0 1
vn -0 0 1
vn -0 0 1
vn -0 0 1
vn -0 0 1
vn -0 0 1
vn -0 0 1
vn -0 0 1
vn -0 0 1
vn -0 0 1
vn -0 0 1
vn -0 0 1
vn -0 0 1
vn -0 0 1
vn -0 0 1
vn -0 0 1
vn -0 0 1
vn -0 0 1
vn -0 0 1
vn -0 0 1
vn -0 0 1
vn -0 0 1
vn -0 0 1
vn -0 0 1
vn -0 0 1
vn -0 0 1
vn -0 0 1
vn -0 0 1
vn -0 0 1
vn -0 0 1
vn -0 0 1
vn -0 0 1
vn -0 0 1
vn -0 0 1
vn -0 0 1
vn -0 0 1
vn -0 0 1
vn -0 0 1
vn -0 0 1
vn -0 0 1
vn -0 0 1
vn -0 0 1
vn -0 0 1
vn -0 0 1
vn -0 0 1
vn -0 0 1
vn -0 0 1
vn -0 0 1
vn -0 0 1
vn -0 0 1
vn -0 0 1
vn -0 0 1
g char_whitw2_mesh_02_0
f 3/3/3 2/2/2 1/1/1
f 4/4/4 3/3/3 1/1/1
f 4/4/4 1/1/1 5/5/5
f 6/6/6 3/3/3 4/4/4
f 7/7/7 4/4/4 5/5/5
f 7/7/7 5/5/5 8/8/8
f 9/9/9 7/7/7 8/8/8
f 10/10/10 6/6/6 4/4/4
f 10/10/10 4/4/4 7/7/7
f 11/11/11 6/6/6 10/10/10
f 12/12/12 7/7/7 9/9/9
f 12/12/12 10/10/10 7/7/7
f 13/13/13 12/12/12 9/9/9
f 14/14/14 11/11/11 10/10/10
f 14/14/14 10/10/10 12/12/12
f 15/15/15 11/11/11 14/14/14
f 16/16/16 12/12/12 13/13/13
f 16/16/16 14/14/14 12/12/12
f 17/17/17 16/16/16 13/13/13
f 18/18/18 15/15/15 14/14/14
f 18/18/18 14/14/14 16/16/16
f 19/19/19 15/15/15 18/18/18
f 20/20/20 16/16/16 17/17/17
f 20/20/20 18/18/18 16/16/16
f 21/21/21 20/20/20 17/17/17
f 22/22/22 19/19/19 18/18/18
f 22/22/22 18/18/18 20/20/20
f 23/23/23 19/19/19 22/22/22
f 24/24/24 20/20/20 21/21/21
f 24/24/24 22/22/22 20/20/20
f 25/25/25 24/24/24 21/21/21
f 26/26/26 23/23/23 22/22/22
f 26/26/26 22/22/22 24/24/24
f 27/27/27 23/23/23 26/26/26
f 28/28/28 24/24/24 25/25/25
f 28/28/28 26/26/26 24/24/24
f 29/29/29 28/28/28 25/25/25
f 30/30/30 27/27/27 26/26/26
f 30/30/30 26/26/26 28/28/28
f 31/31/31 27/27/27 30/30/30
f 32/32/32 28/28/28 29/29/29
f 32/32/32 30/30/30 28/28/28
f 33/33/33 32/32/32 29/29/29
f 34/34/34 31/31/31 30/30/30
f 34/34/34 30/30/30 32/32/32
f 35/35/35 31/31/31 34/34/34
f 36/36/36 32/32/32 33/33/33
f 36/36/36 34/34/34 32/32/32
f 37/37/37 36/36/36 33/33/33
f 38/38/38 35/35/35 34/34/34
f 38/38/38 34/34/34 36/36/36
f 39/39/39 35/35/35 38/38/38
f 40/40/40 36/36/36 37/37/37
f 40/40/40 38/38/38 36/36/36
f 41/41/41 40/40/40 37/37/37
f 42/42/42 39/39/39 38/38/38
f 42/42/42 38/38/38 40/40/40
f 43/43/43 39/39/39 42/42/42
f 44/44/44 40/40/40 41/41/41
f 44/44/44 42/42/42 40/40/40
f 45/45/45 44/44/44 41/41/41
f 46/46/46 43/43/43 42/42/42
f 46/46/46 42/42/42 44/44/44
f 47/47/47 43/43/43 46/46/46
f 48/48/48 44/44/44 45/45/45
f 48/48/48 46/46/46 44/44/44
f 49/49/49 48/48/48 45/45/45
f 50/50/50 47/47/47 46/46/46
f 50/50/50 46/46/46 48/48/48
f 51/51/51 47/47/47 50/50/50
f 52/52/52 48/48/48 49/49/49
f 52/52/52 50/50/50 48/48/48
f 53/53/53 52/52/52 49/49/49
f 54/54/54 51/51/51 50/50/50
f 54/54/54 50/50/50 52/52/52
f 55/55/55 51/51/51 54/54/54
f 56/56/56 52/52/52 53/53/53
f 56/56/56 54/54/54 52/52/52
f 57/57/57 56/56/56 53/53/53
f 58/58/58 55/55/55 54/54/54
f 58/58/58 54/54/54 56/56/56
f 59/59/59 55/55/55 58/58/58
f 60/60/60 56/56/56 57/57/57
f 60/60/60 58/58/58 56/56/56
f 61/61/61 60/60/60 57/57/57
f 62/62/62 59/59/59 58/58/58
f 62/62/62 58/58/58 60/60/60
f 63/63/63 59/59/59 62/62/62
f 64/64/64 60/60/60 61/61/61
f 64/64/64 62/62/62 60/60/60
f 65/65/65 64/64/64 61/61/61
f 66/66/66 63/63/63 62/62/62
f 66/66/66 62/62/62 64/64/64
f 67/67/67 63/63/63 66/66/66
f 68/68/68 64/64/64 65/65/65
f 68/68/68 66/66/66 64/64/64
f 69/69/69 68/68/68 65/65/65
f 70/70/70 67/67/67 66/66/66
f 70/70/70 66/66/66 68/68/68
f 71/71/71 67/67/67 70/70/70
f 72/72/72 68/68/68 69/69/69
f 72/72/72 70/70/70 68/68/68
f 73/73/73 72/72/72 69/69/69
f 74/74/74 71/71/71 70/70/70
f 74/74/74 70/70/70 72/72/72
f 75/75/75 71/71/71 74/74/74
f 76/76/76 72/72/72 73/73/73
f 76/76/76 74/74/74 72/72/72
f 77/77/77 76/76/76 73/73/73
f 78/78/78 75/75/75 74/74/74
f 78/78/78 74/74/74 76/76/76
f 79/79/79 75/75/75 78/78/78
f 80/80/80 76/76/76 77/77/77
f 80/80/80 78/78/78 76/76/76
f 81/81/81 80/80/80 77/77/77
f 82/82/82 79/79/79 78/78/78
f 82/82/82 78/78/78 80/80/80
f 83/83/83 79/79/79 82/82/82
f 84/84/84 80/80/80 81/81/81
f 84/84/84 82/82/82 80/80/80
f 85/85/85 84/84/84 81/81/81
f 86/86/86 83/83/83 82/82/82
f 86/86/86 82/82/82 84/84/84
f 87/87/87 83/83/83 86/86/86
f 88/88/88 84/84/84 85/85/85
f 88/88/88 86/86/86 84/84/84
f 89/89/89 88/88/88 85/85/85
f 90/90/90 87/87/87 86/86/86
f 90/90/90 86/86/86 88/88/88
f 91/91/91 87/87/87 90/90/90
f 92/92/92 88/88/88 89/89/89
f 92/92/92 90/90/90 88/88/88
f 93/93/93 92/92/92 89/89/89
f 94/94/94 91/91/91 90/90/90
f 94/94/94 90/90/90 92/92/92
f 95/95/95 91/91/91 94/94/94
f 96/96/96 92/92/92 93/93/93
f 96/96/96 94/94/94 92/92/92
f 97/97/97 96/96/96 93/93/93
f 98/98/98 95/95/95 94/94/94
f 98/98/98 94/94/94 96/96/96
f 99/99/99 95/95/95 98/98/98
f 100/100/100 96/96/96 97/97/97
f 100/100/100 98/98/98 96/96/96
f 101/101/101 100/100/100 97/97/97
f 102/102/102 99/99/99 98/98/98
f 102/102/102 98/98/98 100/100/100
f 103/103/103 99/99/99 102/102/102
f 104/104/104 100/100/100 101/101/101
f 104/104/104 102/102/102 100/100/100
f 105/105/105 104/104/104 101/101/101
f 106/106/106 103/103/103 102/102/102
f 106/106/106 102/102/102 104/104/104
f 107/107/107 103/103/103 106/106/106
f 108/108/108 104/104/104 105/105/105
f 108/108/108 106/106/106 104/104/104
f 109/109/109 108/108/108 105/105/105
f 110/110/110 107/107/107 106/106/106
f 110/110/110 106/106/106 108/108/108
f 111/111/111 107/107/107 110/110/110
f 112/112/112 108/108/108 109/109/109
f 112/112/112 110/110/110 108/108/108
f 113/113/113 112/112/112 109/109/109
f 114/114/114 111/111/111 110/110/110
f 114/114/114 110/110/110 112/112/112
f 115/115/115 111/111/111 114/114/114
f 116/116/116 112/112/112 113/113/113
f 116/116/116 114/114/114 112/112/112
f 117/117/117 116/116/116 113/113/113
f 118/118/118 115/115/115 114/114/114
f 118/118/118 114/114/114 116/116/116
f 119/119/119 115/115/115 118/118/118
f 120/120/120 116/116/116 117/117/117
f 120/120/120 118/118/118 116/116/116
f 121/121/121 120/120/120 117/117/117
f 122/122/122 119/119/119 118/118/118
f 122/122/122 118/118/118 120/120/120
f 123/123/123 119/119/119 122/122/122
f 124/124/124 120/120/120 121/121/121
f 124/124/124 122/122/122 120/120/120
f 125/125/125 124/124/124 121/121/121
f 126/126/126 123/123/123 122/122/122
f 126/126/126 122/122/122 124/124/124
f 127/127/127 123/123/123 126/126/126
f 128/128/128 124/124/124 125/125/125
f 128/128/128 126/126/126 124/124/124
f 129/129/129 128/128/128 125/125/125
f 130/130/130 127/127/127 126/126/126
f 130/130/130 126/126/126 128/128/128
f 131/131/131 127/127/127 130/130/130
f 132/132/132 128/128/128 129/129/129
f 132/132/132 130/130/130 128/128/128
f 133/133/133 132/132/132 129/129/129
f 134/134/134 131/131/131 130/130/130
f 134/134/134 130/130/130 132/132/132
f 135/135/135 131/131/131 134/134/134
f 136/136/136 132/132/132 133/133/133
f 136/136/136 134/134/134 132/132/132
f 137/137/137 136/136/136 133/133/133
f 138/138/138 135/135/135 134/134/134
f 138/138/138 134/134/134 136/136/136
f 139/139/139 135/135/135 138/138/138
f 140/140/140 136/136/136 137/137/137
f 140/140/140 138/138/138 136/136/136
f 141/141/141 140/140/140 137/137/137
f 142/142/142 139/139/139 138/138/138
f 142/142/142 138/138/138 140/140/140
f 143/143/143 139/139/139 142/142/142
f 144/144/144 140/140/140 141/141/141
f 144/144/144 142/142/142 140/140/140
f 145/145/145 144/144/144 141/141/141
f 146/146/146 143/143/143 142/142/142
f 146/146/146 142/142/142 144/144/144
f 147/147/147 143/143/143 146/146/146
f 148/148/148 144/144/144 145/145/145
f 148/148/148 146/146/146 144/144/144
f 149/149/149 148/148/148 145/145/145
f 150/150/150 147/147/147 146/146/146
f 150/150/150 146/146/146 148/148/148
f 151/151/151 147/147/147 150/150/150
f 152/152/152 148/148/148 149/149/149
f 152/152/152 150/150/150 148/148/148
f 153/153/153 152/152/152 149/149/149
f 154/154/154 151/151/151 150/150/150
f 154/154/154 150/150/150 152/152/152
f 155/155/155 151/151/151 154/154/154
f 156/156/156 152/152/152 153/153/153
f 156/156/156 154/154/154 152/152/152
f 157/157/157 156/156/156 153/153/153
f 158/158/158 155/155/155 154/154/154
f 158/158/158 154/154/154 156/156/156
f 159/159/159 155/155/155 158/158/158
f 160/160/160 156/156/156 157/157/157
f 160/160/160 158/158/158 156/156/156
f 161/161/161 160/160/160 157/157/157
f 162/162/162 159/159/159 158/158/158
f 162/162/162 158/158/158 160/160/160
f 163/163/163 159/159/159 162/162/162
f 164/164/164 160/160/160 161/161/161
f 164/164/164 162/162/162 160/160/160
f 165/165/165 164/164/164 161/161/161
f 166/166/166 163/163/163 162/162/162
f 166/166/166 162/162/162 164/164/164
f 167/167/167 163/163/163 166/166/166
f 168/168/168 164/164/164 165/165/165
f 168/168/168 166/166/166 164/164/164
f 169/169/169 168/168/168 165/165/165
f 170/170/170 167/167/167 166/166/166
f 170/170/170 166/166/166 168/168/168
f 171/171/171 167/167/167 170/170/170
f 172/172/172 168/168/168 169/169/169
f 172/172/172 170/170/170 168/168/168
f 173/173/173 172/172/172 169/169/169
f 174/174/174 171/171/171 170/170/170
f 174/174/174 170/170/170 172/172/172
f 175/175/175 171/171/171 174/174/174
f 176/176/176 175/175/175 174/174/174
f 177/177/177 172/172/172 173/173/173
f 177/177/177 174/174/174 172/172/172
f 176/176/176 174/174/174 177/177/177
f 178/178/178 177/177/177 173/173/173
f 179/179/179 176/176/176 177/177/177
f 179/179/179 177/177/177 178/178/178
f 180/180/180 179/179/179 178/178/178
