g general_range_14_4
v -0.380274087 0.623845518 -0.000550933182
v -0.380274087 0.623845518 0.298864394
v -0.325528353 0.623845518 0.298864394
v -0.325528353 0.623845518 -0.000550933182
v -0.345221162 0.623845518 -0.000689953566
v -0.345221162 0.623845518 0.238654584
v -0.290475398 0.623845518 0.238654584
v -0.290475398 0.623845518 -0.000689953566
v -0.363482922 0.601741612 -0.000689953566
v -0.363482922 0.601741612 0.238654584
v -0.363482922 0.546995878 0.238654584
v -0.363482922 0.546995878 -0.000689953566
v -0.363482922 0.637448251 -0.000550918281
v -0.363482922 0.637448251 0.298864394
v -0.363482922 0.582702518 0.298864394
v -0.363482922 0.582702518 -0.000550918281
v -0.308614999 0.623845518 -0.000340238214
v -0.308614999 0.623845518 0.180393159
v -0.253869265 0.623845518 0.180393159
v -0.253869265 0.623845518 -0.000340238214
v -0.363482922 0.566146195 -0.000340238214
v -0.363482922 0.566146195 0.180393159
v -0.363482922 0.511400461 0.180393159
v -0.363482922 0.511400461 -0.000340238214
v -0.365885407 -0.639389575 -0.00055091083
v -0.365885407 -0.639389575 0.298864365
v -0.365885407 -0.584643841 0.298864365
v -0.365885407 -0.584643841 -0.00055091083
v -0.365885407 -0.604336619 -0.000689938664
v -0.365885407 -0.604336619 0.238654584
v -0.365885407 -0.549590886 0.238654584
v -0.365885407 -0.549590886 -0.000689938664
v -0.343781501 -0.62259841 -0.000689938664
v -0.343781501 -0.62259841 0.238654584
v -0.289035767 -0.62259841 0.238654584
v -0.289035767 -0.62259841 -0.000689938664
v -0.37948814 -0.62259841 -0.00055091083
v -0.37948814 -0.62259841 0.298864365
v -0.324742407 -0.62259841 0.298864365
v -0.324742407 -0.62259841 -0.00055091083
v -0.365885407 -0.567730486 -0.000340223312
v -0.365885407 -0.567730486 0.180393159
v -0.365885407 -0.512984753 0.180393159
v -0.365885407 -0.512984753 -0.000340223312
v -0.308186084 -0.62259841 -0.000340223312
v -0.308186084 -0.62259841 0.180393159
v -0.25344035 -0.62259841 0.180393159
v -0.25344035 -0.62259841 -0.000340223312
v 0.374254644 0.372746199 -0.14992103
v 0.374254644 0.372746199 0.0894235075
v 0.31950891 0.372746199 0.0894235075
v 0.31950891 0.372746199 -0.14992103
v 0.409961283 0.372746199 -0.149781987
v 0.409961283 0.372746199 0.149633288
v 0.355215549 0.372746199 0.149633288
v 0.355215549 0.372746199 -0.149781987
v 0.338659227 0.372746199 -0.149571314
v 0.338659227 0.372746199 0.0311620757
v 0.283913493 0.372746199 0.0311620757
v 0.283913493 0.372746199 -0.149571314
v 0.373142481 -0.377155244 -0.14992103
v 0.373142481 -0.377155244 0.0894235075
v 0.318396747 -0.377155244 0.0894235075
v 0.318396747 -0.377155244 -0.14992103
v 0.40884912 -0.377155244 -0.149781987
v 0.40884912 -0.377155244 0.149633288
v 0.354103386 -0.377155244 0.149633288
v 0.354103386 -0.377155244 -0.149781987
v 0.337547064 -0.377155244 -0.149571314
v 0.337547064 -0.377155244 0.0311620757
v 0.28280133 -0.377155244 0.0311620757
v 0.28280133 -0.377155244 -0.149571314
v 0.385631263 -0.364056379 -0.149921015
v 0.385631263 -0.364056379 0.0894235075
v 0.385631263 -0.309310645 0.0894235075
v 0.385631263 -0.309310645 -0.149921015
v 0.385631263 -0.399763018 -0.149781987
v 0.385631263 -0.399763018 0.149633288
v 0.385631263 -0.345017284 0.149633288
v 0.385631263 -0.345017284 -0.149781987
v 0.385631263 -0.328460962 -0.1495713
v 0.385631263 -0.328460962 0.0311620682
v 0.385631263 -0.273715228 0.0311620682
v 0.385631263 -0.273715228 -0.1495713
v 0.390501499 0.356052637 -0.149921015
v 0.390501499 0.356052637 0.0894235075
v 0.390501499 0.301306903 0.0894235075
v 0.390501499 0.301306903 -0.149921015
v 0.390501499 0.391759306 -0.149781987
v 0.390501499 0.391759306 0.149633288
v 0.390501499 0.337013543 0.149633288
v 0.390501499 0.337013543 -0.149781987
v 0.390501499 0.32045722 -0.1495713
v 0.390501499 0.32045722 0.0311620682
v 0.390501499 0.265711457 0.0311620682
v 0.390501499 0.265711457 -0.1495713
v 0.117206961 0.624382377 -0.14992103
v 0.117206961 0.624382377 0.0894235075
v 0.0624612272 0.624382377 0.0894235075
v 0.0624612272 0.624382377 -0.14992103
v 0.1529136 0.624382377 -0.149781987
v 0.1529136 0.624382377 0.149633288
v 0.0981678665 0.624382377 0.149633288
v 0.0981678665 0.624382377 -0.149781987
v 0.0816115439 0.624382377 -0.149571314
v 0.0816115439 0.624382377 0.0311620757
v 0.0268658102 0.624382377 0.0311620757
v 0.0268658102 0.624382377 -0.149571314
v 0.133453816 0.607688785 -0.149921015
v 0.133453816 0.607688785 0.0894235075
v 0.133453816 0.552943051 0.0894235075
v 0.133453816 0.552943051 -0.149921015
v 0.133453816 0.643395424 -0.149781987
v 0.133453816 0.643395424 0.149633288
v 0.133453816 0.58864969 0.149633288
v 0.133453816 0.58864969 -0.149781987
v 0.133453816 0.572093368 -0.1495713
v 0.133453816 0.572093368 0.0311620682
v 0.133453816 0.517347574 0.0311620682
v 0.133453816 0.517347574 -0.1495713
v 0.125564963 -0.624732733 -0.14992103
v 0.125564963 -0.624732733 0.0894235075
v 0.0708192289 -0.624732733 0.0894235075
v 0.0708192289 -0.624732733 -0.14992103
v 0.161271602 -0.624732733 -0.149781987
v 0.161271602 -0.624732733 0.149633288
v 0.106525868 -0.624732733 0.149633288
v 0.106525868 -0.624732733 -0.149781987
v 0.0899695456 -0.624732733 -0.149571314
v 0.0899695456 -0.624732733 0.0311620757
v 0.0352238119 -0.624732733 0.0311620757
v 0.0352238119 -0.624732733 -0.149571314
v 0.138053745 -0.611633897 -0.149921015
v 0.138053745 -0.611633897 0.0894235075
v 0.138053745 -0.556888163 0.0894235075
v 0.138053745 -0.556888163 -0.149921015
v 0.138053745 -0.647340536 -0.149781987
v 0.138053745 -0.647340536 0.149633288
v 0.138053745 -0.592594802 0.149633288
v 0.138053745 -0.592594802 -0.149781987
v 0.138053745 -0.57603848 -0.1495713
v 0.138053745 -0.57603848 0.0311620682
v 0.138053745 -0.521292746 0.0311620682
v 0.138053745 -0.521292746 -0.1495713
vt -0.0595703125 -0.0009765625
vt -0.0595703125 0.784179688
vt 0.225585938 0.784179688
vt 0.225585938 -0.0009765625
vt -0.0595703125 0.157226562
vt -0.0595703125 0.784179688
vt 0.225585938 0.784179688
vt 0.225585938 0.157226562
vt -0.0595703125 0.157226562
vt -0.0595703125 0.784179688
vt 0.225585938 0.784179688
vt 0.225585938 0.157226562
vt -0.0595703125 -0.0009765625
vt -0.0595703125 0.784179688
vt 0.225585938 0.784179688
vt 0.225585938 -0.0009765625
vt -0.0595703125 0.311523438
vt -0.0595703125 0.784179688
vt 0.225585938 0.784179688
vt 0.225585938 0.309570312
vt -0.0595703125 0.311523438
vt -0.0595703125 0.784179688
vt 0.225585938 0.784179688
vt 0.225585938 0.309570312
vt -0.0595703125 -0.0009765625
vt -0.0595703125 0.784179688
vt 0.225585938 0.784179688
vt 0.225585938 -0.0009765625
vt -0.0595703125 0.157226562
vt -0.0595703125 0.784179688
vt 0.225585938 0.784179688
vt 0.225585938 0.157226562
vt -0.0595703125 0.157226562
vt -0.0595703125 0.784179688
vt 0.225585938 0.784179688
vt 0.225585938 0.157226562
vt -0.0595703125 -0.0009765625
vt -0.0595703125 0.784179688
vt 0.225585938 0.784179688
vt 0.225585938 -0.0009765625
vt -0.0595703125 0.311523438
vt -0.0595703125 0.784179688
vt 0.225585938 0.784179688
vt 0.225585938 0.309570312
vt -0.0595703125 0.311523438
vt -0.0595703125 0.784179688
vt 0.225585938 0.784179688
vt 0.225585938 0.309570312
vt -0.0595703125 0.157226562
vt -0.0595703125 0.784179688
vt 0.225585938 0.784179688
vt 0.225585938 0.157226562
vt -0.0595703125 -0.0009765625
vt -0.0595703125 0.784179688
vt 0.225585938 0.784179688
vt 0.225585938 -0.0009765625
vt -0.0595703125 0.311523438
vt -0.0595703125 0.784179688
vt 0.225585938 0.784179688
vt 0.225585938 0.309570312
vt -0.0595703125 0.157226562
vt -0.0595703125 0.784179688
vt 0.225585938 0.784179688
vt 0.225585938 0.157226562
vt -0.0595703125 -0.0009765625
vt -0.0595703125 0.784179688
vt 0.225585938 0.784179688
vt 0.225585938 -0.0009765625
vt -0.0595703125 0.311523438
vt -0.0595703125 0.784179688
vt 0.225585938 0.784179688
vt 0.225585938 0.309570312
vt -0.0595703125 0.157226562
vt -0.0595703125 0.784179688
vt 0.225585938 0.784179688
vt 0.225585938 0.157226562
vt -0.0595703125 -0.0009765625
vt -0.0595703125 0.784179688
vt 0.225585938 0.784179688
vt 0.225585938 -0.0009765625
vt -0.0595703125 0.311523438
vt -0.0595703125 0.784179688
vt 0.225585938 0.784179688
vt 0.225585938 0.309570312
vt -0.0595703125 0.157226562
vt -0.0595703125 0.784179688
vt 0.225585938 0.784179688
vt 0.225585938 0.157226562
vt -0.0595703125 -0.0009765625
vt -0.0595703125 0.784179688
vt 0.225585938 0.784179688
vt 0.225585938 -0.0009765625
vt -0.0595703125 0.311523438
vt -0.0595703125 0.784179688
vt 0.225585938 0.784179688
vt 0.225585938 0.309570312
vt -0.0595703125 0.157226562
vt -0.0595703125 0.784179688
vt 0.225585938 0.784179688
vt 0.225585938 0.157226562
vt -0.0595703125 -0.0009765625
vt -0.0595703125 0.784179688
vt 0.225585938 0.784179688
vt 0.225585938 -0.0009765625
vt -0.0595703125 0.311523438
vt -0.0595703125 0.784179688
vt 0.225585938 0.784179688
vt 0.225585938 0.309570312
vt -0.0595703125 0.157226562
vt -0.0595703125 0.784179688
vt 0.225585938 0.784179688
vt 0.225585938 0.157226562
vt -0.0595703125 -0.0009765625
vt -0.0595703125 0.784179688
vt 0.225585938 0.784179688
vt 0.225585938 -0.0009765625
vt -0.0595703125 0.311523438
vt -0.0595703125 0.784179688
vt 0.225585938 0.784179688
vt 0.225585938 0.309570312
vt -0.0595703125 0.157226562
vt -0.0595703125 0.784179688
vt 0.225585938 0.784179688
vt 0.225585938 0.157226562
vt -0.0595703125 -0.0009765625
vt -0.0595703125 0.784179688
vt 0.225585938 0.784179688
vt 0.225585938 -0.0009765625
vt -0.0595703125 0.311523438
vt -0.0595703125 0.784179688
vt 0.225585938 0.784179688
vt 0.225585938 0.309570312
vt -0.0595703125 0.157226562
vt -0.0595703125 0.784179688
vt 0.225585938 0.784179688
vt 0.225585938 0.157226562
vt -0.0595703125 -0.0009765625
vt -0.0595703125 0.784179688
vt 0.225585938 0.784179688
vt 0.225585938 -0.0009765625
vt -0.0595703125 0.311523438
vt -0.0595703125 0.784179688
vt 0.225585938 0.784179688
vt 0.225585938 0.309570312
vn -0 -1 0
vn -0 -1 0
vn -0 -1 0
vn -0 -1 0
vn -0 -1 0
vn -0 -1 0
vn -0 -1 0
vn -0 -1 0
vn -1 0 0
vn -1 0 0
vn -1 0 0
vn -1 0 0
vn -1 0 0
vn -1 0 0
vn -1 0 0
vn -1 0 0
vn -0 -1 0
vn -0 -1 0
vn -0 -1 0
vn -0 -1 0
vn -1 0 0
vn -1 0 0
vn -1 0 0
vn -1 0 0
vn 1 0 0
vn 1 0 0
vn 1 0 0
vn 1 0 0
vn 1 0 0
vn 1 0 0
vn 1 0 0
vn 1 0 0
vn -0 -1 0
vn -0 -1 0
vn -0 -1 0
vn -0 -1 0
vn -0 -1 0
vn -0 -1 0
vn -0 -1 0
vn -0 -1 0
vn 1 0 0
vn 1 0 0
vn 1 0 0
vn 1 0 0
vn -0 -1 0
vn -0 -1 0
vn -0 -1 0
vn -0 -1 0
vn -0 1 0
vn -0 1 0
vn -0 1 0
vn -0 1 0
vn -0 1 0
vn -0 1 0
vn -0 1 0
vn -0 1 0
vn -0 1 0
vn -0 1 0
vn -0 1 0
vn -0 1 0
vn -0 1 0
vn -0 1 0
vn -0 1 0
vn -0 1 0
vn -0 1 0
vn -0 1 0
vn -0 1 0
vn -0 1 0
vn -0 1 0
vn -0 1 0
vn -0 1 0
vn -0 1 0
vn 1 0 0
vn 1 0 0
vn 1 0 0
vn 1 0 0
vn 1 0 0
vn 1 0 0
vn 1 0 0
vn 1 0 0
vn 1 0 0
vn 1 0 0
vn 1 0 0
vn 1 0 0
vn -1 0 0
vn -1 0 0
vn -1 0 0
vn -1 0 0
vn -1 0 0
vn -1 0 0
vn -1 0 0
vn -1 0 0
vn -1 0 0
vn -1 0 0
vn -1 0 0
vn -1 0 0
vn -0 1 0
vn -0 1 0
vn -0 1 0
vn -0 1 0
vn -0 1 0
vn -0 1 0
vn -0 1 0
vn -0 1 0
vn -0 1 0
vn -0 1 0
vn -0 1 0
vn -0 1 0
vn -1 0 0
vn -1 0 0
vn -1 0 0
vn -1 0 0
vn -1 0 0
vn -1 0 0
vn -1 0 0
vn -1 0 0
vn -1 0 0
vn -1 0 0
vn -1 0 0
vn -1 0 0
vn -0 1 0
vn -0 1 0
vn -0 1 0
vn -0 1 0
vn -0 1 0
vn -0 1 0
vn -0 1 0
vn -0 1 0
vn -0 1 0
vn -0 1 0
vn -0 1 0
vn -0 1 0
vn 1 0 0
vn 1 0 0
vn 1 0 0
vn 1 0 0
vn 1 0 0
vn 1 0 0
vn 1 0 0
vn 1 0 0
vn 1 0 0
vn 1 0 0
vn 1 0 0
vn 1 0 0
g general_range_14_4_0
f 3/3/3 2/2/2 1/1/1
f 4/4/4 3/3/3 1/1/1
f 7/7/7 6/6/6 5/5/5
f 8/8/8 7/7/7 5/5/5
f 11/11/11 10/10/10 9/9/9
f 12/12/12 11/11/11 9/9/9
f 15/15/15 14/14/14 13/13/13
f 16/16/16 15/15/15 13/13/13
f 19/19/19 18/18/18 17/17/17
f 20/20/20 19/19/19 17/17/17
f 23/23/23 22/22/22 21/21/21
f 24/24/24 23/23/23 21/21/21
f 27/27/27 26/26/26 25/25/25
f 28/28/28 27/27/27 25/25/25
f 31/31/31 30/30/30 29/29/29
f 32/32/32 31/31/31 29/29/29
f 35/35/35 34/34/34 33/33/33
f 36/36/36 35/35/35 33/33/33
f 39/39/39 38/38/38 37/37/37
f 40/40/40 39/39/39 37/37/37
f 43/43/43 42/42/42 41/41/41
f 44/44/44 43/43/43 41/41/41
f 47/47/47 46/46/46 45/45/45
f 48/48/48 47/47/47 45/45/45
f 51/51/51 50/50/50 49/49/49
f 52/52/52 51/51/51 49/49/49
f 55/55/55 54/54/54 53/53/53
f 56/56/56 55/55/55 53/53/53
f 59/59/59 58/58/58 57/57/57
f 60/60/60 59/59/59 57/57/57
f 63/63/63 62/62/62 61/61/61
f 64/64/64 63/63/63 61/61/61
f 67/67/67 66/66/66 65/65/65
f 68/68/68 67/67/67 65/65/65
f 71/71/71 70/70/70 69/69/69
f 72/72/72 71/71/71 69/69/69
f 75/75/75 74/74/74 73/73/73
f 76/76/76 75/75/75 73/73/73
f 79/79/79 78/78/78 77/77/77
f 80/80/80 79/79/79 77/77/77
f 83/83/83 82/82/82 81/81/81
f 84/84/84 83/83/83 81/81/81
f 87/87/87 86/86/86 85/85/85
f 88/88/88 87/87/87 85/85/85
f 91/91/91 90/90/90 89/89/89
f 92/92/92 91/91/91 89/89/89
f 95/95/95 94/94/94 93/93/93
f 96/96/96 95/95/95 93/93/93
f 99/99/99 98/98/98 97/97/97
f 100/100/100 99/99/99 97/97/97
f 103/103/103 102/102/102 101/101/101
f 104/104/104 103/103/103 101/101/101
f 107/107/107 106/106/106 105/105/105
f 108/108/108 107/107/107 105/105/105
f 111/111/111 110/110/110 109/109/109
f 112/112/112 111/111/111 109/109/109
f 115/115/115 114/114/114 113/113/113
f 116/116/116 115/115/115 113/113/113
f 119/119/119 118/118/118 117/117/117
f 120/120/120 119/119/119 117/117/117
f 123/123/123 122/122/122 121/121/121
f 124/124/124 123/123/123 121/121/121
f 127/127/127 126/126/126 125/125/125
f 128/128/128 127/127/127 125/125/125
f 131/131/131 130/130/130 129/129/129
f 132/132/132 131/131/131 129/129/129
f 135/135/135 134/134/134 133/133/133
f 136/136/136 135/135/135 133/133/133
f 139/139/139 138/138/138 137/137/137
f 140/140/140 139/139/139 137/137/137
f 143/143/143 142/142/142 141/141/141
f 144/144/144 143/143/143 141/141/141
