g general_range_14_2
v -0.642569065 -0.593405962 0
v -0.593286276 -0.373962641 0
v -0.593286276 -0.593405962 0
v -0.642569065 -0.373962641 0
v -0.593286276 -0.124654219 0
v -0.642569065 -0.124654219 0
v -0.593286276 0.124654219 0
v -0.642569065 0.124654219 0
v -0.593286276 0.373962641 0
v -0.642569065 0.373962641 0
v -0.593286276 0.599898398 0
v -0.642569065 0.599898398 0
v -0.160868689 0.373962641 0
v -0.160868689 0.623271048 0
v -0.1115859 0.623271048 0
v -0.1115859 0.373962641 0
v -0.153984159 -0.623271048 0
v -0.153984159 -0.373962641 0
v -0.10470137 -0.373962641 0
v -0.10470137 -0.623271048 0
v 0.0964397788 -0.373962641 0
v 0.0964397788 -0.124654219 0
v 0.145722568 -0.124654219 0
v 0.145722568 -0.373962641 0
v 0.101603091 0.124654219 0
v 0.101603091 0.373962641 0
v 0.15088588 0.373962641 0
v 0.15088588 0.124654219 0
v 0.349445462 -0.140130058 0
v 0.349445462 0.140130058 0
v 0.398728251 0.140130058 0
v 0.398728251 -0.140130058 0
v -0.623178661 0.650876582 0
v -0.373870254 0.601593852 0
v -0.623178661 0.601593852 0
v -0.373870254 0.650876582 0
v -0.149232984 0.601593792 0
v -0.149232984 0.650876522 0
v -0.627051175 -0.596079767 0
v -0.377742797 -0.645362496 0
v -0.627051175 -0.645362496 0
v -0.377742797 -0.596079767 0
v -0.154238895 -0.645362556 0
v -0.154238895 -0.596079826 0
v 0.126977652 -0.0892079398 0
v 0.351355255 -0.089207992 0
v 0.351355255 -0.138490736 0
v 0.126977652 -0.138490677 0
v -0.124737144 0.393137842 0
v 0.102892272 0.393137783 0
v 0.10289228 0.343855053 0
v -0.124737144 0.343855113 0
v -0.123446316 -0.346946687 0
v 0.104213037 -0.346946746 0
v 0.104213037 -0.396229476 0
v -0.123446316 -0.396229416 0
v 0.123105124 0.14056249 0
v 0.350734562 0.14056243 0
v 0.350734562 0.0912797078 0
v 0.123105124 0.09127976 0
vt 0 0.023958344
vt 1 0.200000003
vt 1 0.0239583477
vt 0 0.200000003
vt 1 0.400000006
vt 0 0.400000006
vt 1 0.600000024
vt 0 0.600000024
vt 1 0.800000012
vt 0 0.800000012
vt 1 0.981250048
vt 0 0.981250048
vt 10.0581055 0.814941406
vt 10.0581055 1.03369141
vt 11.0581055 1.03369141
vt 11.0581055 0.814941406
vt -0.00048828125 0.0151367188
vt -0.00048828125 0.233886719
vt 1.00048828 0.233886719
vt 1.00048828 0.0151367188
vt 0 0.200000003
vt 0 0.400000006
vt 1 0.400000006
vt 1 0.200000003
vt 0 0.600000024
vt 0 0.800000012
vt 1 0.800000012
vt 1 0.600000024
vt -0.00048828125 0.376464844
vt -0.00048828125 0.623535156
vt 1.00048828 0.623535156
vt 1.00048828 0.376464844
vt 0 0.600000024
vt 1 0.800000012
vt 1 0.600000024
vt 0 0.800000012
vt 1 0.980208337
vt 0 0.980208278
vt 0 0.600000024
vt 1 0.800000012
vt 1 0.600000024
vt 0 0.800000012
vt 1 0.979299128
vt 0 0.979299128
vt 0 0.800000012
vt 0 0.979999959
vt 1 0.980000019
vt 1 0.800000012
vt 0 0.800000012
vt 0 0.982608676
vt 1 0.982608676
vt 1 0.800000012
vt 0 0.800000012
vt 0 0.982632697
vt 1 0.982632697
vt 1 0.800000012
vt 0 0.800000012
vt 0 0.982608676
vt 1 0.982608676
vt 1 0.800000012
vn -0 0 1
vn -0 0 1
vn -0 0 1
vn -0 0 1
vn -0 0 1
vn -0 0 1
vn -0 0 1
vn -0 0 1
vn -0 0 1
vn -0 0 1
vn -0 0 1
vn -0 0 1
vn -0 0 1
vn -0 0 1
vn -0 0 1
vn -0 0 1
vn -0 0 1
vn -0 0 1
vn -0 0 1
vn -0 0 1
vn -0 0 1
vn -0 0 1
vn -0 0 1
vn -0 0 1
vn -0 0 1
vn -0 0 1
vn -0 0 1
vn -0 0 1
vn -0 0 1
vn -0 0 1
vn -0 0 1
vn -0 0 1
vn -0 0 1
vn -0 0 1
vn -0 0 1
vn -0 0 1
vn -0 0 1
vn -0 0 1
vn -0 0 1
vn -0 0 1
vn -0 0 1
vn -0 0 1
vn -0 0 1
vn -0 0 1
vn -0 0 1
vn -0 0 1
vn -0 0 1
vn -0 0 1
vn -0 0 1
vn -0 0 1
vn -0 0 1
vn -0 0 1
vn -0 0 1
vn -0 0 1
vn -0 0 1
vn -0 0 1
vn -0 0 1
vn -0 0 1
vn -0 0 1
vn -0 0 1
g general_range_14_2_0
f 3/3/3 2/2/2 1/1/1
f 2/2/2 4/4/4 1/1/1
f 2/2/2 5/5/5 4/4/4
f 5/5/5 6/6/6 4/4/4
f 5/5/5 7/7/7 6/6/6
f 7/7/7 8/8/8 6/6/6
f 7/7/7 9/9/9 8/8/8
f 9/9/9 10/10/10 8/8/8
f 9/9/9 11/11/11 10/10/10
f 11/11/11 12/12/12 10/10/10
f 15/15/15 14/14/14 13/13/13
f 16/16/16 15/15/15 13/13/13
f 19/19/19 18/18/18 17/17/17
f 20/20/20 19/19/19 17/17/17
f 23/23/23 22/22/22 21/21/21
f 24/24/24 23/23/23 21/21/21
f 27/27/27 26/26/26 25/25/25
f 28/28/28 27/27/27 25/25/25
f 31/31/31 30/30/30 29/29/29
f 32/32/32 31/31/31 29/29/29
f 35/35/35 34/34/34 33/33/33
f 34/34/34 36/36/36 33/33/33
f 34/34/34 37/37/37 36/36/36
f 37/37/37 38/38/38 36/36/36
f 41/41/41 40/40/40 39/39/39
f 40/40/40 42/42/42 39/39/39
f 40/40/40 43/43/43 42/42/42
f 43/43/43 44/44/44 42/42/42
f 47/47/47 46/46/46 45/45/45
f 48/48/48 47/47/47 45/45/45
f 51/51/51 50/50/50 49/49/49
f 52/52/52 51/51/51 49/49/49
f 55/55/55 54/54/54 53/53/53
f 56/56/56 55/55/55 53/53/53
f 59/59/59 58/58/58 57/57/57
f 60/60/60 59/59/59 57/57/57
