g lap_s1buff01
v 0.0807057768 0.354971558 -3.22414678E-07
v 0.210845366 0.416232884 -1.77096368E-07
v 0.0853797197 0.435914516 -3.53232963E-07
v 0.193866849 0.329006284 -1.59710211E-07
v 0.0731956735 0.296417624 -2.99129027E-07
v 0.336311013 0.396551311 -9.59763935E-10
v 0.175331742 0.251885146 -1.47661282E-07
v 0.0543069057 0.222877473 -2.77494223E-07
v 0.310099572 0.291108668 4.41675807E-09
v 0.461776763 0.376869589 1.7517678E-07
v 0.145148262 0.17300038 -1.37622393E-07
v 0.0278701968 0.150812685 -2.55760767E-07
v 0.277467787 0.207352698 3.8064254E-09
v 0.421693206 0.260507137 1.67673946E-07
v 0.587242365 0.357187986 3.51313417E-07
v 0.539493263 0.229019061 3.31036887E-07
v 0.379603922 0.16282025 1.55274137E-07
v 0.481739908 0.118287787 3.06741782E-07
v 0.105682068 0.0948531255 -1.27729905E-07
v -0.00386328157 0.0885925591 -2.32740774E-07
v 0.235989705 0.123123348 2.24945862E-09
v 0.326831073 0.0732463002 1.4212128E-07
v 0.417672515 0.023369262 2.81993067E-07
v 0.0599332601 0.0278982967 -1.16513085E-07
v -0.0437473543 0.0315331034 -2.09288928E-07
v 0.183493987 0.0388935059 3.0098507E-10
v 0.261305839 -0.0170660615 1.28331877E-07
v 0.339117706 -0.0730256811 2.56362739E-07
v 0.00551129133 -0.0318414681 -1.04695523E-07
v -0.0978261009 -0.0235208999 -1.86015612E-07
v 0.123729803 -0.0327959619 -2.85380247E-10
v 0.18752639 -0.0934902728 1.15942392E-07
v 0.251322895 -0.154184476 2.32169995E-07
v -0.0613928586 -0.0861760378 -9.30164958E-08
v -0.166659012 -0.0769623071 -1.62930391E-07
v 0.0547699593 -0.0952160358 -1.02107149E-10
v 0.104028679 -0.158590615 1.0449132E-07
v 0.153287292 -0.221965134 2.09084718E-07
v -0.138922796 -0.135403454 -8.15398025E-08
v -0.244000942 -0.12761052 -1.39713208E-07
v -0.0249596685 -0.148831174 -1.7372076E-11
v 0.0114735728 -0.21148631 9.29817361E-08
v 0.0479067639 -0.274141401 1.85980852E-07
v -0.223025754 -0.180503517 -6.99412581E-08
v -0.320494592 -0.170889765 -1.16080464E-07
v -0.111186601 -0.193844661 -1.49250848E-10
v -0.0834504068 -0.252285749 8.12412893E-08
v -0.0557141863 -0.31072697 1.62631878E-07
v -0.306519955 -0.217970803 -5.79109702E-08
v -0.400788397 -0.205494821 -9.19383254E-08
v -0.202050596 -0.2333965 -1.69400841E-10
v -0.181075424 -0.286289513 6.96024713E-08
v -0.160100251 -0.339182407 1.39374322E-07
v -0.394207686 -0.246289805 -4.53401157E-08
v -0.477036864 -0.22751382 -6.73260701E-08
v -0.476548225 -0.261043757 -3.22829905E-08
v -0.292545259 -0.265051842 2.58513599E-10
v -0.278570592 -0.312132895 5.84279967E-08
v -0.264595926 -0.359213918 1.16597469E-07
v -0.387626976 -0.287084788 1.25808941E-09
v -0.476059556 -0.294573694 2.7600926E-09
v -0.381046236 -0.327879876 4.78563145E-08
v -0.374465525 -0.368674785 9.44544496E-08
v -0.475570858 -0.328103602 3.78031615E-08
v -0.475082248 -0.361633629 7.28462553E-08
vt 0.916666567 0.149973959
vt 0.999999881 0.324986994
vt 0.999999881 0.149973959
vt 0.916666567 0.324986994
vt 0.833333254 0.149973959
vt 0.999999881 0.5
vt 0.833333254 0.324986994
vt 0.74999994 0.149973959
vt 0.916666567 0.5
vt 0.999999881 0.675013006
vt 0.74999994 0.324986994
vt 0.666666627 0.149973959
vt 0.833333254 0.5
vt 0.916666567 0.675013006
vt 0.999999881 0.850026071
vt 0.916666567 0.850026071
vt 0.833333254 0.675013006
vt 0.833333254 0.850026071
vt 0.666666627 0.324986994
vt 0.583333313 0.149973959
vt 0.74999994 0.5
vt 0.74999994 0.675013006
vt 0.74999994 0.850026071
vt 0.583333313 0.324986994
vt 0.5 0.149973959
vt 0.666666627 0.5
vt 0.666666627 0.675013006
vt 0.666666627 0.850026071
vt 0.5 0.324986994
vt 0.416666687 0.149973959
vt 0.583333313 0.5
vt 0.583333313 0.675013006
vt 0.583333313 0.850026071
vt 0.416666687 0.324986994
vt 0.333333343 0.149973959
vt 0.5 0.5
vt 0.5 0.675013006
vt 0.5 0.850026071
vt 0.333333343 0.324986994
vt 0.25 0.149973959
vt 0.416666687 0.5
vt 0.416666687 0.675013006
vt 0.416666687 0.850026071
vt 0.25 0.324986994
vt 0.166666672 0.149973959
vt 0.333333343 0.5
vt 0.333333343 0.675013006
vt 0.333333343 0.850026071
vt 0.166666672 0.324986994
vt 0.0833333358 0.149973959
vt 0.25 0.5
vt 0.25 0.675013006
vt 0.25 0.850026071
vt 0.0833333358 0.324986994
vt 0 0.149973959
vt 0 0.324986994
vt 0.166666672 0.5
vt 0.166666672 0.675013006
vt 0.166666672 0.850026071
vt 0.0833333358 0.5
vt 0 0.5
vt 0.0833333358 0.675013006
vt 0.0833333358 0.850026071
vt 0 0.675013006
vt 0 0.850026071
vn 1.31415459E-06 -4.81301981E-07 -1
vn 1.32075263E-06 -4.34418524E-07 -1
vn 1.33231731E-06 -4.58182654E-07 -1
vn 1.30073227E-06 -4.61906097E-07 -1
vn 1.25975976E-06 -5.47845048E-07 -1
vn 1.33005744E-06 -4.02048158E-07 -1
vn 1.24853011E-06 -5.4176337E-07 -1
vn 1.1838132E-06 -6.48552259E-07 -1
vn 1.30867647E-06 -4.36808421E-07 -1
vn 1.33241144E-06 -3.75068481E-07 -1
vn 1.18242394E-06 -6.49717208E-07 -1
vn 1.08381653E-06 -7.80422852E-07 -1
vn 1.25586359E-06 -5.27351403E-07 -1
vn 1.31379761E-06 -4.14303173E-07 -1
vn 1.31977458E-06 -3.60444034E-07 -1
vn 1.30210708E-06 -3.94848826E-07 -1
vn 1.26101543E-06 -5.14247006E-07 -1
vn 1.25694817E-06 -4.99534735E-07 -1
vn 1.08037568E-06 -7.83577548E-07 -1
vn 9.44046974E-07 -9.24595497E-07 -1
vn 1.18804462E-06 -6.39736072E-07 -1
vn 1.19249137E-06 -6.31809542E-07 -1
vn 1.19753179E-06 -6.23417009E-07 -1
vn 9.41500275E-07 -9.2523328E-07 -1
vn 7.89979197E-07 -1.03810692E-06 -1
vn 1.08938195E-06 -7.71455348E-07 -1
vn 1.09626467E-06 -7.62159004E-07 -1
vn 1.10437497E-06 -7.51765754E-07 -1
vn 7.87824604E-07 -1.03772675E-06 -1
vn 6.39872098E-07 -1.11385452E-06 -1
vn 9.5388134E-07 -9.1229299E-07 -1
vn 9.63281082E-07 -9.02447596E-07 -1
vn 9.73630904E-07 -8.92423429E-07 -1
vn 6.40548421E-07 -1.11140514E-06 -1
vn 5.21480501E-07 -1.1463485E-06 -1
vn 8.01993451E-07 -1.0266051E-06 -1
vn 8.13132942E-07 -1.01788385E-06 -1
vn 8.24511517E-07 -1.0098405E-06 -1
vn 5.25674864E-07 -1.142413E-06 -1
vn 4.19579521E-07 -1.15342971E-06 -1
vn 6.56382099E-07 -1.10192582E-06 -1
vn 6.69884344E-07 -1.09388225E-06 -1
vn 6.81260303E-07 -1.08814561E-06 -1
vn 4.24867352E-07 -1.14917282E-06 -1
vn 2.9255645E-07 -1.1491926E-06 -1
vn 5.4334123E-07 -1.13393503E-06 -1
vn 5.59380339E-07 -1.12624878E-06 -1
vn 5.70916654E-07 -1.12205282E-06 -1
vn 2.98291553E-07 -1.14466127E-06 -1
vn -0 -1.12261944E-06 -1
vn 4.45668036E-07 -1.14110389E-06 -1
vn 4.64656324E-07 -1.13372778E-06 -1
vn 4.78198842E-07 -1.13018905E-06 -1
vn -0 -1.117191E-06 -1
vn -0 -1.09683947E-06 -1
vn -0 -1.0947241E-06 -1
vn 3.23472221E-07 -1.13748843E-06 -1
vn 3.46021778E-07 -1.13104545E-06 -1
vn 3.63121615E-07 -1.12837017E-06 -1
vn -0 -1.11222232E-06 -1
vn -0 -1.09123857E-06 -1
vn -0 -1.1078082E-06 -1
vn -0 -1.10773112E-06 -1
vn -0 -1.08813038E-06 -1
vn -0 -1.08661538E-06 -1
g lap_s1buff01_0
f 3/3/3 2/2/2 1/1/1
f 2/2/2 4/4/4 1/1/1
f 1/1/1 4/4/4 5/5/5
f 2/2/2 6/6/6 4/4/4
f 4/4/4 7/7/7 5/5/5
f 5/5/5 7/7/7 8/8/8
f 6/6/6 9/9/9 4/4/4
f 4/4/4 9/9/9 7/7/7
f 6/6/6 10/10/10 9/9/9
f 7/7/7 11/11/11 8/8/8
f 8/8/8 11/11/11 12/12/12
f 9/9/9 13/13/13 7/7/7
f 7/7/7 13/13/13 11/11/11
f 10/10/10 14/14/14 9/9/9
f 9/9/9 14/14/14 13/13/13
f 10/10/10 15/15/15 14/14/14
f 15/15/15 16/16/16 14/14/14
f 14/14/14 16/16/16 17/17/17
f 14/14/14 17/17/17 13/13/13
f 16/16/16 18/18/18 17/17/17
f 11/11/11 19/19/19 12/12/12
f 12/12/12 19/19/19 20/20/20
f 13/13/13 21/21/21 11/11/11
f 13/13/13 17/17/17 21/21/21
f 11/11/11 21/21/21 19/19/19
f 17/17/17 18/18/18 22/22/22
f 17/17/17 22/22/22 21/21/21
f 18/18/18 23/23/23 22/22/22
f 19/19/19 24/24/24 20/20/20
f 20/20/20 24/24/24 25/25/25
f 21/21/21 26/26/26 19/19/19
f 21/21/21 22/22/22 26/26/26
f 19/19/19 26/26/26 24/24/24
f 22/22/22 23/23/23 27/27/27
f 22/22/22 27/27/27 26/26/26
f 23/23/23 28/28/28 27/27/27
f 24/24/24 29/29/29 25/25/25
f 25/25/25 29/29/29 30/30/30
f 26/26/26 31/31/31 24/24/24
f 26/26/26 27/27/27 31/31/31
f 24/24/24 31/31/31 29/29/29
f 27/27/27 28/28/28 32/32/32
f 27/27/27 32/32/32 31/31/31
f 28/28/28 33/33/33 32/32/32
f 29/29/29 34/34/34 30/30/30
f 30/30/30 34/34/34 35/35/35
f 31/31/31 36/36/36 29/29/29
f 31/31/31 32/32/32 36/36/36
f 29/29/29 36/36/36 34/34/34
f 32/32/32 33/33/33 37/37/37
f 32/32/32 37/37/37 36/36/36
f 33/33/33 38/38/38 37/37/37
f 34/34/34 39/39/39 35/35/35
f 35/35/35 39/39/39 40/40/40
f 36/36/36 41/41/41 34/34/34
f 36/36/36 37/37/37 41/41/41
f 34/34/34 41/41/41 39/39/39
f 37/37/37 38/38/38 42/42/42
f 37/37/37 42/42/42 41/41/41
f 38/38/38 43/43/43 42/42/42
f 39/39/39 44/44/44 40/40/40
f 40/40/40 44/44/44 45/45/45
f 41/41/41 46/46/46 39/39/39
f 41/41/41 42/42/42 46/46/46
f 39/39/39 46/46/46 44/44/44
f 42/42/42 43/43/43 47/47/47
f 42/42/42 47/47/47 46/46/46
f 43/43/43 48/48/48 47/47/47
f 44/44/44 49/49/49 45/45/45
f 45/45/45 49/49/49 50/50/50
f 46/46/46 51/51/51 44/44/44
f 46/46/46 47/47/47 51/51/51
f 44/44/44 51/51/51 49/49/49
f 47/47/47 48/48/48 52/52/52
f 47/47/47 52/52/52 51/51/51
f 48/48/48 53/53/53 52/52/52
f 49/49/49 54/54/54 50/50/50
f 50/50/50 54/54/54 55/55/55
f 54/54/54 56/56/56 55/55/55
f 51/51/51 57/57/57 49/49/49
f 51/51/51 52/52/52 57/57/57
f 49/49/49 57/57/57 54/54/54
f 52/52/52 53/53/53 58/58/58
f 52/52/52 58/58/58 57/57/57
f 53/53/53 59/59/59 58/58/58
f 54/54/54 60/60/60 56/56/56
f 57/57/57 60/60/60 54/54/54
f 57/57/57 58/58/58 60/60/60
f 60/60/60 61/61/61 56/56/56
f 58/58/58 59/59/59 62/62/62
f 58/58/58 62/62/62 60/60/60
f 60/60/60 62/62/62 61/61/61
f 59/59/59 63/63/63 62/62/62
f 62/62/62 64/64/64 61/61/61
f 62/62/62 63/63/63 64/64/64
f 63/63/63 65/65/65 64/64/64
