g Plane003
v -0.00582687277 0.111359373 0
v 0.224582121 -0.0881768838 0
v 0.268680632 -0.0421177298 0
v 0.0587630793 0.178874701 0
v 0.319032222 0.0016020824 0
v 0.12913087 0.240014613 0
v 0.375105381 0.0427244157 0
v 0.204285592 0.295159787 0
v 0.436242759 0.0809978396 0
v 0.28336215 0.344684333 0
v 0.501700938 0.116208218 0
v 0.365581453 0.388925135 0
v 0.5706833 0.148188233 0
v 0.450217128 0.428172082 0
v 0.642362714 0.176816359 0
v 0.536575079 0.462669522 0
v 0.71589309 0.202010855 0
v 0.623977482 0.492621511 0
v 0.790418625 0.223723799 0
v 0.711758375 0.518198907 0
v 0.865074337 0.24193497 0
v 0.799260616 0.539544761 0
v 0.938984513 0.256647587 0
v 0.885836542 0.556778133 0
v 1.0112586 0.267886698 0
v 0.970854759 0.569996893 0
v 1.08380544 0.275464058 0
v 1.06102443 0.579411507 0
v 1.15790081 0.279035419 0
v 1.15084457 0.583753705 0
v 1.23350239 0.279111773 0
v 1.23943615 0.58385402 0
v 1.31061625 0.276254833 0
v 1.3267504 0.580627501 0
v 1.3892169 0.271063328 0
v 1.41277254 0.574951708 0
v 1.4692651 0.264175504 0
v 1.49750078 0.567664802 0
v 1.55072141 0.256267935 0
v 1.58093297 0.559566975 0
v 1.63355553 0.248053223 0
v 1.66305852 0.551422 0
v 1.71774805 0.240278929 0
v 1.74385536 0.543958783 0
v 1.80329108 0.233727932 0
v 1.82329059 0.537871063 0
v 1.89018071 0.229219705 0
v 1.90132689 0.533815861 0
v 1.97840714 0.227612123 0
v 1.97793269 0.532411754 0
v 2.06793761 0.229800895 0
v 2.05310035 0.534239531 0
vt 0 0
vt 0 1
vt 0.0399999991 1
vt 0.0399999991 0
vt 0.0799999982 1
vt 0.0799999982 0
vt 0.119999997 1
vt 0.119999997 0
vt 0.159999996 1
vt 0.159999996 0
vt 0.199999988 1
vt 0.199999988 0
vt 0.23999998 1
vt 0.23999998 0
vt 0.279999971 1
vt 0.279999971 0
vt 0.319999963 1
vt 0.319999963 0
vt 0.359999955 1
vt 0.359999955 0
vt 0.399999946 1
vt 0.399999946 0
vt 0.439999938 1
vt 0.439999938 0
vt 0.47999993 1
vt 0.47999993 0
vt 0.519999921 1
vt 0.519999921 0
vt 0.559999943 1
vt 0.559999943 0
vt 0.599999964 1
vt 0.599999964 0
vt 0.639999986 1
vt 0.639999986 0
vt 0.680000007 1
vt 0.680000007 0
vt 0.720000029 1
vt 0.720000029 0
vt 0.76000005 1
vt 0.76000005 0
vt 0.800000072 1
vt 0.800000072 0
vt 0.840000093 1
vt 0.840000093 0
vt 0.880000114 1
vt 0.880000114 0
vt 0.920000136 1
vt 0.920000136 0
vt 0.960000157 1
vt 0.960000157 0
vt 1.00000012 1
vt 1.00000012 0
vn -0 0 -1
vn -0 0 -1
vn -0 0 -1
vn -0 0 -1
vn -0 0 -1
vn -0 0 -1
vn -0 0 -1
vn -0 0 -1
vn -0 0 -1
vn -0 0 -1
vn -0 0 -1
vn -0 0 -1
vn -0 0 -1
vn -0 0 -1
vn -0 0 -1
vn -0 0 -1
vn -0 0 -1
vn -0 0 -1
vn -0 0 -1
vn -0 0 -1
vn -0 0 -1
vn -0 0 -1
vn -0 0 -1
vn -0 0 -1
vn -0 0 -1
vn -0 0 -1
vn -0 0 -1
vn -0 0 -1
vn -0 0 -1
vn -0 0 -1
vn -0 0 -1
vn -0 0 -1
vn -0 0 -1
vn -0 0 -1
vn -0 0 -1
vn -0 0 -1
vn -0 0 -1
vn -0 0 -1
vn -0 0 -1
vn -0 0 -1
vn -0 0 -1
vn -0 0 -1
vn -0 0 -1
vn -0 0 -1
vn -0 0 -1
vn -0 0 -1
vn -0 0 -1
vn -0 0 -1
vn -0 0 -1
vn -0 0 -1
vn -0 0 -1
vn -0 0 -1
g Plane003_0
f 3/3/3 2/2/2 1/1/1
f 4/4/4 3/3/3 1/1/1
f 5/5/5 3/3/3 4/4/4
f 6/6/6 5/5/5 4/4/4
f 7/7/7 5/5/5 6/6/6
f 8/8/8 7/7/7 6/6/6
f 9/9/9 7/7/7 8/8/8
f 10/10/10 9/9/9 8/8/8
f 11/11/11 9/9/9 10/10/10
f 12/12/12 11/11/11 10/10/10
f 13/13/13 11/11/11 12/12/12
f 14/14/14 13/13/13 12/12/12
f 15/15/15 13/13/13 14/14/14
f 16/16/16 15/15/15 14/14/14
f 17/17/17 15/15/15 16/16/16
f 18/18/18 17/17/17 16/16/16
f 19/19/19 17/17/17 18/18/18
f 20/20/20 19/19/19 18/18/18
f 21/21/21 19/19/19 20/20/20
f 22/22/22 21/21/21 20/20/20
f 23/23/23 21/21/21 22/22/22
f 24/24/24 23/23/23 22/22/22
f 25/25/25 23/23/23 24/24/24
f 26/26/26 25/25/25 24/24/24
f 27/27/27 25/25/25 26/26/26
f 28/28/28 27/27/27 26/26/26
f 29/29/29 27/27/27 28/28/28
f 30/30/30 29/29/29 28/28/28
f 31/31/31 29/29/29 30/30/30
f 32/32/32 31/31/31 30/30/30
f 33/33/33 31/31/31 32/32/32
f 34/34/34 33/33/33 32/32/32
f 35/35/35 33/33/33 34/34/34
f 36/36/36 35/35/35 34/34/34
f 37/37/37 35/35/35 36/36/36
f 38/38/38 37/37/37 36/36/36
f 39/39/39 37/37/37 38/38/38
f 40/40/40 39/39/39 38/38/38
f 41/41/41 39/39/39 40/40/40
f 42/42/42 41/41/41 40/40/40
f 43/43/43 41/41/41 42/42/42
f 44/44/44 43/43/43 42/42/42
f 45/45/45 43/43/43 44/44/44
f 46/46/46 45/45/45 44/44/44
f 47/47/47 45/45/45 46/46/46
f 48/48/48 47/47/47 46/46/46
f 49/49/49 47/47/47 48/48/48
f 50/50/50 49/49/49 48/48/48
f 51/51/51 49/49/49 50/50/50
f 52/52/52 51/51/51 50/50/50
