g Object001
v 0.835935414 0.14739798 0.494283587
v 0.5 0 0
v 0.848830998 0 0.494283587
v 0.492403865 0.0868240967 0
v 0.797640264 0.290317327 0.494283587
v 0.469846308 0.171010077 0
v 0.73510921 0.424415499 0.494283587
v 0.433012724 0.25 0
v 0.650242269 0.545618117 0.494283587
v 0.383022219 0.321393818 0
v 0.545618057 0.650242329 0.494283587
v 0.321393788 0.383022249 0
v 0.424415469 0.73510927 0.494283587
v 0.24999997 0.433012724 0
v 0.290317327 0.797640264 0.494283587
v 0.171010077 0.469846308 0
v 0.147397995 0.835935414 0.494283587
v 0.0868241116 0.492403865 0
v 6.40849578E-08 0.848830998 0.494283587
v 3.77489506E-08 0.5 0
v -0.147397876 0.835935414 0.494283587
v 3.77489506E-08 0.5 0
v 6.40849578E-08 0.848830998 0.494283587
v -0.0868240371 0.492403895 0
v -0.290317178 0.797640324 0.494283587
v -0.171010002 0.469846308 0
v -0.42441538 0.735109329 0.494283587
v -0.249999925 0.433012754 0
v -0.545617938 0.650242388 0.494283587
v -0.321393728 0.383022279 0
v -0.65024215 0.545618236 0.494283587
v -0.38302213 0.321393907 0
v -0.73510915 0.424415708 0.494283587
v -0.433012605 0.250000119 0
v -0.797640145 0.290317565 0.494283587
v -0.469846278 0.171010226 0
v -0.835935295 0.147398263 0.494283587
v -0.492403865 0.0868242607 0
v -0.848830998 3.30546982E-07 0.494283587
v -0.5 1.94707184E-07 0
vt 1.24446511 1
vt 0.75 0
vt 1.2166872 1
vt 0.777777791 0
vt 1.27224278 1
vt 0.805555582 0
vt 1.30002069 1
vt 0.833333373 0
vt 1.32779837 1
vt 0.861111104 0
vt 1.35557604 1
vt 0.888888896 0
vt 1.38335395 1
vt 0.916666687 0
vt 1.41113162 1
vt 0.944444418 0
vt 1.43890953 1
vt 0.972222209 0
vt 1.4666872 1
vt 1 0
vt 0.494465053 1
vt 0 0
vt 0.466687262 1
vt 0.027777791 0
vt 0.522242785 1
vt 0.0555555522 0
vt 0.550020576 1
vt 0.0833333135 0
vt 0.577798367 1
vt 0.111111134 0
vt 0.605576158 1
vt 0.138888866 0
vt 0.633353889 1
vt 0.166666627 0
vt 0.66113168 1
vt 0.194444418 0
vt 0.688909411 1
vt 0.222222179 0
vt 0.716687202 1
vt 0.24999994 0
vn 0.804613769 0.141875118 -0.576600432
vn 0.81494689 0.0712987557 -0.575133085
vn 0.814947009 0.0712984875 -0.575133026
vn 0.804613769 0.141875118 -0.576600492
vn 0.767753541 0.279439509 -0.576600492
vn 0.767753601 0.27943933 -0.576600313
vn 0.707565427 0.408513218 -0.576600492
vn 0.707565427 0.408513218 -0.576600432
vn 0.625878453 0.525174379 -0.576600373
vn 0.625878453 0.525174439 -0.576600373
vn 0.52517432 0.625878394 -0.576600432
vn 0.52517432 0.625878453 -0.576600373
vn 0.408513069 0.707565546 -0.576600432
vn 0.408513129 0.707565486 -0.576600373
vn 0.279439479 0.767753601 -0.576600313
vn 0.27943942 0.767753601 -0.576600432
vn 0.141875118 0.804613769 -0.576600492
vn 0.141875103 0.804613888 -0.576600432
vn -0 0.817026258 -0.576600492
vn -0 0.817026258 -0.576600373
vn -0.141875029 0.804613888 -0.576600432
vn -0 0.817026258 -0.576600373
vn -0 0.817026258 -0.576600492
vn -0.141875073 0.804613769 -0.576600432
vn -0.27943933 0.767753541 -0.576600432
vn -0.27943939 0.767753541 -0.576600492
vn -0.408513069 0.707565546 -0.576600432
vn -0.40851298 0.707565606 -0.576600373
vn -0.52517432 0.625878513 -0.576600432
vn -0.52517426 0.625878513 -0.576600432
vn -0.625878274 0.525174677 -0.576600432
vn -0.625878274 0.525174439 -0.576600373
vn -0.707565367 0.408513337 -0.576600492
vn -0.707565367 0.408513427 -0.576600432
vn -0.767753541 0.279439598 -0.576600432
vn -0.767753482 0.279439777 -0.576600373
vn -0.804613769 0.141875416 -0.576600432
vn -0.804613888 0.141875356 -0.576600432
vn -0.814947009 0.0712990314 -0.575132966
vn -0.814947009 0.0712988377 -0.575132966
g Object001_0
f 3/3/3 2/2/2 1/1/1
f 4/4/4 1/1/1 2/2/2
f 1/1/1 4/4/4 5/5/5
f 6/6/6 5/5/5 4/4/4
f 5/5/5 6/6/6 7/7/7
f 8/8/8 7/7/7 6/6/6
f 7/7/7 8/8/8 9/9/9
f 10/10/10 9/9/9 8/8/8
f 9/9/9 10/10/10 11/11/11
f 12/12/12 11/11/11 10/10/10
f 11/11/11 12/12/12 13/13/13
f 14/14/14 13/13/13 12/12/12
f 13/13/13 14/14/14 15/15/15
f 16/16/16 15/15/15 14/14/14
f 15/15/15 16/16/16 17/17/17
f 18/18/18 17/17/17 16/16/16
f 17/17/17 18/18/18 19/19/19
f 20/20/20 19/19/19 18/18/18
f 23/23/23 22/22/22 21/21/21
f 24/24/24 21/21/21 22/22/22
f 21/21/21 24/24/24 25/25/25
f 26/26/26 25/25/25 24/24/24
f 25/25/25 26/26/26 27/27/27
f 28/28/28 27/27/27 26/26/26
f 27/27/27 28/28/28 29/29/29
f 30/30/30 29/29/29 28/28/28
f 29/29/29 30/30/30 31/31/31
f 32/32/32 31/31/31 30/30/30
f 31/31/31 32/32/32 33/33/33
f 34/34/34 33/33/33 32/32/32
f 33/33/33 34/34/34 35/35/35
f 36/36/36 35/35/35 34/34/34
f 35/35/35 36/36/36 37/37/37
f 38/38/38 37/37/37 36/36/36
f 37/37/37 38/38/38 39/39/39
f 40/40/40 39/39/39 38/38/38
