g Object001
v -0.0580306575 0.329108417 0.194599837
v 1.48617909E-08 0.196850389 0
v 2.52302996E-08 0.334185451 0.194599837
v -0.0341826901 0.193859801 0
v -0.114298105 0.314031601 0.194599837
v -0.0673267767 0.184978858 0
v -0.167092666 0.289413124 0.194599837
v -0.0984251648 0.170477465 0
v -0.214810207 0.256000936 0.194599837
v -0.126532957 0.150796175 0
v -0.256000847 0.214810327 0.194599837
v -0.150796115 0.126533031 0
v -0.289413035 0.1670928 0.194599837
v -0.170477405 0.0984252468 0
v -0.314031541 0.114298254 0.194599837
v -0.184978843 0.0673268586 0
v -0.329108387 0.0580308102 0.194599837
v -0.193859786 0.0341827795 0
v -0.334185451 1.30136613E-07 0.194599837
v -0.196850389 7.66563701E-08 0
v -0.329108506 -0.0580305569 0.194599852
v -0.193859816 -0.0341826342 1.21441099E-16
v -0.31403169 -0.114298016 0.194599852
v -0.184978917 -0.0673267171 2.39192522E-16
v -0.289413184 -0.167092606 0.194599852
v -0.170477495 -0.0984251201 3.49676244E-16
v -0.256001055 -0.214810163 0.194599852
v -0.150796235 -0.126532927 4.49535208E-16
v -0.214810371 -0.256000876 0.194599852
v -0.126533061 -0.15079613 5.35735422E-16
v -0.16709283 -0.289413035 0.194599852
v -0.0984252617 -0.17047742 6.05657409E-16
v -0.114298284 -0.314031601 0.194599852
v -0.067326881 -0.184978858 6.57176865E-16
v -0.0580308363 -0.329108417 0.194599852
v -0.0341827981 -0.193859801 6.88728313E-16
v -1.55366934E-07 -0.334185481 0.194599852
v -9.15181744E-08 -0.196850404 6.99353071E-16
vt 0.104980469 0.985839844
vt 0.0502929688 0.0112304688
vt 0.0717773438 0.985839844
vt 0.0747070312 0.0112304688
vt 0.136230469 0.985839844
vt 0.0991210938 0.0112304688
vt 0.165527344 0.985839844
vt 0.123535156 0.0112304688
vt 0.193847656 0.985839844
vt 0.146972656 0.0112304688
vt 0.220214844 0.985839844
vt 0.170410156 0.0112304688
vt 0.245605469 0.985839844
vt 0.193847656 0.0112304688
vt 0.270996094 0.985839844
vt 0.218261719 0.0112304688
vt 0.295410156 0.985839844
vt 0.242675781 0.0112304688
vt 0.319824219 0.985839844
vt 0.268066406 0.0112304688
vt 0.344238281 0.985839844
vt 0.294433594 0.0112304688
vt 0.369628906 0.985839844
vt 0.322753906 0.0112304688
vt 0.395019531 0.985839844
vt 0.354003906 0.0112304688
vt 0.421386719 0.985839844
vt 0.387207031 0.0112304688
vt 0.447753906 0.985839844
vt 0.423339844 0.0112304688
vt 0.474121094 0.985839844
vt 0.461425781 0.0112304688
vt 0.501464844 0.985839844
vt 0.501464844 0.0112304688
vt 0.527832031 0.985839844
vt 0.541503906 0.0112304688
vt 0.555175781 0.985839844
vt 0.579589844 0.0112304688
vn -0.141875073 0.804613888 -0.576600432
vn 2.13532203E-05 0.817026973 -0.57659936
vn 2.10776925E-05 0.817026019 -0.57660079
vn -0.141874999 0.804613769 -0.576600492
vn -0.27943939 0.767753661 -0.576600254
vn -0.279439241 0.767753541 -0.576600611
vn -0.408513129 0.707565606 -0.576600194
vn -0.40851295 0.707565486 -0.576600611
vn -0.525174439 0.625878453 -0.576600313
vn -0.525174379 0.625878453 -0.576600432
vn -0.625878334 0.525174439 -0.576600432
vn -0.625878394 0.525174499 -0.576600373
vn -0.707565248 0.408513397 -0.576600432
vn -0.707565486 0.408513069 -0.576600432
vn -0.767753422 0.279439747 -0.576600492
vn -0.767753541 0.279439807 -0.576600313
vn -0.804613769 0.141875431 -0.576600373
vn -0.804613888 0.141875625 -0.576600313
vn -0.814946115 0.0712864548 -0.575135589
vn -0.814944625 -0.0713142082 -0.575134456
vn -0.804613888 -0.141874522 -0.576600492
vn -0.804613948 -0.141874462 -0.576600432
vn -0.767753661 -0.279439181 -0.576600313
vn -0.76775378 -0.279439002 -0.576600432
vn -0.707565725 -0.408512861 -0.576600373
vn -0.707565665 -0.408512831 -0.576600373
vn -0.625878751 -0.525173903 -0.576600492
vn -0.62587893 -0.525173903 -0.576600373
vn -0.52517432 -0.625878453 -0.576600373
vn -0.525174737 -0.625878036 -0.576600611
vn -0.408513308 -0.707565546 -0.576600254
vn -0.408513457 -0.707565248 -0.576600492
vn -0.279439807 -0.767753482 -0.576600432
vn -0.279439688 -0.767753482 -0.576600432
vn -0.141875401 -0.804613769 -0.576600373
vn -0.141875371 -0.804613769 -0.576600373
vn 2.06440418E-05 -0.817026079 -0.576600611
vn 2.06753593E-05 -0.817026973 -0.576599419
g Object001_0
f 3/3/3 2/2/2 1/1/1
f 4/4/4 1/1/1 2/2/2
f 1/1/1 4/4/4 5/5/5
f 6/6/6 5/5/5 4/4/4
f 5/5/5 6/6/6 7/7/7
f 8/8/8 7/7/7 6/6/6
f 7/7/7 8/8/8 9/9/9
f 10/10/10 9/9/9 8/8/8
f 9/9/9 10/10/10 11/11/11
f 12/12/12 11/11/11 10/10/10
f 11/11/11 12/12/12 13/13/13
f 14/14/14 13/13/13 12/12/12
f 13/13/13 14/14/14 15/15/15
f 16/16/16 15/15/15 14/14/14
f 15/15/15 16/16/16 17/17/17
f 18/18/18 17/17/17 16/16/16
f 17/17/17 18/18/18 19/19/19
f 20/20/20 19/19/19 18/18/18
f 19/19/19 20/20/20 21/21/21
f 22/22/22 21/21/21 20/20/20
f 21/21/21 22/22/22 23/23/23
f 24/24/24 23/23/23 22/22/22
f 23/23/23 24/24/24 25/25/25
f 26/26/26 25/25/25 24/24/24
f 25/25/25 26/26/26 27/27/27
f 28/28/28 27/27/27 26/26/26
f 27/27/27 28/28/28 29/29/29
f 30/30/30 29/29/29 28/28/28
f 29/29/29 30/30/30 31/31/31
f 32/32/32 31/31/31 30/30/30
f 31/31/31 32/32/32 33/33/33
f 34/34/34 33/33/33 32/32/32
f 33/33/33 34/34/34 35/35/35
f 36/36/36 35/35/35 34/34/34
f 35/35/35 36/36/36 37/37/37
f 38/38/38 37/37/37 36/36/36
