g Plane006
v -0.338561893 -0.13962011 -1.62666165E-08
v -0.308288157 -0.130065367 -1.44444767E-08
v -0.398752213 -0.0793975294 1.49205803E-09
v -0.389180899 -0.0491290241 1.98805172E-09
v -0.278766692 -0.119758628 -1.26705038E-08
v -0.378858268 -0.0196129493 2.53218801E-09
v -0.249996945 -0.108699612 -1.09447029E-08
v -0.367783755 0.0091507975 3.12449044E-09
v -0.22334373 -0.0986333713 -9.37355793E-09
v -0.352473438 0.0400938205 3.92852639E-09
v -0.198845804 -0.0909506008 -8.05534128E-09
v -0.332719028 0.0712371692 4.80102846E-09
v -0.175801083 -0.08488217 -6.94444147E-09
v -0.310272545 0.100418769 5.61085134E-09
v -0.154159963 -0.0801860467 -6.02429306E-09
v -0.285183161 0.127397209 6.34147757E-09
v -0.133815467 -0.0766039938 -5.27792299E-09
v -0.257557333 0.151914179 6.97592828E-09
v -0.114598818 -0.0738753825 -4.68899364E-09
v -0.227564394 0.173709109 7.4978761E-09
v -0.0962784216 -0.0717545822 -4.24299662E-09
v -0.195435554 0.192536309 7.89276733E-09
v -0.0785686523 -0.0700272173 -3.92838206E-09
v -0.161457002 0.208181083 8.14911516E-09
v -0.0623027869 -0.0688533559 -3.75756048E-09
v -0.125332654 0.22054255 8.22805735E-09
v -0.0444186069 -0.0675377399 -3.76203646E-09
v -0.0879812539 0.229221612 8.04288458E-09
v -0.0245378427 -0.0660743564 -3.93748945E-09
v -0.0500936471 0.234413013 7.67033725E-09
v -0.00358311459 -0.0646514297 -4.26368407E-09
v -0.011965936 0.236309126 7.18447968E-09
v 0.0175624937 -0.0633443892 -4.71061634E-09
v 0.0260670129 0.234989628 6.64958932E-09
v 0.0380255841 -0.0621397123 -5.24481925E-09
v 0.0636608452 0.230445191 6.12649842E-09
v 0.0569100901 -0.0609282069 -5.83423976E-09
v 0.100492507 0.222570866 5.67744074E-09
v 0.0732680112 -0.0594609529 -6.45415943E-09
v 0.136292845 0.211121842 5.37200862E-09
v 0.0880618691 -0.0578662828 -7.02044423E-09
v 0.172106162 0.195239782 5.15880183E-09
v 0.105024986 -0.0573134571 -7.48101225E-09
v 0.207822189 0.174339265 4.81864904E-09
v 0.122276448 -0.0574122891 -7.98862576E-09
v 0.240145221 0.149410069 4.53727678E-09
v 0.140399963 -0.0586188063 -8.55356408E-09
v 0.268491358 0.120908655 4.32496527E-09
v 0.159836173 -0.0615178533 -9.18496568E-09
v 0.29241994 0.0894195884 4.19088053E-09
v 0.180827528 -0.0667466521 -9.88984539E-09
v 0.311688721 0.0555799901 4.14202717E-09
v 0.203409865 -0.0749085546 -1.06722817E-08
v 0.326262057 0.0199934505 4.18245438E-09
v 0.228389934 -0.0876101032 -1.15523502E-08
v 0.334887415 -0.0144294966 4.34586056E-09
v 0.25594154 -0.102853656 -1.25202426E-08
v 0.339239657 -0.0456146561 4.62318983E-09
v 0.284369469 -0.11749462 -1.3535181E-08
v 0.342715323 -0.0774019137 4.94757657E-09
v 0.313674062 -0.131533295 -1.45971644E-08
v 0.345314294 -0.109791405 5.31899724E-09
vt 0 1
vt 0.0333333351 1
vt 0 0
vt 0.0333333351 0
vt 0.0666666701 1
vt 0.0666666701 0
vt 0.100000009 1
vt 0.100000009 0
vt 0.13333334 1
vt 0.13333334 0
vt 0.166666672 1
vt 0.166666672 0
vt 0.200000003 1
vt 0.200000003 0
vt 0.233333334 1
vt 0.233333334 0
vt 0.266666681 1
vt 0.266666681 0
vt 0.300000012 1
vt 0.300000012 0
vt 0.333333343 1
vt 0.333333343 0
vt 0.366666675 1
vt 0.366666675 0
vt 0.400000006 1
vt 0.400000006 0
vt 0.433333337 1
vt 0.433333337 0
vt 0.466666669 1
vt 0.466666669 0
vt 0.5 1
vt 0.5 0
vt 0.533333361 1
vt 0.533333361 0
vt 0.566666722 1
vt 0.566666722 0
vt 0.600000083 1
vt 0.600000083 0
vt 0.633333445 1
vt 0.633333445 0
vt 0.666666806 1
vt 0.666666806 0
vt 0.700000167 1
vt 0.700000167 0
vt 0.733333528 1
vt 0.733333528 0
vt 0.766666889 1
vt 0.766666889 0
vt 0.80000025 1
vt 0.80000025 0
vt 0.833333611 1
vt 0.833333611 0
vt 0.866666973 1
vt 0.866666973 0
vt 0.900000334 1
vt 0.900000334 0
vt 0.933333695 1
vt 0.933333695 0
vt 0.966667056 1
vt 0.966667056 0
vt 1.00000036 1
vt 1.00000036 0
vn -0 2.69901903E-07 -1
vn -0 0 -1
vn -0 0 -1
vn -0 0 -1
vn -0 0 -1
vn -0 0 -1
vn -0 0 -1
vn -0 0 -1
vn -0 0 -1
vn -0 0 -1
vn -0 0 -1
vn -0 0 -1
vn -0 0 -1
vn -0 0 -1
vn -0 0 -1
vn -0 0 -1
vn -0 0 -1
vn -0 0 -1
vn -0 0 -1
vn -0 0 -1
vn -0 0 -1
vn -0 0 -1
vn -0 0 -1
vn -0 0 -1
vn -0 0 -1
vn -0 0 -1
vn -0 0 -1
vn -0 0 -1
vn -0 0 -1
vn -0 0 -1
vn -0 0 -1
vn -0 0 -1
vn -0 0 -1
vn -0 0 -1
vn -0 0 -1
vn -0 0 -1
vn -0 0 -1
vn -0 0 -1
vn -0 0 -1
vn -0 0 -1
vn -0 0 -1
vn -0 0 -1
vn -0 0 -1
vn -0 0 -1
vn -0 0 -1
vn -0 0 -1
vn -0 0 -1
vn -0 0 -1
vn -0 0 -1
vn -0 0 -1
vn -0 0 -1
vn -0 0 -1
vn -0 0 -1
vn -0 0 -1
vn -0 0 -1
vn -0 0 -1
vn -0 0 -1
vn -0 0 -1
vn -0 0 -1
vn 3.27425852E-07 0 -1
vn -0 0 -1
vn 6.04031641E-07 0 -1
g Plane006_0
f 3/3/3 2/2/2 1/1/1
f 2/2/2 3/3/3 4/4/4
f 4/4/4 5/5/5 2/2/2
f 5/5/5 4/4/4 6/6/6
f 6/6/6 7/7/7 5/5/5
f 7/7/7 6/6/6 8/8/8
f 8/8/8 9/9/9 7/7/7
f 9/9/9 8/8/8 10/10/10
f 10/10/10 11/11/11 9/9/9
f 11/11/11 10/10/10 12/12/12
f 12/12/12 13/13/13 11/11/11
f 13/13/13 12/12/12 14/14/14
f 14/14/14 15/15/15 13/13/13
f 15/15/15 14/14/14 16/16/16
f 16/16/16 17/17/17 15/15/15
f 17/17/17 16/16/16 18/18/18
f 18/18/18 19/19/19 17/17/17
f 19/19/19 18/18/18 20/20/20
f 20/20/20 21/21/21 19/19/19
f 21/21/21 20/20/20 22/22/22
f 22/22/22 23/23/23 21/21/21
f 23/23/23 22/22/22 24/24/24
f 24/24/24 25/25/25 23/23/23
f 25/25/25 24/24/24 26/26/26
f 26/26/26 27/27/27 25/25/25
f 27/27/27 26/26/26 28/28/28
f 28/28/28 29/29/29 27/27/27
f 29/29/29 28/28/28 30/30/30
f 30/30/30 31/31/31 29/29/29
f 31/31/31 30/30/30 32/32/32
f 32/32/32 33/33/33 31/31/31
f 33/33/33 32/32/32 34/34/34
f 34/34/34 35/35/35 33/33/33
f 35/35/35 34/34/34 36/36/36
f 36/36/36 37/37/37 35/35/35
f 37/37/37 36/36/36 38/38/38
f 38/38/38 39/39/39 37/37/37
f 39/39/39 38/38/38 40/40/40
f 40/40/40 41/41/41 39/39/39
f 41/41/41 40/40/40 42/42/42
f 42/42/42 43/43/43 41/41/41
f 43/43/43 42/42/42 44/44/44
f 44/44/44 45/45/45 43/43/43
f 45/45/45 44/44/44 46/46/46
f 46/46/46 47/47/47 45/45/45
f 47/47/47 46/46/46 48/48/48
f 48/48/48 49/49/49 47/47/47
f 49/49/49 48/48/48 50/50/50
f 50/50/50 51/51/51 49/49/49
f 51/51/51 50/50/50 52/52/52
f 52/52/52 53/53/53 51/51/51
f 53/53/53 52/52/52 54/54/54
f 54/54/54 55/55/55 53/53/53
f 55/55/55 54/54/54 56/56/56
f 56/56/56 57/57/57 55/55/55
f 57/57/57 56/56/56 58/58/58
f 58/58/58 59/59/59 57/57/57
f 59/59/59 58/58/58 60/60/60
f 60/60/60 61/61/61 59/59/59
f 61/61/61 60/60/60 62/62/62
