g Sphere002
v -4.51113173E-08 1.03202665 1.0340904
v -0.20133841 1.01219654 1.0340904
v -0.394939452 0.953468323 1.0340904
v -4.42445156E-08 1.01219654 0.832752049
v -0.197469756 0.992747426 0.832752049
v -0.387350827 0.935147643 0.832752049
v -4.16774242E-08 0.953468323 0.639150977
v -0.729753017 0.729753017 1.0340904
v -0.573363185 0.858098745 1.0340904
v -0.186012447 0.935147643 0.639150977
v -0.364876509 0.880889893 0.639150977
v -0.715731025 0.715731025 0.832752049
v -3.75086877E-08 0.858098745 0.460727155
v -0.56234622 0.84161073 0.832752049
v -0.858098745 0.573363185 1.0340904
v -0.84161073 0.56234622 0.832752049
v -0.674203873 0.674203873 0.639150977
v -0.953468323 0.394939333 1.0340904
v -0.328380138 0.792779922 0.460727155
v -0.167406768 0.84161061 0.460727155
v -3.18985194E-08 0.729753017 0.304337323
v -0.529718578 0.792779982 0.639150977
v -0.935147762 0.387350708 0.832752049
v -1.01219654 0.201338172 1.0340904
v -0.792779982 0.529718578 0.639150977
v -0.606767476 0.606767476 0.460727155
v -0.476734072 0.713483095 0.460727155
v -0.14236775 0.715731025 0.304337323
v -0.279264361 0.674203873 0.304337323
v -0.111857608 0.56234622 0.17599158
v -2.50624996E-08 0.573363185 0.17599158
v -0.219416574 0.529718518 0.17599158
v -0.151136726 0.36487636 0.0806220174
v -0.0770488456 0.387350678 0.0806220174
v -1.72633463E-08 0.394939333 0.0806220174
v -0.0392791294 0.197469503 0.0218938179
v -8.80077078E-09 0.201338172 0.0218938179
v -0.0770487711 0.186012208 0.0218938179
v -0 0 0.0020637305
v -8.80077078E-09 0.201338172 0.0218938179
v -0.111857489 0.167406574 0.0218938179
v -0.318543524 0.476734132 0.17599158
v -0.279264271 0.279264271 0.0806220174
v -0.405429006 0.405429006 0.17599158
v -0.219416529 0.328380078 0.0806220174
v -0.405429035 0.606767535 0.304337323
v -0.142367586 0.142367586 0.0218938179
v -0 0 0.0020637305
v -0.0770487711 0.186012208 0.0218938179
v -0.167406574 0.111857489 0.0218938179
v -0.516013324 0.516013324 0.304337323
v -0.713483095 0.476734072 0.460727155
v -0.880890012 0.36487639 0.639150977
v -0.992747545 0.197469503 0.832752049
v -1.01219654 -3.29815492E-07 0.832752049
v -1.03202665 -3.36276969E-07 1.0340904
v -0.992747366 -0.197470158 0.832752049
v -1.01219642 -0.201338828 1.0340904
v -0.935147464 -0.387351304 0.832752049
v -0.953468025 -0.394939929 1.0340904
v -0.841610372 -0.562346756 0.832752049
v -0.858098507 -0.573363781 1.0340904
v -0.715730548 -0.715731502 0.832752049
v -0.7297526 -0.729753494 1.0340904
v -0.394938737 -0.953468621 1.0340904
v -0.573362648 -0.858099163 1.0340904
v -0.935147762 0.186012208 0.639150977
v -0.953468323 -3.1067944E-07 0.639150977
v -0.935147643 -0.186012834 0.639150977
v -0.880889714 -0.364876956 0.639150977
v -0.792779624 -0.529719114 0.639150977
v -0.674203515 -0.674204409 0.639150977
v -0.387350082 -0.93514806 0.832752049
v -0.562345684 -0.841611028 0.832752049
v -0.792779982 0.328380048 0.460727155
v 9.96524022E-07 -1.03202665 1.0340904
v -0.201337516 -1.01219666 1.0340904
v -0.197468877 -0.992747605 0.832752049
v 9.77376089E-07 -1.01219654 0.832752049
v -0.364875823 -0.880890191 0.639150977
v -0.529718041 -0.79278034 0.639150977
v -0.186011627 -0.935147822 0.639150977
v 9.20668185E-07 -0.953468323 0.639150977
v -0.328379542 -0.792780161 0.460727155
v -0.167406023 -0.84161073 0.460727155
v 8.28579459E-07 -0.858098745 0.460727155
v -0.606767058 -0.606767833 0.460727155
v -0.516013026 -0.516013622 0.304337323
v -0.476733625 -0.713483393 0.460727155
v -0.713482797 -0.476734549 0.460727155
v -0.792779684 -0.328380555 0.460727155
v -0.606767237 -0.405429423 0.304337323
v -0.674203753 -0.279264718 0.304337323
v -0.841610551 -0.16740711 0.460727155
v -0.529718399 -0.219416857 0.17599158
v -0.476733893 -0.318543792 0.17599158
v -0.405428767 -0.405429274 0.17599158
v -0.3648763 -0.151136905 0.0806220174
v -0.387350649 -0.0770490021 0.0806220174
v -0.394939333 -1.28687574E-07 0.0806220174
v -0.573363185 -1.86825446E-07 0.17599158
v -0.858098745 -2.7960408E-07 0.460727155
v -0.56234616 -0.111857839 0.17599158
v -0.715730965 -0.142368048 0.304337323
v -0.729753017 -2.37783738E-07 0.304337323
v -0.674203932 0.279264271 0.304337323
v -0.84161061 0.167406574 0.460727155
v -0.715731084 0.142367586 0.304337323
v -0.529718578 0.219416499 0.17599158
v -0.56234622 0.111857474 0.17599158
v -0.606767535 0.405429035 0.304337323
v -0.476734132 0.318543524 0.17599158
v -0.36487639 0.151136681 0.0806220174
v -0.328380078 0.219416529 0.0806220174
v -0.387350708 0.0770487487 0.0806220174
v -0.186012223 0.0770487487 0.0218938179
v -0 0 0.0020637305
v -0.142367586 0.142367586 0.0218938179
v -0.201338172 -6.56043042E-08 0.0218938179
v -0.197469518 0.0392790809 0.0218938179
v -0 0 0.0020637305
v -0.201338172 -6.56043042E-08 0.0218938179
v -0.197469503 -0.0392792076 0.0218938179
v -0 0 0.0020637305
v -0.186012164 -0.0770488679 0.0218938179
v -0.186012164 -0.0770488679 0.0218938179
v -0.279264092 -0.27926448 0.0806220174
v -0.328379929 -0.219416738 0.0806220174
v -0.167406514 -0.111857601 0.0218938179
v -0 0 0.0020637305
v -0.142367497 -0.142367676 0.0218938179
v -0.142367497 -0.142367676 0.0218938179
v -0.151136443 -0.364876479 0.0806220174
v -0.111857377 -0.167406648 0.0218938179
v -0.318543196 -0.47673431 0.17599158
v -0.219416305 -0.328380227 0.0806220174
v -0.405428648 -0.606767774 0.304337323
v -0.279263824 -0.674204111 0.304337323
v -0.219416156 -0.529718697 0.17599158
v -0.142367125 -0.715731144 0.304337323
v 7.04648926E-07 -0.729753017 0.304337323
v 5.5363904E-07 -0.573363185 0.17599158
v -0.111857109 -0.56234628 0.17599158
v 3.8135309E-07 -0.394939333 0.0806220174
v -0.0770485029 -0.387350738 0.0806220174
v 1.94411967E-07 -0.201338172 0.0218938179
v -0.0392789543 -0.197469547 0.0218938179
v -0.0770486295 -0.186012268 0.0218938179
v -0 0 0.0020637305
v 1.94411967E-07 -0.201338172 0.0218938179
v -0 0 0.0020637305
v -0.142367497 -0.142367676 0.0218938179
vt 0 1.00151455
vt 0.0623769946 1.00151455
vt 0.124753989 1.00151455
vt 0 0.876325369
vt 0.0623769946 0.876325369
vt 0.124753989 0.876325369
vt 0 0.751136124
vt 0.249507979 1.00151455
vt 0.187130988 1.00151455
vt 0.0623769946 0.751136124
vt 0.124753989 0.751136124
vt 0.249507979 0.876325369
vt 0 0.62594682
vt 0.187130988 0.876325369
vt 0.311884969 1.00151455
vt 0.311884969 0.876325369
vt 0.249507979 0.751136124
vt 0.374261975 1.00151455
vt 0.124753989 0.62594682
vt 0.0623769946 0.62594682
vt 0 0.500757396
vt 0.187130988 0.751136124
vt 0.374261975 0.876325369
vt 0.436638921 1.00151455
vt 0.311884969 0.751136124
vt 0.249507979 0.62594682
vt 0.187130988 0.62594682
vt 0.0623769946 0.500757396
vt 0.124753989 0.500757396
vt 0.0623769946 0.375568062
vt 0 0.375568062
vt 0.124753989 0.375568062
vt 0.124753989 0.250378788
vt 0.0623769946 0.250378788
vt 0 0.250378788
vt 0.0623769946 0.125189379
vt 0 0.125189379
vt 0.124753989 0.125189379
vt 0.0623769946 -2.55661803E-08
vt 1.16334922E-05 0.120425098
vt 0.187130988 0.125189379
vt 0.187130988 0.375568062
vt 0.249507979 0.250378788
vt 0.249507979 0.375568062
vt 0.187130988 0.250378788
vt 0.187130988 0.500757396
vt 0.249507979 0.125189379
vt 0.187130988 -2.55661803E-08
vt 0.124765649 0.120425083
vt 0.311884969 0.125189379
vt 0.249507979 0.500757396
vt 0.311884969 0.62594682
vt 0.374261975 0.751136124
vt 0.436638921 0.876325369
vt 0.499015927 0.876325369
vt 0.499015927 1.00151455
vt 0.561392903 0.876325369
vt 0.561392903 1.00151455
vt 0.623769879 0.876325369
vt 0.623769879 1.00151455
vt 0.686146855 0.876325369
vt 0.686146855 1.00151455
vt 0.748523951 0.876325369
vt 0.748523951 1.00151455
vt 0.873277903 1.00151455
vt 0.810900927 1.00151455
vt 0.436638921 0.751136124
vt 0.499015927 0.751136124
vt 0.561392903 0.751136124
vt 0.623769879 0.751136124
vt 0.686146855 0.751136124
vt 0.748523951 0.751136124
vt 0.873277903 0.876325369
vt 0.810900927 0.876325369
vt 0.374261975 0.62594682
vt 0.998032033 1.00151455
vt 0.935654998 1.00151455
vt 0.935654998 0.876325369
vt 0.998032033 0.876325369
vt 0.873277903 0.751136124
vt 0.810900927 0.751136124
vt 0.935654998 0.751136124
vt 0.998032033 0.751136124
vt 0.873277903 0.62594682
vt 0.935654998 0.62594682
vt 0.998032033 0.62594682
vt 0.748523951 0.62594682
vt 0.748523951 0.500757396
vt 0.810900927 0.62594682
vt 0.686146855 0.62594682
vt 0.623769879 0.62594682
vt 0.686146855 0.500757396
vt 0.623769879 0.500757396
vt 0.561392903 0.62594682
vt 0.623769879 0.375568062
vt 0.686146855 0.375568062
vt 0.748523951 0.375568062
vt 0.623769879 0.250378788
vt 0.561392903 0.250378788
vt 0.499015927 0.250378788
vt 0.499015927 0.375568062
vt 0.499015927 0.62594682
vt 0.561392903 0.375568062
vt 0.561392903 0.500757396
vt 0.499015927 0.500757396
vt 0.374261975 0.500757396
vt 0.436638921 0.62594682
vt 0.436638921 0.500757396
vt 0.374261975 0.375568062
vt 0.436638921 0.375568062
vt 0.311884969 0.500757396
vt 0.311884969 0.375568062
vt 0.374261975 0.250378788
vt 0.311884969 0.250378788
vt 0.436638921 0.250378788
vt 0.374261975 0.125189379
vt 0.311884969 -2.55661803E-08
vt 0.249519631 0.120425075
vt 0.499015927 0.125189379
vt 0.436638921 0.125189379
vt 0.374261975 -2.55661803E-08
vt 0.49663049 0.120425098
vt 0.561392903 0.125189379
vt 0.499015927 -2.55661803E-08
vt 0.621384501 0.12042509
vt 0.623769879 0.125189379
vt 0.748523951 0.250378788
vt 0.686146855 0.250378788
vt 0.686146855 0.125189379
vt 0.623769879 -2.55661803E-08
vt 0.746138275 0.120425045
vt 0.748523951 0.125189379
vt 0.873277903 0.250378788
vt 0.810900927 0.125189379
vt 0.810900927 0.375568062
vt 0.810900927 0.250378788
vt 0.810900927 0.500757396
vt 0.873277903 0.500757396
vt 0.873277903 0.375568062
vt 0.935654998 0.500757396
vt 0.998032033 0.500757396
vt 0.998032033 0.375568062
vt 0.935654998 0.375568062
vt 0.998032033 0.250378788
vt 0.935654998 0.250378788
vt 0.998032033 0.125189379
vt 0.935654998 0.125189379
vt 0.873277903 0.125189379
vt 0.873277903 -2.55661803E-08
vt 0.995646596 0.120425098
vt 0.810900927 -2.55661803E-08
vt 0.748535573 0.120425083
vn -0.19415088 0.976062477 -0.0980172753
vn -0.194150865 0.976062477 -0.0980172679
vn -0.380768418 0.919256091 -0.0999184176
vn -0.191387266 0.962168813 -0.193912685
vn -0.191341698 0.961939752 -0.195090294
vn -0.375140727 0.905669689 -0.197564662
vn -0.180415243 0.907008708 -0.380507022
vn -0.703568161 0.703568161 -0.0999182165
vn -0.552895069 0.827465832 -0.0980169922
vn -0.180239931 0.906127453 -0.382683396
vn -0.352887928 0.851946712 -0.386855096
vn -0.693169594 0.693169653 -0.197564602
vn -0.162581056 0.817350507 -0.552725673
vn -0.544895232 0.815493107 -0.19509016
vn -0.827465951 0.55289501 -0.0980168954
vn -0.815493166 0.544895172 -0.195090175
vn -0.652051806 0.652051866 -0.386855125
vn -0.91925621 0.38076818 -0.0999181867
vn -0.317004144 0.765315771 -0.560178697
vn -0.162211612 0.815493226 -0.555570126
vn -0.138548061 0.696528256 -0.704026222
vn -0.513279974 0.768177688 -0.382683426
vn -0.905669808 0.375140578 -0.197564572
vn -0.976062596 0.194150627 -0.0980169252
vn -0.768177688 0.513280034 -0.382683426
vn -0.585747302 0.585747242 -0.560178697
vn -0.461939812 0.691341758 -0.555570185
vn -0.13794966 0.69351995 -0.70710665
vn -0.269145519 0.649774849 -0.710882127
vn -0.108386375 0.544894934 -0.831469715
vn -0.109213613 0.549053848 -0.828620732
vn -0.211378202 0.51031208 -0.833607137
vn -0.146015733 0.352513164 -0.924345076
vn -0.0746578127 0.37533012 -0.923879504
vn -0.0756788701 0.380463332 -0.921694279
vn -0.0380602144 0.191341579 -0.98078537
vn -0.0392104387 0.197124183 -0.979594111
vn -0.0754942149 0.182259127 -0.980347931
vn -0.062981002 0 -0.998014688
vn -0.0392104387 0.197124183 -0.979594111
vn -0.108386308 0.162211552 -0.98078537
vn -0.308658242 0.461939692 -0.831469715
vn -0.269801915 0.269801885 -0.924345076
vn -0.390575975 0.390575975 -0.833607137
vn -0.212607458 0.318189532 -0.923879623
vn -0.392847478 0.587937713 -0.707106769
vn -0.139495105 0.13949509 -0.980347931
vn -0.062981002 0 -0.998014688
vn -0.0754942149 0.182259127 -0.980347931
vn -0.162211537 0.108386286 -0.98078537
vn -0.497316122 0.497316033 -0.710882127
vn -0.691341698 0.461939871 -0.555570185
vn -0.851946771 0.352887809 -0.386855185
vn -0.961939871 0.19134143 -0.19509016
vn -0.980289876 -3.66390623E-07 -0.197564587
vn -0.994995594 -3.69736114E-07 -0.0999183357
vn -0.961939752 -0.19134216 -0.195090175
vn -0.976062477 -0.194151372 -0.098017171
vn -0.90566951 -0.375141174 -0.197564647
vn -0.919255912 -0.380768776 -0.0999184325
vn -0.815492868 -0.544895589 -0.195090219
vn -0.827465594 -0.552895427 -0.0980171561
vn -0.693169236 -0.693170011 -0.197564662
vn -0.703567743 -0.703568578 -0.0999184325
vn -0.380767643 -0.919256508 -0.0999183208
vn -0.552894473 -0.827466249 -0.0980171636
vn -0.906127512 0.180239588 -0.382683396
vn -0.922140479 -3.849824E-07 -0.386855096
vn -0.906127453 -0.180240378 -0.382683396
vn -0.851946592 -0.352888227 -0.386855096
vn -0.768177509 -0.513280392 -0.382683396
vn -0.652051449 -0.652052164 -0.386855125
vn -0.375139952 -0.905670106 -0.197564617
vn -0.544894576 -0.815493584 -0.19509019
vn -0.765315771 0.317004025 -0.560178757
vn -0.194149926 -0.976062715 -0.0980169103
vn -0.194149926 -0.976062715 -0.0980169028
vn -0.191340759 -0.96194005 -0.19509016
vn -0.191386297 -0.962168992 -0.193912536
vn -0.352887183 -0.851947069 -0.386855125
vn -0.513279498 -0.768178105 -0.382683367
vn -0.180239081 -0.906127632 -0.382683486
vn -0.180414334 -0.907008827 -0.380507052
vn -0.317003489 -0.76531601 -0.560178697
vn -0.162210867 -0.815493345 -0.555570126
vn -0.162580311 -0.817350566 -0.552725673
vn -0.585746944 -0.5857476 -0.560178757
vn -0.497315764 -0.49731639 -0.710882187
vn -0.461939335 -0.691342056 -0.555570245
vn -0.691341519 -0.46194002 -0.555570185
vn -0.765315592 -0.317004532 -0.560178757
vn -0.587937593 -0.392847687 -0.707106769
vn -0.649774671 -0.269145846 -0.710882127
vn -0.815492988 -0.162212074 -0.555570304
vn -0.510312021 -0.2113785 -0.833607137
vn -0.461939543 -0.308658481 -0.831469715
vn -0.390575796 -0.390576273 -0.833607078
vn -0.352513134 -0.146015882 -0.924345076
vn -0.37533012 -0.0746579915 -0.923879623
vn -0.381557554 0 -0.924345076
vn -0.552357852 0 -0.833607078
vn -0.828371704 -3.56850137E-07 -0.560178757
vn -0.544894993 -0.108386658 -0.831469715
vn -0.69351989 -0.137950033 -0.707106769
vn -0.703311145 -2.87590865E-07 -0.710882127
vn -0.649774849 0.269145429 -0.710882127
vn -0.815493345 0.162211373 -0.555570185
vn -0.69352001 0.137949437 -0.70710665
vn -0.51031214 0.211378127 -0.833607137
vn -0.544895053 0.108386181 -0.831469595
vn -0.587937772 0.392847449 -0.707106769
vn -0.461939722 0.308658212 -0.831469595
vn -0.352513164 0.146015689 -0.924345076
vn -0.318189532 0.212607414 -0.923879623
vn -0.37533021 0.074657701 -0.923879623
vn -0.182259127 0.0754941776 -0.980347931
vn -0.062981002 0 -0.998014688
vn -0.139495105 0.13949509 -0.980347931
vn -0.197275832 0 -0.980347931
vn -0.191341579 0.0380601585 -0.98078537
vn -0.062981002 0 -0.998014688
vn -0.197275832 0 -0.980347931
vn -0.191341579 -0.0380602926 -0.98078537
vn -0.062981002 0 -0.998014688
vn -0.182259083 -0.0754942745 -0.980347931
vn -0.182259083 -0.0754942745 -0.980347931
vn -0.269801736 -0.269802034 -0.924345076
vn -0.318189442 -0.212607607 -0.923879623
vn -0.162211508 -0.108386368 -0.98078537
vn -0.062981002 0 -0.998014688
vn -0.139495015 -0.139495194 -0.980347931
vn -0.139495015 -0.139495194 -0.980347931
vn -0.146015435 -0.352513343 -0.924345076
vn -0.108386174 -0.162211627 -0.98078537
vn -0.308657944 -0.461939931 -0.831469715
vn -0.21260722 -0.318189681 -0.923879623
vn -0.392847061 -0.58793813 -0.707106769
vn -0.269144982 -0.649775088 -0.710882068
vn -0.21137777 -0.510312378 -0.833607078
vn -0.13794902 -0.693520069 -0.707106709
vn -0.138547421 -0.696528494 -0.704026163
vn -0.109213069 -0.549054027 -0.828620613
vn -0.108385824 -0.544895172 -0.831469595
vn -0.0756785125 -0.380463451 -0.921694279
vn -0.07465747 -0.375330269 -0.923879504
vn -0.0392102599 -0.197124243 -0.979594111
vn -0.0380600356 -0.191341639 -0.98078537
vn -0.0754940584 -0.182259217 -0.980347931
vn -0.062981002 0 -0.998014688
vn -0.0392102599 -0.197124243 -0.979594111
vn -0.062981002 0 -0.998014688
vn -0.139495015 -0.139495194 -0.980347931
g Sphere002_0
f 3/3/3 2/2/2 1/1/1
f 3/3/3 1/1/1 4/4/4
f 3/3/3 4/4/4 5/5/5
f 6/6/6 5/5/5 4/4/4
f 5/5/5 6/6/6 3/3/3
f 6/6/6 4/4/4 7/7/7
f 8/8/8 3/3/3 6/6/6
f 8/8/8 9/9/9 3/3/3
f 6/6/6 7/7/7 10/10/10
f 11/11/11 10/10/10 7/7/7
f 10/10/10 11/11/11 6/6/6
f 12/12/12 6/6/6 11/11/11
f 11/11/11 7/7/7 13/13/13
f 8/8/8 6/6/6 14/14/14
f 12/12/12 14/14/14 6/6/6
f 14/14/14 12/12/12 8/8/8
f 15/15/15 8/8/8 12/12/12
f 15/15/15 12/12/12 16/16/16
f 16/16/16 12/12/12 17/17/17
f 18/18/18 15/15/15 16/16/16
f 17/17/17 11/11/11 19/19/19
f 19/19/19 20/20/20 13/13/13
f 11/11/11 13/13/13 20/20/20
f 20/20/20 19/19/19 11/11/11
f 19/19/19 13/13/13 21/21/21
f 12/12/12 11/11/11 22/22/22
f 22/22/22 17/17/17 12/12/12
f 17/17/17 22/22/22 11/11/11
f 16/16/16 23/23/23 18/18/18
f 24/24/24 18/18/18 23/23/23
f 16/16/16 17/17/17 25/25/25
f 23/23/23 16/16/16 25/25/25
f 25/25/25 17/17/17 26/26/26
f 17/17/17 19/19/19 27/27/27
f 27/27/27 26/26/26 17/17/17
f 26/26/26 27/27/27 19/19/19
f 19/19/19 21/21/21 28/28/28
f 26/26/26 19/19/19 29/29/29
f 28/28/28 29/29/29 19/19/19
f 30/30/30 28/28/28 21/21/21
f 21/21/21 31/31/31 30/30/30
f 32/32/32 29/29/29 28/28/28
f 30/30/30 32/32/32 28/28/28
f 33/33/33 32/32/32 30/30/30
f 34/34/34 30/30/30 31/31/31
f 34/34/34 33/33/33 30/30/30
f 31/31/31 35/35/35 34/34/34
f 36/36/36 34/34/34 35/35/35
f 35/35/35 37/37/37 36/36/36
f 36/36/36 38/38/38 34/34/34
f 38/38/38 33/33/33 34/34/34
f 38/38/38 36/36/36 39/39/39
f 36/36/36 40/40/40 39/39/39
f 33/33/33 38/38/38 41/41/41
f 29/29/29 32/32/32 42/42/42
f 43/43/43 42/42/42 32/32/32
f 43/43/43 44/44/44 42/42/42
f 45/45/45 43/43/43 32/32/32
f 32/32/32 33/33/33 45/45/45
f 43/43/43 45/45/45 33/33/33
f 42/42/42 46/46/46 29/29/29
f 42/42/42 44/44/44 46/46/46
f 26/26/26 29/29/29 46/46/46
f 41/41/41 47/47/47 33/33/33
f 47/47/47 43/43/43 33/33/33
f 47/47/47 41/41/41 48/48/48
f 41/41/41 49/49/49 48/48/48
f 43/43/43 47/47/47 50/50/50
f 46/46/46 51/51/51 26/26/26
f 44/44/44 51/51/51 46/46/46
f 52/52/52 26/26/26 51/51/51
f 25/25/25 26/26/26 52/52/52
f 53/53/53 25/25/25 52/52/52
f 25/25/25 53/53/53 23/23/23
f 54/54/54 23/23/23 53/53/53
f 24/24/24 23/23/23 54/54/54
f 24/24/24 54/54/54 55/55/55
f 55/55/55 56/56/56 24/24/24
f 56/56/56 55/55/55 57/57/57
f 58/58/58 56/56/56 57/57/57
f 58/58/58 57/57/57 59/59/59
f 59/59/59 60/60/60 58/58/58
f 60/60/60 59/59/59 61/61/61
f 62/62/62 60/60/60 61/61/61
f 62/62/62 61/61/61 63/63/63
f 63/63/63 64/64/64 62/62/62
f 65/65/65 64/64/64 63/63/63
f 65/65/65 66/66/66 64/64/64
f 54/54/54 53/53/53 67/67/67
f 68/68/68 55/55/55 54/54/54
f 54/54/54 67/67/67 68/68/68
f 57/57/57 55/55/55 69/69/69
f 55/55/55 68/68/68 69/69/69
f 70/70/70 59/59/59 57/57/57
f 57/57/57 69/69/69 70/70/70
f 61/61/61 59/59/59 71/71/71
f 59/59/59 70/70/70 71/71/71
f 72/72/72 63/63/63 61/61/61
f 61/61/61 71/71/71 72/72/72
f 73/73/73 63/63/63 72/72/72
f 73/73/73 74/74/74 63/63/63
f 65/65/65 63/63/63 74/74/74
f 74/74/74 73/73/73 65/65/65
f 67/67/67 53/53/53 75/75/75
f 52/52/52 75/75/75 53/53/53
f 76/76/76 65/65/65 73/73/73
f 76/76/76 77/77/77 65/65/65
f 76/76/76 73/73/73 78/78/78
f 78/78/78 79/79/79 76/76/76
f 79/79/79 78/78/78 73/73/73
f 79/79/79 73/73/73 80/80/80
f 81/81/81 80/80/80 73/73/73
f 73/73/73 72/72/72 81/81/81
f 80/80/80 81/81/81 72/72/72
f 79/79/79 80/80/80 82/82/82
f 82/82/82 83/83/83 79/79/79
f 83/83/83 82/82/82 80/80/80
f 83/83/83 80/80/80 84/84/84
f 83/83/83 84/84/84 85/85/85
f 85/85/85 86/86/86 83/83/83
f 86/86/86 85/85/85 84/84/84
f 80/80/80 72/72/72 87/87/87
f 84/84/84 87/87/87 88/88/88
f 87/87/87 72/72/72 71/71/71
f 89/89/89 84/84/84 80/80/80
f 80/80/80 87/87/87 89/89/89
f 84/84/84 89/89/89 87/87/87
f 71/71/71 90/90/90 87/87/87
f 88/88/88 87/87/87 90/90/90
f 71/71/71 70/70/70 90/90/90
f 70/70/70 91/91/91 90/90/90
f 91/91/91 70/70/70 69/69/69
f 90/90/90 92/92/92 88/88/88
f 90/90/90 91/91/91 92/92/92
f 91/91/91 93/93/93 92/92/92
f 69/69/69 94/94/94 91/91/91
f 93/93/93 91/91/91 94/94/94
f 69/69/69 68/68/68 94/94/94
f 88/88/88 92/92/92 95/95/95
f 92/92/92 93/93/93 95/95/95
f 88/88/88 95/95/95 96/96/96
f 96/96/96 97/97/97 88/88/88
f 97/97/97 96/96/96 95/95/95
f 97/97/97 95/95/95 98/98/98
f 99/99/99 98/98/98 95/95/95
f 95/95/95 100/100/100 99/99/99
f 98/98/98 99/99/99 100/100/100
f 95/95/95 101/101/101 100/100/100
f 68/68/68 102/102/102 94/94/94
f 102/102/102 68/68/68 67/67/67
f 103/103/103 95/95/95 93/93/93
f 95/95/95 103/103/103 101/101/101
f 93/93/93 101/101/101 103/103/103
f 94/94/94 104/104/104 93/93/93
f 94/94/94 102/102/102 104/104/104
f 93/93/93 104/104/104 105/105/105
f 102/102/102 105/105/105 104/104/104
f 93/93/93 105/105/105 101/101/101
f 101/101/101 105/105/105 106/106/106
f 67/67/67 107/107/107 102/102/102
f 105/105/105 102/102/102 107/107/107
f 67/67/67 75/75/75 107/107/107
f 107/107/107 75/75/75 106/106/106
f 107/107/107 108/108/108 105/105/105
f 107/107/107 106/106/106 108/108/108
f 105/105/105 108/108/108 106/106/106
f 100/100/100 101/101/101 109/109/109
f 101/101/101 110/110/110 109/109/109
f 106/106/106 109/109/109 110/110/110
f 110/110/110 101/101/101 106/106/106
f 111/111/111 106/106/106 75/75/75
f 109/109/109 106/106/106 111/111/111
f 75/75/75 52/52/52 111/111/111
f 52/52/52 51/51/51 111/111/111
f 109/109/109 111/111/111 51/51/51
f 112/112/112 109/109/109 51/51/51
f 51/51/51 44/44/44 112/112/112
f 109/109/109 112/112/112 44/44/44
f 113/113/113 109/109/109 44/44/44
f 114/114/114 113/113/113 44/44/44
f 44/44/44 43/43/43 114/114/114
f 113/113/113 114/114/114 43/43/43
f 115/115/115 100/100/100 109/109/109
f 109/109/109 113/113/113 115/115/115
f 100/100/100 115/115/115 113/113/113
f 116/116/116 113/113/113 43/43/43
f 50/50/50 116/116/116 43/43/43
f 116/116/116 50/50/50 117/117/117
f 50/50/50 118/118/118 117/117/117
f 119/119/119 100/100/100 113/113/113
f 98/98/98 100/100/100 119/119/119
f 113/113/113 116/116/116 120/120/120
f 120/120/120 119/119/119 113/113/113
f 120/120/120 116/116/116 121/121/121
f 122/122/122 120/120/120 121/121/121
f 98/98/98 119/119/119 123/123/123
f 123/123/123 119/119/119 124/124/124
f 125/125/125 123/123/123 124/124/124
f 123/123/123 126/126/126 98/98/98
f 127/127/127 98/98/98 126/126/126
f 127/127/127 128/128/128 98/98/98
f 97/97/97 98/98/98 128/128/128
f 128/128/128 127/127/127 97/97/97
f 127/127/127 126/126/126 129/129/129
f 129/129/129 126/126/126 130/130/130
f 131/131/131 129/129/129 130/130/130
f 129/129/129 132/132/132 127/127/127
f 133/133/133 127/127/127 132/132/132
f 133/133/133 132/132/132 134/134/134
f 135/135/135 97/97/97 127/127/127
f 133/133/133 136/136/136 127/127/127
f 135/135/135 127/127/127 136/136/136
f 137/137/137 97/97/97 135/135/135
f 137/137/137 88/88/88 97/97/97
f 84/84/84 88/88/88 137/137/137
f 137/137/137 138/138/138 84/84/84
f 138/138/138 137/137/137 135/135/135
f 86/86/86 84/84/84 138/138/138
f 139/139/139 135/135/135 136/136/136
f 135/135/135 139/139/139 138/138/138
f 136/136/136 133/133/133 139/139/139
f 86/86/86 138/138/138 140/140/140
f 140/140/140 138/138/138 139/139/139
f 140/140/140 141/141/141 86/86/86
f 142/142/142 141/141/141 140/140/140
f 140/140/140 139/139/139 143/143/143
f 140/140/140 143/143/143 142/142/142
f 143/143/143 139/139/139 133/133/133
f 144/144/144 142/142/142 143/143/143
f 143/143/143 145/145/145 144/144/144
f 143/143/143 133/133/133 145/145/145
f 146/146/146 144/144/144 145/145/145
f 145/145/145 147/147/147 146/146/146
f 145/145/145 133/133/133 148/148/148
f 145/145/145 148/148/148 147/147/147
f 134/134/134 148/148/148 133/133/133
f 147/147/147 148/148/148 149/149/149
f 150/150/150 147/147/147 149/149/149
f 148/148/148 134/134/134 151/151/151
f 134/134/134 152/152/152 151/151/151
