g Box001
v 0.0500000007 -0.0500000007 0.0075000003
v 0.0500000007 -0.0500000007 0
v 0.0250000004 -0.0500000007 0
v 0.0250000004 -0.0500000007 0.0075000003
v 0.0500000007 -0.0500000007 0.0150000006
v -0 -0.0500000007 0
v 0.0250000004 -0.0500000007 0.0150000006
v 0.0500000007 -0.0500000007 0.0225000009
v -0 -0.0500000007 0.0075000003
v -0.0250000004 -0.0500000007 0
v 0.0250000004 -0.0500000007 0.0225000009
v 0.0500000007 -0.0500000007 0.0300000012
v 0.0250000004 -0.0500000007 0.0300000012
v -0.0250000004 -0.0500000007 0.0075000003
v -0.0500000007 -0.0500000007 0
v -0.0500000007 -0.0500000007 0.0075000003
v -0 -0.0500000007 0.0150000006
v -0 -0.0500000007 0.0225000009
v -0 -0.0500000007 0.0300000012
v -0.0250000004 -0.0500000007 0.0150000006
v -0.0500000007 -0.0500000007 0.0150000006
v -0.0250000004 -0.0500000007 0.0225000009
v -0.0250000004 -0.0500000007 0.0300000012
v -0.0500000007 -0.0500000007 0.0225000009
v -0.0500000007 -0.0500000007 0.0300000012
v 0.0500000007 0.0500000007 0.0075000003
v 0.0500000007 0.0500000007 0
v 0.0500000007 0.0250000004 0
v 0.0500000007 0.0250000004 0.0075000003
v 0.0500000007 0.0500000007 0.0150000006
v 0.0500000007 0 0
v 0.0500000007 0.0250000004 0.0150000006
v 0.0500000007 0.0500000007 0.0225000009
v 0.0500000007 0 0.0075000003
v 0.0500000007 -0.0250000004 0
v 0.0500000007 0.0250000004 0.0225000009
v 0.0500000007 0.0500000007 0.0300000012
v 0.0500000007 0.0250000004 0.0300000012
v 0.0500000007 -0.0250000004 0.0075000003
v 0.0500000007 -0.0500000007 0
v 0.0500000007 -0.0500000007 0.0075000003
v 0.0500000007 0 0.0150000006
v 0.0500000007 0 0.0225000009
v 0.0500000007 0 0.0300000012
v 0.0500000007 -0.0250000004 0.0150000006
v 0.0500000007 -0.0500000007 0.0150000006
v 0.0500000007 -0.0250000004 0.0225000009
v 0.0500000007 -0.0250000004 0.0300000012
v 0.0500000007 -0.0500000007 0.0225000009
v 0.0500000007 -0.0500000007 0.0300000012
v -0.0500000007 0.0500000007 0.0075000003
v -0.0500000007 0.0500000007 0
v -0.0250000004 0.0500000007 0
v -0.0250000004 0.0500000007 0.0075000003
v -0.0500000007 0.0500000007 0.0150000006
v -0 0.0500000007 0
v -0.0250000004 0.0500000007 0.0150000006
v -0.0500000007 0.0500000007 0.0225000009
v -0 0.0500000007 0.0075000003
v 0.0250000004 0.0500000007 0
v -0.0250000004 0.0500000007 0.0225000009
v -0.0500000007 0.0500000007 0.0300000012
v -0.0250000004 0.0500000007 0.0300000012
v 0.0250000004 0.0500000007 0.0075000003
v 0.0500000007 0.0500000007 0
v 0.0500000007 0.0500000007 0.0075000003
v -0 0.0500000007 0.0150000006
v -0 0.0500000007 0.0225000009
v -0 0.0500000007 0.0300000012
v 0.0250000004 0.0500000007 0.0150000006
v 0.0500000007 0.0500000007 0.0150000006
v 0.0250000004 0.0500000007 0.0225000009
v 0.0250000004 0.0500000007 0.0300000012
v 0.0500000007 0.0500000007 0.0225000009
v 0.0500000007 0.0500000007 0.0300000012
v -0.0500000007 -0.0500000007 0.0075000003
v -0.0500000007 -0.0500000007 0
v -0.0500000007 -0.0250000004 0
v -0.0500000007 -0.0250000004 0.0075000003
v -0.0500000007 -0.0500000007 0.0150000006
v -0.0500000007 0 0
v -0.0500000007 -0.0250000004 0.0150000006
v -0.0500000007 -0.0500000007 0.0225000009
v -0.0500000007 0 0.0075000003
v -0.0500000007 0.0250000004 0
v -0.0500000007 -0.0250000004 0.0225000009
v -0.0500000007 -0.0500000007 0.0300000012
v -0.0500000007 -0.0250000004 0.0300000012
v -0.0500000007 0.0250000004 0.0075000003
v -0.0500000007 0.0500000007 0
v -0.0500000007 0.0500000007 0.0075000003
v -0.0500000007 0 0.0150000006
v -0.0500000007 0 0.0225000009
v -0.0500000007 0 0.0300000012
v -0.0500000007 0.0250000004 0.0150000006
v -0.0500000007 0.0500000007 0.0150000006
v -0.0500000007 0.0250000004 0.0225000009
v -0.0500000007 0.0250000004 0.0300000012
v -0.0500000007 0.0500000007 0.0225000009
v -0.0500000007 0.0500000007 0.0300000012
vt 1 0.25
vt 1 0
vt 0.75 0
vt 0.75 0.25
vt 1 0.5
vt 0.5 0
vt 0.75 0.5
vt 1 0.75
vt 0.5 0.25
vt 0.25 0
vt 0.75 0.75
vt 1 1
vt 0.75 1
vt 0.25 0.25
vt 0 0
vt 0 0.25
vt 0.5 0.5
vt 0.5 0.75
vt 0.5 1
vt 0.25 0.5
vt 0 0.5
vt 0.25 0.75
vt 0.25 1
vt 0 0.75
vt 0 1
vt 1 0.25
vt 1 0
vt 0.75 0
vt 0.75 0.25
vt 1 0.5
vt 0.5 0
vt 0.75 0.5
vt 1 0.75
vt 0.5 0.25
vt 0.25 0
vt 0.75 0.75
vt 1 1
vt 0.75 1
vt 0.25 0.25
vt 0 0
vt 0 0.25
vt 0.5 0.5
vt 0.5 0.75
vt 0.5 1
vt 0.25 0.5
vt 0 0.5
vt 0.25 0.75
vt 0.25 1
vt 0 0.75
vt 0 1
vt 1 0.25
vt 1 0
vt 0.75 0
vt 0.75 0.25
vt 1 0.5
vt 0.5 0
vt 0.75 0.5
vt 1 0.75
vt 0.5 0.25
vt 0.25 0
vt 0.75 0.75
vt 1 1
vt 0.75 1
vt 0.25 0.25
vt 0 0
vt 0 0.25
vt 0.5 0.5
vt 0.5 0.75
vt 0.5 1
vt 0.25 0.5
vt 0 0.5
vt 0.25 0.75
vt 0.25 1
vt 0 0.75
vt 0 1
vt 1 0.25
vt 1 0
vt 0.75 0
vt 0.75 0.25
vt 1 0.5
vt 0.5 0
vt 0.75 0.5
vt 1 0.75
vt 0.5 0.25
vt 0.25 0
vt 0.75 0.75
vt 1 1
vt 0.75 1
vt 0.25 0.25
vt 0 0
vt 0 0.25
vt 0.5 0.5
vt 0.5 0.75
vt 0.5 1
vt 0.25 0.5
vt 0 0.5
vt 0.25 0.75
vt 0.25 1
vt 0 0.75
vt 0 1
vn -0 -1 0
vn -0 -1 0
vn -0 -1 0
vn -0 -1 0
vn -0 -1 0
vn -0 -1 0
vn -0 -1 0
vn -0 -1 0
vn -0 -1 0
vn -0 -1 0
vn -0 -1 0
vn -0 -1 0
vn -0 -1 0
vn -0 -1 0
vn -0 -1 0
vn -0 -1 0
vn -0 -1 0
vn -0 -1 0
vn -0 -1 0
vn -0 -1 0
vn -0 -1 0
vn -0 -1 0
vn -0 -1 0
vn -0 -1 0
vn -0 -1 0
vn 1 0 0
vn 1 0 0
vn 1 0 0
vn 1 0 0
vn 1 0 0
vn 1 0 0
vn 1 0 0
vn 1 0 0
vn 1 0 0
vn 1 0 0
vn 1 0 0
vn 1 0 0
vn 1 0 0
vn 1 0 0
vn 1 0 0
vn 1 0 0
vn 1 0 0
vn 1 0 0
vn 1 0 0
vn 1 0 0
vn 1 0 0
vn 1 0 0
vn 1 0 0
vn 1 0 0
vn 1 0 0
vn -0 1 0
vn -0 1 0
vn -0 1 0
vn -0 1 0
vn -0 1 0
vn -0 1 0
vn -0 1 0
vn -0 1 0
vn -0 1 0
vn -0 1 0
vn -0 1 0
vn -0 1 0
vn -0 1 0
vn -0 1 0
vn -0 1 0
vn -0 1 0
vn -0 1 0
vn -0 1 0
vn -0 1 0
vn -0 1 0
vn -0 1 0
vn -0 1 0
vn -0 1 0
vn -0 1 0
vn -0 1 0
vn -1 0 0
vn -1 0 0
vn -1 0 0
vn -1 0 0
vn -1 0 0
vn -1 0 0
vn -1 0 0
vn -1 0 0
vn -1 0 0
vn -1 0 0
vn -1 0 0
vn -1 0 0
vn -1 0 0
vn -1 0 0
vn -1 0 0
vn -1 0 0
vn -1 0 0
vn -1 0 0
vn -1 0 0
vn -1 0 0
vn -1 0 0
vn -1 0 0
vn -1 0 0
vn -1 0 0
vn -1 0 0
g Box001_0
f 3/3/3 2/2/2 1/1/1
f 4/4/4 3/3/3 1/1/1
f 4/4/4 1/1/1 5/5/5
f 6/6/6 3/3/3 4/4/4
f 7/7/7 4/4/4 5/5/5
f 7/7/7 5/5/5 8/8/8
f 9/9/9 6/6/6 4/4/4
f 9/9/9 4/4/4 7/7/7
f 10/10/10 6/6/6 9/9/9
f 11/11/11 7/7/7 8/8/8
f 11/11/11 8/8/8 12/12/12
f 13/13/13 11/11/11 12/12/12
f 14/14/14 10/10/10 9/9/9
f 15/15/15 10/10/10 14/14/14
f 16/16/16 15/15/15 14/14/14
f 17/17/17 9/9/9 7/7/7
f 17/17/17 7/7/7 11/11/11
f 14/14/14 9/9/9 17/17/17
f 18/18/18 11/11/11 13/13/13
f 18/18/18 17/17/17 11/11/11
f 19/19/19 18/18/18 13/13/13
f 16/16/16 14/14/14 20/20/20
f 20/20/20 14/14/14 17/17/17
f 20/20/20 17/17/17 18/18/18
f 21/21/21 16/16/16 20/20/20
f 22/22/22 18/18/18 19/19/19
f 22/22/22 20/20/20 18/18/18
f 21/21/21 20/20/20 22/22/22
f 23/23/23 22/22/22 19/19/19
f 24/24/24 21/21/21 22/22/22
f 24/24/24 22/22/22 23/23/23
f 25/25/25 24/24/24 23/23/23
f 28/28/28 27/27/27 26/26/26
f 29/29/29 28/28/28 26/26/26
f 29/29/29 26/26/26 30/30/30
f 31/31/31 28/28/28 29/29/29
f 32/32/32 29/29/29 30/30/30
f 32/32/32 30/30/30 33/33/33
f 34/34/34 31/31/31 29/29/29
f 34/34/34 29/29/29 32/32/32
f 35/35/35 31/31/31 34/34/34
f 36/36/36 32/32/32 33/33/33
f 36/36/36 33/33/33 37/37/37
f 38/38/38 36/36/36 37/37/37
f 39/39/39 35/35/35 34/34/34
f 40/40/40 35/35/35 39/39/39
f 41/41/41 40/40/40 39/39/39
f 42/42/42 34/34/34 32/32/32
f 42/42/42 32/32/32 36/36/36
f 39/39/39 34/34/34 42/42/42
f 43/43/43 36/36/36 38/38/38
f 43/43/43 42/42/42 36/36/36
f 44/44/44 43/43/43 38/38/38
f 41/41/41 39/39/39 45/45/45
f 45/45/45 39/39/39 42/42/42
f 45/45/45 42/42/42 43/43/43
f 46/46/46 41/41/41 45/45/45
f 47/47/47 43/43/43 44/44/44
f 47/47/47 45/45/45 43/43/43
f 46/46/46 45/45/45 47/47/47
f 48/48/48 47/47/47 44/44/44
f 49/49/49 46/46/46 47/47/47
f 49/49/49 47/47/47 48/48/48
f 50/50/50 49/49/49 48/48/48
f 53/53/53 52/52/52 51/51/51
f 54/54/54 53/53/53 51/51/51
f 54/54/54 51/51/51 55/55/55
f 56/56/56 53/53/53 54/54/54
f 57/57/57 54/54/54 55/55/55
f 57/57/57 55/55/55 58/58/58
f 59/59/59 56/56/56 54/54/54
f 59/59/59 54/54/54 57/57/57
f 60/60/60 56/56/56 59/59/59
f 61/61/61 57/57/57 58/58/58
f 61/61/61 58/58/58 62/62/62
f 63/63/63 61/61/61 62/62/62
f 64/64/64 60/60/60 59/59/59
f 65/65/65 60/60/60 64/64/64
f 66/66/66 65/65/65 64/64/64
f 67/67/67 59/59/59 57/57/57
f 67/67/67 57/57/57 61/61/61
f 64/64/64 59/59/59 67/67/67
f 68/68/68 61/61/61 63/63/63
f 68/68/68 67/67/67 61/61/61
f 69/69/69 68/68/68 63/63/63
f 66/66/66 64/64/64 70/70/70
f 70/70/70 64/64/64 67/67/67
f 70/70/70 67/67/67 68/68/68
f 71/71/71 66/66/66 70/70/70
f 72/72/72 68/68/68 69/69/69
f 72/72/72 70/70/70 68/68/68
f 71/71/71 70/70/70 72/72/72
f 73/73/73 72/72/72 69/69/69
f 74/74/74 71/71/71 72/72/72
f 74/74/74 72/72/72 73/73/73
f 75/75/75 74/74/74 73/73/73
f 78/78/78 77/77/77 76/76/76
f 79/79/79 78/78/78 76/76/76
f 79/79/79 76/76/76 80/80/80
f 81/81/81 78/78/78 79/79/79
f 82/82/82 79/79/79 80/80/80
f 82/82/82 80/80/80 83/83/83
f 84/84/84 81/81/81 79/79/79
f 84/84/84 79/79/79 82/82/82
f 85/85/85 81/81/81 84/84/84
f 86/86/86 82/82/82 83/83/83
f 86/86/86 83/83/83 87/87/87
f 88/88/88 86/86/86 87/87/87
f 89/89/89 85/85/85 84/84/84
f 90/90/90 85/85/85 89/89/89
f 91/91/91 90/90/90 89/89/89
f 92/92/92 84/84/84 82/82/82
f 92/92/92 82/82/82 86/86/86
f 89/89/89 84/84/84 92/92/92
f 93/93/93 86/86/86 88/88/88
f 93/93/93 92/92/92 86/86/86
f 94/94/94 93/93/93 88/88/88
f 91/91/91 89/89/89 95/95/95
f 95/95/95 89/89/89 92/92/92
f 95/95/95 92/92/92 93/93/93
f 96/96/96 91/91/91 95/95/95
f 97/97/97 93/93/93 94/94/94
f 97/97/97 95/95/95 93/93/93
f 96/96/96 95/95/95 97/97/97
f 98/98/98 97/97/97 94/94/94
f 99/99/99 96/96/96 97/97/97
f 99/99/99 97/97/97 98/98/98
f 100/100/100 99/99/99 98/98/98
