g GeoSphere001
v -0 0 0.279653698
v -0.131830007 0.228336275 -0.0932178944
v 0.263660014 0 -0.0932178944
v -0 0 0.279653698
v -0.131830007 -0.228336275 -0.0932178944
v -0.131830007 0.228336275 -0.0932178944
v -0 0 0.279653698
v 0.263660014 0 -0.0932178944
v -0.131830007 -0.228336275 -0.0932178944
v 0.263660014 0 -0.0932178944
v -0.131830007 0.228336275 -0.0932178944
v -0.131830007 -0.228336275 -0.0932178944
vt 0.737222612 0.96211195
vt 0.998779356 0.00768053532
vt 0.475665867 0.00768053532
vt 0.202727348 0.992713034
vt 0.393091321 0.298067033
vt 0.0123633593 0.298067033
vt 0.502073646 0.00696112961
vt 0.234637856 0.982844114
vt 0.769508958 0.982844353
vt 0.953187108 0.00162407756
vt 0.0154747665 0.000471562147
vt 0.78968966 0.576589346
vn -0 0 1
vn -0.471404493 0.816496551 -0.333333433
vn 0.942808986 0 -0.333333433
vn -0 0 1
vn -0.471404493 -0.816496551 -0.333333433
vn -0.471404493 0.816496551 -0.333333433
vn -0 0 1
vn 0.942808986 0 -0.333333433
vn -0.471404493 -0.816496551 -0.333333433
vn 0.942808986 0 -0.333333433
vn -0.471404493 0.816496551 -0.333333433
vn -0.471404493 -0.816496551 -0.333333433
g GeoSphere001_0
f 3/3/3 2/2/2 1/1/1
f 6/6/6 5/5/5 4/4/4
f 9/9/9 8/8/8 7/7/7
f 12/12/12 11/11/11 10/10/10
