g Line003
v -0.023908291 0.0195881594 0
v -0.113326997 0.000851262128 0
v -0.113602765 0.0195630118 0
v -0.0228227917 -0.0228062943 0
v -0.113084294 -0.0228123646 0
v 0.0219638478 -0.0247236472 0
v 0.0220093448 -0.11535652 0
v -0.0227554049 -0.115447067 0
v 0.0200277865 0.0218668003 0
v 0.123660907 -0.0235757753 0
v 0.124043375 0.0218738727 0
v 0.020013174 0.125402525 0
v -0.0242950469 0.125388414 0
vt 0.405872881 0.577118754
vt 0.0538307726 0.50335151
vt 0.052745074 0.577019811
vt 0.410146475 0.410211474
vt 0.0547862649 0.410187662
vt 0.586471796 0.402662814
vt 0.586650848 0.0458404422
vt 0.410411686 0.0454840064
vt 0.578849554 0.58608973
vt 0.986853957 0.407181889
vt 0.988359749 0.586117506
vt 0.578792155 0.993710637
vt 0.40435034 0.993655205
vn -0 0 1
vn -0 0 1
vn -0 0 1
vn -0 0 1
vn -0 0 1
vn -0 0 1
vn -0 0 1
vn -0 0 1
vn -0 0 1
vn -0 0 1
vn -0 0 1
vn -0 0 1
vn -0 0 1
g Line003_0
f 3/3/3 2/2/2 1/1/1
f 1/1/1 2/2/2 4/4/4
f 4/4/4 2/2/2 5/5/5
f 6/6/6 1/1/1 4/4/4
f 7/7/7 6/6/6 4/4/4
f 8/8/8 7/7/7 4/4/4
f 9/9/9 1/1/1 6/6/6
f 10/10/10 9/9/9 6/6/6
f 11/11/11 9/9/9 10/10/10
f 12/12/12 1/1/1 9/9/9
f 13/13/13 1/1/1 12/12/12
