g Line001
v -0.0403599665 -2.13907814 0
v -0.0403599665 -2.13907814 10
v 2.5628581 1.06953907 10
v 2.5628581 1.06953907 0
v -2.52249837 1.06953907 0
v -2.52249837 1.06953907 10
v -0.0403599665 -2.13907814 10
v -0.0403599665 -2.13907814 0
v -4.15341711 15.2431726 0
v -4.15341711 15.2431726 10
v -3.55410194 16.9983101 10
v -3.55410194 16.9983101 0
v -3.55410194 16.9983101 0
v -3.55410194 16.9983101 10
v -8.09177208 11.2192001 10
v -8.09177208 11.2192001 0
v -8.09177208 11.2192001 0
v -8.09177208 11.2192001 10
v -6.7647171 10.7055016 10
v -6.7647171 10.7055016 0
v -6.7647171 10.7055016 0
v -6.7647171 10.7055016 10
v -4.15341616 12.6318712 10
v -4.15341616 12.6318712 0
v -4.15341616 12.6318712 0
v -4.15341616 12.6318712 10
v -3.98218346 10.0205698 10
v -3.98218346 10.0205698 0
v -3.98218346 10.0205698 0
v -3.98218346 10.0205698 10
v -6.29382706 7.79454327 10
v -6.29382706 7.79454327 0
v -6.29382706 7.79454327 0
v -6.29382706 7.79454327 10
v -3.37216377 2.62545013 10
v -3.37216377 2.62545013 0
v -1.62773252 14.3013916 0
v -1.62773252 14.3013916 10
v -2.74074602 14.9863234 10
v -2.74074602 14.9863234 0
v -2.74074602 14.9863234 0
v -2.74074602 14.9863234 10
v -4.15341711 15.2431726 10
v -4.15341711 15.2431726 0
v 4.15341711 15.2431726 0
v 3.55410194 16.9983101 0
v 3.55410194 16.9983101 10
v 4.15341711 15.2431726 10
v 3.55410194 16.9983101 0
v 8.09177208 11.2192001 0
v 8.09177208 11.2192001 10
v 3.55410194 16.9983101 10
v 8.09177208 11.2192001 0
v 6.7647171 10.7055016 0
v 6.7647171 10.7055016 10
v 8.09177208 11.2192001 10
v 6.7647171 10.7055016 0
v 4.15341616 12.6318712 0
v 4.15341616 12.6318712 10
v 6.7647171 10.7055016 10
v 4.15341616 12.6318712 0
v 3.98218346 10.0205698 0
v 3.98218346 10.0205698 10
v 4.15341616 12.6318712 10
v 3.98218346 10.0205698 0
v 6.29382706 7.79454327 0
v 6.29382706 7.79454327 10
v 3.98218346 10.0205698 10
v 6.29382706 7.79454327 0
v 3.37216377 2.62545013 0
v 3.37216377 2.62545013 10
v 6.29382706 7.79454327 10
v 1.62773252 14.3013916 0
v 2.74074602 14.9863234 0
v 2.74074602 14.9863234 10
v 1.62773252 14.3013916 10
v 2.74074602 14.9863234 0
v 4.15341711 15.2431726 0
v 4.15341711 15.2431726 10
v 2.74074602 14.9863234 10
vt 0.737694621 0.0105381459
vt 0.737694621 0.989407897
vt 0.880498707 0.989407897
vt 0.880498707 0.0105381459
vt 0.597489238 0.0105381459
vt 0.597489238 0.989407897
vt 0.737694621 0.989407897
vt 0.737694621 0.0105381459
vt 0.10114035 0.00511268526
vt 0.10114032 0.992710888
vt 0.166249767 0.992710888
vt 0.166249767 0.00511268526
vt 0.166249767 0.00511268526
vt 0.166249767 0.992710888
vt 0.424202532 0.992710888
vt 0.424202502 0.00511268526
vt 0.424202502 0.00511268526
vt 0.424202532 0.992710888
vt 0.474158525 0.992710888
vt 0.474158525 0.00511273742
vt 0.474158525 0.00511273742
vt 0.474158525 0.992710888
vt 0.588077128 0.992710888
vt 0.588077128 0.00511268526
vt 0.588077128 0.00511268526
vt 0.588077128 0.992710888
vt 0.679946363 0.992710888
vt 0.679946363 0.00511268526
vt 0.679946363 0.00511268526
vt 0.679946363 0.992710888
vt 0.792609036 0.992710888
vt 0.792609036 0.00511270761
vt 0.792609036 0.00511270761
vt 0.792609036 0.992710888
vt 1.00106025 0.992710888
vt 1.00106025 0.00511268526
vt 0.00485360622 0.00511268526
vt 0.00485351309 0.992710888
vt 0.0507335886 0.992710888
vt 0.0507336706 0.00511273742
vt 0.0507336706 0.00511273742
vt 0.0507335886 0.992710888
vt 0.10114032 0.992710888
vt 0.10114035 0.00511268526
vt 0.10114035 0.00511268526
vt 0.166249767 0.00511268526
vt 0.166249767 0.992710888
vt 0.10114032 0.992710888
vt 0.166249767 0.00511268526
vt 0.424202502 0.00511268526
vt 0.424202532 0.992710888
vt 0.166249767 0.992710888
vt 0.424202502 0.00511268526
vt 0.474158525 0.00511273742
vt 0.474158525 0.992710888
vt 0.424202532 0.992710888
vt 0.474158525 0.00511273742
vt 0.588077128 0.00511268526
vt 0.588077128 0.992710888
vt 0.474158525 0.992710888
vt 0.588077128 0.00511268526
vt 0.679946363 0.00511268526
vt 0.679946363 0.992710888
vt 0.588077128 0.992710888
vt 0.679946363 0.00511268526
vt 0.792609036 0.00511270761
vt 0.792609036 0.992710888
vt 0.679946363 0.992710888
vt 0.792609036 0.00511270761
vt 1.00106025 0.00511268526
vt 1.00106025 0.992710888
vt 0.792609036 0.992710888
vt 0.00485360622 0.00511268526
vt 0.0507336706 0.00511273742
vt 0.0507335886 0.992710888
vt 0.00485351309 0.992710888
vt 0.0507336706 0.00511273742
vt 0.10114035 0.00511268526
vt 0.10114032 0.992710888
vt 0.0507335886 0.992710888
vn 0.776561975 -0.630040884 0
vn 0.776561975 -0.630040884 0
vn 0.776561975 -0.630040884 0
vn 0.776561975 -0.630040884 0
vn -0.790956616 -0.611872256 0
vn -0.790956616 -0.611872256 0
vn -0.790956616 -0.611872256 0
vn -0.790956616 -0.611872256 0
vn 0.946349859 -0.32314378 0
vn 0.946349859 -0.32314378 0
vn 0.946349859 -0.32314378 0
vn 0.946349859 -0.32314378 0
vn -0.786520541 0.617564142 0
vn -0.786520541 0.617564142 0
vn -0.786520541 0.617564142 0
vn -0.786520541 0.617564142 0
vn -0.360994041 -0.932568133 0
vn -0.360994041 -0.932568133 0
vn -0.360994041 -0.932568133 0
vn -0.360994041 -0.932568133 0
vn 0.59364897 -0.804724097 0
vn 0.59364897 -0.804724097 0
vn 0.59364897 -0.804724097 0
vn 0.59364897 -0.804724097 0
vn -0.997856915 -0.0654331669 0
vn -0.997856915 -0.0654331669 0
vn -0.997856915 -0.0654331669 0
vn -0.997856915 -0.0654331669 0
vn -0.693641603 0.720320284 0
vn -0.693641603 0.720320284 0
vn -0.693641603 0.720320284 0
vn -0.693641603 0.720320284 0
vn -0.870562673 -0.492057472 0
vn -0.870562673 -0.492057472 0
vn -0.870562673 -0.492057472 0
vn -0.870562673 -0.492057472 0
vn 0.524097681 0.851658165 0
vn 0.524097681 0.851658165 0
vn 0.524097681 0.851658165 0
vn 0.524097681 0.851658165 0
vn 0.178885475 0.98386997 0
vn 0.178885475 0.98386997 0
vn 0.178885475 0.98386997 0
vn 0.178885475 0.98386997 0
vn -0.946349859 -0.32314378 0
vn -0.946349859 -0.32314378 0
vn -0.946349859 -0.32314378 0
vn -0.946349859 -0.32314378 0
vn 0.786520541 0.617564142 0
vn 0.786520541 0.617564142 0
vn 0.786520541 0.617564142 0
vn 0.786520541 0.617564142 0
vn 0.360994041 -0.932568133 0
vn 0.360994041 -0.932568133 0
vn 0.360994041 -0.932568133 0
vn 0.360994041 -0.932568133 0
vn -0.59364897 -0.804724157 0
vn -0.59364897 -0.804724157 0
vn -0.59364897 -0.804724157 0
vn -0.59364897 -0.804724157 0
vn 0.997856915 -0.0654331669 0
vn 0.997856915 -0.0654331669 0
vn 0.997856915 -0.0654331669 0
vn 0.997856915 -0.0654331669 0
vn 0.693641603 0.720320284 0
vn 0.693641603 0.720320284 0
vn 0.693641603 0.720320284 0
vn 0.693641603 0.720320284 0
vn 0.870562673 -0.492057472 0
vn 0.870562673 -0.492057472 0
vn 0.870562673 -0.492057472 0
vn 0.870562673 -0.492057472 0
vn -0.524097621 0.851658225 0
vn -0.524097621 0.851658225 0
vn -0.524097621 0.851658225 0
vn -0.524097621 0.851658225 0
vn -0.178885475 0.98386997 0
vn -0.178885475 0.98386997 0
vn -0.178885475 0.98386997 0
vn -0.178885475 0.98386997 0
g Line001_0
f 3/3/3 2/2/2 1/1/1
f 4/4/4 3/3/3 1/1/1
f 7/7/7 6/6/6 5/5/5
f 8/8/8 7/7/7 5/5/5
f 11/11/11 10/10/10 9/9/9
f 12/12/12 11/11/11 9/9/9
f 15/15/15 14/14/14 13/13/13
f 16/16/16 15/15/15 13/13/13
f 19/19/19 18/18/18 17/17/17
f 20/20/20 19/19/19 17/17/17
f 23/23/23 22/22/22 21/21/21
f 24/24/24 23/23/23 21/21/21
f 27/27/27 26/26/26 25/25/25
f 28/28/28 27/27/27 25/25/25
f 31/31/31 30/30/30 29/29/29
f 32/32/32 31/31/31 29/29/29
f 35/35/35 34/34/34 33/33/33
f 36/36/36 35/35/35 33/33/33
f 39/39/39 38/38/38 37/37/37
f 40/40/40 39/39/39 37/37/37
f 43/43/43 42/42/42 41/41/41
f 44/44/44 43/43/43 41/41/41
f 47/47/47 46/46/46 45/45/45
f 48/48/48 47/47/47 45/45/45
f 51/51/51 50/50/50 49/49/49
f 52/52/52 51/51/51 49/49/49
f 55/55/55 54/54/54 53/53/53
f 56/56/56 55/55/55 53/53/53
f 59/59/59 58/58/58 57/57/57
f 60/60/60 59/59/59 57/57/57
f 63/63/63 62/62/62 61/61/61
f 64/64/64 63/63/63 61/61/61
f 67/67/67 66/66/66 65/65/65
f 68/68/68 67/67/67 65/65/65
f 71/71/71 70/70/70 69/69/69
f 72/72/72 71/71/71 69/69/69
f 75/75/75 74/74/74 73/73/73
f 76/76/76 75/75/75 73/73/73
f 79/79/79 78/78/78 77/77/77
f 80/80/80 79/79/79 77/77/77
