g Object002
v 0.004613759 -0.00189632771 -0.00650175242
v -0.00575873768 0.000262907881 0.00294855819
v -0.00576987909 -0.00189632771 0.00224897545
v 0.00220617699 -0.00014035299 -0.00389621919
v 0.00468054647 -0.000965768937 -0.00625249511
v 0.000622718711 0.00150231714 -0.00202241098
v 0.00171425834 0.000900742889 -0.00313982088
v 0.00144392869 0.00122019101 -0.00280711357
v -0.00575873768 0.000262907881 0.00294855819
v -0.00445866585 0.00145729352 0.00224510208
v -0.0051870537 0.000900742889 0.00267620501
v -0.00576987909 -0.00189632771 0.00224897545
v 0.00576987863 -0.00189632771 -0.00218703481
v 0.004613759 -0.00189632771 -0.00650175242
v -0.00563328248 -0.00014035299 0.00325121405
v -0.00576987909 -0.00189632771 0.00224897545
v -0.00575873768 0.000262907881 0.00294855819
v -0.00490804715 -0.000698139018 0.00554430205
v -0.00576987909 -0.00189632771 0.00224897545
v -0.00563328248 -0.00014035299 0.00325121405
v -0.00470818346 -0.00189632771 0.00585614936
v -0.00576987909 -0.00189632771 0.00224897545
v -0.00490804715 -0.000698139018 0.00554430205
v -0.00470818346 -0.00189632771 0.00585614936
v -0.00122768059 -0.000965768937 0.00638493011
v -0.00166367518 -0.00189632771 0.00650175242
v -0.00337832747 -0.00014035299 0.00385544985
v -0.0051870537 0.000900742889 0.00267620501
v -0.00337832747 0.000900742889 0.00316085806
v -0.00337832747 -0.00014035299 0.00385544985
v -0.00575873768 0.000262907881 0.00294855819
v -0.0051870537 0.000900742889 0.00267620501
v -0.00337832747 -0.00014035299 0.00385544985
v -0.00563328248 -0.00014035299 0.00325121405
v -0.00575873768 0.000262907881 0.00294855819
v -0.000357091194 -0.00014035299 0.0030458821
v -0.00337832747 0.000900742889 0.00316085806
v -0.000704381033 0.000900742889 0.00244436832
v -0.00337832747 0.000900742889 0.00316085806
v -0.000357091194 -0.00014035299 0.0030458821
v -0.00337832747 -0.00014035299 0.00385544985
v 0.00125308183 0.000900742889 0.000486905541
v -0.000704381033 0.000900742889 0.00244436832
v -0.000188012389 0.00150231714 0.00100328634
v -0.000188012389 0.00150231714 0.00100328634
v -0.00426332233 0.00150231714 0.00209526066
v -0.00191097788 0.0018963262 0.000242212074
v -0.000902935804 0.00187242229 -0.000615157071
v -0.000188012389 0.00150231714 0.00100328634
v -0.00191097788 0.0018963262 0.000242212074
v 0.00171425834 0.000900742889 -0.00313982088
v 0.0019695533 0.000900742889 -0.00218703481
v 0.00144392869 0.00122019101 -0.00280711357
v -0.0051870537 0.000900742889 0.00267620501
v -0.00445866585 0.00145729352 0.00224510208
v -0.00337832747 0.000900742889 0.00316085806
v 0.000622718711 0.00150231714 -0.00202241098
v -0.000188012389 0.00150231714 0.00100328634
v -0.000902935804 0.00187242229 -0.000615157071
v 0.00220617699 -0.00014035299 -0.00389621919
v -0.00575873768 0.000262907881 0.00294855819
v 0.004613759 -0.00189632771 -0.00650175242
v -0.00426332233 0.00150231714 0.00209526066
v -0.00445866585 0.00145729352 0.00224510208
v 0.000622718711 0.00150231714 -0.00202241098
v -0.00191097788 0.0018963262 0.000242212074
v -0.000902935804 0.00187242229 -0.000615157071
v -0.00576987909 -0.00189632771 0.00224897545
v 0.00454425672 -0.00189632771 0.00238710456
v 0.00576987863 -0.00189632771 -0.00218703481
v 0.00119577546 -0.00189632771 0.00573557988
v -0.00166367518 -0.00189632771 0.00650175242
v -0.00470818346 -0.00189632771 0.00585614936
v -0.00470818346 -0.00189632771 0.00585614936
v -0.00337832747 -0.000673970208 0.00586325116
v -0.00122768059 -0.000965768937 0.00638493011
v -0.00490804715 -0.000698139018 0.00554430205
v 0.00454425672 -0.00189632771 0.00238710456
v 0.00119577546 -0.000965768937 0.00573557988
v 0.00454425672 -0.000965768937 0.00238710456
v 0.00119577546 -0.00189632771 0.00573557988
v 0.00576987863 -0.00189632771 -0.00218703481
v 0.00454425672 -0.000965768937 0.00238710456
v 0.00576987863 -0.000965768937 -0.00218703481
v 0.00454425672 -0.00189632771 0.00238710456
v 0.004613759 -0.00189632771 -0.00650175242
v 0.00576987863 -0.000965768937 -0.00218703481
v 0.00468054647 -0.000965768937 -0.00625249511
v 0.00576987863 -0.00189632771 -0.00218703481
v -0.00122768059 -0.000965768937 0.00638493011
v -0.000357091194 -0.00014035299 0.0030458821
v 0.00119577546 -0.000965768937 0.00573557988
v -0.00337832747 -0.00014035299 0.00385544985
v -0.00337832747 -0.000673970208 0.00586325116
v 0.00454425672 -0.000965768937 0.00238710456
v -0.000357091194 -0.00014035299 0.0030458821
v 0.0018546076 -0.00014035299 0.000834207516
v 0.00119577546 -0.000965768937 0.00573557988
v 0.00576987863 -0.000965768937 -0.00218703481
v 0.0018546076 -0.00014035299 0.000834207516
v 0.00266415719 -0.00014035299 -0.00218703481
v 0.00454425672 -0.000965768937 0.00238710456
v 0.0018546076 -0.00014035299 0.000834207516
v -0.000704381033 0.000900742889 0.00244436832
v 0.00125308183 0.000900742889 0.000486905541
v -0.000357091194 -0.00014035299 0.0030458821
v 0.00266415719 -0.00014035299 -0.00218703481
v 0.00125308183 0.000900742889 0.000486905541
v 0.0019695533 0.000900742889 -0.00218703481
v 0.0018546076 -0.00014035299 0.000834207516
v -0.000704381033 0.000900742889 0.00244436832
v -0.00426332233 0.00150231714 0.00209526066
v -0.000188012389 0.00150231714 0.00100328634
v -0.00445866585 0.00145729352 0.00224510208
v -0.00337832747 0.000900742889 0.00316085806
v 0.0019695533 0.000900742889 -0.00218703481
v 0.000622718711 0.00150231714 -0.00202241098
v 0.00144392869 0.00122019101 -0.00280711357
v -0.000188012389 0.00150231714 0.00100328634
v 0.00125308183 0.000900742889 0.000486905541
v -0.00490804715 -0.000698139018 0.00554430205
v -0.00337832747 -0.00014035299 0.00385544985
v -0.00337832747 -0.000673970208 0.00586325116
v -0.00563328248 -0.00014035299 0.00325121405
v 0.00468054647 -0.000965768937 -0.00625249511
v 0.00266415719 -0.00014035299 -0.00218703481
v 0.00220617699 -0.00014035299 -0.00389621919
v 0.00576987863 -0.000965768937 -0.00218703481
v 0.00220617699 -0.00014035299 -0.00389621919
v 0.0019695533 0.000900742889 -0.00218703481
v 0.00171425834 0.000900742889 -0.00313982088
v 0.00266415719 -0.00014035299 -0.00218703481
v 0.00119577546 -0.00189632771 0.00573557988
v -0.00122768059 -0.000965768937 0.00638493011
v 0.00119577546 -0.000965768937 0.00573557988
v -0.00166367518 -0.00189632771 0.00650175242
vt 0.541955948 0.139133781
vt 0.267874837 0.0637076795
vt 0.282995641 0.0974975824
vt 0.480215549 0.0902929008
vt 0.54364568 0.12000376
vt 0.43536377 0.0466163158
vt 0.465826511 0.0648777485
vt 0.458125174 0.0565503836
vt 0.267874837 0.0637076795
vt 0.29603982 0.0379580259
vt 0.276934505 0.0500798523
vt 0.282995641 0.0974975824
vt 0.4662745 0.213578761
vt 0.541955948 0.139133781
vt 0.262860179 0.0717053413
vt 0.282995641 0.0974975824
vt 0.267874837 0.0637076795
vt 0.228403866 0.102369487
vt 0.282995641 0.0974975824
vt 0.262860179 0.0717053413
vt 0.237890303 0.117188483
vt 0.282995641 0.0974975824
vt 0.228403866 0.102369487
vt 0.237890303 0.117188483
vt 0.209319592 0.16276747
vt 0.225929797 0.162010431
vt 0.749988735 0.0983071998
vt 0.748845398 0.135631442
vt 0.763170004 0.111252323
vt 0.749988735 0.0983071998
vt 0.735388041 0.137107193
vt 0.748845398 0.135631442
vt 0.749988735 0.0983071998
vt 0.730735898 0.13147755
vt 0.735388041 0.137107193
vt 0.794407606 0.072503455
vt 0.763170004 0.111252323
vt 0.799372792 0.0901902616
vt 0.763170004 0.111252323
vt 0.794407606 0.072503455
vt 0.749988735 0.0983071998
vt 0.841173649 0.0905095562
vt 0.799372792 0.0901902616
vt 0.820223093 0.102229148
vt 0.820223093 0.102229148
vt 0.766567051 0.133112878
vt 0.810426474 0.12836875
vt 0.8293612 0.126806051
vt 0.820223093 0.102229148
vt 0.810426474 0.12836875
vt 0.884864807 0.124286622
vt 0.877516031 0.111330628
vt 0.877515674 0.124115631
vt 0.748845398 0.135631442
vt 0.762868822 0.133459091
vt 0.763170004 0.111252323
vt 0.859999955 0.125263825
vt 0.820223093 0.102229148
vt 0.8293612 0.126806051
vt 0.480215549 0.0902929008
vt 0.267874837 0.0637076795
vt 0.541955948 0.139133781
vt 0.301568031 0.0371248126
vt 0.29603982 0.0379580259
vt 0.43536377 0.0466163158
vt 0.368732572 0.0305847526
vt 0.394740403 0.0337766707
vt 0.282995641 0.0974975824
vt 0.357065439 0.241358578
vt 0.4662745 0.213578761
vt 0.248764873 0.20914793
vt 0.225929797 0.162010431
vt 0.237890303 0.117188483
vt 0.237890303 0.117188483
vt 0.214013577 0.127156943
vt 0.209319592 0.16276747
vt 0.228403866 0.102369487
vt 0.724215806 0.980279148
vt 0.652044833 0.994461358
vt 0.724215806 0.994461656
vt 0.652044833 0.980279386
vt 0.796387553 0.980279386
vt 0.724215806 0.994461656
vt 0.796387553 0.994461656
vt 0.724215806 0.980279148
vt 0.864465714 0.980279386
vt 0.796387553 0.994461656
vt 0.860533059 0.994461656
vt 0.796387553 0.980279386
vt 0.746566474 0.0457763672
vt 0.794407606 0.072503455
vt 0.781667888 0.0254393518
vt 0.749988735 0.0983071998
vt 0.727638423 0.0760144517
vt 0.858370125 0.0254392177
vt 0.794407606 0.072503455
vt 0.845793605 0.0726213753
vt 0.781667888 0.0254393518
vt 0.924738944 0.0636227652
vt 0.845793605 0.0726213753
vt 0.89035064 0.098187387
vt 0.858370125 0.0254392177
vt 0.845793605 0.0726213753
vt 0.799372792 0.0901902616
vt 0.841173649 0.0905095562
vt 0.794407606 0.072503455
vt 0.89035064 0.098187387
vt 0.841173649 0.0905095562
vt 0.877516031 0.111330628
vt 0.845793605 0.0726213753
vt 0.799372792 0.0901902616
vt 0.766567051 0.133112878
vt 0.820223093 0.102229148
vt 0.762868822 0.133459091
vt 0.763170004 0.111252323
vt 0.877516031 0.111330628
vt 0.859999955 0.125263825
vt 0.877515674 0.124115631
vt 0.820223093 0.102229148
vt 0.841173649 0.0905095562
vt 0.713687897 0.0973568261
vt 0.749988735 0.0983071998
vt 0.727638423 0.0760144517
vt 0.730735898 0.13147755
vt 0.958825886 0.122662365
vt 0.89035064 0.098187387
vt 0.904827893 0.123396419
vt 0.924738944 0.0636227652
vt 0.904827893 0.123396419
vt 0.877516031 0.111330628
vt 0.884864807 0.124286622
vt 0.89035064 0.098187387
vt 0.652044833 0.980279386
vt 0.613807201 0.994461536
vt 0.652044833 0.994461358
vt 0.606927931 0.980279207
vn -0.625021875 0.243515834 -0.741652012
vn -0.625021338 0.243517086 -0.741652012
vn -0.625021338 0.243517086 -0.741652012
vn -0.625021458 0.243517131 -0.741651952
vn -0.625021815 0.243515834 -0.741652012
vn -0.625020981 0.243518054 -0.741652012
vn -0.625020981 0.243518054 -0.741652012
vn -0.625020921 0.243518054 -0.741652012
vn -0.625021577 0.243517205 -0.741651773
vn -0.625021577 0.243517235 -0.741651773
vn -0.625021577 0.243517205 -0.741651773
vn -0 -1 0
vn -0 -1 0
vn -0 -1 0
vn -0.955738962 -0.0862090364 0.281302065
vn -0.955738962 -0.0862090513 0.281302065
vn -0.955738962 -0.0862090513 0.281302065
vn -0.9557392 -0.0862087831 0.281301707
vn -0.9557392 -0.0862087905 0.281301737
vn -0.9557392 -0.0862087905 0.281301737
vn -0.9557392 -0.0862088874 0.281301737
vn -0.9557392 -0.0862088799 0.281301707
vn -0.9557392 -0.0862088874 0.281301737
vn -0.202597216 0.214863464 0.955399454
vn -0.20259726 0.214863464 0.955399454
vn -0.202597216 0.214863434 0.955399454
vn -0.21755892 0.541698515 0.811930299
vn -0.217558905 0.541698575 0.811930299
vn -0.21755892 0.541698575 0.811930299
vn -0.217564106 0.541692436 0.811932862
vn -0.217564121 0.541692436 0.811932981
vn -0.217564121 0.541692436 0.811932981
vn -0.217565358 0.541689336 0.81193471
vn -0.217565373 0.541689336 0.811934769
vn -0.217565358 0.541689336 0.81193471
vn 0.21756044 0.541686952 0.81193769
vn 0.217560425 0.541686952 0.81193769
vn 0.21756044 0.541686952 0.811937571
vn 0.217563868 0.541697919 0.811929405
vn 0.217563882 0.54169786 0.811929405
vn 0.217563868 0.541697919 0.811929345
vn 0.478756785 0.735923827 0.478756785
vn 0.478756785 0.735923827 0.478756785
vn 0.478756785 0.735923827 0.478756785
vn 0.0819048956 0.948606968 0.305673748
vn 0.0819049031 0.948606968 0.305673778
vn 0.0819048956 0.948606968 0.305673748
vn 0.154771775 0.975752532 0.154766679
vn 0.15477179 0.975752532 0.154766679
vn 0.154771775 0.975752532 0.154766664
vn 0.653984547 0.735933304 -0.175232381
vn 0.653984547 0.735933304 -0.175232366
vn 0.653984547 0.735933304 -0.175232351
vn -0.175238833 0.735925376 0.653991818
vn -0.175238833 0.735925376 0.653991759
vn -0.175238833 0.735925376 0.653991818
vn 0.305668026 0.948608994 0.0819032937
vn 0.305668116 0.948608994 0.0819033086
vn 0.305668056 0.948608994 0.0819033086
vn -0.625021517 0.243516475 -0.741652071
vn -0.625021458 0.24351649 -0.741652131
vn -0.625021517 0.243516475 -0.741652071
vn -0.625022471 0.243518963 -0.741650462
vn -0.62502259 0.243518963 -0.741650462
vn -0.62502116 0.243517399 -0.741652012
vn -0.62502116 0.243517414 -0.741652012
vn -0.625022888 0.243510753 -0.741652787
vn -0 -1 0
vn -0 -1 0
vn -0 -1 0
vn -0 -1 0
vn -0 -1 0
vn -0 -1 0
vn -0.202597275 0.214863509 0.955399454
vn -0.20259726 0.214863509 0.955399454
vn -0.202597275 0.214863509 0.955399454
vn -0.202597097 0.21486342 0.955399454
vn 0.707106113 0 0.707107365
vn 0.707106233 0 0.707107306
vn 0.707106173 0 0.707107365
vn 0.707106173 0 0.707107365
vn 0.965926588 0 0.258816004
vn 0.965926588 0 0.258816004
vn 0.965926588 0 0.258816034
vn 0.965926588 0 0.258816034
vn 0.965926051 5.22557968E-07 -0.258818001
vn 0.965926051 5.22557968E-07 -0.25881803
vn 0.965926051 5.22557968E-07 -0.25881803
vn 0.96592617 0 -0.258817941
vn 0.0686594099 0.964170218 0.256245315
vn 0.0686594099 0.964170218 0.256245345
vn 0.0686594099 0.964170218 0.256245345
vn 0.0686635375 0.964169681 0.256246299
vn 0.0686600655 0.964169264 0.25624916
vn 0.187584952 0.964169562 0.187587008
vn 0.187584922 0.964169562 0.187586993
vn 0.187584922 0.964169562 0.187586993
vn 0.187584728 0.964170039 0.187585101
vn 0.256249785 0.964168787 0.0686627701
vn 0.256249785 0.964168787 0.0686627775
vn 0.256249785 0.964168787 0.0686627775
vn 0.256248236 0.964169383 0.0686606467
vn 0.594375074 0.541697919 0.594375074
vn 0.594375074 0.541697919 0.594375074
vn 0.594375014 0.541697979 0.594375014
vn 0.594375968 0.54168874 0.594382465
vn 0.81192714 0.541705847 0.217552558
vn 0.81192714 0.541705847 0.217552558
vn 0.81192714 0.541705906 0.217552602
vn 0.811932266 0.541695476 0.217559353
vn 0.111632928 0.902200401 0.416620433
vn 0.111632928 0.902200401 0.416620433
vn 0.111632928 0.902200401 0.416620433
vn 0.111632861 0.902200222 0.41662091
vn 0.111633338 0.90220207 0.416616768
vn 0.416619807 0.902200699 0.111632146
vn 0.416619867 0.902200699 0.111632146
vn 0.416619867 0.902200699 0.111632146
vn 0.416619897 0.90220058 0.111632675
vn 0.416617841 0.902201772 0.111631058
vn -0.0686617568 0.964169025 0.2562491
vn -0.0686617643 0.964169025 0.25624913
vn -0.0686617643 0.964169025 0.25624913
vn -0.0686638057 0.964169383 0.256247342
vn 0.256248415 0.964169264 -0.0686623976
vn 0.256248415 0.964169264 -0.0686623976
vn 0.256248415 0.964169264 -0.068662405
vn 0.256249815 0.964168906 -0.0686616302
vn 0.811931074 0.541699469 -0.217553496
vn 0.811931133 0.541699529 -0.217553481
vn 0.811931074 0.541699529 -0.217553511
vn 0.811926186 0.541705191 -0.217557624
vn 0.258814365 0 0.965927064
vn 0.258814365 0 0.965927064
vn 0.258814365 0 0.965927064
vn 0.258814365 0 0.965927064
g Object002_0
f 3/3/3 2/2/2 1/1/1
f 5/5/5 1/1/1 4/4/4
f 7/7/7 4/4/4 6/6/6
f 8/8/8 7/7/7 6/6/6
f 11/11/11 10/10/10 9/9/9
f 14/14/14 13/13/13 12/12/12
f 17/17/17 16/16/16 15/15/15
f 20/20/20 19/19/19 18/18/18
f 23/23/23 22/22/22 21/21/21
f 26/26/26 25/25/25 24/24/24
f 29/29/29 28/28/28 27/27/27
f 32/32/32 31/31/31 30/30/30
f 35/35/35 34/34/34 33/33/33
f 38/38/38 37/37/37 36/36/36
f 41/41/41 40/40/40 39/39/39
f 44/44/44 43/43/43 42/42/42
f 47/47/47 46/46/46 45/45/45
f 50/50/50 49/49/49 48/48/48
f 53/53/53 52/52/52 51/51/51
f 56/56/56 55/55/55 54/54/54
f 59/59/59 58/58/58 57/57/57
f 62/62/62 61/61/61 60/60/60
f 61/61/61 63/63/63 60/60/60
f 64/64/64 63/63/63 61/61/61
f 60/60/60 63/63/63 65/65/65
f 63/63/63 66/66/66 65/65/65
f 66/66/66 67/67/67 65/65/65
f 70/70/70 69/69/69 68/68/68
f 69/69/69 71/71/71 68/68/68
f 71/71/71 72/72/72 68/68/68
f 72/72/72 73/73/73 68/68/68
f 76/76/76 75/75/75 74/74/74
f 75/75/75 77/77/77 74/74/74
f 80/80/80 79/79/79 78/78/78
f 81/81/81 78/78/78 79/79/79
f 84/84/84 83/83/83 82/82/82
f 85/85/85 82/82/82 83/83/83
f 88/88/88 87/87/87 86/86/86
f 89/89/89 86/86/86 87/87/87
f 92/92/92 91/91/91 90/90/90
f 91/91/91 93/93/93 90/90/90
f 93/93/93 94/94/94 90/90/90
f 97/97/97 96/96/96 95/95/95
f 98/98/98 95/95/95 96/96/96
f 101/101/101 100/100/100 99/99/99
f 102/102/102 99/99/99 100/100/100
f 105/105/105 104/104/104 103/103/103
f 106/106/106 103/103/103 104/104/104
f 109/109/109 108/108/108 107/107/107
f 110/110/110 107/107/107 108/108/108
f 113/113/113 112/112/112 111/111/111
f 112/112/112 114/114/114 111/111/111
f 114/114/114 115/115/115 111/111/111
f 118/118/118 117/117/117 116/116/116
f 117/117/117 119/119/119 116/116/116
f 119/119/119 120/120/120 116/116/116
f 123/123/123 122/122/122 121/121/121
f 124/124/124 121/121/121 122/122/122
f 127/127/127 126/126/126 125/125/125
f 128/128/128 125/125/125 126/126/126
f 131/131/131 130/130/130 129/129/129
f 132/132/132 129/129/129 130/130/130
f 135/135/135 134/134/134 133/133/133
f 136/136/136 133/133/133 134/134/134
