g Plane001
v 0.127000004 -0.63499999 0
v -0.127000004 -0.63499999 0
v 0.127000004 -0.380999982 0
v -0.127000004 -0.380999982 0
v 0.127000004 -0.127000004 0
v 0.380999982 -0.127000004 0
v 0.380999982 -0.380999982 0
v -0.127000004 -0.127000004 0
v -0.380999982 -0.380999982 0
v -0.380999982 -0.127000004 0
v 0.380999982 0.127000004 0
v 0.63499999 0.127000004 0
v 0.63499999 -0.127000004 0
v 0.127000004 0.127000004 0
v 0.380999982 0.380999982 0
v 0.127000004 0.380999982 0
v -0.127000004 0.127000004 0
v -0.380999982 0.127000004 0
v -0.63499999 -0.127000004 0
v -0.63499999 0.127000004 0
v -0.127000004 0.380999982 0
v -0.380999982 0.380999982 0
v 0.127000004 0.63499999 0
v -0.127000004 0.63499999 0
vt 0.600000024 0
vt 0.400000006 0
vt 0.600000024 0.0750392675
vt 0.400000006 0.0750392675
vt 0.600000024 0.150078535
vt 0.800000012 0.150078535
vt 0.800000012 0.0750392675
vt 0.400000006 0.150078535
vt 0.200000003 0.0750392675
vt 0.200000003 0.150078535
vt 0.800000012 0.225117818
vt 1 0.225117818
vt 1 0.150078535
vt 0.600000024 0.225117818
vt 0.800000012 0.30015707
vt 0.600000024 0.30015707
vt 0.400000006 0.225117818
vt 0.200000003 0.225117818
vt 0 0.150078535
vt 0 0.225117818
vt 0.400000006 0.30015707
vt 0.200000003 0.30015707
vt 0.600000024 0.375196338
vt 0.400000006 0.375196338
vn -0 0 1
vn -0 0 1
vn -0 0 1
vn -0 0 1
vn -0 0 1
vn -0 0 1
vn -0 0 1
vn -0 0 1
vn -0 0 1
vn -0 0 1
vn -0 0 1
vn -0 0 1
vn -0 0 1
vn -0 0 1
vn -0 0 1
vn -0 0 1
vn -0 0 1
vn -0 0 1
vn -0 0 1
vn -0 0 1
vn -0 0 1
vn -0 0 1
vn -0 0 1
vn -0 0 1
g Plane001_0
f 3/3/3 2/2/2 1/1/1
f 2/2/2 3/3/3 4/4/4
f 5/5/5 4/4/4 3/3/3
f 3/3/3 6/6/6 5/5/5
f 6/6/6 3/3/3 7/7/7
f 4/4/4 5/5/5 8/8/8
f 8/8/8 9/9/9 4/4/4
f 9/9/9 8/8/8 10/10/10
f 11/11/11 5/5/5 6/6/6
f 6/6/6 12/12/12 11/11/11
f 12/12/12 6/6/6 13/13/13
f 5/5/5 11/11/11 14/14/14
f 14/14/14 8/8/8 5/5/5
f 15/15/15 14/14/14 11/11/11
f 14/14/14 15/15/15 16/16/16
f 8/8/8 14/14/14 17/17/17
f 17/17/17 10/10/10 8/8/8
f 16/16/16 17/17/17 14/14/14
f 10/10/10 17/17/17 18/18/18
f 18/18/18 19/19/19 10/10/10
f 19/19/19 18/18/18 20/20/20
f 17/17/17 16/16/16 21/21/21
f 21/21/21 18/18/18 17/17/17
f 18/18/18 21/21/21 22/22/22
f 23/23/23 21/21/21 16/16/16
f 21/21/21 23/23/23 24/24/24
