g Plane.005
v -0.500888288 -7.80560505E-09 0.178571433
v -0.500888288 -1.09278471E-08 0.25
v -0.429332823 -1.09278471E-08 0.25
v -0.429332823 -7.80560505E-09 0.178571433
v -0.500888288 -4.68336303E-09 0.107142858
v -0.357777357 -1.09278471E-08 0.25
v -0.429332823 -4.68336303E-09 0.107142858
v -0.500888288 -1.5611209E-09 0.0357142836
v -0.357777357 -7.80560505E-09 0.178571433
v -0.286221862 -1.09278471E-08 0.25
v -0.429332823 -1.5611209E-09 0.0357142836
v -0.500888288 1.5611209E-09 -0.0357142836
v -0.286221862 -7.80560505E-09 0.178571433
v -0.214666396 -1.09278471E-08 0.25
v -0.357777357 -4.68336303E-09 0.107142858
v -0.429332823 1.5611209E-09 -0.0357142836
v -0.500888288 4.68336303E-09 -0.107142858
v -0.214666396 -7.80560505E-09 0.178571433
v -0.143110931 -1.09278471E-08 0.25
v -0.286221892 -4.68336303E-09 0.107142858
v -0.357777357 -1.5611209E-09 0.0357142836
v -0.429332823 4.68336303E-09 -0.107142858
v -0.500888288 7.80560505E-09 -0.178571433
v -0.143110931 -7.80560505E-09 0.178571433
v -0.071555458 -1.09278471E-08 0.25
v -0.357777357 1.5611209E-09 -0.0357142836
v -0.214666411 -4.68336303E-09 0.107142858
v -0.286221892 -1.5611209E-09 0.0357142836
v -0.429332823 7.80560505E-09 -0.178571433
v -0.500888288 1.09278471E-08 -0.25
v -0.429332823 1.09278471E-08 -0.25
v -0.0715554655 -7.80560505E-09 0.178571433
v 1.49276342E-08 -1.09278471E-08 0.25
v -0.357777357 4.68336303E-09 -0.107142858
v -0.357777357 7.80560505E-09 -0.178571433
v -0.357777357 1.09278471E-08 -0.25
v -0.286221892 1.5611209E-09 -0.0357142836
v -0.143110946 -4.68336303E-09 0.107142858
v -0.214666426 -1.5611209E-09 0.0357142836
v 1.06625961E-08 -7.80560505E-09 0.178571433
v 0.0715554878 -1.09278471E-08 0.25
v -0.286221892 7.80560505E-09 -0.178571433
v -0.286221892 1.09278471E-08 -0.25
v -0.286221892 4.68336303E-09 -0.107142858
v -0.214666426 1.5611209E-09 -0.0357142836
v -0.0715554655 -4.68336303E-09 0.107142858
v -0.143110961 -1.5611209E-09 0.0357142836
v 0.0715554804 -7.80560505E-09 0.178571433
v 0.143110961 -1.09278471E-08 0.25
v -0.214666426 7.80560505E-09 -0.178571433
v -0.214666426 1.09278471E-08 -0.25
v -0.214666426 4.68336303E-09 -0.107142858
v -0.143110961 1.5611209E-09 -0.0357142836
v 6.39755759E-09 -4.68336303E-09 0.107142858
v -0.0715554655 -1.5611209E-09 0.0357142836
v 0.143110961 -7.80560505E-09 0.178571433
v 0.214666426 -1.09278471E-08 0.25
v -0.143110961 7.80560505E-09 -0.178571433
v -0.143110961 1.09278471E-08 -0.25
v -0.143110961 4.68336303E-09 -0.107142858
v -0.0715554729 1.5611209E-09 -0.0357142836
v 0.0715554804 -4.68336303E-09 0.107142858
v 2.13251905E-09 -1.5611209E-09 0.0357142836
v 0.214666426 -7.80560505E-09 0.178571433
v 0.286221892 -1.09278471E-08 0.25
v -0.0715554804 7.80560505E-09 -0.178571433
v -0.0715554878 1.09278471E-08 -0.25
v -0.0715554804 4.68336303E-09 -0.107142858
v -2.13251905E-09 1.5611209E-09 -0.0357142836
v 0.143110946 -4.68336303E-09 0.107142858
v 0.0715554804 -1.5611209E-09 0.0357142836
v 0.286221862 -7.80560505E-09 0.178571433
v 0.357777357 -1.09278471E-08 0.25
v -1.06625961E-08 7.80560505E-09 -0.178571433
v -1.49276342E-08 1.09278471E-08 -0.25
v -6.39755759E-09 4.68336303E-09 -0.107142858
v 0.0715554729 1.5611209E-09 -0.0357142836
v 0.214666411 -4.68336303E-09 0.107142858
v 0.143110931 -1.5611209E-09 0.0357142836
v 0.357777357 -7.80560505E-09 0.178571433
v 0.429332823 -1.09278471E-08 0.25
v 0.0715554655 7.80560505E-09 -0.178571433
v 0.071555458 1.09278471E-08 -0.25
v 0.0715554655 4.68336303E-09 -0.107142858
v 0.143110931 1.5611209E-09 -0.0357142836
v 0.286221862 -4.68336303E-09 0.107142858
v 0.214666396 -1.5611209E-09 0.0357142836
v 0.429332823 -7.80560505E-09 0.178571433
v 0.500888288 -1.09278471E-08 0.25
v 0.500888288 -7.80560505E-09 0.178571433
v 0.143110931 4.68336303E-09 -0.107142858
v 0.214666396 1.5611209E-09 -0.0357142836
v 0.357777357 -4.68336303E-09 0.107142858
v 0.429332823 -4.68336303E-09 0.107142858
v 0.500888288 -4.68336303E-09 0.107142858
v 0.286221862 -1.5611209E-09 0.0357142836
v 0.143110931 7.80560505E-09 -0.178571433
v 0.143110931 1.09278471E-08 -0.25
v 0.357777357 -1.5611209E-09 0.0357142836
v 0.429332823 -1.5611209E-09 0.0357142836
v 0.500888288 -1.5611209E-09 0.0357142836
v 0.286221862 1.5611209E-09 -0.0357142836
v 0.214666396 4.68336303E-09 -0.107142858
v 0.214666396 7.80560505E-09 -0.178571433
v 0.214666396 1.09278471E-08 -0.25
v 0.357777357 1.5611209E-09 -0.0357142836
v 0.429332823 1.5611209E-09 -0.0357142836
v 0.500888288 1.5611209E-09 -0.0357142836
v 0.286221862 4.68336303E-09 -0.107142858
v 0.286221862 7.80560505E-09 -0.178571433
v 0.286221862 1.09278471E-08 -0.25
v 0.357777357 4.68336303E-09 -0.107142858
v 0.429332823 4.68336303E-09 -0.107142858
v 0.500888288 4.68336303E-09 -0.107142858
v 0.357777357 7.80560505E-09 -0.178571433
v 0.357777357 1.09278471E-08 -0.25
v 0.429332823 7.80560505E-09 -0.178571433
v 0.500888288 7.80560505E-09 -0.178571433
v 0.429332823 1.09278471E-08 -0.25
v 0.500888288 1.09278471E-08 -0.25
vt 0.857142925 1
vt 1 1
vt 1 0.928571403
vt 0.857142925 0.928571403
vt 0.714285731 1
vt 1 0.857142806
vt 0.714285731 0.928571463
vt 0.571428597 1
vt 0.857142925 0.857142806
vt 1 0.785714269
vt 0.571428597 0.928571463
vt 0.428571492 1
vt 0.857142806 0.785714269
vt 1 0.714285672
vt 0.714285731 0.857142866
vt 0.428571492 0.928571463
vt 0.285714328 1
vt 0.857142806 0.714285731
vt 1 0.642857134
vt 0.714285731 0.785714269
vt 0.571428597 0.857142866
vt 0.285714328 0.928571463
vt 0.142857164 1
vt 0.857142806 0.642857134
vt 1 0.571428537
vt 0.428571463 0.857142866
vt 0.714285731 0.714285731
vt 0.571428597 0.785714269
vt 0.142857164 0.928571463
vt 2.98023224E-08 1
vt 2.98023224E-08 0.928571463
vt 0.857142925 0.571428537
vt 1 0.5
vt 0.285714328 0.857142806
vt 0.142857164 0.857142925
vt 2.98023224E-08 0.857142925
vt 0.428571463 0.785714269
vt 0.714285731 0.642857134
vt 0.571428597 0.714285731
vt 0.857142925 0.49999997
vt 1 0.428571343
vt 0.142857134 0.785714269
vt 0 0.785714269
vt 0.285714328 0.785714269
vt 0.428571463 0.714285731
vt 0.714285731 0.571428537
vt 0.571428597 0.642857134
vt 0.857142925 0.428571403
vt 1 0.357142866
vt 0.142857134 0.714285731
vt 0 0.714285731
vt 0.285714328 0.714285731
vt 0.428571463 0.642857134
vt 0.714285731 0.5
vt 0.571428537 0.571428537
vt 0.857142806 0.357142925
vt 1 0.285714269
vt 0.142857134 0.642857134
vt 0 0.642857134
vt 0.285714298 0.642857134
vt 0.428571463 0.571428537
vt 0.714285731 0.428571403
vt 0.571428597 0.5
vt 0.857142806 0.285714328
vt 1 0.214285612
vt 0.142857134 0.571428537
vt 0 0.571428537
vt 0.285714298 0.571428537
vt 0.428571463 0.5
vt 0.714285731 0.357142925
vt 0.571428537 0.428571463
vt 0.857142925 0.214285612
vt 1 0.142857075
vt 0.142857134 0.5
vt 0 0.5
vt 0.285714298 0.5
vt 0.428571463 0.428571403
vt 0.714285731 0.285714269
vt 0.571428597 0.357142806
vt 0.857142806 0.142857134
vt 1 0.0714285374
vt 0.142857134 0.428571463
vt 0 0.428571433
vt 0.285714298 0.428571403
vt 0.428571463 0.357142806
vt 0.714285731 0.214285731
vt 0.571428597 0.285714269
vt 0.857142806 0.071428597
vt 1 0
vt 0.857142806 0
vt 0.285714298 0.357142866
vt 0.428571463 0.285714269
vt 0.714285731 0.142857194
vt 0.714285731 0.071428597
vt 0.714285731 0
vt 0.571428597 0.214285672
vt 0.142857134 0.357142866
vt 0 0.357142866
vt 0.571428597 0.142857194
vt 0.571428597 0.0714285374
vt 0.571428597 0
vt 0.428571463 0.214285672
vt 0.285714269 0.285714269
vt 0.142857134 0.285714269
vt 0 0.285714269
vt 0.428571463 0.142857194
vt 0.428571463 0.0714285374
vt 0.428571463 0
vt 0.285714269 0.214285731
vt 0.142857134 0.214285761
vt 0 0.214285761
vt 0.285714269 0.142857194
vt 0.285714269 0.071428597
vt 0.285714269 0
vt 0.142857075 0.142857224
vt 0 0.142857224
vt 0.142857134 0.0714286268
vt 0.142857075 2.98023224E-08
vt 0 0.0714286268
vt 0 2.98023224E-08
vn -0 -1 0
vn -0 -1 0
vn -0 -1 0
vn -0 -1 0
vn -0 -1 0
vn -0 -1 0
vn -0 -1 0
vn -0 -1 0
vn -0 -1 0
vn -0 -1 0
vn -0 -1 0
vn -0 -1 0
vn -0 -1 0
vn -0 -1 0
vn -0 -1 0
vn -0 -1 0
vn -0 -1 0
vn -0 -1 0
vn -0 -1 0
vn -0 -1 0
vn -0 -1 0
vn -0 -1 0
vn -0 -1 0
vn -0 -1 0
vn -0 -1 0
vn -0 -1 0
vn -0 -1 0
vn -0 -1 0
vn -0 -1 0
vn -0 -1 0
vn -0 -1 0
vn -0 -1 0
vn -0 -1 0
vn -0 -1 0
vn -0 -1 0
vn -0 -1 0
vn -0 -1 0
vn -0 -1 0
vn -0 -1 0
vn -0 -1 0
vn -0 -1 0
vn -0 -1 0
vn -0 -1 0
vn -0 -1 0
vn -0 -1 0
vn -0 -1 0
vn -0 -1 0
vn -0 -1 0
vn -0 -1 0
vn -0 -1 0
vn -0 -1 0
vn -0 -1 0
vn -0 -1 0
vn -0 -1 0
vn -0 -1 0
vn -0 -1 0
vn -0 -1 0
vn -0 -1 0
vn -0 -1 0
vn -0 -1 0
vn -0 -1 0
vn -0 -1 0
vn -0 -1 0
vn -0 -1 0
vn -0 -1 0
vn -0 -1 0
vn -0 -1 0
vn -0 -1 0
vn -0 -1 0
vn -0 -1 0
vn -0 -1 0
vn -0 -1 0
vn -0 -1 0
vn -0 -1 0
vn -0 -1 0
vn -0 -1 0
vn -0 -1 0
vn -0 -1 0
vn -0 -1 0
vn -0 -1 0
vn -0 -1 0
vn -0 -1 0
vn -0 -1 0
vn -0 -1 0
vn -0 -1 0
vn -0 -1 0
vn -0 -1 0
vn -0 -1 0
vn -0 -1 0
vn -0 -1 0
vn -0 -1 0
vn -0 -1 0
vn -0 -1 0
vn -0 -1 0
vn -0 -1 0
vn -0 -1 0
vn -0 -1 0
vn -0 -1 0
vn -0 -1 0
vn -0 -1 0
vn -0 -1 0
vn -0 -1 0
vn -0 -1 0
vn -0 -1 0
vn -0 -1 0
vn -0 -1 0
vn -0 -1 0
vn -0 -1 0
vn -0 -1 0
vn -0 -1 0
vn -0 -1 0
vn -0 -1 0
vn -0 -1 0
vn -0 -1 0
vn -0 -1 0
vn -0 -1 0
vn -0 -1 0
vn -0 -1 0
vn -0 -1 0
vn -0 -1 0
g Plane.005_0
f 3/3/3 2/2/2 1/1/1
f 4/4/4 3/3/3 1/1/1
f 4/4/4 1/1/1 5/5/5
f 6/6/6 3/3/3 4/4/4
f 7/7/7 4/4/4 5/5/5
f 7/7/7 5/5/5 8/8/8
f 9/9/9 6/6/6 4/4/4
f 9/9/9 4/4/4 7/7/7
f 10/10/10 6/6/6 9/9/9
f 11/11/11 7/7/7 8/8/8
f 11/11/11 8/8/8 12/12/12
f 13/13/13 10/10/10 9/9/9
f 14/14/14 10/10/10 13/13/13
f 15/15/15 9/9/9 7/7/7
f 15/15/15 7/7/7 11/11/11
f 13/13/13 9/9/9 15/15/15
f 16/16/16 11/11/11 12/12/12
f 16/16/16 12/12/12 17/17/17
f 18/18/18 14/14/14 13/13/13
f 19/19/19 14/14/14 18/18/18
f 20/20/20 13/13/13 15/15/15
f 18/18/18 13/13/13 20/20/20
f 21/21/21 15/15/15 11/11/11
f 21/21/21 11/11/11 16/16/16
f 20/20/20 15/15/15 21/21/21
f 22/22/22 16/16/16 17/17/17
f 22/22/22 17/17/17 23/23/23
f 24/24/24 19/19/19 18/18/18
f 25/25/25 19/19/19 24/24/24
f 26/26/26 21/21/21 16/16/16
f 26/26/26 16/16/16 22/22/22
f 27/27/27 18/18/18 20/20/20
f 24/24/24 18/18/18 27/27/27
f 28/28/28 20/20/20 21/21/21
f 28/28/28 21/21/21 26/26/26
f 27/27/27 20/20/20 28/28/28
f 29/29/29 22/22/22 23/23/23
f 29/29/29 23/23/23 30/30/30
f 31/31/31 29/29/29 30/30/30
f 32/32/32 25/25/25 24/24/24
f 33/33/33 25/25/25 32/32/32
f 34/34/34 26/26/26 22/22/22
f 34/34/34 22/22/22 29/29/29
f 35/35/35 29/29/29 31/31/31
f 35/35/35 34/34/34 29/29/29
f 36/36/36 35/35/35 31/31/31
f 37/37/37 28/28/28 26/26/26
f 37/37/37 26/26/26 34/34/34
f 38/38/38 24/24/24 27/27/27
f 32/32/32 24/24/24 38/38/38
f 39/39/39 27/27/27 28/28/28
f 39/39/39 28/28/28 37/37/37
f 38/38/38 27/27/27 39/39/39
f 40/40/40 33/33/33 32/32/32
f 41/41/41 33/33/33 40/40/40
f 42/42/42 35/35/35 36/36/36
f 43/43/43 42/42/42 36/36/36
f 44/44/44 34/34/34 35/35/35
f 44/44/44 37/37/37 34/34/34
f 42/42/42 44/44/44 35/35/35
f 45/45/45 39/39/39 37/37/37
f 45/45/45 37/37/37 44/44/44
f 46/46/46 32/32/32 38/38/38
f 40/40/40 32/32/32 46/46/46
f 47/47/47 38/38/38 39/39/39
f 47/47/47 39/39/39 45/45/45
f 46/46/46 38/38/38 47/47/47
f 48/48/48 41/41/41 40/40/40
f 49/49/49 41/41/41 48/48/48
f 50/50/50 42/42/42 43/43/43
f 51/51/51 50/50/50 43/43/43
f 52/52/52 44/44/44 42/42/42
f 52/52/52 45/45/45 44/44/44
f 50/50/50 52/52/52 42/42/42
f 53/53/53 47/47/47 45/45/45
f 53/53/53 45/45/45 52/52/52
f 54/54/54 40/40/40 46/46/46
f 48/48/48 40/40/40 54/54/54
f 55/55/55 46/46/46 47/47/47
f 55/55/55 47/47/47 53/53/53
f 54/54/54 46/46/46 55/55/55
f 56/56/56 49/49/49 48/48/48
f 57/57/57 49/49/49 56/56/56
f 58/58/58 50/50/50 51/51/51
f 59/59/59 58/58/58 51/51/51
f 60/60/60 52/52/52 50/50/50
f 60/60/60 53/53/53 52/52/52
f 58/58/58 60/60/60 50/50/50
f 61/61/61 55/55/55 53/53/53
f 61/61/61 53/53/53 60/60/60
f 62/62/62 48/48/48 54/54/54
f 56/56/56 48/48/48 62/62/62
f 63/63/63 54/54/54 55/55/55
f 63/63/63 55/55/55 61/61/61
f 62/62/62 54/54/54 63/63/63
f 64/64/64 57/57/57 56/56/56
f 65/65/65 57/57/57 64/64/64
f 66/66/66 58/58/58 59/59/59
f 67/67/67 66/66/66 59/59/59
f 68/68/68 60/60/60 58/58/58
f 68/68/68 61/61/61 60/60/60
f 66/66/66 68/68/68 58/58/58
f 69/69/69 63/63/63 61/61/61
f 69/69/69 61/61/61 68/68/68
f 70/70/70 56/56/56 62/62/62
f 64/64/64 56/56/56 70/70/70
f 71/71/71 62/62/62 63/63/63
f 71/71/71 63/63/63 69/69/69
f 70/70/70 62/62/62 71/71/71
f 72/72/72 65/65/65 64/64/64
f 73/73/73 65/65/65 72/72/72
f 74/74/74 66/66/66 67/67/67
f 75/75/75 74/74/74 67/67/67
f 76/76/76 68/68/68 66/66/66
f 76/76/76 69/69/69 68/68/68
f 74/74/74 76/76/76 66/66/66
f 77/77/77 71/71/71 69/69/69
f 77/77/77 69/69/69 76/76/76
f 78/78/78 64/64/64 70/70/70
f 72/72/72 64/64/64 78/78/78
f 79/79/79 70/70/70 71/71/71
f 79/79/79 71/71/71 77/77/77
f 78/78/78 70/70/70 79/79/79
f 80/80/80 73/73/73 72/72/72
f 81/81/81 73/73/73 80/80/80
f 82/82/82 74/74/74 75/75/75
f 83/83/83 82/82/82 75/75/75
f 84/84/84 76/76/76 74/74/74
f 84/84/84 77/77/77 76/76/76
f 82/82/82 84/84/84 74/74/74
f 85/85/85 79/79/79 77/77/77
f 85/85/85 77/77/77 84/84/84
f 86/86/86 72/72/72 78/78/78
f 80/80/80 72/72/72 86/86/86
f 87/87/87 78/78/78 79/79/79
f 87/87/87 79/79/79 85/85/85
f 86/86/86 78/78/78 87/87/87
f 88/88/88 81/81/81 80/80/80
f 89/89/89 81/81/81 88/88/88
f 90/90/90 89/89/89 88/88/88
f 91/91/91 84/84/84 82/82/82
f 91/91/91 85/85/85 84/84/84
f 92/92/92 87/87/87 85/85/85
f 92/92/92 85/85/85 91/91/91
f 93/93/93 80/80/80 86/86/86
f 88/88/88 80/80/80 93/93/93
f 90/90/90 88/88/88 94/94/94
f 94/94/94 88/88/88 93/93/93
f 95/95/95 90/90/90 94/94/94
f 96/96/96 86/86/86 87/87/87
f 93/93/93 86/86/86 96/96/96
f 96/96/96 87/87/87 92/92/92
f 97/97/97 91/91/91 82/82/82
f 97/97/97 82/82/82 83/83/83
f 98/98/98 97/97/97 83/83/83
f 94/94/94 93/93/93 99/99/99
f 99/99/99 93/93/93 96/96/96
f 95/95/95 94/94/94 100/100/100
f 100/100/100 94/94/94 99/99/99
f 101/101/101 95/95/95 100/100/100
f 102/102/102 96/96/96 92/92/92
f 99/99/99 96/96/96 102/102/102
f 103/103/103 92/92/92 91/91/91
f 103/103/103 91/91/91 97/97/97
f 102/102/102 92/92/92 103/103/103
f 104/104/104 97/97/97 98/98/98
f 104/104/104 103/103/103 97/97/97
f 105/105/105 104/104/104 98/98/98
f 100/100/100 99/99/99 106/106/106
f 106/106/106 99/99/99 102/102/102
f 101/101/101 100/100/100 107/107/107
f 107/107/107 100/100/100 106/106/106
f 108/108/108 101/101/101 107/107/107
f 109/109/109 102/102/102 103/103/103
f 109/109/109 103/103/103 104/104/104
f 106/106/106 102/102/102 109/109/109
f 110/110/110 104/104/104 105/105/105
f 110/110/110 109/109/109 104/104/104
f 111/111/111 110/110/110 105/105/105
f 112/112/112 106/106/106 109/109/109
f 107/107/107 106/106/106 112/112/112
f 112/112/112 109/109/109 110/110/110
f 108/108/108 107/107/107 113/113/113
f 113/113/113 107/107/107 112/112/112
f 114/114/114 108/108/108 113/113/113
f 115/115/115 110/110/110 111/111/111
f 115/115/115 112/112/112 110/110/110
f 113/113/113 112/112/112 115/115/115
f 116/116/116 115/115/115 111/111/111
f 114/114/114 113/113/113 117/117/117
f 117/117/117 113/113/113 115/115/115
f 117/117/117 115/115/115 116/116/116
f 118/118/118 114/114/114 117/117/117
f 119/119/119 117/117/117 116/116/116
f 118/118/118 117/117/117 119/119/119
f 120/120/120 118/118/118 119/119/119
