g Plane001
v -0.175608277 0.370180458 -0.232671842
v -0.106755108 0.370180458 -0.232877254
v -0.175608277 0.000620856008 -0.232671842
v -0.106755108 0.000620856008 -0.232877254
v -0.107558355 0.370180488 -0.0562368892
v -0.107558355 0.000620868115 -0.0562368631
v 0.175608277 0.370180488 -0.0540517494
v 0.175608277 0.000620868115 -0.0540517271
v 0.174499229 0.370180488 0.0458592139
v 0.174499229 0.000620868115 0.0458592139
v -0.106693096 0.370180488 0.0459801368
v -0.106693096 0.000620868115 0.0459801368
v -0.109651253 0.370180488 0.232946247
v -0.109651253 0.000620880222 0.232946247
v -0.17441687 0.370180488 0.232946247
v -0.17441687 0.000620880222 0.232946247
v -0.175043583 0.370180458 -0.232947022
v -0.175043583 0.000620856008 -0.232947022
vt 0.0199999996 0.996161044
vt 0.0614093691 0.99616152
vt 0.020000523 0.00392575562
vt 0.0614099428 0.0039261803
vt 0.167644247 0.996162832
vt 0.167644948 0.00392766483
vt 0.337949336 0.99616462
vt 0.337950051 0.00393063389
vt 0.398040682 0.996164143
vt 0.398041427 0.00393232889
vt 0.567152619 0.996165812
vt 0.567153096 0.0039353054
vt 0.679610074 0.996166289
vt 0.679610193 0.00393657759
vt 0.718560696 0.996166289
vt 0.718560696 0.00393700227
vt 0.998753071 0.996164978
vt 0.998753011 0.00393657759
vn 0.00298334751 0 0.999995589
vn -0.707659423 0 0.706553757
vn 0.00298334705 0 0.999995589
vn -0.707659602 0 0.706553578
vn -0.711429477 0 0.702757478
vn -0.711429358 0 0.702757597
vn -0.713727951 0 0.700423002
vn -0.713728011 0 0.700423002
vn -0.703324378 0 -0.710868955
vn -0.703324378 0 -0.710869074
vn -0.701644421 0 -0.712527156
vn -0.70164454 0 -0.712527096
vn -0.701491296 0 -0.712677956
vn -0.701491416 0 -0.712677956
vn 0.706631124 0 -0.707582235
vn 0.706631005 0 -0.707582235
vn 0.999999166 0 -0.0013451695
vn 0.999999166 0 -0.0013451695
g Plane001_0
f 3/3/3 2/2/2 1/1/1
f 2/2/2 3/3/3 4/4/4
f 4/4/4 5/5/5 2/2/2
f 5/5/5 4/4/4 6/6/6
f 6/6/6 7/7/7 5/5/5
f 7/7/7 6/6/6 8/8/8
f 8/8/8 9/9/9 7/7/7
f 9/9/9 8/8/8 10/10/10
f 10/10/10 11/11/11 9/9/9
f 11/11/11 10/10/10 12/12/12
f 12/12/12 13/13/13 11/11/11
f 13/13/13 12/12/12 14/14/14
f 14/14/14 15/15/15 13/13/13
f 15/15/15 14/14/14 16/16/16
f 16/16/16 17/17/17 15/15/15
f 17/17/17 16/16/16 18/18/18
