g Plane001
v -0.16420126 0.558930337 0
v -0.282141268 0.392316401 0
v -0.35630098 0.563598633 0
v -0.167797968 0.387188464 0
v -0.213233694 0.211394235 0
v 0.0265722331 0.554935157 0
v -0.171394676 0.215446532 0
v 0.0229755361 0.383193225 0
v 0.21734567 0.550939918 0
v 0.0193788372 0.211451292 0
v 0.213748962 0.379197985 0
v 0.513207018 0.477172703 0
v 0.210152268 0.207456037 0
v 0.395160198 0.352380246 0
v 0.666461647 0.201948956 0
v 0.277113348 0.210357219 0
v 0.494705945 0.204811558 0
v 0.663281798 0.0111602321 0
v 0.322950214 0.152206868 0
v 0.491526097 0.0140228253 0
v 0.66010195 -0.179628596 0
v 0.319770366 0.0168854184 0
v 0.488346249 -0.176766008 0
v 0.601106346 -0.480122566 0
v 0.325856864 -0.173903406 0
v 0.475003064 -0.363477021 0
v 0.339435101 -0.659575701 0
v 0.325658232 -0.246831492 0
v 0.338491231 -0.487798721 0
v 0.148622721 -0.660624087 0
v 0.285714269 -0.311872154 0
v 0.147678837 -0.488847107 0
v -0.0421897434 -0.661672473 0
v 0.146734953 -0.317070097 0
v -0.0431336239 -0.489895523 0
v -0.233002201 -0.662720978 0
v -0.0308115389 -0.318118542 0
v -0.233946085 -0.490943968 0
v -0.496631026 -0.50212568 0
v -0.204243302 -0.319166958 0
v -0.379658788 -0.376325339 0
v -0.621077299 -0.215849489 0
v -0.26268661 -0.267790198 0
v -0.449297726 -0.215849489 0
v -0.62107724 -0.0250343364 0
v -0.277518123 -0.17740123 0
v -0.449297667 -0.0250343364 0
v -0.621077299 0.247847319 0
v -0.277518094 -0.0250343364 0
v -0.449297726 0.165781006 0
v -0.478797913 0.438804179 0
v -0.277518123 0.135236263 0
v -0.356134713 0.318546236 0
v -0.35630098 0.563598633 0
v -0.233471572 0.198288277 0
v -0.282141268 0.392316401 0
v -0.213233694 0.211394235 0
vt 0.055555556 1
vt 0 0.5
vt 0 1
vt 0.055555556 0.5
vt 0 0
vt 0.111111112 1
vt 0.055555556 0
vt 0.111111112 0.5
vt 0.166666672 1
vt 0.111111112 0
vt 0.166666672 0.5
vt 0.222222224 1
vt 0.166666672 0
vt 0.222222224 0.5
vt 0.277777791 1
vt 0.222222224 0
vt 0.277777791 0.5
vt 0.333333343 1
vt 0.277777791 0
vt 0.333333343 0.5
vt 0.388888896 1
vt 0.333333343 0
vt 0.388888896 0.5
vt 0.444444448 1
vt 0.388888896 0
vt 0.444444448 0.5
vt 0.5 1
vt 0.444444448 0
vt 0.5 0.5
vt 0.555555582 1
vt 0.5 0
vt 0.555555582 0.5
vt 0.611111164 1
vt 0.555555582 0
vt 0.611111164 0.5
vt 0.666666746 1
vt 0.611111164 0
vt 0.666666746 0.5
vt 0.722222328 1
vt 0.666666746 0
vt 0.722222328 0.5
vt 0.77777791 1
vt 0.722222328 0
vt 0.77777791 0.5
vt 0.833333492 1
vt 0.77777791 0
vt 0.833333492 0.5
vt 0.888889074 1
vt 0.833333492 0
vt 0.888889074 0.5
vt 0.944444656 1
vt 0.888889074 0
vt 0.944444656 0.5
vt 1.00000024 1
vt 0.944444656 0
vt 1.00000024 0.5
vt 1.00000024 0
vn -0 0 1
vn -0 0 1
vn -0 0 1
vn -0 0 1
vn -0 0 1
vn -0 0 1
vn -0 0 1
vn -0 0 1
vn -0 0 1
vn -0 0 1
vn -0 0 1
vn -0 0 1
vn -0 0 1
vn -0 0 1
vn -0 0 1
vn -0 0 1
vn -0 0 1
vn -0 0 1
vn -0 0 1
vn -0 0 1
vn -0 0 1
vn -0 0 1
vn -0 0 1
vn -0 0 1
vn -0 0 1
vn -0 0 1
vn -0 0 1
vn -0 0 1
vn -0 0 1
vn -0 0 1
vn -0 0 1
vn -0 0 1
vn -0 0 1
vn -0 0 1
vn -0 0 1
vn -0 0 1
vn -0 0 1
vn -0 0 1
vn -0 0 1
vn -0 0 1
vn -0 0 1
vn -0 0 1
vn -0 0 1
vn -0 0 1
vn -0 0 1
vn -0 0 1
vn -0 0 1
vn -0 0 1
vn -0 0 1
vn -0 0 1
vn -0 0 1
vn -0 0 1
vn -0 0 1
vn -0 0 1
vn -0 0 1
vn -0 0 1
vn -0 0 1
g Plane001_0
f 3/3/3 2/2/2 1/1/1
f 4/4/4 1/1/1 2/2/2
f 2/2/2 5/5/5 4/4/4
f 1/1/1 4/4/4 6/6/6
f 7/7/7 4/4/4 5/5/5
f 8/8/8 6/6/6 4/4/4
f 4/4/4 7/7/7 8/8/8
f 6/6/6 8/8/8 9/9/9
f 10/10/10 8/8/8 7/7/7
f 11/11/11 9/9/9 8/8/8
f 8/8/8 10/10/10 11/11/11
f 9/9/9 11/11/11 12/12/12
f 13/13/13 11/11/11 10/10/10
f 14/14/14 12/12/12 11/11/11
f 11/11/11 13/13/13 14/14/14
f 12/12/12 14/14/14 15/15/15
f 16/16/16 14/14/14 13/13/13
f 17/17/17 15/15/15 14/14/14
f 14/14/14 16/16/16 17/17/17
f 15/15/15 17/17/17 18/18/18
f 19/19/19 17/17/17 16/16/16
f 20/20/20 18/18/18 17/17/17
f 17/17/17 19/19/19 20/20/20
f 18/18/18 20/20/20 21/21/21
f 22/22/22 20/20/20 19/19/19
f 23/23/23 21/21/21 20/20/20
f 20/20/20 22/22/22 23/23/23
f 21/21/21 23/23/23 24/24/24
f 25/25/25 23/23/23 22/22/22
f 26/26/26 24/24/24 23/23/23
f 23/23/23 25/25/25 26/26/26
f 24/24/24 26/26/26 27/27/27
f 28/28/28 26/26/26 25/25/25
f 29/29/29 27/27/27 26/26/26
f 26/26/26 28/28/28 29/29/29
f 27/27/27 29/29/29 30/30/30
f 31/31/31 29/29/29 28/28/28
f 32/32/32 30/30/30 29/29/29
f 29/29/29 31/31/31 32/32/32
f 30/30/30 32/32/32 33/33/33
f 34/34/34 32/32/32 31/31/31
f 35/35/35 33/33/33 32/32/32
f 32/32/32 34/34/34 35/35/35
f 33/33/33 35/35/35 36/36/36
f 37/37/37 35/35/35 34/34/34
f 38/38/38 36/36/36 35/35/35
f 35/35/35 37/37/37 38/38/38
f 36/36/36 38/38/38 39/39/39
f 40/40/40 38/38/38 37/37/37
f 41/41/41 39/39/39 38/38/38
f 38/38/38 40/40/40 41/41/41
f 39/39/39 41/41/41 42/42/42
f 43/43/43 41/41/41 40/40/40
f 44/44/44 42/42/42 41/41/41
f 41/41/41 43/43/43 44/44/44
f 42/42/42 44/44/44 45/45/45
f 46/46/46 44/44/44 43/43/43
f 47/47/47 45/45/45 44/44/44
f 44/44/44 46/46/46 47/47/47
f 45/45/45 47/47/47 48/48/48
f 49/49/49 47/47/47 46/46/46
f 50/50/50 48/48/48 47/47/47
f 47/47/47 49/49/49 50/50/50
f 48/48/48 50/50/50 51/51/51
f 52/52/52 50/50/50 49/49/49
f 53/53/53 51/51/51 50/50/50
f 50/50/50 52/52/52 53/53/53
f 51/51/51 53/53/53 54/54/54
f 55/55/55 53/53/53 52/52/52
f 56/56/56 54/54/54 53/53/53
f 55/55/55 57/57/57 53/53/53
f 56/56/56 53/53/53 57/57/57
