g polySurface19
v 0.000510000216 0.00898376573 -0.00157378579
v 0.00224081147 0.00851999968 -0.0023159401
v 0.00397162884 0.00805622898 -0.00157378579
v -0.000206925499 0.0091758687 0.000218074289
v 0.00468855444 0.0078641288 0.000218074289
v 0.000510000216 0.00898376573 0.00200999482
v 0.00397162884 0.00805622898 0.00200999482
v 0.00224081147 0.00851999968 0.00275214924
v 0.00181449903 -0.000310237607 -0.00128769618
v 0.000360524107 7.93529689E-05 -0.00191141048
v -0.00109443185 0.000469205464 -0.00128769618
v 0.00241543748 -0.000471260661 0.000218074289
v -0.0016984042 0.000631039264 0.000218074289
v 0.00181449903 -0.000310237607 0.00172384479
v -0.00109443185 0.000469205464 0.00172384479
v 0.000360524107 7.93529689E-05 0.0023475592
v 0.000360524107 7.93529689E-05 -0.00191141048
v 0.00181449903 -0.000310237607 -0.00128769618
v 0.00332717923 0.00179274764 -0.00143261219
v 0.00174507499 0.00224531209 -0.00212014304
v -0.00109443185 0.000469205464 -0.00128769618
v 0.00251488015 0.00379564962 -0.0022574286
v 0.00419786852 0.00329389446 -0.00153115275
v 0.00451655686 0.0052515124 -0.00164723094
v 0.000140218996 0.00265374151 -0.00143326633
v -0.0016984042 0.000631039264 0.000218074289
v 0.00270710443 0.00581325451 -0.00241915579
v 0.00397162884 0.00805622898 -0.00157378579
v 0.00224081147 0.00851999968 -0.0023159401
v 0.000908903894 0.00628254376 -0.00164962898
v 0.000510000216 0.00898376573 -0.00157378579
v 0.000821621215 0.00423192466 -0.00153260608
v 0.000166174301 0.00648854207 0.000218074289
v -0.000206925499 0.0091758687 0.000218074289
v -0.000517553359 0.00283627049 0.000218074289
v -0.00109443185 0.000469205464 0.00172384479
v 0.000124679733 0.00442527141 0.000218074289
v 0.000908903894 0.00628254376 0.0020857777
v 0.000510000216 0.00898376573 0.00200999482
v 0.000140218996 0.00265374151 0.00186945114
v 0.000360524107 7.93529689E-05 0.0023475592
v 0.000821621215 0.00423192466 0.00196879101
v 0.00270710443 0.00581325451 0.00285534072
v 0.00224081147 0.00851999968 0.00275214924
v 0.00174507499 0.00224531209 0.00255629141
v 0.00181449903 -0.000310237607 0.00172384479
v 0.00251488015 0.00379564962 0.00269358931
v 0.00451655686 0.0052515124 0.00208339165
v 0.00397162884 0.00805622898 0.00200999482
v 0.00332717923 0.00179274764 0.0018687608
v 0.00241543748 -0.000471260661 0.000218074289
v 0.00419786852 0.00329389446 0.00196730136
v 0.00528416969 0.00504684588 0.000218074289
v 0.00468855444 0.0078641288 0.000218074289
v 0.00399618503 0.0016283734 0.000218074289
v 0.00181449903 -0.000310237607 -0.00128769618
v 0.00332717923 0.00179274764 -0.00143261219
v 0.00419786852 0.00329389446 -0.00153115275
v 0.00491140317 0.0031112195 0.000218074289
v 0.00451655686 0.0052515124 -0.00164723094
v 0.00397162884 0.00805622898 -0.00157378579
vt 0.271581799 0.026341239
vt 0.245237395 0
vt 0.207982913 0
vt 0.271583021 0.0635959506
vt 0.181640625 0.0263438206
vt 0.245240271 0.0899408311
vt 0.181641385 0.0635995939
vt 0.207985893 0.0899408907
vt 0.126605883 0
vt 0.104492188 0.0221478269
vt 0.104516432 0.0534634665
vt 0.1579009 0
vt 0.126661748 0.0756086409
vt 0.180069268 0.0220894199
vt 0.157979816 0.0755528882
vt 0.180100963 0.0533870347
vt 0.0499571115 0.80952394
vt 0.032257393 0.804042995
vt 0.0191888381 0.816969097
vt 0.0392857343 0.823562205
vt 0.0669542104 0.810923576
vt 0.0330675393 0.833003163
vt 0.0116397906 0.826038957
vt 0.0102876592 0.838653684
vt 0.0603869706 0.827079773
vt 0.0839005262 0.811629534
vt 0.0328849107 0.845938563
vt 0.0172417928 0.85918045
vt 0.0385467559 0.86493516
vt 0.0551510602 0.852775574
vt 0.0570400506 0.873115301
vt 0.0560707599 0.838178515
vt 0.0787359029 0.857303381
vt 0.0765847713 0.878531933
vt 0.0817501098 0.829556167
vt 0.100675419 0.814359426
vt 0.080328539 0.841839194
vt 0.102662221 0.858309984
vt 0.0968795568 0.877717733
vt 0.103083506 0.831540287
vt 0.118016079 0.8163324
vt 0.104606465 0.843557954
vt 0.125397399 0.856695652
vt 0.117108181 0.874058962
vt 0.1240495 0.832512498
vt 0.138063744 0.814883947
vt 0.127208903 0.843500257
vt 0.146805122 0.85365808
vt 0.140821651 0.872764826
vt 0.14443858 0.831331372
vt 0.15977104 0.810525894
vt 0.147595242 0.841768026
vt 0.168155625 0.851333141
vt 0.16747351 0.873030186
vt 0.164911464 0.828767419
vt 0.178723648 0.804043174
vt 0.184385613 0.823174417
vt 0.18762596 0.836736917
vt 0.166933373 0.839806736
vt 0.190100864 0.851764441
vt 0.191196576 0.874869108
vn 0.25881663 0.965926528 -2.92244818E-06
vn 0.258818328 0.965926051 1.41194175E-06
vn 0.258818716 0.965925932 3.5295102E-07
vn 0.258823365 0.96592474 0
vn 0.25881952 0.965925694 0
vn 0.2588166 0.965926528 2.92232926E-06
vn 0.258818716 0.965925932 -3.52936638E-07
vn 0.258818328 0.965926051 -1.41194175E-06
vn -0.258817792 -0.96592617 -1.89910452E-06
vn -0.258818239 -0.965926051 -7.39731433E-07
vn -0.258817732 -0.96592617 4.79883624E-07
vn -0.258822203 -0.965924919 0
vn -0.258818835 -0.965925813 0
vn -0.258817792 -0.96592617 1.89910452E-06
vn -0.258817732 -0.96592617 -4.79883624E-07
vn -0.258818239 -0.965926051 7.39731433E-07
vn -0.0892595574 -0.0388541855 -0.995250225
vn 0.542807758 -0.439749181 -0.715528011
vn 0.592571676 -0.429016471 -0.681765199
vn -0.0136587741 -0.0880414248 -0.996023178
vn -0.669685662 0.334301472 -0.663146675
vn 0.0204821248 -0.0893180147 -0.995792508
vn 0.67172718 -0.281123787 -0.685384691
vn 0.724835038 -0.00134156644 -0.688921154
vn -0.646637201 0.27463001 -0.711645067
vn -0.881567001 0.472058952 0
vn 0.0311371442 -0.00603285478 -0.999496937
vn 0.674912035 0.150047705 -0.722481549
vn -0.10403461 0.0199960414 -0.994372606
vn -0.703378499 -0.0446240827 -0.70941335
vn -0.771450222 -0.0962643996 -0.628965557
vn -0.67693305 0.109435253 -0.727863669
vn -0.997867823 -0.0652672127 0
vn -0.990499318 -0.137517706 -5.00473698E-06
vn -0.904717326 0.426012278 -3.90848345E-06
vn -0.669690728 0.334293425 0.663145721
vn -0.980287671 0.197575241 -3.85824933E-06
vn -0.703387856 -0.0446280465 0.709403813
vn -0.771452367 -0.0962789357 0.628960729
vn -0.646634459 0.274621964 0.71165061
vn -0.0892595574 -0.0388541855 0.995250225
vn -0.676928341 0.109440938 0.727867305
vn 0.0311330799 -0.00604285859 0.999496937
vn -0.104036771 0.019986758 0.994372606
vn -0.0136515703 -0.0880494267 0.996022463
vn 0.542807758 -0.439749181 0.715528011
vn 0.0204877164 -0.0893294513 0.995791316
vn 0.724838972 -0.00134856452 0.688917041
vn 0.67491287 0.150035426 0.722483218
vn 0.592571676 -0.429016471 0.681765199
vn 0.798898757 -0.601465464 0
vn 0.671728551 -0.281126261 0.685382187
vn 0.999994636 -0.00326866866 -1.10181315E-06
vn 0.978374243 0.20684281 -6.02602904E-06
vn 0.828017175 -0.560702801 0
vn 0.542807758 -0.439749181 -0.715528011
vn 0.592571676 -0.429016471 -0.681765199
vn 0.67172718 -0.281123787 -0.685384691
vn 0.933565497 -0.358406752 0
vn 0.724835038 -0.00134156644 -0.688921154
vn 0.674912035 0.150047705 -0.722481549
g polySurface19_0
f 3/3/3 2/2/2 1/1/1
f 1/1/1 4/4/4 3/3/3
f 4/4/4 5/5/5 3/3/3
f 4/4/4 6/6/6 5/5/5
f 6/6/6 7/7/7 5/5/5
f 6/6/6 8/8/8 7/7/7
f 11/11/11 10/10/10 9/9/9
f 9/9/9 12/12/12 11/11/11
f 12/12/12 13/13/13 11/11/11
f 12/12/12 14/14/14 13/13/13
f 14/14/14 15/15/15 13/13/13
f 14/14/14 16/16/16 15/15/15
f 19/19/19 18/18/18 17/17/17
f 20/20/20 19/19/19 17/17/17
f 20/20/20 17/17/17 21/21/21
f 19/19/19 20/20/20 22/22/22
f 23/23/23 19/19/19 22/22/22
f 24/24/24 23/23/23 22/22/22
f 25/25/25 20/20/20 21/21/21
f 25/25/25 21/21/21 26/26/26
f 27/27/27 24/24/24 22/22/22
f 28/28/28 24/24/24 27/27/27
f 29/29/29 28/28/28 27/27/27
f 29/29/29 27/27/27 30/30/30
f 27/27/27 22/22/22 30/30/30
f 31/31/31 29/29/29 30/30/30
f 22/22/22 20/20/20 32/32/32
f 22/22/22 32/32/32 30/30/30
f 20/20/20 25/25/25 32/32/32
f 31/31/31 30/30/30 33/33/33
f 30/30/30 32/32/32 33/33/33
f 34/34/34 31/31/31 33/33/33
f 35/35/35 25/25/25 26/26/26
f 35/35/35 26/26/26 36/36/36
f 32/32/32 25/25/25 37/37/37
f 32/32/32 37/37/37 33/33/33
f 25/25/25 35/35/35 37/37/37
f 34/34/34 33/33/33 38/38/38
f 33/33/33 37/37/37 38/38/38
f 39/39/39 34/34/34 38/38/38
f 40/40/40 35/35/35 36/36/36
f 40/40/40 36/36/36 41/41/41
f 37/37/37 35/35/35 42/42/42
f 37/37/37 42/42/42 38/38/38
f 35/35/35 40/40/40 42/42/42
f 39/39/39 38/38/38 43/43/43
f 38/38/38 42/42/42 43/43/43
f 44/44/44 39/39/39 43/43/43
f 45/45/45 40/40/40 41/41/41
f 45/45/45 41/41/41 46/46/46
f 42/42/42 40/40/40 47/47/47
f 42/42/42 47/47/47 43/43/43
f 40/40/40 45/45/45 47/47/47
f 44/44/44 43/43/43 48/48/48
f 43/43/43 47/47/47 48/48/48
f 49/49/49 44/44/44 48/48/48
f 50/50/50 45/45/45 46/46/46
f 50/50/50 46/46/46 51/51/51
f 47/47/47 45/45/45 52/52/52
f 47/47/47 52/52/52 48/48/48
f 45/45/45 50/50/50 52/52/52
f 49/49/49 48/48/48 53/53/53
f 53/53/53 48/48/48 52/52/52
f 54/54/54 49/49/49 53/53/53
f 55/55/55 50/50/50 51/51/51
f 50/50/50 55/55/55 52/52/52
f 55/55/55 51/51/51 56/56/56
f 57/57/57 55/55/55 56/56/56
f 55/55/55 57/57/57 58/58/58
f 55/55/55 59/59/59 52/52/52
f 59/59/59 55/55/55 58/58/58
f 59/59/59 53/53/53 52/52/52
f 59/59/59 58/58/58 60/60/60
f 53/53/53 59/59/59 60/60/60
f 54/54/54 53/53/53 60/60/60
f 61/61/61 54/54/54 60/60/60
