g polySurface9
v -9.5953139E-05 -0.00211178069 -0.00491862558
v 0.000980473589 -0.00211178069 -0.00563345104
v -0.000572732592 -0.000127377614 -0.00539248437
v 0.000858337327 -0.00211178069 0.004769288
v -0.00149237947 -0.00211178069 0.00205852231
v -9.5953139E-05 -0.00211178069 0.00413557561
v 0.000923910993 -0.00177717768 0.00494612288
v 0.00310594775 0.00211178069 0.000165560981
v 0.00289973244 0.00211178069 0.0011583477
v 0.00230879756 0.00211178069 0.00400329521
v 5.18988563E-05 0.00140199391 0.00563345058
v 0.000541164656 0.00211178069 0.00528930593
v 0.000980473589 -0.00211178069 -0.00563345104
v 0.00317668263 0.00211178069 -0.000174979723
v -0.00149237947 -0.00211178069 -0.00284160837
v -0.0019827506 -0.00211178069 -0.000391527894
v -9.5953139E-05 -0.00211178069 -0.00491862558
v 0.00203850167 -0.000566853851 -0.0048629255
v 0.00311294617 0.00211178069 -0.000391527894
v 0.00292734057 0.00211178069 -0.00102213444
v 0.00255631795 0.00211178069 -0.00228270655
v 0.0020523225 0.00211178069 -0.00399506092
v -0.00137825136 0.00140199391 -0.00510610733
v 0.000407969666 0.00211178069 -0.00441783341
v -0.000935552584 0.00211178069 -0.00476326095
v 0.0020523225 0.00211178069 -0.00399506092
v 0.00203850167 -0.000566853851 -0.0048629255
v 0.000980473589 -0.00211178069 -0.00563345104
v -0.000572732592 -0.000127377614 -0.00539248437
v -0.00260598026 0.00211178069 -0.000391527894
v -0.00259544328 0.00140199391 -0.00329566281
v -0.00206818013 0.00211178069 -0.00307858526
v -0.00317668193 0.00140199391 -0.000391527894
v -0.00206818013 0.00211178069 0.00229556579
v -0.00259544328 0.00140199391 0.00251263706
v -0.000536636042 0.00211178069 0.00457356358
v -0.000940184575 0.00140199391 0.00497462321
v 0.000541164656 0.00211178069 0.00528930593
v 5.18988563E-05 0.00140199391 0.00563345058
v -0.0019827506 -0.00211178069 -0.000391527894
v -0.00149237947 -0.00211178069 -0.00284160837
v -0.00317668193 0.00140199391 -0.000391527894
v -0.00149237947 -0.00211178069 0.00205852231
v -0.00259544328 0.00140199391 0.00251263706
v -9.5953139E-05 -0.00211178069 0.00413557561
v -0.000940184575 0.00140199391 0.00497462321
v 0.000858337327 -0.00211178069 0.004769288
v 0.000923910993 -0.00177717768 0.00494612288
v -0.00149237947 -0.00211178069 -0.00284160837
v -9.5953139E-05 -0.00211178069 -0.00491862558
v -0.000572732592 -0.000127377614 -0.00539248437
v -0.00137825136 0.00140199391 -0.00510610733
v -0.00259544328 0.00140199391 -0.00329566281
v -0.00206818013 0.00211178069 -0.00307858526
v -0.000935552584 0.00211178069 -0.00476326095
v 0.000541164656 0.00211178069 0.00528930593
v 0.00289973244 0.00211178069 0.0011583477
v 0.00230879756 0.00211178069 0.00400329521
v -0.000536636042 0.00211178069 0.00457356358
v 0.00310594775 0.00211178069 0.000165560981
v -0.00206818013 0.00211178069 0.00229556579
v 0.00317668263 0.00211178069 -0.000174979723
v 0.00311294617 0.00211178069 -0.000391527894
v -0.00260598026 0.00211178069 -0.000391527894
v 0.00292734057 0.00211178069 -0.00102213444
v -0.00206818013 0.00211178069 -0.00307858526
v -0.000935552584 0.00211178069 -0.00476326095
v 0.00255631795 0.00211178069 -0.00228270655
v 0.000407969666 0.00211178069 -0.00441783341
v 0.0020523225 0.00211178069 -0.00399506092
vt 0.447177351 0.95765996
vt 0.467269689 0.957660496
vt 0.447740346 0.932871938
vt 0.11500594 0.717702508
vt 0.169911385 0.678454041
vt 0.131821498 0.704184115
vt 0.111981086 0.724271357
vt 0.208211809 0.802680373
vt 0.189208657 0.800870657
vt 0.134461835 0.800789177
vt 0.083984375 0.781203508
vt 0.0935545936 0.795841098
vt 0.317099363 0.716063797
vt 0.214495674 0.803022444
vt 0.259905398 0.676383972
vt 0.214713961 0.668945312
vt 0.300455719 0.698721051
vt 0.296375096 0.746118784
vt 0.218557402 0.802624464
vt 0.230404466 0.801483393
vt 0.254226148 0.799269378
vt 0.287214667 0.796085119
vt 0.355345219 0.785939097
vt 0.319163054 0.79775846
vt 0.345266521 0.799125612
vt 0.287214667 0.796085119
vt 0.296375096 0.746118784
vt 0.317099363 0.716063797
vt 0.34296149 0.755647004
vt 0.36978367 0.900553405
vt 0.408878565 0.913474202
vt 0.40907672 0.901172996
vt 0.369668394 0.913001955
vt 0.330450147 0.9011572
vt 0.330421925 0.913457096
vt 0.291138679 0.901492417
vt 0.29112035 0.913769186
vt 0.272615135 0.901652455
vt 0.275348634 0.913890958
vt 0.369273454 0.958051562
vt 0.408181697 0.957692623
vt 0.369668394 0.913001955
vt 0.330366462 0.957694769
vt 0.330421925 0.913457096
vt 0.291318208 0.957668483
vt 0.29112035 0.913769186
vt 0.273438245 0.957655907
vt 0.271354198 0.953505695
vt 0.408181697 0.957692623
vt 0.447177351 0.95765996
vt 0.447740346 0.932871938
vt 0.437774569 0.913690209
vt 0.408878565 0.913474202
vt 0.40907672 0.901172996
vt 0.438142926 0.901407242
vt 0.125953406 0.577939689
vt 0.198372066 0.583229303
vt 0.15722093 0.566531539
vt 0.125953704 0.597634673
vt 0.212732419 0.589056313
vt 0.141982526 0.636330903
vt 0.217658177 0.591054976
vt 0.219872758 0.593699336
vt 0.17159909 0.665947139
vt 0.226321936 0.601400077
vt 0.210294902 0.681975126
vt 0.241269946 0.681975067
vt 0.23921369 0.616793752
vt 0.248219788 0.662068427
vt 0.256725699 0.637704372
vn -0.667645335 -0.320831209 -0.671801269
vn -0.109770738 0.0347045101 -0.993350923
vn 0.129173338 0.218556657 -0.967236936
vn 0.525045216 0.314957112 -0.790651321
vn -0 -1 0
vn -0 -1 0
vn 0.903777301 -0.235140175 0.357625037
vn 0.775036454 -0.611066341 0.160985589
vn 0.775036275 -0.611066639 0.160985723
vn 0.864146769 -0.195285797 0.463803589
vn 0.588256299 -0.0134565253 0.808562577
vn 0.588255882 -0.0134561034 0.808562875
vn 0.433173716 -0.621985912 0.652299047
vn 0.849805117 -0.519288599 0.0903918073
vn -0 -1 0
vn -0 -1 0
vn -0 -1 0
vn 0.874957442 -0.480219096 0.0619613416
vn 0.9557392 0.0862087458 -0.281301469
vn 0.9557392 0.0862089247 -0.281301588
vn 0.9557392 0.0862089097 -0.281301558
vn 0.731599927 0.206705928 -0.649641633
vn 0.23767221 0.298279464 -0.924414039
vn 0.237671986 0.298280269 -0.9244138
vn 0.237672433 0.298279375 -0.924414039
vn 0.731599927 0.206705928 -0.649641633
vn 0.237672791 0.298279315 -0.924413919
vn -0.109770738 0.0347045101 -0.993350923
vn 0.129173338 0.218556657 -0.967236936
vn -0.474171609 0.880432427 -6.77065259E-07
vn -0.967666388 0.161596745 -0.193670511
vn -0.437766165 0.880360723 -0.182553589
vn -0.779327989 0.62661624 -7.34525315E-07
vn -0.437767297 0.880359709 0.182555363
vn -0.719739854 0.626277626 0.299584717
vn -0.334489644 0.88017875 0.336752266
vn -0.55039227 0.625437856 0.553078592
vn -0.197234362 0.934283912 0.297005445
vn -0.542918444 0.1919927 0.817544103
vn -0.946834505 -0.321721137 1.16023386E-06
vn -0.874042749 -0.321459383 -0.364297986
vn -0.946834505 -0.321721137 -9.05383899E-07
vn -0.874042869 -0.321465045 0.36429292
vn -0.874164701 -0.321465433 0.364000142
vn -0.667647123 -0.320829183 0.671800554
vn -0.667966008 -0.320829958 0.67148304
vn -0.525045216 -0.314957112 0.790651321
vn -0.525055528 -0.314952374 0.790646315
vn -0.874042749 -0.321459383 -0.364297986
vn -0.667645335 -0.320831209 -0.671801269
vn -0.787461162 -0.315619856 -0.529423296
vn -0.825340867 0.104446456 -0.554890335
vn -0.819054961 0.160989806 -0.550664246
vn -0.437766165 0.880360723 -0.182553589
vn -0.331440955 0.916783929 -0.222831726
vn -0.197234362 0.934283912 0.297005445
vn -0 1 0
vn -0 1 0
vn -0.334489644 0.88017875 0.336752266
vn -0 1 0
vn -0.437767297 0.880359709 0.182555363
vn -0 1 0
vn -0 1 0
vn -0.474171609 0.880432427 -6.77065259E-07
vn -0 1 0
vn -0.437766165 0.880360723 -0.182553589
vn -0.331440955 0.916783929 -0.222831726
vn -0 1 0
vn -0 1 0
vn -0 1 0
g polySurface9_0
f 3/3/3 2/2/2 1/1/1
f 6/6/6 5/5/5 4/4/4
f 4/4/4 5/5/5 7/7/7
f 5/5/5 8/8/8 7/7/7
f 8/8/8 9/9/9 7/7/7
f 9/9/9 10/10/10 7/7/7
f 7/7/7 10/10/10 11/11/11
f 12/12/12 11/11/11 10/10/10
f 13/13/13 8/8/8 5/5/5
f 14/14/14 8/8/8 13/13/13
f 15/15/15 13/13/13 5/5/5
f 16/16/16 15/15/15 5/5/5
f 17/17/17 13/13/13 15/15/15
f 18/18/18 14/14/14 13/13/13
f 14/14/14 18/18/18 19/19/19
f 19/19/19 18/18/18 20/20/20
f 18/18/18 21/21/21 20/20/20
f 22/22/22 21/21/21 18/18/18
f 25/25/25 24/24/24 23/23/23
f 24/24/24 26/26/26 23/23/23
f 26/26/26 27/27/27 23/23/23
f 27/27/27 28/28/28 23/23/23
f 28/28/28 29/29/29 23/23/23
f 32/32/32 31/31/31 30/30/30
f 33/33/33 30/30/30 31/31/31
f 30/30/30 33/33/33 34/34/34
f 35/35/35 34/34/34 33/33/33
f 34/34/34 35/35/35 36/36/36
f 37/37/37 36/36/36 35/35/35
f 36/36/36 37/37/37 38/38/38
f 39/39/39 38/38/38 37/37/37
f 41/41/41 40/40/40 31/31/31
f 42/42/42 31/31/31 40/40/40
f 40/40/40 43/43/43 42/42/42
f 44/44/44 42/42/42 43/43/43
f 43/43/43 45/45/45 44/44/44
f 46/46/46 44/44/44 45/45/45
f 46/46/46 45/45/45 47/47/47
f 39/39/39 46/46/46 47/47/47
f 48/48/48 39/39/39 47/47/47
f 51/51/51 50/50/50 49/49/49
f 52/52/52 51/51/51 49/49/49
f 53/53/53 52/52/52 49/49/49
f 53/53/53 54/54/54 52/52/52
f 55/55/55 52/52/52 54/54/54
f 58/58/58 57/57/57 56/56/56
f 59/59/59 56/56/56 57/57/57
f 57/57/57 60/60/60 59/59/59
f 61/61/61 59/59/59 60/60/60
f 60/60/60 62/62/62 61/61/61
f 62/62/62 63/63/63 61/61/61
f 63/63/63 64/64/64 61/61/61
f 63/63/63 65/65/65 64/64/64
f 66/66/66 64/64/64 65/65/65
f 66/66/66 65/65/65 67/67/67
f 65/65/65 68/68/68 67/67/67
f 68/68/68 69/69/69 67/67/67
f 68/68/68 70/70/70 69/69/69
