g polySurface8
v 0.00306499028 0.00118781207 -0.00310102198
v 0.00434438884 0.00618383149 -0.00253881281
v 0.00365608139 0.00284582609 -0.00305475993
v 0.00306499028 0.00118781207 -0.00310102198
v 0.00436273078 0.0112637756 -0.000886302034
v 0.00434438884 0.00618383149 -0.00253881281
v -0.00240804208 0.00761334412 0.00362111605
v -0.00107407954 0.0112637756 0.00369552709
v -0.00363541418 -0.000212205428 0.000780490751
v -0 -0.000212205428 -0.00380188297
v 0.00306499028 0.00118781207 -0.00310102198
v 0.0022468043 -0.000212205428 -0.0028711895
v -0.00276674004 -0.000212205428 -0.00265581673
v 0.00436273078 0.0112637756 -0.000886302034
v -0.00107407954 0.0112637756 0.00369552709
v -0.00391276367 -0.000212205428 0.00011092316
v -0.00363541418 -0.000212205428 0.000780490751
v -0.00455722539 0.0112637756 -0.000416794152
v -0.0032224413 0.0112637756 0.00280567142
v -0 0.0112637756 -0.00497400155
v 0.00322242919 0.0112637756 -0.00363923539
v -0.0032224413 0.0112637756 -0.00363923539
v -0.00240804208 0.00761334412 0.00362111605
v -0.00390459667 0.00616868539 0.00277019665
v -0.00359874917 0.00720106997 0.00318195065
v -0.0040608882 0.00282362313 0.00165066647
v -0.00363541418 -0.000212205428 0.000780490751
v -0.0040608882 0.00282362313 0.00165066577
v -0.00359874917 0.00720107043 0.00318195019
v -0.00390459714 0.00616868539 0.00277019641
v -0.00240804162 0.0076133348 0.00362111256
v -0.00243167463 0.0030331579 0.0021371569
v -0.00363541418 -0.000212205428 0.000780490751
v -0.00194405182 0.00317547238 0.00383749651
v -0.002772643 -0.000184612785 0.00288062822
v -0.00204172404 0.00281497021 0.00377706997
v -0.00277587329 -0.000212205428 0.00285556517
v -0.00363541418 -0.000212205428 0.000780490751
v -0.00243167463 0.0030331579 0.0021371569
v -0.00243167463 0.0030331579 0.0021371569
v -0.00219572731 0.00616527442 0.00389868394
v -0.00240804162 0.0076133348 0.00362111256
v -0.00194405182 0.00317547238 0.00383749651
v 0.0036932095 0.00618782453 -0.00411005225
v 0.00436273078 0.0112637756 -0.000886302034
v 0.00322242919 0.0112637756 -0.00363923539
v 0.00434438884 0.00618383149 -0.00253881281
v 0.00365608139 0.00284582609 -0.00305475993
v 0.00341881369 0.00284869666 -0.0036291827
v 0.00306499028 0.00118781207 -0.00310102198
v 0.0022468043 -0.000212205428 -0.0028711895
v 0.00306499028 0.00118781207 -0.00310102198
v 0.00341881369 0.00284869666 -0.0036291827
v -0 0.00285093347 -0.00504596904
v -0 -0.000212205428 -0.00380188297
v -0.00276674004 -0.000212205428 -0.00265581673
v -0 0.00618550368 -0.00564000988
v 0.0036932095 0.00618782453 -0.00411005225
v 0.00322242919 0.0112637756 -0.00363923539
v -0 0.0112637756 -0.00497400155
v -0.0036932216 0.00618782453 -0.00411005225
v -0.0032224413 0.0112637756 -0.00363923539
v -0.00341883209 0.00284869666 -0.0036291827
v -0.00391276367 -0.000212205428 0.00011092316
v -0.00522382092 0.0061784382 -0.000416818366
v -0.00455722539 0.0112637756 -0.000416794152
v -0.00483187567 0.00283160107 -0.000208182842
v -0.00363541418 -0.000212205428 0.000780490751
v -0.0040608882 0.00282362313 0.00165066647
v -0.00390459667 0.00616868539 0.00277019665
v -0.0032224413 0.0112637756 0.00280567142
v -0.00359874917 0.00720106997 0.00318195065
v -0.00240804208 0.00761334412 0.00362111605
v -0.00107407954 0.0112637756 0.00369552709
v -0.00277587329 -0.000212205428 0.00285556517
v -0.0040608882 0.00282362313 0.00165066577
v -0.00341477455 0.00281693763 0.00320844492
v -0.002772643 -0.000184612785 0.00288062822
v -0.00204172404 0.00281497021 0.00377706997
v -0.00194405182 0.00317547238 0.00383749651
v -0.00369451777 0.00616713194 0.00327771134
v -0.00390459714 0.00616868539 0.00277019641
v -0.00219572731 0.00616527442 0.00389868394
v -0.00359874917 0.00720107043 0.00318195019
v -0.00240804162 0.0076133348 0.00362111256
vt 0.346892536 0.379297435
vt 0.408636779 0.382136106
vt 0.367802262 0.37929064
vt 0.346892536 0.379297435
vt 0.453123271 0.336914062
vt 0.408636779 0.382136106
vt 0.426673859 0.490501553
vt 0.465116978 0.516053975
vt 0.326835394 0.48624742
vt 0.318811357 0.408992708
vt 0.346892536 0.379297435
vt 0.327566177 0.381472737
vt 0.313476562 0.444152176
vt 0.453123271 0.336914062
vt 0.465116978 0.516053975
vt 0.324014604 0.478116661
vt 0.326835394 0.48624742
vt 0.514820814 0.475742191
vt 0.492146075 0.510403574
vt 0.491905957 0.396379113
vt 0.482958138 0.355938375
vt 0.506345093 0.435199708
vt 0.426673859 0.490501553
vt 0.404091805 0.504723966
vt 0.417733401 0.503584325
vt 0.36261943 0.498552531
vt 0.326835394 0.48624742
vt 0.439872801 0.130202651
vt 0.350774288 0.115500316
vt 0.371845603 0.122909054
vt 0.342041016 0.0911672935
vt 0.433763385 0.0980870277
vt 0.501233578 0.120153405
vt 0.396200657 0.0616047233
vt 0.464453936 0.0733020157
vt 0.403485358 0.0620286539
vt 0.465029955 0.0737366155
vt 0.472334623 0.116416611
vt 0.40486443 0.0943502337
vt 0.40486443 0.0943502337
vt 0.33930397 0.0749093145
vt 0.313142061 0.0874304995
vt 0.396200657 0.0616047233
vt 0.363033891 0.837304354
vt 0.345493019 0.866165757
vt 0.36169529 0.865559936
vt 0.354145378 0.838020384
vt 0.355436444 0.818705857
vt 0.358722627 0.818196774
vt 0.354525089 0.808981299
vt 0.215707868 0.801997483
vt 0.209522814 0.809007704
vt 0.205745935 0.81825453
vt 0.224474162 0.822835267
vt 0.228677809 0.805386662
vt 0.246262103 0.807544291
vt 0.22178179 0.840628803
vt 0.201102257 0.837561727
vt 0.201364994 0.866835475
vt 0.220948219 0.868030369
vt 0.241749972 0.842521191
vt 0.241174817 0.868918061
vt 0.243595779 0.824768782
vt 0.264239937 0.808136106
vt 0.261695504 0.842838943
vt 0.261576533 0.869876325
vt 0.262643546 0.825018942
vt 0.268560469 0.808085144
vt 0.272986233 0.824718237
vt 0.278893948 0.842454314
vt 0.282114297 0.8699103
vt 0.281730384 0.847975373
vt 0.288591444 0.849969625
vt 0.295791656 0.86961925
vt 0.281950295 0.807927132
vt 0.272986233 0.824718237
vt 0.281653762 0.824466228
vt 0.282088578 0.808076143
vt 0.289317876 0.824103594
vt 0.289983511 0.82599479
vt 0.281632692 0.842393041
vt 0.278893948 0.842454314
vt 0.289751917 0.841971278
vt 0.281730384 0.847975373
vt 0.288497746 0.849955857
vn 0.625021517 -0.243517101 0.741651893
vn 0.625021875 -0.243516788 0.741651714
vn 0.625020087 -0.243516669 0.741653204
vn 0.625021517 -0.243517101 0.741651893
vn 0.917173147 0.120271988 -0.379905254
vn 0.625021875 -0.243516788 0.741651714
vn 0.812870979 -0.307132006 0.494884521
vn -0.379902989 0.120130241 0.917192757
vn 0.876021206 -0.0197106767 -0.481869787
vn -0 1 0
vn 0.625021517 -0.243517101 0.741651893
vn -0.358292103 0.351385206 0.864959657
vn -0 1 0
vn 0.917173147 0.120271988 -0.379905254
vn -0.379902989 0.120130241 0.917192757
vn -0 1 0
vn 0.876021206 -0.0197106767 -0.481869787
vn -0 1 0
vn -0 1 0
vn -0 1 0
vn -0 1 0
vn -0 1 0
vn -0.342543066 -0.0113954637 0.939433038
vn -0.678566515 -0.134406254 0.722137451
vn -0.631507516 -0.0387107208 0.774402857
vn -0.658777416 -0.244346365 0.71155262
vn -0.868255079 -0.24529393 0.431235433
vn 0.237672865 0.298279524 -0.9244138
vn 0.237672076 0.298279613 -0.924414039
vn 0.237672046 0.298279613 -0.924414039
vn 0.517861366 0.261253089 -0.814595759
vn 0.505696237 0.263543785 -0.82147187
vn 0.876021206 -0.0197106767 -0.481869787
vn 0.961282849 -0.0444338955 -0.271957308
vn 0.937973022 -0.286786228 0.194833711
vn 0.937973022 -0.286786228 0.194833681
vn 0.898479044 0.232862994 -0.372169554
vn 0.876021206 -0.0197106767 -0.481869787
vn 0.937451243 -0.243858233 -0.248431519
vn 0.505696237 0.263543785 -0.82147187
vn 0.9557392 0.0862091184 -0.281301409
vn 0.517861366 0.261253089 -0.814595759
vn 0.961282849 -0.0444338955 -0.271957308
vn 0.703484714 -0.0136976447 -0.710578442
vn 0.917173147 0.120271988 -0.379905254
vn 0.701101363 0.130055398 -0.701100826
vn 0.923719466 0.0147454673 -0.382785738
vn 0.903672636 -0.208019152 -0.374304473
vn 0.684069574 -0.250252694 -0.685144067
vn 0.42818889 -0.355430722 -0.830856919
vn 0.358292103 -0.351385206 -0.864959657
vn 0.42818889 -0.355430722 -0.830856919
vn 0.684069574 -0.250252694 -0.685144067
vn 8.94256857E-07 -0.270751148 -0.962649345
vn -0 -0.376295507 -0.926499724
vn -0.674989462 -0.350298315 -0.649369061
vn 5.60200931E-07 -0.0221880581 -0.999753773
vn 0.703484714 -0.0136976447 -0.710578442
vn 0.701101363 0.130055398 -0.701100826
vn 6.7593453E-07 0.130035087 -0.991509438
vn -0.703485131 -0.013697031 -0.710577965
vn -0.701100349 0.130055398 -0.701101899
vn -0.68407017 -0.250253588 -0.685143113
vn -0.957735479 -0.286469787 0.026033463
vn -0.999952912 0.00623687217 -0.00743607571
vn -0.991517842 0.129970059 0
vn -0.979822695 -0.199859113 -0.00195268588
vn -0.868255079 -0.24529393 0.431235433
vn -0.658777416 -0.244346365 0.71155262
vn -0.678566515 -0.134406254 0.722137451
vn -0.701113701 0.129877016 0.701121688
vn -0.631507516 -0.0387107208 0.774402857
vn -0.342543066 -0.0113954637 0.939433038
vn -0.379902989 0.120130241 0.917192757
vn -0.898479044 -0.232862994 0.372169554
vn -0.910275042 -0.171492845 0.376815021
vn -0.700946867 -0.146271735 0.698053062
vn -0.846865952 -0.233363688 0.4778696
vn -0.380717725 -0.102816395 0.918957531
vn -0.382318079 -0.0510644801 0.922618687
vn -0.710664988 0.0273780767 0.702997625
vn -0.923949659 -0.00786786061 0.382433206
vn -0.382598728 0.0267563704 0.923527062
vn -0.514062881 0.126193807 0.848418832
vn -0.379876822 0.120116919 0.917205274
g polySurface8_0
f 3/3/3 2/2/2 1/1/1
f 6/6/6 5/5/5 4/4/4
f 9/9/9 8/8/8 7/7/7
f 12/12/12 11/11/11 10/10/10
f 10/10/10 11/11/11 13/13/13
f 11/11/11 14/14/14 13/13/13
f 14/14/14 15/15/15 13/13/13
f 13/13/13 15/15/15 16/16/16
f 16/16/16 15/15/15 17/17/17
f 18/18/18 15/15/15 14/14/14
f 19/19/19 15/15/15 18/18/18
f 20/20/20 18/18/18 14/14/14
f 21/21/21 20/20/20 14/14/14
f 22/22/22 18/18/18 20/20/20
f 25/25/25 24/24/24 23/23/23
f 24/24/24 26/26/26 23/23/23
f 26/26/26 27/27/27 23/23/23
f 30/30/30 29/29/29 28/28/28
f 29/29/29 31/31/31 28/28/28
f 31/31/31 32/32/32 28/28/28
f 32/32/32 33/33/33 28/28/28
f 36/36/36 35/35/35 34/34/34
f 35/35/35 37/37/37 34/34/34
f 37/37/37 38/38/38 34/34/34
f 38/38/38 39/39/39 34/34/34
f 42/42/42 41/41/41 40/40/40
f 43/43/43 40/40/40 41/41/41
f 46/46/46 45/45/45 44/44/44
f 47/47/47 44/44/44 45/45/45
f 47/47/47 48/48/48 44/44/44
f 49/49/49 44/44/44 48/48/48
f 49/49/49 48/48/48 50/50/50
f 53/53/53 52/52/52 51/51/51
f 54/54/54 53/53/53 51/51/51
f 55/55/55 54/54/54 51/51/51
f 55/55/55 56/56/56 54/54/54
f 54/54/54 57/57/57 53/53/53
f 58/58/58 53/53/53 57/57/57
f 58/58/58 57/57/57 59/59/59
f 60/60/60 59/59/59 57/57/57
f 57/57/57 61/61/61 60/60/60
f 57/57/57 54/54/54 61/61/61
f 62/62/62 60/60/60 61/61/61
f 63/63/63 54/54/54 56/56/56
f 63/63/63 61/61/61 54/54/54
f 56/56/56 64/64/64 63/63/63
f 61/61/61 65/65/65 62/62/62
f 61/61/61 63/63/63 65/65/65
f 66/66/66 62/62/62 65/65/65
f 67/67/67 63/63/63 64/64/64
f 67/67/67 65/65/65 63/63/63
f 64/64/64 68/68/68 67/67/67
f 69/69/69 67/67/67 68/68/68
f 69/69/69 70/70/70 67/67/67
f 65/65/65 67/67/67 70/70/70
f 66/66/66 65/65/65 70/70/70
f 71/71/71 66/66/66 70/70/70
f 72/72/72 71/71/71 70/70/70
f 72/72/72 73/73/73 71/71/71
f 74/74/74 71/71/71 73/73/73
f 76/76/76 68/68/68 75/75/75
f 77/77/77 76/76/76 75/75/75
f 78/78/78 77/77/77 75/75/75
f 77/77/77 78/78/78 79/79/79
f 77/77/77 79/79/79 80/80/80
f 77/77/77 81/81/81 76/76/76
f 81/81/81 77/77/77 80/80/80
f 82/82/82 76/76/76 81/81/81
f 83/83/83 81/81/81 80/80/80
f 84/84/84 82/82/82 81/81/81
f 81/81/81 83/83/83 84/84/84
f 85/85/85 84/84/84 83/83/83
