g shadow
v -0.843111098 1.40620255 -0.522403717
v -0.69941479 1.78165376 -0.627478182
v -0.841620862 1.74378538 -0.698741376
v -0.700024307 1.45352173 -0.428205669
v -0.84633702 1.19017792 -0.282993883
v -0.541457415 1.88053048 -0.464704424
v -0.702145278 1.2492367 -0.186077699
v -0.844898582 0.678671181 -0.130906582
v -0.540415227 1.56102216 -0.211988047
v -0.341964364 1.92153656 -0.35480544
v -0.701306999 0.750284851 -0.0338446684
v -0.835774124 0.155117691 -0.0168022625
v -0.337208092 1.60461187 -0.0853759944
v -0.156260997 1.92798972 -0.345258474
v -0.541307807 1.34918606 0.00586787704
v -0.693973899 0.2048067 0.0548426062
v -0.827158034 -0.351506948 -0.00499532698
v -0.147140622 1.60393476 -0.071661979
v 0.00216459646 1.92867291 -0.352750778
v -0.334051132 1.37589121 0.11917685
v -0.542564511 0.884171963 0.180973187
v -0.686490059 -0.296202481 0.0597845167
v -0.824432611 -0.93647331 0.00365740736
v 0.0101772854 1.59711242 -0.0666227192
v 0.159002692 1.92914164 -0.35923925
v -0.538988233 0.307546347 0.228475034
v -0.13630873 1.3177166 0.122108683
v -0.338950038 0.919567764 0.305402189
v -0.684633911 -0.87026763 0.0559226424
v -0.824373841 -1.48957145 0.0354448967
v -0.685278893 -1.40145504 0.090021506
v 0.159732878 1.59226787 -0.0673682392
v 0.342432588 1.92278516 -0.371805251
v -0.534392953 -0.177566946 0.216166809
v -0.53245008 -0.722679198 0.193847656
v -0.532204688 -1.20763099 0.235663906
v -0.342340529 0.337205917 0.341541499
v -0.338947892 -0.66893661 0.296020001
v -0.335534155 -1.1549145 0.318148017
v -0.342396736 -0.140045464 0.325095892
v -0.142378122 0.916531026 0.3093701
v -0.150429189 -0.666647911 0.313743502
v -0.146695301 -1.16863048 0.303967744
v -0.151544631 0.336473942 0.354984134
v -0.153546825 -0.137045637 0.34081459
v 0.0236594081 1.21610129 0.101856813
v 0.00844134577 -0.676080942 0.297664613
v 0.00791618321 -1.18820667 0.275968939
v 0.00962228049 -0.142264917 0.32694456
v 0.0211963784 0.898176253 0.290998638
v 0.0117713735 0.324611872 0.337502271
v 0.162914082 1.15730155 0.0883710012
v 0.157676801 -0.679981589 0.288685292
v 0.153304204 -1.18264353 0.28417027
v 0.162138149 -0.147190467 0.314575285
v 0.164537236 0.866492033 0.270339966
v 0.16296795 0.310935199 0.32257241
v 0.336558133 1.5935353 -0.0810776874
v 0.539758503 1.86613846 -0.480595529
v 0.335660875 -0.680131078 0.275219351
v 0.331194103 -1.16528404 0.302819222
v 0.339833915 -0.151222289 0.302200407
v 0.338383973 0.313466132 0.314162314
v 0.326687813 1.19809973 0.0910154432
v 0.534115434 1.56409943 -0.201037988
v 0.694973409 1.74814987 -0.653623939
v 0.32995972 0.866113484 0.266304284
v 0.531107903 -0.728438497 0.180840909
v 0.528238654 -1.21823859 0.237136856
v 0.534250677 -0.2196953 0.192624733
v 0.692511559 1.48404217 -0.372924119
v 0.835919857 1.70122325 -0.730978668
v 0.834556818 1.45220518 -0.446839809
v 0.526390314 1.27296638 0.000120983124
v 0.692102313 1.25262952 -0.160830796
v 0.835468352 1.21934855 -0.235081837
v 0.529486239 0.88191247 0.172732696
v 0.534594119 0.298914075 0.216813579
v 0.693863034 0.809129596 -0.0153352916
v 0.836262107 0.768292427 -0.0988788307
v 0.690053642 0.196907058 0.0488914661
v 0.829504371 0.150262311 -0.0142573444
v 0.68617475 -0.40292266 0.0109924264
v 0.823747754 -0.482483894 -0.0467195734
v 0.683489263 -0.875288963 0.0409934558
v 0.820640564 -0.933339238 6.0672759E-05
v 0.68116498 -1.38871658 0.122518763
v 0.818013608 -1.45647824 0.0912438482
vt 1 0.733333588
vt 0.900000036 0.800000191
vt 1 0.800000191
vt 0.900000036 0.733333528
vt 1 0.666666865
vt 0.800000012 0.800000191
vt 0.900000036 0.666666865
vt 1.00000012 0.600000262
vt 0.800000072 0.733333528
vt 0.700000048 0.800000191
vt 0.900000036 0.600000203
vt 1.00000012 0.53333354
vt 0.700000048 0.733333468
vt 0.600000024 0.800000191
vt 0.800000072 0.666666865
vt 0.900000095 0.53333354
vt 1.00000012 0.466666877
vt 0.600000024 0.733333468
vt 0.5 0.800000131
vt 0.700000048 0.666666865
vt 0.800000072 0.600000203
vt 0.900000095 0.466666877
vt 1.00000012 0.400000215
vt 0.5 0.733333468
vt 0.400000036 0.800000131
vt 0.800000072 0.53333354
vt 0.600000024 0.666666865
vt 0.700000048 0.600000143
vt 0.900000095 0.400000215
vt 1.00000012 0.333333552
vt 0.900000095 0.333333552
vt 0.400000036 0.733333468
vt 0.300000012 0.800000131
vt 0.800000072 0.466666818
vt 0.800000072 0.400000155
vt 0.800000072 0.333333492
vt 0.700000048 0.53333354
vt 0.700000048 0.400000155
vt 0.700000048 0.333333492
vt 0.700000048 0.466666818
vt 0.600000024 0.600000143
vt 0.600000083 0.400000155
vt 0.600000083 0.333333492
vt 0.600000024 0.53333354
vt 0.600000083 0.466666818
vt 0.50000006 0.666666806
vt 0.500000119 0.400000155
vt 0.500000119 0.333333492
vt 0.500000119 0.466666818
vt 0.50000006 0.600000143
vt 0.50000006 0.53333348
vt 0.400000036 0.666666806
vt 0.400000095 0.400000095
vt 0.400000095 0.333333433
vt 0.400000036 0.466666758
vt 0.400000036 0.600000143
vt 0.400000036 0.53333348
vt 0.300000012 0.733333468
vt 0.199999988 0.800000072
vt 0.300000072 0.400000095
vt 0.300000072 0.333333433
vt 0.300000012 0.466666758
vt 0.300000012 0.533333421
vt 0.300000012 0.666666746
vt 0.199999988 0.733333468
vt 0.0999999642 0.800000072
vt 0.300000012 0.600000143
vt 0.200000048 0.400000095
vt 0.200000048 0.333333433
vt 0.199999988 0.466666758
vt 0.0999999642 0.733333409
vt -1.1920929E-07 0.800000072
vt -1.1920929E-07 0.733333409
vt 0.199999988 0.666666746
vt 0.0999999642 0.666666746
vt -1.1920929E-07 0.666666746
vt 0.199999988 0.600000143
vt 0.199999988 0.533333421
vt 0.0999999642 0.600000083
vt 0 0.600000083
vt 0.0999999642 0.533333421
vt 0 0.533333421
vt 0.0999999642 0.466666758
vt 0 0.466666698
vt 0.100000024 0.400000095
vt 0 0.400000036
vt 0.100000024 0.333333433
vt 0 0.333333373
vn -0 -0.805147409 -0.59307462
vn -4.28004626E-07 -0.731628358 -0.681703687
vn -0 -0.731628358 -0.681703687
vn -2.86279857E-07 -0.805147588 -0.593074501
vn -0 -0.86396879 -0.503545403
vn -4.28004626E-07 -0.731628358 -0.681703687
vn -0 -0.86396879 -0.503545403
vn -0 -0.859393179 -0.511315227
vn -2.44166756E-07 -0.805147409 -0.59307462
vn 1.08848269E-07 -0.731628358 -0.681703687
vn -0 -0.859393179 -0.511315286
vn -0 -0.771579742 -0.636132658
vn 1.85251054E-07 -0.805147588 -0.593074501
vn 1.08848269E-07 -0.731628358 -0.681703687
vn -0 -0.86396879 -0.503545344
vn -0 -0.771579742 -0.636132658
vn 1.00470565E-07 -0.673992336 -0.738738358
vn 1.76828294E-07 -0.805147588 -0.593074501
vn -0 -0.731628358 -0.681703687
vn -0 -0.863968849 -0.503545344
vn -0 -0.859393179 -0.511315286
vn -0 -0.673992336 -0.738738358
vn -0 -0.586009383 -0.810304284
vn -0 -0.805147588 -0.593074501
vn 3.27036446E-07 -0.731628358 -0.681703687
vn -0 -0.771579683 -0.636132658
vn -0 -0.86396879 -0.503545403
vn -0 -0.859393179 -0.511315286
vn -0 -0.586009383 -0.810304284
vn -1.43158744E-07 -0.39420256 -0.919023573
vn -0 -0.39420256 -0.919023573
vn 2.6100787E-07 -0.805147588 -0.593074501
vn 3.27036588E-07 -0.731628537 -0.681703389
vn -0 -0.673992336 -0.738738358
vn -1.88744494E-07 -0.586009324 -0.810304284
vn -2.85461084E-07 -0.39420256 -0.919023573
vn -0 -0.771579742 -0.636132658
vn -0 -0.586009383 -0.810304284
vn -0 -0.39420256 -0.919023573
vn -0 -0.673992336 -0.738738358
vn -0 -0.859393179 -0.511315286
vn 1.97170777E-07 -0.586009383 -0.810304284
vn 2.85460118E-07 -0.39420256 -0.919023573
vn -0 -0.771579683 -0.636132658
vn -0 -0.673992336 -0.738738358
vn -0 -0.86396879 -0.503545403
vn -0 -0.586009383 -0.810304284
vn -1.47369292E-07 -0.39420256 -0.919023573
vn -0 -0.673992336 -0.738738358
vn -0 -0.859393179 -0.511315346
vn -0 -0.771579683 -0.636132658
vn -0 -0.86396879 -0.503545403
vn 1.97170735E-07 -0.586009383 -0.810304284
vn 2.85460146E-07 -0.39420256 -0.919023573
vn -0 -0.673992336 -0.738738358
vn -1.25780545E-07 -0.859393179 -0.511315286
vn -1.01674658E-07 -0.771579742 -0.636132658
vn 2.61007642E-07 -0.805147588 -0.593074501
vn -4.36377405E-07 -0.731628537 -0.681703389
vn -0 -0.586009383 -0.810304284
vn -0 -0.39420253 -0.919023573
vn -0 -0.673992336 -0.738738358
vn -0 -0.771579742 -0.636132658
vn -0 -0.86396867 -0.503545463
vn -2.9469885E-07 -0.805147529 -0.59307456
vn -4.36377405E-07 -0.731628537 -0.681703389
vn -0 -0.859393179 -0.511315286
vn -1.97171204E-07 -0.586009383 -0.810304284
vn -2.85460999E-07 -0.39420256 -0.919023573
vn -0 -0.673992336 -0.738738358
vn -2.6100841E-07 -0.805147529 -0.59307456
vn -0 -0.731628537 -0.681703389
vn -0 -0.805147588 -0.593074501
vn -0 -0.86396867 -0.503545463
vn -0 -0.86396879 -0.503545403
vn 1.50734806E-07 -0.86396879 -0.503545403
vn 1.00661616E-07 -0.859393179 -0.511315286
vn -0 -0.771579742 -0.636132658
vn -0 -0.859393179 -0.511315286
vn -0 -0.859393179 -0.511315286
vn -0 -0.771579742 -0.636132658
vn -0 -0.771579742 -0.636132658
vn -0 -0.673992336 -0.738738358
vn -0 -0.673992336 -0.738738358
vn -0 -0.586009383 -0.810304284
vn -0 -0.586009383 -0.810304284
vn -0 -0.39420256 -0.919023573
vn -1.51579826E-07 -0.39420256 -0.919023573
g shadow_0
f 3/3/3 2/2/2 1/1/1
f 2/2/2 4/4/4 1/1/1
f 1/1/1 4/4/4 5/5/5
f 2/2/2 6/6/6 4/4/4
f 4/4/4 7/7/7 5/5/5
f 5/5/5 7/7/7 8/8/8
f 6/6/6 9/9/9 4/4/4
f 4/4/4 9/9/9 7/7/7
f 6/6/6 10/10/10 9/9/9
f 7/7/7 11/11/11 8/8/8
f 8/8/8 11/11/11 12/12/12
f 10/10/10 13/13/13 9/9/9
f 10/10/10 14/14/14 13/13/13
f 9/9/9 15/15/15 7/7/7
f 7/7/7 15/15/15 11/11/11
f 9/9/9 13/13/13 15/15/15
f 11/11/11 16/16/16 12/12/12
f 12/12/12 16/16/16 17/17/17
f 14/14/14 18/18/18 13/13/13
f 14/14/14 19/19/19 18/18/18
f 13/13/13 20/20/20 15/15/15
f 13/13/13 18/18/18 20/20/20
f 15/15/15 21/21/21 11/11/11
f 11/11/11 21/21/21 16/16/16
f 15/15/15 20/20/20 21/21/21
f 16/16/16 22/22/22 17/17/17
f 17/17/17 22/22/22 23/23/23
f 19/19/19 24/24/24 18/18/18
f 19/19/19 25/25/25 24/24/24
f 21/21/21 26/26/26 16/16/16
f 16/16/16 26/26/26 22/22/22
f 18/18/18 27/27/27 20/20/20
f 18/18/18 24/24/24 27/27/27
f 20/20/20 28/28/28 21/21/21
f 21/21/21 28/28/28 26/26/26
f 20/20/20 27/27/27 28/28/28
f 22/22/22 29/29/29 23/23/23
f 23/23/23 29/29/29 30/30/30
f 29/29/29 31/31/31 30/30/30
f 25/25/25 32/32/32 24/24/24
f 25/25/25 33/33/33 32/32/32
f 26/26/26 34/34/34 22/22/22
f 22/22/22 34/34/34 29/29/29
f 29/29/29 35/35/35 31/31/31
f 34/34/34 35/35/35 29/29/29
f 35/35/35 36/36/36 31/31/31
f 28/28/28 37/37/37 26/26/26
f 26/26/26 37/37/37 34/34/34
f 35/35/35 38/38/38 36/36/36
f 38/38/38 39/39/39 36/36/36
f 34/34/34 40/40/40 35/35/35
f 37/37/37 40/40/40 34/34/34
f 40/40/40 38/38/38 35/35/35
f 28/28/28 41/41/41 37/37/37
f 27/27/27 41/41/41 28/28/28
f 38/38/38 42/42/42 39/39/39
f 42/42/42 43/43/43 39/39/39
f 37/37/37 44/44/44 40/40/40
f 41/41/41 44/44/44 37/37/37
f 40/40/40 45/45/45 38/38/38
f 45/45/45 42/42/42 38/38/38
f 44/44/44 45/45/45 40/40/40
f 27/27/27 46/46/46 41/41/41
f 24/24/24 46/46/46 27/27/27
f 24/24/24 32/32/32 46/46/46
f 42/42/42 47/47/47 43/43/43
f 47/47/47 48/48/48 43/43/43
f 45/45/45 49/49/49 42/42/42
f 49/49/49 47/47/47 42/42/42
f 41/41/41 50/50/50 44/44/44
f 46/46/46 50/50/50 41/41/41
f 44/44/44 51/51/51 45/45/45
f 51/51/51 49/49/49 45/45/45
f 50/50/50 51/51/51 44/44/44
f 32/32/32 52/52/52 46/46/46
f 46/46/46 52/52/52 50/50/50
f 47/47/47 53/53/53 48/48/48
f 53/53/53 54/54/54 48/48/48
f 49/49/49 55/55/55 47/47/47
f 55/55/55 53/53/53 47/47/47
f 50/50/50 56/56/56 51/51/51
f 52/52/52 56/56/56 50/50/50
f 51/51/51 57/57/57 49/49/49
f 57/57/57 55/55/55 49/49/49
f 56/56/56 57/57/57 51/51/51
f 32/32/32 58/58/58 52/52/52
f 33/33/33 58/58/58 32/32/32
f 33/33/33 59/59/59 58/58/58
f 53/53/53 60/60/60 54/54/54
f 60/60/60 61/61/61 54/54/54
f 55/55/55 62/62/62 53/53/53
f 62/62/62 60/60/60 53/53/53
f 57/57/57 63/63/63 55/55/55
f 63/63/63 62/62/62 55/55/55
f 52/52/52 64/64/64 56/56/56
f 58/58/58 64/64/64 52/52/52
f 59/59/59 65/65/65 58/58/58
f 58/58/58 65/65/65 64/64/64
f 59/59/59 66/66/66 65/65/65
f 56/56/56 67/67/67 57/57/57
f 64/64/64 67/67/67 56/56/56
f 67/67/67 63/63/63 57/57/57
f 60/60/60 68/68/68 61/61/61
f 68/68/68 69/69/69 61/61/61
f 62/62/62 70/70/70 60/60/60
f 70/70/70 68/68/68 60/60/60
f 66/66/66 71/71/71 65/65/65
f 66/66/66 72/72/72 71/71/71
f 72/72/72 73/73/73 71/71/71
f 65/65/65 74/74/74 64/64/64
f 64/64/64 74/74/74 67/67/67
f 65/65/65 71/71/71 74/74/74
f 71/71/71 73/73/73 75/75/75
f 71/71/71 75/75/75 74/74/74
f 73/73/73 76/76/76 75/75/75
f 74/74/74 77/77/77 67/67/67
f 74/74/74 75/75/75 77/77/77
f 67/67/67 77/77/77 63/63/63
f 63/63/63 78/78/78 62/62/62
f 77/77/77 78/78/78 63/63/63
f 78/78/78 70/70/70 62/62/62
f 75/75/75 76/76/76 79/79/79
f 75/75/75 79/79/79 77/77/77
f 77/77/77 79/79/79 78/78/78
f 76/76/76 80/80/80 79/79/79
f 79/79/79 81/81/81 78/78/78
f 79/79/79 80/80/80 81/81/81
f 78/78/78 81/81/81 70/70/70
f 80/80/80 82/82/82 81/81/81
f 81/81/81 83/83/83 70/70/70
f 81/81/81 82/82/82 83/83/83
f 70/70/70 83/83/83 68/68/68
f 82/82/82 84/84/84 83/83/83
f 83/83/83 85/85/85 68/68/68
f 83/83/83 84/84/84 85/85/85
f 68/68/68 85/85/85 69/69/69
f 84/84/84 86/86/86 85/85/85
f 85/85/85 87/87/87 69/69/69
f 85/85/85 86/86/86 87/87/87
f 86/86/86 88/88/88 87/87/87
