g char_mlyss_emitter_02
v -0.026312409 -0.0134543665 0
v -0.026312409 0.0210355297 0
v 0.0194204468 0.0210355297 0
v 0.0194204468 -0.0134543665 0
v -0.0256460048 -0.0937500075 0
v -0.0256460048 -0.0571840219 0
v 0.0215108283 -0.0571840219 0
v 0.0215108283 -0.0937500075 0
vt 0 0
vt 0 1
vt 1 1
vt 1 0
vt 0 0
vt 0 1
vt 1 1
vt 1 0
vn -0 0 1
vn -0 0 1
vn -0 0 1
vn -0 0 1
vn -0 0 1
vn -0 0 1
vn -0 0 1
vn -0 0 1
g char_mlyss_emitter_02_0
f 3/3/3 2/2/2 1/1/1
f 4/4/4 3/3/3 1/1/1
f 7/7/7 6/6/6 5/5/5
f 8/8/8 7/7/7 5/5/5
