g Cylinder001
v -0.2186414 0.438045412 -0.0454345569
v -0.170072749 -0.323099226 -0.0513643362
v -0.170072749 0.445086628 -0.0513644516
v -0.2186414 -0.33014074 -0.0454344302
v -0.260566652 0.429364532 -0.0381241031
v -0.260566652 -0.338821799 -0.0381239764
v -0.294574648 0.419307768 -0.029655287
v -0.294574648 -0.348878175 -0.0296551716
v -0.319632232 0.40818134 -0.0202854276
v -0.319632232 -0.360004812 -0.0202853065
v -0.334977806 0.396323144 -0.010299203
v -0.334977984 -0.371863008 -0.0102990828
v -0.340145499 0.384093076 -4.48421105E-08
v -0.340145499 -0.384092987 8.54905053E-08
v -0.334977806 0.371863186 0.0102991136
v -0.334977806 -0.396322846 0.0102992384
v -0.319632232 0.360005021 0.0202853344
v -0.319632232 -0.40818122 0.0202854648
v -0.294574648 0.348878354 0.0296551939
v -0.294574648 -0.419307768 0.0296553243
v -0.260566443 0.338822007 0.0381239988
v -0.260566562 -0.429364145 0.0381241366
v -0.218641207 0.330141127 0.0454344153
v -0.218641296 -0.438045114 0.0454345532
v -0.17007266 0.323099315 0.0513643287
v -0.17007266 -0.445086718 0.051364474
v -0.116336502 0.317911059 0.055733569
v -0.116336502 -0.450274974 0.0557337105
v -0.0590655804 0.314733744 0.0584093705
v -0.0590655804 -0.453452498 0.0584095158
v 9.68933094E-08 0.313663661 0.0593104288
v 9.68933094E-08 -0.454522491 0.0593105704
v 0.0590657741 0.314733535 0.0584093705
v 0.0590657741 -0.453452498 0.0584095083
v 0.116336696 0.317911267 0.055733569
v 0.116336696 -0.450274974 0.0557337105
v 0.170072854 0.323099524 0.0513643287
v 0.170072854 -0.445086718 0.051364474
v 0.2186414 0.330141127 0.0454344153
v 0.2186414 -0.438045025 0.0454345532
v 0.260566741 0.338822007 0.0381239913
v 0.260566652 -0.429364145 0.0381241255
v 0.294574738 0.348878354 0.029655179
v 0.294574738 -0.419307679 0.0296553113
v 0.319632411 0.360004812 0.0202853121
v 0.319632322 -0.40818122 0.0202854499
v 0.334977984 0.371863186 0.0102990931
v 0.334977984 -0.396322936 0.0102992225
v 0.340145618 0.384093076 -7.07382171E-08
v 0.340145618 -0.384092987 5.95943987E-08
v 0.334977984 0.396323144 -0.0102992756
v 0.334977984 -0.371862918 -0.0102991499
v 0.319632322 0.40818134 -0.020285489
v 0.319632322 -0.360004634 -0.020285368
v 0.294574648 0.419307768 -0.0296553727
v 0.294574648 -0.348878086 -0.0296552442
v 0.260566562 0.429364353 -0.0381241515
v 0.260566562 -0.338821709 -0.0381240398
v 0.218641296 0.438045204 -0.0454345793
v 0.218641296 -0.33014074 -0.0454344489
v 0.17007266 0.445086837 -0.0513644926
v 0.17007266 -0.323099226 -0.051364366
vt 0.111111164 0
vt 0.0833334327 1
vt 0.0833334327 0
vt 0.111111164 1
vt 0.138888985 0
vt 0.138888985 1
vt 0.166666746 0
vt 0.166666746 1
vt 0.194444537 0
vt 0.194444537 1
vt 0.222222298 0
vt 0.222222298 1
vt 0.25000006 0
vt 0.25000006 1
vt 0.277777851 0
vt 0.277777851 1
vt 0.305555642 0
vt 0.305555642 1
vt 0.333333373 0
vt 0.333333373 1
vt 0.361111164 0
vt 0.361111164 1
vt 0.388888925 0
vt 0.388888925 1
vt 0.416666687 0
vt 0.416666687 1
vt 0.444444478 0
vt 0.444444478 1
vt 0.472222239 0
vt 0.472222239 1
vt 0.5 0
vt 0.5 1
vt 0.527777791 0
vt 0.527777791 1
vt 0.555555582 0
vt 0.555555582 1
vt 0.583333313 0
vt 0.583333313 1
vt 0.611111104 0
vt 0.611111104 1
vt 0.638888896 0
vt 0.638888896 1
vt 0.666666687 0
vt 0.666666687 1
vt 0.694444418 0
vt 0.694444418 1
vt 0.722222209 0
vt 0.722222209 1
vt 0.75 0
vt 0.75 1
vt 0.77777791 0
vt 0.77777791 1
vt 0.805555642 0
vt 0.805555642 1
vt 0.833333433 0
vt 0.833333433 1
vt 0.861111224 0
vt 0.861111224 1
vt 0.888888955 0
vt 0.888888955 1
vt 0.916666746 0
vt 0.916666746 1
vn -0.143708482 0 -0.98962003
vn -0.12119323 0 -0.992628932
vn -0.121193208 0 -0.992628932
vn -0.149253488 0 -0.988799036
vn -0.201354444 0 -0.979518473
vn -0.212057665 0 -0.977257133
vn -0.284298867 0 -0.958735764
vn -0.307654738 0 -0.951498091
vn -0.418142438 0 -0.908381522
vn -0.47892651 0 -0.877854943
vn -0.65359813 0 -0.756841838
vn -0.814661503 0 -0.579936862
vn -0.967733264 0 -0.251976818
vn -0.967730999 0 0.251985461
vn -0.814658701 0 0.579940736
vn -0.653598905 0 0.756841183
vn -0.478928238 0 0.877854049
vn -0.418142736 0 0.908381283
vn -0.307654113 0 0.95149821
vn -0.284298182 0 0.958735883
vn -0.212056637 0 0.977257371
vn -0.201353624 0 0.979518592
vn -0.149253234 0 0.988799036
vn -0.143708333 0 0.989620149
vn -0.102642447 0 0.994718373
vn -0.0995881632 0 0.995028794
vn -0.0646829307 0 0.99790585
vn -0.0630270913 0 0.998011827
vn -0.0313291065 0 0.999509096
vn -0.0305941124 0 0.999531865
vn -0 0 1
vn -0 0 1
vn 0.0313291103 0 0.999509096
vn 0.0305941068 0 0.999531865
vn 0.0646829382 0 0.99790585
vn 0.0630270615 0 0.998011827
vn 0.102642491 0 0.994718373
vn 0.0995882079 0 0.995028794
vn 0.149253279 0 0.988799036
vn 0.143708378 0 0.98962003
vn 0.212057158 0 0.977257371
vn 0.201353982 0 0.979518592
vn 0.307654172 0 0.95149821
vn 0.284298539 0 0.958735764
vn 0.478927106 0 0.877854645
vn 0.418142438 0 0.908381522
vn 0.814662218 0 0.57993573
vn 0.653599083 0 0.756840885
vn 0.967733026 0 -0.251977444
vn 0.96773237 0 0.251980215
vn 0.653598368 0 -0.7568416
vn 0.814662397 0 -0.579935431
vn 0.418142051 0 -0.908381701
vn 0.478926063 0 -0.877855241
vn 0.284297913 0 -0.958735943
vn 0.307653755 0 -0.951498449
vn 0.201353505 0 -0.979518592
vn 0.212056577 0 -0.97725749
vn 0.143708244 0 -0.989620149
vn 0.14925313 0 -0.988799036
vn 0.121193513 0 -0.992628932
vn 0.121193528 0 -0.992628932
g Cylinder001_0
f 3/3/3 2/2/2 1/1/1
f 2/2/2 4/4/4 1/1/1
f 1/1/1 4/4/4 5/5/5
f 4/4/4 6/6/6 5/5/5
f 5/5/5 6/6/6 7/7/7
f 6/6/6 8/8/8 7/7/7
f 7/7/7 8/8/8 9/9/9
f 8/8/8 10/10/10 9/9/9
f 9/9/9 10/10/10 11/11/11
f 10/10/10 12/12/12 11/11/11
f 11/11/11 12/12/12 13/13/13
f 12/12/12 14/14/14 13/13/13
f 13/13/13 14/14/14 15/15/15
f 14/14/14 16/16/16 15/15/15
f 15/15/15 16/16/16 17/17/17
f 16/16/16 18/18/18 17/17/17
f 17/17/17 18/18/18 19/19/19
f 18/18/18 20/20/20 19/19/19
f 19/19/19 20/20/20 21/21/21
f 20/20/20 22/22/22 21/21/21
f 21/21/21 22/22/22 23/23/23
f 22/22/22 24/24/24 23/23/23
f 23/23/23 24/24/24 25/25/25
f 24/24/24 26/26/26 25/25/25
f 25/25/25 26/26/26 27/27/27
f 26/26/26 28/28/28 27/27/27
f 27/27/27 28/28/28 29/29/29
f 28/28/28 30/30/30 29/29/29
f 29/29/29 30/30/30 31/31/31
f 30/30/30 32/32/32 31/31/31
f 31/31/31 32/32/32 33/33/33
f 32/32/32 34/34/34 33/33/33
f 33/33/33 34/34/34 35/35/35
f 34/34/34 36/36/36 35/35/35
f 35/35/35 36/36/36 37/37/37
f 36/36/36 38/38/38 37/37/37
f 37/37/37 38/38/38 39/39/39
f 38/38/38 40/40/40 39/39/39
f 39/39/39 40/40/40 41/41/41
f 40/40/40 42/42/42 41/41/41
f 41/41/41 42/42/42 43/43/43
f 42/42/42 44/44/44 43/43/43
f 43/43/43 44/44/44 45/45/45
f 44/44/44 46/46/46 45/45/45
f 45/45/45 46/46/46 47/47/47
f 46/46/46 48/48/48 47/47/47
f 47/47/47 48/48/48 49/49/49
f 48/48/48 50/50/50 49/49/49
f 49/49/49 50/50/50 51/51/51
f 50/50/50 52/52/52 51/51/51
f 51/51/51 52/52/52 53/53/53
f 52/52/52 54/54/54 53/53/53
f 53/53/53 54/54/54 55/55/55
f 54/54/54 56/56/56 55/55/55
f 55/55/55 56/56/56 57/57/57
f 56/56/56 58/58/58 57/57/57
f 57/57/57 58/58/58 59/59/59
f 58/58/58 60/60/60 59/59/59
f 59/59/59 60/60/60 61/61/61
f 60/60/60 62/62/62 61/61/61
