g daoguang
v 13.3360233 1.98722228E-06 0
v 11.9677334 1.7833313E-06 0
v 11.6676779 -2.66306949 0
v 13.0016623 -2.96754241 0
v 10.7825556 -5.19260359 0
v 14.7043123 2.19111348E-06 0
v 12.0153418 -5.78628206 0
v 14.3356466 -3.27201509 0
v 13.2481289 -6.37996054 0
v 15.6696291 -3.57648826 0
v 14.4809151 -6.97363949 0
v 17.0036144 -3.88096094 0
v 15.7137012 -7.56731749 0
v 12.5660686 -10.021102 0
v 13.6358404 -10.874217 0
v 16.0726032 2.39500446E-06 0
v 15.6696291 -3.57648826 0
v 10.0211058 -12.5660658 0
v 10.8742208 -13.6358376 0
v 15.6696281 3.57649279 0
v 14.3356457 3.27201986 0
v 17.0036125 3.88096642 0
v 17.4408932 2.59889543E-06 0
v 17.0036144 -3.88096094 0
v 9.16799068 -11.496294 0
v 11.4962959 -9.16798782 0
v 6.37996435 -13.248127 0
v 6.9736433 -14.4809132 0
v 5.78628588 -12.0153408 0
v 8.3148756 -10.4265223 0
v 5.19260693 -10.7825546 0
v 7.461761 -9.35674953 0
v 4.59892797 -9.5497694 0
v 6.60864687 -8.28697872 0
v 9.3567524 -7.46175861 0
v 8.28698063 -6.60864449 0
v 5.75553226 -7.21720695 0
v 7.21720839 -5.75552988 0
v 9.5497694 -4.59892559 0
v 8.31698322 -4.00524664 0
v 4.00524902 -8.31698227 0
v 6.60864687 -8.28697872 0
v 5.75553226 -7.21720695 0
v 8.28698063 -6.60864449 0
v 10.7825556 -5.19260359 0
v 9.3567524 -7.46175861 0
v 12.0153418 -5.78628206 0
v 10.4265242 -8.31487274 0
v 10.4265242 -8.31487274 0
v 7.461761 -9.35674953 0
v 13.2481289 -6.37996054 0
v 8.3148756 -10.4265223 0
v 11.4962959 -9.16798782 0
v 9.16799068 -11.496294 0
v 14.4809151 -6.97363949 0
v 11.4962959 -9.16798782 0
v 12.5660686 -10.021102 0
v -8.3148756 -10.4265242 0
v -7.46176004 -9.35675144 0
v -9.35675144 -7.46175957 0
v -10.4265242 -8.3148737 0
v -10.7825556 -5.19260359 0
v -12.0153418 -5.78628206 0
v -9.16798973 -11.496295 0
v -10.4265242 -8.3148737 0
v -11.496295 -9.16798782 0
v -9.5497694 -4.59892559 0
v -9.35675144 -7.46175957 0
v -8.28697872 -6.60864544 0
v -8.31698322 -4.00524664 0
v -8.28697872 -6.60864544 0
v -7.21720743 -5.75553036 0
v -6.60864592 -8.28697968 0
v -5.75553083 -7.21720743 0
v -4.59892559 -9.5497694 0
v -4.00524664 -8.31698322 0
v -5.19260359 -10.7825556 0
v -7.46176004 -9.35675144 0
v -8.28697872 -6.60864544 0
v -9.35675144 -7.46175957 0
v -2.66306853 -11.6676779 0
v -2.35859585 -10.3336954 0
v -5.78628206 -12.0153418 0
v -8.3148756 -10.4265242 0
v -2.96754146 -13.0016623 0
v 2.33020387E-06 -11.9677334 0
v -6.37996054 -13.2481289 0
v -9.16798973 -11.496295 0
v -3.27201438 -14.3356466 0
v 2.86303543E-06 -14.7043123 0
v 2.59661965E-06 -13.3360233 0
v -2.66306853 -11.6676779 0
v 3.27201986 -14.3356457 0
v 2.96754646 -13.0016613 0
v 2.6630733 -11.6676769 0
v 2.06378809E-06 -10.5994444 0
v 2.35860014 -10.3336935 0
v 1.79737219E-06 -9.23115444 0
v 2.0541265 -8.99971008 0
v -4.00524664 -8.31698322 0
v -4.59892559 -9.5497694 0
v -2.05412316 -8.99971104 0
v 2.06378809E-06 -10.5994444 0
v 1.79737219E-06 -9.23115444 0
v 3.12945144E-06 -16.0726032 0
v -3.27201438 -14.3356466 0
v -3.57648706 -15.6696291 0
v 3.57649279 -15.6696281 0
v 3.27201986 -14.3356457 0
v 6.9736433 -14.4809132 0
v 6.37996435 -13.248127 0
v 3.88096642 -17.0036125 0
v 7.56732225 -15.7137003 0
v 10.8742208 -13.6358376 0
v 10.0211058 -12.5660658 0
v 3.39586722E-06 -17.4408932 0
v -3.57648706 -15.6696291 0
v -3.88095975 -17.0036144 0
v -6.97363949 -14.4809151 0
v -7.56731749 -15.7137012 0
v -6.37996054 -13.2481289 0
v -3.27201438 -14.3356466 0
v -10.0211039 -12.5660667 0
v -10.8742189 -13.6358395 0
v -12.5660667 -10.0211029 0
v -13.6358395 -10.874217 0
v -14.4809151 -6.97363949 0
v -15.7137012 -7.56731749 0
v -15.6696291 -3.57648706 0
v -17.0036144 -3.88095975 0
v -14.3356466 -3.27201438 0
v -16.0726032 5.23711924E-06 0
v -13.2481289 -6.37996054 0
v -17.4408932 5.682964E-06 0
v -11.496295 -9.16798782 0
v -9.16798973 -11.496295 0
v -6.97363949 -14.4809151 0
v -6.37996054 -13.2481289 0
v -15.6696281 3.57649708 0
v -17.0036125 3.88097048 0
v -14.3356457 3.27202368 0
v -14.7043123 4.79127357E-06 0
v -15.6696291 -3.57648706 0
v -14.3356466 -3.27201438 0
v -13.0016613 2.9675498 0
v -13.3360233 4.34542835E-06 0
v -11.6676769 2.66307616 0
v -11.9677334 3.89958268E-06 0
v -10.3336935 2.35860252 0
v -10.5994444 3.45373746E-06 0
v -8.99970913 2.05412889 0
v -10.5994444 3.45373746E-06 0
v -9.23115444 3.00789225E-06 0
v -10.3336954 -2.35859585 0
v -8.99971104 -2.05412316 0
v -9.5497694 -4.59892559 0
v -8.31698322 -4.00524664 0
v -10.3336954 -2.35859585 0
v -10.7825556 -5.19260359 0
v -11.6676779 -2.66306853 0
v -12.0153418 -5.78628206 0
v -13.0016623 -2.96754146 0
v -11.496295 -9.16798782 0
v -10.4265242 -8.3148737 0
v -14.3356466 -3.27201438 0
v -13.3360233 4.34542835E-06 0
v -14.7043123 4.79127357E-06 0
v -11.9677334 3.89958268E-06 0
v -11.6676779 -2.66306853 0
v -10.5994444 3.45373746E-06 0
v -10.3336954 -2.35859585 0
v 13.3360233 1.98722228E-06 0
v 14.7043123 2.19111348E-06 0
v 13.0016613 2.96754646 0
v 11.9677334 1.7833313E-06 0
v 11.6676779 2.6630733 0
v 10.5994444 1.57944044E-06 0
v 10.3336935 2.3585999 0
v 10.3336954 -2.35859656 0
v 11.6676779 -2.66306949 0
v 9.23115444 1.37554923E-06 0
v 10.5994444 1.57944044E-06 0
v 8.99971008 2.0541265 0
v 8.99971104 -2.05412364 0
v 10.5994444 1.57944044E-06 0
v 9.23115444 1.37554923E-06 0
v 10.3336954 -2.35859656 0
v 8.31698322 -4.00524664 0
v 9.5497694 -4.59892559 0
v 11.6676779 -2.66306949 0
v 10.3336954 -2.35859656 0
v 2.96754646 -13.0016613 0
v 3.27201986 -14.3356457 0
v 5.78628588 -12.0153408 0
v 2.6630733 -11.6676769 0
v 5.19260693 -10.7825546 0
v 2.35860014 -10.3336935 0
v 4.59892797 -9.5497694 0
v 2.0541265 -8.99971008 0
v 4.00524902 -8.31698227 0
vt 0.064996928 0.49999994
vt 0.0649969578 0.665869355
vt 0.127481997 0.665869236
vt 0.127481967 0.499999881
vt 0.189966977 0.665869236
vt 0.0649968982 0.334130526
vt 0.189966947 0.499999881
vt 0.127481937 0.334130466
vt 0.189966917 0.334130466
vt 0.127481908 0.168261081
vt 0.189966887 0.168261081
vt 0.127481878 0.0023917025
vt 0.189966857 0.00239169784
vt 0.252451867 0.168261081
vt 0.252451837 0.00239169318
vt 0.0649968684 0.168261126
vt 0.127481908 0.168261081
vt 0.314936846 0.168261066
vt 0.314936817 0.00239168806
vt 0.00251178932 0.168261111
vt 0.00251183915 0.334130526
vt 0.00251173973 0.00239171181
vt 0.0649968386 0.00239170715
vt 0.127481878 0.0023917025
vt 0.314936906 0.334130466
vt 0.252451926 0.334130466
vt 0.377421975 0.334130466
vt 0.377421945 0.168261066
vt 0.377422005 0.499999821
vt 0.314936936 0.499999821
vt 0.377422035 0.665869236
vt 0.314936966 0.665869236
vt 0.377422065 0.831738591
vt 0.314937025 0.831738591
vt 0.252451986 0.665869236
vt 0.252452046 0.831738591
vt 0.314937055 0.997607946
vt 0.252452075 0.997607946
vt 0.189967006 0.83173871
vt 0.189967036 0.997608066
vt 0.377422094 0.997607946
vt 0.314937025 0.831738591
vt 0.314937055 0.997607946
vt 0.252452046 0.831738591
vt 0.189966977 0.665869236
vt 0.252451986 0.665869236
vt 0.189966947 0.499999881
vt 0.252451956 0.499999821
vt 0.252451956 0.499999821
vt 0.314936966 0.665869236
vt 0.189966917 0.334130466
vt 0.314936936 0.499999821
vt 0.252451926 0.334130466
vt 0.314936906 0.334130466
vt 0.189966887 0.168261081
vt 0.252451926 0.334130466
vt 0.252451867 0.168261081
vt 0.689847112 0.499999791
vt 0.689847171 0.665869117
vt 0.752332151 0.665869117
vt 0.752332091 0.499999762
vt 0.814817071 0.665869057
vt 0.814817071 0.499999672
vt 0.689847052 0.334130377
vt 0.752332091 0.499999762
vt 0.752332032 0.334130377
vt 0.814817071 0.831738472
vt 0.752332151 0.665869117
vt 0.752332151 0.831738472
vt 0.814817131 0.997607887
vt 0.752332151 0.831738472
vt 0.752332211 0.997607887
vt 0.689847171 0.831738591
vt 0.689847231 0.997607946
vt 0.627362192 0.831738591
vt 0.627362251 0.997607946
vt 0.627362192 0.665869117
vt 0.689847171 0.665869117
vt 0.752332151 0.831738472
vt 0.752332151 0.665869117
vt 0.564877093 0.665869236
vt 0.564877093 0.831738591
vt 0.627362132 0.499999791
vt 0.689847112 0.499999791
vt 0.564877033 0.499999791
vt 0.502392054 0.665869236
vt 0.627362072 0.334130377
vt 0.689847052 0.334130377
vt 0.564876974 0.334130436
vt 0.502391994 0.334130436
vt 0.502392054 0.499999791
vt 0.564877093 0.665869236
vt 0.439906955 0.334130436
vt 0.439906985 0.499999791
vt 0.439907014 0.665869236
vt 0.502392113 0.831738591
vt 0.439907044 0.831738591
vt 0.502392173 0.997607946
vt 0.439907074 0.997607946
vt 0.627362251 0.997607946
vt 0.627362192 0.831738591
vt 0.564877152 0.997607946
vt 0.502392113 0.831738591
vt 0.502392173 0.997607946
vt 0.502391934 0.168261066
vt 0.564876974 0.334130436
vt 0.564876974 0.168261051
vt 0.439906925 0.168261066
vt 0.439906955 0.334130436
vt 0.377421945 0.168261066
vt 0.377421975 0.334130466
vt 0.439906895 0.00239167875
vt 0.377421916 0.0023916834
vt 0.314936817 0.00239168806
vt 0.314936846 0.168261066
vt 0.502391875 0.00239167409
vt 0.564876974 0.168261051
vt 0.564876914 0.00239166943
vt 0.627362072 0.168260992
vt 0.627362013 0.00239160517
vt 0.627362072 0.334130377
vt 0.564876974 0.334130436
vt 0.689847052 0.168260992
vt 0.689846992 0.00239160052
vt 0.752332032 0.168260977
vt 0.752331972 0.00239159586
vt 0.814817011 0.168260887
vt 0.814816952 0.00239147153
vt 0.87730211 0.168260887
vt 0.877302051 0.00239146687
vt 0.87730211 0.334130287
vt 0.93978709 0.168260872
vt 0.814817011 0.334130287
vt 0.93978703 0.00239146221
vt 0.752332032 0.334130377
vt 0.689847052 0.334130377
vt 0.627362072 0.168260992
vt 0.627362072 0.334130377
vt 1.00227201 0.168260872
vt 1.00227201 0.00239145756
vt 1.00227213 0.334130287
vt 0.93978709 0.334130287
vt 0.87730211 0.168260887
vt 0.87730211 0.334130287
vt 1.00227213 0.499999672
vt 0.939787149 0.499999672
vt 1.00227213 0.665869057
vt 0.939787149 0.665869057
vt 1.00227225 0.831738472
vt 0.939787149 0.831738472
vt 1.00227225 0.997607887
vt 0.939787149 0.831738472
vt 0.939787209 0.997607887
vt 0.87730217 0.831738472
vt 0.877302229 0.997607887
vt 0.814817071 0.831738472
vt 0.814817131 0.997607887
vt 0.87730217 0.831738472
vt 0.814817071 0.665869057
vt 0.87730217 0.665869057
vt 0.814817071 0.499999672
vt 0.87730217 0.499999672
vt 0.752332032 0.334130377
vt 0.752332091 0.499999762
vt 0.87730211 0.334130287
vt 0.939787149 0.499999672
vt 0.93978709 0.334130287
vt 0.939787149 0.665869057
vt 0.87730217 0.665869057
vt 0.939787149 0.831738472
vt 0.87730217 0.831738472
vt 0.064996928 0.49999994
vt 0.0649968982 0.334130526
vt 0.00251188874 0.49999994
vt 0.0649969578 0.665869355
vt 0.00251193834 0.665869355
vt 0.0649969876 0.83173877
vt 0.00251198816 0.83173877
vt 0.127482027 0.83173871
vt 0.127481997 0.665869236
vt 0.0649970174 0.997608185
vt 0.0649969876 0.83173877
vt 0.00251203775 0.997608185
vt 0.127482057 0.997608066
vt 0.0649969876 0.83173877
vt 0.0649970174 0.997608185
vt 0.127482027 0.83173871
vt 0.189967036 0.997608066
vt 0.189967006 0.83173871
vt 0.127481997 0.665869236
vt 0.127482027 0.83173871
vt 0.439906985 0.499999791
vt 0.439906955 0.334130436
vt 0.377422005 0.499999821
vt 0.439907014 0.665869236
vt 0.377422035 0.665869236
vt 0.439907044 0.831738591
vt 0.377422065 0.831738591
vt 0.439907074 0.997607946
vt 0.377422094 0.997607946
vn -0 0 -1
vn -0 0 -1
vn -0 0 -1
vn -0 0 -1
vn -0 0 -1
vn -0 0 -1
vn -0 0 -1
vn -0 0 -1
vn -0 0 -1
vn -0 0 -1
vn -0 0 -1
vn -0 0 -1
vn -0 0 -1
vn -0 0 -1
vn -0 0 -1
vn -0 0 -1
vn -0 0 -1
vn -0 0 -1
vn -0 0 -1
vn -0 0 -1
vn -0 0 -1
vn -0 0 -1
vn -0 0 -1
vn -0 0 -1
vn -0 0 -1
vn -0 0 -1
vn -0 0 -1
vn -0 0 -1
vn -0 0 -1
vn -0 0 -1
vn -0 0 -1
vn -0 0 -1
vn -0 0 -1
vn -0 0 -1
vn -0 0 -1
vn -0 0 -1
vn -0 0 -1
vn -0 0 -1
vn -0 0 -1
vn -0 0 -1
vn -0 0 -1
vn -0 0 -1
vn -0 0 -1
vn -0 0 -1
vn -0 0 -1
vn -0 0 -1
vn -0 0 -1
vn -0 0 -1
vn -0 0 -1
vn -0 0 -1
vn -0 0 -1
vn -0 0 -1
vn -0 0 -1
vn -0 0 -1
vn -0 0 -1
vn -0 0 -1
vn -0 0 -1
vn -0 0 -1
vn -0 0 -1
vn -0 0 -1
vn -0 0 -1
vn -0 0 -1
vn -0 0 -1
vn -0 0 -1
vn -0 0 -1
vn -0 0 -1
vn -0 0 -1
vn -0 0 -1
vn -0 0 -1
vn -0 0 -1
vn -0 0 -1
vn -0 0 -1
vn -0 0 -1
vn -0 0 -1
vn -0 0 -1
vn -0 0 -1
vn -0 0 -1
vn -0 0 -1
vn -0 0 -1
vn -0 0 -1
vn -0 0 -1
vn -0 0 -1
vn -0 0 -1
vn -0 0 -1
vn -0 0 -1
vn -0 0 -1
vn -0 0 -1
vn -0 0 -1
vn -0 0 -1
vn -0 0 -1
vn -0 0 -1
vn -0 0 -1
vn -0 0 -1
vn -0 0 -1
vn -0 0 -1
vn -0 0 -1
vn -0 0 -1
vn -0 0 -1
vn -0 0 -1
vn -0 0 -1
vn -0 0 -1
vn -0 0 -1
vn -0 0 -1
vn -0 0 -1
vn -0 0 -1
vn -0 0 -1
vn -0 0 -1
vn -0 0 -1
vn -0 0 -1
vn -0 0 -1
vn -0 0 -1
vn -0 0 -1
vn -0 0 -1
vn -0 0 -1
vn -0 0 -1
vn -0 0 -1
vn -0 0 -1
vn -0 0 -1
vn -0 0 -1
vn -0 0 -1
vn -0 0 -1
vn -0 0 -1
vn -0 0 -1
vn -0 0 -1
vn -0 0 -1
vn -0 0 -1
vn -0 0 -1
vn -0 0 -1
vn -0 0 -1
vn -0 0 -1
vn -0 0 -1
vn -0 0 -1
vn -0 0 -1
vn -0 0 -1
vn -0 0 -1
vn -0 0 -1
vn -0 0 -1
vn -0 0 -1
vn -0 0 -1
vn -0 0 -1
vn -0 0 -1
vn -0 0 -1
vn -0 0 -1
vn -0 0 -1
vn -0 0 -1
vn -0 0 -1
vn -0 0 -1
vn -0 0 -1
vn -0 0 -1
vn -0 0 -1
vn -0 0 -1
vn -0 0 -1
vn -0 0 -1
vn -0 0 -1
vn -0 0 -1
vn -0 0 -1
vn -0 0 -1
vn -0 0 -1
vn -0 0 -1
vn -0 0 -1
vn -0 0 -1
vn -0 0 -1
vn -0 0 -1
vn -0 0 -1
vn -0 0 -1
vn -0 0 -1
vn -0 0 -1
vn -0 0 -1
vn -0 0 -1
vn -0 0 -1
vn -0 0 -1
vn -0 0 -1
vn -0 0 -1
vn -0 0 -1
vn -0 0 -1
vn -0 0 -1
vn -0 0 -1
vn -0 0 -1
vn -0 0 -1
vn -0 0 -1
vn -0 0 -1
vn -0 0 -1
vn -0 0 -1
vn -0 0 -1
vn -0 0 -1
vn -0 0 -1
vn -0 0 -1
vn -0 0 -1
vn -0 0 -1
vn -0 0 -1
vn -0 0 -1
vn -0 0 -1
vn -0 0 -1
vn -0 0 -1
vn -0 0 -1
vn -0 0 -1
vn -0 0 -1
vn -0 0 -1
vn -0 0 -1
vn -0 0 -1
g daoguang_0
f 3/3/3 2/2/2 1/1/1
f 4/4/4 3/3/3 1/1/1
f 5/5/5 3/3/3 4/4/4
f 4/4/4 1/1/1 6/6/6
f 7/7/7 5/5/5 4/4/4
f 7/7/7 4/4/4 8/8/8
f 8/8/8 4/4/4 6/6/6
f 9/9/9 7/7/7 8/8/8
f 9/9/9 8/8/8 10/10/10
f 11/11/11 9/9/9 10/10/10
f 11/11/11 10/10/10 12/12/12
f 13/13/13 11/11/11 12/12/12
f 14/14/14 11/11/11 13/13/13
f 15/15/15 14/14/14 13/13/13
f 8/8/8 6/6/6 16/16/16
f 17/17/17 8/8/8 16/16/16
f 18/18/18 14/14/14 15/15/15
f 19/19/19 18/18/18 15/15/15
f 16/16/16 6/6/6 20/20/20
f 6/6/6 21/21/21 20/20/20
f 16/16/16 20/20/20 22/22/22
f 23/23/23 16/16/16 22/22/22
f 17/17/17 16/16/16 23/23/23
f 24/24/24 17/17/17 23/23/23
f 18/18/18 25/25/25 14/14/14
f 25/25/25 26/26/26 14/14/14
f 27/27/27 25/25/25 18/18/18
f 28/28/28 27/27/27 18/18/18
f 27/27/27 29/29/29 25/25/25
f 29/29/29 30/30/30 25/25/25
f 29/29/29 31/31/31 30/30/30
f 31/31/31 32/32/32 30/30/30
f 32/32/32 31/31/31 33/33/33
f 34/34/34 32/32/32 33/33/33
f 35/35/35 32/32/32 34/34/34
f 36/36/36 35/35/35 34/34/34
f 36/36/36 34/34/34 37/37/37
f 38/38/38 36/36/36 37/37/37
f 39/39/39 36/36/36 38/38/38
f 40/40/40 39/39/39 38/38/38
f 42/42/42 33/33/33 41/41/41
f 43/43/43 42/42/42 41/41/41
f 39/39/39 45/45/45 44/44/44
f 45/45/45 46/46/46 44/44/44
f 46/46/46 45/45/45 47/47/47
f 48/48/48 46/46/46 47/47/47
f 50/50/50 35/35/35 49/49/49
f 49/49/49 47/47/47 51/51/51
f 52/52/52 50/50/50 49/49/49
f 53/53/53 49/49/49 51/51/51
f 52/52/52 49/49/49 53/53/53
f 54/54/54 52/52/52 53/53/53
f 56/56/56 51/51/51 55/55/55
f 57/57/57 56/56/56 55/55/55
f 60/60/60 59/59/59 58/58/58
f 61/61/61 60/60/60 58/58/58
f 62/62/62 60/60/60 61/61/61
f 63/63/63 62/62/62 61/61/61
f 65/65/65 58/58/58 64/64/64
f 66/66/66 65/65/65 64/64/64
f 68/68/68 62/62/62 67/67/67
f 69/69/69 68/68/68 67/67/67
f 71/71/71 67/67/67 70/70/70
f 72/72/72 71/71/71 70/70/70
f 73/73/73 71/71/71 72/72/72
f 74/74/74 73/73/73 72/72/72
f 75/75/75 73/73/73 74/74/74
f 76/76/76 75/75/75 74/74/74
f 75/75/75 77/77/77 73/73/73
f 77/77/77 78/78/78 73/73/73
f 73/73/73 78/78/78 79/79/79
f 78/78/78 80/80/80 79/79/79
f 81/81/81 77/77/77 75/75/75
f 82/82/82 81/81/81 75/75/75
f 78/78/78 77/77/77 83/83/83
f 84/84/84 78/78/78 83/83/83
f 77/77/77 81/81/81 85/85/85
f 83/83/83 77/77/77 85/85/85
f 86/86/86 81/81/81 82/82/82
f 84/84/84 83/83/83 87/87/87
f 88/88/88 84/84/84 87/87/87
f 87/87/87 83/83/83 89/89/89
f 83/83/83 85/85/85 89/89/89
f 89/89/89 85/85/85 90/90/90
f 85/85/85 91/91/91 90/90/90
f 85/85/85 92/92/92 91/91/91
f 92/92/92 86/86/86 91/91/91
f 90/90/90 91/91/91 93/93/93
f 91/91/91 94/94/94 93/93/93
f 91/91/91 86/86/86 94/94/94
f 86/86/86 95/95/95 94/94/94
f 95/95/95 86/86/86 96/96/96
f 96/96/96 86/86/86 82/82/82
f 97/97/97 95/95/95 96/96/96
f 97/97/97 96/96/96 98/98/98
f 99/99/99 97/97/97 98/98/98
f 82/82/82 101/101/101 100/100/100
f 102/102/102 82/82/82 100/100/100
f 103/103/103 82/82/82 102/102/102
f 104/104/104 103/103/103 102/102/102
f 106/106/106 90/90/90 105/105/105
f 107/107/107 106/106/106 105/105/105
f 105/105/105 90/90/90 108/108/108
f 90/90/90 109/109/109 108/108/108
f 108/108/108 109/109/109 110/110/110
f 109/109/109 111/111/111 110/110/110
f 105/105/105 108/108/108 112/112/112
f 112/112/112 108/108/108 113/113/113
f 108/108/108 110/110/110 113/113/113
f 113/113/113 110/110/110 114/114/114
f 110/110/110 115/115/115 114/114/114
f 116/116/116 105/105/105 112/112/112
f 117/117/117 105/105/105 116/116/116
f 118/118/118 117/117/117 116/116/116
f 119/119/119 117/117/117 118/118/118
f 120/120/120 119/119/119 118/118/118
f 119/119/119 121/121/121 117/117/117
f 121/121/121 122/122/122 117/117/117
f 123/123/123 119/119/119 120/120/120
f 124/124/124 123/123/123 120/120/120
f 125/125/125 123/123/123 124/124/124
f 126/126/126 125/125/125 124/124/124
f 127/127/127 125/125/125 126/126/126
f 128/128/128 127/127/127 126/126/126
f 129/129/129 127/127/127 128/128/128
f 130/130/130 129/129/129 128/128/128
f 129/129/129 131/131/131 127/127/127
f 132/132/132 129/129/129 130/130/130
f 131/131/131 133/133/133 127/127/127
f 127/127/127 133/133/133 125/125/125
f 134/134/134 132/132/132 130/130/130
f 125/125/125 135/135/135 123/123/123
f 133/133/133 135/135/135 125/125/125
f 135/135/135 136/136/136 123/123/123
f 123/123/123 136/136/136 137/137/137
f 136/136/136 138/138/138 137/137/137
f 139/139/139 132/132/132 134/134/134
f 140/140/140 139/139/139 134/134/134
f 139/139/139 141/141/141 132/132/132
f 141/141/141 142/142/142 132/132/132
f 132/132/132 142/142/142 143/143/143
f 142/142/142 144/144/144 143/143/143
f 141/141/141 145/145/145 142/142/142
f 145/145/145 146/146/146 142/142/142
f 145/145/145 147/147/147 146/146/146
f 147/147/147 148/148/148 146/146/146
f 148/148/148 147/147/147 149/149/149
f 150/150/150 148/148/148 149/149/149
f 152/152/152 149/149/149 151/151/151
f 153/153/153 152/152/152 151/151/151
f 154/154/154 152/152/152 153/153/153
f 155/155/155 154/154/154 153/153/153
f 156/156/156 154/154/154 155/155/155
f 157/157/157 156/156/156 155/155/155
f 156/156/156 159/159/159 158/158/158
f 159/159/159 160/160/160 158/158/158
f 160/160/160 159/159/159 161/161/161
f 162/162/162 160/160/160 161/161/161
f 162/162/162 161/161/161 133/133/133
f 133/133/133 161/161/161 163/163/163
f 161/161/161 164/164/164 163/163/163
f 165/165/165 162/162/162 133/133/133
f 166/166/166 162/162/162 165/165/165
f 167/167/167 166/166/166 165/165/165
f 166/166/166 168/168/168 162/162/162
f 168/168/168 169/169/169 162/162/162
f 169/169/169 168/168/168 170/170/170
f 171/171/171 169/169/169 170/170/170
f 173/173/173 172/172/172 21/21/21
f 172/172/172 174/174/174 21/21/21
f 172/172/172 175/175/175 174/174/174
f 175/175/175 176/176/176 174/174/174
f 176/176/176 175/175/175 177/177/177
f 178/178/178 176/176/176 177/177/177
f 177/177/177 175/175/175 179/179/179
f 175/175/175 180/180/180 179/179/179
f 178/178/178 182/182/182 181/181/181
f 183/183/183 178/178/178 181/181/181
f 186/186/186 185/185/185 184/184/184
f 185/185/185 187/187/187 184/184/184
f 184/184/184 187/187/187 188/188/188
f 187/187/187 189/189/189 188/188/188
f 190/190/190 5/5/5 189/189/189
f 191/191/191 190/190/190 189/189/189
f 193/193/193 192/192/192 111/111/111
f 192/192/192 194/194/194 111/111/111
f 192/192/192 195/195/195 194/194/194
f 195/195/195 196/196/196 194/194/194
f 196/196/196 195/195/195 197/197/197
f 198/198/198 196/196/196 197/197/197
f 198/198/198 197/197/197 199/199/199
f 200/200/200 198/198/198 199/199/199
