g general_ring_52_4
v -0.240484849 -0.0478354432 6.51193841E-06
v -0.245196208 -3.18914317E-08 6.51193841E-06
v -0.245279029 -4.32059188E-08 0.0487790816
v -0.24056609 -0.0478516109 0.0487790816
v -0.245196208 -3.18914317E-08 0.0975516513
v -0.226531789 -0.0938325673 6.51193841E-06
v -0.240484849 -0.0478354432 0.0975516513
v -0.226608306 -0.093864277 0.0487790816
v -0.203873232 -0.136223763 6.51193841E-06
v -0.226531789 -0.0938325673 0.0975516513
v -0.203942105 -0.136269778 0.0487790816
v -0.173379943 -0.173379973 6.51193841E-06
v -0.203873232 -0.136223763 0.0975516513
v -0.173438519 -0.173438534 0.0487790816
v -0.136223763 -0.203873292 6.51193841E-06
v -0.173379943 -0.173379973 0.0975516513
v -0.136269778 -0.20394215 0.0487790816
v -0.0938325673 -0.226531863 6.51193841E-06
v -0.136223763 -0.203873292 0.0975516513
v -0.0938642696 -0.226608381 0.0487790816
v -0.0478354394 -0.240484953 6.51193841E-06
v -0.0938325673 -0.226531863 0.0975516513
v -0.0478516035 -0.240566179 0.0487790816
v -2.1360778E-08 -0.245196342 6.51193841E-06
v -0.0478354394 -0.240484953 0.0975516513
v -2.37681803E-08 -0.245279178 0.0487790816
v 0.0478354022 -0.240484983 6.51193841E-06
v -2.1360778E-08 -0.245196342 0.0975516513
v 0.047851555 -0.240566209 0.0487790816
v 0.0938325375 -0.226531908 6.51193841E-06
v 0.0478354022 -0.240484983 0.0975516513
v 0.0938642323 -0.226608425 0.0487790816
v 0.136223748 -0.203873351 6.51193841E-06
v 0.0938325375 -0.226531908 0.0975516513
v 0.136269763 -0.203942209 0.0487790816
v 0.173379958 -0.173380047 6.51193841E-06
v 0.136223748 -0.203873351 0.0975516513
v 0.173438504 -0.173438609 0.0487790816
v 0.203873262 -0.136223853 6.51193841E-06
v 0.173379958 -0.173380047 0.0975516513
v 0.20394212 -0.136269853 0.0487790816
v 0.226531833 -0.0938326642 6.51193841E-06
v 0.203873262 -0.136223853 0.0975516513
v 0.226608351 -0.0938643515 0.0487790816
v 0.240484923 -0.0478355326 6.51193841E-06
v 0.226531833 -0.0938326642 0.0975516513
v 0.240566164 -0.0478516854 0.0487790816
v 0.245196313 -1.06397238E-07 6.51193841E-06
v 0.240484923 -0.0478355326 0.0975516513
v 0.245279118 -1.01685004E-07 0.0487790816
v 0.240484953 0.0478353277 6.51193841E-06
v 0.245196313 -1.06397238E-07 0.0975516513
v 0.240566164 0.0478514843 0.0487790816
v 0.226531878 0.0938324705 6.51193841E-06
v 0.240484953 0.0478353277 0.0975516513
v 0.226608366 0.0938641652 0.0487790816
v 0.203873321 0.136223704 6.51193841E-06
v 0.226531878 0.0938324705 0.0975516513
v 0.20394215 0.136269689 0.0487790816
v 0.173380017 0.173379928 6.51193841E-06
v 0.203873321 0.136223704 0.0975516513
v 0.173438549 0.173438445 0.0487790816
v 0.136223808 0.203873247 6.51193841E-06
v 0.173380017 0.173379928 0.0975516513
v 0.136269793 0.20394206 0.0487790816
v 0.0938325971 0.226531833 6.51193841E-06
v 0.136223808 0.203873247 0.0975516513
v 0.0938642696 0.226608291 0.0487790816
v 0.0478354469 0.240484938 6.51193841E-06
v 0.0938325971 0.226531833 0.0975516513
v 0.0478515886 0.24056609 0.0487790816
v -0 0.245196328 6.51193841E-06
v 0.0478354432 0.240484923 0.0975516513
v 8.44167403E-10 0.245279059 0.0487790816
v -0.0478353351 0.240484715 6.51193841E-06
v -0 0.245196313 0.0975516513
v -0.047851488 0.240565926 0.0487790816
v -0.0938324481 0.226531655 6.51193841E-06
v -0.0478353351 0.240484715 0.0975516513
v -0.0938641429 0.226608157 0.0487790816
v -0.136223644 0.203873113 6.51193841E-06
v -0.0938324481 0.226531655 0.0975516513
v -0.136269659 0.203941971 0.0487790816
v -0.173379838 0.173379838 6.51193841E-06
v -0.136223644 0.203873113 0.0975516513
v -0.173438385 0.1734384 0.0487790816
v -0.203873143 0.136223674 6.51193841E-06
v -0.173379838 0.173379838 0.0975516513
v -0.203942001 0.136269674 0.0487790816
v -0.226531714 0.0938324854 6.51193841E-06
v -0.203873143 0.136223674 0.0975516513
v -0.226608232 0.0938641801 0.0487790816
v -0.240484804 0.0478353761 6.51193841E-06
v -0.226531714 0.0938324854 0.0975516513
v -0.240566045 0.0478515252 0.0487790816
v -0.245196208 -3.18914317E-08 6.51193841E-06
v -0.240484804 0.0478353761 0.0975516513
v -0.245279029 -4.32059188E-08 0.0487790816
v -0.245196208 -3.18914317E-08 0.0975516513
vt 0.970703125 0.994140625
vt 1.00195312 0.994140625
vt 1.00195312 0.498046875
vt 0.966796875 0.498046875
vt 1.00195312 0.005859375
vt 0.935546875 0.994140625
vt 0.970703125 0.005859375
vt 0.935546875 0.498046875
vt 0.904296875 0.994140625
vt 0.935546875 0.005859375
vt 0.904296875 0.498046875
vt 0.876953125 0.994140625
vt 0.904296875 0.005859375
vt 0.876953125 0.498046875
vt 0.841796875 0.994140625
vt 0.876953125 0.005859375
vt 0.841796875 0.498046875
vt 0.814453125 0.994140625
vt 0.841796875 0.005859375
vt 0.814453125 0.498046875
vt 0.783203125 0.994140625
vt 0.814453125 0.005859375
vt 0.783203125 0.498046875
vt 0.751953125 0.994140625
vt 0.783203125 0.005859375
vt 0.751953125 0.498046875
vt 0.720703125 0.994140625
vt 0.751953125 0.005859375
vt 0.720703125 0.498046875
vt 0.689453125 0.994140625
vt 0.720703125 0.005859375
vt 0.689453125 0.498046875
vt 0.658203125 0.994140625
vt 0.689453125 0.005859375
vt 0.658203125 0.498046875
vt 0.626953125 0.994140625
vt 0.658203125 0.005859375
vt 0.626953125 0.498046875
vt 0.595703125 0.994140625
vt 0.626953125 0.005859375
vt 0.595703125 0.498046875
vt 0.564453125 0.994140625
vt 0.595703125 0.005859375
vt 0.564453125 0.498046875
vt 0.533203125 0.994140625
vt 0.564453125 0.005859375
vt 0.533203125 0.498046875
vt 0.501953125 0.994140625
vt 0.533203125 0.005859375
vt 0.501953125 0.498046875
vt 0.470703125 0.994140625
vt 0.501953125 0.005859375
vt 0.470703125 0.498046875
vt 0.439453125 0.994140625
vt 0.470703125 0.005859375
vt 0.439453125 0.498046875
vt 0.408203125 0.994140625
vt 0.439453125 0.005859375
vt 0.408203125 0.498046875
vt 0.376953125 0.994140625
vt 0.408203125 0.005859375
vt 0.376953125 0.498046875
vt 0.341796875 0.994140625
vt 0.376953125 0.005859375
vt 0.345703125 0.498046875
vt 0.310546875 0.994140625
vt 0.341796875 0.005859375
vt 0.310546875 0.498046875
vt 0.279296875 0.994140625
vt 0.310546875 0.005859375
vt 0.279296875 0.498046875
vt 0.248046875 0.994140625
vt 0.279296875 0.005859375
vt 0.248046875 0.498046875
vt 0.220703125 0.994140625
vt 0.248046875 0.005859375
vt 0.220703125 0.498046875
vt 0.185546875 0.994140625
vt 0.220703125 0.005859375
vt 0.185546875 0.498046875
vt 0.154296875 0.994140625
vt 0.185546875 0.005859375
vt 0.154296875 0.498046875
vt 0.123046875 0.994140625
vt 0.154296875 0.005859375
vt 0.123046875 0.498046875
vt 0.091796875 0.994140625
vt 0.123046875 0.005859375
vt 0.091796875 0.498046875
vt 0.060546875 0.994140625
vt 0.091796875 0.005859375
vt 0.060546875 0.498046875
vt 0.029296875 0.994140625
vt 0.060546875 0.005859375
vt 0.029296875 0.498046875
vt -0.001953125 0.994140625
vt 0.029296875 0.005859375
vt -0.001953125 0.498046875
vt -0.001953125 0.005859375
vn -0.980783939 -0.195089713 -0.00169827393
vn -0.999998569 0 -0.00169821875
vn -1 0 0
vn -0.98078537 -0.195090026 0
vn -0.999998569 0 0.00169821875
vn -0.923878312 -0.382682711 -0.00169829931
vn -0.980783939 -0.195089713 0.00169827393
vn -0.923879623 -0.382683247 0
vn -0.831468523 -0.555569232 -0.00169829791
vn -0.923878312 -0.382682711 0.00169829943
vn -0.831469774 -0.555570006 0
vn -0.707106054 -0.707105458 -0.0016982446
vn -0.831468523 -0.555569232 0.00169829791
vn -0.707107067 -0.707106411 0
vn -0.555569708 -0.831468225 -0.00169814727
vn -0.707106054 -0.707105458 0.0016982446
vn -0.555570543 -0.831469476 0
vn -0.382683069 -0.923878074 -0.00169812562
vn -0.555569708 -0.831468225 0.00169814727
vn -0.382683605 -0.923879445 0
vn -0.195090383 -0.98078388 -0.00169818255
vn -0.382683069 -0.923878074 0.00169812562
vn -0.195090652 -0.980785251 0
vn -0 -0.999998569 -0.00169822201
vn -0.195090383 -0.98078388 0.00169818255
vn -0 -1 0
vn 0.195089906 -0.980783939 -0.00169814215
vn -0 -0.999998569 0.00169822201
vn 0.195090175 -0.98078537 0
vn 0.382682711 -0.923878312 -0.00169807544
vn 0.195089906 -0.980783939 0.00169814215
vn 0.382683188 -0.923879623 0
vn 0.555569291 -0.831468523 -0.00169801747
vn 0.382682711 -0.923878312 0.00169807544
vn 0.555570126 -0.831469715 0
vn 0.707105756 -0.707105756 -0.00169791095
vn 0.555569291 -0.831468523 0.00169801747
vn 0.707106709 -0.707106829 0
vn 0.831468284 -0.555569649 -0.00169791281
vn 0.707105756 -0.707105756 0.00169791095
vn 0.831469536 -0.555570364 0
vn 0.923878074 -0.382683158 -0.00169807381
vn 0.831468284 -0.55556953 0.00169791258
vn 0.923879445 -0.382683694 0
vn 0.98078388 -0.195090219 -0.00169812224
vn 0.923878074 -0.382683158 0.0016980737
vn 0.980785251 -0.195090503 0
vn 0.999998569 0 -0.00169790827
vn 0.98078388 -0.195090219 0.00169812224
vn 1 0 0
vn 0.980783939 0.195089892 -0.00169770699
vn 0.999998569 0 0.00169790827
vn 0.98078537 0.195090175 0
vn 0.923878193 0.382682741 -0.00169752841
vn 0.980783939 0.195089892 0.00169770699
vn 0.923879504 0.382683277 0
vn 0.831468642 0.555569232 -0.00169723609
vn 0.923878193 0.382682711 0.00169752829
vn 0.831469774 0.555569947 0
vn 0.707105875 0.707105637 -0.00169700605
vn 0.831468642 0.555569172 0.00169723609
vn 0.707106888 0.70710665 0
vn 0.55556953 0.831468403 -0.00169690477
vn 0.707105875 0.707105637 0.00169700605
vn 0.555570304 0.831469536 0
vn 0.382683069 0.923878193 -0.00169674389
vn 0.55556953 0.831468403 0.00169690477
vn 0.382683605 0.923879445 0
vn 0.195090219 0.98078388 -0.00169649941
vn 0.382682979 0.923878193 0.00169682864
vn 0.195090488 0.980785251 0
vn -0 0.999998569 -0.00169668172
vn 0.195090145 0.98078388 0.0016967362
vn -0 1 0
vn -0.195092082 0.980783522 -0.00169737719
vn -0 0.999998569 0.00169690966
vn -0.195092306 0.980784893 0
vn -0.382682502 0.923878372 -0.00169785914
vn -0.195091993 0.980783522 0.0016974532
vn -0.382683069 0.923879743 0
vn -0.555568993 0.831468701 -0.00169794902
vn -0.382682502 0.923878312 0.00169785903
vn -0.555569887 0.831469893 0
vn -0.707105517 0.707105994 -0.00169789605
vn -0.555568993 0.831468701 0.00169794902
vn -0.707106471 0.707107067 0
vn -0.831468105 0.555569768 -0.00169792736
vn -0.707105517 0.707105994 0.00169789605
vn -0.831469357 0.555570543 0
vn -0.923878074 0.382683218 -0.00169810315
vn -0.831468105 0.555569768 0.00169792736
vn -0.923879445 0.382683814 0
vn -0.980783761 0.195090488 -0.00169819966
vn -0.923878074 0.382683218 0.00169810327
vn -0.980785251 0.195090756 0
vn -0.999998569 0 -0.00169821875
vn -0.980783761 0.195090488 0.00169819978
vn -1 0 0
vn -0.999998569 0 0.00169821875
g general_ring_52_4_0
f 3/3/3 2/2/2 1/1/1
f 4/4/4 3/3/3 1/1/1
f 5/5/5 3/3/3 4/4/4
f 4/4/4 1/1/1 6/6/6
f 7/7/7 5/5/5 4/4/4
f 8/8/8 4/4/4 6/6/6
f 7/7/7 4/4/4 8/8/8
f 8/8/8 6/6/6 9/9/9
f 10/10/10 7/7/7 8/8/8
f 11/11/11 8/8/8 9/9/9
f 10/10/10 8/8/8 11/11/11
f 11/11/11 9/9/9 12/12/12
f 13/13/13 10/10/10 11/11/11
f 14/14/14 11/11/11 12/12/12
f 13/13/13 11/11/11 14/14/14
f 14/14/14 12/12/12 15/15/15
f 16/16/16 13/13/13 14/14/14
f 17/17/17 14/14/14 15/15/15
f 16/16/16 14/14/14 17/17/17
f 17/17/17 15/15/15 18/18/18
f 19/19/19 16/16/16 17/17/17
f 20/20/20 17/17/17 18/18/18
f 19/19/19 17/17/17 20/20/20
f 20/20/20 18/18/18 21/21/21
f 22/22/22 19/19/19 20/20/20
f 23/23/23 20/20/20 21/21/21
f 22/22/22 20/20/20 23/23/23
f 23/23/23 21/21/21 24/24/24
f 25/25/25 22/22/22 23/23/23
f 26/26/26 23/23/23 24/24/24
f 25/25/25 23/23/23 26/26/26
f 26/26/26 24/24/24 27/27/27
f 28/28/28 25/25/25 26/26/26
f 29/29/29 26/26/26 27/27/27
f 28/28/28 26/26/26 29/29/29
f 29/29/29 27/27/27 30/30/30
f 31/31/31 28/28/28 29/29/29
f 32/32/32 29/29/29 30/30/30
f 31/31/31 29/29/29 32/32/32
f 32/32/32 30/30/30 33/33/33
f 34/34/34 31/31/31 32/32/32
f 35/35/35 32/32/32 33/33/33
f 34/34/34 32/32/32 35/35/35
f 35/35/35 33/33/33 36/36/36
f 37/37/37 34/34/34 35/35/35
f 38/38/38 35/35/35 36/36/36
f 37/37/37 35/35/35 38/38/38
f 38/38/38 36/36/36 39/39/39
f 40/40/40 37/37/37 38/38/38
f 41/41/41 38/38/38 39/39/39
f 40/40/40 38/38/38 41/41/41
f 41/41/41 39/39/39 42/42/42
f 43/43/43 40/40/40 41/41/41
f 44/44/44 41/41/41 42/42/42
f 43/43/43 41/41/41 44/44/44
f 44/44/44 42/42/42 45/45/45
f 46/46/46 43/43/43 44/44/44
f 47/47/47 44/44/44 45/45/45
f 46/46/46 44/44/44 47/47/47
f 47/47/47 45/45/45 48/48/48
f 49/49/49 46/46/46 47/47/47
f 50/50/50 47/47/47 48/48/48
f 49/49/49 47/47/47 50/50/50
f 50/50/50 48/48/48 51/51/51
f 52/52/52 49/49/49 50/50/50
f 53/53/53 50/50/50 51/51/51
f 52/52/52 50/50/50 53/53/53
f 53/53/53 51/51/51 54/54/54
f 55/55/55 52/52/52 53/53/53
f 56/56/56 53/53/53 54/54/54
f 55/55/55 53/53/53 56/56/56
f 56/56/56 54/54/54 57/57/57
f 58/58/58 55/55/55 56/56/56
f 59/59/59 56/56/56 57/57/57
f 58/58/58 56/56/56 59/59/59
f 59/59/59 57/57/57 60/60/60
f 61/61/61 58/58/58 59/59/59
f 62/62/62 59/59/59 60/60/60
f 61/61/61 59/59/59 62/62/62
f 62/62/62 60/60/60 63/63/63
f 64/64/64 61/61/61 62/62/62
f 65/65/65 62/62/62 63/63/63
f 64/64/64 62/62/62 65/65/65
f 65/65/65 63/63/63 66/66/66
f 67/67/67 64/64/64 65/65/65
f 68/68/68 65/65/65 66/66/66
f 67/67/67 65/65/65 68/68/68
f 68/68/68 66/66/66 69/69/69
f 70/70/70 67/67/67 68/68/68
f 71/71/71 68/68/68 69/69/69
f 70/70/70 68/68/68 71/71/71
f 71/71/71 69/69/69 72/72/72
f 73/73/73 70/70/70 71/71/71
f 74/74/74 71/71/71 72/72/72
f 73/73/73 71/71/71 74/74/74
f 74/74/74 72/72/72 75/75/75
f 76/76/76 73/73/73 74/74/74
f 77/77/77 74/74/74 75/75/75
f 76/76/76 74/74/74 77/77/77
f 77/77/77 75/75/75 78/78/78
f 79/79/79 76/76/76 77/77/77
f 80/80/80 77/77/77 78/78/78
f 79/79/79 77/77/77 80/80/80
f 80/80/80 78/78/78 81/81/81
f 82/82/82 79/79/79 80/80/80
f 83/83/83 80/80/80 81/81/81
f 82/82/82 80/80/80 83/83/83
f 83/83/83 81/81/81 84/84/84
f 85/85/85 82/82/82 83/83/83
f 86/86/86 83/83/83 84/84/84
f 85/85/85 83/83/83 86/86/86
f 86/86/86 84/84/84 87/87/87
f 88/88/88 85/85/85 86/86/86
f 89/89/89 86/86/86 87/87/87
f 88/88/88 86/86/86 89/89/89
f 89/89/89 87/87/87 90/90/90
f 91/91/91 88/88/88 89/89/89
f 92/92/92 89/89/89 90/90/90
f 91/91/91 89/89/89 92/92/92
f 92/92/92 90/90/90 93/93/93
f 94/94/94 91/91/91 92/92/92
f 95/95/95 92/92/92 93/93/93
f 94/94/94 92/92/92 95/95/95
f 95/95/95 93/93/93 96/96/96
f 97/97/97 94/94/94 95/95/95
f 98/98/98 95/95/95 96/96/96
f 97/97/97 95/95/95 98/98/98
f 99/99/99 97/97/97 98/98/98
