g zuole_mountain_02
v -0.308763385 0.184168711 0
v -0.24145399 0.019607164 0
v -0.609861255 0.019607164 0
v -0.465818882 0.16671814 0
v -0.609861255 0.0602987148 0
v 0.950173557 0.161732167 0
v 1.05737019 0.0246202219 0
v 0.891589463 -0.00654155761 0
v 0.906547129 0.214084029 0
v 0.764449298 0.207851604 0
v 0.71459043 0.120598584 0
v 0.601709723 0.00343018607 0
v 0.601709723 0.0408243015 0
v 0.506429374 0.201619238 0
v 0.674677908 0.0528280623 0
v 0.674677908 0.000937287987 0
v -0.233089283 0.000937250734 0
v 0.370563984 0.171703964 0
v 0.314472675 0.291365206 0
v 0.10755834 0.225302279 0
v 0.189825416 0.292611718 0
v -0.128024936 0.120598622 0
v -0.240912676 0.0279727541 0
v -0.0698652565 0.209293485 0
v -0.0781661049 0.197879821 0
vt 0.240948185 0.131687418
vt 0.294811249 0
vt 0 0
vt 0.115267344 0.117722884
vt 0 0.0325626768
vt 0.278851867 0.459853888
vt 0.364633977 0.350132555
vt 0.231970966 0.325195938
vt 0.243940532 0.501747489
vt 0.130229324 0.49676013
vt 0.0903306901 0.426937521
vt 0 0.333175629
vt 0 0.363099575
vt 0.865362167 0.292279512
vt 1 0.173212051
vt 1 0.131687403
vt 0.273575932 0.131687418
vt 0.756638408 0.268340349
vt 0.711752415 0.364097089
vt 0.546172976 0.311231375
vt 0.612005711 0.365094602
vt 0.35765177 0.227444217
vt 0.267315418 0.153322071
vt 0.404192924 0.298420668
vt 0.397550344 0.28928709
vn -0 0 1
vn -0 0 1
vn -0 0 1
vn -0 0 1
vn -0 0 1
vn -0 0 1
vn -0 0 1
vn -0 0 1
vn -0 0 1
vn -0 0 1
vn -0 0 1
vn -0 0 1
vn -0 0 1
vn -0 0 1
vn -0 0 1
vn -0 0 1
vn -0 0 1
vn -0 0 1
vn -0 0 1
vn -0 0 1
vn -0 0 1
vn -0 0 1
vn -0 0 1
vn -0 0 1
vn -0 0 1
g zuole_mountain_02_0
f 3/3/3 2/2/2 1/1/1
f 1/1/1 4/4/4 3/3/3
f 4/4/4 5/5/5 3/3/3
f 8/8/8 7/7/7 6/6/6
f 6/6/6 9/9/9 8/8/8
f 9/9/9 10/10/10 8/8/8
f 10/10/10 11/11/11 8/8/8
f 11/11/11 12/12/12 8/8/8
f 11/11/11 13/13/13 12/12/12
f 16/16/16 15/15/15 14/14/14
f 14/14/14 17/17/17 16/16/16
f 14/14/14 18/18/18 17/17/17
f 18/18/18 19/19/19 17/17/17
f 19/19/19 20/20/20 17/17/17
f 19/19/19 21/21/21 20/20/20
f 20/20/20 22/22/22 17/17/17
f 22/22/22 23/23/23 17/17/17
f 20/20/20 24/24/24 22/22/22
f 24/24/24 25/25/25 22/22/22
