g zuole_scroll_01
v -0.230837792 -0.238113686 0.203975946
v -0.230837733 0.222577035 0.220824853
v -0.224023461 0.221627146 0.254058421
v -0.224023581 -0.239081502 0.237706453
v -1.28200865 -0.194462359 -0.198530123
v -1.28200865 0.257067502 -0.105575271
v -1.26605082 0.250765324 -0.0765318573
v -1.26605082 -0.200998083 -0.168345258
v -1.24932396 0.24468641 -0.047889404
v -1.24932408 -0.207318515 -0.138505742
v -1.24932408 -0.207318515 -0.138505742
v -1.24932396 0.24468641 -0.047889404
v -1.23021948 0.239045456 -0.0207832269
v -1.2302196 -0.213231593 -0.110031553
v -1.21020997 0.233700663 0.00565845147
v -1.21020997 -0.218856916 -0.0821562409
v -1.21020997 -0.218856916 -0.0821562409
v -1.21020997 0.233700663 0.00565845147
v -1.18738401 0.228960574 0.0298224501
v -1.18738413 -0.223911509 -0.0563556999
v -1.18738413 -0.223911509 -0.0563556999
v -1.18738401 0.228960574 0.0298224501
v -1.16266155 0.224789113 0.0519419722
v -1.16266155 -0.228416905 -0.0324624181
v -1.16266155 -0.228416905 -0.0324624181
v -1.16266155 0.224789113 0.0519419722
v -1.13579154 0.221234024 0.0717400387
v -1.13579154 -0.232327089 -0.0107349902
v -1.13579154 -0.232327089 -0.0107349902
v -1.13579154 0.221234024 0.0717400387
v -1.10595715 0.218721196 0.0867949575
v -1.10595727 -0.235224515 0.00646386296
v -1.10595727 -0.235224515 0.00646386296
v -1.10595715 0.218721196 0.0867949575
v -1.07504416 0.216695458 0.09996292
v -1.07504427 -0.237638101 0.0218550712
v -1.07504427 -0.237638101 0.0218550712
v -1.07504416 0.216695458 0.09996292
v -1.04141855 0.216220185 0.104842767
v -1.04141843 -0.238522843 0.029155504
v -1.04141843 -0.238522843 0.029155504
v -1.04141855 0.216220185 0.104842767
v -1.00761545 0.216184571 0.107373454
v -1.00761545 -0.238957167 0.0341216326
v -1.00761545 -0.238957167 0.0341216326
v -1.00761545 0.216184571 0.107373454
v -0.973451138 0.216933936 0.105097756
v -0.973451138 -0.238597423 0.0343095958
v -0.973451138 -0.238597423 0.0343095958
v -0.973451138 0.216933936 0.105097756
v -0.939665079 0.218166456 0.0994446129
v -0.93966496 -0.237737149 0.0310948789
v -0.93966496 -0.237737149 0.0310948789
v -0.939665079 0.218166456 0.0994446129
v -0.906114876 0.219646662 0.091675505
v -0.906114876 -0.236613736 0.0257490575
v -0.906114876 -0.236613736 0.0257490575
v -0.906114876 0.219646662 0.091675505
v -0.87348026 0.221533373 0.0803692415
v -0.873480201 -0.235061616 0.0168017484
v -0.841135144 0.223426551 0.0681558996
v -0.841135025 -0.233488023 0.00692809187
v -0.841135025 -0.233488023 0.00692809187
v -0.841135144 0.223426551 0.0681558996
v -0.809607208 0.225478455 0.0537418351
v -0.809607089 -0.231736153 -0.0052037742
v -0.77851522 0.227507398 0.038371671
v -0.77851516 -0.229991987 -0.0183219388
v -0.747903466 0.229513645 0.0219499879
v -0.747903347 -0.228255168 -0.0325250477
v -0.716728091 0.231230855 0.00667888857
v -0.716728032 -0.226801291 -0.0455353558
v -0.685306489 0.232739151 -0.00803553313
v -0.685306489 -0.225547224 -0.0579699129
v -0.685306489 -0.225547224 -0.0579699129
v -0.685306489 0.232739151 -0.00803553313
v -0.652520597 0.233678833 -0.0187375303
v -0.652520478 -0.224860609 -0.0662916899
v -0.652520478 -0.224860609 -0.0662916899
v -0.652520597 0.233678833 -0.0187375303
v -0.619364977 0.234326795 -0.0275816042
v -0.619364858 -0.224455982 -0.0727274194
v -0.619364858 -0.224455982 -0.0727274194
v -0.619364977 0.234326795 -0.0275816042
v -0.585478663 0.234538212 -0.0327400118
v -0.585478663 -0.224480301 -0.0754230842
v -0.585478663 -0.224480301 -0.0754230842
v -0.585478663 0.234538212 -0.0327400118
v -0.551505268 0.234355703 -0.0339678824
v -0.551505327 -0.224885762 -0.0741806328
v -0.551505327 -0.224885762 -0.0741806328
v -0.551505268 0.234355703 -0.0339678824
v -0.517479181 0.233970508 -0.0328102112
v -0.517479122 -0.225481033 -0.0705477744
v -0.517479122 -0.225481033 -0.0705477744
v -0.517479181 0.233970508 -0.0328102112
v -0.484413683 0.233163714 -0.0258162003
v -0.484413624 -0.226479113 -0.0611472651
v -0.484413624 -0.226479113 -0.0611472651
v -0.484413683 0.233163714 -0.0258162003
v -0.45186007 0.232314944 -0.0170768108
v -0.45186007 -0.22750394 -0.0500377864
v -0.45186007 -0.22750394 -0.0500377864
v -0.45186007 0.232314944 -0.0170768108
v -0.42101267 0.231252179 -0.00358678773
v -0.42101261 -0.228722245 -0.0343010053
v -0.42101261 -0.228722245 -0.0343010053
v -0.42101267 0.231252179 -0.00358678773
v -0.391553134 0.230175763 0.0123603931
v -0.391553193 -0.229936898 -0.0162075106
v -0.391553193 -0.229936898 -0.0162075106
v -0.391553134 0.230175763 0.0123603931
v -0.363580585 0.229098558 0.0309393555
v -0.363580644 -0.231136218 0.00440993626
v -0.363580644 -0.231136218 0.00440993626
v -0.363580585 0.229098558 0.0309393555
v -0.338191479 0.228001401 0.0527695939
v -0.338191539 -0.232336342 0.0280909576
v -0.313785493 0.227015615 0.07577537
v -0.313785434 -0.233414069 0.0528762192
v -0.313785434 -0.233414069 0.0528762192
v -0.313785493 0.227015615 0.07577537
v -0.292891741 0.226009622 0.102070808
v -0.29289186 -0.234493315 0.0806952193
v -0.29289186 -0.234493315 0.0806952193
v -0.292891741 0.226009622 0.102070808
v -0.273414254 0.22511071 0.129362404
v -0.273414314 -0.235456005 0.109407499
v -0.273414314 -0.235456005 0.109407499
v -0.273414254 0.22511071 0.129362404
v -0.25665015 0.224241763 0.158555388
v -0.256650269 -0.236376166 0.139823213
v -0.256650269 -0.236376166 0.139823213
v -0.25665015 0.224241763 0.158555388
v -0.242867142 0.223387361 0.189248443
v -0.242867261 -0.2372704 0.171521708
v -0.242867261 -0.2372704 0.171521708
v -0.242867142 0.223387361 0.189248443
v -0.230837733 0.222577035 0.220824853
v -0.230837792 -0.238113686 0.203975946
vt 0.974358916 0
vt 0.974358916 1
vt 1 1
vt 1 0
vt 0 0
vt 0 1
vt 0.0256410278 1
vt 0.025641026 0
vt 0.0512820557 1
vt 0.051282052 0
vt 0.051282052 0
vt 0.0512820557 1
vt 0.0769230872 1
vt 0.0769230723 0
vt 0.102564111 1
vt 0.102564104 0
vt 0.102564104 0
vt 0.102564111 1
vt 0.128205121 1
vt 0.128205121 0
vt 0.128205121 0
vt 0.128205121 1
vt 0.153846145 1
vt 0.153846145 0
vt 0.153846145 0
vt 0.153846145 1
vt 0.179487169 1
vt 0.179487169 0
vt 0.179487169 0
vt 0.179487169 1
vt 0.205128223 1
vt 0.205128223 0
vt 0.205128223 0
vt 0.205128223 1
vt 0.230769247 1
vt 0.230769247 0
vt 0.230769247 0
vt 0.230769247 1
vt 0.256410271 1
vt 0.256410271 0
vt 0.256410271 0
vt 0.256410271 1
vt 0.282051295 1
vt 0.282051295 0
vt 0.282051295 0
vt 0.282051295 1
vt 0.307692289 1
vt 0.307692349 0
vt 0.307692349 0
vt 0.307692289 1
vt 0.333333313 1
vt 0.333333373 0
vt 0.333333373 0
vt 0.333333313 1
vt 0.358974338 1
vt 0.358974397 0
vt 0.358974397 0
vt 0.358974338 1
vt 0.384615391 1
vt 0.384615391 0
vt 0.410256416 1
vt 0.410256386 0
vt 0.410256386 0
vt 0.410256416 1
vt 0.43589741 1
vt 0.43589741 0
vt 0.461538494 1
vt 0.461538434 0
vt 0.487179518 1
vt 0.487179458 0
vt 0.512820482 1
vt 0.512820482 0
vt 0.538461566 1
vt 0.538461447 0
vt 0.538461447 0
vt 0.538461566 1
vt 0.56410253 1
vt 0.56410253 0
vt 0.56410253 0
vt 0.56410253 1
vt 0.589743614 1
vt 0.589743495 0
vt 0.589743495 0
vt 0.589743614 1
vt 0.615384579 1
vt 0.615384579 0
vt 0.615384579 0
vt 0.615384579 1
vt 0.641025662 1
vt 0.641025543 0
vt 0.641025543 0
vt 0.641025662 1
vt 0.666666627 1
vt 0.666666627 0
vt 0.666666627 0
vt 0.666666627 1
vt 0.692307711 1
vt 0.692307591 0
vt 0.692307591 0
vt 0.692307711 1
vt 0.717948735 1
vt 0.717948675 0
vt 0.717948675 0
vt 0.717948735 1
vt 0.743589759 1
vt 0.74358964 0
vt 0.74358964 0
vt 0.743589759 1
vt 0.769230843 1
vt 0.769230723 0
vt 0.769230723 0
vt 0.769230843 1
vt 0.794871807 1
vt 0.794871688 0
vt 0.794871688 0
vt 0.794871807 1
vt 0.820512831 1
vt 0.820512712 0
vt 0.846153855 1
vt 0.846153736 0
vt 0.846153736 0
vt 0.846153855 1
vt 0.87179482 1
vt 0.871794701 0
vt 0.871794701 0
vt 0.87179482 1
vt 0.897435904 1
vt 0.897435784 0
vt 0.897435784 0
vt 0.897435904 1
vt 0.923076868 1
vt 0.923076868 0
vt 0.923076868 0
vt 0.923076868 1
vt 0.948717952 1
vt 0.948717833 0
vt 0.948717833 0
vt 0.948717952 1
vt 0.974358916 1
vt 0.974358916 0
vn -0.979926765 -0.00717861345 0.19922854
vn -0.979926765 -0.00717861345 0.19922854
vn -0.979926765 -0.00717861345 0.19922854
vn -0.979926765 -0.00717861345 0.19922854
vn -0.884790659 -0.0933846533 0.456535757
vn -0.884790659 -0.0933846533 0.456535757
vn -0.884790659 -0.0933846533 0.456535757
vn -0.884790659 -0.0933846533 0.456535757
vn -0.872647524 -0.0966262892 0.47869575
vn -0.872647524 -0.0966262892 0.47869575
vn -0.829582512 -0.108930133 0.54765594
vn -0.829582512 -0.108930133 0.54765594
vn -0.829582512 -0.108930133 0.54765594
vn -0.829582512 -0.108930133 0.54765594
vn -0.810687006 -0.112438165 0.574581861
vn -0.810687006 -0.112438165 0.574581861
vn -0.744542539 -0.125979349 0.655580342
vn -0.744542539 -0.125979349 0.655580342
vn -0.744542539 -0.125979349 0.655580342
vn -0.744542539 -0.125979349 0.655580342
vn -0.687598348 -0.134337842 0.713555753
vn -0.687598348 -0.134337842 0.713555753
vn -0.687598348 -0.134337842 0.713555753
vn -0.687598348 -0.134337842 0.713555753
vn -0.617518723 -0.142365381 0.773565054
vn -0.617518723 -0.142365381 0.773565054
vn -0.617518723 -0.142365381 0.773565054
vn -0.617518723 -0.142365381 0.773565054
vn -0.480615228 -0.154848501 0.863151729
vn -0.480615228 -0.154848501 0.863151729
vn -0.480615228 -0.154848501 0.863151729
vn -0.480615228 -0.154848501 0.863151729
vn -0.423427641 -0.155678824 0.892453432
vn -0.423427641 -0.155678824 0.892453432
vn -0.423427641 -0.155678824 0.892453432
vn -0.423427641 -0.155678824 0.892453432
vn -0.179012299 -0.164112449 0.970062733
vn -0.179012299 -0.164112449 0.970062733
vn -0.179012299 -0.164112449 0.970062733
vn -0.179012299 -0.164112449 0.970062733
vn -0.109886445 -0.16056174 0.980889916
vn -0.109886445 -0.16056174 0.980889916
vn -0.109886445 -0.16056174 0.980889916
vn -0.109886445 -0.16056174 0.980889916
vn 0.0326974243 -0.156143039 0.987193048
vn 0.0326974243 -0.156143039 0.987193048
vn 0.0326974243 -0.156143039 0.987193048
vn 0.0326974243 -0.156143039 0.987193048
vn 0.133208334 -0.149565116 0.97973758
vn 0.133208334 -0.149565116 0.97973758
vn 0.133208334 -0.149565116 0.97973758
vn 0.133208334 -0.149565116 0.97973758
vn 0.195191681 -0.142835274 0.970308244
vn 0.195191681 -0.142835274 0.970308244
vn 0.195191681 -0.142835274 0.970308244
vn 0.195191681 -0.142835274 0.970308244
vn 0.300126851 -0.133975178 0.944443941
vn 0.300126851 -0.133975178 0.944443941
vn 0.300126851 -0.133975178 0.944443941
vn 0.300126851 -0.133975178 0.944443941
vn 0.326591164 -0.127930969 0.936467826
vn 0.326591164 -0.127930969 0.936467826
vn 0.391344815 -0.119945094 0.912393808
vn 0.391344815 -0.119945094 0.912393808
vn 0.391344815 -0.119945094 0.912393808
vn 0.391344815 -0.119945094 0.912393808
vn 0.419495285 -0.113853358 0.900589347
vn 0.419495285 -0.113853358 0.900589347
vn 0.45002237 -0.107674502 0.886502147
vn 0.45002237 -0.107674502 0.886502147
vn 0.415218949 -0.105269201 0.903610229
vn 0.415218949 -0.105269201 0.903610229
vn 0.398293704 -0.101623982 0.911611021
vn 0.398293704 -0.101623982 0.911611021
vn 0.279513478 -0.101522021 0.9547593
vn 0.279513478 -0.101522021 0.9547593
vn 0.279513478 -0.101522021 0.9547593
vn 0.279513478 -0.101522021 0.9547593
vn 0.224937916 -0.0979661122 0.969435751
vn 0.224937916 -0.0979661122 0.969435751
vn 0.224937916 -0.0979661122 0.969435751
vn 0.224937916 -0.0979661122 0.969435751
vn 0.114859574 -0.0946292803 0.988864303
vn 0.114859574 -0.0946292803 0.988864303
vn 0.114859574 -0.0946292803 0.988864303
vn 0.114859574 -0.0946292803 0.988864303
vn -0.000991861918 -0.0899091288 0.995949388
vn -0.000991861918 -0.0899091288 0.995949388
vn -0.000991861918 -0.0899091288 0.995949388
vn -0.000991861918 -0.0899091288 0.995949388
vn -0.071179688 -0.0843308121 0.993892193
vn -0.071179688 -0.0843308121 0.993892193
vn -0.071179688 -0.0843308121 0.993892193
vn -0.071179688 -0.0843308121 0.993892193
vn -0.241889998 -0.0768973604 0.967251778
vn -0.241889998 -0.0768973604 0.967251778
vn -0.241889998 -0.0768973604 0.967251778
vn -0.241889998 -0.0768973604 0.967251778
vn -0.292745858 -0.0708249584 0.95356375
vn -0.292745858 -0.0708249584 0.95356375
vn -0.292745858 -0.0708249584 0.95356375
vn -0.292745858 -0.0708249584 0.95356375
vn -0.42917037 -0.0623787232 0.901066959
vn -0.42917037 -0.0623787232 0.901066959
vn -0.42917037 -0.0623787232 0.901066959
vn -0.42917037 -0.0623787232 0.901066959
vn -0.501108587 -0.0556422397 0.863593698
vn -0.501108587 -0.0556422397 0.863593698
vn -0.501108587 -0.0556422397 0.863593698
vn -0.501108587 -0.0556422397 0.863593698
vn -0.574452043 -0.0489146709 0.817075372
vn -0.574452043 -0.0489146709 0.817075372
vn -0.574452043 -0.0489146709 0.817075372
vn -0.574452043 -0.0489146709 0.817075372
vn -0.667896926 -0.0413361154 0.743104935
vn -0.667896926 -0.0413361154 0.743104935
vn -0.667896926 -0.0413361154 0.743104935
vn -0.667896926 -0.0413361154 0.743104935
vn -0.699913561 -0.0368563235 0.713275969
vn -0.699913561 -0.0368563235 0.713275969
vn -0.791691601 -0.0293366835 0.61021632
vn -0.791691601 -0.0293366835 0.61021632
vn -0.791691601 -0.0293366835 0.61021632
vn -0.791691601 -0.0293366835 0.61021632
vn -0.821063757 -0.0255888179 0.570262611
vn -0.821063757 -0.0255888179 0.570262611
vn -0.821063757 -0.0255888179 0.570262611
vn -0.821063757 -0.0255888179 0.570262611
vn -0.871665657 -0.0205645245 0.489669353
vn -0.871665657 -0.0205645245 0.489669353
vn -0.871665657 -0.0205645245 0.489669353
vn -0.871665657 -0.0205645245 0.489669353
vn -0.914748132 -0.0159762874 0.403708607
vn -0.914748132 -0.0159762874 0.403708607
vn -0.914748132 -0.0159762874 0.403708607
vn -0.914748132 -0.0159762874 0.403708607
vn -0.936131954 -0.0131869297 0.351401687
vn -0.936131954 -0.0131869297 0.351401687
vn -0.936131954 -0.0131869297 0.351401687
vn -0.936131954 -0.0131869297 0.351401687
g zuole_scroll_01_0
f 3/3/3 2/2/2 1/1/1
f 4/4/4 3/3/3 1/1/1
f 7/7/7 6/6/6 5/5/5
f 8/8/8 7/7/7 5/5/5
f 9/9/9 7/7/7 8/8/8
f 10/10/10 9/9/9 8/8/8
f 13/13/13 12/12/12 11/11/11
f 14/14/14 13/13/13 11/11/11
f 15/15/15 13/13/13 14/14/14
f 16/16/16 15/15/15 14/14/14
f 19/19/19 18/18/18 17/17/17
f 20/20/20 19/19/19 17/17/17
f 23/23/23 22/22/22 21/21/21
f 24/24/24 23/23/23 21/21/21
f 27/27/27 26/26/26 25/25/25
f 28/28/28 27/27/27 25/25/25
f 31/31/31 30/30/30 29/29/29
f 32/32/32 31/31/31 29/29/29
f 35/35/35 34/34/34 33/33/33
f 36/36/36 35/35/35 33/33/33
f 39/39/39 38/38/38 37/37/37
f 40/40/40 39/39/39 37/37/37
f 43/43/43 42/42/42 41/41/41
f 44/44/44 43/43/43 41/41/41
f 47/47/47 46/46/46 45/45/45
f 48/48/48 47/47/47 45/45/45
f 51/51/51 50/50/50 49/49/49
f 52/52/52 51/51/51 49/49/49
f 55/55/55 54/54/54 53/53/53
f 56/56/56 55/55/55 53/53/53
f 59/59/59 58/58/58 57/57/57
f 60/60/60 59/59/59 57/57/57
f 61/61/61 59/59/59 60/60/60
f 62/62/62 61/61/61 60/60/60
f 65/65/65 64/64/64 63/63/63
f 66/66/66 65/65/65 63/63/63
f 67/67/67 65/65/65 66/66/66
f 68/68/68 67/67/67 66/66/66
f 69/69/69 67/67/67 68/68/68
f 70/70/70 69/69/69 68/68/68
f 71/71/71 69/69/69 70/70/70
f 72/72/72 71/71/71 70/70/70
f 73/73/73 71/71/71 72/72/72
f 74/74/74 73/73/73 72/72/72
f 77/77/77 76/76/76 75/75/75
f 78/78/78 77/77/77 75/75/75
f 81/81/81 80/80/80 79/79/79
f 82/82/82 81/81/81 79/79/79
f 85/85/85 84/84/84 83/83/83
f 86/86/86 85/85/85 83/83/83
f 89/89/89 88/88/88 87/87/87
f 90/90/90 89/89/89 87/87/87
f 93/93/93 92/92/92 91/91/91
f 94/94/94 93/93/93 91/91/91
f 97/97/97 96/96/96 95/95/95
f 98/98/98 97/97/97 95/95/95
f 101/101/101 100/100/100 99/99/99
f 102/102/102 101/101/101 99/99/99
f 105/105/105 104/104/104 103/103/103
f 106/106/106 105/105/105 103/103/103
f 109/109/109 108/108/108 107/107/107
f 110/110/110 109/109/109 107/107/107
f 113/113/113 112/112/112 111/111/111
f 114/114/114 113/113/113 111/111/111
f 117/117/117 116/116/116 115/115/115
f 118/118/118 117/117/117 115/115/115
f 119/119/119 117/117/117 118/118/118
f 120/120/120 119/119/119 118/118/118
f 123/123/123 122/122/122 121/121/121
f 124/124/124 123/123/123 121/121/121
f 127/127/127 126/126/126 125/125/125
f 128/128/128 127/127/127 125/125/125
f 131/131/131 130/130/130 129/129/129
f 132/132/132 131/131/131 129/129/129
f 135/135/135 134/134/134 133/133/133
f 136/136/136 135/135/135 133/133/133
f 139/139/139 138/138/138 137/137/137
f 140/140/140 139/139/139 137/137/137
