g Plane001
v 0.421702355 -1.32800007 0
v 0.84340471 -0.885333359 0
v 0.84340471 -1.32800007 0
v 0.421702355 -0.885333359 0
v -0 -1.32800007 0
v 0.84340471 -0.44266668 0
v -0 -0.885333359 0
v -0.421702355 -1.32800007 0
v 0.421702355 -0.44266668 0
v 0.84340471 0 0
v -0.421702355 -0.885333359 0
v -0.84340471 -1.32800007 0
v -0.84340471 -0.885333359 0
v -0 -0.44266668 0
v 0.421702355 0 0
v 0.84340471 0.44266668 0
v -0.421702355 -0.44266668 0
v -0.84340471 -0.44266668 0
v -0 0 0
v 0.421702355 0.44266668 0
v 0.84340471 0.885333359 0
v -0.421702355 0 0
v -0.84340471 0 0
v -0 0.44266668 0
v 0.421702355 0.885333359 0
v 0.84340471 1.32800007 0
v 0.421702355 1.32800007 0
v -0.421702355 0.44266668 0
v -0.84340471 0.44266668 0
v -0 0.885333359 0
v -0 1.32800007 0
v -0.421702355 0.885333359 0
v -0.84340471 0.885333359 0
v -0.421702355 1.32800007 0
v -0.84340471 1.32800007 0
vt 0.75 0
vt 1 0.166666672
vt 1 0
vt 0.75 0.166666672
vt 0.5 0
vt 1 0.333333343
vt 0.5 0.166666672
vt 0.25 0
vt 0.75 0.333333343
vt 1 0.5
vt 0.25 0.166666672
vt 0 0
vt 0 0.166666672
vt 0.5 0.333333343
vt 0.75 0.5
vt 1 0.666666687
vt 0.25 0.333333343
vt 0 0.333333343
vt 0.5 0.5
vt 0.75 0.666666687
vt 1 0.833333373
vt 0.25 0.5
vt 0 0.5
vt 0.5 0.666666687
vt 0.75 0.833333373
vt 1 1
vt 0.75 1
vt 0.25 0.666666687
vt 0 0.666666687
vt 0.5 0.833333373
vt 0.5 1
vt 0.25 0.833333373
vt 0 0.833333373
vt 0.25 1
vt 0 1
vn -0 0 1
vn -0 0 1
vn -0 0 1
vn -0 0 1
vn -0 0 1
vn -0 0 1
vn -0 0 1
vn -0 0 1
vn -0 0 1
vn -0 0 1
vn -0 0 1
vn -0 0 1
vn -0 0 1
vn -0 0 1
vn -0 0 1
vn -0 0 1
vn -0 0 1
vn -0 0 1
vn -0 0 1
vn -0 0 1
vn -0 0 1
vn -0 0 1
vn -0 0 1
vn -0 0 1
vn -0 0 1
vn -0 0 1
vn -0 0 1
vn -0 0 1
vn -0 0 1
vn -0 0 1
vn -0 0 1
vn -0 0 1
vn -0 0 1
vn -0 0 1
vn -0 0 1
g Plane001_0
f 3/3/3 2/2/2 1/1/1
f 2/2/2 4/4/4 1/1/1
f 1/1/1 4/4/4 5/5/5
f 2/2/2 6/6/6 4/4/4
f 4/4/4 7/7/7 5/5/5
f 5/5/5 7/7/7 8/8/8
f 6/6/6 9/9/9 4/4/4
f 4/4/4 9/9/9 7/7/7
f 6/6/6 10/10/10 9/9/9
f 7/7/7 11/11/11 8/8/8
f 8/8/8 11/11/11 12/12/12
f 11/11/11 13/13/13 12/12/12
f 9/9/9 14/14/14 7/7/7
f 7/7/7 14/14/14 11/11/11
f 10/10/10 15/15/15 9/9/9
f 9/9/9 15/15/15 14/14/14
f 10/10/10 16/16/16 15/15/15
f 11/11/11 17/17/17 13/13/13
f 14/14/14 17/17/17 11/11/11
f 17/17/17 18/18/18 13/13/13
f 15/15/15 19/19/19 14/14/14
f 14/14/14 19/19/19 17/17/17
f 16/16/16 20/20/20 15/15/15
f 15/15/15 20/20/20 19/19/19
f 16/16/16 21/21/21 20/20/20
f 17/17/17 22/22/22 18/18/18
f 19/19/19 22/22/22 17/17/17
f 22/22/22 23/23/23 18/18/18
f 20/20/20 24/24/24 19/19/19
f 19/19/19 24/24/24 22/22/22
f 21/21/21 25/25/25 20/20/20
f 20/20/20 25/25/25 24/24/24
f 21/21/21 26/26/26 25/25/25
f 26/26/26 27/27/27 25/25/25
f 22/22/22 28/28/28 23/23/23
f 24/24/24 28/28/28 22/22/22
f 28/28/28 29/29/29 23/23/23
f 25/25/25 30/30/30 24/24/24
f 25/25/25 27/27/27 30/30/30
f 24/24/24 30/30/30 28/28/28
f 27/27/27 31/31/31 30/30/30
f 28/28/28 32/32/32 29/29/29
f 30/30/30 32/32/32 28/28/28
f 30/30/30 31/31/31 32/32/32
f 32/32/32 33/33/33 29/29/29
f 31/31/31 34/34/34 32/32/32
f 32/32/32 34/34/34 33/33/33
f 34/34/34 35/35/35 33/33/33
