g Plane003
v -1.13759816 -0.42648676 0
v -0.993185282 0.0605542473 0
v -0.948051989 0.0481808782 0
v -1.07257831 -0.444320053 0
v -0.900780857 0.0371865854 0
v -1.00673699 -0.459640652 0
v -0.8513363 0.0275483187 0
v -0.940104246 -0.472635865 0
v -0.799702883 0.0192388445 0
v -0.872691572 -0.483490348 0
v -0.753499269 0.0135579901 0
v -0.801754713 -0.492144853 0
v -0.709081411 0.0105199972 0
v -0.730117977 -0.497044176 0
v -0.664827347 0.00986984279 0
v -0.658703268 -0.498093128 0
v -0.620812595 0.0115732271 0
v -0.58766228 -0.495343894 0
v -0.577115953 0.015596916 0
v -0.517142653 -0.488850474 0
v -0.533819795 0.021908449 0
v -0.447288394 -0.478667587 0
v -0.491009474 0.0304757562 0
v -0.378241509 -0.46484983 0
v -0.448772907 0.0412662774 0
v -0.310140997 -0.447451562 0
v -0.407199115 0.0542470776 0
v -0.243124306 -0.426526666 0
v -0.366378397 0.0693842322 0
v -0.177328229 -0.402128249 0
v -0.326400965 0.0866430625 0
v -0.112888798 -0.374308646 0
v -0.28735739 0.105988681 0
v -0.0499433167 -0.343119949 0
v -0.249336228 0.127386019 0
v 0.0113710593 -0.308613628 0
v -0.212425545 0.150800288 0
v 0.0709145665 -0.270842195 0
v -0.176710874 0.176197678 0
v 0.128546849 -0.229858547 0
v -0.142276049 0.20354639 0
v 0.18412447 -0.185717821 0
v -0.10920278 0.232816845 0
v 0.237502411 -0.138477489 0
v -0.0775709897 0.263982832 0
v 0.2885333 -0.0881982967 0
v -0.0474587791 0.297022283 0
v 0.337069094 -0.0349448621 0
v -0.019087255 0.331734687 0
v 0.382775813 0.020977499 0
v 0.00719466712 0.367675513 0
v 0.425162166 0.078941986 0
v 0.0313691609 0.404752314 0
v 0.464173347 0.138774082 0
v 0.0534258075 0.442882568 0
v 0.499773324 0.200317428 0
v 0.0733496398 0.481982112 0
v 0.531927645 0.263418168 0
v 0.0911250561 0.521964014 0
v 0.560606599 0.327925235 0
v 0.106732875 0.562738955 0
v 0.585780203 0.393689632 0
v 0.120154679 0.604215264 0
v 0.607420981 0.460564673 0
v 0.131370276 0.646299839 0
v 0.6255005 0.528404713 0
v 0.14036037 0.688898385 0
v 0.639991105 0.597066343 0
v 0.147106186 0.731916189 0
v 0.650864601 0.666406631 0
v 0.151588947 0.775258124 0
v 0.658091486 0.736281693 0
v 0.153790846 0.818830073 0
v 0.661642313 0.806547344 0
v 0.153694734 0.86253947 0
v 0.661487162 0.877058268 0
v 0.151283354 0.906295955 0
v 0.657595873 0.947667062 0
v 0.146539062 0.950011075 0
v 0.649938583 1.01822317 0
v 0.139443189 0.99360019 0
v 0.638486385 1.08857298 0
vt 0 0
vt 0 1
vt 0.0250000004 1
vt 0.0250000004 0
vt 0.0500000007 1
vt 0.0500000007 0
vt 0.075000003 1
vt 0.075000003 0
vt 0.100000001 1
vt 0.100000001 0
vt 0.125 1
vt 0.125 0
vt 0.150000006 1
vt 0.150000006 0
vt 0.175000012 1
vt 0.175000012 0
vt 0.200000018 1
vt 0.200000018 0
vt 0.225000024 1
vt 0.225000024 0
vt 0.25000003 1
vt 0.25000003 0
vt 0.275000036 1
vt 0.275000036 0
vt 0.300000042 1
vt 0.300000042 0
vt 0.325000048 1
vt 0.325000048 0
vt 0.350000054 1
vt 0.350000054 0
vt 0.37500006 1
vt 0.37500006 0
vt 0.400000066 1
vt 0.400000066 0
vt 0.425000072 1
vt 0.425000072 0
vt 0.450000077 1
vt 0.450000077 0
vt 0.475000083 1
vt 0.475000083 0
vt 0.50000006 1
vt 0.50000006 0
vt 0.525000036 1
vt 0.525000036 0
vt 0.550000012 1
vt 0.550000012 0
vt 0.574999988 1
vt 0.574999988 0
vt 0.599999964 1
vt 0.599999964 0
vt 0.62499994 1
vt 0.62499994 0
vt 0.649999917 1
vt 0.649999917 0
vt 0.674999893 1
vt 0.674999893 0
vt 0.699999869 1
vt 0.699999869 0
vt 0.724999845 1
vt 0.724999845 0
vt 0.749999821 1
vt 0.749999821 0
vt 0.774999797 1
vt 0.774999797 0
vt 0.799999774 1
vt 0.799999774 0
vt 0.82499975 1
vt 0.82499975 0
vt 0.849999726 1
vt 0.849999726 0
vt 0.874999702 1
vt 0.874999702 0
vt 0.899999678 1
vt 0.899999678 0
vt 0.924999654 1
vt 0.924999654 0
vt 0.94999963 1
vt 0.94999963 0
vt 0.974999607 1
vt 0.974999607 0
vt 0.999999583 1
vt 0.999999583 0
vn -0 0 1
vn -0 0 1
vn -0 0 1
vn -0 0 1
vn -0 0 1
vn -0 0 1
vn -0 0 1
vn -0 0 1
vn -0 0 1
vn -0 0 1
vn -0 0 1
vn -0 0 1
vn -0 0 1
vn -0 0 1
vn -0 0 1
vn -0 0 1
vn -0 0 1
vn -0 0 1
vn -0 0 1
vn -0 0 1
vn -0 0 1
vn -0 0 1
vn -0 0 1
vn -0 0 1
vn -0 0 1
vn -0 0 1
vn -0 0 1
vn -0 0 1
vn -0 0 1
vn -0 0 1
vn -0 0 1
vn -0 0 1
vn -0 0 1
vn -0 0 1
vn -0 0 1
vn -0 0 1
vn -0 0 1
vn -0 0 1
vn -0 0 1
vn -0 0 1
vn -0 0 1
vn -0 0 1
vn -0 0 1
vn -0 0 1
vn -0 0 1
vn -0 0 1
vn -0 0 1
vn -0 0 1
vn -0 0 1
vn -0 0 1
vn -0 0 1
vn -0 0 1
vn -0 0 1
vn -0 0 1
vn -0 0 1
vn -0 0 1
vn -0 0 1
vn -0 0 1
vn -0 0 1
vn -0 0 1
vn -0 0 1
vn -0 0 1
vn -0 0 1
vn -0 0 1
vn -0 0 1
vn -0 0 1
vn -0 0 1
vn -0 0 1
vn -0 0 1
vn -0 0 1
vn -0 0 1
vn -0 0 1
vn -0 0 1
vn -0 0 1
vn -0 0 1
vn -0 0 1
vn -0 0 1
vn -0 0 1
vn -0 0 1
vn -0 0 1
vn -0 0 1
vn -0 0 1
g Plane003_0
f 3/3/3 2/2/2 1/1/1
f 4/4/4 3/3/3 1/1/1
f 5/5/5 3/3/3 4/4/4
f 6/6/6 5/5/5 4/4/4
f 7/7/7 5/5/5 6/6/6
f 8/8/8 7/7/7 6/6/6
f 9/9/9 7/7/7 8/8/8
f 10/10/10 9/9/9 8/8/8
f 11/11/11 9/9/9 10/10/10
f 12/12/12 11/11/11 10/10/10
f 13/13/13 11/11/11 12/12/12
f 14/14/14 13/13/13 12/12/12
f 15/15/15 13/13/13 14/14/14
f 16/16/16 15/15/15 14/14/14
f 17/17/17 15/15/15 16/16/16
f 18/18/18 17/17/17 16/16/16
f 19/19/19 17/17/17 18/18/18
f 20/20/20 19/19/19 18/18/18
f 21/21/21 19/19/19 20/20/20
f 22/22/22 21/21/21 20/20/20
f 23/23/23 21/21/21 22/22/22
f 24/24/24 23/23/23 22/22/22
f 25/25/25 23/23/23 24/24/24
f 26/26/26 25/25/25 24/24/24
f 27/27/27 25/25/25 26/26/26
f 28/28/28 27/27/27 26/26/26
f 29/29/29 27/27/27 28/28/28
f 30/30/30 29/29/29 28/28/28
f 31/31/31 29/29/29 30/30/30
f 32/32/32 31/31/31 30/30/30
f 33/33/33 31/31/31 32/32/32
f 34/34/34 33/33/33 32/32/32
f 35/35/35 33/33/33 34/34/34
f 36/36/36 35/35/35 34/34/34
f 37/37/37 35/35/35 36/36/36
f 38/38/38 37/37/37 36/36/36
f 39/39/39 37/37/37 38/38/38
f 40/40/40 39/39/39 38/38/38
f 41/41/41 39/39/39 40/40/40
f 42/42/42 41/41/41 40/40/40
f 43/43/43 41/41/41 42/42/42
f 44/44/44 43/43/43 42/42/42
f 45/45/45 43/43/43 44/44/44
f 46/46/46 45/45/45 44/44/44
f 47/47/47 45/45/45 46/46/46
f 48/48/48 47/47/47 46/46/46
f 49/49/49 47/47/47 48/48/48
f 50/50/50 49/49/49 48/48/48
f 51/51/51 49/49/49 50/50/50
f 52/52/52 51/51/51 50/50/50
f 53/53/53 51/51/51 52/52/52
f 54/54/54 53/53/53 52/52/52
f 55/55/55 53/53/53 54/54/54
f 56/56/56 55/55/55 54/54/54
f 57/57/57 55/55/55 56/56/56
f 58/58/58 57/57/57 56/56/56
f 59/59/59 57/57/57 58/58/58
f 60/60/60 59/59/59 58/58/58
f 61/61/61 59/59/59 60/60/60
f 62/62/62 61/61/61 60/60/60
f 63/63/63 61/61/61 62/62/62
f 64/64/64 63/63/63 62/62/62
f 65/65/65 63/63/63 64/64/64
f 66/66/66 65/65/65 64/64/64
f 67/67/67 65/65/65 66/66/66
f 68/68/68 67/67/67 66/66/66
f 69/69/69 67/67/67 68/68/68
f 70/70/70 69/69/69 68/68/68
f 71/71/71 69/69/69 70/70/70
f 72/72/72 71/71/71 70/70/70
f 73/73/73 71/71/71 72/72/72
f 74/74/74 73/73/73 72/72/72
f 75/75/75 73/73/73 74/74/74
f 76/76/76 75/75/75 74/74/74
f 77/77/77 75/75/75 76/76/76
f 78/78/78 77/77/77 76/76/76
f 79/79/79 77/77/77 78/78/78
f 80/80/80 79/79/79 78/78/78
f 81/81/81 79/79/79 80/80/80
f 82/82/82 81/81/81 80/80/80
