g Plane001
v -0 0.655685186 0
v 0.200000003 0.655685186 0
v -0 0.600000024 0
v 0.255284041 0.618755221 0
v -0.200000003 0.600000024 0
v -0.200000003 0.655685186 0
v -0.400000006 0.600000024 0
v -0.400000006 0.400000006 0
v -0.600000024 0.400000006 0
v -0.600000024 0.200000003 0
v -0.200000003 0.400000006 0
v -0.400000006 0.200000003 0
v -0.600000024 0 0
v -0 0.400000006 0
v -0.400000006 0 0
v -0.600000024 -0.200000003 0
v -0.200000003 0.200000003 0
v 0.200000003 0.400000006 0
v 0.400000006 0.600000024 0
v -0.400000006 -0.200000003 0
v -0.600000024 -0.400000006 0
v -0.454071879 -0.456892371 0
v -0.200000003 0 0
v -0 0.200000003 0
v 0.400000006 0.400000006 0
v 0.504195333 0.518235683 0
v 0.600000024 0.400000006 0
v -0.200000003 -0.200000003 0
v -0 0 0
v 0.200000003 0.200000003 0
v 0.400000006 0.200000003 0
v 0.600000024 0.200000003 0
v -0.200000003 -0.400000006 0
v -0.400000006 -0.600000024 0
v -0.200000003 -0.600000024 0
v -0 -0.200000003 0
v 0.200000003 0 0
v 0.400000006 0 0
v 0.600000024 0 0
v -0 -0.400000006 0
v 0.200000003 -0.200000003 0
v 0.400000006 -0.200000003 0
v 0.600000024 -0.200000003 0
v -0 -0.600000024 0
v -0.200000003 -0.800000012 0
v -0 -0.800000012 0
v 0.200000003 -0.400000006 0
v 0.400000006 -0.400000006 0
v 0.600000024 -0.400000006 0
v 0.400000006 -0.600000024 0
v 0.200000003 -0.600000024 0
v 0.200000003 -0.800000012 0
vt 0.491603613 0.859911084
vt 0.598034978 0.859911084
vt 0.491603792 0.830906987
vt 0.627454638 0.840675831
vt 0.385172695 0.83090651
vt 0.385172516 0.859910488
vt 0.278741956 0.830906034
vt 0.278742254 0.726734638
vt 0.172311559 0.726734519
vt 0.172311693 0.622563124
vt 0.385172963 0.726734877
vt 0.278742343 0.622563004
vt 0.172311544 0.518391848
vt 0.491603971 0.726734996
vt 0.278742313 0.518391609
vt 0.172311276 0.414220393
vt 0.385173082 0.622563124
vt 0.598034978 0.726734996
vt 0.704466224 0.830906987
vt 0.278742075 0.414220095
vt 0.172310844 0.310048789
vt 0.249966949 0.280415714
vt 0.385173023 0.51839149
vt 0.491603971 0.622563124
vt 0.704466105 0.726734996
vt 0.759914279 0.788319111
vt 0.810897231 0.726734877
vt 0.385172963 0.414219856
vt 0.491603971 0.51839149
vt 0.598034978 0.622563124
vt 0.704465985 0.622563124
vt 0.810896993 0.622563004
vt 0.385172695 0.310048133
vt 0.27874133 0.205876663
vt 0.385172397 0.205876276
vt 0.491603851 0.414219797
vt 0.598034978 0.51839149
vt 0.704465866 0.518391371
vt 0.810896873 0.518391252
vt 0.491603792 0.310048074
vt 0.598034859 0.414219737
vt 0.704465747 0.414219737
vt 0.810896754 0.414219677
vt 0.491603673 0.205876157
vt 0.385172158 0.101704128
vt 0.491603732 0.101703957
vt 0.598034859 0.310048074
vt 0.704465747 0.310048074
vt 0.810896754 0.310048193
vt 0.704465985 0.205876425
vt 0.598034859 0.205876276
vt 0.598035097 0.101704352
vn -0 0 1
vn -0 0 1
vn -0 0 1
vn -0 0 1
vn -0 0 1
vn -0 0 1
vn -0 0 1
vn -0 0 1
vn -0 0 1
vn -0 0 1
vn -0 0 1
vn -0 0 1
vn -0 0 1
vn -0 0 1
vn -0 0 1
vn -0 0 1
vn -0 0 1
vn -0 0 1
vn -0 0 1
vn -0 0 1
vn -0 0 1
vn -0 0 1
vn -0 0 1
vn -0 0 1
vn -0 0 1
vn -0 0 1
vn -0 0 1
vn -0 0 1
vn -0 0 1
vn -0 0 1
vn -0 0 1
vn -0 0 1
vn -0 0 1
vn -0 0 1
vn -0 0 1
vn -0 0 1
vn -0 0 1
vn -0 0 1
vn -0 0 1
vn -0 0 1
vn -0 0 1
vn -0 0 1
vn -0 0 1
vn -0 0 1
vn -0 0 1
vn -0 0 1
vn -0 0 1
vn -0 0 1
vn -0 0 1
vn -0 0 1
vn -0 0 1
vn -0 0 1
g Plane001_0
f 3/3/3 2/2/2 1/1/1
f 2/2/2 3/3/3 4/4/4
f 1/1/1 5/5/5 3/3/3
f 5/5/5 1/1/1 6/6/6
f 6/6/6 7/7/7 5/5/5
f 8/8/8 5/5/5 7/7/7
f 7/7/7 9/9/9 8/8/8
f 10/10/10 8/8/8 9/9/9
f 11/11/11 3/3/3 5/5/5
f 5/5/5 8/8/8 11/11/11
f 8/8/8 10/10/10 12/12/12
f 12/12/12 11/11/11 8/8/8
f 13/13/13 12/12/12 10/10/10
f 14/14/14 4/4/4 3/3/3
f 3/3/3 11/11/11 14/14/14
f 12/12/12 13/13/13 15/15/15
f 16/16/16 15/15/15 13/13/13
f 11/11/11 12/12/12 17/17/17
f 17/17/17 14/14/14 11/11/11
f 15/15/15 17/17/17 12/12/12
f 4/4/4 14/14/14 18/18/18
f 18/18/18 19/19/19 4/4/4
f 15/15/15 16/16/16 20/20/20
f 21/21/21 20/20/20 16/16/16
f 20/20/20 21/21/21 22/22/22
f 17/17/17 15/15/15 23/23/23
f 20/20/20 23/23/23 15/15/15
f 14/14/14 17/17/17 24/24/24
f 24/24/24 18/18/18 14/14/14
f 23/23/23 24/24/24 17/17/17
f 19/19/19 18/18/18 25/25/25
f 25/25/25 26/26/26 19/19/19
f 26/26/26 25/25/25 27/27/27
f 22/22/22 28/28/28 20/20/20
f 23/23/23 20/20/20 28/28/28
f 24/24/24 23/23/23 29/29/29
f 28/28/28 29/29/29 23/23/23
f 18/18/18 24/24/24 30/30/30
f 30/30/30 25/25/25 18/18/18
f 29/29/29 30/30/30 24/24/24
f 31/31/31 27/27/27 25/25/25
f 25/25/25 30/30/30 31/31/31
f 27/27/27 31/31/31 32/32/32
f 28/28/28 22/22/22 33/33/33
f 34/34/34 33/33/33 22/22/22
f 33/33/33 34/34/34 35/35/35
f 29/29/29 28/28/28 36/36/36
f 33/33/33 36/36/36 28/28/28
f 30/30/30 29/29/29 37/37/37
f 37/37/37 31/31/31 30/30/30
f 36/36/36 37/37/37 29/29/29
f 38/38/38 32/32/32 31/31/31
f 31/31/31 37/37/37 38/38/38
f 32/32/32 38/38/38 39/39/39
f 35/35/35 40/40/40 33/33/33
f 36/36/36 33/33/33 40/40/40
f 37/37/37 36/36/36 41/41/41
f 41/41/41 38/38/38 37/37/37
f 40/40/40 41/41/41 36/36/36
f 42/42/42 39/39/39 38/38/38
f 38/38/38 41/41/41 42/42/42
f 39/39/39 42/42/42 43/43/43
f 40/40/40 35/35/35 44/44/44
f 45/45/45 44/44/44 35/35/35
f 44/44/44 45/45/45 46/46/46
f 41/41/41 40/40/40 47/47/47
f 47/47/47 42/42/42 41/41/41
f 44/44/44 47/47/47 40/40/40
f 48/48/48 43/43/43 42/42/42
f 42/42/42 47/47/47 48/48/48
f 43/43/43 48/48/48 49/49/49
f 50/50/50 49/49/49 48/48/48
f 46/46/46 51/51/51 44/44/44
f 47/47/47 44/44/44 51/51/51
f 51/51/51 48/48/48 47/47/47
f 48/48/48 51/51/51 50/50/50
f 51/51/51 46/46/46 52/52/52
f 52/52/52 50/50/50 51/51/51
