g asd_Plane001
v -0.127000004 -0.63499999 0
v -0.112710461 -0.363456845 0.0249224044
v -0.112710461 -0.610601842 0.0249224063
v -0.127000004 -0.380999982 0
v 0.127000049 -0.63499999 0
v -0.112710461 -0.610601842 0.0249224063
v 0.11175362 -0.610601842 0.0249224063
v -0.127000004 -0.63499999 0
v 0.127000049 -0.380999982 0
v 0.11175362 -0.610601842 0.0249224063
v 0.11175362 -0.363456845 0.0249224026
v 0.127000049 -0.63499999 0
v 0.380999893 -0.380999982 0
v 0.11175362 -0.363456845 0.0249224026
v 0.356584132 -0.363456845 0.0249224026
v 0.127000049 -0.380999982 0
v 0.380999893 -0.127000004 0
v 0.356584132 -0.363456845 0.0249224026
v 0.356584132 -0.113981016 0.0249224007
v 0.380999893 -0.380999982 0
v 0.63499999 -0.127000004 0
v 0.356584132 -0.113981016 0.0249224007
v 0.612971127 -0.113981016 0.0249224007
v 0.380999893 -0.127000004 0
v 0.63499999 0.127000049 0
v 0.612971127 -0.113981016 0.0249224007
v 0.612971127 0.118861444 0.024922397
v 0.63499999 -0.127000004 0
v 0.380999893 0.127000049 0
v 0.612971127 0.118861444 0.024922397
v 0.36574322 0.118861444 0.0249223951
v 0.63499999 0.127000049 0
v 0.380999893 0.380999893 0
v 0.36574322 0.118861444 0.0249223951
v 0.365743309 0.368402481 0.0249223914
v 0.380999893 0.127000049 0
v 0.127000049 0.380999893 0
v 0.365743309 0.368402481 0.0249223914
v 0.117072277 0.368402481 0.0249223933
v 0.380999893 0.380999893 0
v 0.127000049 0.63499999 0
v 0.117072277 0.368402481 0.0249223933
v 0.117072277 0.622888088 0.0249223877
v 0.127000049 0.380999893 0
v -0.127000004 0.63499999 0
v 0.117072277 0.622888088 0.0249223877
v -0.115388341 0.622888088 0.0249223877
v 0.127000049 0.63499999 0
v -0.127000004 0.380999893 0
v -0.115388341 0.622888088 0.0249223877
v -0.115388341 0.368402481 0.0249223933
v -0.127000004 0.63499999 0
v -0.380999982 0.380999893 0
v -0.115388341 0.368402481 0.0249223933
v -0.364001215 0.368402392 0.0249223877
v -0.127000004 0.380999893 0
v -0.380999982 0.127000049 0
v -0.364001215 0.368402392 0.0249223877
v -0.364001215 0.112916663 0.0249223951
v -0.380999982 0.380999893 0
v -0.63499999 0.127000049 0
v -0.364001215 0.112916663 0.0249223951
v -0.615517735 0.112916701 0.024922397
v -0.380999982 0.127000049 0
v -0.63499999 -0.127000004 0
v -0.615517735 0.112916701 0.024922397
v -0.615517735 -0.113981113 0.0249224007
v -0.63499999 0.127000049 0
v -0.380999982 -0.127000004 0
v -0.615517735 -0.113981113 0.0249224007
v -0.364650756 -0.113981061 0.0249224007
v -0.63499999 -0.127000004 0
v -0.380999982 -0.380999982 0
v -0.364650756 -0.113981061 0.0249224007
v -0.364650756 -0.363456875 0.0249224026
v -0.380999982 -0.127000004 0
v -0.127000004 -0.380999982 0
v -0.364650756 -0.363456875 0.0249224026
v -0.112710461 -0.363456845 0.0249224044
v -0.380999982 -0.380999982 0
vt 0.797878027 0.00641300017
vt 0.748076975 0.993587017
vt 0.797878027 0.993587017
vt 0.748076975 0.00641300017
vt 0.847679019 0.00641300017
vt 0.797878027 0.993587017
vt 0.847679019 0.993587017
vt 0.797878027 0.00641300017
vt 0.897480011 0.00641300017
vt 0.847679019 0.993587017
vt 0.897480011 0.993587017
vt 0.847679019 0.00641300017
vt 0.94727999 0.00641199993
vt 0.897480011 0.993587017
vt 0.94727999 0.993587017
vt 0.897480011 0.00641300017
vt 0.997080982 0.00641300017
vt 0.94727999 0.993587017
vt 0.997080982 0.993587017
vt 0.94727999 0.00641199993
vt 0.0508660004 0.00641300017
vt 0.00106499996 0.993587017
vt 0.0508660004 0.993587017
vt 0.00106599997 0.00641300017
vt 0.100667 0.00641300017
vt 0.0508660004 0.993587017
vt 0.100667 0.993587017
vt 0.0508660004 0.00641300017
vt 0.150468007 0.00641300017
vt 0.100667 0.993587017
vt 0.150468007 0.993587017
vt 0.100667 0.00641300017
vt 0.200268999 0.00641300017
vt 0.150468007 0.993587017
vt 0.200268999 0.993587017
vt 0.150468007 0.00641300017
vt 0.250068992 0.00641300017
vt 0.200268999 0.993587017
vt 0.250068992 0.993587017
vt 0.200268999 0.00641300017
vt 0.299870014 0.00641300017
vt 0.250068992 0.993587017
vt 0.299870014 0.993587017
vt 0.250068992 0.00641300017
vt 0.349671006 0.00641300017
vt 0.299870014 0.993587017
vt 0.349671006 0.993587017
vt 0.299870014 0.00641300017
vt 0.399471998 0.00641300017
vt 0.349671006 0.993587017
vt 0.399471998 0.993587017
vt 0.349671006 0.00641300017
vt 0.449272007 0.00641199993
vt 0.399471998 0.993587017
vt 0.449272007 0.993587017
vt 0.399471998 0.00641300017
vt 0.499072999 0.00641300017
vt 0.449272007 0.993587017
vt 0.499072999 0.993587017
vt 0.449272007 0.00641199993
vt 0.548874021 0.00641300017
vt 0.499072999 0.993587017
vt 0.548874021 0.993587017
vt 0.499072999 0.00641300017
vt 0.598675013 0.00641300017
vt 0.548874021 0.993587017
vt 0.598675013 0.993587017
vt 0.548874021 0.00641300017
vt 0.648476005 0.00641300017
vt 0.598675013 0.993587017
vt 0.648474991 0.993587017
vt 0.598675013 0.00641300017
vt 0.698275983 0.00641300017
vt 0.648474991 0.993587017
vt 0.698275983 0.993587017
vt 0.648476005 0.00641300017
vt 0.748076975 0.00641300017
vt 0.698275983 0.993587017
vt 0.748076975 0.993587017
vt 0.698275983 0.00641300017
vn -1 0 0
vn -1 -9.53652489E-05 -1.19206561E-05
vn -1 0 0
vn -1 0 0
vn 0.000190730498 -1 0
vn 0.000429143576 -0.999999881 2.38413086E-05
vn -0 -1 1.19206561E-05
vn 0.000190730498 -1 0
vn 1 0 0
vn 1 0 0
vn 1 -9.53652489E-05 0
vn 1 0 0
vn -0 -1 0
vn -0 -1 1.19206561E-05
vn -0 -1 0
vn -0 -1 0
vn 1 0.000190730498 0
vn 1 0 0
vn 1 -0.000190730498 0
vn 1 0 0
vn -0 -1 0
vn -0 -1 -1.19206561E-05
vn -0.000381460995 -1 -1.19206561E-05
vn -0 -1 0
vn 1 0 0
vn 1 0 0
vn 1 0 0
vn 1 0 0
vn -0 1 0
vn -0.000381460995 1 0
vn -0 1 0
vn -0 1 0
vn 1 0 0
vn 0.999999881 -0.000429143576 5.96032714E-06
vn 1 0 0
vn 1 0 0
vn -0 1 0
vn -0.000381460995 1 0
vn -0 1 0
vn -0 1 0
vn 1 0 0
vn 1 0 0
vn 1 -0.000381460995 0
vn 1 0 0
vn -0 1 0
vn -0 1 0
vn -0 1 0
vn -0 1 0
vn -1 0 0
vn -1 -0.000381460995 0
vn -1 -0.000381460995 0
vn -1 0 0
vn -0 1 0
vn -0 1 0
vn -0 1 1.19206561E-05
vn 0.000190730498 1 0
vn -1 0 0
vn -1 0.000381460995 1.19206561E-05
vn -1 0 5.96032805E-06
vn -1 0 0
vn -0 1 0
vn -0 1 0
vn -0 1 0
vn -0 1 0
vn -1 0.000190730498 0
vn -1 0 0
vn -1 0.000190730498 5.96032805E-06
vn -1 0.000190730498 0
vn -0 -1 0
vn -0 -1 -1.19206561E-05
vn -0 -1 -1.19206561E-05
vn -0 -1 0
vn -1 0 0
vn -1 0.000190730498 0
vn -1 0 1.19206561E-05
vn -1 0.000190730498 0
vn 0.000190730498 -1 0
vn 9.53652489E-05 -1 0
vn 0.000190730498 -1 0
vn -0 -1 0
g asd_Plane001_0
f 3/3/3 2/2/2 1/1/1
f 4/4/4 1/1/1 2/2/2
f 7/7/7 6/6/6 5/5/5
f 8/8/8 5/5/5 6/6/6
f 11/11/11 10/10/10 9/9/9
f 12/12/12 9/9/9 10/10/10
f 15/15/15 14/14/14 13/13/13
f 16/16/16 13/13/13 14/14/14
f 19/19/19 18/18/18 17/17/17
f 20/20/20 17/17/17 18/18/18
f 23/23/23 22/22/22 21/21/21
f 24/24/24 21/21/21 22/22/22
f 27/27/27 26/26/26 25/25/25
f 28/28/28 25/25/25 26/26/26
f 31/31/31 30/30/30 29/29/29
f 32/32/32 29/29/29 30/30/30
f 35/35/35 34/34/34 33/33/33
f 36/36/36 33/33/33 34/34/34
f 39/39/39 38/38/38 37/37/37
f 40/40/40 37/37/37 38/38/38
f 43/43/43 42/42/42 41/41/41
f 44/44/44 41/41/41 42/42/42
f 47/47/47 46/46/46 45/45/45
f 48/48/48 45/45/45 46/46/46
f 51/51/51 50/50/50 49/49/49
f 52/52/52 49/49/49 50/50/50
f 55/55/55 54/54/54 53/53/53
f 56/56/56 53/53/53 54/54/54
f 59/59/59 58/58/58 57/57/57
f 60/60/60 57/57/57 58/58/58
f 63/63/63 62/62/62 61/61/61
f 64/64/64 61/61/61 62/62/62
f 67/67/67 66/66/66 65/65/65
f 68/68/68 65/65/65 66/66/66
f 71/71/71 70/70/70 69/69/69
f 72/72/72 69/69/69 70/70/70
f 75/75/75 74/74/74 73/73/73
f 76/76/76 73/73/73 74/74/74
f 79/79/79 78/78/78 77/77/77
f 80/80/80 77/77/77 78/78/78
