g Cone004
v 0.0784903094 0.241568372 0
v 0.0297991745 0.473644495 0.00809525419
v 0.0159487873 0.253498793 0
v 0.146653578 0.451353312 0.00809525419
v 0.136099994 0.214459285 0
v 0.254293174 0.40070197 0.00809525419
v 0.185158014 0.173874989 0
v 0.345954597 0.32487306 0.00809525419
v 0.222581878 0.122365445 0
v 0.415878445 0.228631124 0.00809525419
v 0.246020123 0.0631672367 0
v 0.45967111 0.118023485 0.00809525419
v 0.254000008 0 0
v 0.474580973 0 0.00809525419
v 0.246020198 -0.0631668642 0
v 0.459671319 -0.118022799 0.00809525419
v 0.222582072 -0.122365117 0
v 0.415878773 -0.228630543 0.00809525419
v 0.185158253 -0.173874736 0
v 0.345955044 -0.324872583 0.00809525419
v 0.136100262 -0.214459121 0
v 0.25429368 -0.400701642 0.00809525419
v 0.0784905776 -0.241568267 0
v 0.146654084 -0.451353163 0.00809525419
v 0.0159490444 -0.253498763 0
v 0.0297996551 -0.473644435 0.00809525419
v -0.047594633 -0.249501005 0
v -0.088927187 -0.466174871 0.00809525419
v -0.108147755 -0.229826152 0
v -0.202066407 -0.429413855 0.00809525419
v -0.161905557 -0.195710465 0
v -0.30250904 -0.365671098 0.00809525419
v -0.205490187 -0.149297625 0
v -0.383943826 -0.278951973 0.00809525419
v -0.236163169 -0.093503803 0
v -0.441254109 -0.174705222 0.00809525419
v -0.251997113 -0.0318347961 0
v -0.470838696 -0.0594810583 0.00809525419
v -0.251997173 0.0318345129 0
v -0.470838785 0.0594805256 0.00809525419
v -0.236163244 0.0935035348 0
v -0.441254258 0.174704716 0.00809525419
v -0.205490366 0.149297386 0
v -0.383944154 0.278951585 0.00809525419
v -0.161905736 0.195710331 0
v -0.302509367 0.36567083 0.00809525419
v -0.108147964 0.229826063 0
v -0.202066779 0.429413646 0.00809525419
v -0.0475948527 0.249500945 0
v -0.0889276043 0.466174841 0.00809525419
v 0.0159487873 0.253498793 0
v 0.0297991745 0.473644495 0.00809525419
vt 0.949999988 0
vt 0.99000001 1
vt 0.99000001 0
vt 0.949999988 1
vt 0.910000026 0
vt 0.910000026 1
vt 0.870000005 0
vt 0.870000005 1
vt 0.829999983 0
vt 0.829999983 1
vt 0.790000021 0
vt 0.790000021 1
vt 0.75 0
vt 0.75 1
vt 0.710000277 0
vt 0.710000277 1
vt 0.670000255 0
vt 0.670000255 1
vt 0.630000174 0
vt 0.630000174 1
vt 0.590000212 0
vt 0.590000212 1
vt 0.550000191 0
vt 0.550000191 1
vt 0.510000169 0
vt 0.510000169 1
vt 0.470000148 0
vt 0.470000148 1
vt 0.430000126 0
vt 0.430000126 1
vt 0.390000105 0
vt 0.390000105 1
vt 0.350000143 0
vt 0.350000143 1
vt 0.310000122 0
vt 0.310000122 1
vt 0.2700001 0
vt 0.27000013 1
vt 0.230000094 0
vt 0.230000094 1
vt 0.190000072 0
vt 0.190000072 1
vt 0.150000051 0
vt 0.150000051 1
vt 0.110000044 0
vt 0.110000044 1
vt 0.0700000301 0
vt 0.0700000301 1
vt 0.0300000105 0
vt 0.0300000105 1
vt -0.00999999046 0
vt -0.00999999046 1
vn 0.011333202 0.0348800048 -0.999327302
vn 0.00230284128 0.0366026349 -0.999327302
vn 0.00230284082 0.0366026312 -0.999327302
vn 0.0113332029 0.0348800048 -0.999327302
vn 0.0196514502 0.0309657399 -0.999327302
vn 0.0196514502 0.0309657399 -0.999327302
vn 0.0267349295 0.0251057725 -0.999327302
vn 0.0267349295 0.0251057688 -0.999327302
vn 0.03213856 0.0176683236 -0.999327302
vn 0.0321385562 0.0176683217 -0.999327302
vn 0.0355227925 0.00912070833 -0.999327302
vn 0.0355227962 0.00912070833 -0.999327302
vn 0.0366750062 0 -0.999327302
vn 0.0366750062 0 -0.999327302
vn 0.0355228037 -0.00912066735 -0.999327302
vn 0.0355228074 -0.00912066456 -0.999327302
vn 0.0321385786 -0.0176682752 -0.999327302
vn 0.0321385823 -0.017668277 -0.999327302
vn 0.0267349593 -0.0251057334 -0.999327302
vn 0.0267349631 -0.0251057371 -0.999327302
vn 0.0196514893 -0.0309657101 -0.999327302
vn 0.0196514893 -0.0309657101 -0.999327302
vn 0.0113332365 -0.0348799936 -0.999327302
vn 0.0113332346 -0.0348799899 -0.999327302
vn 0.00230287411 -0.0366026387 -0.999327302
vn 0.00230287528 -0.0366026424 -0.999327302
vn -0.00687217806 -0.0360253975 -0.999327302
vn -0.00687217806 -0.0360254012 -0.999327302
vn -0.0156154344 -0.0331845544 -0.999327302
vn -0.0156154344 -0.0331845544 -0.999327302
vn -0.0233775135 -0.0282585975 -0.999327302
vn -0.0233775098 -0.0282585938 -0.999327302
vn -0.0296706855 -0.0215570591 -0.999327302
vn -0.0296706911 -0.0215570573 -0.999327302
vn -0.0340995528 -0.0135009969 -0.999327302
vn -0.0340995528 -0.0135009969 -0.999327302
vn -0.036385823 -0.00459661987 -0.999327302
vn -0.0363858156 -0.00459661987 -0.999327302
vn -0.0363858156 0.00459658122 -0.999327302
vn -0.0363858156 0.00459657982 -0.999327302
vn -0.0340995714 0.0135009615 -0.999327302
vn -0.0340995677 0.0135009615 -0.999327302
vn -0.0296707153 0.0215570182 -0.999327302
vn -0.0296707097 0.0215570144 -0.999327302
vn -0.0233775321 0.0282585733 -0.999327302
vn -0.0233775321 0.0282585695 -0.999327302
vn -0.0156154642 0.0331845395 -0.999327302
vn -0.0156154642 0.0331845395 -0.999327302
vn -0.00687221531 0.03602539 -0.999327302
vn -0.00687221438 0.03602539 -0.999327302
vn 0.00230284082 0.0366026312 -0.999327302
vn 0.00230284128 0.0366026349 -0.999327302
g Cone004_0
f 3/3/3 2/2/2 1/1/1
f 2/2/2 4/4/4 1/1/1
f 1/1/1 4/4/4 5/5/5
f 4/4/4 6/6/6 5/5/5
f 5/5/5 6/6/6 7/7/7
f 6/6/6 8/8/8 7/7/7
f 7/7/7 8/8/8 9/9/9
f 8/8/8 10/10/10 9/9/9
f 9/9/9 10/10/10 11/11/11
f 10/10/10 12/12/12 11/11/11
f 11/11/11 12/12/12 13/13/13
f 12/12/12 14/14/14 13/13/13
f 13/13/13 14/14/14 15/15/15
f 14/14/14 16/16/16 15/15/15
f 15/15/15 16/16/16 17/17/17
f 16/16/16 18/18/18 17/17/17
f 17/17/17 18/18/18 19/19/19
f 18/18/18 20/20/20 19/19/19
f 19/19/19 20/20/20 21/21/21
f 20/20/20 22/22/22 21/21/21
f 21/21/21 22/22/22 23/23/23
f 22/22/22 24/24/24 23/23/23
f 23/23/23 24/24/24 25/25/25
f 24/24/24 26/26/26 25/25/25
f 25/25/25 26/26/26 27/27/27
f 26/26/26 28/28/28 27/27/27
f 27/27/27 28/28/28 29/29/29
f 28/28/28 30/30/30 29/29/29
f 29/29/29 30/30/30 31/31/31
f 30/30/30 32/32/32 31/31/31
f 31/31/31 32/32/32 33/33/33
f 32/32/32 34/34/34 33/33/33
f 33/33/33 34/34/34 35/35/35
f 34/34/34 36/36/36 35/35/35
f 35/35/35 36/36/36 37/37/37
f 36/36/36 38/38/38 37/37/37
f 37/37/37 38/38/38 39/39/39
f 38/38/38 40/40/40 39/39/39
f 39/39/39 40/40/40 41/41/41
f 40/40/40 42/42/42 41/41/41
f 41/41/41 42/42/42 43/43/43
f 42/42/42 44/44/44 43/43/43
f 43/43/43 44/44/44 45/45/45
f 44/44/44 46/46/46 45/45/45
f 45/45/45 46/46/46 47/47/47
f 46/46/46 48/48/48 47/47/47
f 47/47/47 48/48/48 49/49/49
f 48/48/48 50/50/50 49/49/49
f 49/49/49 50/50/50 51/51/51
f 50/50/50 52/52/52 51/51/51
