g Cone001
v 0.986425459 -0.569513917 0
v 0.86602515 -0.500000596 0.100000001
v 0.965925634 -0.258819759 0.100000001
v 0.805412889 -0.805413842 0
v 1.10021484 -0.294802547 0
v 0.707106352 -0.707107246 0.100000001
v 1 0 0.100000001
v 0.569512606 -0.986426234 0
v 1.1390264 2.3317277E-08 0
v 0.499999523 -0.866025686 0.100000001
v 0.965925813 0.258819044 0.100000001
v 0.294801116 -1.1002152 0
v 1.10021496 0.294801801 0
v 0.258818537 -0.965925932 0.100000001
v 0.866025448 0.5 0.100000001
v -5.75210436E-07 -1.13902652 0
v 0.986425698 0.569513261 0
v -4.6491229E-07 -1 0.100000001
v 0.707106769 0.707106769 0.100000001
v -0.294802248 -1.10021496 0
v 0.805413306 0.805413365 0
v -0.258819431 -0.965925694 0.100000001
v 0.49999994 0.866025448 0.100000001
v -0.569513619 -0.986425698 0
v 0.569513202 0.986425936 0
v -0.500000298 -0.866025209 0.100000001
v 0.258819073 0.965925813 0.100000001
v -0.805413842 -0.805412948 0
v 0.294801712 1.10021508 0
v -0.707107186 -0.707106411 0.100000001
v 7.54979013E-08 1 0.100000001
v -0.986426234 -0.569512784 0
v 4.03311127E-08 1.13902652 0
v -0.866025627 -0.499999553 0.100000001
v -0.258818924 0.965925932 0.100000001
v -1.10021532 -0.294801265 0
v -0.294801682 1.1002152 0
v -0.965925932 -0.258818626 0.100000001
v -0.499999851 0.866025507 0.100000001
v -1.13902664 4.66870574E-07 0
v -0.569513142 0.986425996 0
v -1 3.89414367E-07 0.100000001
v -0.70710659 0.707106948 0.100000001
v -1.10021508 0.294802159 0
v -0.805413187 0.805413544 0
v -0.965925694 0.258819371 0.100000001
v -0.866025209 0.500000238 0.100000001
v -0.986425936 0.569513559 0
vt 0.0886897743 0.739551604
vt 0.148518741 0.703094661
vt 0.107587397 0.604962945
vt 0.16458258 0.838505566
vt 0.0406827331 0.624007881
vt 0.213304564 0.787236154
vt 0.0935223401 0.499535203
vt 0.263064533 0.914266825
vt 0.0241112374 0.499667913
vt 0.297426313 0.851713121
vt 0.107624605 0.394124836
vt 0.37743178 0.961818218
vt 0.0406630933 0.37532118
vt 0.395153224 0.892212033
vt 0.148591995 0.296013057
vt 0.499996096 0.978025377
vt 0.0886572897 0.259760499
vt 0.49990496 0.906037152
vt 0.21341233 0.211897254
vt 0.622561336 0.961821437
vt 0.164546698 0.160785675
vt 0.604663134 0.892270386
vt 0.297565609 0.14745371
vt 0.736931145 0.914271832
vt 0.263034135 0.0850047246
vt 0.702408969 0.851826072
vt 0.395318389 0.106997922
vt 0.8354159 0.838510454
vt 0.377414286 0.0374398306
vt 0.786560833 0.787397921
vt 0.500087321 0.0932261869
vt 0.911311209 0.73955518
vt 0.499995261 0.0212290436
vt 0.851385415 0.703297198
vt 0.604851007 0.107054189
vt 0.959318697 0.624009192
vt 0.622576833 0.0374393389
vt 0.892362297 0.605196893
vt 0.702587962 0.147563547
vt 0.975888729 0.499667913
vt 0.736958504 0.0850039199
vt 0.906476736 0.499790817
vt 0.786714792 0.212055743
vt 0.95933491 0.375320405
vt 0.83544749 0.160784721
vt 0.892423511 0.394357711
vt 0.851499498 0.296213031
vt 0.911338747 0.259759396
vn 0.50569278 -0.291962236 0.811808407
vn 0.50569278 -0.291962147 0.811808407
vn 0.564027131 -0.151130885 0.811808527
vn 0.412896127 -0.412896693 0.811808527
vn 0.564027071 -0.151130915 0.811808527
vn 0.412896067 -0.412896723 0.811808586
vn 0.583923936 0 0.811808407
vn 0.291961491 -0.505693018 0.811808527
vn 0.583923936 0 0.811808407
vn 0.291961521 -0.505693078 0.811808527
vn 0.564027131 0.151130587 0.811808527
vn 0.151130259 -0.564027071 0.811808527
vn 0.56402719 0.151130661 0.811808407
vn 0.151130259 -0.564027071 0.811808586
vn 0.505693018 0.291962057 0.811808348
vn -0 -0.583923697 0.811808586
vn 0.505693018 0.291962057 0.811808348
vn -0 -0.583923697 0.811808586
vn 0.412896454 0.412896365 0.811808527
vn -0.151130736 -0.564026713 0.811808646
vn 0.412896454 0.412896335 0.811808586
vn -0.151130706 -0.564026713 0.811808646
vn 0.291961849 0.50569272 0.811808586
vn -0.291961968 -0.505692422 0.811808765
vn 0.291961759 0.50569272 0.811808646
vn -0.291961968 -0.505692482 0.811808765
vn 0.151130572 0.564026952 0.811808586
vn -0.412896544 -0.412896037 0.811808765
vn 0.151130527 0.564027011 0.811808527
vn -0.412896484 -0.412896097 0.811808765
vn -0 0.583923697 0.811808586
vn -0.50569272 -0.291961461 0.811808765
vn -0 0.583923638 0.811808586
vn -0.50569272 -0.291961461 0.811808765
vn -0.151130408 0.564026952 0.811808586
vn -0.564026773 -0.151130319 0.811808825
vn -0.151130453 0.564026892 0.811808646
vn -0.564026773 -0.151130319 0.811808825
vn -0.29196173 0.505692601 0.811808765
vn -0.583923399 0 0.811808825
vn -0.2919617 0.505692601 0.811808765
vn -0.58392334 0 0.811808825
vn -0.412896216 0.412896276 0.811808646
vn -0.564026535 0.151130602 0.811808825
vn -0.412896156 0.412896335 0.811808765
vn -0.564026475 0.151130602 0.811808825
vn -0.505692184 0.291961819 0.811808884
vn -0.505692124 0.291961759 0.811808944
g Cone001_0
f 3/3/3 2/2/2 1/1/1
f 1/1/1 2/2/2 4/4/4
f 5/5/5 3/3/3 1/1/1
f 2/2/2 6/6/6 4/4/4
f 7/7/7 3/3/3 5/5/5
f 4/4/4 6/6/6 8/8/8
f 9/9/9 7/7/7 5/5/5
f 6/6/6 10/10/10 8/8/8
f 11/11/11 7/7/7 9/9/9
f 8/8/8 10/10/10 12/12/12
f 13/13/13 11/11/11 9/9/9
f 10/10/10 14/14/14 12/12/12
f 15/15/15 11/11/11 13/13/13
f 12/12/12 14/14/14 16/16/16
f 17/17/17 15/15/15 13/13/13
f 14/14/14 18/18/18 16/16/16
f 19/19/19 15/15/15 17/17/17
f 16/16/16 18/18/18 20/20/20
f 21/21/21 19/19/19 17/17/17
f 18/18/18 22/22/22 20/20/20
f 23/23/23 19/19/19 21/21/21
f 20/20/20 22/22/22 24/24/24
f 25/25/25 23/23/23 21/21/21
f 22/22/22 26/26/26 24/24/24
f 27/27/27 23/23/23 25/25/25
f 24/24/24 26/26/26 28/28/28
f 29/29/29 27/27/27 25/25/25
f 26/26/26 30/30/30 28/28/28
f 31/31/31 27/27/27 29/29/29
f 28/28/28 30/30/30 32/32/32
f 33/33/33 31/31/31 29/29/29
f 30/30/30 34/34/34 32/32/32
f 35/35/35 31/31/31 33/33/33
f 32/32/32 34/34/34 36/36/36
f 37/37/37 35/35/35 33/33/33
f 34/34/34 38/38/38 36/36/36
f 39/39/39 35/35/35 37/37/37
f 36/36/36 38/38/38 40/40/40
f 41/41/41 39/39/39 37/37/37
f 38/38/38 42/42/42 40/40/40
f 43/43/43 39/39/39 41/41/41
f 40/40/40 42/42/42 44/44/44
f 45/45/45 43/43/43 41/41/41
f 42/42/42 46/46/46 44/44/44
f 47/47/47 43/43/43 45/45/45
f 44/44/44 46/46/46 48/48/48
f 48/48/48 47/47/47 45/45/45
f 46/46/46 47/47/47 48/48/48
