g Cube
v -0.25 -0.25 0
v -0.25 0.25 0
v -0.105559647 0.105559647 0.188716739
v -0.105559647 -0.105559647 0.188716739
v -0.25 0.25 0
v 0.25 0.25 0
v 0.105559647 0.105559647 0.188716739
v -0.105559647 0.105559647 0.188716739
v 0.25 0.25 0
v 0.25 -0.25 0
v 0.105559647 -0.105559647 0.188716739
v 0.105559647 0.105559647 0.188716739
v 0.25 -0.25 0
v -0.25 -0.25 0
v -0.105559647 -0.105559647 0.188716739
v 0.105559647 -0.105559647 0.188716739
v 0.105559647 0.105559647 0.188716739
v 0.105559647 -0.105559647 0.188716739
v -0.105559647 -0.105559647 0.188716739
v -0.105559647 0.105559647 0.188716739
vt -0.00244140625 0.968261719
vt 0.247558594 0.968261719
vt 0.247558594 0.492675781
vt -0.00244140625 0.492675781
vt 0.247558594 0.968261719
vt 0.497558594 0.968261719
vt 0.497558594 0.492675781
vt 0.247558594 0.492675781
vt 0.497558594 0.968261719
vt 0.747558594 0.968261719
vt 0.747558594 0.492675781
vt 0.497558594 0.492675781
vt 0.747558594 0.968261719
vt 0.997558594 0.968261719
vt 0.997558594 0.492675781
vt 0.747558594 0.492675781
vt 0.497558594 0.492675781
vt 0.747558594 0.492675781
vt 0.747558594 0.0170898438
vt 0.497558594 0.0170898438
vn -0.794098794 0 0.607788801
vn -0.794098794 0 0.607788801
vn -0.794098794 0 0.607788801
vn -0.794098794 0 0.607788801
vn -0 0.794098794 0.607788742
vn -0 0.794098794 0.607788742
vn -0 0.794098794 0.607788742
vn -0 0.794098794 0.607788742
vn 0.794098794 0 0.607788801
vn 0.794098794 0 0.607788801
vn 0.794098794 0 0.607788801
vn 0.794098794 0 0.607788801
vn -0 -0.794098794 0.607788742
vn -0 -0.794098794 0.607788742
vn -0 -0.794098794 0.607788742
vn -0 -0.794098794 0.607788742
vn -0 0 1
vn -0 0 1
vn -0 0 1
vn -0 0 1
g Cube_0
f 3/3/3 2/2/2 1/1/1
f 4/4/4 3/3/3 1/1/1
f 7/7/7 6/6/6 5/5/5
f 8/8/8 7/7/7 5/5/5
f 11/11/11 10/10/10 9/9/9
f 12/12/12 11/11/11 9/9/9
f 15/15/15 14/14/14 13/13/13
f 16/16/16 15/15/15 13/13/13
f 19/19/19 18/18/18 17/17/17
f 20/20/20 19/19/19 17/17/17
