g fanny_smoke01
v -0.0808523446 -0.575298667 0
v -0.19393453 -1.32236362 1.082196
v 0.226370201 -1.31502688 1.082196
v 0.100882001 -0.572126329 0
v 0.623836458 -1.1781677 1.082196
v 0.272741318 -0.512950242 0
v 0.959557712 -0.925183058 1.082196
v 0.417902827 -0.403562963 0
v 1.2006706 -0.580836952 1.082196
v 0.522156954 -0.25467208 0
v 1.32357407 -0.178836137 1.082196
v 0.575298786 -0.080852069 0
v -0.414394587 0.360227734 0
v -0.965331912 0.841267824 1.0005368
v -1.17587137 0.504334033 1.0005368
v -0.505429268 0.214541882 0
v -1.27198803 0.118830584 1.0005368
v -0.546988845 0.0478551388 0
v -1.2442733 -0.277506739 1.0005368
v -0.535005391 -0.123516001 0
v -1.09543991 -0.645881474 1.0005368
v -0.470651686 -0.282796562 0
v -0.840056956 -0.95023489 1.0005368
v -0.360227436 -0.414395005 0
v 0.490789592 0.159467191 0
v 1.12812614 0.376960427 0.915911674
v 0.958604276 0.709665537 0.915911674
v 0.417490572 0.30332455 0
v 0.694567978 0.973701835 0.915911674
v 0.303324699 0.417490542 0
v 0.361862779 1.1432234 0.915911674
v 0.15946725 0.490789503 0
v -0.00694368361 1.20163679 0.915911674
v 6.67572024E-08 0.516046643 0
v -0.375750184 1.14322352 0.915911674
v -0.159467101 0.490789473 0
v -0.55047226 -0.346569598 0
v -1.4788568 -0.911814868 0.634316266
v -1.12035429 -1.32422388 0.634316266
v -0.417354912 -0.499703288 0
v -0.651957095 -1.60566473 0.634316266
v -0.243431836 -0.604206502 0
v -0.119514309 -1.72858822 0.634316266
v -0.0457279012 -0.649849832 0
v 0.424853683 -1.68096125 0.634316266
v 0.156404153 -0.632165313 0
v 0.927861154 -1.46744621 0.634316266
v 0.343178481 -0.552883863 0
v 0.0102074239 0.609951317 0
v 0.0311267842 1.66422069 0.528165281
v -0.480313659 1.59234202 0.528165281
v -0.179698229 0.583261788 0
v -0.944510937 1.36593795 0.528165281
v -0.35206157 0.499194324 0
v -1.31602597 1.00716972 0.528165281
v -0.490010709 0.365978301 0
v -1.55849195 0.551156461 0.528165281
v -0.580042005 0.196653634 0
v -1.64817536 0.0425357036 0.528165281
v -0.613342822 0.00779518113 0
v 0.488047332 -0.308173448 0
v 1.318012 -0.808409095 0.418159068
v 1.50767148 -0.361598969 0.418159068
v 0.558470726 -0.142266169 0
v 1.54997659 0.121950604 0.418159068
v 0.574179292 0.0372832082 0
v 1.44078565 0.594906628 0.418159068
v 0.533635139 0.21289894 0
v 1.19078815 1.0109731 0.418159068
v 0.440807194 0.367390662 0
v 0.824454308 1.329422 0.418159068
v 0.304781944 0.485635519 0
vt 0 5.96046448E-08
vt 0 1
vt 0.200205609 1
vt 0.200205609 5.96046448E-08
vt 0.400411576 1
vt 0.400411576 5.96046448E-08
vt 0.60061729 1
vt 0.60061729 5.96046448E-08
vt 0.800823033 1
vt 0.800823033 5.96046448E-08
vt 1.00102901 1
vt 1.00102901 5.96046448E-08
vt -3.05697654E-08 5.96046448E-08
vt -3.05697654E-08 1
vt 0.199794278 1
vt 0.199794278 5.96046448E-08
vt 0.399588525 1
vt 0.399588525 5.96046448E-08
vt 0.599382758 1
vt 0.599382758 5.96046448E-08
vt 0.799176991 1
vt 0.799176991 5.96046448E-08
vt 0.998971283 1
vt 0.998971283 5.96046448E-08
vt 0 5.96046448E-08
vt 0 1
vt 0.200329304 1
vt 0.200329304 5.96046448E-08
vt 0.400658607 1
vt 0.400658607 5.96046448E-08
vt 0.600987673 1
vt 0.600987673 5.96046448E-08
vt 0.801316977 1
vt 0.801316977 5.96046448E-08
vt 1.00164604 1
vt 1.00164604 5.96046448E-08
vt 0 5.96046448E-08
vt 0 1
vt 0.200205609 1
vt 0.200205609 5.96046448E-08
vt 0.400411576 1
vt 0.400411576 5.96046448E-08
vt 0.60061729 1
vt 0.60061729 5.96046448E-08
vt 0.800823033 1
vt 0.800823033 5.96046448E-08
vt 1.00102901 1
vt 1.00102901 5.96046448E-08
vt -3.05697654E-08 5.96046448E-08
vt -3.05697654E-08 1
vt 0.199794278 1
vt 0.199794278 5.96046448E-08
vt 0.399588525 1
vt 0.399588525 5.96046448E-08
vt 0.599382758 1
vt 0.599382758 5.96046448E-08
vt 0.799176991 1
vt 0.799176991 5.96046448E-08
vt 0.998971283 1
vt 0.998971283 5.96046448E-08
vt 0 5.96046448E-08
vt 0 1
vt 0.200329304 1
vt 0.200329304 5.96046448E-08
vt 0.400658607 1
vt 0.400658607 5.96046448E-08
vt 0.600987673 1
vt 0.600987673 5.96046448E-08
vt 0.801316977 1
vt 0.801316977 5.96046448E-08
vt 1.00164604 1
vt 1.00164604 5.96046448E-08
vn 0.0143760806 -0.823572397 -0.56702888
vn 0.0143760806 -0.823572397 -0.56702888
vn 0.142208353 -0.80828619 -0.571358263
vn 0.142875403 -0.80817014 -0.571355999
vn 0.38538447 -0.72508198 -0.570731938
vn 0.385638773 -0.724947095 -0.570731521
vn 0.590769529 -0.57041496 -0.570629716
vn 0.590679049 -0.570508659 -0.570629537
vn 0.73793453 -0.35964036 -0.571061671
vn 0.737700701 -0.360121906 -0.5710603
vn 0.787961721 -0.240902871 -0.566641092
vn 0.787961721 -0.240902886 -0.566641092
vn -0.687650323 0.429691523 -0.585236847
vn -0.687650323 0.429691523 -0.585236847
vn -0.743372917 0.315854132 -0.58960408
vn -0.743619263 0.315277278 -0.589602172
vn -0.805325389 0.0709087029 -0.588577092
vn -0.805414736 0.0699270591 -0.588572145
vn -0.788858235 -0.181536496 -0.587151706
vn -0.788582683 -0.182755396 -0.587143898
vn -0.695232213 -0.416995168 -0.585463285
vn -0.694520712 -0.418192714 -0.58545357
vn -0.624141812 -0.523717463 -0.579799175
vn -0.624141812 -0.523717463 -0.579799116
vn 0.720404387 0.367064744 -0.588456392
vn 0.720404387 0.367064744 -0.588456392
vn 0.650307059 0.473330319 -0.594187796
vn 0.651203752 0.472110271 -0.594176352
vn 0.471404016 0.649974406 -0.596080124
vn 0.472598761 0.649116039 -0.596069336
vn 0.24715884 0.762574494 -0.597823262
vn 0.248382941 0.76218313 -0.597814977
vn -0.000444959936 0.800561666 -0.599250138
vn 0.000530569057 0.800565183 -0.599245369
vn -0.1257184 0.79375422 -0.595104337
vn -0.1257184 0.79375422 -0.595104337
vn -0.384463638 -0.334209859 -0.860518038
vn -0.384463638 -0.334209889 -0.860518157
vn -0.324982136 -0.386826426 -0.862990081
vn -0.324451715 -0.387276858 -0.862987697
vn -0.189630017 -0.469006628 -0.86259681
vn -0.189355537 -0.469118237 -0.862596333
vn -0.035237737 -0.5047732 -0.862532496
vn -0.0353715494 -0.50476402 -0.862532377
vn 0.122535035 -0.490463406 -0.862804055
vn 0.122001477 -0.490599066 -0.862802505
vn 0.19920966 -0.469306231 -0.860271573
vn 0.199209645 -0.469306231 -0.860271573
vn -0.0629657209 0.448022395 -0.891802311
vn -0.0629657209 0.448022395 -0.891802311
vn -0.130852759 0.428865343 -0.893841147
vn -0.131410778 0.428698123 -0.893839538
vn -0.257454664 0.368378758 -0.893316388
vn -0.258211285 0.367858917 -0.893312216
vn -0.359783769 0.271752059 -0.892584205
vn -0.360497504 0.270826995 -0.89257735
vn -0.427761197 0.147891268 -0.891710997
vn -0.428202808 0.146659628 -0.891702473
vn -0.451040387 0.079530403 -0.88895303
vn -0.451040328 0.079530403 -0.88895303
vn 0.367775887 -0.156111449 -0.916717052
vn 0.367775917 -0.156111449 -0.916717052
vn 0.382886052 -0.0948976949 -0.918908477
vn 0.382596731 -0.0961344317 -0.918900311
vn 0.391686261 0.0279217288 -0.919675112
vn 0.391789168 0.0266989376 -0.919667602
vn 0.362389207 0.146912381 -0.920375288
vn 0.362800896 0.145928577 -0.920369685
vn 0.298298538 0.250757426 -0.920944512
vn 0.298822463 0.25014475 -0.920941234
vn 0.257977277 0.296769172 -0.91944319
vn 0.257977307 0.296769202 -0.91944319
g fanny_smoke01_0
f 3/3/3 2/2/2 1/1/1
f 4/4/4 3/3/3 1/1/1
f 5/5/5 3/3/3 4/4/4
f 6/6/6 5/5/5 4/4/4
f 7/7/7 5/5/5 6/6/6
f 8/8/8 7/7/7 6/6/6
f 9/9/9 7/7/7 8/8/8
f 10/10/10 9/9/9 8/8/8
f 11/11/11 9/9/9 10/10/10
f 12/12/12 11/11/11 10/10/10
f 15/15/15 14/14/14 13/13/13
f 16/16/16 15/15/15 13/13/13
f 17/17/17 15/15/15 16/16/16
f 18/18/18 17/17/17 16/16/16
f 19/19/19 17/17/17 18/18/18
f 20/20/20 19/19/19 18/18/18
f 21/21/21 19/19/19 20/20/20
f 22/22/22 21/21/21 20/20/20
f 23/23/23 21/21/21 22/22/22
f 24/24/24 23/23/23 22/22/22
f 27/27/27 26/26/26 25/25/25
f 28/28/28 27/27/27 25/25/25
f 29/29/29 27/27/27 28/28/28
f 30/30/30 29/29/29 28/28/28
f 31/31/31 29/29/29 30/30/30
f 32/32/32 31/31/31 30/30/30
f 33/33/33 31/31/31 32/32/32
f 34/34/34 33/33/33 32/32/32
f 35/35/35 33/33/33 34/34/34
f 36/36/36 35/35/35 34/34/34
f 39/39/39 38/38/38 37/37/37
f 40/40/40 39/39/39 37/37/37
f 41/41/41 39/39/39 40/40/40
f 42/42/42 41/41/41 40/40/40
f 43/43/43 41/41/41 42/42/42
f 44/44/44 43/43/43 42/42/42
f 45/45/45 43/43/43 44/44/44
f 46/46/46 45/45/45 44/44/44
f 47/47/47 45/45/45 46/46/46
f 48/48/48 47/47/47 46/46/46
f 51/51/51 50/50/50 49/49/49
f 52/52/52 51/51/51 49/49/49
f 53/53/53 51/51/51 52/52/52
f 54/54/54 53/53/53 52/52/52
f 55/55/55 53/53/53 54/54/54
f 56/56/56 55/55/55 54/54/54
f 57/57/57 55/55/55 56/56/56
f 58/58/58 57/57/57 56/56/56
f 59/59/59 57/57/57 58/58/58
f 60/60/60 59/59/59 58/58/58
f 63/63/63 62/62/62 61/61/61
f 64/64/64 63/63/63 61/61/61
f 65/65/65 63/63/63 64/64/64
f 66/66/66 65/65/65 64/64/64
f 67/67/67 65/65/65 66/66/66
f 68/68/68 67/67/67 66/66/66
f 69/69/69 67/67/67 68/68/68
f 70/70/70 69/69/69 68/68/68
f 71/71/71 69/69/69 70/70/70
f 72/72/72 71/71/71 70/70/70
