g FX_m_mirror_02
v -0.00543174613 0.000243704839 -1.2700001E-06
v -0.0109509639 0.00209429208 -1.2700001E-06
v -0.00752463611 0.00323804421 -1.2700001E-06
v -0.00152458821 0.000605480978 -1.2700001E-06
v -0.00543174613 0.000243704839 -1.2700001E-06
v -0.00423914799 0.003431889 -1.2700001E-06
v 0.00143713667 0.000243704839 -1.2700001E-06
v -0.00152458821 0.000605480978 -1.2700001E-06
v -0.000171280117 0.00358420005 -1.2700001E-06
v 0.00489296811 0.000243704839 -1.2700001E-06
v 0.00143713667 0.000243704839 -1.2700001E-06
v 0.00300434954 0.00366902631 -1.2700001E-06
v 0.00787038729 0.00358421821 -1.2700001E-06
v 0.00489296811 0.000243704839 -1.2700001E-06
v 0.00646911608 0.00366903399 -1.2700001E-06
v 0.0109727597 0.000243704839 -1.2700001E-06
v 0.00787038729 -0.00222854526 -1.2700001E-06
v 0.00787038729 0.00358421821 -1.2700001E-06
v -0.00543174613 0.000243704839 -1.2700001E-06
v -0.00752463611 0.00323804421 -1.2700001E-06
v -0.00423914799 0.003431889 -1.2700001E-06
v -0.00423914799 0.003431889 -1.2700001E-06
v -0.00752463611 0.00323804421 -1.2700001E-06
v -0.00648936071 0.00655021612 -1.2700001E-06
v -0.00423914799 0.003431889 -1.2700001E-06
v -0.00648936071 0.00655021612 -1.2700001E-06
v -0.002575716 0.00772060361 -1.2700001E-06
v -0.002575716 0.00772060361 -1.2700001E-06
v -0.00648936071 0.00655021612 -1.2700001E-06
v -0.00540208677 0.010904138 -1.2700001E-06
v 0.00143713667 0.000243704839 -1.2700001E-06
v -0.000171280117 0.00358420005 -1.2700001E-06
v 0.00300434954 0.00366902631 -1.2700001E-06
v 0.00300434954 0.00366902631 -1.2700001E-06
v -0.000171280117 0.00358420005 -1.2700001E-06
v 0.00093797571 0.00638825679 -1.2700001E-06
v -0.000171280117 0.00358420005 -1.2700001E-06
v -0.002575716 0.00772060361 -1.2700001E-06
v 0.00093797571 0.00638825679 -1.2700001E-06
v 0.00489296811 0.000243704839 -1.2700001E-06
v 0.00300434954 0.00366902631 -1.2700001E-06
v 0.00646911608 0.00366903399 -1.2700001E-06
v 0.00646911608 0.00366903399 -1.2700001E-06
v 0.00300434954 0.00366902631 -1.2700001E-06
v 0.00441033905 0.00727762468 -1.2700001E-06
v 0.00300434954 0.00366902631 -1.2700001E-06
v 0.00093797571 0.00638825679 -1.2700001E-06
v 0.00441033905 0.00727762468 -1.2700001E-06
v 0.00441033905 0.00727762468 -1.2700001E-06
v 0.00093797571 0.00638825679 -1.2700001E-06
v 0.00223060278 0.0108703766 -1.2700001E-06
v 0.00093797571 0.00638825679 -1.2700001E-06
v -0.00178387854 0.0108309118 -1.2700001E-06
v 0.00223060278 0.0108703766 -1.2700001E-06
v 0.00787038729 0.00358421821 -1.2700001E-06
v 0.00646911608 0.00366903399 -1.2700001E-06
v 0.00726230582 0.010844049 -1.2700001E-06
v 0.00646911608 0.00366903399 -1.2700001E-06
v 0.00441033905 0.00727762468 -1.2700001E-06
v 0.00726230582 0.010844049 -1.2700001E-06
v 0.00726230582 0.010844049 -1.2700001E-06
v 0.00441033905 0.00727762468 -1.2700001E-06
v 0.00550963916 0.0108517073 -1.2700001E-06
v 0.00441033905 0.00727762468 -1.2700001E-06
v 0.00223060278 0.0108703766 -1.2700001E-06
v 0.00550963916 0.0108517073 -1.2700001E-06
v 0.00787038729 0.00358421821 -1.2700001E-06
v 0.00726230582 0.010844049 -1.2700001E-06
v 0.0109510729 0.00655023288 -1.2700001E-06
v 0.0109727597 0.000243704839 -1.2700001E-06
v 0.00787038729 0.00358421821 -1.2700001E-06
v 0.0109688537 0.00323804957 -1.2700001E-06
v 0.0109688537 0.00323804957 -1.2700001E-06
v 0.00787038729 0.00358421821 -1.2700001E-06
v 0.0109510729 0.00655023288 -1.2700001E-06
v 0.0109510729 0.00655023288 -1.2700001E-06
v 0.00726230582 0.010844049 -1.2700001E-06
v 0.0109975701 0.010793779 -1.2700001E-06
v -0.00540208677 0.010904138 -1.2700001E-06
v -0.00648936071 0.00655021612 -1.2700001E-06
v -0.010877003 0.0108997002 -1.2700001E-06
v -0.00752463611 0.00323804421 -1.2700001E-06
v -0.0109509639 0.00209429208 -1.2700001E-06
v -0.0109451516 0.00561934337 -1.2700001E-06
v -0.0109509639 -0.00160688243 -1.2700001E-06
v -0.0109509639 0.00209429208 -1.2700001E-06
v -0.00752463611 -0.00275063538 -1.2700001E-06
v -0.0109509639 -0.00160688243 -1.2700001E-06
v -0.00752463611 -0.00275063538 -1.2700001E-06
v -0.010997572 -0.00628521387 -1.2700001E-06
v -0.010997572 -0.00628521387 -1.2700001E-06
v -0.00752463611 -0.00275063538 -1.2700001E-06
v -0.00648936071 -0.00606280752 -1.2700001E-06
v -0.010997572 -0.00628521387 -1.2700001E-06
v -0.00648936071 -0.00606280752 -1.2700001E-06
v -0.00910593104 -0.00850180537 -1.2700001E-06
v -0.010997572 -0.00628521387 -1.2700001E-06
v -0.00910593104 -0.00850180537 -1.2700001E-06
v -0.0109943915 -0.0108764414 -1.2700001E-06
v -0.0109943915 -0.0108764414 -1.2700001E-06
v -0.00910593104 -0.00850180537 -1.2700001E-06
v -0.00805167481 -0.0108472249 -1.2700001E-06
v -0.00752463611 -0.00275063538 -1.2700001E-06
v -0.0109509639 0.00209429208 -1.2700001E-06
v -0.00543174613 0.000243704839 -1.2700001E-06
v -0.00648936071 -0.00606280752 -1.2700001E-06
v -0.00752463611 -0.00275063538 -1.2700001E-06
v -0.00382151408 -0.00316154608 -1.2700001E-06
v -0.00433419878 -0.0108541455 -1.2700001E-06
v -0.00648936071 -0.00606280752 -1.2700001E-06
v -0.00178387854 -0.0108604431 -1.2700001E-06
v -0.00752463611 -0.00275063538 -1.2700001E-06
v -0.00543174613 0.000243704839 -1.2700001E-06
v -0.00382151408 -0.00316154608 -1.2700001E-06
v -0.00382151408 -0.00316154608 -1.2700001E-06
v -0.00543174613 0.000243704839 -1.2700001E-06
v -0.00152458821 0.000605480978 -1.2700001E-06
v -0.00648936071 -0.00606280752 -1.2700001E-06
v -0.00382151408 -0.00316154608 -1.2700001E-06
v -0.00299335085 -0.00643728627 -1.2700001E-06
v -0.00299335085 -0.00643728627 -1.2700001E-06
v -0.00382151408 -0.00316154608 -1.2700001E-06
v -0.000658520265 -0.00309678959 -1.2700001E-06
v -0.00382151408 -0.00316154608 -1.2700001E-06
v -0.00152458821 0.000605480978 -1.2700001E-06
v -0.000658520265 -0.00309678959 -1.2700001E-06
v -0.000658520265 -0.00309678959 -1.2700001E-06
v -0.00152458821 0.000605480978 -1.2700001E-06
v 0.00143713667 0.000243704839 -1.2700001E-06
v -0.00648936071 -0.00606280752 -1.2700001E-06
v -0.00299335085 -0.00643728627 -1.2700001E-06
v -0.00178387854 -0.0108604431 -1.2700001E-06
v -0.00178387854 -0.0108604431 -1.2700001E-06
v -0.00299335085 -0.00643728627 -1.2700001E-06
v 0.00257863151 -0.0108545572 -1.2700001E-06
v -0.00299335085 -0.00643728627 -1.2700001E-06
v -0.000658520265 -0.00309678959 -1.2700001E-06
v 0.00257863151 -0.0108545572 -1.2700001E-06
v 0.00257863151 -0.0108545572 -1.2700001E-06
v -0.000658520265 -0.00309678959 -1.2700001E-06
v 0.00383962062 -0.00426694751 -1.2700001E-06
v -0.000658520265 -0.00309678959 -1.2700001E-06
v 0.00143713667 0.000243704839 -1.2700001E-06
v 0.00383962062 -0.00426694751 -1.2700001E-06
v 0.00646911608 -0.00318162423 -1.2700001E-06
v 0.00489296811 0.000243704839 -1.2700001E-06
v 0.00787038729 0.00358421821 -1.2700001E-06
v 0.00257863151 -0.0108545572 -1.2700001E-06
v 0.00383962062 -0.00426694751 -1.2700001E-06
v 0.00550963916 -0.0108555891 -1.2700001E-06
v 0.00550963916 -0.0108555891 -1.2700001E-06
v 0.00383962062 -0.00426694751 -1.2700001E-06
v 0.00774954585 -0.00669678627 -1.2700001E-06
v 0.00383962062 -0.00426694751 -1.2700001E-06
v 0.00646911608 -0.00318162423 -1.2700001E-06
v 0.00774954585 -0.00669678627 -1.2700001E-06
v 0.00774954585 -0.00669678627 -1.2700001E-06
v 0.00646911608 -0.00318162423 -1.2700001E-06
v 0.00787038729 -0.00222854526 -1.2700001E-06
v 0.00646911608 -0.00318162423 -1.2700001E-06
v 0.00787038729 0.00358421821 -1.2700001E-06
v 0.00787038729 -0.00222854526 -1.2700001E-06
v 0.00550963916 -0.0108555891 -1.2700001E-06
v 0.00774954585 -0.00669678627 -1.2700001E-06
v 0.0109550608 -0.010904138 -1.2700001E-06
v 0.0109550608 -0.010904138 -1.2700001E-06
v 0.00774954585 -0.00669678627 -1.2700001E-06
v 0.0109634269 -0.00722695608 -1.2700001E-06
v 0.00774954585 -0.00669678627 -1.2700001E-06
v 0.00787038729 -0.00222854526 -1.2700001E-06
v 0.0109634269 -0.00722695608 -1.2700001E-06
v 0.0109634269 -0.00722695608 -1.2700001E-06
v 0.00787038729 -0.00222854526 -1.2700001E-06
v 0.0109688537 -0.00275064143 -1.2700001E-06
v 0.00787038729 -0.00222854526 -1.2700001E-06
v 0.0109727597 0.000243704839 -1.2700001E-06
v 0.0109688537 -0.00275064143 -1.2700001E-06
v -0.00178387854 0.0108309118 -1.2700001E-06
v -0.002575716 0.00772060361 -1.2700001E-06
v -0.00540208677 0.010904138 -1.2700001E-06
v 0.00093797571 0.00638825679 -1.2700001E-06
v -0.00648936071 0.00655021612 -1.2700001E-06
v -0.0109451516 0.00561934337 -1.2700001E-06
v -0.010877003 0.0108997002 -1.2700001E-06
v -0.00752463611 0.00323804421 -1.2700001E-06
v -0.00910593104 -0.00850180537 -1.2700001E-06
v -0.00648936071 -0.00606280752 -1.2700001E-06
v -0.00805167481 -0.0108472249 -1.2700001E-06
v -0.00433419878 -0.0108541455 -1.2700001E-06
v 0.00383962062 -0.00426694751 -1.2700001E-06
v 0.00489296811 0.000243704839 -1.2700001E-06
v 0.00646911608 -0.00318162423 -1.2700001E-06
v 0.00143713667 0.000243704839 -1.2700001E-06
v -0.000171280117 0.00358420005 -1.2700001E-06
v -0.00423914799 0.003431889 -1.2700001E-06
v -0.002575716 0.00772060361 -1.2700001E-06
v -0.00152458821 0.000605480978 -1.2700001E-06
vt 0.125548691 0.252641112
vt 0.0963821113 0.279937953
vt 0.0686740875 0.252641112
vt 0.555699646 0.429154992
vt 0.526533067 0.458057404
vt 0.497366607 0.429154992
vt 0.876819611 0.600403309
vt 0.847652912 0.627700388
vt 0.818486571 0.600403309
vt 0.750660717 0.776970565
vt 0.721494257 0.804267466
vt 0.693785965 0.776970565
vt 0.296443254 0.887920439
vt 0.26873526 0.91682297
vt 0.2395688 0.887920439
vt 0.513137162 0.920978606
vt 0.483970702 0.948275506
vt 0.456262559 0.920978606
vt 0.290657401 0.328930497
vt 0.233782753 0.328930497
vt 0.261490911 0.300027907
vt 0.365977317 0.36602056
vt 0.338269323 0.394923091
vt 0.309102744 0.36602056
vt 0.473303139 0.454761684
vt 0.414970189 0.454761684
vt 0.444136709 0.427464783
vt 0.17440626 0.41139102
vt 0.14523983 0.438688099
vt 0.117531538 0.41139102
vt 0.560528815 0.729591906
vt 0.503654361 0.729591906
vt 0.532820821 0.702295005
vt 0.281798899 0.709203124
vt 0.252632439 0.736499786
vt 0.223465845 0.709203124
vt 0.214220345 0.628351092
vt 0.157345757 0.628351092
vt 0.185053915 0.601054192
vt 0.386264324 0.809034407
vt 0.327931255 0.809034407
vt 0.357097745 0.780131757
vt 0.158193305 0.726210415
vt 0.12902686 0.755113006
vt 0.101318717 0.726210415
vt 0.31403181 0.823922575
vt 0.257157087 0.823922575
vt 0.286323458 0.795020223
vt 0.69513607 0.700771451
vt 0.66596967 0.729673982
vt 0.63680321 0.700771451
vt 0.51158911 0.698860586
vt 0.454714298 0.698860586
vt 0.482422501 0.669957936
vt 0.587908208 0.811945915
vt 0.560200036 0.839242756
vt 0.531033576 0.811945915
vt 0.662282646 0.836031377
vt 0.603949666 0.836031377
vt 0.633116126 0.808734477
vt 0.224458322 0.78866899
vt 0.195291892 0.815965712
vt 0.167583749 0.78866899
vt 0.438713193 0.801116049
vt 0.381838441 0.801116049
vt 0.411004961 0.773819149
vt 0.496975601 0.968340814
vt 0.440100849 0.968340814
vt 0.467809141 0.941043913
vt 0.963882387 0.973829567
vt 0.907007575 0.973829567
vt 0.934715807 0.946532667
vt 0.196909994 0.961829722
vt 0.169201851 0.989126503
vt 0.140035272 0.961829722
vt 0.385033607 0.985915363
vt 0.328158945 0.985915363
vt 0.357325464 0.958618343
vt 0.182801574 0.308591813
vt 0.155093431 0.335888565
vt 0.125927061 0.308591813
vt 0.373012036 0.274779707
vt 0.316137463 0.274779707
vt 0.343845665 0.245877236
vt 0.424930245 0.174081773
vt 0.397221953 0.201378822
vt 0.368055671 0.174081773
vt 0.711722434 0.00356948376
vt 0.269041955 0.00356948376
vt 0.496057034 0.127265424
vt 0.937297106 0.225930482
vt 0.908130705 0.254833072
vt 0.878964245 0.225930482
vt 0.847009659 0.204051375
vt 0.790135026 0.204051375
vt 0.817843258 0.176754534
vt 0.705359161 0.119169623
vt 0.648484468 0.119169623
vt 0.677650988 0.0918729305
vt 0.993723035 0.112950176
vt 0.964556694 0.140247166
vt 0.935390115 0.112950176
vt 0.645196974 0.273008466
vt 0.617488682 0.300305218
vt 0.588322222 0.273008466
vt 0.720776796 0.357087553
vt 0.691610336 0.385990202
vt 0.663902104 0.357087553
vt 0.377622455 0.410717249
vt 0.348455876 0.438014269
vt 0.320747733 0.410717249
vt 0.769980967 0.458967328
vt 0.713106394 0.458967328
vt 0.742272735 0.430064678
vt 0.323343396 0.443926752
vt 0.294176936 0.472829461
vt 0.265010387 0.443926752
vt 0.862713814 0.38925302
vt 0.805839241 0.38925302
vt 0.833547294 0.36195606
vt 0.87539494 0.461078346
vt 0.847686887 0.488375127
vt 0.818520486 0.461078346
vt 0.695218384 0.476211071
vt 0.638343632 0.476211071
vt 0.666051805 0.44891417
vt 0.671735585 0.544337749
vt 0.644027412 0.57163465
vt 0.614860892 0.544337749
vt 0.965497136 0.464579403
vt 0.908622444 0.464579403
vt 0.937788844 0.437282622
vt 0.908269703 0.628087103
vt 0.879103363 0.655384004
vt 0.851395309 0.628087103
vt 0.568926513 0.59559691
vt 0.512051761 0.59559691
vt 0.54121834 0.568300009
vt 0.795707405 0.690618217
vt 0.766541064 0.717914879
vt 0.737374604 0.690618217
vt 0.992005706 0.693859935
vt 0.935130954 0.693859935
vt 0.962839246 0.666563034
vt 0.635011494 0.879431427
vt 0.607303381 0.908334196
vt 0.578136921 0.879431427
vt 0.956984282 0.795296967
vt 0.898651183 0.795296967
vt 0.927817702 0.768000066
vt 0.133469999 0.841041863
vt 0.10430342 0.868338645
vt 0.0765952766 0.841041863
vt 0.732282162 0.836031377
vt 0.67540741 0.836031377
vt 0.704573989 0.808734477
vt 0.360420108 0.841041863
vt 0.331253648 0.868338645
vt 0.302087158 0.841041863
vt 0.542700112 0.836031377
vt 0.485825539 0.836031377
vt 0.513533652 0.808734477
vt 0.810515046 0.968340814
vt 0.752182126 0.968340814
vt 0.781348646 0.941043913
vt 0.683640838 0.944255412
vt 0.654474437 0.971552193
vt 0.626766324 0.944255412
vt 0.869643211 0.989155591
vt 0.812768638 0.989155591
vt 0.841935158 0.96185869
vt 0.664982617 0.968544185
vt 0.635816157 0.995840967
vt 0.608108044 0.968544185
vt 0.15024364 0.985915363
vt 0.0933689773 0.985915363
vt 0.122535348 0.958618343
vt 0.0892457515 0.52223891
vt 0.315285802 0.552747369
vt 0.0600791909 0.549535811
vt 0.342994004 0.525450468
vt 0.748499393 0.233818918
vt 0.268710941 0.32373786
vt 0.719332933 0.206522018
vt 0.29787752 0.35264051
vt 0.807775021 0.302413225
vt 0.749441981 0.302413225
vt 0.777150333 0.275116384
vt 0.718817294 0.275116384
vt 0.722267628 0.738232613
vt 0.916224658 0.819320381
vt 0.693101168 0.709330082
vt 0.945390999 0.846617162
vt 0.759688675 0.588492811
vt 0.298858404 0.612578332
vt 0.702813983 0.588492811
vt 0.355732977 0.612578332
vn -0 0 1
vn -0 0 1
vn -0 0 1
vn -0 0 1
vn -0 0 1
vn -0 0 1
vn -0 0 1
vn -0 0 1
vn -0 0 1
vn -0 0 1
vn -0 0 1
vn -0 0 1
vn -0 0 1
vn -0 0 1
vn -0 0 1
vn -0 0 1
vn -0 0 1
vn -0 0 1
vn -0 0 1
vn -0 0 1
vn -0 0 1
vn -0 0 1
vn -0 0 1
vn -0 0 1
vn -0 0 1
vn -0 0 1
vn -0 0 1
vn -0 0 1
vn -0 0 1
vn -0 0 1
vn -0 0 1
vn -0 0 1
vn -0 0 1
vn -0 0 1
vn -0 0 1
vn -0 0 1
vn -0 0 1
vn -0 0 1
vn -0 0 1
vn -0 0 1
vn -0 0 1
vn -0 0 1
vn -0 0 1
vn -0 0 1
vn -0 0 1
vn -0 0 1
vn -0 0 1
vn -0 0 1
vn -0 0 1
vn -0 0 1
vn -0 0 1
vn -0 0 1
vn -0 0 1
vn -0 0 1
vn -0 0 1
vn -0 0 1
vn -0 0 1
vn -0 0 1
vn -0 0 1
vn -0 0 1
vn -0 0 1
vn -0 0 1
vn -0 0 1
vn -0 0 1
vn -0 0 1
vn -0 0 1
vn -0 0 1
vn -0 0 1
vn -0 0 1
vn -0 0 1
vn -0 0 1
vn -0 0 1
vn -0 0 1
vn -0 0 1
vn -0 0 1
vn -0 0 1
vn -0 0 1
vn -0 0 1
vn -0 0 1
vn -0 0 1
vn -0 0 1
vn -0 0 1
vn -0 0 1
vn -0 0 1
vn -0 0 1
vn -0 0 1
vn -0 0 1
vn -0 0 1
vn -0 0 1
vn -0 0 1
vn -0 0 1
vn -0 0 1
vn -0 0 1
vn -0 0 1
vn -0 0 1
vn -0 0 1
vn -0 0 1
vn -0 0 1
vn -0 0 1
vn -0 0 1
vn -0 0 1
vn -0 0 1
vn -0 0 1
vn -0 0 1
vn -0 0 1
vn -0 0 1
vn -0 0 1
vn -0 0 1
vn -0 0 1
vn -0 0 1
vn -0 0 1
vn -0 0 1
vn -0 0 1
vn -0 0 1
vn -0 0 1
vn -0 0 1
vn -0 0 1
vn -0 0 1
vn -0 0 1
vn -0 0 1
vn -0 0 1
vn -0 0 1
vn -0 0 1
vn -0 0 1
vn -0 0 1
vn -0 0 1
vn -0 0 1
vn -0 0 1
vn -0 0 1
vn -0 0 1
vn -0 0 1
vn -0 0 1
vn -0 0 1
vn -0 0 1
vn -0 0 1
vn -0 0 1
vn -0 0 1
vn -0 0 1
vn -0 0 1
vn -0 0 1
vn -0 0 1
vn -0 0 1
vn -0 0 1
vn -0 0 1
vn -0 0 1
vn -0 0 1
vn -0 0 1
vn -0 0 1
vn -0 0 1
vn -0 0 1
vn -0 0 1
vn -0 0 1
vn -0 0 1
vn -0 0 1
vn -0 0 1
vn -0 0 1
vn -0 0 1
vn -0 0 1
vn -0 0 1
vn -0 0 1
vn -0 0 1
vn -0 0 1
vn -0 0 1
vn -0 0 1
vn -0 0 1
vn -0 0 1
vn -0 0 1
vn -0 0 1
vn -0 0 1
vn -0 0 1
vn -0 0 1
vn -0 0 1
vn -0 0 1
vn -0 0 1
vn -0 0 1
vn -0 0 1
vn -0 0 1
vn -0 0 1
vn -0 0 1
vn -0 0 1
vn -0 0 1
vn -0 0 1
vn -0 0 1
vn -0 0 1
vn -0 0 1
vn -0 0 1
vn -0 0 1
vn -0 0 1
vn -0 0 1
vn -0 0 1
vn -0 0 1
vn -0 0 1
vn -0 0 1
vn -0 0 1
vn -0 0 1
vn -0 0 1
vn -0 0 1
g FX_m_mirror_02_0
f 3/3/3 2/2/2 1/1/1
f 6/6/6 5/5/5 4/4/4
f 9/9/9 8/8/8 7/7/7
f 12/12/12 11/11/11 10/10/10
f 15/15/15 14/14/14 13/13/13
f 18/18/18 17/17/17 16/16/16
f 21/21/21 20/20/20 19/19/19
f 24/24/24 23/23/23 22/22/22
f 27/27/27 26/26/26 25/25/25
f 30/30/30 29/29/29 28/28/28
f 33/33/33 32/32/32 31/31/31
f 36/36/36 35/35/35 34/34/34
f 39/39/39 38/38/38 37/37/37
f 42/42/42 41/41/41 40/40/40
f 45/45/45 44/44/44 43/43/43
f 48/48/48 47/47/47 46/46/46
f 51/51/51 50/50/50 49/49/49
f 54/54/54 53/53/53 52/52/52
f 57/57/57 56/56/56 55/55/55
f 60/60/60 59/59/59 58/58/58
f 63/63/63 62/62/62 61/61/61
f 66/66/66 65/65/65 64/64/64
f 69/69/69 68/68/68 67/67/67
f 72/72/72 71/71/71 70/70/70
f 75/75/75 74/74/74 73/73/73
f 78/78/78 77/77/77 76/76/76
f 81/81/81 80/80/80 79/79/79
f 84/84/84 83/83/83 82/82/82
f 87/87/87 86/86/86 85/85/85
f 90/90/90 89/89/89 88/88/88
f 93/93/93 92/92/92 91/91/91
f 96/96/96 95/95/95 94/94/94
f 99/99/99 98/98/98 97/97/97
f 102/102/102 101/101/101 100/100/100
f 105/105/105 104/104/104 103/103/103
f 108/108/108 107/107/107 106/106/106
f 111/111/111 110/110/110 109/109/109
f 114/114/114 113/113/113 112/112/112
f 117/117/117 116/116/116 115/115/115
f 120/120/120 119/119/119 118/118/118
f 123/123/123 122/122/122 121/121/121
f 126/126/126 125/125/125 124/124/124
f 129/129/129 128/128/128 127/127/127
f 132/132/132 131/131/131 130/130/130
f 135/135/135 134/134/134 133/133/133
f 138/138/138 137/137/137 136/136/136
f 141/141/141 140/140/140 139/139/139
f 144/144/144 143/143/143 142/142/142
f 147/147/147 146/146/146 145/145/145
f 150/150/150 149/149/149 148/148/148
f 153/153/153 152/152/152 151/151/151
f 156/156/156 155/155/155 154/154/154
f 159/159/159 158/158/158 157/157/157
f 162/162/162 161/161/161 160/160/160
f 165/165/165 164/164/164 163/163/163
f 168/168/168 167/167/167 166/166/166
f 171/171/171 170/170/170 169/169/169
f 174/174/174 173/173/173 172/172/172
f 177/177/177 176/176/176 175/175/175
f 180/180/180 179/179/179 178/178/178
f 181/181/181 178/178/178 179/179/179
f 184/184/184 183/183/183 182/182/182
f 185/185/185 182/182/182 183/183/183
f 188/188/188 187/187/187 186/186/186
f 189/189/189 187/187/187 188/188/188
f 192/192/192 191/191/191 190/190/190
f 193/193/193 190/190/190 191/191/191
f 196/196/196 195/195/195 194/194/194
f 197/197/197 194/194/194 195/195/195
