g fx_mesh_plane_019
v -1.56490016 -1.55852497 -1.86148486E-06
v -2.18076277 -2.18085456 -6.39185657E-07
v -1.91586447 -2.13353848 -6.80747974E-07
v -1.40366292 -1.56409013 -2.04817297E-06
v -1.67645991 -2.1135776 -7.61627177E-07
v -1.2224133 -1.57484424 -2.24659766E-06
v -1.43278658 -2.11971402 -8.94207119E-07
v -1.02026117 -1.59765077 -2.48234892E-06
v -1.15588045 -2.15253806 -1.09568452E-06
v -0.804214537 -1.63161552 -2.74152899E-06
v -0.844442368 -2.2389195 -1.44308967E-06
v -0.57920891 -1.66915452 -2.98981286E-06
v -0.513854384 -2.35077047 -1.84838575E-06
v -0.350177854 -1.70268559 -3.1928746E-06
v -0.176245436 -2.43889689 -2.16531498E-06
v -0.122056693 -1.72462571 -3.31638694E-06
v 0.161644787 -2.45814705 -2.2639324E-06
v 0.102895848 -1.72798324 -3.32835975E-06
v 0.515592158 -2.41496396 -2.17723823E-06
v 0.335150659 -1.7139293 -3.23262066E-06
v 0.867545843 -2.34437442 -1.98331963E-06
v 0.570789158 -1.68876398 -3.05890444E-06
v 1.19357634 -2.28084826 -1.75299681E-06
v 0.803146899 -1.6587739 -2.83729332E-06
v 1.46888518 -2.24538565 -1.53993881E-06
v 1.0255568 -1.6302458 -2.59787066E-06
v 1.69953001 -2.21999049 -1.31379898E-06
v 1.23135471 -1.60946584 -2.37071913E-06
v 1.92374456 -2.19975162 -1.02863021E-06
v 1.4126482 -1.59757721 -2.16999774E-06
v 2.18051386 -2.18085456 -6.39185998E-07
v 1.57151842 -1.58911252 -1.97438249E-06
v 1.57151842 -1.58911252 -1.97438249E-06
v 2.18051386 -2.18085456 -6.39185998E-07
v 2.15552807 -1.919999 -8.1696146E-07
v 1.57593632 -1.41617668 -2.12753093E-06
v 2.14868355 -1.69127798 -9.77064701E-07
v 1.58451295 -1.22712493 -2.29400621E-06
v 2.15997267 -1.45807123 -1.14543548E-06
v 1.60286188 -1.02158082 -2.50613925E-06
v 2.19099689 -1.18463504 -1.3514998E-06
v 1.63006091 -0.805310011 -2.75378443E-06
v 2.26562071 -0.867797613 -1.65855226E-06
v 1.65979707 -0.582005084 -2.99782232E-06
v 2.35837507 -0.528164864 -1.98684097E-06
v 1.68575871 -0.35535872 -3.19913329E-06
v 2.42520046 -0.183563992 -2.2110396E-06
v 1.70163298 -0.129063636 -3.31859724E-06
v 2.42372346 0.153742552 -2.21103983E-06
v 1.70105076 0.0949329659 -3.31548995E-06
v 2.35344863 0.499335408 -1.98684188E-06
v 1.68265307 0.32338199 -3.17610738E-06
v 2.25752807 0.840993226 -1.65855295E-06
v 1.65361071 0.554247737 -2.94925849E-06
v 2.18115091 1.16093147 -1.3515006E-06
v 1.62174249 0.783745348 -2.68924418E-06
v 2.1503365 1.43913805 -1.14486932E-06
v 1.59486616 1.00808811 -2.45036972E-06
v 2.14054418 1.67911994 -9.7501345E-07
v 1.58080041 1.22349274 -2.28693648E-06
v 2.15048003 1.91468084 -8.14427892E-07
v 1.57995117 1.42496455 -2.20626634E-06
v 2.18051386 2.18042159 -6.3918651E-07
v 1.58495212 1.61340153 -2.15971727E-06
v 1.58495212 1.61340153 -2.15971727E-06
v 2.18051386 2.18042159 -6.3918651E-07
v 1.97256362 2.24977088 -1.53039991E-06
v 1.43007588 1.62563336 -2.37144081E-06
v 1.77530205 2.29986858 -2.12257305E-06
v 1.25059259 1.63756287 -2.576209E-06
v 1.55589807 2.33799839 -2.49725531E-06
v 1.04383206 1.65144682 -2.78344328E-06
v 1.28158498 2.3714335 -2.72766647E-06
v 0.818246722 1.6669215 -2.97999441E-06
v 0.938797116 2.40322423 -2.72609464E-06
v 0.5814327 1.68145359 -3.14861791E-06
v 0.557451427 2.42668867 -2.54780662E-06
v 0.340986341 1.69251025 -3.27206862E-06
v 0.173326045 2.43381572 -2.32807383E-06
v 0.104502924 1.69755721 -3.33310254E-06
v -0.186439395 2.41497231 -2.18133187E-06
v -0.123431608 1.6939218 -3.31374167E-06
v -0.544941902 2.36385655 -2.05846845E-06
v -0.354237288 1.68055713 -3.2078367E-06
v -0.893026292 2.30000377 -1.92222365E-06
v -0.585763097 1.66075444 -3.03699176E-06
v -1.21367836 2.24584341 -1.74957472E-06
v -0.812952101 1.63820577 -2.82526617E-06
v -1.48544967 2.21506643 -1.5409795E-06
v -1.03074837 1.61660171 -2.59671924E-06
v -1.71024382 2.19598484 -1.31757497E-06
v -1.23409545 1.59963524 -2.37540803E-06
v -1.92825103 2.18530035 -1.03329353E-06
v -1.41591883 1.58808136 -2.17377169E-06
v -2.18076229 2.18042159 -6.391856E-07
v -1.57719028 1.57878816 -1.97537429E-06
v -1.57719028 1.57878816 -1.97537429E-06
v -2.18076229 2.18042159 -6.391856E-07
v -2.16349292 1.91185498 -8.12905625E-07
v -1.58116686 1.41040921 -2.12484952E-06
v -2.16196871 1.67278039 -9.73780061E-07
v -1.58993006 1.22248042 -2.28990598E-06
v -2.17682743 1.42999792 -1.14452985E-06
v -1.60982716 1.01354337 -2.5025704E-06
v -2.21023822 1.15112662 -1.35150003E-06
v -1.63985801 0.79075247 -2.75144271E-06
v -2.2852366 0.833636522 -1.65855238E-06
v -1.67291141 0.559711933 -2.99699968E-06
v -2.37693667 0.495839685 -1.98684143E-06
v -1.70187628 0.326026797 -3.19971423E-06
v -2.4426024 0.153260022 -2.21103846E-06
v -1.71964109 0.0952994153 -3.32006289E-06
v -2.44112515 -0.184046328 -2.21103824E-06
v -1.71953011 -0.129532978 -3.32238255E-06
v -2.37201071 -0.531660378 -1.98684052E-06
v -1.70213199 -0.358799815 -3.21606876E-06
v -2.27714443 -0.87515372 -1.6585517E-06
v -1.67377496 -0.589343011 -3.0312417E-06
v -2.20039248 -1.19443953 -1.35149924E-06
v -1.64091897 -0.815324724 -2.79701635E-06
v -2.16721582 -1.46690428 -1.14601551E-06
v -1.61002266 -1.03090799 -2.54250926E-06
v -2.15391779 -1.69650304 -9.79173365E-07
v -1.58754504 -1.23025548 -2.29683428E-06
v -2.15855336 -1.9214493 -8.195654E-07
v -1.57442093 -1.40566707 -2.07623543E-06
v -2.18076277 -2.18085456 -6.39185657E-07
v -1.56490016 -1.55852497 -1.86148486E-06
vt 0 0
vt 0 1
vt 0.0666666701 1
vt 0.0666666701 0
vt 0.13333334 1
vt 0.13333334 0
vt 0.200000018 1
vt 0.200000018 0
vt 0.266666681 1
vt 0.266666681 0
vt 0.333333343 1
vt 0.333333343 0
vt 0.400000006 1
vt 0.400000006 0
vt 0.466666669 1
vt 0.466666669 0
vt 0.533333361 1
vt 0.533333361 0
vt 0.600000024 1
vt 0.600000024 0
vt 0.666666687 1
vt 0.666666687 0
vt 0.733333349 1
vt 0.733333349 0
vt 0.800000012 1
vt 0.800000012 0
vt 0.866666675 1
vt 0.866666675 0
vt 0.933333337 1
vt 0.933333337 0
vt 1 1
vt 1 0
vt 0 0
vt 0 1
vt 0.0666666701 1
vt 0.0666666701 0
vt 0.13333334 1
vt 0.13333334 0
vt 0.200000018 1
vt 0.200000018 0
vt 0.266666681 1
vt 0.266666681 0
vt 0.333333343 1
vt 0.333333343 0
vt 0.400000006 1
vt 0.400000006 0
vt 0.466666669 1
vt 0.466666669 0
vt 0.533333361 1
vt 0.533333361 0
vt 0.600000024 1
vt 0.600000024 0
vt 0.666666687 1
vt 0.666666687 0
vt 0.733333349 1
vt 0.733333349 0
vt 0.800000012 1
vt 0.800000012 0
vt 0.866666675 1
vt 0.866666675 0
vt 0.933333337 1
vt 0.933333337 0
vt 1 1
vt 1 0
vt 0 0
vt 0 1
vt 0.0666666701 1
vt 0.0666666701 0
vt 0.13333334 1
vt 0.13333334 0
vt 0.200000018 1
vt 0.200000018 0
vt 0.266666681 1
vt 0.266666681 0
vt 0.333333343 1
vt 0.333333343 0
vt 0.400000006 1
vt 0.400000006 0
vt 0.466666669 1
vt 0.466666669 0
vt 0.533333361 1
vt 0.533333361 0
vt 0.600000024 1
vt 0.600000024 0
vt 0.666666687 1
vt 0.666666687 0
vt 0.733333349 1
vt 0.733333349 0
vt 0.800000012 1
vt 0.800000012 0
vt 0.866666675 1
vt 0.866666675 0
vt 0.933333337 1
vt 0.933333337 0
vt 1 1
vt 1 0
vt 0 0
vt 0 1
vt 0.0666666701 1
vt 0.0666666701 0
vt 0.13333334 1
vt 0.13333334 0
vt 0.200000018 1
vt 0.200000018 0
vt 0.266666681 1
vt 0.266666681 0
vt 0.333333343 1
vt 0.333333343 0
vt 0.400000006 1
vt 0.400000006 0
vt 0.466666669 1
vt 0.466666669 0
vt 0.533333361 1
vt 0.533333361 0
vt 0.600000024 1
vt 0.600000024 0
vt 0.666666687 1
vt 0.666666687 0
vt 0.733333349 1
vt 0.733333349 0
vt 0.800000012 1
vt 0.800000012 0
vt 0.866666675 1
vt 0.866666675 0
vt 0.933333337 1
vt 0.933333337 0
vt 1 1
vt 1 0
vn -3.55717333E-07 -1.83629243E-06 -1
vn -3.55717361E-07 -1.8362922E-06 -1
vn -4.17275203E-07 -1.88239562E-06 -1
vn -5.45607065E-07 -1.97850886E-06 -1
vn -7.14185092E-07 -2.05486094E-06 -1
vn -8.59700265E-07 -2.08718279E-06 -1
vn -1.04803598E-06 -2.13781141E-06 -1
vn -1.14415161E-06 -2.1691219E-06 -1
vn -1.36401616E-06 -2.1355429E-06 -1
vn -1.45432341E-06 -2.09285304E-06 -1
vn -1.57140653E-06 -1.93779374E-06 -1
vn -1.56888723E-06 -1.91027402E-06 -1
vn -1.32433888E-06 -1.7376392E-06 -1
vn -1.31256161E-06 -1.73332853E-06 -1
vn -6.56386305E-07 -1.59189631E-06 -1
vn -6.74090984E-07 -1.59444198E-06 -1
vn -0 -1.46832633E-06 -1
vn -0 -1.47270589E-06 -1
vn 6.52773792E-07 -1.33794822E-06 -1
vn 6.20805736E-07 -1.34862762E-06 -1
vn 9.30313206E-07 -1.20525044E-06 -1
vn 9.01643375E-07 -1.2267094E-06 -1
vn 1.02674574E-06 -1.07533549E-06 -1
vn 1.01642945E-06 -1.10731685E-06 -1
vn 1.10128133E-06 -9.33228648E-07 -1
vn 1.07194035E-06 -9.80535788E-07 -1
vn 1.21925495E-06 -8.23292794E-07 -1
vn 1.17289039E-06 -8.55350095E-07 -1
vn 1.39580231E-06 -7.35483809E-07 -1
vn 1.31796924E-06 -7.69495216E-07 -1
vn 1.45434649E-06 -7.09901144E-07 -1
vn 1.45434649E-06 -7.09901201E-07 -1
vn 1.59240881E-06 -6.87361876E-07 -1
vn 1.59240881E-06 -6.87361933E-07 -1
vn 1.60207287E-06 -7.13380473E-07 -1
vn 1.61936805E-06 -7.59944783E-07 -1
vn 1.62256765E-06 -8.42567886E-07 -1
vn 1.61203945E-06 -9.19577531E-07 -1
vn 1.61948742E-06 -1.02243632E-06 -1
vn 1.63667778E-06 -1.0756969E-06 -1
vn 1.62997503E-06 -1.19886317E-06 -1
vn 1.61349851E-06 -1.25592476E-06 -1
vn 1.57138561E-06 -1.2976443E-06 -1
vn 1.56358908E-06 -1.28653926E-06 -1
vn 1.53600433E-06 -1.04428932E-06 -1
vn 1.53504698E-06 -1.01929891E-06 -1
vn 1.52850771E-06 -4.00838246E-07 -1
vn 1.52852044E-06 -3.95287685E-07 -1
vn 1.51508766E-06 4.31959023E-07 -1
vn 1.51523648E-06 4.27597314E-07 -1
vn 1.48828371E-06 1.08121424E-06 -1
vn 1.48957861E-06 1.05792253E-06 -1
vn 1.49055234E-06 1.31205843E-06 -1
vn 1.48659524E-06 1.30635965E-06 -1
vn 1.56060048E-06 1.16548802E-06 -1
vn 1.53453254E-06 1.23720508E-06 -1
vn 1.66301754E-06 8.99838597E-07 -1
vn 1.62676429E-06 9.90931881E-07 -1
vn 1.8868343E-06 6.0028475E-07 -1
vn 1.77270726E-06 7.31070941E-07 -1
vn 2.14699935E-06 3.67202574E-07 -1
vn 2.03030959E-06 4.59307529E-07 -1
vn 2.20946322E-06 3.17898923E-07 -1
vn 2.20946322E-06 3.17898923E-07 -1
vn 2.86924751E-06 -7.58736348E-07 -1
vn 2.86924774E-06 -7.58736405E-07 -1
vn 2.55899226E-06 -7.2266721E-07 -1
vn 2.26230463E-06 -6.88175476E-07 -1
vn 1.76281537E-06 -5.88338537E-07 -1
vn 1.524298E-06 -5.19797538E-07 -1
vn 1.14805641E-06 -3.69685807E-07 -1
vn 9.85476731E-07 -2.80693627E-07 -1
vn 6.52991559E-07 0 -1
vn 4.873541E-07 0 -1
vn -0 4.86419026E-07 -1
vn -0 6.15038232E-07 -1
vn -0 9.79766583E-07 -1
vn -0 1.04617038E-06 -1
vn -2.81436428E-07 1.33567187E-06 -1
vn -2.88320649E-07 1.35156358E-06 -1
vn -4.46200289E-07 1.49610776E-06 -1
vn -4.43481525E-07 1.4953979E-06 -1
vn -6.524225E-07 1.47630328E-06 -1
vn -6.34425021E-07 1.48521235E-06 -1
vn -8.19559034E-07 1.33113156E-06 -1
vn -7.91435752E-07 1.36628682E-06 -1
vn -9.59465865E-07 1.12779617E-06 -1
vn -9.22038282E-07 1.18762023E-06 -1
vn -1.079036E-06 9.50638707E-07 -1
vn -1.04065555E-06 1.00468071E-06 -1
vn -1.21486755E-06 8.30078818E-07 -1
vn -1.15920989E-06 8.69225971E-07 -1
vn -1.39981387E-06 7.35686967E-07 -1
vn -1.31734214E-06 7.72682256E-07 -1
vn -1.4562537E-06 7.10368965E-07 -1
vn -1.45625381E-06 7.10369022E-07 -1
vn -1.58999865E-06 6.91298226E-07 -1
vn -1.58999853E-06 6.91298226E-07 -1
vn -1.59923115E-06 7.17853254E-07 -1
vn -1.61480318E-06 7.62640525E-07 -1
vn -1.61953028E-06 8.45465991E-07 -1
vn -1.61291132E-06 9.16669876E-07 -1
vn -1.62524555E-06 1.02076422E-06 -1
vn -1.64313428E-06 1.07004928E-06 -1
vn -1.63971754E-06 1.19675622E-06 -1
vn -1.62560843E-06 1.24902124E-06 -1
vn -1.58019805E-06 1.29359637E-06 -1
vn -1.57196496E-06 1.28378736E-06 -1
vn -1.53790393E-06 1.0423862E-06 -1
vn -1.53675239E-06 1.01979333E-06 -1
vn -1.53193935E-06 4.07978177E-07 -1
vn -1.53202984E-06 4.00771569E-07 -1
vn -1.54365046E-06 -3.96028639E-07 -1
vn -1.54360839E-06 -3.93498453E-07 -1
vn -1.57451495E-06 -1.02393517E-06 -1
vn -1.57192494E-06 -1.00040006E-06 -1
vn -1.63525237E-06 -1.28749343E-06 -1
vn -1.62476294E-06 -1.27326268E-06 -1
vn -1.68349686E-06 -1.22536233E-06 -1
vn -1.67530561E-06 -1.26952125E-06 -1
vn -1.58978389E-06 -1.11416534E-06 -1
vn -1.64410721E-06 -1.14048714E-06 -1
vn -1.44206774E-06 -1.01171941E-06 -1
vn -1.49750861E-06 -1.05601634E-06 -1
vn -1.24574206E-06 -9.36625497E-07 -1
vn -1.34054517E-06 -9.62634658E-07 -1
vn -1.19158437E-06 -9.21767196E-07 -1
vn -1.19158437E-06 -9.21767253E-07 -1
g fx_mesh_plane_019_0
f 3/3/3 2/2/2 1/1/1
f 4/4/4 3/3/3 1/1/1
f 5/5/5 3/3/3 4/4/4
f 6/6/6 5/5/5 4/4/4
f 7/7/7 5/5/5 6/6/6
f 8/8/8 7/7/7 6/6/6
f 9/9/9 7/7/7 8/8/8
f 10/10/10 9/9/9 8/8/8
f 11/11/11 9/9/9 10/10/10
f 12/12/12 11/11/11 10/10/10
f 13/13/13 11/11/11 12/12/12
f 14/14/14 13/13/13 12/12/12
f 15/15/15 13/13/13 14/14/14
f 16/16/16 15/15/15 14/14/14
f 17/17/17 15/15/15 16/16/16
f 18/18/18 17/17/17 16/16/16
f 19/19/19 17/17/17 18/18/18
f 20/20/20 19/19/19 18/18/18
f 21/21/21 19/19/19 20/20/20
f 22/22/22 21/21/21 20/20/20
f 23/23/23 21/21/21 22/22/22
f 24/24/24 23/23/23 22/22/22
f 25/25/25 23/23/23 24/24/24
f 26/26/26 25/25/25 24/24/24
f 27/27/27 25/25/25 26/26/26
f 28/28/28 27/27/27 26/26/26
f 29/29/29 27/27/27 28/28/28
f 30/30/30 29/29/29 28/28/28
f 31/31/31 29/29/29 30/30/30
f 32/32/32 31/31/31 30/30/30
f 35/35/35 34/34/34 33/33/33
f 36/36/36 35/35/35 33/33/33
f 37/37/37 35/35/35 36/36/36
f 38/38/38 37/37/37 36/36/36
f 39/39/39 37/37/37 38/38/38
f 40/40/40 39/39/39 38/38/38
f 41/41/41 39/39/39 40/40/40
f 42/42/42 41/41/41 40/40/40
f 43/43/43 41/41/41 42/42/42
f 44/44/44 43/43/43 42/42/42
f 45/45/45 43/43/43 44/44/44
f 46/46/46 45/45/45 44/44/44
f 47/47/47 45/45/45 46/46/46
f 48/48/48 47/47/47 46/46/46
f 49/49/49 47/47/47 48/48/48
f 50/50/50 49/49/49 48/48/48
f 51/51/51 49/49/49 50/50/50
f 52/52/52 51/51/51 50/50/50
f 53/53/53 51/51/51 52/52/52
f 54/54/54 53/53/53 52/52/52
f 55/55/55 53/53/53 54/54/54
f 56/56/56 55/55/55 54/54/54
f 57/57/57 55/55/55 56/56/56
f 58/58/58 57/57/57 56/56/56
f 59/59/59 57/57/57 58/58/58
f 60/60/60 59/59/59 58/58/58
f 61/61/61 59/59/59 60/60/60
f 62/62/62 61/61/61 60/60/60
f 63/63/63 61/61/61 62/62/62
f 64/64/64 63/63/63 62/62/62
f 67/67/67 66/66/66 65/65/65
f 68/68/68 67/67/67 65/65/65
f 69/69/69 67/67/67 68/68/68
f 70/70/70 69/69/69 68/68/68
f 71/71/71 69/69/69 70/70/70
f 72/72/72 71/71/71 70/70/70
f 73/73/73 71/71/71 72/72/72
f 74/74/74 73/73/73 72/72/72
f 75/75/75 73/73/73 74/74/74
f 76/76/76 75/75/75 74/74/74
f 77/77/77 75/75/75 76/76/76
f 78/78/78 77/77/77 76/76/76
f 79/79/79 77/77/77 78/78/78
f 80/80/80 79/79/79 78/78/78
f 81/81/81 79/79/79 80/80/80
f 82/82/82 81/81/81 80/80/80
f 83/83/83 81/81/81 82/82/82
f 84/84/84 83/83/83 82/82/82
f 85/85/85 83/83/83 84/84/84
f 86/86/86 85/85/85 84/84/84
f 87/87/87 85/85/85 86/86/86
f 88/88/88 87/87/87 86/86/86
f 89/89/89 87/87/87 88/88/88
f 90/90/90 89/89/89 88/88/88
f 91/91/91 89/89/89 90/90/90
f 92/92/92 91/91/91 90/90/90
f 93/93/93 91/91/91 92/92/92
f 94/94/94 93/93/93 92/92/92
f 95/95/95 93/93/93 94/94/94
f 96/96/96 95/95/95 94/94/94
f 99/99/99 98/98/98 97/97/97
f 100/100/100 99/99/99 97/97/97
f 101/101/101 99/99/99 100/100/100
f 102/102/102 101/101/101 100/100/100
f 103/103/103 101/101/101 102/102/102
f 104/104/104 103/103/103 102/102/102
f 105/105/105 103/103/103 104/104/104
f 106/106/106 105/105/105 104/104/104
f 107/107/107 105/105/105 106/106/106
f 108/108/108 107/107/107 106/106/106
f 109/109/109 107/107/107 108/108/108
f 110/110/110 109/109/109 108/108/108
f 111/111/111 109/109/109 110/110/110
f 112/112/112 111/111/111 110/110/110
f 113/113/113 111/111/111 112/112/112
f 114/114/114 113/113/113 112/112/112
f 115/115/115 113/113/113 114/114/114
f 116/116/116 115/115/115 114/114/114
f 117/117/117 115/115/115 116/116/116
f 118/118/118 117/117/117 116/116/116
f 119/119/119 117/117/117 118/118/118
f 120/120/120 119/119/119 118/118/118
f 121/121/121 119/119/119 120/120/120
f 122/122/122 121/121/121 120/120/120
f 123/123/123 121/121/121 122/122/122
f 124/124/124 123/123/123 122/122/122
f 125/125/125 123/123/123 124/124/124
f 126/126/126 125/125/125 124/124/124
f 127/127/127 125/125/125 126/126/126
f 128/128/128 127/127/127 126/126/126
