g fx_mesh_plane_013
v 0.789968848 -0.514350832 0.251774669
v 0.843400419 5.33454113E-07 0.234043121
v 0.843400538 -0.514350891 0.234043196
v 0.789968848 2.42233199E-07 0.251774669
v 0.843400538 0.514351308 0.234043047
v 0.737380683 -0.514350832 0.259804934
v 0.789968848 0.51435113 0.251774669
v 0.737380683 -4.84466725E-08 0.259804904
v 0.678575575 -0.514350832 0.256328106
v 0.737380683 0.514350772 0.259804845
v 0.678575575 -2.42233284E-07 0.256328106
v 0.625858426 -0.514350891 0.223130599
v 0.678575575 0.514350593 0.256328106
v 0.625858426 -2.42233284E-07 0.223130524
v 0.598407328 -0.514350891 0.164531857
v 0.625858426 0.514350593 0.22313045
v 0.598407328 -4.36019889E-07 0.164531782
v 0.571749628 -0.514350891 0.07444942
v 0.598407328 0.514350235 0.164531738
v 0.571749687 -6.29806493E-07 0.0744494647
v 0.534123957 -0.514350891 -0.0333440974
v 0.571749628 0.514349878 0.07444942
v 0.534123957 -6.29806493E-07 -0.0333440788
v 0.495881706 -0.514350891 -0.12404903
v 0.534123957 0.514349818 -0.0333440788
v 0.495881706 -5.34053584E-07 -0.12404903
v 0.455972344 -0.51435107 -0.180818483
v 0.495881706 0.514349878 -0.12404903
v 0.455972344 -7.77510536E-07 -0.180818483
v 0.387372822 -0.51435107 -0.243486702
v 0.455972344 0.514349699 -0.180818483
v 0.387372822 -1.16342881E-06 -0.243486702
v 0.297060341 -0.51435113 -0.262746811
v 0.387372822 0.514348924 -0.243486702
v 0.297060341 -1.21115272E-06 -0.262746811
v 0.181052819 -0.51435113 -0.26189521
v 0.297060341 0.514348745 -0.262746811
v 0.181052893 -1.21116636E-06 -0.26189521
v 0.0650454685 -0.51435113 -0.26189521
v 0.181052819 0.514348745 -0.26189521
v 0.0650454685 -1.16271963E-06 -0.26189521
v -0.0509619899 -0.51435113 -0.26189521
v 0.0650454685 0.514348805 -0.26189521
v -0.0509619117 -1.114273E-06 -0.26189521
v -0.166969404 -0.51435113 -0.26189521
v -0.0509619899 0.514348924 -0.26189521
v -0.166969523 -1.114273E-06 -0.26189521
v -0.282976896 -0.51435113 -0.26189521
v -0.166969404 0.514348924 -0.26189521
v -0.282976896 -1.21116636E-06 -0.26189521
v -0.398984373 -0.51435113 -0.26189521
v -0.282976896 0.514348745 -0.26189521
v -0.398984373 -1.21116636E-06 -0.26189521
v -0.51499176 -0.51435113 -0.26189521
v -0.398984373 0.514348745 -0.26189521
v -0.51499176 -1.21116636E-06 -0.26189521
v -0.630999207 -0.51435113 -0.26189521
v -0.51499176 0.514348745 -0.26189521
v -0.630999207 -1.114273E-06 -0.26189521
v -0.747006595 -0.51435113 -0.26189521
v -0.630999207 0.514348924 -0.26189521
v -0.747006595 -1.16271963E-06 -0.26189521
v -0.747006595 0.514348805 -0.26189521
vt 0.0520949699 0.00203714124
vt 0.00229632831 0.500285387
vt 0.00229632831 0.00203714124
vt 0.0520949699 0.500285387
vt 0.00229632831 0.998533607
vt 0.101893663 0.00203714124
vt 0.0520949699 0.998533607
vt 0.101893663 0.500285387
vt 0.151692256 0.00203714124
vt 0.101893663 0.998533607
vt 0.151692256 0.500285387
vt 0.201490968 0.00203714124
vt 0.151692256 0.998533607
vt 0.201490968 0.500285387
vt 0.251289636 0.00203714124
vt 0.201490968 0.998533607
vt 0.251289636 0.500285387
vt 0.301088333 0.00203714124
vt 0.251289636 0.998533607
vt 0.301088333 0.500285387
vt 0.350887001 0.00203714124
vt 0.301088333 0.998533607
vt 0.350887001 0.500285387
vt 0.400685549 0.00203714124
vt 0.350887001 0.998533607
vt 0.400685549 0.500285387
vt 0.450484127 0.00203714124
vt 0.400685549 0.998533607
vt 0.450484127 0.500285387
vt 0.500282764 0.00203714124
vt 0.450484127 0.998533607
vt 0.500282764 0.500285387
vt 0.550081551 0.00203714124
vt 0.500282764 0.998533607
vt 0.550081551 0.500285387
vt 0.599880099 0.00203714124
vt 0.550081551 0.998533607
vt 0.599880099 0.500285387
vt 0.649679005 0.00203714124
vt 0.599880099 0.998533607
vt 0.649679005 0.500285387
vt 0.699477732 0.00203714124
vt 0.649679005 0.998533607
vt 0.699477732 0.500285387
vt 0.7492764 0.00203714124
vt 0.699477732 0.998533607
vt 0.7492764 0.500285387
vt 0.799074948 0.00203714124
vt 0.7492764 0.998533607
vt 0.799074948 0.500285387
vt 0.848873615 0.00203714124
vt 0.799074948 0.998533607
vt 0.848873615 0.500285387
vt 0.898672402 0.00203714124
vt 0.848873615 0.998533607
vt 0.898672402 0.500285387
vt 0.948470891 0.00203714124
vt 0.898672402 0.998533607
vt 0.948470891 0.500285387
vt 0.998269498 0.00203714124
vt 0.948470891 0.998533607
vt 0.998269498 0.500285387
vt 0.998269498 0.998533607
vn 0.0656075776 0 0.997845531
vn 0.0518780984 0 0.998653412
vn 0.0518780984 0 0.998653412
vn 0.0656075776 0 0.997845531
vn 0.0518780984 0 0.998653412
vn 0.0534098111 0 0.998572707
vn 0.0656075776 0 0.997845531
vn 0.0534098111 0 0.998572707
vn -0.144944921 0 0.989439785
vn 0.0534098111 0 0.998572707
vn -0.144944921 0 0.989439785
vn -0.763415277 0 0.645908058
vn -0.144944921 0 0.989439785
vn -0.763415277 0 0.645908058
vn -0.99959594 0 -0.0284236278
vn -0.763415277 0 0.645908058
vn -0.999601424 0 -0.0282330178
vn -0.99710387 0 -0.0760511011
vn -0.999601424 0 -0.0282330178
vn -0.99710387 0 -0.0760511011
vn -0.999972582 0 0.00741585856
vn -0.99710387 0 -0.0760511011
vn -0.999972582 0 0.00741585856
vn -0.991378903 0 0.131026804
vn -0.999972582 0 0.00741585856
vn -0.991378903 0 0.131026804
vn -0.688167751 0 0.725551605
vn -0.991378903 0 0.131026804
vn -0.688167751 0 0.725551605
vn -0.131214231 0 0.991354048
vn -0.688167751 0 0.725551605
vn -0.131214231 0 0.991354048
vn -0.00610326231 0 0.999981403
vn -0.131214231 0 0.991354048
vn -0.00610326231 0 0.999981403
vn 0.00152584212 0 0.999998808
vn -0.00610326231 0 0.999981403
vn 0.00152584212 0 0.999998808
vn -0 0 1
vn 0.00152584212 0 0.999998808
vn -0 0 1
vn -0 0 1
vn -0 0 1
vn -0 0 1
vn -0 0 1
vn -0 0 1
vn -0 0 1
vn -0 0 1
vn -0 0 1
vn -0 0 1
vn -0 0 1
vn -0 0 1
vn -0 0 1
vn -0 0 1
vn -0 0 1
vn -0 0 1
vn -0 0 1
vn -0 0 1
vn -0 0 1
vn -0 0 1
vn -0 0 1
vn -0 0 1
vn -0 0 1
g fx_mesh_plane_013_0
f 3/3/3 2/2/2 1/1/1
f 2/2/2 4/4/4 1/1/1
f 2/2/2 5/5/5 4/4/4
f 1/1/1 4/4/4 6/6/6
f 5/5/5 7/7/7 4/4/4
f 4/4/4 8/8/8 6/6/6
f 4/4/4 7/7/7 8/8/8
f 6/6/6 8/8/8 9/9/9
f 7/7/7 10/10/10 8/8/8
f 8/8/8 11/11/11 9/9/9
f 8/8/8 10/10/10 11/11/11
f 9/9/9 11/11/11 12/12/12
f 10/10/10 13/13/13 11/11/11
f 11/11/11 14/14/14 12/12/12
f 11/11/11 13/13/13 14/14/14
f 12/12/12 14/14/14 15/15/15
f 13/13/13 16/16/16 14/14/14
f 14/14/14 17/17/17 15/15/15
f 14/14/14 16/16/16 17/17/17
f 15/15/15 17/17/17 18/18/18
f 16/16/16 19/19/19 17/17/17
f 17/17/17 20/20/20 18/18/18
f 17/17/17 19/19/19 20/20/20
f 18/18/18 20/20/20 21/21/21
f 19/19/19 22/22/22 20/20/20
f 20/20/20 23/23/23 21/21/21
f 20/20/20 22/22/22 23/23/23
f 21/21/21 23/23/23 24/24/24
f 22/22/22 25/25/25 23/23/23
f 23/23/23 26/26/26 24/24/24
f 23/23/23 25/25/25 26/26/26
f 24/24/24 26/26/26 27/27/27
f 25/25/25 28/28/28 26/26/26
f 26/26/26 29/29/29 27/27/27
f 26/26/26 28/28/28 29/29/29
f 27/27/27 29/29/29 30/30/30
f 28/28/28 31/31/31 29/29/29
f 29/29/29 32/32/32 30/30/30
f 29/29/29 31/31/31 32/32/32
f 30/30/30 32/32/32 33/33/33
f 31/31/31 34/34/34 32/32/32
f 32/32/32 35/35/35 33/33/33
f 32/32/32 34/34/34 35/35/35
f 33/33/33 35/35/35 36/36/36
f 34/34/34 37/37/37 35/35/35
f 35/35/35 38/38/38 36/36/36
f 35/35/35 37/37/37 38/38/38
f 36/36/36 38/38/38 39/39/39
f 37/37/37 40/40/40 38/38/38
f 38/38/38 41/41/41 39/39/39
f 38/38/38 40/40/40 41/41/41
f 39/39/39 41/41/41 42/42/42
f 40/40/40 43/43/43 41/41/41
f 41/41/41 44/44/44 42/42/42
f 41/41/41 43/43/43 44/44/44
f 42/42/42 44/44/44 45/45/45
f 43/43/43 46/46/46 44/44/44
f 44/44/44 47/47/47 45/45/45
f 44/44/44 46/46/46 47/47/47
f 45/45/45 47/47/47 48/48/48
f 46/46/46 49/49/49 47/47/47
f 47/47/47 50/50/50 48/48/48
f 47/47/47 49/49/49 50/50/50
f 48/48/48 50/50/50 51/51/51
f 49/49/49 52/52/52 50/50/50
f 50/50/50 53/53/53 51/51/51
f 50/50/50 52/52/52 53/53/53
f 51/51/51 53/53/53 54/54/54
f 52/52/52 55/55/55 53/53/53
f 53/53/53 56/56/56 54/54/54
f 53/53/53 55/55/55 56/56/56
f 54/54/54 56/56/56 57/57/57
f 55/55/55 58/58/58 56/56/56
f 56/56/56 59/59/59 57/57/57
f 56/56/56 58/58/58 59/59/59
f 57/57/57 59/59/59 60/60/60
f 58/58/58 61/61/61 59/59/59
f 59/59/59 62/62/62 60/60/60
f 59/59/59 61/61/61 62/62/62
f 61/61/61 63/63/63 62/62/62
