g general_plane_15
v -0.141896278 -0.501974165 -2.86102295E-06
v -0.108914822 -0.545015812 -2.86102295E-06
v -0.1523799 -0.536132693 -2.86102295E-06
v -0.0984311998 -0.510857284 -1.90734863E-06
v -0.131412655 -0.467815608 -9.53674316E-07
v -0.0879475772 -0.476698726 -9.53674316E-07
v -0.119652867 -0.429994196 -9.53674316E-07
v -0.0780431628 -0.445381612 -9.53674316E-07
v -0.104707152 -0.39581722 -9.53674316E-07
v -0.0644924939 -0.414549649 -9.53674316E-07
v -0.0890059471 -0.363881141 -9.53674316E-07
v -0.049285233 -0.383639365 -9.53674316E-07
v -0.0734750628 -0.332938224 -1.90734863E-06
v -0.0336434245 -0.352471024 -1.90734863E-06
v -0.0588969886 -0.302342027 -9.53674316E-07
v -0.0185113251 -0.320703328 -9.53674316E-07
v -0.0457705259 -0.271627069 -9.53674316E-07
v -0.00460284948 -0.288159966 -9.53674316E-07
v -0.0341160297 -0.240673423 -9.53674316E-07
v 0.00790041685 -0.25491178 -9.53674316E-07
v -0.0242675841 -0.209400207 -9.53674316E-07
v 0.0185814798 -0.220892459 -9.53674316E-07
v -0.017329812 -0.177676126 -9.53674316E-07
v 0.0262551904 -0.185949042 -9.53674316E-07
v -0.0122913718 -0.145735875 -9.53674316E-07
v 0.0318098664 -0.150553063 -9.53674316E-07
v -0.0101945996 -0.113803506 -9.53674316E-07
v 0.0341604948 -0.114669561 -9.53674316E-07
v -0.0108913183 -0.0824602544 -9.53674316E-07
v 0.0332941115 -0.0784872323 -9.53674316E-07
v -0.39887926 -0.0827877969 -9.53674316E-07
v -0.432475001 -0.0538152009 -9.53674316E-07
v -0.408837616 -0.0271864235 -9.53674316E-07
v -0.375592053 -0.0565609932 -9.53674316E-07
v -0.384887576 -0.00112559646 -9.53674316E-07
v -0.352992058 -0.0319605991 -9.53674316E-07
v -0.352992058 -0.0319605991 -9.53674316E-07
v -0.384887576 -0.00112559646 -9.53674316E-07
v -0.359409213 0.0238603354 0
v -0.329650104 -0.00904154032 -9.53674316E-07
v -0.329650104 -0.00904154032 -9.53674316E-07
v -0.359409213 0.0238603354 0
v -0.331544995 0.0466932133 -9.53674316E-07
v -0.30498296 0.0111604258 -9.53674316E-07
v -0.30498296 0.0111604258 -9.53674316E-07
v -0.331544995 0.0466932133 -9.53674316E-07
v -0.301405758 0.066753827 -1.90734863E-06
v -0.278827816 0.0285651237 -9.53674316E-07
v -0.278827816 0.0285651237 -9.53674316E-07
v -0.301405758 0.066753827 -1.90734863E-06
v -0.269300103 0.0835296139 -9.53674316E-07
v -0.251035392 0.0431004837 -9.53674316E-07
v -0.251035392 0.0431004837 -9.53674316E-07
v -0.269300103 0.0835296139 -9.53674316E-07
v -0.235413671 0.096757479 -9.53674316E-07
v -0.222148642 0.0544243529 -9.53674316E-07
v -0.199272007 0.104803301 -9.53674316E-07
v -0.193554312 0.060809575 -9.53674316E-07
v -0.162330866 0.106345065 -9.53674316E-07
v -0.16410923 0.0620172992 -9.53674316E-07
v -0.16410923 0.0620172992 -9.53674316E-07
v -0.162330866 0.106345065 -9.53674316E-07
v -0.12572515 0.102260716 -9.53674316E-07
v -0.134387672 0.0587512031 -9.53674316E-07
v -0.134387672 0.0587512031 -9.53674316E-07
v -0.12572515 0.102260716 -9.53674316E-07
v -0.0902047753 0.0921509042 -1.90734863E-06
v -0.105850458 0.0506379232 -1.90734863E-06
v -0.105850458 0.0506379232 -1.90734863E-06
v -0.0902047753 0.0921509042 -1.90734863E-06
v -0.0567728579 0.0759467408 -9.53674316E-07
v -0.0796756446 0.0379520878 -9.53674316E-07
v -0.0796756446 0.0379520878 -9.53674316E-07
v -0.0567728579 0.0759467408 -9.53674316E-07
v -0.0268133879 0.0535992011 -9.53674316E-07
v -0.0568464696 0.0209475532 -9.53674316E-07
v -0.00193810463 0.0255843997 -9.53674316E-07
v -0.0381406546 -5.75184822E-05 -9.53674316E-07
v -0.0381406546 -5.75184822E-05 -9.53674316E-07
v -0.00193810463 0.0255843997 -9.53674316E-07
v 0.0158696473 -0.00718232244 -1.90734863E-06
v -0.0247356594 -0.0250522718 -1.90734863E-06
v -0.0247356594 -0.0250522718 -1.90734863E-06
v 0.0158696473 -0.00718232244 -1.90734863E-06
v 0.0277071893 -0.0422928482 -9.53674316E-07
v -0.0154513121 -0.0525628664 -1.90734863E-06
v -0.0154513121 -0.0525628664 -1.90734863E-06
v 0.0277071893 -0.0422928482 -9.53674316E-07
v 0.0332941115 -0.0784872323 -9.53674316E-07
v -0.0108913183 -0.0824602544 -9.53674316E-07
vt 0.967741966 0
vt 1 1
vt 1 0
vt 0.967741966 1
vt 0.935483813 0
vt 0.935483932 1
vt 0.90322578 0
vt 0.90322578 1
vt 0.870967746 0
vt 0.870967746 1
vt 0.838709712 0
vt 0.838709712 1
vt 0.806451678 0
vt 0.806451678 1
vt 0.774193525 0
vt 0.774193525 1
vt 0.741935492 0
vt 0.741935432 1
vt 0.709677398 0
vt 0.709677398 1
vt 0.677419305 0
vt 0.677419305 1
vt 0.645161271 0
vt 0.645161271 1
vt 0.612903237 0
vt 0.612903178 1
vt 0.580645204 0
vt 0.580645144 1
vt 0.54838711 0
vt 0.548387051 1
vt 0 0
vt 0 1
vt 0.0322580598 1
vt 0.0322580636 0
vt 0.0645161197 1
vt 0.0645161271 0
vt 0.0645161271 0
vt 0.0645161197 1
vt 0.0967741907 1
vt 0.0967741907 0
vt 0.0967741907 0
vt 0.0967741907 1
vt 0.129032254 1
vt 0.129032254 0
vt 0.129032254 0
vt 0.129032254 1
vt 0.161290318 1
vt 0.161290318 0
vt 0.161290318 0
vt 0.161290318 1
vt 0.193548381 1
vt 0.193548381 0
vt 0.193548381 0
vt 0.193548381 1
vt 0.225806445 1
vt 0.225806445 0
vt 0.258064508 1
vt 0.258064508 0
vt 0.290322572 1
vt 0.290322572 0
vt 0.290322572 0
vt 0.290322572 1
vt 0.322580636 1
vt 0.322580636 0
vt 0.322580636 0
vt 0.322580636 1
vt 0.354838699 1
vt 0.354838699 0
vt 0.354838699 0
vt 0.354838699 1
vt 0.387096763 1
vt 0.387096763 0
vt 0.387096763 0
vt 0.387096763 1
vt 0.419354856 1
vt 0.419354856 0
vt 0.45161289 1
vt 0.451612949 0
vt 0.451612949 0
vt 0.45161289 1
vt 0.483870983 1
vt 0.483870983 0
vt 0.483870983 0
vt 0.483870983 1
vt 0.516129017 1
vt 0.516129017 0
vt 0.516129017 0
vt 0.516129017 1
vt 0.548387051 1
vt 0.54838711 0
vn -1.30076478E-05 -9.9673498E-06 1
vn -1.30076478E-05 -9.9673498E-06 1
vn -1.30076478E-05 -9.9673498E-06 1
vn -1.30076478E-05 -9.9673498E-06 1
vn -0 0 1
vn -0 0 1
vn -0 0 1
vn -0 0 1
vn -0 0 1
vn -0 0 1
vn 1.21542107E-05 2.46085729E-05 1
vn 1.21542107E-05 2.46085729E-05 1
vn -1.17936206E-05 -2.49656914E-05 1
vn -1.17936206E-05 -2.49656914E-05 1
vn -0 0 1
vn -0 0 1
vn -0 0 1
vn -0 0 1
vn -0 0 1
vn -0 0 1
vn -0 0 1
vn -0 0 1
vn -0 0 1
vn -0 0 1
vn -0 0 1
vn -0 0 1
vn -0 0 1
vn -0 0 1
vn -0 0 1
vn -0 0 1
vn -0 0 1
vn -0 0 1
vn -0 0 1
vn -0 0 1
vn -0 0 1
vn -0 0 1
vn -0 -1.73707031E-05 1
vn -0 -1.73707031E-05 1
vn -0 -1.73707031E-05 1
vn -0 -1.73707031E-05 1
vn 1.76624417E-05 0 1
vn 1.76624417E-05 0 1
vn 1.76624417E-05 0 1
vn 1.76624417E-05 0 1
vn 5.77127639E-06 1.67831022E-05 1
vn 5.77127639E-06 1.67831022E-05 1
vn 5.77127639E-06 1.67831022E-05 1
vn 5.77127639E-06 1.67831022E-05 1
vn -1.75080877E-05 3.03489605E-06 1
vn -1.75080877E-05 3.03489605E-06 1
vn -1.75080877E-05 3.03489605E-06 1
vn -1.75080877E-05 3.03489605E-06 1
vn -0 0 1
vn -0 0 1
vn -0 0 1
vn -0 0 1
vn -0 0 1
vn -0 0 1
vn -0 0 1
vn -0 0 1
vn -0 0 1
vn -0 0 1
vn -0 0 1
vn -0 0 1
vn 2.75359289E-05 -7.87261069E-06 1
vn 2.75359289E-05 -7.87261069E-06 1
vn 2.75359289E-05 -7.87261069E-06 1
vn 2.75359289E-05 -7.87261069E-06 1
vn -2.59102198E-05 1.25623073E-05 1
vn -2.59102198E-05 1.25623073E-05 1
vn -2.59102198E-05 1.25623073E-05 1
vn -2.59102198E-05 1.25623073E-05 1
vn -0 0 1
vn -0 0 1
vn -0 0 1
vn -0 0 1
vn -0 0 1
vn -0 0 1
vn 1.43222069E-05 -2.52817899E-05 1
vn 1.43222069E-05 -2.52817899E-05 1
vn 1.43222069E-05 -2.52817899E-05 1
vn 1.43222069E-05 -2.52817899E-05 1
vn -1.48219478E-05 1.02298836E-05 1
vn -1.48219478E-05 1.02298836E-05 1
vn -1.48219478E-05 1.02298836E-05 1
vn -1.48219478E-05 1.02298836E-05 1
vn -1.29474665E-05 1.2441752E-05 1
vn -1.29474665E-05 1.2441752E-05 1
vn -1.29474665E-05 1.2441752E-05 1
vn -1.29474665E-05 1.2441752E-05 1
g general_plane_15_0
f 3/3/3 2/2/2 1/1/1
f 2/2/2 4/4/4 1/1/1
f 1/1/1 4/4/4 5/5/5
f 4/4/4 6/6/6 5/5/5
f 5/5/5 6/6/6 7/7/7
f 6/6/6 8/8/8 7/7/7
f 7/7/7 8/8/8 9/9/9
f 8/8/8 10/10/10 9/9/9
f 9/9/9 10/10/10 11/11/11
f 10/10/10 12/12/12 11/11/11
f 11/11/11 12/12/12 13/13/13
f 12/12/12 14/14/14 13/13/13
f 13/13/13 14/14/14 15/15/15
f 14/14/14 16/16/16 15/15/15
f 15/15/15 16/16/16 17/17/17
f 16/16/16 18/18/18 17/17/17
f 17/17/17 18/18/18 19/19/19
f 18/18/18 20/20/20 19/19/19
f 19/19/19 20/20/20 21/21/21
f 20/20/20 22/22/22 21/21/21
f 21/21/21 22/22/22 23/23/23
f 22/22/22 24/24/24 23/23/23
f 23/23/23 24/24/24 25/25/25
f 24/24/24 26/26/26 25/25/25
f 25/25/25 26/26/26 27/27/27
f 26/26/26 28/28/28 27/27/27
f 27/27/27 28/28/28 29/29/29
f 28/28/28 30/30/30 29/29/29
f 33/33/33 32/32/32 31/31/31
f 34/34/34 33/33/33 31/31/31
f 35/35/35 33/33/33 34/34/34
f 36/36/36 35/35/35 34/34/34
f 39/39/39 38/38/38 37/37/37
f 40/40/40 39/39/39 37/37/37
f 43/43/43 42/42/42 41/41/41
f 44/44/44 43/43/43 41/41/41
f 47/47/47 46/46/46 45/45/45
f 48/48/48 47/47/47 45/45/45
f 51/51/51 50/50/50 49/49/49
f 52/52/52 51/51/51 49/49/49
f 55/55/55 54/54/54 53/53/53
f 56/56/56 55/55/55 53/53/53
f 57/57/57 55/55/55 56/56/56
f 58/58/58 57/57/57 56/56/56
f 59/59/59 57/57/57 58/58/58
f 60/60/60 59/59/59 58/58/58
f 63/63/63 62/62/62 61/61/61
f 64/64/64 63/63/63 61/61/61
f 67/67/67 66/66/66 65/65/65
f 68/68/68 67/67/67 65/65/65
f 71/71/71 70/70/70 69/69/69
f 72/72/72 71/71/71 69/69/69
f 75/75/75 74/74/74 73/73/73
f 76/76/76 75/75/75 73/73/73
f 77/77/77 75/75/75 76/76/76
f 78/78/78 77/77/77 76/76/76
f 81/81/81 80/80/80 79/79/79
f 82/82/82 81/81/81 79/79/79
f 85/85/85 84/84/84 83/83/83
f 86/86/86 85/85/85 83/83/83
f 89/89/89 88/88/88 87/87/87
f 90/90/90 89/89/89 87/87/87
