g general_plane_136
v -0.25 0.1875 -0.0429932438
v -0.25 0.25 0
v 0.25 0.25 0
v 0.25 0.1875 -0.0429932438
v -0.25 0.125 -0.0869796202
v 0.25 0.125 -0.0869796202
v -0.25 0.0625 -0.104299754
v 0.25 0.0625 -0.104299754
v -0.25 0 -0.109431945
v 0.25 0 -0.109431945
v -0.25 -0.0625 -0.104299754
v 0.25 -0.0625 -0.104299754
v -0.25 -0.125 -0.0869796202
v 0.25 -0.125 -0.0869796202
v -0.25 -0.1875 -0.0429932438
v 0.25 -0.1875 -0.0429932438
v -0.25 -0.25 0
v 0.25 -0.25 0
vt 0 0.875
vt 0 1
vt 1 1
vt 1 0.875
vt 0 0.75
vt 1 0.75
vt 0 0.625
vt 1 0.625
vt 0 0.5
vt 1 0.5
vt 0 0.375
vt 1 0.375
vt 0 0.249999985
vt 1 0.25
vt 0 0.124999993
vt 1 0.125
vt 0 0
vt 1 0
vn -0 -0.571166754 0.82083416
vn -0 -0.566748023 0.823891103
vn -0 -0.566748023 0.823891103
vn -0 -0.571166754 0.82083416
vn -0 -0.440342516 0.897829831
vn -0 -0.440342516 0.897829831
vn -0 -0.176789388 0.984248698
vn -0 -0.176789388 0.984248698
vn -0 0 1
vn -0 0 1
vn -0 0.176789388 0.984248698
vn -0 0.176789388 0.984248698
vn -0 0.440342516 0.897829831
vn -0 0.440342516 0.897829831
vn -0 0.571166754 0.82083416
vn -0 0.571166754 0.82083416
vn -0 0.566748023 0.823891103
vn -0 0.566748023 0.823891103
g general_plane_136_0
f 3/3/3 2/2/2 1/1/1
f 4/4/4 3/3/3 1/1/1
f 4/4/4 1/1/1 5/5/5
f 6/6/6 4/4/4 5/5/5
f 6/6/6 5/5/5 7/7/7
f 8/8/8 6/6/6 7/7/7
f 8/8/8 7/7/7 9/9/9
f 10/10/10 8/8/8 9/9/9
f 10/10/10 9/9/9 11/11/11
f 12/12/12 10/10/10 11/11/11
f 12/12/12 11/11/11 13/13/13
f 14/14/14 12/12/12 13/13/13
f 14/14/14 13/13/13 15/15/15
f 16/16/16 14/14/14 15/15/15
f 16/16/16 15/15/15 17/17/17
f 18/18/18 16/16/16 17/17/17
