g Plane004
v 0.295128167 3.89844175E-08 0
v 0.467359632 3.67134803E-08 0
v 0.452598244 -0.111866139 0
v 0.284607649 -0.0715351403 0
v 0.408243209 -0.22607334 0
v 0.260937661 -0.135804296 0
v 0.344393194 -0.314619303 0
v 0.213022336 -0.202418014 0
v 0.25049293 -0.393278837 0
v 0.160223976 -0.245973259 0
v 0.152515858 -0.441445291 0
v 0.086401917 -0.281832069 0
v 0.0322296843 -0.465112627 0
v 0.0186748207 -0.292881101 0
v -0.0900638252 -0.457832515 0
v -0.0497328453 -0.28984189 0
v -0.193946451 -0.42428416 0
v -0.127832502 -0.264670968 0
v -0.297569633 -0.358954996 0
v -0.185368329 -0.227584139 0
v -0.373517156 -0.280519545 0
v -0.242146313 -0.168318242 0
v -0.432864815 -0.173230946 0
v -0.273251593 -0.107117034 0
v -0.463353455 -0.0545824952 0
v -0.2911219 -0.0410276316 0
v -0.463353395 0.054582715 0
v -0.2911219 0.0410278291 0
v -0.432864666 0.173231214 0
v -0.273251474 0.107117295 0
v -0.373517007 0.280519724 0
v -0.242146149 0.168318436 0
v -0.297569305 0.358955264 0
v -0.185368061 0.227584362 0
v -0.193946257 0.42428422 0
v -0.127832323 0.264671028 0
v -0.0900636166 0.457832575 0
v -0.0497326218 0.28984195 0
v 0.0322298892 0.465112597 0
v 0.0186749566 0.292881101 0
v 0.152516082 0.441445202 0
v 0.086402081 0.28183198 0
v 0.250492871 0.393278867 0
v 0.160223827 0.245973289 0
v 0.344393253 0.314619273 0
v 0.213022366 0.202418014 0
v 0.408243209 0.22607334 0
v 0.260937572 0.135804325 0
v 0.452598184 0.111866303 0
v 0.284607589 0.0715353191 0
v 0.467359632 3.67134803E-08 0
v 0.295128167 3.89844175E-08 0
vt 0 0
vt 0 1
vt 0.0399999991 1
vt 0.0399999991 0
vt 0.0799999982 1
vt 0.0799999982 0
vt 0.119999997 1
vt 0.119999997 0
vt 0.159999996 1
vt 0.159999996 0
vt 0.199999988 1
vt 0.199999988 0
vt 0.23999998 1
vt 0.23999998 0
vt 0.279999971 1
vt 0.279999971 0
vt 0.319999963 1
vt 0.319999963 0
vt 0.359999955 1
vt 0.359999955 0
vt 0.399999946 1
vt 0.399999946 0
vt 0.439999938 1
vt 0.439999938 0
vt 0.47999993 1
vt 0.47999993 0
vt 0.519999921 1
vt 0.519999921 0
vt 0.559999943 1
vt 0.559999943 0
vt 0.599999964 1
vt 0.599999964 0
vt 0.639999986 1
vt 0.639999986 0
vt 0.680000007 1
vt 0.680000007 0
vt 0.720000029 1
vt 0.720000029 0
vt 0.76000005 1
vt 0.76000005 0
vt 0.800000072 1
vt 0.800000072 0
vt 0.840000093 1
vt 0.840000093 0
vt 0.880000114 1
vt 0.880000114 0
vt 0.920000136 1
vt 0.920000136 0
vt 0.960000157 1
vt 0.960000157 0
vt 1.00000012 1
vt 1.00000012 0
vn -0 0 1
vn -0 0 1
vn -0 0 1
vn -0 0 1
vn -0 0 1
vn -0 0 1
vn -0 0 1
vn -0 0 1
vn -0 0 1
vn -0 0 1
vn -0 0 1
vn -0 0 1
vn -0 0 1
vn -0 0 1
vn -0 0 1
vn -0 0 1
vn -0 0 1
vn -0 0 1
vn -0 0 1
vn -0 0 1
vn -0 0 1
vn -0 0 1
vn -0 0 1
vn -0 0 1
vn -0 0 1
vn -0 0 1
vn -0 0 1
vn -0 0 1
vn -0 0 1
vn -0 0 1
vn -0 0 1
vn -0 0 1
vn -0 0 1
vn -0 0 1
vn -0 0 1
vn -0 0 1
vn -0 0 1
vn -0 0 1
vn -0 0 1
vn -0 0 1
vn -0 0 1
vn -0 0 1
vn -0 0 1
vn -0 0 1
vn -0 0 1
vn -0 0 1
vn -0 0 1
vn -0 0 1
vn -0 0 1
vn -0 0 1
vn -0 0 1
vn -0 0 1
g Plane004_0
f 3/3/3 2/2/2 1/1/1
f 4/4/4 3/3/3 1/1/1
f 5/5/5 3/3/3 4/4/4
f 6/6/6 5/5/5 4/4/4
f 7/7/7 5/5/5 6/6/6
f 8/8/8 7/7/7 6/6/6
f 9/9/9 7/7/7 8/8/8
f 10/10/10 9/9/9 8/8/8
f 11/11/11 9/9/9 10/10/10
f 12/12/12 11/11/11 10/10/10
f 13/13/13 11/11/11 12/12/12
f 14/14/14 13/13/13 12/12/12
f 15/15/15 13/13/13 14/14/14
f 16/16/16 15/15/15 14/14/14
f 17/17/17 15/15/15 16/16/16
f 18/18/18 17/17/17 16/16/16
f 19/19/19 17/17/17 18/18/18
f 20/20/20 19/19/19 18/18/18
f 21/21/21 19/19/19 20/20/20
f 22/22/22 21/21/21 20/20/20
f 23/23/23 21/21/21 22/22/22
f 24/24/24 23/23/23 22/22/22
f 25/25/25 23/23/23 24/24/24
f 26/26/26 25/25/25 24/24/24
f 27/27/27 25/25/25 26/26/26
f 28/28/28 27/27/27 26/26/26
f 29/29/29 27/27/27 28/28/28
f 30/30/30 29/29/29 28/28/28
f 31/31/31 29/29/29 30/30/30
f 32/32/32 31/31/31 30/30/30
f 33/33/33 31/31/31 32/32/32
f 34/34/34 33/33/33 32/32/32
f 35/35/35 33/33/33 34/34/34
f 36/36/36 35/35/35 34/34/34
f 37/37/37 35/35/35 36/36/36
f 38/38/38 37/37/37 36/36/36
f 39/39/39 37/37/37 38/38/38
f 40/40/40 39/39/39 38/38/38
f 41/41/41 39/39/39 40/40/40
f 42/42/42 41/41/41 40/40/40
f 43/43/43 41/41/41 42/42/42
f 44/44/44 43/43/43 42/42/42
f 45/45/45 43/43/43 44/44/44
f 46/46/46 45/45/45 44/44/44
f 47/47/47 45/45/45 46/46/46
f 48/48/48 47/47/47 46/46/46
f 49/49/49 47/47/47 48/48/48
f 50/50/50 49/49/49 48/48/48
f 51/51/51 49/49/49 50/50/50
f 52/52/52 51/51/51 50/50/50
