g Plane
v -0.187786281 0.219700903 0.750585496
v -0.0180722177 0.0499868244 0.414363027
v -0.0494167283 0.0186423138 0.414363027
v -0.219130799 0.188356385 0.750585496
v -0.22025609 -0.188716829 0.7479375
v -0.0532153472 -0.0216760561 0.417011142
v -0.0204044729 -0.0544869304 0.417011112
v -0.187445223 -0.22152774 0.747937441
v 0.248136982 0.206677914 0.778425872
v 0.0503171533 0.00885819644 0.38652277
v 0.0133680711 0.0458072871 0.38652274
v 0.211187914 0.243627027 0.778425813
v 0.181706011 -0.213924587 0.761038303
v 0.00143954903 -0.033657968 0.403910279
v 0.0335317627 -0.00156579912 0.40391022
v 0.21379824 -0.181832403 0.761038303
vt 2.98023224E-08 1
vt 1 1
vt 1 0
vt 0 2.98023224E-08
vt 2.98023224E-08 1
vt 1 1
vt 1 0
vt 0 2.98023224E-08
vt 2.98023224E-08 1
vt 1 1
vt 1 0
vt 0 2.98023224E-08
vt 2.98023224E-08 1
vt 1 1
vt 1 0
vt 0 2.98023224E-08
vn 0.575515449 -0.575515509 0.581002593
vn 0.575515449 -0.575515509 0.581002593
vn 0.575515449 -0.575515509 0.581002593
vn 0.575515449 -0.575515509 0.581002593
vn 0.575515807 0.575514913 0.581002831
vn 0.575515807 0.575514913 0.581002831
vn 0.575515807 0.575514913 0.581002831
vn 0.575515807 0.575514913 0.581002831
vn -0.575515807 -0.575514972 0.581002593
vn -0.575515807 -0.575514972 0.581002593
vn -0.575515807 -0.575514972 0.581002593
vn -0.575515807 -0.575514972 0.581002593
vn -0.575514734 0.575516164 0.581002593
vn -0.575514734 0.575516164 0.581002593
vn -0.575514734 0.575516164 0.581002593
vn -0.575514734 0.575516164 0.581002593
g Plane_0
f 3/3/3 2/2/2 1/1/1
f 4/4/4 3/3/3 1/1/1
f 7/7/7 6/6/6 5/5/5
f 8/8/8 7/7/7 5/5/5
f 11/11/11 10/10/10 9/9/9
f 12/12/12 11/11/11 9/9/9
f 15/15/15 14/14/14 13/13/13
f 16/16/16 15/15/15 13/13/13
