g Plane005
v -0 -1.08949888 -2.15178844E-08
v 0.510373771 -0.988242745 -1.84488957E-08
v 0.380999982 -1.08949888 -2.15178844E-08
v 0.128725663 -0.988242745 -1.84488957E-08
v -0.380999982 -1.08949888 -2.15178844E-08
v 0.601271629 -0.884414613 -1.56865365E-08
v -0.252922535 -0.988242745 -1.84488957E-08
v 0.217970371 -0.884414613 -1.56865365E-08
v 0.657577574 -0.778149664 -1.32146702E-08
v -0.165330946 -0.884414613 -1.56865365E-08
v 0.272055775 -0.778149664 -1.32146702E-08
v 0.683176339 -0.669583321 -1.10171561E-08
v -0.113466039 -0.778149664 -1.32146702E-08
v 0.295303762 -0.669583321 -1.10171561E-08
v 0.681952238 -0.558850944 -9.07785758E-09
v -0.0925686434 -0.669583321 -1.10171561E-08
v 0.292036444 -0.558850884 -9.07785758E-09
v 0.657789767 -0.446087897 -7.38063477E-09
v -0.0978793949 -0.558850944 -9.07785758E-09
v 0.266575396 -0.446087897 -7.38063477E-09
v 0.614573598 -0.331429571 -5.90934857E-09
v -0.124639243 -0.446087897 -7.38063477E-09
v 0.223242238 -0.331429571 -5.90934857E-09
v 0.556187868 -0.215011388 -4.64786387E-09
v -0.168089017 -0.331429571 -5.90934857E-09
v 0.166359365 -0.215011388 -4.64786387E-09
v 0.486517012 -0.0969688892 -3.58003849E-09
v -0.223469347 -0.215011388 -4.64786387E-09
v 0.100247853 -0.0969687924 -3.58003849E-09
v 0.409445733 0.0225629639 -2.68973555E-09
v -0.286021262 -0.0969688892 -3.58003849E-09
v 0.0292301923 0.0225629639 -2.68973555E-09
v 0.328858256 0.143448606 -1.96081706E-09
v -0.350985378 0.0225629639 -2.68973555E-09
v -0.0423722193 0.143448904 -1.96081706E-09
v 0.248639137 0.265552491 -1.37714451E-09
v -0.41360271 0.143448606 -1.96081706E-09
v -0.110237382 0.26555267 -1.37714451E-09
v 0.172672793 0.388739556 -9.22579513E-10
v -0.469113857 0.265552491 -1.37714451E-09
v -0.170043379 0.388739556 -9.22579513E-10
v 0.104843698 0.512873828 -5.80982984E-10
v -0.512759686 0.388739556 -9.22579513E-10
v -0.217468649 0.512874007 -5.80982984E-10
v 0.0490362495 0.63782084 -3.36216943E-10
v -0.539780974 0.512873828 -5.80982984E-10
v -0.248191223 0.637821019 -3.36216943E-10
v 0.00913488306 0.763444185 -1.72143189E-10
v -0.545418739 0.63782084 -3.36216943E-10
v -0.257889301 0.763444185 -1.72143189E-10
v -0.0109758805 0.889609516 -7.26228314E-11
v -0.52491349 0.763444185 -1.72143189E-10
v -0.242241025 0.889609754 -7.26228314E-11
v -0.0074116597 1.01618063 -2.15178986E-11
v -0.473506182 0.889609516 -7.26228314E-11
v -0.196924657 1.01618063 -2.15178986E-11
v 0.0237120222 1.14302313 -2.68973732E-12
v -0.386437684 1.01618063 -2.15178986E-11
v -0.11761833 1.14302289 -2.68973732E-12
v 0.0862796679 1.27000046 0
v -0.258948654 1.14302313 -2.68973732E-12
v -1.45339968E-07 1.27000046 0
v -0.0862799063 1.27000046 0
vt 0.5 0
vt 1 0.0500000007
vt 1 0
vt 0.5 0.0500000007
vt 0 0
vt 1 0.100000001
vt 0 0.0500000007
vt 0.5 0.100000001
vt 1 0.150000006
vt 0 0.100000001
vt 0.5 0.150000006
vt 1 0.200000003
vt 0 0.150000006
vt 0.5 0.200000003
vt 1 0.25
vt 0 0.200000003
vt 0.5 0.25
vt 1 0.300000012
vt 0 0.25
vt 0.5 0.300000012
vt 1 0.350000024
vt 0 0.300000012
vt 0.5 0.350000024
vt 1 0.400000036
vt 0 0.350000024
vt 0.5 0.400000036
vt 1 0.450000048
vt 0 0.400000036
vt 0.5 0.450000048
vt 1 0.50000006
vt 0 0.450000048
vt 0.5 0.50000006
vt 1 0.550000072
vt 0 0.50000006
vt 0.5 0.550000072
vt 1 0.600000083
vt 0 0.550000072
vt 0.5 0.600000083
vt 1 0.650000095
vt 0 0.600000083
vt 0.5 0.650000095
vt 1 0.700000107
vt 0 0.650000095
vt 0.5 0.700000107
vt 1 0.750000119
vt 0 0.700000107
vt 0.5 0.750000119
vt 1 0.800000131
vt 0 0.750000119
vt 0.5 0.800000131
vt 1 0.850000143
vt 0 0.800000131
vt 0.5 0.850000143
vt 1 0.900000155
vt 0 0.850000143
vt 0.5 0.900000155
vt 1 0.950000167
vt 0 0.900000155
vt 0.5 0.950000167
vt 1 1.00000012
vt 0 0.950000167
vt 0.5 1.00000012
vt 0 1.00000012
vn -0 0 1
vn -0 0 1
vn -0 0 1
vn -0 0 1
vn -0 0 1
vn -0 0 1
vn -0 0 1
vn -0 0 1
vn -0 0 1
vn -0 0 1
vn -0 0 1
vn -0 0 1
vn -0 0 1
vn -0 0 1
vn -0 0 1
vn -0 0 1
vn -0 0 1
vn -0 0 1
vn -0 0 1
vn -0 0 1
vn -0 0 1
vn -0 0 1
vn -0 0 1
vn -0 0 1
vn -0 0 1
vn -0 0 1
vn -0 0 1
vn -0 0 1
vn -0 0 1
vn -0 0 1
vn -0 0 1
vn -0 0 1
vn -0 0 1
vn -0 0 1
vn -0 0 1
vn -0 0 1
vn -0 0 1
vn -0 0 1
vn -0 0 1
vn -0 0 1
vn -0 0 1
vn -0 0 1
vn -0 0 1
vn -0 0 1
vn -0 0 1
vn -0 0 1
vn -0 0 1
vn -0 0 1
vn -0 0 1
vn -0 0 1
vn -0 0 1
vn -0 0 1
vn -0 0 1
vn -0 0 1
vn -0 0 1
vn -0 0 1
vn -0 0 1
vn -0 0 1
vn -0 0 1
vn -0 0 1
vn -0 0 1
vn -0 0 1
vn -0 0 1
g Plane005_0
f 3/3/3 2/2/2 1/1/1
f 4/4/4 1/1/1 2/2/2
f 1/1/1 4/4/4 5/5/5
f 2/2/2 6/6/6 4/4/4
f 7/7/7 5/5/5 4/4/4
f 8/8/8 4/4/4 6/6/6
f 4/4/4 8/8/8 7/7/7
f 6/6/6 9/9/9 8/8/8
f 10/10/10 7/7/7 8/8/8
f 11/11/11 8/8/8 9/9/9
f 8/8/8 11/11/11 10/10/10
f 9/9/9 12/12/12 11/11/11
f 13/13/13 10/10/10 11/11/11
f 14/14/14 11/11/11 12/12/12
f 11/11/11 14/14/14 13/13/13
f 12/12/12 15/15/15 14/14/14
f 16/16/16 13/13/13 14/14/14
f 17/17/17 14/14/14 15/15/15
f 14/14/14 17/17/17 16/16/16
f 15/15/15 18/18/18 17/17/17
f 19/19/19 16/16/16 17/17/17
f 20/20/20 17/17/17 18/18/18
f 17/17/17 20/20/20 19/19/19
f 18/18/18 21/21/21 20/20/20
f 22/22/22 19/19/19 20/20/20
f 23/23/23 20/20/20 21/21/21
f 20/20/20 23/23/23 22/22/22
f 21/21/21 24/24/24 23/23/23
f 25/25/25 22/22/22 23/23/23
f 26/26/26 23/23/23 24/24/24
f 23/23/23 26/26/26 25/25/25
f 24/24/24 27/27/27 26/26/26
f 28/28/28 25/25/25 26/26/26
f 29/29/29 26/26/26 27/27/27
f 26/26/26 29/29/29 28/28/28
f 27/27/27 30/30/30 29/29/29
f 31/31/31 28/28/28 29/29/29
f 32/32/32 29/29/29 30/30/30
f 29/29/29 32/32/32 31/31/31
f 30/30/30 33/33/33 32/32/32
f 34/34/34 31/31/31 32/32/32
f 35/35/35 32/32/32 33/33/33
f 32/32/32 35/35/35 34/34/34
f 33/33/33 36/36/36 35/35/35
f 37/37/37 34/34/34 35/35/35
f 38/38/38 35/35/35 36/36/36
f 35/35/35 38/38/38 37/37/37
f 36/36/36 39/39/39 38/38/38
f 40/40/40 37/37/37 38/38/38
f 41/41/41 38/38/38 39/39/39
f 38/38/38 41/41/41 40/40/40
f 39/39/39 42/42/42 41/41/41
f 43/43/43 40/40/40 41/41/41
f 44/44/44 41/41/41 42/42/42
f 41/41/41 44/44/44 43/43/43
f 42/42/42 45/45/45 44/44/44
f 46/46/46 43/43/43 44/44/44
f 47/47/47 44/44/44 45/45/45
f 44/44/44 47/47/47 46/46/46
f 45/45/45 48/48/48 47/47/47
f 49/49/49 46/46/46 47/47/47
f 50/50/50 47/47/47 48/48/48
f 47/47/47 50/50/50 49/49/49
f 48/48/48 51/51/51 50/50/50
f 52/52/52 49/49/49 50/50/50
f 53/53/53 50/50/50 51/51/51
f 50/50/50 53/53/53 52/52/52
f 51/51/51 54/54/54 53/53/53
f 55/55/55 52/52/52 53/53/53
f 56/56/56 53/53/53 54/54/54
f 53/53/53 56/56/56 55/55/55
f 54/54/54 57/57/57 56/56/56
f 58/58/58 55/55/55 56/56/56
f 59/59/59 56/56/56 57/57/57
f 56/56/56 59/59/59 58/58/58
f 57/57/57 60/60/60 59/59/59
f 61/61/61 58/58/58 59/59/59
f 62/62/62 59/59/59 60/60/60
f 59/59/59 62/62/62 61/61/61
f 63/63/63 61/61/61 62/62/62
