g Plane004
v -0.194240823 -0.209148541 1.92632688E-05
v -0.171350017 -0.206574231 1.88403119E-05
v -0.199202925 -0.169726491 1.92632688E-05
v -0.176623583 -0.166504398 1.88403119E-05
v -0.144458428 -0.203178704 1.84143482E-05
v -0.150331721 -0.162562042 1.84143482E-05
v -0.118624926 -0.199550346 1.79853778E-05
v -0.125146866 -0.158460453 1.79853778E-05
v -0.0938473716 -0.195687786 1.75534024E-05
v -0.101071201 -0.154201031 1.75534024E-05
v -0.0701232627 -0.191589102 1.7118422E-05
v -0.0781071484 -0.149785653 1.7118422E-05
v -0.0474497937 -0.187252253 1.66804348E-05
v -0.0562575385 -0.145216495 1.66804348E-05
v -0.0258238595 -0.182674438 1.6239439E-05
v -0.0355256163 -0.140496299 1.6239439E-05
v -0.0052416618 -0.177852243 1.57954382E-05
v -0.0159148723 -0.135628268 1.57954382E-05
v 0.014300677 -0.172781527 1.5348427E-05
v 0.00257043424 -0.130616814 1.5348427E-05
v 0.0328079052 -0.167456955 1.48984154E-05
v 0.0199258421 -0.125467226 1.48984154E-05
v 0.0502850823 -0.161871776 1.44453961E-05
v 0.0361462906 -0.120186143 1.44453961E-05
v 0.0667376667 -0.156017527 1.39893691E-05
v 0.0512261838 -0.114782065 1.39893691E-05
v 0.0821713656 -0.149883509 1.35303344E-05
v 0.0651597828 -0.109265879 1.35303344E-05
v 0.096591875 -0.143455893 1.30682947E-05
v 0.0779414624 -0.103651203 1.30682947E-05
v 0.110004134 -0.136717305 1.26032473E-05
v 0.0895663798 -0.0979553312 1.26032473E-05
v 0.12241108 -0.129646271 1.21351959E-05
v 0.100031465 -0.0922000185 1.21351959E-05
v 0.133811891 -0.122216016 1.16641368E-05
v 0.109337606 -0.0864118487 1.16641368E-05
v 0.144199163 -0.114395171 1.11900699E-05
v 0.117492124 -0.0806222335 1.11900699E-05
v 0.155928314 -0.103775084 1.07129972E-05
v 0.125346035 -0.0739968121 1.07129972E-05
v 0.169975236 -0.0837541148 1.02329195E-05
v 0.132124245 -0.064971298 1.02329195E-05
v 0.176663145 -0.0616936907 9.74983323E-06
v 0.135380909 -0.0553524606 9.74983323E-06
v 0.17685917 -0.0396283232 9.26374287E-06
v 0.135844752 -0.0437329635 9.26374287E-06
v 0.172335699 -0.0184759069 8.77464481E-06
v 0.133339196 -0.0298221856 8.77464481E-06
v 0.164595857 0.00171939598 8.28254088E-06
v 0.127956972 -0.0142034208 8.28254088E-06
v 0.15472272 0.0210495144 7.78743015E-06
v 0.120210759 0.00240426208 7.78743015E-06
v 0.143594578 0.039490588 7.28931263E-06
v 0.110817991 0.0193976536 7.28931263E-06
v 0.132024989 0.0568936914 6.78818833E-06
v 0.100561112 0.036298003 6.78818833E-06
v 0.120821014 0.0730113387 6.2840586E-06
v 0.0902288407 0.0527255349 6.2840586E-06
v 0.110627018 0.0872721896 5.77692299E-06
v 0.081489794 0.0665580705 5.77692299E-06
v 0.0998083949 0.100752741 5.26678059E-06
v 0.072694011 0.0790435746 5.26678059E-06
v 0.0880016014 0.113866426 4.75363095E-06
v 0.0629029423 0.0914371759 4.75363095E-06
v 0.0752191022 0.126618966 4.23747588E-06
v 0.0521041341 0.103733443 4.23747588E-06
v 0.061470788 0.139017344 3.71831334E-06
v 0.0402877778 0.115924999 3.71831334E-06
v 0.0467641279 0.151069835 3.19614514E-06
v 0.0274464097 0.128003791 3.19614514E-06
v 0.0311043505 0.162784934 2.67097084E-06
v 0.0135747045 0.139961302 2.67097084E-06
v 0.0144948754 0.17417112 2.14278998E-06
v -0.00133082957 0.151789173 2.14278998E-06
v -0.00306224031 0.185236394 1.61160165E-06
v -0.017272152 0.163479239 1.61160165E-06
v -0.0215662457 0.195988283 1.07740652E-06
v -0.0342500657 0.175024107 1.07740652E-06
v -0.0410171673 0.20643352 5.40206543E-07
v -0.0522643737 0.186416835 5.40206543E-07
v -0.0594240837 0.215606198 0
v -0.0696186051 0.196836933 0
vt 0 1
vt 0.0250000004 1
vt 0 0
vt 0.0250000004 0
vt 0.0500000007 1
vt 0.0500000007 0
vt 0.075000003 1
vt 0.075000003 0
vt 0.100000001 1
vt 0.100000001 0
vt 0.125 1
vt 0.125 0
vt 0.150000006 1
vt 0.150000006 0
vt 0.175000012 1
vt 0.175000012 0
vt 0.200000018 1
vt 0.200000018 0
vt 0.225000024 1
vt 0.225000024 0
vt 0.25000003 1
vt 0.25000003 0
vt 0.275000036 1
vt 0.275000036 0
vt 0.300000042 1
vt 0.300000042 0
vt 0.325000048 1
vt 0.325000048 0
vt 0.350000054 1
vt 0.350000054 0
vt 0.37500006 1
vt 0.37500006 0
vt 0.400000066 1
vt 0.400000066 0
vt 0.425000072 1
vt 0.425000072 0
vt 0.450000077 1
vt 0.450000077 0
vt 0.475000083 1
vt 0.475000083 0
vt 0.50000006 1
vt 0.50000006 0
vt 0.525000036 1
vt 0.525000036 0
vt 0.550000012 1
vt 0.550000012 0
vt 0.574999988 1
vt 0.574999988 0
vt 0.599999964 1
vt 0.599999964 0
vt 0.62499994 1
vt 0.62499994 0
vt 0.649999917 1
vt 0.649999917 0
vt 0.674999893 1
vt 0.674999893 0
vt 0.699999869 1
vt 0.699999869 0
vt 0.724999845 1
vt 0.724999845 0
vt 0.749999821 1
vt 0.749999821 0
vt 0.774999797 1
vt 0.774999797 0
vt 0.799999774 1
vt 0.799999774 0
vt 0.82499975 1
vt 0.82499975 0
vt 0.849999726 1
vt 0.849999726 0
vt 0.874999702 1
vt 0.874999702 0
vt 0.899999678 1
vt 0.899999678 0
vt 0.924999654 1
vt 0.924999654 0
vt 0.94999963 1
vt 0.94999963 0
vt 0.974999607 1
vt 0.974999607 0
vt 0.999999583 1
vt 0.999999583 0
vn -1.8219218E-05 -2.29327952E-06 -1
vn -1.69176565E-05 -2.19191315E-06 -1
vn -1.83315969E-05 -2.37822746E-06 -1
vn -1.70588046E-05 -2.31051285E-06 -1
vn -1.59812662E-05 -2.24773339E-06 -1
vn -1.61743792E-05 -2.41494513E-06 -1
vn -1.670436E-05 -2.57775037E-06 -1
vn -1.69402174E-05 -2.77774507E-06 -1
vn -1.74749985E-05 -2.95676796E-06 -1
vn -1.77638158E-05 -3.19747664E-06 -1
vn -1.82961321E-05 -3.39337748E-06 -1
vn -1.86508823E-05 -3.68511746E-06 -1
vn -1.91705003E-05 -3.89790557E-06 -1
vn -1.96077017E-05 -4.25421149E-06 -1
vn -2.00999093E-05 -4.4826802E-06 -1
vn -2.06407149E-05 -4.92150411E-06 -1
vn -2.10854232E-05 -5.16259979E-06 -1
vn -2.1757045E-05 -5.70801194E-06 -1
vn -2.2125947E-05 -5.9554045E-06 -1
vn -2.29634916E-05 -6.64002891E-06 -1
vn -2.32176808E-05 -6.88231921E-06 -1
vn -2.42665101E-05 -7.75083845E-06 -1
vn -2.43529339E-05 -7.9685542E-06 -1
vn -2.5671683E-05 -9.08284528E-06 -1
vn -2.5517289E-05 -9.24346568E-06 -1
vn -2.71815006E-05 -1.06900425E-05 -1
vn -2.66869683E-05 -1.07405258E-05 -1
vn -2.87930816E-05 -1.26413479E-05 -1
vn -2.78253683E-05 -1.24967682E-05 -1
vn -3.04945697E-05 -1.50249007E-05 -1
vn -2.88785268E-05 -1.45510267E-05 -1
vn -3.22586384E-05 -1.7952605E-05 -1
vn -2.9769255E-05 -1.69398809E-05 -1
vn -3.40311126E-05 -2.15637247E-05 -1
vn -3.03924371E-05 -1.96912242E-05 -1
vn -3.57142999E-05 -2.60255911E-05 -1
vn -2.74867289E-05 -2.03364525E-05 -1
vn -3.39177313E-05 -2.97845654E-05 -1
vn -1.96479323E-05 -1.77266247E-05 -1
vn -2.49425848E-05 -3.20594809E-05 -1
vn -1.2135969E-05 -1.87567857E-05 -1
vn -1.36920789E-05 -3.87491054E-05 -1
vn -6.24708582E-06 -2.27864566E-05 -1
vn -2.80701602E-06 -4.19189455E-05 -1
vn -0 -2.41161997E-05 -1
vn 5.78965955E-06 -3.61624116E-05 -1
vn 5.1194811E-06 -2.34440395E-05 -1
vn 9.9455674E-06 -2.96143844E-05 -1
vn 8.4280191E-06 -2.21306727E-05 -1
vn 1.17875725E-05 -2.51869587E-05 -1
vn 1.05706713E-05 -2.10634644E-05 -1
vn 1.275265E-05 -2.26241773E-05 -1
vn 1.21232579E-05 -2.06390123E-05 -1
vn 1.34379443E-05 -2.14413594E-05 -1
vn 1.35037508E-05 -2.10879298E-05 -1
vn 1.4077189E-05 -2.14104512E-05 -1
vn 1.50614633E-05 -2.28117406E-05 -1
vn 1.58606381E-05 -2.32823058E-05 -1
vn 1.68229035E-05 -2.42704482E-05 -1
vn 1.88771392E-05 -2.54111455E-05 -1
vn 1.81533687E-05 -2.36958313E-05 -1
vn 2.07696139E-05 -2.49860404E-05 -1
vn 1.91161689E-05 -2.22702965E-05 -1
vn 2.14557294E-05 -2.32070797E-05 -1
vn 1.98761809E-05 -2.08311139E-05 -1
vn 2.19300127E-05 -2.14748361E-05 -1
vn 2.04484168E-05 -1.94068871E-05 -1
vn 2.22217204E-05 -1.98158559E-05 -1
vn 2.08515048E-05 -1.80201187E-05 -1
vn 2.2359709E-05 -1.82472832E-05 -1
vn 2.1106127E-05 -1.66877689E-05 -1
vn 2.2371205E-05 -1.6779024E-05 -1
vn 2.12332779E-05 -1.54215231E-05 -1
vn 2.22806575E-05 -1.5415193E-05 -1
vn 2.12530704E-05 -1.42285862E-05 -1
vn 2.21092996E-05 -1.4155692E-05 -1
vn 2.11840306E-05 -1.31125125E-05 -1
vn 2.18752011E-05 -1.29974815E-05 -1
vn 2.21329847E-05 -1.26865516E-05 -1
vn 2.25892454E-05 -1.25829574E-05 -1
vn 2.31785107E-05 -1.28216298E-05 -1
vn 2.34730524E-05 -1.27493813E-05 -1
g Plane004_0
f 3/3/3 2/2/2 1/1/1
f 2/2/2 3/3/3 4/4/4
f 4/4/4 5/5/5 2/2/2
f 5/5/5 4/4/4 6/6/6
f 6/6/6 7/7/7 5/5/5
f 7/7/7 6/6/6 8/8/8
f 8/8/8 9/9/9 7/7/7
f 9/9/9 8/8/8 10/10/10
f 10/10/10 11/11/11 9/9/9
f 11/11/11 10/10/10 12/12/12
f 12/12/12 13/13/13 11/11/11
f 13/13/13 12/12/12 14/14/14
f 14/14/14 15/15/15 13/13/13
f 15/15/15 14/14/14 16/16/16
f 16/16/16 17/17/17 15/15/15
f 17/17/17 16/16/16 18/18/18
f 18/18/18 19/19/19 17/17/17
f 19/19/19 18/18/18 20/20/20
f 20/20/20 21/21/21 19/19/19
f 21/21/21 20/20/20 22/22/22
f 22/22/22 23/23/23 21/21/21
f 23/23/23 22/22/22 24/24/24
f 24/24/24 25/25/25 23/23/23
f 25/25/25 24/24/24 26/26/26
f 26/26/26 27/27/27 25/25/25
f 27/27/27 26/26/26 28/28/28
f 28/28/28 29/29/29 27/27/27
f 29/29/29 28/28/28 30/30/30
f 30/30/30 31/31/31 29/29/29
f 31/31/31 30/30/30 32/32/32
f 32/32/32 33/33/33 31/31/31
f 33/33/33 32/32/32 34/34/34
f 34/34/34 35/35/35 33/33/33
f 35/35/35 34/34/34 36/36/36
f 36/36/36 37/37/37 35/35/35
f 37/37/37 36/36/36 38/38/38
f 38/38/38 39/39/39 37/37/37
f 39/39/39 38/38/38 40/40/40
f 40/40/40 41/41/41 39/39/39
f 41/41/41 40/40/40 42/42/42
f 42/42/42 43/43/43 41/41/41
f 43/43/43 42/42/42 44/44/44
f 44/44/44 45/45/45 43/43/43
f 45/45/45 44/44/44 46/46/46
f 46/46/46 47/47/47 45/45/45
f 47/47/47 46/46/46 48/48/48
f 48/48/48 49/49/49 47/47/47
f 49/49/49 48/48/48 50/50/50
f 50/50/50 51/51/51 49/49/49
f 51/51/51 50/50/50 52/52/52
f 52/52/52 53/53/53 51/51/51
f 53/53/53 52/52/52 54/54/54
f 54/54/54 55/55/55 53/53/53
f 55/55/55 54/54/54 56/56/56
f 56/56/56 57/57/57 55/55/55
f 57/57/57 56/56/56 58/58/58
f 58/58/58 59/59/59 57/57/57
f 59/59/59 58/58/58 60/60/60
f 60/60/60 61/61/61 59/59/59
f 61/61/61 60/60/60 62/62/62
f 62/62/62 63/63/63 61/61/61
f 63/63/63 62/62/62 64/64/64
f 64/64/64 65/65/65 63/63/63
f 65/65/65 64/64/64 66/66/66
f 66/66/66 67/67/67 65/65/65
f 67/67/67 66/66/66 68/68/68
f 68/68/68 69/69/69 67/67/67
f 69/69/69 68/68/68 70/70/70
f 70/70/70 71/71/71 69/69/69
f 71/71/71 70/70/70 72/72/72
f 72/72/72 73/73/73 71/71/71
f 73/73/73 72/72/72 74/74/74
f 74/74/74 75/75/75 73/73/73
f 75/75/75 74/74/74 76/76/76
f 76/76/76 77/77/77 75/75/75
f 77/77/77 76/76/76 78/78/78
f 78/78/78 79/79/79 77/77/77
f 79/79/79 78/78/78 80/80/80
f 80/80/80 81/81/81 79/79/79
f 81/81/81 80/80/80 82/82/82
