g polySurface21
v -0.149999991 0.349999994 0
v -0.25 0.349999994 0
v -0.25 0.349999994 0.0311301798
v -0.149999991 0.349999994 0.0311301798
v -0.149999991 0.349999994 0.0622603595
v -0.25 0.349999994 0.0622603595
v -0.25 0.550000012 0
v -0.25 0.649999976 0
v -0.25 0.649999976 0.031130217
v -0.25 0.550000012 0.0311301798
v -0.25 0.449999988 0
v -0.25 0.550000012 0.0622603595
v -0.25 0.649999976 0.0622603595
v -0.25 0.449999988 0.0622603595
v -0.25 0.449999988 0.0311301798
v -0.25 0.349999994 0
v -0.25 0.349999994 0.0622603595
v -0.25 0.349999994 0.0311301798
v 0.25 0.550000012 0
v 0.25 0.649999976 0.031130217
v 0.25 0.649999976 0
v 0.25 0.550000012 0.0311301798
v 0.25 0.649999976 0.0622603595
v 0.25 0.550000012 0.0622603595
v 0.25 0.449999988 0.0311301798
v 0.25 0.449999988 0
v 0.25 0.449999988 0.0622603595
v 0.25 0.349999994 0.0311301798
v 0.25 0.349999994 0
v 0.25 0.349999994 0.0622603595
v 0.149999991 0.649999976 0
v 0.25 0.649999976 0
v 0.25 0.649999976 0.031130217
v 0.149999991 0.649999976 0.031130217
v 0.049999997 0.649999976 0
v 0.149999991 0.649999976 0.0622603595
v 0.25 0.649999976 0.0622603595
v 0.049999997 0.649999976 0.0622603595
v 0.049999997 0.649999976 0.031130217
v -0.049999997 0.649999976 0
v -0.049999997 0.649999976 0.0622603595
v -0.049999997 0.649999976 0.031130217
v -0.149999991 0.649999976 0
v -0.149999991 0.649999976 0.0622603595
v -0.149999991 0.649999976 0.031130217
v -0.25 0.649999976 0
v -0.25 0.649999976 0.0622603595
v -0.25 0.649999976 0.031130217
v -0.049999997 -0.049999997 0
v -0.049999997 0.049999997 0
v -0.049999997 0.049999997 0.0311301798
v -0.049999997 -0.049999997 0.0311301798
v -0.049999997 -0.049999997 0.0622603595
v -0.049999997 0.049999997 0.0622603595
v 0.049999997 -0.049999997 0
v -0.049999997 -0.049999997 0
v -0.049999997 -0.049999997 0.0311301798
v 0.049999997 -0.049999997 0.0311301798
v 0.049999997 -0.049999997 0.0622603595
v -0.049999997 -0.049999997 0.0622603595
v 0.049999997 0.049999997 0
v 0.049999997 -0.049999997 0
v 0.049999997 -0.049999997 0.0311301798
v 0.049999997 0.049999997 0.0311301798
v 0.049999997 0.049999997 0.0622603595
v 0.049999997 -0.049999997 0.0622603595
v -0.049999997 0.049999997 0
v -0.149999991 0.049999997 0
v -0.149999991 0.049999997 0.0311301798
v -0.049999997 0.049999997 0.0311301798
v -0.049999997 0.049999997 0.0622603595
v -0.149999991 0.049999997 0.0622603595
v 0.149999991 0.149999991 -9.53674295E-09
v 0.149999991 0.049999997 0
v 0.149999991 0.049999997 0.0311301798
v 0.149999991 0.149999991 0.0311301611
v 0.149999991 0.049999997 0.0622603595
v 0.149999991 0.149999991 0.0622603409
v 0.149999991 0.25 0.0622603409
v 0.149999991 0.25 0.0311301611
v 0.149999991 0.349999994 0.0622603595
v 0.149999991 0.25 -1.90734859E-08
v 0.149999991 0.349999994 0.0311301798
v 0.149999991 0.349999994 0
v 0.149999991 0.049999997 0
v 0.049999997 0.049999997 0
v 0.049999997 0.049999997 0.0311301798
v 0.149999991 0.049999997 0.0311301798
v 0.149999991 0.049999997 0.0622603595
v 0.049999997 0.049999997 0.0622603595
v -0.149999991 0.25 -1.90734859E-08
v -0.149999991 0.349999994 0
v -0.149999991 0.349999994 0.0311301798
v -0.149999991 0.25 0.0311301611
v -0.149999991 0.149999991 -9.53674295E-09
v -0.149999991 0.25 0.0622603409
v -0.149999991 0.349999994 0.0622603595
v -0.149999991 0.149999991 0.0622603409
v -0.149999991 0.149999991 0.0311301611
v -0.149999991 0.049999997 0
v -0.149999991 0.049999997 0.0622603595
v -0.149999991 0.049999997 0.0311301798
v 0.149999991 0.349999994 0
v 0.25 0.349999994 0.0311301798
v 0.25 0.349999994 0
v 0.149999991 0.349999994 0.0311301798
v 0.25 0.349999994 0.0622603595
v 0.149999991 0.349999994 0.0622603595
vt 0.707816005 0.00107264519
vt 0.666253865 0.00109267235
vt 0.666254103 0.499575615
vt 0.707816124 0.499557495
vt 0.707816243 0.998042583
vt 0.666254342 0.998060465
vt 0.583129704 0.00116670132
vt 0.541567683 0.00120413303
vt 0.541567922 0.499689102
vt 0.583130002 0.499652267
vt 0.624691784 0.00113081932
vt 0.5831303 0.998134971
vt 0.5415681 0.998174429
vt 0.62469238 0.998098612
vt 0.624692023 0.499615192
vt 0.666253865 0.00109267235
vt 0.666254342 0.998060465
vt 0.666254103 0.499575615
vt 0.29219538 0.00129830837
vt 0.333757639 0.499766529
vt 0.33375752 0.00128310919
vt 0.292195499 0.499782503
vt 0.333757758 0.998252273
vt 0.292195559 0.998267949
vt 0.250633538 0.499799103
vt 0.250633359 0.00131437182
vt 0.250633597 0.998283207
vt 0.209071398 0.499814123
vt 0.209071338 0.00132906437
vt 0.209071457 0.998299181
vt 0.375319541 0.00126850605
vt 0.33375752 0.00128310919
vt 0.333757639 0.499766529
vt 0.37531969 0.49975282
vt 0.416881621 0.00125229359
vt 0.375319809 0.998237491
vt 0.333757758 0.998252273
vt 0.416881919 0.99822247
vt 0.41688177 0.49973762
vt 0.458443671 0.00123715401
vt 0.45844394 0.998206258
vt 0.45844382 0.499722242
vt 0.500005722 0.00122320652
vt 0.50000602 0.998189569
vt 0.500005841 0.499705315
vt 0.541567683 0.00120413303
vt 0.5415681 0.998174429
vt 0.541567922 0.499689102
vt 0.91562891 0.00153589249
vt 0.874066591 0.00118088722
vt 0.874064267 0.499665022
vt 0.915626347 0.500021219
vt 0.915624022 0.998506069
vt 0.874062181 0.998149872
vt 0.957190871 0.00179362297
vt 0.91562891 0.00153589249
vt 0.915626347 0.500021219
vt 0.957188368 0.500278234
vt 0.957186043 0.998761654
vt 0.915624022 0.998506069
vt 0.99875313 0.00212550163
vt 0.957190871 0.00179362297
vt 0.957188368 0.500278234
vt 0.998750448 0.500606298
vt 0.998747647 0.999093533
vt 0.957186043 0.998761654
vt 0.874066591 0.00118088722
vt 0.832502842 0.000988960266
vt 0.832502365 0.499473572
vt 0.874064267 0.499665022
vt 0.874062181 0.998149872
vt 0.83250165 0.997956991
vt 0.0843852758 0.00133082271
vt 0.0428232253 0.00133061409
vt 0.0428231955 0.499812663
vt 0.0843852758 0.499815673
vt 0.0428231359 0.998298168
vt 0.0843851566 0.998298168
vt 0.125947356 0.998298049
vt 0.125947356 0.499815077
vt 0.167509407 0.998299181
vt 0.125947356 0.00133061409
vt 0.167509407 0.49981457
vt 0.167509407 0.00133061409
vt 0.0428232253 0.00133061409
vt 0.00126129389 0.001316607
vt 0.00126105547 0.499802142
vt 0.0428231955 0.499812663
vt 0.0428231359 0.998298168
vt 0.00126105547 0.998284578
vt 0.749377847 0.00104427338
vt 0.707816005 0.00107264519
vt 0.707816124 0.499557495
vt 0.749378085 0.499527216
vt 0.790939927 0.0010163784
vt 0.749378324 0.998012304
vt 0.707816243 0.998042583
vt 0.790940404 0.997984409
vt 0.790940166 0.499500036
vt 0.832502842 0.000988960266
vt 0.83250165 0.997956991
vt 0.832502365 0.499473572
vt 0.167509407 0.00133061409
vt 0.209071398 0.499814123
vt 0.209071338 0.00132906437
vt 0.167509407 0.49981457
vt 0.209071457 0.998299181
vt 0.167509407 0.998299181
vn -0 -1 0
vn -0 -1 0
vn -0 -1 0
vn -0 -1 0
vn -0 -1 0
vn -0 -1 0
vn -1 0 0
vn -1 0 0
vn -1 0 0
vn -1 0 0
vn -1 0 0
vn -1 1.225402E-07 0
vn -1 2.45080486E-07 0
vn -1 0 0
vn -1 0 0
vn -1 0 0
vn -1 0 0
vn -1 0 0
vn 1 0 0
vn 1 0 0
vn 1 0 0
vn 1 0 0
vn 1 0 0
vn 1 0 0
vn 1 0 0
vn 1 0 0
vn 1 0 0
vn 1 0 0
vn 1 0 0
vn 1 0 0
vn -0 1 0
vn -0 1 0
vn -0 1 0
vn -0 1 0
vn -0 1 0
vn -0 1 0
vn -0 1 0
vn -0 1 0
vn -0 1 0
vn -0 1 0
vn -0 1 0
vn -0 1 0
vn -0 1 0
vn -0 1 0
vn -0 1 0
vn -0 1 0
vn -0 1 0
vn -0 1 0
vn -1 0 0
vn -1 0 0
vn -1 0 0
vn -1 0 0
vn -1 0 0
vn -1 0 0
vn -0 -1 0
vn -0 -1 0
vn -0 -1 0
vn -0 -1 0
vn -0 -1 0
vn -0 -1 0
vn 1 0 0
vn 1 0 0
vn 1 0 0
vn 1 0 0
vn 1 0 0
vn 1 0 0
vn -0 -1 0
vn -0 -1 0
vn -0 -1 0
vn -0 -1 0
vn -0 -1 0
vn -0 -1 0
vn 1 0 0
vn 1 0 0
vn 1 0 0
vn 1 0 0
vn 1 0 0
vn 1 0 0
vn 1 1.22540158E-07 0
vn 1 0 0
vn 1 1.22540158E-07 0
vn 1 0 0
vn 1 1.22540158E-07 0
vn 1 1.22540158E-07 0
vn -0 -1 0
vn -0 -1 0
vn -0 -1 0
vn -0 -1 0
vn -0 -1 0
vn -0 -1 0
vn -1 0 0
vn -1 0 0
vn -1 0 0
vn -1 0 0
vn -1 0 0
vn -1 0 0
vn -1 1.22540158E-07 0
vn -1 1.22540158E-07 0
vn -1 0 0
vn -1 0 0
vn -1 1.22540158E-07 0
vn -1 0 0
vn -0 -1 0
vn -0 -1 0
vn -0 -1 0
vn -0 -1 0
vn -0 -1 0
vn -0 -1 0
g polySurface21_0
f 3/3/3 2/2/2 1/1/1
f 4/4/4 3/3/3 1/1/1
f 4/4/4 5/5/5 3/3/3
f 5/5/5 6/6/6 3/3/3
f 9/9/9 8/8/8 7/7/7
f 10/10/10 9/9/9 7/7/7
f 10/10/10 7/7/7 11/11/11
f 10/10/10 12/12/12 9/9/9
f 12/12/12 13/13/13 9/9/9
f 14/14/14 12/12/12 10/10/10
f 15/15/15 10/10/10 11/11/11
f 15/15/15 14/14/14 10/10/10
f 15/15/15 11/11/11 16/16/16
f 17/17/17 14/14/14 15/15/15
f 18/18/18 15/15/15 16/16/16
f 18/18/18 17/17/17 15/15/15
f 21/21/21 20/20/20 19/19/19
f 20/20/20 22/22/22 19/19/19
f 20/20/20 23/23/23 22/22/22
f 23/23/23 24/24/24 22/22/22
f 22/22/22 25/25/25 19/19/19
f 22/22/22 24/24/24 25/25/25
f 25/25/25 26/26/26 19/19/19
f 24/24/24 27/27/27 25/25/25
f 25/25/25 28/28/28 26/26/26
f 25/25/25 27/27/27 28/28/28
f 28/28/28 29/29/29 26/26/26
f 27/27/27 30/30/30 28/28/28
f 33/33/33 32/32/32 31/31/31
f 34/34/34 33/33/33 31/31/31
f 34/34/34 31/31/31 35/35/35
f 34/34/34 36/36/36 33/33/33
f 36/36/36 37/37/37 33/33/33
f 38/38/38 36/36/36 34/34/34
f 39/39/39 34/34/34 35/35/35
f 39/39/39 38/38/38 34/34/34
f 39/39/39 35/35/35 40/40/40
f 41/41/41 38/38/38 39/39/39
f 42/42/42 39/39/39 40/40/40
f 42/42/42 41/41/41 39/39/39
f 42/42/42 40/40/40 43/43/43
f 44/44/44 41/41/41 42/42/42
f 45/45/45 42/42/42 43/43/43
f 45/45/45 44/44/44 42/42/42
f 45/45/45 43/43/43 46/46/46
f 47/47/47 44/44/44 45/45/45
f 48/48/48 45/45/45 46/46/46
f 48/48/48 47/47/47 45/45/45
f 51/51/51 50/50/50 49/49/49
f 52/52/52 51/51/51 49/49/49
f 52/52/52 53/53/53 51/51/51
f 53/53/53 54/54/54 51/51/51
f 57/57/57 56/56/56 55/55/55
f 58/58/58 57/57/57 55/55/55
f 58/58/58 59/59/59 57/57/57
f 59/59/59 60/60/60 57/57/57
f 63/63/63 62/62/62 61/61/61
f 64/64/64 63/63/63 61/61/61
f 64/64/64 65/65/65 63/63/63
f 65/65/65 66/66/66 63/63/63
f 69/69/69 68/68/68 67/67/67
f 70/70/70 69/69/69 67/67/67
f 70/70/70 71/71/71 69/69/69
f 71/71/71 72/72/72 69/69/69
f 75/75/75 74/74/74 73/73/73
f 76/76/76 75/75/75 73/73/73
f 77/77/77 75/75/75 76/76/76
f 78/78/78 77/77/77 76/76/76
f 79/79/79 78/78/78 76/76/76
f 80/80/80 76/76/76 73/73/73
f 80/80/80 79/79/79 76/76/76
f 81/81/81 79/79/79 80/80/80
f 82/82/82 80/80/80 73/73/73
f 83/83/83 81/81/81 80/80/80
f 83/83/83 80/80/80 82/82/82
f 84/84/84 83/83/83 82/82/82
f 87/87/87 86/86/86 85/85/85
f 88/88/88 87/87/87 85/85/85
f 88/88/88 89/89/89 87/87/87
f 89/89/89 90/90/90 87/87/87
f 93/93/93 92/92/92 91/91/91
f 94/94/94 93/93/93 91/91/91
f 94/94/94 91/91/91 95/95/95
f 94/94/94 96/96/96 93/93/93
f 96/96/96 97/97/97 93/93/93
f 98/98/98 96/96/96 94/94/94
f 99/99/99 94/94/94 95/95/95
f 99/99/99 98/98/98 94/94/94
f 99/99/99 95/95/95 100/100/100
f 101/101/101 98/98/98 99/99/99
f 102/102/102 99/99/99 100/100/100
f 102/102/102 101/101/101 99/99/99
f 105/105/105 104/104/104 103/103/103
f 104/104/104 106/106/106 103/103/103
f 104/104/104 107/107/107 106/106/106
f 107/107/107 108/108/108 106/106/106
