g S_latelan_arsenal
v -0.0610513277 0.564730644 -0.0686288401
v -0.116946101 0.702899933 0
v -0.0610513277 0.564730644 0.0686288401
v -0.0870510861 0.718839526 0.083669737
v -0.0864016712 0.741922915 0.0500607304
v 0.0018811035 0.747181058 0.100121766
v -0.0870510861 0.718839526 -0.083669737
v 0.0018811035 0.747181058 -0.100121461
v -0.0864016712 0.741922915 -0.0500607304
v -0.116946101 0.702899933 0
v -0.0870510861 0.718839526 0.083669737
v -0.0610513277 0.564730644 0.0686288401
v -0.0870510861 0.718839526 0.083669737
v -0.116946101 0.702899933 0
v -0.0864016712 0.741922915 0.0500607304
v -0.0610513277 0.564730644 -0.0686288401
v -0.0870510861 0.718839526 -0.083669737
v -0.116946101 0.702899933 0
v -0.116946101 0.702899933 0
v -0.0870510861 0.718839526 -0.083669737
v -0.0864016712 0.741922915 -0.0500607304
v -0.116946101 0.702899933 0
v -0.0864016712 0.756973863 0
v -0.0864016712 0.741922915 0.0500607304
v -0.116946101 0.702899933 0
v -0.0864016712 0.741922915 -0.0500607304
v -0.0864016712 0.756973863 0
v 0.0158340447 0.564730644 0.0602563471
v 0.0018811035 0.747181058 0.100121766
v 0.102345884 0.731540501 0
v 0.0717852786 0.564730644 0
v 0.102345884 0.731540501 0
v 0.0018811035 0.747181058 -0.100121461
v 0.0158340447 0.564730644 -0.0602563471
v 0.0717852786 0.564730644 0
v -0.0610513277 0.564730644 0.0686288401
v -0.0870510861 0.718839526 0.083669737
v 0.0018811035 0.747181058 0.100121766
v 0.0158340447 0.564730644 0.0602563471
v -0.0864016712 0.756973863 0
v -0.0864016712 0.741922915 -0.0500607304
v 0.0018811035 0.747181058 -0.100121461
v 0.0018811035 0.762231708 0
v 0.102345884 0.731540501 0
v 0.0018811035 0.747181058 0.100121766
v -0.0864016712 0.741922915 0.0500607304
v -0.0870510861 0.718839526 -0.083669737
v -0.0610513277 0.564730644 -0.0686288401
v 0.0158340447 0.564730644 -0.0602563471
v 0.0018811035 0.747181058 -0.100121461
vt 0.675798714 0.301995069
vt 0.421545148 0.780284047
vt 0.244041651 0.260591596
vt 0.154803783 0.792502522
vt 0.267694741 0.881144881
vt 0.121252626 0.812818348
vt 0.714168429 0.825056314
vt 0.869451284 0.855202138
vt 0.607002616 0.898934007
vt 0.421545148 0.780284047
vt 0.154803783 0.792502522
vt 0.244041651 0.260591596
vt 0.154803783 0.792502522
vt 0.421545148 0.780284047
vt 0.267694741 0.881144881
vt 0.675798714 0.301995069
vt 0.714168429 0.825056314
vt 0.421545148 0.780284047
vt 0.421545148 0.780284047
vt 0.714168429 0.825056314
vt 0.607002616 0.898934007
vt 0.421545148 0.780284047
vt 0.438671023 0.944536567
vt 0.267694741 0.881144881
vt 0.421545148 0.780284047
vt 0.607002616 0.898934007
vt 0.438671023 0.944536567
vt 0.310325027 0.14958328
vt 0.121252626 0.812818348
vt 0.598768711 0.660803556
vt 0.563150346 0.0786878169
vt 0.598768711 0.660803556
vt 0.869451284 0.855202138
vt 0.718929648 0.192148209
vt 0.563150346 0.0786878169
vt 0.244041651 0.260591596
vt 0.154803783 0.792502522
vt 0.121252626 0.812818348
vt 0.310325027 0.14958328
vt 0.438671023 0.944536567
vt 0.607002616 0.898934007
vt 0.869451284 0.855202138
vt 0.505189478 0.894305825
vt 0.598768711 0.660803556
vt 0.121252626 0.812818348
vt 0.267694741 0.881144881
vt 0.714168429 0.825056314
vt 0.675798714 0.301995069
vt 0.718929648 0.192148209
vt 0.869451284 0.855202138
vn -0.927018821 -0.375014812 0
vn -0.927018821 -0.375014812 0
vn -0.927018821 -0.375014812 0
vn -0.345015615 0.776786387 0.526846349
vn -0.345015615 0.776786387 0.526846349
vn -0.345015615 0.776786387 0.526846349
vn -0.345014006 0.776786804 -0.526846707
vn -0.345014006 0.776786804 -0.526846707
vn -0.345014006 0.776786804 -0.526846707
vn -0.91268307 -0.189326242 0.362167388
vn -0.91268307 -0.189326242 0.362167388
vn -0.91268307 -0.189326242 0.362167388
vn -0.890802622 0.38240543 0.245431706
vn -0.890802622 0.38240543 0.245431706
vn -0.890802622 0.38240543 0.245431706
vn -0.91268307 -0.189326182 -0.362167388
vn -0.91268307 -0.189326182 -0.362167388
vn -0.91268307 -0.189326182 -0.362167388
vn -0.890802681 0.38240549 -0.245431423
vn -0.890802681 0.38240549 -0.245431423
vn -0.890802681 0.38240549 -0.245431423
vn -0.8613289 0.486533761 0.146278307
vn -0.8613289 0.486533761 0.146278307
vn -0.8613289 0.486533761 0.146278307
vn -0.8613289 0.486533761 -0.146278307
vn -0.8613289 0.486533761 -0.146278307
vn -0.8613289 0.486533761 -0.146278307
vn 0.708024621 -0.115542293 0.696671367
vn 0.694111764 -0.10260281 0.712517798
vn 0.699797273 -0.107850268 0.706153035
vn 0.726284087 -0.13305977 0.674393415
vn 0.699796438 -0.10784962 -0.706153929
vn 0.694110632 -0.102601923 -0.71251893
vn 0.708024204 -0.115541928 -0.696671903
vn 0.726284087 -0.13305977 -0.674393415
vn -0.0201486461 -0.163308159 0.986369252
vn -0.0201486461 -0.163308159 0.986369252
vn -0.0201486461 -0.163308159 0.986369252
vn -0.0201486461 -0.163308159 0.986369252
vn -0.11560671 0.993295014 -1.91365572E-07
vn -0.113381378 0.97417599 -0.195258304
vn 0.0387267321 0.983112276 -0.178859234
vn 0.0631687194 0.998002827 2.27067108E-06
vn 0.292163223 0.956368446 0
vn 0.0387266763 0.983112276 0.178858802
vn -0.113381609 0.97417599 0.195257902
vn -0.0201469045 -0.163307115 -0.986369491
vn -0.0201469045 -0.163307115 -0.986369491
vn -0.0201469045 -0.163307115 -0.986369491
vn -0.0201469045 -0.163307115 -0.986369491
g S_latelan_arsenal_0
f 3/3/3 2/2/2 1/1/1
f 6/6/6 5/5/5 4/4/4
f 9/9/9 8/8/8 7/7/7
f 12/12/12 11/11/11 10/10/10
f 15/15/15 14/14/14 13/13/13
f 18/18/18 17/17/17 16/16/16
f 21/21/21 20/20/20 19/19/19
f 24/24/24 23/23/23 22/22/22
f 27/27/27 26/26/26 25/25/25
f 30/30/30 29/29/29 28/28/28
f 31/31/31 30/30/30 28/28/28
f 34/34/34 33/33/33 32/32/32
f 35/35/35 34/34/34 32/32/32
f 38/38/38 37/37/37 36/36/36
f 39/39/39 38/38/38 36/36/36
f 42/42/42 41/41/41 40/40/40
f 43/43/43 42/42/42 40/40/40
f 42/42/42 43/43/43 44/44/44
f 43/43/43 45/45/45 44/44/44
f 43/43/43 40/40/40 45/45/45
f 40/40/40 46/46/46 45/45/45
f 49/49/49 48/48/48 47/47/47
f 50/50/50 49/49/49 47/47/47
