g FX_m_range_21x
v 0.127000004 -0.63499999 0
v 0.380999982 -0.380999982 0
v 0.380999982 -0.63499999 0
v 0.127000004 -0.380999982 0
v -0.127000004 -0.63499999 0
v -0.127000004 -0.380999982 0
v -0.380999982 -0.63499999 0
v -0.380999982 -0.380999982 0
v 0.380999982 -0.127000004 0
v 0.127000004 -0.127000004 0
v -0.127000004 -0.127000004 0
v 0.63499999 -0.127000004 0
v 0.63499999 -0.380999982 0
v 0.63499999 0.127000004 0
v 0.380999982 0.127000004 0
v 0.63499999 0.380999982 0
v 0.380999982 0.380999982 0
v 0.127000004 0.127000004 0
v -0.380999982 -0.127000004 0
v -0.63499999 -0.380999982 0
v -0.63499999 -0.127000004 0
v 0.127000004 0.380999982 0
v 0.380999982 0.63499999 0
v 0.127000004 0.63499999 0
v -0.127000004 0.127000004 0
v -0.380999982 0.127000004 0
v -0.63499999 0.127000004 0
v -0.127000004 0.380999982 0
v -0.127000004 0.63499999 0
v -0.380999982 0.380999982 0
v -0.63499999 0.380999982 0
v -0.380999982 0.63499999 0
vt 0.600000024 0
vt 0.800000012 0.200000003
vt 0.800000012 0
vt 0.600000024 0.200000003
vt 0.400000006 0
vt 0.400000006 0.200000003
vt 0.200000003 0
vt 0.200000003 0.200000003
vt 0.800000012 0.400000006
vt 0.600000024 0.400000006
vt 0.400000006 0.400000006
vt 1 0.400000006
vt 1 0.200000003
vt 1 0.600000024
vt 0.800000012 0.600000024
vt 1 0.800000012
vt 0.800000012 0.800000012
vt 0.600000024 0.600000024
vt 0.200000003 0.400000006
vt 0 0.200000003
vt 0 0.400000006
vt 0.600000024 0.800000012
vt 0.800000012 1
vt 0.600000024 1
vt 0.400000006 0.600000024
vt 0.200000003 0.600000024
vt 0 0.600000024
vt 0.400000006 0.800000012
vt 0.400000006 1
vt 0.200000003 0.800000012
vt 0 0.800000012
vt 0.200000003 1
vn -0 0 1
vn -0 0 1
vn -0 0 1
vn -0 0 1
vn -0 0 1
vn -0 0 1
vn -0 0 1
vn -0 0 1
vn -0 0 1
vn -0 0 1
vn -0 0 1
vn -0 0 1
vn -0 0 1
vn -0 0 1
vn -0 0 1
vn -0 0 1
vn -0 0 1
vn -0 0 1
vn -0 0 1
vn -0 0 1
vn -0 0 1
vn -0 0 1
vn -0 0 1
vn -0 0 1
vn -0 0 1
vn -0 0 1
vn -0 0 1
vn -0 0 1
vn -0 0 1
vn -0 0 1
vn -0 0 1
vn -0 0 1
g FX_m_range_21x_0
f 3/3/3 2/2/2 1/1/1
f 2/2/2 4/4/4 1/1/1
f 1/1/1 4/4/4 5/5/5
f 4/4/4 6/6/6 5/5/5
f 5/5/5 6/6/6 7/7/7
f 6/6/6 8/8/8 7/7/7
f 2/2/2 9/9/9 4/4/4
f 4/4/4 10/10/10 6/6/6
f 9/9/9 10/10/10 4/4/4
f 6/6/6 11/11/11 8/8/8
f 10/10/10 11/11/11 6/6/6
f 12/12/12 9/9/9 2/2/2
f 13/13/13 12/12/12 2/2/2
f 12/12/12 14/14/14 9/9/9
f 14/14/14 15/15/15 9/9/9
f 9/9/9 15/15/15 10/10/10
f 14/14/14 16/16/16 15/15/15
f 16/16/16 17/17/17 15/15/15
f 15/15/15 18/18/18 10/10/10
f 15/15/15 17/17/17 18/18/18
f 10/10/10 18/18/18 11/11/11
f 11/11/11 19/19/19 8/8/8
f 8/8/8 19/19/19 20/20/20
f 19/19/19 21/21/21 20/20/20
f 17/17/17 22/22/22 18/18/18
f 17/17/17 23/23/23 22/22/22
f 23/23/23 24/24/24 22/22/22
f 18/18/18 25/25/25 11/11/11
f 11/11/11 25/25/25 19/19/19
f 18/18/18 22/22/22 25/25/25
f 19/19/19 26/26/26 21/21/21
f 25/25/25 26/26/26 19/19/19
f 26/26/26 27/27/27 21/21/21
f 22/22/22 24/24/24 28/28/28
f 22/22/22 28/28/28 25/25/25
f 25/25/25 28/28/28 26/26/26
f 24/24/24 29/29/29 28/28/28
f 26/26/26 30/30/30 27/27/27
f 28/28/28 30/30/30 26/26/26
f 28/28/28 29/29/29 30/30/30
f 30/30/30 31/31/31 27/27/27
f 29/29/29 32/32/32 30/30/30
