g FX_m_circle_07
v 2.22402024 17.2312508 0
v 1.93828166 15.0424128 0
v 0.0016276883 15.1667528 0
v -5.66700101E-06 17.3740368 0
v 5.66700101E-06 17.3740368 0
v 0.00177870539 15.166748 0
v -1.9342339 15.0423794 0
v -2.22402024 17.2312508 0
v -3.83919168 14.6713877 0
v -4.41153145 16.805233 0
v -5.68106508 14.059844 0
v -6.52659845 16.1029835 0
v -7.42960739 13.2177916 0
v -8.53450584 15.1360283 0
v -9.05612278 12.1590452 0
v -10.4022732 13.920249 0
v -10.5338945 10.9010019 0
v -12.0992355 12.4756021 0
v -11.8386593 9.46431065 0
v -13.5975294 10.8258181 0
v -12.9489889 7.87256861 0
v -14.8725548 8.9979744 0
v -13.8466558 6.15191126 0
v -15.9033709 7.02209616 0
v -14.5169191 4.33058596 0
v -16.6730556 4.93062258 0
v -14.9487734 2.43850565 0
v -17.1689682 2.75789332 0
v -15.1351299 0.506731212 0
v -17.382967 0.539587021 0
v -15.0729275 -1.43301165 0
v -17.3115387 -1.68787491 0
v -14.7631826 -3.34887671 0
v -16.9558563 -3.88791466 0
v -14.21099 -5.20940495 0
v -16.3217564 -6.02440882 0
v -13.4254093 -6.9840436 0
v -15.4196558 -8.06227589 0
v -12.419342 -8.64365673 0
v -14.2643633 -9.96805191 0
v -11.2093096 -10.1609898 0
v -12.8748484 -11.7104492 0
v -9.81517887 -11.5111284 0
v -11.2739315 -13.2608538 0
v -8.25984192 -12.6719084 0
v -9.48789692 -14.5938072 0
v -6.56883526 -13.6242619 0
v -7.54607105 -15.6874256 0
v -4.76992941 -14.3525572 0
v -5.48033905 -16.5237484 0
v -2.89265943 -14.8448362 0
v -3.32461929 -17.0890446 0
v -0.967850924 -15.0930138 0
v -1.11430955 -17.374033 0
v 0.972890854 -15.0930099 0
v 1.11429691 -17.3740368 0
v 2.89769912 -14.8448353 0
v 3.32460618 -17.0890484 0
v 4.77496958 -14.3525553 0
v 5.48032665 -16.5237522 0
v 6.57387495 -13.624259 0
v 7.54605961 -15.6874304 0
v 8.26487923 -12.6719007 0
v 9.48788738 -14.5938148 0
v 9.82021523 -11.5111217 0
v 11.2739239 -13.2608624 0
v 11.214344 -10.1609812 0
v 12.8748417 -11.7104597 0
v 12.4243784 -8.64364529 0
v 14.2643547 -9.96806526 0
v 13.4304438 -6.98403358 0
v 15.4196482 -8.06228638 0
v 14.2160206 -5.2093935 0
v 16.3217525 -6.02442026 0
v 14.7682152 -3.34886622 0
v 16.9558525 -3.88792706 0
v 15.0779543 -1.43300128 0
v 17.3115368 -1.68788731 0
v 15.1401587 0.506744087 0
v 17.382967 0.539572239 0
v 14.9538002 2.43851614 0
v 17.1689682 2.75788093 0
v 14.5219431 4.3305974 0
v 16.6730595 4.93060923 0
v 13.8516788 6.15192175 0
v 15.9033775 7.02208471 0
v 12.9540091 7.87257957 0
v 14.8725624 8.99796581 0
v 11.8436775 9.46432114 0
v 13.5975409 10.8258047 0
v 10.5389147 10.9010086 0
v 12.0992441 12.4755964 0
v 9.06114769 12.159049 0
v 10.4022789 13.9202404 0
v 7.43463516 13.2177916 0
v 8.53450966 15.1360264 0
v 5.68608522 14.0598478 0
v 6.5266099 16.1029797 0
v 3.84421682 14.6713877 0
v 4.41153574 16.805233 0
v 1.93862069 15.0424013 0
v 2.22402024 17.2312508 0
vt 0.979591787 0
vt 0.979591846 1
vt 1 1
vt 1 0
vt 0 0
vt 0 1
vt 0.0204081647 1
vt 0.0204081628 0
vt 0.0408163294 1
vt 0.0408163294 0
vt 0.0612244979 1
vt 0.0612244904 0
vt 0.0816326663 1
vt 0.0816326514 0
vt 0.102040827 1
vt 0.102040812 0
vt 0.122448996 1
vt 0.122448981 0
vt 0.142857164 1
vt 0.142857134 0
vt 0.163265318 1
vt 0.163265288 0
vt 0.183673501 1
vt 0.183673471 0
vt 0.204081669 1
vt 0.20408164 0
vt 0.224489838 1
vt 0.224489808 0
vt 0.244897991 1
vt 0.244897962 0
vt 0.265306175 1
vt 0.265306115 0
vt 0.285714328 1
vt 0.285714328 0
vt 0.306122482 1
vt 0.306122482 0
vt 0.326530635 1
vt 0.326530635 0
vt 0.346938789 1
vt 0.346938789 0
vt 0.367347002 1
vt 0.367346942 0
vt 0.387755156 1
vt 0.387755156 0
vt 0.408163339 1
vt 0.408163309 0
vt 0.428571463 1
vt 0.428571463 0
vt 0.448979676 1
vt 0.448979616 0
vt 0.469387829 1
vt 0.469387829 0
vt 0.489795983 1
vt 0.489795983 0
vt 0.510204196 1
vt 0.510204077 0
vt 0.53061235 1
vt 0.53061223 0
vt 0.551020503 1
vt 0.551020384 0
vt 0.571428657 1
vt 0.571428537 0
vt 0.59183681 1
vt 0.591836691 0
vt 0.612244964 1
vt 0.612244844 0
vt 0.632653117 1
vt 0.632652998 0
vt 0.653061271 1
vt 0.653061152 0
vt 0.673469424 1
vt 0.673469305 0
vt 0.693877578 1
vt 0.693877459 0
vt 0.714285731 1
vt 0.714285612 0
vt 0.734693885 1
vt 0.734693766 0
vt 0.755102098 1
vt 0.755101979 0
vt 0.775510252 1
vt 0.775510132 0
vt 0.795918405 1
vt 0.795918226 0
vt 0.816326559 1
vt 0.81632638 0
vt 0.836734653 1
vt 0.836734533 0
vt 0.857142925 1
vt 0.857142687 0
vt 0.877551079 1
vt 0.87755084 0
vt 0.897959232 1
vt 0.897959113 0
vt 0.918367386 1
vt 0.918367267 0
vt 0.938775539 1
vt 0.93877542 0
vt 0.959183693 1
vt 0.959183574 0
vt 0.979591846 1
vt 0.979591787 0
vn -0 0 1
vn -0 0 1
vn -0 0 1
vn -0 0 1
vn -0 0 1
vn -0 0 1
vn -0 0 1
vn -0 0 1
vn -0 0 1
vn -0 0 1
vn -0 0 1
vn -0 0 1
vn -0 0 1
vn -0 0 1
vn -0 0 1
vn -0 0 1
vn -0 0 1
vn -0 0 1
vn -0 0 1
vn -0 0 1
vn -0 0 1
vn -0 0 1
vn -0 0 1
vn -0 0 1
vn -0 0 1
vn -0 0 1
vn -0 0 1
vn -0 0 1
vn -0 0 1
vn -0 0 1
vn -0 0 1
vn -0 0 1
vn -0 0 1
vn -0 0 1
vn -0 0 1
vn -0 0 1
vn -0 0 1
vn -0 0 1
vn -0 0 1
vn -0 0 1
vn -0 0 1
vn -0 0 1
vn -0 0 1
vn -0 0 1
vn -0 0 1
vn -0 0 1
vn -0 0 1
vn -0 0 1
vn -0 0 1
vn -0 0 1
vn -0 0 1
vn -0 0 1
vn -0 0 1
vn -0 0 1
vn -0 0 1
vn -0 0 1
vn -0 0 1
vn -0 0 1
vn -0 0 1
vn -0 0 1
vn -0 0 1
vn -0 0 1
vn -0 0 1
vn -0 0 1
vn -0 0 1
vn -0 0 1
vn -0 0 1
vn -0 0 1
vn -0 0 1
vn -0 0 1
vn -0 0 1
vn -0 0 1
vn -0 0 1
vn -0 0 1
vn -0 0 1
vn -0 0 1
vn -0 0 1
vn -0 0 1
vn -0 0 1
vn -0 0 1
vn -0 0 1
vn -0 0 1
vn -0 0 1
vn -0 0 1
vn -0 0 1
vn -0 0 1
vn -0 0 1
vn -0 0 1
vn -0 0 1
vn -0 0 1
vn -0 0 1
vn -0 0 1
vn -0 0 1
vn -0 0 1
vn -0 0 1
vn -0 0 1
vn -0 0 1
vn -0 0 1
vn -0 0 1
vn -0 0 1
vn -0 0 1
vn -0 0 1
g FX_m_circle_07_0
f 3/3/3 2/2/2 1/1/1
f 4/4/4 3/3/3 1/1/1
f 7/7/7 6/6/6 5/5/5
f 8/8/8 7/7/7 5/5/5
f 9/9/9 7/7/7 8/8/8
f 10/10/10 9/9/9 8/8/8
f 11/11/11 9/9/9 10/10/10
f 12/12/12 11/11/11 10/10/10
f 13/13/13 11/11/11 12/12/12
f 14/14/14 13/13/13 12/12/12
f 15/15/15 13/13/13 14/14/14
f 16/16/16 15/15/15 14/14/14
f 17/17/17 15/15/15 16/16/16
f 18/18/18 17/17/17 16/16/16
f 19/19/19 17/17/17 18/18/18
f 20/20/20 19/19/19 18/18/18
f 21/21/21 19/19/19 20/20/20
f 22/22/22 21/21/21 20/20/20
f 23/23/23 21/21/21 22/22/22
f 24/24/24 23/23/23 22/22/22
f 25/25/25 23/23/23 24/24/24
f 26/26/26 25/25/25 24/24/24
f 27/27/27 25/25/25 26/26/26
f 28/28/28 27/27/27 26/26/26
f 29/29/29 27/27/27 28/28/28
f 30/30/30 29/29/29 28/28/28
f 31/31/31 29/29/29 30/30/30
f 32/32/32 31/31/31 30/30/30
f 33/33/33 31/31/31 32/32/32
f 34/34/34 33/33/33 32/32/32
f 35/35/35 33/33/33 34/34/34
f 36/36/36 35/35/35 34/34/34
f 37/37/37 35/35/35 36/36/36
f 38/38/38 37/37/37 36/36/36
f 39/39/39 37/37/37 38/38/38
f 40/40/40 39/39/39 38/38/38
f 41/41/41 39/39/39 40/40/40
f 42/42/42 41/41/41 40/40/40
f 43/43/43 41/41/41 42/42/42
f 44/44/44 43/43/43 42/42/42
f 45/45/45 43/43/43 44/44/44
f 46/46/46 45/45/45 44/44/44
f 47/47/47 45/45/45 46/46/46
f 48/48/48 47/47/47 46/46/46
f 49/49/49 47/47/47 48/48/48
f 50/50/50 49/49/49 48/48/48
f 51/51/51 49/49/49 50/50/50
f 52/52/52 51/51/51 50/50/50
f 53/53/53 51/51/51 52/52/52
f 54/54/54 53/53/53 52/52/52
f 55/55/55 53/53/53 54/54/54
f 56/56/56 55/55/55 54/54/54
f 57/57/57 55/55/55 56/56/56
f 58/58/58 57/57/57 56/56/56
f 59/59/59 57/57/57 58/58/58
f 60/60/60 59/59/59 58/58/58
f 61/61/61 59/59/59 60/60/60
f 62/62/62 61/61/61 60/60/60
f 63/63/63 61/61/61 62/62/62
f 64/64/64 63/63/63 62/62/62
f 65/65/65 63/63/63 64/64/64
f 66/66/66 65/65/65 64/64/64
f 67/67/67 65/65/65 66/66/66
f 68/68/68 67/67/67 66/66/66
f 69/69/69 67/67/67 68/68/68
f 70/70/70 69/69/69 68/68/68
f 71/71/71 69/69/69 70/70/70
f 72/72/72 71/71/71 70/70/70
f 73/73/73 71/71/71 72/72/72
f 74/74/74 73/73/73 72/72/72
f 75/75/75 73/73/73 74/74/74
f 76/76/76 75/75/75 74/74/74
f 77/77/77 75/75/75 76/76/76
f 78/78/78 77/77/77 76/76/76
f 79/79/79 77/77/77 78/78/78
f 80/80/80 79/79/79 78/78/78
f 81/81/81 79/79/79 80/80/80
f 82/82/82 81/81/81 80/80/80
f 83/83/83 81/81/81 82/82/82
f 84/84/84 83/83/83 82/82/82
f 85/85/85 83/83/83 84/84/84
f 86/86/86 85/85/85 84/84/84
f 87/87/87 85/85/85 86/86/86
f 88/88/88 87/87/87 86/86/86
f 89/89/89 87/87/87 88/88/88
f 90/90/90 89/89/89 88/88/88
f 91/91/91 89/89/89 90/90/90
f 92/92/92 91/91/91 90/90/90
f 93/93/93 91/91/91 92/92/92
f 94/94/94 93/93/93 92/92/92
f 95/95/95 93/93/93 94/94/94
f 96/96/96 95/95/95 94/94/94
f 97/97/97 95/95/95 96/96/96
f 98/98/98 97/97/97 96/96/96
f 99/99/99 97/97/97 98/98/98
f 100/100/100 99/99/99 98/98/98
f 101/101/101 99/99/99 100/100/100
f 102/102/102 101/101/101 100/100/100
