g general_plane_46
v 0.248943269 -0.42948103 1.37686627E-08
v 0.283327222 -0.581119418 -1.37686627E-08
v 0.233307958 -0.585637987 -1.34701077E-08
v 0.217564583 -0.434814602 1.34701077E-08
v -0.385218441 0.235184669 1.79835595E-08
v -0.593099177 0.512087226 -1.79835595E-08
v -0.556258023 0.534261823 -2.69753393E-08
v -0.349280417 0.258562177 2.69753393E-08
v -0.515016079 0.559709072 -1.79835595E-08
v -0.319905281 0.277313918 2.69753393E-08
v -0.472069681 0.585904121 -2.69753393E-08
v -0.292983592 0.294848889 2.69753393E-08
v -0.292983592 0.294848889 2.69753393E-08
v -0.472069681 0.585904121 -2.69753393E-08
v -0.427789569 0.609967947 -2.69753393E-08
v -0.265556455 0.3109034 2.69753393E-08
v -0.382330954 0.632067919 -2.69753393E-08
v -0.23770158 0.325766891 1.79835595E-08
v -0.335952222 0.652362585 -3.59671191E-08
v -0.209532753 0.339729518 2.69753393E-08
v -0.209532753 0.339729518 2.69753393E-08
v -0.335952222 0.652362585 -3.59671191E-08
v -0.287841976 0.669416904 -3.59671191E-08
v -0.180530623 0.35130772 3.59671191E-08
v -0.239382729 0.685215592 -3.59671191E-08
v -0.151462063 0.362769574 2.69753393E-08
v -0.151462063 0.362769574 2.69753393E-08
v -0.239382729 0.685215592 -3.59671191E-08
v -0.188971058 0.695257425 -2.69753393E-08
v -0.121178105 0.369523555 3.59671191E-08
v -0.138523236 0.704674482 -4.49588988E-08
v -0.0909304768 0.376902193 3.59671191E-08
v -0.0909304768 0.376902193 3.59671191E-08
v -0.138523236 0.704674482 -4.49588988E-08
v -0.0874948651 0.708005071 -1.79835595E-08
v -0.0599531829 0.379451901 2.69753393E-08
v -0.0364468843 0.710165381 -3.59671191E-08
v -0.0288609862 0.382051617 8.99177977E-09
v -0.0288609862 0.382051617 8.99177977E-09
v -0.0364468843 0.710165381 -3.59671191E-08
v 0.0142970532 0.708203793 -2.69753393E-08
v 0.00243510306 0.381721944 8.99177977E-09
v 0.0648332983 0.704150915 -2.69753393E-08
v 0.0338955671 0.380432576 4.49588988E-08
v 0.0338955671 0.380432576 4.49588988E-08
v 0.0648332983 0.704150915 -2.69753393E-08
v 0.114767879 0.697132587 -4.49588988E-08
v 0.0653558671 0.377237111 2.69753393E-08
v 0.0653558671 0.377237111 2.69753393E-08
v 0.114767879 0.697132587 -4.49588988E-08
v 0.164055765 0.687080145 -2.69753393E-08
v 0.0968341529 0.371985763 2.69753393E-08
v 0.212737545 0.675220251 -3.59671191E-08
v 0.128268152 0.365864128 1.79835595E-08
v 0.128268152 0.365864128 1.79835595E-08
v 0.212737545 0.675220251 -3.59671191E-08
v 0.260145843 0.659524441 -2.69753393E-08
v 0.159304157 0.356696337 4.49588988E-08
v 0.307189643 0.643082023 -1.79835595E-08
v 0.190465972 0.34763065 2.69753393E-08
v 0.190465972 0.34763065 2.69753393E-08
v 0.307189643 0.643082023 -1.79835595E-08
v 0.352232128 0.622108817 -1.79835595E-08
v 0.220508739 0.334686488 2.69753393E-08
v 0.397013068 0.600758195 -2.24794494E-08
v 0.250812858 0.322119862 2.24794494E-08
v 0.250812858 0.322119862 2.24794494E-08
v 0.397013068 0.600758195 -2.24794494E-08
v 0.439423323 0.575029612 -2.24794494E-08
v 0.279268861 0.305920035 2.69753393E-08
v 0.480711281 0.547585011 -2.24794494E-08
v 0.308172792 0.290156275 2.69753393E-08
v 0.480711281 0.547585011 -2.24794494E-08
v 0.518568397 0.515201211 -2.69753393E-08
v 0.336680532 0.273952097 8.99177977E-09
v 0.336680532 0.273952097 8.99177977E-09
v 0.518568397 0.515201211 -2.69753393E-08
v 0.554947138 0.481238931 -2.24794494E-08
v 0.36463517 0.256471157 2.24794494E-08
v 0.36463517 0.256471157 2.24794494E-08
v 0.554947138 0.481238931 -2.24794494E-08
v 0.589477599 0.445255131 -2.24794494E-08
v 0.391300559 0.237598151 2.69753393E-08
v 0.391300559 0.237598151 2.69753393E-08
v 0.589477599 0.445255131 -2.24794494E-08
v 0.621774375 0.406753093 -1.34876696E-08
v 0.416276574 0.216973722 3.59671191E-08
v 0.652564645 0.367040843 -1.34876696E-08
v 0.440574229 0.19574675 1.79835595E-08
v 0.440574229 0.19574675 1.79835595E-08
v 0.652564645 0.367040843 -1.34876696E-08
v 0.679829299 0.323381633 -2.24794494E-08
v 0.461300671 0.172578543 1.79835595E-08
v 0.706090808 0.27961114 -1.79835595E-08
v 0.482691288 0.149321616 1.79835595E-08
v 0.482691288 0.149321616 1.79835595E-08
v 0.706090808 0.27961114 -1.79835595E-08
v 0.726612031 0.230474651 -1.79835595E-08
v 0.497324288 0.124098152 2.69753393E-08
v 0.746114314 0.181445152 -2.24794494E-08
v 0.512976348 0.098767519 2.69753393E-08
v 0.512976348 0.098767519 2.69753393E-08
v 0.746114314 0.181445152 -2.24794494E-08
v 0.757089317 0.129241943 -8.99177977E-09
v 0.522009432 0.0715872347 2.02315036E-08
v 0.757089317 0.129241943 -8.99177977E-09
v 0.765130401 0.0765358806 -2.02315036E-08
v 0.530595541 0.0437881649 1.79835595E-08
v 0.530595541 0.0437881649 1.79835595E-08
v 0.765130401 0.0765358806 -2.02315036E-08
v 0.766439557 0.0243127048 -2.02315036E-08
v 0.534994841 0.014482215 2.02315036E-08
v 0.534994841 0.014482215 2.02315036E-08
v 0.766439557 0.0243127048 -2.02315036E-08
v 0.763204694 -0.0273923427 -1.79835595E-08
v 0.536915421 -0.0160011798 2.02315036E-08
v 0.536915421 -0.0160011798 2.02315036E-08
v 0.763204694 -0.0273923427 -1.79835595E-08
v 0.756056011 -0.0778018981 -1.79835595E-08
v 0.536617041 -0.0470992476 1.34876696E-08
v 0.536617041 -0.0470992476 1.34876696E-08
v 0.756056011 -0.0778018981 -1.79835595E-08
v 0.74368304 -0.126509935 -1.79835595E-08
v 0.5323295 -0.0788763165 2.24794494E-08
v 0.729496956 -0.174144804 -1.79835595E-08
v 0.527324021 -0.110982254 1.68595875E-08
v 0.527324021 -0.110982254 1.68595875E-08
v 0.729496956 -0.174144804 -1.79835595E-08
v 0.709674537 -0.219012246 -2.13554774E-08
v 0.517211556 -0.142697111 2.24794494E-08
v 0.689480484 -0.263352603 -1.34876696E-08
v 0.507470608 -0.174939036 1.46116417E-08
v 0.507470608 -0.174939036 1.46116417E-08
v 0.689480484 -0.263352603 -1.34876696E-08
v 0.663527191 -0.304082006 -1.91075316E-08
v 0.492192686 -0.205384701 1.34876696E-08
v 0.637241364 -0.34424895 -1.57356155E-08
v 0.477037013 -0.236292303 2.36034214E-08
v 0.477037013 -0.236292303 2.36034214E-08
v 0.637241364 -0.34424895 -1.57356155E-08
v 0.606834829 -0.381217897 -1.18017107E-08
v 0.458127677 -0.265034735 1.01157518E-08
v 0.57512635 -0.416886151 -2.47273952E-08
v 0.4382056 -0.293500423 2.41654075E-08
v 0.4382056 -0.293500423 2.41654075E-08
v 0.57512635 -0.416886151 -2.47273952E-08
v 0.540160179 -0.449421227 -6.74383482E-09
v 0.415669024 -0.31943357 1.01157518E-08
v 0.415669024 -0.31943357 1.01157518E-08
v 0.540160179 -0.449421227 -6.74383482E-09
v 0.502664506 -0.479364455 -8.42979375E-09
v 0.39111954 -0.343576014 1.68595875E-08
v 0.39111954 -0.343576014 1.68595875E-08
v 0.502664506 -0.479364455 -8.42979375E-09
v 0.463354826 -0.506868839 -8.14880075E-09
v 0.365424275 -0.366026163 6.46284182E-09
v 0.365424275 -0.366026163 6.46284182E-09
v 0.463354826 -0.506868839 -8.14880075E-09
v 0.420805037 -0.530311465 -5.33886935E-09
v 0.337587774 -0.385030448 5.90085536E-09
v 0.377578408 -0.552042484 -1.29256836E-08
v 0.309410512 -0.403563946 1.72810761E-08
v 0.309410512 -0.403563946 1.72810761E-08
v 0.377578408 -0.552042484 -1.29256836E-08
v 0.330391169 -0.56703639 -1.44008974E-08
v 0.279238105 -0.416067302 1.44008974E-08
v 0.283327222 -0.581119418 -1.37686627E-08
v 0.248943269 -0.42948103 1.37686627E-08
vt 0.98113203 0
vt 0.98113209 1
vt 1 1
vt 1 0
vt 0 0
vt 0 1
vt 0.0188679229 1
vt 0.0188679248 0
vt 0.0377358459 1
vt 0.0377358496 0
vt 0.0566037744 1
vt 0.0566037744 0
vt 0.0566037744 0
vt 0.0566037744 1
vt 0.0754716992 1
vt 0.0754716992 0
vt 0.094339624 1
vt 0.094339624 0
vt 0.113207549 1
vt 0.113207556 0
vt 0.113207556 0
vt 0.113207549 1
vt 0.132075474 1
vt 0.132075489 0
vt 0.150943398 1
vt 0.150943413 0
vt 0.150943413 0
vt 0.150943398 1
vt 0.169811323 1
vt 0.169811338 0
vt 0.188679248 1
vt 0.188679278 0
vt 0.188679278 0
vt 0.188679248 1
vt 0.207547188 1
vt 0.207547203 0
vt 0.226415113 1
vt 0.226415113 0
vt 0.226415113 0
vt 0.226415113 1
vt 0.245283037 1
vt 0.245283037 0
vt 0.264150977 1
vt 0.264150977 0
vt 0.264150977 0
vt 0.264150977 1
vt 0.283018887 1
vt 0.283018887 0
vt 0.283018887 0
vt 0.283018887 1
vt 0.301886827 1
vt 0.301886797 0
vt 0.320754766 1
vt 0.320754737 0
vt 0.320754737 0
vt 0.320754766 1
vt 0.339622706 1
vt 0.339622676 0
vt 0.358490616 1
vt 0.358490586 0
vt 0.358490586 0
vt 0.358490616 1
vt 0.377358556 1
vt 0.377358496 0
vt 0.396226496 1
vt 0.396226436 0
vt 0.396226436 0
vt 0.396226496 1
vt 0.415094435 1
vt 0.415094346 0
vt 0.433962375 1
vt 0.433962286 0
vt 0.433962375 1
vt 0.452830315 1
vt 0.452830195 0
vt 0.452830195 0
vt 0.452830315 1
vt 0.471698254 1
vt 0.471698105 0
vt 0.471698105 0
vt 0.471698254 1
vt 0.490566194 1
vt 0.490566045 0
vt 0.490566045 0
vt 0.490566194 1
vt 0.509434104 1
vt 0.509433985 0
vt 0.528302014 1
vt 0.528301895 0
vt 0.528301895 0
vt 0.528302014 1
vt 0.547169924 1
vt 0.547169805 0
vt 0.566037893 1
vt 0.566037714 0
vt 0.566037714 0
vt 0.566037893 1
vt 0.584905803 1
vt 0.584905624 0
vt 0.603773713 1
vt 0.603773534 0
vt 0.603773534 0
vt 0.603773713 1
vt 0.622641623 1
vt 0.622641444 0
vt 0.622641623 1
vt 0.641509593 1
vt 0.641509354 0
vt 0.641509354 0
vt 0.641509593 1
vt 0.660377502 1
vt 0.660377264 0
vt 0.660377264 0
vt 0.660377502 1
vt 0.679245412 1
vt 0.679245174 0
vt 0.679245174 0
vt 0.679245412 1
vt 0.698113322 1
vt 0.698113084 0
vt 0.698113084 0
vt 0.698113322 1
vt 0.716981292 1
vt 0.716980994 0
vt 0.735849202 1
vt 0.735848904 0
vt 0.735848904 0
vt 0.735849202 1
vt 0.754717112 1
vt 0.754716873 0
vt 0.773585021 1
vt 0.773584783 0
vt 0.773584783 0
vt 0.773585021 1
vt 0.792452991 1
vt 0.792452693 0
vt 0.811320901 1
vt 0.811320662 0
vt 0.811320662 0
vt 0.811320901 1
vt 0.830188811 1
vt 0.830188572 0
vt 0.849056721 1
vt 0.849056482 0
vt 0.849056482 0
vt 0.849056721 1
vt 0.867924631 1
vt 0.867924452 0
vt 0.867924452 0
vt 0.867924631 1
vt 0.886792541 1
vt 0.886792362 0
vt 0.886792362 0
vt 0.886792541 1
vt 0.90566045 1
vt 0.905660331 0
vt 0.905660331 0
vt 0.90566045 1
vt 0.92452836 1
vt 0.924528241 0
vt 0.94339627 1
vt 0.943396211 0
vt 0.943396211 0
vt 0.94339627 1
vt 0.96226418 1
vt 0.962264061 0
vt 0.98113209 1
vt 0.98113203 0
vn -0 0 1
vn -0 0 1
vn -0 0 1
vn -0 0 1
vn -0 0 1
vn -0 0 1
vn -0 0 1
vn -0 0 1
vn -0 0 1
vn -0 0 1
vn -0 0 1
vn -0 0 1
vn -0 0 1
vn -0 0 1
vn -0 0 1
vn -0 0 1
vn -0 0 1
vn -0 0 1
vn -0 0 1
vn -0 0 1
vn -0 0 1
vn -0 0 1
vn -0 0 1
vn -0 0 1
vn -0 0 1
vn -0 0 1
vn -0 0 1
vn -0 0 1
vn -0 0 1
vn -0 0 1
vn -0 0 1
vn -0 0 1
vn -0 0 1
vn -0 0 1
vn -0 0 1
vn -0 0 1
vn -0 0 1
vn -0 0 1
vn -0 0 1
vn -0 0 1
vn -0 0 1
vn -0 0 1
vn -0 0 1
vn -0 0 1
vn -0 0 1
vn -0 0 1
vn -0 0 1
vn -0 0 1
vn -0 0 1
vn -0 0 1
vn -0 0 1
vn -0 0 1
vn -0 0 1
vn -0 0 1
vn -0 0 1
vn -0 0 1
vn -0 0 1
vn -0 0 1
vn -0 0 1
vn -0 0 1
vn -0 0 1
vn -0 0 1
vn -0 0 1
vn -0 0 1
vn -0 0 1
vn -0 0 1
vn -0 0 1
vn -0 0 1
vn -0 0 1
vn -0 0 1
vn -0 0 1
vn -0 0 1
vn -0 0 1
vn -0 0 1
vn -0 0 1
vn -0 0 1
vn -0 0 1
vn -0 0 1
vn -0 0 1
vn -0 0 1
vn -0 0 1
vn -0 0 1
vn -0 0 1
vn -0 0 1
vn -0 0 1
vn -0 0 1
vn -0 0 1
vn -0 0 1
vn -0 0 1
vn -0 0 1
vn -0 0 1
vn -0 0 1
vn -0 0 1
vn -0 0 1
vn -0 0 1
vn -0 0 1
vn -0 0 1
vn -0 0 1
vn -0 0 1
vn -0 0 1
vn -0 0 1
vn -0 0 1
vn -0 0 1
vn -0 0 1
vn -0 0 1
vn -0 0 1
vn -0 0 1
vn -0 0 1
vn -0 0 1
vn -0 0 1
vn -0 0 1
vn -0 0 1
vn -0 0 1
vn -0 0 1
vn -0 0 1
vn -0 0 1
vn -0 0 1
vn -0 0 1
vn -0 0 1
vn -0 0 1
vn -0 0 1
vn -0 0 1
vn -0 0 1
vn -0 0 1
vn -0 0 1
vn -0 0 1
vn -0 0 1
vn -0 0 1
vn -0 0 1
vn -0 0 1
vn -0 0 1
vn -0 0 1
vn -0 0 1
vn -0 0 1
vn -0 0 1
vn -0 0 1
vn -0 0 1
vn -0 0 1
vn -0 0 1
vn -0 0 1
vn -0 0 1
vn -0 0 1
vn -0 0 1
vn -0 0 1
vn -0 0 1
vn -0 0 1
vn -0 0 1
vn -0 0 1
vn -0 0 1
vn -0 0 1
vn -0 0 1
vn -0 0 1
vn -0 0 1
vn -0 0 1
vn -0 0 1
vn -0 0 1
vn -0 0 1
vn -0 0 1
vn -0 0 1
vn -0 0 1
vn -0 0 1
vn -0 0 1
vn -0 0 1
vn -0 0 1
vn -0 0 1
vn -0 0 1
vn -0 0 1
vn -0 0 1
g general_plane_46_0
f 3/3/3 2/2/2 1/1/1
f 4/4/4 3/3/3 1/1/1
f 7/7/7 6/6/6 5/5/5
f 8/8/8 7/7/7 5/5/5
f 9/9/9 7/7/7 8/8/8
f 10/10/10 9/9/9 8/8/8
f 11/11/11 9/9/9 10/10/10
f 12/12/12 11/11/11 10/10/10
f 15/15/15 14/14/14 13/13/13
f 16/16/16 15/15/15 13/13/13
f 17/17/17 15/15/15 16/16/16
f 18/18/18 17/17/17 16/16/16
f 19/19/19 17/17/17 18/18/18
f 20/20/20 19/19/19 18/18/18
f 23/23/23 22/22/22 21/21/21
f 24/24/24 23/23/23 21/21/21
f 25/25/25 23/23/23 24/24/24
f 26/26/26 25/25/25 24/24/24
f 29/29/29 28/28/28 27/27/27
f 30/30/30 29/29/29 27/27/27
f 31/31/31 29/29/29 30/30/30
f 32/32/32 31/31/31 30/30/30
f 35/35/35 34/34/34 33/33/33
f 36/36/36 35/35/35 33/33/33
f 37/37/37 35/35/35 36/36/36
f 38/38/38 37/37/37 36/36/36
f 41/41/41 40/40/40 39/39/39
f 42/42/42 41/41/41 39/39/39
f 43/43/43 41/41/41 42/42/42
f 44/44/44 43/43/43 42/42/42
f 47/47/47 46/46/46 45/45/45
f 48/48/48 47/47/47 45/45/45
f 51/51/51 50/50/50 49/49/49
f 52/52/52 51/51/51 49/49/49
f 53/53/53 51/51/51 52/52/52
f 54/54/54 53/53/53 52/52/52
f 57/57/57 56/56/56 55/55/55
f 58/58/58 57/57/57 55/55/55
f 59/59/59 57/57/57 58/58/58
f 60/60/60 59/59/59 58/58/58
f 63/63/63 62/62/62 61/61/61
f 64/64/64 63/63/63 61/61/61
f 65/65/65 63/63/63 64/64/64
f 66/66/66 65/65/65 64/64/64
f 69/69/69 68/68/68 67/67/67
f 70/70/70 69/69/69 67/67/67
f 71/71/71 69/69/69 70/70/70
f 72/72/72 71/71/71 70/70/70
f 74/74/74 73/73/73 72/72/72
f 75/75/75 74/74/74 72/72/72
f 78/78/78 77/77/77 76/76/76
f 79/79/79 78/78/78 76/76/76
f 82/82/82 81/81/81 80/80/80
f 83/83/83 82/82/82 80/80/80
f 86/86/86 85/85/85 84/84/84
f 87/87/87 86/86/86 84/84/84
f 88/88/88 86/86/86 87/87/87
f 89/89/89 88/88/88 87/87/87
f 92/92/92 91/91/91 90/90/90
f 93/93/93 92/92/92 90/90/90
f 94/94/94 92/92/92 93/93/93
f 95/95/95 94/94/94 93/93/93
f 98/98/98 97/97/97 96/96/96
f 99/99/99 98/98/98 96/96/96
f 100/100/100 98/98/98 99/99/99
f 101/101/101 100/100/100 99/99/99
f 104/104/104 103/103/103 102/102/102
f 105/105/105 104/104/104 102/102/102
f 107/107/107 106/106/106 105/105/105
f 108/108/108 107/107/107 105/105/105
f 111/111/111 110/110/110 109/109/109
f 112/112/112 111/111/111 109/109/109
f 115/115/115 114/114/114 113/113/113
f 116/116/116 115/115/115 113/113/113
f 119/119/119 118/118/118 117/117/117
f 120/120/120 119/119/119 117/117/117
f 123/123/123 122/122/122 121/121/121
f 124/124/124 123/123/123 121/121/121
f 125/125/125 123/123/123 124/124/124
f 126/126/126 125/125/125 124/124/124
f 129/129/129 128/128/128 127/127/127
f 130/130/130 129/129/129 127/127/127
f 131/131/131 129/129/129 130/130/130
f 132/132/132 131/131/131 130/130/130
f 135/135/135 134/134/134 133/133/133
f 136/136/136 135/135/135 133/133/133
f 137/137/137 135/135/135 136/136/136
f 138/138/138 137/137/137 136/136/136
f 141/141/141 140/140/140 139/139/139
f 142/142/142 141/141/141 139/139/139
f 143/143/143 141/141/141 142/142/142
f 144/144/144 143/143/143 142/142/142
f 147/147/147 146/146/146 145/145/145
f 148/148/148 147/147/147 145/145/145
f 151/151/151 150/150/150 149/149/149
f 152/152/152 151/151/151 149/149/149
f 155/155/155 154/154/154 153/153/153
f 156/156/156 155/155/155 153/153/153
f 159/159/159 158/158/158 157/157/157
f 160/160/160 159/159/159 157/157/157
f 161/161/161 159/159/159 160/160/160
f 162/162/162 161/161/161 160/160/160
f 165/165/165 164/164/164 163/163/163
f 166/166/166 165/165/165 163/163/163
f 167/167/167 165/165/165 166/166/166
f 168/168/168 167/167/167 166/166/166
