g Plane014
v 0.0360490754 -0.332503527 -5.1922342E-08
v -0.0262607429 -0.429558367 -7.23660847E-08
v -0.0411691926 -0.352802694 -5.60921585E-08
v 0.0556757823 -0.40615195 -6.80408974E-08
v 0.103697762 -0.307407111 -4.68587054E-08
v -0.011352784 -0.506314158 -8.86399576E-08
v 0.131097168 -0.376277775 -6.25178487E-08
v 0.149952888 -0.281846166 -4.16636112E-08
v 0.0753022507 -0.47979936 -8.4158664E-08
v 0.00355542009 -0.583069801 -1.04913816E-07
v 0.0949289575 -0.553447664 -1.00277134E-07
v 0.158493653 -0.445141077 -7.81712828E-08
v 0.185893074 -0.514011621 -9.38303444E-08
v 0.186853275 -0.343565971 -5.64376421E-08
v 0.176236331 -0.259055942 -3.6907565E-08
v 0.223739997 -0.405262947 -7.11929431E-08
v 0.260639668 -0.46698308 -8.59670024E-08
v 0.223990738 -0.309686124 -5.00982651E-08
v 0.186309338 -0.242735639 -3.3242177E-08
v 0.271701664 -0.360270262 -6.324602E-08
v 0.319455594 -0.410900623 -7.64367272E-08
v 0.244180679 -0.276892513 -4.38998633E-08
v 0.187286392 -0.233461007 -3.07729309E-08
v 0.301945567 -0.310986787 -5.44785017E-08
v 0.359817147 -0.345143765 -6.51361844E-08
v 0.250584006 -0.246991858 -3.81643801E-08
v 0.185080826 -0.225664377 -2.85311756E-08
v 0.313672364 -0.260478079 -4.54303404E-08
v 0.376969993 -0.27400893 -5.28217683E-08
v 0.246971443 -0.219518781 -3.28164482E-08
v 0.179493666 -0.213270366 -2.54594781E-08
v 0.30852443 -0.213406742 -3.69207207E-08
v 0.370415062 -0.207261145 -4.12059897E-08
v 0.235419199 -0.192624122 -2.75387819E-08
v 0.167911142 -0.195196912 -2.13734559E-08
v 0.290869653 -0.172153324 -2.93698506E-08
v 0.346795171 -0.151507124 -3.14491579E-08
v 0.216558605 -0.165489808 -2.21943708E-08
v 0.149339601 -0.173384741 -1.661728E-08
v 0.264590591 -0.1361586 -2.26838832E-08
v 0.313238055 -0.106451549 -2.35048052E-08
v 0.191050053 -0.138515472 -1.6859115E-08
v 0.124446787 -0.150121063 -1.15956702E-08
v 0.232001469 -0.104280807 -1.66671512E-08
v 0.273711681 -0.0694115832 -1.69089986E-08
v 0.15999268 -0.112548232 -1.16871472E-08
v 0.0946899429 -0.127257794 -6.6372472E-09
v 0.194633797 -0.0759319887 -1.12208172E-08
v 0.230179697 -0.0383591726 -1.13123066E-08
v 0.124793462 -0.0884874985 -6.84175872E-09
v 0.0618442409 -0.106231913 -1.99808903E-09
v 0.153848395 -0.0510675386 -6.34103747E-09
v 0.183951914 -0.0122972727 -6.54555476E-09
v 0.0870397985 -0.0671895966 -2.4786897E-09
v 0.0278635267 -0.0882066116 2.11360396E-09
v 0.111056648 -0.0299736112 -2.08178808E-09
v 0.13625221 0.009068707 -2.56239696E-09
v 0.0484655797 -0.0494646393 1.25438793E-09
v -0.00507739279 -0.0741627663 5.52150992E-09
v 0.0677929744 -0.0131196482 1.47088131E-09
v 0.0883950219 0.0256223083 6.11656115E-10
v 0.0109973149 -0.0360791273 4.21743351E-09
v -0.0343898945 -0.0648981035 8.08132139E-09
v 0.0257739276 -0.00107192993 4.21400914E-09
v 0.0418488793 0.0370115973 2.9099112E-09
v -0.0230986346 -0.0277216882 6.28401287E-09
v -0.0946318433 -0.0438070931 1.26916193E-08
v -0.0129848635 0.0055771945 6.04006356E-09
v -0.00169360358 0.0427535921 4.24274793E-09
v -0.0762629434 -0.0123345992 9.55634682E-09
v -0.163505867 0.0320825465 2.68611018E-08
v -0.0603442416 0.0149398968 8.36346725E-09
v -0.0419753455 0.0464123748 5.22819477E-09
v -0.132308602 0.045882348 2.02879207E-08
v -0.180410653 0.116593458 4.25110294E-08
v -0.106388189 0.0573480241 1.64836571E-08
v -0.0751911625 0.0711478218 9.91048221E-09
v -0.14853394 0.115962967 3.30584022E-08
v -0.168986827 0.191047624 5.6370812E-08
v -0.123442143 0.115466662 2.73657434E-08
v -0.0915654376 0.114836171 1.79131252E-08
v -0.140438482 0.182628855 4.5190415E-08
v -0.141619146 0.259851247 6.92060382E-08
v -0.119481698 0.176448837 3.87595236E-08
v -0.0909333527 0.168030068 2.75791407E-08
v -0.116933845 0.247133106 5.68970222E-08
v -0.101401128 0.324899435 8.13432308E-08
v -0.100393802 0.23861073 5.03666477E-08
v -0.0757087469 0.225892216 3.8057582E-08
v -0.080572024 0.309486717 6.81741312E-08
v -0.0490205102 0.385107756 9.25879604E-08
v -0.0682114288 0.300340325 6.19012894E-08
v -0.0473825708 0.284927636 4.87322183E-08
v -0.0321333036 0.36776787 7.86796974E-08
v 0.0157197267 0.437670797 1.02444893E-07
v -0.023644533 0.359051585 7.29073477E-08
v -0.00675708055 0.34171173 5.89991274E-08
v 0.0283313002 0.41884318 8.78598456E-08
v 0.0839978084 0.474531412 1.09500448E-07
v 0.0928908736 0.455182284 9.4391865E-08
v 0.0333313011 0.411378741 8.27923614E-08
v 0.0459431186 0.392551124 6.82073633E-08
v 0.0953281298 0.449879348 9.02511204E-08
v 0.104221195 0.43053019 7.51426086E-08
vt 0.960000157 0
vt 1.00000012 0.333333343
vt 1.00000012 0
vt 0.960000157 0.333333343
vt 0.920000136 0
vt 1.00000012 0.666666687
vt 0.920000136 0.333333343
vt 0.880000114 0
vt 0.960000157 0.666666687
vt 1.00000012 1
vt 0.960000157 1
vt 0.920000136 0.666666687
vt 0.920000136 1
vt 0.880000114 0.333333343
vt 0.840000093 0
vt 0.880000114 0.666666687
vt 0.880000114 1
vt 0.840000093 0.333333343
vt 0.800000072 0
vt 0.840000093 0.666666687
vt 0.840000093 1
vt 0.800000072 0.333333343
vt 0.76000005 0
vt 0.800000072 0.666666687
vt 0.800000072 1
vt 0.76000005 0.333333343
vt 0.720000029 0
vt 0.76000005 0.666666687
vt 0.76000005 1
vt 0.720000029 0.333333343
vt 0.680000007 0
vt 0.720000029 0.666666687
vt 0.720000029 1
vt 0.680000007 0.333333343
vt 0.639999986 0
vt 0.680000007 0.666666687
vt 0.680000007 1
vt 0.639999986 0.333333343
vt 0.599999964 0
vt 0.639999986 0.666666687
vt 0.639999986 1
vt 0.599999964 0.333333343
vt 0.559999943 0
vt 0.599999964 0.666666687
vt 0.599999964 1
vt 0.559999943 0.333333343
vt 0.519999921 0
vt 0.559999943 0.666666687
vt 0.559999943 1
vt 0.519999921 0.333333343
vt 0.47999993 0
vt 0.519999921 0.666666687
vt 0.519999921 1
vt 0.47999993 0.333333343
vt 0.439999938 0
vt 0.47999993 0.666666687
vt 0.47999993 1
vt 0.439999938 0.333333343
vt 0.399999946 0
vt 0.439999938 0.666666687
vt 0.439999938 1
vt 0.399999946 0.333333343
vt 0.359999955 0
vt 0.399999946 0.666666687
vt 0.399999946 1
vt 0.359999955 0.333333343
vt 0.319999963 0
vt 0.359999955 0.666666687
vt 0.359999955 1
vt 0.319999963 0.333333343
vt 0.279999971 0
vt 0.319999963 0.666666687
vt 0.319999963 1
vt 0.279999971 0.333333343
vt 0.23999998 0
vt 0.279999971 0.666666687
vt 0.279999971 1
vt 0.23999998 0.333333343
vt 0.199999988 0
vt 0.23999998 0.666666687
vt 0.23999998 1
vt 0.199999988 0.333333343
vt 0.159999996 0
vt 0.199999988 0.666666687
vt 0.199999988 1
vt 0.159999996 0.333333343
vt 0.119999997 0
vt 0.159999996 0.666666687
vt 0.159999996 1
vt 0.119999997 0.333333343
vt 0.0799999982 0
vt 0.119999997 0.666666687
vt 0.119999997 1
vt 0.0799999982 0.333333343
vt 0.0399999991 0
vt 0.0799999982 0.666666687
vt 0.0799999982 1
vt 0.0399999991 0.333333343
vt 0 0
vt 0 0.333333343
vt 0.0399999991 0.666666687
vt 0.0399999991 1
vt 0 0.666666687
vt 0 1
vn -0 -2.16915097E-07 1
vn -0 -2.13470557E-07 1
vn -0 -2.14123986E-07 1
vn 1.07330136E-08 -2.16024887E-07 1
vn 1.41105128E-08 -2.22031815E-07 1
vn 1.33440006E-08 -2.12303291E-07 1
vn 1.73021402E-08 -2.20513471E-07 1
vn 2.32259882E-08 -2.26014379E-07 1
vn 1.58040177E-08 -2.14605691E-07 1
vn 1.556778E-08 -2.1179433E-07 1
vn 1.79066113E-08 -2.13842455E-07 1
vn 2.28053736E-08 -2.18222908E-07 1
vn 2.47686209E-08 -2.17241791E-07 1
vn 2.71081255E-08 -2.2316074E-07 1
vn 3.62567008E-08 -2.2749191E-07 1
vn 3.33992389E-08 -2.19223352E-07 1
vn 3.5279399E-08 -2.17917517E-07 1
vn 4.06520293E-08 -2.22062383E-07 1
vn 5.36364269E-08 -2.23918889E-07 1
vn 4.74101149E-08 -2.15400888E-07 1
vn 4.89960961E-08 -2.13840238E-07 1
vn 5.7117397E-08 -2.14518167E-07 1
vn 7.32875733E-08 -2.09811304E-07 1
vn 6.32545323E-08 -2.03862129E-07 1
vn 6.44657874E-08 -2.02154851E-07 1
vn 7.32763326E-08 -1.98300143E-07 1
vn 8.81350743E-08 -1.84554651E-07 1
vn 7.67128796E-08 -1.83828831E-07 1
vn 7.76636568E-08 -1.81843461E-07 1
vn 8.47339479E-08 -1.74592188E-07 1
vn 9.51121422E-08 -1.56418835E-07 1
vn 8.39428367E-08 -1.5905151E-07 1
vn 8.46444905E-08 -1.56389248E-07 1
vn 8.9591019E-08 -1.48842631E-07 1
vn 9.68878595E-08 -1.30666137E-07 1
vn 8.52141468E-08 -1.34902038E-07 1
vn 8.551185E-08 -1.31251312E-07 1
vn 9.00014356E-08 -1.25781014E-07 1
vn 9.65080247E-08 -1.081143E-07 1
vn 8.34136458E-08 -1.1381087E-07 1
vn 8.32562108E-08 -1.0910874E-07 1
vn 8.86453648E-08 -1.05726116E-07 1
vn 9.5431119E-08 -8.74254908E-08 1
vn 8.06643072E-08 -9.53013455E-08 1
vn 8.01997686E-08 -8.95272336E-08 1
vn 8.66777654E-08 -8.7438714E-08 1
vn 9.39459284E-08 -6.72167815E-08 1
vn 7.76420421E-08 -7.81136933E-08 1
vn 7.70546436E-08 -7.10980288E-08 1
vn 8.42558947E-08 -6.97535327E-08 1
vn 9.17145826E-08 -4.63868162E-08 1
vn 7.41956185E-08 -6.11625879E-08 1
vn 7.35746752E-08 -5.25851647E-08 1
vn 8.1004444E-08 -5.17690353E-08 1
vn 8.79006237E-08 -2.40233557E-08 1
vn 6.97190217E-08 -4.36224497E-08 1
vn 6.90104613E-08 -3.30680834E-08 1
vn 7.61004202E-08 -3.27640386E-08 1
vn 8.09827654E-08 0 1
vn 6.31445474E-08 -2.48316514E-08 1
vn 6.21127114E-08 -1.18436407E-08 1
vn 6.80612331E-08 -1.21446853E-08 1
vn 7.89529153E-08 2.48249403E-08 1
vn 5.25992228E-08 0 1
vn 5.0762516E-08 1.15952368E-08 1
vn 6.61740245E-08 0 1
vn 1.36887962E-07 1.83151698E-08 1
vn 4.84499125E-08 1.57996318E-08 1
vn 4.36984351E-08 3.74504125E-08 1
vn 1.24406654E-07 0 1
vn 2.40308566E-07 -6.51779928E-08 1
vn 1.071597E-07 0 1
vn 1.05927938E-07 3.72920148E-08 1
vn 2.15155154E-07 -7.02142131E-08 1
vn 2.94143348E-07 -1.76843614E-07 1
vn 2.01234613E-07 -6.3972756E-08 1
vn 2.20140933E-07 -3.09383665E-08 1
vn 2.62470166E-07 -1.71595829E-07 1
vn 3.13699985E-07 -2.66992117E-07 1
vn 2.54828279E-07 -1.58649812E-07 1
vn 2.90906797E-07 -1.40678694E-07 1
vn 2.78291509E-07 -2.52062961E-07 1
vn 3.22536891E-07 -3.42956014E-07 1
vn 2.76469535E-07 -2.3710318E-07 1
vn 3.20468871E-07 -2.34104192E-07 1
vn 2.85674304E-07 -3.19089281E-07 1
vn 3.23256671E-07 -4.18151615E-07 1
vn 2.87426531E-07 -3.04296776E-07 1
vn 3.3527408E-07 -3.13739861E-07 1
vn 2.87901685E-07 -3.86474255E-07 1
vn 3.09887071E-07 -5.00482997E-07 1
vn 2.91957321E-07 -3.72192375E-07 1
vn 3.40388283E-07 -3.92323386E-07 1
vn 2.80831557E-07 -4.64183955E-07 1
vn 2.73800083E-07 -5.9087472E-07 1
vn 2.86869806E-07 -4.50508651E-07 1
vn 3.30970067E-07 -4.78234085E-07 1
vn 2.58365532E-07 -5.59718956E-07 1
vn 2.49017944E-07 -6.37523499E-07 1
vn 2.42375023E-07 -6.12317024E-07 1
vn 2.67570243E-07 -5.47584989E-07 1
vn 2.99533724E-07 -5.71845931E-07 1
vn 2.53884735E-07 -6.0181145E-07 1
vn 2.76030363E-07 -6.22302991E-07 1
g Plane014_0
f 3/3/3 2/2/2 1/1/1
f 2/2/2 4/4/4 1/1/1
f 1/1/1 4/4/4 5/5/5
f 2/2/2 6/6/6 4/4/4
f 4/4/4 7/7/7 5/5/5
f 5/5/5 7/7/7 8/8/8
f 6/6/6 9/9/9 4/4/4
f 4/4/4 9/9/9 7/7/7
f 6/6/6 10/10/10 9/9/9
f 10/10/10 11/11/11 9/9/9
f 9/9/9 11/11/11 12/12/12
f 9/9/9 12/12/12 7/7/7
f 11/11/11 13/13/13 12/12/12
f 7/7/7 14/14/14 8/8/8
f 7/7/7 12/12/12 14/14/14
f 8/8/8 14/14/14 15/15/15
f 12/12/12 13/13/13 16/16/16
f 12/12/12 16/16/16 14/14/14
f 13/13/13 17/17/17 16/16/16
f 14/14/14 18/18/18 15/15/15
f 14/14/14 16/16/16 18/18/18
f 15/15/15 18/18/18 19/19/19
f 16/16/16 17/17/17 20/20/20
f 16/16/16 20/20/20 18/18/18
f 17/17/17 21/21/21 20/20/20
f 18/18/18 22/22/22 19/19/19
f 18/18/18 20/20/20 22/22/22
f 19/19/19 22/22/22 23/23/23
f 20/20/20 21/21/21 24/24/24
f 20/20/20 24/24/24 22/22/22
f 21/21/21 25/25/25 24/24/24
f 22/22/22 26/26/26 23/23/23
f 22/22/22 24/24/24 26/26/26
f 23/23/23 26/26/26 27/27/27
f 24/24/24 25/25/25 28/28/28
f 24/24/24 28/28/28 26/26/26
f 25/25/25 29/29/29 28/28/28
f 26/26/26 30/30/30 27/27/27
f 26/26/26 28/28/28 30/30/30
f 27/27/27 30/30/30 31/31/31
f 28/28/28 29/29/29 32/32/32
f 28/28/28 32/32/32 30/30/30
f 29/29/29 33/33/33 32/32/32
f 30/30/30 34/34/34 31/31/31
f 30/30/30 32/32/32 34/34/34
f 31/31/31 34/34/34 35/35/35
f 32/32/32 33/33/33 36/36/36
f 32/32/32 36/36/36 34/34/34
f 33/33/33 37/37/37 36/36/36
f 34/34/34 38/38/38 35/35/35
f 34/34/34 36/36/36 38/38/38
f 35/35/35 38/38/38 39/39/39
f 36/36/36 37/37/37 40/40/40
f 36/36/36 40/40/40 38/38/38
f 37/37/37 41/41/41 40/40/40
f 38/38/38 42/42/42 39/39/39
f 38/38/38 40/40/40 42/42/42
f 39/39/39 42/42/42 43/43/43
f 40/40/40 41/41/41 44/44/44
f 40/40/40 44/44/44 42/42/42
f 41/41/41 45/45/45 44/44/44
f 42/42/42 46/46/46 43/43/43
f 42/42/42 44/44/44 46/46/46
f 43/43/43 46/46/46 47/47/47
f 44/44/44 45/45/45 48/48/48
f 44/44/44 48/48/48 46/46/46
f 45/45/45 49/49/49 48/48/48
f 46/46/46 50/50/50 47/47/47
f 46/46/46 48/48/48 50/50/50
f 47/47/47 50/50/50 51/51/51
f 48/48/48 49/49/49 52/52/52
f 48/48/48 52/52/52 50/50/50
f 49/49/49 53/53/53 52/52/52
f 50/50/50 54/54/54 51/51/51
f 50/50/50 52/52/52 54/54/54
f 51/51/51 54/54/54 55/55/55
f 52/52/52 53/53/53 56/56/56
f 52/52/52 56/56/56 54/54/54
f 53/53/53 57/57/57 56/56/56
f 54/54/54 58/58/58 55/55/55
f 54/54/54 56/56/56 58/58/58
f 55/55/55 58/58/58 59/59/59
f 56/56/56 57/57/57 60/60/60
f 56/56/56 60/60/60 58/58/58
f 57/57/57 61/61/61 60/60/60
f 58/58/58 62/62/62 59/59/59
f 58/58/58 60/60/60 62/62/62
f 59/59/59 62/62/62 63/63/63
f 60/60/60 61/61/61 64/64/64
f 60/60/60 64/64/64 62/62/62
f 61/61/61 65/65/65 64/64/64
f 62/62/62 66/66/66 63/63/63
f 62/62/62 64/64/64 66/66/66
f 63/63/63 66/66/66 67/67/67
f 64/64/64 65/65/65 68/68/68
f 64/64/64 68/68/68 66/66/66
f 65/65/65 69/69/69 68/68/68
f 66/66/66 70/70/70 67/67/67
f 66/66/66 68/68/68 70/70/70
f 67/67/67 70/70/70 71/71/71
f 68/68/68 69/69/69 72/72/72
f 68/68/68 72/72/72 70/70/70
f 69/69/69 73/73/73 72/72/72
f 70/70/70 74/74/74 71/71/71
f 70/70/70 72/72/72 74/74/74
f 71/71/71 74/74/74 75/75/75
f 72/72/72 73/73/73 76/76/76
f 72/72/72 76/76/76 74/74/74
f 73/73/73 77/77/77 76/76/76
f 74/74/74 78/78/78 75/75/75
f 74/74/74 76/76/76 78/78/78
f 75/75/75 78/78/78 79/79/79
f 76/76/76 77/77/77 80/80/80
f 76/76/76 80/80/80 78/78/78
f 77/77/77 81/81/81 80/80/80
f 78/78/78 82/82/82 79/79/79
f 78/78/78 80/80/80 82/82/82
f 79/79/79 82/82/82 83/83/83
f 80/80/80 81/81/81 84/84/84
f 80/80/80 84/84/84 82/82/82
f 81/81/81 85/85/85 84/84/84
f 82/82/82 86/86/86 83/83/83
f 82/82/82 84/84/84 86/86/86
f 83/83/83 86/86/86 87/87/87
f 84/84/84 85/85/85 88/88/88
f 84/84/84 88/88/88 86/86/86
f 85/85/85 89/89/89 88/88/88
f 86/86/86 90/90/90 87/87/87
f 86/86/86 88/88/88 90/90/90
f 87/87/87 90/90/90 91/91/91
f 88/88/88 89/89/89 92/92/92
f 88/88/88 92/92/92 90/90/90
f 89/89/89 93/93/93 92/92/92
f 90/90/90 94/94/94 91/91/91
f 90/90/90 92/92/92 94/94/94
f 91/91/91 94/94/94 95/95/95
f 92/92/92 93/93/93 96/96/96
f 92/92/92 96/96/96 94/94/94
f 93/93/93 97/97/97 96/96/96
f 94/94/94 98/98/98 95/95/95
f 94/94/94 96/96/96 98/98/98
f 95/95/95 98/98/98 99/99/99
f 98/98/98 100/100/100 99/99/99
f 96/96/96 97/97/97 101/101/101
f 96/96/96 101/101/101 98/98/98
f 98/98/98 101/101/101 100/100/100
f 97/97/97 102/102/102 101/101/101
f 101/101/101 103/103/103 100/100/100
f 101/101/101 102/102/102 103/103/103
f 102/102/102 104/104/104 103/103/103
