g Cone001
v 0.00644573476 0.0240558088 0
v 1.51510038E-09 0.0200681128 0.00800675247
v 1.88023042E-09 0.0249044057 0
v 0.00519401021 0.0193843078 0.00800675247
v 0.0124522019 0.0215678494 0
v 1.14997045E-09 0.0152318208 0.0160135049
v 0.0100340554 0.0173794962 0.00800675247
v 0.0176100731 0.0176100731 0
v 0.00394228566 0.0147128096 0.0160135049
v 7.84840415E-10 0.0103955269 0.0240202583
v 0.0141902976 0.0141902976 0.00800675247
v 0.0215678476 0.0124522028 0
v 0.00761590991 0.0131911449 0.0160135049
v 0.00269056042 0.0100413067 0.0240202583
v 4.19710544E-10 0.00555923441 0.0320270099
v 0.0173794944 0.0100340564 0.00800675247
v 0.0240558088 0.0064457343 0
v 0.0107705239 0.0107705239 0.0160135049
v 0.00519776251 0.00900279079 0.0240202583
v 0.00143883599 0.00536980806 0.0320270099
v 5.45806352E-11 0.000722942408 0.0400337614
v 0.000187111276 0.000698308751 0.0400337614
v 0.00277961697 0.00481443852 0.0320270099
v 0.000361471175 0.00062608649 0.0400337614
v 0.0193843078 0.00519400975 0.00800675247
v 0.0249044057 0 0
v 0.013191144 0.00761591038 0.0160135049
v 0.00735074701 0.00735074701 0.0240202583
v 0.00393097242 0.00393097242 0.0320270099
v 0.00051119749 0.00051119749 0.0400337614
v 0.0200681128 0 0.00800675247
v 0.0240558032 -0.00644575199 0
v 0.0147128096 0.0039422852 0.0160135049
v 0.00900278986 0.00519776344 0.0240202583
v 0.00481443806 0.00277961721 0.0320270099
v 0.000626086432 0.000361471204 0.0400337614
v 0.0193843041 -0.00519402372 0.00800675247
v 0.0215678401 -0.0124522178 0
v 0.0152318208 0 0.0160135049
v 0.0100413067 0.00269056018 0.0240202583
v 0.00536980806 0.00143883564 0.0320270099
v 0.000698308751 0.000187111247 0.0400337614
v 0.0173794888 -0.0100340685 0.00800675247
v 0.0176100619 -0.0176100861 0
v 0.0147128068 -0.00394229637 0.0160135049
v 0.0103955269 0 0.0240202583
v 0.00555923441 0 0.0320270099
v 0.000722942408 0 0.0400337614
v 0.0141902901 -0.0141903069 0.00800675247
v 0.0124521898 -0.021567855 0
v 0.0131911393 -0.00761591969 0.0160135049
v 0.0100413049 -0.00269056763 0.0240202583
v 0.00536980713 -0.00143883971 0.0320270099
v 0.000698308577 -0.000187111771 0.0400337614
v 0.0100340461 -0.0173795 0.00800675247
v 0.00644572126 -0.0240558106 0
v 0.0107705165 -0.0107705314 0.0160135049
v 0.00900278706 -0.0051977695 0.0240202583
v 0.00481443666 -0.00277962047 0.0320270099
v 0.000626086257 -0.000361471612 0.0400337614
v 0.0051939995 -0.0193843115 0.00800675247
v -1.1578364E-08 -0.0249044057 0
v 0.00761590293 -0.0131911486 0.0160135049
v 0.00735074282 -0.00735075213 0.0240202583
v 0.0039309701 -0.00393097475 0.0320270099
v 0.000511197199 -0.000511197839 0.0400337614
v -9.32991195E-09 -0.0200681128 0.00800675247
v -0.00644574407 -0.0240558051 0
v 0.00394227775 -0.0147128105 0.0160135049
v 0.00519775786 -0.00900279265 0.0240202583
v 0.00277961441 -0.00481443992 0.0320270099
v 0.000361470826 -0.000626086665 0.0400337614
v -0.00519401766 -0.0193843041 0.00800675247
v -0.0124522103 -0.021567842 0
v -7.08146075E-09 -0.0152318208 0.0160135049
v 0.00269055506 -0.0100413086 0.0240202583
v 0.00143883296 -0.00536980852 0.0320270099
v 0.000187110898 -0.00069830881 0.0400337614
v -0.010034062 -0.0173794907 0.00800675247
v -0.0176100843 -0.0176100638 0
v -0.00394229125 -0.0147128077 0.0160135049
v -4.83300777E-09 -0.0103955269 0.0240202583
v -2.58455657E-09 -0.00555923441 0.0320270099
v -3.36104811E-10 -0.000722942408 0.0400337614
v -0.014190306 -0.0141902911 0.00800675247
v -0.0215678532 -0.0124521917 0
v -0.00761591503 -0.0131911412 0.0160135049
v -0.00269056438 -0.0100413058 0.0240202583
v -0.00143883785 -0.00536980759 0.0320270099
v -0.000187111538 -0.000698308635 0.0400337614
v -0.0173795 -0.010034048 0.00800675247
v -0.0240558106 -0.00644572405 0
v -0.0107705304 -0.0107705174 0.0160135049
v -0.00519776624 -0.00900278799 0.0240202583
v -0.00277961884 -0.00481443712 0.0320270099
v -0.000361471408 -0.000626086316 0.0400337614
v -0.0193843115 -0.00519400137 0.00800675247
v -0.0249044057 9.69813385E-09 0
v -0.0131911477 -0.00761590432 0.0160135049
v -0.0073507512 -0.00735074328 0.0240202583
v -0.00393097475 -0.00393097056 0.0320270099
v -0.000511197781 -0.000511197199 0.0400337614
v -0.0200681128 7.81481102E-09 0.00800675247
v -0.0240558069 0.00644574221 0
v -0.0147128105 -0.00394227915 0.0160135049
v -0.00900279172 -0.00519775879 0.0240202583
v -0.00481443945 -0.00277961488 0.0320270099
v -0.000626086607 -0.000361470884 0.0400337614
v -0.0193843078 0.00519401627 0.00800675247
v -0.0215678439 0.0124522084 0
v -0.0152318208 5.93148997E-09 0.0160135049
v -0.0100413086 -0.00269055599 0.0240202583
v -0.00536980852 -0.00143883342 0.0320270099
v -0.00069830881 -0.000187110956 0.0400337614
v -0.0173794925 0.010034061 0.00800675247
v -0.0176100675 0.0176100768 0
v -0.0147128087 0.00394229032 0.0160135049
v -0.0103955269 4.04816758E-09 0.0240202583
v -0.00555923441 2.16484586E-09 0.0320270099
v -0.000722942408 2.81524137E-10 0.0400337614
v -0.0141902948 0.0141903013 0.00800675247
v -0.0124521982 0.0215678494 0
v -0.0131911421 0.0076159141 0.0160135049
v -0.0100413067 0.00269056368 0.0240202583
v -0.00536980759 0.00143883761 0.0320270099
v -0.000698308693 0.000187111495 0.0400337614
v -0.0100340536 0.0173794962 0.00800675247
v -0.0064457315 0.0240558088 0
v -0.0107705211 0.0107705267 0.0160135049
v -0.00900278892 0.00519776577 0.0240202583
v -0.00481443759 0.0027796186 0.0320270099
v -0.000626086374 0.000361471379 0.0400337614
v -0.00519400695 0.0193843096 0.00800675247
v 1.88023042E-09 0.0249044057 0
v 1.51510038E-09 0.0200681128 0.00800675247
v -0.00761590805 0.0131911458 0.0160135049
v -0.00735074515 0.00735074887 0.0240202583
v -0.00393097149 0.00393097335 0.0320270099
v -0.000511197373 0.000511197606 0.0400337614
v -0.0039422838 0.0147128105 0.0160135049
v 1.14997045E-09 0.0152318208 0.0160135049
v -0.00519776158 0.00900279079 0.0240202583
v -0.00277961651 0.00481443852 0.0320270099
v -0.000361471088 0.000626086548 0.0400337614
v -0.00269055902 0.0100413077 0.0240202583
v 7.84840415E-10 0.0103955269 0.0240202583
v -0.00143883505 0.00536980852 0.0320270099
v -0.000187111174 0.000698308751 0.0400337614
v 4.19710544E-10 0.00555923441 0.0320270099
v 5.45806352E-11 0.000722942408 0.0400337614
vt 0.958333313 -0.434003115
vt 0.99999994 -0.255435407
vt 0.99999994 -0.455435365
vt 0.958333313 -0.234003142
vt 0.916666687 -0.423286974
vt 0.99999994 -0.0554353744
vt 0.916666687 -0.223287016
vt 0.875 -0.407212794
vt 0.958333313 -0.0340031199
vt 0.99999994 0.144564599
vt 0.875 -0.207212821
vt 0.833333313 -0.388459563
vt 0.916666687 -0.0232869945
vt 0.958333313 0.16599685
vt 0.99999994 0.344564497
vt 0.833333313 -0.188459605
vt 0.791666627 -0.372385383
vt 0.875 -0.00721280463
vt 0.916666687 0.176712975
vt 0.958333313 0.365996748
vt 0.99999994 0.544564545
vt 0.958333313 0.565996826
vt 0.916666687 0.376712888
vt 0.916666687 0.576712966
vt 0.791666627 -0.172385409
vt 0.75 -0.356311202
vt 0.833333313 0.0115404166
vt 0.875 0.19278717
vt 0.875 0.392787069
vt 0.875 0.592787147
vt 0.75 -0.156311214
vt 0.708333254 -0.340237021
vt 0.791666627 0.0276146065
vt 0.833333313 0.211540386
vt 0.833333313 0.4115403
vt 0.833333313 0.611540377
vt 0.708333254 -0.140237018
vt 0.666666567 -0.315857828
vt 0.75 0.0436887965
vt 0.791666627 0.227614582
vt 0.791666687 0.42761448
vt 0.791666627 0.627614558
vt 0.666666508 -0.115857832
vt 0.624999881 -0.298444122
vt 0.708333254 0.0597629845
vt 0.75 0.243688777
vt 0.75 0.443688661
vt 0.75 0.643688738
vt 0.624999881 -0.0984441265
vt 0.583333254 -0.274064928
vt 0.666666508 0.0841421708
vt 0.708333254 0.259762973
vt 0.708333254 0.459762841
vt 0.708333254 0.659762919
vt 0.583333254 -0.0740649402
vt 0.541666567 -0.253168494
vt 0.624999881 0.101555876
vt 0.666666567 0.284142166
vt 0.666666508 0.484142035
vt 0.666666567 0.684142113
vt 0.541666567 -0.0531684943
vt 0.499999911 -0.235754788
vt 0.583333254 0.125935063
vt 0.624999881 0.301555872
vt 0.624999881 0.501555741
vt 0.624999881 0.701555789
vt 0.499999911 -0.0357547887
vt 0.458333254 -0.219680592
vt 0.541666567 0.146831512
vt 0.583333254 0.325935066
vt 0.583333254 0.525934935
vt 0.583333254 0.725934982
vt 0.458333254 -0.0196805988
vt 0.416666597 -0.198248342
vt 0.499999911 0.164245218
vt 0.541666567 0.346831501
vt 0.541666567 0.546831369
vt 0.541666567 0.746831417
vt 0.416666657 0.00175165385
vt 0.374999911 -0.182174146
vt 0.458333254 0.180319414
vt 0.499999911 0.364245206
vt 0.499999911 0.564245105
vt 0.499999911 0.764245152
vt 0.374999911 0.0178258438
vt 0.333333254 -0.163420931
vt 0.416666597 0.201751664
vt 0.458333254 0.380319387
vt 0.458333254 0.580319285
vt 0.458333254 0.780319333
vt 0.333333254 0.036579065
vt 0.291666597 -0.139309645
vt 0.374999911 0.21782586
vt 0.416666657 0.401751637
vt 0.416666597 0.601751566
vt 0.416666597 0.801751614
vt 0.291666597 0.0606903508
vt 0.24999994 -0.123235449
vt 0.333333254 0.236579075
vt 0.374999911 0.417825818
vt 0.374999911 0.617825747
vt 0.374999911 0.817825794
vt 0.24999994 0.0767645389
vt 0.208333284 -0.101803198
vt 0.291666627 0.260690361
vt 0.333333254 0.436579049
vt 0.333333254 0.636578977
vt 0.333333254 0.836579025
vt 0.208333284 0.0981967896
vt 0.166666627 -0.0776919127
vt 0.24999994 0.276764542
vt 0.291666597 0.460690349
vt 0.291666627 0.660690248
vt 0.291666627 0.860690296
vt 0.166666627 0.122308075
vt 0.12499997 -0.0562596619
vt 0.208333299 0.298196793
vt 0.24999994 0.47676453
vt 0.24999994 0.676764429
vt 0.24999994 0.876764476
vt 0.12499997 0.143740326
vt 0.0833333135 -0.0348274112
vt 0.166666627 0.322308064
vt 0.208333284 0.498196781
vt 0.208333284 0.698196709
vt 0.208333299 0.898196757
vt 0.0833333135 0.165172577
vt 0.0416666567 -0.0187532213
vt 0.12499997 0.343740314
vt 0.166666627 0.522308052
vt 0.166666627 0.72230798
vt 0.166666627 0.922308028
vt 0.0416666567 0.181246772
vt -5.96046448E-08 0
vt -5.96046448E-08 0.199999988
vt 0.0833333135 0.365172565
vt 0.12499997 0.543740332
vt 0.12499997 0.743740261
vt 0.12499997 0.943740308
vt 0.0416666567 0.381246746
vt -5.96046448E-08 0.399999976
vt 0.0833333135 0.565172613
vt 0.0833333135 0.765172541
vt 0.0833333135 0.965172589
vt 0.0416666567 0.581246793
vt -5.96046448E-08 0.600000024
vt 0.0416666567 0.781246722
vt 0.0416666567 0.981246769
vt -5.96046448E-08 0.799999952
vt -5.96046448E-08 1
vn 0.221540928 0.826802075 0.517028034
vn 1.37229762E-07 0.855968535 0.517027855
vn 1.49629642E-08 0.855968535 0.517027855
vn 0.221540943 0.826802135 0.517027915
vn 0.427984238 0.74129045 0.517027974
vn 1.24103451E-07 0.855968535 0.517027855
vn 0.427984267 0.741290569 0.517027855
vn 0.605261147 0.605261028 0.517027974
vn 0.221540898 0.826802135 0.517027855
vn 1.33649849E-07 0.855968535 0.517027974
vn 0.605261266 0.605261147 0.517027915
vn 0.74129045 0.427984327 0.517027974
vn 0.427984267 0.74129051 0.517027915
vn 0.221540898 0.826802135 0.517027974
vn 1.45582845E-07 0.855968535 0.517027855
vn 0.74129051 0.427984297 0.517027915
vn 0.826802075 0.221540928 0.517028034
vn 0.605261207 0.605261147 0.517027855
vn 0.427984238 0.74129051 0.517027974
vn 0.221540838 0.826802135 0.517027915
vn 1.37293288E-08 0.855968535 0.517027855
vn 0.221540913 0.826802135 0.517027915
vn 0.427984327 0.74129045 0.517027915
vn 0.427984327 0.74129045 0.517027915
vn 0.826802135 0.221541017 0.517027915
vn 0.855968535 -1.79555599E-07 0.517027855
vn 0.74129051 0.427984357 0.517027915
vn 0.605261147 0.605261147 0.517027974
vn 0.605261266 0.605261147 0.517027915
vn 0.605261266 0.605261147 0.517027855
vn 0.855968595 -3.81856751E-08 0.517027736
vn 0.826802075 -0.221541345 0.517027795
vn 0.826802135 0.221540973 0.517027855
vn 0.74129045 0.427984267 0.517027974
vn 0.74129045 0.427984327 0.517027974
vn 0.74129051 0.427984357 0.517027855
vn 0.826802075 -0.221541375 0.517027915
vn 0.741290212 -0.427984744 0.517027915
vn 0.855968535 -1.36036448E-07 0.517027855
vn 0.826802075 0.221541002 0.517027974
vn 0.826802135 0.221541062 0.517027915
vn 0.826802135 0.221541017 0.517027855
vn 0.741290271 -0.427984744 0.517027915
vn 0.60526073 -0.605261624 0.517027915
vn 0.826801956 -0.22154136 0.517027915
vn 0.855968535 -1.31263249E-07 0.517027974
vn 0.855968535 -1.26490036E-07 0.517027855
vn 0.855968535 -2.57424887E-07 0.517027855
vn 0.60526073 -0.605261624 0.517027855
vn 0.427983642 -0.741290748 0.517027915
vn 0.741290271 -0.427984744 0.517027915
vn 0.826801956 -0.22154136 0.517027974
vn 0.826802075 -0.221541241 0.517027855
vn 0.826802075 -0.22154139 0.517027855
vn 0.427983731 -0.741290748 0.517027855
vn 0.221540511 -0.826802194 0.517027855
vn 0.605260789 -0.605261564 0.517027915
vn 0.741290212 -0.427984685 0.517027974
vn 0.741290212 -0.427984744 0.517027974
vn 0.74129039 -0.427984655 0.517027855
vn 0.221540555 -0.826802194 0.517027855
vn -3.99012436E-07 -0.855968535 0.517027855
vn 0.42798382 -0.741290867 0.517027855
vn 0.60526067 -0.605261624 0.517027974
vn 0.605260789 -0.605261564 0.517027915
vn 0.60526067 -0.605261624 0.517027855
vn -4.59421358E-07 -0.855968535 0.517027855
vn -0.22154139 -0.826801956 0.517027915
vn 0.221540496 -0.826802194 0.517027855
vn 0.427983791 -0.741290748 0.517027915
vn 0.427983731 -0.741290748 0.517027915
vn 0.427983671 -0.741290927 0.517027855
vn -0.221541435 -0.826801956 0.517027915
vn -0.427984506 -0.74129039 0.517027915
vn -3.36511249E-07 -0.855968535 0.517027855
vn 0.221540585 -0.826802194 0.517027915
vn 0.221540451 -0.826802313 0.517027915
vn 0.22154057 -0.826802313 0.517027855
vn -0.427984506 -0.74129045 0.517027795
vn -0.605261445 -0.605260968 0.517027915
vn -0.221541345 -0.826802075 0.517027855
vn -4.4152182E-07 -0.855968535 0.517027974
vn -2.41046905E-07 -0.855968535 0.517027915
vn -4.21032695E-07 -0.855968595 0.517027795
vn -0.605261445 -0.605260968 0.517027855
vn -0.741290748 -0.42798382 0.517027795
vn -0.427984595 -0.74129039 0.517027855
vn -0.221541315 -0.826801956 0.517027915
vn -0.2215413 -0.826802075 0.517027915
vn -0.22154139 -0.826802075 0.517027915
vn -0.741290748 -0.42798391 0.517027736
vn -0.826802313 -0.221540645 0.517027795
vn -0.605261445 -0.605260909 0.517027915
vn -0.427984476 -0.741290331 0.517027974
vn -0.427984476 -0.74129039 0.517027855
vn -0.427984506 -0.74129039 0.517027795
vn -0.826802194 -0.221540585 0.517027855
vn -0.855968535 2.84296334E-07 0.517027855
vn -0.741290748 -0.42798382 0.517027915
vn -0.605261445 -0.605260849 0.517027974
vn -0.605261445 -0.605260849 0.517027915
vn -0.605261445 -0.605260849 0.517027855
vn -0.855968535 3.1264517E-07 0.517027855
vn -0.826802075 0.221541271 0.517027915
vn -0.826802194 -0.221540585 0.517027855
vn -0.741290629 -0.42798394 0.517027915
vn -0.741290748 -0.42798382 0.517027915
vn -0.741290748 -0.427983791 0.517027795
vn -0.826802075 0.221541226 0.517027915
vn -0.74129039 0.427984565 0.517027915
vn -0.855968535 2.24340809E-07 0.517027855
vn -0.826802135 -0.221540719 0.517027974
vn -0.826802194 -0.221540585 0.517027915
vn -0.826802194 -0.221540689 0.517027915
vn -0.74129045 0.427984506 0.517027795
vn -0.605261028 0.605261266 0.517027855
vn -0.826802075 0.221541226 0.517027915
vn -0.855968535 3.00712173E-07 0.517027974
vn -0.855968535 2.17180883E-07 0.517027915
vn -0.855968595 2.92892338E-07 0.517027795
vn -0.605261028 0.605261266 0.517027915
vn -0.427984118 0.741290569 0.517027855
vn -0.74129039 0.427984595 0.517027915
vn -0.826801956 0.221541181 0.517028034
vn -0.826802075 0.221541122 0.517027915
vn -0.826802075 0.221541196 0.517027855
vn -0.427984178 0.741290569 0.517027795
vn -0.221540868 0.826802135 0.517027855
vn -0.605260968 0.605261385 0.517027855
vn -0.741290331 0.427984595 0.517027974
vn -0.74129039 0.427984476 0.517027974
vn -0.74129039 0.427984506 0.517027855
vn -0.221540898 0.826802135 0.517027795
vn 1.49629642E-08 0.855968535 0.517027855
vn 1.37229762E-07 0.855968535 0.517027855
vn -0.427984267 0.741290569 0.517027855
vn -0.605260968 0.605261385 0.517027974
vn -0.605260968 0.605261266 0.517027915
vn -0.605260968 0.605261266 0.517027795
vn -0.221540824 0.826802135 0.517027855
vn 1.24103451E-07 0.855968535 0.517027855
vn -0.427984238 0.74129051 0.517027974
vn -0.427984267 0.74129051 0.517027915
vn -0.427984059 0.741290629 0.517027795
vn -0.221540868 0.826802135 0.517027974
vn 1.33649849E-07 0.855968535 0.517027974
vn -0.221540913 0.826802135 0.517027974
vn -0.221540794 0.826802135 0.517027855
vn 1.45582845E-07 0.855968535 0.517027855
vn 1.37293288E-08 0.855968535 0.517027855
g Cone001_0
f 3/3/3 2/2/2 1/1/1
f 2/2/2 4/4/4 1/1/1
f 1/1/1 4/4/4 5/5/5
f 2/2/2 6/6/6 4/4/4
f 4/4/4 7/7/7 5/5/5
f 5/5/5 7/7/7 8/8/8
f 6/6/6 9/9/9 4/4/4
f 4/4/4 9/9/9 7/7/7
f 6/6/6 10/10/10 9/9/9
f 7/7/7 11/11/11 8/8/8
f 8/8/8 11/11/11 12/12/12
f 9/9/9 13/13/13 7/7/7
f 7/7/7 13/13/13 11/11/11
f 10/10/10 14/14/14 9/9/9
f 9/9/9 14/14/14 13/13/13
f 10/10/10 15/15/15 14/14/14
f 11/11/11 16/16/16 12/12/12
f 12/12/12 16/16/16 17/17/17
f 13/13/13 18/18/18 11/11/11
f 11/11/11 18/18/18 16/16/16
f 14/14/14 19/19/19 13/13/13
f 13/13/13 19/19/19 18/18/18
f 15/15/15 20/20/20 14/14/14
f 14/14/14 20/20/20 19/19/19
f 15/15/15 21/21/21 20/20/20
f 21/21/21 22/22/22 20/20/20
f 20/20/20 22/22/22 23/23/23
f 20/20/20 23/23/23 19/19/19
f 22/22/22 24/24/24 23/23/23
f 16/16/16 25/25/25 17/17/17
f 17/17/17 25/25/25 26/26/26
f 18/18/18 27/27/27 16/16/16
f 16/16/16 27/27/27 25/25/25
f 19/19/19 28/28/28 18/18/18
f 19/19/19 23/23/23 28/28/28
f 18/18/18 28/28/28 27/27/27
f 23/23/23 24/24/24 29/29/29
f 23/23/23 29/29/29 28/28/28
f 24/24/24 30/30/30 29/29/29
f 25/25/25 31/31/31 26/26/26
f 26/26/26 31/31/31 32/32/32
f 27/27/27 33/33/33 25/25/25
f 25/25/25 33/33/33 31/31/31
f 28/28/28 34/34/34 27/27/27
f 28/28/28 29/29/29 34/34/34
f 27/27/27 34/34/34 33/33/33
f 29/29/29 30/30/30 35/35/35
f 29/29/29 35/35/35 34/34/34
f 30/30/30 36/36/36 35/35/35
f 31/31/31 37/37/37 32/32/32
f 32/32/32 37/37/37 38/38/38
f 33/33/33 39/39/39 31/31/31
f 31/31/31 39/39/39 37/37/37
f 34/34/34 40/40/40 33/33/33
f 34/34/34 35/35/35 40/40/40
f 33/33/33 40/40/40 39/39/39
f 35/35/35 36/36/36 41/41/41
f 35/35/35 41/41/41 40/40/40
f 36/36/36 42/42/42 41/41/41
f 37/37/37 43/43/43 38/38/38
f 38/38/38 43/43/43 44/44/44
f 39/39/39 45/45/45 37/37/37
f 37/37/37 45/45/45 43/43/43
f 40/40/40 46/46/46 39/39/39
f 40/40/40 41/41/41 46/46/46
f 39/39/39 46/46/46 45/45/45
f 41/41/41 42/42/42 47/47/47
f 41/41/41 47/47/47 46/46/46
f 42/42/42 48/48/48 47/47/47
f 43/43/43 49/49/49 44/44/44
f 44/44/44 49/49/49 50/50/50
f 45/45/45 51/51/51 43/43/43
f 43/43/43 51/51/51 49/49/49
f 46/46/46 52/52/52 45/45/45
f 46/46/46 47/47/47 52/52/52
f 45/45/45 52/52/52 51/51/51
f 47/47/47 48/48/48 53/53/53
f 47/47/47 53/53/53 52/52/52
f 48/48/48 54/54/54 53/53/53
f 49/49/49 55/55/55 50/50/50
f 50/50/50 55/55/55 56/56/56
f 51/51/51 57/57/57 49/49/49
f 49/49/49 57/57/57 55/55/55
f 52/52/52 58/58/58 51/51/51
f 52/52/52 53/53/53 58/58/58
f 51/51/51 58/58/58 57/57/57
f 53/53/53 54/54/54 59/59/59
f 53/53/53 59/59/59 58/58/58
f 54/54/54 60/60/60 59/59/59
f 55/55/55 61/61/61 56/56/56
f 56/56/56 61/61/61 62/62/62
f 57/57/57 63/63/63 55/55/55
f 55/55/55 63/63/63 61/61/61
f 58/58/58 64/64/64 57/57/57
f 58/58/58 59/59/59 64/64/64
f 57/57/57 64/64/64 63/63/63
f 59/59/59 60/60/60 65/65/65
f 59/59/59 65/65/65 64/64/64
f 60/60/60 66/66/66 65/65/65
f 61/61/61 67/67/67 62/62/62
f 62/62/62 67/67/67 68/68/68
f 63/63/63 69/69/69 61/61/61
f 61/61/61 69/69/69 67/67/67
f 64/64/64 70/70/70 63/63/63
f 64/64/64 65/65/65 70/70/70
f 63/63/63 70/70/70 69/69/69
f 65/65/65 66/66/66 71/71/71
f 65/65/65 71/71/71 70/70/70
f 66/66/66 72/72/72 71/71/71
f 67/67/67 73/73/73 68/68/68
f 68/68/68 73/73/73 74/74/74
f 69/69/69 75/75/75 67/67/67
f 67/67/67 75/75/75 73/73/73
f 70/70/70 76/76/76 69/69/69
f 70/70/70 71/71/71 76/76/76
f 69/69/69 76/76/76 75/75/75
f 71/71/71 72/72/72 77/77/77
f 71/71/71 77/77/77 76/76/76
f 72/72/72 78/78/78 77/77/77
f 73/73/73 79/79/79 74/74/74
f 74/74/74 79/79/79 80/80/80
f 75/75/75 81/81/81 73/73/73
f 73/73/73 81/81/81 79/79/79
f 76/76/76 82/82/82 75/75/75
f 76/76/76 77/77/77 82/82/82
f 75/75/75 82/82/82 81/81/81
f 77/77/77 78/78/78 83/83/83
f 77/77/77 83/83/83 82/82/82
f 78/78/78 84/84/84 83/83/83
f 79/79/79 85/85/85 80/80/80
f 80/80/80 85/85/85 86/86/86
f 81/81/81 87/87/87 79/79/79
f 79/79/79 87/87/87 85/85/85
f 82/82/82 88/88/88 81/81/81
f 82/82/82 83/83/83 88/88/88
f 81/81/81 88/88/88 87/87/87
f 83/83/83 84/84/84 89/89/89
f 83/83/83 89/89/89 88/88/88
f 84/84/84 90/90/90 89/89/89
f 85/85/85 91/91/91 86/86/86
f 86/86/86 91/91/91 92/92/92
f 87/87/87 93/93/93 85/85/85
f 85/85/85 93/93/93 91/91/91
f 88/88/88 94/94/94 87/87/87
f 88/88/88 89/89/89 94/94/94
f 87/87/87 94/94/94 93/93/93
f 89/89/89 90/90/90 95/95/95
f 89/89/89 95/95/95 94/94/94
f 90/90/90 96/96/96 95/95/95
f 91/91/91 97/97/97 92/92/92
f 92/92/92 97/97/97 98/98/98
f 93/93/93 99/99/99 91/91/91
f 91/91/91 99/99/99 97/97/97
f 94/94/94 100/100/100 93/93/93
f 94/94/94 95/95/95 100/100/100
f 93/93/93 100/100/100 99/99/99
f 95/95/95 96/96/96 101/101/101
f 95/95/95 101/101/101 100/100/100
f 96/96/96 102/102/102 101/101/101
f 97/97/97 103/103/103 98/98/98
f 98/98/98 103/103/103 104/104/104
f 99/99/99 105/105/105 97/97/97
f 97/97/97 105/105/105 103/103/103
f 100/100/100 106/106/106 99/99/99
f 100/100/100 101/101/101 106/106/106
f 99/99/99 106/106/106 105/105/105
f 101/101/101 102/102/102 107/107/107
f 101/101/101 107/107/107 106/106/106
f 102/102/102 108/108/108 107/107/107
f 103/103/103 109/109/109 104/104/104
f 104/104/104 109/109/109 110/110/110
f 105/105/105 111/111/111 103/103/103
f 103/103/103 111/111/111 109/109/109
f 106/106/106 112/112/112 105/105/105
f 106/106/106 107/107/107 112/112/112
f 105/105/105 112/112/112 111/111/111
f 107/107/107 108/108/108 113/113/113
f 107/107/107 113/113/113 112/112/112
f 108/108/108 114/114/114 113/113/113
f 109/109/109 115/115/115 110/110/110
f 110/110/110 115/115/115 116/116/116
f 111/111/111 117/117/117 109/109/109
f 109/109/109 117/117/117 115/115/115
f 112/112/112 118/118/118 111/111/111
f 112/112/112 113/113/113 118/118/118
f 111/111/111 118/118/118 117/117/117
f 113/113/113 114/114/114 119/119/119
f 113/113/113 119/119/119 118/118/118
f 114/114/114 120/120/120 119/119/119
f 115/115/115 121/121/121 116/116/116
f 116/116/116 121/121/121 122/122/122
f 117/117/117 123/123/123 115/115/115
f 115/115/115 123/123/123 121/121/121
f 118/118/118 124/124/124 117/117/117
f 118/118/118 119/119/119 124/124/124
f 117/117/117 124/124/124 123/123/123
f 119/119/119 120/120/120 125/125/125
f 119/119/119 125/125/125 124/124/124
f 120/120/120 126/126/126 125/125/125
f 121/121/121 127/127/127 122/122/122
f 122/122/122 127/127/127 128/128/128
f 123/123/123 129/129/129 121/121/121
f 121/121/121 129/129/129 127/127/127
f 124/124/124 130/130/130 123/123/123
f 124/124/124 125/125/125 130/130/130
f 123/123/123 130/130/130 129/129/129
f 125/125/125 126/126/126 131/131/131
f 125/125/125 131/131/131 130/130/130
f 126/126/126 132/132/132 131/131/131
f 127/127/127 133/133/133 128/128/128
f 128/128/128 133/133/133 134/134/134
f 133/133/133 135/135/135 134/134/134
f 129/129/129 136/136/136 127/127/127
f 127/127/127 136/136/136 133/133/133
f 130/130/130 137/137/137 129/129/129
f 130/130/130 131/131/131 137/137/137
f 129/129/129 137/137/137 136/136/136
f 131/131/131 132/132/132 138/138/138
f 131/131/131 138/138/138 137/137/137
f 132/132/132 139/139/139 138/138/138
f 133/133/133 140/140/140 135/135/135
f 136/136/136 140/140/140 133/133/133
f 140/140/140 141/141/141 135/135/135
f 137/137/137 142/142/142 136/136/136
f 137/137/137 138/138/138 142/142/142
f 136/136/136 142/142/142 140/140/140
f 138/138/138 139/139/139 143/143/143
f 138/138/138 143/143/143 142/142/142
f 139/139/139 144/144/144 143/143/143
f 140/140/140 145/145/145 141/141/141
f 142/142/142 145/145/145 140/140/140
f 142/142/142 143/143/143 145/145/145
f 145/145/145 146/146/146 141/141/141
f 143/143/143 144/144/144 147/147/147
f 143/143/143 147/147/147 145/145/145
f 145/145/145 147/147/147 146/146/146
f 144/144/144 148/148/148 147/147/147
f 147/147/147 149/149/149 146/146/146
f 147/147/147 148/148/148 149/149/149
f 148/148/148 150/150/150 149/149/149
