g Plane002
v 0.414923906 0.262970656 -1.52524781
v 0.414923906 0.19088313 -1.59770751
v 0.398264587 0.181591645 -1.4442867
v 0.398264587 0.109504104 -1.5167464
v 0.381605327 0.100212671 -1.36332583
v 0.381605327 0.028125139 -1.43578565
v 0.365314603 0.0187947769 -1.28232813
v 0.364577502 -0.053215012 -1.35486138
v 0.34400931 -0.0602964461 -1.20185959
v 0.339433163 -0.133111253 -1.27344227
v 0.305730015 -0.130479977 -1.12303162
v 0.295342624 -0.206557617 -1.19049501
v 0.251107872 -0.189825088 -1.04340684
v 0.235244557 -0.267025352 -1.10848761
v 0.18569997 -0.231788397 -0.96641016
v 0.159468532 -0.312024355 -1.02403951
v 0.113157697 -0.256351054 -0.890557826
v 0.0734086484 -0.337298602 -0.938667476
v 0.0341396555 -0.258673072 -0.812307358
v -0.0141398469 -0.337452143 -0.856010735
v -0.0384188779 -0.239901289 -0.737971306
v -0.102425203 -0.312950462 -0.769815326
v -0.101824753 -0.201210156 -0.664466977
v -0.180713296 -0.263418913 -0.683273911
v -0.149880603 -0.144955769 -0.591647506
v -0.240649208 -0.19167529 -0.596684992
v -0.176595807 -0.0758708566 -0.519385219
v -0.274484783 -0.103866637 -0.51038444
v -0.177239269 -0.00124439748 -0.447593808
v -0.276533931 -0.00935136713 -0.424749166
v -0.150669143 0.0653556064 -0.379953146
v -0.241521806 0.0830008984 -0.336577237
v -0.0945479423 0.119272806 -0.308915138
v -0.175040677 0.150423571 -0.254164994
v -0.019889731 0.140603572 -0.241447076
v -0.0824940652 0.181822181 -0.171957821
v 0.0584687106 0.118289858 -0.176250875
v 0.0133320484 0.159548223 -0.0943517983
v 0.111395344 0.0433799624 -0.114622846
v 0.0726720542 0.0829385072 -0.0287004765
v 0.0769232586 -0.0563265644 -0.0833136141
v 0.0393609442 -0.0176076423 0.00350201479
v -0.414923847 -0.262971222 -1.52524769
v -0.414923847 -0.190883711 -1.59770739
v -0.398264557 -0.181592166 -1.44428658
v -0.398264557 -0.109504662 -1.5167464
v -0.381605297 -0.100213178 -1.36332583
v -0.381605327 -0.0281256661 -1.43578565
v -0.365314603 -0.01879525 -1.28232813
v -0.364577502 0.0532145128 -1.35486138
v -0.34400931 0.0602959991 -1.20185959
v -0.339433193 0.133110791 -1.27344227
v -0.305730015 0.130479559 -1.12303162
v -0.295342654 0.206557184 -1.19049513
v -0.251107901 0.189824715 -1.04340684
v -0.235244602 0.267024964 -1.10848761
v -0.185699999 0.231788054 -0.966410279
v -0.159468576 0.312023997 -1.02403963
v -0.113157734 0.256350726 -0.890557945
v -0.0734086931 0.337298274 -0.938667595
v -0.0341396928 0.258672804 -0.812307417
v 0.0141397947 0.337451845 -0.856010795
v 0.0384188406 0.239901051 -0.737971425
v 0.102425158 0.312950253 -0.769815385
v 0.101824716 0.201209947 -0.664467037
v 0.180713251 0.263418704 -0.683273971
v 0.149880573 0.144955605 -0.591647565
v 0.240649194 0.191675127 -0.596685052
v 0.176595792 0.0758707151 -0.519385219
v 0.274484783 0.103866503 -0.51038444
v 0.177239269 0.00124427828 -0.447593808
v 0.276533931 0.0093512712 -0.424749166
v 0.150669158 -0.0653557107 -0.379953146
v 0.241521835 -0.0830009729 -0.336577237
v 0.0945479572 -0.119272888 -0.308915138
v 0.175040707 -0.150423631 -0.254164904
v 0.0198897533 -0.140603647 -0.241447076
v 0.082494095 -0.18182224 -0.171957716
v -0.058468692 -0.118289933 -0.176250875
v -0.0133320242 -0.159548268 -0.0943517014
v -0.111395329 -0.043380022 -0.114622846
v -0.0726720393 -0.0829385296 -0.0287004765
v -0.0769232661 0.0563265197 -0.0833136141
v -0.0393609479 0.0176076349 0.00350201479
vt 1 0
vt 0 0
vt 1 0.0500000007
vt 0 0.0500000007
vt 1 0.100000001
vt 0 0.100000001
vt 1 0.150000006
vt 0 0.150000006
vt 1 0.200000003
vt 0 0.200000003
vt 1 0.25
vt 0 0.25
vt 1 0.300000012
vt 0 0.300000012
vt 1 0.350000024
vt 0 0.350000024
vt 1 0.400000036
vt 0 0.400000036
vt 1 0.450000048
vt 0 0.450000048
vt 1 0.50000006
vt 0 0.50000006
vt 1 0.550000072
vt 0 0.550000072
vt 1 0.600000083
vt 0 0.600000083
vt 1 0.650000095
vt 0 0.650000095
vt 1 0.700000107
vt 0 0.700000107
vt 1 0.750000119
vt 0 0.750000119
vt 1 0.800000131
vt 0 0.800000131
vt 1 0.850000143
vt 0 0.850000143
vt 1 0.900000155
vt 0 0.900000155
vt 1 0.950000167
vt 0 0.950000167
vt 1 1.00000012
vt 0 1.00000012
vt 1 0
vt 0 0
vt 1 0.0500000007
vt 0 0.0500000007
vt 1 0.100000001
vt 0 0.100000001
vt 1 0.150000006
vt 0 0.150000006
vt 1 0.200000003
vt 0 0.200000003
vt 1 0.25
vt 0 0.25
vt 1 0.300000012
vt 0 0.300000012
vt 1 0.350000024
vt 0 0.350000024
vt 1 0.400000036
vt 0 0.400000036
vt 1 0.450000048
vt 0 0.450000048
vt 1 0.50000006
vt 0 0.50000006
vt 1 0.550000072
vt 0 0.550000072
vt 1 0.600000083
vt 0 0.600000083
vt 1 0.650000095
vt 0 0.650000095
vt 1 0.700000107
vt 0 0.700000107
vt 1 0.750000119
vt 0 0.750000119
vt 1 0.800000131
vt 0 0.800000131
vt 1 0.850000143
vt 0 0.850000143
vt 1 0.900000155
vt 0 0.900000155
vt 1 0.950000167
vt 0 0.950000167
vt 1 1.00000012
vt 0 1.00000012
vn 0.989632726 -0.101816788 0.101293713
vn 0.989632726 -0.101816766 0.10129372
vn 0.989632726 -0.101816662 0.101293638
vn 0.989632726 -0.101816662 0.101293646
vn 0.989861965 -0.10069029 0.100173056
vn 0.989649892 -0.10290771 0.100015715
vn 0.986300588 -0.120835267 0.112293705
vn 0.984779775 -0.133432567 0.111375473
vn 0.961230755 -0.216815829 0.170371071
vn 0.956798792 -0.236945286 0.168501988
vn 0.902556002 -0.343024045 0.260244638
vn 0.894735694 -0.363224804 0.259837866
vn 0.819512188 -0.453404993 0.35046196
vn 0.810180008 -0.47084254 0.349164337
vn 0.724127889 -0.537238896 0.432450235
vn 0.709759712 -0.555050433 0.433774412
vn 0.616859913 -0.596240044 0.513791502
vn 0.598073423 -0.611715376 0.51779592
vn 0.508289754 -0.628035009 0.58924824
vn 0.491951644 -0.638958633 0.591367483
vn 0.418670028 -0.637841344 0.646431506
vn 0.399871886 -0.645101964 0.651111305
vn 0.346943378 -0.635003924 0.690217555
vn 0.326642662 -0.637990832 0.697332203
vn 0.296062112 -0.633934379 0.714474916
vn 0.276591659 -0.632419229 0.723562658
vn 0.26031217 -0.650988519 0.713057995
vn 0.242876679 -0.645065427 0.724500895
vn 0.221823439 -0.699816763 0.679007173
vn 0.208425298 -0.689037263 0.694108367
vn 0.149110928 -0.778616786 0.6095258
vn 0.138680741 -0.770021558 0.622763515
vn 0.000313500961 -0.875468791 0.483274519
vn -5.03789342E-05 -0.861153543 0.508344889
vn -0.252658069 -0.919248104 0.301905274
vn -0.248480678 -0.910422087 0.330740184
vn -0.603828549 -0.795265734 0.0542541444
vn -0.607634425 -0.790590346 0.0758106187
vn -0.91441071 -0.272153944 -0.299642056
vn -0.919964373 -0.267391354 -0.286648571
vn -0.877041876 0.151951045 -0.455750406
vn -0.881688476 0.148688123 -0.447791487
vn -0.989632726 0.101816654 0.101293564
vn -0.989632726 0.101816632 0.101293564
vn -0.989632726 0.101816595 0.101293549
vn -0.989632726 0.101816535 0.101293549
vn -0.989861965 0.100690104 0.100173034
vn -0.989649892 0.102907501 0.100015685
vn -0.986300588 0.12083523 0.112293661
vn -0.984779775 0.133432522 0.111375451
vn -0.961230874 0.21681565 0.170371026
vn -0.956798911 0.236945122 0.168501973
vn -0.902556002 0.343024075 0.260244519
vn -0.894735694 0.363224864 0.259837717
vn -0.819512367 0.453404903 0.350461841
vn -0.810180187 0.470842391 0.349164188
vn -0.724127948 0.537238896 0.432450145
vn -0.709759712 0.555050433 0.433774292
vn -0.616859913 0.596240103 0.513791263
vn -0.598073423 0.611715376 0.517795742
vn -0.508289874 0.628035069 0.589248002
vn -0.491951793 0.638958693 0.591367245
vn -0.418670446 0.637841403 0.646431386
vn -0.399872184 0.645101905 0.651111066
vn -0.346943408 0.635004103 0.690217435
vn -0.326642632 0.637991071 0.697332025
vn -0.296062231 0.633934677 0.714474618
vn -0.276591808 0.632419527 0.72356236
vn -0.260312259 0.650988519 0.713057816
vn -0.242876783 0.645065606 0.724500656
vn -0.221823618 0.699816883 0.679007113
vn -0.208425403 0.689037383 0.694108248
vn -0.149111062 0.778616965 0.60952574
vn -0.138680905 0.770021796 0.622763216
vn -0.000313859724 0.875469089 0.483274102
vn 5.00409769E-05 0.861153901 0.508344173
vn 0.252657741 0.919248402 0.301904768
vn 0.24848038 0.910422266 0.330739647
vn 0.603828311 0.795265913 0.0542538725
vn 0.607634366 0.790590405 0.0758102536
vn 0.914410591 0.272154123 -0.299642026
vn 0.919964314 0.267391503 -0.286648631
vn 0.877041936 -0.15195097 -0.455750376
vn 0.881688535 -0.148688003 -0.447791487
g Plane002_0
f 3/3/3 2/2/2 1/1/1
f 2/2/2 3/3/3 4/4/4
f 5/5/5 4/4/4 3/3/3
f 4/4/4 5/5/5 6/6/6
f 7/7/7 6/6/6 5/5/5
f 6/6/6 7/7/7 8/8/8
f 9/9/9 8/8/8 7/7/7
f 8/8/8 9/9/9 10/10/10
f 11/11/11 10/10/10 9/9/9
f 10/10/10 11/11/11 12/12/12
f 13/13/13 12/12/12 11/11/11
f 12/12/12 13/13/13 14/14/14
f 15/15/15 14/14/14 13/13/13
f 14/14/14 15/15/15 16/16/16
f 17/17/17 16/16/16 15/15/15
f 16/16/16 17/17/17 18/18/18
f 19/19/19 18/18/18 17/17/17
f 18/18/18 19/19/19 20/20/20
f 21/21/21 20/20/20 19/19/19
f 20/20/20 21/21/21 22/22/22
f 23/23/23 22/22/22 21/21/21
f 22/22/22 23/23/23 24/24/24
f 25/25/25 24/24/24 23/23/23
f 24/24/24 25/25/25 26/26/26
f 27/27/27 26/26/26 25/25/25
f 26/26/26 27/27/27 28/28/28
f 29/29/29 28/28/28 27/27/27
f 28/28/28 29/29/29 30/30/30
f 31/31/31 30/30/30 29/29/29
f 30/30/30 31/31/31 32/32/32
f 33/33/33 32/32/32 31/31/31
f 32/32/32 33/33/33 34/34/34
f 35/35/35 34/34/34 33/33/33
f 34/34/34 35/35/35 36/36/36
f 37/37/37 36/36/36 35/35/35
f 36/36/36 37/37/37 38/38/38
f 39/39/39 38/38/38 37/37/37
f 38/38/38 39/39/39 40/40/40
f 41/41/41 40/40/40 39/39/39
f 40/40/40 41/41/41 42/42/42
f 45/45/45 44/44/44 43/43/43
f 44/44/44 45/45/45 46/46/46
f 47/47/47 46/46/46 45/45/45
f 46/46/46 47/47/47 48/48/48
f 49/49/49 48/48/48 47/47/47
f 48/48/48 49/49/49 50/50/50
f 51/51/51 50/50/50 49/49/49
f 50/50/50 51/51/51 52/52/52
f 53/53/53 52/52/52 51/51/51
f 52/52/52 53/53/53 54/54/54
f 55/55/55 54/54/54 53/53/53
f 54/54/54 55/55/55 56/56/56
f 57/57/57 56/56/56 55/55/55
f 56/56/56 57/57/57 58/58/58
f 59/59/59 58/58/58 57/57/57
f 58/58/58 59/59/59 60/60/60
f 61/61/61 60/60/60 59/59/59
f 60/60/60 61/61/61 62/62/62
f 63/63/63 62/62/62 61/61/61
f 62/62/62 63/63/63 64/64/64
f 65/65/65 64/64/64 63/63/63
f 64/64/64 65/65/65 66/66/66
f 67/67/67 66/66/66 65/65/65
f 66/66/66 67/67/67 68/68/68
f 69/69/69 68/68/68 67/67/67
f 68/68/68 69/69/69 70/70/70
f 71/71/71 70/70/70 69/69/69
f 70/70/70 71/71/71 72/72/72
f 73/73/73 72/72/72 71/71/71
f 72/72/72 73/73/73 74/74/74
f 75/75/75 74/74/74 73/73/73
f 74/74/74 75/75/75 76/76/76
f 77/77/77 76/76/76 75/75/75
f 76/76/76 77/77/77 78/78/78
f 79/79/79 78/78/78 77/77/77
f 78/78/78 79/79/79 80/80/80
f 81/81/81 80/80/80 79/79/79
f 80/80/80 81/81/81 82/82/82
f 83/83/83 82/82/82 81/81/81
f 82/82/82 83/83/83 84/84/84
