g general_ring_57_2
v 1.58921267E-08 0.230969757 -0.124291807
v 0.045060005 0.226531863 -0.120730601
v 0.0478354469 0.240484938 -0.101516731
v -0 0.245196328 -0.109090842
v 6.80461909E-08 0.20786719 -0.138892546
v 0.0405529365 0.203873292 -0.138892546
v 0.045060005 0.226531863 -0.120730601
v 1.58921267E-08 0.230969757 -0.124291807
v -0 0.245196328 -0.109090842
v 0.0478354469 0.240484938 -0.101516731
v 0.0487725958 0.245196313 -0.0823980272
v -0 0.25 -0.0939790756
v 0.0478354469 0.240484938 -0.101516731
v 0.0938325971 0.226531833 -0.0931676626
v 0.0956708863 0.230969861 -0.0696349069
v 0.0487725958 0.245196313 -0.0823980272
v 0.045060005 0.226531863 -0.120730601
v 0.0883883759 0.213388339 -0.116809666
v 0.0938325971 0.226531833 -0.0931676626
v 0.0478354469 0.240484938 -0.101516731
v 0.0405529365 0.203873292 -0.138892546
v 0.0795474425 0.192044422 -0.138892546
v 0.0883883759 0.213388339 -0.116809666
v 0.045060005 0.226531863 -0.120730601
v 0.0938325971 0.226531833 -0.0931676626
v 0.136223808 0.203873247 -0.0840478241
v 0.138892606 0.207867369 -0.0557005182
v 0.0956708863 0.230969861 -0.0696349069
v 0.0883883759 0.213388339 -0.116809666
v 0.128320023 0.192044422 -0.112529762
v 0.136223808 0.203873247 -0.0840478241
v 0.0938325971 0.226531833 -0.0931676626
v 0.0795474425 0.192044422 -0.138892546
v 0.115484983 0.17283541 -0.138892546
v 0.128320023 0.192044422 -0.112529762
v 0.0883883759 0.213388339 -0.116809666
v 0.128320023 0.192044422 -0.112529762
v 0.163320407 0.163320348 -0.107891664
v 0.173380017 0.173379928 -0.0741612017
v 0.136223808 0.203873247 -0.0840478241
v 0.115484983 0.17283541 -0.138892546
v 0.146984503 0.146984413 -0.138892546
v 0.163320407 0.163320348 -0.107891664
v 0.128320023 0.192044422 -0.112529762
v 0.136223808 0.203873247 -0.0840478241
v 0.173380017 0.173379928 -0.0741612017
v 0.176776752 0.176776648 -0.0406047069
v 0.138892606 0.207867369 -0.0557005182
v 0.173380017 0.173379928 -0.0741612017
v 0.203873321 0.136223704 -0.0635112822
v 0.207867458 0.138892502 -0.024357222
v 0.176776752 0.176776648 -0.0406047069
v 0.163320407 0.163320348 -0.107891664
v 0.192044482 0.128319964 -0.10289605
v 0.203873321 0.136223704 -0.0635112822
v 0.173380017 0.173379928 -0.0741612017
v 0.146984503 0.146984413 -0.138892546
v 0.172835484 0.115484901 -0.138892546
v 0.192044482 0.128319964 -0.10289605
v 0.163320407 0.163320348 -0.107891664
v 0.192044482 0.128319964 -0.10289605
v 0.213388383 0.0883883089 -0.0977371931
v 0.226531878 0.0938324779 -0.0521017909
v 0.203873321 0.136223704 -0.0635112822
v 0.172835484 0.115484901 -0.138892546
v 0.192044497 0.0795473531 -0.138892546
v 0.213388383 0.0883883089 -0.0977371931
v 0.192044482 0.128319964 -0.10289605
v 0.203873321 0.136223704 -0.0635112822
v 0.226531878 0.0938324779 -0.0521017909
v 0.230969936 0.095670782 -0.00696678087
v 0.207867458 0.138892502 -0.024357222
v 0.226531878 0.0938324779 -0.0521017909
v 0.240733027 0.0476699546 -0.0399359874
v 0.247107804 0.0474982113 0.0115648285
v 0.230969936 0.095670782 -0.00696678087
v 0.213388383 0.0883883089 -0.0977371931
v 0.226531893 0.045059938 -0.0923746526
v 0.240733027 0.0476699546 -0.0399359874
v 0.226531878 0.0938324779 -0.0521017909
v 0.192044497 0.0795473531 -0.138892546
v 0.203873336 0.0405528396 -0.138892546
v 0.226531893 0.045059938 -0.0923746526
v 0.213388383 0.0883883089 -0.0977371931
v 0.203873336 0.0405528396 -0.138892546
v 0.207867444 -8.81776359E-08 -0.138892546
v 0.231651798 -0.000454647379 -0.0866908804
v 0.226531893 0.045059938 -0.0923746526
v 0.240733027 0.0476699546 -0.0399359874
v 0.248252839 -0.00203778222 -0.0281332992
v 0.257096887 -0.0047313231 0.0312229395
v 0.247107804 0.0474982113 0.0115648285
v 0.226531893 0.045059938 -0.0923746526
v 0.231651798 -0.000454647379 -0.0866908804
v 0.248252839 -0.00203778222 -0.0281332992
v 0.240733027 0.0476699546 -0.0399359874
v 0.248252839 -0.00203778222 -0.0281332992
v 0.249037325 -0.0535371266 -0.0157013312
v 0.258392066 -0.0575698167 0.0520011336
v 0.257096887 -0.0047313231 0.0312229395
v 0.231651798 -0.000454647379 -0.0866908804
v 0.228409514 -0.0463117994 -0.0806862861
v 0.249037325 -0.0535371266 -0.0157013312
v 0.248252839 -0.00203778222 -0.0281332992
v 0.207867444 -8.81776359E-08 -0.138892546
v 0.203873321 -0.0405530035 -0.138892546
v 0.228409514 -0.0463117994 -0.0806862861
v 0.231651798 -0.000454647379 -0.0866908804
v 0.203873321 -0.0405530035 -0.138892546
v 0.192044675 -0.0795476586 -0.138892546
v 0.216778487 -0.0906484649 -0.0743612126
v 0.228409514 -0.0463117994 -0.0806862861
v 0.249037325 -0.0535371266 -0.0157013312
v 0.238257527 -0.101649784 -0.00262551894
v 0.246822342 -0.106239237 0.0616290979
v 0.258392066 -0.0575698167 0.0520011336
v 0.228409514 -0.0463117994 -0.0806862861
v 0.216778487 -0.0906484649 -0.0743612126
v 0.238257527 -0.101649784 -0.00262551894
v 0.249037325 -0.0535371266 -0.0157013312
v 0.238257527 -0.101649784 -0.00262551894
v 0.21383746 -0.142866641 -0.00171265856
v 0.219604939 -0.163583383 0.0670976341
v 0.246822342 -0.106239237 0.0616290979
v 0.216778487 -0.0906484649 -0.0743612126
v 0.194718391 -0.130102664 -0.0677159652
v 0.21383746 -0.142866641 -0.00171265856
v 0.238257527 -0.101649784 -0.00262551894
v 0.192044675 -0.0795476586 -0.138892546
v 0.172835439 -0.115485035 -0.138892546
v 0.194718391 -0.130102664 -0.0677159652
v 0.216778487 -0.0906484649 -0.0743612126
v 0.21383746 -0.142866641 -0.00171265856
v 0.176941663 -0.185604557 -0.000924870721
v 0.181121856 -0.213896379 0.0739856809
v 0.219604939 -0.163583383 0.0670976341
v 0.194718391 -0.130102664 -0.0677159652
v 0.176941663 -0.185604557 -0.000924870721
v 0.21383746 -0.142866641 -0.00171265856
v 0.164726824 -0.164258063 -0.0699560791
v 0.172835439 -0.115485035 -0.138892546
v 0.146984443 -0.146984547 -0.138892546
v 0.176941663 -0.185604557 -0.000924870721
v 0.136352926 -0.228279263 0.000517364591
v 0.139109194 -0.259781659 0.0824677199
v 0.181121856 -0.213896379 0.0739856809
v 0.164726824 -0.164258063 -0.0699560791
v 0.128320023 -0.192044526 -0.0734109655
v 0.136352926 -0.228279263 0.000517364591
v 0.176941663 -0.185604557 -0.000924870721
v 0.146984443 -0.146984547 -0.138892546
v 0.115484931 -0.172835514 -0.141710833
v 0.128320023 -0.192044526 -0.0734109655
v 0.164726824 -0.164258063 -0.0699560791
v 0.136352926 -0.228279263 0.000517364591
v 0.0938325375 -0.265353769 0.00332318619
v 0.0956708491 -0.300483525 0.0926402509
v 0.139109194 -0.259781659 0.0824677199
v 0.128320023 -0.192044526 -0.0734109655
v 0.0883883685 -0.225460738 -0.0781966671
v 0.0938325375 -0.265353769 0.00332318619
v 0.136352926 -0.228279263 0.000517364591
v 0.115484931 -0.172835514 -0.141710833
v 0.0795473903 -0.192044511 -0.145169124
v 0.0883883685 -0.225460738 -0.0781966671
v 0.128320023 -0.192044526 -0.0734109655
v 0.0938325375 -0.265353769 0.00332318619
v 0.0478354022 -0.294842601 0.00668700784
v 0.0487725623 -0.332657605 0.10458646
v 0.0956708491 -0.300483525 0.0926402509
v 0.0883883685 -0.225460738 -0.0781966671
v 0.045060005 -0.243882418 -0.0755069181
v 0.0478354022 -0.294842601 0.00668700784
v 0.0938325375 -0.265353769 0.00332318619
v 0.0795473903 -0.192044511 -0.145169124
v 0.0405528918 -0.203873336 -0.147930652
v 0.045060005 -0.243882418 -0.0755069181
v 0.0883883685 -0.225460738 -0.0781966671
v 0.0478354022 -0.294842601 0.00668700784
v -2.1360778E-08 -0.307998091 0.0179905519
v -2.50860683E-08 -0.354594916 0.112585336
v 0.0487725623 -0.332657605 0.10458646
v 0.045060005 -0.243882418 -0.0755069181
v 1.58921249E-08 -0.253499478 -0.0716781616
v -2.1360778E-08 -0.307998091 0.0179905519
v 0.0478354022 -0.294842601 0.00668700784
v 0.0405528918 -0.203873336 -0.147930652
v 1.58921249E-08 -0.253499478 -0.0716781616
v -2.1360778E-08 -0.207867429 -0.150176302
vt 0.988769531 0.343261719
vt 0.927246094 0.343261719
vt 0.927246094 0.669433594
vt 0.988769531 0.669433594
vt 0.988769531 0.0112304688
vt 0.927246094 0.0170898438
vt 0.927246094 0.343261719
vt 0.988769531 0.343261719
vt 0.988769531 0.669433594
vt 0.927246094 0.669433594
vt 0.927246094 0.995605469
vt 0.988769531 0.995605469
vt 0.927246094 0.669433594
vt 0.866699219 0.669433594
vt 0.866699219 0.979980469
vt 0.927246094 0.995605469
vt 0.927246094 0.343261719
vt 0.866699219 0.343261719
vt 0.866699219 0.669433594
vt 0.927246094 0.669433594
vt 0.927246094 0.0170898438
vt 0.866699219 0.0170898438
vt 0.866699219 0.343261719
vt 0.927246094 0.343261719
vt 0.866699219 0.669433594
vt 0.805175781 0.669433594
vt 0.805175781 0.962402344
vt 0.866699219 0.979980469
vt 0.866699219 0.343261719
vt 0.805175781 0.343261719
vt 0.805175781 0.669433594
vt 0.866699219 0.669433594
vt 0.866699219 0.0170898438
vt 0.805175781 0.0170898438
vt 0.805175781 0.343261719
vt 0.866699219 0.343261719
vt 0.805175781 0.343261719
vt 0.744628906 0.343261719
vt 0.744628906 0.669433594
vt 0.805175781 0.669433594
vt 0.805175781 0.0170898438
vt 0.744628906 0.0170898438
vt 0.744628906 0.343261719
vt 0.805175781 0.343261719
vt 0.805175781 0.669433594
vt 0.744628906 0.669433594
vt 0.744628906 0.943847656
vt 0.805175781 0.962402344
vt 0.744628906 0.669433594
vt 0.683105469 0.669433594
vt 0.683105469 0.926269531
vt 0.744628906 0.943847656
vt 0.744628906 0.343261719
vt 0.683105469 0.343261719
vt 0.683105469 0.669433594
vt 0.744628906 0.669433594
vt 0.744628906 0.0170898438
vt 0.683105469 0.0170898438
vt 0.683105469 0.343261719
vt 0.744628906 0.343261719
vt 0.683105469 0.343261719
vt 0.622558594 0.343261719
vt 0.622558594 0.661621094
vt 0.683105469 0.669433594
vt 0.683105469 0.0170898438
vt 0.622558594 0.0170898438
vt 0.622558594 0.343261719
vt 0.683105469 0.343261719
vt 0.683105469 0.669433594
vt 0.622558594 0.661621094
vt 0.622558594 0.908691406
vt 0.683105469 0.926269531
vt 0.622558594 0.661621094
vt 0.561035156 0.643066406
vt 0.561035156 0.891113281
vt 0.622558594 0.908691406
vt 0.622558594 0.343261719
vt 0.561035156 0.343261719
vt 0.561035156 0.643066406
vt 0.622558594 0.661621094
vt 0.622558594 0.0170898438
vt 0.561035156 0.0170898438
vt 0.561035156 0.343261719
vt 0.622558594 0.343261719
vt 0.561035156 0.0170898438
vt 0.499511719 0.0170898438
vt 0.499511719 0.343261719
vt 0.561035156 0.343261719
vt 0.561035156 0.643066406
vt 0.499511719 0.625488281
vt 0.499511719 0.872558594
vt 0.561035156 0.891113281
vt 0.561035156 0.343261719
vt 0.499511719 0.343261719
vt 0.499511719 0.625488281
vt 0.561035156 0.643066406
vt 0.499511719 0.625488281
vt 0.438964844 0.607910156
vt 0.438964844 0.854980469
vt 0.499511719 0.872558594
vt 0.499511719 0.343261719
vt 0.438964844 0.343261719
vt 0.438964844 0.607910156
vt 0.499511719 0.625488281
vt 0.499511719 0.0170898438
vt 0.438964844 0.0170898438
vt 0.438964844 0.343261719
vt 0.499511719 0.343261719
vt 0.438964844 0.0170898438
vt 0.377441406 0.0170898438
vt 0.377441406 0.342285156
vt 0.438964844 0.343261719
vt 0.438964844 0.607910156
vt 0.377441406 0.589355469
vt 0.377441406 0.837402344
vt 0.438964844 0.854980469
vt 0.438964844 0.343261719
vt 0.377441406 0.342285156
vt 0.377441406 0.589355469
vt 0.438964844 0.607910156
vt 0.377441406 0.589355469
vt 0.316894531 0.571777344
vt 0.316894531 0.818847656
vt 0.377441406 0.837402344
vt 0.377441406 0.342285156
vt 0.316894531 0.324707031
vt 0.316894531 0.571777344
vt 0.377441406 0.589355469
vt 0.377441406 0.0170898438
vt 0.316894531 0.0170898438
vt 0.316894531 0.324707031
vt 0.377441406 0.342285156
vt 0.316894531 0.571777344
vt 0.255371094 0.554199219
vt 0.255371094 0.801269531
vt 0.316894531 0.818847656
vt 0.316894531 0.324707031
vt 0.255371094 0.554199219
vt 0.316894531 0.571777344
vt 0.255371094 0.307128906
vt 0.316894531 0.0170898438
vt 0.255371094 0.0170898438
vt 0.255371094 0.554199219
vt 0.194824219 0.536621094
vt 0.194824219 0.783691406
vt 0.255371094 0.801269531
vt 0.255371094 0.307128906
vt 0.194824219 0.289550781
vt 0.194824219 0.536621094
vt 0.255371094 0.554199219
vt 0.255371094 0.0170898438
vt 0.194824219 0.0170898438
vt 0.194824219 0.289550781
vt 0.255371094 0.307128906
vt 0.194824219 0.536621094
vt 0.133300781 0.518066406
vt 0.133300781 0.766113281
vt 0.194824219 0.783691406
vt 0.194824219 0.289550781
vt 0.133300781 0.271972656
vt 0.133300781 0.518066406
vt 0.194824219 0.536621094
vt 0.194824219 0.0170898438
vt 0.133300781 0.0170898438
vt 0.133300781 0.271972656
vt 0.194824219 0.289550781
vt 0.133300781 0.518066406
vt 0.0727539062 0.500488281
vt 0.0727539062 0.747558594
vt 0.133300781 0.766113281
vt 0.133300781 0.271972656
vt 0.0727539062 0.270019531
vt 0.0727539062 0.500488281
vt 0.133300781 0.518066406
vt 0.133300781 0.0170898438
vt 0.0727539062 0.0170898438
vt 0.0727539062 0.270019531
vt 0.133300781 0.271972656
vt 0.0727539062 0.500488281
vt 0.0112304688 0.499511719
vt 0.0112304688 0.729980469
vt 0.0727539062 0.747558594
vt 0.0727539062 0.270019531
vt 0.0112304688 0.268066406
vt 0.0112304688 0.499511719
vt 0.0727539062 0.500488281
vt 0.0727539062 0.0170898438
vt 0.0112304688 0.268066406
vt 0.0112304688 0.0170898438
vn 0.150685981 0.758888602 -0.633547068
vn 0.150685981 0.758888602 -0.633547068
vn 0.150685981 0.758888602 -0.633547068
vn 0.150685981 0.758888602 -0.633547068
vn 0.0903751478 0.573851407 -0.813957512
vn 0.0903751478 0.573851407 -0.813957512
vn 0.0903751478 0.573851407 -0.813957512
vn 0.0903751478 0.573851407 -0.813957512
vn 0.147024661 0.951954067 -0.268639475
vn 0.147024661 0.951954067 -0.268639475
vn 0.147024661 0.951954067 -0.268639475
vn 0.147024661 0.951954067 -0.268639475
vn 0.328407109 0.918917656 -0.21849297
vn 0.328407109 0.918917656 -0.21849297
vn 0.328407109 0.918917656 -0.21849297
vn 0.328407109 0.918917656 -0.21849297
vn 0.310721606 0.775338531 -0.549820125
vn 0.310721606 0.775338531 -0.549820125
vn 0.310721606 0.775338531 -0.549820125
vn 0.310721606 0.775338531 -0.549820125
vn 0.223870173 0.61991924 -0.752052128
vn 0.223870173 0.61991924 -0.752052128
vn 0.223870173 0.61991924 -0.752052128
vn 0.223870173 0.61991924 -0.752052128
vn 0.501086175 0.846241951 -0.181072041
vn 0.501086175 0.846241951 -0.181072041
vn 0.501086175 0.846241951 -0.181072041
vn 0.501086175 0.846241951 -0.181072041
vn 0.473544627 0.74091506 -0.476235509
vn 0.473544627 0.74091506 -0.476235509
vn 0.473544627 0.74091506 -0.476235509
vn 0.473544627 0.74091506 -0.476235509
vn 0.371893913 0.623151839 -0.688023746
vn 0.371893913 0.623151839 -0.688023746
vn 0.371893913 0.623151839 -0.688023746
vn 0.371893913 0.623151839 -0.688023746
vn 0.625928164 0.661298096 -0.413399041
vn 0.625928164 0.661298096 -0.413399041
vn 0.625928164 0.661298096 -0.413399041
vn 0.625928164 0.661298096 -0.413399041
vn 0.52076304 0.581427038 -0.625098825
vn 0.52076304 0.581427038 -0.625098825
vn 0.52076304 0.581427038 -0.625098825
vn 0.52076304 0.581427038 -0.625098825
vn 0.65681839 0.738461971 -0.152524143
vn 0.65681839 0.738461971 -0.152524143
vn 0.65681839 0.738461971 -0.152524143
vn 0.65681839 0.738461971 -0.152524143
vn 0.788814843 0.600662947 -0.130288824
vn 0.788814843 0.600662947 -0.130288824
vn 0.788814843 0.600662947 -0.130288824
vn 0.788814843 0.600662947 -0.130288824
vn 0.75785464 0.543792725 -0.36048013
vn 0.75785464 0.543792725 -0.36048013
vn 0.75785464 0.543792725 -0.36048013
vn 0.75785464 0.543792725 -0.36048013
vn 0.657831669 0.497381896 -0.56556952
vn 0.657831669 0.497381896 -0.56556952
vn 0.657831669 0.497381896 -0.56556952
vn 0.657831669 0.497381896 -0.56556952
vn 0.861820042 0.397156686 -0.31548816
vn 0.861820042 0.397156686 -0.31548816
vn 0.861820042 0.397156686 -0.31548816
vn 0.861820042 0.397156686 -0.31548816
vn 0.771683991 0.377678066 -0.511725545
vn 0.771683991 0.377678066 -0.511725545
vn 0.771683991 0.377678066 -0.511725545
vn 0.771683991 0.377678066 -0.511725545
vn 0.891566277 0.438657254 -0.112647302
vn 0.891566277 0.438657254 -0.112647302
vn 0.891566277 0.438657254 -0.112647302
vn 0.891566277 0.438657254 -0.112647302
vn 0.956042469 0.271140367 -0.11165005
vn 0.956042469 0.271140367 -0.11165005
vn 0.956042469 0.271140367 -0.11165005
vn 0.956042469 0.271140367 -0.11165005
vn 0.93231988 0.23025915 -0.278855532
vn 0.93231988 0.23025915 -0.278855532
vn 0.93231988 0.23025915 -0.278855532
vn 0.93231988 0.23025915 -0.278855532
vn 0.855502129 0.229270399 -0.464275032
vn 0.855502129 0.229270399 -0.464275032
vn 0.855502129 0.229270399 -0.464275032
vn 0.855502129 0.229270399 -0.464275032
vn 0.901748002 0.0672912821 -0.426992416
vn 0.901748002 0.0672912821 -0.426992416
vn 0.901748002 0.0672912821 -0.426992416
vn 0.901748002 0.0672912821 -0.426992416
vn 0.982972443 0.128211662 -0.131631896
vn 0.982972443 0.128211662 -0.131631896
vn 0.982972443 0.128211662 -0.131631896
vn 0.982972443 0.128211662 -0.131631896
vn 0.960431576 0.0784093365 -0.267251432
vn 0.960431576 0.0784093365 -0.267251432
vn 0.960431576 0.0784093365 -0.267251432
vn 0.960431576 0.0784093365 -0.267251432
vn 0.989374757 -0.025821574 -0.143076345
vn 0.989374757 -0.025821574 -0.143076345
vn 0.989374757 -0.025821574 -0.143076345
vn 0.989374757 -0.025821574 -0.143076345
vn 0.952860236 -0.0795044452 -0.292807639
vn 0.952860236 -0.0795044452 -0.292807639
vn 0.952860236 -0.0795044452 -0.292807639
vn 0.952860236 -0.0795044452 -0.292807639
vn 0.908954561 -0.104171067 -0.403670758
vn 0.908954561 -0.104171067 -0.403670758
vn 0.908954561 -0.104171067 -0.403670758
vn 0.908954561 -0.104171067 -0.403670758
vn 0.878007829 -0.276817739 -0.390479267
vn 0.878007829 -0.276817739 -0.390479267
vn 0.878007829 -0.276817739 -0.390479267
vn 0.878007829 -0.276817739 -0.390479267
vn 0.955766857 -0.255068272 -0.146457925
vn 0.955766857 -0.255068272 -0.146457925
vn 0.955766857 -0.255068272 -0.146457925
vn 0.955766857 -0.255068272 -0.146457925
vn 0.904489756 -0.285710305 -0.316651046
vn 0.904489756 -0.285710305 -0.316651046
vn 0.904489756 -0.285710305 -0.316651046
vn 0.904489756 -0.285710305 -0.316651046
vn 0.866138697 -0.465555102 -0.181829855
vn 0.866138697 -0.465555102 -0.181829855
vn 0.866138697 -0.465555102 -0.181829855
vn 0.866138697 -0.465555102 -0.181829855
vn 0.80657208 -0.494996488 -0.323140562
vn 0.80657208 -0.494996488 -0.323140562
vn 0.80657208 -0.494996488 -0.323140562
vn 0.80657208 -0.494996488 -0.323140562
vn 0.802693665 -0.471575618 -0.365101725
vn 0.802693665 -0.471575618 -0.365101725
vn 0.802693665 -0.471575618 -0.365101725
vn 0.802693665 -0.471575618 -0.365101725
vn 0.739030838 -0.620345175 -0.262688875
vn 0.739030838 -0.620345175 -0.262688875
vn 0.739030838 -0.620345175 -0.262688875
vn 0.739030838 -0.620345175 -0.262688875
vn 0.717192233 -0.617775202 -0.322473377
vn 0.717192233 -0.617775202 -0.322473377
vn 0.717192233 -0.617775202 -0.322473377
vn 0.717192233 -0.617775202 -0.322473377
vn 0.721738935 -0.60223186 -0.341188639
vn 0.721738935 -0.60223186 -0.341188639
vn 0.684571385 -0.670547962 -0.28587997
vn 0.684571385 -0.670547962 -0.28587997
vn 0.684571385 -0.670547962 -0.28587997
vn 0.684571385 -0.670547962 -0.28587997
vn 0.633821368 -0.682187796 -0.364541262
vn 0.633821368 -0.682187796 -0.364541262
vn 0.633821368 -0.682187796 -0.364541262
vn 0.633821368 -0.682187796 -0.364541262
vn 0.604067504 -0.72643739 -0.327705741
vn 0.604067504 -0.72643739 -0.327705741
vn 0.604067504 -0.72643739 -0.327705741
vn 0.604067504 -0.72643739 -0.327705741
vn 0.614646852 -0.729415357 -0.300270498
vn 0.614646852 -0.729415357 -0.300270498
vn 0.614646852 -0.729415357 -0.300270498
vn 0.614646852 -0.729415357 -0.300270498
vn 0.603131473 -0.694453597 -0.392385811
vn 0.603131473 -0.694453597 -0.392385811
vn 0.603131473 -0.694453597 -0.392385811
vn 0.603131473 -0.694453597 -0.392385811
vn 0.555147588 -0.741240919 -0.377323538
vn 0.555147588 -0.741240919 -0.377323538
vn 0.555147588 -0.741240919 -0.377323538
vn 0.555147588 -0.741240919 -0.377323538
vn 0.485687107 -0.812032521 -0.323590994
vn 0.485687107 -0.812032521 -0.323590994
vn 0.485687107 -0.812032521 -0.323590994
vn 0.485687107 -0.812032521 -0.323590994
vn 0.395018756 -0.794712782 -0.460859776
vn 0.395018756 -0.794712782 -0.460859776
vn 0.395018756 -0.794712782 -0.460859776
vn 0.395018756 -0.794712782 -0.460859776
vn 0.305440843 -0.830110908 -0.466499299
vn 0.305440843 -0.830110908 -0.466499299
vn 0.305440843 -0.830110908 -0.466499299
vn 0.305440843 -0.830110908 -0.466499299
vn 0.244414538 -0.887601078 -0.390417516
vn 0.244414538 -0.887601078 -0.390417516
vn 0.244414538 -0.887601078 -0.390417516
vn 0.244414538 -0.887601078 -0.390417516
vn 0.12236546 -0.845040739 -0.520512104
vn 0.12236546 -0.845040739 -0.520512104
vn 0.12236546 -0.845040739 -0.520512104
vn 0.12236546 -0.845040739 -0.520512104
vn 0.127774388 -0.860957026 -0.49236849
vn 0.127774388 -0.860957026 -0.49236849
vn 0.127774388 -0.860957026 -0.49236849
g general_ring_57_2_0
f 3/3/3 2/2/2 1/1/1
f 4/4/4 3/3/3 1/1/1
f 7/7/7 6/6/6 5/5/5
f 8/8/8 7/7/7 5/5/5
f 11/11/11 10/10/10 9/9/9
f 12/12/12 11/11/11 9/9/9
f 15/15/15 14/14/14 13/13/13
f 16/16/16 15/15/15 13/13/13
f 19/19/19 18/18/18 17/17/17
f 20/20/20 19/19/19 17/17/17
f 23/23/23 22/22/22 21/21/21
f 24/24/24 23/23/23 21/21/21
f 27/27/27 26/26/26 25/25/25
f 28/28/28 27/27/27 25/25/25
f 31/31/31 30/30/30 29/29/29
f 32/32/32 31/31/31 29/29/29
f 35/35/35 34/34/34 33/33/33
f 36/36/36 35/35/35 33/33/33
f 39/39/39 38/38/38 37/37/37
f 40/40/40 39/39/39 37/37/37
f 43/43/43 42/42/42 41/41/41
f 44/44/44 43/43/43 41/41/41
f 47/47/47 46/46/46 45/45/45
f 48/48/48 47/47/47 45/45/45
f 51/51/51 50/50/50 49/49/49
f 52/52/52 51/51/51 49/49/49
f 55/55/55 54/54/54 53/53/53
f 56/56/56 55/55/55 53/53/53
f 59/59/59 58/58/58 57/57/57
f 60/60/60 59/59/59 57/57/57
f 63/63/63 62/62/62 61/61/61
f 64/64/64 63/63/63 61/61/61
f 67/67/67 66/66/66 65/65/65
f 68/68/68 67/67/67 65/65/65
f 71/71/71 70/70/70 69/69/69
f 72/72/72 71/71/71 69/69/69
f 75/75/75 74/74/74 73/73/73
f 76/76/76 75/75/75 73/73/73
f 79/79/79 78/78/78 77/77/77
f 80/80/80 79/79/79 77/77/77
f 83/83/83 82/82/82 81/81/81
f 84/84/84 83/83/83 81/81/81
f 87/87/87 86/86/86 85/85/85
f 88/88/88 87/87/87 85/85/85
f 91/91/91 90/90/90 89/89/89
f 92/92/92 91/91/91 89/89/89
f 95/95/95 94/94/94 93/93/93
f 96/96/96 95/95/95 93/93/93
f 99/99/99 98/98/98 97/97/97
f 100/100/100 99/99/99 97/97/97
f 103/103/103 102/102/102 101/101/101
f 104/104/104 103/103/103 101/101/101
f 107/107/107 106/106/106 105/105/105
f 108/108/108 107/107/107 105/105/105
f 111/111/111 110/110/110 109/109/109
f 112/112/112 111/111/111 109/109/109
f 115/115/115 114/114/114 113/113/113
f 116/116/116 115/115/115 113/113/113
f 119/119/119 118/118/118 117/117/117
f 120/120/120 119/119/119 117/117/117
f 123/123/123 122/122/122 121/121/121
f 124/124/124 123/123/123 121/121/121
f 127/127/127 126/126/126 125/125/125
f 128/128/128 127/127/127 125/125/125
f 131/131/131 130/130/130 129/129/129
f 132/132/132 131/131/131 129/129/129
f 135/135/135 134/134/134 133/133/133
f 136/136/136 135/135/135 133/133/133
f 139/139/139 138/138/138 137/137/137
f 138/138/138 140/140/140 137/137/137
f 137/137/137 140/140/140 141/141/141
f 140/140/140 142/142/142 141/141/141
f 145/145/145 144/144/144 143/143/143
f 146/146/146 145/145/145 143/143/143
f 149/149/149 148/148/148 147/147/147
f 150/150/150 149/149/149 147/147/147
f 153/153/153 152/152/152 151/151/151
f 154/154/154 153/153/153 151/151/151
f 157/157/157 156/156/156 155/155/155
f 158/158/158 157/157/157 155/155/155
f 161/161/161 160/160/160 159/159/159
f 162/162/162 161/161/161 159/159/159
f 165/165/165 164/164/164 163/163/163
f 166/166/166 165/165/165 163/163/163
f 169/169/169 168/168/168 167/167/167
f 170/170/170 169/169/169 167/167/167
f 173/173/173 172/172/172 171/171/171
f 174/174/174 173/173/173 171/171/171
f 177/177/177 176/176/176 175/175/175
f 178/178/178 177/177/177 175/175/175
f 181/181/181 180/180/180 179/179/179
f 182/182/182 181/181/181 179/179/179
f 185/185/185 184/184/184 183/183/183
f 186/186/186 185/185/185 183/183/183
f 183/183/183 188/188/188 187/187/187
f 188/188/188 189/189/189 187/187/187
