g Cone001
v 0.213678375 0.331791967 0
v 0.383920759 0.332669228 0.127000004
v 0.191960379 0.360803843 0
v 0.42735675 0.274645537 0.127000004
v 0.231046498 0.299984604 0
v 0.462092996 0.211030811 0.127000004
v 0.243711188 0.266029298 0
v 0.487422377 0.14312014 0.127000004
v 0.251414627 0.230617225 0
v 0.502829254 0.0722959712 0.127000004
v 0.254000008 0.194469228 0
v 0.508000016 0 0.127000004
v 0.251414686 0.158321723 0
v 0.502829492 -0.0722949579 0.127000004
v 0.243711337 0.122909598 0
v 0.487422675 -0.14311929 0.127000004
v 0.231046692 0.0889541656 0
v 0.462093383 -0.211030111 0.127000004
v 0.213678569 0.0571467541 0
v 0.427357137 -0.274644971 0.127000004
v 0.191960573 0.0281348135 0
v 0.383921146 -0.332668871 0.127000004
v 0.166334808 0.00250900374 0
v 0.332669705 -0.383920461 0.127000004
v 0.137322962 -0.0192090496 0
v 0.274645925 -0.427356571 0.127000004
v 0.105515555 -0.0365772247 0
v 0.211031109 -0.462092906 0.127000004
v 0.0715601668 -0.0492419563 0
v 0.143120334 -0.487422377 0.127000004
v 0.0361479856 -0.0569454096 0
v 0.0722960234 -0.502829254 0.127000004
v -0 -0.0595307648 0
v -0 -0.508000016 0.127000004
v -0.036148034 -0.0569454581 0
v -0.0722960234 -0.502829254 0.127000004
v -0.0715601668 -0.0492419563 0
v -0.143120334 -0.487422377 0.127000004
v -0.105515577 -0.0365772732 0
v -0.211031079 -0.462092966 0.127000004
v -0.137322962 -0.0192090981 0
v -0.274645835 -0.427356601 0.127000004
v -0.166334808 0.00250900374 0
v -0.332669616 -0.383920491 0.127000004
v -0.191960543 0.0281348135 0
v -0.383921087 -0.3326689 0.126999989
v -0.213678524 0.0571466573 0
v -0.427357048 -0.274645209 0.126999989
v -0.231046602 0.0889539719 0
v -0.462093204 -0.211030483 0.127000004
v -0.243711263 0.12290936 0
v -0.487422526 -0.143119782 0.127000004
v -0.251414657 0.158321336 0
v -0.502829313 -0.0722955838 0.127000004
v -0.254000008 0.194469422 0
v -0.508000016 2.90679935E-07 0.127000004
v -0.251414627 0.230617315 0
v -0.502829254 0.0722962171 0.127000004
v -0.243711159 0.266029388 0
v -0.487422317 0.143120378 0.127000004
v -0.231046483 0.299984783 0
v -0.462092966 0.211031005 0.127000004
v -0.21367833 0.331792146 0
v -0.42735666 0.274645776 0.127000004
v -0.19196032 0.360803932 0
v -0.38392064 0.332669407 0.127000004
vt 0.970730066 0
vt 1.0019896 1
vt 1.0019896 0
vt 0.970730066 1
vt 0.93947041 0
vt 0.93947041 1
vt 0.908210874 0
vt 0.908210874 1
vt 0.876951337 0
vt 0.876951337 1
vt 0.845691681 0
vt 0.845691681 1
vt 0.814432561 0
vt 0.814432561 1
vt 0.783172905 0
vt 0.783172905 1
vt 0.751913369 0
vt 0.751913369 1
vt 0.720653832 0
vt 0.720653832 1
vt 0.689394116 0
vt 0.689394116 1
vt 0.65813452 0
vt 0.65813452 1
vt 0.626874983 0
vt 0.626874983 1
vt 0.595615387 0
vt 0.595615387 1
vt 0.564355731 0
vt 0.564355731 1
vt 0.533096135 0
vt 0.533096135 1
vt 0.501836538 0
vt 0.501836538 1
vt 0.470576942 0
vt 0.470576942 1
vt 0.439317346 0
vt 0.439317346 1
vt 0.408057749 0
vt 0.408057749 1
vt 0.376798153 0
vt 0.376798153 1
vt 0.345538437 0
vt 0.345538437 1
vt 0.31427893 0
vt 0.31427893 1
vt 0.283019453 0
vt 0.283019453 1
vt 0.251759827 0
vt 0.251759827 1
vt 0.22050029 0
vt 0.22050029 1
vt 0.189240754 0
vt 0.189240754 1
vt 0.157981187 0
vt 0.157981187 1
vt 0.12672168 0
vt 0.12672168 1
vt 0.0954620838 0
vt 0.0954620838 1
vt 0.0642025471 0
vt 0.0642025471 1
vt 0.0329429954 0
vt 0.0329429954 1
vt 0.00168342888 0
vt 0.00168342888 1
vn 0.545654833 0.376831263 -0.74850446
vn 0.544638276 0.407711089 -0.73289901
vn 0.544638216 0.407711118 -0.732898951
vn 0.545937598 0.328011543 -0.770947874
vn 0.541437447 0.269161344 -0.796490729
vn 0.534464002 0.225102633 -0.814663768
vn 0.52195096 0.171610266 -0.835533977
vn 0.510261655 0.133981884 -0.849518716
vn 0.491918087 0.0861993805 -0.866363883
vn 0.477739602 0.055347506 -0.876756191
vn 0.455220461 0.0131654441 -0.890281379
vn 0.440214306 -0.0113581233 -0.89782095
vn 0.414709777 -0.04829273 -0.908671379
vn 0.399986923 -0.0673032925 -0.914046347
vn 0.372316629 -0.099437207 -0.922763526
vn 0.358558387 -0.113843895 -0.92653954
vn 0.329264551 -0.141627744 -0.933555841
vn 0.316852301 -0.152293637 -0.936168373
vn 0.286276042 -0.176134408 -0.941818833
vn 0.275399059 -0.183818161 -0.943592191
vn 0.243737251 -0.204057544 -0.948131084
vn 0.234468162 -0.209401444 -0.949302793
vn 0.201814413 -0.226307794 -0.952919543
vn 0.194161445 -0.22984615 -0.953662515
vn 0.160535216 -0.243611977 -0.956494391
vn 0.154474631 -0.245788351 -0.956935525
vn 0.119840622 -0.256530732 -0.959077835
vn 0.115337253 -0.257717222 -0.959311783
vn 0.0796183944 -0.265477687 -0.960823834
vn 0.0766381025 -0.265993327 -0.960923672
vn 0.0397250243 -0.270736188 -0.961833656
vn 0.0382417999 -0.270863295 -0.961857915
vn -0 -0.272470951 -0.962164044
vn -0 -0.272470951 -0.962163925
vn -0.0397250615 -0.270736217 -0.961833656
vn -0.0382418297 -0.270863324 -0.961857915
vn -0.079618372 -0.265477717 -0.960823834
vn -0.0766381174 -0.265993357 -0.960923553
vn -0.119840607 -0.256530732 -0.959077835
vn -0.1153372 -0.257717252 -0.959311783
vn -0.16053535 -0.243611977 -0.956494391
vn -0.154474765 -0.245788381 -0.956935525
vn -0.201814353 -0.226307869 -0.952919543
vn -0.19416143 -0.229846165 -0.953662515
vn -0.243736908 -0.204057708 -0.948131204
vn -0.234467924 -0.209401578 -0.949302793
vn -0.286275983 -0.176134422 -0.941818833
vn -0.27539891 -0.183818221 -0.94359225
vn -0.329264432 -0.141627923 -0.933555841
vn -0.316852331 -0.152293697 -0.936168373
vn -0.372316331 -0.0994375944 -0.922763646
vn -0.358558148 -0.113844261 -0.9265396
vn -0.414709568 -0.0482930392 -0.908671379
vn -0.399986714 -0.0673036277 -0.914046407
vn -0.45522061 0.0131655419 -0.89028132
vn -0.440214306 -0.0113582229 -0.89782089
vn -0.491918176 0.0861995295 -0.866363764
vn -0.477739751 0.0553477332 -0.876756132
vn -0.521950901 0.171610191 -0.835534096
vn -0.510261655 0.133981913 -0.849518597
vn -0.541437626 0.269161493 -0.796490669
vn -0.534464002 0.225102589 -0.814663768
vn -0.545654774 0.3768318 -0.748504221
vn -0.545937657 0.3280119 -0.770947635
vn -0.544638097 0.407711595 -0.732898653
vn -0.544638097 0.407711625 -0.732898712
g Cone001_0
f 3/3/3 2/2/2 1/1/1
f 2/2/2 4/4/4 1/1/1
f 1/1/1 4/4/4 5/5/5
f 4/4/4 6/6/6 5/5/5
f 5/5/5 6/6/6 7/7/7
f 6/6/6 8/8/8 7/7/7
f 7/7/7 8/8/8 9/9/9
f 8/8/8 10/10/10 9/9/9
f 9/9/9 10/10/10 11/11/11
f 10/10/10 12/12/12 11/11/11
f 11/11/11 12/12/12 13/13/13
f 12/12/12 14/14/14 13/13/13
f 13/13/13 14/14/14 15/15/15
f 14/14/14 16/16/16 15/15/15
f 15/15/15 16/16/16 17/17/17
f 16/16/16 18/18/18 17/17/17
f 17/17/17 18/18/18 19/19/19
f 18/18/18 20/20/20 19/19/19
f 19/19/19 20/20/20 21/21/21
f 20/20/20 22/22/22 21/21/21
f 21/21/21 22/22/22 23/23/23
f 22/22/22 24/24/24 23/23/23
f 23/23/23 24/24/24 25/25/25
f 24/24/24 26/26/26 25/25/25
f 25/25/25 26/26/26 27/27/27
f 26/26/26 28/28/28 27/27/27
f 27/27/27 28/28/28 29/29/29
f 28/28/28 30/30/30 29/29/29
f 29/29/29 30/30/30 31/31/31
f 30/30/30 32/32/32 31/31/31
f 31/31/31 32/32/32 33/33/33
f 32/32/32 34/34/34 33/33/33
f 33/33/33 34/34/34 35/35/35
f 34/34/34 36/36/36 35/35/35
f 35/35/35 36/36/36 37/37/37
f 36/36/36 38/38/38 37/37/37
f 37/37/37 38/38/38 39/39/39
f 38/38/38 40/40/40 39/39/39
f 39/39/39 40/40/40 41/41/41
f 40/40/40 42/42/42 41/41/41
f 41/41/41 42/42/42 43/43/43
f 42/42/42 44/44/44 43/43/43
f 43/43/43 44/44/44 45/45/45
f 44/44/44 46/46/46 45/45/45
f 45/45/45 46/46/46 47/47/47
f 46/46/46 48/48/48 47/47/47
f 47/47/47 48/48/48 49/49/49
f 48/48/48 50/50/50 49/49/49
f 49/49/49 50/50/50 51/51/51
f 50/50/50 52/52/52 51/51/51
f 51/51/51 52/52/52 53/53/53
f 52/52/52 54/54/54 53/53/53
f 53/53/53 54/54/54 55/55/55
f 54/54/54 56/56/56 55/55/55
f 55/55/55 56/56/56 57/57/57
f 56/56/56 58/58/58 57/57/57
f 57/57/57 58/58/58 59/59/59
f 58/58/58 60/60/60 59/59/59
f 59/59/59 60/60/60 61/61/61
f 60/60/60 62/62/62 61/61/61
f 61/61/61 62/62/62 63/63/63
f 62/62/62 64/64/64 63/63/63
f 63/63/63 64/64/64 65/65/65
f 64/64/64 66/66/66 65/65/65
