g Cone005
v 0.0395642072 0.173342183 0
v 0.0379628427 0.506579518 0.101599999
v 0.0132869948 0.177302837 0
v 0.113040589 0.495263368 0.101599999
v 0.0649576262 0.165509343 0
v 0.185593218 0.47288388 0.101599999
v 0.0888999924 0.153979316 0
v 0.253999978 0.439940929 0.101599999
v 0.110856473 0.13900964 0
v 0.316732794 0.397170395 0.101599999
v 0.130336612 0.120934717 0
v 0.37239033 0.345527798 0.101599999
v 0.146905258 0.100158311 0
v 0.419729263 0.286166608 0.101599999
v 0.160192251 0.0771445334 0
v 0.457692176 0.220412955 0.101599999
v 0.169900849 0.0524074733 0
v 0.485430986 0.149735644 0.101599999
v 0.175814122 0.0264997184 0
v 0.502326012 0.0757134706 0.101599999
v 0.1778 0 0
v 0.508000016 0 0.101599999
v 0.175814047 -0.0265001692 0
v 0.502325892 -0.075714767 0.101599999
v 0.169900715 -0.0524078906 0
v 0.485430598 -0.149736837 0.101599999
v 0.160192087 -0.0771449134 0
v 0.45769164 -0.220414042 0.101599999
v 0.14690502 -0.100158639 0
v 0.419728637 -0.286167562 0.101599999
v 0.130336359 -0.120935 0
v 0.372389585 -0.345528573 0.101599999
v 0.11085619 -0.139009878 0
v 0.316731989 -0.39717105 0.101599999
v 0.0888996869 -0.153979495 0
v 0.253999114 -0.439941406 0.101599999
v 0.0649573207 -0.165509477 0
v 0.185592338 -0.472884208 0.101599999
v 0.0395639092 -0.173342258 0
v 0.113039747 -0.495263577 0.101599999
v 0.0132867089 -0.177302867 0
v 0.0379620232 -0.506579578 0.101599999
v -0.0132872956 -0.177302808 0
v -0.0379637033 -0.506579459 0.101599999
v -0.0395644829 -0.173342124 0
v -0.113041379 -0.495263219 0.101599999
v -0.0649578646 -0.165509254 0
v -0.185593918 -0.472883582 0.101599999
v -0.088900201 -0.153979182 0
v -0.254000574 -0.439940572 0.101599999
v -0.110856652 -0.139009506 0
v -0.316733301 -0.397170007 0.101599999
v -0.130336747 -0.120934561 0
v -0.372390747 -0.345527321 0.101599999
v -0.146905348 -0.100158155 0
v -0.41972962 -0.286166161 0.101599999
v -0.160192326 -0.0771443844 0
v -0.457692415 -0.220412508 0.101599999
v -0.169900879 -0.0524073243 0
v -0.485431075 -0.149735227 0.101599999
v -0.175814137 -0.026499588 0
v -0.502326131 -0.0757131055 0.101599999
v -0.1778 1.11628701E-07 0
v -0.508000016 3.18939129E-07 0.101599999
v -0.175814107 0.026499806 0
v -0.502326012 0.0757137313 0.101599999
v -0.16990082 0.0524075441 0
v -0.485430926 0.149735838 0.101599999
v -0.160192236 0.0771445781 0
v -0.457692116 0.220413089 0.101599999
v -0.146905228 0.100158349 0
v -0.419729233 0.286166698 0.101599999
v -0.130336598 0.120934732 0
v -0.3723903 0.345527828 0.101599999
v -0.110856481 0.13900964 0
v -0.316732824 0.397170395 0.101599999
v -0.0889000148 0.153979316 0
v -0.254000008 0.43994087 0.101599999
v -0.064957656 0.165509343 0
v -0.185593307 0.472883821 0.101599999
v -0.0395642444 0.173342183 0
v -0.113040701 0.495263368 0.101599999
v -0.0132870311 0.177302822 0
v -0.037962947 0.506579518 0.101599999
v 0.0132869948 0.177302837 0
v 0.0379628427 0.506579518 0.101599999
vt 0.964285672 0
vt 0.988095224 1
vt 0.988095224 0
vt 0.964285672 1
vt 0.940476179 0
vt 0.940476179 1
vt 0.916666627 0
vt 0.916666687 1
vt 0.892857194 0
vt 0.892857194 1
vt 0.869047582 0
vt 0.869047582 1
vt 0.84523809 0
vt 0.84523809 1
vt 0.821428597 0
vt 0.821428597 1
vt 0.797619045 0
vt 0.797619045 1
vt 0.773809552 0
vt 0.773809552 1
vt 0.75 0
vt 0.75 1
vt 0.72619009 0
vt 0.72619009 1
vt 0.702380538 0
vt 0.702380538 1
vt 0.678571105 0
vt 0.678571105 1
vt 0.654761553 0
vt 0.654761493 1
vt 0.630952001 0
vt 0.630952001 1
vt 0.607142508 0
vt 0.607142508 1
vt 0.583333015 0
vt 0.583333015 1
vt 0.559523523 0
vt 0.559523523 1
vt 0.535713971 0
vt 0.535713971 1
vt 0.511904478 0
vt 0.511904478 1
vt 0.488094985 0
vt 0.488094985 1
vt 0.464285463 0
vt 0.464285463 1
vt 0.440475971 0
vt 0.440475971 1
vt 0.416666448 0
vt 0.416666508 1
vt 0.392856956 0
vt 0.392856956 1
vt 0.369047433 0
vt 0.369047433 1
vt 0.345237941 0
vt 0.345237941 1
vt 0.321428478 0
vt 0.321428418 1
vt 0.297618926 0
vt 0.297618926 1
vt 0.273809403 0
vt 0.273809403 1
vt 0.249999911 0
vt 0.249999911 1
vt 0.226190418 0
vt 0.226190418 1
vt 0.202380911 0
vt 0.202380911 1
vt 0.178571388 0
vt 0.178571388 1
vt 0.154761881 0
vt 0.154761881 1
vt 0.130952373 0
vt 0.130952373 1
vt 0.107142858 0
vt 0.107142858 1
vt 0.0833333507 0
vt 0.0833333507 1
vt 0.0595238432 0
vt 0.0595238432 1
vt 0.0357143357 0
vt 0.0357143357 1
vt 0.0119047919 0
vt 0.0119047919 1
vt -0.0119047761 0
vt -0.0119047761 1
vn 0.0654402673 0.286712497 -0.955778956
vn 0.0219770111 0.293263495 -0.955778956
vn 0.021977013 0.293263525 -0.955778956
vn 0.0654402599 0.286712468 -0.955778956
vn 0.107441552 0.273756802 -0.955778956
vn 0.107441567 0.273756832 -0.955778956
vn 0.14704293 0.254685849 -0.955778956
vn 0.1470429 0.25468576 -0.955778956
vn 0.183359504 0.229925573 -0.955778956
vn 0.183359504 0.229925543 -0.955778956
vn 0.215580136 0.200029179 -0.955779076
vn 0.215580106 0.200029165 -0.955778956
vn 0.242985114 0.165664434 -0.955778956
vn 0.242985085 0.16566442 -0.955778956
vn 0.264962137 0.127599061 -0.955778956
vn 0.264962137 0.127599061 -0.955778956
vn 0.281020463 0.0866833106 -0.955778956
vn 0.281020403 0.0866832957 -0.955778956
vn 0.290801167 0.0438312329 -0.955778956
vn 0.290801138 0.0438312255 -0.955778956
vn 0.29408583 0 -0.955778956
vn 0.294085801 0 -0.955778956
vn 0.290801048 -0.0438317992 -0.955778956
vn 0.290801048 -0.0438318141 -0.955778956
vn 0.281020194 -0.0866840482 -0.955778956
vn 0.281020224 -0.0866840631 -0.955778956
vn 0.264961928 -0.127599671 -0.955778956
vn 0.264961898 -0.127599657 -0.955778956
vn 0.242984742 -0.165664971 -0.955778956
vn 0.242984742 -0.165664971 -0.955778956
vn 0.215579748 -0.200029641 -0.955778956
vn 0.215579718 -0.200029612 -0.955778956
vn 0.183359012 -0.229925945 -0.955778956
vn 0.183358997 -0.229925945 -0.955778956
vn 0.147042364 -0.254686087 -0.955778956
vn 0.147042379 -0.254686058 -0.955779076
vn 0.10744109 -0.273756981 -0.955778956
vn 0.107441083 -0.273756981 -0.955778956
vn 0.0654397309 -0.286712587 -0.955778956
vn 0.0654397532 -0.286712587 -0.955778956
vn 0.0219765343 -0.293263525 -0.955778956
vn 0.0219765399 -0.293263525 -0.955778956
vn -0.021977501 -0.293263465 -0.955778956
vn -0.0219775029 -0.293263465 -0.955778956
vn -0.0654406697 -0.286712378 -0.955778956
vn -0.0654406622 -0.286712378 -0.955778956
vn -0.107442036 -0.273756593 -0.955778956
vn -0.107442036 -0.273756593 -0.955778956
vn -0.147043213 -0.254685581 -0.955779076
vn -0.147043213 -0.254685581 -0.955778956
vn -0.183359772 -0.229925305 -0.955778956
vn -0.183359772 -0.229925305 -0.955778956
vn -0.215580359 -0.200028911 -0.955778956
vn -0.215580374 -0.200028896 -0.955778956
vn -0.242985249 -0.165664226 -0.955778956
vn -0.242985234 -0.165664196 -0.955778956
vn -0.264962345 -0.127598748 -0.955778956
vn -0.264962286 -0.127598748 -0.955778956
vn -0.281020492 -0.0866830721 -0.955778956
vn -0.281020522 -0.0866830796 -0.955778956
vn -0.290801138 -0.0438310541 -0.955778956
vn -0.290801138 -0.0438310541 -0.955778956
vn -0.294085801 0 -0.955778956
vn -0.294085801 0 -0.955778956
vn -0.290801138 0.0438313633 -0.955778956
vn -0.290801078 0.0438313559 -0.955778956
vn -0.281020373 0.0866834298 -0.955778956
vn -0.281020343 0.0866834223 -0.955778956
vn -0.264962137 0.127599165 -0.955778956
vn -0.264962107 0.12759915 -0.955778956
vn -0.242985085 0.165664509 -0.955778956
vn -0.242985055 0.165664509 -0.955778956
vn -0.215580121 0.200029179 -0.955778956
vn -0.215580121 0.200029165 -0.955778956
vn -0.183359489 0.229925573 -0.955778956
vn -0.183359489 0.229925573 -0.955778956
vn -0.1470429 0.254685849 -0.955778956
vn -0.147042915 0.254685849 -0.955778956
vn -0.107441686 0.273756802 -0.955778956
vn -0.107441671 0.273756742 -0.955778956
vn -0.0654402524 0.286712438 -0.955778956
vn -0.0654402599 0.286712468 -0.955779076
vn -0.0219770968 0.293263525 -0.955778956
vn -0.0219770987 0.293263525 -0.955778956
vn 0.021977013 0.293263525 -0.955778956
vn 0.0219770111 0.293263495 -0.955778956
g Cone005_0
f 3/3/3 2/2/2 1/1/1
f 2/2/2 4/4/4 1/1/1
f 1/1/1 4/4/4 5/5/5
f 4/4/4 6/6/6 5/5/5
f 5/5/5 6/6/6 7/7/7
f 6/6/6 8/8/8 7/7/7
f 7/7/7 8/8/8 9/9/9
f 8/8/8 10/10/10 9/9/9
f 9/9/9 10/10/10 11/11/11
f 10/10/10 12/12/12 11/11/11
f 11/11/11 12/12/12 13/13/13
f 12/12/12 14/14/14 13/13/13
f 13/13/13 14/14/14 15/15/15
f 14/14/14 16/16/16 15/15/15
f 15/15/15 16/16/16 17/17/17
f 16/16/16 18/18/18 17/17/17
f 17/17/17 18/18/18 19/19/19
f 18/18/18 20/20/20 19/19/19
f 19/19/19 20/20/20 21/21/21
f 20/20/20 22/22/22 21/21/21
f 21/21/21 22/22/22 23/23/23
f 22/22/22 24/24/24 23/23/23
f 23/23/23 24/24/24 25/25/25
f 24/24/24 26/26/26 25/25/25
f 25/25/25 26/26/26 27/27/27
f 26/26/26 28/28/28 27/27/27
f 27/27/27 28/28/28 29/29/29
f 28/28/28 30/30/30 29/29/29
f 29/29/29 30/30/30 31/31/31
f 30/30/30 32/32/32 31/31/31
f 31/31/31 32/32/32 33/33/33
f 32/32/32 34/34/34 33/33/33
f 33/33/33 34/34/34 35/35/35
f 34/34/34 36/36/36 35/35/35
f 35/35/35 36/36/36 37/37/37
f 36/36/36 38/38/38 37/37/37
f 37/37/37 38/38/38 39/39/39
f 38/38/38 40/40/40 39/39/39
f 39/39/39 40/40/40 41/41/41
f 40/40/40 42/42/42 41/41/41
f 41/41/41 42/42/42 43/43/43
f 42/42/42 44/44/44 43/43/43
f 43/43/43 44/44/44 45/45/45
f 44/44/44 46/46/46 45/45/45
f 45/45/45 46/46/46 47/47/47
f 46/46/46 48/48/48 47/47/47
f 47/47/47 48/48/48 49/49/49
f 48/48/48 50/50/50 49/49/49
f 49/49/49 50/50/50 51/51/51
f 50/50/50 52/52/52 51/51/51
f 51/51/51 52/52/52 53/53/53
f 52/52/52 54/54/54 53/53/53
f 53/53/53 54/54/54 55/55/55
f 54/54/54 56/56/56 55/55/55
f 55/55/55 56/56/56 57/57/57
f 56/56/56 58/58/58 57/57/57
f 57/57/57 58/58/58 59/59/59
f 58/58/58 60/60/60 59/59/59
f 59/59/59 60/60/60 61/61/61
f 60/60/60 62/62/62 61/61/61
f 61/61/61 62/62/62 63/63/63
f 62/62/62 64/64/64 63/63/63
f 63/63/63 64/64/64 65/65/65
f 64/64/64 66/66/66 65/65/65
f 65/65/65 66/66/66 67/67/67
f 66/66/66 68/68/68 67/67/67
f 67/67/67 68/68/68 69/69/69
f 68/68/68 70/70/70 69/69/69
f 69/69/69 70/70/70 71/71/71
f 70/70/70 72/72/72 71/71/71
f 71/71/71 72/72/72 73/73/73
f 72/72/72 74/74/74 73/73/73
f 73/73/73 74/74/74 75/75/75
f 74/74/74 76/76/76 75/75/75
f 75/75/75 76/76/76 77/77/77
f 76/76/76 78/78/78 77/77/77
f 77/77/77 78/78/78 79/79/79
f 78/78/78 80/80/80 79/79/79
f 79/79/79 80/80/80 81/81/81
f 80/80/80 82/82/82 81/81/81
f 81/81/81 82/82/82 83/83/83
f 82/82/82 84/84/84 83/83/83
f 83/83/83 84/84/84 85/85/85
f 84/84/84 86/86/86 85/85/85
