g general_range_13
v -0.201383725 0.249808952 0.398947656
v -0.201383725 0.249808952 -0.00105222699
v -0.101383656 0.249808952 -0.00105222699
v -0.101383656 0.249808952 0.398947656
v -0.00138376199 0.249808863 -0.00105222699
v -0.00138376199 0.249808863 0.398947656
v -0.00138368574 0.149808988 -0.00105222699
v -0.00138368574 0.149808973 0.398947656
v 0.0986163318 0.149808988 -0.00105222699
v 0.0986163318 0.149808973 0.398947656
v 0.198616192 0.149808958 -0.00105222699
v 0.198616192 0.149808943 0.398947656
v 0.198616192 0.0498089716 -0.00105222699
v 0.198616192 0.0498089641 0.398947656
v 0.198616192 -0.050191015 -0.00105222699
v 0.198616192 -0.0501910262 0.398947656
v 0.198616192 -0.150190935 -0.00105222699
v 0.198616192 -0.150190935 0.398947656
v 0.0986161381 -0.15019092 -0.00105222699
v 0.0986161381 -0.15019092 0.398947656
v -0.00138376199 -0.15019092 -0.00105222699
v -0.00138376199 -0.15019092 0.398947656
v -0.00138387643 -0.250190884 -0.00105222699
v -0.00138387643 -0.250190884 0.398947626
v -0.101383798 -0.250190854 -0.00105222699
v -0.101383798 -0.250190854 0.398947626
v -0.201383725 -0.250190884 -0.00105222699
v -0.201383725 -0.250190884 0.398947626
v -0.20138374 -0.15019086 -0.00105222699
v -0.20138374 -0.15019086 0.398947656
v -0.201383725 -0.0501908623 -0.00105222699
v -0.201383725 -0.0501908734 0.398947656
v -0.20138374 0.0498091541 -0.00105222699
v -0.20138374 0.0498091467 0.398947656
v -0.20138374 0.149809167 -0.00105222699
v -0.20138374 0.149809152 0.398947656
v -0.201383725 0.249808952 -0.00105222699
v -0.201383725 0.249808952 0.398947656
vt 0.998535156 0.997558594
vt 0.998535156 -0.00244140625
vt 0.942871094 -0.00244140625
vt 0.942871094 0.997558594
vt 0.887207031 -0.00244140625
vt 0.887207031 0.997558594
vt 0.832519531 -0.00244140625
vt 0.832519531 0.997558594
vt 0.776855469 -0.00244140625
vt 0.776855469 0.997558594
vt 0.721191406 -0.00244140625
vt 0.721191406 0.997558594
vt 0.665527344 -0.00244140625
vt 0.665527344 0.997558594
vt 0.609863281 -0.00244140625
vt 0.609863281 0.997558594
vt 0.554199219 -0.00244140625
vt 0.554199219 0.997558594
vt 0.498535156 -0.00244140625
vt 0.498535156 0.997558594
vt 0.442871094 -0.00244140625
vt 0.442871094 0.997558594
vt 0.387207031 -0.00244140625
vt 0.387207031 0.997558594
vt 0.332519531 -0.00244140625
vt 0.332519531 0.997558594
vt 0.276855469 -0.00244140625
vt 0.276855469 0.997558594
vt 0.221191406 -0.00244140625
vt 0.221191406 0.997558594
vt 0.165527344 -0.00244140625
vt 0.165527344 0.997558594
vt 0.109863281 -0.00244140625
vt 0.109863281 0.997558594
vt 0.0541992188 -0.00244140625
vt 0.0541992188 0.997558594
vt -0.00146484375 -0.00244140625
vt -0.00146484375 0.997558594
vn -0 1 0
vn -0 1 0
vn 4.7683767E-07 1 0
vn 4.7683767E-07 1 0
vn 0.707106888 0.70710665 0
vn 0.707106888 0.70710665 0
vn 0.707106471 0.707107008 0
vn 0.707106471 0.707107067 0
vn 1.90735093E-07 1 0
vn 1.90735093E-07 1 0
vn 0.707106888 0.70710665 0
vn 0.707106888 0.70710665 0
vn 1 0 0
vn 1 0 0
vn 1 0 0
vn 1 0 0
vn 0.70710665 -0.707106829 0
vn 0.70710665 -0.707106829 0
vn -0 -1 0
vn -0 -1 0
vn 0.707106352 -0.707107186 0
vn 0.707106233 -0.707107246 0
vn 0.707106233 -0.707107246 0
vn 0.707106352 -0.707107186 0
vn -0 -1 0
vn -0 -1 0
vn -0.70710659 -0.707106888 0
vn -0.70710665 -0.707106888 0
vn -1 0 0
vn -1 0 0
vn -1 0 0
vn -1 0 0
vn -1 0 0
vn -1 0 0
vn -1 0 0
vn -1 0 0
vn -1 1.52588242E-07 0
vn -1 1.52588242E-07 0
g general_range_13_0
f 3/3/3 2/2/2 1/1/1
f 4/4/4 3/3/3 1/1/1
f 5/5/5 3/3/3 4/4/4
f 6/6/6 5/5/5 4/4/4
f 7/7/7 5/5/5 6/6/6
f 8/8/8 7/7/7 6/6/6
f 9/9/9 7/7/7 8/8/8
f 10/10/10 9/9/9 8/8/8
f 11/11/11 9/9/9 10/10/10
f 12/12/12 11/11/11 10/10/10
f 13/13/13 11/11/11 12/12/12
f 14/14/14 13/13/13 12/12/12
f 15/15/15 13/13/13 14/14/14
f 16/16/16 15/15/15 14/14/14
f 17/17/17 15/15/15 16/16/16
f 18/18/18 17/17/17 16/16/16
f 19/19/19 17/17/17 18/18/18
f 20/20/20 19/19/19 18/18/18
f 21/21/21 19/19/19 20/20/20
f 22/22/22 21/21/21 20/20/20
f 23/23/23 21/21/21 22/22/22
f 24/24/24 23/23/23 22/22/22
f 25/25/25 23/23/23 24/24/24
f 26/26/26 25/25/25 24/24/24
f 27/27/27 25/25/25 26/26/26
f 28/28/28 27/27/27 26/26/26
f 29/29/29 27/27/27 28/28/28
f 30/30/30 29/29/29 28/28/28
f 31/31/31 29/29/29 30/30/30
f 32/32/32 31/31/31 30/30/30
f 33/33/33 31/31/31 32/32/32
f 34/34/34 33/33/33 32/32/32
f 35/35/35 33/33/33 34/34/34
f 36/36/36 35/35/35 34/34/34
f 37/37/37 35/35/35 36/36/36
f 38/38/38 37/37/37 36/36/36
