g oblvns_skin_03
v 0.0891600847 -0.5 -2.90520443E-08
v 0.5 -0.5 -1.62920685E-07
v 0.5 0.5 -1.62920685E-07
v 0.0907173306 0.30765143 -2.95594589E-08
v 0.0900095403 0.5 -2.93288327E-08
v 0.0881407112 -0.309258819 -2.87198905E-08
v -0.313471109 0.30765143 1.02141854E-07
v -0.313480854 -0.305545002 1.0214503E-07
vt 0.410839915 0
vt 0 0
vt 0 1
vt 0.409282655 0.807651401
vt 0.40999046 1
vt 0.411859274 0.190741166
vt 0.813471079 0.80765146
vt 0.813480854 0.194454998
vn -0 0 -1
vn -0 0 -1
vn -0 0 -1
vn -0 0 -1
vn -0 0 -1
vn -0 0 -1
vn -0 0 -1
vn -0 0 -1
g oblvns_skin_03_0
f 3/3/3 2/2/2 1/1/1
f 1/1/1 4/4/4 3/3/3
f 3/3/3 4/4/4 5/5/5
f 1/1/1 6/6/6 4/4/4
f 6/6/6 7/7/7 4/4/4
f 6/6/6 8/8/8 7/7/7
