g Plane006
v 0.37839669 0.192956433 0
v 0.373235077 0.191127092 0
v 0.311145306 0.269113034 0
v 0.359579146 0.190265909 0
v 0.341714919 0.287714213 0
v 0.357007533 0.190953463 0
v 0.380818218 0.289621085 0
v 0.0224050283 -0.0476839095 0
v 0.041371651 -0.041512195 0
v -0.00809933618 0.0492280014 0
v 0.0085403705 0.0546369739 0
v 0.0604223534 -0.0346715264 0
v 0.0245658215 0.0603908859 0
v 0.0787840933 -0.0274091791 0
v 0.0398971289 0.0664548576 0
v 0.0964928046 -0.0197367799 0
v 0.054601077 0.0728250146 0
v 0.113584511 -0.0116690546 0
v 0.0687455386 0.0795013458 0
v 0.130094692 -0.003223059 0
v 0.082397759 0.0864854157 0
v 0.146059945 0.00558415521 0
v 0.0956246853 0.0937818736 0
v 0.161518067 0.0147324335 0
v 0.108491659 0.101396911 0
v 0.176508725 0.0241992977 0
v 0.12106216 0.109335959 0
v 0.191074014 0.033964593 0
v 0.133397698 0.117606774 0
v 0.205258057 0.0440066159 0
v 0.145557046 0.126215547 0
v 0.219107598 0.0543044358 0
v 0.157596722 0.135168493 0
v 0.232671723 0.0648402274 0
v 0.169571176 0.144470245 0
v 0.246001214 0.075596936 0
v 0.181532621 0.154123142 0
v 0.259148687 0.0865582824 0
v 0.193531722 0.164127186 0
v 0.2721681 0.097712636 0
v 0.205617875 0.174482375 0
v 0.285114318 0.109048381 0
v 0.217839435 0.185184047 0
v 0.298042893 0.12055698 0
v 0.230244011 0.196226001 0
v 0.311009884 0.132231459 0
v 0.242878854 0.207602054 0
v 0.324071646 0.144067168 0
v 0.255790889 0.219302118 0
v 0.337284654 0.156059459 0
v 0.269026875 0.23131533 0
v 0.350705415 0.168206006 0
v 0.282633483 0.243630081 0
v 0.364390552 0.180506036 0
v 0.296657383 0.25623396 0
v 0.37839669 0.192956433 0
v 0.311145306 0.269113034 0
v 0.341714919 0.287714213 0
v 0.373235077 0.191127092 0
v 0.380818218 0.289621085 0
v 0.359579146 0.190265909 0
v 0.409730256 0.277803183 0
v 0.357007533 0.190953463 0
v 0.363408357 0.186010346 0
v 0.430342525 0.262445211 0
v 0.374096334 0.175673768 0
v 0.447119892 0.246314421 0
v 0.387038827 0.161820352 0
v 0.461874604 0.230537862 0
v 0.401621133 0.146149993 0
v 0.475001037 0.216420889 0
v 0.418135315 0.130004466 0
v 0.48598671 0.205626979 0
v 0.438121498 0.114541844 0
v 0.493160188 0.199942827 0
v 0.458745539 0.102896042 0
v 0.503385723 0.194163337 0
v 0.480191797 0.0939345732 0
v 0.513727248 0.189840347 0
v 0.502193451 0.0876628682 0
v 0.524273992 0.186834335 0
v 0.524480879 0.0840258747 0
v 0.535117328 0.185067773 0
v 0.546808481 0.08291509 0
v 0.546324909 0.184513539 0
vt 0.443190277 0.77671051
vt 0.437384158 0.773109436
vt 0.367541909 0.926625133
vt 0.422023177 0.77141422
vt 0.401928455 0.963241637
vt 0.419130474 0.772767663
vt 0.445914179 0.966995239
vt 0.0427496135 0.303009212
vt 0.0640844107 0.315158248
vt 0.00843653083 0.493780732
vt 0.0271538496 0.504428327
vt 0.0855137706 0.328624129
vt 0.0451802313 0.515754879
vt 0.106168151 0.342920065
vt 0.0624257922 0.527691841
vt 0.126087934 0.358023226
vt 0.0789656639 0.540231526
vt 0.14531371 0.373904586
vt 0.0948762 0.553373933
vt 0.163885355 0.390530527
vt 0.110233039 0.567122042
vt 0.181844026 0.407867551
vt 0.125111461 0.581485152
vt 0.19923225 0.425875962
vt 0.139585048 0.596475363
vt 0.216094643 0.444511533
vt 0.153725088 0.612103403
vt 0.232478559 0.463734567
vt 0.167600811 0.628384531
vt 0.24843362 0.483502299
vt 0.181278348 0.645330966
vt 0.264012396 0.50377357
vt 0.194821328 0.662954867
vt 0.279270113 0.524513364
vt 0.208290905 0.681265354
vt 0.294263929 0.545687973
vt 0.221745849 0.700267136
vt 0.309053004 0.567265391
vt 0.235243142 0.719960153
vt 0.323698014 0.589222789
vt 0.248838365 0.740344346
vt 0.33826071 0.611537218
vt 0.262585938 0.761410594
vt 0.352803528 0.63419199
vt 0.276539326 0.783146739
vt 0.36738956 0.657173216
vt 0.290751755 0.805540562
vt 0.382082194 0.680471897
vt 0.305275977 0.828572154
vt 0.39694497 0.704078734
vt 0.320164591 0.852220237
vt 0.412041456 0.727989256
vt 0.33547011 0.876461864
vt 0.427435309 0.752201915
vt 0.351245046 0.901272655
vt 0.443190277 0.77671051
vt 0.367541909 0.926625133
vt 0.401928455 0.963241637
vt 0.437384158 0.773109436
vt 0.445914179 0.966995239
vt 0.422023177 0.77141422
vt 0.478436142 0.943731725
vt 0.419130474 0.772767663
vt 0.426330507 0.763037145
vt 0.501622081 0.913499475
vt 0.438352942 0.74268955
vt 0.520494223 0.881745934
vt 0.452911437 0.715419054
vt 0.537091255 0.850689709
vt 0.469314516 0.684571862
vt 0.551856637 0.822900414
vt 0.487890631 0.652789354
vt 0.564213932 0.801652551
vt 0.510372281 0.62235105
vt 0.572283089 0.790463209
vt 0.533571422 0.59942627
vt 0.583785415 0.779086292
vt 0.557695448 0.58178556
vt 0.595418155 0.770576477
vt 0.582444251 0.56943965
vt 0.607281744 0.764659047
vt 0.607514381 0.562280238
vt 0.619479001 0.761181593
vt 0.632629871 0.560093641
vt 0.632085919 0.76009059
vn -0 0 -1
vn -0 0 1
vn -0 0 -1
vn -0 0 1
vn -0 0 -1
vn -0 0 -1
vn -0 0 -1
vn -0 0 -1
vn -0 0 -1
vn -0 0 -1
vn -0 0 -1
vn -0 0 -1
vn -0 0 -1
vn -0 0 -1
vn -0 0 -1
vn -0 0 -1
vn -0 0 -1
vn -0 0 -1
vn -0 0 -1
vn -0 0 -1
vn -0 0 -1
vn -0 0 -1
vn -0 0 -1
vn -0 0 -1
vn -0 0 -1
vn -0 0 -1
vn -0 0 -1
vn -0 0 -1
vn -0 0 -1
vn -0 0 -1
vn -0 0 -1
vn -0 0 -1
vn -0 0 -1
vn -0 0 -1
vn -0 0 -1
vn -0 0 -1
vn -0 0 -1
vn -0 0 -1
vn -0 0 -1
vn -0 0 -1
vn -0 0 -1
vn -0 0 -1
vn -0 0 -1
vn -0 0 -1
vn -0 0 -1
vn -0 0 -1
vn -0 0 -1
vn -0 0 -1
vn -0 0 -1
vn -0 0 -1
vn -0 0 -1
vn -0 0 -1
vn -0 0 -1
vn -0 0 -1
vn -0 0 -1
vn -0 0 -1
vn -0 0 -1
vn -0 0 -1
vn -0 0 1
vn -0 0 -1
vn -0 0 1
vn -0 0 -1
vn -0 0 -1
vn -0 0 -1
vn -0 0 -1
vn -0 0 -1
vn -0 0 -1
vn -0 0 -1
vn -0 0 -1
vn -0 0 -1
vn -0 0 -1
vn -0 0 -1
vn -0 0 -1
vn -0 0 -1
vn -0 0 -1
vn -0 0 -1
vn -0 0 -1
vn -0 0 -1
vn -0 0 -1
vn -0 0 -1
vn -0 0 -1
vn -0 0 -1
vn -0 0 -1
vn -0 0 -1
vn -0 0 -1
g Plane006_0
f 3/3/3 2/2/2 1/1/1
f 5/5/5 4/4/4 2/2/2
f 7/7/7 6/6/6 4/4/4
f 10/10/10 9/9/9 8/8/8
f 9/9/9 10/10/10 11/11/11
f 11/11/11 12/12/12 9/9/9
f 12/12/12 11/11/11 13/13/13
f 13/13/13 14/14/14 12/12/12
f 14/14/14 13/13/13 15/15/15
f 15/15/15 16/16/16 14/14/14
f 16/16/16 15/15/15 17/17/17
f 17/17/17 18/18/18 16/16/16
f 18/18/18 17/17/17 19/19/19
f 19/19/19 20/20/20 18/18/18
f 20/20/20 19/19/19 21/21/21
f 21/21/21 22/22/22 20/20/20
f 22/22/22 21/21/21 23/23/23
f 23/23/23 24/24/24 22/22/22
f 24/24/24 23/23/23 25/25/25
f 25/25/25 26/26/26 24/24/24
f 26/26/26 25/25/25 27/27/27
f 27/27/27 28/28/28 26/26/26
f 28/28/28 27/27/27 29/29/29
f 29/29/29 30/30/30 28/28/28
f 30/30/30 29/29/29 31/31/31
f 31/31/31 32/32/32 30/30/30
f 32/32/32 31/31/31 33/33/33
f 33/33/33 34/34/34 32/32/32
f 34/34/34 33/33/33 35/35/35
f 35/35/35 36/36/36 34/34/34
f 36/36/36 35/35/35 37/37/37
f 37/37/37 38/38/38 36/36/36
f 38/38/38 37/37/37 39/39/39
f 39/39/39 40/40/40 38/38/38
f 40/40/40 39/39/39 41/41/41
f 41/41/41 42/42/42 40/40/40
f 42/42/42 41/41/41 43/43/43
f 43/43/43 44/44/44 42/42/42
f 44/44/44 43/43/43 45/45/45
f 45/45/45 46/46/46 44/44/44
f 46/46/46 45/45/45 47/47/47
f 47/47/47 48/48/48 46/46/46
f 48/48/48 47/47/47 49/49/49
f 49/49/49 50/50/50 48/48/48
f 50/50/50 49/49/49 51/51/51
f 51/51/51 52/52/52 50/50/50
f 52/52/52 51/51/51 53/53/53
f 53/53/53 54/54/54 52/52/52
f 54/54/54 53/53/53 55/55/55
f 55/55/55 56/56/56 54/54/54
f 56/56/56 55/55/55 57/57/57
f 59/59/59 57/57/57 58/58/58
f 61/61/61 58/58/58 60/60/60
f 63/63/63 60/60/60 62/62/62
f 62/62/62 64/64/64 63/63/63
f 64/64/64 62/62/62 65/65/65
f 65/65/65 66/66/66 64/64/64
f 66/66/66 65/65/65 67/67/67
f 67/67/67 68/68/68 66/66/66
f 68/68/68 67/67/67 69/69/69
f 69/69/69 70/70/70 68/68/68
f 70/70/70 69/69/69 71/71/71
f 71/71/71 72/72/72 70/70/70
f 72/72/72 71/71/71 73/73/73
f 73/73/73 74/74/74 72/72/72
f 74/74/74 73/73/73 75/75/75
f 75/75/75 76/76/76 74/74/74
f 76/76/76 75/75/75 77/77/77
f 77/77/77 78/78/78 76/76/76
f 78/78/78 77/77/77 79/79/79
f 79/79/79 80/80/80 78/78/78
f 80/80/80 79/79/79 81/81/81
f 81/81/81 82/82/82 80/80/80
f 82/82/82 81/81/81 83/83/83
f 83/83/83 84/84/84 82/82/82
f 84/84/84 83/83/83 85/85/85
