g Plane002
v -0.508000016 0.63499999 1.01600003
v -0.508000016 0.63499999 0
v -0.25399977 0.63499999 0
v -0.25399977 0.63499999 1.01600003
v -0 0.634999752 0
v -0 0.634999752 1.01600003
v 1.93786619E-07 0.380999982 0
v 1.93786619E-07 0.380999953 1.01600003
v 0.254000276 0.380999982 0
v 0.254000276 0.380999953 1.01600003
v 0.508000016 0.380999893 0
v 0.508000016 0.380999863 1.01600003
v 0.508000016 0.12699987 0
v 0.508000016 0.12699984 1.01600003
v 0.508000016 -0.127000153 0
v 0.508000016 -0.127000183 1.01600003
v 0.508000016 -0.381000042 0
v 0.508000016 -0.381000042 1.01600003
v 0.253999799 -0.380999982 0
v 0.253999799 -0.380999982 1.01600003
v -0 -0.380999982 0
v -0 -0.380999982 1.01600003
v -2.90679935E-07 -0.63499999 0
v -2.90679935E-07 -0.63499999 1.01600003
v -0.254000157 -0.634999931 0
v -0.254000157 -0.634999931 1.01600003
v -0.508000016 -0.63499999 0
v -0.508000016 -0.63499999 1.01600003
v -0.508000016 -0.380999863 0
v -0.508000016 -0.380999863 1.01600003
v -0.508000016 -0.126999766 0
v -0.508000016 -0.126999795 1.01600003
v -0.508000016 0.127000332 0
v -0.508000016 0.127000302 1.01600003
v -0.508000016 0.381000429 0
v -0.508000016 0.38100037 1.01600003
v -0.508000016 0.63499999 0
v -0.508000016 0.63499999 1.01600003
vt 0.998280525 -0.00210177898
vt -0.00171947479 -0.00210177898
vt -0.00171947479 0.0534537435
vt 0.998280525 0.0534538031
vt -0.00171947479 0.109009326
vt 0.998280525 0.109009326
vt -0.00171947479 0.164564908
vt 0.998280525 0.164564908
vt -0.00171947479 0.22012043
vt 0.998280525 0.22012043
vt -0.00171947479 0.275675952
vt 0.998280525 0.275676012
vt -0.00171947479 0.331231534
vt 0.998280525 0.331231594
vt -0.00171947479 0.386787117
vt 0.998280525 0.386787117
vt -0.00171947479 0.442342639
vt 0.998280525 0.442342639
vt -0.00171947479 0.497898191
vt 0.998280525 0.497898221
vt -0.00171947479 0.553453803
vt 0.998280525 0.553453803
vt -0.00171947479 0.609009385
vt 0.998280525 0.609009385
vt -0.0017195344 0.664564967
vt 0.998280525 0.664564967
vt -0.00171947479 0.720120549
vt 0.998280525 0.720120549
vt -0.00171947479 0.775676131
vt 0.998280525 0.775676131
vt -0.00171947479 0.831231713
vt 0.998280525 0.831231713
vt -0.00171947479 0.886787295
vt 0.998280525 0.886787295
vt -0.00171947479 0.942342877
vt 0.998280525 0.942342877
vt -0.00171947479 0.9978984
vt 0.998280525 0.997898459
vn -0 1 0
vn -0 1 0
vn 4.76837556E-07 1 0
vn 4.76837556E-07 1 0
vn 0.707106888 0.70710665 0
vn 0.707106829 0.707106769 0
vn 0.707106471 0.707107008 0
vn 0.707106471 0.707107008 0
vn -0 1 0
vn -0 1 0
vn 0.707106888 0.70710665 0
vn 0.707106888 0.70710665 0
vn 1 0 0
vn 1 0 0
vn 1 0 0
vn 1 0 0
vn 0.70710665 -0.707106888 0
vn 0.70710665 -0.707106888 0
vn -0 -1 0
vn -0 -1 0
vn 0.707106352 -0.707107127 0
vn 0.707106292 -0.707107186 0
vn 0.707106292 -0.707107246 0
vn 0.707106292 -0.707107246 0
vn -0 -1 0
vn -0 -1 0
vn -0.70710659 -0.707106888 0
vn -0.70710665 -0.707106888 0
vn -1 0 0
vn -1 0 0
vn -1 0 0
vn -1 0 0
vn -1 0 0
vn -1 0 0
vn -1 0 0
vn -1 0 0
vn -1 0 0
vn -1 0 0
g Plane002_0
f 3/3/3 2/2/2 1/1/1
f 4/4/4 3/3/3 1/1/1
f 5/5/5 3/3/3 4/4/4
f 6/6/6 5/5/5 4/4/4
f 7/7/7 5/5/5 6/6/6
f 8/8/8 7/7/7 6/6/6
f 9/9/9 7/7/7 8/8/8
f 10/10/10 9/9/9 8/8/8
f 11/11/11 9/9/9 10/10/10
f 12/12/12 11/11/11 10/10/10
f 13/13/13 11/11/11 12/12/12
f 14/14/14 13/13/13 12/12/12
f 15/15/15 13/13/13 14/14/14
f 16/16/16 15/15/15 14/14/14
f 17/17/17 15/15/15 16/16/16
f 18/18/18 17/17/17 16/16/16
f 19/19/19 17/17/17 18/18/18
f 20/20/20 19/19/19 18/18/18
f 21/21/21 19/19/19 20/20/20
f 22/22/22 21/21/21 20/20/20
f 23/23/23 21/21/21 22/22/22
f 24/24/24 23/23/23 22/22/22
f 25/25/25 23/23/23 24/24/24
f 26/26/26 25/25/25 24/24/24
f 27/27/27 25/25/25 26/26/26
f 28/28/28 27/27/27 26/26/26
f 29/29/29 27/27/27 28/28/28
f 30/30/30 29/29/29 28/28/28
f 31/31/31 29/29/29 30/30/30
f 32/32/32 31/31/31 30/30/30
f 33/33/33 31/31/31 32/32/32
f 34/34/34 33/33/33 32/32/32
f 35/35/35 33/33/33 34/34/34
f 36/36/36 35/35/35 34/34/34
f 37/37/37 35/35/35 36/36/36
f 38/38/38 37/37/37 36/36/36
