g Plane002
v 0.218055367 -1.30353129 -4.3192987E-09
v 0.00453419983 -1.32148051 -4.3192987E-09
v 0.00445092516 -1.29677713 -2.15964935E-09
v 0.213999122 -1.279163 -2.15964935E-09
v 0.42072171 -1.25294721 -4.3192987E-09
v 0.00436765049 -1.27207375 0
v 0.412849218 -1.22953176 -2.15964935E-09
v 0.609705329 -1.17245793 -4.3192987E-09
v 0.209942877 -1.25479484 0
v 0.00428437628 -1.24737048 2.15964935E-09
v 0.598280489 -1.15055501 -2.15964935E-09
v 0.782257855 -1.06480384 -4.3192987E-09
v 0.205886632 -1.23042667 2.15964935E-09
v 0.0042011016 -1.22266698 4.3192987E-09
v 0.201830372 -1.20605838 4.3192987E-09
v 0.404976726 -1.2061162 0
v 0.397104234 -1.18270063 2.15964935E-09
v 0.389231771 -1.15928519 4.3192987E-09
v 0.767611623 -1.04491043 -2.15964935E-09
v 0.935683191 -0.932705343 -4.3192987E-09
v 0.58685559 -1.12865222 0
v 0.575430691 -1.10674942 2.15964935E-09
v 0.564005852 -1.0848465 4.3192987E-09
v 0.918187559 -0.915265024 -2.15964935E-09
v 1.0673008 -0.778855085 -4.3192987E-09
v 0.752965331 -1.02501702 0
v 0.738319039 -1.0051235 2.15964935E-09
v 0.723672748 -0.985230088 4.3192987E-09
v 1.04736102 -0.764272213 -2.15964935E-09
v 1.17441785 -0.605933189 -4.31929825E-09
v 0.900691926 -0.897824645 0
v 0.883196294 -0.880384207 2.15964935E-09
v 0.865700662 -0.862943947 4.3192987E-09
v 1.15247822 -0.594579041 -2.15964935E-09
v 1.25431311 -0.416636884 -4.31929825E-09
v 1.027421 -0.749689221 0
v 1.00748098 -0.73510623 2.15964935E-09
v 0.987541139 -0.720523298 4.3192987E-09
v 1.2308718 -0.408841372 -2.15964935E-09
v 1.30424619 -0.213715762 -4.3192987E-09
v 1.13053858 -0.583224833 0
v 1.10859907 -0.571870685 2.15964935E-09
v 1.08665943 -0.560516536 4.3192987E-09
v 1.27986455 -0.209740981 -2.15964935E-09
v 1.32148826 5.75304036E-08 -4.3192987E-09
v 1.2074306 -0.401045889 0
v 1.18398929 -0.393250376 2.15964935E-09
v 1.16054809 -0.385454834 4.3192987E-09
v 1.29678476 5.45024861E-08 -2.15964935E-09
v 1.30424619 0.213715822 -4.3192987E-09
v 1.25548279 -0.205766186 0
v 1.23110116 -0.201791406 2.15964935E-09
v 1.20671952 -0.19781664 4.3192987E-09
v 1.27986455 0.209741041 -2.15964935E-09
v 1.25431323 0.416636974 -4.3192987E-09
v 1.27208126 5.14745722E-08 0
v 1.24737775 4.84466547E-08 2.15964935E-09
v 1.22267425 4.54187372E-08 4.3192987E-09
v 1.23087204 0.408841461 -2.15964935E-09
v 1.17441797 0.605933368 -4.3192987E-09
v 1.25548291 0.205766261 0
v 1.23110127 0.20179148 2.15964935E-09
v 1.20671964 0.1978167 4.3192987E-09
v 1.15247834 0.59457922 -2.15964935E-09
v 1.06730092 0.778855264 -4.3192987E-09
v 1.20743072 0.401045948 0
v 1.18398941 0.393250406 2.15964935E-09
v 1.16054821 0.385454893 4.3192987E-09
v 1.04736102 0.764272332 -2.15964935E-09
v 0.935682893 0.932705343 -4.3192987E-09
v 1.1305387 0.583225012 0
v 1.10859919 0.571870804 2.15964935E-09
v 1.08665955 0.560516655 4.3192987E-09
v 0.918187261 0.915265024 -2.15964935E-09
v 0.782257736 1.06480396 -4.3192987E-09
v 1.02742112 0.749689341 0
v 1.0074811 0.735106409 2.15964935E-09
v 0.987541258 0.720523477 4.3192987E-09
v 0.767611444 1.04491055 -2.15964935E-09
v 0.60970515 1.17245793 -4.3192987E-09
v 0.900691628 0.897824645 0
v 0.883195996 0.880384207 2.15964935E-09
v 0.865700364 0.862943947 4.3192987E-09
v 0.598280311 1.15055501 -2.15964935E-09
v 0.420721561 1.25294733 -4.3192987E-09
v 0.752965152 1.02501702 0
v 0.738318861 1.00512362 2.15964935E-09
v 0.723672628 0.985230148 4.3192987E-09
v 0.412849069 1.22953176 -2.15964935E-09
v 0.218055055 1.30353117 -4.3192987E-09
v 0.586855471 1.12865222 0
v 0.575430572 1.10674942 2.15964935E-09
v 0.564005733 1.0848465 4.3192987E-09
v 0.213998809 1.27916288 -2.15964935E-09
v 0.0045338925 1.32148051 -4.3192987E-09
v 0.00445092423 1.29677713 -2.15964935E-09
v 0.404976606 1.20611632 0
v 0.397104114 1.18270075 2.15964935E-09
v 0.389231652 1.15928519 4.3192987E-09
v 0.209942564 1.25479472 0
v 0.00436795643 1.27207375 0
v 0.205886319 1.23042655 2.15964935E-09
v 0.201830074 1.20605826 4.3192987E-09
v 0.00428498862 1.24737048 2.15964935E-09
v 0.00420201989 1.22266698 4.3192987E-09
vt 0.0500000007 0
vt 0 0
vt 0 0.25
vt 0.0500000007 0.25
vt 0.100000001 0
vt 0 0.5
vt 0.100000001 0.25
vt 0.150000006 0
vt 0.0500000007 0.5
vt 0 0.75
vt 0.150000006 0.25
vt 0.200000003 0
vt 0.0500000007 0.75
vt 0 1
vt 0.0500000007 1
vt 0.100000001 0.5
vt 0.100000001 0.75
vt 0.100000001 1
vt 0.200000003 0.25
vt 0.25 0
vt 0.150000006 0.5
vt 0.150000006 0.75
vt 0.150000006 1
vt 0.25 0.25
vt 0.300000012 0
vt 0.200000003 0.5
vt 0.200000003 0.75
vt 0.200000003 1
vt 0.300000012 0.25
vt 0.350000024 0
vt 0.25 0.5
vt 0.25 0.75
vt 0.25 1
vt 0.350000024 0.25
vt 0.400000006 0
vt 0.300000012 0.5
vt 0.300000012 0.75
vt 0.300000012 1
vt 0.400000006 0.25
vt 0.449999988 0
vt 0.350000024 0.5
vt 0.350000024 0.75
vt 0.350000024 1
vt 0.449999988 0.25
vt 0.5 0
vt 0.400000006 0.5
vt 0.400000006 0.75
vt 0.400000006 1
vt 0.5 0.25
vt 0.550000012 0
vt 0.449999988 0.5
vt 0.449999988 0.75
vt 0.449999988 1
vt 0.550000012 0.25
vt 0.600000024 0
vt 0.5 0.5
vt 0.5 0.75
vt 0.5 1
vt 0.600000024 0.25
vt 0.650000036 0
vt 0.550000012 0.5
vt 0.550000012 0.75
vt 0.550000012 1
vt 0.650000036 0.25
vt 0.700000048 0
vt 0.600000024 0.5
vt 0.600000024 0.75
vt 0.600000024 1
vt 0.700000048 0.25
vt 0.75000006 0
vt 0.650000036 0.5
vt 0.650000036 0.75
vt 0.650000036 1
vt 0.75000006 0.25
vt 0.800000072 0
vt 0.700000048 0.5
vt 0.700000048 0.75
vt 0.700000048 1
vt 0.800000072 0.25
vt 0.850000083 0
vt 0.75000006 0.5
vt 0.75000006 0.75
vt 0.75000006 1
vt 0.850000083 0.25
vt 0.900000095 0
vt 0.800000072 0.5
vt 0.800000072 0.75
vt 0.800000072 1
vt 0.900000095 0.25
vt 0.950000107 0
vt 0.850000083 0.5
vt 0.850000083 0.75
vt 0.850000083 1
vt 0.950000107 0.25
vt 1.00000012 0
vt 1.00000012 0.25
vt 0.900000095 0.5
vt 0.900000095 0.75
vt 0.900000095 1
vt 0.950000107 0.5
vt 1.00000012 0.5
vt 0.950000107 0.75
vt 0.950000107 1
vt 1.00000012 0.75
vt 1.00000012 1
vn -0 0 1
vn -0 0 1
vn -0 0 1
vn -0 0 1
vn -0 0 1
vn -0 0 1
vn -0 0 1
vn -0 0 1
vn -0 0 1
vn -0 0 1
vn -0 0 1
vn -0 0 1
vn -0 0 1
vn -0 0 1
vn -0 0 1
vn -0 0 1
vn -0 0 1
vn -0 0 1
vn -0 0 1
vn -0 0 1
vn -0 0 1
vn -0 0 1
vn -0 0 1
vn -0 0 1
vn -0 0 1
vn -0 0 1
vn -0 0 1
vn -0 0 1
vn -0 0 1
vn -0 0 1
vn -0 0 1
vn -0 0 1
vn -0 0 1
vn -0 0 1
vn -0 0 1
vn -0 0 1
vn -0 0 1
vn -0 0 1
vn -0 0 1
vn -0 0 1
vn -0 0 1
vn -0 0 1
vn -0 0 1
vn -0 0 1
vn -0 0 1
vn -0 0 1
vn -0 0 1
vn -0 0 1
vn -0 0 1
vn -0 0 1
vn -0 0 1
vn -0 0 1
vn -0 0 1
vn -0 0 1
vn -0 0 1
vn -0 0 1
vn -0 0 1
vn -0 0 1
vn -0 0 1
vn -0 0 1
vn -0 0 1
vn -0 0 1
vn -0 0 1
vn -0 0 1
vn -0 0 1
vn -0 0 1
vn -0 0 1
vn -0 0 1
vn -0 0 1
vn -0 0 1
vn -0 0 1
vn -0 0 1
vn -0 0 1
vn -0 0 1
vn -0 0 1
vn -0 0 1
vn -0 0 1
vn -0 0 1
vn -0 0 1
vn -0 0 1
vn -0 0 1
vn -0 0 1
vn -0 0 1
vn -0 0 1
vn -0 0 1
vn -0 0 1
vn -0 0 1
vn -0 0 1
vn -0 0 1
vn -0 0 1
vn -0 0 1
vn -0 0 1
vn -0 0 1
vn -0 0 1
vn -0 0 1
vn -0 0 1
vn -0 0 1
vn -0 0 1
vn -0 0 1
vn -0 0 1
vn -0 0 1
vn -0 0 1
vn -0 0 1
vn -0 0 1
vn -0 0 1
g Plane002_0
f 3/3/3 2/2/2 1/1/1
f 4/4/4 3/3/3 1/1/1
f 4/4/4 1/1/1 5/5/5
f 6/6/6 3/3/3 4/4/4
f 7/7/7 4/4/4 5/5/5
f 7/7/7 5/5/5 8/8/8
f 9/9/9 6/6/6 4/4/4
f 9/9/9 4/4/4 7/7/7
f 10/10/10 6/6/6 9/9/9
f 11/11/11 7/7/7 8/8/8
f 11/11/11 8/8/8 12/12/12
f 13/13/13 10/10/10 9/9/9
f 14/14/14 10/10/10 13/13/13
f 15/15/15 14/14/14 13/13/13
f 16/16/16 9/9/9 7/7/7
f 13/13/13 9/9/9 16/16/16
f 16/16/16 7/7/7 11/11/11
f 15/15/15 13/13/13 17/17/17
f 17/17/17 13/13/13 16/16/16
f 18/18/18 15/15/15 17/17/17
f 19/19/19 11/11/11 12/12/12
f 19/19/19 12/12/12 20/20/20
f 21/21/21 16/16/16 11/11/11
f 17/17/17 16/16/16 21/21/21
f 21/21/21 11/11/11 19/19/19
f 18/18/18 17/17/17 22/22/22
f 22/22/22 17/17/17 21/21/21
f 23/23/23 18/18/18 22/22/22
f 24/24/24 19/19/19 20/20/20
f 24/24/24 20/20/20 25/25/25
f 26/26/26 21/21/21 19/19/19
f 22/22/22 21/21/21 26/26/26
f 26/26/26 19/19/19 24/24/24
f 23/23/23 22/22/22 27/27/27
f 27/27/27 22/22/22 26/26/26
f 28/28/28 23/23/23 27/27/27
f 29/29/29 24/24/24 25/25/25
f 29/29/29 25/25/25 30/30/30
f 31/31/31 26/26/26 24/24/24
f 27/27/27 26/26/26 31/31/31
f 31/31/31 24/24/24 29/29/29
f 28/28/28 27/27/27 32/32/32
f 32/32/32 27/27/27 31/31/31
f 33/33/33 28/28/28 32/32/32
f 34/34/34 29/29/29 30/30/30
f 34/34/34 30/30/30 35/35/35
f 36/36/36 31/31/31 29/29/29
f 32/32/32 31/31/31 36/36/36
f 36/36/36 29/29/29 34/34/34
f 33/33/33 32/32/32 37/37/37
f 37/37/37 32/32/32 36/36/36
f 38/38/38 33/33/33 37/37/37
f 39/39/39 34/34/34 35/35/35
f 39/39/39 35/35/35 40/40/40
f 41/41/41 36/36/36 34/34/34
f 37/37/37 36/36/36 41/41/41
f 41/41/41 34/34/34 39/39/39
f 38/38/38 37/37/37 42/42/42
f 42/42/42 37/37/37 41/41/41
f 43/43/43 38/38/38 42/42/42
f 44/44/44 39/39/39 40/40/40
f 44/44/44 40/40/40 45/45/45
f 46/46/46 41/41/41 39/39/39
f 42/42/42 41/41/41 46/46/46
f 46/46/46 39/39/39 44/44/44
f 43/43/43 42/42/42 47/47/47
f 47/47/47 42/42/42 46/46/46
f 48/48/48 43/43/43 47/47/47
f 49/49/49 44/44/44 45/45/45
f 49/49/49 45/45/45 50/50/50
f 51/51/51 46/46/46 44/44/44
f 47/47/47 46/46/46 51/51/51
f 51/51/51 44/44/44 49/49/49
f 48/48/48 47/47/47 52/52/52
f 52/52/52 47/47/47 51/51/51
f 53/53/53 48/48/48 52/52/52
f 54/54/54 49/49/49 50/50/50
f 54/54/54 50/50/50 55/55/55
f 56/56/56 51/51/51 49/49/49
f 52/52/52 51/51/51 56/56/56
f 56/56/56 49/49/49 54/54/54
f 53/53/53 52/52/52 57/57/57
f 57/57/57 52/52/52 56/56/56
f 58/58/58 53/53/53 57/57/57
f 59/59/59 54/54/54 55/55/55
f 59/59/59 55/55/55 60/60/60
f 61/61/61 56/56/56 54/54/54
f 57/57/57 56/56/56 61/61/61
f 61/61/61 54/54/54 59/59/59
f 58/58/58 57/57/57 62/62/62
f 62/62/62 57/57/57 61/61/61
f 63/63/63 58/58/58 62/62/62
f 64/64/64 59/59/59 60/60/60
f 64/64/64 60/60/60 65/65/65
f 66/66/66 61/61/61 59/59/59
f 62/62/62 61/61/61 66/66/66
f 66/66/66 59/59/59 64/64/64
f 63/63/63 62/62/62 67/67/67
f 67/67/67 62/62/62 66/66/66
f 68/68/68 63/63/63 67/67/67
f 69/69/69 64/64/64 65/65/65
f 69/69/69 65/65/65 70/70/70
f 71/71/71 66/66/66 64/64/64
f 67/67/67 66/66/66 71/71/71
f 71/71/71 64/64/64 69/69/69
f 68/68/68 67/67/67 72/72/72
f 72/72/72 67/67/67 71/71/71
f 73/73/73 68/68/68 72/72/72
f 74/74/74 69/69/69 70/70/70
f 74/74/74 70/70/70 75/75/75
f 76/76/76 71/71/71 69/69/69
f 72/72/72 71/71/71 76/76/76
f 76/76/76 69/69/69 74/74/74
f 73/73/73 72/72/72 77/77/77
f 77/77/77 72/72/72 76/76/76
f 78/78/78 73/73/73 77/77/77
f 79/79/79 74/74/74 75/75/75
f 79/79/79 75/75/75 80/80/80
f 81/81/81 76/76/76 74/74/74
f 77/77/77 76/76/76 81/81/81
f 81/81/81 74/74/74 79/79/79
f 78/78/78 77/77/77 82/82/82
f 82/82/82 77/77/77 81/81/81
f 83/83/83 78/78/78 82/82/82
f 84/84/84 79/79/79 80/80/80
f 84/84/84 80/80/80 85/85/85
f 86/86/86 81/81/81 79/79/79
f 82/82/82 81/81/81 86/86/86
f 86/86/86 79/79/79 84/84/84
f 83/83/83 82/82/82 87/87/87
f 87/87/87 82/82/82 86/86/86
f 88/88/88 83/83/83 87/87/87
f 89/89/89 84/84/84 85/85/85
f 89/89/89 85/85/85 90/90/90
f 91/91/91 86/86/86 84/84/84
f 87/87/87 86/86/86 91/91/91
f 91/91/91 84/84/84 89/89/89
f 88/88/88 87/87/87 92/92/92
f 92/92/92 87/87/87 91/91/91
f 93/93/93 88/88/88 92/92/92
f 94/94/94 89/89/89 90/90/90
f 94/94/94 90/90/90 95/95/95
f 96/96/96 94/94/94 95/95/95
f 97/97/97 91/91/91 89/89/89
f 92/92/92 91/91/91 97/97/97
f 97/97/97 89/89/89 94/94/94
f 93/93/93 92/92/92 98/98/98
f 98/98/98 92/92/92 97/97/97
f 99/99/99 93/93/93 98/98/98
f 100/100/100 94/94/94 96/96/96
f 100/100/100 97/97/97 94/94/94
f 98/98/98 97/97/97 100/100/100
f 101/101/101 100/100/100 96/96/96
f 99/99/99 98/98/98 102/102/102
f 102/102/102 98/98/98 100/100/100
f 102/102/102 100/100/100 101/101/101
f 103/103/103 99/99/99 102/102/102
f 104/104/104 102/102/102 101/101/101
f 103/103/103 102/102/102 104/104/104
f 105/105/105 103/103/103 104/104/104
