g Plane.049
v -0.15329212 9.14037228E-05 0
v -0.000206306577 0.153934807 0
v -0.000111624599 0.147225514 0
v -0.14623034 -0.000363066298 0
v -0.000174716115 0.153934807 0
v 0.153672665 -5.21466136E-05 0
v 0.148086622 -0.000650466594 0
v -0.00016567111 0.147325188 0
v -0.14635095 -0.000341914099 0
v -0.00034083426 -0.145953313 0
v -0.000362798572 -0.15384838 0
v -0.153556272 -0.00012858212 0
v -0.000457666814 -0.145976231 0
v 0.148086652 -0.00079579762 0
v 0.153529137 -7.9870224E-06 0
v -0.000334188342 -0.153871328 0
vt 0 0
vt 0 1
vt 1 1
vt 1 0
vt 0 0
vt 0 1
vt 1 1
vt 1 0
vt 0 0
vt 0 1
vt 1 1
vt 1 0
vt 0 0
vt 0 1
vt 1 1
vt 1 0
vn -0 0 1
vn -0 0 1
vn -0 0 1
vn -0 0 1
vn -0 0 1
vn -0 0 1
vn -0 0 1
vn -0 0 1
vn -0 0 1
vn -0 0 1
vn -0 0 1
vn -0 0 1
vn -0 0 1
vn -0 0 1
vn -0 0 1
vn -0 0 1
g Plane.049_0
f 3/3/3 2/2/2 1/1/1
f 4/4/4 3/3/3 1/1/1
f 7/7/7 6/6/6 5/5/5
f 8/8/8 7/7/7 5/5/5
f 11/11/11 10/10/10 9/9/9
f 12/12/12 11/11/11 9/9/9
f 15/15/15 14/14/14 13/13/13
f 16/16/16 15/15/15 13/13/13
