g Cone001
v 0.0392451547 0.120784186 0
v 0.03973433 0.25087285 0.0253999997
v 0.019867165 0.125436425 0
v 0.0784903094 0.241568372 0.0253999997
v 0.0576567948 0.113157831 0
v 0.11531359 0.226315662 0.0253999997
v 0.074648723 0.102745153 0
v 0.149297446 0.205490306 0.0253999997
v 0.0898025632 0.0898025632 0
v 0.179605126 0.179605126 0.0253999997
v 0.102745153 0.074648723 0
v 0.205490306 0.149297446 0.0253999997
v 0.113157831 0.0576567948 0
v 0.226315662 0.11531359 0.0253999997
v 0.120784186 0.0392451584 0
v 0.241568372 0.0784903169 0.0253999997
v 0.125436425 0.0198671781 0
v 0.25087285 0.0397343561 0.0253999997
v 0.127000004 0 0
v 0.254000008 0 0.0253999997
v 0.125436455 -0.0198669229 0
v 0.25087291 -0.0397338457 0.0253999997
v 0.120784253 -0.03924492 0
v 0.241568506 -0.07848984 0.0253999997
v 0.113157928 -0.0576565824 0
v 0.226315856 -0.115313165 0.0253999997
v 0.102745287 -0.0746485367 0
v 0.205490574 -0.149297073 0.0253999997
v 0.0898027197 -0.0898023993 0
v 0.179605439 -0.179604799 0.0253999997
v 0.0746489018 -0.102745034 0
v 0.149297804 -0.205490068 0.0253999997
v 0.0576569736 -0.113157727 0
v 0.115313947 -0.226315454 0.0253999997
v 0.0392453484 -0.120784111 0
v 0.0784906968 -0.241568223 0.0253999997
v 0.0198673662 -0.125436395 0
v 0.0397347324 -0.250872791 0.0253999997
v 1.83189414E-07 -0.127000004 0
v 3.66378828E-07 -0.254000008 0.0253999997
v -0.0198670048 -0.12543644 0
v -0.0397340097 -0.25087288 0.0253999997
v -0.0392449982 -0.120784223 0
v -0.0784899965 -0.241568446 0.0253999997
v -0.0576566532 -0.113157891 0
v -0.115313306 -0.226315781 0.0253999997
v -0.0746486038 -0.10274525 0
v -0.149297208 -0.2054905 0.0253999997
v -0.0898024663 -0.08980266 0
v -0.179604933 -0.17960532 0.0253999997
v -0.102745071 -0.0746488422 0
v -0.205490142 -0.149297684 0.0253999997
v -0.113157772 -0.0576569028 0
v -0.226315543 -0.115313806 0.0253999997
v -0.120784149 -0.0392452702 0
v -0.241568297 -0.0784905404 0.0253999997
v -0.125436395 -0.0198672861 0
v -0.250872791 -0.0397345722 0.0253999997
v -0.127000004 -1.01940174E-07 0
v -0.254000008 -2.03880347E-07 0.0253999997
v -0.125436425 0.0198670831 0
v -0.25087285 0.0397341661 0.0253999997
v -0.120784193 0.0392450765 0
v -0.241568387 0.078490153 0.0253999997
v -0.113157868 0.0576567203 0
v -0.226315737 0.115313441 0.0253999997
v -0.10274519 0.0746486709 0
v -0.205490381 0.149297342 0.0253999997
v -0.0898026004 0.0898025259 0
v -0.179605201 0.179605052 0.0253999997
v -0.0746487752 0.102745131 0
v -0.14929755 0.205490261 0.0253999997
v -0.0576568358 0.113157809 0
v -0.115313672 0.226315618 0.0253999997
v -0.039245192 0.120784156 0
v -0.0784903839 0.241568312 0.0253999997
v -0.0198672041 0.12543641 0
v -0.0397344083 0.250872821 0.0253999997
v -2.06909263E-08 0.127000004 0
v -4.13818526E-08 0.254000008 0.0253999997
v 0.019867165 0.125436425 0
v 0.03973433 0.25087285 0.0253999997
vt 0.974836588 1
vt 0.999836564 0
vt 0.999836564 1
vt 0.974836588 0
vt 0.949836671 1
vt 0.949836671 0
vt 0.924836636 1
vt 0.924836636 0
vt 0.8998366 1
vt 0.8998366 0
vt 0.874836624 1
vt 0.874836624 0
vt 0.849836588 1
vt 0.849836588 0
vt 0.824836612 1
vt 0.824836612 0
vt 0.799836576 1
vt 0.799836576 0
vt 0.7748366 1
vt 0.7748366 0
vt 0.749836922 1
vt 0.749836922 0
vt 0.724836886 1
vt 0.724836886 0
vt 0.69983685 1
vt 0.69983685 0
vt 0.674836934 1
vt 0.674836934 0
vt 0.649836898 1
vt 0.649836898 0
vt 0.624836862 1
vt 0.624836862 0
vt 0.599836826 1
vt 0.599836826 0
vt 0.57483685 1
vt 0.57483685 0
vt 0.549836814 1
vt 0.549836814 0
vt 0.524836838 1
vt 0.524836838 0
vt 0.499836832 1
vt 0.499836832 0
vt 0.474836797 1
vt 0.474836797 0
vt 0.449836791 1
vt 0.449836791 0
vt 0.424836814 1
vt 0.424836814 0
vt 0.399836779 1
vt 0.399836779 0
vt 0.374836802 1
vt 0.374836802 0
vt 0.349836767 1
vt 0.349836767 0
vt 0.324836761 1
vt 0.324836761 0
vt 0.299836755 1
vt 0.299836755 0
vt 0.274836719 1
vt 0.274836719 0
vt 0.249836743 1
vt 0.249836743 0
vt 0.224836707 1
vt 0.224836707 0
vt 0.199836701 1
vt 0.199836701 0
vt 0.174836695 1
vt 0.174836695 0
vt 0.149836689 1
vt 0.149836689 0
vt 0.124836676 1
vt 0.124836676 0
vt 0.0998366699 1
vt 0.0998366699 0
vt 0.0748366565 1
vt 0.0748366565 0
vt 0.0498366505 1
vt 0.0498366505 0
vt 0.0248366389 1
vt 0.0248366389 0
vt -0.000163434073 1
vt -0.000163434073 0
vn 0.0606031828 0.186517552 -0.980580688
vn 0.0306792744 0.19370161 -0.980580688
vn 0.0306792706 0.19370161 -0.980580688
vn 0.0606031828 0.186517552 -0.980580688
vn 0.0890348926 0.174740747 -0.980580688
vn 0.0890348852 0.174740732 -0.980580688
vn 0.115274191 0.158661291 -0.980580688
vn 0.115274191 0.158661291 -0.980580688
vn 0.138675064 0.138675064 -0.980580688
vn 0.138675064 0.138675064 -0.980580688
vn 0.158661291 0.115274191 -0.980580688
vn 0.158661291 0.115274191 -0.980580688
vn 0.174740747 0.0890348926 -0.980580688
vn 0.174740762 0.0890348926 -0.980580688
vn 0.186517552 0.0606032014 -0.980580688
vn 0.186517507 0.0606031939 -0.980580688
vn 0.19370158 0.0306792818 -0.980580688
vn 0.19370161 0.0306792893 -0.980580688
vn 0.196116135 0 -0.980580688
vn 0.19611612 0 -0.980580688
vn 0.193701684 -0.0306790229 -0.980580688
vn 0.193701684 -0.0306790117 -0.980580688
vn 0.186517641 -0.0606028661 -0.980580688
vn 0.186517626 -0.0606028624 -0.980580688
vn 0.174740925 -0.0890345797 -0.980580688
vn 0.174740925 -0.0890345797 -0.980580688
vn 0.158661515 -0.115273863 -0.980580688
vn 0.1586615 -0.115273863 -0.980580688
vn 0.138675317 -0.138674796 -0.980580688
vn 0.138675332 -0.138674796 -0.980580688
vn 0.1152744 -0.158661142 -0.980580688
vn 0.115274429 -0.158661142 -0.980580688
vn 0.0890351161 -0.174740642 -0.980580688
vn 0.0890351385 -0.174740657 -0.980580688
vn 0.0606035925 -0.186517403 -0.980580688
vn 0.0606035888 -0.186517432 -0.980580688
vn 0.0306796283 -0.19370155 -0.980580688
vn 0.0306796283 -0.193701535 -0.980580688
vn -0 -0.19611612 -0.980580688
vn -0 -0.19611612 -0.980580688
vn -0.0306790955 -0.193701655 -0.980580688
vn -0.0306790918 -0.19370167 -0.980580688
vn -0.060602989 -0.186517611 -0.980580688
vn -0.0606029928 -0.186517626 -0.980580688
vn -0.0890345871 -0.174740896 -0.980580688
vn -0.0890345871 -0.174740896 -0.980580688
vn -0.11527393 -0.158661425 -0.980580688
vn -0.115273938 -0.15866144 -0.980580688
vn -0.13867493 -0.138675168 -0.980580688
vn -0.13867493 -0.138675183 -0.980580688
vn -0.158661187 -0.115274325 -0.980580688
vn -0.158661172 -0.115274325 -0.980580688
vn -0.174740657 -0.0890350714 -0.980580688
vn -0.174740657 -0.0890350714 -0.980580688
vn -0.186517477 -0.0606033616 -0.980580688
vn -0.186517447 -0.0606033616 -0.980580688
vn -0.19370161 -0.0306794494 -0.980580688
vn -0.19370161 -0.0306794569 -0.980580688
vn -0.196116149 0 -0.980580688
vn -0.19611612 0 -0.980580688
vn -0.193701625 0.0306792129 -0.980580688
vn -0.19370167 0.0306792129 -0.980580688
vn -0.186517611 0.0606030673 -0.980580688
vn -0.186517596 0.0606030785 -0.980580688
vn -0.174740851 0.0890347585 -0.980580688
vn -0.174740851 0.0890347511 -0.980580688
vn -0.158661366 0.115274109 -0.980580688
vn -0.158661366 0.115274109 -0.980580688
vn -0.138675153 0.138674945 -0.980580688
vn -0.138675153 0.138674945 -0.980580688
vn -0.115274243 0.158661261 -0.980580688
vn -0.115274213 0.158661231 -0.980580688
vn -0.0890348628 0.174740762 -0.980580688
vn -0.0890348703 0.174740762 -0.980580688
vn -0.0606032237 0.186517537 -0.980580688
vn -0.0606032386 0.186517537 -0.980580688
vn -0.0306793954 0.193701595 -0.980580688
vn -0.0306793917 0.19370161 -0.980580688
vn -0 0.19611612 -0.980580688
vn -0 0.19611612 -0.980580688
vn 0.0306792706 0.19370161 -0.980580688
vn 0.0306792744 0.19370161 -0.980580688
g Cone001_0
f 3/3/3 2/2/2 1/1/1
f 2/2/2 4/4/4 1/1/1
f 1/1/1 4/4/4 5/5/5
f 4/4/4 6/6/6 5/5/5
f 5/5/5 6/6/6 7/7/7
f 6/6/6 8/8/8 7/7/7
f 7/7/7 8/8/8 9/9/9
f 8/8/8 10/10/10 9/9/9
f 9/9/9 10/10/10 11/11/11
f 10/10/10 12/12/12 11/11/11
f 11/11/11 12/12/12 13/13/13
f 12/12/12 14/14/14 13/13/13
f 13/13/13 14/14/14 15/15/15
f 14/14/14 16/16/16 15/15/15
f 15/15/15 16/16/16 17/17/17
f 16/16/16 18/18/18 17/17/17
f 17/17/17 18/18/18 19/19/19
f 18/18/18 20/20/20 19/19/19
f 19/19/19 20/20/20 21/21/21
f 20/20/20 22/22/22 21/21/21
f 21/21/21 22/22/22 23/23/23
f 22/22/22 24/24/24 23/23/23
f 23/23/23 24/24/24 25/25/25
f 24/24/24 26/26/26 25/25/25
f 25/25/25 26/26/26 27/27/27
f 26/26/26 28/28/28 27/27/27
f 27/27/27 28/28/28 29/29/29
f 28/28/28 30/30/30 29/29/29
f 29/29/29 30/30/30 31/31/31
f 30/30/30 32/32/32 31/31/31
f 31/31/31 32/32/32 33/33/33
f 32/32/32 34/34/34 33/33/33
f 33/33/33 34/34/34 35/35/35
f 34/34/34 36/36/36 35/35/35
f 35/35/35 36/36/36 37/37/37
f 36/36/36 38/38/38 37/37/37
f 37/37/37 38/38/38 39/39/39
f 38/38/38 40/40/40 39/39/39
f 39/39/39 40/40/40 41/41/41
f 40/40/40 42/42/42 41/41/41
f 41/41/41 42/42/42 43/43/43
f 42/42/42 44/44/44 43/43/43
f 43/43/43 44/44/44 45/45/45
f 44/44/44 46/46/46 45/45/45
f 45/45/45 46/46/46 47/47/47
f 46/46/46 48/48/48 47/47/47
f 47/47/47 48/48/48 49/49/49
f 48/48/48 50/50/50 49/49/49
f 49/49/49 50/50/50 51/51/51
f 50/50/50 52/52/52 51/51/51
f 51/51/51 52/52/52 53/53/53
f 52/52/52 54/54/54 53/53/53
f 53/53/53 54/54/54 55/55/55
f 54/54/54 56/56/56 55/55/55
f 55/55/55 56/56/56 57/57/57
f 56/56/56 58/58/58 57/57/57
f 57/57/57 58/58/58 59/59/59
f 58/58/58 60/60/60 59/59/59
f 59/59/59 60/60/60 61/61/61
f 60/60/60 62/62/62 61/61/61
f 61/61/61 62/62/62 63/63/63
f 62/62/62 64/64/64 63/63/63
f 63/63/63 64/64/64 65/65/65
f 64/64/64 66/66/66 65/65/65
f 65/65/65 66/66/66 67/67/67
f 66/66/66 68/68/68 67/67/67
f 67/67/67 68/68/68 69/69/69
f 68/68/68 70/70/70 69/69/69
f 69/69/69 70/70/70 71/71/71
f 70/70/70 72/72/72 71/71/71
f 71/71/71 72/72/72 73/73/73
f 72/72/72 74/74/74 73/73/73
f 73/73/73 74/74/74 75/75/75
f 74/74/74 76/76/76 75/75/75
f 75/75/75 76/76/76 77/77/77
f 76/76/76 78/78/78 77/77/77
f 77/77/77 78/78/78 79/79/79
f 78/78/78 80/80/80 79/79/79
f 79/79/79 80/80/80 81/81/81
f 80/80/80 82/82/82 81/81/81
