g Box001
v 15 -15 0
v -15 -15 0
v -14.9890814 -14.9890814 10.0043354
v 14.9890814 -14.9890814 10.0043335
v 14.8544216 -14.8544216 30
v -14.8544216 -14.8544216 30
v 15 15 0
v 15 -15 0
v 14.9890814 -14.9890814 10.0043335
v 14.9890814 14.9890814 10.0043325
v 14.8544216 14.8544216 30
v 14.8544216 -14.8544216 30
v -15 15 0
v 15 15 0
v 14.9890814 14.9890814 10.0043325
v -14.9890814 14.9890814 10.0043325
v -14.8544216 14.8544216 30
v 14.8544216 14.8544216 30
v -15 -15 0
v -15 15 0
v -14.9890814 14.9890814 10.0043325
v -14.9890814 -14.9890814 10.0043354
v -14.8544216 -14.8544216 30
v -14.8544216 14.8544216 30
vt 0.748228252 -0.00196802616
vt 0.498228252 -0.00196802616
vt 0.498228252 0.0730319619
vt 0.748228252 0.0730319694
vt 0.748228252 0.998031914
vt 0.498228252 0.998031914
vt 0.998228252 -0.00196802616
vt 0.748228252 -0.00196802616
vt 0.748228252 0.0730319694
vt 0.998228252 0.0730319694
vt 0.998228252 0.998031914
vt 0.748228252 0.998031914
vt 0.248228237 -0.00196802616
vt -0.00177176297 -0.00196802616
vt -0.00177176297 0.0730319694
vt 0.248228237 0.0730319694
vt 0.248228237 0.998031914
vt -0.00177176297 0.998031914
vt 0.498228252 -0.00196802616
vt 0.248228237 -0.00196802616
vt 0.248228237 0.0730319694
vt 0.498228252 0.0730319619
vt 0.498228252 0.998031914
vt 0.248228237 0.998031914
vn -0 -0.999999404 0.00109138805
vn -0 -0.999999404 0.00109138805
vn -0 -0.999992371 0.003905816
vn -0 -0.999992371 0.00390581577
vn -0 -0.99997735 0.00673429389
vn -0 -0.99997735 0.00673429389
vn 0.999999404 0 0.00109138817
vn 0.999999404 0 0.00109138817
vn 0.999992371 0 0.003905816
vn 0.999992371 0 0.003905816
vn 0.99997735 0 0.00673429389
vn 0.99997735 0 0.00673429389
vn -0 0.999999404 0.00109138817
vn -0 0.999999404 0.00109138817
vn -0 0.999992371 0.003905816
vn -0 0.999992371 0.003905816
vn -0 0.99997735 0.00673429389
vn -0 0.99997735 0.00673429389
vn -0.999999404 0 0.00109138805
vn -0.999999404 0 0.00109138805
vn -0.999992371 0 0.00390581577
vn -0.999992371 0 0.003905816
vn -0.99997735 0 0.00673429389
vn -0.99997735 0 0.00673429389
g Box001_0
f 3/3/3 2/2/2 1/1/1
f 4/4/4 3/3/3 1/1/1
f 3/3/3 4/4/4 5/5/5
f 6/6/6 3/3/3 5/5/5
f 9/9/9 8/8/8 7/7/7
f 10/10/10 9/9/9 7/7/7
f 9/9/9 10/10/10 11/11/11
f 12/12/12 9/9/9 11/11/11
f 15/15/15 14/14/14 13/13/13
f 16/16/16 15/15/15 13/13/13
f 15/15/15 16/16/16 17/17/17
f 18/18/18 15/15/15 17/17/17
f 21/21/21 20/20/20 19/19/19
f 22/22/22 21/21/21 19/19/19
f 21/21/21 22/22/22 23/23/23
f 24/24/24 21/21/21 23/23/23
