g Cylinder001
v -0 0.564057112 0
v -0.00178511394 0.359485716 0
v -0.034034647 0.357795596 0
v -0.0589600615 0.560967088 0
v -0.0659308136 0.352743775 0
v -0.117274038 0.55173105 0
v -0.097124204 0.344385475 0
v -0.174303234 0.536450207 0
v -0.127273038 0.332812428 0
v -0.229422688 0.51529181 0
v -0.156046972 0.318151325 0
v -0.282028556 0.48848781 0
v -0.183130801 0.300562948 0
v -0.331544399 0.45633173 0
v -0.208227739 0.28023988 0
v -0.377427787 0.419176251 0
v -0.231062874 0.257404745 0
v -0.419176012 0.377428025 0
v -0.251385987 0.232307673 0
v -0.45633164 0.331544667 0
v -0.268974394 0.205224007 0
v -0.488487631 0.282028794 0
v -0.283635497 0.176450029 0
v -0.515291631 0.229423016 0
v -0.295208544 0.14630124 0
v -0.536450028 0.174303606 0
v -0.303566784 0.115107946 0
v -0.551730931 0.117274575 0
v -0.308618665 0.0832117796 0
v -0.560967028 0.058960598 0
v -0.310308844 0.050962247 0
v -0.564057112 5.8135987E-07 0
v -0.308618754 0.0187128112 0
v -0.560967207 -0.0589593351 0
v -0.303566933 -0.013183401 0
v -0.551731229 -0.11727336 0
v -0.295208752 -0.0443767495 0
v -0.536450446 -0.174302459 0
v -0.283635706 -0.0745255351 0
v -0.515292108 -0.229421869 0
v -0.268974751 -0.103299506 0
v -0.488488257 -0.282027781 0
v -0.251386374 -0.130383372 0
v -0.456332356 -0.331543654 0
v -0.231063321 -0.15548034 0
v -0.419176817 -0.377427101 0
v -0.20822823 -0.17831549 0
v -0.37742871 -0.419175386 0
v -0.183131382 -0.198638678 0
v -0.331545383 -0.456331104 0
v -0.156047598 -0.216227204 0
v -0.282029659 -0.488487184 0
v -0.127273723 -0.230888307 0
v -0.22942391 -0.515291274 0
v -0.0971249342 -0.242461458 0
v -0.17430459 -0.53644979 0
v -0.0659315884 -0.250819743 0
v -0.117275499 -0.551730812 0
v -0.0340354703 -0.255871683 0
v -0.0589615181 -0.560967028 0
v -0.00178598589 -0.257561862 0
v -1.59873957E-06 -0.564057112 0
vt 1 0
vt 1 1
vt 0.966666639 1
vt 0.966666639 0
vt 0.933333218 1
vt 0.933333218 0
vt 0.899999917 1
vt 0.899999917 0
vt 0.866666436 1
vt 0.866666436 0
vt 0.833333194 1
vt 0.833333194 0
vt 0.799999893 1
vt 0.799999893 0
vt 0.766666532 1
vt 0.766666532 0
vt 0.73333317 1
vt 0.73333317 0
vt 0.699999928 1
vt 0.699999928 0
vt 0.666666508 1
vt 0.666666508 0
vt 0.633333206 1
vt 0.633333206 0
vt 0.599999905 1
vt 0.599999905 0
vt 0.566666543 1
vt 0.566666543 0
vt 0.533333302 1
vt 0.533333302 0
vt 0.49999994 1
vt 0.49999994 0
vt 0.46666652 1
vt 0.46666652 0
vt 0.433333218 1
vt 0.433333218 0
vt 0.399999976 1
vt 0.399999976 0
vt 0.366666555 1
vt 0.366666555 0
vt 0.333333194 1
vt 0.333333194 0
vt 0.299999893 1
vt 0.299999893 0
vt 0.266666532 1
vt 0.266666532 0
vt 0.23333329 1
vt 0.23333329 0
vt 0.199999928 1
vt 0.199999928 0
vt 0.166666627 1
vt 0.166666627 0
vt 0.133333325 1
vt 0.133333325 0
vt 0.0999999642 1
vt 0.0999999642 0
vt 0.0666666627 1
vt 0.0666666627 0
vt 0.0333332419 1
vt 0.0333332419 0
vt 0 1
vt 0 0
vn -0 0 1
vn -0 0 1
vn -0 0 1
vn -0 0 1
vn -0 0 1
vn -0 0 1
vn -0 0 1
vn -0 0 1
vn -0 0 1
vn -0 0 1
vn -0 0 1
vn -0 0 1
vn -0 0 1
vn -0 0 1
vn -0 0 1
vn -0 0 1
vn -0 0 1
vn -0 0 1
vn -0 0 1
vn -0 0 1
vn -0 0 1
vn -0 0 1
vn -0 0 1
vn -0 0 1
vn -0 0 1
vn -0 0 1
vn -0 0 1
vn -0 0 1
vn -0 0 1
vn -0 0 1
vn -0 0 1
vn -0 0 1
vn -0 0 1
vn -0 0 1
vn -0 0 1
vn -0 0 1
vn -0 0 1
vn -0 0 1
vn -0 0 1
vn -0 0 1
vn -0 0 1
vn -0 0 1
vn -0 0 1
vn -0 0 1
vn -0 0 1
vn -0 0 1
vn -0 0 1
vn -0 0 1
vn -0 0 1
vn -0 0 1
vn -0 0 1
vn -0 0 1
vn -0 0 1
vn -0 0 1
vn -0 0 1
vn -0 0 1
vn -0 0 1
vn -0 0 1
vn -0 0 1
vn -0 0 1
vn -0 0 1
vn -0 0 1
g Cylinder001_0
f 3/3/3 2/2/2 1/1/1
f 4/4/4 3/3/3 1/1/1
f 5/5/5 3/3/3 4/4/4
f 6/6/6 5/5/5 4/4/4
f 7/7/7 5/5/5 6/6/6
f 8/8/8 7/7/7 6/6/6
f 9/9/9 7/7/7 8/8/8
f 10/10/10 9/9/9 8/8/8
f 11/11/11 9/9/9 10/10/10
f 12/12/12 11/11/11 10/10/10
f 13/13/13 11/11/11 12/12/12
f 14/14/14 13/13/13 12/12/12
f 15/15/15 13/13/13 14/14/14
f 16/16/16 15/15/15 14/14/14
f 17/17/17 15/15/15 16/16/16
f 18/18/18 17/17/17 16/16/16
f 19/19/19 17/17/17 18/18/18
f 20/20/20 19/19/19 18/18/18
f 21/21/21 19/19/19 20/20/20
f 22/22/22 21/21/21 20/20/20
f 23/23/23 21/21/21 22/22/22
f 24/24/24 23/23/23 22/22/22
f 25/25/25 23/23/23 24/24/24
f 26/26/26 25/25/25 24/24/24
f 27/27/27 25/25/25 26/26/26
f 28/28/28 27/27/27 26/26/26
f 29/29/29 27/27/27 28/28/28
f 30/30/30 29/29/29 28/28/28
f 31/31/31 29/29/29 30/30/30
f 32/32/32 31/31/31 30/30/30
f 33/33/33 31/31/31 32/32/32
f 34/34/34 33/33/33 32/32/32
f 35/35/35 33/33/33 34/34/34
f 36/36/36 35/35/35 34/34/34
f 37/37/37 35/35/35 36/36/36
f 38/38/38 37/37/37 36/36/36
f 39/39/39 37/37/37 38/38/38
f 40/40/40 39/39/39 38/38/38
f 41/41/41 39/39/39 40/40/40
f 42/42/42 41/41/41 40/40/40
f 43/43/43 41/41/41 42/42/42
f 44/44/44 43/43/43 42/42/42
f 45/45/45 43/43/43 44/44/44
f 46/46/46 45/45/45 44/44/44
f 47/47/47 45/45/45 46/46/46
f 48/48/48 47/47/47 46/46/46
f 49/49/49 47/47/47 48/48/48
f 50/50/50 49/49/49 48/48/48
f 51/51/51 49/49/49 50/50/50
f 52/52/52 51/51/51 50/50/50
f 53/53/53 51/51/51 52/52/52
f 54/54/54 53/53/53 52/52/52
f 55/55/55 53/53/53 54/54/54
f 56/56/56 55/55/55 54/54/54
f 57/57/57 55/55/55 56/56/56
f 58/58/58 57/57/57 56/56/56
f 59/59/59 57/57/57 58/58/58
f 60/60/60 59/59/59 58/58/58
f 61/61/61 59/59/59 60/60/60
f 62/62/62 61/61/61 60/60/60
