g 柱体
v -1 0 0
v -0.980785191 0.195090324 0
v -0.980785191 0.195090324 2
v -1 0 2
v -0.980785191 0.195090324 0
v -0.923879445 0.382683426 0
v -0.923879445 0.382683426 2
v -0.980785191 0.195090324 2
v -0.923879445 0.382683426 0
v -0.831469536 0.555570245 0
v -0.831469536 0.555570245 2
v -0.923879445 0.382683426 2
v -0.831469536 0.555570245 0
v -0.707106769 0.707106769 0
v -0.707106769 0.707106769 2
v -0.831469536 0.555570245 2
v -0.707106769 0.707106769 0
v -0.555570245 0.831469536 0
v -0.555570245 0.831469536 2
v -0.707106769 0.707106769 2
v -0.555570245 0.831469536 0
v -0.382683426 0.923879445 0
v -0.382683426 0.923879445 2
v -0.555570245 0.831469536 2
v -0.382683426 0.923879445 0
v -0.195090324 0.980785191 0
v -0.195090324 0.980785191 2
v -0.382683426 0.923879445 2
v -0.195090324 0.980785191 0
v -0 1 0
v -0 1 2
v -0.195090324 0.980785191 2
vt 0.998620033 0
vt 0.873964965 0
vt 0.873964965 1
vt 0.998620033 1
vt 0.873964965 0
vt 0.749310017 0
vt 0.749310017 1
vt 0.873964965 1
vt 0.749310017 0
vt 0.624655008 0
vt 0.624655008 1
vt 0.749310017 1
vt 0.624655008 0
vt 0.5 0
vt 0.5 1
vt 0.624655008 1
vt 0.5 0
vt 0.375344992 0
vt 0.375344992 1
vt 0.5 1
vt 0.375344992 0
vt 0.250689983 0
vt 0.250689983 1
vt 0.375344992 1
vt 0.250689983 0
vt 0.126035035 0
vt 0.126035035 1
vt 0.250689983 1
vt 0.126035035 0
vt 0.00138002634 0
vt 0.00138002634 1
vt 0.126035035 1
vn -0.99518472 0.0980172604 0
vn -0.99518472 0.0980172604 0
vn -0.99518472 0.0980172604 0
vn -0.99518472 0.0980172604 0
vn -0.956940353 0.290284753 0
vn -0.956940353 0.290284753 0
vn -0.956940353 0.290284753 0
vn -0.956940353 0.290284753 0
vn -0.881921232 0.471396893 0
vn -0.881921232 0.471396893 0
vn -0.881921232 0.471396893 0
vn -0.881921232 0.471396893 0
vn -0.773010671 0.634393096 0
vn -0.773010671 0.634393096 0
vn -0.773010671 0.634393096 0
vn -0.773010671 0.634393096 0
vn -0.634393215 0.773010492 0
vn -0.634393215 0.773010492 0
vn -0.634393215 0.773010492 0
vn -0.634393215 0.773010492 0
vn -0.471396595 0.881921291 0
vn -0.471396595 0.881921291 0
vn -0.471396595 0.881921291 0
vn -0.471396595 0.881921291 0
vn -0.290284693 0.956940353 0
vn -0.290284693 0.956940353 0
vn -0.290284693 0.956940353 0
vn -0.290284693 0.956940353 0
vn -0.0980174541 0.99518472 0
vn -0.0980174541 0.99518472 0
vn -0.0980174541 0.99518472 0
vn -0.0980174541 0.99518472 0
g 柱体_0
f 3/3/3 2/2/2 1/1/1
f 4/4/4 3/3/3 1/1/1
f 7/7/7 6/6/6 5/5/5
f 8/8/8 7/7/7 5/5/5
f 11/11/11 10/10/10 9/9/9
f 12/12/12 11/11/11 9/9/9
f 15/15/15 14/14/14 13/13/13
f 16/16/16 15/15/15 13/13/13
f 19/19/19 18/18/18 17/17/17
f 20/20/20 19/19/19 17/17/17
f 23/23/23 22/22/22 21/21/21
f 24/24/24 23/23/23 21/21/21
f 27/27/27 26/26/26 25/25/25
f 28/28/28 27/27/27 25/25/25
f 31/31/31 30/30/30 29/29/29
f 32/32/32 31/31/31 29/29/29
