g 002
v 1.24630451 -0.864729643 -0.399934679
v 1.26900363 -0.673079908 -0.547672987
v 1.22024822 -0.878337085 -0.477762103
v 1.30250657 -0.656654656 -0.4541682
v 1.28198862 -0.845268548 -0.288291126
v 1.31775904 -0.46782276 -0.617583394
v 1.33819044 -0.637193918 -0.342525005
v 1.29922712 -0.829081833 -0.19674623
v 1.3587085 -0.448579878 -0.508401692
v 1.36651444 -0.262565643 -0.687493861
v 1.35773742 -0.618996918 -0.239594772
v 1.30979955 -0.808266282 -0.0802506208
v 1.39439249 -0.429119051 -0.396758527
v 1.41491055 -0.240505055 -0.562635243
v 1.41526985 -0.0573085397 -0.757404149
v 1.47111237 -0.0324303657 -0.61686933
v 1.45059443 -0.221044257 -0.450992048
v 1.50679624 -0.0129694054 -0.50522536
v 1.36830986 -0.598181307 -0.123098783
v 1.32037175 -0.787450492 0.0362449773
v 1.41624808 -0.408912152 -0.282443017
v 1.47475839 -0.198827311 -0.325291187
v 1.53326869 0.0112575432 -0.368139148
v 1.37888205 -0.577365875 -0.00660318229
v 1.31550646 -0.7641626 0.148479983
v 1.4268204 -0.388096482 -0.165947229
v 1.4853307 -0.17801173 -0.208795294
v 1.54384112 0.0320730768 -0.251643658
v 1.37404716 -0.553700626 0.107567757
v 1.30856431 -0.739672065 0.264533162
v 1.43739259 -0.36728099 -0.0494512431
v 1.49590302 -0.157196149 -0.0922994986
v 1.5544132 0.0528886989 -0.135147855
v 1.36710501 -0.529209971 0.22362113
v 1.29400361 -0.714134455 0.376407921
v 1.43258762 -0.343238562 0.0666558146
v 1.49112821 -0.132776722 0.0257436801
v 1.54966891 0.0776853338 -0.0151683567
v 1.35234475 -0.503375411 0.33675918
v 1.26501071 -0.685131013 0.487918168
v 1.42564559 -0.318747848 0.182708994
v 1.48418617 -0.108285785 0.141796872
v 1.54272687 0.102176078 0.100884639
v 1.3233521 -0.474372059 0.448269427
v 1.22915447 -0.656369984 0.591574132
v 1.4106859 -0.292616397 0.29711026
v 1.46902704 -0.0818574205 0.257461518
v 1.52736831 0.128901467 0.217812568
v 1.28669226 -0.444969356 0.554234207
v 1.18284702 -0.625238597 0.696468294
v 1.38169312 -0.263613045 0.408620894
v 1.44003439 -0.0528540164 0.368971765
v 1.49837554 0.157904923 0.329323024
v 1.24038482 -0.413838118 0.659128368
v 1.13754582 -0.59674418 0.790513694
v 1.34423006 -0.233568668 0.516894519
v 1.40176773 -0.0221681073 0.479554534
v 1.45930541 0.189232409 0.442214578
v 1.19264686 -0.383979946 0.7574929
v 1.07176852 -0.565156996 0.884278953
v 1.29792261 -0.202437446 0.621788442
v 1.35546017 0.00896307454 0.584448516
v 1.41299796 0.220363513 0.547108769
v 1.12686944 -0.352392733 0.851258099
v 1.00599086 -0.533569932 0.978044093
v 1.24774766 -0.171215728 0.724472165
v 1.3028487 0.0415483341 0.691451311
v 1.3579495 0.254312426 0.658430517
v 1.06109166 -0.320805818 0.945023239
v 0.927996635 -0.500489771 1.06103241
v 1.18197024 -0.139628604 0.818237364
v 1.23707104 0.0731355399 0.78521657
v 1.29217184 0.285899639 0.752195597
v 0.98309958 -0.287726641 1.02800894
v 0.847562194 -0.467113286 1.14185715
v 1.11619258 -0.108041488 0.912002385
v 1.17129362 0.104722552 0.878981829
v 1.22639453 0.317486733 0.845960557
v 0.902665257 -0.254350185 1.10883367
v 0.752557337 -0.433854371 1.20010662
v 1.03820288 -0.0749634802 0.994985461
v 1.09330595 0.137799561 0.961961985
v 1.14840913 0.350562841 0.928938746
v 0.80698204 -0.22083877 1.16758871
v 0.652229548 -0.399994344 1.25399685
v 0.957768261 -0.0415869802 1.07581031
v 1.0128715 0.171176195 1.04278696
v 1.06797457 0.383939326 1.0097636
v 0.70665431 -0.186978847 1.22147906
v 0.564207196 -0.372520536 1.29853821
v 0.861406922 -0.00782335177 1.13507068
v 0.915831804 0.205192104 1.10255289
v 0.970256448 0.418207616 1.07003498
v 0.61159569 -0.15732348 1.26956308
v 0.460097104 -0.342990845 1.34758329
v 0.761079133 0.0260365922 1.18896103
v 0.815504014 0.239052147 1.15644324
v 0.869928777 0.452067614 1.12392533
v 0.507485569 -0.127793714 1.31860816
v 0.380292416 -0.324486136 1.37708664
v 0.658984482 0.0578738414 1.24058807
v 0.706372976 0.273071021 1.21161282
v 0.753761709 0.488268107 1.18263769
v 0.413360238 -0.105995141 1.35335326
v 0.267271519 -0.304075271 1.40751684
v 0.300339311 -0.0855844244 1.38378358
v 0.554874182 0.0874035209 1.28963304
v 0.602262676 0.302600622 1.26065791
v 0.64965111 0.517797887 1.2316829
v 0.446428061 0.112495884 1.32962
v 0.333407193 0.132906511 1.36005032
v 0.479495734 0.330986828 1.30588651
v 0.512563586 0.549477756 1.28215325
v 0.366474926 0.351397574 1.33631694
v 0.399542689 0.569888532 1.31258357
vt 0.259383708 -0.00630914886
vt 0.249370411 0.243690848
vt 0.249370411 -0.00630914886
vt 0.259383708 0.243690848
vt 0.26939702 -0.00630914886
vt 0.249370411 0.493690848
vt 0.26939702 0.243690848
vt 0.279410332 -0.00630914886
vt 0.259383708 0.493690848
vt 0.249370411 0.743690848
vt 0.279410332 0.243690848
vt 0.289423645 -0.00630914886
vt 0.26939702 0.493690848
vt 0.259383708 0.743690848
vt 0.249370411 0.993690848
vt 0.259383708 0.993690848
vt 0.26939702 0.743690848
vt 0.26939702 0.993690848
vt 0.289423645 0.243690848
vt 0.299437016 -0.00630914886
vt 0.279410332 0.493690848
vt 0.279410332 0.743690848
vt 0.279410332 0.993690848
vt 0.299437016 0.243690848
vt 0.309450328 -0.00630914886
vt 0.289423645 0.493690848
vt 0.289423645 0.743690848
vt 0.289423645 0.993690848
vt 0.309450328 0.243690848
vt 0.31946364 -0.00630914886
vt 0.299437016 0.493690848
vt 0.299437016 0.743690848
vt 0.299437016 0.993690848
vt 0.31946364 0.243690848
vt 0.329477012 -0.00630914886
vt 0.309450328 0.493690848
vt 0.309450328 0.743690848
vt 0.309450328 0.993690848
vt 0.329477012 0.243690848
vt 0.339490354 -0.00630914886
vt 0.31946364 0.493690848
vt 0.31946364 0.743690848
vt 0.31946364 0.993690848
vt 0.339490354 0.243690848
vt 0.349503696 -0.00630914886
vt 0.329477012 0.493690848
vt 0.329477012 0.743690848
vt 0.329477012 0.993690848
vt 0.349503696 0.243690848
vt 0.359517008 -0.00630914886
vt 0.339490354 0.493690848
vt 0.339490354 0.743690848
vt 0.339490354 0.993690848
vt 0.359517008 0.243690848
vt 0.36953038 -0.00630914886
vt 0.349503696 0.493690848
vt 0.349503696 0.743690848
vt 0.349503696 0.993690848
vt 0.36953038 0.243690848
vt 0.379543722 -0.00630914886
vt 0.359517008 0.493690848
vt 0.359517008 0.743690848
vt 0.359517008 0.993690848
vt 0.379543722 0.243690848
vt 0.389557064 -0.00630914886
vt 0.36953038 0.493690848
vt 0.36953038 0.743690848
vt 0.36953038 0.993690848
vt 0.389557064 0.243690848
vt 0.399570376 -0.00630914886
vt 0.379543722 0.493690848
vt 0.379543722 0.743690848
vt 0.379543722 0.993690848
vt 0.399570376 0.243690848
vt 0.409583747 -0.00630914886
vt 0.389557064 0.493690848
vt 0.389557064 0.743690848
vt 0.389557064 0.993690848
vt 0.409583747 0.243690848
vt 0.419597089 -0.00630914886
vt 0.399570376 0.493690848
vt 0.399570376 0.743690848
vt 0.399570376 0.993690848
vt 0.419597089 0.243690848
vt 0.429610431 -0.00630914886
vt 0.409583747 0.493690848
vt 0.409583747 0.743690848
vt 0.409583747 0.993690848
vt 0.429610431 0.243690848
vt 0.439623773 -0.00630914886
vt 0.419597089 0.493690848
vt 0.419597089 0.743690848
vt 0.419597089 0.993690848
vt 0.439623773 0.243690848
vt 0.449637085 -0.00630914886
vt 0.429610431 0.493690848
vt 0.429610431 0.743690848
vt 0.429610431 0.993690848
vt 0.449637085 0.243690848
vt 0.459650427 -0.00630914886
vt 0.439623773 0.493690848
vt 0.439623773 0.743690848
vt 0.439623773 0.993690848
vt 0.459650427 0.243690848
vt 0.469663769 -0.00630914886
vt 0.469663769 0.243690848
vt 0.449637085 0.493690848
vt 0.449637085 0.743690848
vt 0.449637085 0.993690848
vt 0.459650427 0.493690848
vt 0.469663769 0.493690848
vt 0.459650427 0.743690848
vt 0.459650427 0.993690848
vt 0.469663769 0.743690848
vt 0.469663769 0.993690848
vn 0.916576505 -0.310932726 -0.251412719
vn 0.91044271 -0.312560856 -0.270924062
vn 0.913327515 -0.310911983 -0.262995481
vn 0.915242553 -0.311746091 -0.25523603
vn 0.935808063 -0.300836265 -0.183740646
vn 0.905570567 -0.31521228 -0.28387174
vn 0.935592353 -0.300988287 -0.184588924
vn 0.955491126 -0.282961577 -0.083482936
vn 0.912913799 -0.313126832 -0.261801332
vn 0.901853681 -0.317132175 -0.293406218
vn 0.955488801 -0.282970965 -0.0834773928
vn 0.960611403 -0.275286406 -0.0379895568
vn 0.935449839 -0.301081449 -0.185158595
vn 0.911166728 -0.314135402 -0.26663509
vn 0.900275111 -0.317922622 -0.297371775
vn 0.910477698 -0.31453979 -0.268505067
vn 0.935333192 -0.301157057 -0.185623899
vn 0.935151041 -0.301285118 -0.186332628
vn 0.960611284 -0.275286704 -0.0379895084
vn 0.96437943 -0.263060927 0.0277738534
vn 0.955405116 -0.283082455 -0.0840555727
vn 0.955336571 -0.283172876 -0.084528394
vn 0.955355704 -0.283154011 -0.0843754858
vn 0.964369535 -0.263139486 0.0273679327
vn 0.963408411 -0.248135656 0.101355419
vn 0.960611284 -0.275286764 -0.0379893854
vn 0.960611403 -0.275286436 -0.0379893482
vn 0.960611403 -0.275286317 -0.0379893892
vn 0.963420331 -0.248185873 0.101118863
vn 0.960297763 -0.239140317 0.143666908
vn 0.964358032 -0.263230234 0.026895836
vn 0.964346826 -0.263317913 0.0264389645
vn 0.964337051 -0.263391376 0.0260578077
vn 0.960292995 -0.239129201 0.143716976
vn 0.946862817 -0.217587247 0.236868396
vn 0.963443816 -0.248285905 0.10064894
vn 0.963466167 -0.248382717 0.100194141
vn 0.963477015 -0.248429462 0.0999741554
vn 0.94683516 -0.217552096 0.23701106
vn 0.923514485 -0.193314761 0.331285924
vn 0.960279286 -0.239097625 0.143861309
vn 0.960265756 -0.239067033 0.144002378
vn 0.960261345 -0.239057168 0.144048303
vn 0.923530936 -0.19332923 0.331231773
vn 0.898710787 -0.173468903 0.402774632
vn 0.946807802 -0.217517316 0.237152576
vn 0.94678086 -0.217483595 0.237290978
vn 0.946753919 -0.217449918 0.237429112
vn 0.898681223 -0.173447356 0.402849853
vn 0.877267301 -0.158364683 0.453125507
vn 0.92352587 -0.193324491 0.33124873
vn 0.923520803 -0.19332014 0.331265301
vn 0.923537374 -0.193335161 0.331210464
vn 0.877000868 -0.158199489 0.453698575
vn 0.835484803 -0.1340321 0.532917082
vn 0.898674726 -0.17344214 0.402866691
vn 0.898668349 -0.173437342 0.402882814
vn 0.898639083 -0.173416346 0.40295738
vn 0.834923208 -0.133727714 0.533872724
vn 0.795004606 -0.113402843 0.595909059
vn 0.876475155 -0.157872424 0.454826802
vn 0.875992119 -0.157572746 0.455860287
vn 0.875774503 -0.157439172 0.456324279
vn 0.795004547 -0.113402724 0.595909119
vn 0.754969418 -0.094814837 0.648869276
vn 0.834294617 -0.133383498 0.5349406
vn 0.833716989 -0.133067816 0.535918772
vn 0.83323431 -0.132807717 0.536733389
vn 0.75496906 -0.0948147848 0.648869693
vn 0.702227831 -0.071930103 0.708309293
vn 0.795004547 -0.113402866 0.595908999
vn 0.795004606 -0.113402732 0.59590888
vn 0.795004785 -0.113402344 0.59590888
vn 0.702227473 -0.0719303116 0.70830971
vn 0.611465037 -0.0357623585 0.790462911
vn 0.754968584 -0.0948149636 0.64887023
vn 0.754968345 -0.0948145911 0.648870468
vn 0.754968345 -0.0948140547 0.648870707
vn 0.611673892 -0.0358419381 0.790297627
vn 0.499511927 0.00470992597 0.866294146
vn 0.702226758 -0.071930401 0.708310306
vn 0.702226341 -0.071930185 0.708310783
vn 0.702226341 -0.0719300956 0.708310902
vn 0.499640971 0.00466536218 0.866220117
vn 0.466264874 0.0159126259 0.884502053
vn 0.611915171 -0.0359337963 0.790106714
vn 0.612152934 -0.0360240079 0.789918303
vn 0.612356186 -0.0361011475 0.789757311
vn 0.466290474 0.0159033593 0.884488642
vn 0.444239795 0.022746319 0.895619154
vn 0.499907523 0.0045727957 0.866066754
vn 0.500170231 0.00448197778 0.865915477
vn 0.500294566 0.00443936093 0.865843892
vn 0.444134861 0.0227768384 0.895670414
vn 0.393887371 0.0369761959 0.918414712
vn 0.466236919 0.0159199573 0.884516656
vn 0.466190189 0.0159345828 0.884541094
vn 0.466225713 0.0159223378 0.884522498
vn 0.39419809 0.0368854664 0.918285012
vn 0.313769698 0.0554212742 0.947880328
vn 0.444080412 0.022793578 0.895696998
vn 0.444032878 0.0228082333 0.895720124
vn 0.443936974 0.0228360649 0.895766973
vn 0.313179582 0.05553516 0.948068738
vn 0.270133495 0.0634743348 0.960728347
vn 0.270133764 0.0634740293 0.960728228
vn 0.394033551 0.0369244181 0.918353975
vn 0.393907696 0.0369542204 0.918406844
vn 0.394280881 0.0368481018 0.918250918
vn 0.313009888 0.0555733368 0.948122621
vn 0.270134419 0.063474074 0.96072799
vn 0.31287992 0.0556026176 0.948163807
vn 0.312334448 0.0557063371 0.948337555
vn 0.270134956 0.0634742752 0.96072799
vn 0.270135105 0.0634740666 0.96072787
g 002_0
f 3/3/3 2/2/2 1/1/1
f 2/2/2 4/4/4 1/1/1
f 1/1/1 4/4/4 5/5/5
f 2/2/2 6/6/6 4/4/4
f 4/4/4 7/7/7 5/5/5
f 5/5/5 7/7/7 8/8/8
f 6/6/6 9/9/9 4/4/4
f 4/4/4 9/9/9 7/7/7
f 6/6/6 10/10/10 9/9/9
f 7/7/7 11/11/11 8/8/8
f 8/8/8 11/11/11 12/12/12
f 9/9/9 13/13/13 7/7/7
f 7/7/7 13/13/13 11/11/11
f 10/10/10 14/14/14 9/9/9
f 9/9/9 14/14/14 13/13/13
f 10/10/10 15/15/15 14/14/14
f 15/15/15 16/16/16 14/14/14
f 14/14/14 16/16/16 17/17/17
f 14/14/14 17/17/17 13/13/13
f 16/16/16 18/18/18 17/17/17
f 11/11/11 19/19/19 12/12/12
f 12/12/12 19/19/19 20/20/20
f 13/13/13 21/21/21 11/11/11
f 13/13/13 17/17/17 21/21/21
f 11/11/11 21/21/21 19/19/19
f 17/17/17 18/18/18 22/22/22
f 17/17/17 22/22/22 21/21/21
f 18/18/18 23/23/23 22/22/22
f 19/19/19 24/24/24 20/20/20
f 20/20/20 24/24/24 25/25/25
f 21/21/21 26/26/26 19/19/19
f 21/21/21 22/22/22 26/26/26
f 19/19/19 26/26/26 24/24/24
f 22/22/22 23/23/23 27/27/27
f 22/22/22 27/27/27 26/26/26
f 23/23/23 28/28/28 27/27/27
f 24/24/24 29/29/29 25/25/25
f 25/25/25 29/29/29 30/30/30
f 26/26/26 31/31/31 24/24/24
f 26/26/26 27/27/27 31/31/31
f 24/24/24 31/31/31 29/29/29
f 27/27/27 28/28/28 32/32/32
f 27/27/27 32/32/32 31/31/31
f 28/28/28 33/33/33 32/32/32
f 29/29/29 34/34/34 30/30/30
f 30/30/30 34/34/34 35/35/35
f 31/31/31 36/36/36 29/29/29
f 31/31/31 32/32/32 36/36/36
f 29/29/29 36/36/36 34/34/34
f 32/32/32 33/33/33 37/37/37
f 32/32/32 37/37/37 36/36/36
f 33/33/33 38/38/38 37/37/37
f 34/34/34 39/39/39 35/35/35
f 35/35/35 39/39/39 40/40/40
f 36/36/36 41/41/41 34/34/34
f 36/36/36 37/37/37 41/41/41
f 34/34/34 41/41/41 39/39/39
f 37/37/37 38/38/38 42/42/42
f 37/37/37 42/42/42 41/41/41
f 38/38/38 43/43/43 42/42/42
f 39/39/39 44/44/44 40/40/40
f 40/40/40 44/44/44 45/45/45
f 41/41/41 46/46/46 39/39/39
f 41/41/41 42/42/42 46/46/46
f 39/39/39 46/46/46 44/44/44
f 42/42/42 43/43/43 47/47/47
f 42/42/42 47/47/47 46/46/46
f 43/43/43 48/48/48 47/47/47
f 44/44/44 49/49/49 45/45/45
f 45/45/45 49/49/49 50/50/50
f 46/46/46 51/51/51 44/44/44
f 46/46/46 47/47/47 51/51/51
f 44/44/44 51/51/51 49/49/49
f 47/47/47 48/48/48 52/52/52
f 47/47/47 52/52/52 51/51/51
f 48/48/48 53/53/53 52/52/52
f 49/49/49 54/54/54 50/50/50
f 50/50/50 54/54/54 55/55/55
f 51/51/51 56/56/56 49/49/49
f 51/51/51 52/52/52 56/56/56
f 49/49/49 56/56/56 54/54/54
f 52/52/52 53/53/53 57/57/57
f 52/52/52 57/57/57 56/56/56
f 53/53/53 58/58/58 57/57/57
f 54/54/54 59/59/59 55/55/55
f 55/55/55 59/59/59 60/60/60
f 56/56/56 61/61/61 54/54/54
f 56/56/56 57/57/57 61/61/61
f 54/54/54 61/61/61 59/59/59
f 57/57/57 58/58/58 62/62/62
f 57/57/57 62/62/62 61/61/61
f 58/58/58 63/63/63 62/62/62
f 59/59/59 64/64/64 60/60/60
f 60/60/60 64/64/64 65/65/65
f 61/61/61 66/66/66 59/59/59
f 61/61/61 62/62/62 66/66/66
f 59/59/59 66/66/66 64/64/64
f 62/62/62 63/63/63 67/67/67
f 62/62/62 67/67/67 66/66/66
f 63/63/63 68/68/68 67/67/67
f 64/64/64 69/69/69 65/65/65
f 65/65/65 69/69/69 70/70/70
f 66/66/66 71/71/71 64/64/64
f 66/66/66 67/67/67 71/71/71
f 64/64/64 71/71/71 69/69/69
f 67/67/67 68/68/68 72/72/72
f 67/67/67 72/72/72 71/71/71
f 68/68/68 73/73/73 72/72/72
f 69/69/69 74/74/74 70/70/70
f 70/70/70 74/74/74 75/75/75
f 71/71/71 76/76/76 69/69/69
f 71/71/71 72/72/72 76/76/76
f 69/69/69 76/76/76 74/74/74
f 72/72/72 73/73/73 77/77/77
f 72/72/72 77/77/77 76/76/76
f 73/73/73 78/78/78 77/77/77
f 74/74/74 79/79/79 75/75/75
f 75/75/75 79/79/79 80/80/80
f 76/76/76 81/81/81 74/74/74
f 76/76/76 77/77/77 81/81/81
f 74/74/74 81/81/81 79/79/79
f 77/77/77 78/78/78 82/82/82
f 77/77/77 82/82/82 81/81/81
f 78/78/78 83/83/83 82/82/82
f 79/79/79 84/84/84 80/80/80
f 80/80/80 84/84/84 85/85/85
f 81/81/81 86/86/86 79/79/79
f 81/81/81 82/82/82 86/86/86
f 79/79/79 86/86/86 84/84/84
f 82/82/82 83/83/83 87/87/87
f 82/82/82 87/87/87 86/86/86
f 83/83/83 88/88/88 87/87/87
f 84/84/84 89/89/89 85/85/85
f 85/85/85 89/89/89 90/90/90
f 86/86/86 91/91/91 84/84/84
f 86/86/86 87/87/87 91/91/91
f 84/84/84 91/91/91 89/89/89
f 87/87/87 88/88/88 92/92/92
f 87/87/87 92/92/92 91/91/91
f 88/88/88 93/93/93 92/92/92
f 89/89/89 94/94/94 90/90/90
f 90/90/90 94/94/94 95/95/95
f 91/91/91 96/96/96 89/89/89
f 91/91/91 92/92/92 96/96/96
f 89/89/89 96/96/96 94/94/94
f 92/92/92 93/93/93 97/97/97
f 92/92/92 97/97/97 96/96/96
f 93/93/93 98/98/98 97/97/97
f 94/94/94 99/99/99 95/95/95
f 95/95/95 99/99/99 100/100/100
f 96/96/96 101/101/101 94/94/94
f 96/96/96 97/97/97 101/101/101
f 94/94/94 101/101/101 99/99/99
f 97/97/97 98/98/98 102/102/102
f 97/97/97 102/102/102 101/101/101
f 98/98/98 103/103/103 102/102/102
f 99/99/99 104/104/104 100/100/100
f 100/100/100 104/104/104 105/105/105
f 104/104/104 106/106/106 105/105/105
f 101/101/101 107/107/107 99/99/99
f 101/101/101 102/102/102 107/107/107
f 99/99/99 107/107/107 104/104/104
f 102/102/102 103/103/103 108/108/108
f 102/102/102 108/108/108 107/107/107
f 103/103/103 109/109/109 108/108/108
f 104/104/104 110/110/110 106/106/106
f 107/107/107 110/110/110 104/104/104
f 107/107/107 108/108/108 110/110/110
f 110/110/110 111/111/111 106/106/106
f 108/108/108 109/109/109 112/112/112
f 108/108/108 112/112/112 110/110/110
f 110/110/110 112/112/112 111/111/111
f 109/109/109 113/113/113 112/112/112
f 112/112/112 114/114/114 111/111/111
f 112/112/112 113/113/113 114/114/114
f 113/113/113 115/115/115 114/114/114
