g 003
v 0.0367082953 -1.14179492 -1.20736063
v -0.0714579299 -0.936599135 -1.30587924
v -0.0819120556 -1.13830137 -1.2131325
v 0.0471624471 -0.940092921 -1.30010664
v 0.154140472 -1.13931382 -1.18887019
v -0.0610037372 -0.734896541 -1.39862549
v 0.164459929 -0.937611639 -1.28163218
v 0.270992965 -1.13556135 -1.16771185
v 0.0576166064 -0.738390446 -1.39285338
v -0.0505495556 -0.533194363 -1.49137247
v 0.281312466 -0.933859348 -1.26047361
v 0.359544873 -1.13202655 -1.14219558
v 0.174779356 -0.735909462 -1.37439442
v 0.0680707842 -0.536688089 -1.48559999
v -0.0400953665 -0.331491798 -1.58411884
v 0.0785249695 -0.334985763 -1.57834661
v 0.185098872 -0.534207165 -1.46715617
v 0.195418358 -0.332504928 -1.55991793
v 0.382508397 -0.929838479 -1.23156917
v 0.471271902 -1.12699056 -1.10209489
v 0.291631937 -0.732156873 -1.35323524
v 0.301951468 -0.530454695 -1.44599736
v 0.312270403 -0.328752279 -1.53875959
v 0.494235426 -0.924802184 -1.1914686
v 0.564558148 -1.12212944 -1.06319106
v 0.405471683 -0.727649689 -1.32094264
v 0.428435177 -0.525461376 -1.41031623
v 0.45139879 -0.323272943 -1.4996891
v 0.59549439 -0.919511199 -1.14912069
v 0.670267582 -1.11544228 -1.00936604
v 0.517198682 -0.722613513 -1.28084219
v 0.540162206 -0.520425141 -1.37021554
v 0.563125789 -0.318236738 -1.45958841
v 0.701203704 -0.912824035 -1.09529531
v 0.767142236 -1.10772312 -0.954889178
v 0.626430452 -0.716892719 -1.23505032
v 0.657366633 -0.514274538 -1.32097995
v 0.688303053 -0.311656326 -1.40690863
v 0.801133752 -0.904827237 -1.03898942
v 0.864179194 -1.09598279 -0.88734448
v 0.732139707 -0.710205615 -1.18122494
v 0.763076186 -0.507587492 -1.26715457
v 0.794012308 -0.304969132 -1.35308325
v 0.898170948 -0.893086851 -0.971444786
v 0.937057495 -1.08739221 -0.838434279
v 0.835125148 -0.701931179 -1.12308979
v 0.869116604 -0.499035388 -1.20719039
v 0.90310812 -0.29613924 -1.29129112
v 0.982535541 -0.882858038 -0.912546039
v 1.01727319 -1.07385135 -0.751840353
v 0.932162344 -0.690191031 -1.05554581
v 0.966153681 -0.487295061 -1.13964617
v 1.00014532 -0.284399092 -1.22374642
v 1.06275105 -0.869316995 -0.825952113
v 1.09748852 -1.06031013 -0.665246427
v 1.02801347 -0.678323627 -0.986658156
v 1.07349145 -0.473789483 -1.06077027
v 1.1189692 -0.269255251 -1.13488209
v 1.14296651 -0.855775952 -0.739358544
v 1.15617549 -1.0438143 -0.576132059
v 1.10822892 -0.664782763 -0.900064647
v 1.15370691 -0.46024856 -0.974176407
v 1.19918489 -0.255714208 -1.04828811
v 1.2049309 -0.838557065 -0.646042943
v 1.22024822 -1.02552891 -0.477762103
v 1.18844461 -0.651241839 -0.813470304
v 1.23392224 -0.446707606 -0.887582421
v 1.27940035 -0.242173254 -0.961694181
v 1.26900363 -0.820271909 -0.547672987
v 1.24630451 -1.01192164 -0.399934679
v 1.25368631 -0.633300126 -0.71595341
v 1.30244172 -0.428042948 -0.785863817
v 1.35119712 -0.222785771 -0.855774105
v 1.30250657 -0.803846598 -0.4541682
v 1.28198862 -0.992460549 -0.288291126
v 1.33819044 -0.78438586 -0.342525005
v 1.31775904 -0.615014672 -0.617583394
v 1.36651444 -0.409757555 -0.687493861
v 1.41526985 -0.204500452 -0.757404149
v 1.3587085 -0.59577179 -0.508401692
v 1.39439249 -0.576310992 -0.396758527
v 1.41491055 -0.387696981 -0.562635243
v 1.47111237 -0.179622307 -0.61686933
v 1.45059443 -0.368236184 -0.450992048
v 1.50679624 -0.160161346 -0.50522536
vt 0.0276942477 0
vt 0.0128707215 0.25
vt 0.0128707215 0
vt 0.0276942477 0.25
vt 0.0425177738 0
vt 0.0128707215 0.5
vt 0.0425177738 0.25
vt 0.0573413 0
vt 0.0276942477 0.5
vt 0.0128707215 0.75
vt 0.0573413 0.25
vt 0.072164841 0
vt 0.0425177738 0.5
vt 0.0276942477 0.75
vt 0.0128707215 1
vt 0.0276942477 1
vt 0.0425177738 0.75
vt 0.0425177738 1
vt 0.072164841 0.25
vt 0.0869883671 0
vt 0.0573413 0.5
vt 0.0573413 0.75
vt 0.0573413 1
vt 0.0869883671 0.25
vt 0.101811893 0
vt 0.072164841 0.5
vt 0.072164841 0.75
vt 0.072164841 1
vt 0.101811893 0.25
vt 0.116635419 0
vt 0.0869883671 0.5
vt 0.0869883671 0.75
vt 0.0869883671 1
vt 0.116635419 0.25
vt 0.131458938 0
vt 0.101811893 0.5
vt 0.101811893 0.75
vt 0.101811893 1
vt 0.131458938 0.25
vt 0.146282464 0
vt 0.116635419 0.5
vt 0.116635419 0.75
vt 0.116635419 1
vt 0.146282464 0.25
vt 0.16110599 0
vt 0.131458938 0.5
vt 0.131458938 0.75
vt 0.131458938 1
vt 0.16110599 0.25
vt 0.175929546 0
vt 0.146282464 0.5
vt 0.146282464 0.75
vt 0.146282464 1
vt 0.175929546 0.25
vt 0.190753043 0
vt 0.16110599 0.5
vt 0.16110599 0.75
vt 0.16110599 1
vt 0.190753043 0.25
vt 0.205576599 0
vt 0.175929546 0.5
vt 0.175929546 0.75
vt 0.175929546 1
vt 0.205576599 0.25
vt 0.220400095 0
vt 0.190753043 0.5
vt 0.190753043 0.75
vt 0.190753043 1
vt 0.220400095 0.25
vt 0.235223651 0
vt 0.205576599 0.5
vt 0.205576599 0.75
vt 0.205576599 1
vt 0.235223651 0.25
vt 0.250047177 0
vt 0.250047177 0.25
vt 0.220400095 0.5
vt 0.220400095 0.75
vt 0.220400095 1
vt 0.235223651 0.5
vt 0.250047177 0.5
vt 0.235223651 0.75
vt 0.235223651 1
vt 0.250047177 0.75
vt 0.250047177 1
vn 0.090991877 -0.419919014 -0.902988732
vn 0.031820368 -0.418918818 -0.907466054
vn 0.0318202451 -0.418918937 -0.907465935
vn 0.0910141692 -0.419919312 -0.902986288
vn 0.162344933 -0.419134259 -0.89329195
vn 0.0318204388 -0.418919533 -0.907465637
vn 0.162357926 -0.41913414 -0.893289626
vn 0.22121948 -0.417015612 -0.881566703
vn 0.0910404772 -0.419919848 -0.902983367
vn 0.0318203494 -0.418919563 -0.907465577
vn 0.220224217 -0.417051792 -0.881798744
vn 0.295031369 -0.413910747 -0.861181974
vn 0.162385002 -0.419133574 -0.893285096
vn 0.091067858 -0.419919819 -0.902980566
vn 0.0318203121 -0.418918729 -0.907466054
vn 0.0910912454 -0.419919491 -0.90297842
vn 0.162411839 -0.419132739 -0.893280506
vn 0.162424669 -0.419132352 -0.89327836
vn 0.294777125 -0.413932413 -0.861258626
vn 0.347066402 -0.411755592 -0.84261626
vn 0.219393313 -0.417072415 -0.881996155
vn 0.218728811 -0.417088658 -0.882153451
vn 0.217965484 -0.417117715 -0.882328629
vn 0.347160876 -0.411754102 -0.842578113
vn 0.402209222 -0.408932358 -0.81914711
vn 0.293961197 -0.413980484 -0.86151433
vn 0.293310076 -0.414018393 -0.861718059
vn 0.29327628 -0.414027691 -0.861725032
vn 0.402654618 -0.408907086 -0.818940938
vn 0.454022497 -0.405633122 -0.793300271
vn 0.34754172 -0.411739767 -0.842428148
vn 0.347870588 -0.411726505 -0.842298806
vn 0.347895324 -0.41172725 -0.842288256
vn 0.454180509 -0.405623198 -0.793214858
vn 0.515174329 -0.400516927 -0.75774771
vn 0.403026104 -0.408882856 -0.81877023
vn 0.403346688 -0.408860594 -0.818623543
vn 0.403721333 -0.408838212 -0.818450034
vn 0.515502512 -0.400484413 -0.757541656
vn 0.553935647 -0.394628674 -0.733091772
vn 0.454542667 -0.405600071 -0.793019295
vn 0.45488289 -0.405576736 -0.79283613
vn 0.455013663 -0.40556705 -0.792765975
vn 0.556965411 -0.394376963 -0.730928481
vn 0.631783128 -0.386107087 -0.672139406
vn 0.515849411 -0.400449306 -0.75732404
vn 0.516176403 -0.400415391 -0.757119179
vn 0.516475022 -0.400385052 -0.756931603
vn 0.636531472 -0.385473877 -0.668010056
vn 0.708737433 -0.374271274 -0.598006845
vn 0.562286437 -0.393923879 -0.727088749
vn 0.566362977 -0.393563211 -0.724113941
vn 0.568099439 -0.393411845 -0.722834766
vn 0.708737195 -0.37427187 -0.598006785
vn 0.762039542 -0.364008069 -0.535531461
vn 0.641410053 -0.384765595 -0.66373837
vn 0.64515084 -0.384207815 -0.66042763
vn 0.647948623 -0.383812487 -0.657913864
vn 0.761099994 -0.364215732 -0.536724985
vn 0.811258078 -0.35136193 -0.467338264
vn 0.708737254 -0.374271989 -0.598006606
vn 0.708737612 -0.374271303 -0.598006666
vn 0.708737612 -0.374271154 -0.598006725
vn 0.81076169 -0.351510882 -0.468087137
vn 0.870045424 -0.33279711 -0.363685459
vn 0.760032892 -0.364445835 -0.538079083
vn 0.759056151 -0.364655048 -0.539314806
vn 0.758265316 -0.364827007 -0.540310144
vn 0.86700511 -0.333937258 -0.369848698
vn 0.916576505 -0.310932696 -0.251412749
vn 0.809810877 -0.351794511 -0.469517887
vn 0.808940053 -0.352052897 -0.470823377
vn 0.808527589 -0.352175236 -0.471439928
vn 0.915242553 -0.311746031 -0.25523603
vn 0.919700742 -0.310908228 -0.239763483
vn 0.919700623 -0.310908437 -0.239763632
vn 0.863903165 -0.335017949 -0.376077473
vn 0.861582458 -0.335806489 -0.380669951
vn 0.859773576 -0.336450547 -0.384174913
vn 0.912913799 -0.313126802 -0.261801302
vn 0.919700623 -0.310908556 -0.239763752
vn 0.911166728 -0.314135402 -0.26663506
vn 0.910477698 -0.31453985 -0.268505096
vn 0.919700861 -0.310908347 -0.239763156
vn 0.91970104 -0.310908198 -0.239762485
g 003_0
f 3/3/3 2/2/2 1/1/1
f 2/2/2 4/4/4 1/1/1
f 1/1/1 4/4/4 5/5/5
f 2/2/2 6/6/6 4/4/4
f 4/4/4 7/7/7 5/5/5
f 5/5/5 7/7/7 8/8/8
f 6/6/6 9/9/9 4/4/4
f 4/4/4 9/9/9 7/7/7
f 6/6/6 10/10/10 9/9/9
f 7/7/7 11/11/11 8/8/8
f 8/8/8 11/11/11 12/12/12
f 9/9/9 13/13/13 7/7/7
f 7/7/7 13/13/13 11/11/11
f 10/10/10 14/14/14 9/9/9
f 9/9/9 14/14/14 13/13/13
f 10/10/10 15/15/15 14/14/14
f 15/15/15 16/16/16 14/14/14
f 14/14/14 16/16/16 17/17/17
f 14/14/14 17/17/17 13/13/13
f 16/16/16 18/18/18 17/17/17
f 11/11/11 19/19/19 12/12/12
f 12/12/12 19/19/19 20/20/20
f 13/13/13 21/21/21 11/11/11
f 13/13/13 17/17/17 21/21/21
f 11/11/11 21/21/21 19/19/19
f 17/17/17 18/18/18 22/22/22
f 17/17/17 22/22/22 21/21/21
f 18/18/18 23/23/23 22/22/22
f 19/19/19 24/24/24 20/20/20
f 20/20/20 24/24/24 25/25/25
f 21/21/21 26/26/26 19/19/19
f 21/21/21 22/22/22 26/26/26
f 19/19/19 26/26/26 24/24/24
f 22/22/22 23/23/23 27/27/27
f 22/22/22 27/27/27 26/26/26
f 23/23/23 28/28/28 27/27/27
f 24/24/24 29/29/29 25/25/25
f 25/25/25 29/29/29 30/30/30
f 26/26/26 31/31/31 24/24/24
f 26/26/26 27/27/27 31/31/31
f 24/24/24 31/31/31 29/29/29
f 27/27/27 28/28/28 32/32/32
f 27/27/27 32/32/32 31/31/31
f 28/28/28 33/33/33 32/32/32
f 29/29/29 34/34/34 30/30/30
f 30/30/30 34/34/34 35/35/35
f 31/31/31 36/36/36 29/29/29
f 31/31/31 32/32/32 36/36/36
f 29/29/29 36/36/36 34/34/34
f 32/32/32 33/33/33 37/37/37
f 32/32/32 37/37/37 36/36/36
f 33/33/33 38/38/38 37/37/37
f 34/34/34 39/39/39 35/35/35
f 35/35/35 39/39/39 40/40/40
f 36/36/36 41/41/41 34/34/34
f 36/36/36 37/37/37 41/41/41
f 34/34/34 41/41/41 39/39/39
f 37/37/37 38/38/38 42/42/42
f 37/37/37 42/42/42 41/41/41
f 38/38/38 43/43/43 42/42/42
f 39/39/39 44/44/44 40/40/40
f 40/40/40 44/44/44 45/45/45
f 41/41/41 46/46/46 39/39/39
f 41/41/41 42/42/42 46/46/46
f 39/39/39 46/46/46 44/44/44
f 42/42/42 43/43/43 47/47/47
f 42/42/42 47/47/47 46/46/46
f 43/43/43 48/48/48 47/47/47
f 44/44/44 49/49/49 45/45/45
f 45/45/45 49/49/49 50/50/50
f 46/46/46 51/51/51 44/44/44
f 46/46/46 47/47/47 51/51/51
f 44/44/44 51/51/51 49/49/49
f 47/47/47 48/48/48 52/52/52
f 47/47/47 52/52/52 51/51/51
f 48/48/48 53/53/53 52/52/52
f 49/49/49 54/54/54 50/50/50
f 50/50/50 54/54/54 55/55/55
f 51/51/51 56/56/56 49/49/49
f 51/51/51 52/52/52 56/56/56
f 49/49/49 56/56/56 54/54/54
f 52/52/52 53/53/53 57/57/57
f 52/52/52 57/57/57 56/56/56
f 53/53/53 58/58/58 57/57/57
f 54/54/54 59/59/59 55/55/55
f 55/55/55 59/59/59 60/60/60
f 56/56/56 61/61/61 54/54/54
f 56/56/56 57/57/57 61/61/61
f 54/54/54 61/61/61 59/59/59
f 57/57/57 58/58/58 62/62/62
f 57/57/57 62/62/62 61/61/61
f 58/58/58 63/63/63 62/62/62
f 59/59/59 64/64/64 60/60/60
f 60/60/60 64/64/64 65/65/65
f 61/61/61 66/66/66 59/59/59
f 61/61/61 62/62/62 66/66/66
f 59/59/59 66/66/66 64/64/64
f 62/62/62 63/63/63 67/67/67
f 62/62/62 67/67/67 66/66/66
f 63/63/63 68/68/68 67/67/67
f 64/64/64 69/69/69 65/65/65
f 65/65/65 69/69/69 70/70/70
f 66/66/66 71/71/71 64/64/64
f 66/66/66 67/67/67 71/71/71
f 64/64/64 71/71/71 69/69/69
f 67/67/67 68/68/68 72/72/72
f 67/67/67 72/72/72 71/71/71
f 68/68/68 73/73/73 72/72/72
f 69/69/69 74/74/74 70/70/70
f 70/70/70 74/74/74 75/75/75
f 74/74/74 76/76/76 75/75/75
f 71/71/71 77/77/77 69/69/69
f 71/71/71 72/72/72 77/77/77
f 69/69/69 77/77/77 74/74/74
f 72/72/72 73/73/73 78/78/78
f 72/72/72 78/78/78 77/77/77
f 73/73/73 79/79/79 78/78/78
f 74/74/74 80/80/80 76/76/76
f 77/77/77 80/80/80 74/74/74
f 77/77/77 78/78/78 80/80/80
f 80/80/80 81/81/81 76/76/76
f 78/78/78 79/79/79 82/82/82
f 78/78/78 82/82/82 80/80/80
f 80/80/80 82/82/82 81/81/81
f 79/79/79 83/83/83 82/82/82
f 82/82/82 84/84/84 81/81/81
f 82/82/82 83/83/83 84/84/84
f 83/83/83 85/85/85 84/84/84
