g 005
v -0.22991848 1.92401958 -1.39977729
v -0.124384075 1.68634605 -1.39978063
v -0.116865322 1.96363437 -1.42247188
v -0.23045218 1.64897633 -1.37805128
v -0.328963846 1.8887006 -1.37857413
v -0.131902903 1.40905738 -1.37708938
v -0.329497486 1.613657 -1.35684812
v -0.440090865 1.84324849 -1.33875465
v -0.23098588 1.37393224 -1.35632551
v -0.139421701 1.1317687 -1.35439849
v -0.433071434 1.57117605 -1.31941056
v -0.535039723 1.80225456 -1.29879034
v -0.330031246 1.33861303 -1.33512259
v -0.231519565 1.09888875 -1.33459973
v -0.146940544 0.854480803 -1.33170712
v -0.23205322 0.823845446 -1.31287372
v -0.330564916 1.06356955 -1.31339681
v -0.331098527 0.788526654 -1.29167056
v -0.528020263 1.530182 -1.27944613
v -0.633549035 1.7586025 -1.24793994
v -0.426051736 1.29910398 -1.30006611
v -0.419032276 1.0270319 -1.28072178
v -0.412012696 0.754959941 -1.26137745
v -0.623383939 1.48792017 -1.23018909
v -0.723602355 1.71782804 -1.194175
v -0.521000683 1.25811017 -1.2601018
v -0.513981223 0.986037672 -1.24075723
v -0.506961644 0.713965595 -1.22141278
v -0.7134372 1.4471457 -1.17642415
v -0.809168577 1.68109798 -1.13448131
v -0.613218784 1.21723831 -1.21243858
v -0.603053749 0.94655633 -1.19468772
v -0.592888534 0.67587465 -1.17693746
v -0.799582124 1.41016877 -1.11632037
v -0.891904533 1.64812577 -1.06588244
v -0.703272104 1.17646408 -1.15867341
v -0.693107069 0.905782104 -1.14092243
v -0.682941914 0.635100484 -1.12317216
v -0.882318497 1.37719655 -1.04772151
v -0.994467676 1.60052717 -0.969153821
v -0.789996266 1.13923991 -1.09815967
v -0.780410171 0.86831075 -1.07999861
v -0.770824134 0.59738183 -1.06183827
v -0.973317027 1.33549225 -0.962816238
v -1.06377161 1.55600858 -0.882316113
v -0.87273246 1.10626733 -1.0295608
v -0.863146245 0.835338354 -1.01139975
v -0.853560209 0.564409733 -0.993239343
v -1.04262066 1.2909739 -0.875978708
v -1.13499963 1.50997567 -0.789198518
v -0.9521662 1.07045734 -0.956478417
v -0.931015372 0.805422366 -0.950141013
v -0.909864485 0.540387928 -0.943803608
v -1.11218679 1.2460357 -0.785321414
v -1.1914525 1.47165477 -0.689875543
v -1.02146971 1.02593911 -0.869640708
v -1.00031888 0.760903716 -0.863303304
v -0.979168236 0.495869547 -0.856965899
v -1.16863942 1.20771468 -0.685998261
v -1.26060629 1.42180645 -0.561184943
v -1.08937395 0.982095838 -0.781443775
v -1.0665611 0.718155742 -0.77756685
v -1.04374838 0.454215884 -0.773689568
v -1.23128748 1.16358483 -0.571900368
v -1.29776394 1.37784982 -0.450544775
v -1.14582682 0.94377476 -0.682120562
v -1.12301409 0.679834783 -0.678243458
v -1.10020137 0.415894955 -0.674366176
v -1.26844478 1.11962795 -0.461259425
v -1.33492136 1.33389294 -0.339904249
v -1.20196879 0.905363142 -0.582615018
v -1.17264998 0.647141278 -0.593330443
v -1.14333129 0.388919801 -0.604045689
v -1.30560255 1.07567096 -0.350619107
v -1.36054146 1.28486073 -0.202354804
v -1.23912597 0.861406147 -0.471975058
v -1.20980763 0.603184521 -0.482690305
v -1.18048882 0.344962865 -0.493405163
v -1.32873666 1.03066659 -0.224028468
v -1.37513745 1.24497676 -0.0848910362
v -1.27628386 0.817448914 -0.361334532
v -1.24696529 0.559227467 -0.372049779
v -1.21764636 0.30100587 -0.382764816
v -1.34333241 0.990782559 -0.106564716
v -1.38969338 1.19343543 0.0643068328
v -1.29693162 0.77647239 -0.245701477
v -1.26512659 0.522278488 -0.267374575
v -1.23332167 0.268084615 -0.289047658
v -1.35716081 0.944906831 0.0267585404
v -1.38585579 1.14953637 0.181588039
v -1.35332334 0.901008546 0.14403975
v -1.31152737 0.73658818 -0.128237709
v -1.27972257 0.482394189 -0.149911001
v -1.24791753 0.228200629 -0.171583802
v -1.32462847 0.696378708 -0.0107890703
v -1.32079101 0.652480304 0.106492139
v -1.29209602 0.447850555 -0.0483369716
v -1.25956357 0.199322551 -0.0858847797
v -1.28825831 0.403952092 0.0689444318
v -1.2557261 0.155424252 0.0313968249
vt 0.976717353 0.997266054
vt 0.989180982 0.747266054
vt 0.989180982 0.997266054
vt 0.976717353 0.747266054
vt 0.964253724 0.997266054
vt 0.989180982 0.497266024
vt 0.964253724 0.747266054
vt 0.951790154 0.997266054
vt 0.976717353 0.497266024
vt 0.989180982 0.247266039
vt 0.951790154 0.747266054
vt 0.939326584 0.997266054
vt 0.964253724 0.497266024
vt 0.976717353 0.247266039
vt 0.989180982 -0.00273396424
vt 0.976717353 -0.00273396424
vt 0.964253724 0.247266039
vt 0.964253724 -0.00273396424
vt 0.939326584 0.747266054
vt 0.926862955 0.997266054
vt 0.951790154 0.497266024
vt 0.951790154 0.247266039
vt 0.951790154 -0.00273396424
vt 0.926862955 0.747266054
vt 0.914399445 0.997266054
vt 0.939326584 0.497266024
vt 0.939326584 0.247266039
vt 0.939326584 -0.00273396424
vt 0.914399445 0.747266054
vt 0.901935875 0.997266054
vt 0.926862955 0.497266024
vt 0.926862955 0.247266039
vt 0.926862955 -0.00273396424
vt 0.901935875 0.747266054
vt 0.889472246 0.997266054
vt 0.914399445 0.497266024
vt 0.914399445 0.247266039
vt 0.914399445 -0.00273396424
vt 0.889472246 0.747266054
vt 0.877008677 0.997266054
vt 0.901935875 0.497266024
vt 0.901935875 0.247266039
vt 0.901935875 -0.00273396424
vt 0.877008677 0.747266054
vt 0.864545166 0.997266054
vt 0.889472246 0.497266024
vt 0.889472246 0.247266039
vt 0.889472246 -0.00273396424
vt 0.864545166 0.747266054
vt 0.852081418 0.997266054
vt 0.877008677 0.497266024
vt 0.877008677 0.247266039
vt 0.877008677 -0.00273396424
vt 0.852081418 0.747266054
vt 0.839617968 0.997266054
vt 0.864545166 0.497266024
vt 0.864545166 0.247266039
vt 0.864545166 -0.00273396424
vt 0.839617968 0.747266054
vt 0.827154398 0.997266054
vt 0.852081418 0.497266024
vt 0.852081418 0.247266039
vt 0.852081418 -0.00273396424
vt 0.827154398 0.747266054
vt 0.814690828 0.997266054
vt 0.839617968 0.497266024
vt 0.839617968 0.247266039
vt 0.839617968 -0.00273396424
vt 0.814690828 0.747266054
vt 0.802227199 0.997266054
vt 0.827154398 0.497266024
vt 0.827154398 0.247266039
vt 0.827154398 -0.00273396424
vt 0.802227199 0.747266054
vt 0.789763629 0.997266054
vt 0.814690828 0.497266024
vt 0.814690828 0.247266039
vt 0.814690828 -0.00273396424
vt 0.789763629 0.747266054
vt 0.777300119 0.997266054
vt 0.802227199 0.497266024
vt 0.802227199 0.247266039
vt 0.802227199 -0.00273396424
vt 0.777300119 0.747266054
vt 0.764836431 0.997266054
vt 0.789763629 0.497266024
vt 0.789763629 0.247266039
vt 0.789763629 -0.00273396424
vt 0.764836431 0.747266054
vt 0.752372921 0.997266054
vt 0.752372921 0.747266054
vt 0.777300119 0.497266024
vt 0.777300119 0.247266039
vt 0.777300119 -0.00273396424
vt 0.764836431 0.497266024
vt 0.752372921 0.497266024
vt 0.764836431 0.247266039
vt 0.764836431 -0.00273396424
vt 0.752372921 0.247266039
vt 0.752372921 -0.00273396424
vn -0.176169544 -0.07670293 -0.981366873
vn -0.173783317 -0.0764214769 -0.981814206
vn -0.172238871 -0.076465793 -0.982082844
vn -0.178536564 -0.0767345876 -0.980936527
vn -0.231394127 -0.0763749257 -0.969857514
vn -0.178056583 -0.0762977973 -0.981057882
vn -0.247428834 -0.076107651 -0.965912402
vn -0.32897231 -0.0750646219 -0.941351473
vn -0.180741683 -0.0766697973 -0.980537713
vn -0.182962 -0.076154761 -0.980165958
vn -0.335647613 -0.0751237497 -0.938987255
vn -0.386520684 -0.0753456801 -0.919197977
vn -0.248933852 -0.07609649 -0.965526342
vn -0.183280692 -0.0765960589 -0.980072021
vn -0.186282411 -0.0760575831 -0.979547858
vn -0.183874503 -0.076680921 -0.979954243
vn -0.250689805 -0.0760840774 -0.96507293
vn -0.268158346 -0.0757827535 -0.960389555
vn -0.395365864 -0.0753128827 -0.915430903
vn -0.45214799 -0.0752318725 -0.888764501
vn -0.337166309 -0.0751013979 -0.938444793
vn -0.338942587 -0.0750748515 -0.937806845
vn -0.344287992 -0.0751484409 -0.935851753
vn -0.458700091 -0.0752625242 -0.88539803
vn -0.510449469 -0.0753474236 -0.856600285
vn -0.395487368 -0.0753134862 -0.915378392
vn -0.395617157 -0.0753137767 -0.915322363
vn -0.404543489 -0.0752732456 -0.911415696
vn -0.517574131 -0.0753346458 -0.852315426
vn -0.576951802 -0.0749278069 -0.813334167
vn -0.458819717 -0.0752622485 -0.885336101
vn -0.45894748 -0.075261578 -0.88526994
vn -0.465365678 -0.0752876699 -0.881910622
vn -0.584273636 -0.0748363957 -0.808098972
vn -0.637127817 -0.0734767392 -0.767247975
vn -0.517595708 -0.0753346831 -0.852302492
vn -0.517616808 -0.0753341541 -0.852289557
vn -0.524844706 -0.0753150359 -0.847859442
vn -0.641111016 -0.0732279569 -0.763946533
vn -0.704064131 -0.073853001 -0.706285596
vn -0.584293246 -0.0748363286 -0.808084726
vn -0.584313095 -0.0748355985 -0.808070481
vn -0.591730297 -0.0747354552 -0.802664161
vn -0.712752283 -0.0742575526 -0.697474003
vn -0.765030086 -0.0762096196 -0.639469326
vn -0.63857758 -0.0731799453 -0.766070127
vn -0.635114551 -0.0731122196 -0.768950105
vn -0.635341585 -0.0728048682 -0.768791497
vn -0.76625669 -0.0762334839 -0.637996137
vn -0.806833446 -0.0785438642 -0.585534453
vn -0.710309327 -0.0742319077 -0.699964523
vn -0.70694083 -0.0741942376 -0.703370392
vn -0.716143787 -0.0745777264 -0.693956971
vn -0.814493775 -0.0790172815 -0.574766159
vn -0.856849313 -0.0806057155 -0.509226799
vn -0.765739918 -0.0762024671 -0.638620079
vn -0.765194178 -0.0761689469 -0.639277816
vn -0.765927434 -0.0761624724 -0.638399899
vn -0.856806099 -0.0803253278 -0.509343803
vn -0.894766331 -0.0847810879 -0.438412249
vn -0.814022243 -0.0789905787 -0.575437486
vn -0.813524306 -0.0789622664 -0.576145053
vn -0.821648598 -0.0794568434 -0.564429164
vn -0.899552166 -0.0856323317 -0.428337425
vn -0.932482302 -0.0913744643 -0.349467367
vn -0.85402 -0.0799849555 -0.514054716
vn -0.850289643 -0.0795308352 -0.52027148
vn -0.846718013 -0.0788304061 -0.526169538
vn -0.932482302 -0.0913739055 -0.349467367
vn -0.950628161 -0.0960606635 -0.295090526
vn -0.897107482 -0.0853207409 -0.43349579
vn -0.893806458 -0.0849024057 -0.440342486
vn -0.899199128 -0.0858153105 -0.429041475
vn -0.954334974 -0.0970992148 -0.282518119
vn -0.975837648 -0.105250143 -0.191476211
vn -0.932482302 -0.0913728029 -0.349467814
vn -0.932482183 -0.0913731381 -0.349468082
vn -0.932482183 -0.0913739428 -0.349468023
vn -0.976761997 -0.105843335 -0.186368525
vn -0.982674778 -0.109503701 -0.149530411
vn -0.954877377 -0.0972839296 -0.280615747
vn -0.955529332 -0.0975081474 -0.278308809
vn -0.959546626 -0.0987139791 -0.263677478
vn -0.982732534 -0.109371968 -0.149246499
vn -0.989506304 -0.117835708 -0.0836178288
vn -0.977124155 -0.10601344 -0.184362471
vn -0.977558672 -0.106219329 -0.181924582
vn -0.978285909 -0.106735304 -0.177662909
vn -0.989867687 -0.118698776 -0.0779260918
vn -0.991719723 -0.1275087 -0.0152768148
vn -0.991719842 -0.127508387 -0.0152764777
vn -0.982244909 -0.108895302 -0.152763456
vn -0.98158592 -0.108267792 -0.1573755
vn -0.981122375 -0.107655048 -0.160652712
vn -0.989628434 -0.118238032 -0.0815803409
vn -0.991719842 -0.127508774 -0.015276053
vn -0.989292622 -0.117629044 -0.0863908976
vn -0.989690304 -0.118521683 -0.08040943
vn -0.991719842 -0.127508685 -0.0152761154
vn -0.991719842 -0.127508238 -0.0152762597
g 005_0
f 3/3/3 2/2/2 1/1/1
f 2/2/2 4/4/4 1/1/1
f 1/1/1 4/4/4 5/5/5
f 2/2/2 6/6/6 4/4/4
f 4/4/4 7/7/7 5/5/5
f 5/5/5 7/7/7 8/8/8
f 6/6/6 9/9/9 4/4/4
f 4/4/4 9/9/9 7/7/7
f 6/6/6 10/10/10 9/9/9
f 7/7/7 11/11/11 8/8/8
f 8/8/8 11/11/11 12/12/12
f 9/9/9 13/13/13 7/7/7
f 7/7/7 13/13/13 11/11/11
f 10/10/10 14/14/14 9/9/9
f 9/9/9 14/14/14 13/13/13
f 10/10/10 15/15/15 14/14/14
f 15/15/15 16/16/16 14/14/14
f 14/14/14 16/16/16 17/17/17
f 14/14/14 17/17/17 13/13/13
f 16/16/16 18/18/18 17/17/17
f 11/11/11 19/19/19 12/12/12
f 12/12/12 19/19/19 20/20/20
f 13/13/13 21/21/21 11/11/11
f 13/13/13 17/17/17 21/21/21
f 11/11/11 21/21/21 19/19/19
f 17/17/17 18/18/18 22/22/22
f 17/17/17 22/22/22 21/21/21
f 18/18/18 23/23/23 22/22/22
f 19/19/19 24/24/24 20/20/20
f 20/20/20 24/24/24 25/25/25
f 21/21/21 26/26/26 19/19/19
f 21/21/21 22/22/22 26/26/26
f 19/19/19 26/26/26 24/24/24
f 22/22/22 23/23/23 27/27/27
f 22/22/22 27/27/27 26/26/26
f 23/23/23 28/28/28 27/27/27
f 24/24/24 29/29/29 25/25/25
f 25/25/25 29/29/29 30/30/30
f 26/26/26 31/31/31 24/24/24
f 26/26/26 27/27/27 31/31/31
f 24/24/24 31/31/31 29/29/29
f 27/27/27 28/28/28 32/32/32
f 27/27/27 32/32/32 31/31/31
f 28/28/28 33/33/33 32/32/32
f 29/29/29 34/34/34 30/30/30
f 30/30/30 34/34/34 35/35/35
f 31/31/31 36/36/36 29/29/29
f 31/31/31 32/32/32 36/36/36
f 29/29/29 36/36/36 34/34/34
f 32/32/32 33/33/33 37/37/37
f 32/32/32 37/37/37 36/36/36
f 33/33/33 38/38/38 37/37/37
f 34/34/34 39/39/39 35/35/35
f 35/35/35 39/39/39 40/40/40
f 36/36/36 41/41/41 34/34/34
f 36/36/36 37/37/37 41/41/41
f 34/34/34 41/41/41 39/39/39
f 37/37/37 38/38/38 42/42/42
f 37/37/37 42/42/42 41/41/41
f 38/38/38 43/43/43 42/42/42
f 39/39/39 44/44/44 40/40/40
f 40/40/40 44/44/44 45/45/45
f 41/41/41 46/46/46 39/39/39
f 41/41/41 42/42/42 46/46/46
f 39/39/39 46/46/46 44/44/44
f 42/42/42 43/43/43 47/47/47
f 42/42/42 47/47/47 46/46/46
f 43/43/43 48/48/48 47/47/47
f 44/44/44 49/49/49 45/45/45
f 45/45/45 49/49/49 50/50/50
f 46/46/46 51/51/51 44/44/44
f 46/46/46 47/47/47 51/51/51
f 44/44/44 51/51/51 49/49/49
f 47/47/47 48/48/48 52/52/52
f 47/47/47 52/52/52 51/51/51
f 48/48/48 53/53/53 52/52/52
f 49/49/49 54/54/54 50/50/50
f 50/50/50 54/54/54 55/55/55
f 51/51/51 56/56/56 49/49/49
f 51/51/51 52/52/52 56/56/56
f 49/49/49 56/56/56 54/54/54
f 52/52/52 53/53/53 57/57/57
f 52/52/52 57/57/57 56/56/56
f 53/53/53 58/58/58 57/57/57
f 54/54/54 59/59/59 55/55/55
f 55/55/55 59/59/59 60/60/60
f 56/56/56 61/61/61 54/54/54
f 56/56/56 57/57/57 61/61/61
f 54/54/54 61/61/61 59/59/59
f 57/57/57 58/58/58 62/62/62
f 57/57/57 62/62/62 61/61/61
f 58/58/58 63/63/63 62/62/62
f 59/59/59 64/64/64 60/60/60
f 60/60/60 64/64/64 65/65/65
f 61/61/61 66/66/66 59/59/59
f 61/61/61 62/62/62 66/66/66
f 59/59/59 66/66/66 64/64/64
f 62/62/62 63/63/63 67/67/67
f 62/62/62 67/67/67 66/66/66
f 63/63/63 68/68/68 67/67/67
f 64/64/64 69/69/69 65/65/65
f 65/65/65 69/69/69 70/70/70
f 66/66/66 71/71/71 64/64/64
f 66/66/66 67/67/67 71/71/71
f 64/64/64 71/71/71 69/69/69
f 67/67/67 68/68/68 72/72/72
f 67/67/67 72/72/72 71/71/71
f 68/68/68 73/73/73 72/72/72
f 69/69/69 74/74/74 70/70/70
f 70/70/70 74/74/74 75/75/75
f 71/71/71 76/76/76 69/69/69
f 71/71/71 72/72/72 76/76/76
f 69/69/69 76/76/76 74/74/74
f 72/72/72 73/73/73 77/77/77
f 72/72/72 77/77/77 76/76/76
f 73/73/73 78/78/78 77/77/77
f 74/74/74 79/79/79 75/75/75
f 75/75/75 79/79/79 80/80/80
f 76/76/76 81/81/81 74/74/74
f 76/76/76 77/77/77 81/81/81
f 74/74/74 81/81/81 79/79/79
f 77/77/77 78/78/78 82/82/82
f 77/77/77 82/82/82 81/81/81
f 78/78/78 83/83/83 82/82/82
f 79/79/79 84/84/84 80/80/80
f 80/80/80 84/84/84 85/85/85
f 81/81/81 86/86/86 79/79/79
f 81/81/81 82/82/82 86/86/86
f 79/79/79 86/86/86 84/84/84
f 82/82/82 83/83/83 87/87/87
f 82/82/82 87/87/87 86/86/86
f 83/83/83 88/88/88 87/87/87
f 84/84/84 89/89/89 85/85/85
f 85/85/85 89/89/89 90/90/90
f 89/89/89 91/91/91 90/90/90
f 86/86/86 92/92/92 84/84/84
f 86/86/86 87/87/87 92/92/92
f 84/84/84 92/92/92 89/89/89
f 87/87/87 88/88/88 93/93/93
f 87/87/87 93/93/93 92/92/92
f 88/88/88 94/94/94 93/93/93
f 89/89/89 95/95/95 91/91/91
f 92/92/92 95/95/95 89/89/89
f 92/92/92 93/93/93 95/95/95
f 95/95/95 96/96/96 91/91/91
f 93/93/93 94/94/94 97/97/97
f 93/93/93 97/97/97 95/95/95
f 95/95/95 97/97/97 96/96/96
f 94/94/94 98/98/98 97/97/97
f 97/97/97 99/99/99 96/96/96
f 97/97/97 98/98/98 99/99/99
f 98/98/98 100/100/100 99/99/99
