g general_plane_48
v 2.17897203E-08 0.25 -0.108255789
v 0.00939571857 0.245196313 -0.0153086185
v 2.17897203E-08 0.25 0.00485203415
v 0.00939571857 0.245196313 -0.128416434
v 2.17897203E-08 0.25 -0.221363604
v 0.00939571857 0.245196313 -0.241524249
v 0.00939571857 0.245196313 -0.128416434
v 0.0184303448 0.230969876 -0.0348336697
v 0.00939571857 0.245196313 -0.0153086185
v 0.0184303448 0.230969876 -0.147941485
v 0.00939571857 0.245196313 -0.241524249
v 0.0184303448 0.230969876 -0.2610493
v 0.0184303448 0.230969876 -0.147941485
v 0.0267567039 0.207867399 -0.053090468
v 0.0184303448 0.230969876 -0.0348336697
v 0.0267567039 0.207867399 -0.166198283
v 0.0184303448 0.230969876 -0.2610493
v 0.0267567039 0.207867399 -0.279306114
v 0.0267567039 0.207867399 -0.166198283
v 0.0340548158 0.176776692 -0.0694463998
v 0.0267567039 0.207867399 -0.053090468
v 0.0340548158 0.176776692 -0.182554215
v 0.0267567039 0.207867399 -0.279306114
v 0.0340548158 0.176776692 -0.295662045
v 0.0340548158 0.176776692 -0.182554215
v 0.0400442183 0.138892546 -0.0832689553
v 0.0340548158 0.176776692 -0.0694463998
v 0.0400442183 0.138892546 -0.196376771
v 0.0340548158 0.176776692 -0.295662045
v 0.0400442183 0.138892546 -0.309484601
v 0.0400442183 0.138892546 -0.196376771
v 0.0444947481 0.0956708491 -0.0939253271
v 0.0400442183 0.138892546 -0.0832689553
v 0.0444947481 0.0956708491 -0.207033142
v 0.0400442183 0.138892546 -0.309484601
v 0.0444947481 0.0956708491 -0.320140958
v 0.0444947481 0.0956708491 -0.207033142
v 0.0472353697 0.0487725884 -0.10078311
v 0.0444947481 0.0956708491 -0.0939253271
v 0.0472353697 0.0487725884 -0.213890925
v 0.0444947481 0.0956708491 -0.320140958
v 0.0472353697 0.0487725884 -0.32699874
v 0.0472353697 0.0487725884 -0.213890925
v 0.0481607616 1.88744735E-08 -0.103209615
v 0.0472353697 0.0487725884 -0.10078311
v 0.0481607616 1.88744735E-08 -0.21631743
v 0.0472353697 0.0487725884 -0.32699874
v 0.0481607616 1.88744735E-08 -0.329425246
v 0.0481607616 1.88744735E-08 -0.21631743
v 0.0472353846 -0.0487725511 -0.10078311
v 0.0481607616 1.88744735E-08 -0.103209615
v 0.0472353846 -0.0487725511 -0.213890925
v 0.0481607616 1.88744735E-08 -0.329425246
v 0.0472353846 -0.0487725511 -0.32699874
v 0.0472353846 -0.0487725511 -0.213890925
v 0.0444947481 -0.0956708193 -0.0939253271
v 0.0472353846 -0.0487725511 -0.10078311
v 0.0444947481 -0.0956708193 -0.207033142
v 0.0472353846 -0.0487725511 -0.32699874
v 0.0444947481 -0.0956708193 -0.320140958
v 0.0444947481 -0.0956708193 -0.207033142
v 0.0400442183 -0.138892546 -0.0832689553
v 0.0444947481 -0.0956708193 -0.0939253271
v 0.0400442183 -0.138892546 -0.196376771
v 0.0444947481 -0.0956708193 -0.320140958
v 0.0400442183 -0.138892546 -0.309484601
v 0.0400442183 -0.138892546 -0.196376771
v 0.0340548158 -0.176776692 -0.0694463998
v 0.0400442183 -0.138892546 -0.0832689553
v 0.0340548158 -0.176776692 -0.182554215
v 0.0400442183 -0.138892546 -0.309484601
v 0.0340548158 -0.176776692 -0.295662045
v 0.0340548158 -0.176776692 -0.182554215
v 0.0267566964 -0.207867414 -0.0530904531
v 0.0340548158 -0.176776692 -0.0694463998
v 0.0267566964 -0.207867414 -0.166198269
v 0.0340548158 -0.176776692 -0.295662045
v 0.0267566964 -0.207867414 -0.279306084
v 0.0267566964 -0.207867414 -0.166198269
v 0.0184303373 -0.230969906 -0.0348336399
v 0.0267566964 -0.207867414 -0.0530904531
v 0.0184303373 -0.230969906 -0.147941455
v 0.0267566964 -0.207867414 -0.279306084
v 0.0184303373 -0.230969906 -0.261049271
v 0.0184303373 -0.230969906 -0.147941455
v 0.0093957074 -0.245196328 -0.0153085887
v 0.0184303373 -0.230969906 -0.0348336399
v 0.0093957074 -0.245196328 -0.128416404
v 0.0184303373 -0.230969906 -0.261049271
v 0.0093957074 -0.245196328 -0.24152422
v 0.0093957074 -0.245196328 -0.128416404
v 6.09695405E-09 -0.25 0.00485206395
v 0.0093957074 -0.245196328 -0.0153085887
v 6.09695405E-09 -0.25 -0.108255751
v 0.0093957074 -0.245196328 -0.24152422
v 6.09695405E-09 -0.25 -0.221363574
v 6.09695405E-09 -0.25 -0.108255751
v -0.0093956925 -0.245196298 0.0250158012
v 6.09695405E-09 -0.25 0.00485206395
v -0.0093956925 -0.245196298 -0.0880920142
v 6.09695405E-09 -0.25 -0.221363574
v -0.0093956925 -0.245196298 -0.20119983
v -0.0093956925 -0.245196298 -0.0880920142
v -0.0184303224 -0.230969831 0.0445499271
v -0.0093956925 -0.245196298 0.0250158012
v -0.0184303224 -0.230969831 -0.0685578957
v -0.0093956925 -0.245196298 -0.20119983
v -0.0184303224 -0.230969831 -0.181665719
v -0.0184303224 -0.230969831 -0.0685578957
v -0.0267566815 -0.207867324 0.0628218651
v -0.0184303224 -0.230969831 0.0445499271
v -0.0267566815 -0.207867324 -0.0502859503
v -0.0184303224 -0.230969831 -0.181665719
v -0.0267566815 -0.207867324 -0.163393766
v -0.0267566815 -0.207867324 -0.0502859503
v -0.0340548009 -0.176776588 0.0791990161
v -0.0267566815 -0.207867324 0.0628218651
v -0.0340548009 -0.176776588 -0.0339087993
v -0.0267566815 -0.207867324 -0.163393766
v -0.0340548009 -0.176776588 -0.147016615
v -0.0340548009 -0.176776588 -0.0339087993
v -0.0400442034 -0.138892412 0.0930487812
v -0.0340548009 -0.176776588 0.0791990161
v -0.0400442034 -0.138892412 -0.0200590342
v -0.0340548009 -0.176776588 -0.147016615
v -0.0400442034 -0.138892412 -0.13316685
v -0.0400442034 -0.138892412 -0.0200590342
v -0.0444947183 -0.0956706703 0.103738531
v -0.0400442034 -0.138892412 0.0930487812
v -0.0444947183 -0.0956706703 -0.00936928391
v -0.0400442034 -0.138892412 -0.13316685
v -0.0444947183 -0.0956706703 -0.122477099
v -0.0444947183 -0.0956706703 -0.00936928391
v -0.0472353399 -0.0487723649 0.110635668
v -0.0444947183 -0.0956706703 0.103738531
v -0.0472353399 -0.0487723649 -0.00247214735
v -0.0444947183 -0.0956706703 -0.122477099
v -0.0472353399 -0.0487723649 -0.115579963
v -0.0472353399 -0.0487723649 -0.00247214735
v -0.0481607318 2.41399789E-07 0.113107577
v -0.0472353399 -0.0487723649 0.110635668
v -0.0481607318 2.41399789E-07 -2.38418579E-07
v -0.0472353399 -0.0487723649 -0.115579963
v -0.0481607318 2.41399789E-07 -0.113108046
v -0.0481607318 2.41399789E-07 -2.38418579E-07
v -0.047235325 0.048772838 0.110635623
v -0.0481607318 2.41399789E-07 0.113107577
v -0.047235325 0.048772838 -0.00247219205
v -0.0481607318 2.41399789E-07 -0.113108046
v -0.047235325 0.048772838 -0.115580015
v -0.047235325 0.048772838 -0.00247219205
v -0.0444946885 0.0956711173 0.103738442
v -0.047235325 0.048772838 0.110635623
v -0.0444946885 0.0956711173 -0.00936937332
v -0.047235325 0.048772838 -0.115580015
v -0.0444946885 0.0956711173 -0.122477196
v -0.0444946885 0.0956711173 -0.00936937332
v -0.0400441438 0.138892815 0.093048647
v -0.0444946885 0.0956711173 0.103738442
v -0.0400441438 0.138892815 -0.0200591683
v -0.0444946885 0.0956711173 -0.122477196
v -0.0400441438 0.138892815 -0.133166984
v -0.0400441438 0.138892815 -0.0200591683
v -0.0340547264 0.176776916 0.079198882
v -0.0400441438 0.138892815 0.093048647
v -0.0340547264 0.176776916 -0.0339089334
v -0.0400441438 0.138892815 -0.133166984
v -0.0340547264 0.176776916 -0.147016749
v -0.0340547264 0.176776916 -0.0339089334
v -0.026756607 0.207867593 0.0628216863
v -0.0340547264 0.176776916 0.079198882
v -0.026756607 0.207867593 -0.0502861291
v -0.0340547264 0.176776916 -0.147016749
v -0.026756607 0.207867593 -0.163393945
v -0.026756607 0.207867593 -0.0502861291
v -0.018430233 0.230970025 0.0445497185
v -0.026756607 0.207867593 0.0628216863
v -0.018430233 0.230970025 -0.0685581043
v -0.026756607 0.207867593 -0.163393945
v -0.018430233 0.230970025 -0.181665927
v -0.018430233 0.230970025 -0.0685581043
v -0.00939560309 0.245196387 0.0250155777
v -0.018430233 0.230970025 0.0445497185
v -0.00939560309 0.245196387 -0.0880922303
v -0.018430233 0.230970025 -0.181665927
v -0.00939560309 0.245196387 -0.201200038
v -0.00939560309 0.245196387 -0.0880922303
v 2.17897203E-08 0.25 0.00485203415
v -0.00939560309 0.245196387 0.0250155777
v 2.17897203E-08 0.25 -0.108255789
v -0.00939560309 0.245196387 -0.201200038
v 2.17897203E-08 0.25 -0.221363604
vt 1.38720703 0.5
vt 1.35595703 0.992675781
vt 1.38720703 0.992675781
vt 1.35595703 0.5
vt 1.38720703 0.00732421875
vt 1.35595703 0.00732421875
vt 1.35595703 0.5
vt 1.32470703 0.992675781
vt 1.35595703 0.992675781
vt 1.32470691 0.49999997
vt 1.35595703 0.00732421875
vt 1.32470703 0.00732421875
vt 1.32470691 0.49999997
vt 1.29345703 0.992675781
vt 1.32470703 0.992675781
vt 1.29345703 0.5
vt 1.32470703 0.00732421875
vt 1.29345703 0.00732421875
vt 1.29345703 0.5
vt 1.26220703 0.992675781
vt 1.29345703 0.992675781
vt 1.26220703 0.5
vt 1.29345703 0.00732421875
vt 1.26220703 0.00732421875
vt 1.26220703 0.5
vt 1.23095703 0.992675781
vt 1.26220703 0.992675781
vt 1.23095703 0.5
vt 1.26220703 0.00732421875
vt 1.23095703 0.00732421875
vt 1.23095703 0.5
vt 1.19970703 0.992675781
vt 1.23095703 0.992675781
vt 1.19970703 0.50000006
vt 1.23095703 0.00732421875
vt 1.19970703 0.00732421875
vt 1.19970703 0.50000006
vt 1.16845703 0.992675781
vt 1.19970703 0.992675781
vt 1.16845715 0.50000006
vt 1.19970703 0.00732421875
vt 1.16845703 0.00732421875
vt 1.16845715 0.50000006
vt 1.13720703 0.992675781
vt 1.16845703 0.992675781
vt 1.13720703 0.5
vt 1.16845703 0.00732421875
vt 1.13720703 0.00732421875
vt 1.13720703 0.5
vt 1.10595703 0.992675781
vt 1.13720703 0.992675781
vt 1.10595715 0.50000006
vt 1.13720703 0.00732421875
vt 1.10595703 0.00732421875
vt 1.10595715 0.50000006
vt 1.07470703 0.992675781
vt 1.10595703 0.992675781
vt 1.07470703 0.5
vt 1.10595703 0.00732421875
vt 1.07470703 0.00732421875
vt 1.07470703 0.5
vt 1.04345703 0.992675781
vt 1.07470703 0.992675781
vt 1.04345703 0.5
vt 1.07470703 0.00732421875
vt 1.04345703 0.00732421875
vt 1.04345703 0.5
vt 1.01220703 0.992675781
vt 1.04345703 0.992675781
vt 1.01220703 0.5
vt 1.04345703 0.00732421875
vt 1.01220703 0.00732421875
vt 1.01220703 0.5
vt 0.980957031 0.992675781
vt 1.01220703 0.992675781
vt 0.980956972 0.49999994
vt 1.01220703 0.00732421875
vt 0.980957031 0.00732421875
vt 0.980956972 0.49999994
vt 0.949707031 0.992675781
vt 0.980957031 0.992675781
vt 0.949707031 0.5
vt 0.980957031 0.00732421875
vt 0.949707031 0.00732421875
vt 0.949707031 0.5
vt 0.918457031 0.992675781
vt 0.949707031 0.992675781
vt 0.918457031 0.5
vt 0.949707031 0.00732421875
vt 0.918457031 0.00732421875
vt 0.918457031 0.5
vt 0.887207031 0.992675781
vt 0.918457031 0.992675781
vt 0.887207031 0.5
vt 0.918457031 0.00732421875
vt 0.887207031 0.00732421875
vt 0.887207031 0.5
vt 0.855957031 0.992675781
vt 0.887207031 0.992675781
vt 0.855957031 0.5
vt 0.887207031 0.00732421875
vt 0.855957031 0.00732421875
vt 0.855957031 0.5
vt 0.824707031 0.992675781
vt 0.855957031 0.992675781
vt 0.824707031 0.5
vt 0.855957031 0.00732421875
vt 0.824707031 0.00732421875
vt 0.824707031 0.5
vt 0.793457031 0.992675781
vt 0.824707031 0.992675781
vt 0.793457031 0.5
vt 0.824707031 0.00732421875
vt 0.793457031 0.00732421875
vt 0.793457031 0.5
vt 0.762207031 0.992675781
vt 0.793457031 0.992675781
vt 0.762207031 0.5
vt 0.793457031 0.00732421875
vt 0.762207031 0.00732421875
vt 0.762207031 0.5
vt 0.730957031 0.992675781
vt 0.762207031 0.992675781
vt 0.730957031 0.5
vt 0.762207031 0.00732421875
vt 0.730957031 0.00732421875
vt 0.730957031 0.5
vt 0.699707031 0.992675781
vt 0.730957031 0.992675781
vt 0.699707031 0.5
vt 0.730957031 0.00732421875
vt 0.699707031 0.00732421875
vt 0.699707031 0.5
vt 0.668457031 0.992675781
vt 0.699707031 0.992675781
vt 0.668457031 0.5
vt 0.699707031 0.00732421875
vt 0.668457031 0.00732421875
vt 0.668457031 0.5
vt 0.637207031 0.992675781
vt 0.668457031 0.992675781
vt 0.637207031 0.49999997
vt 0.668457031 0.00732421875
vt 0.637207031 0.00732421875
vt 0.637207031 0.49999997
vt 0.605957031 0.992675781
vt 0.637207031 0.992675781
vt 0.605957031 0.5
vt 0.637207031 0.00732421875
vt 0.605957031 0.00732421875
vt 0.605957031 0.5
vt 0.574707031 0.992675781
vt 0.605957031 0.992675781
vt 0.574706972 0.49999997
vt 0.605957031 0.00732421875
vt 0.574707031 0.00732421875
vt 0.574706972 0.49999997
vt 0.543457031 0.992675781
vt 0.574707031 0.992675781
vt 0.543457031 0.5
vt 0.574707031 0.00732421875
vt 0.543457031 0.00732421875
vt 0.543457031 0.5
vt 0.512207031 0.992675781
vt 0.543457031 0.992675781
vt 0.512207031 0.5
vt 0.543457031 0.00732421875
vt 0.512207031 0.00732421875
vt 0.512207031 0.5
vt 0.480957031 0.992675781
vt 0.512207031 0.992675781
vt 0.480957091 0.5
vt 0.512207031 0.00732421875
vt 0.480957031 0.00732421875
vt 0.480957091 0.5
vt 0.449707031 0.992675781
vt 0.480957031 0.992675781
vt 0.449707061 0.5
vt 0.480957031 0.00732421875
vt 0.449707031 0.00732421875
vt 0.449707061 0.5
vt 0.418457031 0.992675781
vt 0.449707031 0.992675781
vt 0.418457031 0.5
vt 0.449707031 0.00732421875
vt 0.418457031 0.00732421875
vt 0.418457031 0.5
vt 0.386230469 0.992675781
vt 0.418457031 0.992675781
vt 0.386230469 0.5
vt 0.418457031 0.00732421875
vt 0.386230469 0.00732421875
vn 0.455219448 0.89037931 0
vn 0.455219448 0.89037931 0
vn 0.455219448 0.89037931 0
vn 0.455219448 0.89037931 0
vn 0.455219448 0.89037931 0
vn 0.455219448 0.89037931 0
vn 0.844159901 0.536091328 0
vn 0.844159901 0.536091328 0
vn 0.844159901 0.536091328 0
vn 0.844159901 0.536091328 0
vn 0.844159901 0.536091328 0
vn 0.844159901 0.536091328 0
vn 0.940764487 0.339060694 0
vn 0.940764487 0.339060694 0
vn 0.940764487 0.339060694 0
vn 0.940764487 0.339060694 0
vn 0.940764487 0.339060664 0
vn 0.940764487 0.339060664 0
vn 0.973538101 0.228524581 0
vn 0.973538101 0.228524581 0
vn 0.973538101 0.228524581 0
vn 0.973538101 0.228524581 0
vn 0.973538101 0.228524536 0
vn 0.973538101 0.228524536 0
vn 0.987732053 0.156158328 0
vn 0.987732053 0.156158328 0
vn 0.987732053 0.156158328 0
vn 0.987732053 0.156158328 0
vn 0.987732053 0.156158298 0
vn 0.987732053 0.156158298 0
vn 0.994740427 0.10242822 0
vn 0.994740427 0.10242822 0
vn 0.994740427 0.10242822 0
vn 0.994740427 0.10242822 0
vn 0.994740427 0.102428198 0
vn 0.994740427 0.102428198 0
vn 0.998296916 0.0583380535 0
vn 0.998296916 0.0583380535 0
vn 0.998296916 0.0583380535 0
vn 0.998296916 0.0583380535 0
vn 0.998296916 0.0583380535 0
vn 0.998296916 0.0583380535 0
vn 0.999820054 0.0189701915 0
vn 0.999820054 0.0189701915 0
vn 0.999820054 0.0189701915 0
vn 0.999820054 0.0189701915 0
vn 0.999820054 0.0189701952 0
vn 0.999820054 0.0189701952 0
vn 0.999820054 -0.0189698525 0
vn 0.999820054 -0.0189698525 0
vn 0.999820054 -0.0189698525 0
vn 0.999820054 -0.0189698525 0
vn 0.999820054 -0.0189698581 0
vn 0.999820054 -0.0189698581 0
vn 0.998296916 -0.0583383888 0
vn 0.998296916 -0.0583383888 0
vn 0.998296916 -0.0583383888 0
vn 0.998296916 -0.0583383888 0
vn 0.998296916 -0.0583383963 0
vn 0.998296916 -0.0583383963 0
vn 0.994740427 -0.102428153 0
vn 0.994740427 -0.102428153 0
vn 0.994740427 -0.102428153 0
vn 0.994740427 -0.102428153 0
vn 0.994740427 -0.102428123 0
vn 0.994740427 -0.102428123 0
vn 0.987732053 -0.156158328 0
vn 0.987732053 -0.156158328 0
vn 0.987732053 -0.156158328 0
vn 0.987732053 -0.156158328 0
vn 0.987732053 -0.156158298 0
vn 0.987732053 -0.156158298 0
vn 0.973538101 -0.22852473 0
vn 0.973538101 -0.22852473 0
vn 0.973538101 -0.22852473 0
vn 0.973538101 -0.22852473 0
vn 0.973538101 -0.228524789 0
vn 0.973538101 -0.228524789 0
vn 0.940764606 -0.339060515 0
vn 0.940764606 -0.339060515 0
vn 0.940764606 -0.339060515 0
vn 0.940764606 -0.339060515 0
vn 0.940764606 -0.339060515 0
vn 0.940764606 -0.339060515 0
vn 0.844159603 -0.536091983 0
vn 0.844159603 -0.536091983 0
vn 0.844159603 -0.536091983 0
vn 0.844159603 -0.536091983 0
vn 0.844159663 -0.536091924 0
vn 0.844159663 -0.536091924 0
vn 0.455218136 -0.890379846 0
vn 0.455218136 -0.890379846 0
vn 0.455218136 -0.890379846 0
vn 0.455218136 -0.890379846 0
vn 0.455218136 -0.890379846 0
vn 0.455218136 -0.890379846 0
vn -0.455220461 -0.890378714 0
vn -0.455220461 -0.890378714 0
vn -0.455220461 -0.890378714 0
vn -0.455220461 -0.890378714 0
vn -0.455220461 -0.890378714 0
vn -0.455220461 -0.890378714 0
vn -0.844160438 -0.536090672 0
vn -0.844160438 -0.536090672 0
vn -0.844160438 -0.536090672 0
vn -0.844160438 -0.536090672 0
vn -0.844160378 -0.536090672 0
vn -0.844160378 -0.536090672 0
vn -0.940764606 -0.339060396 0
vn -0.940764606 -0.339060396 0
vn -0.940764606 -0.339060396 0
vn -0.940764606 -0.339060396 0
vn -0.940764606 -0.339060396 0
vn -0.940764606 -0.339060396 0
vn -0.973538101 -0.228524476 0
vn -0.973538101 -0.228524476 0
vn -0.973538101 -0.228524476 0
vn -0.973538101 -0.228524476 0
vn -0.973538101 -0.228524506 0
vn -0.973538101 -0.228524506 0
vn -0.987732053 -0.156158194 0
vn -0.987732053 -0.156158194 0
vn -0.987732053 -0.156158194 0
vn -0.987732053 -0.156158194 0
vn -0.987732053 -0.156158194 0
vn -0.987732053 -0.156158194 0
vn -0.994740427 -0.102427818 0
vn -0.994740427 -0.102427818 0
vn -0.994740427 -0.102427818 0
vn -0.994740427 -0.102427818 0
vn -0.994740427 -0.102427818 0
vn -0.994740427 -0.102427818 0
vn -0.998296916 -0.0583379976 0
vn -0.998296916 -0.0583379976 0
vn -0.998296916 -0.0583379976 0
vn -0.998296916 -0.0583379976 0
vn -0.998296916 -0.0583379976 0
vn -0.998296916 -0.0583379976 0
vn -0.999820054 -0.0189701784 0
vn -0.999820054 -0.0189701784 0
vn -0.999820054 -0.0189701784 0
vn -0.999820054 -0.0189701784 0
vn -0.999820054 -0.0189701803 0
vn -0.999820054 -0.0189701803 0
vn -0.999820054 0.0189705212 0
vn -0.999820054 0.0189705212 0
vn -0.999820054 0.0189705212 0
vn -0.999820054 0.0189705212 0
vn -0.999820054 0.0189705212 0
vn -0.999820054 0.0189705212 0
vn -0.998296916 0.0583382882 0
vn -0.998296916 0.0583382882 0
vn -0.998296916 0.0583382882 0
vn -0.998296916 0.0583382882 0
vn -0.998296916 0.0583383776 0
vn -0.998296916 0.0583383776 0
vn -0.994740427 0.102428503 0
vn -0.994740427 0.102428503 0
vn -0.994740427 0.102428503 0
vn -0.994740427 0.102428503 0
vn -0.994740427 0.102428503 0
vn -0.994740427 0.102428503 0
vn -0.987731934 0.156158909 0
vn -0.987731934 0.156158909 0
vn -0.987731934 0.156158909 0
vn -0.987731934 0.156158909 0
vn -0.987731934 0.156158924 0
vn -0.987731934 0.156158924 0
vn -0.973537982 0.228524953 0
vn -0.973537982 0.228524953 0
vn -0.973537982 0.228524953 0
vn -0.973537982 0.228524953 0
vn -0.973537982 0.228524983 0
vn -0.973537982 0.228524983 0
vn -0.94076407 0.339061856 0
vn -0.94076407 0.339061856 0
vn -0.94076407 0.339061856 0
vn -0.94076407 0.339061856 0
vn -0.94076407 0.339061856 0
vn -0.94076407 0.339061856 0
vn -0.844158649 0.536093533 0
vn -0.844158649 0.536093533 0
vn -0.844158649 0.536093533 0
vn -0.844158649 0.536093533 0
vn -0.844158649 0.536093533 0
vn -0.844158649 0.536093533 0
vn -0.455216616 0.89038074 0
vn -0.455216616 0.89038074 0
vn -0.455216616 0.89038074 0
vn -0.455216616 0.89038074 0
vn -0.455216676 0.89038074 0
vn -0.455216676 0.89038074 0
g general_plane_48_0
f 3/3/3 2/2/2 1/1/1
f 2/2/2 4/4/4 1/1/1
f 1/1/1 4/4/4 5/5/5
f 4/4/4 6/6/6 5/5/5
f 9/9/9 8/8/8 7/7/7
f 8/8/8 10/10/10 7/7/7
f 7/7/7 10/10/10 11/11/11
f 10/10/10 12/12/12 11/11/11
f 15/15/15 14/14/14 13/13/13
f 14/14/14 16/16/16 13/13/13
f 13/13/13 16/16/16 17/17/17
f 16/16/16 18/18/18 17/17/17
f 21/21/21 20/20/20 19/19/19
f 20/20/20 22/22/22 19/19/19
f 19/19/19 22/22/22 23/23/23
f 22/22/22 24/24/24 23/23/23
f 27/27/27 26/26/26 25/25/25
f 26/26/26 28/28/28 25/25/25
f 25/25/25 28/28/28 29/29/29
f 28/28/28 30/30/30 29/29/29
f 33/33/33 32/32/32 31/31/31
f 32/32/32 34/34/34 31/31/31
f 31/31/31 34/34/34 35/35/35
f 34/34/34 36/36/36 35/35/35
f 39/39/39 38/38/38 37/37/37
f 38/38/38 40/40/40 37/37/37
f 37/37/37 40/40/40 41/41/41
f 40/40/40 42/42/42 41/41/41
f 45/45/45 44/44/44 43/43/43
f 44/44/44 46/46/46 43/43/43
f 43/43/43 46/46/46 47/47/47
f 46/46/46 48/48/48 47/47/47
f 51/51/51 50/50/50 49/49/49
f 50/50/50 52/52/52 49/49/49
f 49/49/49 52/52/52 53/53/53
f 52/52/52 54/54/54 53/53/53
f 57/57/57 56/56/56 55/55/55
f 56/56/56 58/58/58 55/55/55
f 55/55/55 58/58/58 59/59/59
f 58/58/58 60/60/60 59/59/59
f 63/63/63 62/62/62 61/61/61
f 62/62/62 64/64/64 61/61/61
f 61/61/61 64/64/64 65/65/65
f 64/64/64 66/66/66 65/65/65
f 69/69/69 68/68/68 67/67/67
f 68/68/68 70/70/70 67/67/67
f 67/67/67 70/70/70 71/71/71
f 70/70/70 72/72/72 71/71/71
f 75/75/75 74/74/74 73/73/73
f 74/74/74 76/76/76 73/73/73
f 73/73/73 76/76/76 77/77/77
f 76/76/76 78/78/78 77/77/77
f 81/81/81 80/80/80 79/79/79
f 80/80/80 82/82/82 79/79/79
f 79/79/79 82/82/82 83/83/83
f 82/82/82 84/84/84 83/83/83
f 87/87/87 86/86/86 85/85/85
f 86/86/86 88/88/88 85/85/85
f 85/85/85 88/88/88 89/89/89
f 88/88/88 90/90/90 89/89/89
f 93/93/93 92/92/92 91/91/91
f 92/92/92 94/94/94 91/91/91
f 91/91/91 94/94/94 95/95/95
f 94/94/94 96/96/96 95/95/95
f 99/99/99 98/98/98 97/97/97
f 98/98/98 100/100/100 97/97/97
f 97/97/97 100/100/100 101/101/101
f 100/100/100 102/102/102 101/101/101
f 105/105/105 104/104/104 103/103/103
f 104/104/104 106/106/106 103/103/103
f 103/103/103 106/106/106 107/107/107
f 106/106/106 108/108/108 107/107/107
f 111/111/111 110/110/110 109/109/109
f 110/110/110 112/112/112 109/109/109
f 109/109/109 112/112/112 113/113/113
f 112/112/112 114/114/114 113/113/113
f 117/117/117 116/116/116 115/115/115
f 116/116/116 118/118/118 115/115/115
f 115/115/115 118/118/118 119/119/119
f 118/118/118 120/120/120 119/119/119
f 123/123/123 122/122/122 121/121/121
f 122/122/122 124/124/124 121/121/121
f 121/121/121 124/124/124 125/125/125
f 124/124/124 126/126/126 125/125/125
f 129/129/129 128/128/128 127/127/127
f 128/128/128 130/130/130 127/127/127
f 127/127/127 130/130/130 131/131/131
f 130/130/130 132/132/132 131/131/131
f 135/135/135 134/134/134 133/133/133
f 134/134/134 136/136/136 133/133/133
f 133/133/133 136/136/136 137/137/137
f 136/136/136 138/138/138 137/137/137
f 141/141/141 140/140/140 139/139/139
f 140/140/140 142/142/142 139/139/139
f 139/139/139 142/142/142 143/143/143
f 142/142/142 144/144/144 143/143/143
f 147/147/147 146/146/146 145/145/145
f 146/146/146 148/148/148 145/145/145
f 145/145/145 148/148/148 149/149/149
f 148/148/148 150/150/150 149/149/149
f 153/153/153 152/152/152 151/151/151
f 152/152/152 154/154/154 151/151/151
f 151/151/151 154/154/154 155/155/155
f 154/154/154 156/156/156 155/155/155
f 159/159/159 158/158/158 157/157/157
f 158/158/158 160/160/160 157/157/157
f 157/157/157 160/160/160 161/161/161
f 160/160/160 162/162/162 161/161/161
f 165/165/165 164/164/164 163/163/163
f 164/164/164 166/166/166 163/163/163
f 163/163/163 166/166/166 167/167/167
f 166/166/166 168/168/168 167/167/167
f 171/171/171 170/170/170 169/169/169
f 170/170/170 172/172/172 169/169/169
f 169/169/169 172/172/172 173/173/173
f 172/172/172 174/174/174 173/173/173
f 177/177/177 176/176/176 175/175/175
f 176/176/176 178/178/178 175/175/175
f 175/175/175 178/178/178 179/179/179
f 178/178/178 180/180/180 179/179/179
f 183/183/183 182/182/182 181/181/181
f 182/182/182 184/184/184 181/181/181
f 181/181/181 184/184/184 185/185/185
f 184/184/184 186/186/186 185/185/185
f 189/189/189 188/188/188 187/187/187
f 188/188/188 190/190/190 187/187/187
f 187/187/187 190/190/190 191/191/191
f 190/190/190 192/192/192 191/191/191
