g Object001
v 2.0331893 -0.96132946 1.05575585
v 2.02365518 -1.33094513 0.39264065
v 1.93622231 -1.34271812 0.829853415
v 2.21758914 -0.568168044 0.844445646
v 2.30502105 -0.556395292 0.407232851
v 2.2080543 -0.937783718 0.181330428
vt 0.5 1
vt 0.996063709 0.249999821
vt 0.996063888 0.74999994
vt 0.00393599272 0.750000119
vt 0.00393599272 0.25000006
vt 0.499999881 5.96046448E-08
vn 0.924218476 -0.339045852 0.175693408
vn 0.924218655 -0.339045554 0.175693095
vn 0.924218595 -0.339045614 0.175693288
vn 0.924218655 -0.339045584 0.175692871
vn 0.924218774 -0.339045227 0.175692543
vn 0.924218655 -0.339045286 0.175693184
g Object001_0
f 3/3/3 2/2/2 1/1/1
f 1/1/1 2/2/2 4/4/4
f 4/4/4 2/2/2 5/5/5
f 5/5/5 2/2/2 6/6/6
