g Object003
v 2.10001135 0.819202721 0.960755229
v 2.33259535 0.500811756 0.322024375
v 2.25353789 0.465478271 0.761434853
v 2.02554274 1.20826066 0.720665276
v 2.10460043 1.24359417 0.281254888
v 2.25812674 0.88986969 0.0819345415
vt 0.5 1
vt 0.996063709 0.249999821
vt 0.996063888 0.74999994
vt 0.00393599272 0.750000119
vt 0.00393599272 0.25000006
vt 0.499999881 5.96046448E-08
vn 0.935150743 0.297590435 0.192179769
vn 0.935150743 0.297590405 0.192179814
vn 0.935150743 0.297590554 0.192179695
vn 0.935150743 0.297590405 0.192179784
vn 0.935150743 0.297590345 0.192179829
vn 0.935150743 0.297590345 0.192179933
g Object003_0
f 3/3/3 2/2/2 1/1/1
f 1/1/1 2/2/2 4/4/4
f 4/4/4 2/2/2 5/5/5
f 5/5/5 2/2/2 6/6/6
