g Object015
v -2.20211339 0.0250087548 0.997151434
v -2.32576489 0.405859619 0.331220657
v -2.23872185 0.41738686 0.76823163
v -2.25254774 -0.378896654 0.789060235
v -2.33959079 -0.390423924 0.352049321
v -2.37619901 0.00195438275 0.123129643
vt 0.499999762 1
vt 2.68211124E-08 0.249999821
vt -1.59939447E-07 0.74999994
vt 0.999999821 0.750000119
vt 0.999999821 0.25000006
vt 0.499999881 5.96046448E-08
vn -0.980607033 0.0221199635 0.194731563
vn -0.980607033 0.022119971 0.194731697
vn -0.980607033 0.0221200082 0.194731623
vn -0.980607033 0.0221199244 0.194731608
vn -0.980607033 0.022120012 0.194731712
vn -0.980607033 0.0221200213 0.194731995
g Object015_0
f 3/3/3 2/2/2 1/1/1
f 1/1/1 2/2/2 4/4/4
f 4/4/4 2/2/2 5/5/5
f 5/5/5 2/2/2 6/6/6
