g Object019
v -1.54397368 -1.09547007 1.66666508
v -2.04724002 -0.90546602 1.10460973
v -1.84784997 -0.815592289 1.49924231
v -1.4394871 -1.46522152 1.43945575
v -1.63887691 -1.55509508 1.04482317
v -1.94275331 -1.27521718 0.877400398
vt 0.499999762 1
vt 2.68211124E-08 0.249999821
vt -1.59939447E-07 0.74999994
vt 0.999999821 0.750000119
vt 0.999999821 0.25000006
vt 0.499999881 5.96046448E-08
vn -0.72279346 -0.498410672 0.478702813
vn -0.72279346 -0.498410672 0.478702754
vn -0.72279346 -0.498410761 0.478702754
vn -0.722793519 -0.498410612 0.478702784
vn -0.72279346 -0.498410672 0.478702754
vn -0.72279346 -0.498410612 0.478702813
g Object019_0
f 3/3/3 2/2/2 1/1/1
f 1/1/1 2/2/2 4/4/4
f 4/4/4 2/2/2 5/5/5
f 5/5/5 2/2/2 6/6/6
