g Object017
v -2.10001206 -0.853498757 0.99703759
v -2.33259535 -0.512478411 0.344001949
v -2.25353813 -0.492519259 0.782213032
v -2.02554321 -1.23443747 0.773651063
v -2.10460043 -1.25439668 0.335440069
v -2.2581265 -0.89341706 0.120615587
vt 0.499999762 1
vt 2.68211124E-08 0.249999821
vt -1.59939447E-07 0.74999994
vt 0.999999821 0.750000119
vt 0.999999821 0.25000006
vt 0.499999881 5.96046448E-08
vn -0.939203501 -0.290729821 0.182682455
vn -0.939203501 -0.290729821 0.18268244
vn -0.939203501 -0.290729731 0.182682514
vn -0.939203501 -0.290729821 0.182682455
vn -0.939203501 -0.290729821 0.18268244
vn -0.939203501 -0.290729851 0.182682365
g Object017_0
f 3/3/3 2/2/2 1/1/1
f 1/1/1 2/2/2 4/4/4
f 4/4/4 2/2/2 5/5/5
f 5/5/5 2/2/2 6/6/6
