g Cone001
v 0.00203434005 0.0075922492 0
v -1.90734872E-09 0.0118420208 0.00564856036
v -0 0.00786007196 0
v 0.00306494161 0.0114385057 0.00564856036
v 0.00393003877 0.00680702832 0
v -0 0.0166992061 0.0102982856
v 0.0059210076 0.0102554914 0.00564856082
v 0.005557911 0.00555791287 0
v 0.00432207529 0.0161301941 0.0102982856
v -3.81469745E-09 0.0229130704 0.0129503487
v 0.00837356783 0.00837356411 0.00564855943
v 0.00680702832 0.00393003877 0
v 0.00834961142 0.0144619513 0.0102982866
v 0.00593033805 0.0221323241 0.0129503477
v 5.72204595E-09 0.0309421085 0.0126059083
v 0.0102554914 0.00592101132 0.00564855989
v 0.0075922492 0.0020343361 0
v 0.0118081272 0.0118081234 0.0102982875
v 0.0114565305 0.0198433027 0.0129503468
v 0.00800841022 0.0298877824 0.0126059074
v 3.81469745E-09 0.0412219651 0.00826613512
v 0.0106690275 0.039817363 0.00826613512
v 0.0154710533 0.026796665 0.0126059065
v 0.020610977 0.0356992744 0.00826613512
v 0.0114385094 0.00306494161 0.00564856036
v 0.00786007568 -1.90734872E-09 0
v 0.0144619392 0.00834960397 0.0102982866
v 0.0162019748 0.0162019748 0.0129503449
v 0.0218793713 0.0218793787 0.0126059074
v 0.0291483235 0.0291483346 0.00826613326
v 0.0118420208 -1.90734872E-09 0.00564856129
v 0.00759225292 -0.00203433819 0
v 0.0161301941 0.00432206737 0.0102982866
v 0.0198432915 0.0114565305 0.0129503468
v 0.0267966576 0.015471057 0.0126059065
v 0.0356992595 0.0206109807 0.00826613605
v 0.0114385169 -0.00306495116 0.00564856036
v 0.00680701667 -0.0039300425 0
v 0.0166992098 0 0.0102982866
v 0.0221323241 0.00593033805 0.0129503487
v 0.0298877824 0.00800841022 0.0126059083
v 0.0398173556 0.0106690358 0.00826613605
v 0.0102554914 -0.00592101878 0.00564856129
v 0.00555790728 -0.00555791287 0
v 0.0161301978 -0.0043220846 0.0102982866
v 0.0229130704 0 0.0129503477
v 0.0309421085 3.81469745E-09 0.0126059065
v 0.0412219502 0 0.00826613512
v 0.00837356783 -0.00837358553 0.00564855989
v 0.00393003691 -0.00680702226 0
v 0.0144619355 -0.00834961887 0.0102982856
v 0.0221323073 -0.00593035528 0.0129503459
v 0.029887775 -0.00800842699 0.0126059074
v 0.0398173556 -0.0106690563 0.00826613605
v 0.00592100341 -0.0102555035 0.00564856036
v 0.0020343361 -0.00759224547 0
v 0.0118081113 -0.0118081374 0.0102982866
v 0.0198432915 -0.0114565464 0.0129503477
v 0.0267966334 -0.0154710766 0.0126059055
v 0.0356992446 -0.0206110049 0.00826613512
v 0.00306493207 -0.0114385197 0.00564855896
v -0 -0.00786007009 0
v 0.0083495928 -0.0144619476 0.0102982875
v 0.0162019674 -0.0162019935 0.012950344
v 0.0218793638 -0.0218793936 0.0126059083
v 0.0291482955 -0.0291483495 0.00826613512
v -3.81469745E-09 -0.0118420264 0.00564856082
v -0.0020343361 -0.00759224175 0
v 0.00432206551 -0.0161301997 0.0102982856
v 0.011456511 -0.0198433064 0.012950344
v 0.0154710487 -0.0267966688 0.0126059074
v 0.0206109565 -0.0356992744 0.00826613512
v -0.00306494907 -0.0114385188 0.00564856036
v -0.00393003691 -0.0068070204 0
v -7.62939489E-09 -0.0166992117 0.0102982856
v 0.00593032688 -0.0221323259 0.0129503449
v 0.00800839067 -0.0298877917 0.0126059065
v 0.0106690014 -0.039817363 0.00826613605
v -0.00592101878 -0.0102554979 0.00564856222
v -0.00555791287 -0.00555790355 0
v -0.00432208087 -0.0161301978 0.0102982866
v -7.62939489E-09 -0.0229130685 0.0129503496
v -1.52587898E-08 -0.0309421159 0.0126059083
v -2.28881838E-08 -0.0412219614 0.00826613512
v -0.00837358367 -0.00837357342 0.00564855896
v -0.00680702226 -0.00393003272 0
v -0.00834961142 -0.0144619402 0.0102982866
v -0.0059303497 -0.0221323222 0.0129503468
v -0.00800841954 -0.0298877843 0.0126059093
v -0.0106690433 -0.0398173518 0.00826613605
v -0.0102555053 -0.00592101132 0.00564856315
v -0.0075922492 -0.00203433237 0
v -0.0118081337 -0.0118081216 0.0102982856
v -0.0114565399 -0.0198432915 0.0129503468
v -0.0154710701 -0.0267966557 0.0126059055
v -0.0206109937 -0.0356992558 0.00826613326
v -0.0114385216 -0.00306493975 0.00564855989
v -0.00786007009 3.81469745E-09 0
v -0.0144619467 -0.00834959839 0.0102982875
v -0.0162019953 -0.0162019767 0.0129503449
v -0.0218793955 -0.0218793675 0.0126059065
v -0.029148344 -0.0291483104 0.00826613326
v -0.0118420245 0 0.00564856082
v -0.00759224733 0.00203434005 0
v -0.0161301997 -0.00432206737 0.0102982884
v -0.0198433027 -0.011456524 0.0129503468
v -0.0267966632 -0.0154710449 0.0126059027
v -0.0356992744 -0.0206109621 0.00826613512
v -0.0114385188 0.00306493766 0.00564855989
v -0.0068070204 0.00393003877 0
v -0.0166992117 3.81469745E-09 0.0102982866
v -0.0221323241 -0.00593032502 0.0129503487
v -0.0298877954 -0.00800839253 0.0126059093
v -0.039817363 -0.0106690107 0.00826613512
v -0.0102554997 0.00592101878 0.00564856175
v -0.00555790728 0.00555791287 0
v -0.0161301997 0.00432208646 0.0102982875
v -0.0229130685 9.53674384E-09 0.0129503477
v -0.0309421159 1.52587898E-08 0.0126059074
v -0.0412219614 1.52587898E-08 0.00826613512
v -0.00837357342 0.00837357156 0.00564855943
v -0.00393003691 0.00680702413 0
v -0.0144619402 0.0083496077 0.0102982866
v -0.0221323222 0.00593034597 0.0129503477
v -0.0298877899 0.00800841395 0.0126059065
v -0.0398173518 0.0106690396 0.00826613512
v -0.00592102064 0.0102554876 0.00564855989
v -0.00203433237 0.00759225292 0
v -0.0118081234 0.0118081383 0.0102982894
v -0.0198432971 0.0114565343 0.0129503449
v -0.0267966576 0.0154710608 0.0126059046
v -0.0356992632 0.0206109956 0.00826613512
v -0.00306494907 0.0114385132 0.00564855989
v -0 0.00786007196 0
v -1.90734872E-09 0.0118420208 0.00564856036
v -0.00834960397 0.0144619429 0.0102982866
v -0.0162019823 0.0162019879 0.0129503468
v -0.0218793768 0.0218793824 0.0126059065
v -0.0291483235 0.0291483309 0.00826613326
v -0.00432207529 0.0161302015 0.0102982866
v -0 0.0166992061 0.0102982856
v -0.0114565324 0.0198433064 0.0129503477
v -0.0154710542 0.026796665 0.0126059055
v -0.020610977 0.0356992744 0.00826613512
v -0.00593033247 0.0221323241 0.0129503496
v -3.81469745E-09 0.0229130704 0.0129503487
v -0.0080084037 0.0298877936 0.0126059093
v -0.0106690247 0.0398173556 0.00826613326
v 5.72204595E-09 0.0309421085 0.0126059083
v 3.81469745E-09 0.0412219651 0.00826613512
vt 0.958333313 0
vt 0.99999994 0.200000018
vt 0.99999994 0
vt 0.958333313 0.200000018
vt 0.916666687 0
vt 0.99999994 0.400000036
vt 0.916666687 0.200000018
vt 0.875 0
vt 0.958333313 0.400000036
vt 0.99999994 0.600000024
vt 0.875 0.200000018
vt 0.833333313 0
vt 0.916666687 0.400000036
vt 0.958333313 0.600000024
vt 0.99999994 0.800000072
vt 0.833333313 0.200000018
vt 0.791666687 0
vt 0.875 0.400000036
vt 0.916666687 0.600000024
vt 0.958333313 0.800000072
vt 0.99999994 1
vt 0.958333313 1
vt 0.916666687 0.800000072
vt 0.916666687 1
vt 0.791666627 0.200000018
vt 0.75 0
vt 0.833333313 0.400000036
vt 0.875 0.600000024
vt 0.875 0.800000072
vt 0.875 1
vt 0.75 0.200000018
vt 0.708333254 0
vt 0.791666627 0.400000036
vt 0.833333313 0.600000024
vt 0.833333313 0.800000072
vt 0.833333313 1
vt 0.708333254 0.200000018
vt 0.666666567 0
vt 0.75 0.400000036
vt 0.791666627 0.600000024
vt 0.791666627 0.800000072
vt 0.791666627 1
vt 0.666666567 0.200000018
vt 0.624999881 0
vt 0.708333254 0.400000036
vt 0.75 0.600000024
vt 0.75 0.800000072
vt 0.75 1
vt 0.624999881 0.200000018
vt 0.583333254 0
vt 0.666666508 0.400000036
vt 0.708333254 0.600000024
vt 0.708333254 0.800000072
vt 0.708333254 1
vt 0.583333254 0.200000018
vt 0.541666567 0
vt 0.624999881 0.400000036
vt 0.666666508 0.600000024
vt 0.666666567 0.800000072
vt 0.666666567 1
vt 0.541666567 0.200000018
vt 0.499999911 0
vt 0.583333254 0.400000036
vt 0.624999881 0.600000024
vt 0.624999881 0.800000072
vt 0.624999881 1
vt 0.499999911 0.200000018
vt 0.458333254 0
vt 0.541666567 0.400000036
vt 0.583333254 0.600000024
vt 0.583333254 0.800000072
vt 0.583333254 1
vt 0.458333254 0.200000018
vt 0.416666597 0
vt 0.499999911 0.400000036
vt 0.541666567 0.600000024
vt 0.541666567 0.800000072
vt 0.541666567 1
vt 0.416666597 0.200000018
vt 0.374999911 0
vt 0.458333254 0.400000036
vt 0.499999911 0.600000024
vt 0.499999911 0.800000072
vt 0.499999911 1
vt 0.374999911 0.200000018
vt 0.333333254 0
vt 0.416666597 0.400000036
vt 0.458333254 0.600000024
vt 0.458333254 0.800000072
vt 0.458333254 1
vt 0.333333254 0.200000018
vt 0.291666627 0
vt 0.374999911 0.400000036
vt 0.416666597 0.600000024
vt 0.416666597 0.800000072
vt 0.416666597 1
vt 0.291666597 0.200000018
vt 0.24999994 0
vt 0.333333254 0.400000036
vt 0.374999911 0.600000024
vt 0.374999911 0.800000072
vt 0.374999911 1
vt 0.24999994 0.200000018
vt 0.208333299 0
vt 0.291666627 0.400000036
vt 0.333333254 0.600000024
vt 0.333333254 0.800000072
vt 0.333333254 1
vt 0.208333284 0.200000018
vt 0.166666627 0
vt 0.24999994 0.400000036
vt 0.291666627 0.600000024
vt 0.291666597 0.800000072
vt 0.291666597 1
vt 0.166666627 0.200000018
vt 0.12499997 0
vt 0.208333299 0.400000036
vt 0.24999994 0.600000024
vt 0.24999994 0.800000072
vt 0.24999994 1
vt 0.12499997 0.200000018
vt 0.0833333135 0
vt 0.166666627 0.400000036
vt 0.208333284 0.600000024
vt 0.208333299 0.800000072
vt 0.208333284 1
vt 0.0833333135 0.200000018
vt 0.0416666567 0
vt 0.12499997 0.400000036
vt 0.166666627 0.600000024
vt 0.166666627 0.800000072
vt 0.166666627 1
vt 0.0416666567 0.200000018
vt -5.96046448E-08 0
vt -5.96046448E-08 0.200000018
vt 0.0833333135 0.400000036
vt 0.12499997 0.600000024
vt 0.12499997 0.800000072
vt 0.125000015 1
vt 0.0416666567 0.400000036
vt -5.96046448E-08 0.400000036
vt 0.0833333135 0.600000024
vt 0.0833333135 0.800000072
vt 0.0833333135 1
vt 0.0416666567 0.600000024
vt -5.96046448E-08 0.600000024
vt 0.0416666567 0.800000072
vt 0.0416666567 1
vt -5.96046448E-08 0.800000072
vt -5.96046448E-08 1
vn 0.21153909 0.789477944 -0.576173484
vn 9.78120852E-07 0.754496932 -0.656303525
vn 2.82249232E-07 0.817327142 -0.576173902
vn 0.195278212 0.728788376 -0.656303227
vn 0.408663899 0.707826376 -0.576173365
vn 3.71531428E-07 0.54038018 -0.841420889
vn 0.377248347 0.653413177 -0.656304002
vn 0.577937961 0.577937961 -0.576173007
vn 0.139859825 0.521967173 -0.841421187
vn -1.95964958E-07 0.161327183 -0.986900985
vn 0.533509791 0.533510029 -0.656303525
vn 0.707826316 0.408663779 -0.576173425
vn 0.270189792 0.467982203 -0.841421485
vn 0.0417543873 0.155830383 -0.986900985
vn -1.53011342E-07 -0.233344615 -0.972394049
vn 0.653413236 0.377248764 -0.656303704
vn 0.789477944 0.211539209 -0.576173484
vn 0.38210699 0.382106006 -0.841421008
vn 0.0806636065 0.13971357 -0.986900985
vn -0.0603939556 -0.225393504 -0.972394168
vn 1.49180622E-07 -0.388925642 -0.921269178
vn -0.100661248 -0.375673354 -0.921269178
vn -0.116672404 -0.202082381 -0.972394049
vn -0.194462955 -0.336819559 -0.921269178
vn 0.728788257 0.195277989 -0.656303346
vn 0.817327321 8.28537679E-07 -0.576173663
vn 0.467983127 0.270189822 -0.841420889
vn 0.114076167 0.114075884 -0.986900866
vn -0.164999396 -0.164999425 -0.972394168
vn -0.275012076 -0.275012016 -0.921269178
vn 0.754496932 1.02333809E-06 -0.656303525
vn 0.789476991 -0.211540952 -0.576174021
vn 0.521967232 0.139860705 -0.841420889
vn 0.139713779 0.0806636363 -0.986900866
vn -0.202082455 -0.116672441 -0.972394049
vn -0.336819649 -0.19446297 -0.921269059
vn 0.728787839 -0.195278183 -0.656303883
vn 0.707825065 -0.408664852 -0.576174319
vn 0.540380001 4.26661927E-07 -0.841421068
vn 0.155830115 0.0417546444 -0.986900985
vn -0.225393638 -0.060394004 -0.972394049
vn -0.375673503 -0.100661337 -0.921269059
vn 0.653412938 -0.377248764 -0.656303942
vn 0.577937245 -0.577937126 -0.576174617
vn 0.521967232 -0.139860809 -0.841420889
vn 0.161327094 1.65501717E-07 -0.986900985
vn -0.233344764 1.88693861E-07 -0.972394049
vn -0.38892588 6.75170355E-08 -0.921269059
vn 0.533509493 -0.533510029 -0.656303823
vn 0.408663064 -0.707825661 -0.576174796
vn 0.46798268 -0.270190567 -0.841420889
vn 0.155830741 -0.0417549536 -0.986900866
vn -0.225393459 0.0603940897 -0.972394168
vn -0.375673085 0.100661419 -0.921269238
vn 0.377247721 -0.653413892 -0.656303763
vn 0.21153909 -0.789476991 -0.576174796
vn 0.382106125 -0.382107228 -0.841420829
vn 0.139713451 -0.0806634501 -0.986900985
vn -0.202082157 0.116672374 -0.972394168
vn -0.33681944 0.194463253 -0.921269059
vn 0.195277363 -0.728788137 -0.656303704
vn -7.28384521E-07 -0.817326546 -0.576174796
vn 0.270189792 -0.467983127 -0.841421008
vn 0.114075735 -0.114075795 -0.986900866
vn -0.164999545 0.164999411 -0.972394168
vn -0.275012165 0.275012523 -0.92126894
vn -1.1780287E-07 -0.754496634 -0.656304002
vn -0.211539194 -0.789476693 -0.576175094
vn 0.1398606 -0.521967232 -0.841421008
vn 0.0806636363 -0.139713749 -0.986900866
vn -0.116672188 0.202082589 -0.972394049
vn -0.194462836 0.336819917 -0.92126894
vn -0.195278063 -0.72878772 -0.656304002
vn -0.408663124 -0.707825243 -0.576175213
vn -2.92431196E-07 -0.54038018 -0.841420889
vn 0.0417542383 -0.155830473 -0.986900866
vn -0.0603940263 0.225393593 -0.972394049
vn -0.100661293 0.375673562 -0.921269059
vn -0.377248466 -0.653413057 -0.656304002
vn -0.577937245 -0.57793659 -0.576175094
vn -0.139860794 -0.521967351 -0.841420889
vn -1.58075366E-07 -0.161327437 -0.986900866
vn 3.5682497E-08 0.233344764 -0.972394049
vn 2.10910528E-07 0.388925999 -0.921269059
vn -0.533509731 -0.533509552 -0.656303942
vn -0.707824945 -0.408663511 -0.576175272
vn -0.270190179 -0.467982978 -0.841420889
vn -0.0417545475 -0.155830324 -0.986900985
vn 0.0603941977 0.225393534 -0.972394049
vn 0.100661688 0.375673592 -0.92126894
vn -0.653413475 -0.37724787 -0.656303942
vn -0.789476871 -0.211538732 -0.576174915
vn -0.382106751 -0.382106274 -0.841420889
vn -0.0806636363 -0.139713794 -0.986900866
vn 0.116672672 0.202082455 -0.972394049
vn 0.194463223 0.336819649 -0.92126894
vn -0.728788376 -0.195277125 -0.656303585
vn -0.817326665 3.32325584E-07 -0.576174557
vn -0.467983603 -0.270189583 -0.841420829
vn -0.114075728 -0.114075549 -0.986900985
vn 0.164999902 0.16499944 -0.972394049
vn 0.275012285 0.275011897 -0.921269059
vn -0.754496753 1.47551063E-07 -0.656303763
vn -0.78947705 0.21153979 -0.576174438
vn -0.521967471 -0.139860511 -0.84142071
vn -0.13971357 -0.0806633011 -0.986900985
vn 0.202082366 0.116672449 -0.972394049
vn 0.33681953 0.194462925 -0.921269178
vn -0.728787959 0.195277229 -0.656303942
vn -0.707825363 0.408663571 -0.576174796
vn -0.54038018 -1.92357447E-07 -0.841421008
vn -0.155830443 -0.0417544097 -0.986900866
vn 0.225393668 0.060394112 -0.972394049
vn 0.375673711 0.100661248 -0.92126894
vn -0.653412879 0.377248913 -0.656304002
vn -0.577937126 0.577937484 -0.576174438
vn -0.521967173 0.139860913 -0.841420889
vn -0.161327362 -7.4642486E-08 -0.986900985
vn 0.233344749 -2.15304496E-07 -0.972394049
vn 0.38892594 -1.69757229E-07 -0.921269059
vn -0.533509552 0.533510208 -0.656303704
vn -0.408664167 0.707825601 -0.57617414
vn -0.467982978 0.270190388 -0.841420889
vn -0.155830324 0.041754432 -0.986900985
vn 0.225393698 -0.0603943244 -0.972394049
vn 0.375673592 -0.100661576 -0.921269059
vn -0.377248973 0.653412938 -0.656303823
vn -0.211538747 0.789477646 -0.576173902
vn -0.382106125 0.382106334 -0.841421187
vn -0.139713511 0.080663614 -0.986900985
vn 0.202082336 -0.116672255 -0.972394049
vn 0.3368195 -0.194462895 -0.921269178
vn -0.195278212 0.728787899 -0.656303823
vn 2.82249232E-07 0.817327142 -0.576173902
vn 9.78120852E-07 0.754496932 -0.656303525
vn -0.270190001 0.467982978 -0.841421008
vn -0.114075586 0.114075825 -0.986900866
vn 0.164999589 -0.164999589 -0.972394049
vn 0.275012076 -0.275012255 -0.921269059
vn -0.139860272 0.521967232 -0.841421008
vn 3.71531428E-07 0.54038018 -0.841420889
vn -0.0806633979 0.139713421 -0.986900985
vn 0.116672553 -0.202082351 -0.972394049
vn 0.19446297 -0.336819679 -0.921269059
vn -0.0417544171 0.155830592 -0.986900866
vn -1.95964958E-07 0.161327183 -0.986900985
vn 0.0603939407 -0.225393936 -0.972394049
vn 0.100661248 -0.375673831 -0.92126894
vn -1.53011342E-07 -0.233344615 -0.972394049
vn 1.49180622E-07 -0.388925642 -0.921269178
g Cone001_0
f 3/3/3 2/2/2 1/1/1
f 2/2/2 4/4/4 1/1/1
f 1/1/1 4/4/4 5/5/5
f 2/2/2 6/6/6 4/4/4
f 4/4/4 7/7/7 5/5/5
f 5/5/5 7/7/7 8/8/8
f 6/6/6 9/9/9 4/4/4
f 4/4/4 9/9/9 7/7/7
f 6/6/6 10/10/10 9/9/9
f 7/7/7 11/11/11 8/8/8
f 8/8/8 11/11/11 12/12/12
f 9/9/9 13/13/13 7/7/7
f 7/7/7 13/13/13 11/11/11
f 10/10/10 14/14/14 9/9/9
f 9/9/9 14/14/14 13/13/13
f 10/10/10 15/15/15 14/14/14
f 11/11/11 16/16/16 12/12/12
f 12/12/12 16/16/16 17/17/17
f 13/13/13 18/18/18 11/11/11
f 11/11/11 18/18/18 16/16/16
f 14/14/14 19/19/19 13/13/13
f 13/13/13 19/19/19 18/18/18
f 15/15/15 20/20/20 14/14/14
f 14/14/14 20/20/20 19/19/19
f 15/15/15 21/21/21 20/20/20
f 21/21/21 22/22/22 20/20/20
f 20/20/20 22/22/22 23/23/23
f 20/20/20 23/23/23 19/19/19
f 22/22/22 24/24/24 23/23/23
f 16/16/16 25/25/25 17/17/17
f 17/17/17 25/25/25 26/26/26
f 18/18/18 27/27/27 16/16/16
f 16/16/16 27/27/27 25/25/25
f 19/19/19 28/28/28 18/18/18
f 19/19/19 23/23/23 28/28/28
f 18/18/18 28/28/28 27/27/27
f 23/23/23 24/24/24 29/29/29
f 23/23/23 29/29/29 28/28/28
f 24/24/24 30/30/30 29/29/29
f 25/25/25 31/31/31 26/26/26
f 26/26/26 31/31/31 32/32/32
f 27/27/27 33/33/33 25/25/25
f 25/25/25 33/33/33 31/31/31
f 28/28/28 34/34/34 27/27/27
f 28/28/28 29/29/29 34/34/34
f 27/27/27 34/34/34 33/33/33
f 29/29/29 30/30/30 35/35/35
f 29/29/29 35/35/35 34/34/34
f 30/30/30 36/36/36 35/35/35
f 31/31/31 37/37/37 32/32/32
f 32/32/32 37/37/37 38/38/38
f 33/33/33 39/39/39 31/31/31
f 31/31/31 39/39/39 37/37/37
f 34/34/34 40/40/40 33/33/33
f 34/34/34 35/35/35 40/40/40
f 33/33/33 40/40/40 39/39/39
f 35/35/35 36/36/36 41/41/41
f 35/35/35 41/41/41 40/40/40
f 36/36/36 42/42/42 41/41/41
f 37/37/37 43/43/43 38/38/38
f 38/38/38 43/43/43 44/44/44
f 39/39/39 45/45/45 37/37/37
f 37/37/37 45/45/45 43/43/43
f 40/40/40 46/46/46 39/39/39
f 40/40/40 41/41/41 46/46/46
f 39/39/39 46/46/46 45/45/45
f 41/41/41 42/42/42 47/47/47
f 41/41/41 47/47/47 46/46/46
f 42/42/42 48/48/48 47/47/47
f 43/43/43 49/49/49 44/44/44
f 44/44/44 49/49/49 50/50/50
f 45/45/45 51/51/51 43/43/43
f 43/43/43 51/51/51 49/49/49
f 46/46/46 52/52/52 45/45/45
f 46/46/46 47/47/47 52/52/52
f 45/45/45 52/52/52 51/51/51
f 47/47/47 48/48/48 53/53/53
f 47/47/47 53/53/53 52/52/52
f 48/48/48 54/54/54 53/53/53
f 49/49/49 55/55/55 50/50/50
f 50/50/50 55/55/55 56/56/56
f 51/51/51 57/57/57 49/49/49
f 49/49/49 57/57/57 55/55/55
f 52/52/52 58/58/58 51/51/51
f 52/52/52 53/53/53 58/58/58
f 51/51/51 58/58/58 57/57/57
f 53/53/53 54/54/54 59/59/59
f 53/53/53 59/59/59 58/58/58
f 54/54/54 60/60/60 59/59/59
f 55/55/55 61/61/61 56/56/56
f 56/56/56 61/61/61 62/62/62
f 57/57/57 63/63/63 55/55/55
f 55/55/55 63/63/63 61/61/61
f 58/58/58 64/64/64 57/57/57
f 58/58/58 59/59/59 64/64/64
f 57/57/57 64/64/64 63/63/63
f 59/59/59 60/60/60 65/65/65
f 59/59/59 65/65/65 64/64/64
f 60/60/60 66/66/66 65/65/65
f 61/61/61 67/67/67 62/62/62
f 62/62/62 67/67/67 68/68/68
f 63/63/63 69/69/69 61/61/61
f 61/61/61 69/69/69 67/67/67
f 64/64/64 70/70/70 63/63/63
f 64/64/64 65/65/65 70/70/70
f 63/63/63 70/70/70 69/69/69
f 65/65/65 66/66/66 71/71/71
f 65/65/65 71/71/71 70/70/70
f 66/66/66 72/72/72 71/71/71
f 67/67/67 73/73/73 68/68/68
f 68/68/68 73/73/73 74/74/74
f 69/69/69 75/75/75 67/67/67
f 67/67/67 75/75/75 73/73/73
f 70/70/70 76/76/76 69/69/69
f 70/70/70 71/71/71 76/76/76
f 69/69/69 76/76/76 75/75/75
f 71/71/71 72/72/72 77/77/77
f 71/71/71 77/77/77 76/76/76
f 72/72/72 78/78/78 77/77/77
f 73/73/73 79/79/79 74/74/74
f 74/74/74 79/79/79 80/80/80
f 75/75/75 81/81/81 73/73/73
f 73/73/73 81/81/81 79/79/79
f 76/76/76 82/82/82 75/75/75
f 76/76/76 77/77/77 82/82/82
f 75/75/75 82/82/82 81/81/81
f 77/77/77 78/78/78 83/83/83
f 77/77/77 83/83/83 82/82/82
f 78/78/78 84/84/84 83/83/83
f 79/79/79 85/85/85 80/80/80
f 80/80/80 85/85/85 86/86/86
f 81/81/81 87/87/87 79/79/79
f 79/79/79 87/87/87 85/85/85
f 82/82/82 88/88/88 81/81/81
f 82/82/82 83/83/83 88/88/88
f 81/81/81 88/88/88 87/87/87
f 83/83/83 84/84/84 89/89/89
f 83/83/83 89/89/89 88/88/88
f 84/84/84 90/90/90 89/89/89
f 85/85/85 91/91/91 86/86/86
f 86/86/86 91/91/91 92/92/92
f 87/87/87 93/93/93 85/85/85
f 85/85/85 93/93/93 91/91/91
f 88/88/88 94/94/94 87/87/87
f 88/88/88 89/89/89 94/94/94
f 87/87/87 94/94/94 93/93/93
f 89/89/89 90/90/90 95/95/95
f 89/89/89 95/95/95 94/94/94
f 90/90/90 96/96/96 95/95/95
f 91/91/91 97/97/97 92/92/92
f 92/92/92 97/97/97 98/98/98
f 93/93/93 99/99/99 91/91/91
f 91/91/91 99/99/99 97/97/97
f 94/94/94 100/100/100 93/93/93
f 94/94/94 95/95/95 100/100/100
f 93/93/93 100/100/100 99/99/99
f 95/95/95 96/96/96 101/101/101
f 95/95/95 101/101/101 100/100/100
f 96/96/96 102/102/102 101/101/101
f 97/97/97 103/103/103 98/98/98
f 98/98/98 103/103/103 104/104/104
f 99/99/99 105/105/105 97/97/97
f 97/97/97 105/105/105 103/103/103
f 100/100/100 106/106/106 99/99/99
f 100/100/100 101/101/101 106/106/106
f 99/99/99 106/106/106 105/105/105
f 101/101/101 102/102/102 107/107/107
f 101/101/101 107/107/107 106/106/106
f 102/102/102 108/108/108 107/107/107
f 103/103/103 109/109/109 104/104/104
f 104/104/104 109/109/109 110/110/110
f 105/105/105 111/111/111 103/103/103
f 103/103/103 111/111/111 109/109/109
f 106/106/106 112/112/112 105/105/105
f 106/106/106 107/107/107 112/112/112
f 105/105/105 112/112/112 111/111/111
f 107/107/107 108/108/108 113/113/113
f 107/107/107 113/113/113 112/112/112
f 108/108/108 114/114/114 113/113/113
f 109/109/109 115/115/115 110/110/110
f 110/110/110 115/115/115 116/116/116
f 111/111/111 117/117/117 109/109/109
f 109/109/109 117/117/117 115/115/115
f 112/112/112 118/118/118 111/111/111
f 112/112/112 113/113/113 118/118/118
f 111/111/111 118/118/118 117/117/117
f 113/113/113 114/114/114 119/119/119
f 113/113/113 119/119/119 118/118/118
f 114/114/114 120/120/120 119/119/119
f 115/115/115 121/121/121 116/116/116
f 116/116/116 121/121/121 122/122/122
f 117/117/117 123/123/123 115/115/115
f 115/115/115 123/123/123 121/121/121
f 118/118/118 124/124/124 117/117/117
f 118/118/118 119/119/119 124/124/124
f 117/117/117 124/124/124 123/123/123
f 119/119/119 120/120/120 125/125/125
f 119/119/119 125/125/125 124/124/124
f 120/120/120 126/126/126 125/125/125
f 121/121/121 127/127/127 122/122/122
f 122/122/122 127/127/127 128/128/128
f 123/123/123 129/129/129 121/121/121
f 121/121/121 129/129/129 127/127/127
f 124/124/124 130/130/130 123/123/123
f 124/124/124 125/125/125 130/130/130
f 123/123/123 130/130/130 129/129/129
f 125/125/125 126/126/126 131/131/131
f 125/125/125 131/131/131 130/130/130
f 126/126/126 132/132/132 131/131/131
f 127/127/127 133/133/133 128/128/128
f 128/128/128 133/133/133 134/134/134
f 133/133/133 135/135/135 134/134/134
f 129/129/129 136/136/136 127/127/127
f 127/127/127 136/136/136 133/133/133
f 130/130/130 137/137/137 129/129/129
f 130/130/130 131/131/131 137/137/137
f 129/129/129 137/137/137 136/136/136
f 131/131/131 132/132/132 138/138/138
f 131/131/131 138/138/138 137/137/137
f 132/132/132 139/139/139 138/138/138
f 133/133/133 140/140/140 135/135/135
f 136/136/136 140/140/140 133/133/133
f 140/140/140 141/141/141 135/135/135
f 137/137/137 142/142/142 136/136/136
f 137/137/137 138/138/138 142/142/142
f 136/136/136 142/142/142 140/140/140
f 138/138/138 139/139/139 143/143/143
f 138/138/138 143/143/143 142/142/142
f 139/139/139 144/144/144 143/143/143
f 140/140/140 145/145/145 141/141/141
f 142/142/142 145/145/145 140/140/140
f 142/142/142 143/143/143 145/145/145
f 145/145/145 146/146/146 141/141/141
f 143/143/143 144/144/144 147/147/147
f 143/143/143 147/147/147 145/145/145
f 145/145/145 147/147/147 146/146/146
f 144/144/144 148/148/148 147/147/147
f 147/147/147 149/149/149 146/146/146
f 147/147/147 148/148/148 149/149/149
f 148/148/148 150/150/150 149/149/149
