g Plane003
v -0 -0.25 0.099999994
v 0.25 -0.226828739 0.099999994
v 0.25 -0.25 0.099999994
v -0 -0.226828739 0.099999994
v -0.25 -0.25 0.099999994
v 0.25 0.210363284 0.099999994
v -0.25 -0.226828739 0.099999994
v -0 0.210363284 0.099999994
v 0.25 0.24999997 0.099999994
v -0.25 0.210363284 0.099999994
v -0 0.24999997 0.099999994
v -0.25 0.24999997 0.099999994
v -0 0.25 1.90734859E-08
v 0.25 0.226828739 1.90734859E-08
v 0.25 0.25 1.90734859E-08
v -0 0.226828739 1.90734859E-08
v -0.25 0.25 1.90734859E-08
v 0.25 -0.210363284 -1.90734859E-08
v -0.25 0.226828739 1.90734859E-08
v -0 -0.210363284 -1.90734859E-08
v 0.25 -0.24999997 -1.90734859E-08
v -0.25 -0.210363284 -1.90734859E-08
v -0 -0.24999997 -1.90734859E-08
v -0.25 -0.24999997 -1.90734859E-08
v -0.137594566 -0.24999997 -0.099999994
v 0.248441309 -0.226828724 -0.099999994
v 0.248441309 -0.24999997 -0.099999994
v -0.137594566 -0.226828724 -0.099999994
v -0.523630381 -0.24999997 -0.099999994
v 0.248441309 0.210363314 -0.099999994
v -0.523630381 -0.226828724 -0.099999994
v -0.137594566 0.210363314 -0.099999994
v 0.248441309 0.25 -0.099999994
v -0.523630381 0.210363314 -0.099999994
v -0.137594566 0.25 -0.099999994
v -0.523630381 0.25 -0.099999994
vt 0.499999881 0.000499635935
vt 0.999500275 0.0467957258
vt 0.999500275 0.000499516726
vt 0.499999881 0.046795845
vt 0.000499486923 0.000499755144
vt 0.999500513 0.920306087
vt 0.000499486923 0.0467959642
vt 0.500000119 0.920306206
vt 0.999500513 0.999500275
vt 0.000499695539 0.920306325
vt 0.500000119 0.999500394
vt 0.000499725342 0.999500513
vt 0.499999881 0.000499635935
vt 0.999500275 0.0467957258
vt 0.999500275 0.000499516726
vt 0.499999881 0.046795845
vt 0.000499486923 0.000499755144
vt 0.999500513 0.920306087
vt 0.000499486923 0.0467959642
vt 0.500000119 0.920306206
vt 0.999500513 0.999500275
vt 0.000499695539 0.920306325
vt 0.500000119 0.999500394
vt 0.000499725342 0.999500513
vt 0.499999881 0.000499635935
vt 0.999500275 0.0467957258
vt 0.999500275 0.000499516726
vt 0.499999881 0.046795845
vt 0.000499486923 0.000499755144
vt 0.999500513 0.920306087
vt 0.000499486923 0.0467959642
vt 0.500000119 0.920306206
vt 0.999500513 0.999500275
vt 0.000499695539 0.920306325
vt 0.500000119 0.999500394
vt 0.000499725342 0.999500513
vn -0 0 1
vn -0 0 1
vn -0 0 1
vn -0 0 1
vn -0 0 1
vn -0 0 1
vn -0 0 1
vn -0 0 1
vn -0 0 1
vn -0 0 1
vn -0 0 1
vn -0 0 1
vn -0 0 -1
vn -0 0 -1
vn -0 0 -1
vn -0 0 -1
vn -0 0 -1
vn -0 0 -1
vn -0 0 -1
vn -0 0 -1
vn -0 0 -1
vn -0 0 -1
vn -0 0 -1
vn -0 0 -1
vn -0 0 1
vn -0 0 1
vn -0 0 1
vn -0 0 1
vn -0 0 1
vn -0 0 1
vn -0 0 1
vn -0 0 1
vn -0 0 1
vn -0 0 1
vn -0 0 1
vn -0 0 1
g Plane003_0
f 3/3/3 2/2/2 1/1/1
f 4/4/4 1/1/1 2/2/2
f 1/1/1 4/4/4 5/5/5
f 2/2/2 6/6/6 4/4/4
f 7/7/7 5/5/5 4/4/4
f 8/8/8 4/4/4 6/6/6
f 4/4/4 8/8/8 7/7/7
f 6/6/6 9/9/9 8/8/8
f 10/10/10 7/7/7 8/8/8
f 11/11/11 8/8/8 9/9/9
f 8/8/8 11/11/11 10/10/10
f 12/12/12 10/10/10 11/11/11
f 15/15/15 14/14/14 13/13/13
f 16/16/16 13/13/13 14/14/14
f 13/13/13 16/16/16 17/17/17
f 14/14/14 18/18/18 16/16/16
f 19/19/19 17/17/17 16/16/16
f 20/20/20 16/16/16 18/18/18
f 16/16/16 20/20/20 19/19/19
f 18/18/18 21/21/21 20/20/20
f 22/22/22 19/19/19 20/20/20
f 23/23/23 20/20/20 21/21/21
f 20/20/20 23/23/23 22/22/22
f 24/24/24 22/22/22 23/23/23
f 27/27/27 26/26/26 25/25/25
f 28/28/28 25/25/25 26/26/26
f 25/25/25 28/28/28 29/29/29
f 26/26/26 30/30/30 28/28/28
f 31/31/31 29/29/29 28/28/28
f 32/32/32 28/28/28 30/30/30
f 28/28/28 32/32/32 31/31/31
f 30/30/30 33/33/33 32/32/32
f 34/34/34 31/31/31 32/32/32
f 35/35/35 32/32/32 33/33/33
f 32/32/32 35/35/35 34/34/34
f 36/36/36 34/34/34 35/35/35
