g Start_back
v 50.1649971 50.1650047 -50.1649895
v 50.1649971 -50.1649895 -50.1650047
v 50.1649971 -45.6045341 -45.6045494
v 50.1649971 45.6045494 -45.6045341
v 45.6045418 -45.6045341 -50.1650047
v 50.1649971 -50.1649895 -50.1650047
v 50.1649971 50.1650047 -50.1649895
v 45.6045418 45.6045494 -50.1649895
v -50.1649971 -50.1649895 -50.1650047
v -50.1649971 50.1650047 -50.1649895
v -50.1649971 45.6045494 -45.6045341
v -50.1649971 -45.6045341 -45.6045494
v -45.6045418 45.6045494 -50.1649895
v -50.1649971 50.1650047 -50.1649895
v -50.1649971 -50.1649895 -50.1650047
v -45.6045418 -45.6045341 -50.1650047
v -0.185977593 -0.732381403 -119.250481
v -0.185977593 -0.360421717 -119.250481
v 0.18598251 -0.360421717 -119.250481
v 0.18598251 -0.732381403 -119.250481
vt 0.488458693 0.95400846
vt 0.00696764886 0.95400846
vt 0.0288535506 0.991803169
vt 0.466572762 0.991803169
vt 0.0288535506 0.91621387
vt 0.00696764886 0.95400846
vt 0.488458693 0.95400846
vt 0.466572762 0.91621387
vt 0.488458693 0.95400846
vt 0.00696764886 0.95400846
vt 0.0288535506 0.991803169
vt 0.466572762 0.991803169
vt 0.0288535506 0.91621387
vt 0.00696764886 0.95400846
vt 0.488458693 0.95400846
vt 0.466572762 0.91621387
vt 0 0
vt 0 1
vt 1 1
vt 1 0
vn 1 0 0
vn 1 0 0
vn 1 0 0
vn 1 0 0
vn -0 0 -1
vn -0 0 -1
vn -0 0 -1
vn -0 0 -1
vn -1 0 0
vn -1 0 0
vn -1 0 0
vn -1 0 0
vn -0 0 -1
vn -0 0 -1
vn -0 0 -1
vn -0 0 -1
vn -0 0 1
vn -0 0 1
vn -0 0 1
vn -0 0 1
g Start_back_0
f 3/3/3 2/2/2 1/1/1
f 4/4/4 3/3/3 1/1/1
f 7/7/7 6/6/6 5/5/5
f 8/8/8 7/7/7 5/5/5
f 11/11/11 10/10/10 9/9/9
f 12/12/12 11/11/11 9/9/9
f 15/15/15 14/14/14 13/13/13
f 16/16/16 15/15/15 13/13/13
f 19/19/19 18/18/18 17/17/17
f 20/20/20 19/19/19 17/17/17
