g 对象001
v 0.62651366 1.26784384 -0.57098788
v 0.628544569 0.984985292 -0.570884585
v 0.639781117 0.900254846 -0.169911116
v -0.122437485 0.313462585 0.102853656
v 0.0169896595 0.392904192 0.395360112
v -0.0963553563 0.22475186 0.564471126
v -0.0963553563 0.22475186 0.564471126
v 0.0169896595 0.392904192 0.395360112
v 0.081762448 0.363265514 0.542932093
v 0.639781117 0.900254846 -0.169911116
v 0.484587461 0.818044364 0.105693497
v 0.685195386 1.10293794 -0.131909072
v 0.639781117 0.900254846 -0.169911116
v 0.685195386 1.10293794 -0.131909072
v 0.62651366 1.26784384 -0.57098788
v -0.122437485 0.313462585 0.102853656
v -0.117084324 0.376458108 0.57098788
v -0.0179632436 0.398364007 0.417239785
v 0.571061254 0.739475369 0.0291871708
v 0.358437032 0.596433461 0.182857201
v 0.639781117 0.900254846 -0.169911116
v 0.299358457 0.619587004 0.181505874
v 0.639781117 0.900254846 -0.169911116
v 0.358437032 0.596433461 0.182857201
v 0.639781117 0.900254846 -0.169911116
v 0.299358457 0.619587004 0.181505874
v 0.484587461 0.818044364 0.105693497
v 0.181322262 0.48510012 0.288716435
v 0.299358457 0.619587004 0.181505874
v 0.358437032 0.596433461 0.182857201
v 0.181322262 0.48510012 0.288716435
v 0.358437032 0.596433461 0.182857201
v 0.238039732 0.49289912 0.244159609
v 0.181322262 0.48510012 0.288716435
v 0.164300039 0.537094712 0.290243179
v 0.299358457 0.619587004 0.181505874
v 0.081762448 0.363265514 0.542932093
v 0.0169896595 0.392904192 0.395360112
v 0.181322262 0.48510012 0.288716435
v -0.122437485 0.313462585 0.102853656
v -0.0179632436 0.398364007 0.417239785
v 0.0169896595 0.392904192 0.395360112
v 0.164300039 0.537094712 0.290243179
v 0.0169896595 0.392904192 0.395360112
v -0.0179632436 0.398364007 0.417239785
v 0.0169896595 0.392904192 0.395360112
v 0.164300039 0.537094712 0.290243179
v 0.181322262 0.48510012 0.288716435
v 0.081762448 0.363265514 0.542932093
v 0.181322262 0.48510012 0.288716435
v 0.238039732 0.49289912 0.244159609
v 0.571061254 0.739475369 0.0291871708
v 0.403345913 0.60206753 0.226906791
v 0.358437032 0.596433461 0.182857201
v 0.403345913 0.602067471 0.226906732
v 0.238039732 0.49289906 0.244159564
v 0.358437032 0.596433401 0.182857156
v 0.57063961 0.0966448113 0.204503357
v 0.548554122 -0.0850111246 0.260047406
v 0.480505556 0.21944344 0.2394256
v 0.450967818 -0.432705313 0.182392061
v 0.497061133 -0.428058654 0.276143134
v 0.229954958 -0.855534196 0.276143134
v 0.312939048 -0.67735672 0.298097104
v 0.548554122 -0.0850111246 0.260047406
v 0.450967818 -0.432705313 0.182392061
v 0.548554122 -0.0850111246 0.260047406
v 0.551592708 -0.0403721519 0.12903209
v 0.580821931 -0.345019549 0.160023957
v 0.551592708 -0.0403721519 0.12903209
v 0.548554122 -0.0850111246 0.260047406
v 0.57063961 0.0966448113 0.204503357
v 0.229954958 -0.855534196 0.276143134
v 0.312939048 -0.67735672 0.298097104
v 0.450967818 -0.432705313 0.182392061
v 0.580821931 -0.345019549 0.160023957
v 0.450967818 -0.432705313 0.182392061
v 0.548554122 -0.0850111246 0.260047406
v 0.580821931 -0.345019549 0.160023957
v 0.497061133 -0.428058654 0.276143134
v 0.450967818 -0.432705313 0.182392061
v 0.431908518 0.193891123 0.256622612
v 0.310501963 0.537458539 0.24415952
v 0.329325616 0.556869268 0.226906642
v 0.431908518 0.193891123 0.256622612
v 0.480505556 0.21944344 0.2394256
v 0.548554122 -0.0850111246 0.260047406
v 0.480505556 0.21944344 0.2394256
v 0.431908518 0.193891123 0.256622612
v 0.329325616 0.556869268 0.226906642
v 0.286232144 -0.872574031 0.276142985
v 0.229954958 -0.855534196 0.276143134
v 0.497061133 -0.428058654 0.276143134
v 0.229954958 -0.855534196 0.276143134
v 0.367686093 -1.05346847 0.299212217
v -0.226581514 -1.0191133 0.259658128
v -0.00172082521 -0.908135474 0.56370616
v 0.229954958 -0.855534196 0.276143134
v -0.226581514 -1.0191133 0.259658128
v 0.641114354 -0.97306025 0.175610885
v 0.367686093 -1.05346847 0.299212217
v 0.584823191 -0.970116675 0.276143134
v 0.367686093 -1.05346847 0.299212217
v -0.126620173 -1.09950018 0.295229316
v -0.226581514 -1.0191133 0.259658128
v 0.367686093 -1.05346847 0.299212217
v 0.641114354 -0.97306025 0.175610885
v 0.560038686 -1.20770848 0.00248647621
v 0.520563543 -1.26604021 -0.570794523
v 0.538861692 -1.23212838 -0.0111877378
v 0.643672347 -1.12154651 -0.570115507
v 0.367686093 -1.05346847 0.299212217
v 0.560038686 -1.20770848 0.00248647621
v 0.538861692 -1.23212838 -0.0111877378
v 0.643672347 -1.12154651 -0.570115507
v 0.538861692 -1.23212838 -0.0111877378
v 0.560038686 -1.20770848 0.00248647621
v 0.584823191 -0.970116675 0.276143134
v 0.367686093 -1.05346847 0.299212217
v 0.229954958 -0.855534196 0.276143134
v -0.351684719 -1.12454557 0.105493218
v -0.29276973 -1.10750461 0.105859965
v -0.347459406 -1.17121196 0.0305177104
v -0.339831203 -0.864680231 0.326869041
v -0.226581514 -1.0191133 0.259658128
v -0.284072578 -1.05821931 0.217906177
v -0.226581514 -1.0191133 0.259658128
v -0.251919508 -0.76632148 0.359052539
v -0.00172082521 -0.908135474 0.56370616
v -0.180247918 -1.26338208 -0.105114564
v -0.29276973 -1.10750461 0.105859965
v -0.127111614 -1.15463328 0.295229346
v -0.226581514 -1.0191133 0.259658128
v -0.29276973 -1.10750461 0.105859965
v -0.284072578 -1.05821931 0.217906177
v -0.127111614 -1.15463328 0.295229346
v -0.29276973 -1.10750461 0.105859965
v -0.226581514 -1.0191133 0.259658128
v -0.379793078 -0.738462746 0.240872353
v -0.339831203 -0.864680231 0.326869041
v -0.517296314 -0.756860316 0.366044074
v -0.29276973 -1.10750461 0.105859965
v -0.351684719 -1.12454557 0.105493218
v -0.32467863 -1.08046556 0.327293187
v -0.180247918 -1.26338208 -0.105114564
v -0.127111614 -1.15463328 0.295229346
v -0.0715444684 -1.26784337 0.024137238
v -0.339831203 -0.864680231 0.326869041
v -0.379793078 -0.738462746 0.240872353
v -0.251919508 -0.76632148 0.359052539
v -0.226581514 -1.0191133 0.259658128
v -0.339831203 -0.864680231 0.326869041
v -0.251919508 -0.76632148 0.359052539
v -0.29276973 -1.10750461 0.105859965
v -0.295882702 -1.26609349 -0.0448544323
v -0.347459406 -1.17121196 0.0305177104
v -0.295882702 -1.26609349 -0.0448544323
v -0.29276973 -1.10750461 0.105859965
v -0.180247918 -1.26338208 -0.105114564
v -0.339831203 -0.864680231 0.326869041
v -0.360764027 -0.843900442 0.365741581
v -0.517296314 -0.756860316 0.366044074
v -0.360764027 -0.843900442 0.365741581
v -0.339831203 -0.864680231 0.326869041
v -0.343234867 -0.990835607 0.324113309
v -0.32467863 -1.08046556 0.327293187
v -0.343234867 -0.990835607 0.324113309
v -0.284072578 -1.05821931 0.217906177
v -0.29276973 -1.10750461 0.105859965
v -0.32467863 -1.08046556 0.327293187
v -0.284072578 -1.05821931 0.217906177
v -0.343234867 -0.990835607 0.324113309
v -0.339831203 -0.864680231 0.326869041
v -0.284072578 -1.05821931 0.217906177
v -0.180247918 -1.26338208 -0.105114564
v -0.0715444684 -1.26784337 0.024137238
v -0.0979196057 -1.26385903 -0.196654469
v -0.295882702 -1.26609349 -0.0448544323
v -0.180247918 -1.26338208 -0.105114564
v -0.2762281 -1.26382792 -0.142522499
v -0.0979196057 -1.26385903 -0.196654469
v -0.154903725 -1.26680863 -0.572298706
v -0.312650681 -1.26738977 -0.570753694
vt 0.0711038709 0.0100622904
vt 0.041201964 0.030565422
vt 0.0491738208 0.254512012
vt 0.0659651682 0.811059594
vt 0.0576352999 0.843115985
vt 0.0448837504 0.998380065
vt 0.0448837504 0.998380065
vt 0.0576352999 0.843115985
vt 0.041221898 0.883298039
vt 0.0491738208 0.254512012
vt 0.0823405311 0.433329552
vt 0.0858957395 0.171160847
vt 0.0491738208 0.254512012
vt 0.0858957395 0.171160847
vt 0.0711038709 0.0100622904
vt 0.0659651682 0.811059594
vt 0.10262125 0.989512622
vt 0.0645067021 0.861834943
vt 0.0284018163 0.383231968
vt 0.0389292352 0.579562306
vt 0.0491738208 0.254512012
vt 0.0810557455 0.580407858
vt 0.0491738208 0.254512012
vt 0.0389292352 0.579562306
vt 0.0491738208 0.254512012
vt 0.0810557455 0.580407858
vt 0.0823405311 0.433329552
vt 0.0475466736 0.716495872
vt 0.0810557455 0.580407858
vt 0.0389292352 0.579562306
vt 0.0475466736 0.716495872
vt 0.0389292352 0.579562306
vt 0.0395366214 0.677552402
vt 0.0475466736 0.716495872
vt 0.0808503702 0.697396815
vt 0.0810557455 0.580407858
vt 0.041221898 0.883298039
vt 0.0576352999 0.843115985
vt 0.0475466736 0.716495872
vt 0.0659651682 0.811059594
vt 0.0645067021 0.861834943
vt 0.0576352999 0.843115985
vt 0.0808503702 0.697396815
vt 0.0576352999 0.843115985
vt 0.0645067021 0.861834943
vt 0.0576352999 0.843115985
vt 0.0808503702 0.697396815
vt 0.0475466736 0.716495872
vt 0.041221898 0.883298039
vt 0.0475466736 0.716495872
vt 0.0395366214 0.677552402
vt 0.0284018163 0.383231968
vt 0.0324849151 0.577870429
vt 0.0389292352 0.579562306
vt 0.0324849151 0.577870429
vt 0.0395366214 0.677552402
vt 0.0389290154 0.579562306
vt 0.0475127771 0.249740839
vt 0.0832867324 0.441145539
vt 0.0507744923 0.14289844
vt 0.0656105727 0.714762807
vt 0.0495630689 0.749848366
vt 0.0803730041 1.10563302
vt 0.0864460468 0.915253401
vt 0.0832867324 0.441145539
vt 0.0656105727 0.714762807
vt 0.0832867324 0.441145539
vt 0.0502363294 0.336741209
vt 0.0489655659 0.624589801
vt 0.0502363294 0.336741209
vt 0.0832867324 0.441145539
vt 0.0475127771 0.249740839
vt 0.0803730041 1.10563302
vt 0.0864460468 0.915253401
vt 0.0656105727 0.714762807
vt 0.0489655659 0.624589801
vt 0.0656105727 0.714762807
vt 0.0832867324 0.441145539
vt 0.0489655659 0.624589801
vt 0.0495630689 0.749848366
vt 0.0656105727 0.714762807
vt 0.0834951922 0.209126115
vt 0.0787822753 -0.091119647
vt 0.0471155867 -0.104287505
vt 0.0834951922 0.209126115
vt 0.0507744923 0.14289844
vt 0.0832867324 0.441145539
vt 0.0507744923 0.14289844
vt 0.0834951922 0.209126115
vt 0.0471155867 -0.104287505
vt 0.0407824591 1.11372209
vt 0.0803730041 1.10563302
vt 0.0495630689 0.749848366
vt 0.0976506025 0.76619184
vt 0.0383545756 0.658468425
vt 0.0510672405 0.987110615
vt 0.0970707983 0.988012314
vt 0.0976506025 0.76619184
vt 0.0510672405 0.987110615
vt 0.0963395536 0.560424089
vt 0.0383545756 0.658468425
vt 0.0890197009 0.642899752
vt 0.0383545756 0.658468425
vt 0.0280148331 0.983730257
vt 0.0510672405 0.987110615
vt 0.0383545756 0.658468425
vt 0.0963395536 0.560424089
vt 0.0912044942 0.317015797
vt 0.0332024582 0.00567894941
vt 0.0451483205 0.270991862
vt 0.0851863921 0.00663779862
vt 0.0383545756 0.658468425
vt 0.0912044942 0.317015797
vt 0.0451483205 0.270991862
vt 0.0851863921 0.00663779862
vt 0.0451483205 0.270991862
vt 0.0912044942 0.317015797
vt 0.0890197009 0.642899752
vt 0.0383545756 0.658468425
vt 0.0976506025 0.76619184
vt 0.037695583 0.508338869
vt 0.0589385889 0.468144208
vt 0.0427549779 0.439898461
vt 0.0594564416 0.747240007
vt 0.0747132525 0.753649175
vt 0.0604818724 0.583528519
vt 0.0747132525 0.753649175
vt 0.058317367 0.982374728
vt 0.0981126502 0.988302469
vt 0.0740825906 0.303552002
vt 0.0589385889 0.468144208
vt 0.0758481845 0.637967944
vt 0.0747132525 0.753649175
vt 0.0589385889 0.468144208
vt 0.0604818724 0.583528519
vt 0.0758481845 0.637967944
vt 0.0589385889 0.468144208
vt 0.0747132525 0.753649175
vt 0.0487363152 0.622848749
vt 0.0594564416 0.747240007
vt 0.0295365937 0.987220168
vt 0.0589385889 0.468144208
vt 0.037695583 0.508338869
vt 0.0216112882 0.655792534
vt 0.0740825906 0.303552002
vt 0.0758481845 0.637967944
vt 0.0961930454 0.399601758
vt 0.0594564416 0.747240007
vt 0.0487363152 0.622848749
vt 0.058317367 0.982374728
vt 0.0747132525 0.753649175
vt 0.0594564416 0.747240007
vt 0.058317367 0.982374728
vt 0.0589385889 0.468144208
vt 0.0518122874 0.34613505
vt 0.0427549779 0.439898461
vt 0.0518122874 0.34613505
vt 0.0589385889 0.468144208
vt 0.0740825906 0.303552002
vt 0.0594564416 0.747240007
vt 0.0497443266 0.980520427
vt 0.0295365937 0.987220168
vt 0.0497443266 0.980520427
vt 0.0594564416 0.747240007
vt 0.0399536826 0.731536627
vt 0.0216112882 0.655792534
vt 0.0399536826 0.731536627
vt 0.0604818724 0.583528519
vt 0.0589385889 0.468144208
vt 0.0216112882 0.655792534
vt 0.0604818724 0.583528519
vt 0.0399536826 0.731536627
vt 0.0594564416 0.747240007
vt 0.0604818724 0.583528519
vt 0.0740825906 0.303552002
vt 0.0961930454 0.399601758
vt 0.0920646191 0.244908512
vt 0.0518122874 0.34613505
vt 0.0740825906 0.303552002
vt 0.0546364263 0.281688035
vt 0.0920646191 0.244908512
vt 0.0832604542 0.00748296641
vt 0.0378660262 0.0091682151
vn 0.999623179 0.0071674767 -0.0264979731
vn 0.999623179 0.00716747763 -0.0264979731
vn 0.999623179 0.0071674767 -0.0264979731
vn -0.730493963 0.661816061 0.168457747
vn -0.730493963 0.661816061 0.168457761
vn -0.730493963 0.661816061 0.168457747
vn -0.53668493 0.750194907 0.386234254
vn -0.53668493 0.750194907 0.386234254
vn -0.53668493 0.750194907 0.386234254
vn 0.870935917 -0.271892488 0.409322858
vn 0.870935917 -0.271892488 0.409322917
vn 0.870935798 -0.271892488 0.409322858
vn 0.964052916 -0.179232344 -0.196157798
vn 0.964052916 -0.179232344 -0.196157798
vn 0.964052916 -0.179232344 -0.196157798
vn 0.386237711 -0.914732933 0.118676402
vn 0.386237741 -0.914732933 0.118676417
vn 0.386237711 -0.914732933 0.118676402
vn -0.0938144103 0.790147841 0.605693936
vn -0.0938144103 0.790147841 0.605693996
vn -0.0938144326 0.790147841 0.605694056
vn 0.232942089 0.637249649 0.734609306
vn 0.23294206 0.637249708 0.734609365
vn 0.23294206 0.637249708 0.734609365
vn 0.753711104 -0.610959888 0.242172524
vn 0.753711104 -0.610959888 0.242172495
vn 0.753711104 -0.610959888 0.242172495
vn 0.181039825 0.510984898 0.840308905
vn 0.18103981 0.510984898 0.840308905
vn 0.181039825 0.510984898 0.840308905
vn 0.616429031 -0.281391978 0.735414088
vn 0.616429031 -0.281391978 0.735414088
vn 0.616429031 -0.281391978 0.735414088
vn 0.558441341 0.158917755 0.81417954
vn 0.558441401 0.15891777 0.81417954
vn 0.55844146 0.15891777 0.81417954
vn -0.301828563 0.900405884 0.313318998
vn -0.301828593 0.900405884 0.313318998
vn -0.301828593 0.900405884 0.313319027
vn 0.0102720289 -0.96621877 0.257518232
vn 0.0102720289 -0.96621877 0.257518232
vn 0.0102720307 -0.96621877 0.257518262
vn 0.536740959 0.064925395 0.841245413
vn 0.536740899 0.0649254024 0.841245472
vn 0.536740899 0.0649254024 0.841245472
vn 0.485647112 0.13362658 0.86388123
vn 0.485647112 0.133626595 0.86388123
vn 0.485647082 0.133626595 0.86388129
vn 0.28216508 0.817392707 0.502246857
vn 0.28216511 0.817392707 0.502246857
vn 0.28216508 0.817392766 0.502246797
vn -0.38680169 0.877969682 0.282052636
vn -0.38680169 0.877969682 0.282052636
vn -0.38680166 0.877969682 0.282052636
vn -0.479356974 0.787180364 0.388025671
vn -0.479356974 0.787180364 0.388025641
vn -0.479356974 0.787180364 0.388025671
vn 0.558554888 0.179691091 0.809770048
vn 0.558554888 0.179691091 0.809770048
vn 0.558554888 0.179691106 0.809770107
vn -0.789911985 0.49357295 0.363902032
vn -0.789911985 0.49357301 0.363902032
vn -0.789911985 0.49357295 0.363902003
vn 0.875746369 -0.325436264 0.356594384
vn 0.875746369 -0.325436264 0.356594384
vn 0.875746369 -0.325436234 0.356594324
vn 0.993209183 0.101141937 0.0574956872
vn 0.993209183 0.101141952 0.0574956872
vn 0.993209183 0.101141945 0.0574956834
vn 0.991730034 -0.126744434 -0.0201831236
vn 0.991730034 -0.126744434 -0.0201831218
vn 0.991730034 -0.126744419 -0.0201831236
vn 0.889618635 -0.432430744 0.14690958
vn 0.889618635 -0.432430744 0.14690958
vn 0.889618635 -0.432430744 0.14690958
vn 0.353540838 -0.29731366 0.886912286
vn 0.353540868 -0.29731366 0.886912286
vn 0.353540838 -0.297313631 0.886912286
vn -0.520802617 0.826131046 0.215109706
vn -0.520802617 0.826131046 0.215109706
vn -0.520802677 0.826131046 0.215109706
vn 0.528783679 0.216625914 0.820646644
vn 0.528783679 0.216625884 0.820646644
vn 0.528783679 0.216625914 0.820646644
vn 0.2717354 0.125365004 0.954171658
vn 0.2717354 0.125364974 0.954171658
vn 0.27173543 0.125364974 0.954171658
vn 0.258216977 0.151093319 0.95419848
vn 0.258216977 0.151093334 0.95419848
vn 0.258216977 0.151093319 0.95419848
vn 2.17170236E-06 -1.35697826E-06 1
vn 2.17170214E-06 -1.35697826E-06 1
vn 2.17170214E-06 -1.35697826E-06 1
vn -0.0288848635 -0.0200990774 0.999380589
vn -0.0288848635 -0.0200990792 0.999380589
vn -0.0288848598 -0.0200990774 0.999380589
vn 0.332648486 -0.938110948 0.0963990316
vn 0.332648546 -0.938110948 0.096399039
vn 0.332648516 -0.938110948 0.096399039
vn 0.349403977 -0.91022104 0.222293764
vn 0.349403888 -0.91022104 0.222293764
vn 0.349403888 -0.91022104 0.222293764
vn -0.00212932355 0.402436286 0.915445507
vn -0.00212932378 0.402436316 0.915445507
vn -0.00212932378 0.402436316 0.915445507
vn 0.424494326 -0.627940595 0.652299821
vn 0.424494356 -0.627940655 0.652299821
vn 0.424494296 -0.627940714 0.652299821
vn 0.761074901 -0.64850378 0.0144132627
vn 0.761074901 -0.64850378 0.0144132627
vn 0.761074901 -0.64850378 0.0144132627
vn 0.366971344 -0.676044941 0.638979912
vn 0.366971344 -0.676044941 0.638979852
vn 0.366971314 -0.676044881 0.638979971
vn 0.752441585 -0.658570349 0.0108026918
vn 0.752441585 -0.658570409 0.0108026927
vn 0.752441585 -0.658570409 0.0108026927
vn -0 3.15690301E-07 1
vn -0 3.15690301E-07 1
vn -0 3.15690272E-07 1
vn 0.233778372 -0.819490314 0.523242891
vn 0.233778387 -0.819490433 0.52324295
vn 0.233778387 -0.819490433 0.52324295
vn -0.234409869 -0.527329326 0.816685915
vn -0.234409869 -0.527329326 0.816685915
vn -0.234409869 -0.527329326 0.816685915
vn -0.701929867 -0.320456058 0.636083603
vn -0.701929867 -0.320456028 0.636083603
vn -0.701929867 -0.320456058 0.636083663
vn -0.550245047 -0.784452677 0.28611964
vn -0.550245047 -0.784452677 0.28611964
vn -0.550245106 -0.784452677 0.28611967
vn 0.333469719 -0.872233212 0.357781053
vn 0.333469748 -0.872233152 0.357781082
vn 0.333469748 -0.872233152 0.357781023
vn -0.737305999 -0.397867233 0.545968533
vn -0.737305999 -0.397867292 0.545968533
vn -0.737305999 -0.397867233 0.545968533
vn 0.78231889 0.500404477 0.370907873
vn 0.78231889 0.500404477 0.370907873
vn 0.78231889 0.500404477 0.370907933
vn 0.273592502 -0.949219942 0.155333668
vn 0.273592502 -0.949219942 0.155333668
vn 0.273592502 -0.949219942 0.155333668
vn -0.379820704 -0.878722548 0.289107114
vn -0.379820704 -0.878722548 0.289107114
vn -0.379820704 -0.878722489 0.289107114
vn -0.609547436 0.305439472 0.731545389
vn -0.609547436 0.305439502 0.731545448
vn -0.609547436 0.305439502 0.731545448
vn 0.0617961064 -0.359848171 0.930962205
vn 0.0617961138 -0.359848171 0.930962205
vn 0.0617961213 -0.359848201 0.930962205
vn -0.197317913 -0.673299909 0.712553799
vn -0.197317913 -0.673299849 0.712553799
vn -0.197317913 -0.673299909 0.712553799
vn 0.36495176 -0.645121157 0.671289086
vn 0.36495176 -0.645121157 0.671289086
vn 0.36495176 -0.645121098 0.671289086
vn 0.485626191 0.87346822 -0.034936741
vn 0.485626161 0.87346822 -0.0349367373
vn 0.485626191 0.87346822 -0.0349367447
vn 0.995173395 -0.0288982913 0.0937805176
vn 0.995173395 -0.0288982913 0.0937805176
vn 0.995173395 -0.0288982913 0.0937805176
vn 0.904423654 0.200603023 0.376532108
vn 0.904423654 0.200603008 0.376532108
vn 0.904423535 0.200602993 0.376532078
vn 0.805960834 -0.562380195 0.184812158
vn 0.805960834 -0.562380254 0.184812188
vn 0.805960834 -0.562380254 0.184812158
vn 0.863684356 -0.0342867784 0.502865434
vn 0.863684356 -0.0342867747 0.502865374
vn 0.863684356 -0.0342867784 0.502865434
vn -0.0228172056 -0.999622345 -0.0153132482
vn -0.0228172056 -0.999622345 -0.0153132482
vn -0.0228172056 -0.999622345 -0.0153132491
vn 0.012686491 -0.999706566 -0.0206367001
vn 0.012686491 -0.999706566 -0.0206366964
vn 0.012686491 -0.999706566 -0.0206366982
vn 0.00211204658 -0.999969482 0.00753154932
vn 0.00376234995 -0.999961019 0.00799736474
vn 0.00376234995 -0.999961019 0.00799736474
g 对象001_0
f 3/3/3 2/2/2 1/1/1
f 6/6/6 5/5/5 4/4/4
f 9/9/9 8/8/8 7/7/7
f 12/12/12 11/11/11 10/10/10
f 15/15/15 14/14/14 13/13/13
f 18/18/18 17/17/17 16/16/16
f 21/21/21 20/20/20 19/19/19
f 24/24/24 23/23/23 22/22/22
f 27/27/27 26/26/26 25/25/25
f 30/30/30 29/29/29 28/28/28
f 33/33/33 32/32/32 31/31/31
f 36/36/36 35/35/35 34/34/34
f 39/39/39 38/38/38 37/37/37
f 42/42/42 41/41/41 40/40/40
f 45/45/45 44/44/44 43/43/43
f 48/48/48 47/47/47 46/46/46
f 51/51/51 50/50/50 49/49/49
f 54/54/54 53/53/53 52/52/52
f 57/57/57 56/56/56 55/55/55
f 60/60/60 59/59/59 58/58/58
f 63/63/63 62/62/62 61/61/61
f 66/66/66 65/65/65 64/64/64
f 69/69/69 68/68/68 67/67/67
f 72/72/72 71/71/71 70/70/70
f 75/75/75 74/74/74 73/73/73
f 78/78/78 77/77/77 76/76/76
f 81/81/81 80/80/80 79/79/79
f 84/84/84 83/83/83 82/82/82
f 87/87/87 86/86/86 85/85/85
f 90/90/90 89/89/89 88/88/88
f 93/93/93 92/92/92 91/91/91
f 96/96/96 95/95/95 94/94/94
f 99/99/99 98/98/98 97/97/97
f 102/102/102 101/101/101 100/100/100
f 105/105/105 104/104/104 103/103/103
f 108/108/108 107/107/107 106/106/106
f 111/111/111 110/110/110 109/109/109
f 114/114/114 113/113/113 112/112/112
f 117/117/117 116/116/116 115/115/115
f 120/120/120 119/119/119 118/118/118
f 123/123/123 122/122/122 121/121/121
f 126/126/126 125/125/125 124/124/124
f 129/129/129 128/128/128 127/127/127
f 132/132/132 131/131/131 130/130/130
f 135/135/135 134/134/134 133/133/133
f 138/138/138 137/137/137 136/136/136
f 141/141/141 140/140/140 139/139/139
f 144/144/144 143/143/143 142/142/142
f 147/147/147 146/146/146 145/145/145
f 150/150/150 149/149/149 148/148/148
f 153/153/153 152/152/152 151/151/151
f 156/156/156 155/155/155 154/154/154
f 159/159/159 158/158/158 157/157/157
f 162/162/162 161/161/161 160/160/160
f 165/165/165 164/164/164 163/163/163
f 168/168/168 167/167/167 166/166/166
f 171/171/171 170/170/170 169/169/169
f 174/174/174 173/173/173 172/172/172
f 177/177/177 176/176/176 175/175/175
f 180/180/180 179/179/179 178/178/178
f 181/181/181 179/179/179 180/180/180
f 182/182/182 181/181/181 180/180/180
f 183/183/183 182/182/182 180/180/180
