g 001
v 0.475567698 -0.354809105 -6.6855921E-07
v 0.318964422 -0.354809076 -6.6855921E-07
v 0.318964392 -0.256993324 -5.67558175E-07
v 0.475567609 -0.256993324 -5.67558175E-07
v 0.584739685 -0.376814783 -4.9173326E-07
v 0.584739804 -0.608705163 -5.0647526E-07
v 0.107409075 -0.608705103 -5.0647526E-07
v 0.107409015 -0.376814723 -4.9173326E-07
v -0.59355557 -0.379697651 5.11032056E-07
v -0.59355557 -0.611587942 4.90759589E-07
v -0.116224855 -0.611588001 4.90759589E-07
v -0.116224855 -0.379697651 5.11032056E-07
v -0.319652826 -0.355843186 -6.68602524E-07
v -0.476255983 -0.355843157 -6.68602581E-07
v -0.476256043 -0.258107096 -5.67702671E-07
v -0.319652826 -0.258107156 -5.67702671E-07
v 0.584739804 0.376814574 5.9731525E-07
v 0.584739745 0.608704805 5.77042442E-07
v 0.107409112 0.608704984 5.77042613E-07
v 0.107409135 0.376814634 5.9731525E-07
v -0.59355557 0.379697651 -4.3284183E-07
v -0.59355557 0.611588061 -3.92296812E-07
v -0.116224855 0.611587942 -3.92296812E-07
v -0.116224855 0.379697651 -4.3284183E-07
v -0.319652498 0.261235029 -5.0110441E-07
v -0.476255834 0.261235029 -5.0110441E-07
v -0.476255834 0.359680712 -3.99304298E-07
v -0.319652498 0.359680474 -3.99304184E-07
v -0.498208195 0.184894323 -4.58028438E-07
v -0.498208195 0.34149757 -5.46393494E-07
v -0.399762541 0.341497481 -3.89044345E-07
v -0.39976275 0.184894174 -3.00679318E-07
v -0.500785708 -0.341278791 -1.61129904E-07
v -0.500785649 -0.184675708 -2.49495031E-07
v -0.402339876 -0.184675783 -9.21458891E-08
v -0.402340114 -0.341279089 -3.78076948E-09
v -0.587010086 0.166172564 -4.47464657E-07
v -0.743613422 0.166172326 -4.47464657E-07
v -0.743613422 0.264618129 -3.45664489E-07
v -0.587009966 0.26461798 -3.45664432E-07
v -0.669744253 0.185380772 -4.58303077E-07
v -0.669743955 0.341984004 -5.46668161E-07
v -0.571298182 0.341983944 -3.89319098E-07
v -0.571298599 0.185380772 -3.00954071E-07
v -0.670667887 -0.340421259 -1.61614253E-07
v -0.670668006 -0.183817819 -2.4997945E-07
v -0.572222292 -0.183817819 -9.26301027E-08
v -0.572222471 -0.340421259 -4.26520286E-09
v -0.74674958 -0.165524632 -2.60301334E-07
v -0.590146422 -0.1655249 -2.60301334E-07
v -0.590146601 -0.263970762 -4.74032262E-08
v -0.746749699 -0.263970256 -4.74034074E-08
v 0.319652826 0.355843186 -1.07017866E-06
v 0.476255983 0.355843186 -1.07017866E-06
v 0.476256043 0.258107156 -8.58981764E-07
v 0.319652826 0.258107156 -8.58981764E-07
v 0.319652438 -0.261235029 -2.06295553E-07
v 0.476255745 -0.261235029 -2.06295553E-07
v 0.476255745 -0.359680712 6.60253141E-09
v 0.319652438 -0.359680474 6.60231292E-09
v 0.498208106 -0.184894323 -2.49371539E-07
v 0.498208106 -0.34149757 -1.61006639E-07
v 0.399762452 -0.341497481 -3.65758734E-09
v 0.39976269 -0.184894174 -9.20225602E-08
v 0.500785708 0.341278821 -5.46269803E-07
v 0.500785649 0.184675753 -4.57905287E-07
v 0.402339876 0.184675753 -3.00556223E-07
v 0.402340114 0.341279149 -3.88921052E-07
v 0.587009966 -0.166172564 -2.59935661E-07
v 0.743613243 -0.166172326 -2.5993586E-07
v 0.743613243 -0.264618129 -4.70376449E-08
v 0.587009907 -0.26461798 -4.70377906E-08
v 0.669744074 -0.185380772 -2.49097155E-07
v 0.669743955 -0.341984004 -1.60732412E-07
v 0.571298063 -0.341983944 -3.38335648E-09
v 0.57129854 -0.185380772 -9.17481842E-08
v 0.670667887 0.3404212 -5.45786463E-07
v 0.670668006 0.183817819 -4.57421578E-07
v 0.572222292 0.183817819 -3.0007223E-07
v 0.572222471 0.340421289 -3.88437343E-07
v 0.74674958 0.165524587 -4.47099183E-07
v 0.590146422 0.1655249 -4.47099552E-07
v 0.590146601 0.263970792 -3.45299526E-07
v 0.746749699 0.263970256 -3.45299156E-07
vt 0.551612556 0.058134973
vt 0.551612556 0.31979394
vt 0.787017047 0.31979394
vt 0.787017047 0.058134973
vt 0.131299406 0.546211243
vt 0.131299406 1
vt 1 1
vt 1 0.546211243
vt 0.131299406 0.546211243
vt 0.131299406 1
vt 1 1
vt 1 0.546211243
vt 0.551612556 0.058134973
vt 0.551612556 0.31979394
vt 0.787017047 0.31979394
vt 0.787017047 0.058134973
vt 0.131299406 0.546211243
vt 0.131299406 1
vt 1 1
vt 1 0.546211243
vt 0.131299406 0.546211243
vt 0.131299406 1
vt 1 1
vt 1 0.546211243
vt 0.551612556 0.058134973
vt 0.551612556 0.31979394
vt 0.787017047 0.31979394
vt 0.787017047 0.058134973
vt 0.551612556 0.058134973
vt 0.551612556 0.31979394
vt 0.787017047 0.31979394
vt 0.787017047 0.058134973
vt 0.551612556 0.058134973
vt 0.551612556 0.31979394
vt 0.787017047 0.31979394
vt 0.787017047 0.058134973
vt 0.551612556 0.058134973
vt 0.551612556 0.31979394
vt 0.787017047 0.31979394
vt 0.787017047 0.058134973
vt 0.551612556 0.058134973
vt 0.551612556 0.31979394
vt 0.787017047 0.31979394
vt 0.787017047 0.058134973
vt 0.551612556 0.058134973
vt 0.551612556 0.31979394
vt 0.787017047 0.31979394
vt 0.787017047 0.058134973
vt 0.551612556 0.058134973
vt 0.551612556 0.31979394
vt 0.787017047 0.31979394
vt 0.787017047 0.058134973
vt 0.551612556 0.058134973
vt 0.551612556 0.31979394
vt 0.787017047 0.31979394
vt 0.787017047 0.058134973
vt 0.551612556 0.058134973
vt 0.551612556 0.31979394
vt 0.787017047 0.31979394
vt 0.787017047 0.058134973
vt 0.551612556 0.058134973
vt 0.551612556 0.31979394
vt 0.787017047 0.31979394
vt 0.787017047 0.058134973
vt 0.551612556 0.058134973
vt 0.551612556 0.31979394
vt 0.787017047 0.31979394
vt 0.787017047 0.058134973
vt 0.551612556 0.058134973
vt 0.551612556 0.31979394
vt 0.787017047 0.31979394
vt 0.787017047 0.058134973
vt 0.551612556 0.058134973
vt 0.551612556 0.31979394
vt 0.787017047 0.31979394
vt 0.787017047 0.058134973
vt 0.551612556 0.058134973
vt 0.551612556 0.31979394
vt 0.787017047 0.31979394
vt 0.787017047 0.058134973
vt 0.551612556 0.058134973
vt 0.551612556 0.31979394
vt 0.787017047 0.31979394
vt 0.787017047 0.058134973
vn -0 0 1
vn -0 0 1
vn -0 0 1
vn -0 0 1
vn -0 0 1
vn -0 0 1
vn -0 0 1
vn -0 0 1
vn -0 0 -1
vn -0 0 -1
vn -0 0 -1
vn -0 0 -1
vn -0 0 1
vn -0 0 1
vn -0 0 1
vn -0 0 1
vn -0 0 -1
vn -0 0 -1
vn -0 0 -1
vn -0 0 -1
vn -0 -1.74845553E-07 1
vn -0 -1.74845553E-07 1
vn -0 -1.74845567E-07 1
vn -0 -1.74845553E-07 1
vn -0 0 1
vn -0 0 1
vn -0 0 1
vn -0 0 1
vn -0 0 1
vn -0 0 1
vn -0 0 1
vn -0 0 1
vn -0 0 1
vn -0 0 1
vn -0 0 1
vn -0 0 1
vn -0 0 1
vn -0 0 1
vn -0 0 1
vn -0 0 1
vn -0 0 1
vn -0 0 1
vn -0 0 1
vn -0 0 1
vn -0 0 1
vn -1.5983378E-06 5.64259722E-07 1
vn -0 0 1
vn -0 0 1
vn -0 0 1
vn -0 2.16259264E-06 1
vn -0 0 1
vn -0 0 1
vn -0 0 1
vn -0 0 1
vn -0 0 1
vn -0 0 1
vn -0 0 1
vn -0 0 1
vn -0 0 1
vn -0 0 1
vn -0 0 1
vn -0 0 1
vn -0 0 1
vn -0 0 1
vn -0 0 1
vn -0 0 1
vn -0 0 1
vn -0 0 1
vn -0 0 1
vn -0 0 1
vn -0 0 1
vn -0 0 1
vn -0 0 1
vn -0 0 1
vn -0 0 1
vn -0 0 1
vn -0 0 1
vn 1.59833803E-06 5.6426012E-07 1
vn -0 0 1
vn -0 0 1
vn -0 0 1
vn -0 -1.03407206E-06 1
vn -0 0 1
vn -0 0 1
g 001_0
f 3/3/3 2/2/2 1/1/1
f 4/4/4 3/3/3 1/1/1
f 7/7/7 6/6/6 5/5/5
f 8/8/8 7/7/7 5/5/5
f 11/11/11 10/10/10 9/9/9
f 12/12/12 11/11/11 9/9/9
f 15/15/15 14/14/14 13/13/13
f 16/16/16 15/15/15 13/13/13
f 19/19/19 18/18/18 17/17/17
f 20/20/20 19/19/19 17/17/17
f 23/23/23 22/22/22 21/21/21
f 24/24/24 23/23/23 21/21/21
f 27/27/27 26/26/26 25/25/25
f 28/28/28 27/27/27 25/25/25
f 31/31/31 30/30/30 29/29/29
f 32/32/32 31/31/31 29/29/29
f 35/35/35 34/34/34 33/33/33
f 36/36/36 35/35/35 33/33/33
f 39/39/39 38/38/38 37/37/37
f 40/40/40 39/39/39 37/37/37
f 43/43/43 42/42/42 41/41/41
f 44/44/44 43/43/43 41/41/41
f 47/47/47 46/46/46 45/45/45
f 48/48/48 47/47/47 45/45/45
f 51/51/51 50/50/50 49/49/49
f 52/52/52 51/51/51 49/49/49
f 55/55/55 54/54/54 53/53/53
f 56/56/56 55/55/55 53/53/53
f 59/59/59 58/58/58 57/57/57
f 60/60/60 59/59/59 57/57/57
f 63/63/63 62/62/62 61/61/61
f 64/64/64 63/63/63 61/61/61
f 67/67/67 66/66/66 65/65/65
f 68/68/68 67/67/67 65/65/65
f 71/71/71 70/70/70 69/69/69
f 72/72/72 71/71/71 69/69/69
f 75/75/75 74/74/74 73/73/73
f 76/76/76 75/75/75 73/73/73
f 79/79/79 78/78/78 77/77/77
f 80/80/80 79/79/79 77/77/77
f 83/83/83 82/82/82 81/81/81
f 84/84/84 83/83/83 81/81/81
