g huan01
v 0.987356782 6.64662414E-09 0.119117096
v 0.334637135 1.18539539E-07 -0.00263902242
v 0.323234588 -0.0866104513 -0.00263901032
v 0.953713357 -0.255546927 0.119117133
v 0.953713357 -0.255546927 0.119117133
v 0.323234588 -0.0866104513 -0.00263901032
v 0.28980428 -0.167318717 -0.00263899821
v 0.855076075 -0.493678331 0.119117171
v 0.855076075 -0.493678331 0.119117171
v 0.28980428 -0.167318717 -0.00263899821
v 0.236624166 -0.23662439 -0.00263899821
v 0.698166728 -0.698166728 0.119117208
v 0.698166728 -0.698166728 0.119117208
v 0.236624166 -0.23662439 -0.00263899821
v 0.167318702 -0.289804339 -0.00263897399
v 0.493678331 -0.855076075 0.11911723
v 0.493678331 -0.855076075 0.11911723
v 0.167318702 -0.289804339 -0.00263897399
v 0.0866103396 -0.323234588 -0.00263897399
v 0.255546927 -0.953713477 0.119117245
v 0.255546927 -0.953713477 0.119117245
v 0.0866103396 -0.323234588 -0.00263897399
v -6.51196004E-08 -0.334637165 -0.00263897399
v 2.40973208E-07 -0.987356782 0.119117245
v 2.40973208E-07 -0.987356782 0.119117245
v -6.51196004E-08 -0.334637165 -0.00263897399
v -0.0866105407 -0.323234588 -0.0026389861
v -0.255546689 -0.953713477 0.119117245
v -0.255546689 -0.953713477 0.119117245
v -0.0866105407 -0.323234588 -0.0026389861
v -0.167318672 -0.289804488 -0.0026389861
v -0.493678331 -0.855076075 0.11911723
v -0.493678331 -0.855076075 0.11911723
v -0.167318672 -0.289804488 -0.0026389861
v -0.236624345 -0.236624211 -0.0026389861
v -0.69816649 -0.698166609 0.119117208
v -0.69816649 -0.698166609 0.119117208
v -0.236624345 -0.236624211 -0.0026389861
v -0.289804488 -0.167318508 -0.00263899821
v -0.855075896 -0.493678331 0.119117171
v -0.855075896 -0.493678331 0.119117171
v -0.289804488 -0.167318508 -0.00263899821
v -0.323234886 -0.0866105035 -0.00263901032
v -0.953713357 -0.255547017 0.119117133
v -0.953713357 -0.255547017 0.119117133
v -0.323234886 -0.0866105035 -0.00263901032
v -0.334637403 -9.9421527E-08 -0.00263902242
v -0.987356782 -3.14650975E-07 0.119117096
v -0.987356782 -3.14650975E-07 0.119117096
v -0.334637403 -9.9421527E-08 -0.00263902242
v -0.323234975 0.0866103768 -0.00263904664
v -0.953713477 0.255546302 0.119117059
v -0.953713477 0.255546302 0.119117059
v -0.323234975 0.0866103768 -0.00263904664
v -0.289804548 0.167318583 -0.00263904664
v -0.855076373 0.493678004 0.119117022
v -0.855076373 0.493678004 0.119117022
v -0.289804548 0.167318583 -0.00263904664
v -0.236624435 0.236624166 -0.00263905874
v -0.698166966 0.698166311 0.119116992
v -0.698166966 0.698166311 0.119116992
v -0.236624435 0.236624166 -0.00263905874
v -0.167318717 0.289804339 -0.00263907085
v -0.493678778 0.855075896 0.119116962
v -0.493678778 0.855075896 0.119116962
v -0.167318717 0.289804339 -0.00263907085
v -0.0866107121 0.323234916 -0.00263907085
v -0.255547106 0.953713298 0.119116955
v -0.255547106 0.953713298 0.119116955
v -0.0866107121 0.323234916 -0.00263907085
v -2.39488429E-07 0.334637374 -0.00263907085
v -4.81946415E-07 0.987356782 0.119116955
v -4.81946415E-07 0.987356782 0.119116955
v -2.39488429E-07 0.334637374 -0.00263907085
v 0.0866104588 0.323234916 -0.00263908296
v 0.255546182 0.953713477 0.119116955
v 0.255546182 0.953713477 0.119116955
v 0.0866104588 0.323234916 -0.00263908296
v 0.167318493 0.289804518 -0.00263907085
v 0.493678004 0.855076313 0.119116962
v 0.493678004 0.855076313 0.119116962
v 0.167318493 0.289804518 -0.00263907085
v 0.236624047 0.236624479 -0.00263905874
v 0.69816637 0.698167086 0.119116992
v 0.69816637 0.698167086 0.119116992
v 0.236624047 0.236624479 -0.00263905874
v 0.289803982 0.167318925 -0.00263904664
v 0.855075777 0.493678957 0.119117022
v 0.855075777 0.493678957 0.119117022
v 0.289803982 0.167318925 -0.00263904664
v 0.323234558 0.0866106823 -0.00263904664
v 0.953713655 0.255547404 0.119117059
v 0.953713655 0.255547404 0.119117059
v 0.323234558 0.0866106823 -0.00263904664
v 0.334637135 1.18539539E-07 -0.00263902242
v 0.987356782 6.64662414E-09 0.119117096
vt 0.503091037 1.07102096E-08
vt 0.503091037 0.993571818
vt 0.585566163 0.993571818
vt 0.585566163 1.07102096E-08
vt 0.585566163 1.07102096E-08
vt 0.585566163 0.993571818
vt 0.668041468 0.993571818
vt 0.668041468 1.07102096E-08
vt 0.668041468 1.07102096E-08
vt 0.668041468 0.993571818
vt 0.750516593 0.993571818
vt 0.750516593 1.07102096E-08
vt 0.750516593 1.07102096E-08
vt 0.750516593 0.993571818
vt 0.832992017 0.993571818
vt 0.832992017 1.07102096E-08
vt 0.832992017 1.07102096E-08
vt 0.832992017 0.993571818
vt 0.915467024 0.993571818
vt 0.915467024 1.07102096E-08
vt 0.915467024 1.07102096E-08
vt 0.915467024 0.993571818
vt 0.997942328 0.993571818
vt 0.997942328 1.07102096E-08
vt 0.00567894429 0.00206616358
vt 0.00567894429 0.995637953
vt 0.0881542489 0.995637953
vt 0.0881542489 0.00206616358
vt 0.0881542489 0.00206616358
vt 0.0881542489 0.995637953
vt 0.170629412 0.995637953
vt 0.170629412 0.00206616358
vt 0.170629412 0.00206616358
vt 0.170629412 0.995637953
vt 0.253104597 0.995637953
vt 0.253104597 0.00206616358
vt 0.253104597 0.00206616358
vt 0.253104597 0.995637953
vt 0.335579783 0.995637953
vt 0.335579783 0.00206616358
vt 0.335579783 0.00206616358
vt 0.335579783 0.995637953
vt 0.418054998 0.995637953
vt 0.418054998 0.00206616358
vt 0.418054998 0.00206616358
vt 0.418054998 0.995637953
vt 0.500530124 0.995637953
vt 0.500530124 0.00206616358
vt 0.500530124 0.00206616358
vt 0.500530124 0.995637953
vt 0.583005428 0.995637953
vt 0.583005369 0.00206616358
vt 0.583005369 0.00206616358
vt 0.583005428 0.995637953
vt 0.665480554 0.995637953
vt 0.665480554 0.00206616358
vt 0.665480554 0.00206616358
vt 0.665480554 0.995637953
vt 0.747955739 0.995637953
vt 0.747955739 0.00206616358
vt 0.747955739 0.00206616358
vt 0.747955739 0.995637953
vt 0.830430984 0.995637953
vt 0.830431104 0.00206616358
vt 0.830431104 0.00206616358
vt 0.830430984 0.995637953
vt 0.91290617 0.995637953
vt 0.91290617 0.00206616358
vt 0.91290617 0.00206616358
vt 0.91290617 0.995637953
vt 0.995381355 0.995637953
vt 0.995381355 0.00206616358
vt 0.00823975354 1.07102096E-08
vt 0.00823975354 0.993571818
vt 0.0907149315 0.993571818
vt 0.0907149315 1.07102096E-08
vt 0.0907149315 1.07102096E-08
vt 0.0907149315 0.993571818
vt 0.173190102 0.993571818
vt 0.173190102 1.07102096E-08
vt 0.173190102 1.07102096E-08
vt 0.173190102 0.993571818
vt 0.255665272 0.993571818
vt 0.255665272 1.07102096E-08
vt 0.255665272 1.07102096E-08
vt 0.255665272 0.993571818
vt 0.338140339 0.993571818
vt 0.338140458 1.07102096E-08
vt 0.338140458 1.07102096E-08
vt 0.338140339 0.993571818
vt 0.420615762 0.993571818
vt 0.420615762 1.07102096E-08
vt 0.420615762 1.07102096E-08
vt 0.420615762 0.993571818
vt 0.503091037 0.993571818
vt 0.503091037 1.07102096E-08
vn 0.18332018 -0.0241347142 -0.982756972
vn 0.183320165 -0.0241347104 -0.982756972
vn 0.18332018 -0.0241347142 -0.982756972
vn 0.18332018 -0.0241347104 -0.982756972
vn 0.17082721 -0.0707590431 -0.982756972
vn 0.170827195 -0.0707590431 -0.982756972
vn 0.17082721 -0.0707590431 -0.982756972
vn 0.170827195 -0.0707590431 -0.982756972
vn 0.146692708 -0.112561345 -0.982756972
vn 0.146692693 -0.112561345 -0.982756972
vn 0.146692693 -0.11256133 -0.982756972
vn 0.146692708 -0.112561345 -0.982756972
vn 0.112561204 -0.146692917 -0.982756972
vn 0.112561189 -0.146692902 -0.982756972
vn 0.112561204 -0.146692902 -0.982756972
vn 0.112561189 -0.146692902 -0.982756972
vn 0.070758909 -0.170827344 -0.982756972
vn 0.0707589015 -0.170827314 -0.982756972
vn 0.0707589015 -0.170827329 -0.982756972
vn 0.070758909 -0.170827329 -0.982756972
vn 0.0241345856 -0.183320314 -0.982756972
vn 0.0241345856 -0.183320314 -0.982756972
vn 0.0241345838 -0.183320284 -0.982756972
vn 0.0241345875 -0.183320314 -0.982756972
vn -0.0241345353 -0.183320329 -0.982756972
vn -0.0241345316 -0.183320343 -0.982756972
vn -0.0241345335 -0.183320343 -0.982756972
vn -0.0241345372 -0.183320343 -0.982756972
vn -0.0707588643 -0.170827448 -0.982756972
vn -0.0707588568 -0.170827448 -0.982756972
vn -0.0707588643 -0.170827448 -0.982756972
vn -0.0707588568 -0.170827448 -0.982756972
vn -0.112561427 -0.146692753 -0.982756972
vn -0.112561427 -0.146692753 -0.982756972
vn -0.112561442 -0.146692768 -0.982756972
vn -0.11256142 -0.146692753 -0.982756972
vn -0.146692693 -0.112561464 -0.982756972
vn -0.146692693 -0.112561464 -0.982756972
vn -0.146692693 -0.112561464 -0.982756972
vn -0.146692693 -0.112561464 -0.982756972
vn -0.17082721 -0.0707592592 -0.982756972
vn -0.17082721 -0.0707592592 -0.982756972
vn -0.17082721 -0.0707592517 -0.982756972
vn -0.17082721 -0.0707592592 -0.982756972
vn -0.183320254 -0.0241347458 -0.982756972
vn -0.183320224 -0.0241347421 -0.982756972
vn -0.183320239 -0.024134744 -0.982756972
vn -0.183320254 -0.0241347458 -0.982756972
vn -0.183320269 0.0241343286 -0.982756972
vn -0.183320254 0.0241343267 -0.982756972
vn -0.183320254 0.0241343267 -0.982756972
vn -0.183320254 0.0241343286 -0.982756972
vn -0.170827344 0.0707587153 -0.982756972
vn -0.170827314 0.0707587078 -0.982756972
vn -0.170827329 0.0707587227 -0.982756972
vn -0.170827329 0.0707587153 -0.982756972
vn -0.146692693 0.112561129 -0.982756972
vn -0.146692693 0.112561129 -0.982756972
vn -0.146692693 0.112561129 -0.982756972
vn -0.146692693 0.112561129 -0.982756972
vn -0.112561367 0.14669247 -0.982756972
vn -0.112561367 0.14669247 -0.982756972
vn -0.112561367 0.14669247 -0.982756972
vn -0.112561367 0.14669247 -0.982756972
vn -0.070759058 0.170827076 -0.982756972
vn -0.0707590654 0.170827106 -0.982756972
vn -0.0707590654 0.170827091 -0.982756972
vn -0.0707590654 0.170827091 -0.982756972
vn -0.0241346043 0.18332009 -0.982756972
vn -0.0241346024 0.18332006 -0.982756972
vn -0.0241346024 0.183320075 -0.982756972
vn -0.0241346024 0.183320105 -0.982756972
vn 0.0241344385 0.183320135 -0.982756972
vn 0.0241344403 0.18332015 -0.982756972
vn 0.0241344385 0.183320135 -0.982756972
vn 0.0241344385 0.18332012 -0.982756972
vn 0.0707588941 0.17082715 -0.982756972
vn 0.0707588941 0.17082715 -0.982756972
vn 0.0707588941 0.17082715 -0.982756972
vn 0.0707588941 0.17082715 -0.982756972
vn 0.112561181 0.146692574 -0.982756972
vn 0.112561189 0.146692574 -0.982756972
vn 0.112561181 0.146692574 -0.982756972
vn 0.112561166 0.146692559 -0.982756972
vn 0.146692619 0.112561092 -0.982756972
vn 0.146692604 0.112561077 -0.982756972
vn 0.146692604 0.112561092 -0.982756972
vn 0.146692619 0.112561092 -0.982756972
vn 0.170827001 0.0707591102 -0.982756972
vn 0.170827001 0.0707591027 -0.982756972
vn 0.170826986 0.0707590953 -0.982756972
vn 0.170826986 0.0707590953 -0.982756972
vn 0.183320165 0.024134241 -0.982756972
vn 0.183320135 0.0241342392 -0.982756972
vn 0.18332015 0.024134241 -0.982756972
vn 0.183320165 0.0241342392 -0.982756972
g huan01_0
f 3/3/3 2/2/2 1/1/1
f 4/4/4 3/3/3 1/1/1
f 7/7/7 6/6/6 5/5/5
f 8/8/8 7/7/7 5/5/5
f 11/11/11 10/10/10 9/9/9
f 12/12/12 11/11/11 9/9/9
f 15/15/15 14/14/14 13/13/13
f 16/16/16 15/15/15 13/13/13
f 19/19/19 18/18/18 17/17/17
f 20/20/20 19/19/19 17/17/17
f 23/23/23 22/22/22 21/21/21
f 24/24/24 23/23/23 21/21/21
f 27/27/27 26/26/26 25/25/25
f 28/28/28 27/27/27 25/25/25
f 31/31/31 30/30/30 29/29/29
f 32/32/32 31/31/31 29/29/29
f 35/35/35 34/34/34 33/33/33
f 36/36/36 35/35/35 33/33/33
f 39/39/39 38/38/38 37/37/37
f 40/40/40 39/39/39 37/37/37
f 43/43/43 42/42/42 41/41/41
f 44/44/44 43/43/43 41/41/41
f 47/47/47 46/46/46 45/45/45
f 48/48/48 47/47/47 45/45/45
f 51/51/51 50/50/50 49/49/49
f 52/52/52 51/51/51 49/49/49
f 55/55/55 54/54/54 53/53/53
f 56/56/56 55/55/55 53/53/53
f 59/59/59 58/58/58 57/57/57
f 60/60/60 59/59/59 57/57/57
f 63/63/63 62/62/62 61/61/61
f 64/64/64 63/63/63 61/61/61
f 67/67/67 66/66/66 65/65/65
f 68/68/68 67/67/67 65/65/65
f 71/71/71 70/70/70 69/69/69
f 72/72/72 71/71/71 69/69/69
f 75/75/75 74/74/74 73/73/73
f 76/76/76 75/75/75 73/73/73
f 79/79/79 78/78/78 77/77/77
f 80/80/80 79/79/79 77/77/77
f 83/83/83 82/82/82 81/81/81
f 84/84/84 83/83/83 81/81/81
f 87/87/87 86/86/86 85/85/85
f 88/88/88 87/87/87 85/85/85
f 91/91/91 90/90/90 89/89/89
f 92/92/92 91/91/91 89/89/89
f 95/95/95 94/94/94 93/93/93
f 96/96/96 95/95/95 93/93/93
