g Plane002
v 0.468692124 -0.734957814 -1.1102693E-08
v -0.442522883 -0.287647218 1.1102693E-08
v -0.654926181 -0.522260547 -1.1102693E-08
v 0.254261345 -0.48174715 1.1102693E-08
v 0.723221242 0.124195285 -1.1102693E-08
v 0.417580992 0.116528571 1.1102693E-08
v 0.118051104 0.596702456 1.1102693E-08
v 0.229016572 0.852844954 -1.1102693E-08
v -0.269963503 0.189930171 1.1102693E-08
v -0.670311034 0.19726412 -1.1102693E-08
vt 0.25 0
vt 0 1
vt 0 0
vt 0.25 1
vt 0.5 0
vt 0.5 1
vt 0.75 1
vt 0.75 0
vt 1 1
vt 1 0
vn -0 0 -1
vn -0 0 -1
vn -0 0 -1
vn -0 0 -1
vn -0 0 -1
vn -0 0 -1
vn -0 0 -1
vn -0 0 -1
vn -0 0 -1
vn -0 0 -1
g Plane002_0
f 3/3/3 2/2/2 1/1/1
f 4/4/4 1/1/1 2/2/2
f 1/1/1 4/4/4 5/5/5
f 6/6/6 5/5/5 4/4/4
f 6/6/6 7/7/7 5/5/5
f 8/8/8 5/5/5 7/7/7
f 7/7/7 9/9/9 8/8/8
f 10/10/10 8/8/8 9/9/9
