g slash_s_03_02
v -0.0850706771 0.069122225 0.00781307835
v -0.097131148 0.0856052637 0.00781307835
v -0.0619228259 0.0808575153 0.00781307835
v -0.0558628663 0.0651622117 0.00781307835
v -0.0730102062 0.0526391864 0.00781307835
v -0.0267145056 0.076109767 0.00781307835
v -0.0498029068 0.0494669378 0.00781307835
v -0.0609497279 0.0361561477 0.00781307835
v -0.0266550537 0.0612021983 0.00781307835
v 0.00849382021 0.0713620186 0.00781307835
v -0.0437429398 0.0337716341 0.00781307835
v -0.048889257 0.0196730793 0.00781307835
v -0.0376829803 0.0180763304 0.00781307835
v 0.00255276076 0.0572422445 0.00781307835
v 0.0437021405 0.0666142702 0.00781307835
v -0.0265955999 0.0462946594 0.00781307835
v -0.026536148 0.0313871205 0.00781307835
v -0.0264766961 0.0164795816 0.00781307835
v 0.0317605734 0.0532822311 0.00781307835
v 0.07891047 0.0618665218 0.00781307835
v -0.00338829681 0.0431224406 0.00781307835
v -0.00932935532 0.0290026367 0.00781307835
v -0.0152704138 0.0148828328 0.00781307835
v 0.0609683916 0.0493222177 0.00781307835
v 0.1141188 0.0571187735 0.00781307835
v 0.0198190045 0.0399501622 0.00781307835
v 0.0078774374 0.0266181231 0.00781307835
v -0.00406413246 0.0132860839 0.00781307835
v 0.0901762098 0.0453622341 0.00781307835
v 0.149327129 0.0523710251 0.00781307835
v 0.0430263132 0.0367779434 0.00781307835
v 0.0250842292 0.0242336392 0.00781307835
v 0.00714214891 0.0116893351 0.00781307835
v 0.119384021 0.0414022505 0.00781307835
v 0.184535459 0.0476232767 0.00781307835
v 0.148591846 0.0374422371 0.00781307835
v 0.06623362 0.0336056948 0.00781307835
v 0.0422910228 0.0218491554 0.00781307835
v 0.0183484312 0.0100926161 0.00781307835
v 0.0894409269 0.0304334462 0.00781307835
v 0.112648219 0.0272612274 0.00781307835
v 0.0594978184 0.0194646716 0.00781307835
v 0.0295547117 0.00849589705 0.00781307835
v 0.0767046064 0.0170801878 0.00781307835
v 0.040760994 0.00689914823 0.00781307835
v 0.148591846 0.0374422371 0.00781307835
v 0.184535459 0.0476232767 0.00781307835
v 0.164945632 0.0242026746 0.00781307835
v 0.132181123 0.0165415406 0.00781307835
v 0.112648219 0.0272612274 0.00781307835
v 0.145355791 0.000782102346 0.00781307835
v 0.0994166061 0.00888040662 0.00781307835
v 0.0767046064 0.0170801878 0.00781307835
v 0.115770385 -0.00435915589 0.00781307835
v 0.125765949 -0.0226384699 0.00781307835
v 0.0666520894 0.00121927261 0.00781307835
v 0.040760994 0.00689914823 0.00781307835
v 0.0338875726 -0.00644186139 0.00781307835
v 0.0993596464 -0.0252598226 0.00781307835
v 0.106176116 -0.046059072 0.00781307835
v 0.0861849785 -0.00950038433 0.00781307835
v 0.0565995649 -0.0146416128 0.00781307835
v 0.0270141568 -0.019782871 0.00781307835
v 0.0829489231 -0.0461605489 0.00781307835
v 0.0865862817 -0.0694796443 0.00781307835
v 0.0729533434 -0.0278811753 0.00781307835
v 0.0465470403 -0.030502528 0.00781307835
v 0.0201407392 -0.0331238806 0.00781307835
v 0.0364945233 -0.0463634431 0.00781307835
v 0.0132673215 -0.0464648902 0.00781307835
v 0.0264419969 -0.0622243285 0.00781307835
v 0.00639390387 -0.0598058999 0.00781307835
v 0.0163894724 -0.0780852437 0.00781307835
v -0.000479513779 -0.0731469095 0.00781307835
v 0.00633695163 -0.0939461291 0.00781307835
v -0.00735293142 -0.0864879191 0.00781307835
v 0.0597217232 -0.046261996 0.00781307835
v 0.0364945233 -0.0463634431 0.00781307835
v 0.0665381849 -0.0670612156 0.00781307835
v 0.0669964403 -0.0929002166 0.00781307835
v 0.0464900956 -0.0646427572 0.00781307835
v 0.0264419969 -0.0622243285 0.00781307835
v 0.0501274541 -0.0879618824 0.00781307835
v 0.0474065989 -0.116320789 0.00781307835
v 0.0332584605 -0.0830235779 0.00781307835
v 0.0163894724 -0.0780852437 0.00781307835
v 0.0337167159 -0.108862579 0.00781307835
v 0.0278167631 -0.139741376 0.00781307835
v 0.0200268347 -0.101404354 0.00781307835
v 0.0200268347 -0.101404354 0.00781307835
v 0.00679520704 -0.119785145 0.00781307835
v -0.00371557102 -0.109807029 0.00781307835
v 0.0173059832 -0.12976326 0.00781307835
v 0.00822692737 -0.163161963 0.00781307835
v 0.000895254314 -0.150663942 0.00781307835
v -0.00643641967 -0.138165936 0.00781307835
v -0.0113629103 -0.18658255 0.00781307835
v -0.0155154783 -0.171564639 0.00781307835
v -0.030952746 -0.210003138 0.00781307835
v -0.00643641967 -0.138165936 0.00781307835
v -0.0196680464 -0.156546727 0.00781307835
v -0.00371557102 -0.109807029 0.00781307835
v -0.0137680927 -0.12566793 0.00781307835
v -0.0142263491 -0.0998289138 0.00781307835
v -0.0137680927 -0.12566793 0.00781307835
v -0.0210997649 -0.113169909 0.00781307835
v -0.0196680464 -0.156546727 0.00781307835
v -0.0238206144 -0.141528815 0.00781307835
v -0.0238206144 -0.141528815 0.00781307835
v -0.0279731825 -0.126510903 0.00781307835
v -0.0319262072 -0.192465335 0.00781307835
v -0.0505425856 -0.23342371 0.00781307835
v -0.0338731371 -0.1573897 0.00781307835
v -0.0348466001 -0.139851898 0.00781307835
v -0.032899674 -0.174927518 0.00781307835
v -0.0338731371 -0.1573897 0.00781307835
v -0.048336938 -0.213366017 0.00781307835
v -0.0701324195 -0.256844282 0.00781307835
v -0.0647476763 -0.234266698 0.00781307835
v -0.0461312979 -0.193308309 0.00781307835
v -0.032899674 -0.174927518 0.00781307835
v -0.0593629256 -0.211689085 0.00781307835
v -0.0439256579 -0.173250601 0.00781307835
v -0.0439256579 -0.173250601 0.00781307835
v -0.0539781824 -0.189111486 0.00781307835
v -0.0417200178 -0.153192893 0.00781307835
v -0.0485934317 -0.166533887 0.00781307835
vt -0.00048828125 0.250488281
vt -0.00048828125 0.00048828125
vt 0.0629882812 0.00048828125
vt 0.0629882812 0.250488281
vt -0.00048828125 0.500488281
vt 0.125488281 0.00048828125
vt 0.0629882812 0.500488281
vt -0.00048828125 0.750488281
vt 0.125488281 0.250488281
vt 0.187988281 0.00048828125
vt 0.0629882812 0.750488281
vt -0.00048828125 1.00048828
vt 0.0629882812 1.00048828
vt 0.187988281 0.250488281
vt 0.250488281 0.00048828125
vt 0.125488281 0.500488281
vt 0.125488281 0.750488281
vt 0.125488281 1.00048828
vt 0.249511719 0.250488281
vt 0.312011719 0.00048828125
vt 0.187988281 0.500488281
vt 0.187988281 0.750488281
vt 0.187988281 1.00048828
vt 0.312011719 0.250488281
vt 0.375488281 0.00048828125
vt 0.250488281 0.500488281
vt 0.250488281 0.750488281
vt 0.250488281 1.00048828
vt 0.374511719 0.250488281
vt 0.437011719 0.00048828125
vt 0.312011719 0.500488281
vt 0.312988281 0.750488281
vt 0.312988281 1.00048828
vt 0.437011719 0.250488281
vt 0.500488281 0.00048828125
vt 0.499511719 0.250488281
vt 0.375488281 0.500488281
vt 0.375488281 0.750488281
vt 0.375488281 1.00048828
vt 0.437011719 0.500488281
vt 0.500488281 0.500488281
vt 0.437988281 0.750488281
vt 0.437988281 1.00048828
vt 0.500488281 0.750488281
vt 0.500488281 1.00048828
vt 0.499511719 0.250488281
vt 0.500488281 0.00048828125
vt 0.538574219 0.00048828125
vt 0.538574219 0.250488281
vt 0.500488281 0.500488281
vt 0.576660156 0.00048828125
vt 0.538574219 0.500488281
vt 0.500488281 0.750488281
vt 0.576660156 0.250488281
vt 0.615722656 -0.00048828125
vt 0.538574219 0.750488281
vt 0.500488281 1.00048828
vt 0.538574219 1.00048828
vt 0.615722656 0.250488281
vt 0.653808594 0.00048828125
vt 0.576660156 0.500488281
vt 0.576660156 0.750488281
vt 0.576660156 1.00048828
vt 0.653808594 0.250488281
vt 0.691894531 0.00048828125
vt 0.615722656 0.500488281
vt 0.615722656 0.750488281
vt 0.615722656 1.00048828
vt 0.653808594 0.750488281
vt 0.653808594 1.00048828
vt 0.691894531 0.750488281
vt 0.691894531 1.00048828
vt 0.730957031 0.750488281
vt 0.730957031 1.00048828
vt 0.769042969 0.750488281
vt 0.769042969 1.00048828
vt 0.653808594 0.500488281
vt 0.653808594 0.750488281
vt 0.691894531 0.250488281
vt 0.730957031 0.00048828125
vt 0.691894531 0.500488281
vt 0.691894531 0.750488281
vt 0.730957031 0.250488281
vt 0.769042969 0.00048828125
vt 0.730957031 0.500488281
vt 0.730957031 0.750488281
vt 0.769042969 0.250488281
vt 0.808105469 0.00048828125
vt 0.769042969 0.500488281
vt 0.769042969 0.500488281
vt 0.808105469 0.500488281
vt 0.808105469 0.750488281
vt 0.808105469 0.250488281
vt 0.846191406 0.00048828125
vt 0.846191406 0.250488281
vt 0.846191406 0.500488281
vt 0.884277344 0.00048828125
vt 0.884277344 0.250488281
vt 0.923339844 0.00048828125
vt 0.846191406 0.500488281
vt 0.884277344 0.500488281
vt 0.808105469 0.750488281
vt 0.846191406 0.750488281
vt 0.808105469 1.00048828
vt 0.846191406 0.750488281
vt 0.846191406 1.00048828
vt 0.884277344 0.500488281
vt 0.884277344 0.750488281
vt 0.884277344 0.750488281
vt 0.884277344 1.00048828
vt 0.923339844 0.250488281
vt 0.961425781 0.00048828125
vt 0.923339844 0.750488281
vt 0.923339844 1.00048828
vt 0.923339844 0.500488281
vt 0.923339844 0.750488281
vt 0.961425781 0.250488281
vt 1.00048828 0.00048828125
vt 1.00048828 0.250488281
vt 0.961425781 0.500488281
vt 0.923339844 0.500488281
vt 1.00048828 0.500488281
vt 0.961425781 0.750488281
vt 0.961425781 0.750488281
vt 1.00048828 0.750488281
vt 0.961425781 1.00048828
vt 1.00048828 1.00048828
vn -0 0 1
vn -0 0 1
vn -0 0 1
vn -0 0 1
vn -0 0 1
vn -0 0 1
vn -0 0 1
vn -0 0 1
vn -0 0 1
vn -0 0 1
vn -0 0 1
vn -0 0 1
vn -0 0 1
vn -0 0 1
vn -0 0 1
vn -0 0 1
vn -0 0 1
vn -0 0 1
vn -0 0 1
vn -0 0 1
vn -0 0 1
vn -0 0 1
vn -0 0 1
vn -0 0 1
vn -0 0 1
vn -0 0 1
vn -0 0 1
vn -0 0 1
vn -0 0 1
vn -0 0 1
vn -0 0 1
vn -0 0 1
vn -0 0 1
vn -0 0 1
vn -0 0 1
vn -0 0 1
vn -0 0 1
vn -0 0 1
vn -0 0 1
vn -0 0 1
vn -0 0 1
vn -0 0 1
vn -0 0 1
vn -0 0 1
vn -0 0 1
vn -0 0 1
vn -0 0 1
vn -0 0 1
vn -0 0 1
vn -0 0 1
vn -0 0 1
vn -0 0 1
vn -0 0 1
vn -0 0 1
vn -0 0 1
vn -0 0 1
vn -0 0 1
vn -0 0 1
vn -0 0 1
vn -0 0 1
vn -0 0 1
vn -0 0 1
vn -0 0 1
vn -0 0 1
vn -0 0 1
vn -0 0 1
vn -0 0 1
vn -0 0 1
vn -0 0 1
vn -0 0 1
vn -0 0 1
vn -0 0 1
vn -0 0 1
vn -0 0 1
vn -0 0 1
vn -0 0 1
vn -0 0 1
vn -0 0 1
vn -0 0 1
vn -0 0 1
vn -0 0 1
vn -0 0 1
vn -0 0 1
vn -0 0 1
vn -0 0 1
vn -0 0 1
vn -0 0 1
vn -0 0 1
vn -0 0 1
vn -0 0 1
vn -0 0 1
vn -0 0 1
vn -0 0 1
vn -0 0 1
vn -0 0 1
vn -0 0 1
vn -0 0 1
vn -0 0 1
vn -0 0 1
vn -0 0 1
vn -0 0 1
vn -0 0 1
vn -0 0 1
vn -0 0 1
vn -0 0 1
vn -0 0 1
vn -0 0 1
vn -0 0 1
vn -0 0 1
vn -0 0 1
vn -0 0 1
vn -0 0 1
vn -0 0 1
vn -0 0 1
vn -0 0 1
vn -0 0 1
vn -0 0 1
vn -0 0 1
vn -0 0 1
vn -0 0 1
vn -0 0 1
vn -0 0 1
vn -0 0 1
vn -0 0 1
vn -0 0 1
vn -0 0 1
vn -0 0 1
g slash_s_03_02_0
f 3/3/3 2/2/2 1/1/1
f 4/4/4 3/3/3 1/1/1
f 4/4/4 1/1/1 5/5/5
f 6/6/6 3/3/3 4/4/4
f 7/7/7 4/4/4 5/5/5
f 7/7/7 5/5/5 8/8/8
f 9/9/9 6/6/6 4/4/4
f 9/9/9 4/4/4 7/7/7
f 10/10/10 6/6/6 9/9/9
f 11/11/11 7/7/7 8/8/8
f 11/11/11 8/8/8 12/12/12
f 13/13/13 11/11/11 12/12/12
f 14/14/14 10/10/10 9/9/9
f 15/15/15 10/10/10 14/14/14
f 16/16/16 9/9/9 7/7/7
f 16/16/16 7/7/7 11/11/11
f 14/14/14 9/9/9 16/16/16
f 17/17/17 11/11/11 13/13/13
f 17/17/17 16/16/16 11/11/11
f 18/18/18 17/17/17 13/13/13
f 19/19/19 15/15/15 14/14/14
f 20/20/20 15/15/15 19/19/19
f 21/21/21 14/14/14 16/16/16
f 21/21/21 16/16/16 17/17/17
f 19/19/19 14/14/14 21/21/21
f 22/22/22 17/17/17 18/18/18
f 22/22/22 21/21/21 17/17/17
f 23/23/23 22/22/22 18/18/18
f 24/24/24 20/20/20 19/19/19
f 25/25/25 20/20/20 24/24/24
f 26/26/26 19/19/19 21/21/21
f 26/26/26 21/21/21 22/22/22
f 24/24/24 19/19/19 26/26/26
f 27/27/27 22/22/22 23/23/23
f 27/27/27 26/26/26 22/22/22
f 28/28/28 27/27/27 23/23/23
f 29/29/29 25/25/25 24/24/24
f 30/30/30 25/25/25 29/29/29
f 31/31/31 24/24/24 26/26/26
f 31/31/31 26/26/26 27/27/27
f 29/29/29 24/24/24 31/31/31
f 32/32/32 27/27/27 28/28/28
f 32/32/32 31/31/31 27/27/27
f 33/33/33 32/32/32 28/28/28
f 34/34/34 30/30/30 29/29/29
f 35/35/35 30/30/30 34/34/34
f 36/36/36 35/35/35 34/34/34
f 37/37/37 29/29/29 31/31/31
f 37/37/37 31/31/31 32/32/32
f 34/34/34 29/29/29 37/37/37
f 38/38/38 32/32/32 33/33/33
f 38/38/38 37/37/37 32/32/32
f 39/39/39 38/38/38 33/33/33
f 36/36/36 34/34/34 40/40/40
f 40/40/40 34/34/34 37/37/37
f 40/40/40 37/37/37 38/38/38
f 41/41/41 36/36/36 40/40/40
f 42/42/42 38/38/38 39/39/39
f 42/42/42 40/40/40 38/38/38
f 41/41/41 40/40/40 42/42/42
f 43/43/43 42/42/42 39/39/39
f 44/44/44 41/41/41 42/42/42
f 44/44/44 42/42/42 43/43/43
f 45/45/45 44/44/44 43/43/43
f 48/48/48 47/47/47 46/46/46
f 49/49/49 48/48/48 46/46/46
f 49/49/49 46/46/46 50/50/50
f 51/51/51 48/48/48 49/49/49
f 52/52/52 49/49/49 50/50/50
f 52/52/52 50/50/50 53/53/53
f 54/54/54 51/51/51 49/49/49
f 54/54/54 49/49/49 52/52/52
f 55/55/55 51/51/51 54/54/54
f 56/56/56 52/52/52 53/53/53
f 56/56/56 53/53/53 57/57/57
f 58/58/58 56/56/56 57/57/57
f 59/59/59 55/55/55 54/54/54
f 60/60/60 55/55/55 59/59/59
f 61/61/61 54/54/54 52/52/52
f 61/61/61 52/52/52 56/56/56
f 59/59/59 54/54/54 61/61/61
f 62/62/62 56/56/56 58/58/58
f 62/62/62 61/61/61 56/56/56
f 63/63/63 62/62/62 58/58/58
f 64/64/64 60/60/60 59/59/59
f 65/65/65 60/60/60 64/64/64
f 66/66/66 59/59/59 61/61/61
f 66/66/66 61/61/61 62/62/62
f 64/64/64 59/59/59 66/66/66
f 67/67/67 62/62/62 63/63/63
f 67/67/67 66/66/66 62/62/62
f 68/68/68 67/67/67 63/63/63
f 69/69/69 67/67/67 68/68/68
f 70/70/70 69/69/69 68/68/68
f 71/71/71 69/69/69 70/70/70
f 72/72/72 71/71/71 70/70/70
f 73/73/73 71/71/71 72/72/72
f 74/74/74 73/73/73 72/72/72
f 75/75/75 73/73/73 74/74/74
f 76/76/76 75/75/75 74/74/74
f 77/77/77 66/66/66 67/67/67
f 77/77/77 64/64/64 66/66/66
f 78/78/78 77/77/77 67/67/67
f 79/79/79 64/64/64 77/77/77
f 79/79/79 65/65/65 64/64/64
f 80/80/80 65/65/65 79/79/79
f 81/81/81 77/77/77 78/78/78
f 81/81/81 79/79/79 77/77/77
f 82/82/82 81/81/81 78/78/78
f 83/83/83 80/80/80 79/79/79
f 83/83/83 79/79/79 81/81/81
f 84/84/84 80/80/80 83/83/83
f 85/85/85 81/81/81 82/82/82
f 85/85/85 83/83/83 81/81/81
f 86/86/86 85/85/85 82/82/82
f 87/87/87 84/84/84 83/83/83
f 87/87/87 83/83/83 85/85/85
f 88/88/88 84/84/84 87/87/87
f 89/89/89 85/85/85 86/86/86
f 75/75/75 89/89/89 86/86/86
f 90/90/90 87/87/87 85/85/85
f 91/91/91 89/89/89 75/75/75
f 92/92/92 91/91/91 75/75/75
f 93/93/93 88/88/88 87/87/87
f 93/93/93 87/87/87 90/90/90
f 91/91/91 93/93/93 90/90/90
f 94/94/94 88/88/88 93/93/93
f 95/95/95 94/94/94 93/93/93
f 95/95/95 93/93/93 91/91/91
f 96/96/96 95/95/95 91/91/91
f 97/97/97 94/94/94 95/95/95
f 98/98/98 97/97/97 95/95/95
f 99/99/99 97/97/97 98/98/98
f 98/98/98 95/95/95 100/100/100
f 101/101/101 98/98/98 100/100/100
f 100/100/100 91/91/91 102/102/102
f 102/102/102 75/75/75 76/76/76
f 103/103/103 100/100/100 102/102/102
f 104/104/104 102/102/102 76/76/76
f 105/105/105 102/102/102 104/104/104
f 106/106/106 105/105/105 104/104/104
f 107/107/107 100/100/100 105/105/105
f 108/108/108 107/107/107 105/105/105
f 109/109/109 105/105/105 106/106/106
f 110/110/110 109/109/109 106/106/106
f 111/111/111 98/98/98 107/107/107
f 111/111/111 99/99/99 98/98/98
f 112/112/112 99/99/99 111/111/111
f 113/113/113 109/109/109 110/110/110
f 114/114/114 113/113/113 110/110/110
f 115/115/115 107/107/107 109/109/109
f 115/115/115 111/111/111 107/107/107
f 116/116/116 115/115/115 109/109/109
f 117/117/117 112/112/112 111/111/111
f 117/117/117 111/111/111 115/115/115
f 118/118/118 112/112/112 117/117/117
f 119/119/119 118/118/118 117/117/117
f 120/120/120 117/117/117 115/115/115
f 119/119/119 117/117/117 120/120/120
f 120/120/120 121/121/121 113/113/113
f 122/122/122 119/119/119 120/120/120
f 123/123/123 113/113/113 114/114/114
f 124/124/124 120/120/120 113/113/113
f 122/122/122 120/120/120 124/124/124
f 125/125/125 122/122/122 124/124/124
f 126/126/126 123/123/123 114/114/114
f 125/125/125 123/123/123 126/126/126
f 127/127/127 125/125/125 126/126/126
