g general_plane_56
v 0.436018705 0.261256814 0
v 0.439850688 0.521323204 0
v 0.46898824 0.266920269 0
v 0.406881154 0.51565975 0
v 0.403049439 0.255593419 0
v 0.373911619 0.509996295 0
v 0.370079905 0.249929965 0
v 0.340942323 0.5043329 0
v 0.337110519 0.24426651 0
v 0.307972938 0.498669446 0
v 0.304140985 0.238603055 0
v 0.275003403 0.493005991 0
v 0.278417706 0.233983904 0
v 0.236994967 0.486677408 0
v 0.25309971 0.229035199 0
v 0.199286371 0.479382873 0
v 0.226085544 0.222707927 0
v 0.163754225 0.471071899 0
v 0.198171154 0.215120673 0
v 0.129669428 0.461854041 0
v 0.170009464 0.206984401 0
v 0.0961196125 0.452158093 0
v 0.141663671 0.198272377 0
v 0.0630611479 0.44197607 3.7252903E-09
v 0.113302499 0.188769817 0
v 0.0304990113 0.431078374 0
v 0.0850434005 0.178836644 -3.7252903E-09
v -0.00184950233 0.419708997 3.7252903E-09
v 0.0568999648 0.16846922 0
v -0.033991456 0.407861382 0
v 0.0290985703 0.157466024 -3.7252903E-09
v -0.0659336746 0.395244777 3.7252903E-09
v 0.00153890252 0.146153122 -3.7252903E-09
v -0.0977993011 0.382165343 -3.7252903E-09
v -0.0257723629 0.134534329 3.7252903E-09
v -0.129589379 0.368610978 0
v -0.0524723828 0.122327119 -3.7252903E-09
v -0.161314249 0.354109943 3.7252903E-09
v -0.0786461532 0.109765649 0
v -0.193041444 0.338858545 0
v -0.104278564 0.0968943238 3.7252903E-09
v -0.224782586 0.322833776 -3.7252903E-09
v -0.128478885 0.0834138393 -3.7252903E-09
v -0.256715178 0.305056095 -3.7252903E-09
v -0.15114814 0.0698611736 3.7252903E-09
v -0.288914621 0.285242617 0
v -0.172504604 0.0569764972 3.7252903E-09
v -0.288914621 0.285242617 0
v -0.321160376 0.262788564 3.7252903E-09
v -0.190092325 0.0454969406 -7.4505806E-09
v -0.321160376 0.262788564 3.7252903E-09
v -0.354370773 0.234986573 0
v -0.0678939521 -0.175268531 -7.13043846E-10
v -0.0874557197 -0.317814231 7.13043846E-10
v -0.120239735 -0.311234653 -1.22236088E-09
v -0.100574791 -0.167936981 1.22236088E-09
v -0.155459702 -0.305022776 6.34463504E-09
v -0.129464269 -0.160525739 6.1118044E-10
v -0.193090916 -0.298562348 -1.3387762E-09
v -0.154586077 -0.153321445 1.3387762E-09
v -0.154586077 -0.153321445 1.3387762E-09
v -0.193090916 -0.298562348 -1.3387762E-09
v -0.23119998 -0.288330674 6.98491931E-09
v -0.177227855 -0.143229365 -1.51339918E-09
v -0.177227855 -0.143229365 -1.51339918E-09
v -0.23119998 -0.288330674 6.98491931E-09
v -0.269475579 -0.274680376 -1.86264515E-09
v -0.197477877 -0.1314224 -2.32830644E-10
v -0.197477877 -0.1314224 -2.32830644E-10
v -0.269475579 -0.274680376 -1.86264515E-09
v -0.307742059 -0.257258296 9.54605639E-09
v -0.215402186 -0.118515015 -8.84756446E-09
v -0.215402186 -0.118515015 -8.84756446E-09
v -0.307742059 -0.257258296 9.54605639E-09
v -0.344584644 -0.232674062 -9.31322575E-10
v -0.228639424 -0.103400171 -6.98491931E-09
v -0.228639424 -0.103400171 -6.98491931E-09
v -0.344584644 -0.232674062 -9.31322575E-10
v -0.378677428 -0.202158928 9.31322575E-10
v -0.238195479 -0.0877899528 9.31322575E-10
v -0.238195479 -0.0877899528 9.31322575E-10
v -0.378677428 -0.202158928 9.31322575E-10
v -0.409420848 -0.166158438 1.86264515E-09
v -0.245218873 -0.0725591183 -9.31322575E-10
v -0.245218873 -0.0725591183 -9.31322575E-10
v -0.409420848 -0.166158438 1.86264515E-09
v -0.43325609 -0.123644292 9.31322575E-09
v -0.247852206 -0.0568563342 -1.11758709E-08
v -0.247852206 -0.0568563342 -1.11758709E-08
v -0.43325609 -0.123644292 9.31322575E-09
v -0.449387848 -0.077483058 9.31322575E-09
v -0.247392297 -0.0414651036 -9.31322575E-09
v -0.247392297 -0.0414651036 -9.31322575E-09
v -0.449387848 -0.077483058 9.31322575E-09
v -0.458616197 -0.0289884806 1.86264515E-09
v -0.245428979 -0.026692152 -1.86264515E-09
v -0.245428979 -0.026692152 -1.86264515E-09
v -0.458616197 -0.0289884806 1.86264515E-09
v -0.458587468 0.0201847553 0
v -0.23998481 -0.0120664835 -1.11758709E-08
v -0.23998481 -0.0120664835 -1.11758709E-08
v -0.458587468 0.0201847553 0
v -0.450708926 0.0685043335 0
v -0.23244381 0.00143188238 -3.7252903E-09
v -0.23244381 0.00143188238 -3.7252903E-09
v -0.450708926 0.0685043335 0
v -0.436472356 0.115667403 0
v -0.224434137 0.0139907002 -3.7252903E-09
v -0.224434137 0.0139907002 -3.7252903E-09
v -0.436472356 0.115667403 0
v -0.414720058 0.160280019 0
v -0.214819014 0.0251829028 -7.4505806E-09
v -0.214819014 0.0251829028 -7.4505806E-09
v -0.414720058 0.160280019 0
v -0.386262357 0.200167686 0
v -0.203232348 0.0350077748 0
v -0.386262357 0.200167686 0
v -0.354370773 0.234986573 0
v -0.190092325 0.0454969406 -7.4505806E-09
vt 0.0239257812 1.00048828
vt -0.00048828125 -0.00048828125
vt -0.00048828125 1.00048828
vt 0.0239257812 -0.00048828125
vt 0.0473632812 1.00048828
vt 0.0473632812 -0.00048828125
vt 0.0717773438 1.00048828
vt 0.0717773438 -0.00048828125
vt 0.0952148438 1.00048828
vt 0.0952148438 -0.00048828125
vt 0.118652344 1.00048828
vt 0.118652344 -0.00048828125
vt 0.143066406 1.00048828
vt 0.143066406 -0.00048828125
vt 0.166503906 1.00048828
vt 0.166503906 -0.00048828125
vt 0.190917969 1.00048828
vt 0.190917969 -0.00048828125
vt 0.214355469 1.00048828
vt 0.214355469 -0.00048828125
vt 0.237792969 1.00048828
vt 0.237792969 -0.00048828125
vt 0.262207031 1.00048828
vt 0.262207031 -0.00048828125
vt 0.285644531 1.00048828
vt 0.285644531 -0.00048828125
vt 0.309082031 1.00048828
vt 0.309082031 -0.00048828125
vt 0.333496094 1.00048828
vt 0.333496094 -0.00048828125
vt 0.356933594 1.00048828
vt 0.356933594 -0.00048828125
vt 0.381347656 1.00048828
vt 0.381347656 -0.00048828125
vt 0.404785156 1.00048828
vt 0.404785156 -0.00048828125
vt 0.428222656 1.00048828
vt 0.428222656 -0.00048828125
vt 0.452636719 1.00048828
vt 0.452636719 -0.00048828125
vt 0.476074219 1.00048828
vt 0.476074219 -0.00048828125
vt 0.499511719 1.00048828
vt 0.499511719 -0.00048828125
vt 0.523925781 1.00048828
vt 0.523925781 -0.00048828125
vt 0.547363281 1.00048828
vt 0.523925781 -0.00048828125
vt 0.547363281 -0.00048828125
vt 0.571777344 1.00048828
vt 0.547363281 -0.00048828125
vt 0.571777344 -0.00048828125
vt 0.999511719 1.00048828
vt 0.999511719 -0.00048828125
vt 0.976074219 -0.00048828125
vt 0.976074219 1.00048828
vt 0.952636719 -0.00048828125
vt 0.952636719 1.00048828
vt 0.928222656 -0.00048828125
vt 0.928222656 1.00048828
vt 0.928222656 1.00048828
vt 0.928222656 -0.00048828125
vt 0.904785156 -0.00048828125
vt 0.904785156 1.00048828
vt 0.904785156 1.00048828
vt 0.904785156 -0.00048828125
vt 0.881347656 -0.00048828125
vt 0.881347656 1.00048828
vt 0.881347656 1.00048828
vt 0.881347656 -0.00048828125
vt 0.856933594 -0.00048828125
vt 0.856933594 1.00048828
vt 0.856933594 1.00048828
vt 0.856933594 -0.00048828125
vt 0.833496094 -0.00048828125
vt 0.833496094 1.00048828
vt 0.833496094 1.00048828
vt 0.833496094 -0.00048828125
vt 0.809082031 -0.00048828125
vt 0.809082031 1.00048828
vt 0.809082031 1.00048828
vt 0.809082031 -0.00048828125
vt 0.785644531 -0.00048828125
vt 0.785644531 1.00048828
vt 0.785644531 1.00048828
vt 0.785644531 -0.00048828125
vt 0.762207031 -0.00048828125
vt 0.762207031 1.00048828
vt 0.762207031 1.00048828
vt 0.762207031 -0.00048828125
vt 0.737792969 -0.00048828125
vt 0.737792969 1.00048828
vt 0.737792969 1.00048828
vt 0.737792969 -0.00048828125
vt 0.714355469 -0.00048828125
vt 0.714355469 1.00048828
vt 0.714355469 1.00048828
vt 0.714355469 -0.00048828125
vt 0.690917969 -0.00048828125
vt 0.690917969 1.00048828
vt 0.690917969 1.00048828
vt 0.690917969 -0.00048828125
vt 0.666503906 -0.00048828125
vt 0.666503906 1.00048828
vt 0.666503906 1.00048828
vt 0.666503906 -0.00048828125
vt 0.643066406 -0.00048828125
vt 0.643066406 1.00048828
vt 0.643066406 1.00048828
vt 0.643066406 -0.00048828125
vt 0.618652344 -0.00048828125
vt 0.618652344 1.00048828
vt 0.618652344 1.00048828
vt 0.618652344 -0.00048828125
vt 0.595214844 -0.00048828125
vt 0.595214844 1.00048828
vt 0.595214844 -0.00048828125
vt 0.571777344 -0.00048828125
vt 0.571777344 1.00048828
vn -0 0 1
vn -0 0 1
vn -0 0 1
vn -0 0 1
vn -0 0 1
vn -0 0 1
vn -0 0 1
vn -0 0 1
vn -0 0 1
vn -0 0 1
vn -0 0 1
vn -0 0 1
vn -0 0 1
vn -0 0 1
vn -0 0 1
vn -0 0 1
vn -0 0 1
vn -0 0 1
vn -0 0 1
vn -0 0 1
vn -0 0 1
vn -0 0 1
vn -0 0 1
vn -0 0 1
vn -0 0 1
vn -0 0 1
vn -0 0 1
vn -0 0 1
vn -0 0 1
vn -0 0 1
vn -0 0 1
vn -0 0 1
vn -0 0 1
vn -0 0 1
vn -0 0 1
vn -0 0 1
vn -0 0 1
vn -0 0 1
vn -0 0 1
vn -0 0 1
vn -0 0 1
vn -0 0 1
vn -0 0 1
vn -0 0 1
vn -0 0 1
vn -0 0 1
vn -0 0 1
vn -0 0 1
vn -0 0 1
vn -0 0 1
vn -0 0 1
vn -0 0 1
vn -0 0 1
vn -0 0 1
vn -0 0 1
vn -0 0 1
vn -0 0 1
vn -0 0 1
vn -0 0 1
vn -0 0 1
vn -0 0 1
vn -0 0 1
vn -0 0 1
vn -0 0 1
vn -0 0 1
vn -0 0 1
vn -0 0 1
vn -0 0 1
vn -0 0 1
vn -0 0 1
vn -0 0 1
vn -0 0 1
vn -0 0 1
vn -0 0 1
vn -0 0 1
vn -0 0 1
vn -0 0 1
vn -0 0 1
vn -0 0 1
vn -0 0 1
vn -0 0 1
vn -0 0 1
vn -0 0 1
vn -0 0 1
vn -0 0 1
vn -0 0 1
vn -0 0 1
vn -0 0 1
vn -0 0 1
vn -0 0 1
vn -0 0 1
vn -0 0 1
vn -0 0 1
vn -0 0 1
vn -0 0 1
vn -0 0 1
vn -0 0 1
vn -0 0 1
vn -0 0 1
vn -0 0 1
vn -0 0 1
vn -0 0 1
vn -0 0 1
vn -0 0 1
vn -0 0 1
vn -0 0 1
vn -0 0 1
vn -0 0 1
vn -0 0 1
vn -0 0 1
vn -0 0 1
vn -0 0 1
vn -0 0 1
vn -0 0 1
vn -0 0 1
vn -0 0 1
vn -0 0 1
vn -0 0 1
vn -0 0 1
g general_plane_56_0
f 3/3/3 2/2/2 1/1/1
f 2/2/2 4/4/4 1/1/1
f 1/1/1 4/4/4 5/5/5
f 4/4/4 6/6/6 5/5/5
f 5/5/5 6/6/6 7/7/7
f 6/6/6 8/8/8 7/7/7
f 7/7/7 8/8/8 9/9/9
f 8/8/8 10/10/10 9/9/9
f 9/9/9 10/10/10 11/11/11
f 10/10/10 12/12/12 11/11/11
f 11/11/11 12/12/12 13/13/13
f 12/12/12 14/14/14 13/13/13
f 13/13/13 14/14/14 15/15/15
f 14/14/14 16/16/16 15/15/15
f 15/15/15 16/16/16 17/17/17
f 16/16/16 18/18/18 17/17/17
f 17/17/17 18/18/18 19/19/19
f 18/18/18 20/20/20 19/19/19
f 19/19/19 20/20/20 21/21/21
f 20/20/20 22/22/22 21/21/21
f 21/21/21 22/22/22 23/23/23
f 22/22/22 24/24/24 23/23/23
f 23/23/23 24/24/24 25/25/25
f 24/24/24 26/26/26 25/25/25
f 25/25/25 26/26/26 27/27/27
f 26/26/26 28/28/28 27/27/27
f 27/27/27 28/28/28 29/29/29
f 28/28/28 30/30/30 29/29/29
f 29/29/29 30/30/30 31/31/31
f 30/30/30 32/32/32 31/31/31
f 31/31/31 32/32/32 33/33/33
f 32/32/32 34/34/34 33/33/33
f 33/33/33 34/34/34 35/35/35
f 34/34/34 36/36/36 35/35/35
f 35/35/35 36/36/36 37/37/37
f 36/36/36 38/38/38 37/37/37
f 37/37/37 38/38/38 39/39/39
f 38/38/38 40/40/40 39/39/39
f 39/39/39 40/40/40 41/41/41
f 40/40/40 42/42/42 41/41/41
f 41/41/41 42/42/42 43/43/43
f 42/42/42 44/44/44 43/43/43
f 43/43/43 44/44/44 45/45/45
f 44/44/44 46/46/46 45/45/45
f 45/45/45 48/48/48 47/47/47
f 48/48/48 49/49/49 47/47/47
f 47/47/47 51/51/51 50/50/50
f 51/51/51 52/52/52 50/50/50
f 55/55/55 54/54/54 53/53/53
f 56/56/56 55/55/55 53/53/53
f 57/57/57 55/55/55 56/56/56
f 58/58/58 57/57/57 56/56/56
f 59/59/59 57/57/57 58/58/58
f 60/60/60 59/59/59 58/58/58
f 63/63/63 62/62/62 61/61/61
f 64/64/64 63/63/63 61/61/61
f 67/67/67 66/66/66 65/65/65
f 68/68/68 67/67/67 65/65/65
f 71/71/71 70/70/70 69/69/69
f 72/72/72 71/71/71 69/69/69
f 75/75/75 74/74/74 73/73/73
f 76/76/76 75/75/75 73/73/73
f 79/79/79 78/78/78 77/77/77
f 80/80/80 79/79/79 77/77/77
f 83/83/83 82/82/82 81/81/81
f 84/84/84 83/83/83 81/81/81
f 87/87/87 86/86/86 85/85/85
f 88/88/88 87/87/87 85/85/85
f 91/91/91 90/90/90 89/89/89
f 92/92/92 91/91/91 89/89/89
f 95/95/95 94/94/94 93/93/93
f 96/96/96 95/95/95 93/93/93
f 99/99/99 98/98/98 97/97/97
f 100/100/100 99/99/99 97/97/97
f 103/103/103 102/102/102 101/101/101
f 104/104/104 103/103/103 101/101/101
f 107/107/107 106/106/106 105/105/105
f 108/108/108 107/107/107 105/105/105
f 111/111/111 110/110/110 109/109/109
f 112/112/112 111/111/111 109/109/109
f 115/115/115 114/114/114 113/113/113
f 116/116/116 115/115/115 113/113/113
f 118/118/118 117/117/117 116/116/116
f 119/119/119 118/118/118 116/116/116
