g Cone001
v 0.116529122 0.434892416 -0.240157485
v 3.81469718E-08 0.370721042 -0.202232376
v 3.81469718E-08 0.450233817 -0.240157485
v 0.0959496275 0.358088911 -0.202232376
v 0.225116953 0.389913946 -0.240157485
v 3.81469718E-08 0.310301155 -0.159074172
v 0.185360491 0.321053773 -0.202232361
v 0.0803118125 0.299727857 -0.159074172
v -0 0.265118182 -0.110682905
v 0.155150518 0.268728644 -0.159074172
v 0.068617627 0.256084621 -0.110682905
v -3.81469718E-08 0.231316701 -0.0570585802
v 0.132559091 0.229599163 -0.110682882
v 0.0598691925 0.223434761 -0.0570585802
v -0 0.205040604 0.00179887773
v 0.115658298 0.200326025 -0.0570585802
v 0.053068351 0.198053986 0.00179887773
v 0.102520294 0.177570358 0.00179887773
v 0.116528891 -0.434892505 -0.240157485
v 0.185360372 -0.321053892 -0.202232376
v 0.22511673 -0.389914036 -0.240157485
v 0.0959494784 -0.35808897 -0.202232376
v -2.28881831E-07 -0.450233817 -0.240157485
v 0.155150414 -0.268728703 -0.159074172
v -1.90734852E-07 -0.370720983 -0.202232361
v -0.116529234 -0.434892416 -0.240157485
v 0.080311656 -0.299727857 -0.159074172
v 0.132558852 -0.229599163 -0.110682897
v -0.0959497839 -0.35808894 -0.202232361
v -0.225117072 -0.389913857 -0.240157485
v -1.14440915E-07 -0.310301065 -0.159074172
v 0.0686173961 -0.256084561 -0.110682912
v 0.115658186 -0.200326145 -0.0570585616
v -0.185360521 -0.321053714 -0.202232361
v -0.318363577 -0.31836319 -0.240157485
v -0.0803119615 -0.299727768 -0.159074157
v -1.52587887E-07 -0.265118152 -0.110682897
v 0.0598689243 -0.223434716 -0.0570585616
v 0.102520175 -0.177570313 0.00179887773
v 0.0530683137 -0.198053941 0.0017988967
v -1.90734852E-07 -0.231316656 -0.0570585802
v -1.14440915E-07 -0.205040544 0.00179885863
v -0.26213944 -0.262139171 -0.202232361
v -0.389914036 -0.225116655 -0.240157485
v -0.155150682 -0.268728584 -0.159074172
v -0.0686177835 -0.256084442 -0.110682897
v -0.0598692708 -0.223434672 -0.0570585616
v -0.0530685037 -0.198053941 0.00179885863
v -0.321053892 -0.185360312 -0.202232361
v -0.434892505 -0.116528839 -0.240157485
v -0.219416142 -0.219415843 -0.159074172
v -0.132559165 -0.229599044 -0.110682882
v -0.115658492 -0.20032604 -0.0570585988
v -0.102520332 -0.177570269 0.00179887773
v -0.35808897 -0.0959494263 -0.202232361
v -0.450233817 1.6313939E-07 -0.240157485
v -0.268728733 -0.155150473 -0.159074172
v -0.187467039 -0.187466785 -0.110682897
v -0.163565695 -0.163565531 -0.0570585802
v -0.144985616 -0.144985437 0.00179885863
v -0.370720983 1.24992411E-07 -0.202232376
v -0.434892446 0.116529167 -0.240157485
v -0.299727887 -0.0803116485 -0.159074157
v -0.229599148 -0.132558987 -0.110682882
v -0.200326174 -0.115658216 -0.0570585616
v -0.177570343 -0.102520131 0.0017988967
v -0.35808894 0.0959497169 -0.202232376
v -0.389913857 0.225117043 -0.240157485
v -0.310301095 1.6313939E-07 -0.159074172
v -0.256084561 -0.0686175823 -0.110682882
v -0.223434806 -0.0598691441 -0.0570586175
v -0.198053986 -0.0530682653 0.00179887773
v -0.321053773 0.185360536 -0.202232376
v -0.318363309 0.318363518 -0.240157485
v -0.299727827 0.0803119764 -0.159074172
v -0.265118182 1.24992411E-07 -0.110682927
v -0.231316656 1.24992411E-07 -0.0570585616
v -0.205040559 4.86984746E-08 0.00179885863
v -0.262139261 0.262139529 -0.202232361
v -0.225116864 0.389913946 -0.240157485
v -0.268728644 0.155150577 -0.159074172
v -0.256084502 0.0686176792 -0.110682905
v -0.223434731 0.0598691627 -0.0570585616
v -0.198053971 0.0530684739 0.00179885863
v -0.185360447 0.321053922 -0.202232361
v -0.116529077 0.434892416 -0.240157485
v -0.219415978 0.219416067 -0.159074172
v -0.229599088 0.132559091 -0.110682897
v -0.200326055 0.11565835 -0.0570585616
v -0.177570283 0.102520302 0.00179885863
v -0.0959496275 0.358088911 -0.202232361
v 3.81469718E-08 0.450233817 -0.240157485
v 3.81469718E-08 0.370721042 -0.202232376
v -0.155150563 0.268728733 -0.159074172
v -0.18746683 0.187466934 -0.110682897
v -0.163565561 0.163565725 -0.0570585802
v -0.144985482 0.144985735 0.00179887773
v -0.0803118497 0.299727947 -0.159074157
v 3.81469718E-08 0.310301155 -0.159074172
v -0.132559121 0.229599163 -0.110682875
v -0.115658298 0.2003261 -0.0570585616
v -0.102520213 0.177570432 0.00179885863
v -0.068617627 0.256084442 -0.110682882
v -0 0.265118182 -0.110682905
v -0.059869118 0.223434761 -0.0570585616
v -0.053068351 0.19805406 0.0017988967
v -3.81469718E-08 0.231316701 -0.0570585802
v -0 0.205040604 0.00179887773
vt 0.0416665375 0.999999881
vt -7.4307394E-08 0.799999893
vt -8.94069743E-08 0.999999881
vt 0.0416665524 0.799999893
vt 0.0833331645 0.999999881
vt 3.96831012E-10 0.599999905
vt 0.0833331794 0.799999893
vt 0.0416666269 0.599999905
vt 1.54964113E-08 0.399999857
vt 0.0833332539 0.599999905
vt 0.0416666418 0.399999857
vt 3.05959844E-08 0.199999928
vt 0.0833332688 0.399999857
vt 0.0416666567 0.199999928
vt 4.56955718E-08 -1.78813934E-07
vt 0.0833332837 0.199999928
vt 0.0416666716 -1.78813934E-07
vt 0.0833332986 -1.78813934E-07
vt 0.458333284 0.99999994
vt 0.416666627 0.799999952
vt 0.416666597 0.99999994
vt 0.458333313 0.799999952
vt 0.49999994 0.99999994
vt 0.416666687 0.599999964
vt 0.49999997 0.799999952
vt 0.541666627 0.99999994
vt 0.458333373 0.599999964
vt 0.416666716 0.399999917
vt 0.541666627 0.799999952
vt 0.583333254 0.99999994
vt 0.5 0.599999964
vt 0.458333403 0.399999917
vt 0.416666716 0.199999988
vt 0.583333254 0.799999952
vt 0.625 0.99999994
vt 0.541666627 0.599999964
vt 0.5 0.399999917
vt 0.458333403 0.199999988
vt 0.416666746 0
vt 0.458333433 0
vt 0.5 0.199999988
vt 0.500000119 0
vt 0.625 0.799999952
vt 0.666666627 0.99999994
vt 0.583333373 0.599999964
vt 0.541666746 0.399999917
vt 0.541666746 0.199999988
vt 0.541666746 0
vt 0.666666627 0.799999952
vt 0.708333254 1
vt 0.625 0.600000024
vt 0.583333373 0.399999917
vt 0.583333373 0.199999988
vt 0.583333373 0
vt 0.708333254 0.800000012
vt 0.749999881 1
vt 0.666666627 0.600000024
vt 0.625 0.399999976
vt 0.625 0.200000048
vt 0.625000119 0
vt 0.749999881 0.800000012
vt 0.791666508 1
vt 0.708333373 0.600000024
vt 0.666666746 0.399999976
vt 0.666666746 0.200000048
vt 0.666666746 0
vt 0.791666627 0.800000012
vt 0.833333254 1
vt 0.75 0.600000024
vt 0.708333373 0.399999976
vt 0.708333373 0.200000048
vt 0.708333373 0
vt 0.833333254 0.800000012
vt 0.874999881 1
vt 0.791666627 0.600000024
vt 0.75 0.399999976
vt 0.75 0.200000048
vt 0.75 0
vt 0.874999881 0.800000012
vt 0.916666508 1
vt 0.833333254 0.600000024
vt 0.791666627 0.399999976
vt 0.791666627 0.200000048
vt 0.791666746 0
vt 0.916666508 0.800000012
vt 0.958333254 1
vt 0.875 0.600000024
vt 0.833333373 0.399999976
vt 0.833333373 0.200000048
vt 0.833333373 0
vt 0.958333254 0.800000012
vt 0.999999881 1
vt 0.999999881 0.800000012
vt 0.916666627 0.600000024
vt 0.875 0.399999976
vt 0.875 0.200000048
vt 0.875 0
vt 0.958333254 0.600000024
vt 1 0.600000024
vt 0.916666627 0.399999976
vt 0.916666627 0.200000048
vt 0.916666627 0
vt 0.958333254 0.399999976
vt 1 0.399999976
vt 0.958333254 0.200000048
vt 0.958333373 0
vt 1.00000012 0.200000048
vt 1.00000012 0
vn 0.111423209 0.415836662 0.902587712
vn 1.32524534E-07 0.502378345 0.864647985
vn -0 0.430506021 0.902587652
vn 0.130025208 0.485260248 0.864647865
vn 0.215252772 0.37282899 0.902587831
vn 4.24688494E-07 0.654625773 0.755953074
vn 0.251189023 0.435072213 0.864647985
vn 0.169429719 0.632320642 0.755952537
vn -5.4147921E-07 0.78900677 0.614384592
vn 0.327313453 0.566922784 0.755952597
vn 0.204209551 0.762122035 0.614384532
vn -2.01197466E-07 0.880456567 0.474126935
vn 0.394503593 0.683299363 0.614384949
vn 0.227879584 0.850454986 0.474127799
vn 5.96075324E-07 0.91313529 0.407656699
vn 0.440228701 0.762497067 0.474127501
vn 0.236337379 0.882020831 0.40765661
vn 0.456567794 0.790798962 0.407655418
vn 0.111422934 -0.415836841 0.902587712
vn 0.251188874 -0.435072362 0.864647985
vn 0.215252683 -0.372829139 0.902587831
vn 0.130024791 -0.485260308 0.864647985
vn -1.8621536E-07 -0.430505812 0.902587831
vn 0.327312499 -0.566923082 0.755952954
vn -1.46192946E-07 -0.502378106 0.864647985
vn -0.111423254 -0.415836781 0.902587712
vn 0.169429362 -0.632320404 0.755952716
vn 0.394502193 -0.683300257 0.61438483
vn -0.130025208 -0.48526001 0.864647985
vn -0.215253115 -0.372828841 0.902587831
vn -1.74871744E-07 -0.654626071 0.755952835
vn 0.204209238 -0.762121856 0.61438489
vn 0.440227211 -0.7624982 0.474127144
vn -0.251189291 -0.435072303 0.864647865
vn -0.304413736 -0.304413438 0.902587712
vn -0.169429913 -0.632320285 0.755952835
vn -3.9391125E-07 -0.789006531 0.614384711
vn 0.227878213 -0.850455642 0.474127263
vn 0.456566632 -0.790798903 0.407656848
vn 0.236337066 -0.88202107 0.407656312
vn -3.34535372E-07 -0.880456448 0.474127024
vn -2.58761332E-07 -0.913135231 0.407656759
vn -0.355235219 -0.355234981 0.864647985
vn -0.372829258 -0.215252727 0.902587712
vn -0.327313364 -0.566922784 0.755952716
vn -0.204210192 -0.762121797 0.614384711
vn -0.227879241 -0.850455463 0.474126995
vn -0.236337125 -0.882020891 0.40765664
vn -0.435072571 -0.251188934 0.864647865
vn -0.4158369 -0.111422993 0.902587712
vn -0.462890834 -0.462890625 0.755952597
vn -0.394503325 -0.683299839 0.614384592
vn -0.440228373 -0.762497425 0.474127322
vn -0.456568062 -0.790797651 0.407657564
vn -0.485260397 -0.13002485 0.864647865
vn -0.430505812 1.16866161E-07 0.902587712
vn -0.566922963 -0.327312857 0.755952835
vn -0.55791223 -0.557911813 0.614384651
vn -0.622576892 -0.622575939 0.474127769
vn -0.645684481 -0.645682931 0.40765813
vn -0.502378225 1.47975797E-07 0.864647985
vn -0.415836662 0.111423202 0.902587712
vn -0.632320523 -0.169429362 0.755952597
vn -0.683299959 -0.394502729 0.614384711
vn -0.762497663 -0.440227777 0.474127471
vn -0.790798068 -0.456567317 0.407657593
vn -0.485260159 0.130025178 0.864647985
vn -0.37282896 0.21525304 0.902587712
vn -0.654626071 4.33015742E-07 0.755952835
vn -0.762121975 -0.204209656 0.614384592
vn -0.850455403 -0.227878481 0.474127531
vn -0.882020712 -0.236336425 0.407657385
vn -0.435072452 0.251189113 0.864647985
vn -0.304413825 0.304413885 0.902587652
vn -0.632320225 0.169429973 0.755952835
vn -0.789006531 5.42669341E-07 0.61438483
vn -0.880456448 4.61920735E-07 0.474127024
vn -0.91313529 0 0.407656729
vn -0.35523501 0.35523501 0.864647985
vn -0.215253115 0.372829556 0.902587533
vn -0.566922724 0.327313006 0.755952895
vn -0.762121797 0.204209968 0.61438477
vn -0.850455463 0.227879182 0.474127144
vn -0.882020831 0.236337349 0.407656789
vn -0.251188815 0.435072571 0.864647985
vn -0.111423045 0.4158369 0.902587712
vn -0.462890565 0.462890297 0.755953014
vn -0.68329972 0.394503355 0.61438483
vn -0.762497723 0.440228075 0.474127084
vn -0.790798366 0.456567496 0.407656908
vn -0.130025089 0.485260606 0.864647686
vn -0 0.430506021 0.902587652
vn 1.32524534E-07 0.502378345 0.864647985
vn -0.327313215 0.566922784 0.755952716
vn -0.55791235 0.557911694 0.614384472
vn -0.622576833 0.622576714 0.474127144
vn -0.645684004 0.645684242 0.407656848
vn -0.169429466 0.632320166 0.755952954
vn 4.24688494E-07 0.654625773 0.755953074
vn -0.394502759 0.683299661 0.614385188
vn -0.440227509 0.762498021 0.474127233
vn -0.456567436 0.790798903 0.407655954
vn -0.204209358 0.762121618 0.614385128
vn -5.4147921E-07 0.78900677 0.614384592
vn -0.227879286 0.85045594 0.474126309
vn -0.236336678 0.882021189 0.407656133
vn -2.01197466E-07 0.880456567 0.474126935
vn 5.96075324E-07 0.91313529 0.407656699
g Cone001_0
f 3/3/3 2/2/2 1/1/1
f 2/2/2 4/4/4 1/1/1
f 1/1/1 4/4/4 5/5/5
f 2/2/2 6/6/6 4/4/4
f 4/4/4 7/7/7 5/5/5
f 6/6/6 8/8/8 4/4/4
f 4/4/4 8/8/8 7/7/7
f 6/6/6 9/9/9 8/8/8
f 8/8/8 10/10/10 7/7/7
f 9/9/9 11/11/11 8/8/8
f 8/8/8 11/11/11 10/10/10
f 9/9/9 12/12/12 11/11/11
f 11/11/11 13/13/13 10/10/10
f 12/12/12 14/14/14 11/11/11
f 11/11/11 14/14/14 13/13/13
f 12/12/12 15/15/15 14/14/14
f 14/14/14 16/16/16 13/13/13
f 15/15/15 17/17/17 14/14/14
f 14/14/14 17/17/17 16/16/16
f 17/17/17 18/18/18 16/16/16
f 21/21/21 20/20/20 19/19/19
f 20/20/20 22/22/22 19/19/19
f 19/19/19 22/22/22 23/23/23
f 20/20/20 24/24/24 22/22/22
f 22/22/22 25/25/25 23/23/23
f 23/23/23 25/25/25 26/26/26
f 24/24/24 27/27/27 22/22/22
f 22/22/22 27/27/27 25/25/25
f 24/24/24 28/28/28 27/27/27
f 25/25/25 29/29/29 26/26/26
f 26/26/26 29/29/29 30/30/30
f 27/27/27 31/31/31 25/25/25
f 25/25/25 31/31/31 29/29/29
f 28/28/28 32/32/32 27/27/27
f 27/27/27 32/32/32 31/31/31
f 28/28/28 33/33/33 32/32/32
f 29/29/29 34/34/34 30/30/30
f 30/30/30 34/34/34 35/35/35
f 31/31/31 36/36/36 29/29/29
f 29/29/29 36/36/36 34/34/34
f 32/32/32 37/37/37 31/31/31
f 31/31/31 37/37/37 36/36/36
f 33/33/33 38/38/38 32/32/32
f 32/32/32 38/38/38 37/37/37
f 33/33/33 39/39/39 38/38/38
f 39/39/39 40/40/40 38/38/38
f 38/38/38 40/40/40 41/41/41
f 38/38/38 41/41/41 37/37/37
f 40/40/40 42/42/42 41/41/41
f 34/34/34 43/43/43 35/35/35
f 35/35/35 43/43/43 44/44/44
f 36/36/36 45/45/45 34/34/34
f 34/34/34 45/45/45 43/43/43
f 37/37/37 46/46/46 36/36/36
f 37/37/37 41/41/41 46/46/46
f 36/36/36 46/46/46 45/45/45
f 41/41/41 42/42/42 47/47/47
f 41/41/41 47/47/47 46/46/46
f 42/42/42 48/48/48 47/47/47
f 43/43/43 49/49/49 44/44/44
f 44/44/44 49/49/49 50/50/50
f 45/45/45 51/51/51 43/43/43
f 43/43/43 51/51/51 49/49/49
f 46/46/46 52/52/52 45/45/45
f 46/46/46 47/47/47 52/52/52
f 45/45/45 52/52/52 51/51/51
f 47/47/47 48/48/48 53/53/53
f 47/47/47 53/53/53 52/52/52
f 48/48/48 54/54/54 53/53/53
f 49/49/49 55/55/55 50/50/50
f 50/50/50 55/55/55 56/56/56
f 51/51/51 57/57/57 49/49/49
f 49/49/49 57/57/57 55/55/55
f 52/52/52 58/58/58 51/51/51
f 52/52/52 53/53/53 58/58/58
f 51/51/51 58/58/58 57/57/57
f 53/53/53 54/54/54 59/59/59
f 53/53/53 59/59/59 58/58/58
f 54/54/54 60/60/60 59/59/59
f 55/55/55 61/61/61 56/56/56
f 56/56/56 61/61/61 62/62/62
f 57/57/57 63/63/63 55/55/55
f 55/55/55 63/63/63 61/61/61
f 58/58/58 64/64/64 57/57/57
f 58/58/58 59/59/59 64/64/64
f 57/57/57 64/64/64 63/63/63
f 59/59/59 60/60/60 65/65/65
f 59/59/59 65/65/65 64/64/64
f 60/60/60 66/66/66 65/65/65
f 61/61/61 67/67/67 62/62/62
f 62/62/62 67/67/67 68/68/68
f 63/63/63 69/69/69 61/61/61
f 61/61/61 69/69/69 67/67/67
f 64/64/64 70/70/70 63/63/63
f 64/64/64 65/65/65 70/70/70
f 63/63/63 70/70/70 69/69/69
f 65/65/65 66/66/66 71/71/71
f 65/65/65 71/71/71 70/70/70
f 66/66/66 72/72/72 71/71/71
f 67/67/67 73/73/73 68/68/68
f 68/68/68 73/73/73 74/74/74
f 69/69/69 75/75/75 67/67/67
f 67/67/67 75/75/75 73/73/73
f 70/70/70 76/76/76 69/69/69
f 70/70/70 71/71/71 76/76/76
f 69/69/69 76/76/76 75/75/75
f 71/71/71 72/72/72 77/77/77
f 71/71/71 77/77/77 76/76/76
f 72/72/72 78/78/78 77/77/77
f 73/73/73 79/79/79 74/74/74
f 74/74/74 79/79/79 80/80/80
f 75/75/75 81/81/81 73/73/73
f 73/73/73 81/81/81 79/79/79
f 76/76/76 82/82/82 75/75/75
f 76/76/76 77/77/77 82/82/82
f 75/75/75 82/82/82 81/81/81
f 77/77/77 78/78/78 83/83/83
f 77/77/77 83/83/83 82/82/82
f 78/78/78 84/84/84 83/83/83
f 79/79/79 85/85/85 80/80/80
f 80/80/80 85/85/85 86/86/86
f 81/81/81 87/87/87 79/79/79
f 79/79/79 87/87/87 85/85/85
f 82/82/82 88/88/88 81/81/81
f 82/82/82 83/83/83 88/88/88
f 81/81/81 88/88/88 87/87/87
f 83/83/83 84/84/84 89/89/89
f 83/83/83 89/89/89 88/88/88
f 84/84/84 90/90/90 89/89/89
f 85/85/85 91/91/91 86/86/86
f 86/86/86 91/91/91 92/92/92
f 91/91/91 93/93/93 92/92/92
f 87/87/87 94/94/94 85/85/85
f 85/85/85 94/94/94 91/91/91
f 88/88/88 95/95/95 87/87/87
f 88/88/88 89/89/89 95/95/95
f 87/87/87 95/95/95 94/94/94
f 89/89/89 90/90/90 96/96/96
f 89/89/89 96/96/96 95/95/95
f 90/90/90 97/97/97 96/96/96
f 91/91/91 98/98/98 93/93/93
f 94/94/94 98/98/98 91/91/91
f 98/98/98 99/99/99 93/93/93
f 95/95/95 100/100/100 94/94/94
f 95/95/95 96/96/96 100/100/100
f 94/94/94 100/100/100 98/98/98
f 96/96/96 97/97/97 101/101/101
f 96/96/96 101/101/101 100/100/100
f 97/97/97 102/102/102 101/101/101
f 98/98/98 103/103/103 99/99/99
f 100/100/100 103/103/103 98/98/98
f 100/100/100 101/101/101 103/103/103
f 103/103/103 104/104/104 99/99/99
f 101/101/101 102/102/102 105/105/105
f 101/101/101 105/105/105 103/103/103
f 103/103/103 105/105/105 104/104/104
f 102/102/102 106/106/106 105/105/105
f 105/105/105 107/107/107 104/104/104
f 105/105/105 106/106/106 107/107/107
f 106/106/106 108/108/108 107/107/107
