g Plane001
v 0.126164705 -0.127000004 0.889006078
v 0.00223686686 0.126999974 0.773577273
v -0.00325841294 0.127000004 0.773303449
v -0.127367705 -0.127000004 0.888691187
v -0.127367705 -0.127000004 0.888691187
v -0.00325841294 0.127000004 0.773303449
v -0.00326766632 0.127000004 0.515606523
v -0.127794445 -0.127000019 0.634621501
v -0.127794445 -0.127000019 0.634621501
v -0.00326766632 0.127000004 0.515606523
v -0.259750605 0.127000019 0.51608485
v -0.381009907 -0.127000004 0.635210514
v -0.381009907 -0.127000004 0.635210514
v -0.259750605 0.127000019 0.51608485
v -0.260221213 0.126999974 0.25445345
v -0.381700486 -0.127000004 0.380905718
v -0.381700486 -0.127000004 0.380905718
v -0.260221213 0.126999974 0.25445345
v -0.507468998 0.127000004 0.254377782
v -0.635486186 -0.126999974 0.38079226
v -0.635486186 -0.126999974 0.38079226
v -0.507468998 0.127000004 0.254377782
v -0.507433951 0.127000049 0.00082620926
v -0.635442317 -0.12699993 0.126817644
v -0.635442317 -0.12699993 0.126817644
v -0.507433951 0.127000049 0.00082620926
v -0.764094353 0.127000004 0.000828825345
v -0.889704287 -0.126999974 0.127046406
v -0.889704287 -0.126999974 0.127046406
v -0.764094353 0.127000004 0.000828825345
v -0.763645113 0.127000004 -0.00213843537
v -0.889181077 -0.127000019 -0.128457129
v -0.889181077 -0.127000019 -0.128457129
v -0.763645113 0.127000004 -0.00213843537
v -0.507555962 0.127000019 -0.00214434578
v -0.635595083 -0.127000004 -0.12896809
v -0.635595083 -0.127000004 -0.12896809
v -0.507555962 0.127000019 -0.00214434578
v -0.507487416 0.127000004 -0.255223185
v -0.635509193 -0.127000019 -0.381947815
v -0.635509193 -0.127000019 -0.381947815
v -0.507487416 0.127000004 -0.255223185
v -0.259305865 0.127000004 -0.255004823
v -0.380356997 -0.127000019 -0.381621093
v -0.380356997 -0.127000019 -0.381621093
v -0.259305865 0.127000004 -0.255004823
v -0.259247541 0.127000004 -0.516036212
v -0.380271584 -0.127000019 -0.635009408
v -0.380271584 -0.127000019 -0.635009408
v -0.259247541 0.127000004 -0.516036212
v -0.0032278432 0.127000019 -0.514953136
v -0.125957444 -0.127000049 -0.633676529
v -0.125957444 -0.127000049 -0.633676529
v -0.0032278432 0.127000019 -0.514953136
v -0.00326125929 0.126999974 -0.773773611
v -0.127498925 -0.127000049 -0.889213264
v -0.127498925 -0.127000049 -0.889213264
v -0.00326125929 0.126999974 -0.773773611
v 0.00224415795 0.126999974 -0.773773611
v 0.126501068 -0.127000049 -0.889213264
v 0.126501068 -0.127000049 -0.889213264
v 0.00224415795 0.126999974 -0.773773611
v 0.00223680632 0.127000019 -0.51494503
v 0.126161754 -0.127000049 -0.633666456
v 0.126161754 -0.127000049 -0.633666456
v 0.00223680632 0.127000019 -0.51494503
v 0.258861631 0.127000019 -0.51494503
v 0.380161732 -0.127000049 -0.633666456
v 0.380161732 -0.127000049 -0.633666456
v 0.258861631 0.127000019 -0.51494503
v 0.258674443 0.126999974 -0.254738629
v 0.379886955 -0.127000049 -0.381222516
v 0.379886955 -0.127000049 -0.381222516
v 0.258674443 0.126999974 -0.254738629
v 0.505983055 0.126999974 -0.254738629
v 0.633886993 -0.127000049 -0.381222516
v 0.633886993 -0.127000049 -0.381222516
v 0.505983055 0.126999974 -0.254738629
v 0.505652249 0.127000004 -0.00213000551
v 0.633472443 -0.127000049 -0.12773329
v 0.633472443 -0.127000049 -0.12773329
v 0.505652249 0.127000004 -0.00213000551
v 0.763843 0.127000004 -0.00213194359
v 0.889704287 -0.127000049 -0.127899364
v 0.889704287 -0.127000049 -0.127899364
v 0.763843 0.127000004 -0.00213194359
v 0.76362741 0.12699993 0.000825821655
v 0.889453232 -0.127000049 0.126786739
v 0.889453232 -0.127000049 0.126786739
v 0.76362741 0.12699993 0.000825821655
v 0.50621444 0.1269999 0.000814582047
v 0.634176672 -0.127000079 0.125816733
v 0.634176672 -0.127000079 0.125816733
v 0.50621444 0.1269999 0.000814582047
v 0.503845394 0.1269999 0.255314171
v 0.631209552 -0.127000079 0.382194012
v 0.631209552 -0.127000079 0.382194012
v 0.503845394 0.1269999 0.255314171
v 0.259260178 0.12699993 0.254751682
v 0.380746603 -0.127000049 0.381351709
v 0.380746603 -0.127000049 0.381351709
v 0.259260178 0.12699993 0.254751682
v 0.258639961 0.127000004 0.516503155
v 0.37983638 -0.127000019 0.635725141
v 0.37983638 -0.127000019 0.635725141
v 0.258639961 0.127000004 0.516503155
v 0.00222975737 0.127000004 0.516161025
v 0.125836432 -0.127000019 0.635304034
v 0.125836432 -0.127000019 0.635304034
v 0.00222975737 0.127000004 0.516161025
v 0.00223686686 0.126999974 0.773577273
v 0.126164705 -0.127000004 0.889006078
vt 0 0
vt 0 1
vt 0.0357142873 1
vt 0.0357142873 0
vt 0.0357142873 0
vt 0.0357142873 1
vt 0.0714285746 1
vt 0.0714285746 0
vt 0.0714285746 0
vt 0.0714285746 1
vt 0.107142866 1
vt 0.107142866 0
vt 0.107142866 0
vt 0.107142866 1
vt 0.142857149 1
vt 0.142857149 0
vt 0.142857149 0
vt 0.142857149 1
vt 0.178571433 1
vt 0.178571433 0
vt 0.178571433 0
vt 0.178571433 1
vt 0.214285716 1
vt 0.214285716 0
vt 0.214285716 0
vt 0.214285716 1
vt 0.25 1
vt 0.25 0
vt 0.25 0
vt 0.25 1
vt 0.285714298 1
vt 0.285714298 0
vt 0.285714298 0
vt 0.285714298 1
vt 0.321428597 1
vt 0.321428597 0
vt 0.321428597 0
vt 0.321428597 1
vt 0.357142895 1
vt 0.357142895 0
vt 0.357142895 0
vt 0.357142895 1
vt 0.392857194 1
vt 0.392857194 0
vt 0.392857194 0
vt 0.392857194 1
vt 0.428571492 1
vt 0.428571492 0
vt 0.428571492 0
vt 0.428571492 1
vt 0.464285791 1
vt 0.464285791 0
vt 0.464285791 0
vt 0.464285791 1
vt 0.50000006 1
vt 0.50000006 0
vt 0.50000006 0
vt 0.50000006 1
vt 0.535714328 1
vt 0.535714328 0
vt 0.535714328 0
vt 0.535714328 1
vt 0.571428597 1
vt 0.571428597 0
vt 0.571428597 0
vt 0.571428597 1
vt 0.607142866 1
vt 0.607142866 0
vt 0.607142866 0
vt 0.607142866 1
vt 0.642857134 1
vt 0.642857134 0
vt 0.642857134 0
vt 0.642857134 1
vt 0.678571403 1
vt 0.678571403 0
vt 0.678571403 0
vt 0.678571403 1
vt 0.714285672 1
vt 0.714285672 0
vt 0.714285672 0
vt 0.714285672 1
vt 0.74999994 1
vt 0.74999994 0
vt 0.74999994 0
vt 0.74999994 1
vt 0.785714209 1
vt 0.785714209 0
vt 0.785714209 0
vt 0.785714209 1
vt 0.821428478 1
vt 0.821428478 0
vt 0.821428478 0
vt 0.821428478 1
vt 0.857142746 1
vt 0.857142746 0
vt 0.857142746 0
vt 0.857142746 1
vt 0.892857015 1
vt 0.892857015 0
vt 0.892857015 0
vt 0.892857015 1
vt 0.928571284 1
vt 0.928571284 0
vt 0.928571284 0
vt 0.928571284 1
vt 0.964285553 1
vt 0.964285553 0
vt 0.964285553 0
vt 0.964285553 1
vt 0.999999821 1
vt 0.999999821 0
vn 0.00206920388 -0.413665265 -0.910426736
vn 0.00206920388 -0.413665265 -0.910426736
vn 0.00206920365 -0.413665265 -0.910426736
vn 0.00206920388 -0.413665265 -0.910426736
vn 0.898048878 -0.439894974 -0.000765047502
vn 0.898048878 -0.439895004 -0.000765047618
vn 0.898048878 -0.439895004 -0.000765047618
vn 0.898048878 -0.439895004 -0.000765047618
vn -0.00189689838 -0.423703402 -0.905798972
vn -0.00189689838 -0.423703402 -0.905798972
vn -0.00189689861 -0.423703402 -0.905798972
vn -0.00189689838 -0.423703402 -0.905798972
vn 0.901900887 -0.431938291 -0.00202980684
vn 0.901900887 -0.43193832 -0.00202980684
vn 0.901900887 -0.431938291 -0.00202980684
vn 0.901900887 -0.431938291 -0.00202980684
vn 0.000337879726 -0.44574815 -0.895158291
vn 0.000337879726 -0.445748121 -0.895158291
vn 0.000337879785 -0.44574818 -0.895158291
vn 0.000337879785 -0.44574818 -0.895158291
vn 0.893025935 -0.450005025 0.0001388643
vn 0.893025935 -0.450005025 0.000138864285
vn 0.893025935 -0.450005025 0.0001388643
vn 0.893025935 -0.450005025 0.0001388643
vn -0.00040558094 -0.444523096 -0.895767272
vn -0.000405580911 -0.444523096 -0.895767272
vn -0.000405580911 -0.444523096 -0.895767272
vn -0.000405580911 -0.444523126 -0.895767272
vn 0.896427393 -0.443177849 0.00337242987
vn 0.896427393 -0.443177849 0.00337242987
vn 0.896427393 -0.443177849 0.00337242987
vn 0.896427393 -0.443177849 0.00337242987
vn 0.000907536887 -0.446367145 0.89484936
vn 0.000907536887 -0.446367145 0.894849479
vn 0.000907536771 -0.446367145 0.894849479
vn 0.000907536771 -0.446367145 0.894849479
vn 0.892918825 -0.450217694 0.000272474077
vn 0.892918825 -0.450217694 0.000272474077
vn 0.892918825 -0.450217754 0.000272474048
vn 0.892918825 -0.450217694 0.000272474048
vn -0.000969305926 -0.445903599 0.895080447
vn -0.000969305926 -0.445903599 0.895080447
vn -0.000969306042 -0.445903599 0.895080447
vn -0.000969306042 -0.445903599 0.895080447
vn 0.902695537 -0.430279672 0.00025217529
vn 0.902695537 -0.430279672 0.00025217529
vn 0.902695537 -0.430279672 0.00025217529
vn 0.902695537 -0.430279672 0.00025217529
vn -0.00429157354 -0.422113359 0.906532824
vn -0.00429157354 -0.422113359 0.906532824
vn -0.00429157401 -0.422113389 0.906532943
vn -0.00429157354 -0.422113359 0.906532824
vn 0.899847329 -0.436196208 -0.0027551637
vn 0.899847329 -0.436196208 -0.00275516324
vn 0.899847329 -0.436196208 -0.0027551637
vn 0.899847329 -0.436196208 -0.00275516324
vn -0 -0.413758665 0.910386622
vn -0 -0.413758725 0.910386622
vn -0 -0.413758665 0.910386622
vn -0 -0.413758695 0.910386622
vn -0.898615479 -0.438736618 -0.000605586567
vn -0.898615479 -0.438736677 -0.000605586567
vn -0.898615479 -0.438736677 -0.000605586683
vn -0.89861542 -0.438736707 -0.000605586567
vn -0 -0.423436254 0.90592587
vn -0 -0.423436224 0.90592593
vn -0 -0.423436224 0.90592593
vn -0 -0.423436254 0.90592587
vn -0.902593255 -0.430493683 -0.000813444902
vn -0.902593255 -0.430493653 -0.000813444902
vn -0.902593255 -0.430493653 -0.000813444902
vn -0.902593255 -0.430493653 -0.000813444785
vn -0 -0.445757866 0.895153522
vn -0 -0.445757776 0.895153582
vn -0 -0.445757866 0.895153522
vn -0 -0.445757866 0.895153582
vn -0.893472612 -0.449115694 -0.00131563249
vn -0.893472612 -0.449115694 -0.0013156326
vn -0.893472612 -0.449115694 -0.00131563249
vn -0.893472612 -0.449115634 -0.0013156326
vn 0.000292746903 -0.443381101 0.896333158
vn 0.000292746903 -0.443381071 0.896333158
vn 0.000292746932 -0.443381101 0.896333158
vn 0.000292746932 -0.443381101 0.896333158
vn -0.896051645 -0.443946809 -0.00162302412
vn -0.896051645 -0.443946809 -0.00162302435
vn -0.896051645 -0.443946809 -0.00162302435
vn -0.896051645 -0.443946809 -0.00162302435
vn 0.00171659712 -0.442230463 -0.896899819
vn 0.00171659712 -0.442230523 -0.896899819
vn 0.00171659712 -0.442230463 -0.896899819
vn 0.00171659724 -0.442230523 -0.896899819
vn -0.89159292 -0.45274204 -0.00931285508
vn -0.89159292 -0.45274204 -0.00931285601
vn -0.89159292 -0.452741981 -0.00931285601
vn -0.89159292 -0.452741981 -0.00931285787
vn 0.00254043378 -0.445482433 -0.895287097
vn 0.00254043355 -0.445482433 -0.895287097
vn 0.00254043331 -0.445482492 -0.895287097
vn 0.00254043331 -0.445482433 -0.895287097
vn -0.901816249 -0.432111591 -0.00267401757
vn -0.901816249 -0.432111591 -0.0026740178
vn -0.901816249 -0.432111591 -0.0026740178
vn -0.901816249 -0.432111591 -0.00267401757
vn 0.0013540911 -0.424249202 -0.90554446
vn 0.00135409099 -0.424249172 -0.90554446
vn 0.00135409099 -0.424249172 -0.90554446
vn 0.0013540911 -0.424249202 -0.90554446
vn -0.899064004 -0.437816888 0.000589953677
vn -0.899063945 -0.437816888 0.000589953619
vn -0.899064004 -0.437816888 0.000589953619
vn -0.899064004 -0.437816828 0.000589953619
g Plane001_0
f 3/3/3 2/2/2 1/1/1
f 4/4/4 3/3/3 1/1/1
f 7/7/7 6/6/6 5/5/5
f 8/8/8 7/7/7 5/5/5
f 11/11/11 10/10/10 9/9/9
f 12/12/12 11/11/11 9/9/9
f 15/15/15 14/14/14 13/13/13
f 16/16/16 15/15/15 13/13/13
f 19/19/19 18/18/18 17/17/17
f 20/20/20 19/19/19 17/17/17
f 23/23/23 22/22/22 21/21/21
f 24/24/24 23/23/23 21/21/21
f 27/27/27 26/26/26 25/25/25
f 28/28/28 27/27/27 25/25/25
f 31/31/31 30/30/30 29/29/29
f 32/32/32 31/31/31 29/29/29
f 35/35/35 34/34/34 33/33/33
f 36/36/36 35/35/35 33/33/33
f 39/39/39 38/38/38 37/37/37
f 40/40/40 39/39/39 37/37/37
f 43/43/43 42/42/42 41/41/41
f 44/44/44 43/43/43 41/41/41
f 47/47/47 46/46/46 45/45/45
f 48/48/48 47/47/47 45/45/45
f 51/51/51 50/50/50 49/49/49
f 52/52/52 51/51/51 49/49/49
f 55/55/55 54/54/54 53/53/53
f 56/56/56 55/55/55 53/53/53
f 59/59/59 58/58/58 57/57/57
f 60/60/60 59/59/59 57/57/57
f 63/63/63 62/62/62 61/61/61
f 64/64/64 63/63/63 61/61/61
f 67/67/67 66/66/66 65/65/65
f 68/68/68 67/67/67 65/65/65
f 71/71/71 70/70/70 69/69/69
f 72/72/72 71/71/71 69/69/69
f 75/75/75 74/74/74 73/73/73
f 76/76/76 75/75/75 73/73/73
f 79/79/79 78/78/78 77/77/77
f 80/80/80 79/79/79 77/77/77
f 83/83/83 82/82/82 81/81/81
f 84/84/84 83/83/83 81/81/81
f 87/87/87 86/86/86 85/85/85
f 88/88/88 87/87/87 85/85/85
f 91/91/91 90/90/90 89/89/89
f 92/92/92 91/91/91 89/89/89
f 95/95/95 94/94/94 93/93/93
f 96/96/96 95/95/95 93/93/93
f 99/99/99 98/98/98 97/97/97
f 100/100/100 99/99/99 97/97/97
f 103/103/103 102/102/102 101/101/101
f 104/104/104 103/103/103 101/101/101
f 107/107/107 106/106/106 105/105/105
f 108/108/108 107/107/107 105/105/105
f 111/111/111 110/110/110 109/109/109
f 112/112/112 111/111/111 109/109/109
