g Plane005
v 0.180210054 0.118159838 0
v -0.0534168631 0.106232904 0
v -0.0534168631 0.118159801 0
v 0.180210054 0.106232941 0
v -0.00921139866 -0.0424849652 0
v -0.0246462431 0.221794263 0
v -0.00921142846 0.221794263 0
v -0.0246462114 -0.0424849652 0
v -0.120019123 0.0745905191 0
v 0.13398087 0.0956379995 0
v 0.13398087 0.0745905191 0
v -0.120019123 0.0956379995 0
v 0.0719974786 0.127275616 0
v 0.0931400284 -0.128129989 0
v 0.0719974637 -0.128129989 0
v 0.0931400284 0.127275616 0
v -0.149533674 0.00872009527 0
v -0.0456994697 0.0276628211 0
v -0.0456994697 0.00872009527 0
v -0.149533674 0.0276628211 0
v -0.0449978895 -0.0425025411 0
v -0.12287353 -0.0537278615 0
v -0.12287353 -0.0425025299 0
v -0.0449978895 -0.0537278727 0
v -0.00921717007 -0.191915616 0
v -0.0239504147 -0.110859826 0
v -0.00921718217 -0.110859804 0
v -0.0239504036 -0.191915631 0
v -0.0141453994 -0.0536410697 0
v 0.192107365 -0.0346983522 0
v 0.192107365 -0.0536410697 0
v -0.0141453994 -0.0346983522 0
vt 0.00609990954 0
vt 0.420999438 1
vt 0.420999438 0
vt 0.00609990954 1
vt 0.478021622 0.00206079334
vt 0.756908774 1.00206077
vt 0.756908774 0.00206079334
vt 0.478021622 1.00206077
vt 0.181267366 0
vt 0.965048909 1
vt 0.965048909 0
vt 0.181267366 1
vt 0.292550206 0
vt 0.707449734 1
vt 0.707449734 0
vt 0.292550206 1
vt 0.292550206 0
vt 0.707449734 1
vt 0.707449734 0
vt 0.292550206 1
vt 0.113261163 0
vt 0.845522881 1
vt 0.845522881 0
vt 0.113261163 1
vt 0.037011832 0.00412158668
vt 0.45191136 1.00412154
vt 0.45191136 0.00412158668
vt 0.037011832 1.00412154
vt 0.581061244 0
vt 0.995960832 1
vt 0.995960832 0
vt 0.581061244 1
vn -0 0 1
vn -0 0 1
vn -0 0 1
vn -0 0 1
vn -0 0 1
vn -0 0 1
vn -0 0 1
vn -0 0 1
vn -0 0 1
vn -0 0 1
vn -0 0 1
vn -0 0 1
vn -0 0 1
vn -0 0 1
vn -0 0 1
vn -0 0 1
vn -0 0 1
vn -0 0 1
vn -0 0 1
vn -0 0 1
vn -0 0 1
vn -0 0 1
vn -0 0 1
vn -0 0 1
vn -0 0 1
vn -0 0 1
vn -0 0 1
vn -0 0 1
vn -0 0 1
vn -0 0 1
vn -0 0 1
vn -0 0 1
g Plane005_0
f 3/3/3 2/2/2 1/1/1
f 4/4/4 1/1/1 2/2/2
f 7/7/7 6/6/6 5/5/5
f 8/8/8 5/5/5 6/6/6
f 11/11/11 10/10/10 9/9/9
f 12/12/12 9/9/9 10/10/10
f 15/15/15 14/14/14 13/13/13
f 16/16/16 13/13/13 14/14/14
f 19/19/19 18/18/18 17/17/17
f 20/20/20 17/17/17 18/18/18
f 23/23/23 22/22/22 21/21/21
f 24/24/24 21/21/21 22/22/22
f 27/27/27 26/26/26 25/25/25
f 28/28/28 25/25/25 26/26/26
f 31/31/31 30/30/30 29/29/29
f 32/32/32 29/29/29 30/30/30
