g Plane008
v 0.125116736 0.171093017 -0.0998550206
v 0.78140074 1.12093127 -0.160318539
v 0.448522359 0.068498522 -0.105696641
v 0.457995087 1.22352576 -0.154476926
v 0.167600289 -0.19503729 0.00920304656
v 0.812299013 0.417139322 0.0610219277
v 0.380824298 -0.319272041 0.000700447767
v 0.599075019 0.541374028 0.0695245191
v -0.0963090807 -0.107773073 0.0464207679
v 0.314733386 0.529524267 0.11340341
v 0.175749168 -0.161864981 0.0407355167
v 0.0426751859 0.583616257 0.119088702
v -0.367624044 0.0302479304 -0.0531129092
v -0.620261252 1.43685997 -0.126830518
v -0.155401051 0.104065537 -0.05698153
v -0.832484365 1.36304247 -0.122961894
v -0.516598701 -0.310727239 0.0122833038
v -0.976558805 0.796410203 0.109145321
v -0.296321183 -0.154317752 0.0259673875
v -1.19683647 0.64000082 0.0954612345
v -0.210817233 -0.304770052 0.0469121002
v -0.175649479 0.263254613 0.18853648
v -0.0386692882 -0.262547314 0.0574393682
v -0.347797543 0.22103183 0.178009242
vt 0 0
vt 1 1
vt 1 0
vt 0 1
vt 0 0
vt 1 1
vt 1 0
vt 0 1
vt 0 0
vt 1 1
vt 1 0
vt 0 1
vt 0 0
vt 1 1
vt 1 0
vt 0 1
vt 0 0
vt 1 1
vt 1 0
vt 0 1
vt 0 0
vt 1 1
vt 1 0
vt 0 1
vn 0.0313358232 0.0419181511 0.99862957
vn 0.0313358232 0.0419181511 0.99862957
vn 0.0313358232 0.0419181511 0.99862957
vn 0.0313358232 0.0419181511 0.99862957
vn -0.00583414733 -0.078241922 0.996917367
vn -0.00583415898 -0.0782418922 0.996917367
vn -0.00583414221 -0.078241922 0.996917367
vn -0.0058341641 -0.0782418847 0.996917367
vn -0 -0.104528405 0.994521856
vn -0 -0.104528435 0.994521856
vn -1.12671209E-07 -0.104528382 0.994521856
vn -0 -0.104528464 0.994521856
vn -0 0.0523360856 0.99862957
vn -0 0.0523360856 0.99862957
vn -0 0.0523360856 0.99862957
vn -0 0.0523360856 0.99862957
vn -0 -0.0871558189 0.99619472
vn -1.2107202E-07 -0.0871558413 0.99619472
vn -0 -0.0871558189 0.99619472
vn -1.24664709E-07 -0.0871558338 0.99619472
vn 2.44582367E-07 -0.241921797 0.970295668
vn 3.7427148E-07 -0.241921797 0.970295668
vn 1.96551795E-07 -0.241921812 0.970295668
vn 4.1332558E-07 -0.241921812 0.970295668
g Plane008_0
f 3/3/3 2/2/2 1/1/1
f 4/4/4 1/1/1 2/2/2
f 7/7/7 6/6/6 5/5/5
f 8/8/8 5/5/5 6/6/6
f 11/11/11 10/10/10 9/9/9
f 12/12/12 9/9/9 10/10/10
f 15/15/15 14/14/14 13/13/13
f 16/16/16 13/13/13 14/14/14
f 19/19/19 18/18/18 17/17/17
f 20/20/20 17/17/17 18/18/18
f 23/23/23 22/22/22 21/21/21
f 24/24/24 21/21/21 22/22/22
