g Plane065
v -0.409222096 -0.127000004 0
v -0.155222118 0.127000004 0
v -0.155222118 -0.127000004 0
v -0.409222096 0.127000004 0
v -0.409222096 0.155222237 0
v -0.155222118 0.409222215 0
v -0.155222118 0.155222237 0
v -0.409222096 0.409222215 0
v -0.127000004 0.155222237 0
v 0.127000004 0.409222215 0
v 0.127000004 0.155222237 0
v -0.127000004 0.409222215 0
v 0.155222312 0.155222237 0
v 0.409222305 0.409222215 0
v 0.409222305 0.155222237 0
v 0.155222312 0.409222215 0
v 0.155222312 -0.127000004 0
v 0.409222305 0.127000004 0
v 0.409222305 -0.127000004 0
v 0.155222312 0.127000004 0
v 0.155222312 -0.409222215 0
v 0.409222305 -0.155222237 0
v 0.409222305 -0.409222215 0
v 0.155222312 -0.155222237 0
v -0.127000004 -0.409222215 0
v 0.127000004 -0.155222237 0
v 0.127000004 -0.409222215 0
v -0.127000004 -0.155222237 0
v -0.409222096 -0.409222215 0
v -0.155222118 -0.155222237 0
v -0.155222118 -0.409222215 0
v -0.409222096 -0.155222237 0
vt 0 0
vt 1 1
vt 1 0
vt 0 1
vt 0 0
vt 1 1
vt 1 0
vt 0 1
vt 0 0
vt 1 1
vt 1 0
vt 0 1
vt 0 0
vt 1 1
vt 1 0
vt 0 1
vt 0 0
vt 1 1
vt 1 0
vt 0 1
vt 0 0
vt 1 1
vt 1 0
vt 0 1
vt 0 0
vt 1 1
vt 1 0
vt 0 1
vt 0 0
vt 1 1
vt 1 0
vt 0 1
vn -0 0 1
vn -0 0 1
vn -0 0 1
vn -0 0 1
vn -0 0 1
vn -0 0 1
vn -0 0 1
vn -0 0 1
vn -0 0 1
vn -0 0 1
vn -0 0 1
vn -0 0 1
vn -0 0 1
vn -0 0 1
vn -0 0 1
vn -0 0 1
vn -0 0 1
vn -0 0 1
vn -0 0 1
vn -0 0 1
vn -0 0 1
vn -0 0 1
vn -0 0 1
vn -0 0 1
vn -0 0 1
vn -0 0 1
vn -0 0 1
vn -0 0 1
vn -0 0 1
vn -0 0 1
vn -0 0 1
vn -0 0 1
g Plane065_0
f 3/3/3 2/2/2 1/1/1
f 4/4/4 1/1/1 2/2/2
f 7/7/7 6/6/6 5/5/5
f 8/8/8 5/5/5 6/6/6
f 11/11/11 10/10/10 9/9/9
f 12/12/12 9/9/9 10/10/10
f 15/15/15 14/14/14 13/13/13
f 16/16/16 13/13/13 14/14/14
f 19/19/19 18/18/18 17/17/17
f 20/20/20 17/17/17 18/18/18
f 23/23/23 22/22/22 21/21/21
f 24/24/24 21/21/21 22/22/22
f 27/27/27 26/26/26 25/25/25
f 28/28/28 25/25/25 26/26/26
f 31/31/31 30/30/30 29/29/29
f 32/32/32 29/29/29 30/30/30
