g Plane002
v 0.332008451 -0.475069016 0
v 0.553347409 -0.285041422 0
v 0.553347409 -0.475069016 0
v 0.332008451 -0.285041422 0
v 0.553347409 -0.0950138122 0
v 0.110669501 -0.475069016 0
v 0.332008451 -0.0950138122 0
v 0.553347409 0.0950137973 0
v 0.110669501 -0.285041422 0
v -0.110669456 -0.475069016 0
v 0.332008451 0.0950137973 0
v 0.553347409 0.285041422 0
v -0.110669456 -0.285041422 0
v -0.332008421 -0.475069016 0
v 0.110669501 -0.0950138122 0
v 0.332008451 0.285041422 0
v 0.553347409 0.475069016 0
v 0.332008451 0.475069016 0
v -0.332008421 -0.285041422 0
v -0.553347349 -0.475069016 0
v -0.553347349 -0.285041422 0
v -0.110669456 -0.0950138122 0
v 0.110669501 0.0950137973 0
v 0.110669501 0.285041422 0
v 0.110669501 0.475069016 0
v -0.332008421 -0.0950138122 0
v -0.553347349 -0.0950138122 0
v -0.110669456 0.0950137973 0
v -0.110669456 0.285041422 0
v -0.110669456 0.475069016 0
v -0.332008421 0.0950137973 0
v -0.553347349 0.0950137973 0
v -0.332008421 0.285041422 0
v -0.332008421 0.475069016 0
v -0.553347349 0.285041422 0
v -0.553347349 0.475069016 0
vt 0.800000012 0
vt 1 0.200000003
vt 1 0
vt 0.800000012 0.200000003
vt 1 0.400000006
vt 0.600000024 0
vt 0.800000012 0.400000006
vt 1 0.600000024
vt 0.600000024 0.200000003
vt 0.400000006 0
vt 0.800000012 0.600000024
vt 1 0.800000012
vt 0.400000006 0.200000003
vt 0.200000003 0
vt 0.600000024 0.400000006
vt 0.800000012 0.800000012
vt 1 1
vt 0.800000012 1
vt 0.200000003 0.200000003
vt 0 0
vt 0 0.200000003
vt 0.400000006 0.400000006
vt 0.600000024 0.600000024
vt 0.600000024 0.800000012
vt 0.600000024 1
vt 0.200000003 0.400000006
vt 0 0.400000006
vt 0.400000006 0.600000024
vt 0.400000006 0.800000012
vt 0.400000006 1
vt 0.200000003 0.600000024
vt 0 0.600000024
vt 0.200000003 0.800000012
vt 0.200000003 1
vt 0 0.800000012
vt 0 1
vn -0 0 1
vn -0 0 1
vn -0 0 1
vn -0 0 1
vn -0 0 1
vn -0 0 1
vn -0 0 1
vn -0 0 1
vn -0 0 1
vn -0 0 1
vn -0 0 1
vn -0 0 1
vn -0 0 1
vn -0 0 1
vn -0 0 1
vn -0 0 1
vn -0 0 1
vn -0 0 1
vn -0 0 1
vn -0 0 1
vn -0 0 1
vn -0 0 1
vn -0 0 1
vn -0 0 1
vn -0 0 1
vn -0 0 1
vn -0 0 1
vn -0 0 1
vn -0 0 1
vn -0 0 1
vn -0 0 1
vn -0 0 1
vn -0 0 1
vn -0 0 1
vn -0 0 1
vn -0 0 1
g Plane002_0
f 3/3/3 2/2/2 1/1/1
f 4/4/4 1/1/1 2/2/2
f 2/2/2 5/5/5 4/4/4
f 1/1/1 4/4/4 6/6/6
f 7/7/7 4/4/4 5/5/5
f 5/5/5 8/8/8 7/7/7
f 9/9/9 6/6/6 4/4/4
f 4/4/4 7/7/7 9/9/9
f 6/6/6 9/9/9 10/10/10
f 11/11/11 7/7/7 8/8/8
f 8/8/8 12/12/12 11/11/11
f 13/13/13 10/10/10 9/9/9
f 10/10/10 13/13/13 14/14/14
f 15/15/15 9/9/9 7/7/7
f 7/7/7 11/11/11 15/15/15
f 9/9/9 15/15/15 13/13/13
f 16/16/16 11/11/11 12/12/12
f 12/12/12 17/17/17 16/16/16
f 18/18/18 16/16/16 17/17/17
f 19/19/19 14/14/14 13/13/13
f 14/14/14 19/19/19 20/20/20
f 21/21/21 20/20/20 19/19/19
f 22/22/22 13/13/13 15/15/15
f 13/13/13 22/22/22 19/19/19
f 23/23/23 15/15/15 11/11/11
f 11/11/11 16/16/16 23/23/23
f 15/15/15 23/23/23 22/22/22
f 16/16/16 18/18/18 24/24/24
f 24/24/24 23/23/23 16/16/16
f 25/25/25 24/24/24 18/18/18
f 19/19/19 26/26/26 21/21/21
f 26/26/26 19/19/19 22/22/22
f 27/27/27 21/21/21 26/26/26
f 28/28/28 22/22/22 23/23/23
f 23/23/23 24/24/24 28/28/28
f 22/22/22 28/28/28 26/26/26
f 24/24/24 25/25/25 29/29/29
f 29/29/29 28/28/28 24/24/24
f 30/30/30 29/29/29 25/25/25
f 26/26/26 31/31/31 27/27/27
f 31/31/31 26/26/26 28/28/28
f 28/28/28 29/29/29 31/31/31
f 32/32/32 27/27/27 31/31/31
f 29/29/29 30/30/30 33/33/33
f 33/33/33 31/31/31 29/29/29
f 31/31/31 33/33/33 32/32/32
f 34/34/34 33/33/33 30/30/30
f 35/35/35 32/32/32 33/33/33
f 33/33/33 34/34/34 35/35/35
f 36/36/36 35/35/35 34/34/34
