g yuanzhu
v 0.0425651222 0.00904749706 0.0297958683
v 0.0425651222 0.009047498 6.780064E-05
v 0.043516051 1.37448852E-09 6.780064E-05
v 0.043516051 1.37448852E-09 0.0297958683
v 0.0397538878 0.0176995676 0.0297958683
v 0.0397538878 0.0176995676 6.780064E-05
v 0.0425651222 0.009047498 6.780064E-05
v 0.0425651222 0.00904749706 0.0297958683
v 0.0352052264 0.0255780853 0.0297958683
v 0.0352052264 0.0255780853 6.77977005E-05
v 0.0397538878 0.0176995676 6.780064E-05
v 0.0397538878 0.0176995676 0.0297958683
v 0.0291179195 0.0323387422 0.0297958683
v 0.0291179195 0.032338731 6.77977005E-05
v 0.0352052264 0.0255780853 6.77977005E-05
v 0.0352052264 0.0255780853 0.0297958683
v 0.0217580236 0.0376860164 0.0297958683
v 0.0217580236 0.0376860052 6.77977005E-05
v 0.0291179195 0.032338731 6.77977005E-05
v 0.0291179195 0.0323387422 0.0297958683
v 0.013447199 0.0413862355 0.0297958683
v 0.013447199 0.0413862243 6.77977005E-05
v 0.0217580236 0.0376860052 6.77977005E-05
v 0.0217580236 0.0376860164 0.0297958683
v 0.00454866374 0.0432776771 0.0297958683
v 0.00454866374 0.043277666 6.77977005E-05
v 0.013447199 0.0413862243 6.77977005E-05
v 0.013447199 0.0413862355 0.0297958683
v -0.00454866746 0.0432776771 0.0297958683
v -0.00454866746 0.043277666 6.77977005E-05
v 0.00454866374 0.043277666 6.77977005E-05
v 0.00454866374 0.0432776771 0.0297958683
v -0.0134472009 0.0413862318 0.0297958683
v -0.0134472009 0.0413862206 6.77977005E-05
v -0.00454866746 0.043277666 6.77977005E-05
v -0.00454866746 0.0432776771 0.0297958683
v -0.0217580274 0.0376860164 0.0297958683
v -0.0217580274 0.0376860052 6.77977005E-05
v -0.0134472009 0.0413862206 6.77977005E-05
v -0.0134472009 0.0413862318 0.0297958683
v -0.0291179251 0.0323387384 0.0297958683
v -0.0291179251 0.0323387273 6.77977005E-05
v -0.0217580274 0.0376860052 6.77977005E-05
v -0.0217580274 0.0376860164 0.0297958683
v -0.0352052301 0.0255780835 0.0297958683
v -0.0352052301 0.0255780835 6.77977005E-05
v -0.0291179251 0.0323387273 6.77977005E-05
v -0.0291179251 0.0323387384 0.0297958683
v -0.0397538915 0.0176995657 0.0297958683
v -0.0397538915 0.0176995657 6.780064E-05
v -0.0352052301 0.0255780835 6.77977005E-05
v -0.0352052301 0.0255780835 0.0297958683
v -0.0425651222 0.00904749334 0.0297958683
v -0.0425651222 0.00904749427 6.780064E-05
v -0.0397538915 0.0176995657 6.780064E-05
v -0.0397538915 0.0176995657 0.0297958683
v -0.043516051 -2.42980525E-09 0.0297958683
v -0.043516051 -2.42980525E-09 6.780064E-05
v -0.0425651222 0.00904749427 6.780064E-05
v -0.0425651222 0.00904749334 0.0297958683
v -0.0425651185 -0.00904749893 0.0297958683
v -0.0425651185 -0.009047498 6.780064E-05
v -0.043516051 -2.42980525E-09 6.780064E-05
v -0.043516051 -2.42980525E-09 0.0297958683
v -0.0397538878 -0.0176995825 0.0297958683
v -0.0397538878 -0.0176995825 6.780064E-05
v -0.0425651185 -0.009047498 6.780064E-05
v -0.0425651185 -0.00904749893 0.0297958683
v -0.0352052227 -0.025578104 0.0297958683
v -0.0352052227 -0.025578104 6.78035649E-05
v -0.0397538878 -0.0176995825 6.780064E-05
v -0.0397538878 -0.0176995825 0.0297958683
v -0.0291179176 -0.0323387198 0.0297958683
v -0.0291179176 -0.032338731 6.78035649E-05
v -0.0352052227 -0.025578104 6.78035649E-05
v -0.0352052227 -0.025578104 0.0297958683
v -0.0217580218 -0.0376859941 0.0297958683
v -0.0217580218 -0.0376860052 6.78035649E-05
v -0.0291179176 -0.032338731 6.78035649E-05
v -0.0291179176 -0.0323387198 0.0297958683
v -0.0134472037 -0.0413862094 0.0297958683
v -0.0134472037 -0.0413862206 6.78035649E-05
v -0.0217580218 -0.0376860052 6.78035649E-05
v -0.0217580218 -0.0376859941 0.0297958683
v -0.00454868097 -0.0432776511 0.0297958683
v -0.00454868097 -0.0432776622 6.78035649E-05
v -0.0134472037 -0.0413862206 6.78035649E-05
v -0.0134472037 -0.0413862094 0.0297958683
v 0.00454864046 -0.0432776585 0.0297958683
v 0.00454864046 -0.0432776697 6.78035649E-05
v -0.00454868097 -0.0432776622 6.78035649E-05
v -0.00454868097 -0.0432776511 0.0297958683
v 0.0134471664 -0.0413862243 0.0297958683
v 0.0134471664 -0.0413862355 6.78035649E-05
v 0.00454864046 -0.0432776697 6.78035649E-05
v 0.00454864046 -0.0432776585 0.0297958683
v 0.0217579864 -0.0376860164 0.0297958683
v 0.0217579864 -0.0376860276 6.78035649E-05
v 0.0134471664 -0.0413862355 6.78035649E-05
v 0.0134471664 -0.0413862243 0.0297958683
v 0.0291178804 -0.0323387533 0.0297958683
v 0.0291178804 -0.0323387645 6.78035649E-05
v 0.0217579864 -0.0376860276 6.78035649E-05
v 0.0217579864 -0.0376860164 0.0297958683
v 0.0352051854 -0.0255781524 0.0297958683
v 0.0352051854 -0.0255781524 6.78035649E-05
v 0.0291178804 -0.0323387645 6.78035649E-05
v 0.0291178804 -0.0323387533 0.0297958683
v 0.0397538617 -0.0176996477 0.0297958683
v 0.0397538617 -0.0176996477 6.780064E-05
v 0.0352051854 -0.0255781524 6.78035649E-05
v 0.0352051854 -0.0255781524 0.0297958683
v 0.0425651036 -0.00904757809 0.0297958683
v 0.0425651036 -0.00904757716 6.780064E-05
v 0.0397538617 -0.0176996477 6.780064E-05
v 0.0397538617 -0.0176996477 0.0297958683
v 0.043516051 1.37448852E-09 0.0297958683
v 0.043516051 1.37448852E-09 6.780064E-05
v 0.0425651036 -0.00904757716 6.780064E-05
v 0.0425651036 -0.00904757809 0.0297958683
vt 0.766475797 0.999406099
vt 0.766475797 0.00127707166
vt 0.733216584 0.00127707166
vt 0.733216584 0.999406099
vt 0.799735069 0.999406099
vt 0.799735069 0.00127707166
vt 0.766475797 0.00127707166
vt 0.766475797 0.999406099
vt 0.832994223 0.999406099
vt 0.832994223 0.00127707166
vt 0.799735069 0.00127707166
vt 0.799735069 0.999406099
vt 0.866253316 0.999406099
vt 0.866253316 0.00127707166
vt 0.832994223 0.00127707166
vt 0.832994223 0.999406099
vt 0.899512589 0.999406099
vt 0.899512589 0.00127707166
vt 0.866253316 0.00127707166
vt 0.866253316 0.999406099
vt 0.932771742 0.999406099
vt 0.932771742 0.00127707166
vt 0.899512589 0.00127707166
vt 0.899512589 0.999406099
vt 0.966031015 0.999406099
vt 0.966031015 0.00127707166
vt 0.932771742 0.00127707166
vt 0.932771742 0.999406099
vt 0.999290168 0.999406099
vt 0.999290168 0.00127707166
vt 0.966031015 0.00127707166
vt 0.966031015 0.999406099
vt 0.0347735323 0.999406099
vt 0.0347735323 0.00127707166
vt 0.00151433796 0.00127707166
vt 0.00151433796 0.999406099
vt 0.0680327192 0.999406099
vt 0.0680327192 0.00127707166
vt 0.0347735323 0.00127707166
vt 0.0347735323 0.999406099
vt 0.10129191 0.999406099
vt 0.10129191 0.00127707166
vt 0.0680327192 0.00127707166
vt 0.0680327192 0.999406099
vt 0.134551123 0.999406099
vt 0.134551123 0.00127707166
vt 0.10129191 0.00127707166
vt 0.10129191 0.999406099
vt 0.167810306 0.999406099
vt 0.167810306 0.00127707166
vt 0.134551123 0.00127707166
vt 0.134551123 0.999406099
vt 0.201069504 0.999406099
vt 0.201069504 0.00127707166
vt 0.167810306 0.00127707166
vt 0.167810306 0.999406099
vt 0.234328687 0.999406099
vt 0.234328687 0.00127707166
vt 0.201069504 0.00127707166
vt 0.201069504 0.999406099
vt 0.2675879 0.999406099
vt 0.2675879 0.00127707166
vt 0.234328687 0.00127707166
vt 0.234328687 0.999406099
vt 0.300847054 0.999406099
vt 0.300847054 0.00127707166
vt 0.2675879 0.00127707166
vt 0.2675879 0.999406099
vt 0.334106296 0.999406099
vt 0.334106296 0.00127707166
vt 0.300847054 0.00127707166
vt 0.300847054 0.999406099
vt 0.36736545 0.999406099
vt 0.36736545 0.00127707166
vt 0.334106296 0.00127707166
vt 0.334106296 0.999406099
vt 0.400624663 0.999406099
vt 0.400624663 0.00127707166
vt 0.36736545 0.00127707166
vt 0.36736545 0.999406099
vt 0.433883816 0.999406099
vt 0.433883816 0.00127707166
vt 0.400624663 0.00127707166
vt 0.400624663 0.999406099
vt 0.46714294 0.999406099
vt 0.46714294 0.00127707166
vt 0.433883816 0.00127707166
vt 0.433883816 0.999406099
vt 0.500402212 0.999406099
vt 0.500402212 0.00127707166
vt 0.46714294 0.00127707166
vt 0.46714294 0.999406099
vt 0.533661246 0.999406099
vt 0.533661246 0.00127707166
vt 0.500402212 0.00127707166
vt 0.500402212 0.999406099
vt 0.566920459 0.999406099
vt 0.566920459 0.00127707166
vt 0.533661246 0.00127707166
vt 0.533661246 0.999406099
vt 0.600179672 0.999406099
vt 0.600179672 0.00127707166
vt 0.566920459 0.00127707166
vt 0.566920459 0.999406099
vt 0.633438826 0.999406099
vt 0.633438826 0.00127707166
vt 0.600179672 0.00127707166
vt 0.600179672 0.999406099
vt 0.666697919 0.999406099
vt 0.666697919 0.00127707166
vt 0.633438826 0.00127707166
vt 0.633438826 0.999406099
vt 0.699957132 0.999406099
vt 0.699957132 0.00127707166
vt 0.666697919 0.00127707166
vt 0.666697919 0.999406099
vt 0.733216584 0.999406099
vt 0.733216584 0.00127707166
vt 0.699957132 0.00127707166
vt 0.699957132 0.999406099
vn 0.994521856 0.104528196 0
vn 1 -5.62969376E-07 0
vn 1 -5.65948483E-07 0
vn 0.978147209 0.207913503 0
vn 0.951056361 0.309017658 0
vn 0.978147209 0.207913503 0
vn 0.978147209 0.207913503 0
vn 0.913591206 0.406633914 0
vn 0.866025448 0.499999911 0
vn 0.913591206 0.406633914 0
vn 0.913591206 0.406633914 0
vn 0.809016347 0.587786078 0
vn 0.743145466 0.669129968 -1.287098E-07
vn 0.809016347 0.587786078 0
vn 0.809016347 0.587786078 0
vn 0.669133306 0.743142426 0
vn 0.587785125 0.809017122 -3.10314533E-07
vn 0.669133306 0.743142426 0
vn 0.669133306 0.743142426 0
vn 0.499975622 0.866039455 0
vn 0.406736732 0.91354543 -3.51748611E-07
vn 0.499975622 0.866039455 0
vn 0.499975622 0.866039455 0
vn 0.30900842 0.951059282 0
vn 0.207911626 0.978147566 -3.77314109E-07
vn 0.30900842 0.951059282 0
vn 0.30900842 0.951059282 0
vn 0.104525909 0.994522095 0
vn -0 1 -3.84959151E-07
vn 0.104525909 0.994522095 0
vn 0.104525909 0.994522095 0
vn -0.104525909 0.994522095 0
vn -0.207912073 0.978147566 -3.73787884E-07
vn -0.104525909 0.994522095 0
vn -0.104525909 0.994522095 0
vn -0.30900842 0.951059282 0
vn -0.406736284 0.913545609 -3.52630167E-07
vn -0.30900842 0.951059282 0
vn -0.30900842 0.951059282 0
vn -0.499975622 0.866039455 0
vn -0.587785304 0.809017003 -3.10314391E-07
vn -0.499975622 0.866039455 0
vn -0.499975622 0.866039455 0
vn -0.669133306 0.743142426 0
vn -0.743145466 0.669129908 -1.26946688E-07
vn -0.669133306 0.743142426 0
vn -0.669133306 0.743142426 0
vn -0.809016347 0.587786078 0
vn -0.866025448 0.499999911 0
vn -0.809016347 0.587786078 0
vn -0.809016347 0.587786078 0
vn -0.913591206 0.406633914 0
vn -0.95105648 0.309017092 0
vn -0.913591206 0.406633914 0
vn -0.913591206 0.406633914 0
vn -0.978147209 0.207913503 0
vn -0.994521856 0.104528196 0
vn -0.978147209 0.207913503 0
vn -0.978147209 0.207913503 0
vn -1 -2.05170963E-07 0
vn -0.994521856 -0.104528621 0
vn -1 -2.09923869E-07 0
vn -1 -2.05170963E-07 0
vn -0.978147209 -0.207913503 0
vn -0.95105654 -0.309016764 0
vn -0.978147209 -0.207913503 0
vn -0.978147209 -0.207913503 0
vn -0.913591206 -0.406633914 0
vn -0.866025269 -0.500000179 0
vn -0.913591206 -0.406633914 0
vn -0.913591206 -0.406633914 0
vn -0.809016347 -0.587786078 0
vn -0.743144155 -0.669131339 1.30473296E-07
vn -0.809016347 -0.587786078 0
vn -0.809016347 -0.587786078 0
vn -0.669133306 -0.743142426 0
vn -0.587785006 -0.809017122 3.10314562E-07
vn -0.669133306 -0.743142426 0
vn -0.669133306 -0.743142426 0
vn -0.499975622 -0.866039455 0
vn -0.406736612 -0.91354543 3.49104198E-07
vn -0.499975622 -0.866039455 0
vn -0.499975622 -0.866039455 0
vn -0.30900842 -0.951059282 0
vn -0.207911924 -0.978147566 3.75551565E-07
vn -0.30900842 -0.951059282 0
vn -0.30900842 -0.951059282 0
vn -0.104525909 -0.994522095 0
vn -8.38641938E-07 -1 3.84959236E-07
vn -0.104525909 -0.994522095 0
vn -0.104525909 -0.994522095 0
vn 0.104525909 -0.994522095 0
vn 0.207911029 -0.978147745 3.77314649E-07
vn 0.104525909 -0.994522095 0
vn 0.104525909 -0.994522095 0
vn 0.30900842 -0.951059282 0
vn 0.406735778 -0.913545847 3.52630508E-07
vn 0.30900842 -0.951059282 0
vn 0.30900842 -0.951059282 0
vn 0.499975622 -0.866039455 0
vn 0.58778429 -0.809017658 3.10314874E-07
vn 0.499975622 -0.866039455 0
vn 0.499975622 -0.866039455 0
vn 0.669133306 -0.743142426 0
vn 0.74314332 -0.669132233 1.28710298E-07
vn 0.669133306 -0.743142426 0
vn 0.669133306 -0.743142426 0
vn 0.809016347 -0.587786078 0
vn 0.866024554 -0.50000155 0
vn 0.809016347 -0.587786078 0
vn 0.809016347 -0.587786078 0
vn 0.913591206 -0.406633914 0
vn 0.951056123 -0.309018344 0
vn 0.913591206 -0.406633914 0
vn 0.913591206 -0.406633914 0
vn 0.978147209 -0.207913503 0
vn 0.994521737 -0.104529306 0
vn 0.978147209 -0.207913503 0
vn 0.978147209 -0.207913503 0
vn 1 -5.65948483E-07 0
g yuanzhu_0
f 3/3/3 2/2/2 1/1/1
f 4/4/4 3/3/3 1/1/1
f 7/7/7 6/6/6 5/5/5
f 8/8/8 7/7/7 5/5/5
f 11/11/11 10/10/10 9/9/9
f 12/12/12 11/11/11 9/9/9
f 15/15/15 14/14/14 13/13/13
f 16/16/16 15/15/15 13/13/13
f 19/19/19 18/18/18 17/17/17
f 20/20/20 19/19/19 17/17/17
f 23/23/23 22/22/22 21/21/21
f 24/24/24 23/23/23 21/21/21
f 27/27/27 26/26/26 25/25/25
f 28/28/28 27/27/27 25/25/25
f 31/31/31 30/30/30 29/29/29
f 32/32/32 31/31/31 29/29/29
f 35/35/35 34/34/34 33/33/33
f 36/36/36 35/35/35 33/33/33
f 39/39/39 38/38/38 37/37/37
f 40/40/40 39/39/39 37/37/37
f 43/43/43 42/42/42 41/41/41
f 44/44/44 43/43/43 41/41/41
f 47/47/47 46/46/46 45/45/45
f 48/48/48 47/47/47 45/45/45
f 51/51/51 50/50/50 49/49/49
f 52/52/52 51/51/51 49/49/49
f 55/55/55 54/54/54 53/53/53
f 56/56/56 55/55/55 53/53/53
f 59/59/59 58/58/58 57/57/57
f 60/60/60 59/59/59 57/57/57
f 63/63/63 62/62/62 61/61/61
f 64/64/64 63/63/63 61/61/61
f 67/67/67 66/66/66 65/65/65
f 68/68/68 67/67/67 65/65/65
f 71/71/71 70/70/70 69/69/69
f 72/72/72 71/71/71 69/69/69
f 75/75/75 74/74/74 73/73/73
f 76/76/76 75/75/75 73/73/73
f 79/79/79 78/78/78 77/77/77
f 80/80/80 79/79/79 77/77/77
f 83/83/83 82/82/82 81/81/81
f 84/84/84 83/83/83 81/81/81
f 87/87/87 86/86/86 85/85/85
f 88/88/88 87/87/87 85/85/85
f 91/91/91 90/90/90 89/89/89
f 92/92/92 91/91/91 89/89/89
f 95/95/95 94/94/94 93/93/93
f 96/96/96 95/95/95 93/93/93
f 99/99/99 98/98/98 97/97/97
f 100/100/100 99/99/99 97/97/97
f 103/103/103 102/102/102 101/101/101
f 104/104/104 103/103/103 101/101/101
f 107/107/107 106/106/106 105/105/105
f 108/108/108 107/107/107 105/105/105
f 111/111/111 110/110/110 109/109/109
f 112/112/112 111/111/111 109/109/109
f 115/115/115 114/114/114 113/113/113
f 116/116/116 115/115/115 113/113/113
f 119/119/119 118/118/118 117/117/117
f 120/120/120 119/119/119 117/117/117
