g Plane001
v 1.35475898 -0.123761192 1.35485327
v 1.2057358 -0.123761192 1.4890343
v 1.37020981 -0.0422128476 1.37030411
v 1.21948695 -0.0422128513 1.50601554
v 1.0435034 -0.123761207 1.60690308
v 1.37020981 0.0422122143 1.37030411
v 1.05540407 -0.0422128513 1.62522864
v 0.869838834 -0.123761207 1.70716822
v 1.21948695 0.0422122143 1.50601554
v 1.35475898 0.123760574 1.35485327
v 1.2057358 0.123760574 1.4890343
v 1.05540407 0.0422122143 1.62522864
v 1.0435034 0.123760574 1.60690308
v 0.879758954 -0.0422128551 1.72663736
v 0.686645269 -0.123761207 1.78873134
v 0.879758954 0.042212218 1.72663736
v 0.869838834 0.123760574 1.70716822
v 0.694475889 -0.0422128551 1.80913079
v 0.495929509 -0.123761222 1.85069859
v 0.694475889 0.042212218 1.80913079
v 0.686645269 0.123760588 1.78873134
v 0.501584888 -0.0422128551 1.87180495
v 0.299781173 -0.123761222 1.8923912
v 0.501584947 0.0422122218 1.87180495
v 0.495929509 0.123760588 1.85069859
v 0.303199381 -0.0422128588 1.91397309
v 0.1003493 -0.123761222 1.91335237
v 0.303199381 0.0422122218 1.91397309
v 0.299781173 0.123760588 1.8923912
v 0.101492882 -0.0422128588 1.93517327
v -0.100181095 -0.123761222 1.91335237
v 0.101492882 0.0422122218 1.93517327
v 0.1003493 0.123760588 1.91335237
v -0.101324677 -0.0422128588 1.93517327
v -0.299612969 -0.123761229 1.8923912
v -0.101324677 0.0422122255 1.93517327
v -0.100181095 0.123760603 1.91335237
v -0.303031176 -0.0422128588 1.91397309
v -0.495761245 -0.123761229 1.85069859
v -0.303031176 0.0422122255 1.91397309
v -0.299612969 0.123760603 1.8923912
v -0.501416683 -0.0422128588 1.87180495
v -0.686477005 -0.123761229 1.78873134
v -0.501416683 0.0422122255 1.87180495
v -0.495761245 0.123760603 1.85069859
v -0.694307685 -0.0422128625 1.80913079
v -0.86967063 -0.123761244 1.70716822
v -0.694307685 0.0422122255 1.80913079
v -0.686477005 0.123760611 1.78873134
v -0.87959069 -0.0422128625 1.72663736
v -1.04333508 -0.123761244 1.60690308
v -0.87959069 0.0422122255 1.72663736
v -0.86967063 0.123760611 1.70716822
v -1.05523586 -0.0422128625 1.62522864
v -1.20556748 -0.123761244 1.4890343
v -1.05523586 0.0422122292 1.62522864
v -1.04333508 0.123760611 1.60690308
v -1.21931863 -0.0422128662 1.50601554
v -1.35459065 -0.123761244 1.35485327
v -1.37004149 -0.0422128662 1.37030411
v -1.21931863 0.0422122292 1.50601554
v -1.20556748 0.123760611 1.4890343
v -1.37004149 0.0422122292 1.37030411
v -1.35459065 0.123760626 1.35485327
vt 1 0
vt 0.933333337 0
vt 1 0.333333343
vt 0.933333337 0.333333343
vt 0.866666675 0
vt 1 0.666666687
vt 0.866666675 0.333333343
vt 0.800000012 0
vt 0.933333337 0.666666687
vt 1 1
vt 0.933333337 1
vt 0.866666675 0.666666687
vt 0.866666675 1
vt 0.800000012 0.333333343
vt 0.733333349 0
vt 0.800000012 0.666666687
vt 0.800000012 1
vt 0.733333349 0.333333343
vt 0.666666687 0
vt 0.733333349 0.666666687
vt 0.733333349 1
vt 0.666666687 0.333333343
vt 0.600000024 0
vt 0.666666687 0.666666687
vt 0.666666687 1
vt 0.600000024 0.333333343
vt 0.533333361 0
vt 0.600000024 0.666666687
vt 0.600000024 1
vt 0.533333361 0.333333343
vt 0.466666669 0
vt 0.533333361 0.666666687
vt 0.533333361 1
vt 0.466666669 0.333333343
vt 0.400000006 0
vt 0.466666669 0.666666687
vt 0.466666669 1
vt 0.400000006 0.333333343
vt 0.333333343 0
vt 0.400000006 0.666666687
vt 0.400000006 1
vt 0.333333343 0.333333343
vt 0.266666681 0
vt 0.333333343 0.666666687
vt 0.333333343 1
vt 0.266666681 0.333333343
vt 0.200000018 0
vt 0.266666681 0.666666687
vt 0.266666681 1
vt 0.200000018 0.333333343
vt 0.13333334 0
vt 0.200000018 0.666666687
vt 0.200000018 1
vt 0.13333334 0.333333343
vt 0.0666666701 0
vt 0.13333334 0.666666687
vt 0.13333334 1
vt 0.0666666701 0.333333343
vt 0 0
vt 0 0.333333343
vt 0.0666666701 0.666666687
vt 0.0666666701 1
vt 0 0.666666687
vt 0 1
vn 0.646389723 -0.258487582 0.717888832
vn 0.607876956 -0.258819252 0.750665247
vn 0.663470685 -0.129791692 0.736858726
vn 0.623982728 -0.129967004 0.770554364
vn 0.526080847 -0.258818597 0.810093701
vn 0.663470745 0.129791573 0.736858726
vn 0.540019453 -0.129966691 0.831557333
vn 0.438521206 -0.258819401 0.860646069
vn 0.623982608 0.129967004 0.770554543
vn 0.646389902 0.258487731 0.717888713
vn 0.607876658 0.258819163 0.750665426
vn 0.540019691 0.129966691 0.831557214
vn 0.526081145 0.258818597 0.810093582
vn 0.45013997 -0.129967123 0.883449197
vn 0.346156836 -0.258818954 0.9017694
vn 0.45013985 0.129967123 0.883449376
vn 0.438520968 0.258819431 0.860646188
vn 0.355328381 -0.129966825 0.9256621
vn 0.25 -0.258818924 0.933012784
vn 0.355328441 0.12996684 0.9256621
vn 0.346156985 0.258818835 0.901769519
vn 0.256623864 -0.129966944 0.957733214
vn 0.151104093 -0.258819014 0.954033673
vn 0.256623864 0.12996684 0.957733214
vn 0.249999985 0.258819044 0.933012724
vn 0.155107617 -0.129966915 0.979311049
vn 0.0505526476 -0.258819014 0.964602113
vn 0.155107632 0.12996693 0.979311049
vn 0.151104063 0.258819044 0.954033673
vn 0.0518920496 -0.129966915 0.990159452
vn -0.0505526625 -0.258819103 0.964602113
vn 0.0518920496 0.129966915 0.990159452
vn 0.050552655 0.258819103 0.964602113
vn -0.0518920682 -0.12996693 0.990159452
vn -0.151104078 -0.258819073 0.954033673
vn -0.0518920608 0.12996693 0.990159452
vn -0.0505526625 0.258819133 0.964602113
vn -0.155107632 -0.129966915 0.979311049
vn -0.25000003 -0.258819163 0.933012724
vn -0.155107632 0.129966915 0.979311049
vn -0.151104078 0.258819103 0.954033673
vn -0.256623805 -0.129966944 0.957733214
vn -0.346156806 -0.258819103 0.9017694
vn -0.256623805 0.129966944 0.957733214
vn -0.249999985 0.258819163 0.933012724
vn -0.355328411 -0.129966959 0.9256621
vn -0.438521206 -0.258818984 0.860646188
vn -0.3553285 0.129967079 0.9256621
vn -0.346156865 0.258819252 0.90176928
vn -0.45013997 -0.1299669 0.883449256
vn -0.526080906 -0.258819163 0.810093462
vn -0.450139761 0.12996687 0.883449376
vn -0.438521147 0.258819014 0.860646248
vn -0.540019572 -0.129967004 0.831557214
vn -0.607876778 -0.258819222 0.750665367
vn -0.540019631 0.129966959 0.831557155
vn -0.526080966 0.258819222 0.810093462
vn -0.623982728 -0.129966959 0.770554364
vn -0.646389902 -0.258487672 0.717888653
vn -0.663470805 -0.129791528 0.736858726
vn -0.623982847 0.129967019 0.770554364
vn -0.607876956 0.258819163 0.750665307
vn -0.663470626 0.129791602 0.736858845
vn -0.646389782 0.258487433 0.717888892
g Plane001_0
f 3/3/3 2/2/2 1/1/1
f 2/2/2 3/3/3 4/4/4
f 4/4/4 5/5/5 2/2/2
f 6/6/6 4/4/4 3/3/3
f 5/5/5 4/4/4 7/7/7
f 7/7/7 8/8/8 5/5/5
f 4/4/4 6/6/6 9/9/9
f 9/9/9 7/7/7 4/4/4
f 10/10/10 9/9/9 6/6/6
f 9/9/9 10/10/10 11/11/11
f 11/11/11 12/12/12 9/9/9
f 7/7/7 9/9/9 12/12/12
f 12/12/12 11/11/11 13/13/13
f 8/8/8 7/7/7 14/14/14
f 12/12/12 14/14/14 7/7/7
f 14/14/14 15/15/15 8/8/8
f 13/13/13 16/16/16 12/12/12
f 14/14/14 12/12/12 16/16/16
f 16/16/16 13/13/13 17/17/17
f 15/15/15 14/14/14 18/18/18
f 16/16/16 18/18/18 14/14/14
f 18/18/18 19/19/19 15/15/15
f 17/17/17 20/20/20 16/16/16
f 18/18/18 16/16/16 20/20/20
f 20/20/20 17/17/17 21/21/21
f 19/19/19 18/18/18 22/22/22
f 20/20/20 22/22/22 18/18/18
f 22/22/22 23/23/23 19/19/19
f 21/21/21 24/24/24 20/20/20
f 22/22/22 20/20/20 24/24/24
f 24/24/24 21/21/21 25/25/25
f 23/23/23 22/22/22 26/26/26
f 24/24/24 26/26/26 22/22/22
f 26/26/26 27/27/27 23/23/23
f 25/25/25 28/28/28 24/24/24
f 26/26/26 24/24/24 28/28/28
f 28/28/28 25/25/25 29/29/29
f 27/27/27 26/26/26 30/30/30
f 28/28/28 30/30/30 26/26/26
f 30/30/30 31/31/31 27/27/27
f 29/29/29 32/32/32 28/28/28
f 30/30/30 28/28/28 32/32/32
f 32/32/32 29/29/29 33/33/33
f 31/31/31 30/30/30 34/34/34
f 32/32/32 34/34/34 30/30/30
f 34/34/34 35/35/35 31/31/31
f 33/33/33 36/36/36 32/32/32
f 34/34/34 32/32/32 36/36/36
f 36/36/36 33/33/33 37/37/37
f 35/35/35 34/34/34 38/38/38
f 36/36/36 38/38/38 34/34/34
f 38/38/38 39/39/39 35/35/35
f 37/37/37 40/40/40 36/36/36
f 38/38/38 36/36/36 40/40/40
f 40/40/40 37/37/37 41/41/41
f 39/39/39 38/38/38 42/42/42
f 40/40/40 42/42/42 38/38/38
f 42/42/42 43/43/43 39/39/39
f 41/41/41 44/44/44 40/40/40
f 42/42/42 40/40/40 44/44/44
f 44/44/44 41/41/41 45/45/45
f 43/43/43 42/42/42 46/46/46
f 44/44/44 46/46/46 42/42/42
f 46/46/46 47/47/47 43/43/43
f 45/45/45 48/48/48 44/44/44
f 46/46/46 44/44/44 48/48/48
f 48/48/48 45/45/45 49/49/49
f 47/47/47 46/46/46 50/50/50
f 48/48/48 50/50/50 46/46/46
f 50/50/50 51/51/51 47/47/47
f 49/49/49 52/52/52 48/48/48
f 50/50/50 48/48/48 52/52/52
f 52/52/52 49/49/49 53/53/53
f 51/51/51 50/50/50 54/54/54
f 52/52/52 54/54/54 50/50/50
f 54/54/54 55/55/55 51/51/51
f 53/53/53 56/56/56 52/52/52
f 54/54/54 52/52/52 56/56/56
f 56/56/56 53/53/53 57/57/57
f 55/55/55 54/54/54 58/58/58
f 56/56/56 58/58/58 54/54/54
f 58/58/58 59/59/59 55/55/55
f 59/59/59 58/58/58 60/60/60
f 57/57/57 61/61/61 56/56/56
f 58/58/58 56/56/56 61/61/61
f 61/61/61 60/60/60 58/58/58
f 61/61/61 57/57/57 62/62/62
f 60/60/60 61/61/61 63/63/63
f 62/62/62 63/63/63 61/61/61
f 63/63/63 62/62/62 64/64/64
