g FX_m_ascln_01
v 0.33182019 0.157600001 -1.21264418E-06
v 0.363166064 0.270138294 -1.20890752E-06
v 0.407206714 0.194242269 -1.20365746E-06
v 0.296935797 0.218763724 -1.21680273E-06
v 0.283857584 0.32357046 -1.21836183E-06
v 0.26682207 0.241499886 -1.22039262E-06
v 0.184136778 0.306087852 -1.2302495E-06
v 0.22501713 0.232912764 -1.2253762E-06
v 0.137604877 0.265719205 -1.2357965E-06
v 0.202328101 0.212458536 -1.22808081E-06
v 0.101512358 0.210056558 -1.2400991E-06
v 0.175627261 0.170905948 -1.23126392E-06
v 0.0708275288 0.141872078 -1.24375708E-06
v 0.148904771 0.111380458 -1.23444943E-06
v 0.0433613919 0.063065879 -1.24703115E-06
v 0.123307869 0.0378795266 -1.2375009E-06
v 0.018009983 -0.0240445342 -1.25005329E-06
v 0.0988989621 -0.0460164249 -1.2404106E-06
v -0.00597131671 -0.116840139 -1.25291206E-06
v 0.0753809586 -0.137029201 -1.24321411E-06
v -0.0221379176 -0.188654006 -1.25483928E-06
v 0.0593781807 -0.208171114 -1.24512189E-06
v 0.0392107964 -0.279299378 -1.24752603E-06
v -0.0334328972 -0.246863365 -1.25618578E-06
v -0.0431577228 -0.272320151 -1.25734516E-06
v 0.0149117103 -0.32920301 -1.25042266E-06
v -0.0513583608 -0.282244653 -1.25832264E-06
v -0.039252229 -0.383429974 -1.2568795E-06
v -0.0824331492 -0.378038317 -1.26202713E-06
v -0.0601895899 -0.279089659 -1.25937549E-06
v -0.0690208152 -0.275934666 -1.26042823E-06
v -0.125614047 -0.34765175 -1.26717464E-06
v -0.0737065002 -0.26962471 -1.26098678E-06
v -0.155122384 -0.289555728 -1.27069234E-06
v -0.168951333 -0.216616184 -1.2723408E-06
v -0.0860148817 -0.204478115 -1.26245413E-06
v -0.17012693 0.177754775 -1.27248097E-06
v -0.110562652 0.275934517 -1.26538032E-06
v -0.0994812846 0.195602328 -1.26405939E-06
v -0.1757081 0.242086455 -1.27314638E-06
v -0.151545212 0.353103787 -1.2702659E-06
v -0.192223758 0.284257501 -1.2751151E-06
v -0.217023209 0.383429974 -1.27807152E-06
v -0.211093798 0.29158181 -1.27736462E-06
v -0.239606634 0.276584625 -1.28076363E-06
v -0.281192094 0.342692643 -1.28572105E-06
v -0.322392225 0.290454984 -1.29063244E-06
v -0.268306732 0.241531625 -1.28418492E-06
v -0.367048144 0.215466693 -1.29595583E-06
v -0.303984255 0.177039295 -1.28843806E-06
v -0.335983157 0.101852223 -1.29225259E-06
v -0.407206714 0.131762326 -1.30074307E-06
vt 0.00360104721 0.00773102231
vt 0.0444843434 0.995490909
vt 0.00360112078 0.995490909
vt 0.0444842689 0.00773102092
vt 0.0853675753 0.995490909
vt 0.0853675008 0.00773101905
vt 0.126250789 0.995490909
vt 0.126250714 0.00773101719
vt 0.167134017 0.995490909
vt 0.167133942 0.00773101533
vt 0.20801723 0.995490909
vt 0.208017156 0.00773101393
vt 0.248900458 0.995490909
vt 0.248900384 0.00773101207
vt 0.289783686 0.995490909
vt 0.289783597 0.00773101021
vt 0.330666929 0.995490909
vt 0.33066684 0.00773100881
vt 0.371550113 0.995490909
vt 0.371550024 0.00773100695
vt 0.412433326 0.995490909
vt 0.412433267 0.00773100508
vt 0.45331648 0.00773100415
vt 0.453316569 0.995490909
vt 0.494199783 0.995490909
vt 0.494199723 0.00773100322
vt 0.535083055 0.995490909
vt 0.535082996 0.00773100182
vt 0.575966179 0.00773100136
vt 0.575966299 0.995490909
vt 0.616849482 0.995490909
vt 0.616849422 0.00773100089
vt 0.657732725 0.995490909
vt 0.657732725 0.00773099996
vt 0.697770238 0.00773093384
vt 0.698707223 0.995446444
vt 0.697770119 0.00773093384
vt 0.739476323 0.995490909
vt 0.698707402 0.995446444
vt 0.739476204 0.00773098785
vt 0.782028198 0.995490909
vt 0.782028198 0.00773098599
vt 0.824580193 0.995490909
vt 0.824580193 0.00773098506
vt 0.867132187 0.00773098413
vt 0.867132187 0.995490909
vt 0.909684002 0.995490909
vt 0.909684002 0.00773098273
vt 0.952235997 0.995490909
vt 0.952235997 0.00773098087
vt 0.994787991 0.00773097901
vt 0.994787991 0.995490909
vn -0 0 1
vn -0 0 1
vn -0 0 1
vn -0 0 1
vn -0 0 1
vn -0 0 1
vn -0 0 1
vn -0 0 1
vn -0 0 1
vn -0 0 1
vn -0 0 1
vn -0 0 1
vn -0 0 1
vn -0 0 1
vn -0 0 1
vn -0 0 1
vn -0 0 1
vn -0 0 1
vn -0 0 1
vn -0 0 1
vn -0 0 1
vn -0 0 1
vn -0 0 1
vn -0 0 1
vn -0 0 1
vn -0 0 1
vn -0 0 1
vn -0 0 1
vn -0 0 1
vn -0 0 1
vn -0 0 1
vn -0 0 1
vn -0 0 1
vn -0 0 1
vn -0 0 1
vn -0 0 1
vn -0 0 1
vn -0 0 1
vn -0 0 1
vn -0 0 1
vn -0 0 1
vn -0 0 1
vn -0 0 1
vn -0 0 1
vn -0 0 1
vn -0 0 1
vn -0 0 1
vn -0 0 1
vn -0 0 1
vn -0 0 1
vn -0 0 1
vn -0 0 1
g FX_m_ascln_01_0
f 3/3/3 2/2/2 1/1/1
f 2/2/2 4/4/4 1/1/1
f 2/2/2 5/5/5 4/4/4
f 5/5/5 6/6/6 4/4/4
f 5/5/5 7/7/7 6/6/6
f 7/7/7 8/8/8 6/6/6
f 7/7/7 9/9/9 8/8/8
f 9/9/9 10/10/10 8/8/8
f 9/9/9 11/11/11 10/10/10
f 11/11/11 12/12/12 10/10/10
f 11/11/11 13/13/13 12/12/12
f 13/13/13 14/14/14 12/12/12
f 13/13/13 15/15/15 14/14/14
f 15/15/15 16/16/16 14/14/14
f 15/15/15 17/17/17 16/16/16
f 17/17/17 18/18/18 16/16/16
f 17/17/17 19/19/19 18/18/18
f 19/19/19 20/20/20 18/18/18
f 19/19/19 21/21/21 20/20/20
f 21/21/21 22/22/22 20/20/20
f 22/22/22 21/21/21 23/23/23
f 21/21/21 24/24/24 23/23/23
f 24/24/24 25/25/25 23/23/23
f 25/25/25 26/26/26 23/23/23
f 25/25/25 27/27/27 26/26/26
f 27/27/27 28/28/28 26/26/26
f 28/28/28 27/27/27 29/29/29
f 27/27/27 30/30/30 29/29/29
f 30/30/30 31/31/31 29/29/29
f 31/31/31 32/32/32 29/29/29
f 31/31/31 33/33/33 32/32/32
f 33/33/33 34/34/34 32/32/32
f 35/35/35 34/34/34 33/33/33
f 36/36/36 35/35/35 33/33/33
f 39/39/39 38/38/38 37/37/37
f 38/38/38 40/40/40 37/37/37
f 38/38/38 41/41/41 40/40/40
f 41/41/41 42/42/42 40/40/40
f 41/41/41 43/43/43 42/42/42
f 43/43/43 44/44/44 42/42/42
f 44/44/44 43/43/43 45/45/45
f 43/43/43 46/46/46 45/45/45
f 46/46/46 47/47/47 45/45/45
f 47/47/47 48/48/48 45/45/45
f 47/47/47 49/49/49 48/48/48
f 49/49/49 50/50/50 48/48/48
f 51/51/51 50/50/50 49/49/49
f 52/52/52 51/51/51 49/49/49
