g FX_m_range_02_10x
v 0.763122141 0.379352003 8.47816466E-08
v 0.763122141 0.379352003 0.126762167
v 0.513715446 0.379352033 0.126762167
v 0.513715446 0.379352033 8.47816466E-08
v 0.763122141 0.379352003 -0.126762003
v 0.260191202 0.379352033 0.126762167
v 0.513715446 0.379352033 -0.126762003
v 0.260191202 0.379352033 8.47816466E-08
v -2.64700411E-05 0.379568338 0.126762167
v 0.260191202 0.379352033 -0.126762003
v -2.64700411E-05 0.379568338 8.47816466E-08
v -2.64700411E-05 0.379568338 -0.126762003
v -2.64700411E-05 0.127253368 0.126762167
v -2.64700411E-05 0.127253368 6.0558321E-08
v -2.64700411E-05 0.127253368 -0.126762018
v -2.64700411E-05 -0.135327101 -0.126762122
v -2.64700411E-05 -0.135327131 -3.63349919E-08
v -2.64700411E-05 -0.13532716 0.126762047
v -2.64700411E-05 -0.379453957 0.126762033
v -2.64700411E-05 -0.379453927 -6.0558321E-08
v -2.64700411E-05 -0.379453927 -0.126762167
v 0.256352812 -0.379568309 0.126762033
v 0.256352812 -0.379568309 -6.0558321E-08
v 0.256352812 -0.379568309 -0.126762167
v 0.509877026 -0.379568309 0.126762033
v 0.509877026 -0.379568309 -6.0558321E-08
v 0.509877026 -0.379568309 -0.126762167
v 0.762787521 -0.379568309 0.126762033
v 0.762787521 -0.379568309 -6.0558321E-08
v 0.762787521 -0.379568309 -0.126762167
v 0.76261878 -0.127480835 0.126762077
v 0.76261878 -0.127480835 -3.63349919E-08
v 0.76261878 -0.127480835 -0.126762122
v 1.01560915 -0.127587855 0.126762077
v 1.01560915 -0.127587855 -2.42233273E-08
v 1.01560915 -0.127587855 -0.126762122
v 1.01573813 0.128515825 -0.126762018
v 1.01573813 0.128515825 7.26699838E-08
v 1.01573813 0.128515825 0.126762167
v 0.762978852 0.128407151 0.126762167
v 0.762978852 0.128407151 6.0558321E-08
v 0.763122141 0.379352003 0.126762167
v 0.762978852 0.128407151 -0.126762033
v 0.763122141 0.379352003 8.47816466E-08
v 0.763122141 0.379352003 -0.126762003
vt 0 0.5
vt 0 1
vt 0.0714285895 1
vt 0.0714285895 0.5
vt 0 0
vt 0.142857179 1
vt 0.0714285895 0
vt 0.142857179 0.5
vt 0.214285761 1
vt 0.142857179 0
vt 0.214285761 0.5
vt 0.214285761 0
vt 0.285714358 1
vt 0.285714358 0.5
vt 0.285714358 0
vt 0.357142955 0
vt 0.357142955 0.5
vt 0.357142955 1
vt 0.428571552 1
vt 0.428571552 0.5
vt 0.428571552 0
vt 0.500000119 1
vt 0.500000119 0.5
vt 0.500000119 0
vt 0.571428716 1
vt 0.571428716 0.5
vt 0.571428716 0
vt 0.642857313 1
vt 0.642857313 0.5
vt 0.642857313 0
vt 0.71428591 1
vt 0.71428591 0.5
vt 0.71428591 0
vt 0.785714507 1
vt 0.785714507 0.5
vt 0.785714507 0
vt 0.857143104 0
vt 0.857143104 0.5
vt 0.857143104 1
vt 0.928571701 1
vt 0.928571701 0.5
vt 1.00000024 1
vt 0.928571701 0
vt 1.00000024 0.5
vt 1.00000024 0
vn 0.709486723 0.704718709 0
vn 0.709486723 0.704718709 0
vn -0 1 0
vn -0 1 0
vn 0.709486723 0.704718709 0
vn -0 1 0
vn -0 1 0
vn -0 1 0
vn -0.704479277 0.709724486 0
vn -0 1 0
vn -0.704479277 0.709724486 0
vn -0.704479277 0.709724486 0
vn -1 0 0
vn -1 0 0
vn -1 0 0
vn -1 0 0
vn -1 0 0
vn -1 0 0
vn -0.71148026 -0.702705979 0
vn -0.711337864 -0.702850223 0
vn -0.71148026 -0.702705979 0
vn -0 -1 0
vn -0 -1 0
vn -0 -1 0
vn -0 -1 0
vn -0 -1 0
vn -0 -1 0
vn 0.709866822 -0.704335928 0
vn 0.709866822 -0.704335928 0
vn 0.709866822 -0.704335928 0
vn 0.706200123 -0.708012342 0
vn 0.706200123 -0.708012342 0
vn 0.706200123 -0.708012342 0
vn 0.703713596 -0.71048373 0
vn 0.703713596 -0.71048373 0
vn 0.703713596 -0.71048373 0
vn 0.707535744 0.706677556 0
vn 0.707535744 0.706677556 0
vn 0.707535744 0.706677556 0
vn 0.708012164 0.706200242 0
vn 0.708012164 0.706200242 0
vn 0.709486723 0.704718709 0
vn 0.708012164 0.706200242 0
vn 0.709486723 0.704718709 0
vn 0.709486723 0.704718709 0
g FX_m_range_02_10x_0
f 3/3/3 2/2/2 1/1/1
f 4/4/4 3/3/3 1/1/1
f 4/4/4 1/1/1 5/5/5
f 6/6/6 3/3/3 4/4/4
f 7/7/7 4/4/4 5/5/5
f 8/8/8 6/6/6 4/4/4
f 8/8/8 4/4/4 7/7/7
f 9/9/9 6/6/6 8/8/8
f 10/10/10 8/8/8 7/7/7
f 11/11/11 9/9/9 8/8/8
f 8/8/8 10/10/10 11/11/11
f 10/10/10 12/12/12 11/11/11
f 13/13/13 9/9/9 11/11/11
f 14/14/14 11/11/11 12/12/12
f 14/14/14 13/13/13 11/11/11
f 15/15/15 14/14/14 12/12/12
f 14/14/14 15/15/15 16/16/16
f 14/14/14 17/17/17 13/13/13
f 17/17/17 14/14/14 16/16/16
f 17/17/17 18/18/18 13/13/13
f 19/19/19 18/18/18 17/17/17
f 20/20/20 17/17/17 16/16/16
f 20/20/20 19/19/19 17/17/17
f 21/21/21 20/20/20 16/16/16
f 22/22/22 19/19/19 20/20/20
f 20/20/20 21/21/21 23/23/23
f 23/23/23 22/22/22 20/20/20
f 21/21/21 24/24/24 23/23/23
f 25/25/25 22/22/22 23/23/23
f 26/26/26 23/23/23 24/24/24
f 26/26/26 25/25/25 23/23/23
f 27/27/27 26/26/26 24/24/24
f 28/28/28 25/25/25 26/26/26
f 29/29/29 26/26/26 27/27/27
f 29/29/29 28/28/28 26/26/26
f 30/30/30 29/29/29 27/27/27
f 31/31/31 28/28/28 29/29/29
f 32/32/32 29/29/29 30/30/30
f 32/32/32 31/31/31 29/29/29
f 33/33/33 32/32/32 30/30/30
f 34/34/34 31/31/31 32/32/32
f 35/35/35 32/32/32 33/33/33
f 35/35/35 34/34/34 32/32/32
f 36/36/36 35/35/35 33/33/33
f 35/35/35 36/36/36 37/37/37
f 35/35/35 38/38/38 34/34/34
f 38/38/38 35/35/35 37/37/37
f 38/38/38 39/39/39 34/34/34
f 40/40/40 39/39/39 38/38/38
f 41/41/41 38/38/38 37/37/37
f 41/41/41 40/40/40 38/38/38
f 42/42/42 40/40/40 41/41/41
f 43/43/43 41/41/41 37/37/37
f 44/44/44 42/42/42 41/41/41
f 44/44/44 41/41/41 43/43/43
f 45/45/45 44/44/44 43/43/43
