g Sphere001
v 0.309351116 -0.0615332834 0.564081848
v 0.315411568 4.95478503E-07 0.564081848
v 0.370884806 5.8453287E-07 0.496487528
v 0.363758475 -0.0723554939 0.496487528
v 0.291402489 -0.120702371 0.564081848
v 0.412105083 6.50706056E-07 0.419369787
v 0.342653126 -0.141930997 0.496487528
v 0.262255371 -0.175232947 0.564081848
v 0.404186696 -0.0803970993 0.419369787
v 0.437488407 6.91455398E-07 0.335692137
v 0.30837974 -0.206052154 0.496487528
v 0.223029941 -0.22302939 0.564081848
v 0.380735666 -0.157705247 0.419369787
v 0.429082334 -0.0853491053 0.335692137
v 0.446059346 7.05214802E-07 0.24867028
v 0.26225549 -0.262254834 0.496487528
v 0.175233603 -0.262254953 0.564081848
v 0.342653155 -0.228952855 0.419369787
v 0.404186845 -0.167418987 0.335692137
v 0.437488556 -0.0870212018 0.24867028
v 0.437488467 6.91455455E-07 0.161648452
v 0.206052944 -0.308379203 0.496487528
v 0.120703109 -0.291402161 0.564081848
v 0.291402668 -0.291401923 0.419369787
v 0.363758653 -0.243055046 0.335692137
v 0.412105352 -0.170698926 0.24867028
v 0.429082334 -0.0853491202 0.161648452
v 0.412105113 6.50706113E-07 0.0779708102
v 0.141931862 -0.342652738 0.496487528
v 0.0615340695 -0.309350967 0.564081848
v 0.228953734 -0.342652589 0.419369787
v 0.309351414 -0.30935061 0.335692137
v 0.370885134 -0.247816801 0.24867028
v 0.404186875 -0.167419001 0.161648452
v 0.404186755 -0.0803971142 0.0779708102
v 0.370884806 5.8453287E-07 0.000852976053
v 0.363758475 -0.0723554939 0.000852976053
v 0.380735725 -0.157705262 0.0779708102
v 0.342653126 -0.141930997 0.000852976053
v 0.363758683 -0.243055075 0.161648452
v 0.342653215 -0.228952885 0.0779708102
v 0.30837974 -0.206052154 0.000852976053
v 0.315411985 -0.31541118 0.24867028
v 0.309351444 -0.309350669 0.161648452
v 0.291402668 -0.291401953 0.0779708102
v 0.26225549 -0.262254834 0.000852976053
v 0.243055999 -0.363758028 0.335692137
v 0.24781774 -0.370884508 0.24867028
v 0.243056014 -0.363758087 0.161648452
v 0.228953749 -0.342652589 0.0779708102
v 0.206052944 -0.308379203 0.000852976053
v 0.157706216 -0.380735248 0.419369787
v 0.16742003 -0.404186398 0.335692137
v 0.170699984 -0.412104875 0.24867028
v 0.16742003 -0.404186457 0.161648452
v 0.157706231 -0.380735308 0.0779708102
v 0.141931862 -0.342652738 0.000852976053
v 0.0723564252 -0.363758296 0.496487528
v 3.04561155E-07 -0.315411568 0.564081848
v 0.0803981349 -0.404186517 0.419369787
v 3.58126073E-07 -0.370884806 0.496487528
v -0.0615334772 -0.309351087 0.564081848
v 0.0853502005 -0.429082096 0.335692137
v 0.0870223194 -0.437488347 0.24867028
v 0.0853502154 -0.429082125 0.161648452
v 0.0803981423 -0.404186547 0.0779708102
v 0.0723564252 -0.363758296 0.000852976053
v -0.0723557174 -0.363758445 0.496487528
v -0.12070255 -0.2914024 0.564081848
v 3.97928289E-07 -0.412105083 0.419369787
v 4.22438433E-07 -0.437488407 0.335692137
v 4.30714522E-07 -0.446059346 0.24867028
v 4.2243849E-07 -0.437488467 0.161648452
v 3.97928346E-07 -0.412105113 0.0779708102
v 3.58126073E-07 -0.370884806 0.000852976053
v -0.141931191 -0.342653006 0.496487528
v -0.175233096 -0.262255281 0.564081848
v -0.08039736 -0.404186666 0.419369787
v -0.0853493735 -0.429082245 0.335692137
v -0.0870214775 -0.437488496 0.24867028
v -0.0853493884 -0.429082274 0.161648452
v -0.08039736 -0.404186696 0.0779708102
v -0.0723557174 -0.363758445 0.000852976053
v -0.206052348 -0.308379591 0.496487528
v -0.223029524 -0.223029822 0.564081848
v -0.157705471 -0.380735576 0.419369787
v -0.16741924 -0.404186726 0.335692137
v -0.170699179 -0.412105262 0.24867028
v -0.167419255 -0.404186785 0.161648452
v -0.157705486 -0.380735636 0.0779708102
v -0.141931191 -0.342653006 0.000852976053
v -0.262255013 -0.262255341 0.496487528
v -0.262255043 -0.175233454 0.564081848
v -0.228953078 -0.342653006 0.419369787
v -0.243055299 -0.363758475 0.335692137
v -0.247817039 -0.370884955 0.24867028
v -0.243055314 -0.363758534 0.161648452
v -0.228953093 -0.342653036 0.0779708102
v -0.206052348 -0.308379591 0.000852976053
v -0.308379322 -0.20605275 0.496487528
v -0.291402251 -0.120702937 0.564081848
v -0.291402131 -0.291402489 0.419369787
v -0.309350818 -0.309351206 0.335692137
v -0.315411389 -0.315411806 0.24867028
v -0.309350848 -0.309351265 0.161648452
v -0.291402161 -0.291402519 0.0779708102
v -0.262255013 -0.262255341 0.000852976053
v -0.342652828 -0.141931638 0.496487528
v -0.309350997 -0.0615338869 0.564081848
v -0.342652738 -0.228953511 0.419369787
v -0.363758177 -0.243055746 0.335692137
v -0.370884657 -0.247817501 0.24867028
v -0.363758206 -0.243055776 0.161648452
v -0.342652738 -0.22895354 0.0779708102
v -0.308379322 -0.20605275 0.000852976053
v -0.363758326 -0.0723562017 0.496487528
v -0.315411568 -1.13643857E-07 0.564081848
v -0.370884806 -1.31719347E-07 0.496487528
v -0.380735368 -0.157705978 0.419369787
v -0.404186577 -0.080397889 0.419369787
v -0.412105083 -1.45150608E-07 0.419369787
v -0.404186487 -0.167419776 0.335692137
v -0.429082125 -0.0853499398 0.335692137
v -0.437488407 -1.53421553E-07 0.335692137
v -0.412105024 -0.170699731 0.24867028
v -0.437488407 -0.0870220587 0.24867028
v -0.446059346 -1.56214313E-07 0.24867028
v -0.404186547 -0.167419791 0.161648452
v -0.429082185 -0.0853499547 0.161648452
v -0.437488467 -1.53421567E-07 0.161648452
v -0.380735397 -0.157705992 0.0779708102
v -0.342652828 -0.141931638 0.000852976053
v -0.404186577 -0.0803979039 0.0779708102
v -0.412105113 -1.45150622E-07 0.0779708102
v -0.363758326 -0.0723562017 0.000852976053
v -0.370884806 -1.31719347E-07 0.000852976053
vt 1.27079809 0.775301874
vt 1.3326894 0.775301874
vt 1.29250395 0.665174544
vt 1.23061264 0.665174544
vt 1.20890653 0.775301874
vt 1.25071108 0.555047452
vt 1.16872108 0.665174544
vt 1.14701509 0.775301874
vt 1.18881977 0.555047452
vt 1.2081145 0.444920182
vt 1.10682964 0.665174544
vt 1.08512354 0.775301874
vt 1.12692821 0.555047452
vt 1.14622319 0.444920182
vt 1.15989196 0.334792912
vt 1.04493809 0.665174544
vt 1.02323234 0.775301874
vt 1.06503677 0.555047452
vt 1.08433163 0.444920182
vt 1.09800065 0.334792912
vt 1.10095322 0.224665821
vt 0.98304677 0.665174544
vt 0.961340785 0.775301874
vt 1.00314522 0.555047452
vt 1.0224402 0.444920182
vt 1.03610909 0.334792912
vt 1.0390619 0.224665821
vt 1.05005157 0.114538491
vt 0.921155334 0.665174544
vt 0.899449348 0.775301874
vt 0.941253901 0.555047452
vt 0.960548639 0.444920182
vt 0.974217653 0.334792912
vt 0.977170408 0.224665821
vt 0.988160253 0.114538491
vt 0.993791878 0.00441128016
vt 0.931900561 0.00441128016
vt 0.926268816 0.114538491
vt 0.870009124 0.00441128016
vt 0.915278971 0.224665821
vt 0.864377379 0.114538491
vt 0.808117688 0.00441128016
vt 0.912326097 0.334792912
vt 0.853387415 0.224665821
vt 0.802485824 0.114538491
vt 0.746226132 0.00441128016
vt 0.898657322 0.444920182
vt 0.85043478 0.334792912
vt 0.791496098 0.224665821
vt 0.740594506 0.114538491
vt 0.684334815 0.00441128016
vt 0.879362464 0.555047452
vt 0.836765885 0.444920182
vt 0.788543344 0.334792912
vt 0.729604661 0.224665821
vt 0.67870307 0.114538491
vt 0.622443378 0.00441128016
vt 0.859263897 0.665174544
vt 0.837557912 0.775301874
vt 0.817471027 0.555047452
vt 0.79737246 0.665174544
vt 0.775666416 0.775301874
vt 0.774874449 0.444920182
vt 0.726651907 0.334792912
vt 0.667713225 0.224665821
vt 0.616811633 0.114538491
vt 0.560552001 0.00441128016
vt 0.735480964 0.665174544
vt 0.713775039 0.775301874
vt 0.755579591 0.555047452
vt 0.712983012 0.444920182
vt 0.66476047 0.334792912
vt 0.605821788 0.224665821
vt 0.554920197 0.114538491
vt 0.498660505 0.00441128016
vt 0.673589587 0.665174544
vt 0.651883543 0.775301874
vt 0.693688095 0.555047452
vt 0.651091516 0.444920182
vt 0.602868974 0.334792912
vt 0.543930292 0.224665821
vt 0.493028671 0.114538491
vt 0.436769009 0.00441128016
vt 0.611698091 0.665174544
vt 0.589992166 0.775301874
vt 0.631796718 0.555047452
vt 0.589200139 0.444920182
vt 0.540977597 0.334792912
vt 0.482038885 0.224665821
vt 0.431137294 0.114538491
vt 0.374877632 0.00441128016
vt 0.549806714 0.665174544
vt 0.528100669 0.775301874
vt 0.569905221 0.555047452
vt 0.527308643 0.444920182
vt 0.479086071 0.334792912
vt 0.420147389 0.224665821
vt 0.369245797 0.114538491
vt 0.312986135 0.00441128016
vt 0.487915248 0.665174544
vt 0.466209352 0.775301874
vt 0.508013844 0.555047452
vt 0.465417266 0.444920182
vt 0.417194694 0.334792912
vt 0.358256012 0.224665821
vt 0.30735442 0.114538491
vt 0.251094759 0.00441128016
vt 0.426023871 0.665174544
vt 0.404317975 0.775301874
vt 0.446122348 0.555047452
vt 0.40352577 0.444920182
vt 0.355303198 0.334792912
vt 0.296364516 0.224665821
vt 0.245462924 0.114538491
vt 0.189203262 0.00441128016
vt 0.364132494 0.665174544
vt 0.342426568 0.775301874
vt 0.302241087 0.665174544
vt 0.384230971 0.555047452
vt 0.322339594 0.555047452
vt 0.260448188 0.555047452
vt 0.341634393 0.444920182
vt 0.279743016 0.444920182
vt 0.217851594 0.444920182
vt 0.293411821 0.334792912
vt 0.231520459 0.334792912
vt 0.169629022 0.334792912
vt 0.234473139 0.224665821
vt 0.172581762 0.224665821
vt 0.110690333 0.224665821
vt 0.183571547 0.114538491
vt 0.127311885 0.00441128016
vt 0.12168017 0.114538491
vt 0.0597887337 0.114538491
vt 0.0654205084 0.00441128016
vt 0.00352907181 0.00441128016
vn 0.758157432 -0.150805607 0.634393454
vn 0.770779729 -0.0759141147 0.632562697
vn 0.830547035 -0.0818005577 0.550908685
vn 0.817327499 -0.162575215 0.552761257
vn 0.714168847 -0.295817077 0.634393573
vn 0.920953572 -0.0907045975 0.378968447
vn 0.769905925 -0.318904102 0.552761316
vn 0.642735124 -0.429460704 0.634393454
vn 0.906996846 -0.180411443 0.380537093
vn 0.976467967 -0.0961721689 0.193031207
vn 0.692897201 -0.462977856 0.552761257
vn 0.546601534 -0.546600163 0.634393513
vn 0.854372621 -0.353891224 0.380537093
vn 0.962165713 -0.191385105 0.193930209
vn 0.995184839 -0.0980157927 0
vn 0.589260876 -0.589259326 0.552761257
vn 0.429462314 -0.64273411 0.634393454
vn 0.768915296 -0.513771296 0.380537033
vn 0.906340599 -0.375416994 0.193930238
vn 0.980785549 -0.195088789 0
vn 0.976468086 -0.096172452 -0.193030939
vn 0.462979525 -0.692896008 0.552761197
vn 0.295819014 -0.714168131 0.634393513
vn 0.653908908 -0.65390718 0.380537033
vn 0.815685153 -0.545021892 0.193930253
vn 0.9238801 -0.382681966 0
vn 0.962165713 -0.19138512 -0.19392994
vn 0.920953691 -0.090704754 -0.378968388
vn 0.318906158 -0.76990509 0.552761257
vn 0.150807649 -0.758156955 0.634393513
vn 0.513773143 -0.768913925 0.380537033
vn 0.693683565 -0.693681598 0.193930253
vn 0.83147037 -0.555569112 0
vn 0.906340599 -0.375416934 -0.19393
vn 0.906996846 -0.180411443 -0.380537063
vn 0.878613234 -0.0865345895 -0.469628155
vn 0.86497581 -0.172052979 -0.471396416
vn 0.854372621 -0.353891134 -0.380537033
vn 0.814789712 -0.337495476 -0.471396416
vn 0.815685153 -0.545021892 -0.193929985
vn 0.768915176 -0.513771296 -0.380537063
vn 0.733291447 -0.489968389 -0.471396357
vn 0.707107723 -0.707105815 2.65014705E-07
vn 0.693683505 -0.693681717 -0.193930045
vn 0.653908908 -0.65390718 -0.380537063
vn 0.623613477 -0.623611748 -0.471396327
vn 0.545023799 -0.815683782 0.193930149
vn 0.555571139 -0.831469059 2.96334633E-07
vn 0.545023859 -0.815683782 -0.19392997
vn 0.513773203 -0.768913865 -0.380537152
vn 0.489970237 -0.733290255 -0.471396327
vn 0.353893369 -0.854371727 0.380537063
vn 0.375419229 -0.906339586 0.193930149
vn 0.38268438 -0.923879087 2.89106907E-07
vn 0.375419289 -0.906339586 -0.19392994
vn 0.353893369 -0.854371667 -0.380537152
vn 0.337497592 -0.814788818 -0.471396357
vn 0.162577406 -0.817327142 0.552761197
vn 7.00076782E-07 -0.773010314 0.634393454
vn 0.180413797 -0.906996369 0.380536973
vn 7.78657977E-07 -0.833339691 0.552761257
vn -0.150806114 -0.758157253 0.634393632
vn 0.191387653 -0.962165177 0.193930224
vn 0.195091411 -0.980785012 2.8428849E-07
vn 0.191387624 -0.962165177 -0.19392997
vn 0.180413827 -0.906996369 -0.380537122
vn 0.172055274 -0.864975333 -0.471396297
vn -0.162575737 -0.817327499 0.552761257
vn -0.295817643 -0.714168668 0.634393454
vn 8.4225951E-07 -0.924765706 0.380537003
vn 8.42979659E-07 -0.981015325 0.193930209
vn 8.40819382E-07 -1 2.77060821E-07
vn 8.81515973E-07 -0.981015325 -0.19392997
vn 9.14453267E-07 -0.924765706 -0.380537033
vn 9.11116103E-07 -0.88192147 -0.471396327
vn -0.318904638 -0.769905686 0.552761316
vn -0.429461062 -0.642734945 0.634393454
vn -0.180411994 -0.906996727 0.380536973
vn -0.191385671 -0.962165594 0.193930238
vn -0.195089325 -0.980785429 2.8428849E-07
vn -0.191385657 -0.962165594 -0.19392994
vn -0.18041198 -0.906996727 -0.380537033
vn -0.172053531 -0.864975691 -0.471396357
vn -0.462978244 -0.692896903 0.552761257
vn -0.546600461 -0.546601236 0.634393513
vn -0.35389176 -0.854372442 0.380536973
vn -0.375417441 -0.906340361 0.193930238
vn -0.382682532 -0.923879921 2.98743856E-07
vn -0.375417471 -0.906340361 -0.193929985
vn -0.35389176 -0.854372382 -0.380537122
vn -0.337496102 -0.814789474 -0.471396387
vn -0.589259744 -0.589260519 0.552761257
vn -0.642734408 -0.429461777 0.634393513
vn -0.513771713 -0.768914938 0.380537093
vn -0.545022368 -0.815684855 0.193930209
vn -0.555569708 -0.831469953 3.01153051E-07
vn -0.545022428 -0.815684855 -0.19393
vn -0.513771713 -0.768914819 -0.380537152
vn -0.489968777 -0.733291209 -0.471396416
vn -0.692896426 -0.462978989 0.552761197
vn -0.714168251 -0.295818597 0.634393573
vn -0.653907657 -0.653908491 0.380537033
vn -0.693682194 -0.693683088 0.193930179
vn -0.707106352 -0.707107127 2.86697684E-07
vn -0.693682194 -0.693683088 -0.193929985
vn -0.653907657 -0.653908432 -0.380537152
vn -0.623612225 -0.62361306 -0.471396327
vn -0.769905329 -0.318905622 0.552761257
vn -0.758157015 -0.150807157 0.634393573
vn -0.768914342 -0.513772607 0.380537003
vn -0.815684199 -0.545023203 0.193930179
vn -0.831469357 -0.555570543 2.98743828E-07
vn -0.815684199 -0.545023382 -0.19392997
vn -0.768914282 -0.513772607 -0.380537122
vn -0.733290613 -0.489969671 -0.471396327
vn -0.817327142 -0.162576869 0.552761197
vn -0.77077955 -0.0759155154 0.632562876
vn -0.830546796 -0.0818020478 0.550908864
vn -0.854372025 -0.353892893 0.380537033
vn -0.906996548 -0.180413246 0.380536973
vn -0.920953512 -0.0907063559 0.378968358
vn -0.906339765 -0.375418693 0.193930224
vn -0.962165236 -0.191386998 0.193930224
vn -0.976467848 -0.0961741135 0.193031237
vn -0.923879445 -0.382683843 3.03562302E-07
vn -0.980785251 -0.195090726 2.81879238E-07
vn -0.99518472 -0.0980175808 2.78124304E-07
vn -0.906339884 -0.375418723 -0.19393
vn -0.962165356 -0.191387013 -0.19393003
vn -0.976467848 -0.0961741805 -0.193031073
vn -0.854371905 -0.353892833 -0.380537093
vn -0.814789057 -0.337497085 -0.471396327
vn -0.906996489 -0.180413231 -0.380537063
vn -0.920953512 -0.0907064974 -0.378968388
vn -0.864975512 -0.172054723 -0.471396357
vn -0.878613114 -0.0865362659 -0.469628036
g Sphere001_0
f 3/3/3 2/2/2 1/1/1
f 4/4/4 3/3/3 1/1/1
f 4/4/4 1/1/1 5/5/5
f 6/6/6 3/3/3 4/4/4
f 7/7/7 4/4/4 5/5/5
f 7/7/7 5/5/5 8/8/8
f 9/9/9 6/6/6 4/4/4
f 9/9/9 4/4/4 7/7/7
f 10/10/10 6/6/6 9/9/9
f 11/11/11 7/7/7 8/8/8
f 11/11/11 8/8/8 12/12/12
f 13/13/13 9/9/9 7/7/7
f 13/13/13 7/7/7 11/11/11
f 14/14/14 10/10/10 9/9/9
f 14/14/14 9/9/9 13/13/13
f 15/15/15 10/10/10 14/14/14
f 16/16/16 11/11/11 12/12/12
f 16/16/16 12/12/12 17/17/17
f 18/18/18 13/13/13 11/11/11
f 18/18/18 11/11/11 16/16/16
f 19/19/19 14/14/14 13/13/13
f 19/19/19 13/13/13 18/18/18
f 20/20/20 15/15/15 14/14/14
f 20/20/20 14/14/14 19/19/19
f 21/21/21 15/15/15 20/20/20
f 22/22/22 16/16/16 17/17/17
f 22/22/22 17/17/17 23/23/23
f 24/24/24 18/18/18 16/16/16
f 24/24/24 16/16/16 22/22/22
f 25/25/25 19/19/19 18/18/18
f 25/25/25 18/18/18 24/24/24
f 26/26/26 20/20/20 19/19/19
f 26/26/26 19/19/19 25/25/25
f 27/27/27 21/21/21 20/20/20
f 27/27/27 20/20/20 26/26/26
f 28/28/28 21/21/21 27/27/27
f 29/29/29 22/22/22 23/23/23
f 29/29/29 23/23/23 30/30/30
f 31/31/31 24/24/24 22/22/22
f 31/31/31 22/22/22 29/29/29
f 32/32/32 25/25/25 24/24/24
f 32/32/32 24/24/24 31/31/31
f 33/33/33 26/26/26 25/25/25
f 33/33/33 25/25/25 32/32/32
f 34/34/34 27/27/27 26/26/26
f 34/34/34 26/26/26 33/33/33
f 35/35/35 28/28/28 27/27/27
f 35/35/35 27/27/27 34/34/34
f 36/36/36 28/28/28 35/35/35
f 37/37/37 36/36/36 35/35/35
f 37/37/37 35/35/35 38/38/38
f 38/38/38 35/35/35 34/34/34
f 39/39/39 37/37/37 38/38/38
f 40/40/40 34/34/34 33/33/33
f 38/38/38 34/34/34 40/40/40
f 39/39/39 38/38/38 41/41/41
f 41/41/41 38/38/38 40/40/40
f 42/42/42 39/39/39 41/41/41
f 43/43/43 33/33/33 32/32/32
f 40/40/40 33/33/33 43/43/43
f 41/41/41 40/40/40 44/44/44
f 44/44/44 40/40/40 43/43/43
f 42/42/42 41/41/41 45/45/45
f 45/45/45 41/41/41 44/44/44
f 46/46/46 42/42/42 45/45/45
f 43/43/43 32/32/32 47/47/47
f 47/47/47 32/32/32 31/31/31
f 44/44/44 43/43/43 48/48/48
f 48/48/48 43/43/43 47/47/47
f 45/45/45 44/44/44 49/49/49
f 49/49/49 44/44/44 48/48/48
f 46/46/46 45/45/45 50/50/50
f 50/50/50 45/45/45 49/49/49
f 51/51/51 46/46/46 50/50/50
f 47/47/47 31/31/31 52/52/52
f 52/52/52 31/31/31 29/29/29
f 48/48/48 47/47/47 53/53/53
f 53/53/53 47/47/47 52/52/52
f 49/49/49 48/48/48 54/54/54
f 54/54/54 48/48/48 53/53/53
f 50/50/50 49/49/49 55/55/55
f 55/55/55 49/49/49 54/54/54
f 51/51/51 50/50/50 56/56/56
f 56/56/56 50/50/50 55/55/55
f 57/57/57 51/51/51 56/56/56
f 52/52/52 29/29/29 58/58/58
f 58/58/58 29/29/29 30/30/30
f 58/58/58 30/30/30 59/59/59
f 53/53/53 52/52/52 60/60/60
f 60/60/60 52/52/52 58/58/58
f 61/61/61 58/58/58 59/59/59
f 60/60/60 58/58/58 61/61/61
f 61/61/61 59/59/59 62/62/62
f 54/54/54 53/53/53 63/63/63
f 63/63/63 53/53/53 60/60/60
f 55/55/55 54/54/54 64/64/64
f 64/64/64 54/54/54 63/63/63
f 56/56/56 55/55/55 65/65/65
f 65/65/65 55/55/55 64/64/64
f 57/57/57 56/56/56 66/66/66
f 66/66/66 56/56/56 65/65/65
f 67/67/67 57/57/57 66/66/66
f 68/68/68 61/61/61 62/62/62
f 68/68/68 62/62/62 69/69/69
f 70/70/70 60/60/60 61/61/61
f 63/63/63 60/60/60 70/70/70
f 70/70/70 61/61/61 68/68/68
f 64/64/64 63/63/63 71/71/71
f 71/71/71 63/63/63 70/70/70
f 65/65/65 64/64/64 72/72/72
f 72/72/72 64/64/64 71/71/71
f 66/66/66 65/65/65 73/73/73
f 73/73/73 65/65/65 72/72/72
f 67/67/67 66/66/66 74/74/74
f 74/74/74 66/66/66 73/73/73
f 75/75/75 67/67/67 74/74/74
f 76/76/76 68/68/68 69/69/69
f 76/76/76 69/69/69 77/77/77
f 78/78/78 70/70/70 68/68/68
f 71/71/71 70/70/70 78/78/78
f 78/78/78 68/68/68 76/76/76
f 72/72/72 71/71/71 79/79/79
f 79/79/79 71/71/71 78/78/78
f 73/73/73 72/72/72 80/80/80
f 80/80/80 72/72/72 79/79/79
f 74/74/74 73/73/73 81/81/81
f 81/81/81 73/73/73 80/80/80
f 75/75/75 74/74/74 82/82/82
f 82/82/82 74/74/74 81/81/81
f 83/83/83 75/75/75 82/82/82
f 84/84/84 76/76/76 77/77/77
f 84/84/84 77/77/77 85/85/85
f 86/86/86 78/78/78 76/76/76
f 79/79/79 78/78/78 86/86/86
f 86/86/86 76/76/76 84/84/84
f 80/80/80 79/79/79 87/87/87
f 87/87/87 79/79/79 86/86/86
f 81/81/81 80/80/80 88/88/88
f 88/88/88 80/80/80 87/87/87
f 82/82/82 81/81/81 89/89/89
f 89/89/89 81/81/81 88/88/88
f 83/83/83 82/82/82 90/90/90
f 90/90/90 82/82/82 89/89/89
f 91/91/91 83/83/83 90/90/90
f 92/92/92 84/84/84 85/85/85
f 92/92/92 85/85/85 93/93/93
f 94/94/94 86/86/86 84/84/84
f 87/87/87 86/86/86 94/94/94
f 94/94/94 84/84/84 92/92/92
f 88/88/88 87/87/87 95/95/95
f 95/95/95 87/87/87 94/94/94
f 89/89/89 88/88/88 96/96/96
f 96/96/96 88/88/88 95/95/95
f 90/90/90 89/89/89 97/97/97
f 97/97/97 89/89/89 96/96/96
f 91/91/91 90/90/90 98/98/98
f 98/98/98 90/90/90 97/97/97
f 99/99/99 91/91/91 98/98/98
f 100/100/100 92/92/92 93/93/93
f 100/100/100 93/93/93 101/101/101
f 102/102/102 94/94/94 92/92/92
f 95/95/95 94/94/94 102/102/102
f 102/102/102 92/92/92 100/100/100
f 96/96/96 95/95/95 103/103/103
f 103/103/103 95/95/95 102/102/102
f 97/97/97 96/96/96 104/104/104
f 104/104/104 96/96/96 103/103/103
f 98/98/98 97/97/97 105/105/105
f 105/105/105 97/97/97 104/104/104
f 99/99/99 98/98/98 106/106/106
f 106/106/106 98/98/98 105/105/105
f 107/107/107 99/99/99 106/106/106
f 108/108/108 100/100/100 101/101/101
f 108/108/108 101/101/101 109/109/109
f 110/110/110 102/102/102 100/100/100
f 103/103/103 102/102/102 110/110/110
f 110/110/110 100/100/100 108/108/108
f 104/104/104 103/103/103 111/111/111
f 111/111/111 103/103/103 110/110/110
f 105/105/105 104/104/104 112/112/112
f 112/112/112 104/104/104 111/111/111
f 106/106/106 105/105/105 113/113/113
f 113/113/113 105/105/105 112/112/112
f 107/107/107 106/106/106 114/114/114
f 114/114/114 106/106/106 113/113/113
f 115/115/115 107/107/107 114/114/114
f 116/116/116 108/108/108 109/109/109
f 116/116/116 109/109/109 117/117/117
f 118/118/118 116/116/116 117/117/117
f 119/119/119 110/110/110 108/108/108
f 111/111/111 110/110/110 119/119/119
f 119/119/119 108/108/108 116/116/116
f 120/120/120 116/116/116 118/118/118
f 120/120/120 119/119/119 116/116/116
f 121/121/121 120/120/120 118/118/118
f 122/122/122 111/111/111 119/119/119
f 122/122/122 119/119/119 120/120/120
f 112/112/112 111/111/111 122/122/122
f 123/123/123 120/120/120 121/121/121
f 123/123/123 122/122/122 120/120/120
f 124/124/124 123/123/123 121/121/121
f 125/125/125 112/112/112 122/122/122
f 125/125/125 122/122/122 123/123/123
f 113/113/113 112/112/112 125/125/125
f 126/126/126 123/123/123 124/124/124
f 126/126/126 125/125/125 123/123/123
f 127/127/127 126/126/126 124/124/124
f 128/128/128 113/113/113 125/125/125
f 128/128/128 125/125/125 126/126/126
f 114/114/114 113/113/113 128/128/128
f 129/129/129 126/126/126 127/127/127
f 129/129/129 128/128/128 126/126/126
f 130/130/130 129/129/129 127/127/127
f 131/131/131 114/114/114 128/128/128
f 131/131/131 128/128/128 129/129/129
f 115/115/115 114/114/114 131/131/131
f 132/132/132 115/115/115 131/131/131
f 133/133/133 129/129/129 130/130/130
f 133/133/133 131/131/131 129/129/129
f 132/132/132 131/131/131 133/133/133
f 134/134/134 133/133/133 130/130/130
f 135/135/135 132/132/132 133/133/133
f 135/135/135 133/133/133 134/134/134
f 136/136/136 135/135/135 134/134/134
