g Plane002
v 0.114299998 0.126707435 0
v 0.139699996 0.634707451 0
v 0.139699996 0.126707435 0
v 0.114299998 0.634707451 0
v -0.13335 0.622592568 0
v 0.13335 0.647992551 0
v 0.13335 0.622592568 0
v -0.13335 0.647992551 0
v -0.139699996 0.126707435 0
v -0.114299998 0.634707451 0
v -0.114299998 0.126707435 0
v -0.139699996 0.634707451 0
v -0.127000004 0.114007428 0
v -0.63499999 0.139407426 0
v -0.127000004 0.139407426 0
v -0.63499999 0.114007428 0
v -0.622299969 -0.133642569 0
v -0.647700012 0.13305743 0
v -0.622299969 0.13305743 0
v -0.647700012 -0.133642569 0
v -0.127000004 -0.139992565 0
v -0.63499999 -0.114592567 0
v -0.127000004 -0.114592567 0
v -0.63499999 -0.139992565 0
v -0.11430002 -0.127292573 0
v -0.139699981 -0.63529259 0
v -0.139700025 -0.127292573 0
v -0.114299975 -0.63529259 0
v 0.139699981 -0.127292573 0
v 0.11430002 -0.63529259 0
v 0.114299975 -0.127292573 0
v 0.139700025 -0.63529259 0
v 0.127000004 -0.114592567 0
v 0.63499999 -0.139992565 0
v 0.127000004 -0.139992565 0
v 0.63499999 -0.114592567 0
v 0.622299969 0.13305743 0
v 0.647700012 -0.133642569 0
v 0.622299969 -0.133642569 0
v 0.647700012 0.13305743 0
v 0.127000004 0.139407426 0
v 0.63499999 0.114007428 0
v 0.127000004 0.114007428 0
v 0.63499999 0.139407426 0
v 0.13335 -0.622592568 0
v -0.13335 -0.647992551 0
v -0.13335 -0.622592568 0
v 0.13335 -0.647992551 0
vt 0 0
vt 1 1
vt 1 0
vt 0 1
vt -1.1920929E-07 1
vt 1 5.96046448E-08
vt -4.37113883E-08 0
vt 0.999999881 1.00000012
vt 0 0
vt 1 1
vt 1 0
vt 0 1
vt 0 0
vt 1 1
vt 1 0
vt 0 1
vt -1.78813934E-07 1.00000012
vt 0.99999994 1.78813934E-07
vt -1.03316033E-07 1.1920929E-07
vt 0.999999821 1.00000024
vt 0 0
vt 1 1
vt 1 0
vt 0 1
vt 0 0
vt 1 1
vt 1 0
vt 0 1
vt 0 0
vt 1 1
vt 1 0
vt 0 1
vt 0 0
vt 1 1
vt 1 0
vt 0 1
vt -1.78813934E-07 1.00000012
vt 0.99999994 1.78813934E-07
vt -1.03316033E-07 1.1920929E-07
vt 0.999999821 1.00000024
vt 0 0
vt 1 1
vt 1 0
vt 0 1
vt -1.78813934E-07 1.00000012
vt 0.99999994 1.78813934E-07
vt -1.03316033E-07 1.1920929E-07
vt 0.999999821 1.00000024
vn -0 0 1
vn -0 0 1
vn -0 0 1
vn -0 0 1
vn -0 0 1
vn -0 0 1
vn -0 0 1
vn -0 0 1
vn -0 0 1
vn -0 0 1
vn -0 0 1
vn -0 0 1
vn -0 0 1
vn -0 0 1
vn -0 0 1
vn -0 0 1
vn -0 0 1
vn -0 0 1
vn -0 0 1
vn -0 0 1
vn -0 0 1
vn -0 0 1
vn -0 0 1
vn -0 0 1
vn -0 0 1
vn -0 0 1
vn -0 0 1
vn -0 0 1
vn -0 0 1
vn -0 0 1
vn -0 0 1
vn -0 0 1
vn -0 0 1
vn -0 0 1
vn -0 0 1
vn -0 0 1
vn -0 0 1
vn -0 0 1
vn -0 0 1
vn -0 0 1
vn -0 0 1
vn -0 0 1
vn -0 0 1
vn -0 0 1
vn -0 0 1
vn -0 0 1
vn -0 0 1
vn -0 0 1
g Plane002_0
f 3/3/3 2/2/2 1/1/1
f 4/4/4 1/1/1 2/2/2
f 7/7/7 6/6/6 5/5/5
f 8/8/8 5/5/5 6/6/6
f 11/11/11 10/10/10 9/9/9
f 12/12/12 9/9/9 10/10/10
f 15/15/15 14/14/14 13/13/13
f 16/16/16 13/13/13 14/14/14
f 19/19/19 18/18/18 17/17/17
f 20/20/20 17/17/17 18/18/18
f 23/23/23 22/22/22 21/21/21
f 24/24/24 21/21/21 22/22/22
f 27/27/27 26/26/26 25/25/25
f 28/28/28 25/25/25 26/26/26
f 31/31/31 30/30/30 29/29/29
f 32/32/32 29/29/29 30/30/30
f 35/35/35 34/34/34 33/33/33
f 36/36/36 33/33/33 34/34/34
f 39/39/39 38/38/38 37/37/37
f 40/40/40 37/37/37 38/38/38
f 43/43/43 42/42/42 41/41/41
f 44/44/44 41/41/41 42/42/42
f 47/47/47 46/46/46 45/45/45
f 48/48/48 45/45/45 46/46/46
