g Cone001
v 0.2109496 0.0332915969 0
v 0.19776395 0.0625996739 0.0294788331
v 0.205258459 0.0664964542 0
v 0.196772665 0.0304943826 0.0294788331
v 0.212880746 -0.000503757037 0
v 0.194030359 0.0612021685 0.0589576699
v 0.193855375 -0.000344344036 0.0294788331
v 0.210233167 -0.0337521657 0
v 0.18991144 0.028422894 0.0589576699
v 0.188309774 0.0602423847 0.0884364992
v 0.19081594 -0.0308888983 0.0294788331
v 0.202595681 -0.0660139471 0
v 0.182485461 0.00139490305 0.0589576662
v 0.184855357 0.0294233933 0.0884364992
v 0.184963599 0.0594201349 0.117915325
v 0.183533892 -0.0603658222 0.0294788331
v 0.189873576 -0.0966848284 0
v 0.175885201 -0.0267507806 0.0589576662
v 0.175469801 0.00247095665 0.0884364992
v 0.18068929 0.0294302888 0.117915325
v 0.17942898 0.0586321913 0.14739415
v 0.175665438 0.0295031331 0.14739415
v 0.168979436 0.00436304044 0.117915325
v 0.164036825 0.00516603235 0.14739415
v 0.171907231 -0.0879879668 0.0294788331
v 0.172308028 -0.125126362 0
v 0.166443914 -0.053443417 0.0589576662
v 0.165904999 -0.0230254792 0.0884364992
v 0.156756744 -0.0177675914 0.11791531
v 0.149875507 -0.0135478349 0.14739415
v 0.156179771 -0.113167062 0.0294788331
v 0.150537491 -0.150536969 0
v 0.155422688 -0.0786303505 0.0589576662
v 0.154961348 -0.0465830415 0.0884364992
v 0.143300265 -0.0386372916 0.117915325
v 0.135468483 -0.0311185066 0.14739415
v 0.136431485 -0.135712236 0.0294788331
v 0.125134945 -0.172232866 0
v 0.140699491 -0.101523787 0.0589576662
v 0.140057519 -0.0682767257 0.0884364992
v 0.127181858 -0.0580062941 0.117915332
v 0.119241394 -0.0489532985 0.14739415
v 0.113121696 -0.155207202 0.0294788331
v 0.0966511592 -0.189687818 0
v 0.122724734 -0.121597834 0.0589576662
v 0.126510948 -0.0888165906 0.0884364992
v 0.113286816 -0.0761668831 0.117915332
v 0.102698058 -0.0648819506 0.14739415
v 0.087144956 -0.170972571 0.0294788331
v 0.0657875016 -0.202472031 0
v 0.059297733 -0.182498664 0.0294788331
v 0.101953387 -0.138480008 0.0589576662
v 0.110024557 -0.106843039 0.0884364992
v 0.0980224311 -0.0916035548 0.117915332
v 0.0875136554 -0.0775759518 0.14739415
v 0.0785663426 -0.15220122 0.0589576662
v 0.0531656444 -0.16248709 0.0589576662
v 0.0910785571 -0.121986501 0.0884364992
v 0.0808980241 -0.104672991 0.117915332
v 0.0709507465 -0.0874218941 0.14739415
v 0.0701864362 -0.133952245 0.0884364992
v 0.0478273444 -0.142565861 0.0884364992
v 0.0623432472 -0.115221128 0.117915332
v 0.0544987507 -0.0959597006 0.14739415
v 0.0425512977 -0.12283121 0.117915332
v 0.037561167 -0.102495097 0.14739415
vt 0.516047835 0
vt 0.573416829 0.199999988
vt 0.573416829 0
vt 0.516047835 0.199999988
vt 0.458678842 0
vt 0.573416829 0.400000006
vt 0.458678842 0.199999988
vt 0.401310563 0
vt 0.516047835 0.400000006
vt 0.573416829 0.600000024
vt 0.401310563 0.199999988
vt 0.34394145 0
vt 0.458678842 0.400000006
vt 0.516047835 0.600000024
vt 0.573416829 0.800000012
vt 0.343941569 0.199999988
vt 0.286572456 0
vt 0.401310563 0.400000006
vt 0.458678842 0.600000024
vt 0.516047835 0.800000012
vt 0.573416829 1
vt 0.516047835 1
vt 0.458678842 0.800000012
vt 0.458678842 1
vt 0.286572456 0.199999988
vt 0.229203582 0
vt 0.34394145 0.400000006
vt 0.401310563 0.600000024
vt 0.401310563 0.800000012
vt 0.401310563 1
vt 0.229203582 0.199999988
vt 0.17183435 0
vt 0.286572456 0.400000006
vt 0.34394145 0.600000024
vt 0.34394145 0.800000012
vt 0.34394145 1
vt 0.17183435 0.199999988
vt 0.114465356 0
vt 0.229203582 0.400000006
vt 0.286572456 0.600000024
vt 0.286572456 0.800000012
vt 0.286572456 1
vt 0.114465356 0.199999988
vt 0.0570963621 0
vt 0.17183435 0.400000006
vt 0.229203582 0.600000024
vt 0.229203582 0.800000012
vt 0.229203582 1
vt 0.0570963621 0.199999988
vt -0.000272631645 0
vt -0.000272631645 0.199999988
vt 0.114465356 0.400000006
vt 0.171834469 0.600000024
vt 0.17183435 0.800000012
vt 0.171834469 1
vt 0.0570963621 0.400000006
vt -0.000272631645 0.400000006
vt 0.114465356 0.600000024
vt 0.114465356 0.800000012
vt 0.114465594 1
vt 0.0570963621 0.600000024
vt -0.000272631645 0.600000024
vt 0.0570963621 0.800000012
vt 0.0570963621 1
vt -0.000272631645 0.800000012
vt -0.000272631645 1
vn 0.917209268 0.058566913 0.39407739
vn 0.969268501 0.0227913093 0.244947061
vn 0.950853765 0.162971601 0.263282001
vn 0.940949261 -0.0536695309 0.334266305
vn 0.855994105 -0.0391815454 0.515498579
vn 0.979373217 -0.0976516381 0.176896006
vn 0.892420471 -0.10387934 0.439083904
vn 0.823901534 -0.13299498 0.550907016
vn 0.961346865 -0.168830469 0.217505142
vn 0.98285532 -0.113788359 0.145078331
vn 0.850954592 -0.159615457 0.500399053
vn 0.789573193 -0.256637841 0.557414651
vn 0.924573183 -0.228443146 0.304923326
vn 0.96392715 -0.213550046 0.158873588
vn 0.979795814 -0.131692886 0.15052247
vn 0.797406733 -0.274040133 0.53762871
vn 0.737413049 -0.378051698 0.559731126
vn 0.878036976 -0.261182159 0.401042461
vn 0.916216075 -0.327815384 0.230401888
vn 0.94971323 -0.267398894 0.162918806
vn 0.975931644 -0.132630467 0.173108846
vn 0.945381463 -0.281692475 0.164021686
vn 0.879077077 -0.429575324 0.206611991
vn 0.853086472 -0.485544145 0.191024691
vn 0.740623951 -0.385588259 0.550270736
vn 0.667256594 -0.488650322 0.562129319
vn 0.820501566 -0.332961291 0.464665473
vn 0.86764884 -0.368707031 0.333527386
vn 0.818548203 -0.489538789 0.300550431
vn 0.76670593 -0.573972583 0.287606418
vn 0.667158425 -0.495514691 0.55620575
vn 0.579574466 -0.583919287 0.568446875
vn 0.744039953 -0.416136146 0.522719085
vn 0.788306177 -0.442171425 0.427852511
vn 0.741819382 -0.547358751 0.387430549
vn 0.713720083 -0.604547799 0.353730917
vn 0.577937543 -0.590818942 0.562957585
vn 0.478949755 -0.662808537 0.575579703
vn 0.666279852 -0.508332431 0.545590758
vn 0.712916791 -0.488555074 0.503054261
vn 0.70583868 -0.560539365 0.433113724
vn 0.674957335 -0.61803484 0.403070301
vn 0.477376461 -0.668846428 0.56987381
vn 0.369340092 -0.72657299 0.579378545
vn 0.574700117 -0.602894843 0.553387284
vn 0.666215122 -0.52468729 0.529962838
vn 0.65224725 -0.580497146 0.487438887
vn 0.597177565 -0.6426965 0.479916722
vn 0.368135303 -0.730084717 0.575719237
vn 0.311934918 -0.75332427 0.578963757
vn 0.311163604 -0.75507164 0.577099621
vn 0.472625256 -0.67978853 0.560814619
vn 0.569926858 -0.612508357 0.547738016
vn 0.558362842 -0.641882658 0.525564134
vn 0.504992604 -0.68272543 0.528079867
vn 0.363654852 -0.738216519 0.56814754
vn 0.305539817 -0.761312544 0.571881711
vn 0.465483934 -0.686327994 0.558818936
vn 0.453438193 -0.698120832 0.554094851
vn 0.405714184 -0.718521416 0.564909697
vn 0.354990602 -0.74407059 0.565986454
vn 0.29547891 -0.76724261 0.569237173
vn 0.349725753 -0.744127035 0.569180906
vn 0.336315781 -0.745013714 0.576060951
vn 0.294592917 -0.765779138 0.57166183
vn 0.294280589 -0.762677908 0.57595247
g Cone001_0
f 3/3/3 2/2/2 1/1/1
f 2/2/2 4/4/4 1/1/1
f 1/1/1 4/4/4 5/5/5
f 2/2/2 6/6/6 4/4/4
f 4/4/4 7/7/7 5/5/5
f 5/5/5 7/7/7 8/8/8
f 6/6/6 9/9/9 4/4/4
f 4/4/4 9/9/9 7/7/7
f 6/6/6 10/10/10 9/9/9
f 7/7/7 11/11/11 8/8/8
f 8/8/8 11/11/11 12/12/12
f 9/9/9 13/13/13 7/7/7
f 7/7/7 13/13/13 11/11/11
f 10/10/10 14/14/14 9/9/9
f 9/9/9 14/14/14 13/13/13
f 10/10/10 15/15/15 14/14/14
f 11/11/11 16/16/16 12/12/12
f 12/12/12 16/16/16 17/17/17
f 13/13/13 18/18/18 11/11/11
f 11/11/11 18/18/18 16/16/16
f 14/14/14 19/19/19 13/13/13
f 13/13/13 19/19/19 18/18/18
f 15/15/15 20/20/20 14/14/14
f 14/14/14 20/20/20 19/19/19
f 15/15/15 21/21/21 20/20/20
f 21/21/21 22/22/22 20/20/20
f 20/20/20 22/22/22 23/23/23
f 20/20/20 23/23/23 19/19/19
f 22/22/22 24/24/24 23/23/23
f 16/16/16 25/25/25 17/17/17
f 17/17/17 25/25/25 26/26/26
f 18/18/18 27/27/27 16/16/16
f 16/16/16 27/27/27 25/25/25
f 19/19/19 28/28/28 18/18/18
f 19/19/19 23/23/23 28/28/28
f 18/18/18 28/28/28 27/27/27
f 23/23/23 24/24/24 29/29/29
f 23/23/23 29/29/29 28/28/28
f 24/24/24 30/30/30 29/29/29
f 25/25/25 31/31/31 26/26/26
f 26/26/26 31/31/31 32/32/32
f 27/27/27 33/33/33 25/25/25
f 25/25/25 33/33/33 31/31/31
f 28/28/28 34/34/34 27/27/27
f 28/28/28 29/29/29 34/34/34
f 27/27/27 34/34/34 33/33/33
f 29/29/29 30/30/30 35/35/35
f 29/29/29 35/35/35 34/34/34
f 30/30/30 36/36/36 35/35/35
f 31/31/31 37/37/37 32/32/32
f 32/32/32 37/37/37 38/38/38
f 33/33/33 39/39/39 31/31/31
f 31/31/31 39/39/39 37/37/37
f 34/34/34 40/40/40 33/33/33
f 34/34/34 35/35/35 40/40/40
f 33/33/33 40/40/40 39/39/39
f 35/35/35 36/36/36 41/41/41
f 35/35/35 41/41/41 40/40/40
f 36/36/36 42/42/42 41/41/41
f 37/37/37 43/43/43 38/38/38
f 38/38/38 43/43/43 44/44/44
f 39/39/39 45/45/45 37/37/37
f 37/37/37 45/45/45 43/43/43
f 40/40/40 46/46/46 39/39/39
f 40/40/40 41/41/41 46/46/46
f 39/39/39 46/46/46 45/45/45
f 41/41/41 42/42/42 47/47/47
f 41/41/41 47/47/47 46/46/46
f 42/42/42 48/48/48 47/47/47
f 43/43/43 49/49/49 44/44/44
f 44/44/44 49/49/49 50/50/50
f 49/49/49 51/51/51 50/50/50
f 45/45/45 52/52/52 43/43/43
f 43/43/43 52/52/52 49/49/49
f 46/46/46 53/53/53 45/45/45
f 46/46/46 47/47/47 53/53/53
f 45/45/45 53/53/53 52/52/52
f 47/47/47 48/48/48 54/54/54
f 47/47/47 54/54/54 53/53/53
f 48/48/48 55/55/55 54/54/54
f 49/49/49 56/56/56 51/51/51
f 52/52/52 56/56/56 49/49/49
f 56/56/56 57/57/57 51/51/51
f 53/53/53 58/58/58 52/52/52
f 53/53/53 54/54/54 58/58/58
f 52/52/52 58/58/58 56/56/56
f 54/54/54 55/55/55 59/59/59
f 54/54/54 59/59/59 58/58/58
f 55/55/55 60/60/60 59/59/59
f 56/56/56 61/61/61 57/57/57
f 58/58/58 61/61/61 56/56/56
f 58/58/58 59/59/59 61/61/61
f 61/61/61 62/62/62 57/57/57
f 59/59/59 60/60/60 63/63/63
f 59/59/59 63/63/63 61/61/61
f 61/61/61 63/63/63 62/62/62
f 60/60/60 64/64/64 63/63/63
f 63/63/63 65/65/65 62/62/62
f 63/63/63 64/64/64 65/65/65
f 64/64/64 66/66/66 65/65/65
