g 11
v -0.0155262398 -0.0119833751 0
v 0.015676802 -0.00618293835 0
v 0.015678471 -0.0119467881 0
v -0.0109069059 -0.0103455056 0
v -0.0154348193 -0.0103232963 0
v -0.0108872019 -0.00839504693 0
v 0.0152032627 -0.00615396677 0
v -0.0112781627 -0.00377171626 0
v -0.0113120945 -0.00838685594 0
v -0.0125930989 0.00956797693 0
v -0.011747295 0.000287663366 0
v -0.0117498767 -0.00385953719 0
v -0.0125892414 0.000250874931 0
v 0.0145508954 -0.00371904159 0
v 0.0152071109 -0.00376997329 0
v 0.0138125457 0.000350976334 0
v 0.0145869348 0.000341723033 0
v 0.0137483003 0.00961541757 0
vt 0.0300018191 0.0282135624
vt 0.97455585 0.256577224
vt 0.974606454 0.0296539962
vt 0.169834673 0.0926966295
vt 0.0327692218 0.0935710147
vt 0.170431137 0.169486344
vt 0.960221291 0.257717848
vt 0.158596292 0.351507217
vt 0.157569125 0.169808805
vt 0.118791558 0.876691997
vt 0.144395083 0.5113253
vt 0.144316912 0.3480497
vt 0.118908331 0.509876907
vt 0.940473318 0.353581041
vt 0.960337758 0.351575851
vt 0.91812253 0.513817906
vt 0.941564262 0.513453662
vt 0.916177809 0.878559768
vn -0 0 1
vn -0 0 1
vn -0 0 1
vn -0 0 1
vn -0 0 1
vn -0 0 1
vn -0 0 1
vn -0 0 1
vn -0 0 1
vn -0 0 1
vn -0 0 1
vn -0 0 1
vn -0 0 1
vn -0 0 1
vn -0 0 1
vn -0 0 1
vn -0 0 1
vn -0 0 1
g 11_0
f 3/3/3 2/2/2 1/1/1
f 2/2/2 4/4/4 1/1/1
f 4/4/4 5/5/5 1/1/1
f 6/6/6 4/4/4 2/2/2
f 7/7/7 6/6/6 2/2/2
f 8/8/8 6/6/6 7/7/7
f 9/9/9 6/6/6 8/8/8
f 10/10/10 8/8/8 7/7/7
f 11/11/11 8/8/8 10/10/10
f 12/12/12 8/8/8 11/11/11
f 13/13/13 11/11/11 10/10/10
f 14/14/14 10/10/10 7/7/7
f 15/15/15 14/14/14 7/7/7
f 16/16/16 10/10/10 14/14/14
f 17/17/17 16/16/16 14/14/14
f 18/18/18 10/10/10 16/16/16
