g Plane008
v -0.251413256 -0.118341349 -2.83867124E-10
v -0.241480067 -0.0123973293 -2.83867124E-10
v -0.206603035 -0.0301105157 -2.83867124E-10
v -0.286290288 -0.100628182 -2.83867124E-10
v 0.314382613 -0.0777667388 -2.83867124E-10
v 0.223018676 -0.0232190769 -2.83867124E-10
v 0.254014075 0.000644219399 -2.83867124E-10
v 0.283387423 -0.101629987 -2.83867124E-10
v 0.240547985 0.136619702 -0.0211888719
v 0.149839416 0.169887111 0.0233986862
v 0.180286825 0.19164446 0.0347889066
v 0.210100621 0.114862345 -0.0325790904
vt 0 0
vt 1 1
vt 1 0
vt 0 1
vt 0 0
vt 1 1
vt 1 0
vt 0 1
vt 0 0
vt 1 1
vt 1 0
vt 0 1
vn -0 0 1
vn -0 0 1
vn -0 0 1
vn -0 0 1
vn -0 0 1
vn -0 0 1
vn -0 0 1
vn -0 0 1
vn 0.152722895 -0.617615283 0.771509647
vn 0.152722821 -0.617615342 0.771509588
vn 0.152722791 -0.617615402 0.771509588
vn 0.15272291 -0.617615223 0.771509647
g Plane008_0
f 3/3/3 2/2/2 1/1/1
f 4/4/4 1/1/1 2/2/2
f 7/7/7 6/6/6 5/5/5
f 8/8/8 5/5/5 6/6/6
f 11/11/11 10/10/10 9/9/9
f 12/12/12 9/9/9 10/10/10
