g Cone001
v 0.250981778 0.0317063667 0
v 0.209633484 0.0246609803 0.240156457
v 0.20633997 0.0489330478 0.240156457
v 0.245028809 0.06291271 0
v 0.200908497 0.0724334121 0.240156457
v 0.235211655 0.0931268856 0
v 0.193424791 0.0947914571 0.240156457
v 0.221685022 0.121872388 0
v 0.184006795 0.115654573 0.240156457
v 0.204662323 0.148695886 0
v 0.172803089 0.134693772 0.240156457
v 0.184411958 0.173174351 0
v 0.15999034 0.15160875 0.240156457
v 0.161253318 0.194921777 0
v 0.145770624 0.166132778 0.240156457
v 0.135551602 0.213595152 0
v 0.130368173 0.178036824 0.240156457
v 0.10771215 0.228900045 0
v 0.114025913 0.187133059 0.240156457
v 0.0781740174 0.240594998 0
v 0.09700156 0.193278119 0.240156457
v 0.0474030301 0.248495653 0
v 0.0795636103 0.196375087 0.240156457
v 0.0158844646 0.252477348 0
v 0.0158844646 0.252477348 0
v 0.0795636103 0.196375087 0.240156457
v 0.0619870611 0.196375087 0.240156457
v -0.0158846062 0.252477348 0
v 0.0445491113 0.193278119 0.240156457
v -0.0474031679 0.248495609 0
v 0.0275247619 0.187133044 0.240156457
v -0.0781741515 0.240594953 0
v 0.0111825177 0.178036764 0.240156457
v -0.107712254 0.228899971 0
v -0.0042199227 0.166132733 0.240156457
v -0.135551691 0.213595092 0
v -0.0184396543 0.151608691 0.240156457
v -0.161253408 0.194921702 0
v -0.0312523916 0.134693712 0.240156457
v -0.184412062 0.173174277 0
v -0.0424561016 0.115654491 0.240156457
v -0.204662398 0.148695767 0
v -0.0518740751 0.0947913453 0.240156457
v -0.221685097 0.121872239 0
v -0.0593578033 0.0724332854 0.240156457
v -0.235211715 0.0931267217 0
v -0.064789243 0.04893291 0.240156457
v -0.245028868 0.0629125312 0
v -0.0680827424 0.0246608332 0.240156457
v -0.250981778 0.0317061804 0
v -0.0691863745 -1.65678429E-07 0.240156457
v -0.252976537 -2.03058846E-07 0
v -0.06808272 -0.0246611591 0.240156457
v -0.250981718 -0.0317065828 0
v -0.064789176 -0.0489332378 0.240156457
v -0.245028764 -0.0629129335 0
v -0.0593577176 -0.0724336058 0.240156457
v -0.235211551 -0.0931271091 0
v -0.0518739671 -0.0947916508 0.240156457
v -0.221684903 -0.121872604 0
v -0.0424559675 -0.115654781 0.240156457
v -0.204662159 -0.14869611 0
v -0.0312522389 -0.134693936 0.240156457
v -0.184411764 -0.173174575 0
v -0.0184394736 -0.151608914 0.240156457
v -0.16125308 -0.19492197 0
v -0.0042197369 -0.166132897 0.240156457
v -0.135551348 -0.213595331 0
v 0.0111827226 -0.178036898 0.240156457
v -0.107711881 -0.228900164 0
v 0.027524991 -0.187133133 0.240156457
v -0.0781737342 -0.240595087 0
v 0.044549346 -0.193278179 0.240156457
v -0.0474027395 -0.248495713 0
v 0.0619873032 -0.196375087 0.240156457
v -0.0158841722 -0.252477378 0
v 0.0795638487 -0.196375042 0.240156457
v 0.0158849005 -0.252477318 0
v 0.0970017985 -0.193278074 0.240156457
v 0.0474034548 -0.248495579 0
v 0.114026144 -0.18713294 0.240156457
v 0.0781744346 -0.240594864 0
v 0.130368397 -0.178036645 0.240156457
v 0.107712552 -0.228899837 0
v 0.145770833 -0.166132599 0.240156457
v 0.135551974 -0.213594928 0
v 0.159990534 -0.151608557 0.240156457
v 0.161253661 -0.194921508 0
v 0.172803268 -0.134693533 0.240156457
v 0.184412286 -0.173174039 0
v 0.184006959 -0.115654312 0.240156457
v 0.204662606 -0.148695499 0
v 0.19342491 -0.0947911516 0.240156457
v 0.221685275 -0.121871963 0
v 0.200908616 -0.0724330768 0.240156457
v 0.235211819 -0.0931264162 0
v 0.206340015 -0.0489326864 0.240156457
v 0.245028943 -0.0629122257 0
v 0.209633514 -0.0246605966 0.240156457
v 0.250981808 -0.03170586 0
vt 0.769999981 0
vt 0.769999981 1
vt 0.789999962 1
vt 0.789999962 0
vt 0.810000002 1
vt 0.810000002 0
vt 0.829999983 1
vt 0.829999983 0
vt 0.850000024 1
vt 0.850000024 0
vt 0.870000005 1
vt 0.870000005 0
vt 0.890000045 1
vt 0.890000045 0
vt 0.910000026 1
vt 0.910000026 0
vt 0.930000067 1
vt 0.930000067 0
vt 0.950000048 1
vt 0.950000048 0
vt 0.970000029 1
vt 0.970000029 0
vt 0.990000069 1
vt 0.990000069 0
vt -0.00999993086 0
vt -0.00999993086 1
vt 0.0100000799 1
vt 0.0100000799 0
vt 0.0300000869 1
vt 0.0300000869 0
vt 0.0500000939 1
vt 0.0500000939 0
vt 0.0700000674 1
vt 0.0700000674 0
vt 0.0900000706 1
vt 0.0900000706 0
vt 0.110000119 1
vt 0.110000081 0
vt 0.130000085 1
vt 0.130000085 0
vt 0.150000095 1
vt 0.150000095 0
vt 0.170000106 1
vt 0.170000106 0
vt 0.190000132 1
vt 0.190000132 0
vt 0.210000128 1
vt 0.210000128 0
vt 0.230000123 1
vt 0.230000123 0
vt 0.250000119 1
vt 0.250000119 0
vt 0.27000013 1
vt 0.27000013 0
vt 0.29000017 1
vt 0.29000017 0
vt 0.310000181 1
vt 0.310000151 0
vt 0.330000192 1
vt 0.330000162 0
vt 0.350000173 1
vt 0.350000173 0
vt 0.370000213 1
vt 0.370000213 0
vt 0.390000224 1
vt 0.390000194 0
vt 0.410000175 1
vt 0.410000175 0
vt 0.430000186 1
vt 0.430000186 0
vt 0.450000197 1
vt 0.450000197 0
vt 0.470000207 1
vt 0.470000207 0
vt 0.490000218 1
vt 0.490000218 0
vt 0.510000229 1
vt 0.510000229 0
vt 0.53000021 1
vt 0.53000021 0
vt 0.55000025 1
vt 0.55000025 0
vt 0.570000231 1
vt 0.570000231 0
vt 0.590000272 1
vt 0.590000272 0
vt 0.610000312 1
vt 0.610000253 0
vt 0.630000293 1
vt 0.630000293 0
vt 0.650000334 1
vt 0.650000334 0
vt 0.670000315 1
vt 0.670000315 0
vt 0.690000355 1
vt 0.690000355 0
vt 0.710000277 1
vt 0.710000277 0
vt 0.730000257 1
vt 0.730000257 0
vn 0.96909833 0.181429744 0.167127967
vn 0.976159513 0.132456601 0.17195344
vn 0.969128311 0.1787678 0.16980122
vn 0.955962121 0.243338794 0.16408132
vn 0.948735476 0.270102918 0.16415067
vn 0.919145286 0.36127764 0.157004178
vn 0.918557644 0.36306572 0.156317919
vn 0.867713571 0.474163711 0.149137422
vn 0.876836896 0.457658648 0.147328287
vn 0.802115977 0.58011198 0.14170441
vn 0.821368694 0.553303361 0.138596356
vn 0.723095119 0.677203 0.136122987
vn 0.749638855 0.648562133 0.131941617
vn 0.631726623 0.763539672 0.133897617
vn 0.659124672 0.740791857 0.129545614
vn 0.529428482 0.837303162 0.136487484
vn 0.547853649 0.825806141 0.133793235
vn 0.417954266 0.896795988 0.145159289
vn 0.415330112 0.89772588 0.146932557
vn 0.299393535 0.940476358 0.160834223
vn 0.26374355 0.949399769 0.170526952
vn 0.176175714 0.9670192 0.183945805
vn 0.0989940092 0.973784387 0.204803005
vn 0.0510706604 0.975426435 0.214324906
vn 0.0510706604 0.975426435 0.214324906
vn 0.0989940092 0.973784387 0.204803005
vn -0.0693420097 0.966223419 0.248201177
vn -0.072859332 0.965204 0.251143247
vn -0.229855016 0.926629961 0.297528982
vn -0.192405611 0.936569512 0.292946547
vn -0.372461498 0.860000849 0.348813623
vn -0.304472178 0.890611172 0.33779943
vn -0.491075516 0.774667859 0.398415029
vn -0.406406283 0.82930088 0.383528233
vn -0.584291458 0.679465532 0.443767995
vn -0.496301025 0.755311072 0.428007543
vn -0.654232204 0.581547439 0.483510882
vn -0.573165417 0.67166549 0.469411194
vn -0.704775929 0.485582948 0.517204106
vn -0.636904776 0.581332922 0.506363809
vn -0.740136921 0.39398405 0.544953108
vn -0.68813473 0.486884743 0.537971973
vn -0.764078617 0.307523966 0.567109346
vn -0.727907956 0.390287489 0.563760281
vn -0.779613256 0.225939736 0.584084332
vn -0.75743264 0.292847157 0.583554924
vn -0.788967907 0.148376301 0.596250117
vn -0.777837276 0.195271805 0.5973593
vn -0.793655396 0.0736670196 0.603890955
vn -0.790004909 0.0978003815 0.605249822
vn -0.794562221 0.000491914863 0.607182682
vn -0.794471204 0.000359824247 0.607301712
vn -0.792011738 -0.0725345612 0.606181681
vn -0.791371942 -0.0972667858 0.603547633
vn -0.785788476 -0.146808237 0.60081917
vn -0.780430019 -0.195271224 0.593968213
vn -0.775116324 -0.223687187 0.590896547
vn -0.760977924 -0.293655097 0.578514814
vn -0.758594334 -0.304409862 0.576080918
vn -0.73202318 -0.392063409 0.557160974
vn -0.734101355 -0.389944732 0.555912137
vn -0.692367733 -0.489632875 0.529987454
vn -0.698704898 -0.480718106 0.529831648
vn -0.640792608 -0.584882021 0.497290641
vn -0.648659289 -0.576167166 0.497264951
vn -0.576308012 -0.675680518 0.459700972
vn -0.579658687 -0.674099147 0.457805753
vn -0.498434812 -0.759347141 0.418275952
vn -0.487592578 -0.769986928 0.411550224
vn -0.407456189 -0.832891822 0.374527276
vn -0.369997829 -0.85662508 0.359576464
vn -0.304558396 -0.893373668 0.330344915
vn -0.227974698 -0.924864709 0.304389358
vn -0.191796765 -0.938285172 0.287810862
vn -0.0675342456 -0.965904593 0.249934822
vn -0.0718916059 -0.965846956 0.248939946
vn 0.101035208 -0.97440052 0.200836852
vn 0.052073691 -0.975132465 0.215418324
vn 0.266022861 -0.950414658 0.161070898
vn 0.176959932 -0.966017365 0.188402668
vn 0.417674959 -0.898831189 0.132853806
vn 0.299789459 -0.939020574 0.168423682
vn 0.550109029 -0.826947391 0.116353989
vn 0.417866766 -0.895121038 0.155389056
vn 0.661247551 -0.742036641 0.110150784
vn 0.528823614 -0.835610688 0.148661599
vn 0.751665413 -0.649971485 0.111964852
vn 0.630625963 -0.762002349 0.147184879
vn 0.823338509 -0.554875255 0.119278178
vn 0.721576631 -0.675972223 0.149629146
vn 0.878740668 -0.459332377 0.129725128
vn 0.800321102 -0.579312563 0.154541403
vn 0.920319974 -0.36476022 0.141283795
vn 0.865843713 -0.473876804 0.160485327
vn 0.950233579 -0.271751493 0.152339503
vn 0.917439163 -0.36151877 0.166160986
vn 0.970225215 -0.180339992 0.161680117
vn 0.954658926 -0.244042203 0.170498341
vn 0.976615191 -0.136931613 0.165748507
vn 0.967645645 -0.184586436 0.172016904
g Cone001_0
f 3/3/3 2/2/2 1/1/1
f 4/4/4 3/3/3 1/1/1
f 5/5/5 3/3/3 4/4/4
f 6/6/6 5/5/5 4/4/4
f 7/7/7 5/5/5 6/6/6
f 8/8/8 7/7/7 6/6/6
f 9/9/9 7/7/7 8/8/8
f 10/10/10 9/9/9 8/8/8
f 11/11/11 9/9/9 10/10/10
f 12/12/12 11/11/11 10/10/10
f 13/13/13 11/11/11 12/12/12
f 14/14/14 13/13/13 12/12/12
f 15/15/15 13/13/13 14/14/14
f 16/16/16 15/15/15 14/14/14
f 17/17/17 15/15/15 16/16/16
f 18/18/18 17/17/17 16/16/16
f 19/19/19 17/17/17 18/18/18
f 20/20/20 19/19/19 18/18/18
f 21/21/21 19/19/19 20/20/20
f 22/22/22 21/21/21 20/20/20
f 23/23/23 21/21/21 22/22/22
f 24/24/24 23/23/23 22/22/22
f 27/27/27 26/26/26 25/25/25
f 28/28/28 27/27/27 25/25/25
f 29/29/29 27/27/27 28/28/28
f 30/30/30 29/29/29 28/28/28
f 31/31/31 29/29/29 30/30/30
f 32/32/32 31/31/31 30/30/30
f 33/33/33 31/31/31 32/32/32
f 34/34/34 33/33/33 32/32/32
f 35/35/35 33/33/33 34/34/34
f 36/36/36 35/35/35 34/34/34
f 37/37/37 35/35/35 36/36/36
f 38/38/38 37/37/37 36/36/36
f 39/39/39 37/37/37 38/38/38
f 40/40/40 39/39/39 38/38/38
f 41/41/41 39/39/39 40/40/40
f 42/42/42 41/41/41 40/40/40
f 43/43/43 41/41/41 42/42/42
f 44/44/44 43/43/43 42/42/42
f 45/45/45 43/43/43 44/44/44
f 46/46/46 45/45/45 44/44/44
f 47/47/47 45/45/45 46/46/46
f 48/48/48 47/47/47 46/46/46
f 49/49/49 47/47/47 48/48/48
f 50/50/50 49/49/49 48/48/48
f 51/51/51 49/49/49 50/50/50
f 52/52/52 51/51/51 50/50/50
f 53/53/53 51/51/51 52/52/52
f 54/54/54 53/53/53 52/52/52
f 55/55/55 53/53/53 54/54/54
f 56/56/56 55/55/55 54/54/54
f 57/57/57 55/55/55 56/56/56
f 58/58/58 57/57/57 56/56/56
f 59/59/59 57/57/57 58/58/58
f 60/60/60 59/59/59 58/58/58
f 61/61/61 59/59/59 60/60/60
f 62/62/62 61/61/61 60/60/60
f 63/63/63 61/61/61 62/62/62
f 64/64/64 63/63/63 62/62/62
f 65/65/65 63/63/63 64/64/64
f 66/66/66 65/65/65 64/64/64
f 67/67/67 65/65/65 66/66/66
f 68/68/68 67/67/67 66/66/66
f 69/69/69 67/67/67 68/68/68
f 70/70/70 69/69/69 68/68/68
f 71/71/71 69/69/69 70/70/70
f 72/72/72 71/71/71 70/70/70
f 73/73/73 71/71/71 72/72/72
f 74/74/74 73/73/73 72/72/72
f 75/75/75 73/73/73 74/74/74
f 76/76/76 75/75/75 74/74/74
f 77/77/77 75/75/75 76/76/76
f 78/78/78 77/77/77 76/76/76
f 79/79/79 77/77/77 78/78/78
f 80/80/80 79/79/79 78/78/78
f 81/81/81 79/79/79 80/80/80
f 82/82/82 81/81/81 80/80/80
f 83/83/83 81/81/81 82/82/82
f 84/84/84 83/83/83 82/82/82
f 85/85/85 83/83/83 84/84/84
f 86/86/86 85/85/85 84/84/84
f 87/87/87 85/85/85 86/86/86
f 88/88/88 87/87/87 86/86/86
f 89/89/89 87/87/87 88/88/88
f 90/90/90 89/89/89 88/88/88
f 91/91/91 89/89/89 90/90/90
f 92/92/92 91/91/91 90/90/90
f 93/93/93 91/91/91 92/92/92
f 94/94/94 93/93/93 92/92/92
f 95/95/95 93/93/93 94/94/94
f 96/96/96 95/95/95 94/94/94
f 97/97/97 95/95/95 96/96/96
f 98/98/98 97/97/97 96/96/96
f 99/99/99 97/97/97 98/98/98
f 100/100/100 99/99/99 98/98/98
