g Plane003
v -0.1063333 -0.0968844295 0
v -0.106633797 -0.0719788447 0
v -0.154483601 -0.0894138813 0
v -0.154622614 -0.0804249048 0
v -0.113929167 -0.0493012071 0
v -0.1580998 -0.0698734 0
v -0.125789747 -0.0291521326 0
v -0.165568963 -0.0572924316 0
v -0.140584543 -0.0107714841 0
v -0.176885247 -0.0432756282 0
v -0.157284722 0.00653552637 0
v -0.191301554 -0.028351672 0
v -0.175040722 0.023201067 0
v -0.207891613 -0.01278615 0
v -0.193013921 0.0394663662 0
v -0.22571817 0.00334584713 0
v -0.210334465 0.0554437079 0
v -0.243875206 0.020098567 0
v -0.226100057 0.0711328387 0
v -0.261489183 0.0376385227 0
v -0.239401102 0.0863988921 0
v -0.277693629 0.0562668182 0
v -0.249406651 0.100930274 0
v -0.291543812 0.0764615163 0
v -0.255583525 0.114280909 0
v -0.301797032 0.0988351479 0
v -0.257977098 0.126322091 0
v -0.306631923 0.123682611 0
v -0.256789774 0.138626561 0
v -0.304457545 0.148728132 0
v -0.25264582 0.152544618 0
v -0.29815647 0.169952706 0
v -0.246100843 0.166578636 0
v -0.288800746 0.190051526 0
v -0.237227857 0.180601761 0
v -0.276845366 0.208969295 0
v -0.226171434 0.194429606 0
v -0.26267308 0.22670792 0
v -0.213136047 0.207868367 0
v -0.246607304 0.243279278 0
v -0.198365256 0.22073628 0
v -0.228931859 0.258682847 0
v -0.182125703 0.232869849 0
v -0.209907904 0.272899956 0
v -0.164696708 0.244122788 0
v -0.189783961 0.285894662 0
v -0.146364599 0.254363209 0
v -0.168800965 0.29761675 0
v -0.127421185 0.26347065 0
v -0.147195041 0.308004349 0
v -0.108163148 0.271334201 0
v -0.125197172 0.316986173 0
v -0.0888934135 0.277852029 0
v -0.103031866 0.324482143 0
v -0.0699238256 0.282931656 0
v -0.0809151158 0.330402225 0
v -0.0515783727 0.286493659 0
v -0.0590505786 0.334643722 0
v -0.0341971926 0.288478523 0
v -0.0376256146 0.337084085 0
v -0.0179688074 0.288865179 0
v -0.0168763716 0.33757928 0
v -0.0008386767 0.2878097 0
v 0.00391183048 0.336303979 0
v 0.0175076369 0.28538239 0
v 0.0254381523 0.33345899 0
v 0.0367083512 0.281609267 0
v 0.0475014783 0.329125255 0
v 0.0564214401 0.276534826 0
v 0.0698803589 0.323365569 0
v 0.0763182789 0.270214617 0
v 0.0923404321 0.316231459 0
v 0.0960787162 0.262712896 0
v 0.114639014 0.307765901 0
v 0.115387589 0.254101992 0
v 0.136527702 0.298003644 0
v 0.133933559 0.244463757 0
v 0.157754973 0.286970168 0
v 0.151408568 0.233891383 0
v 0.178065985 0.274679154 0
v 0.167509243 0.222493812 0
v 0.197200552 0.261129111 0
v 0.181942672 0.210399047 0
v 0.214888826 0.246299118 0
v 0.194436193 0.197757408 0
v 0.230840117 0.230145901 0
v 0.204756245 0.184737682 0
v 0.244725227 0.212607756 0
v 0.212732852 0.171507597 0
v 0.256150693 0.193624422 0
v 0.218280211 0.158183515 0
v 0.264639348 0.173186526 0
v 0.22084482 0.14574106 0
v 0.2694906 0.148542792 0
v 0.219842538 0.13404724 0
v 0.267402291 0.12344864 0
v 0.21538195 0.121380843 0
v 0.259465367 0.100622348 0
v 0.207295701 0.107422248 0
v 0.247642994 0.0801027194 0
v 0.195938483 0.0924839377 0
v 0.233376592 0.0612966195 0
v 0.182063475 0.076855503 0
v 0.217708588 0.0436337218 0
v 0.166564465 0.0606475808 0
v 0.201541364 0.0267230291 0
v 0.150353953 0.0438110866 0
v 0.185758278 0.0103328358 0
v 0.134331197 0.0261609629 0
v 0.171255812 -0.005632638 0
v 0.119401455 0.00737094041 0
v 0.158924907 -0.0211274158 0
v 0.1065602 -0.0130416695 0
v 0.149565831 -0.0359496586 0
v 0.0970839262 -0.0356328301 0
v 0.143697992 -0.049824018 0
v 0.0927069709 -0.0606090166 0
v 0.141382948 -0.062824674 0
v 0.0950399563 -0.0861118063 0
v 0.142421052 -0.0747411251 0
vt 0 1
vt 0.0169491526 1
vt 0 0
vt 0.0169491526 0
vt 0.0338983051 1
vt 0.0338983051 0
vt 0.0508474559 1
vt 0.0508474559 0
vt 0.0677966103 1
vt 0.0677966103 0
vt 0.0847457647 1
vt 0.0847457647 0
vt 0.101694919 1
vt 0.101694919 0
vt 0.118644074 1
vt 0.118644074 0
vt 0.135593221 1
vt 0.135593221 0
vt 0.152542368 1
vt 0.152542368 0
vt 0.169491515 1
vt 0.169491515 0
vt 0.186440662 1
vt 0.186440662 0
vt 0.203389809 1
vt 0.203389809 0
vt 0.220338956 1
vt 0.220338956 0
vt 0.237288103 1
vt 0.237288103 0
vt 0.254237264 1
vt 0.254237264 0
vt 0.271186411 1
vt 0.271186411 0
vt 0.288135558 1
vt 0.288135558 0
vt 0.305084705 1
vt 0.305084705 0
vt 0.322033852 1
vt 0.322033852 0
vt 0.338982999 1
vt 0.338982999 0
vt 0.355932146 1
vt 0.355932146 0
vt 0.372881293 1
vt 0.372881293 0
vt 0.38983044 1
vt 0.38983044 0
vt 0.406779587 1
vt 0.406779587 0
vt 0.423728734 1
vt 0.423728734 0
vt 0.440677881 1
vt 0.440677881 0
vt 0.457627028 1
vt 0.457627028 0
vt 0.474576175 1
vt 0.474576175 0
vt 0.491525322 1
vt 0.491525322 0
vt 0.508474469 1
vt 0.508474469 0
vt 0.525423646 1
vt 0.525423646 0
vt 0.542372823 1
vt 0.542372823 0
vt 0.559322 1
vt 0.559322 0
vt 0.576271176 1
vt 0.576271176 0
vt 0.593220353 1
vt 0.593220353 0
vt 0.61016953 1
vt 0.61016953 0
vt 0.627118707 1
vt 0.627118707 0
vt 0.644067883 1
vt 0.644067883 0
vt 0.66101706 1
vt 0.66101706 0
vt 0.677966237 1
vt 0.677966237 0
vt 0.694915414 1
vt 0.694915414 0
vt 0.711864591 1
vt 0.711864591 0
vt 0.728813767 1
vt 0.728813767 0
vt 0.745762944 1
vt 0.745762944 0
vt 0.762712121 1
vt 0.762712121 0
vt 0.779661298 1
vt 0.779661298 0
vt 0.796610475 1
vt 0.796610475 0
vt 0.813559651 1
vt 0.813559651 0
vt 0.830508828 1
vt 0.830508828 0
vt 0.847458005 1
vt 0.847458005 0
vt 0.864407182 1
vt 0.864407182 0
vt 0.881356359 1
vt 0.881356359 0
vt 0.898305535 1
vt 0.898305535 0
vt 0.915254712 1
vt 0.915254712 0
vt 0.932203889 1
vt 0.932203889 0
vt 0.949153066 1
vt 0.949153066 0
vt 0.966102242 1
vt 0.966102242 0
vt 0.983051419 1
vt 0.983051419 0
vt 1.0000006 1
vt 1.0000006 0
vn -0 0 -1
vn -0 0 -1
vn -0 0 -1
vn -0 0 -1
vn -0 0 -1
vn -0 0 -1
vn -0 0 -1
vn -0 0 -1
vn -0 0 -1
vn -0 0 -1
vn -0 0 -1
vn -0 0 -1
vn -0 0 -1
vn -0 0 -1
vn -0 0 -1
vn -0 0 -1
vn -0 0 -1
vn -0 0 -1
vn -0 0 -1
vn -0 0 -1
vn -0 0 -1
vn -0 0 -1
vn -0 0 -1
vn -0 0 -1
vn -0 0 -1
vn -0 0 -1
vn -0 0 -1
vn -0 0 -1
vn -0 0 -1
vn -0 0 -1
vn -0 0 -1
vn -0 0 -1
vn -0 0 -1
vn -0 0 -1
vn -0 0 -1
vn -0 0 -1
vn -0 0 -1
vn -0 0 -1
vn -0 0 -1
vn -0 0 -1
vn -0 0 -1
vn -0 0 -1
vn -0 0 -1
vn -0 0 -1
vn -0 0 -1
vn -0 0 -1
vn -0 0 -1
vn -0 0 -1
vn -0 0 -1
vn -0 0 -1
vn -0 0 -1
vn -0 0 -1
vn -0 0 -1
vn -0 0 -1
vn -0 0 -1
vn -0 0 -1
vn -0 0 -1
vn -0 0 -1
vn -0 0 -1
vn -0 0 -1
vn -0 0 -1
vn -0 0 -1
vn -0 0 -1
vn -0 0 -1
vn -0 0 -1
vn -0 0 -1
vn -0 0 -1
vn -0 0 -1
vn -0 0 -1
vn -0 0 -1
vn -0 0 -1
vn -0 0 -1
vn -0 0 -1
vn -0 0 -1
vn -0 0 -1
vn -0 0 -1
vn -0 0 -1
vn -0 0 -1
vn -0 0 -1
vn -0 0 -1
vn -0 0 -1
vn -0 0 -1
vn -0 0 -1
vn -0 0 -1
vn -0 0 -1
vn -0 0 -1
vn -0 0 -1
vn -0 0 -1
vn -0 0 -1
vn -0 0 -1
vn -0 0 -1
vn -0 0 -1
vn -0 0 -1
vn -0 0 -1
vn -0 0 -1
vn -0 0 -1
vn -0 0 -1
vn -0 0 -1
vn -0 0 -1
vn -0 0 -1
vn -0 0 -1
vn -0 0 -1
vn -0 0 -1
vn -0 0 -1
vn -0 0 -1
vn -0 0 -1
vn -0 0 -1
vn -0 0 -1
vn -0 0 -1
vn -0 0 -1
vn -0 0 -1
vn -0 0 -1
vn -0 0 -1
vn -0 0 -1
vn -0 0 -1
vn -0 0 -1
vn -0 0 -1
vn -0 0 -1
vn -0 0 -1
vn -0 0 -1
g Plane003_0
f 3/3/3 2/2/2 1/1/1
f 2/2/2 3/3/3 4/4/4
f 4/4/4 5/5/5 2/2/2
f 5/5/5 4/4/4 6/6/6
f 6/6/6 7/7/7 5/5/5
f 7/7/7 6/6/6 8/8/8
f 8/8/8 9/9/9 7/7/7
f 9/9/9 8/8/8 10/10/10
f 10/10/10 11/11/11 9/9/9
f 11/11/11 10/10/10 12/12/12
f 12/12/12 13/13/13 11/11/11
f 13/13/13 12/12/12 14/14/14
f 14/14/14 15/15/15 13/13/13
f 15/15/15 14/14/14 16/16/16
f 16/16/16 17/17/17 15/15/15
f 17/17/17 16/16/16 18/18/18
f 18/18/18 19/19/19 17/17/17
f 19/19/19 18/18/18 20/20/20
f 20/20/20 21/21/21 19/19/19
f 21/21/21 20/20/20 22/22/22
f 22/22/22 23/23/23 21/21/21
f 23/23/23 22/22/22 24/24/24
f 24/24/24 25/25/25 23/23/23
f 25/25/25 24/24/24 26/26/26
f 26/26/26 27/27/27 25/25/25
f 27/27/27 26/26/26 28/28/28
f 28/28/28 29/29/29 27/27/27
f 29/29/29 28/28/28 30/30/30
f 30/30/30 31/31/31 29/29/29
f 31/31/31 30/30/30 32/32/32
f 32/32/32 33/33/33 31/31/31
f 33/33/33 32/32/32 34/34/34
f 34/34/34 35/35/35 33/33/33
f 35/35/35 34/34/34 36/36/36
f 36/36/36 37/37/37 35/35/35
f 37/37/37 36/36/36 38/38/38
f 38/38/38 39/39/39 37/37/37
f 39/39/39 38/38/38 40/40/40
f 40/40/40 41/41/41 39/39/39
f 41/41/41 40/40/40 42/42/42
f 42/42/42 43/43/43 41/41/41
f 43/43/43 42/42/42 44/44/44
f 44/44/44 45/45/45 43/43/43
f 45/45/45 44/44/44 46/46/46
f 46/46/46 47/47/47 45/45/45
f 47/47/47 46/46/46 48/48/48
f 48/48/48 49/49/49 47/47/47
f 49/49/49 48/48/48 50/50/50
f 50/50/50 51/51/51 49/49/49
f 51/51/51 50/50/50 52/52/52
f 52/52/52 53/53/53 51/51/51
f 53/53/53 52/52/52 54/54/54
f 54/54/54 55/55/55 53/53/53
f 55/55/55 54/54/54 56/56/56
f 56/56/56 57/57/57 55/55/55
f 57/57/57 56/56/56 58/58/58
f 58/58/58 59/59/59 57/57/57
f 59/59/59 58/58/58 60/60/60
f 60/60/60 61/61/61 59/59/59
f 61/61/61 60/60/60 62/62/62
f 62/62/62 63/63/63 61/61/61
f 63/63/63 62/62/62 64/64/64
f 64/64/64 65/65/65 63/63/63
f 65/65/65 64/64/64 66/66/66
f 66/66/66 67/67/67 65/65/65
f 67/67/67 66/66/66 68/68/68
f 68/68/68 69/69/69 67/67/67
f 69/69/69 68/68/68 70/70/70
f 70/70/70 71/71/71 69/69/69
f 71/71/71 70/70/70 72/72/72
f 72/72/72 73/73/73 71/71/71
f 73/73/73 72/72/72 74/74/74
f 74/74/74 75/75/75 73/73/73
f 75/75/75 74/74/74 76/76/76
f 76/76/76 77/77/77 75/75/75
f 77/77/77 76/76/76 78/78/78
f 78/78/78 79/79/79 77/77/77
f 79/79/79 78/78/78 80/80/80
f 80/80/80 81/81/81 79/79/79
f 81/81/81 80/80/80 82/82/82
f 82/82/82 83/83/83 81/81/81
f 83/83/83 82/82/82 84/84/84
f 84/84/84 85/85/85 83/83/83
f 85/85/85 84/84/84 86/86/86
f 86/86/86 87/87/87 85/85/85
f 87/87/87 86/86/86 88/88/88
f 88/88/88 89/89/89 87/87/87
f 89/89/89 88/88/88 90/90/90
f 90/90/90 91/91/91 89/89/89
f 91/91/91 90/90/90 92/92/92
f 92/92/92 93/93/93 91/91/91
f 93/93/93 92/92/92 94/94/94
f 94/94/94 95/95/95 93/93/93
f 95/95/95 94/94/94 96/96/96
f 96/96/96 97/97/97 95/95/95
f 97/97/97 96/96/96 98/98/98
f 98/98/98 99/99/99 97/97/97
f 99/99/99 98/98/98 100/100/100
f 100/100/100 101/101/101 99/99/99
f 101/101/101 100/100/100 102/102/102
f 102/102/102 103/103/103 101/101/101
f 103/103/103 102/102/102 104/104/104
f 104/104/104 105/105/105 103/103/103
f 105/105/105 104/104/104 106/106/106
f 106/106/106 107/107/107 105/105/105
f 107/107/107 106/106/106 108/108/108
f 108/108/108 109/109/109 107/107/107
f 109/109/109 108/108/108 110/110/110
f 110/110/110 111/111/111 109/109/109
f 111/111/111 110/110/110 112/112/112
f 112/112/112 113/113/113 111/111/111
f 113/113/113 112/112/112 114/114/114
f 114/114/114 115/115/115 113/113/113
f 115/115/115 114/114/114 116/116/116
f 116/116/116 117/117/117 115/115/115
f 117/117/117 116/116/116 118/118/118
f 118/118/118 119/119/119 117/117/117
f 119/119/119 118/118/118 120/120/120
