g Plane006
v -0.0566266291 -0.125265345 0
v -0.0492755286 -0.123579785 0
v -0.071117267 -0.0592466928 0
v -0.0637360066 -0.0576985925 0
v -0.0392718986 -0.120883636 0
v -0.0572825 -0.0563100502 0
v -0.0294319484 -0.117484324 0
v -0.0509007685 -0.0546795763 0
v -0.0199060999 -0.113435544 0
v -0.0446378738 -0.0528172739 0
v -0.0107516209 -0.108764917 0
v -0.0385742448 -0.0507468246 0
v -0.00202739565 -0.103493728 0
v -0.0327885039 -0.0484980494 0
v 0.00620461162 -0.0976368263 0
v -0.0273564216 -0.046107512 0
v 0.0138773024 -0.0912015364 0
v -0.022348199 -0.043618951 0
v 0.0209143236 -0.0841879621 0
v -0.0178252682 -0.0410835445 0
v 0.0272248406 -0.0765900016 0
v -0.0138343303 -0.0385586247 0
v 0.0326953381 -0.0684004575 0
v -0.0103994133 -0.0361025967 0
v 0.0371802412 -0.0596231334 0
v -0.00751252566 -0.0337629355 0
v 0.0404964611 -0.0502961837 0
v -0.00512827234 -0.0315526575 0
v 0.042432826 -0.0405266024 0
v -0.00317296525 -0.0294160526 0
v 0.0429487824 -0.0292079188 0
v -0.00142530061 -0.0259154122 0
v 0.0416135453 -0.0176841859 0
v -0.000223096838 -0.0215009581 0
v 0.0386336409 -0.00746170525 0
v 0.000249354925 -0.0167788994 0
v 0.0345928483 0.00138730626 0
v -8.04214433E-05 -0.0114630479 0
v 0.0300192907 0.00902969297 0
v -0.00122914009 -0.00550617417 0
v 0.0253071282 0.0157419834 0
v -0.0030794146 0.00102915231 0
v 0.020736767 0.0218027569 0
v -0.00540039688 0.00807841308 0
v 0.0165177416 0.0274511091 0
v -0.00788997393 0.0156162707 0
v 0.0128148189 0.0328921452 0
v -0.0102017513 0.0236520991 0
v 0.00977033377 0.0383031256 0
v -0.0119599774 0.0322158039 0
v 0.007428471 0.0441259891 0
v -0.0127657903 0.0409894921 0
v 0.00578414323 0.0505164266 0
v -0.0126228724 0.049658861 0
v 0.00487383036 0.0572922565 0
v -0.011658445 0.0581585206 0
v 0.00470702862 0.0642706752 0
v -0.00997250155 0.0664238185 0
v 0.00527346693 0.0712736771 0
v -0.00764536671 0.0743851215 0
v 0.00654867943 0.0781292915 0
v -0.00474321796 0.0819669366 0
v 0.00850795954 0.0846951827 0
v -0.00132462848 0.0890820771 0
v 0.0111513054 0.0917739719 0
v 0.00217758026 0.0957776904 0
vt 0 1
vt 0.03125 1
vt 0 0
vt 0.03125 0
vt 0.0625 1
vt 0.0625 0
vt 0.09375 1
vt 0.09375 0
vt 0.125 1
vt 0.125 0
vt 0.15625 1
vt 0.15625 0
vt 0.1875 1
vt 0.1875 0
vt 0.21875 1
vt 0.21875 0
vt 0.25 1
vt 0.25 0
vt 0.28125 1
vt 0.28125 0
vt 0.3125 1
vt 0.3125 0
vt 0.34375 1
vt 0.34375 0
vt 0.375 1
vt 0.375 0
vt 0.40625 1
vt 0.40625 0
vt 0.4375 1
vt 0.4375 0
vt 0.46875 1
vt 0.46875 0
vt 0.5 1
vt 0.5 0
vt 0.53125 1
vt 0.53125 0
vt 0.5625 1
vt 0.5625 0
vt 0.59375 1
vt 0.59375 0
vt 0.625 1
vt 0.625 0
vt 0.65625 1
vt 0.65625 0
vt 0.6875 1
vt 0.6875 0
vt 0.71875 1
vt 0.71875 0
vt 0.75 1
vt 0.75 0
vt 0.78125 1
vt 0.78125 0
vt 0.8125 1
vt 0.8125 0
vt 0.84375 1
vt 0.84375 0
vt 0.875 1
vt 0.875 0
vt 0.90625 1
vt 0.90625 0
vt 0.9375 1
vt 0.9375 0
vt 0.96875 1
vt 0.96875 0
vt 1 1
vt 1 0
vn -0 0 -1
vn -0 0 -1
vn -0 0 -1
vn -0 0 -1
vn -0 0 -1
vn -0 0 -1
vn -0 0 -1
vn -0 0 -1
vn -0 0 -1
vn -0 0 -1
vn -0 0 -1
vn -0 0 -1
vn -0 0 -1
vn -0 0 -1
vn -0 0 -1
vn -0 0 -1
vn -0 0 -1
vn -0 0 -1
vn -0 0 -1
vn -0 0 -1
vn -0 0 -1
vn -0 0 -1
vn -0 0 -1
vn -0 0 -1
vn -0 0 -1
vn -0 0 -1
vn -0 0 -1
vn -0 0 -1
vn -0 0 -1
vn -0 0 -1
vn -0 0 -1
vn -0 0 -1
vn -0 0 -1
vn -0 0 -1
vn -0 0 -1
vn -0 0 -1
vn -0 0 -1
vn -0 0 -1
vn -0 0 -1
vn -0 0 -1
vn -0 0 -1
vn -0 0 -1
vn -0 0 -1
vn -0 0 -1
vn -0 0 -1
vn -0 0 -1
vn -0 0 -1
vn -0 0 -1
vn -0 0 -1
vn -0 0 -1
vn -0 0 -1
vn -0 0 -1
vn -0 0 -1
vn -0 0 -1
vn -0 0 -1
vn -0 0 -1
vn -0 0 -1
vn -0 0 -1
vn -0 0 -1
vn -0 0 -1
vn -0 0 -1
vn -0 0 -1
vn -0 0 -1
vn -0 0 -1
vn -0 0 -1
vn -0 0 -1
g Plane006_0
f 3/3/3 2/2/2 1/1/1
f 2/2/2 3/3/3 4/4/4
f 4/4/4 5/5/5 2/2/2
f 5/5/5 4/4/4 6/6/6
f 6/6/6 7/7/7 5/5/5
f 7/7/7 6/6/6 8/8/8
f 8/8/8 9/9/9 7/7/7
f 9/9/9 8/8/8 10/10/10
f 10/10/10 11/11/11 9/9/9
f 11/11/11 10/10/10 12/12/12
f 12/12/12 13/13/13 11/11/11
f 13/13/13 12/12/12 14/14/14
f 14/14/14 15/15/15 13/13/13
f 15/15/15 14/14/14 16/16/16
f 16/16/16 17/17/17 15/15/15
f 17/17/17 16/16/16 18/18/18
f 18/18/18 19/19/19 17/17/17
f 19/19/19 18/18/18 20/20/20
f 20/20/20 21/21/21 19/19/19
f 21/21/21 20/20/20 22/22/22
f 22/22/22 23/23/23 21/21/21
f 23/23/23 22/22/22 24/24/24
f 24/24/24 25/25/25 23/23/23
f 25/25/25 24/24/24 26/26/26
f 26/26/26 27/27/27 25/25/25
f 27/27/27 26/26/26 28/28/28
f 28/28/28 29/29/29 27/27/27
f 29/29/29 28/28/28 30/30/30
f 30/30/30 31/31/31 29/29/29
f 31/31/31 30/30/30 32/32/32
f 32/32/32 33/33/33 31/31/31
f 33/33/33 32/32/32 34/34/34
f 34/34/34 35/35/35 33/33/33
f 35/35/35 34/34/34 36/36/36
f 36/36/36 37/37/37 35/35/35
f 37/37/37 36/36/36 38/38/38
f 38/38/38 39/39/39 37/37/37
f 39/39/39 38/38/38 40/40/40
f 40/40/40 41/41/41 39/39/39
f 41/41/41 40/40/40 42/42/42
f 42/42/42 43/43/43 41/41/41
f 43/43/43 42/42/42 44/44/44
f 44/44/44 45/45/45 43/43/43
f 45/45/45 44/44/44 46/46/46
f 46/46/46 47/47/47 45/45/45
f 47/47/47 46/46/46 48/48/48
f 48/48/48 49/49/49 47/47/47
f 49/49/49 48/48/48 50/50/50
f 50/50/50 51/51/51 49/49/49
f 51/51/51 50/50/50 52/52/52
f 52/52/52 53/53/53 51/51/51
f 53/53/53 52/52/52 54/54/54
f 54/54/54 55/55/55 53/53/53
f 55/55/55 54/54/54 56/56/56
f 56/56/56 57/57/57 55/55/55
f 57/57/57 56/56/56 58/58/58
f 58/58/58 59/59/59 57/57/57
f 59/59/59 58/58/58 60/60/60
f 60/60/60 61/61/61 59/59/59
f 61/61/61 60/60/60 62/62/62
f 62/62/62 63/63/63 61/61/61
f 63/63/63 62/62/62 64/64/64
f 64/64/64 65/65/65 63/63/63
f 65/65/65 64/64/64 66/66/66
