g Plane013
v 0.528812706 0.819112957 0
v 0.645237327 0.602295578 0
v -0.0449995771 0.465492308 0
v 0.0296826847 0.327704012 0
v 0.721548975 0.381658286 0
v 0.0664114505 0.22322087 0
v 0.750103831 0.165094569 0
v 0.0761821717 0.153341219 0
v 0.729079545 -0.0411127992 0
v 0.0719382465 0.108796164 0
v 0.663706005 -0.224620208 0
v 0.0595692322 0.0742554441 0
v 0.567831993 -0.376607627 0
v 0.0363458432 0.0379165821 0
v 0.403979987 -0.533326566 0
v 0.0172400326 0.018706223 0
v 0.203447267 -0.634651661 0
v -0.0157246217 0.00274246815 0
v -0.00238512573 -0.680204093 0
v -0.0778254792 -0.0104158372 0
v -0.204373568 -0.68526119 0
v -0.166744858 -0.0122887846 0
v -0.400150001 -0.660746694 0
v -0.273390293 0.00124992372 0
v -0.588263333 -0.613382995 0
v -0.387753069 0.0301255826 0
v -0.766663253 -0.547421038 0
v -0.50042218 0.0717908666 0
v -0.932836056 -0.465455294 0
v -0.602451563 0.122042842 0
v -1.08195794 -0.369951636 0
v -0.688909113 0.177606985 0
vt 0 1
vt 0.0666666701 1
vt 0 0
vt 0.0666666701 0
vt 0.13333334 1
vt 0.13333334 0
vt 0.200000018 1
vt 0.200000018 0
vt 0.266666681 1
vt 0.266666681 0
vt 0.333333343 1
vt 0.333333343 0
vt 0.400000006 1
vt 0.400000006 0
vt 0.466666669 1
vt 0.466666669 0
vt 0.533333361 1
vt 0.533333361 0
vt 0.600000024 1
vt 0.600000024 0
vt 0.666666687 1
vt 0.666666687 0
vt 0.733333349 1
vt 0.733333349 0
vt 0.800000012 1
vt 0.800000012 0
vt 0.866666675 1
vt 0.866666675 0
vt 0.933333337 1
vt 0.933333337 0
vt 1 1
vt 1 0
vn -0 0 1
vn -0 0 1
vn -0 0 1
vn -0 0 1
vn -0 0 1
vn -0 0 1
vn -0 0 1
vn -0 0 1
vn -0 0 1
vn -0 0 1
vn -0 0 1
vn -0 0 1
vn -0 0 1
vn -0 0 1
vn -0 0 1
vn -0 0 1
vn -0 0 1
vn -0 0 1
vn -0 0 1
vn -0 0 1
vn -0 0 1
vn -0 0 1
vn -0 0 1
vn -0 0 1
vn -0 0 1
vn -0 0 1
vn -0 0 1
vn -0 0 1
vn -0 0 1
vn -0 0 1
vn -0 0 1
vn -0 0 1
g Plane013_0
f 3/3/3 2/2/2 1/1/1
f 2/2/2 3/3/3 4/4/4
f 4/4/4 5/5/5 2/2/2
f 5/5/5 4/4/4 6/6/6
f 6/6/6 7/7/7 5/5/5
f 7/7/7 6/6/6 8/8/8
f 8/8/8 9/9/9 7/7/7
f 9/9/9 8/8/8 10/10/10
f 10/10/10 11/11/11 9/9/9
f 11/11/11 10/10/10 12/12/12
f 12/12/12 13/13/13 11/11/11
f 13/13/13 12/12/12 14/14/14
f 14/14/14 15/15/15 13/13/13
f 15/15/15 14/14/14 16/16/16
f 16/16/16 17/17/17 15/15/15
f 17/17/17 16/16/16 18/18/18
f 18/18/18 19/19/19 17/17/17
f 19/19/19 18/18/18 20/20/20
f 20/20/20 21/21/21 19/19/19
f 21/21/21 20/20/20 22/22/22
f 22/22/22 23/23/23 21/21/21
f 23/23/23 22/22/22 24/24/24
f 24/24/24 25/25/25 23/23/23
f 25/25/25 24/24/24 26/26/26
f 26/26/26 27/27/27 25/25/25
f 27/27/27 26/26/26 28/28/28
f 28/28/28 29/29/29 27/27/27
f 29/29/29 28/28/28 30/30/30
f 30/30/30 31/31/31 29/29/29
f 31/31/31 30/30/30 32/32/32
