g Plane001
v 0.401081711 0.330888718 1.86414874
v 0.505194962 0.0356416218 1.83340979
v 0.438848406 0.119010948 1.98528576
v 0.442569882 0.24704577 1.70393705
v 0.571541488 -0.0477277078 1.68153381
v 0.262917668 0.521169722 1.7210331
v 0.484058052 0.16320321 1.54372537
v 0.29624024 0.41242367 1.5744642
v 0.0524148233 0.632816434 1.56646347
v 0.329562813 0.303677201 1.42789519
v 0.0928230137 0.498539716 1.44499123
v -0.208288833 0.639447808 1.39054489
v 0.133231014 0.36426264 1.32351899
v -0.127587169 0.490193337 1.31551838
v -0.451469541 0.522800267 1.20433402
v -0.0468857028 0.340938866 1.24049175
v -0.323681206 0.389554888 1.18604541
v -0.615545928 0.306034416 1.01561439
v -0.195892885 0.256309539 1.1677568
v -0.458943874 0.215387627 1.05657268
v -0.66167587 0.0430785716 0.832513392
v -0.302341819 0.124740638 1.09753108
v -0.508000016 -1.93786619E-07 0.927099884
v -0.590690315 -0.189388826 0.66962111
v -0.354324102 -0.043078959 1.02168632
v -0.458943695 -0.215387821 0.797627032
v -0.424557805 -0.369424164 0.513761222
v -0.327197075 -0.241386816 0.925633013
v -0.323680818 -0.389555275 0.66815424
v -0.213573396 -0.450788766 0.379081309
v -0.222803846 -0.409686238 0.822547138
v -0.127586976 -0.490193516 0.538681448
v -0.00764003722 -0.436076492 0.266295463
v -0.0416003689 -0.529598296 0.698281586
v 0.0928232074 -0.498539537 0.409208506
v 0.171754047 -0.338105708 0.163983315
v 0.193286449 -0.561002553 0.55212152
v 0.296240628 -0.412423283 0.279735655
v 0.278555483 -0.192512468 0.0828534588
v 0.420727223 -0.486740828 0.395488024
v 0.442569673 -0.247046158 0.150263011
v 0.320143253 -0.0268053394 0.0109708123
v 0.606583893 -0.301580042 0.217672557
v 0.505194962 -0.0356414281 0.0207901001
v 0.690246642 -0.0444777124 0.0306093898
vt 0.928571582 0
vt 1.00000012 0.5
vt 1.00000012 0
vt 0.928571582 0.5
vt 1.00000012 1
vt 0.857142985 0
vt 0.928571582 1
vt 0.857142985 0.5
vt 0.785714388 0
vt 0.857142985 1
vt 0.785714388 0.5
vt 0.714285791 0
vt 0.785714388 1
vt 0.714285791 0.5
vt 0.642857194 0
vt 0.714285791 1
vt 0.642857194 0.5
vt 0.571428597 0
vt 0.642857194 1
vt 0.571428597 0.5
vt 0.5 0
vt 0.571428597 1
vt 0.5 0.5
vt 0.428571433 0
vt 0.5 1
vt 0.428571433 0.5
vt 0.357142866 0
vt 0.428571433 1
vt 0.357142866 0.5
vt 0.285714298 0
vt 0.357142866 1
vt 0.285714298 0.5
vt 0.214285731 0
vt 0.285714298 1
vt 0.214285731 0.5
vt 0.142857149 0
vt 0.214285731 1
vt 0.142857149 0.5
vt 0.0714285746 0
vt 0.142857149 1
vt 0.0714285746 0.5
vt 0 0
vt 0.0714285746 1
vt 0 0.5
vt 0 1
vn 0.898388922 0.439141065 0.00724008679
vn 0.92598331 0.354465663 0.130034626
vn 0.936596811 0.314101219 0.155328289
vn 0.879871428 0.474835157 -0.0189147685
vn 0.913930118 0.391824752 0.105853669
vn 0.73037684 0.616643786 -0.293768734
vn 0.859302938 0.509481013 -0.0450275429
vn 0.701018274 0.638737857 -0.317155242
vn 0.522049367 0.654568315 -0.546813309
vn 0.667544484 0.661504567 -0.341754317
vn 0.481599152 0.662057698 -0.574231505
vn 0.372447371 0.572002649 -0.730818629
vn 0.433487862 0.668602586 -0.604201019
vn 0.335096866 0.5624879 -0.755855501
vn 0.351969272 0.449700683 -0.820906162
vn 0.288377643 0.549036264 -0.784472764
vn 0.324166238 0.426305383 -0.844499886
vn 0.444401205 0.397574246 -0.802771568
vn 0.287650317 0.39582929 -0.872110367
vn 0.428543329 0.362250298 -0.827722967
vn 0.555707157 0.47880441 -0.679658651
vn 0.40623346 0.317231596 -0.856935441
vn 0.555558264 0.437189609 -0.707262456
vn 0.586183727 0.657385111 -0.473532975
vn 0.553060234 0.385570824 -0.738552272
vn 0.602423251 0.624896824 -0.496578485
vn 0.479435742 0.854897022 -0.19822295
vn 0.619812608 0.586243093 -0.52168107
vn 0.509842932 0.830638051 -0.223831862
vn 0.256804287 0.961204529 0.100684784
vn 0.540635228 0.803234279 -0.250056535
vn 0.296437383 0.952147484 0.0744322538
vn 0.0192014035 0.919945955 0.39157486
vn 0.3347947 0.941049993 0.0483475551
vn 0.060068544 0.928522646 0.366384357
vn -0.137896433 0.752754271 0.643696785
vn 0.0969498456 0.934447169 0.342650235
vn -0.0980091691 0.784368813 0.612502873
vn -0.141176656 0.570374429 0.809161425
vn -0.0635099784 0.809012532 0.584350169
vn -0.117707193 0.615229368 0.779511333
vn -0.10244631 0.490409762 0.865449667
vn -0.0978892073 0.649712086 0.753851473
vn -0.0878513679 0.53787756 0.838432968
vn -0.0760432258 0.574402511 0.815033138
g Plane001_0
f 3/3/3 2/2/2 1/1/1
f 2/2/2 4/4/4 1/1/1
f 2/2/2 5/5/5 4/4/4
f 1/1/1 4/4/4 6/6/6
f 5/5/5 7/7/7 4/4/4
f 4/4/4 8/8/8 6/6/6
f 4/4/4 7/7/7 8/8/8
f 6/6/6 8/8/8 9/9/9
f 7/7/7 10/10/10 8/8/8
f 8/8/8 11/11/11 9/9/9
f 8/8/8 10/10/10 11/11/11
f 9/9/9 11/11/11 12/12/12
f 10/10/10 13/13/13 11/11/11
f 11/11/11 14/14/14 12/12/12
f 11/11/11 13/13/13 14/14/14
f 12/12/12 14/14/14 15/15/15
f 13/13/13 16/16/16 14/14/14
f 14/14/14 17/17/17 15/15/15
f 14/14/14 16/16/16 17/17/17
f 15/15/15 17/17/17 18/18/18
f 16/16/16 19/19/19 17/17/17
f 17/17/17 20/20/20 18/18/18
f 17/17/17 19/19/19 20/20/20
f 18/18/18 20/20/20 21/21/21
f 19/19/19 22/22/22 20/20/20
f 20/20/20 23/23/23 21/21/21
f 20/20/20 22/22/22 23/23/23
f 21/21/21 23/23/23 24/24/24
f 22/22/22 25/25/25 23/23/23
f 23/23/23 26/26/26 24/24/24
f 23/23/23 25/25/25 26/26/26
f 24/24/24 26/26/26 27/27/27
f 25/25/25 28/28/28 26/26/26
f 26/26/26 29/29/29 27/27/27
f 26/26/26 28/28/28 29/29/29
f 27/27/27 29/29/29 30/30/30
f 28/28/28 31/31/31 29/29/29
f 29/29/29 32/32/32 30/30/30
f 29/29/29 31/31/31 32/32/32
f 30/30/30 32/32/32 33/33/33
f 31/31/31 34/34/34 32/32/32
f 32/32/32 35/35/35 33/33/33
f 32/32/32 34/34/34 35/35/35
f 33/33/33 35/35/35 36/36/36
f 34/34/34 37/37/37 35/35/35
f 35/35/35 38/38/38 36/36/36
f 35/35/35 37/37/37 38/38/38
f 36/36/36 38/38/38 39/39/39
f 37/37/37 40/40/40 38/38/38
f 38/38/38 41/41/41 39/39/39
f 38/38/38 40/40/40 41/41/41
f 39/39/39 41/41/41 42/42/42
f 40/40/40 43/43/43 41/41/41
f 41/41/41 44/44/44 42/42/42
f 41/41/41 43/43/43 44/44/44
f 43/43/43 45/45/45 44/44/44
