g Plane.039
v -0.316592872 0.313022763 0
v -0.228453383 0.382045388 0
v -0.229546979 0.343298763 0
v -0.315624416 0.346270293 0
v -0.401324272 0.278287321 0
v -0.400535703 0.246831581 0
v -0.315624416 0.276043028 0
v -0.229546979 0.343298763 0
v -0.400535703 0.306704193 0
v -0.314591646 0.379753321 0
v -0.227401361 0.421334207 0
v -0.228453383 0.382045388 0
v -0.399689734 0.335284293 0
v -0.137446046 0.458806634 0
v -0.138296738 0.412953943 0
v -0.484485418 0.240526274 0
v -0.483884096 0.21407485 0
v -0.483884096 0.264660448 0
v -0.13170588 0.495499909 0
v -0.226397648 0.460716069 0
v -0.314591646 0.379753321 0
v -0.313595772 0.413307458 0
v -0.0305513442 0.529699922 0
v -0.398750395 0.363684475 0
v -0.0340858251 0.485303938 0
v 0.0818140209 0.564319015 0
v -0.483236462 0.28890872 0
v -0.482502848 0.312991321 0
v -0.0363029689 0.438634217 0
v -0.139038742 0.367773563 0
v 0.0815071613 0.510556102 0
v 0.216392472 0.572351277 0
v -0.565920711 0.241894081 0
v -0.565381527 0.262155235 0
v -0.566388667 0.221495643 0
v -0.0349847525 0.38609913 0
v -0.138296738 0.318582326 0
v 0.216473922 0.514662087 0
v 0.358924806 0.576921582 0
v 0.0830174088 0.453460664 0
v -0.648462534 0.195567966 0
v -0.648087204 0.21243602 0
v 0.359687686 0.513716578 0
v 0.518952727 0.585609138 0
v 0.536361098 0.500263453 0
v 0.0864756554 0.393602222 0
v 0.218267858 0.453714728 0
v 0.369221389 0.437167823 0
v -0.648781598 0.17859149 0
v -0.731599331 0.151291907 0
v -0.731352866 0.165156156 0
v 0.224542305 0.385104924 0
v -0.731803715 0.13734661 0
v -0.816079497 0.110448666 0
v -0.815928221 0.121670358 0
v -0.816201329 0.0991701484 0
v -0.816310048 0.0879021212 0
v -0.90272367 0.0654766113 0
v -0.90265739 0.0744322538 0
v -0.902571917 0.0833511204 0
v -0.731988668 0.123427533 0
v -0.816201329 0.0762152374 0
v -0.649073482 0.161662593 0
v -0.731803715 0.108795784 0
v -0.566820443 0.201173455 0
v -0.648781598 0.143608838 0
v -0.566388667 0.179187387 0
v -0.731599331 0.0940628052 0
v -0.648462534 0.125402749 0
v -0.56592077 0.156985611 0
v -0.816079497 0.064467214 0
v -0.483236462 0.187330812 0
v -0.399689734 0.214991391 0
v -0.648087263 0.107088193 0
v -0.565381646 0.13464652 0
v -0.731352925 0.0792487785 0
v -0.482502848 0.160421103 0
v -0.398750395 0.182971299 0
v -0.81592828 0.0526623651 0
v -0.902571976 0.0288802013 0
v -0.90265739 0.038128309 0
v -0.992046297 0.00946002826 0
v -0.992089093 0.0165622029 0
v -0.90272367 0.0473395959 0
v -0.816310048 0.0879021212 0
v -0.992120922 0.0236431956 0
v -0.902781844 0.0565201081 0
v -0.816201329 0.0991701484 0
v -0.992148161 0.0307153501 0
v -0.992120922 0.0376824886 0
v -0.992089093 0.0446407944 0
v -0.902571917 0.0833511204 0
v -0.992046297 0.0515779145 0
v -0.228453383 0.382045388 0
v -0.138296738 0.412953943 0
v -0.139038742 0.367773563 0
v -0.228453383 0.300337791 0
v -0.138296738 0.318582326 0
v -0.314591646 0.238580018 0
v -0.398750395 0.182971299 0
v -0.313595772 0.201188132 0
v -0.227401391 0.256994814 0
v -0.137446105 0.268894941 0
v -0.226397738 0.213744938 0
v -0.131705984 0.210048169 0
v -0.0363029689 0.330356777 0
v -0.0340858251 0.267292351 0
v -0.0305513591 0.201954216 0
v 0.0815071613 0.261795461 0
v 0.0818140507 0.190280899 0
v 0.0830174088 0.329977542 0
v 0.216473788 0.232381225 0
v 0.216392443 0.147836089 0
v 0.218267858 0.313667893 0
v -0.0349847525 0.38609913 0
v 0.0830174088 0.329977542 0
v 0.369222105 0.279139549 0
v 0.359673142 0.194784954 0
v 0.556805968 0.21457307 0
v 0.534843445 0.117549554 0
v 0.35881567 0.0957493931 0
v 0.517206609 0.0159047842 0
v 0.738109708 0.00625886023 0
v 0.707476079 -0.107963666 0
v 0.948164821 -0.112480536 0
v 0.858429253 -0.220517755 0
v 0.771279335 0.123149365 0
v 0.58111608 0.309809446 0
v 0.381550342 0.359309942 0
v 0.224542305 0.385104924 0
v 0.369222105 0.279139549 0
v 0.987771928 0.0233964473 0
v 0.948164821 -0.112480536 0
v 1.09876108 -0.204625145 0
v 0.999075174 -0.324219078 0
v 1.23455524 -0.270932376 0
v 1.12489569 -0.41116482 0
v 1.18435478 -0.0554404557 0
v 1.02410829 0.172796279 0
v 1.21277976 0.113041319 0
v 0.805027604 0.242376208 0
v 1.35632968 0.0709791631 0
v 1.32176864 -0.109268755 0
v 1.09876108 -0.204625145 0
v 1.32739604 0.252910107 0
v 1.19012296 0.280552775 0
v 1.2439307 0.432975352 0
v 0.993166506 0.327596277 0
v 1.10838926 0.448383242 0
v 1.13575327 0.597278714 0
v 1.00927591 0.59239316 0
v 0.774259925 0.368417978 0
v 0.955873668 0.458327711 0
v 0.866604567 0.587812006 0
v 0.74277389 0.482220054 0
v 0.712741852 0.583446801 0
v 0.557778656 0.407784492 0
v 0.74277389 0.482220054 0
v 0.518952727 0.585609138 0
v 0.774259925 0.368417978 0
v 0.955873668 0.458327711 0
v 0.993166506 0.327596277 0
v 0.216473788 0.232381225 0
v 0.359673142 0.194784954 0
v 0.35881567 0.0957493931 0
v -0.313595772 0.201188132 0
v -0.314591646 0.238580018 0
v -0.226397738 0.213744938 0
vt 0.421052635 0.5
vt 0.473684222 0.666666627
vt 0.473684222 0.49999994
vt 0.421052635 0.666666627
vt 0.368421078 0.5
vt 0.368421078 0.333333343
vt 0.421052665 0.333333343
vt 0.473684222 0.49999994
vt 0.368421048 0.666666627
vt 0.421052575 0.833333194
vt 0.473684192 0.833333313
vt 0.473684222 0.666666627
vt 0.368421018 0.833333254
vt 0.526315808 0.833333373
vt 0.526315808 0.666666627
vt 0.315789461 0.5
vt 0.315789491 0.333333343
vt 0.315789461 0.666666627
vt 0.526315808 1
vt 0.473684222 1
vt 0.421052575 0.833333194
vt 0.421052635 1
vt 0.578947425 1
vt 0.368421048 1
vt 0.578947425 0.833333313
vt 0.631578982 1
vt 0.315789491 0.833333373
vt 0.315789461 1
vt 0.578947425 0.666666627
vt 0.526315808 0.5
vt 0.631578922 0.833333254
vt 0.684210539 1
vt 0.263157874 0.833333313
vt 0.263157874 1
vt 0.263157874 0.666666627
vt 0.578947425 0.5
vt 0.526315868 0.333333343
vt 0.684210539 0.833333313
vt 0.736842155 1
vt 0.631578982 0.666666627
vt 0.210526317 0.833333313
vt 0.210526302 1
vt 0.736842036 0.833333254
vt 0.789473712 1
vt 0.789473712 0.833333313
vt 0.631578982 0.5
vt 0.684210539 0.666666627
vt 0.736842155 0.666666627
vt 0.210526302 0.666666627
vt 0.157894745 0.833333373
vt 0.157894731 1
vt 0.684210539 0.5
vt 0.157894731 0.666666627
vt 0.105263144 0.833333313
vt 0.105263144 1
vt 0.105263144 0.666666627
vt 0.105263144 0.5
vt 0.0526315719 0.666666627
vt 0.0526315719 0.833333313
vt 0.0526315719 1
vt 0.157894731 0.5
vt 0.105263144 0.333333343
vt 0.210526317 0.5
vt 0.157894745 0.333333343
vt 0.263157874 0.5
vt 0.210526317 0.333333343
vt 0.263157874 0.333333343
vt 0.157894731 0.166666642
vt 0.210526302 0.166666657
vt 0.263157904 0.166666657
vt 0.105263151 0.166666672
vt 0.315789461 0.166666657
vt 0.368421078 0.166666657
vt 0.210526317 0
vt 0.263157904 0
vt 0.157894745 0
vt 0.315789491 0
vt 0.368421078 0
vt 0.105263159 0
vt 0.0526315793 0
vt 0.0526315756 0.166666672
vt 0 0
vt 0 0.166666657
vt 0.0526315719 0.333333343
vt 0.105263144 0.5
vt 0 0.333333313
vt 0.0526315756 0.5
vt 0.105263144 0.666666627
vt 0 0.49999997
vt 0 0.666666627
vt 0 0.833333313
vt 0.0526315719 1
vt 0 1
vt 0.473684222 0.666666627
vt 0.526315808 0.666666627
vt 0.526315808 0.5
vt 0.473684251 0.333333343
vt 0.526315868 0.333333343
vt 0.421052694 0.166666672
vt 0.368421078 0
vt 0.421052665 0
vt 0.473684251 0.166666687
vt 0.526315749 0.166666672
vt 0.473684222 0
vt 0.526315808 0
vt 0.578947484 0.333333343
vt 0.578947484 0.166666672
vt 0.578947425 0
vt 0.631578922 0.166666657
vt 0.631578982 0
vt 0.631578982 0.333333343
vt 0.684210539 0.166666657
vt 0.684210539 0
vt 0.684210598 0.333333343
vt 0.578947425 0.5
vt 0.631578982 0.333333343
vt 0.736842215 0.333333343
vt 0.736842155 0.166666672
vt 0.789473772 0.333333343
vt 0.789473653 0.166666657
vt 0.736842096 0
vt 0.789473653 0
vt 0.84210515 0.166666657
vt 0.842105269 0
vt 0.894736826 0.166666672
vt 0.894736767 0
vt 0.842105329 0.333333343
vt 0.789473772 0.5
vt 0.736842155 0.5
vt 0.684210539 0.5
vt 0.736842215 0.333333343
vt 0.894736886 0.333333343
vt 0.894736826 0.166666672
vt 0.947368503 0.166666687
vt 0.947368383 0
vt 1 0.166666657
vt 1 0
vt 0.947368503 0.333333373
vt 0.894736886 0.5
vt 0.947368503 0.5
vt 0.842105269 0.5
vt 1 0.5
vt 1 0.333333343
vt 0.947368503 0.166666687
vt 1 0.666666687
vt 0.947368443 0.666666687
vt 1 0.833333373
vt 0.894736826 0.666666627
vt 0.947368443 0.833333313
vt 1 1
vt 0.947368443 1
vt 0.842105269 0.666666627
vt 0.894736767 0.833333313
vt 0.894736826 1
vt 0.842105269 0.833333313
vt 0.842105269 1
vt 0.789473712 0.666666627
vt 0.842105269 0.833333313
vt 0.789473712 1
vt 0.842105269 0.666666627
vt 0.894736767 0.833333313
vt 0.894736826 0.666666627
vt 0.684210539 0.166666657
vt 0.736842155 0.166666672
vt 0.736842096 0
vt 0.421052665 0
vt 0.421052694 0.166666672
vt 0.473684222 0
vn -0 0 1
vn -0 0 1
vn -0 0 1
vn -0 0 1
vn -0 0 1
vn -0 0 1
vn -0 0 1
vn -0 0 1
vn -0 0 1
vn -0 0 1
vn -0 0 1
vn -0 0 1
vn -0 0 1
vn -0 0 1
vn -0 0 1
vn -0 0 1
vn -0 0 1
vn -0 0 1
vn -0 0 1
vn -0 0 1
vn -0 0 1
vn -0 0 1
vn -0 0 1
vn -0 0 1
vn -0 0 1
vn -0 0 1
vn -0 0 1
vn -0 0 1
vn -0 0 1
vn -0 0 1
vn -0 0 1
vn -0 0 1
vn -0 0 1
vn -0 0 1
vn -0 0 1
vn -0 0 1
vn -0 0 1
vn -0 0 1
vn -0 0 1
vn -0 0 1
vn -0 0 1
vn -0 0 1
vn -0 0 1
vn -0 0 1
vn -0 0 1
vn -0 0 1
vn -0 0 1
vn -0 0 1
vn -0 0 1
vn -0 0 1
vn -0 0 1
vn -0 0 1
vn -0 0 1
vn -0 0 1
vn -0 0 1
vn -0 0 1
vn -0 0 1
vn -0 0 1
vn -0 0 1
vn -0 0 1
vn -0 0 1
vn -0 0 1
vn -0 0 1
vn -0 0 1
vn -0 0 1
vn -0 0 1
vn -0 0 1
vn -0 0 1
vn -0 0 1
vn -0 0 1
vn -0 0 1
vn -0 0 1
vn -0 0 1
vn -0 0 1
vn -0 0 1
vn -0 0 1
vn -0 0 1
vn -0 0 1
vn -0 0 1
vn -0 0 1
vn -0 0 1
vn -0 0 1
vn -0 0 1
vn -0 0 1
vn -0 0 1
vn -0 0 1
vn -0 0 1
vn -0 0 1
vn -0 0 1
vn -0 0 1
vn -0 0 1
vn -0 0 1
vn -0 0 1
vn -0 0 1
vn -0 0 1
vn -0 0 1
vn -0 0 1
vn -0 0 1
vn -0 0 1
vn -0 0 1
vn -0 0 1
vn -0 0 1
vn -0 0 1
vn -0 0 1
vn -0 0 1
vn -0 0 1
vn -0 0 1
vn -0 0 1
vn -0 0 1
vn -0 0 1
vn -0 0 1
vn -0 0 1
vn -0 0 1
vn -0 0 1
vn -0 0 1
vn -0 0 1
vn -0 0 1
vn -0 0 1
vn -0 0 1
vn -0 0 1
vn -0 0 1
vn -0 0 1
vn -0 0 1
vn -0 0 1
vn -0 0 1
vn -0 0 1
vn -0 0 1
vn -0 0 1
vn -0 0 1
vn -0 0 1
vn -0 0 1
vn -0 0 1
vn -0 0 1
vn -0 0 1
vn -0 0 1
vn -0 0 1
vn -0 0 1
vn -0 0 1
vn -0 0 1
vn -0 0 1
vn -0 0 1
vn -0 0 1
vn -0 0 1
vn -0 0 1
vn -0 0 1
vn -0 0 1
vn -0 0 1
vn -0 0 1
vn -0 0 1
vn -0 0 1
vn -0 0 1
vn -0 0 1
vn -0 0 1
vn -0 0 1
vn -0 0 1
vn -0 0 1
vn -0 0 1
vn -0 0 1
vn -0 0 1
vn -0 0 1
vn -0 0 1
vn -0 0 1
vn -0 0 1
vn -0 0 1
vn -0 0 1
vn -0 0 1
vn -0 0 1
vn -0 0 1
g Plane.039_0
f 3/3/3 2/2/2 1/1/1
f 2/2/2 4/4/4 1/1/1
f 1/1/1 4/4/4 5/5/5
f 1/1/1 5/5/5 6/6/6
f 7/7/7 1/1/1 6/6/6
f 8/8/8 1/1/1 7/7/7
f 4/4/4 9/9/9 5/5/5
f 4/4/4 10/10/10 9/9/9
f 11/11/11 10/10/10 4/4/4
f 12/12/12 11/11/11 4/4/4
f 10/10/10 13/13/13 9/9/9
f 14/14/14 11/11/11 2/2/2
f 15/15/15 14/14/14 2/2/2
f 5/5/5 9/9/9 16/16/16
f 6/6/6 5/5/5 17/17/17
f 5/5/5 16/16/16 17/17/17
f 9/9/9 13/13/13 18/18/18
f 9/9/9 18/18/18 16/16/16
f 14/14/14 19/19/19 11/11/11
f 19/19/19 20/20/20 11/11/11
f 11/11/11 20/20/20 21/21/21
f 20/20/20 22/22/22 21/21/21
f 21/21/21 22/22/22 13/13/13
f 23/23/23 19/19/19 14/14/14
f 22/22/22 24/24/24 13/13/13
f 25/25/25 23/23/23 14/14/14
f 25/25/25 14/14/14 15/15/15
f 26/26/26 23/23/23 25/25/25
f 13/13/13 24/24/24 27/27/27
f 13/13/13 27/27/27 18/18/18
f 24/24/24 28/28/28 27/27/27
f 29/29/29 25/25/25 15/15/15
f 29/29/29 15/15/15 30/30/30
f 31/31/31 26/26/26 25/25/25
f 31/31/31 25/25/25 29/29/29
f 32/32/32 26/26/26 31/31/31
f 27/27/27 28/28/28 33/33/33
f 28/28/28 34/34/34 33/33/33
f 18/18/18 27/27/27 35/35/35
f 27/27/27 33/33/33 35/35/35
f 36/36/36 29/29/29 30/30/30
f 36/36/36 30/30/30 37/37/37
f 38/38/38 32/32/32 31/31/31
f 39/39/39 32/32/32 38/38/38
f 40/40/40 31/31/31 29/29/29
f 40/40/40 29/29/29 36/36/36
f 38/38/38 31/31/31 40/40/40
f 33/33/33 34/34/34 41/41/41
f 34/34/34 42/42/42 41/41/41
f 43/43/43 39/39/39 38/38/38
f 44/44/44 39/39/39 43/43/43
f 45/45/45 44/44/44 43/43/43
f 46/46/46 40/40/40 36/36/36
f 47/47/47 38/38/38 40/40/40
f 43/43/43 38/38/38 47/47/47
f 47/47/47 40/40/40 46/46/46
f 48/48/48 43/43/43 47/47/47
f 45/45/45 43/43/43 48/48/48
f 33/33/33 41/41/41 49/49/49
f 35/35/35 33/33/33 49/49/49
f 41/41/41 42/42/42 50/50/50
f 42/42/42 51/51/51 50/50/50
f 52/52/52 47/47/47 46/46/46
f 48/48/48 47/47/47 52/52/52
f 49/49/49 41/41/41 53/53/53
f 41/41/41 50/50/50 53/53/53
f 50/50/50 51/51/51 54/54/54
f 51/51/51 55/55/55 54/54/54
f 53/53/53 50/50/50 56/56/56
f 50/50/50 54/54/54 56/56/56
f 53/53/53 56/56/56 57/57/57
f 56/56/56 54/54/54 58/58/58
f 54/54/54 55/55/55 59/59/59
f 54/54/54 59/59/59 58/58/58
f 55/55/55 60/60/60 59/59/59
f 61/61/61 53/53/53 57/57/57
f 49/49/49 53/53/53 61/61/61
f 61/61/61 57/57/57 62/62/62
f 63/63/63 49/49/49 61/61/61
f 35/35/35 49/49/49 63/63/63
f 64/64/64 61/61/61 62/62/62
f 63/63/63 61/61/61 64/64/64
f 65/65/65 35/35/35 63/63/63
f 18/18/18 35/35/35 65/65/65
f 16/16/16 18/18/18 65/65/65
f 65/65/65 63/63/63 66/66/66
f 66/66/66 63/63/63 64/64/64
f 16/16/16 65/65/65 67/67/67
f 67/67/67 65/65/65 66/66/66
f 17/17/17 16/16/16 67/67/67
f 66/66/66 64/64/64 68/68/68
f 67/67/67 66/66/66 69/69/69
f 69/69/69 66/66/66 68/68/68
f 17/17/17 67/67/67 70/70/70
f 70/70/70 67/67/67 69/69/69
f 64/64/64 62/62/62 71/71/71
f 68/68/68 64/64/64 71/71/71
f 72/72/72 17/17/17 70/70/70
f 6/6/6 17/17/17 72/72/72
f 73/73/73 6/6/6 72/72/72
f 7/7/7 6/6/6 73/73/73
f 70/70/70 69/69/69 74/74/74
f 75/75/75 70/70/70 74/74/74
f 72/72/72 70/70/70 75/75/75
f 74/74/74 69/69/69 76/76/76
f 69/69/69 68/68/68 76/76/76
f 77/77/77 72/72/72 75/75/75
f 73/73/73 72/72/72 77/77/77
f 78/78/78 73/73/73 77/77/77
f 76/76/76 68/68/68 79/79/79
f 68/68/68 71/71/71 79/79/79
f 79/79/79 71/71/71 80/80/80
f 71/71/71 81/81/81 80/80/80
f 80/80/80 81/81/81 82/82/82
f 71/71/71 62/62/62 81/81/81
f 81/81/81 83/83/83 82/82/82
f 62/62/62 84/84/84 81/81/81
f 81/81/81 84/84/84 83/83/83
f 62/62/62 85/85/85 84/84/84
f 84/84/84 86/86/86 83/83/83
f 85/85/85 87/87/87 84/84/84
f 84/84/84 87/87/87 86/86/86
f 85/85/85 88/88/88 87/87/87
f 87/87/87 89/89/89 86/86/86
f 88/88/88 58/58/58 87/87/87
f 87/87/87 58/58/58 89/89/89
f 58/58/58 90/90/90 89/89/89
f 58/58/58 59/59/59 90/90/90
f 59/59/59 91/91/91 90/90/90
f 59/59/59 92/92/92 91/91/91
f 92/92/92 93/93/93 91/91/91
f 95/95/95 94/94/94 8/8/8
f 96/96/96 95/95/95 8/8/8
f 96/96/96 8/8/8 97/97/97
f 98/98/98 96/96/96 97/97/97
f 97/97/97 8/8/8 7/7/7
f 97/97/97 7/7/7 99/99/99
f 99/99/99 7/7/7 73/73/73
f 99/99/99 73/73/73 100/100/100
f 101/101/101 99/99/99 100/100/100
f 102/102/102 97/97/97 99/99/99
f 37/37/37 97/97/97 102/102/102
f 103/103/103 37/37/37 102/102/102
f 103/103/103 102/102/102 104/104/104
f 105/105/105 103/103/103 104/104/104
f 106/106/106 37/37/37 103/103/103
f 106/106/106 36/36/36 37/37/37
f 107/107/107 103/103/103 105/105/105
f 107/107/107 106/106/106 103/103/103
f 108/108/108 107/107/107 105/105/105
f 109/109/109 107/107/107 108/108/108
f 110/110/110 109/109/109 108/108/108
f 111/111/111 106/106/106 107/107/107
f 109/109/109 111/111/111 107/107/107
f 112/112/112 109/109/109 110/110/110
f 113/113/113 112/112/112 110/110/110
f 114/114/114 111/111/111 109/109/109
f 112/112/112 114/114/114 109/109/109
f 114/114/114 52/52/52 111/111/111
f 52/52/52 46/46/46 111/111/111
f 46/46/46 115/115/115 106/106/106
f 116/116/116 46/46/46 106/106/106
f 117/117/117 114/114/114 112/112/112
f 118/118/118 117/117/117 112/112/112
f 119/119/119 117/117/117 118/118/118
f 120/120/120 119/119/119 118/118/118
f 120/120/120 118/118/118 121/121/121
f 122/122/122 120/120/120 121/121/121
f 123/123/123 120/120/120 122/122/122
f 124/124/124 123/123/123 122/122/122
f 125/125/125 123/123/123 124/124/124
f 126/126/126 125/125/125 124/124/124
f 123/123/123 127/127/127 120/120/120
f 127/127/127 119/119/119 120/120/120
f 119/119/119 128/128/128 117/117/117
f 128/128/128 129/129/129 117/117/117
f 129/129/129 130/130/130 114/114/114
f 131/131/131 129/129/129 114/114/114
f 132/132/132 127/127/127 123/123/123
f 133/133/133 132/132/132 123/123/123
f 134/134/134 133/133/133 126/126/126
f 135/135/135 134/134/134 126/126/126
f 136/136/136 134/134/134 135/135/135
f 137/137/137 136/136/136 135/135/135
f 134/134/134 138/138/138 133/133/133
f 138/138/138 132/132/132 133/133/133
f 132/132/132 139/139/139 127/127/127
f 138/138/138 140/140/140 132/132/132
f 140/140/140 139/139/139 132/132/132
f 139/139/139 141/141/141 127/127/127
f 127/127/127 141/141/141 119/119/119
f 141/141/141 128/128/128 119/119/119
f 142/142/142 140/140/140 138/138/138
f 143/143/143 142/142/142 138/138/138
f 136/136/136 143/143/143 144/144/144
f 143/143/143 138/138/138 144/144/144
f 142/142/142 145/145/145 140/140/140
f 145/145/145 146/146/146 140/140/140
f 140/140/140 146/146/146 139/139/139
f 145/145/145 147/147/147 146/146/146
f 139/139/139 148/148/148 141/141/141
f 146/146/146 148/148/148 139/139/139
f 147/147/147 149/149/149 146/146/146
f 146/146/146 149/149/149 148/148/148
f 147/147/147 150/150/150 149/149/149
f 150/150/150 151/151/151 149/149/149
f 148/148/148 152/152/152 141/141/141
f 149/149/149 153/153/153 148/148/148
f 149/149/149 151/151/151 153/153/153
f 151/151/151 154/154/154 153/153/153
f 153/153/153 154/154/154 155/155/155
f 141/141/141 152/152/152 128/128/128
f 154/154/154 156/156/156 155/155/155
f 152/152/152 157/157/157 128/128/128
f 152/152/152 158/158/158 157/157/157
f 128/128/128 157/157/157 129/129/129
f 158/158/158 45/45/45 157/157/157
f 155/155/155 156/156/156 45/45/45
f 156/156/156 159/159/159 45/45/45
f 157/157/157 45/45/45 48/48/48
f 157/157/157 48/48/48 129/129/129
f 129/129/129 48/48/48 52/52/52
f 161/161/161 155/155/155 160/160/160
f 162/162/162 161/161/161 160/160/160
f 164/164/164 163/163/163 113/113/113
f 165/165/165 164/164/164 113/113/113
f 102/102/102 167/167/167 166/166/166
f 168/168/168 102/102/102 166/166/166
