g Cone001
v 0.0508177802 -0.0210493263 0
v 0.0388942659 -0.038894169 0
v 0.0457348041 -0.0305589288 0
v 0.0550047345 0 0
v 0.0539478436 -0.0107308086 0
v 5.31125224E-08 -0.0550047345 0
v -0.0550047345 -1.79228188E-08 0
v 0.0210494567 -0.0508177243 0
v 0.0305590481 -0.0457347259 0
v 0.0107309474 -0.0539478213 0
v -0.0388941951 -0.0388942473 0
v -0.021049358 -0.050817769 0
v -0.010730844 -0.0539478399 0
v -0.0305589605 -0.0457347855 0
v -0.0508177355 -0.021049425 0
v -0.0457347482 -0.0305590201 0
v -0.053947825 -0.0107309138 0
v 4.15274215E-09 0.0550047345 0
v -0.0388942175 0.0388942175 0
v -0.0508177504 0.0210493915 0
v -0.0539478324 0.0107308784 0
v -0.0457347669 0.0305589903 0
v -0.0210493915 0.0508177504 0
v -0.0305589903 0.0457347669 0
v -0.010730885 0.0539478324 0
v 0.0388942175 0.0388942175 0
v 0.0210493989 0.0508177429 0
v 0.0107308934 0.0539478324 0
v 0.0305589903 0.0457347669 0
v 0.0508177429 0.0210494008 0
v 0.0457347631 0.030558994 0
v 0.0539478324 0.0107308906 0
vt 0.961939991 0.308658838
vt 0.853553772 0.146446973
vt 0.915735126 0.222215354
vt 1 0.499999881
vt 0.990392685 0.402455479
vt 0.500000358 0
vt 0 0.49999997
vt 0.691342115 0.0380603671
vt 0.77778554 0.0842654705
vt 0.597545564 0.00960743427
vt 0.146446764 0.146446466
vt 0.30865854 0.0380601287
vt 0.402455151 0.00960734487
vt 0.222215086 0.0842650533
vt 0.0380602777 0.308658183
vt 0.0842652917 0.222214729
vt 0.00960737467 0.402454764
vt 0.500000179 1
vt 0.146446705 0.853553474
vt 0.0380602777 0.691341758
vt 0.00960740447 0.597545147
vt 0.0842652321 0.777785182
vt 0.308658481 0.961939812
vt 0.222214997 0.915734887
vt 0.402455032 0.990392685
vt 0.853553474 0.853553295
vt 0.691341817 0.961939692
vt 0.597545266 0.990392566
vt 0.777785182 0.915734768
vt 0.961939812 0.691341639
vt 0.915734887 0.777785063
vt 0.990392685 0.597545028
vn -0 0 -1
vn -0 0 -1
vn -0 0 -1
vn -0 0 -1
vn -0 0 -1
vn -0 0 -1
vn -0 0 -1
vn -0 0 -1
vn -0 0 -1
vn -0 0 -1
vn -0 0 -1
vn -0 0 -1
vn -0 0 -1
vn -0 0 -1
vn -0 0 -1
vn -0 0 -1
vn -0 0 -1
vn -0 0 -1
vn -0 0 -1
vn -0 0 -1
vn -0 0 -1
vn -0 0 -1
vn -0 0 -1
vn -0 0 -1
vn -0 0 -1
vn -0 0 -1
vn -0 0 -1
vn -0 0 -1
vn -0 0 -1
vn -0 0 -1
vn -0 0 -1
vn -0 0 -1
g Cone001_0
f 3/3/3 2/2/2 1/1/1
f 2/2/2 4/4/4 1/1/1
f 1/1/1 4/4/4 5/5/5
f 6/6/6 4/4/4 2/2/2
f 7/7/7 4/4/4 6/6/6
f 8/8/8 6/6/6 2/2/2
f 9/9/9 8/8/8 2/2/2
f 10/10/10 6/6/6 8/8/8
f 11/11/11 7/7/7 6/6/6
f 12/12/12 11/11/11 6/6/6
f 13/13/13 12/12/12 6/6/6
f 14/14/14 11/11/11 12/12/12
f 15/15/15 7/7/7 11/11/11
f 16/16/16 15/15/15 11/11/11
f 17/17/17 7/7/7 15/15/15
f 18/18/18 4/4/4 7/7/7
f 19/19/19 18/18/18 7/7/7
f 20/20/20 19/19/19 7/7/7
f 21/21/21 20/20/20 7/7/7
f 22/22/22 19/19/19 20/20/20
f 23/23/23 18/18/18 19/19/19
f 24/24/24 23/23/23 19/19/19
f 25/25/25 18/18/18 23/23/23
f 26/26/26 4/4/4 18/18/18
f 27/27/27 26/26/26 18/18/18
f 28/28/28 27/27/27 18/18/18
f 29/29/29 26/26/26 27/27/27
f 30/30/30 4/4/4 26/26/26
f 31/31/31 30/30/30 26/26/26
f 32/32/32 4/4/4 30/30/30
