g general_shizi_03
v -2.08106112 -0.357225746 0
v -2.08106112 0.357225746 0
v 0.877462864 0.357225746 0
v 0.877462864 -0.357225746 0
v -0.398869991 1.13501871 -1.77635684E-15
v 0.39887014 1.13501883 -1.77635684E-15
v 0.398869842 -1.13501871 -1.77635684E-15
v -0.39887014 -1.13501883 -1.77635684E-15
vt 0 0
vt 0 1
vt 1 1
vt 1 0
vt 0 0
vt 0 1
vt 1 1
vt 1 0
vn -0 0 1
vn -0 0 1
vn -0 0 1
vn -0 0 1
vn -0 0 1
vn -0 0 1
vn -0 0 1
vn -0 0 1
g general_shizi_03_0
f 3/3/3 2/2/2 1/1/1
f 4/4/4 3/3/3 1/1/1
f 7/7/7 6/6/6 5/5/5
f 8/8/8 7/7/7 5/5/5
