g Line003
v -0.136990637 0.0696281418 0
v -0.166864708 0.00171445555 0
v -0.161980584 0.0393056273 0
v -0.155079916 -0.0403141193 0
v -0.120854095 0.0796736032 0
v -0.103722274 0.0867586359 0
v -0.0857910812 0.0895433351 0
v -0.0672563985 0.086687766 0
v -0.0483141728 0.0768520609 0
v -0.0291602835 0.0586962588 0
v -0.00999064185 0.0308804736 0
v 0.100920096 0.0841851458 0
v 0.0123069985 0.0605555587 0
v 0.0325193107 0.0808349699 0
v 0.0510665402 0.0925281718 0
v 0.0848466977 0.0933938026 0
v 0.0683689192 0.0964446068 0
v 0.117009357 0.0696281418 0
v 0.137758553 0.0353953391 0
v 0.140911654 -0.00262247794 0
v 0.129247904 -0.0429021828 0
v 0.105546564 -0.0839206427 0
v -0.130063236 -0.0839488581 0
v 0.0725868568 -0.124154799 0
v -0.0952515006 -0.126358494 0
v 0.0331480391 -0.162081435 0
v -0.0540816598 -0.164711788 0
v -0.00999064185 -0.196177483 0
vt 0.0965304226 0.908132315
vt -0.000533774495 0.676045656
vt 0.0153352469 0.804508865
vt 0.0377563089 0.532418191
vt 0.14895989 0.942461431
vt 0.204623058 0.966673672
vt 0.262883544 0.976190031
vt 0.323104799 0.966431439
vt 0.38465023 0.932819188
vt 0.44688338 0.870773911
vt 0.509167671 0.775716901
vt 0.869529188 0.957879066
vt 0.581615269 0.877127826
vt 0.647287309 0.946430266
vt 0.707549334 0.986390352
vt 0.817304909 0.989348471
vt 0.763766706 0.999774277
vt 0.921804965 0.908132315
vt 0.989221394 0.791145921
vt 0.99946624 0.661224723
vt 0.961569369 0.523573756
vt 0.884561062 0.383398294
vt 0.119038358 0.383301854
vt 0.777471304 0.24590297
vt 0.232145563 0.238372132
vt 0.649330139 0.116293386
vt 0.365911007 0.107304469
vt 0.509167671 -0.000225648284
vn -0 0 1
vn -0 0 1
vn -0 0 1
vn -0 0 1
vn -0 0 1
vn -0 0 1
vn -0 0 1
vn -0 0 1
vn -0 0 1
vn -0 0 1
vn -0 0 1
vn -0 0 1
vn -0 0 1
vn -0 0 1
vn -0 0 1
vn -0 0 1
vn -0 0 1
vn -0 0 1
vn -0 0 1
vn -0 0 1
vn -0 0 1
vn -0 0 1
vn -0 0 1
vn -0 0 1
vn -0 0 1
vn -0 0 1
vn -0 0 1
vn -0 0 1
g Line003_0
f 3/3/3 2/2/2 1/1/1
f 2/2/2 4/4/4 1/1/1
f 4/4/4 5/5/5 1/1/1
f 6/6/6 5/5/5 4/4/4
f 7/7/7 6/6/6 4/4/4
f 8/8/8 7/7/7 4/4/4
f 9/9/9 8/8/8 4/4/4
f 10/10/10 9/9/9 4/4/4
f 11/11/11 10/10/10 4/4/4
f 12/12/12 11/11/11 4/4/4
f 13/13/13 11/11/11 12/12/12
f 14/14/14 13/13/13 12/12/12
f 15/15/15 14/14/14 12/12/12
f 16/16/16 15/15/15 12/12/12
f 17/17/17 15/15/15 16/16/16
f 18/18/18 12/12/12 4/4/4
f 19/19/19 18/18/18 4/4/4
f 20/20/20 19/19/19 4/4/4
f 21/21/21 20/20/20 4/4/4
f 22/22/22 21/21/21 4/4/4
f 23/23/23 22/22/22 4/4/4
f 24/24/24 22/22/22 23/23/23
f 25/25/25 24/24/24 23/23/23
f 26/26/26 24/24/24 25/25/25
f 27/27/27 26/26/26 25/25/25
f 28/28/28 26/26/26 27/27/27
