g Cone001
v 0.294411629 1.23540342 0
v 0.254243255 2.52724361 0.0253999997
v 0.127121627 1.26362181 0
v 0.588823259 2.47080684 0.0253999997
v 0.45644787 1.18513942 0
v 0.912895739 2.37027884 0.0253999997
v 0.610338807 1.1137265 0
v 1.22067761 2.22745299 0.0253999997
v 0.753338218 1.022439 0
v 1.50667644 2.04487801 0.0253999997
v 0.882894337 0.91290611 0
v 1.76578867 1.82581222 0.0253999997
v 0.996695161 0.787082374 0
v 1.99339032 1.57416475 0.0253999997
v 1.0927099 0.647213161 0
v 2.1854198 1.29442632 0.0253999997
v 1.16922534 0.495794356 0
v 2.33845067 0.991588712 0.0253999997
v 1.22487593 0.335528165 0
v 2.44975185 0.67105633 0.0253999997
v 1.25866842 0.169274449 0
v 2.51733685 0.338548899 0.0253999997
v 1.26999998 0 0
v 2.53999996 0 0.0253999997
v 1.25866807 -0.169276416 0
v 2.51733613 -0.338552833 0.0253999997
v 1.22487533 -0.335529894 0
v 2.44975066 -0.671059787 0.0253999997
v 1.16922474 -0.495795846 0
v 2.33844948 -0.991591692 0.0253999997
v 1.0927093 -0.647214293 0
v 2.18541861 -1.29442859 0.0253999997
v 0.996694505 -0.787083268 0
v 1.99338901 -1.57416654 0.0253999997
v 0.882893682 -0.912906766 0
v 1.76578736 -1.82581353 0.0253999997
v 0.753337622 -1.02243936 0
v 1.50667524 -2.04487872 0.0253999997
v 0.61033833 -1.11372674 0
v 1.22067666 -2.22745347 0.0253999997
v 0.456447512 -1.18513954 0
v 0.912895024 -2.37027907 0.0253999997
v 0.294411421 -1.23540354 0
v 0.588822842 -2.47080708 0.0253999997
v 0.127121538 -1.26362181 0
v 0.254243076 -2.52724361 0.0253999997
v -0.0424368046 -1.26929069 0
v -0.0848736092 -2.53858137 0.0253999997
v -0.211237848 -1.25230932 0
v -0.422475696 -2.50461864 0.0253999997
v -0.37626937 -1.21298027 0
v -0.752538741 -2.42596054 0.0253999997
v -0.53458643 -1.15200579 0
v -1.06917286 -2.30401158 0.0253999997
v -0.683363736 -1.07047367 0
v -1.36672747 -2.14094734 0.0253999997
v -0.819946468 -0.969839036 0
v -1.63989294 -1.93967807 0.0253999997
v -0.941897452 -0.851897418 0
v -1.8837949 -1.70379484 0.0253999997
v -1.04704022 -0.718753636 0
v -2.09408045 -1.43750727 0.0253999997
v -1.13349855 -0.572783709 0
v -2.2669971 -1.14556742 0.0253999997
v -1.19972944 -0.41659236 0
v -2.39945889 -0.833184719 0.0253999997
v -1.24455118 -0.252966911 0
v -2.48910236 -0.505933821 0.0253999997
v -1.26716387 -0.0848272517 0
v -2.53432775 -0.169654503 0.0253999997
v -1.26716387 0.0848261267 0
v -2.53432775 0.169652253 0.0253999997
v -1.24455142 0.252965808 0
v -2.48910284 0.505931616 0.0253999997
v -1.1997298 0.416591287 0
v -2.3994596 0.833182573 0.0253999997
v -1.13349903 0.572782636 0
v -2.26699805 1.14556527 0.0253999997
v -1.04704082 0.718752682 0
v -2.09408164 1.43750536 0.0253999997
v -0.941898227 0.851896524 0
v -1.88379645 1.70379305 0.0253999997
v -0.819947302 0.969838381 0
v -1.6398946 1.93967676 0.0253999997
v -0.683364451 1.07047331 0
v -1.3667289 2.14094663 0.0253999997
v -0.534586906 1.15200555 0
v -1.06917381 2.30401111 0.0253999997
v -0.376269758 1.21298015 0
v -0.752539515 2.4259603 0.0253999997
v -0.211238101 1.2523092 0
v -0.422476202 2.50461841 0.0253999997
v -0.0424368754 1.26929069 0
v -0.0848737508 2.53858137 0.0253999997
v 0.127121627 1.26362181 0
v 0.254243255 2.52724361 0.0253999997
vt 0.00531893969 1
vt -0.0159575343 0
vt -0.0159575343 1
vt 0.00531893969 0
vt 0.0265955925 1
vt 0.0265955925 0
vt 0.0478721857 1
vt 0.0478721857 0
vt 0.0691487193 1
vt 0.0691487193 0
vt 0.0904253721 1
vt 0.0904253721 0
vt 0.111701965 1
vt 0.111701965 0
vt 0.132978499 1
vt 0.132978499 0
vt 0.154255152 1
vt 0.154255152 0
vt 0.175531745 1
vt 0.175531745 0
vt 0.196808279 1
vt 0.196808279 0
vt 0.218084931 1
vt 0.218084931 0
vt 0.239361763 1
vt 0.239361763 0
vt 0.260638416 1
vt 0.260638416 0
vt 0.28191489 1
vt 0.28191489 0
vt 0.303191543 1
vt 0.303191543 0
vt 0.324468017 1
vt 0.324468017 0
vt 0.34574461 1
vt 0.34574461 0
vt 0.367021203 1
vt 0.367021203 0
vt 0.388297796 1
vt 0.388297796 0
vt 0.40957433 1
vt 0.40957433 0
vt 0.430850923 1
vt 0.430850923 0
vt 0.452127457 1
vt 0.452127457 0
vt 0.47340405 1
vt 0.47340405 0
vt 0.494680613 1
vt 0.494680613 0
vt 0.515957236 1
vt 0.515957236 0
vt 0.53723377 1
vt 0.53723377 0
vt 0.558510303 1
vt 0.558510303 0
vt 0.579786897 1
vt 0.579786897 0
vt 0.60106349 1
vt 0.60106349 0
vt 0.622340083 1
vt 0.622340083 0
vt 0.643616736 1
vt 0.643616736 0
vt 0.664893329 1
vt 0.664893329 0
vt 0.686169922 1
vt 0.686169922 0
vt 0.707446575 1
vt 0.707446575 0
vt 0.728723168 1
vt 0.728723168 0
vt 0.749999762 1
vt 0.749999762 0
vt 0.771276355 1
vt 0.771276355 0
vt 0.792552948 1
vt 0.792552948 0
vt 0.813829601 1
vt 0.813829601 0
vt 0.835106134 1
vt 0.835106134 0
vt 0.856382787 1
vt 0.856382787 0
vt 0.87765944 1
vt 0.87765944 0
vt 0.898936033 1
vt 0.898936033 0
vt 0.920212567 1
vt 0.920212567 0
vt 0.94148922 1
vt 0.94148922 0
vt 0.962765753 1
vt 0.962765753 0
vt 0.984042466 1
vt 0.984042466 0
vn 0.00463547558 0.0194512848 -0.999800146
vn 0.00200151396 0.0198955815 -0.999800146
vn 0.00200151349 0.0198955778 -0.999800146
vn 0.00463547511 0.0194512848 -0.999800146
vn 0.00718671409 0.0186598822 -0.999800146
vn 0.00718671316 0.0186598822 -0.999800146
vn 0.00960971229 0.0175354928 -0.999800146
vn 0.00960971136 0.0175354928 -0.999800146
vn 0.0118612265 0.0160981808 -0.999800146
vn 0.0118612247 0.0160981789 -0.999800146
vn 0.0139010716 0.0143735996 -0.999800146
vn 0.0139010716 0.0143735977 -0.999800146
vn 0.0156928524 0.012392519 -0.999800146
vn 0.0156928524 0.012392519 -0.999800146
vn 0.0172045957 0.0101902969 -0.999800146
vn 0.0172045957 0.0101902969 -0.999800146
vn 0.0184093155 0.00780623173 -0.999800146
vn 0.0184093155 0.0078062308 -0.999800146
vn 0.0192855261 0.00528285373 -0.999800146
vn 0.0192855261 0.00528285373 -0.999800146
vn 0.0198175889 0.00266520283 -0.999800146
vn 0.019817587 0.00266520306 -0.999800146
vn 0.0199960023 0 -0.999800146
vn 0.0199960023 0 -0.999800146
vn 0.0198175833 -0.00266523124 -0.999800146
vn 0.0198175833 -0.00266523147 -0.999800146
vn 0.0192855224 -0.00528287841 -0.999800146
vn 0.0192855205 -0.00528287748 -0.999800146
vn 0.018409308 -0.0078062471 -0.999800146
vn 0.018409308 -0.00780624757 -0.999800146
vn 0.0172045827 -0.0101903165 -0.999800146
vn 0.0172045808 -0.0101903155 -0.999800146
vn 0.015692845 -0.0123925349 -0.999800146
vn 0.0156928431 -0.012392533 -0.999800146
vn 0.0139010577 -0.0143736117 -0.999800146
vn 0.0139010558 -0.0143736098 -0.999800146
vn 0.0118612126 -0.0160981901 -0.999800146
vn 0.0118612126 -0.0160981882 -0.999800146
vn 0.00960970949 -0.0175354946 -0.999800146
vn 0.00960970856 -0.0175354928 -0.999800146
vn 0.00718671409 -0.0186598822 -0.999800146
vn 0.00718671316 -0.0186598804 -0.999800146
vn 0.00463546859 -0.0194512866 -0.999800146
vn 0.00463546766 -0.0194512848 -0.999800146
vn 0.00200150954 -0.0198955778 -0.999800146
vn 0.00200150977 -0.0198955815 -0.999800146
vn -0.000668159919 -0.0199848358 -0.999800146
vn -0.000668160093 -0.0199848358 -0.999800146
vn -0.00332591496 -0.0197174679 -0.999800146
vn -0.0033259145 -0.0197174661 -0.999800146
vn -0.00592431752 -0.0190982372 -0.999800146
vn -0.00592431752 -0.0190982353 -0.999800146
vn -0.00841700006 -0.0181381963 -0.999800146
vn -0.00841699913 -0.0181381963 -0.999800146
vn -0.0107594859 -0.0168544818 -0.999800146
vn -0.010759485 -0.0168544836 -0.999800146
vn -0.0129099619 -0.015270005 -0.999800146
vn -0.0129099619 -0.015270004 -0.999800146
vn -0.014830065 -0.0134130288 -0.999800146
vn -0.014830064 -0.0134130288 -0.999800146
vn -0.0164855253 -0.0113166953 -0.999800146
vn -0.0164855234 -0.0113166943 -0.999800146
vn -0.017846806 -0.00901841 -0.999800146
vn -0.0178468041 -0.00901840907 -0.999800146
vn -0.0188896041 -0.00655919267 -0.999800146
vn -0.0188896023 -0.00655919267 -0.999800146
vn -0.0195953157 -0.00398293696 -0.999800146
vn -0.0195953157 -0.00398293696 -0.999800146
vn -0.0199513491 -0.00133559667 -0.999800146
vn -0.0199513454 -0.00133559643 -0.999800146
vn -0.0199513491 0.00133557932 -0.999800146
vn -0.019951351 0.0013355792 -0.999800146
vn -0.0195953175 0.00398291321 -0.999800146
vn -0.0195953157 0.00398291368 -0.999800146
vn -0.0188896041 0.00655918196 -0.999800146
vn -0.0188896041 0.00655918149 -0.999800146
vn -0.0178468097 0.00901839882 -0.999800146
vn -0.0178468078 0.00901839696 -0.999800146
vn -0.0164855383 0.0113166776 -0.999800146
vn -0.0164855365 0.0113166757 -0.999800146
vn -0.0148300799 0.0134130111 -0.999800146
vn -0.0148300817 0.0134130092 -0.999800146
vn -0.0129099768 0.015269991 -0.999800146
vn -0.0129099768 0.0152699919 -0.999800146
vn -0.0107594905 0.016854478 -0.999800146
vn -0.0107594905 0.016854478 -0.999800146
vn -0.00841700565 0.0181381945 -0.999800146
vn -0.00841700658 0.0181381945 -0.999800146
vn -0.00592432357 0.0190982353 -0.999800146
vn -0.00592432311 0.0190982334 -0.999800146
vn -0.00332591799 0.0197174661 -0.999800146
vn -0.00332591753 0.0197174661 -0.999800146
vn -0.000668165158 0.0199848376 -0.999800146
vn -0.000668164983 0.0199848339 -0.999800146
vn 0.00200151349 0.0198955778 -0.999800146
vn 0.00200151396 0.0198955815 -0.999800146
g Cone001_0
f 3/3/3 2/2/2 1/1/1
f 2/2/2 4/4/4 1/1/1
f 1/1/1 4/4/4 5/5/5
f 4/4/4 6/6/6 5/5/5
f 5/5/5 6/6/6 7/7/7
f 6/6/6 8/8/8 7/7/7
f 7/7/7 8/8/8 9/9/9
f 8/8/8 10/10/10 9/9/9
f 9/9/9 10/10/10 11/11/11
f 10/10/10 12/12/12 11/11/11
f 11/11/11 12/12/12 13/13/13
f 12/12/12 14/14/14 13/13/13
f 13/13/13 14/14/14 15/15/15
f 14/14/14 16/16/16 15/15/15
f 15/15/15 16/16/16 17/17/17
f 16/16/16 18/18/18 17/17/17
f 17/17/17 18/18/18 19/19/19
f 18/18/18 20/20/20 19/19/19
f 19/19/19 20/20/20 21/21/21
f 20/20/20 22/22/22 21/21/21
f 21/21/21 22/22/22 23/23/23
f 22/22/22 24/24/24 23/23/23
f 23/23/23 24/24/24 25/25/25
f 24/24/24 26/26/26 25/25/25
f 25/25/25 26/26/26 27/27/27
f 26/26/26 28/28/28 27/27/27
f 27/27/27 28/28/28 29/29/29
f 28/28/28 30/30/30 29/29/29
f 29/29/29 30/30/30 31/31/31
f 30/30/30 32/32/32 31/31/31
f 31/31/31 32/32/32 33/33/33
f 32/32/32 34/34/34 33/33/33
f 33/33/33 34/34/34 35/35/35
f 34/34/34 36/36/36 35/35/35
f 35/35/35 36/36/36 37/37/37
f 36/36/36 38/38/38 37/37/37
f 37/37/37 38/38/38 39/39/39
f 38/38/38 40/40/40 39/39/39
f 39/39/39 40/40/40 41/41/41
f 40/40/40 42/42/42 41/41/41
f 41/41/41 42/42/42 43/43/43
f 42/42/42 44/44/44 43/43/43
f 43/43/43 44/44/44 45/45/45
f 44/44/44 46/46/46 45/45/45
f 45/45/45 46/46/46 47/47/47
f 46/46/46 48/48/48 47/47/47
f 47/47/47 48/48/48 49/49/49
f 48/48/48 50/50/50 49/49/49
f 49/49/49 50/50/50 51/51/51
f 50/50/50 52/52/52 51/51/51
f 51/51/51 52/52/52 53/53/53
f 52/52/52 54/54/54 53/53/53
f 53/53/53 54/54/54 55/55/55
f 54/54/54 56/56/56 55/55/55
f 55/55/55 56/56/56 57/57/57
f 56/56/56 58/58/58 57/57/57
f 57/57/57 58/58/58 59/59/59
f 58/58/58 60/60/60 59/59/59
f 59/59/59 60/60/60 61/61/61
f 60/60/60 62/62/62 61/61/61
f 61/61/61 62/62/62 63/63/63
f 62/62/62 64/64/64 63/63/63
f 63/63/63 64/64/64 65/65/65
f 64/64/64 66/66/66 65/65/65
f 65/65/65 66/66/66 67/67/67
f 66/66/66 68/68/68 67/67/67
f 67/67/67 68/68/68 69/69/69
f 68/68/68 70/70/70 69/69/69
f 69/69/69 70/70/70 71/71/71
f 70/70/70 72/72/72 71/71/71
f 71/71/71 72/72/72 73/73/73
f 72/72/72 74/74/74 73/73/73
f 73/73/73 74/74/74 75/75/75
f 74/74/74 76/76/76 75/75/75
f 75/75/75 76/76/76 77/77/77
f 76/76/76 78/78/78 77/77/77
f 77/77/77 78/78/78 79/79/79
f 78/78/78 80/80/80 79/79/79
f 79/79/79 80/80/80 81/81/81
f 80/80/80 82/82/82 81/81/81
f 81/81/81 82/82/82 83/83/83
f 82/82/82 84/84/84 83/83/83
f 83/83/83 84/84/84 85/85/85
f 84/84/84 86/86/86 85/85/85
f 85/85/85 86/86/86 87/87/87
f 86/86/86 88/88/88 87/87/87
f 87/87/87 88/88/88 89/89/89
f 88/88/88 90/90/90 89/89/89
f 89/89/89 90/90/90 91/91/91
f 90/90/90 92/92/92 91/91/91
f 91/91/91 92/92/92 93/93/93
f 92/92/92 94/94/94 93/93/93
f 93/93/93 94/94/94 95/95/95
f 94/94/94 96/96/96 95/95/95
