g Plane006
v 0.519838214 -4.18708038 -0.752773643
v 1.00670195 -1.82152092 -0.172500893
v 1.00670195 -3.39087605 -0.172500849
v 0.519838214 -2.48073792 -0.752773941
v 1.00670195 -0.17124851 -0.172500908
v 0.00934330001 -4.6628108 -1.49763954
v 0.519838035 -1.04503417 -0.752774119
v 1.00670159 1.55994117 -0.172500953
v 0.1001947 -2.59262323 -1.37199152
v -0.26813215 -4.78811312 -2.19429922
v 0.519838214 1.02224576 -0.761819541
v 1.00670159 3.3720479 -0.172501013
v 0.519838154 3.50744963 -0.75277406
v -0.122467004 -2.78772688 -1.86979318
v -0.460153908 -5.12246132 -2.43553805
v -0.397652626 -2.96501851 -2.38448
v 0.00934299454 -1.2138778 -1.49764037
v 0.00934295636 0.749801159 -1.49740624
v 0.00934310909 2.7509408 -1.49764001
v -0.118918948 -1.38867342 -2.19430017
v -0.248439446 -1.39982772 -2.96419001
v -0.268132865 0.246916771 -2.44359207
v -0.268132836 2.2673409 -2.19430041
v -0.397653371 0.30661869 -3.21348286
v -0.397653162 2.10294986 -2.96418905
v 1.00670195 -1.82152069 0.172501057
v 0.519837916 -4.42604828 0.752773941
v 1.00670195 -3.39087582 0.172501057
v 0.519838035 -2.71970534 0.752773941
v 0.00934326183 -4.89075756 1.49763942
v 1.00670195 -0.171248391 0.172501057
v 0.00934310909 -3.07040954 1.49764037
v -0.26813218 -5.20255184 2.19429922
v 0.519837737 -0.935643733 0.752774119
v 1.00670159 1.55994141 0.17250137
v -0.704453588 -3.2318368 2.19430089
v -0.397652626 -5.53689909 2.96418977
v -0.833973527 -3.40912867 2.96419144
v 0.519838035 0.926138103 0.752773941
v 1.00670159 3.37204838 0.17250137
v 0.519837916 2.86563993 0.752774239
v -0.286160052 -1.08324456 1.49764049
v -0.779218793 -1.32185173 2.19430113
v -1.19571245 -1.63418806 2.9641912
v 0.00934287999 0.782601595 1.49764049
v 0.00934307091 2.54260397 1.49764049
v -0.00937816594 0.936873138 2.19430137
v -0.138898671 0.56186384 2.96419144
v -0.268133044 2.71786714 2.19430065
v -0.392000496 2.48472261 2.96419144
vt 0.75 0
vt 1 0.25
vt 1 0
vt 0.75 0.25
vt 1 0.5
vt 0.5 0
vt 0.75 0.5
vt 1 0.75
vt 0.5 0.25
vt 0.25 0
vt 0.75 0.75
vt 1 1
vt 0.75 1
vt 0.25 0.25
vt 0 0
vt 0 0.25
vt 0.5 0.5
vt 0.5 0.75
vt 0.5 1
vt 0.25 0.5
vt 0 0.5
vt 0.25 0.75
vt 0.25 1
vt 0 0.75
vt 0 1
vt 1 0.25
vt 0.75 0
vt 1 0
vt 0.75 0.25
vt 0.5 0
vt 1 0.5
vt 0.5 0.25
vt 0.25 0
vt 0.75 0.5
vt 1 0.75
vt 0.25 0.25
vt 0 0
vt 0 0.25
vt 0.75 0.75
vt 1 1
vt 0.75 1
vt 0.5 0.5
vt 0.25 0.5
vt 0 0.5
vt 0.5 0.75
vt 0.5 1
vt 0.25 0.75
vt 0 0.75
vt 0.25 1
vt 0 1
vn -0.802502096 0 0.596649289
vn -0.766072512 0 0.642754257
vn -0.766072452 0 0.642754316
vn -0.797746718 0.00045039269 0.602992535
vn -0.766072512 0 0.642754257
vn -0.89816618 0.0122112762 0.439486533
vn -0.796837807 0.000363280415 0.604193211
vn -0.769846022 0.00141259981 0.638228059
vn -0.870269954 -0.00459975051 0.492553592
vn -0.805704832 -0.0349753127 0.591283739
vn -0.796614528 -0.000553327205 0.604487419
vn -0.767897308 -0.00254991371 0.640567839
vn -0.802095413 -0.00176204508 0.597193301
vn -0.905317366 0.0207629465 0.424228072
vn -0.79641217 -0.0311574116 0.603951097
vn -0.900052786 0.0433993526 0.433614403
vn -0.922287226 0.00579482922 0.386461914
vn -0.905995011 -0.00905274227 0.423191369
vn -0.902959824 -0.0183563586 0.429332614
vn -0.981054783 0.0205644295 0.192635998
vn -0.986166358 0.0212349072 0.164393142
vn -0.975371897 -0.0270076469 0.218907163
vn -0.970658779 -0.0258238092 0.23907049
vn -0.986798584 -0.0298171677 0.159183607
vn -0.987188995 -0.016246805 0.158725768
vn -0.766072214 0 -0.642754436
vn -0.802501917 0 -0.596649528
vn -0.766072214 0 -0.642754436
vn -0.796411991 0 -0.604754567
vn -0.893537998 0 -0.448987722
vn -0.766072273 0 -0.642754376
vn -0.762242675 -0.0621714704 -0.644298613
vn -0.92303735 -0.147306278 -0.355391204
vn -0.734322846 -0.01885809 -0.678538442
vn -0.766072273 0 -0.642754376
vn -0.878155053 -0.116774954 -0.463904291
vn -0.949931681 -0.203120664 -0.237427488
vn -0.963730693 -0.137188196 -0.228916228
vn -0.782363176 0.0229406897 -0.622399986
vn -0.766072452 0 -0.642754316
vn -0.802453101 0 -0.596715271
vn -0.75555557 0.00249352888 -0.655079722
vn -0.868989646 0.0849609897 -0.487481892
vn -0.887916148 0.0822951943 -0.452584207
vn -0.923624098 0.115472279 -0.365492523
vn -0.91780597 -0.0556684062 -0.393107027
vn -0.975601256 0.151831403 -0.15858525
vn -0.974942803 0.12155661 -0.1863074
vn -0.975380838 -0.106348664 -0.193189561
vn -0.988325 -0.102708697 -0.112536713
g Plane006_0
f 3/3/3 2/2/2 1/1/1
f 4/4/4 1/1/1 2/2/2
f 2/2/2 5/5/5 4/4/4
f 1/1/1 4/4/4 6/6/6
f 7/7/7 4/4/4 5/5/5
f 5/5/5 8/8/8 7/7/7
f 9/9/9 6/6/6 4/4/4
f 4/4/4 7/7/7 9/9/9
f 6/6/6 9/9/9 10/10/10
f 11/11/11 7/7/7 8/8/8
f 8/8/8 12/12/12 11/11/11
f 13/13/13 11/11/11 12/12/12
f 14/14/14 10/10/10 9/9/9
f 10/10/10 14/14/14 15/15/15
f 16/16/16 15/15/15 14/14/14
f 17/17/17 9/9/9 7/7/7
f 7/7/7 11/11/11 17/17/17
f 9/9/9 17/17/17 14/14/14
f 11/11/11 13/13/13 18/18/18
f 18/18/18 17/17/17 11/11/11
f 19/19/19 18/18/18 13/13/13
f 14/14/14 20/20/20 16/16/16
f 20/20/20 14/14/14 17/17/17
f 17/17/17 18/18/18 20/20/20
f 21/21/21 16/16/16 20/20/20
f 18/18/18 19/19/19 22/22/22
f 22/22/22 20/20/20 18/18/18
f 20/20/20 22/22/22 21/21/21
f 23/23/23 22/22/22 19/19/19
f 24/24/24 21/21/21 22/22/22
f 22/22/22 23/23/23 24/24/24
f 25/25/25 24/24/24 23/23/23
f 28/28/28 27/27/27 26/26/26
f 29/29/29 26/26/26 27/27/27
f 27/27/27 30/30/30 29/29/29
f 26/26/26 29/29/29 31/31/31
f 32/32/32 29/29/29 30/30/30
f 30/30/30 33/33/33 32/32/32
f 34/34/34 31/31/31 29/29/29
f 29/29/29 32/32/32 34/34/34
f 31/31/31 34/34/34 35/35/35
f 36/36/36 32/32/32 33/33/33
f 33/33/33 37/37/37 36/36/36
f 38/38/38 36/36/36 37/37/37
f 39/39/39 35/35/35 34/34/34
f 35/35/35 39/39/39 40/40/40
f 41/41/41 40/40/40 39/39/39
f 42/42/42 34/34/34 32/32/32
f 32/32/32 36/36/36 42/42/42
f 34/34/34 42/42/42 39/39/39
f 36/36/36 38/38/38 43/43/43
f 43/43/43 42/42/42 36/36/36
f 44/44/44 43/43/43 38/38/38
f 39/39/39 45/45/45 41/41/41
f 45/45/45 39/39/39 42/42/42
f 42/42/42 43/43/43 45/45/45
f 46/46/46 41/41/41 45/45/45
f 43/43/43 44/44/44 47/47/47
f 47/47/47 45/45/45 43/43/43
f 45/45/45 47/47/47 46/46/46
f 48/48/48 47/47/47 44/44/44
f 49/49/49 46/46/46 47/47/47
f 47/47/47 48/48/48 49/49/49
f 50/50/50 49/49/49 48/48/48
