g Cone001
v 0.0339508988 0.192545071 0
v 1.18839329E-08 0.157407448 0.262806207
v 1.47610013E-08 0.195515379 0
v 0.0273335241 0.15501608 0.262806207
v 0.0668702051 0.183724359 0
v 0.0538365208 0.147914618 0.262806207
v 0.0977576822 0.169321284 0
v 0.0787037238 0.136318862 0.262806207
v 0.125674859 0.149773479 0
v 0.101179548 0.120581113 0.262806207
v 0.149773464 0.125674859 0
v 0.120581098 0.101179563 0.262806207
v 0.169321284 0.0977576897 0
v 0.136318848 0.0787037238 0.262806207
v 0.183724359 0.0668702051 0
v 0.147914618 0.0538365208 0.262806207
v 0.192545071 0.0339508913 0
v 0.15501608 0.0273335185 0.262806207
v 0.195515379 0 0
v 0.157407448 0 0.262806207
v 0.192545027 -0.0339510329 0
v 0.15501605 -0.027333634 0.262806207
v 0.183724299 -0.0668703318 0
v 0.147914588 -0.0538366251 0.262806207
v 0.169321224 -0.0977578014 0
v 0.136318803 -0.0787038207 0.262806207
v 0.149773389 -0.125674963 0
v 0.120581031 -0.101179637 0.262806207
v 0.125674784 -0.149773553 0
v 0.101179495 -0.120581165 0.262806207
v 0.0977575928 -0.169321343 0
v 0.0787036419 -0.136318907 0.262806207
v 0.0668701008 -0.183724403 0
v 0.0538364388 -0.147914648 0.262806207
v 0.0339507945 -0.192545086 0
v 0.0273334403 -0.155016094 0.262806207
v -9.08975011E-08 -0.195515379 0
v -7.3180658E-08 -0.157407448 0.262806207
v 0.0902157873 -0.0717904493 0
v 0.0815648511 -0.0443073064 0.262806207
v 0.10131149 -0.055033993 0
v 0.0726318136 -0.0577977635 0.262806207
v 0.0763789192 -0.0863655955 0
v 0.0614918992 -0.0695320666 0.262806207
v 0.0602213368 -0.0983165726 0
v 0.0484835915 -0.0791536719 0.262806207
v 0.0422339514 -0.107280239 0
v 0.0340021215 -0.0863702372 0.262806207
v 0.0229632948 -0.112984262 0
v 0.0184875131 -0.0909624845 0.262806207
v 0.00299491873 -0.115255319 0
v 0.00241117948 -0.0927908868 0.262806207
v -0.017064454 -0.114024378 0
v -0.0137384171 -0.0917998776 0.262806207
v -0.036605332 -0.109328888 0
v -0.0294705816 -0.0880195796 0.262806207
v -0.0550339818 -0.10131149 0
v -0.0443073027 -0.0815648511 0.262806207
v -0.0717905089 -0.0902157277 0
v -0.0577978119 -0.0726317689 0.262806207
v -0.0863656476 -0.0763788596 0
v -0.0695321187 -0.0614918545 0.262806207
v -0.0983166099 -0.0602212697 0
v -0.0791537091 -0.0484835319 0.262806207
v -0.107280269 -0.0422338657 0
v -0.0863702595 -0.0340020619 0.262806207
v -0.11298427 -0.0229632277 0
v -0.0909624919 -0.0184874628 0.262806207
v -0.115255319 -0.00299485191 0
v -0.0927908868 -0.0024111222 0.262806207
v -0.114024386 0.0170645211 0
v -0.0917998701 0.0137384702 0.262806207
v -0.109328866 0.0366053917 0
v -0.0880195722 0.0294706281 0.262806207
v -0.10131146 0.0550340302 0
v -0.0815648362 0.0443073399 0.262806207
vt 0.961193562 0
vt 0.999999881 0.996517241
vt 0.999999881 0
vt 0.961193442 0.996517241
vt 0.922387004 0
vt 0.922387004 0.996517241
vt 0.883580685 0
vt 0.883580685 0.996517241
vt 0.844774127 0
vt 0.844774127 0.996517241
vt 0.805967569 0
vt 0.805967569 0.996517241
vt 0.76716125 0
vt 0.76716125 0.996517241
vt 0.728354692 0
vt 0.728354692 0.996517241
vt 0.689548254 0
vt 0.689548254 0.996517241
vt 0.650741816 0
vt 0.650741816 0.996517241
vt 0.611935258 0
vt 0.611935139 0.996517241
vt 0.57312876 0
vt 0.573128819 0.996517241
vt 0.534322381 0
vt 0.534322262 0.996517241
vt 0.495515943 0
vt 0.495515823 0.996517241
vt 0.456709504 0
vt 0.456709385 0.996517241
vt 0.417903006 0
vt 0.417903006 0.996517241
vt 0.379096508 0
vt 0.379096508 0.996517241
vt 0.34029007 0
vt 0.34029007 0.996517241
vt 0.301483631 0
vt 0.301483631 0.996517241
vt 0.551197588 0
vt 0.581200302 0.996517241
vt 0.581200302 0
vt 0.551197469 0.996517241
vt 0.521194637 0
vt 0.521194637 0.996517241
vt 0.491191924 0
vt 0.491191924 0.996517241
vt 0.461188972 0
vt 0.461188972 0.996517241
vt 0.431185961 0
vt 0.431185961 0.996517241
vt 0.401183248 0
vt 0.401183248 0.996517241
vt 0.371180356 0
vt 0.371180356 0.996517241
vt 0.341177464 0
vt 0.341177464 0.996517241
vt 0.311174572 0
vt 0.311174572 0.996517241
vt 0.281171679 0
vt 0.28117156 0.996517241
vt 0.251168787 0
vt 0.251168787 0.996517241
vt 0.221165955 0
vt 0.221165895 0.996517241
vt 0.191163182 0
vt 0.191163003 0.996517241
vt 0.16116029 0
vt 0.161160171 0.996517241
vt 0.131157398 0
vt 0.131157398 0.996517241
vt 0.101154506 0
vt 0.101154506 0.996517241
vt 0.0711516738 0
vt 0.0711516738 0.996517241
vt 0.0411487818 0
vt 0.0411487818 0.996517241
vn 0.17185089 0.974614799 0.143503129
vn 0.0862605348 0.98596108 0.142968237
vn 0.0862603262 0.98596108 0.142968222
vn 0.171851009 0.974614799 0.143503129
vn 0.338480294 0.929966629 0.143503129
vn 0.338480145 0.929966748 0.1435031
vn 0.494824916 0.857061982 0.1435031
vn 0.494824916 0.857061982 0.1435031
vn 0.636134565 0.758115828 0.143503085
vn 0.636134803 0.758115709 0.143503115
vn 0.758115768 0.636134624 0.1435031
vn 0.758115768 0.636134624 0.143503085
vn 0.857061863 0.494824976 0.1435031
vn 0.857061982 0.494824946 0.143503129
vn 0.929966629 0.338480294 0.143503129
vn 0.929966629 0.338480145 0.143503129
vn 0.974614799 0.171850935 0.143503144
vn 0.974614799 0.17185092 0.143503115
vn 0.989649892 -3.35940086E-07 0.143503115
vn 0.989649892 -1.90999344E-07 0.143503115
vn 0.97461468 -0.171851516 0.143503055
vn 0.974614799 -0.171851411 0.143503085
vn 0.929966569 -0.338480622 0.14350307
vn 0.92996645 -0.338480741 0.14350307
vn 0.857061625 -0.494825453 0.1435031
vn 0.857061446 -0.494825721 0.143503129
vn 0.758115351 -0.636135161 0.1435031
vn 0.758115292 -0.636135101 0.143503115
vn 0.636134267 -0.758116126 0.143503115
vn 0.636134267 -0.758116066 0.1435031
vn 0.494824558 -0.857062161 0.143503115
vn 0.49482429 -0.85706234 0.143503144
vn 0.338479757 -0.929966867 0.143503129
vn 0.338479728 -0.929966867 0.143503129
vn 0.171850383 -0.974614918 0.143503144
vn 0.171850473 -0.974614918 0.1435031
vn 0.08625976 -0.98596108 0.142968237
vn 0.0862598568 -0.98596108 0.142968222
vn 0.779637933 -0.620407999 0.0851970166
vn 0.830766201 -0.550112367 0.0848751515
vn 0.830766201 -0.550112486 0.084875159
vn 0.779637992 -0.620407939 0.0851970091
vn 0.660061181 -0.746365011 0.085197024
vn 0.660061061 -0.74636513 0.0851970315
vn 0.520428479 -0.849644423 0.0851970389
vn 0.520428479 -0.849644423 0.0851970315
vn 0.364982516 -0.92710793 0.0851970315
vn 0.364982516 -0.92710793 0.0851970315
vn 0.198447108 -0.976401627 0.0851970166
vn 0.198447168 -0.976401627 0.085197024
vn 0.0258816686 -0.996027946 0.0851970315
vn 0.0258818194 -0.996027946 0.0851970166
vn -0.147469863 -0.985390306 0.0851970091
vn -0.147469938 -0.985390306 0.0851970166
vn -0.316340297 -0.944812238 0.0851970017
vn -0.316340446 -0.944812238 0.0851970166
vn -0.475599796 -0.875526249 0.0851970315
vn -0.475599766 -0.875526249 0.0851970315
vn -0.620408356 -0.779637754 0.0851970166
vn -0.620408058 -0.779637933 0.0851969942
vn -0.746365428 -0.660060704 0.0851969942
vn -0.746365428 -0.660060704 0.0851970091
vn -0.84964484 -0.520427763 0.0851970017
vn -0.849645078 -0.520427406 0.0851970389
vn -0.927108228 -0.36498186 0.0851970091
vn -0.927108228 -0.36498186 0.0851970166
vn -0.976401746 -0.198446572 0.0851970091
vn -0.976401746 -0.198446676 0.0851970166
vn -0.996027946 -0.0258816667 0.0851970315
vn -0.996027946 -0.0258812532 0.0851970538
vn -0.985390186 0.147470385 0.0851970464
vn -0.985390186 0.147470295 0.0851970464
vn -0.944812 0.316341311 0.0851970464
vn -0.944812119 0.316340894 0.085197024
vn -0.913671017 0.397493929 0.0848751292
vn -0.913671017 0.397493988 0.084875159
g Cone001_0
f 3/3/3 2/2/2 1/1/1
f 2/2/2 4/4/4 1/1/1
f 1/1/1 4/4/4 5/5/5
f 4/4/4 6/6/6 5/5/5
f 5/5/5 6/6/6 7/7/7
f 6/6/6 8/8/8 7/7/7
f 7/7/7 8/8/8 9/9/9
f 8/8/8 10/10/10 9/9/9
f 9/9/9 10/10/10 11/11/11
f 10/10/10 12/12/12 11/11/11
f 11/11/11 12/12/12 13/13/13
f 12/12/12 14/14/14 13/13/13
f 13/13/13 14/14/14 15/15/15
f 14/14/14 16/16/16 15/15/15
f 15/15/15 16/16/16 17/17/17
f 16/16/16 18/18/18 17/17/17
f 17/17/17 18/18/18 19/19/19
f 18/18/18 20/20/20 19/19/19
f 19/19/19 20/20/20 21/21/21
f 20/20/20 22/22/22 21/21/21
f 21/21/21 22/22/22 23/23/23
f 22/22/22 24/24/24 23/23/23
f 23/23/23 24/24/24 25/25/25
f 24/24/24 26/26/26 25/25/25
f 25/25/25 26/26/26 27/27/27
f 26/26/26 28/28/28 27/27/27
f 27/27/27 28/28/28 29/29/29
f 28/28/28 30/30/30 29/29/29
f 29/29/29 30/30/30 31/31/31
f 30/30/30 32/32/32 31/31/31
f 31/31/31 32/32/32 33/33/33
f 32/32/32 34/34/34 33/33/33
f 33/33/33 34/34/34 35/35/35
f 34/34/34 36/36/36 35/35/35
f 35/35/35 36/36/36 37/37/37
f 36/36/36 38/38/38 37/37/37
f 41/41/41 40/40/40 39/39/39
f 40/40/40 42/42/42 39/39/39
f 39/39/39 42/42/42 43/43/43
f 42/42/42 44/44/44 43/43/43
f 43/43/43 44/44/44 45/45/45
f 44/44/44 46/46/46 45/45/45
f 45/45/45 46/46/46 47/47/47
f 46/46/46 48/48/48 47/47/47
f 47/47/47 48/48/48 49/49/49
f 48/48/48 50/50/50 49/49/49
f 49/49/49 50/50/50 51/51/51
f 50/50/50 52/52/52 51/51/51
f 51/51/51 52/52/52 53/53/53
f 52/52/52 54/54/54 53/53/53
f 53/53/53 54/54/54 55/55/55
f 54/54/54 56/56/56 55/55/55
f 55/55/55 56/56/56 57/57/57
f 56/56/56 58/58/58 57/57/57
f 57/57/57 58/58/58 59/59/59
f 58/58/58 60/60/60 59/59/59
f 59/59/59 60/60/60 61/61/61
f 60/60/60 62/62/62 61/61/61
f 61/61/61 62/62/62 63/63/63
f 62/62/62 64/64/64 63/63/63
f 63/63/63 64/64/64 65/65/65
f 64/64/64 66/66/66 65/65/65
f 65/65/65 66/66/66 67/67/67
f 66/66/66 68/68/68 67/67/67
f 67/67/67 68/68/68 69/69/69
f 68/68/68 70/70/70 69/69/69
f 69/69/69 70/70/70 71/71/71
f 70/70/70 72/72/72 71/71/71
f 71/71/71 72/72/72 73/73/73
f 72/72/72 74/74/74 73/73/73
f 73/73/73 74/74/74 75/75/75
f 74/74/74 76/76/76 75/75/75
