g Cone001
v -0.667550802 1.15623236 0
v -0.763853192 0.76385361 0.00606785947
v -0.944059432 0.944059908 0
v -0.540125787 0.935525656 0.00606785947
v -0.345549673 1.28960955 0
v -0.583647013 0.583647311 0.0121357189
v -0.279589653 1.04344332 0.00606785947
v -0.412700713 0.714818954 0.0121357189
v -0.213629588 0.797276914 0.0121357189
v 8.15567489E-08 1.08025193 0.00606785947
v 6.23160972E-08 0.825401723 0.0121357189
v 0.279589772 1.0434432 0.00606785947
v 0.213629708 0.797276855 0.0121357189
v 0.540125906 0.935525656 0.00606785947
v 0.412700832 0.714818895 0.0121357189
v 0.763853431 0.763853431 0.00606785947
v 0.583647192 0.583647192 0.0121357189
v 0.935525537 0.540125966 0.00606785947
v 0.714818835 0.412700862 0.0121357189
v 1.0434432 0.279589772 0.00606785947
v 0.797276855 0.213629693 0.0121357189
v 1.08025193 0 0.00606785947
v 0.825401723 0 0.0121357189
v 1.04344296 -0.279590547 0.00606785947
v 0.797276735 -0.213630274 0.0121357189
v 0.935525239 -0.540126562 0.00606785947
v 0.714818597 -0.412701368 0.0121357189
v 0.763852954 -0.763853967 0.00606785947
v 0.583646834 -0.583647549 0.0121357189
v 0.54012543 -0.935525835 0.00606785947
v 0.412700444 -0.714819074 0.0121357189
v 0.403440714 -0.403441221 0.0182035789
v 0.285275549 -0.494112372 0.0182035789
v 0.213629276 -0.797276974 0.0121357189
v 0.147669345 -0.551110625 0.0182035789
v 0.494112045 -0.285276175 0.0182035789
v 0.551110446 -0.147670045 0.0182035789
v 0.570551634 0 0.0182035789
v 0.304944187 -0.0817097947 0.0242714379
v 0.273405463 -0.157850966 0.0242714379
v 0.315701544 0 0.0242714379
v 0.304944277 0.0817095712 0.0242714379
v 0.551110566 0.147669628 0.0182035789
v 0.273405552 0.157850772 0.0242714379
v 0.494112223 0.285275817 0.0182035789
v 0.223234698 0.223234698 0.0242714379
v 0.403440922 0.403440922 0.0182035789
v 0.285275787 0.494112223 0.0182035789
v 0.157850757 0.273405582 0.0242714379
v 0.147669658 0.551110566 0.0182035789
v 0.0304257069 0.0526988767 0.0303392969
v 0.0430284515 0.0430284515 0.0303392969
v 0.0157495085 0.0587779582 0.0303392969
v 0.0817095786 0.304944277 0.0242714379
v 4.59415483E-09 0.0608514212 0.0303392969
v 2.38348026E-08 0.315701544 0.0242714379
v -0.0157494992 0.0587779656 0.0303392969
v 4.30754525E-08 0.570551634 0.0182035789
v -0.0817095339 0.304944277 0.0242714379
v -0.0304257013 0.0526988842 0.0303392969
v -0.147669569 0.551110566 0.0182035789
v -0.157850713 0.273405582 0.0242714379
v -0.0430284403 0.0430284627 0.0303392969
v -0.285275728 0.494112283 0.0182035789
v -0.223234624 0.223234743 0.0242714379
v -0.0526988655 0.0304257255 0.0303392969
v -0.273405492 0.157850847 0.0242714379
v -0.403440833 0.403441042 0.0182035789
v -0.494112134 0.285275966 0.0182035789
v -0.714818776 0.41270107 0.0121357189
vt 0.19842869 1.02233696
vt 0.15492335 0.845076799
vt 0.073513791 0.926486373
vt 0.255993962 0.922631025
vt 0.343895257 1.08259118
vt 0.236332923 0.763667226
vt 0.373693198 0.971383572
vt 0.313559204 0.822925031
vt 0.403491199 0.860176086
vt 0.50000006 0.988012195
vt 0.5 0.872881711
vt 0.626306891 0.971383572
vt 0.596508861 0.860176086
vt 0.744006038 0.922631025
vt 0.686440766 0.822925031
vt 0.84507674 0.84507674
vt 0.763667166 0.763667166
vt 0.922630906 0.744006097
vt 0.822925031 0.686440885
vt 0.971383572 0.626306832
vt 0.860176086 0.596508861
vt 0.988012195 0.5
vt 0.872881711 0.5
vt 0.971383452 0.373692811
vt 0.860175967 0.403490841
vt 0.922630787 0.255993605
vt 0.822924852 0.313558936
vt 0.845076561 0.154923022
vt 0.763666987 0.236332655
vt 0.744005919 0.0773689002
vt 0.686440647 0.177074909
vt 0.682257473 0.317742288
vt 0.628875434 0.276780874
vt 0.596508741 0.139823914
vt 0.56671077 0.251031488
vt 0.723218977 0.371124268
vt 0.748968422 0.433288872
vt 0.757751107 0.5
vt 0.637760878 0.463086963
vt 0.623513043 0.428689599
vt 0.642620623 0.5
vt 0.637760937 0.536912918
vt 0.748968542 0.566710889
vt 0.623513043 0.571310341
vt 0.723219037 0.628875613
vt 0.600848019 0.600848019
vt 0.682257533 0.682257533
vt 0.628875554 0.723219037
vt 0.571310282 0.623513043
vt 0.566710889 0.748968542
vt 0.51374501 0.523807108
vt 0.519438446 0.519438446
vt 0.507114947 0.526553392
vt 0.536912918 0.637760937
vt 0.5 0.527490139
vt 0.5 0.642620623
vt 0.492885053 0.526553392
vt 0.5 0.757751107
vt 0.463087082 0.637760937
vt 0.48625493 0.523807168
vt 0.433289111 0.748968542
vt 0.428689718 0.623513043
vt 0.480561554 0.519438446
vt 0.371124476 0.723219097
vt 0.39915204 0.600848019
vt 0.476192892 0.51374507
vt 0.376486927 0.571310341
vt 0.317742437 0.682257652
vt 0.276780993 0.628875673
vt 0.177075058 0.686440945
vn -0.0119013842 0.0206138063 0.999716699
vn -0.0146151697 0.0190468673 0.999711692
vn -0.0146151707 0.0190468673 0.999711692
vn -0.0119013861 0.0206138119 0.999716699
vn -0.00918748043 0.0221805461 0.999711692
vn -0.0160080809 0.0176541042 0.999715984
vn -0.00728485221 0.0226904526 0.999715984
vn -0.0119013879 0.0206138138 0.999716699
vn -0.00616060896 0.0229917187 0.999716699
vn -0 0.0238027759 0.999716699
vn -0 0.0238027796 0.999716699
vn 0.00616060942 0.0229917131 0.999716699
vn 0.00616061129 0.0229917187 0.999716699
vn 0.011901387 0.0206138063 0.999716699
vn 0.0119013879 0.0206138119 0.999716699
vn 0.0168311037 0.0168311037 0.999716699
vn 0.0168311056 0.0168311056 0.999716699
vn 0.0206138063 0.0119013879 0.999716699
vn 0.0206138063 0.0119013898 0.999716699
vn 0.022991715 0.00616061222 0.999716699
vn 0.0229917187 0.00616061315 0.999716699
vn 0.0238027759 0 0.999716699
vn 0.0238027759 0 0.999716699
vn 0.0229917131 -0.00616062339 0.999716699
vn 0.022991715 -0.00616062339 0.999716699
vn 0.0206138007 -0.0119013991 0.999716699
vn 0.0206138026 -0.0119014019 0.999716699
vn 0.0168310925 -0.0168311168 0.999716699
vn 0.0168310944 -0.0168311186 0.999716699
vn 0.0146151576 -0.0190468766 0.999711692
vn 0.0129093388 -0.0200318545 0.999715984
vn 0.0168310963 -0.0168311205 0.999716699
vn 0.0119013758 -0.0206138231 0.999716699
vn 0.00918747392 -0.0221805591 0.999711692
vn 0.00918747392 -0.0221805554 0.999711692
vn 0.0210796315 -0.0110945469 0.999716222
vn 0.0229917131 -0.00616062386 0.999716699
vn 0.0238027759 0 0.999716699
vn 0.0229917131 -0.00616062339 0.999716699
vn 0.0221805386 -0.0091874944 0.999711692
vn 0.023802774 0 0.999716699
vn 0.0229917113 0.00616061036 0.999716699
vn 0.022991715 0.00616061175 0.999716699
vn 0.0206138063 0.0119013879 0.999716699
vn 0.0206138119 0.0119013907 0.999716699
vn 0.0161723047 0.0174898859 0.999716222
vn 0.0168311056 0.0168311056 0.999716699
vn 0.0119013907 0.0206138119 0.999716699
vn 0.011901387 0.0206138063 0.999716699
vn 0.00616061222 0.0229917169 0.999716699
vn 0.0119013852 0.02061381 0.999716699
vn 0.0146151725 0.0190468654 0.999711692
vn 0.00616060989 0.0229917169 0.999716699
vn 0.00616061129 0.0229917131 0.999716699
vn -0 0.023802774 0.999716699
vn -0 0.0238027722 0.999716699
vn -0.00616060989 0.0229917169 0.999716699
vn -0 0.0238027759 0.999716699
vn -0.00616060989 0.0229917169 0.999716699
vn -0.0119013833 0.0206138119 0.999716699
vn -0.00616060896 0.0229917187 0.999716699
vn -0.0119013842 0.0206138138 0.999716699
vn -0.0168311018 0.0168311056 0.999716699
vn -0.0119013861 0.0206138119 0.999716699
vn -0.0168310981 0.0168311074 0.999716699
vn -0.0190468654 0.0146151781 0.999711692
vn -0.0190468617 0.0146151781 0.999711692
vn -0.0168311018 0.0168311074 0.999716699
vn -0.0190468654 0.0146151818 0.999711692
vn -0.0190468673 0.0146151809 0.999711692
g Cone001_0
f 3/3/3 2/2/2 1/1/1
f 2/2/2 4/4/4 1/1/1
f 1/1/1 4/4/4 5/5/5
f 2/2/2 6/6/6 4/4/4
f 4/4/4 7/7/7 5/5/5
f 4/4/4 8/8/8 7/7/7
f 6/6/6 8/8/8 4/4/4
f 8/8/8 9/9/9 7/7/7
f 7/7/7 9/9/9 10/10/10
f 9/9/9 11/11/11 10/10/10
f 10/10/10 11/11/11 12/12/12
f 11/11/11 13/13/13 12/12/12
f 12/12/12 13/13/13 14/14/14
f 13/13/13 15/15/15 14/14/14
f 14/14/14 15/15/15 16/16/16
f 15/15/15 17/17/17 16/16/16
f 16/16/16 17/17/17 18/18/18
f 17/17/17 19/19/19 18/18/18
f 18/18/18 19/19/19 20/20/20
f 19/19/19 21/21/21 20/20/20
f 20/20/20 21/21/21 22/22/22
f 21/21/21 23/23/23 22/22/22
f 22/22/22 23/23/23 24/24/24
f 23/23/23 25/25/25 24/24/24
f 24/24/24 25/25/25 26/26/26
f 25/25/25 27/27/27 26/26/26
f 26/26/26 27/27/27 28/28/28
f 27/27/27 29/29/29 28/28/28
f 28/28/28 29/29/29 30/30/30
f 29/29/29 31/31/31 30/30/30
f 29/29/29 32/32/32 31/31/31
f 32/32/32 33/33/33 31/31/31
f 31/31/31 33/33/33 34/34/34
f 33/33/33 35/35/35 34/34/34
f 36/36/36 32/32/32 29/29/29
f 27/27/27 36/36/36 29/29/29
f 25/25/25 37/37/37 27/27/27
f 37/37/37 36/36/36 27/27/27
f 23/23/23 38/38/38 25/25/25
f 38/38/38 37/37/37 25/25/25
f 37/37/37 39/39/39 36/36/36
f 39/39/39 40/40/40 36/36/36
f 41/41/41 39/39/39 37/37/37
f 38/38/38 41/41/41 37/37/37
f 42/42/42 41/41/41 38/38/38
f 43/43/43 38/38/38 23/23/23
f 43/43/43 42/42/42 38/38/38
f 21/21/21 43/43/43 23/23/23
f 44/44/44 42/42/42 43/43/43
f 45/45/45 43/43/43 21/21/21
f 45/45/45 44/44/44 43/43/43
f 19/19/19 45/45/45 21/21/21
f 46/46/46 44/44/44 45/45/45
f 47/47/47 45/45/45 19/19/19
f 47/47/47 46/46/46 45/45/45
f 17/17/17 47/47/47 19/19/19
f 48/48/48 47/47/47 17/17/17
f 15/15/15 48/48/48 17/17/17
f 49/49/49 46/46/46 47/47/47
f 48/48/48 49/49/49 47/47/47
f 50/50/50 48/48/48 15/15/15
f 13/13/13 50/50/50 15/15/15
f 49/49/49 51/51/51 46/46/46
f 51/51/51 52/52/52 46/46/46
f 53/53/53 51/51/51 49/49/49
f 54/54/54 49/49/49 48/48/48
f 54/54/54 53/53/53 49/49/49
f 50/50/50 54/54/54 48/48/48
f 55/55/55 53/53/53 54/54/54
f 56/56/56 55/55/55 54/54/54
f 56/56/56 54/54/54 50/50/50
f 57/57/57 55/55/55 56/56/56
f 58/58/58 50/50/50 13/13/13
f 58/58/58 56/56/56 50/50/50
f 11/11/11 58/58/58 13/13/13
f 59/59/59 57/57/57 56/56/56
f 59/59/59 56/56/56 58/58/58
f 60/60/60 57/57/57 59/59/59
f 61/61/61 58/58/58 11/11/11
f 61/61/61 59/59/59 58/58/58
f 9/9/9 61/61/61 11/11/11
f 62/62/62 60/60/60 59/59/59
f 62/62/62 59/59/59 61/61/61
f 63/63/63 60/60/60 62/62/62
f 64/64/64 61/61/61 9/9/9
f 64/64/64 62/62/62 61/61/61
f 8/8/8 64/64/64 9/9/9
f 65/65/65 63/63/63 62/62/62
f 65/65/65 62/62/62 64/64/64
f 66/66/66 63/63/63 65/65/65
f 67/67/67 66/66/66 65/65/65
f 68/68/68 64/64/64 8/8/8
f 68/68/68 65/65/65 64/64/64
f 67/67/67 65/65/65 68/68/68
f 6/6/6 68/68/68 8/8/8
f 69/69/69 67/67/67 68/68/68
f 69/69/69 68/68/68 6/6/6
f 70/70/70 69/69/69 6/6/6
