g general_ring_62_4_2
v 7.38274224E-08 0.750990033 0
v 6.07436519E-08 0.601329088 0
v -0.083439298 0.595621705 0
v -0.103818066 0.743888617 0
v 8.69111929E-08 0.900650859 0
v -0.165324479 0.578605771 0
v -0.124196835 0.892155528 0
v -0.205702454 0.722716928 0
v -0.244129986 0.550598264 0
v -0.246080413 0.866827846 0
v -0.303754985 0.687868953 0
v -0.318387806 0.512121081 0
v -0.363380015 0.825139642 0
v -0.396149158 0.639994264 0
v -0.386714786 0.463890672 0
v -0.473910481 0.767867446 0
v -0.4811638 0.579984426 0
v -0.44783777 0.406805873 0
v -0.575612962 0.696078181 0
v -0.557215273 0.508957386 0
v -0.500618637 0.341929555 0
v -0.666592777 0.611108899 0
v -0.622886896 0.428236187 0
v -0.544073701 0.270470738 0
v -0.745155275 0.514542699 0
v -0.676955342 0.339324594 0
v -0.57739377 0.193760216 0
v -0.809836984 0.408178389 0
v -0.718413353 0.243878841 0
v -0.599958181 0.113227129 0
v -0.859432876 0.293997288 0
v -0.74648869 0.143676758 0
v -0.611346424 0.0303716063 0
v -0.893019259 0.174126327 0
v -0.760658443 0.0405849814 0
v -0.611346483 -0.053262949 0
v -0.909970403 0.0507983565 0
v -0.760658443 -0.0634760261 0
v -0.599958241 -0.136118442 0
v -0.909970462 -0.0736890733 0
v -0.746488869 -0.166567713 0
v -0.577393949 -0.216651589 0
v -0.893019497 -0.197016954 0
v -0.718413591 -0.266769856 0
v -0.54407388 -0.293362141 0
v -0.859433293 -0.316888064 0
v -0.67695564 -0.362215787 0
v -0.500618756 -0.364821047 0
v -0.809837341 -0.431069404 0
v -0.622887254 -0.45112747 0
v -0.447838068 -0.429697275 0
v -0.745155752 -0.537433863 0
v -0.557215691 -0.531848729 0
v -0.386714965 -0.486782283 0
v -0.666593254 -0.634000182 0
v -0.481164217 -0.602875888 0
v -0.318388075 -0.535012662 0
v -0.575613439 -0.718969464 0
v -0.396149516 -0.662885845 0
v -0.244130269 -0.573489964 0
v -0.473910987 -0.790758908 0
v -0.303755373 -0.710760593 0
v -0.165324733 -0.601497471 0
v -0.363380522 -0.848031282 0
v -0.205702811 -0.745608509 0
v -0.0834395364 -0.618513405 0
v -0.246080905 -0.889719546 0
v -0.103818417 -0.766780376 0
v -1.14982086E-08 -0.624220848 0
v -0.124197312 -0.915047288 0
v -6.25215506E-08 -0.773881733 0
v 0.0834395215 -0.618513405 0
v -1.31785669E-07 -0.923542619 0
v 0.103818282 -0.766780376 0
v 0.165324718 -0.601497471 0
v 0.124197043 -0.915047288 0
v 0.205702692 -0.745608568 0
v 0.244130224 -0.573490024 0
v 0.246080667 -0.889719605 0
v 0.303755254 -0.710760653 0
v 0.318388045 -0.535012722 0
v 0.363380283 -0.848031342 0
v 0.396149427 -0.662885845 0
v 0.386714906 -0.486782312 0
v 0.473910749 -0.790759027 0
v 0.481164098 -0.602876008 0
v 0.447838038 -0.429697335 0
v 0.575613201 -0.718969703 0
v 0.557215512 -0.531848907 0
v 0.500618756 -0.364821047 0
v 0.666593075 -0.63400048 0
v 0.622887194 -0.451127619 0
v 0.54407388 -0.293362141 0
v 0.745155573 -0.537434161 0
v 0.676955521 -0.362215936 0
v 0.577393949 -0.216651589 0
v 0.809837222 -0.431069672 0
v 0.718413532 -0.266770035 0
v 0.599958241 -0.136118442 0
v 0.859433115 -0.316888481 0
v 0.746488869 -0.166567892 0
v 0.611346483 -0.053262949 0
v 0.893019438 -0.197017372 0
v 0.760658443 -0.0634762049 0
v 0.611346424 0.0303716063 0
v 0.909970462 -0.0736894011 0
v 0.760658443 0.0405848026 0
v 0.599958181 0.113227129 0
v 0.909970403 0.0507979393 0
v 0.74648875 0.143676519 0
v 0.57739377 0.193760216 0
v 0.893019319 0.17412591 0
v 0.718413413 0.243878603 0
v 0.544073761 0.270470619 0
v 0.859432995 0.293997049 0
v 0.676955402 0.339324415 0
v 0.500618637 0.341929555 0
v 0.809837103 0.40817821 0
v 0.622887135 0.428235888 0
v 0.447837979 0.406805634 0
v 0.745155573 0.51454246 0
v 0.557215571 0.508957148 0
v 0.386714786 0.463890672 0
v 0.666593134 0.611108661 0
v 0.481164098 0.579984307 0
v 0.318388075 0.512120962 0
v 0.57561326 0.696077943 0
v 0.396149457 0.639994025 0
v 0.24413012 0.550598264 0
v 0.473910868 0.767867208 0
v 0.303755164 0.687868953 0
v 0.165324628 0.578605771 0
v 0.363380194 0.825139642 0
v 0.205702633 0.722716808 0
v 0.0834394544 0.595621705 0
v 0.246080637 0.866827846 0
v 0.10381826 0.743888617 0
v -4.63973251E-08 0.601329088 0
v 0.124197066 0.892155528 0
v -5.94810956E-08 0.750990033 0
v -7.25648661E-08 0.900650859 0
vt 0.104980469 0.499511719
vt 0.00830078125 0.589355469
vt 0.0297851562 0.589355469
vt 0.127441406 0.499511719
vt 0.202636719 0.409667969
vt 0.0512695312 0.589355469
vt 0.224121094 0.409667969
vt 0.148925781 0.499511719
vt 0.0727539062 0.589355469
vt 0.245605469 0.409667969
vt 0.170410156 0.499511719
vt 0.0952148438 0.589355469
vt 0.268066406 0.409667969
vt 0.191894531 0.499511719
vt 0.116699219 0.589355469
vt 0.289550781 0.409667969
vt 0.214355469 0.499511719
vt 0.138183594 0.589355469
vt 0.311035156 0.409667969
vt 0.235839844 0.499511719
vt 0.159667969 0.589355469
vt 0.333496094 0.409667969
vt 0.257324219 0.499511719
vt 0.182128906 0.589355469
vt 0.354980469 0.409667969
vt 0.278808594 0.499511719
vt 0.203613281 0.589355469
vt 0.376464844 0.409667969
vt 0.301269531 0.499511719
vt 0.225097656 0.589355469
vt 0.397949219 0.409667969
vt 0.322753906 0.499511719
vt 0.246582031 0.589355469
vt 0.420410156 0.409667969
vt 0.344238281 0.499511719
vt 0.269042969 0.589355469
vt 0.441894531 0.409667969
vt 0.365722656 0.499511719
vt 0.290527344 0.589355469
vt 0.463378906 0.409667969
vt 0.388183594 0.499511719
vt 0.312011719 0.589355469
vt 0.484863281 0.409667969
vt 0.409667969 0.499511719
vt 0.333496094 0.589355469
vt 0.507324219 0.409667969
vt 0.431152344 0.499511719
vt 0.355957031 0.589355469
vt 0.528808594 0.409667969
vt 0.452636719 0.499511719
vt 0.377441406 0.589355469
vt 0.550292969 0.409667969
vt 0.475097656 0.499511719
vt 0.398925781 0.589355469
vt 0.571777344 0.409667969
vt 0.496582031 0.499511719
vt 0.421386719 0.589355469
vt 0.594238281 0.409667969
vt 0.518066406 0.499511719
vt 0.442871094 0.589355469
vt 0.615722656 0.409667969
vt 0.539550781 0.499511719
vt 0.464355469 0.589355469
vt 0.637207031 0.409667969
vt 0.562011719 0.499511719
vt 0.485839844 0.589355469
vt 0.658691406 0.409667969
vt 0.583496094 0.499511719
vt 0.508300781 0.589355469
vt 0.681152344 0.409667969
vt 0.604980469 0.499511719
vt 0.529785156 0.589355469
vt 0.702636719 0.409667969
vt 0.627441406 0.499511719
vt 0.551269531 0.589355469
vt 0.724121094 0.409667969
vt 0.648925781 0.499511719
vt 0.572753906 0.589355469
vt 0.745605469 0.409667969
vt 0.670410156 0.499511719
vt 0.595214844 0.589355469
vt 0.768066406 0.409667969
vt 0.691894531 0.499511719
vt 0.616699219 0.589355469
vt 0.789550781 0.409667969
vt 0.714355469 0.499511719
vt 0.638183594 0.589355469
vt 0.811035156 0.409667969
vt 0.735839844 0.499511719
vt 0.659667969 0.589355469
vt 0.833496094 0.409667969
vt 0.757324219 0.499511719
vt 0.682128906 0.589355469
vt 0.854980469 0.409667969
vt 0.778808594 0.499511719
vt 0.703613281 0.589355469
vt 0.876464844 0.409667969
vt 0.801269531 0.499511719
vt 0.725097656 0.589355469
vt 0.897949219 0.409667969
vt 0.822753906 0.499511719
vt 0.746582031 0.589355469
vt 0.920410156 0.409667969
vt 0.844238281 0.499511719
vt 0.769042969 0.589355469
vt 0.941894531 0.409667969
vt 0.865722656 0.499511719
vt 0.790527344 0.589355469
vt 0.963378906 0.409667969
vt 0.888183594 0.499511719
vt 0.812011719 0.589355469
vt 0.984863281 0.409667969
vt 0.909667969 0.499511719
vt 0.833496094 0.589355469
vt 1.00732422 0.409667969
vt 0.931152344 0.499511719
vt 0.855957031 0.589355469
vt 1.02880859 0.409667969
vt 0.952636719 0.499511719
vt 0.877441406 0.589355469
vt 1.05029297 0.409667969
vt 0.975097656 0.499511719
vt 0.898925781 0.589355469
vt 1.07177734 0.409667969
vt 0.996582031 0.499511719
vt 0.921386719 0.589355469
vt 1.09423828 0.409667969
vt 1.01806641 0.499511719
vt 0.942871094 0.589355469
vt 1.11572266 0.409667969
vt 1.03955078 0.499511719
vt 0.964355469 0.589355469
vt 1.13720703 0.409667969
vt 1.06201172 0.499511719
vt 0.985839844 0.589355469
vt 1.15869141 0.409667969
vt 1.08349609 0.499511719
vt 1.00830078 0.589355469
vt 1.18115234 0.409667969
vt 1.10498047 0.499511719
vt 1.20263672 0.409667969
vn -0 0 1
vn -0 0 1
vn -0 0 1
vn -0 0 1
vn -0 0 1
vn -0 0 1
vn -0 0 1
vn -0 0 1
vn -0 0 1
vn -0 0 1
vn -0 0 1
vn -0 0 1
vn -0 0 1
vn -0 0 1
vn -0 0 1
vn -0 0 1
vn -0 0 1
vn -0 0 1
vn -0 0 1
vn -0 0 1
vn -0 0 1
vn -0 0 1
vn -0 0 1
vn -0 0 1
vn -0 0 1
vn -0 0 1
vn -0 0 1
vn -0 0 1
vn -0 0 1
vn -0 0 1
vn -0 0 1
vn -0 0 1
vn -0 0 1
vn -0 0 1
vn -0 0 1
vn -0 0 1
vn -0 0 1
vn -0 0 1
vn -0 0 1
vn -0 0 1
vn -0 0 1
vn -0 0 1
vn -0 0 1
vn -0 0 1
vn -0 0 1
vn -0 0 1
vn -0 0 1
vn -0 0 1
vn -0 0 1
vn -0 0 1
vn -0 0 1
vn -0 0 1
vn -0 0 1
vn -0 0 1
vn -0 0 1
vn -0 0 1
vn -0 0 1
vn -0 0 1
vn -0 0 1
vn -0 0 1
vn -0 0 1
vn -0 0 1
vn -0 0 1
vn -0 0 1
vn -0 0 1
vn -0 0 1
vn -0 0 1
vn -0 0 1
vn -0 0 1
vn -0 0 1
vn -0 0 1
vn -0 0 1
vn -0 0 1
vn -0 0 1
vn -0 0 1
vn -0 0 1
vn -0 0 1
vn -0 0 1
vn -0 0 1
vn -0 0 1
vn -0 0 1
vn -0 0 1
vn -0 0 1
vn -0 0 1
vn -0 0 1
vn -0 0 1
vn -0 0 1
vn -0 0 1
vn -0 0 1
vn -0 0 1
vn -0 0 1
vn -0 0 1
vn -0 0 1
vn -0 0 1
vn -0 0 1
vn -0 0 1
vn -0 0 1
vn -0 0 1
vn -0 0 1
vn -0 0 1
vn -0 0 1
vn -0 0 1
vn -0 0 1
vn -0 0 1
vn -0 0 1
vn -0 0 1
vn -0 0 1
vn -0 0 1
vn -0 0 1
vn -0 0 1
vn -0 0 1
vn -0 0 1
vn -0 0 1
vn -0 0 1
vn -0 0 1
vn -0 0 1
vn -0 0 1
vn -0 0 1
vn -0 0 1
vn -0 0 1
vn -0 0 1
vn -0 0 1
vn -0 0 1
vn -0 0 1
vn -0 0 1
vn -0 0 1
vn -0 0 1
vn -0 0 1
vn -0 0 1
vn -0 0 1
vn -0 0 1
vn -0 0 1
vn -0 0 1
vn -0 0 1
vn -0 0 1
vn -0 0 1
vn -0 0 1
vn -0 0 1
vn -0 0 1
vn -0 0 1
vn -0 0 1
g general_ring_62_4_2_0
f 3/3/3 2/2/2 1/1/1
f 4/4/4 3/3/3 1/1/1
f 4/4/4 1/1/1 5/5/5
f 6/6/6 3/3/3 4/4/4
f 7/7/7 4/4/4 5/5/5
f 8/8/8 6/6/6 4/4/4
f 8/8/8 4/4/4 7/7/7
f 9/9/9 6/6/6 8/8/8
f 10/10/10 8/8/8 7/7/7
f 11/11/11 9/9/9 8/8/8
f 11/11/11 8/8/8 10/10/10
f 12/12/12 9/9/9 11/11/11
f 13/13/13 11/11/11 10/10/10
f 14/14/14 12/12/12 11/11/11
f 14/14/14 11/11/11 13/13/13
f 15/15/15 12/12/12 14/14/14
f 16/16/16 14/14/14 13/13/13
f 17/17/17 15/15/15 14/14/14
f 17/17/17 14/14/14 16/16/16
f 18/18/18 15/15/15 17/17/17
f 19/19/19 17/17/17 16/16/16
f 20/20/20 18/18/18 17/17/17
f 20/20/20 17/17/17 19/19/19
f 21/21/21 18/18/18 20/20/20
f 22/22/22 20/20/20 19/19/19
f 23/23/23 21/21/21 20/20/20
f 23/23/23 20/20/20 22/22/22
f 24/24/24 21/21/21 23/23/23
f 25/25/25 23/23/23 22/22/22
f 26/26/26 24/24/24 23/23/23
f 26/26/26 23/23/23 25/25/25
f 27/27/27 24/24/24 26/26/26
f 28/28/28 26/26/26 25/25/25
f 29/29/29 27/27/27 26/26/26
f 29/29/29 26/26/26 28/28/28
f 30/30/30 27/27/27 29/29/29
f 31/31/31 29/29/29 28/28/28
f 32/32/32 30/30/30 29/29/29
f 32/32/32 29/29/29 31/31/31
f 33/33/33 30/30/30 32/32/32
f 34/34/34 32/32/32 31/31/31
f 35/35/35 33/33/33 32/32/32
f 35/35/35 32/32/32 34/34/34
f 36/36/36 33/33/33 35/35/35
f 37/37/37 35/35/35 34/34/34
f 38/38/38 36/36/36 35/35/35
f 38/38/38 35/35/35 37/37/37
f 39/39/39 36/36/36 38/38/38
f 40/40/40 38/38/38 37/37/37
f 41/41/41 39/39/39 38/38/38
f 41/41/41 38/38/38 40/40/40
f 42/42/42 39/39/39 41/41/41
f 43/43/43 41/41/41 40/40/40
f 44/44/44 42/42/42 41/41/41
f 44/44/44 41/41/41 43/43/43
f 45/45/45 42/42/42 44/44/44
f 46/46/46 44/44/44 43/43/43
f 47/47/47 45/45/45 44/44/44
f 47/47/47 44/44/44 46/46/46
f 48/48/48 45/45/45 47/47/47
f 49/49/49 47/47/47 46/46/46
f 50/50/50 48/48/48 47/47/47
f 50/50/50 47/47/47 49/49/49
f 51/51/51 48/48/48 50/50/50
f 52/52/52 50/50/50 49/49/49
f 53/53/53 51/51/51 50/50/50
f 53/53/53 50/50/50 52/52/52
f 54/54/54 51/51/51 53/53/53
f 55/55/55 53/53/53 52/52/52
f 56/56/56 54/54/54 53/53/53
f 56/56/56 53/53/53 55/55/55
f 57/57/57 54/54/54 56/56/56
f 58/58/58 56/56/56 55/55/55
f 59/59/59 57/57/57 56/56/56
f 59/59/59 56/56/56 58/58/58
f 60/60/60 57/57/57 59/59/59
f 61/61/61 59/59/59 58/58/58
f 62/62/62 60/60/60 59/59/59
f 62/62/62 59/59/59 61/61/61
f 63/63/63 60/60/60 62/62/62
f 64/64/64 62/62/62 61/61/61
f 65/65/65 63/63/63 62/62/62
f 65/65/65 62/62/62 64/64/64
f 66/66/66 63/63/63 65/65/65
f 67/67/67 65/65/65 64/64/64
f 68/68/68 66/66/66 65/65/65
f 68/68/68 65/65/65 67/67/67
f 69/69/69 66/66/66 68/68/68
f 70/70/70 68/68/68 67/67/67
f 71/71/71 69/69/69 68/68/68
f 71/71/71 68/68/68 70/70/70
f 72/72/72 69/69/69 71/71/71
f 73/73/73 71/71/71 70/70/70
f 74/74/74 72/72/72 71/71/71
f 74/74/74 71/71/71 73/73/73
f 75/75/75 72/72/72 74/74/74
f 76/76/76 74/74/74 73/73/73
f 77/77/77 75/75/75 74/74/74
f 77/77/77 74/74/74 76/76/76
f 78/78/78 75/75/75 77/77/77
f 79/79/79 77/77/77 76/76/76
f 80/80/80 78/78/78 77/77/77
f 80/80/80 77/77/77 79/79/79
f 81/81/81 78/78/78 80/80/80
f 82/82/82 80/80/80 79/79/79
f 83/83/83 81/81/81 80/80/80
f 83/83/83 80/80/80 82/82/82
f 84/84/84 81/81/81 83/83/83
f 85/85/85 83/83/83 82/82/82
f 86/86/86 84/84/84 83/83/83
f 86/86/86 83/83/83 85/85/85
f 87/87/87 84/84/84 86/86/86
f 88/88/88 86/86/86 85/85/85
f 89/89/89 87/87/87 86/86/86
f 89/89/89 86/86/86 88/88/88
f 90/90/90 87/87/87 89/89/89
f 91/91/91 89/89/89 88/88/88
f 92/92/92 90/90/90 89/89/89
f 92/92/92 89/89/89 91/91/91
f 93/93/93 90/90/90 92/92/92
f 94/94/94 92/92/92 91/91/91
f 95/95/95 93/93/93 92/92/92
f 95/95/95 92/92/92 94/94/94
f 96/96/96 93/93/93 95/95/95
f 97/97/97 95/95/95 94/94/94
f 98/98/98 96/96/96 95/95/95
f 98/98/98 95/95/95 97/97/97
f 99/99/99 96/96/96 98/98/98
f 100/100/100 98/98/98 97/97/97
f 101/101/101 99/99/99 98/98/98
f 101/101/101 98/98/98 100/100/100
f 102/102/102 99/99/99 101/101/101
f 103/103/103 101/101/101 100/100/100
f 104/104/104 102/102/102 101/101/101
f 104/104/104 101/101/101 103/103/103
f 105/105/105 102/102/102 104/104/104
f 106/106/106 104/104/104 103/103/103
f 107/107/107 105/105/105 104/104/104
f 107/107/107 104/104/104 106/106/106
f 108/108/108 105/105/105 107/107/107
f 109/109/109 107/107/107 106/106/106
f 110/110/110 108/108/108 107/107/107
f 110/110/110 107/107/107 109/109/109
f 111/111/111 108/108/108 110/110/110
f 112/112/112 110/110/110 109/109/109
f 113/113/113 111/111/111 110/110/110
f 113/113/113 110/110/110 112/112/112
f 114/114/114 111/111/111 113/113/113
f 115/115/115 113/113/113 112/112/112
f 116/116/116 114/114/114 113/113/113
f 116/116/116 113/113/113 115/115/115
f 117/117/117 114/114/114 116/116/116
f 118/118/118 116/116/116 115/115/115
f 119/119/119 117/117/117 116/116/116
f 119/119/119 116/116/116 118/118/118
f 120/120/120 117/117/117 119/119/119
f 121/121/121 119/119/119 118/118/118
f 122/122/122 120/120/120 119/119/119
f 122/122/122 119/119/119 121/121/121
f 123/123/123 120/120/120 122/122/122
f 124/124/124 122/122/122 121/121/121
f 125/125/125 123/123/123 122/122/122
f 125/125/125 122/122/122 124/124/124
f 126/126/126 123/123/123 125/125/125
f 127/127/127 125/125/125 124/124/124
f 128/128/128 126/126/126 125/125/125
f 128/128/128 125/125/125 127/127/127
f 129/129/129 126/126/126 128/128/128
f 130/130/130 128/128/128 127/127/127
f 131/131/131 129/129/129 128/128/128
f 131/131/131 128/128/128 130/130/130
f 132/132/132 129/129/129 131/131/131
f 133/133/133 131/131/131 130/130/130
f 134/134/134 132/132/132 131/131/131
f 134/134/134 131/131/131 133/133/133
f 135/135/135 132/132/132 134/134/134
f 136/136/136 134/134/134 133/133/133
f 137/137/137 135/135/135 134/134/134
f 137/137/137 134/134/134 136/136/136
f 138/138/138 135/135/135 137/137/137
f 139/139/139 137/137/137 136/136/136
f 140/140/140 138/138/138 137/137/137
f 140/140/140 137/137/137 139/139/139
f 141/141/141 140/140/140 139/139/139
