g general_plane_147
v 0.0616475642 -0.230738983 4.11270912E-06
v 0.0649536848 -0.240804955 4.11181827E-06
v 0.0400882214 -0.244285688 4.11175279E-06
v 0.0379614308 -0.236546591 4.11285873E-06
v 0.0583408698 -0.220671251 4.11285146E-06
v 0.035834644 -0.228807524 4.11416841E-06
v 0.0616475642 -0.230738983 4.11270912E-06
v 0.0803053975 -0.21158646 4.11372457E-06
v 0.085060589 -0.223685429 4.11260044E-06
v 0.0550347418 -0.210605249 4.11368092E-06
v 0.035834644 -0.228807524 4.11416841E-06
v 0.0337078497 -0.221068457 4.1162275E-06
v 0.107976548 -0.214957044 4.11284418E-06
v 0.0898141265 -0.235780165 4.11213841E-06
v 0.114471585 -0.228729114 4.11347719E-06
v 0.123881698 0.178951994 4.11272049E-06
v 0.139714673 0.203244492 4.11272049E-06
v 0.162135646 0.187016442 4.11272049E-06
v 0.144260362 0.164184853 4.11272049E-06
v 0.108048715 0.154659525 4.11272049E-06
v 0.126385078 0.141353235 4.11272049E-06
v 0.0922157392 0.130367026 4.11272049E-06
v 0.108509794 0.118521646 4.11458313E-06
v 0.144260362 0.164184853 4.11272049E-06
v 0.162135646 0.187016442 4.11272049E-06
v 0.182993501 0.169115707 4.11272049E-06
v 0.163312092 0.147821322 4.11178917E-06
v 0.126385078 0.141353235 4.11272049E-06
v 0.143630713 0.126526937 4.11551446E-06
v 0.108509794 0.118521646 4.11458313E-06
v 0.123949304 0.105232552 4.11272049E-06
v 0.163312092 0.147821322 4.11178917E-06
v 0.182993501 0.169115707 4.11272049E-06
v 0.202322498 0.149705395 4.11272049E-06
v 0.181012049 0.130041376 4.11272049E-06
v 0.143630713 0.126526937 4.11551446E-06
v 0.15970163 0.110377356 4.11272049E-06
v 0.123949304 0.105232552 4.11272049E-06
v 0.138391212 0.0907133073 4.11272049E-06
v 0.181012049 0.130041376 4.11272049E-06
v 0.202322498 0.149705395 4.11272049E-06
v 0.220108986 0.128864929 4.11272049E-06
v 0.197300851 0.110959724 4.112022E-06
v 0.15970163 0.110377356 4.11272049E-06
v 0.174492717 0.0930545181 4.11365181E-06
v 0.138391212 0.0907133073 4.11272049E-06
v 0.151684567 0.0751492828 4.11644578E-06
v 0.197300851 0.110959724 4.112022E-06
v 0.220108986 0.128864929 4.11272049E-06
v 0.236275896 0.10661824 4.10992652E-06
v 0.212073386 0.09064807 4.11248766E-06
v 0.174492717 0.0930545181 4.11365181E-06
v 0.187870875 0.0746778995 4.11411747E-06
v 0.151684567 0.0751492828 4.11644578E-06
v 0.163668349 0.058707729 4.11458313E-06
v 0.212073386 0.09064807 4.11248766E-06
v 0.236275896 0.10661824 4.10992652E-06
v 0.25067085 0.0829478651 4.11178917E-06
v 0.225167379 0.0691500455 4.112022E-06
v 0.187870875 0.0746778995 4.11411747E-06
v 0.199663892 0.0553522259 4.11318615E-06
v 0.163668349 0.058707729 4.11458313E-06
v 0.174160391 0.0415543765 4.11085784E-06
v 0.225167379 0.0691500455 4.112022E-06
v 0.25067085 0.0829478651 4.11178917E-06
v 0.262791514 0.0576686412 4.11272049E-06
v 0.236190155 0.0464287847 4.11248766E-06
v 0.199663892 0.0553522259 4.11318615E-06
v 0.209456801 0.0351331383 4.11272049E-06
v 0.174160391 0.0415543765 4.11085784E-06
v 0.182855457 0.023893252 4.11458313E-06
v 0.236190155 0.0464287847 4.11248766E-06
v 0.262791514 0.0576686412 4.11272049E-06
v 0.272365868 0.0308404565 4.1089952E-06
v 0.244740546 0.0225554556 4.11295332E-06
v 0.209456801 0.0351331383 4.11272049E-06
v 0.216993377 0.0142338872 4.11225483E-06
v 0.182855457 0.023893252 4.11458313E-06
v 0.189368039 0.00594885647 4.11272049E-06
v 0.244740546 0.0225554556 4.11295332E-06
v 0.272365868 0.0308404565 4.1089952E-06
v 0.278676391 0.00253087282 4.11365181E-06
v 0.250445604 -0.00226165354 4.11295332E-06
v 0.216993377 0.0142338872 4.11225483E-06
v 0.222104356 -0.00707292557 4.11272049E-06
v 0.189368039 0.00594885647 4.11272049E-06
v 0.193873584 -0.0118654221 4.11178917E-06
v 0.250445604 -0.00226165354 4.11295332E-06
v 0.278676391 0.00253087282 4.11365181E-06
v 0.281067789 -0.0269175321 4.11178917E-06
v 0.252819479 -0.0277172476 4.11248766E-06
v 0.222104356 -0.00707292557 4.11272049E-06
v 0.224473372 -0.0285197496 4.11318615E-06
v 0.193873584 -0.0118654221 4.11178917E-06
v 0.196225032 -0.0293194801 4.11365181E-06
v 0.252819479 -0.0277172476 4.11248766E-06
v 0.281067789 -0.0269175321 4.11178917E-06
v 0.278830707 -0.0568508357 4.11178917E-06
v 0.251340806 -0.0533191934 4.11260407E-06
v 0.224473372 -0.0285197496 4.11318615E-06
v 0.223767027 -0.0497767627 4.11318615E-06
v 0.196225032 -0.0293194801 4.11365181E-06
v 0.196277142 -0.046245113 4.11272049E-06
v 0.251340806 -0.0533191934 4.11260407E-06
v 0.278830707 -0.0568508357 4.11178917E-06
v 0.27154547 -0.085984543 4.11272049E-06
v 0.245660901 -0.0782928392 4.11318615E-06
v 0.223767027 -0.0497767627 4.11318615E-06
v 0.219707012 -0.0705805421 4.11248766E-06
v 0.196277142 -0.046245113 4.11272049E-06
v 0.193822429 -0.0628888458 4.1089952E-06
v 0.245660901 -0.0782928392 4.11318615E-06
v 0.27154547 -0.085984543 4.11272049E-06
v 0.259759128 -0.11293833 4.11365181E-06
v 0.236087337 -0.10189306 4.11295332E-06
v 0.219707012 -0.0705805421 4.11248766E-06
v 0.212360308 -0.0908220261 4.11295332E-06
v 0.193822429 -0.0628888458 4.1089952E-06
v 0.188688532 -0.0797767565 4.11225483E-06
v 0.236087337 -0.10189306 4.11295332E-06
v 0.259759128 -0.11293833 4.11365181E-06
v 0.244627416 -0.137155294 4.11365181E-06
v 0.223424211 -0.123775601 4.11301153E-06
v 0.212360308 -0.0908220261 4.11295332E-06
v 0.20217827 -0.110368907 4.112022E-06
v 0.188688532 -0.0797767565 4.11225483E-06
v 0.18097505 -0.0969892219 4.11085784E-06
v 0.223424211 -0.123775601 4.11301153E-06
v 0.244627416 -0.137155294 4.11365181E-06
v 0.226939306 -0.158785418 4.11341898E-06
v 0.208325475 -0.143869519 4.11301153E-06
v 0.20217827 -0.110368907 4.112022E-06
v 0.189679578 -0.128927857 4.11388464E-06
v 0.18097505 -0.0969892219 4.11085784E-06
v 0.171065763 -0.114011958 4.11388464E-06
v 0.208325475 -0.143869519 4.11301153E-06
v 0.226939306 -0.158785418 4.11341898E-06
v 0.207063049 -0.177885607 4.11295332E-06
v 0.19112432 -0.162053958 4.1127787E-06
v 0.189679578 -0.128927857 4.11388464E-06
v 0.208325475 -0.143869519 4.11301153E-06
v 0.175162435 -0.146199286 4.1128369E-06
v 0.171065763 -0.114011958 4.11388464E-06
v 0.15922372 -0.130367607 4.11132351E-06
v 0.19112432 -0.162053958 4.1127787E-06
v 0.207063049 -0.177885607 4.11295332E-06
v 0.185448527 -0.194360897 4.1128369E-06
v 0.172154799 -0.178222343 4.11266228E-06
v 0.175162435 -0.146199286 4.1128369E-06
v 0.172154799 -0.178222343 4.11266228E-06
v 0.158845067 -0.162064448 4.11266228E-06
v 0.15922372 -0.130367607 4.11132351E-06
v 0.175162435 -0.146199286 4.1128369E-06
v 0.145551294 -0.145925939 4.11248766E-06
v 0.14096424 -0.176493898 4.11208021E-06
v 0.130170643 -0.16063495 4.11190558E-06
v 0.121764883 -0.189510152 4.11234214E-06
v 0.113251016 -0.174462095 4.11132351E-06
v 0.101477981 -0.201177463 4.11234214E-06
v 0.094982937 -0.187405348 4.11208021E-06
v 0.158845067 -0.162064448 4.11266228E-06
v 0.151768297 -0.192368194 4.11272049E-06
v 0.172154799 -0.178222343 4.11266228E-06
v 0.121764883 -0.189510152 4.11234214E-06
v 0.107976548 -0.214957044 4.11284418E-06
v 0.130285099 -0.204569444 4.1128078E-06
v 0.14096424 -0.176493898 4.11208021E-06
v 0.151768297 -0.192368194 4.11272049E-06
v 0.138798967 -0.219617471 4.11382644E-06
v 0.162561893 -0.208227143 4.11341898E-06
v 0.185448527 -0.194360897 4.1128369E-06
v 0.162561893 -0.208227143 4.11341898E-06
v 0.151768297 -0.192368194 4.11272049E-06
v 0.130285099 -0.204569444 4.1128078E-06
v 0.138798967 -0.219617471 4.11382644E-06
v 0.114471585 -0.228729114 4.11347719E-06
v 0.107976548 -0.214957044 4.11284418E-06
v 0.085060589 -0.223685429 4.11260044E-06
v 0.0898141265 -0.235780165 4.11213841E-06
v 0.0649536848 -0.240804955 4.11181827E-06
v 0.0616475642 -0.230738983 4.11270912E-06
v 0.0755519494 -0.199491709 4.11405927E-06
v 0.0583408698 -0.220671251 4.11285146E-06
v 0.0550347418 -0.210605249 4.11368092E-06
v 0.0803053975 -0.21158646 4.11372457E-06
v 0.101477981 -0.201177463 4.11234214E-06
v 0.085060589 -0.223685429 4.11260044E-06
v 0.107976548 -0.214957044 4.11284418E-06
v 0.094982937 -0.187405348 4.11208021E-06
v 0.101477981 -0.201177463 4.11234214E-06
v 0.0803053975 -0.21158646 4.11372457E-06
v 0.0755519494 -0.199491709 4.11405927E-06
vt 0.95652169 0.666666687
vt 0.956521749 1
vt 1 1
vt 1 0.666666687
vt 0.95652163 0.333333343
vt 1 0.333333343
vt 0.95652169 0.666666687
vt 0.913043261 0.333333313
vt 0.91304338 0.666666627
vt 0.95652169 0
vt 1 0.333333343
vt 1 0
vt 0.869565129 0.666666687
vt 0.913043499 1
vt 0.869565248 1
vt 0 0.666666627
vt 0 1
vt 0.0434782691 1
vt 0.0434782691 0.666666746
vt 0 0.333333313
vt 0.0434782654 0.333333373
vt 0 0
vt 0.0434782617 0
vt 0.0434782691 0.666666746
vt 0.0434782691 1
vt 0.0869565383 1
vt 0.0869565383 0.666666746
vt 0.0434782654 0.333333373
vt 0.0869565308 0.333333373
vt 0.0434782617 0
vt 0.0869565234 0
vt 0.0869565383 0.666666746
vt 0.0869565383 1
vt 0.130434811 1
vt 0.130434796 0.666666746
vt 0.0869565308 0.333333373
vt 0.130434781 0.333333373
vt 0.0869565234 0
vt 0.130434781 0
vt 0.130434796 0.666666746
vt 0.130434811 1
vt 0.173913062 1
vt 0.173913062 0.666666746
vt 0.130434781 0.333333373
vt 0.173913032 0.333333343
vt 0.130434781 0
vt 0.173913032 0
vt 0.173913062 0.666666746
vt 0.173913062 1
vt 0.217391342 1
vt 0.217391327 0.666666687
vt 0.173913032 0.333333343
vt 0.217391312 0.333333343
vt 0.173913032 0
vt 0.217391312 0
vt 0.217391327 0.666666687
vt 0.217391342 1
vt 0.260869622 1
vt 0.260869563 0.666666627
vt 0.217391312 0.333333343
vt 0.260869563 0.333333343
vt 0.217391312 0
vt 0.260869563 0
vt 0.260869563 0.666666627
vt 0.260869622 1
vt 0.304347873 1
vt 0.304347873 0.666666687
vt 0.260869563 0.333333343
vt 0.304347813 0.333333343
vt 0.260869563 0
vt 0.304347813 0
vt 0.304347873 0.666666687
vt 0.304347873 1
vt 0.347826123 1
vt 0.347826123 0.666666746
vt 0.304347813 0.333333343
vt 0.347826034 0.333333313
vt 0.304347813 0
vt 0.347826064 0
vt 0.347826123 0.666666746
vt 0.347826123 1
vt 0.391304374 1
vt 0.391304374 0.666666687
vt 0.347826034 0.333333313
vt 0.391304314 0.333333343
vt 0.347826064 0
vt 0.391304344 0
vt 0.391304374 0.666666687
vt 0.391304374 1
vt 0.434782624 1
vt 0.434782624 0.666666746
vt 0.391304314 0.333333343
vt 0.434782565 0.333333313
vt 0.391304344 0
vt 0.434782565 0
vt 0.434782624 0.666666746
vt 0.434782624 1
vt 0.478260934 1
vt 0.478260875 0.666666627
vt 0.434782565 0.333333313
vt 0.478260875 0.333333313
vt 0.434782565 0
vt 0.478260875 0
vt 0.478260875 0.666666627
vt 0.478260934 1
vt 0.521739185 1
vt 0.521739125 0.666666627
vt 0.478260875 0.333333313
vt 0.521739125 0.333333343
vt 0.478260875 0
vt 0.521739125 0
vt 0.521739125 0.666666627
vt 0.521739185 1
vt 0.565217376 1
vt 0.565217376 0.666666746
vt 0.521739125 0.333333343
vt 0.565217376 0.333333343
vt 0.521739125 0
vt 0.565217376 0
vt 0.565217376 0.666666746
vt 0.565217376 1
vt 0.608695626 1
vt 0.608695626 0.666666746
vt 0.565217376 0.333333343
vt 0.608695626 0.333333313
vt 0.565217376 0
vt 0.608695626 0
vt 0.608695626 0.666666746
vt 0.608695626 1
vt 0.652173877 1
vt 0.652173817 0.666666627
vt 0.608695626 0.333333313
vt 0.652173758 0.333333313
vt 0.608695626 0
vt 0.652173877 0
vt 0.652173817 0.666666627
vt 0.652173877 1
vt 0.695652127 1
vt 0.695652127 0.666666627
vt 0.652173758 0.333333313
vt 0.652173817 0.666666627
vt 0.695652127 0.333333343
vt 0.652173877 0
vt 0.695652127 0
vt 0.695652127 0.666666627
vt 0.695652127 1
vt 0.739130378 1
vt 0.739130259 0.666666627
vt 0.695652127 0.333333343
vt 0.739130259 0.666666627
vt 0.739130378 0.333333343
vt 0.695652127 0
vt 0.695652127 0.333333343
vt 0.739130378 0
vt 0.782608628 0.333333343
vt 0.782608628 0
vt 0.826086879 0.333333343
vt 0.826086879 0
vt 0.869565129 0.333333343
vt 0.869565129 0
vt 0.739130378 0.333333343
vt 0.782608628 0.666666627
vt 0.739130259 0.666666627
vt 0.826086879 0.333333343
vt 0.869565129 0.666666687
vt 0.826086938 0.666666746
vt 0.782608628 0.333333343
vt 0.782608628 0.666666627
vt 0.826086998 1
vt 0.782608747 1
vt 0.739130378 1
vt 0.782608747 1
vt 0.782608628 0.666666627
vt 0.826086938 0.666666746
vt 0.826086998 1
vt 0.869565248 1
vt 0.869565129 0.666666687
vt 0.91304338 0.666666627
vt 0.913043499 1
vt 0.956521749 1
vt 0.95652169 0.666666687
vt 0.91304338 0
vt 0.95652163 0.333333343
vt 0.95652169 0
vt 0.913043261 0.333333313
vt 0.869565129 0.333333343
vt 0.91304338 0.666666627
vt 0.869565129 0.666666687
vt 0.869565129 0
vt 0.869565129 0.333333343
vt 0.913043261 0.333333313
vt 0.91304338 0
vn -0 0 1
vn -0 0 1
vn -0 0 1
vn -0 0 1
vn -0 0 1
vn -0 0 1
vn -0 0 1
vn -0 0 1
vn -0 0 1
vn -0 0 1
vn -0 0 1
vn -0 0 1
vn -0 0 1
vn -0 0 1
vn -0 0 1
vn -0 0 1
vn -0 0 1
vn -0 0 1
vn -0 0 1
vn -0 0 1
vn -0 0 1
vn -0 0 1
vn -0 0 1
vn -0 0 1
vn -0 0 1
vn -0 0 1
vn -0 0 1
vn -0 0 1
vn -0 0 1
vn -0 0 1
vn -0 0 1
vn -0 0 1
vn -0 0 1
vn -0 0 1
vn -0 0 1
vn -0 0 1
vn -0 0 1
vn -0 0 1
vn -0 0 1
vn -0 0 1
vn -0 0 1
vn -0 0 1
vn -0 0 1
vn -0 0 1
vn -0 0 1
vn -0 0 1
vn -0 0 1
vn -0 0 1
vn -0 0 1
vn -0 0 1
vn -0 0 1
vn -0 0 1
vn -0 0 1
vn -0 0 1
vn -0 0 1
vn -0 0 1
vn -0 0 1
vn -0 0 1
vn -0 0 1
vn -0 0 1
vn -0 0 1
vn -0 0 1
vn -0 0 1
vn -0 0 1
vn -0 0 1
vn -0 0 1
vn -0 0 1
vn -0 0 1
vn -0 0 1
vn -0 0 1
vn -0 0 1
vn -0 0 1
vn -0 0 1
vn -0 0 1
vn -0 0 1
vn -0 0 1
vn -0 0 1
vn -0 0 1
vn -0 0 1
vn -0 0 1
vn -0 0 1
vn -0 0 1
vn -0 0 1
vn -0 0 1
vn -0 0 1
vn -0 0 1
vn -0 0 1
vn -0 0 1
vn -0 0 1
vn -0 0 1
vn -0 0 1
vn -0 0 1
vn -0 0 1
vn -0 0 1
vn -0 0 1
vn -0 0 1
vn -0 0 1
vn -0 0 1
vn -0 0 1
vn -0 0 1
vn -0 0 1
vn -0 0 1
vn -0 0 1
vn -0 0 1
vn -0 0 1
vn -0 0 1
vn -0 0 1
vn -0 0 1
vn -0 0 1
vn -0 0 1
vn -0 0 1
vn -0 0 1
vn -0 0 1
vn -0 0 1
vn -0 0 1
vn -0 0 1
vn -0 0 1
vn -0 0 1
vn -0 0 1
vn -0 0 1
vn -0 0 1
vn -0 0 1
vn -0 0 1
vn -0 0 1
vn -0 0 1
vn -0 0 1
vn -0 0 1
vn -0 0 1
vn -0 0 1
vn -0 0 1
vn -0 0 1
vn -0 0 1
vn -0 0 1
vn -0 0 1
vn -0 0 1
vn -0 0 1
vn -0 0 1
vn -0 0 1
vn -0 0 1
vn -0 0 1
vn -0 0 1
vn -0 0 1
vn -0 0 1
vn -0 0 1
vn -0 0 1
vn -0 0 1
vn -0 0 1
vn -0 0 1
vn -0 0 1
vn -0 0 1
vn -0 0 1
vn -0 0 1
vn -0 0 1
vn -0 0 1
vn -0 0 1
vn -0 0 1
vn -0 0 1
vn -0 0 1
vn -0 0 1
vn -0 0 1
vn -0 0 1
vn -0 0 1
vn -0 0 1
vn -0 0 1
vn -0 0 1
vn -0 0 1
vn -0 0 1
vn -0 0 1
vn -0 0 1
vn -0 0 1
vn -0 0 1
vn -0 0 1
vn -0 0 1
vn -0 0 1
vn -0 0 1
vn -0 0 1
vn -0 0 1
vn -0 0 1
vn -0 0 1
vn -0 0 1
vn -0 0 1
vn -0 0 1
vn -0 0 1
vn -0 0 1
vn -0 0 1
vn -0 0 1
vn -0 0 1
vn -0 0 1
vn -0 0 1
vn -0 0 1
vn -0 0 1
vn -0 0 1
g general_plane_147_0
f 3/3/3 2/2/2 1/1/1
f 4/4/4 3/3/3 1/1/1
f 6/6/6 4/4/4 5/5/5
f 4/4/4 7/7/7 5/5/5
f 5/5/5 7/7/7 8/8/8
f 7/7/7 9/9/9 8/8/8
f 11/11/11 5/5/5 10/10/10
f 12/12/12 11/11/11 10/10/10
f 9/9/9 14/14/14 13/13/13
f 14/14/14 15/15/15 13/13/13
f 18/18/18 17/17/17 16/16/16
f 19/19/19 18/18/18 16/16/16
f 19/19/19 16/16/16 20/20/20
f 21/21/21 19/19/19 20/20/20
f 21/21/21 20/20/20 22/22/22
f 23/23/23 21/21/21 22/22/22
f 26/26/26 25/25/25 24/24/24
f 27/27/27 26/26/26 24/24/24
f 27/27/27 24/24/24 28/28/28
f 29/29/29 27/27/27 28/28/28
f 29/29/29 28/28/28 30/30/30
f 31/31/31 29/29/29 30/30/30
f 34/34/34 33/33/33 32/32/32
f 35/35/35 34/34/34 32/32/32
f 35/35/35 32/32/32 36/36/36
f 37/37/37 35/35/35 36/36/36
f 37/37/37 36/36/36 38/38/38
f 39/39/39 37/37/37 38/38/38
f 42/42/42 41/41/41 40/40/40
f 43/43/43 42/42/42 40/40/40
f 43/43/43 40/40/40 44/44/44
f 45/45/45 43/43/43 44/44/44
f 45/45/45 44/44/44 46/46/46
f 47/47/47 45/45/45 46/46/46
f 50/50/50 49/49/49 48/48/48
f 51/51/51 50/50/50 48/48/48
f 51/51/51 48/48/48 52/52/52
f 53/53/53 51/51/51 52/52/52
f 53/53/53 52/52/52 54/54/54
f 55/55/55 53/53/53 54/54/54
f 58/58/58 57/57/57 56/56/56
f 59/59/59 58/58/58 56/56/56
f 59/59/59 56/56/56 60/60/60
f 61/61/61 59/59/59 60/60/60
f 61/61/61 60/60/60 62/62/62
f 63/63/63 61/61/61 62/62/62
f 66/66/66 65/65/65 64/64/64
f 67/67/67 66/66/66 64/64/64
f 67/67/67 64/64/64 68/68/68
f 69/69/69 67/67/67 68/68/68
f 69/69/69 68/68/68 70/70/70
f 71/71/71 69/69/69 70/70/70
f 74/74/74 73/73/73 72/72/72
f 75/75/75 74/74/74 72/72/72
f 75/75/75 72/72/72 76/76/76
f 77/77/77 75/75/75 76/76/76
f 77/77/77 76/76/76 78/78/78
f 79/79/79 77/77/77 78/78/78
f 82/82/82 81/81/81 80/80/80
f 83/83/83 82/82/82 80/80/80
f 83/83/83 80/80/80 84/84/84
f 85/85/85 83/83/83 84/84/84
f 85/85/85 84/84/84 86/86/86
f 87/87/87 85/85/85 86/86/86
f 90/90/90 89/89/89 88/88/88
f 91/91/91 90/90/90 88/88/88
f 91/91/91 88/88/88 92/92/92
f 93/93/93 91/91/91 92/92/92
f 93/93/93 92/92/92 94/94/94
f 95/95/95 93/93/93 94/94/94
f 98/98/98 97/97/97 96/96/96
f 99/99/99 98/98/98 96/96/96
f 99/99/99 96/96/96 100/100/100
f 101/101/101 99/99/99 100/100/100
f 101/101/101 100/100/100 102/102/102
f 103/103/103 101/101/101 102/102/102
f 106/106/106 105/105/105 104/104/104
f 107/107/107 106/106/106 104/104/104
f 107/107/107 104/104/104 108/108/108
f 109/109/109 107/107/107 108/108/108
f 109/109/109 108/108/108 110/110/110
f 111/111/111 109/109/109 110/110/110
f 114/114/114 113/113/113 112/112/112
f 115/115/115 114/114/114 112/112/112
f 115/115/115 112/112/112 116/116/116
f 117/117/117 115/115/115 116/116/116
f 117/117/117 116/116/116 118/118/118
f 119/119/119 117/117/117 118/118/118
f 122/122/122 121/121/121 120/120/120
f 123/123/123 122/122/122 120/120/120
f 123/123/123 120/120/120 124/124/124
f 125/125/125 123/123/123 124/124/124
f 125/125/125 124/124/124 126/126/126
f 127/127/127 125/125/125 126/126/126
f 130/130/130 129/129/129 128/128/128
f 131/131/131 130/130/130 128/128/128
f 131/131/131 128/128/128 132/132/132
f 133/133/133 131/131/131 132/132/132
f 133/133/133 132/132/132 134/134/134
f 135/135/135 133/133/133 134/134/134
f 138/138/138 137/137/137 136/136/136
f 139/139/139 138/138/138 136/136/136
f 139/139/139 141/141/141 140/140/140
f 142/142/142 139/139/139 140/140/140
f 142/142/142 140/140/140 143/143/143
f 144/144/144 142/142/142 143/143/143
f 147/147/147 146/146/146 145/145/145
f 148/148/148 147/147/147 145/145/145
f 150/150/150 145/145/145 149/149/149
f 151/151/151 150/150/150 149/149/149
f 151/151/151 153/153/153 152/152/152
f 154/154/154 151/151/151 152/152/152
f 155/155/155 151/151/151 154/154/154
f 156/156/156 155/155/155 154/154/154
f 157/157/157 155/155/155 156/156/156
f 158/158/158 157/157/157 156/156/156
f 159/159/159 157/157/157 158/158/158
f 160/160/160 159/159/159 158/158/158
f 155/155/155 162/162/162 161/161/161
f 162/162/162 163/163/163 161/161/161
f 159/159/159 165/165/165 164/164/164
f 165/165/165 166/166/166 164/164/164
f 157/157/157 166/166/166 167/167/167
f 166/166/166 168/168/168 167/167/167
f 166/166/166 169/169/169 168/168/168
f 169/169/169 170/170/170 168/168/168
f 172/172/172 171/171/171 163/163/163
f 173/173/173 172/172/172 163/163/163
f 176/176/176 175/175/175 174/174/174
f 177/177/177 176/176/176 174/174/174
f 180/180/180 179/179/179 178/178/178
f 181/181/181 180/180/180 178/178/178
f 184/184/184 183/183/183 182/182/182
f 183/183/183 185/185/185 182/182/182
f 185/185/185 187/187/187 186/186/186
f 187/187/187 188/188/188 186/186/186
f 191/191/191 190/190/190 189/189/189
f 192/192/192 191/191/191 189/189/189
