g Icosphere.002
v 0.0690970048 -0.212662309 0
v 0.0406138897 -0.124998815 0
v 0.172047347 -0.124999233 0
v -0.180901825 -0.131431326 0
v -0.10633067 -0.0772528499 0
v -0.0637687519 -0.215892062 0
v -0.0819957107 -0.122195356 0
v 0.0338676907 -0.180316955 0
v -0.0666261762 -0.215703726 0
v 0.0302971676 -0.0552051775 0
v 0.174866676 -0.05164681 0
v 0.130888209 -0.139799476 0
v 0.233420774 0.0126342289 0
v 0.170603827 -0.0371560715 0
v 0.168506086 0.105150357 0
v 0.172047347 -0.124999233 0
v 0.148968503 -0.029226765 0
v 0.223606557 0 0
v 0.237764463 0.0772531554 0
v 0.223606557 0 0
v 0.188609183 0.107463174 0
v 0.237764463 0.0772531554 0
v 0.188609183 0.107463174 0
v 0.1469464 0.202254176 0
v -0.237764463 0.0772531554 0
v -0.212661967 0 0
v -0.237764463 -0.0772531554 0
v -0.237764463 -0.0772531554 0
v -0.212661967 0 0
v -0.180901825 -0.131431326 0
v -0.145972177 -0.194460377 0
v -0.180901825 -0.131431326 0
v -0.0637687519 -0.215892062 0
v 0.1469464 -0.202254176 0
v 0.172047347 -0.124999233 0
v 0.237764463 -0.0772531554 0
v -0.237764463 -0.0772531554 0
v -0.180901825 -0.131431326 0
v -0.145972177 -0.194460377 0
v 0.237764463 -0.0772531554 0
v 0.223606557 0 0
v 0.237764463 0.0772531554 0
v -0.179902613 0.00883716624 0
v -0.112599269 -0.104054831 0
v -0.20248276 -0.12447837 0
v 0.237764463 -0.0772531554 0
v 0.172047347 -0.124999233 0
v 0.223606557 0 0
v 0.144191235 -0.220037207 0
v 0.0660294965 -0.212317169 0
v 0.186337933 -0.150596291 0
vt 0.136230469 0.688964844
vt 0.0913085938 0.768066406
vt 0.0454101562 0.688964844
vt 1.00048828 0.314941406
vt 0.954589844 0.394042969
vt 0.908691406 0.314941406
vt 0.907714844 0.937988281
vt 0.816894531 0.937988281
vt 0.861816406 0.858886719
vt 0.898925781 0.829589844
vt 0.808105469 0.829589844
vt 0.853027344 0.750488281
vt 0.636230469 0.314941406
vt 0.591308594 0.394042969
vt 0.545410156 0.314941406
vt 0.466308594 0.221191406
vt 0.421386719 0.300292969
vt 0.375488281 0.221191406
vt 0.505371094 0.567871094
vt 0.550292969 0.646972656
vt 0.459472656 0.646972656
vt 0.138183594 0.484863281
vt 0.0922851562 0.563964844
vt 0.0463867188 0.484863281
vt 0.751464844 0.558105469
vt 0.706542969 0.637207031
vt 0.660644531 0.558105469
vt 0.722167969 0.646972656
vt 0.768066406 0.726074219
vt 0.677246094 0.726074219
vt 0.435058594 0.410644531
vt 0.480957031 0.489746094
vt 0.389160156 0.489746094
vt 0.829589844 0.435058594
vt 0.783691406 0.514160156
vt 0.738769531 0.435058594
vt 0.136230469 0.235839844
vt 0.0913085938 0.314941406
vt 0.0454101562 0.235839844
vt 0.104003906 0.812011719
vt 0.0581054688 0.891113281
vt 0.0131835938 0.812011719
vt 0.248535156 0.386230469
vt 0.202636719 0.465332031
vt 0.157714844 0.386230469
vt 0.374511719 0.632324219
vt 0.419433594 0.711425781
vt 0.328613281 0.711425781
vt 0.563964844 0.504394531
vt 0.608886719 0.583496094
vt 0.518066406 0.583496094
vn -0 0 1
vn -0 0 1
vn -0 0 1
vn -0 0 1
vn -0 0 1
vn -0 0 1
vn -0 0 1
vn -0 0 1
vn -0 0 1
vn -0 0 1
vn -0 0 1
vn -0 0 1
vn -0 0 1
vn -0 0 1
vn -0 0 1
vn -0 0 1
vn -0 0 1
vn -0 0 1
vn -0 0 1
vn -0 0 1
vn -0 0 1
vn -0 0 1
vn -0 0 1
vn -0 0 1
vn -0 0 1
vn -0 0 1
vn -0 0 1
vn -0 0 1
vn -0 0 1
vn -0 0 1
vn -0 0 1
vn -0 0 1
vn -0 0 1
vn -0 0 1
vn -0 0 1
vn -0 0 1
vn -0 0 1
vn -0 0 1
vn -0 0 1
vn -0 0 1
vn -0 0 1
vn -0 0 1
vn -0 0 1
vn -0 0 1
vn -0 0 1
vn -0 0 1
vn -0 0 1
vn -0 0 1
vn -0 0 1
vn -0 0 1
vn -0 0 1
g Icosphere.002_0
f 3/3/3 2/2/2 1/1/1
f 6/6/6 5/5/5 4/4/4
f 9/9/9 8/8/8 7/7/7
f 12/12/12 11/11/11 10/10/10
f 15/15/15 14/14/14 13/13/13
f 18/18/18 17/17/17 16/16/16
f 21/21/21 20/20/20 19/19/19
f 24/24/24 23/23/23 22/22/22
f 27/27/27 26/26/26 25/25/25
f 30/30/30 29/29/29 28/28/28
f 33/33/33 32/32/32 31/31/31
f 36/36/36 35/35/35 34/34/34
f 39/39/39 38/38/38 37/37/37
f 42/42/42 41/41/41 40/40/40
f 45/45/45 44/44/44 43/43/43
f 48/48/48 47/47/47 46/46/46
f 51/51/51 50/50/50 49/49/49
