g Line004
v -0.126903102 -0.0339374617 0
v 0.104488969 -0.122983187 0
v -0.133293211 -0.122742116 0
v -0.08302439 -0.0296772588 0
v 0.104667835 -0.0766991898 0
v 0.0899350122 -0.0590723641 0
v 0.080136776 -0.01902752 0
v 0.0673154667 0.00440283213 0
v -0.0779123008 0.000568957534 0
v -0.0553338304 0.0146270143 0
v -0.0327553637 0.0227800049 0
v -0.0256362259 0.0251643546 0
v 0.0543286614 0.0397619121 0
v 0.0315719098 0.0474296622 0
v -0.0259393081 0.0589320622 0
v 0.0260129459 0.0606358312 0
v -0.0256864168 0.0846591741 0
v 0.0128275119 0.103237107 0
vt 0.08801651 0.354943961
vt 0.999008775 0.00437003374
vt 0.0628585219 0.00531932712
vt 0.260767341 0.37171638
vt 0.999713063 0.186590463
vt 0.941709816 0.255987465
vt 0.903134108 0.413644314
vt 0.852656543 0.505889833
vt 0.280893713 0.49079594
vt 0.369785339 0.546142578
vt 0.458676934 0.578240991
vt 0.486705035 0.587628186
vt 0.801527441 0.645098805
vt 0.711933911 0.675286829
vt 0.485511839 0.720571876
vt 0.690048277 0.727279603
vt 0.486507505 0.821859717
vt 0.638137102 0.895001173
vn -0 0 1
vn -0 0 1
vn -0 0 1
vn -0 0 1
vn -0 0 1
vn -0 0 1
vn -0 0 1
vn -0 0 1
vn -0 0 1
vn -0 0 1
vn -0 0 1
vn -0 0 1
vn -0 0 1
vn -0 0 1
vn -0 0 1
vn -0 0 1
vn -0 0 1
vn -0 0 1
g Line004_0
f 3/3/3 2/2/2 1/1/1
f 2/2/2 4/4/4 1/1/1
f 5/5/5 4/4/4 2/2/2
f 6/6/6 4/4/4 5/5/5
f 7/7/7 4/4/4 6/6/6
f 8/8/8 4/4/4 7/7/7
f 9/9/9 4/4/4 8/8/8
f 10/10/10 9/9/9 8/8/8
f 11/11/11 10/10/10 8/8/8
f 12/12/12 11/11/11 8/8/8
f 13/13/13 12/12/12 8/8/8
f 14/14/14 12/12/12 13/13/13
f 15/15/15 12/12/12 14/14/14
f 16/16/16 15/15/15 14/14/14
f 17/17/17 15/15/15 16/16/16
f 18/18/18 17/17/17 16/16/16
