g Plane025
v 0.21607925 -0.0605829284 0
v 0.210289493 -0.0523303337 0
v 0.17409645 -0.0891850591 0
v 0.169141322 -0.0821206644 0
v 0.201709881 -0.0409990475 0
v 0.16187267 -0.0725209564 0
v 0.190380722 -0.0274312701 0
v 0.152258053 -0.061006546 0
v 0.176281199 -0.0123901349 0
v 0.140326023 -0.0482769944 0
v 0.159369916 0.00337053067 0
v 0.126126111 -0.0350415632 0
v 0.139594004 0.0190871097 0
v 0.109718397 -0.0219992381 0
v 0.11689955 0.0339730233 0
v 0.0911653638 -0.00982643478 0
v 0.0912456885 0.0472100042 0
v 0.0705150738 0.000832313555 0
v 0.0626297072 0.0579463653 0
v 0.0477785766 0.00936570764 0
v 0.0311131198 0.0653126761 0
v 0.0229017995 0.0151806623 0
v -0.00316288834 0.0684557036 0
v -0.00424819021 0.0176673327 0
v -0.0218045805 0.0681488439 0
v -0.0194698386 0.0174025223 0
v -0.0412289761 0.0669759512 0
v -0.0376564227 0.0163017176 0
v -0.0631922632 0.065311417 0
v -0.0591922179 0.0146691622 0
v -0.0866547897 0.0634592101 0
v -0.0827331245 0.0128108459 0
v -0.110455856 0.0617213286 0
v -0.107056931 0.0110351788 0
v -0.13335979 0.0603982508 0
v -0.131015554 0.0096523175 0
v -0.15403159 0.0597799756 0
v -0.153560981 0.0089822039 0
v -0.170903713 0.0601073764 0
v -0.173876986 0.00939438771 0
v -0.183427364 0.0616170727 0
v -0.192263648 0.0115915406 0
vt 0 1
vt 0.0500000007 1
vt 0 0
vt 0.0500000007 0
vt 0.100000001 1
vt 0.100000001 0
vt 0.150000006 1
vt 0.150000006 0
vt 0.200000003 1
vt 0.200000003 0
vt 0.25 1
vt 0.25 0
vt 0.300000012 1
vt 0.300000012 0
vt 0.350000024 1
vt 0.350000024 0
vt 0.400000036 1
vt 0.400000036 0
vt 0.450000048 1
vt 0.450000048 0
vt 0.50000006 1
vt 0.50000006 0
vt 0.550000072 1
vt 0.550000072 0
vt 0.600000083 1
vt 0.600000083 0
vt 0.650000095 1
vt 0.650000095 0
vt 0.700000107 1
vt 0.700000107 0
vt 0.750000119 1
vt 0.750000119 0
vt 0.800000131 1
vt 0.800000131 0
vt 0.850000143 1
vt 0.850000143 0
vt 0.900000155 1
vt 0.900000155 0
vt 0.950000167 1
vt 0.950000167 0
vt 1.00000012 1
vt 1.00000012 0
vn -0 0 -1
vn -0 0 -1
vn -0 0 -1
vn -0 0 -1
vn -0 0 -1
vn -0 0 -1
vn -0 0 -1
vn -0 0 -1
vn -0 0 -1
vn -0 0 -1
vn -0 0 -1
vn -0 0 -1
vn -0 0 -1
vn -0 0 -1
vn -0 0 -1
vn -0 0 -1
vn -0 0 -1
vn -0 0 -1
vn -0 0 -1
vn -0 0 -1
vn -0 0 -1
vn -0 0 -1
vn -0 0 -1
vn -0 0 -1
vn -0 0 -1
vn -0 0 -1
vn -0 0 -1
vn -0 0 -1
vn -0 0 -1
vn -0 0 -1
vn -0 0 -1
vn -0 0 -1
vn -0 0 -1
vn -0 0 -1
vn -0 0 -1
vn -0 0 -1
vn -0 0 -1
vn -0 0 -1
vn -0 0 -1
vn -0 0 -1
vn -0 0 -1
vn -0 0 -1
g Plane025_0
f 3/3/3 2/2/2 1/1/1
f 2/2/2 3/3/3 4/4/4
f 4/4/4 5/5/5 2/2/2
f 5/5/5 4/4/4 6/6/6
f 6/6/6 7/7/7 5/5/5
f 7/7/7 6/6/6 8/8/8
f 8/8/8 9/9/9 7/7/7
f 9/9/9 8/8/8 10/10/10
f 10/10/10 11/11/11 9/9/9
f 11/11/11 10/10/10 12/12/12
f 12/12/12 13/13/13 11/11/11
f 13/13/13 12/12/12 14/14/14
f 14/14/14 15/15/15 13/13/13
f 15/15/15 14/14/14 16/16/16
f 16/16/16 17/17/17 15/15/15
f 17/17/17 16/16/16 18/18/18
f 18/18/18 19/19/19 17/17/17
f 19/19/19 18/18/18 20/20/20
f 20/20/20 21/21/21 19/19/19
f 21/21/21 20/20/20 22/22/22
f 22/22/22 23/23/23 21/21/21
f 23/23/23 22/22/22 24/24/24
f 24/24/24 25/25/25 23/23/23
f 25/25/25 24/24/24 26/26/26
f 26/26/26 27/27/27 25/25/25
f 27/27/27 26/26/26 28/28/28
f 28/28/28 29/29/29 27/27/27
f 29/29/29 28/28/28 30/30/30
f 30/30/30 31/31/31 29/29/29
f 31/31/31 30/30/30 32/32/32
f 32/32/32 33/33/33 31/31/31
f 33/33/33 32/32/32 34/34/34
f 34/34/34 35/35/35 33/33/33
f 35/35/35 34/34/34 36/36/36
f 36/36/36 37/37/37 35/35/35
f 37/37/37 36/36/36 38/38/38
f 38/38/38 39/39/39 37/37/37
f 39/39/39 38/38/38 40/40/40
f 40/40/40 41/41/41 39/39/39
f 41/41/41 40/40/40 42/42/42
