g general_ring_05_2
v 3.30564234E-08 0.329756171 0
v 2.32418831E-08 0.217490882 0
v -0.0440984666 0.213147551 0
v -0.0660003126 0.323255688 0
v 4.28709654E-08 0.4420214 0
v -0.0865023807 0.200284511 0
v -0.0879021585 0.433363825 0
v 5.2685504E-08 0.554286599 0
v -0.10980399 0.543471932 0
v -0.129464447 0.304004043 0
v -0.12558201 0.179396003 0
v -0.172426522 0.407723695 0
v -0.215388566 0.511443138 0
v -0.187953264 0.272741109 0
v -0.159835532 0.151284844 0
v -0.250324517 0.366086274 0
v -0.312695771 0.45943144 0
v -0.239219055 0.230668336 0
v -0.187946692 0.117031306 0
v -0.318602592 0.310051888 0
v -0.397986114 0.38943544 0
v -0.281291842 0.17940256 0
v -0.208835185 0.0779516995 0
v -0.374637008 0.241773814 0
v -0.467982113 0.304145068 0
v -0.312554747 0.120913744 0
v -0.221698269 0.0355477929 0
v -0.416274369 0.163875818 0
v -0.519993901 0.206837863 0
v -0.331806391 0.0574496388 0
v -0.226041585 -0.00855070353 0
v -0.441914529 0.0793515146 0
v -0.552022636 0.101253361 0
v -0.338306844 -0.00855070353 0
v -0.221698254 -0.0526492298 0
v -0.450572133 -0.00855067372 0
v -0.562837362 -0.00855067372 0
v -0.331806362 -0.0745511055 0
v -0.208835185 -0.0950530767 0
v -0.441914499 -0.0964529812 0
v -0.552022576 -0.118354842 0
v -0.312554747 -0.138015121 0
v -0.187946722 -0.134132668 0
v -0.416274369 -0.180977196 0
v -0.519993901 -0.22393924 0
v -0.281291872 -0.196503893 0
v -0.159835532 -0.168386236 0
v -0.374637067 -0.258875161 0
v -0.467982173 -0.321246356 0
v -0.239219055 -0.247769758 0
v -0.125581995 -0.196497396 0
v -0.318602592 -0.327153295 0
v -0.397986114 -0.406536818 0
v -0.187953234 -0.289842546 0
v -0.0865023732 -0.217385888 0
v -0.250324488 -0.383187711 0
v -0.312695712 -0.476532817 0
v -0.129464433 -0.32110545 0
v -0.0440985002 -0.230248973 0
v -0.172426507 -0.424825072 0
v -0.215388551 -0.528544605 0
v -0.0660003573 -0.340357095 0
v 3.48070062E-09 -0.234592289 0
v -0.0879022181 -0.450465232 0
v -0.109804064 -0.560573339 0
v 3.48070062E-09 -0.346857548 0
v 0.0440985076 -0.230248973 0
v 3.48070062E-09 -0.459122837 0
v 3.48070062E-09 -0.571388066 0
v 0.0660003573 -0.340357095 0
v 0.0865023732 -0.217385888 0
v 0.0879022181 -0.450465232 0
v 0.109804064 -0.560573339 0
v 0.129464433 -0.32110545 0
v 0.125581995 -0.196497396 0
v 0.172426507 -0.424825072 0
v 0.215388551 -0.528544605 0
v 0.187953234 -0.289842546 0
v 0.159835532 -0.168386236 0
v 0.250324488 -0.383187711 0
v 0.312695712 -0.476532817 0
v 0.239219055 -0.247769758 0
v 0.187946707 -0.134132698 0
v 0.318602592 -0.327153295 0
v 0.397986114 -0.406536818 0
v 0.281291842 -0.196503937 0
v 0.208835185 -0.0950531065 0
v 0.374637038 -0.258875191 0
v 0.467982143 -0.321246415 0
v 0.312554747 -0.138015166 0
v 0.221698269 -0.0526492 0
v 0.416274369 -0.18097724 0
v 0.519993901 -0.2239393 0
v 0.331806391 -0.0745510757 0
v 0.226041585 -0.00855070353 0
v 0.441914529 -0.0964529216 0
v 0.552022636 -0.118354768 0
v 0.338306844 -0.00855070353 0
v 0.221698269 0.0355477929 0
v 0.450572133 -0.00855067372 0
v 0.562837362 -0.00855067372 0
v 0.331806391 0.0574496388 0
v 0.20883517 0.0779516995 0
v 0.441914529 0.0793515146 0
v 0.552022636 0.101253361 0
v 0.312554747 0.120913774 0
v 0.187946692 0.117031306 0
v 0.416274339 0.163875878 0
v 0.519993842 0.206837922 0
v 0.281291842 0.17940256 0
v 0.159835532 0.151284844 0
v 0.374637008 0.241773814 0
v 0.467982113 0.304145068 0
v 0.239219055 0.230668336 0
v 0.12558201 0.179396003 0
v 0.318602592 0.310051888 0
v 0.397986114 0.38943544 0
v 0.187953264 0.272741109 0
v 0.0865023807 0.200284511 0
v 0.250324517 0.366086274 0
v 0.312695771 0.45943144 0
v 0.129464447 0.304004043 0
v 0.0440984741 0.213147551 0
v 0.172426522 0.407723695 0
v 0.215388566 0.511443138 0
v 0.0660003126 0.323255688 0
v -1.62804827E-08 0.217490882 0
v -2.6095023E-08 0.329756171 0
v 0.0879021585 0.433363825 0
v 0.10980399 0.543471932 0
v -3.59095651E-08 0.4420214 0
v -4.57241036E-08 0.554286599 0
vt 0 0.400000006
vt 0 0.600000024
vt 0.0312499981 0.600000024
vt 0.03125 0.400000006
vt 0 0.200000003
vt 0.0624999963 0.600000024
vt 0.03125 0.200000003
vt 0 0
vt 0.03125 0
vt 0.0625 0.400000006
vt 0.09375 0.600000024
vt 0.0625 0.200000003
vt 0.0625 0
vt 0.09375 0.400000006
vt 0.125 0.600000024
vt 0.09375 0.200000003
vt 0.09375 0
vt 0.125 0.400000006
vt 0.15625 0.600000024
vt 0.125 0.200000003
vt 0.125 0
vt 0.15625 0.400000006
vt 0.1875 0.600000024
vt 0.15625 0.200000003
vt 0.15625 0
vt 0.1875 0.400000006
vt 0.21875 0.600000024
vt 0.1875 0.200000003
vt 0.1875 0
vt 0.21875 0.400000006
vt 0.25 0.600000024
vt 0.21875 0.200000003
vt 0.21875 0
vt 0.25 0.400000006
vt 0.28125 0.600000024
vt 0.25 0.200000003
vt 0.25 0
vt 0.28125 0.400000006
vt 0.3125 0.600000024
vt 0.28125 0.200000003
vt 0.28125 0
vt 0.3125 0.400000006
vt 0.34375 0.600000024
vt 0.3125 0.200000003
vt 0.3125 0
vt 0.34375 0.400000006
vt 0.375 0.600000024
vt 0.34375 0.200000003
vt 0.34375 0
vt 0.375 0.400000006
vt 0.40625 0.600000024
vt 0.375 0.200000003
vt 0.375 0
vt 0.40625003 0.400000006
vt 0.4375 0.600000024
vt 0.40625003 0.200000003
vt 0.40625 0
vt 0.43750003 0.400000006
vt 0.46874997 0.600000024
vt 0.43750003 0.200000003
vt 0.43750003 0
vt 0.46875 0.400000006
vt 0.5 0.600000024
vt 0.46875 0.200000003
vt 0.46875 0
vt 0.5 0.400000006
vt 0.53125 0.600000024
vt 0.5 0.200000003
vt 0.5 0
vt 0.53125 0.400000006
vt 0.5625 0.600000024
vt 0.53125 0.200000003
vt 0.53125 0
vt 0.5625 0.400000006
vt 0.59375 0.600000024
vt 0.5625 0.200000003
vt 0.5625 0
vt 0.59375 0.400000006
vt 0.625 0.600000024
vt 0.59375 0.200000003
vt 0.59375 0
vt 0.625 0.400000006
vt 0.65625 0.600000024
vt 0.625 0.200000003
vt 0.625 0
vt 0.65625006 0.400000006
vt 0.6875 0.600000024
vt 0.65625006 0.200000003
vt 0.65625 0
vt 0.6875 0.400000006
vt 0.71875 0.600000024
vt 0.6875 0.200000003
vt 0.6875 0
vt 0.71875 0.400000006
vt 0.75 0.600000024
vt 0.71875 0.200000003
vt 0.71875 0
vt 0.75 0.400000006
vt 0.78125 0.600000024
vt 0.75 0.200000003
vt 0.75 0
vt 0.78125 0.400000006
vt 0.8125 0.600000024
vt 0.78125 0.200000003
vt 0.78125 0
vt 0.81250006 0.400000006
vt 0.84374994 0.600000024
vt 0.81250006 0.200000003
vt 0.8125 0
vt 0.84375 0.400000006
vt 0.875 0.600000024
vt 0.84375 0.200000003
vt 0.84375 0
vt 0.875 0.400000006
vt 0.90625 0.600000024
vt 0.875 0.200000003
vt 0.875 0
vt 0.90625 0.400000006
vt 0.93749994 0.600000024
vt 0.90625 0.200000003
vt 0.90625 0
vt 0.9375 0.400000006
vt 0.96875 0.600000024
vt 0.9375 0.200000003
vt 0.9375 0
vt 0.96875006 0.400000006
vt 1 0.600000024
vt 1 0.400000006
vt 0.96875006 0.200000003
vt 0.96875 0
vt 1 0.200000003
vt 1 0
vn -0 0 1
vn -0 0 1
vn -0 0 1
vn -0 0 1
vn -0 0 1
vn -0 0 1
vn -0 0 1
vn -0 0 1
vn -0 0 1
vn -0 0 1
vn -0 0 1
vn -0 0 1
vn -0 0 1
vn -0 0 1
vn -0 0 1
vn -0 0 1
vn -0 0 1
vn -0 0 1
vn -0 0 1
vn -0 0 1
vn -0 0 1
vn -0 0 1
vn -0 0 1
vn -0 0 1
vn -0 0 1
vn -0 0 1
vn -0 0 1
vn -0 0 1
vn -0 0 1
vn -0 0 1
vn -0 0 1
vn -0 0 1
vn -0 0 1
vn -0 0 1
vn -0 0 1
vn -0 0 1
vn -0 0 1
vn -0 0 1
vn -0 0 1
vn -0 0 1
vn -0 0 1
vn -0 0 1
vn -0 0 1
vn -0 0 1
vn -0 0 1
vn -0 0 1
vn -0 0 1
vn -0 0 1
vn -0 0 1
vn -0 0 1
vn -0 0 1
vn -0 0 1
vn -0 0 1
vn -0 0 1
vn -0 0 1
vn -0 0 1
vn -0 0 1
vn -0 0 1
vn -0 0 1
vn -0 0 1
vn -0 0 1
vn -0 0 1
vn -0 0 1
vn -0 0 1
vn -0 0 1
vn -0 0 1
vn -0 0 1
vn -0 0 1
vn -0 0 1
vn -0 0 1
vn -0 0 1
vn -0 0 1
vn -0 0 1
vn -0 0 1
vn -0 0 1
vn -0 0 1
vn -0 0 1
vn -0 0 1
vn -0 0 1
vn -0 0 1
vn -0 0 1
vn -0 0 1
vn -0 0 1
vn -0 0 1
vn -0 0 1
vn -0 0 1
vn -0 0 1
vn -0 0 1
vn -0 0 1
vn -0 0 1
vn -0 0 1
vn -0 0 1
vn -0 0 1
vn -0 0 1
vn -0 0 1
vn -0 0 1
vn -0 0 1
vn -0 0 1
vn -0 0 1
vn -0 0 1
vn -0 0 1
vn -0 0 1
vn -0 0 1
vn -0 0 1
vn -0 0 1
vn -0 0 1
vn -0 0 1
vn -0 0 1
vn -0 0 1
vn -0 0 1
vn -0 0 1
vn -0 0 1
vn -0 0 1
vn -0 0 1
vn -0 0 1
vn -0 0 1
vn -0 0 1
vn -0 0 1
vn -0 0 1
vn -0 0 1
vn -0 0 1
vn -0 0 1
vn -0 0 1
vn -0 0 1
vn -0 0 1
vn -0 0 1
vn -0 0 1
vn -0 0 1
vn -0 0 1
vn -0 0 1
vn -0 0 1
vn -0 0 1
g general_ring_05_2_0
f 3/3/3 2/2/2 1/1/1
f 4/4/4 3/3/3 1/1/1
f 4/4/4 1/1/1 5/5/5
f 6/6/6 3/3/3 4/4/4
f 7/7/7 4/4/4 5/5/5
f 7/7/7 5/5/5 8/8/8
f 9/9/9 7/7/7 8/8/8
f 10/10/10 6/6/6 4/4/4
f 10/10/10 4/4/4 7/7/7
f 11/11/11 6/6/6 10/10/10
f 12/12/12 7/7/7 9/9/9
f 12/12/12 10/10/10 7/7/7
f 13/13/13 12/12/12 9/9/9
f 14/14/14 11/11/11 10/10/10
f 14/14/14 10/10/10 12/12/12
f 15/15/15 11/11/11 14/14/14
f 16/16/16 12/12/12 13/13/13
f 16/16/16 14/14/14 12/12/12
f 17/17/17 16/16/16 13/13/13
f 18/18/18 15/15/15 14/14/14
f 18/18/18 14/14/14 16/16/16
f 19/19/19 15/15/15 18/18/18
f 20/20/20 16/16/16 17/17/17
f 20/20/20 18/18/18 16/16/16
f 21/21/21 20/20/20 17/17/17
f 22/22/22 19/19/19 18/18/18
f 22/22/22 18/18/18 20/20/20
f 23/23/23 19/19/19 22/22/22
f 24/24/24 20/20/20 21/21/21
f 24/24/24 22/22/22 20/20/20
f 25/25/25 24/24/24 21/21/21
f 26/26/26 23/23/23 22/22/22
f 26/26/26 22/22/22 24/24/24
f 27/27/27 23/23/23 26/26/26
f 28/28/28 24/24/24 25/25/25
f 28/28/28 26/26/26 24/24/24
f 29/29/29 28/28/28 25/25/25
f 30/30/30 27/27/27 26/26/26
f 30/30/30 26/26/26 28/28/28
f 31/31/31 27/27/27 30/30/30
f 32/32/32 28/28/28 29/29/29
f 32/32/32 30/30/30 28/28/28
f 33/33/33 32/32/32 29/29/29
f 34/34/34 31/31/31 30/30/30
f 34/34/34 30/30/30 32/32/32
f 35/35/35 31/31/31 34/34/34
f 36/36/36 32/32/32 33/33/33
f 36/36/36 34/34/34 32/32/32
f 37/37/37 36/36/36 33/33/33
f 38/38/38 35/35/35 34/34/34
f 38/38/38 34/34/34 36/36/36
f 39/39/39 35/35/35 38/38/38
f 40/40/40 36/36/36 37/37/37
f 40/40/40 38/38/38 36/36/36
f 41/41/41 40/40/40 37/37/37
f 42/42/42 39/39/39 38/38/38
f 42/42/42 38/38/38 40/40/40
f 43/43/43 39/39/39 42/42/42
f 44/44/44 40/40/40 41/41/41
f 44/44/44 42/42/42 40/40/40
f 45/45/45 44/44/44 41/41/41
f 46/46/46 43/43/43 42/42/42
f 46/46/46 42/42/42 44/44/44
f 47/47/47 43/43/43 46/46/46
f 48/48/48 44/44/44 45/45/45
f 48/48/48 46/46/46 44/44/44
f 49/49/49 48/48/48 45/45/45
f 50/50/50 47/47/47 46/46/46
f 50/50/50 46/46/46 48/48/48
f 51/51/51 47/47/47 50/50/50
f 52/52/52 48/48/48 49/49/49
f 52/52/52 50/50/50 48/48/48
f 53/53/53 52/52/52 49/49/49
f 54/54/54 51/51/51 50/50/50
f 54/54/54 50/50/50 52/52/52
f 55/55/55 51/51/51 54/54/54
f 56/56/56 52/52/52 53/53/53
f 56/56/56 54/54/54 52/52/52
f 57/57/57 56/56/56 53/53/53
f 58/58/58 55/55/55 54/54/54
f 58/58/58 54/54/54 56/56/56
f 59/59/59 55/55/55 58/58/58
f 60/60/60 56/56/56 57/57/57
f 60/60/60 58/58/58 56/56/56
f 61/61/61 60/60/60 57/57/57
f 62/62/62 59/59/59 58/58/58
f 62/62/62 58/58/58 60/60/60
f 63/63/63 59/59/59 62/62/62
f 64/64/64 60/60/60 61/61/61
f 64/64/64 62/62/62 60/60/60
f 65/65/65 64/64/64 61/61/61
f 66/66/66 63/63/63 62/62/62
f 66/66/66 62/62/62 64/64/64
f 67/67/67 63/63/63 66/66/66
f 68/68/68 64/64/64 65/65/65
f 68/68/68 66/66/66 64/64/64
f 69/69/69 68/68/68 65/65/65
f 70/70/70 67/67/67 66/66/66
f 70/70/70 66/66/66 68/68/68
f 71/71/71 67/67/67 70/70/70
f 72/72/72 68/68/68 69/69/69
f 72/72/72 70/70/70 68/68/68
f 73/73/73 72/72/72 69/69/69
f 74/74/74 71/71/71 70/70/70
f 74/74/74 70/70/70 72/72/72
f 75/75/75 71/71/71 74/74/74
f 76/76/76 72/72/72 73/73/73
f 76/76/76 74/74/74 72/72/72
f 77/77/77 76/76/76 73/73/73
f 78/78/78 75/75/75 74/74/74
f 78/78/78 74/74/74 76/76/76
f 79/79/79 75/75/75 78/78/78
f 80/80/80 76/76/76 77/77/77
f 80/80/80 78/78/78 76/76/76
f 81/81/81 80/80/80 77/77/77
f 82/82/82 79/79/79 78/78/78
f 82/82/82 78/78/78 80/80/80
f 83/83/83 79/79/79 82/82/82
f 84/84/84 80/80/80 81/81/81
f 84/84/84 82/82/82 80/80/80
f 85/85/85 84/84/84 81/81/81
f 86/86/86 83/83/83 82/82/82
f 86/86/86 82/82/82 84/84/84
f 87/87/87 83/83/83 86/86/86
f 88/88/88 84/84/84 85/85/85
f 88/88/88 86/86/86 84/84/84
f 89/89/89 88/88/88 85/85/85
f 90/90/90 87/87/87 86/86/86
f 90/90/90 86/86/86 88/88/88
f 91/91/91 87/87/87 90/90/90
f 92/92/92 88/88/88 89/89/89
f 92/92/92 90/90/90 88/88/88
f 93/93/93 92/92/92 89/89/89
f 94/94/94 91/91/91 90/90/90
f 94/94/94 90/90/90 92/92/92
f 95/95/95 91/91/91 94/94/94
f 96/96/96 92/92/92 93/93/93
f 96/96/96 94/94/94 92/92/92
f 97/97/97 96/96/96 93/93/93
f 98/98/98 95/95/95 94/94/94
f 98/98/98 94/94/94 96/96/96
f 99/99/99 95/95/95 98/98/98
f 100/100/100 96/96/96 97/97/97
f 100/100/100 98/98/98 96/96/96
f 101/101/101 100/100/100 97/97/97
f 102/102/102 99/99/99 98/98/98
f 102/102/102 98/98/98 100/100/100
f 103/103/103 99/99/99 102/102/102
f 104/104/104 100/100/100 101/101/101
f 104/104/104 102/102/102 100/100/100
f 105/105/105 104/104/104 101/101/101
f 106/106/106 103/103/103 102/102/102
f 106/106/106 102/102/102 104/104/104
f 107/107/107 103/103/103 106/106/106
f 108/108/108 104/104/104 105/105/105
f 108/108/108 106/106/106 104/104/104
f 109/109/109 108/108/108 105/105/105
f 110/110/110 107/107/107 106/106/106
f 110/110/110 106/106/106 108/108/108
f 111/111/111 107/107/107 110/110/110
f 112/112/112 108/108/108 109/109/109
f 112/112/112 110/110/110 108/108/108
f 113/113/113 112/112/112 109/109/109
f 114/114/114 111/111/111 110/110/110
f 114/114/114 110/110/110 112/112/112
f 115/115/115 111/111/111 114/114/114
f 116/116/116 112/112/112 113/113/113
f 116/116/116 114/114/114 112/112/112
f 117/117/117 116/116/116 113/113/113
f 118/118/118 115/115/115 114/114/114
f 118/118/118 114/114/114 116/116/116
f 119/119/119 115/115/115 118/118/118
f 120/120/120 116/116/116 117/117/117
f 120/120/120 118/118/118 116/116/116
f 121/121/121 120/120/120 117/117/117
f 122/122/122 119/119/119 118/118/118
f 122/122/122 118/118/118 120/120/120
f 123/123/123 119/119/119 122/122/122
f 124/124/124 120/120/120 121/121/121
f 124/124/124 122/122/122 120/120/120
f 125/125/125 124/124/124 121/121/121
f 126/126/126 123/123/123 122/122/122
f 126/126/126 122/122/122 124/124/124
f 127/127/127 123/123/123 126/126/126
f 128/128/128 127/127/127 126/126/126
f 129/129/129 124/124/124 125/125/125
f 129/129/129 126/126/126 124/124/124
f 128/128/128 126/126/126 129/129/129
f 130/130/130 129/129/129 125/125/125
f 131/131/131 128/128/128 129/129/129
f 131/131/131 129/129/129 130/130/130
f 132/132/132 131/131/131 130/130/130
