g char_lin_xx_01
v -0.0919292793 0.86432904 2.99543608E-08
v 1.24405943E-08 0.369146883 -4.0536604E-15
v 5.61519791E-08 0.869146883 -1.82966384E-14
v -0.0396649428 0.367068112 1.29244793E-08
v -0.18285121 0.849928439 5.95804899E-08
v -0.0788953155 0.360854685 2.5707358E-08
v -0.271769792 0.826102912 8.85538398E-08
v -0.117261305 0.350574553 3.8208583E-08
v -0.357711017 0.793113053 1.16557047E-07
v -0.154342622 0.336340368 5.0291213E-08
v -0.439733088 0.751320779 1.43283231E-07
v -0.189732864 0.318308175 6.18228171E-08
v -9.7618738E-08 0.869146883 3.18082217E-14
v -5.39073497E-08 0.369146883 1.75652441E-14
v 0.0396649875 0.367068112 -1.29244935E-08
v 0.0919290334 0.86432904 -2.99542826E-08
v 0.0788953677 0.360854685 -2.5707374E-08
v 0.182850972 0.849928558 -5.95804117E-08
v 0.117261343 0.350574553 -3.82085972E-08
v 0.271769553 0.826102912 -8.85537617E-08
v 0.154342681 0.336340368 -5.02912307E-08
v 0.357710749 0.793113172 -1.16556961E-07
v 0.189733014 0.318308055 -6.18228668E-08
v 0.439732641 0.751321018 -1.43283089E-07
v 0.223044544 0.296675265 -7.2677139E-08
v 0.516936779 0.701184094 -1.68439385E-07
v 0.2539123 0.271679103 -8.27351343E-08
v 0.588477135 0.643251836 -1.91750189E-07
v 0.281998187 0.243593156 -9.1886676E-08
v 0.653570294 0.578158796 -2.12960245E-07
v 0.306994408 0.212725341 -1.00031478E-07
v 0.711502552 0.50661844 -2.31836964E-07
v 0.328627169 0.179413915 -1.07080325E-07
v 0.761639595 0.429414451 -2.48173677E-07
v 0.346659422 0.144023597 -1.12955981E-07
v 0.803431869 0.347392559 -2.61791342E-07
v 0.360893577 0.106942356 -1.17594055E-07
v 0.836421669 0.261451423 -2.72540774E-07
v 0.37117371 0.0685763359 -1.20943753E-07
v 0.860247374 0.172532916 -2.80304192E-07
v 0.377387196 0.0293459296 -1.22968359E-07
v 0.874648094 0.0816108584 -2.84996531E-07
v 0.379465967 -0.0103190541 -1.23645705E-07
v 0.879465997 -0.0103183389 -2.86566404E-07
v 0.377387226 -0.0499840379 -1.22968373E-07
v 0.874648273 -0.102247655 -2.84996588E-07
v 0.371173739 -0.0892145038 -1.20943753E-07
v 0.860247672 -0.193169713 -2.80304278E-07
v 0.360893577 -0.127580523 -1.17594055E-07
v 0.836422026 -0.282088429 -2.72540888E-07
v 0.346659422 -0.164661825 -1.12955981E-07
v 0.803432405 -0.368029654 -2.61791513E-07
v 0.357711375 -0.813751101 -1.16557167E-07
v 0.154342607 -0.356978595 -5.02912059E-08
v 0.117261313 -0.371212751 -3.82085865E-08
v 0.271770269 -0.846740842 -8.85539961E-08
v 0.0788952708 -0.381492913 -2.57073438E-08
v 0.182851613 -0.870566607 -5.95806213E-08
v 0.0396648422 -0.387706369 -1.29244464E-08
v 0.0919295549 -0.884967268 -2.99544531E-08
v -1.64461156E-07 -0.389785111 5.35882475E-14
v 3.12376017E-07 -0.889785111 -1.01785029E-13
v -0.03966517 -0.387706339 1.2924553E-08
v -0.091928944 -0.884967327 2.99542542E-08
v -0.0788955986 -0.381492823 2.57074504E-08
v -0.182850987 -0.870566726 5.95804153E-08
v -0.117261626 -0.371212661 3.82086895E-08
v -0.271769702 -0.84674108 8.85538114E-08
v -0.154342905 -0.356978476 5.02913018E-08
v -0.357710838 -0.81375134 1.1655699E-07
v -0.189733148 -0.338946223 6.18229095E-08
v -0.43973285 -0.771959126 1.4328316E-07
v -0.223044664 -0.317313462 7.26771816E-08
v -0.516936958 -0.721822143 1.68439442E-07
v -0.253912479 -0.292317182 8.27351911E-08
v -0.588477552 -0.663889825 1.91750331E-07
v -0.281998366 -0.264231265 9.18867329E-08
v -0.653570533 -0.598796785 2.12960316E-07
v -0.306994587 -0.23336345 1.00031535E-07
v -0.71150291 -0.52725631 2.31837078E-07
v -0.328627348 -0.200051904 1.07080382E-07
v -0.761639953 -0.450052083 2.48173819E-07
v -0.346659571 -0.164661646 1.1295603E-07
v -0.803432167 -0.368030131 2.61791428E-07
v -0.360893726 -0.127580285 1.17594105E-07
v -0.836421907 -0.282089025 2.72540859E-07
v -0.371173829 -0.0892142653 1.20943795E-07
v -0.860247552 -0.193170249 2.80304249E-07
v -0.377387315 -0.0499837995 1.22968402E-07
v -0.874648213 -0.102248192 2.8499656E-07
v -0.379466027 -0.0103187561 1.23645734E-07
v -0.879465997 -0.0103189945 2.86566404E-07
v -0.377387226 0.0293462276 1.22968373E-07
v -0.874648154 0.0816102624 2.8499656E-07
v -0.37117371 0.0685766339 1.20943753E-07
v -0.860247552 0.172532201 2.80304249E-07
v -0.360893548 0.106942594 1.17594048E-07
v -0.836421847 0.261450827 2.72540831E-07
v -0.346659333 0.144023895 1.12955952E-07
v -0.803432167 0.347391903 2.61791428E-07
v -0.32862708 0.179414153 1.07080297E-07
v -0.761639893 0.429413974 2.48173791E-07
vt 0.758789062 0.995117188
vt 0.688476562 0.612304688
vt 0.688476562 0.999023438
vt 0.717773438 0.610351562
vt 0.829101562 0.983398438
vt 0.750976562 0.604492188
vt 0.897460938 0.965820312
vt 0.778320312 0.596679688
vt 0.965820312 0.942382812
vt 0.805664062 0.586914062
vt 1.02832031 0.909179688
vt 0.834960938 0.573242188
vt 0.688476562 0.999023438
vt 0.688476562 0.612304688
vt 0.655273438 0.610351562
vt 0.616210938 0.995117188
vt 0.624023438 0.604492188
vt 0.545898438 0.983398438
vt 0.596679688 0.596679688
vt 0.477539062 0.965820312
vt 0.567382812 0.586914062
vt 0.409179688 0.942382812
vt 0.540039062 0.573242188
vt 0.344726562 0.909179688
vt 0.512695312 0.553710938
vt 0.284179688 0.870117188
vt 0.489257812 0.534179688
vt 0.231445312 0.823242188
vt 0.467773438 0.514648438
vt 0.180664062 0.772460938
vt 0.448242188 0.489257812
vt 0.131835938 0.717773438
vt 0.430664062 0.463867188
vt 0.0947265625 0.657226562
vt 0.416992188 0.436523438
vt 0.0615234375 0.594726562
vt 0.405273438 0.407226562
vt 0.0380859375 0.526367188
vt 0.399414062 0.377929688
vt 0.0185546875 0.458007812
vt 0.393554688 0.348632812
vt 0.0068359375 0.387695312
vt 0.391601562 0.315429688
vt 0.0048828125 0.315429688
vt 0.393554688 0.286132812
vt 0.0068359375 0.245117188
vt 0.399414062 0.252929688
vt 0.0185546875 0.174804688
vt 0.405273438 0.225585938
vt 0.0380859375 0.106445312
vt 0.416992188 0.196289062
vt 0.0615234375 0.0361328125
vt 1.03222656 0.907226562
vt 0.833007812 0.569335938
vt 0.805664062 0.584960938
vt 0.963867188 0.936523438
vt 0.778320312 0.592773438
vt 0.897460938 0.963867188
vt 0.749023438 0.602539062
vt 0.829101562 0.981445312
vt 0.717773438 0.608398438
vt 0.760742188 0.995117188
vt 0.686523438 0.608398438
vt 0.688476562 0.999023438
vt 0.655273438 0.608398438
vt 0.618164062 0.995117188
vt 0.627929688 0.604492188
vt 0.545898438 0.981445312
vt 0.598632812 0.596679688
vt 0.477539062 0.963867188
vt 0.565429688 0.583007812
vt 0.411132812 0.942382812
vt 0.540039062 0.569335938
vt 0.344726562 0.909179688
vt 0.512695312 0.551757812
vt 0.286132812 0.866210938
vt 0.489257812 0.534179688
vt 0.231445312 0.821289062
vt 0.465820312 0.512695312
vt 0.176757812 0.772460938
vt 0.448242188 0.487304688
vt 0.131835938 0.717773438
vt 0.428710938 0.459960938
vt 0.0947265625 0.659179688
vt 0.415039062 0.436523438
vt 0.0615234375 0.592773438
vt 0.407226562 0.407226562
vt 0.0361328125 0.526367188
vt 0.395507812 0.375976562
vt 0.0166015625 0.458007812
vt 0.391601562 0.346679688
vt 0.0087890625 0.385742188
vt 0.391601562 0.313476562
vt -0.0009765625 0.315429688
vt 0.393554688 0.284179688
vt 0.0068359375 0.245117188
vt 0.397460938 0.250976562
vt 0.0185546875 0.174804688
vt 0.405273438 0.225585938
vt 0.0341796875 0.104492188
vt 0.415039062 0.194335938
vt 0.0595703125 0.0380859375
vn -0 0 -1
vn -0 0 -1
vn -0 0 -1
vn -0 0 -1
vn -0 0 -1
vn -0 0 -1
vn -0 0 -1
vn -0 0 -1
vn -0 0 -1
vn -0 0 -1
vn -0 0 -1
vn -0 0 -1
vn -0 0 -1
vn -0 0 -1
vn -0 0 -1
vn -0 0 -1
vn -0 0 -1
vn -0 0 -1
vn -0 0 -1
vn -0 0 -1
vn -0 0 -1
vn -0 0 -1
vn -0 0 -1
vn -0 0 -1
vn -0 0 -1
vn -0 0 -1
vn -0 0 -1
vn -0 0 -1
vn -0 0 -1
vn -0 0 -1
vn -0 0 -1
vn -0 0 -1
vn -0 0 -1
vn -0 0 -1
vn -0 0 -1
vn -0 0 -1
vn -0 0 -1
vn -0 0 -1
vn -0 0 -1
vn -0 0 -1
vn -0 0 -1
vn -0 0 -1
vn -0 0 -1
vn -0 0 -1
vn -0 0 -1
vn -0 0 -1
vn -0 0 -1
vn -0 0 -1
vn -0 0 -1
vn -0 0 -1
vn -0 0 -1
vn -0 0 -1
vn -0 0 -1
vn -0 0 -1
vn -0 0 -1
vn -0 0 -1
vn -0 0 -1
vn -0 0 -1
vn -0 0 -1
vn -0 0 -1
vn -0 0 -1
vn -0 0 -1
vn -0 0 -1
vn -0 0 -1
vn -0 0 -1
vn -0 0 -1
vn -0 0 -1
vn -0 0 -1
vn -0 0 -1
vn -0 0 -1
vn -0 0 -1
vn -0 0 -1
vn -0 0 -1
vn -0 0 -1
vn -0 0 -1
vn -0 0 -1
vn -0 0 -1
vn -0 0 -1
vn -0 0 -1
vn -0 0 -1
vn -0 0 -1
vn -0 0 -1
vn -0 0 -1
vn -0 0 -1
vn -0 0 -1
vn -0 0 -1
vn -0 0 -1
vn -0 0 -1
vn -0 0 -1
vn -0 0 -1
vn -0 0 -1
vn -0 0 -1
vn -0 0 -1
vn -0 0 -1
vn -0 0 -1
vn -0 0 -1
vn -0 0 -1
vn -0 0 -1
vn -0 0 -1
vn -0 0 -1
vn -0 0 -1
vn -0 0 -1
g char_lin_xx_01_0
f 3/3/3 2/2/2 1/1/1
f 2/2/2 4/4/4 1/1/1
f 1/1/1 4/4/4 5/5/5
f 4/4/4 6/6/6 5/5/5
f 5/5/5 6/6/6 7/7/7
f 6/6/6 8/8/8 7/7/7
f 7/7/7 8/8/8 9/9/9
f 8/8/8 10/10/10 9/9/9
f 9/9/9 10/10/10 11/11/11
f 10/10/10 12/12/12 11/11/11
f 15/15/15 14/14/14 13/13/13
f 16/16/16 15/15/15 13/13/13
f 17/17/17 15/15/15 16/16/16
f 18/18/18 17/17/17 16/16/16
f 19/19/19 17/17/17 18/18/18
f 20/20/20 19/19/19 18/18/18
f 21/21/21 19/19/19 20/20/20
f 22/22/22 21/21/21 20/20/20
f 23/23/23 21/21/21 22/22/22
f 24/24/24 23/23/23 22/22/22
f 25/25/25 23/23/23 24/24/24
f 26/26/26 25/25/25 24/24/24
f 27/27/27 25/25/25 26/26/26
f 28/28/28 27/27/27 26/26/26
f 29/29/29 27/27/27 28/28/28
f 30/30/30 29/29/29 28/28/28
f 31/31/31 29/29/29 30/30/30
f 32/32/32 31/31/31 30/30/30
f 33/33/33 31/31/31 32/32/32
f 34/34/34 33/33/33 32/32/32
f 35/35/35 33/33/33 34/34/34
f 36/36/36 35/35/35 34/34/34
f 37/37/37 35/35/35 36/36/36
f 38/38/38 37/37/37 36/36/36
f 39/39/39 37/37/37 38/38/38
f 40/40/40 39/39/39 38/38/38
f 41/41/41 39/39/39 40/40/40
f 42/42/42 41/41/41 40/40/40
f 43/43/43 41/41/41 42/42/42
f 44/44/44 43/43/43 42/42/42
f 45/45/45 43/43/43 44/44/44
f 46/46/46 45/45/45 44/44/44
f 47/47/47 45/45/45 46/46/46
f 48/48/48 47/47/47 46/46/46
f 49/49/49 47/47/47 48/48/48
f 50/50/50 49/49/49 48/48/48
f 51/51/51 49/49/49 50/50/50
f 52/52/52 51/51/51 50/50/50
f 55/55/55 54/54/54 53/53/53
f 56/56/56 55/55/55 53/53/53
f 57/57/57 55/55/55 56/56/56
f 58/58/58 57/57/57 56/56/56
f 59/59/59 57/57/57 58/58/58
f 60/60/60 59/59/59 58/58/58
f 61/61/61 59/59/59 60/60/60
f 62/62/62 61/61/61 60/60/60
f 63/63/63 61/61/61 62/62/62
f 64/64/64 63/63/63 62/62/62
f 65/65/65 63/63/63 64/64/64
f 66/66/66 65/65/65 64/64/64
f 67/67/67 65/65/65 66/66/66
f 68/68/68 67/67/67 66/66/66
f 69/69/69 67/67/67 68/68/68
f 70/70/70 69/69/69 68/68/68
f 71/71/71 69/69/69 70/70/70
f 72/72/72 71/71/71 70/70/70
f 73/73/73 71/71/71 72/72/72
f 74/74/74 73/73/73 72/72/72
f 75/75/75 73/73/73 74/74/74
f 76/76/76 75/75/75 74/74/74
f 77/77/77 75/75/75 76/76/76
f 78/78/78 77/77/77 76/76/76
f 79/79/79 77/77/77 78/78/78
f 80/80/80 79/79/79 78/78/78
f 81/81/81 79/79/79 80/80/80
f 82/82/82 81/81/81 80/80/80
f 83/83/83 81/81/81 82/82/82
f 84/84/84 83/83/83 82/82/82
f 85/85/85 83/83/83 84/84/84
f 86/86/86 85/85/85 84/84/84
f 87/87/87 85/85/85 86/86/86
f 88/88/88 87/87/87 86/86/86
f 89/89/89 87/87/87 88/88/88
f 90/90/90 89/89/89 88/88/88
f 91/91/91 89/89/89 90/90/90
f 92/92/92 91/91/91 90/90/90
f 93/93/93 91/91/91 92/92/92
f 94/94/94 93/93/93 92/92/92
f 95/95/95 93/93/93 94/94/94
f 96/96/96 95/95/95 94/94/94
f 97/97/97 95/95/95 96/96/96
f 98/98/98 97/97/97 96/96/96
f 99/99/99 97/97/97 98/98/98
f 100/100/100 99/99/99 98/98/98
f 101/101/101 99/99/99 100/100/100
f 102/102/102 101/101/101 100/100/100
