g general_quad_05
v 0.148661852 0.519787729 -1.18898811E-07
v 0.148661852 0.65707916 -1.18898811E-07
v 0.0113703683 0.65707916 -7.4163566E-08
v 0.0113703683 0.519787729 -7.4163566E-08
v -0.0162728801 0.655590892 7.26231804E-08
v -0.153564364 0.655590892 1.17358425E-07
v -0.153564364 0.51829946 1.17358425E-07
v -0.0162728801 0.51829946 7.26231804E-08
v -0.247216493 0.412478536 1.57344729E-07
v -0.384507984 0.412478536 2.02079974E-07
v -0.384507954 0.275187016 2.0207996E-07
v -0.247216493 0.275187016 1.57344729E-07
v 0.383501202 0.276981711 -2.04647264E-07
v 0.383501202 0.414273202 -2.04647264E-07
v 0.24620977 0.414273202 -1.59912034E-07
v 0.24620977 0.276981711 -1.59912034E-07
v 0.0111952946 -0.595753789 -1.619659E-07
v 0.148486763 -0.595753789 -2.06701131E-07
v 0.148486763 -0.458462358 -2.06701131E-07
v 0.0111952946 -0.458462358 -1.619659E-07
v 0.247041374 -0.359907746 -7.82712988E-08
v 0.384332865 -0.359907776 -1.23006544E-07
v 0.384332865 -0.222616285 -1.23006544E-07
v 0.247041374 -0.222616285 -7.82712988E-08
v -0.155315161 -0.458724946 1.17358383E-07
v -0.155315161 -0.596016526 1.17358383E-07
v -0.018023707 -0.596016407 7.26231519E-08
v -0.018023707 -0.458724946 7.26231519E-08
v -0.383150905 -0.224673539 2.02593398E-07
v -0.383150876 -0.36196506 2.02593384E-07
v -0.245859474 -0.36196506 1.57858167E-07
v -0.245859474 -0.224673539 1.57858167E-07
v -0.480413109 0.17588836 1.57344729E-07
v -0.61770457 0.17588836 2.02079974E-07
v -0.61770457 0.0385968462 2.0207996E-07
v -0.480413109 0.0385968462 1.57344729E-07
v -0.619033456 0.0176775716 2.02593398E-07
v -0.619033456 -0.119613931 2.02593384E-07
v -0.481742024 -0.119613931 1.57858167E-07
v -0.481742024 0.0176775716 1.57858167E-07
v 0.624118447 0.0388084203 -2.04647264E-07
v 0.624118447 0.176099896 -2.04647264E-07
v 0.486827046 0.176099896 -1.59912034E-07
v 0.486827046 0.0388084203 -1.59912034E-07
v 0.484463304 -0.120384783 -7.82712988E-08
v 0.621754766 -0.120384797 -1.23006544E-07
v 0.621754766 0.0169066563 -1.23006544E-07
v 0.484463304 0.0169066563 -7.82712988E-08
vt 0 0
vt 0 1
vt 1 1
vt 1 0
vt 0 0
vt 0 1
vt 1 1
vt 1 0
vt 0 0
vt 0 1
vt 1 1
vt 1 0
vt 0 0
vt 0 1
vt 1 1
vt 1 0
vt 0 0
vt 0 1
vt 1 1
vt 1 0
vt 0 0
vt 0 1
vt 1 1
vt 1 0
vt 0 0
vt 0 1
vt 1 1
vt 1 0
vt 0 0
vt 0 1
vt 1 1
vt 1 0
vt 0 0
vt 0 1
vt 1 1
vt 1 0
vt 0 0
vt 0 1
vt 1 1
vt 1 0
vt 0 0
vt 0 1
vt 1 1
vt 1 0
vt 0 0
vt 0 1
vt 1 1
vt 1 0
vn -0 0 -1
vn -0 0 -1
vn -0 0 -1
vn -0 0 -1
vn -0 0 -1
vn -0 0 -1
vn -0 0 -1
vn -0 0 -1
vn -0 0 -1
vn -0 0 -1
vn -0 0 -1
vn -0 0 -1
vn -0 0 -1
vn -0 0 -1
vn -0 0 -1
vn -0 0 -1
vn -0 0 -1
vn -0 0 -1
vn -0 0 -1
vn -0 0 -1
vn -0 0 -1
vn -0 0 -1
vn -0 0 -1
vn -0 0 -1
vn -0 0 -1
vn -0 0 -1
vn -0 0 -1
vn -0 0 -1
vn -0 0 -1
vn -0 0 -1
vn -0 0 -1
vn -0 0 -1
vn -0 0 -1
vn -0 0 -1
vn -0 0 -1
vn -0 0 -1
vn -0 0 -1
vn -0 0 -1
vn -0 0 -1
vn -0 0 -1
vn -0 0 -1
vn -0 0 -1
vn -0 0 -1
vn -0 0 -1
vn -0 0 -1
vn -0 0 -1
vn -0 0 -1
vn -0 0 -1
g general_quad_05_0
f 3/3/3 2/2/2 1/1/1
f 4/4/4 3/3/3 1/1/1
f 7/7/7 6/6/6 5/5/5
f 8/8/8 7/7/7 5/5/5
f 11/11/11 10/10/10 9/9/9
f 12/12/12 11/11/11 9/9/9
f 15/15/15 14/14/14 13/13/13
f 16/16/16 15/15/15 13/13/13
f 19/19/19 18/18/18 17/17/17
f 20/20/20 19/19/19 17/17/17
f 23/23/23 22/22/22 21/21/21
f 24/24/24 23/23/23 21/21/21
f 27/27/27 26/26/26 25/25/25
f 28/28/28 27/27/27 25/25/25
f 31/31/31 30/30/30 29/29/29
f 32/32/32 31/31/31 29/29/29
f 35/35/35 34/34/34 33/33/33
f 36/36/36 35/35/35 33/33/33
f 39/39/39 38/38/38 37/37/37
f 40/40/40 39/39/39 37/37/37
f 43/43/43 42/42/42 41/41/41
f 44/44/44 43/43/43 41/41/41
f 47/47/47 46/46/46 45/45/45
f 48/48/48 47/47/47 45/45/45
