g Plane004
v 0.0423333272 -0.127000004 0
v 0.127000004 -0.0423333347 0
v 0.127000004 -0.127000004 0
v 0.0423333272 -0.0423333347 0
v -0.0423333347 -0.127000004 0
v 0.127000004 0.0423333272 0
v -0.0423333347 -0.0423333347 0
v -0.127000004 -0.127000004 0
v -0.127000004 -0.0423333347 0
v 0.0423333272 0.0423333272 0
v 0.127000004 0.127000004 0
v 0.0423333272 0.127000004 0
v -0.0423333347 0.0423333272 0
v -0.127000004 0.0423333272 0
v -0.0423333347 0.127000004 0
v -0.127000004 0.127000004 0
vt 0.666666687 0
vt 1 0.333333343
vt 1 0
vt 0.666666687 0.333333343
vt 0.333333343 0
vt 1 0.666666687
vt 0.333333343 0.333333343
vt 0 0
vt 0 0.333333343
vt 0.666666687 0.666666687
vt 1 1
vt 0.666666687 1
vt 0.333333343 0.666666687
vt 0 0.666666687
vt 0.333333343 1
vt 0 1
vn -0 0 1
vn -0 0 1
vn -0 0 1
vn -0 0 1
vn -0 0 1
vn -0 0 1
vn -0 0 1
vn -0 0 1
vn -0 0 1
vn -0 0 1
vn -0 0 1
vn -0 0 1
vn -0 0 1
vn -0 0 1
vn -0 0 1
vn -0 0 1
g Plane004_0
f 3/3/3 2/2/2 1/1/1
f 2/2/2 4/4/4 1/1/1
f 1/1/1 4/4/4 5/5/5
f 2/2/2 6/6/6 4/4/4
f 4/4/4 7/7/7 5/5/5
f 5/5/5 7/7/7 8/8/8
f 7/7/7 9/9/9 8/8/8
f 6/6/6 10/10/10 4/4/4
f 4/4/4 10/10/10 7/7/7
f 6/6/6 11/11/11 10/10/10
f 11/11/11 12/12/12 10/10/10
f 7/7/7 13/13/13 9/9/9
f 10/10/10 13/13/13 7/7/7
f 10/10/10 12/12/12 13/13/13
f 13/13/13 14/14/14 9/9/9
f 12/12/12 15/15/15 13/13/13
f 13/13/13 15/15/15 14/14/14
f 15/15/15 16/16/16 14/14/14
