g Plane001
v 0.5663082 0.210757136 -2.56395847E-08
v 0.450402826 0.323402852 -1.71700805E-08
v 0.57740283 0.323402852 -2.82727761E-08
v 0.44174847 0.23553361 -1.57265738E-08
v 0.533450663 0.102440357 -2.22443344E-08
v 0.323402822 0.323402822 -6.06738837E-09
v 0.416117966 0.151041135 -1.36886182E-08
v 0.480092943 0.00261502061 -1.83241617E-08
v 0.31718874 0.260310084 -5.8135643E-09
v 0.196402833 0.323402822 5.03530373E-09
v 0.374496281 0.0731724352 -1.12412017E-08
v 0.408285439 -0.084882617 -1.41363854E-08
v 0.298785269 0.199641928 -5.13290654E-09
v 0.192629009 0.285086542 4.09944745E-09
v 0.0694028363 0.323402822 1.61379994E-08
v 0.0680692792 0.309863001 1.40124605E-08
v 0.181452557 0.248242721 3.4228087E-09
v 0.0641198605 0.296843529 1.19785204E-08
v 0.318482906 0.0049199434 -8.58504023E-09
v 0.320787817 -0.156690076 -9.94861438E-09
v 0.26889962 0.143729851 -4.15824131E-09
v 0.163302988 0.214287251 2.92471802E-09
v 0.0577063486 0.284844667 1.00076756E-08
v 0.250230402 -0.0510934293 -5.92888139E-09
v 0.22096251 -0.210047811 -6.02844263E-09
v 0.228680342 0.0947225019 -3.03369485E-09
v 0.138877779 0.184525058 2.51765297E-09
v 0.0490752161 0.274327606 8.0689988E-09
v 0.172361702 -0.0927151218 -3.48146245E-09
v 0.112645701 -0.242905378 -2.63318922E-09
v 0.179673001 0.0545032062 -1.90914751E-09
v 0.109115563 0.160099849 2.11058659E-09
v 0.0385581516 0.265696466 6.13032025E-09
v 0.0878692344 -0.118345633 -1.44350776E-09
v -5.18468359E-11 -0.254000008 2.26629724E-18
v 0.123760901 0.0246175751 -9.34482935E-10
v 0.0751601085 0.141950279 1.61249636E-09
v 0.0265593156 0.259282976 4.15947587E-09
v -4.04431037E-11 -0.127000004 1.76782414E-18
v -0.112645701 -0.242905378 1.66326508E-09
v 0.0630927607 0.00621409481 -2.53825849E-10
v 0.0383162908 0.130773827 9.35856392E-10
v 0.0135398209 0.255333573 2.12553708E-09
v -0.0878692344 -0.118345633 6.86918189E-10
v -0.22096251 -0.210047811 2.18601914E-09
v -2.90393681E-11 0 1.26935115E-18
v -1.7635636E-11 0.127000004 7.70878151E-19
v -6.23190171E-12 0.254000008 2.72405077E-19
v -0.172361702 -0.0927151218 4.84183083E-10
v -0.320787817 -0.156690076 1.4415098E-09
v -0.0630927607 0.00621409481 -2.89427649E-10
v -0.0383162908 0.130773827 -1.26577382E-09
v -0.0135398209 0.255333573 -2.24212005E-09
v -0.250230402 -0.0510934293 -7.07082615E-10
v -0.408285439 -0.084882617 -6.4832556E-10
v -0.123760901 0.0246175751 -1.21765376E-09
v -0.0751601085 0.141950279 -2.91949087E-09
v -0.0265593156 0.259282976 -4.62132821E-09
v -0.318482906 0.0049199434 -2.94776781E-09
v -0.480092943 0.00261502084 -4.10983603E-09
v -0.179673001 0.0545032062 -2.85567436E-09
v -0.109115563 0.160099849 -5.00426589E-09
v -0.0385581516 0.265696466 -7.15285697E-09
v -0.374496281 0.0731724352 -6.25842755E-09
v -0.533450663 0.102440357 -8.91667007E-09
v -0.228680342 0.0947225019 -5.24720933E-09
v -0.138877779 0.184525058 -7.54665219E-09
v -0.0490752161 0.274327606 -9.84609461E-09
v -0.416117966 0.151041135 -1.06185096E-08
v -0.5663082 0.210757136 -1.49907766E-08
v -0.26889962 0.143729851 -8.40701997E-09
v -0.163302988 0.214287251 -1.05556115E-08
v -0.0577063486 0.284844667 -1.27042039E-08
v -0.44174847 0.23553361 -1.5967121E-08
v -0.57740283 0.323402852 -2.22053878E-08
v -0.450402826 0.323402852 -2.22053878E-08
v -0.298785269 0.199641928 -1.23203447E-08
v -0.181452557 0.248242721 -1.40221816E-08
v -0.0641198605 0.296843529 -1.57240194E-08
v -0.31718874 0.260310084 -1.69434671E-08
v -0.323402822 0.323402852 -2.22053878E-08
v -0.192629009 0.285086542 -1.79198114E-08
v -0.0680692792 0.309863001 -1.88961575E-08
v -0.196402833 0.323402822 -2.22053878E-08
v -0.0694028363 0.323402822 -2.2205386E-08
vt 0.9375 0
vt 1 0.25
vt 1 0
vt 0.9375 0.25
vt 0.875 0
vt 1 0.5
vt 0.875 0.25
vt 0.8125 0
vt 0.9375 0.5
vt 1 0.75
vt 0.8125 0.25
vt 0.75 0
vt 0.875 0.5
vt 0.9375 0.75
vt 1 1
vt 0.9375 1
vt 0.875 0.75
vt 0.875 1
vt 0.75 0.25
vt 0.6875 0
vt 0.8125 0.5
vt 0.8125 0.75
vt 0.8125 1
vt 0.6875 0.25
vt 0.625 0
vt 0.75 0.5
vt 0.75 0.75
vt 0.75 1
vt 0.625 0.25
vt 0.5625 0
vt 0.6875 0.5
vt 0.6875 0.75
vt 0.6875 1
vt 0.5625 0.25
vt 0.5 0
vt 0.625 0.5
vt 0.625 0.75
vt 0.625 1
vt 0.5 0.25
vt 0.4375 0
vt 0.5625 0.5
vt 0.5625 0.75
vt 0.5625 1
vt 0.4375 0.25
vt 0.375 0
vt 0.5 0.5
vt 0.5 0.75
vt 0.5 1
vt 0.375 0.25
vt 0.3125 0
vt 0.4375 0.5
vt 0.4375 0.75
vt 0.4375 1
vt 0.3125 0.25
vt 0.25 0
vt 0.375 0.5
vt 0.375 0.75
vt 0.375 1
vt 0.25 0.25
vt 0.1875 0
vt 0.3125 0.5
vt 0.3125 0.75
vt 0.3125 1
vt 0.1875 0.25
vt 0.125 0
vt 0.25 0.5
vt 0.25 0.75
vt 0.25 1
vt 0.125 0.25
vt 0.0625 0
vt 0.1875 0.5
vt 0.1875 0.75
vt 0.1875 1
vt 0.0625 0.25
vt 0 0
vt 0 0.25
vt 0.125 0.5
vt 0.125 0.75
vt 0.125 1
vt 0.0625 0.5
vt 0 0.5
vt 0.0625 0.75
vt 0.0625 1
vt 0 0.75
vt 0 1
vn -0 0 1
vn -0 0 1
vn -0 0 1
vn -0 0 1
vn -0 0 1
vn -0 0 1
vn -0 0 1
vn -0 0 1
vn -0 0 1
vn -0 0 1
vn -0 0 1
vn -0 0 1
vn -0 0 1
vn -0 0 1
vn -0 0 1
vn -0 0 1
vn -0 0 1
vn -0 0 1
vn -0 0 1
vn -0 0 1
vn -0 0 1
vn -0 0 1
vn -0 0 1
vn -0 0 1
vn -0 0 1
vn -0 0 1
vn -0 0 1
vn -0 0 1
vn -0 0 1
vn -0 0 1
vn -0 0 1
vn -0 0 1
vn -0 0 1
vn -0 0 1
vn -0 0 1
vn -0 0 1
vn -0 0 1
vn -0 0 1
vn -0 0 1
vn -0 0 1
vn -0 0 1
vn -0 0 1
vn -0 0 1
vn -0 0 1
vn -0 0 1
vn -0 0 1
vn -0 0 1
vn -0 0 1
vn -0 0 1
vn -0 0 1
vn -0 0 1
vn -0 0 1
vn -0 0 1
vn -0 0 1
vn -0 0 1
vn -0 0 1
vn -0 0 1
vn -0 0 1
vn -0 0 1
vn -0 0 1
vn -0 0 1
vn -0 0 1
vn -0 0 1
vn -0 0 1
vn -0 0 1
vn -0 0 1
vn -0 0 1
vn -0 0 1
vn -0 0 1
vn -0 0 1
vn -0 0 1
vn -0 0 1
vn -0 0 1
vn -0 0 1
vn -0 0 1
vn -0 0 1
vn -0 0 1
vn -0 0 1
vn -0 0 1
vn -0 0 1
vn -0 0 1
vn -0 0 1
vn -0 0 1
vn -0 0 1
vn -0 0 1
g Plane001_0
f 3/3/3 2/2/2 1/1/1
f 2/2/2 4/4/4 1/1/1
f 1/1/1 4/4/4 5/5/5
f 2/2/2 6/6/6 4/4/4
f 4/4/4 7/7/7 5/5/5
f 5/5/5 7/7/7 8/8/8
f 6/6/6 9/9/9 4/4/4
f 4/4/4 9/9/9 7/7/7
f 6/6/6 10/10/10 9/9/9
f 7/7/7 11/11/11 8/8/8
f 8/8/8 11/11/11 12/12/12
f 9/9/9 13/13/13 7/7/7
f 7/7/7 13/13/13 11/11/11
f 10/10/10 14/14/14 9/9/9
f 9/9/9 14/14/14 13/13/13
f 10/10/10 15/15/15 14/14/14
f 15/15/15 16/16/16 14/14/14
f 14/14/14 16/16/16 17/17/17
f 14/14/14 17/17/17 13/13/13
f 16/16/16 18/18/18 17/17/17
f 11/11/11 19/19/19 12/12/12
f 12/12/12 19/19/19 20/20/20
f 13/13/13 21/21/21 11/11/11
f 13/13/13 17/17/17 21/21/21
f 11/11/11 21/21/21 19/19/19
f 17/17/17 18/18/18 22/22/22
f 17/17/17 22/22/22 21/21/21
f 18/18/18 23/23/23 22/22/22
f 19/19/19 24/24/24 20/20/20
f 20/20/20 24/24/24 25/25/25
f 21/21/21 26/26/26 19/19/19
f 21/21/21 22/22/22 26/26/26
f 19/19/19 26/26/26 24/24/24
f 22/22/22 23/23/23 27/27/27
f 22/22/22 27/27/27 26/26/26
f 23/23/23 28/28/28 27/27/27
f 24/24/24 29/29/29 25/25/25
f 25/25/25 29/29/29 30/30/30
f 26/26/26 31/31/31 24/24/24
f 26/26/26 27/27/27 31/31/31
f 24/24/24 31/31/31 29/29/29
f 27/27/27 28/28/28 32/32/32
f 27/27/27 32/32/32 31/31/31
f 28/28/28 33/33/33 32/32/32
f 29/29/29 34/34/34 30/30/30
f 30/30/30 34/34/34 35/35/35
f 31/31/31 36/36/36 29/29/29
f 31/31/31 32/32/32 36/36/36
f 29/29/29 36/36/36 34/34/34
f 32/32/32 33/33/33 37/37/37
f 32/32/32 37/37/37 36/36/36
f 33/33/33 38/38/38 37/37/37
f 34/34/34 39/39/39 35/35/35
f 35/35/35 39/39/39 40/40/40
f 36/36/36 41/41/41 34/34/34
f 36/36/36 37/37/37 41/41/41
f 34/34/34 41/41/41 39/39/39
f 37/37/37 38/38/38 42/42/42
f 37/37/37 42/42/42 41/41/41
f 38/38/38 43/43/43 42/42/42
f 39/39/39 44/44/44 40/40/40
f 40/40/40 44/44/44 45/45/45
f 41/41/41 46/46/46 39/39/39
f 41/41/41 42/42/42 46/46/46
f 39/39/39 46/46/46 44/44/44
f 42/42/42 43/43/43 47/47/47
f 42/42/42 47/47/47 46/46/46
f 43/43/43 48/48/48 47/47/47
f 44/44/44 49/49/49 45/45/45
f 45/45/45 49/49/49 50/50/50
f 46/46/46 51/51/51 44/44/44
f 46/46/46 47/47/47 51/51/51
f 44/44/44 51/51/51 49/49/49
f 47/47/47 48/48/48 52/52/52
f 47/47/47 52/52/52 51/51/51
f 48/48/48 53/53/53 52/52/52
f 49/49/49 54/54/54 50/50/50
f 50/50/50 54/54/54 55/55/55
f 51/51/51 56/56/56 49/49/49
f 51/51/51 52/52/52 56/56/56
f 49/49/49 56/56/56 54/54/54
f 52/52/52 53/53/53 57/57/57
f 52/52/52 57/57/57 56/56/56
f 53/53/53 58/58/58 57/57/57
f 54/54/54 59/59/59 55/55/55
f 55/55/55 59/59/59 60/60/60
f 56/56/56 61/61/61 54/54/54
f 56/56/56 57/57/57 61/61/61
f 54/54/54 61/61/61 59/59/59
f 57/57/57 58/58/58 62/62/62
f 57/57/57 62/62/62 61/61/61
f 58/58/58 63/63/63 62/62/62
f 59/59/59 64/64/64 60/60/60
f 60/60/60 64/64/64 65/65/65
f 61/61/61 66/66/66 59/59/59
f 61/61/61 62/62/62 66/66/66
f 59/59/59 66/66/66 64/64/64
f 62/62/62 63/63/63 67/67/67
f 62/62/62 67/67/67 66/66/66
f 63/63/63 68/68/68 67/67/67
f 64/64/64 69/69/69 65/65/65
f 65/65/65 69/69/69 70/70/70
f 66/66/66 71/71/71 64/64/64
f 66/66/66 67/67/67 71/71/71
f 64/64/64 71/71/71 69/69/69
f 67/67/67 68/68/68 72/72/72
f 67/67/67 72/72/72 71/71/71
f 68/68/68 73/73/73 72/72/72
f 69/69/69 74/74/74 70/70/70
f 70/70/70 74/74/74 75/75/75
f 74/74/74 76/76/76 75/75/75
f 71/71/71 77/77/77 69/69/69
f 71/71/71 72/72/72 77/77/77
f 69/69/69 77/77/77 74/74/74
f 72/72/72 73/73/73 78/78/78
f 72/72/72 78/78/78 77/77/77
f 73/73/73 79/79/79 78/78/78
f 74/74/74 80/80/80 76/76/76
f 77/77/77 80/80/80 74/74/74
f 77/77/77 78/78/78 80/80/80
f 80/80/80 81/81/81 76/76/76
f 78/78/78 79/79/79 82/82/82
f 78/78/78 82/82/82 80/80/80
f 80/80/80 82/82/82 81/81/81
f 79/79/79 83/83/83 82/82/82
f 82/82/82 84/84/84 81/81/81
f 82/82/82 83/83/83 84/84/84
f 83/83/83 85/85/85 84/84/84
