g Plane001
v 0.377743483 0.0567713417 -1.21827497E-06
v 0.538739264 -0.0761957392 -1.20259472E-06
v 0.358189404 -0.00866139028 -1.21026756E-06
v 0.562556863 0.0201216396 -1.21282369E-06
v 0.385638267 0.12598674 -1.22593804E-06
v 0.72352314 -0.146010846 -1.19650781E-06
v 0.56928736 0.120289169 -1.22247411E-06
v 0.381154031 0.19688198 -1.2331335E-06
v 0.751153052 -0.0174125992 -1.20885682E-06
v 0.906024754 -0.213395208 -1.19172614E-06
v 0.558317244 0.221263528 -1.23138602E-06
v 0.363954633 0.267219543 -1.23974871E-06
v 0.756032407 0.11488349 -1.22037306E-06
v 0.93701005 -0.0524966978 -1.20605227E-06
v 1.0976851 -0.287486434 -1.18718719E-06
v 1.13208306 -0.0924067646 -1.20356242E-06
v 0.939584672 0.111788236 -1.21928463E-06
v 1.13208306 0.105682164 -1.21856556E-06
v 0.529576898 0.319905519 -1.23941925E-06
v 0.334111929 0.334698111 -1.24568624E-06
v 0.737716377 0.246857792 -1.23086124E-06
v 0.913514376 0.274468213 -1.2311948E-06
v 1.09768534 0.30076164 -1.23193354E-06
v 0.483555466 0.41307798 -1.24645805E-06
v 0.292117059 0.397027761 -1.25086763E-06
v 0.696469486 0.374448836 -1.24015548E-06
v 0.859436989 0.430572927 -1.24159317E-06
v 1.02993488 0.486904293 -1.24345297E-06
v 0.421296865 0.497745693 -1.25241525E-06
v 0.238878489 0.452006072 -1.25523616E-06
v 0.633266628 0.493678302 -1.24812459E-06
v 0.778848648 0.575305581 -1.25033569E-06
v 0.93089062 0.658454061 -1.25296674E-06
v 0.344379544 0.571072996 -1.25723614E-06
v 0.175705582 0.497595072 -1.25875999E-06
v 0.549771011 0.60077548 -1.25467625E-06
v 0.674062371 0.704190731 -1.25732777E-06
v 0.803561628 0.810198963 -1.26037844E-06
v 0.254877746 0.630518556 -1.26090004E-06
v 0.104277864 0.531994045 -1.26143391E-06
v 0.448292553 0.692295551 -1.25976101E-06
v 0.548142195 0.813211501 -1.26252769E-06
v 0.651816726 0.937528014 -1.26565556E-06
v 0.155306414 0.673922062 -1.26342263E-06
v 0.0266015679 0.553707063 -1.26328018E-06
v 0.331724107 0.765230536 -1.26337375E-06
v 0.404813588 0.898935318 -1.26594853E-06
v 0.480266809 1.03657258 -1.26883072E-06
v 0.0485510677 0.699580133 -1.26485543E-06
v -0.0550464801 0.561601758 -1.26434884E-06
v 0.203459337 0.817107677 -1.26555472E-06
v 0.248353422 0.958622277 -1.26765701E-06
v 0.294124156 1.10432303 -1.26999998E-06
v -0.0622156002 0.70631063 -1.2652855E-06
v -0.138185441 0.554958701 -1.26471696E-06
v 0.067294009 0.846071899 -1.26638884E-06
v 0.0834619254 0.990311623 -1.26777331E-06
v 0.0990446955 1.13872075 -1.26932071E-06
v -0.173628017 0.693499982 -1.26483337E-06
v -0.220205784 0.533507168 -1.2644864E-06
v -0.072686024 0.850951314 -1.26600355E-06
v -0.0848777667 0.992886364 -1.26646614E-06
v -0.099044174 1.13872087 -1.26700638E-06
v -0.282229811 0.661134601 -1.26364921E-06
v -0.298451394 0.497448117 -1.26378245E-06
v -0.212227568 0.831300974 -1.26456507E-06
v -0.251550764 0.966111958 -1.26394889E-06
v -0.29412365 1.10432303 -1.26331997E-06
v -0.384581476 0.609813571 -1.26190969E-06
v -0.370304972 0.447461724 -1.26274927E-06
v -0.347039074 0.787426114 -1.26227451E-06
v -0.411465585 0.91064781 -1.26047303E-06
v -0.480266184 1.03657281 -1.25856639E-06
v -0.477368623 0.54074198 -1.25981239E-06
v -0.433274746 0.384699285 -1.26154589E-06
v -0.47292316 0.7203812 -1.25936128E-06
v -0.559709847 0.828032076 -1.2563205E-06
v -0.65181613 0.937528491 -1.2530827E-06
v -0.557508886 0.455705374 -1.25756992E-06
v -0.485080063 0.310759366 -1.26034183E-06
v -0.585906744 0.631946325 -1.2560771E-06
v -0.691701114 0.720639408 -1.25179542E-06
v -0.803561091 0.81019944 -1.2472284E-06
v -0.622254133 0.357024372 -1.25540407E-06
v -0.523731351 0.227648839 -1.25931194E-06
v -0.682365835 0.52458173 -1.25268764E-06
v -0.803328156 0.591613173 -1.24721475E-06
v -0.930890143 0.658454716 -1.24137409E-06
v -0.669282615 0.247493133 -1.25353836E-06
v -0.54760313 0.1377289 -1.25863039E-06
v -0.759142876 0.401358724 -1.24946541E-06
v -0.891079605 0.444773048 -1.24289909E-06
v -1.02993464 0.486904621 -1.23589041E-06
v -0.696781278 0.130299792 -1.2521914E-06
v -0.555498004 0.0436482057 -1.25846543E-06
v -0.813647985 0.265873402 -1.24668077E-06
v -0.952153206 0.284502685 -1.23916254E-06
v -1.0976851 0.300762028 -1.23113682E-06
v -0.703511775 0.008934048 -1.25156987E-06
v -0.546695948 -0.05173444 -1.25897338E-06
v -0.688860595 -0.112916462 -1.2518617E-06
v -0.843946636 0.122140944 -1.2445937E-06
v -0.984546661 0.115618229 -1.23630309E-06
v -1.13208306 0.105682693 -1.22745053E-06
v -0.84882611 -0.0255229566 -1.24344581E-06
v -0.827841401 -0.1726318 -1.24345286E-06
v -0.987121403 -0.0567762814 -1.23459358E-06
v -1.13208306 -0.0924061835 -1.22513609E-06
v -0.959642947 -0.227442414 -1.23427333E-06
v -1.09768534 -0.287485659 -1.22445681E-06
vt 0.952380955 0
vt 1 0.25
vt 1 0
vt 0.952380955 0.25
vt 0.90476191 0
vt 1 0.5
vt 0.90476191 0.25
vt 0.857142866 0
vt 0.952380955 0.5
vt 1 0.75
vt 0.857142866 0.25
vt 0.809523821 0
vt 0.90476191 0.5
vt 0.952380955 0.75
vt 1 1
vt 0.952380955 1
vt 0.90476191 0.75
vt 0.90476191 1
vt 0.809523821 0.25
vt 0.761904776 0
vt 0.857142866 0.5
vt 0.857142866 0.75
vt 0.857142866 1
vt 0.761904776 0.25
vt 0.714285731 0
vt 0.809523821 0.5
vt 0.809523821 0.75
vt 0.809523821 1
vt 0.714285731 0.25
vt 0.666666687 0
vt 0.761904776 0.5
vt 0.761904776 0.75
vt 0.761904776 1
vt 0.666666687 0.25
vt 0.619047642 0
vt 0.714285731 0.5
vt 0.714285731 0.75
vt 0.714285731 1
vt 0.619047642 0.25
vt 0.571428597 0
vt 0.666666687 0.5
vt 0.666666687 0.75
vt 0.666666687 1
vt 0.571428597 0.25
vt 0.523809552 0
vt 0.619047642 0.5
vt 0.619047642 0.75
vt 0.619047642 1
vt 0.523809552 0.25
vt 0.476190478 0
vt 0.571428597 0.5
vt 0.571428597 0.75
vt 0.571428597 1
vt 0.476190478 0.25
vt 0.428571433 0
vt 0.523809552 0.5
vt 0.523809552 0.75
vt 0.523809552 1
vt 0.428571433 0.25
vt 0.380952388 0
vt 0.476190478 0.5
vt 0.476190478 0.75
vt 0.476190478 1
vt 0.380952388 0.25
vt 0.333333343 0
vt 0.428571433 0.5
vt 0.428571433 0.75
vt 0.428571433 1
vt 0.333333343 0.25
vt 0.285714298 0
vt 0.380952388 0.5
vt 0.380952388 0.75
vt 0.380952388 1
vt 0.285714298 0.25
vt 0.238095239 0
vt 0.333333343 0.5
vt 0.333333343 0.75
vt 0.333333343 1
vt 0.238095239 0.25
vt 0.190476194 0
vt 0.285714298 0.5
vt 0.285714298 0.75
vt 0.285714298 1
vt 0.190476194 0.25
vt 0.142857149 0
vt 0.238095239 0.5
vt 0.238095239 0.75
vt 0.238095239 1
vt 0.142857149 0.25
vt 0.095238097 0
vt 0.190476194 0.5
vt 0.190476194 0.75
vt 0.190476194 1
vt 0.095238097 0.25
vt 0.0476190485 0
vt 0.142857149 0.5
vt 0.142857149 0.75
vt 0.142857149 1
vt 0.0476190485 0.25
vt 0 0
vt 0 0.25
vt 0.095238097 0.5
vt 0.095238097 0.75
vt 0.095238097 1
vt 0.0476190485 0.5
vt 0 0.5
vt 0.0476190485 0.75
vt 0.0476190485 1
vt 0 0.75
vt 0 1
vn -0 0 1
vn -0 0 1
vn -0 0 1
vn -0 0 1
vn -0 0 1
vn -0 0 1
vn -0 0 1
vn -0 0 1
vn -0 0 1
vn -0 0 1
vn -0 0 1
vn -0 0 1
vn -0 0 1
vn -0 0 1
vn -0 0 1
vn -0 0 1
vn -0 0 1
vn -0 0 1
vn -0 0 1
vn -0 0 1
vn -0 0 1
vn -0 0 1
vn -0 0 1
vn -0 0 1
vn -0 0 1
vn -0 0 1
vn -0 0 1
vn -0 0 1
vn -0 0 1
vn -0 0 1
vn -0 0 1
vn -0 0 1
vn -0 0 1
vn -0 0 1
vn -0 0 1
vn -0 0 1
vn -0 0 1
vn -0 0 1
vn -0 0 1
vn -0 0 1
vn -0 0 1
vn -0 0 1
vn -0 0 1
vn -0 0 1
vn -0 0 1
vn -0 0 1
vn -0 0 1
vn -0 0 1
vn -0 0 1
vn -0 0 1
vn -0 0 1
vn -0 0 1
vn -0 0 1
vn -0 0 1
vn -0 0 1
vn -0 0 1
vn -0 0 1
vn -0 0 1
vn -0 0 1
vn -0 0 1
vn -0 0 1
vn -0 0 1
vn -0 0 1
vn -0 0 1
vn -0 0 1
vn -0 0 1
vn -0 0 1
vn -0 0 1
vn -0 0 1
vn -0 0 1
vn -0 0 1
vn -0 0 1
vn -0 0 1
vn -0 0 1
vn -0 0 1
vn -0 0 1
vn -0 0 1
vn -0 0 1
vn -0 0 1
vn -0 0 1
vn -0 0 1
vn -0 0 1
vn -0 0 1
vn -0 0 1
vn -0 0 1
vn -0 0 1
vn -0 0 1
vn -0 0 1
vn -0 0 1
vn -0 0 1
vn -0 0 1
vn -0 0 1
vn -0 0 1
vn -0 0 1
vn -0 0 1
vn -0 0 1
vn -0 0 1
vn -0 0 1
vn -0 0 1
vn -0 0 1
vn -0 0 1
vn -0 0 1
vn -0 0 1
vn -0 0 1
vn -0 0 1
vn -0 0 1
vn -0 0 1
vn -0 0 1
vn -0 0 1
vn -0 0 1
g Plane001_0
f 3/3/3 2/2/2 1/1/1
f 2/2/2 4/4/4 1/1/1
f 1/1/1 4/4/4 5/5/5
f 2/2/2 6/6/6 4/4/4
f 4/4/4 7/7/7 5/5/5
f 5/5/5 7/7/7 8/8/8
f 6/6/6 9/9/9 4/4/4
f 4/4/4 9/9/9 7/7/7
f 6/6/6 10/10/10 9/9/9
f 7/7/7 11/11/11 8/8/8
f 8/8/8 11/11/11 12/12/12
f 9/9/9 13/13/13 7/7/7
f 7/7/7 13/13/13 11/11/11
f 10/10/10 14/14/14 9/9/9
f 9/9/9 14/14/14 13/13/13
f 10/10/10 15/15/15 14/14/14
f 15/15/15 16/16/16 14/14/14
f 14/14/14 16/16/16 17/17/17
f 14/14/14 17/17/17 13/13/13
f 16/16/16 18/18/18 17/17/17
f 11/11/11 19/19/19 12/12/12
f 12/12/12 19/19/19 20/20/20
f 13/13/13 21/21/21 11/11/11
f 13/13/13 17/17/17 21/21/21
f 11/11/11 21/21/21 19/19/19
f 17/17/17 18/18/18 22/22/22
f 17/17/17 22/22/22 21/21/21
f 18/18/18 23/23/23 22/22/22
f 19/19/19 24/24/24 20/20/20
f 20/20/20 24/24/24 25/25/25
f 21/21/21 26/26/26 19/19/19
f 21/21/21 22/22/22 26/26/26
f 19/19/19 26/26/26 24/24/24
f 22/22/22 23/23/23 27/27/27
f 22/22/22 27/27/27 26/26/26
f 23/23/23 28/28/28 27/27/27
f 24/24/24 29/29/29 25/25/25
f 25/25/25 29/29/29 30/30/30
f 26/26/26 31/31/31 24/24/24
f 26/26/26 27/27/27 31/31/31
f 24/24/24 31/31/31 29/29/29
f 27/27/27 28/28/28 32/32/32
f 27/27/27 32/32/32 31/31/31
f 28/28/28 33/33/33 32/32/32
f 29/29/29 34/34/34 30/30/30
f 30/30/30 34/34/34 35/35/35
f 31/31/31 36/36/36 29/29/29
f 31/31/31 32/32/32 36/36/36
f 29/29/29 36/36/36 34/34/34
f 32/32/32 33/33/33 37/37/37
f 32/32/32 37/37/37 36/36/36
f 33/33/33 38/38/38 37/37/37
f 34/34/34 39/39/39 35/35/35
f 35/35/35 39/39/39 40/40/40
f 36/36/36 41/41/41 34/34/34
f 36/36/36 37/37/37 41/41/41
f 34/34/34 41/41/41 39/39/39
f 37/37/37 38/38/38 42/42/42
f 37/37/37 42/42/42 41/41/41
f 38/38/38 43/43/43 42/42/42
f 39/39/39 44/44/44 40/40/40
f 40/40/40 44/44/44 45/45/45
f 41/41/41 46/46/46 39/39/39
f 41/41/41 42/42/42 46/46/46
f 39/39/39 46/46/46 44/44/44
f 42/42/42 43/43/43 47/47/47
f 42/42/42 47/47/47 46/46/46
f 43/43/43 48/48/48 47/47/47
f 44/44/44 49/49/49 45/45/45
f 45/45/45 49/49/49 50/50/50
f 46/46/46 51/51/51 44/44/44
f 46/46/46 47/47/47 51/51/51
f 44/44/44 51/51/51 49/49/49
f 47/47/47 48/48/48 52/52/52
f 47/47/47 52/52/52 51/51/51
f 48/48/48 53/53/53 52/52/52
f 49/49/49 54/54/54 50/50/50
f 50/50/50 54/54/54 55/55/55
f 51/51/51 56/56/56 49/49/49
f 51/51/51 52/52/52 56/56/56
f 49/49/49 56/56/56 54/54/54
f 52/52/52 53/53/53 57/57/57
f 52/52/52 57/57/57 56/56/56
f 53/53/53 58/58/58 57/57/57
f 54/54/54 59/59/59 55/55/55
f 55/55/55 59/59/59 60/60/60
f 56/56/56 61/61/61 54/54/54
f 56/56/56 57/57/57 61/61/61
f 54/54/54 61/61/61 59/59/59
f 57/57/57 58/58/58 62/62/62
f 57/57/57 62/62/62 61/61/61
f 58/58/58 63/63/63 62/62/62
f 59/59/59 64/64/64 60/60/60
f 60/60/60 64/64/64 65/65/65
f 61/61/61 66/66/66 59/59/59
f 61/61/61 62/62/62 66/66/66
f 59/59/59 66/66/66 64/64/64
f 62/62/62 63/63/63 67/67/67
f 62/62/62 67/67/67 66/66/66
f 63/63/63 68/68/68 67/67/67
f 64/64/64 69/69/69 65/65/65
f 65/65/65 69/69/69 70/70/70
f 66/66/66 71/71/71 64/64/64
f 66/66/66 67/67/67 71/71/71
f 64/64/64 71/71/71 69/69/69
f 67/67/67 68/68/68 72/72/72
f 67/67/67 72/72/72 71/71/71
f 68/68/68 73/73/73 72/72/72
f 69/69/69 74/74/74 70/70/70
f 70/70/70 74/74/74 75/75/75
f 71/71/71 76/76/76 69/69/69
f 71/71/71 72/72/72 76/76/76
f 69/69/69 76/76/76 74/74/74
f 72/72/72 73/73/73 77/77/77
f 72/72/72 77/77/77 76/76/76
f 73/73/73 78/78/78 77/77/77
f 74/74/74 79/79/79 75/75/75
f 75/75/75 79/79/79 80/80/80
f 76/76/76 81/81/81 74/74/74
f 76/76/76 77/77/77 81/81/81
f 74/74/74 81/81/81 79/79/79
f 77/77/77 78/78/78 82/82/82
f 77/77/77 82/82/82 81/81/81
f 78/78/78 83/83/83 82/82/82
f 79/79/79 84/84/84 80/80/80
f 80/80/80 84/84/84 85/85/85
f 81/81/81 86/86/86 79/79/79
f 81/81/81 82/82/82 86/86/86
f 79/79/79 86/86/86 84/84/84
f 82/82/82 83/83/83 87/87/87
f 82/82/82 87/87/87 86/86/86
f 83/83/83 88/88/88 87/87/87
f 84/84/84 89/89/89 85/85/85
f 85/85/85 89/89/89 90/90/90
f 86/86/86 91/91/91 84/84/84
f 86/86/86 87/87/87 91/91/91
f 84/84/84 91/91/91 89/89/89
f 87/87/87 88/88/88 92/92/92
f 87/87/87 92/92/92 91/91/91
f 88/88/88 93/93/93 92/92/92
f 89/89/89 94/94/94 90/90/90
f 90/90/90 94/94/94 95/95/95
f 91/91/91 96/96/96 89/89/89
f 91/91/91 92/92/92 96/96/96
f 89/89/89 96/96/96 94/94/94
f 92/92/92 93/93/93 97/97/97
f 92/92/92 97/97/97 96/96/96
f 93/93/93 98/98/98 97/97/97
f 94/94/94 99/99/99 95/95/95
f 95/95/95 99/99/99 100/100/100
f 99/99/99 101/101/101 100/100/100
f 96/96/96 102/102/102 94/94/94
f 96/96/96 97/97/97 102/102/102
f 94/94/94 102/102/102 99/99/99
f 97/97/97 98/98/98 103/103/103
f 97/97/97 103/103/103 102/102/102
f 98/98/98 104/104/104 103/103/103
f 99/99/99 105/105/105 101/101/101
f 102/102/102 105/105/105 99/99/99
f 102/102/102 103/103/103 105/105/105
f 105/105/105 106/106/106 101/101/101
f 103/103/103 104/104/104 107/107/107
f 103/103/103 107/107/107 105/105/105
f 105/105/105 107/107/107 106/106/106
f 104/104/104 108/108/108 107/107/107
f 107/107/107 109/109/109 106/106/106
f 107/107/107 108/108/108 109/109/109
f 108/108/108 110/110/110 109/109/109
