g Plane001
v -0.0471048206 -0.00221138075 0.00452585006
v 0.0796125829 0.00499506667 8.01247079E-05
v 0.0784682482 -0.0275344923 0.0793119669
v -0.0468060151 -0.0380869545 0.0613118336
v 0.0671606287 -0.0569877811 0.153679237
v -0.0545639955 -0.0754044652 0.12248718
v 0.046120245 -0.0842887163 0.229803219
v -0.0687440187 -0.108793698 0.181484431
v 0.0184188616 -0.104679242 0.30079022
v -0.090342544 -0.13949877 0.245224372
v -0.0150448363 -0.118685775 0.370352715
v -0.117027767 -0.164398968 0.310030401
v -0.0517815463 -0.12464074 0.436489344
v -0.148587629 -0.182308421 0.377905905
v -0.0902309045 -0.123644292 0.500705361
v -0.182408541 -0.192865789 0.447407484
v -0.127182126 -0.115102395 0.560078084
v -0.218579799 -0.194363445 0.521436751
v -0.164060727 -0.099747017 0.620334148
v -0.252214581 -0.187383786 0.594301641
v -0.198544011 -0.078602992 0.67963773
v -0.282973737 -0.172741652 0.66786772
v -0.229673237 -0.0523193702 0.73841399
v -0.309426397 -0.151099429 0.741720855
v -0.254463702 -0.0229821578 0.792963088
v -0.330861717 -0.120890222 0.819540381
v -0.275984526 0.0116159609 0.852478683
v -0.34385097 -0.0881200284 0.892176032
v -0.291967094 0.0487795696 0.913006485
v -0.349624723 -0.0524409041 0.963593125
v -0.301931947 0.0875403136 0.974874854
v -0.34800142 -0.0152851464 1.03347135
v -0.30553332 0.126849189 1.03832829
v -0.339109242 0.0219609719 1.10157478
v -0.30258584 0.165586889 1.10351348
v -0.323347479 0.0580235124 1.16776359
v -0.29309386 0.202586278 1.17047107
v -0.301332533 0.0917953476 1.23200548
v -0.276060939 0.237602696 1.2416209
v -0.274457961 0.120980695 1.29187751
v -0.253661424 0.267528296 1.31262064
v -0.242698267 0.147201866 1.35174048
v -0.226221532 0.292152524 1.38469887
v -0.207320407 0.169219106 1.41037214
v -0.194695473 0.31063965 1.45747519
v -0.169107795 0.186703593 1.46815825
v -0.160190269 0.322381377 1.53052497
v -0.128811672 0.199420288 1.52552974
v -0.123905264 0.327029318 1.6034019
v -0.0871536806 0.207198083 1.58293748
v -0.0870625526 0.324508399 1.6756655
v -0.0448401719 0.209911093 1.64082694
v -0.050836321 0.315006793 1.74690676
v -0.00258174655 0.207471803 1.69961274
v -0.0162890907 0.298945665 1.81676936
v 0.0388898253 0.199838266 1.75965536
v 0.0156769734 0.27693072 1.8849715
v 0.0788094327 0.1870327 1.82124054
v 0.0437615253 0.249610543 1.95065498
v 0.116421185 0.16856572 1.88522327
v 0.0686451569 0.217153937 2.01613569
v 0.149864614 0.145985037 1.94929707
v 0.0890557542 0.18103011 2.07967186
v 0.179314971 0.119169563 2.01520848
v 0.104801379 0.142117828 2.14132929
v 0.204061598 0.0886214003 2.08289528
v 0.115849614 0.101224035 2.20127487
v 0.223467216 0.0549785309 2.15219545
v 0.122281 0.0590516441 2.25977039
v 0.237007722 0.0190071072 2.22284865
v 0.124236383 0.0161903445 2.31715703
v 0.244311854 -0.0184269343 2.29451799
v 0.121868871 -0.0268727001 2.37383628
v 0.245189443 -0.0563953891 2.36680484
v 0.115306765 -0.0697264522 2.43024707
v 0.239646465 -0.0939582214 2.43927288
v 0.102571718 -0.114149138 2.491189
v 0.22788538 -0.127265275 2.5071094
v 0.0865205154 -0.154239222 2.5479753
v 0.209481642 -0.161017403 2.57901764
v 0.0667653754 -0.192465842 2.60556722
v 0.185721323 -0.191720158 2.65004134
v 0.0434262715 -0.228471786 2.66434431
v 0.157267779 -0.218804151 2.71980286
v 0.016612649 -0.261854619 2.72461796
v 0.124841653 -0.241881594 2.78799438
v -0.0143002653 -0.292198747 2.78764987
v 0.0895336568 -0.260087878 2.85334945
v -0.0476271547 -0.317000687 2.85041451
v 0.0500794761 -0.273480475 2.91888642
v -0.0832561105 -0.337625921 2.91505003
v 0.00900192093 -0.282216132 2.98248315
v -0.120812997 -0.353678703 2.98153472
v -0.0330869406 -0.286517233 3.04416442
v -0.159837067 -0.364788979 3.04973865
v -0.0757247433 -0.28666842 3.10406446
v -0.197564095 -0.36975345 3.11608148
v -0.120669834 -0.28172195 3.16574788
v -0.236850604 -0.368609816 3.18630385
v -0.163305253 -0.271977007 3.22348142
v -0.275384784 -0.362073839 3.25754714
v -0.205000907 -0.25880304 3.28013659
v -0.3125467 -0.350229383 3.32940912
v -0.245688006 -0.242461458 3.3361156
v -0.344749361 -0.33405 3.39686751
v -0.287394494 -0.220739678 3.39643264
v -0.376226962 -0.310894579 3.46881223
v -0.323992789 -0.196332827 3.45219302
v -0.404357761 -0.283567697 3.54029155
v -0.358691961 -0.16944249 3.50836873
v -0.428851098 -0.252583176 3.61088157
v -0.391456395 -0.140063927 3.56538343
v -0.447194487 -0.219272345 3.67723989
v -0.421797395 -0.105624586 3.62656236
v -0.462022752 -0.181293681 3.7458744
v -0.447153121 -0.0706073865 3.68540597
v -0.472606987 -0.141637772 3.81282735
v -0.469623268 -0.0337532498 3.74588633
v -0.478794426 -0.101035587 3.87734556
v -0.488739967 0.00538440375 3.80875349
v -0.478925258 -0.0583277419 3.94155741
v -0.501666129 0.0453719608 3.87185621
vt 0 0
vt 0 1
vt 0.0166666675 1
vt 0.0166666675 0
vt 0.0333333351 1
vt 0.0333333351 0
vt 0.0500000045 1
vt 0.0500000045 0
vt 0.0666666701 1
vt 0.0666666701 0
vt 0.0833333358 1
vt 0.0833333358 0
vt 0.100000001 1
vt 0.100000001 0
vt 0.116666667 1
vt 0.116666667 0
vt 0.13333334 1
vt 0.13333334 0
vt 0.150000006 1
vt 0.150000006 0
vt 0.166666672 1
vt 0.166666672 0
vt 0.183333337 1
vt 0.183333337 0
vt 0.200000003 1
vt 0.200000003 0
vt 0.216666669 1
vt 0.216666669 0
vt 0.233333334 1
vt 0.233333334 0
vt 0.25 1
vt 0.25 0
vt 0.266666681 1
vt 0.266666681 0
vt 0.283333361 1
vt 0.283333361 0
vt 0.300000042 1
vt 0.300000042 0
vt 0.316666722 1
vt 0.316666722 0
vt 0.333333403 1
vt 0.333333403 0
vt 0.350000083 1
vt 0.350000083 0
vt 0.366666764 1
vt 0.366666764 0
vt 0.383333445 1
vt 0.383333445 0
vt 0.400000125 1
vt 0.400000125 0
vt 0.416666806 1
vt 0.416666806 0
vt 0.433333486 1
vt 0.433333486 0
vt 0.450000167 1
vt 0.450000167 0
vt 0.466666847 1
vt 0.466666847 0
vt 0.483333528 1
vt 0.483333528 0
vt 0.500000179 1
vt 0.500000179 0
vt 0.51666683 1
vt 0.51666683 0
vt 0.53333348 1
vt 0.53333348 0
vt 0.550000131 1
vt 0.550000131 0
vt 0.566666782 1
vt 0.566666782 0
vt 0.583333433 1
vt 0.583333433 0
vt 0.600000083 1
vt 0.600000083 0
vt 0.616666734 1
vt 0.616666734 0
vt 0.633333385 1
vt 0.633333385 0
vt 0.650000036 1
vt 0.650000036 0
vt 0.666666687 1
vt 0.666666687 0
vt 0.683333337 1
vt 0.683333337 0
vt 0.699999988 1
vt 0.699999988 0
vt 0.716666639 1
vt 0.716666639 0
vt 0.73333329 1
vt 0.73333329 0
vt 0.74999994 1
vt 0.74999994 0
vt 0.766666591 1
vt 0.766666591 0
vt 0.783333242 1
vt 0.783333242 0
vt 0.799999893 1
vt 0.799999893 0
vt 0.816666543 1
vt 0.816666543 0
vt 0.833333194 1
vt 0.833333194 0
vt 0.849999845 1
vt 0.849999845 0
vt 0.866666496 1
vt 0.866666496 0
vt 0.883333147 1
vt 0.883333147 0
vt 0.899999797 1
vt 0.899999797 0
vt 0.916666448 1
vt 0.916666448 0
vt 0.933333099 1
vt 0.933333099 0
vt 0.94999975 1
vt 0.94999975 0
vt 0.9666664 1
vt 0.9666664 0
vt 0.983333051 1
vt 0.983333051 0
vt 0.999999702 1
vt 0.999999702 0
vn -0.086790964 0.890229046 0.447168291
vn -0.086790964 0.890229046 0.447168291
vn -0.137781709 0.892088592 0.430341959
vn -0.136189908 0.892069459 0.430888027
vn -0.231202647 0.898134649 0.374031454
vn -0.231950551 0.898221076 0.373360068
vn -0.31099546 0.90924412 0.276689321
vn -0.310330808 0.909138262 0.277781278
vn -0.371575087 0.915543795 0.153985277
vn -0.371649504 0.915545344 0.153796896
vn -0.415777355 0.909370184 0.013229331
vn -0.415651172 0.909420073 0.0137565685
vn -0.450659245 0.883793294 -0.12576054
vn -0.450574189 0.883881927 -0.125441656
vn -0.483062267 0.837928116 -0.254022539
vn -0.482741952 0.838518679 -0.252678782
vn -0.518141806 0.774856925 -0.36211282
vn -0.51848346 0.774267077 -0.36288482
vn -0.565240562 0.69862771 -0.438659668
vn -0.565197349 0.698693037 -0.438611448
vn -0.622695506 0.6177634 -0.480227679
vn -0.622047663 0.618614793 -0.479971319
vn -0.689002097 0.538550735 -0.485014796
vn -0.687323689 0.540383041 -0.485358
vn -0.757826626 0.468725622 -0.45386675
vn -0.758709669 0.467893124 -0.45325017
vn -0.825853288 0.407170951 -0.39010036
vn -0.826193213 0.406874597 -0.389689445
vn -0.885608613 0.354873061 -0.299603879
vn -0.885622859 0.354860485 -0.299576849
vn -0.931852996 0.309735626 -0.188981071
vn -0.931783795 0.309812367 -0.189196154
vn -0.9612149 0.267799824 -0.0659480169
vn -0.961197197 0.267836094 -0.0660591125
vn -0.972590089 0.224312469 0.0612561032
vn -0.972596943 0.224186316 0.0616088994
vn -0.966662943 0.175927535 0.186043441
vn -0.966531813 0.175456926 0.187165901
vn -0.946789265 0.116021603 0.300215065
vn -0.947077394 0.116811052 0.298997492
vn -0.918758631 0.0430836119 0.392461926
vn -0.919195354 0.0441900678 0.391314656
vn -0.886543632 -0.0409691334 0.460827351
vn -0.887057006 -0.0395794809 0.459960073
vn -0.854413331 -0.134097055 0.501991928
vn -0.854927599 -0.132493198 0.501541913
vn -0.82557863 -0.23258616 0.514124095
vn -0.826037407 -0.230860308 0.514165223
vn -0.801719129 -0.33184284 0.497118384
vn -0.802094102 -0.330108732 0.497667968
vn -0.782833636 -0.42708084 0.452519059
vn -0.783126831 -0.425469697 0.453528166
vn -0.767364383 -0.513988137 0.38336429
vn -0.767603815 -0.512634218 0.384695262
vn -0.752566576 -0.589275479 0.293935508
vn -0.752786696 -0.588288724 0.29534474
vn -0.736413717 -0.650135577 0.187132582
vn -0.736584485 -0.649612546 0.188273132
vn -0.714008987 -0.696579099 0.0704887882
vn -0.713908017 -0.696726263 0.0700558424
vn -0.680419803 -0.731198728 -0.0487584323
vn -0.680501223 -0.731139302 -0.0485118106
vn -0.634517133 -0.755222559 -0.164398491
vn -0.634806275 -0.755114436 -0.163777828
vn -0.575188398 -0.771801591 -0.271073282
vn -0.575583518 -0.771718919 -0.27046892
vn -0.502794683 -0.784122407 -0.363798916
vn -0.503045142 -0.784087002 -0.363528758
vn -0.418937325 -0.795073628 -0.438576519
vn -0.418692499 -0.795104027 -0.438755274
vn -0.326134622 -0.80689472 -0.492500991
vn -0.325049341 -0.807038605 -0.492982358
vn -0.227438897 -0.820946813 -0.523753703
vn -0.225299224 -0.821274698 -0.524164259
vn -0.126325235 -0.838465214 -0.530111313
vn -0.123655416 -0.838985324 -0.529917836
vn -0.0243552886 -0.860080719 -0.509576142
vn -0.0264429469 -0.859603226 -0.510277629
vn 0.0697395951 -0.88193357 -0.466186225
vn 0.0687843114 -0.881709576 -0.466751486
vn 0.156614095 -0.901585579 -0.403256118
vn 0.156613261 -0.90158534 -0.403256804
vn 0.235238045 -0.916461349 -0.323669046
vn 0.235796809 -0.916549385 -0.323012501
vn 0.303921282 -0.924754679 -0.229042947
vn 0.304541707 -0.924799681 -0.228034824
vn 0.360278338 -0.925500631 -0.116825067
vn 0.359995872 -0.92552197 -0.11752481
vn 0.408434242 -0.912784696 -0.00236203941
vn 0.408448279 -0.912778497 -0.00233022496
vn 0.454292148 -0.884633422 0.105083294
vn 0.454370201 -0.884570718 0.105272859
vn 0.496549129 -0.84271419 0.208018392
vn 0.496397853 -0.842894375 0.207649112
vn 0.534314394 -0.7874313 0.307343513
vn 0.533868968 -0.788228571 0.30607143
vn 0.569519043 -0.720995188 0.394732833
vn 0.570138097 -0.719783783 0.396047682
vn 0.610419989 -0.643318474 0.462091744
vn 0.610818088 -0.642587245 0.462582886
vn 0.655905962 -0.557999015 0.508354604
vn 0.655599773 -0.558583498 0.508107841
vn 0.70262295 -0.467825174 0.536153555
vn 0.701615751 -0.469787449 0.535756469
vn 0.750292659 -0.379133999 0.541588783
vn 0.751480579 -0.377022237 0.54141593
vn 0.800797045 -0.289499551 0.52432245
vn 0.801271558 -0.288657993 0.524061561
vn 0.848848104 -0.202176705 0.488448054
vn 0.848430097 -0.202957511 0.488850296
vn 0.894278049 -0.122375876 0.430454254
vn 0.893435001 -0.123772785 0.431803435
vn 0.934023201 -0.0521974266 0.353377968
vn 0.934504867 -0.0512779877 0.352237612
vn 0.963705361 0.016440101 0.266461611
vn 0.963723063 0.0164922997 0.266394138
vn 0.981359482 0.0812214389 0.1741741
vn 0.981285334 0.0808438286 0.17476663
vn 0.989026368 0.133242235 0.0638221651
vn 0.989033818 0.133380756 0.0634174347
vn 0.988010108 0.154385746 0.00104826363
vn 0.988010108 0.154385731 0.00104826351
g Plane001_0
f 3/3/3 2/2/2 1/1/1
f 4/4/4 3/3/3 1/1/1
f 5/5/5 3/3/3 4/4/4
f 6/6/6 5/5/5 4/4/4
f 7/7/7 5/5/5 6/6/6
f 8/8/8 7/7/7 6/6/6
f 9/9/9 7/7/7 8/8/8
f 10/10/10 9/9/9 8/8/8
f 11/11/11 9/9/9 10/10/10
f 12/12/12 11/11/11 10/10/10
f 13/13/13 11/11/11 12/12/12
f 14/14/14 13/13/13 12/12/12
f 15/15/15 13/13/13 14/14/14
f 16/16/16 15/15/15 14/14/14
f 17/17/17 15/15/15 16/16/16
f 18/18/18 17/17/17 16/16/16
f 19/19/19 17/17/17 18/18/18
f 20/20/20 19/19/19 18/18/18
f 21/21/21 19/19/19 20/20/20
f 22/22/22 21/21/21 20/20/20
f 23/23/23 21/21/21 22/22/22
f 24/24/24 23/23/23 22/22/22
f 25/25/25 23/23/23 24/24/24
f 26/26/26 25/25/25 24/24/24
f 27/27/27 25/25/25 26/26/26
f 28/28/28 27/27/27 26/26/26
f 29/29/29 27/27/27 28/28/28
f 30/30/30 29/29/29 28/28/28
f 31/31/31 29/29/29 30/30/30
f 32/32/32 31/31/31 30/30/30
f 33/33/33 31/31/31 32/32/32
f 34/34/34 33/33/33 32/32/32
f 35/35/35 33/33/33 34/34/34
f 36/36/36 35/35/35 34/34/34
f 37/37/37 35/35/35 36/36/36
f 38/38/38 37/37/37 36/36/36
f 39/39/39 37/37/37 38/38/38
f 40/40/40 39/39/39 38/38/38
f 41/41/41 39/39/39 40/40/40
f 42/42/42 41/41/41 40/40/40
f 43/43/43 41/41/41 42/42/42
f 44/44/44 43/43/43 42/42/42
f 45/45/45 43/43/43 44/44/44
f 46/46/46 45/45/45 44/44/44
f 47/47/47 45/45/45 46/46/46
f 48/48/48 47/47/47 46/46/46
f 49/49/49 47/47/47 48/48/48
f 50/50/50 49/49/49 48/48/48
f 51/51/51 49/49/49 50/50/50
f 52/52/52 51/51/51 50/50/50
f 53/53/53 51/51/51 52/52/52
f 54/54/54 53/53/53 52/52/52
f 55/55/55 53/53/53 54/54/54
f 56/56/56 55/55/55 54/54/54
f 57/57/57 55/55/55 56/56/56
f 58/58/58 57/57/57 56/56/56
f 59/59/59 57/57/57 58/58/58
f 60/60/60 59/59/59 58/58/58
f 61/61/61 59/59/59 60/60/60
f 62/62/62 61/61/61 60/60/60
f 63/63/63 61/61/61 62/62/62
f 64/64/64 63/63/63 62/62/62
f 65/65/65 63/63/63 64/64/64
f 66/66/66 65/65/65 64/64/64
f 67/67/67 65/65/65 66/66/66
f 68/68/68 67/67/67 66/66/66
f 69/69/69 67/67/67 68/68/68
f 70/70/70 69/69/69 68/68/68
f 71/71/71 69/69/69 70/70/70
f 72/72/72 71/71/71 70/70/70
f 73/73/73 71/71/71 72/72/72
f 74/74/74 73/73/73 72/72/72
f 75/75/75 73/73/73 74/74/74
f 76/76/76 75/75/75 74/74/74
f 77/77/77 75/75/75 76/76/76
f 78/78/78 77/77/77 76/76/76
f 79/79/79 77/77/77 78/78/78
f 80/80/80 79/79/79 78/78/78
f 81/81/81 79/79/79 80/80/80
f 82/82/82 81/81/81 80/80/80
f 83/83/83 81/81/81 82/82/82
f 84/84/84 83/83/83 82/82/82
f 85/85/85 83/83/83 84/84/84
f 86/86/86 85/85/85 84/84/84
f 87/87/87 85/85/85 86/86/86
f 88/88/88 87/87/87 86/86/86
f 89/89/89 87/87/87 88/88/88
f 90/90/90 89/89/89 88/88/88
f 91/91/91 89/89/89 90/90/90
f 92/92/92 91/91/91 90/90/90
f 93/93/93 91/91/91 92/92/92
f 94/94/94 93/93/93 92/92/92
f 95/95/95 93/93/93 94/94/94
f 96/96/96 95/95/95 94/94/94
f 97/97/97 95/95/95 96/96/96
f 98/98/98 97/97/97 96/96/96
f 99/99/99 97/97/97 98/98/98
f 100/100/100 99/99/99 98/98/98
f 101/101/101 99/99/99 100/100/100
f 102/102/102 101/101/101 100/100/100
f 103/103/103 101/101/101 102/102/102
f 104/104/104 103/103/103 102/102/102
f 105/105/105 103/103/103 104/104/104
f 106/106/106 105/105/105 104/104/104
f 107/107/107 105/105/105 106/106/106
f 108/108/108 107/107/107 106/106/106
f 109/109/109 107/107/107 108/108/108
f 110/110/110 109/109/109 108/108/108
f 111/111/111 109/109/109 110/110/110
f 112/112/112 111/111/111 110/110/110
f 113/113/113 111/111/111 112/112/112
f 114/114/114 113/113/113 112/112/112
f 115/115/115 113/113/113 114/114/114
f 116/116/116 115/115/115 114/114/114
f 117/117/117 115/115/115 116/116/116
f 118/118/118 117/117/117 116/116/116
f 119/119/119 117/117/117 118/118/118
f 120/120/120 119/119/119 118/118/118
f 121/121/121 119/119/119 120/120/120
f 122/122/122 121/121/121 120/120/120
