g FX_m_ring_02
v 0.867120385 0.263763934 -1.27000089E-06
v 1.01698816 0.0938059986 -1.27000078E-06
v 1.09329712 0.165263847 -1.27000078E-06
v 0.926068008 0.317760438 -1.27000078E-06
v 1.16015565 0.245335028 -1.27000067E-06
v 0.97745496 0.377706498 -1.27000078E-06
v 1.21661532 0.333190113 -1.27000067E-06
v 1.02079964 0.443126976 -1.27000067E-06
v 1.26176918 0.42792353 -1.27000055E-06
v 1.05565429 0.513604343 -1.27000067E-06
v 1.29481506 0.528612435 -1.27000055E-06
v 1.08159101 0.588808239 -1.27000055E-06
v 1.31511557 0.634378731 -1.27000055E-06
v 1.09818053 0.668505669 -1.27000055E-06
v 1.32168126 0.730718493 -1.27000055E-06
v 1.10416198 0.73795718 -1.27000055E-06
v 1.31677318 0.815658271 -1.27000055E-06
v 1.10159504 0.797685146 -1.27000055E-06
v 1.30266142 0.901026189 -1.27000044E-06
v 1.09198439 0.860922813 -1.27000055E-06
v 1.28032601 0.986678123 -1.27000044E-06
v 1.07543314 0.927168906 -1.27000055E-06
v 1.25052857 1.07252145 -1.27000033E-06
v 1.05211127 0.995868444 -1.27000055E-06
v 1.21385026 1.15842032 -1.27000033E-06
v 1.0222317 1.06644118 -1.27000055E-06
v 1.17072535 1.24415243 -1.27000033E-06
v 0.986028075 1.13828611 -1.27000044E-06
v 1.12148166 1.32939351 -1.27000033E-06
v 0.943739593 1.2107842 -1.27000044E-06
v 1.06635761 1.41372299 -1.27000033E-06
v 0.895592153 1.28329825 -1.27000044E-06
v 1.00552297 1.49663198 -1.27000033E-06
v 0.841799498 1.35517502 -1.27000044E-06
v 0.939092577 1.57754457 -1.27000033E-06
v 0.782551348 1.42574894 -1.27000044E-06
v 0.867139399 1.65583885 -1.27000033E-06
v 0.718021572 1.49435115 -1.27000044E-06
v 0.789707482 1.73086762 -1.27000033E-06
v 0.648368239 1.56031895 -1.27000044E-06
v 0.706828237 1.80197918 -1.27000033E-06
v 0.57374239 1.62300551 -1.27000044E-06
v 0.618536353 1.86853707 -1.27000033E-06
v 0.494293958 1.68179107 -1.27000044E-06
v 0.52488625 1.92993486 -1.27000033E-06
v 0.410185128 1.73609281 -1.27000044E-06
v 0.425966918 1.98560166 -1.27000033E-06
v 0.321594417 1.78536963 -1.27000033E-06
v 0.321916878 2.03501248 -1.27000033E-06
v 0.228723928 1.82912743 -1.27000033E-06
v 0.212936714 2.0776813 -1.27000021E-06
v 0.131806582 1.86691785 -1.27000033E-06
v 0.0951931253 2.11421084 -1.27000021E-06
v 0.0282713361 1.89904296 -1.27000033E-06
v -0.0351089016 2.14244485 -1.27000021E-06
v -0.0828910619 1.92321515 -1.27000021E-06
v -0.162896842 2.15749121 -1.27000021E-06
v -0.190325394 1.93599892 -1.27000021E-06
v -0.287370443 2.16004825 -1.2700001E-06
v -0.293492943 1.93829024 -1.27000021E-06
v -0.407768041 2.15078568 -1.2700001E-06
v -0.391905129 1.93094182 -1.2700001E-06
v -0.523376644 2.13035321 -1.2700001E-06
v -0.485121727 1.91476417 -1.2700001E-06
v -0.633518457 2.0994041 -1.2700001E-06
v -0.572745502 1.89052606 -1.2700001E-06
v -0.737535417 2.05859613 -1.2700001E-06
v -0.654412687 1.8589536 -1.2700001E-06
v -0.83476156 2.00859284 -1.2700001E-06
v -0.729780257 1.82073343 -1.2700001E-06
v -0.924503803 1.95005691 -1.2700001E-06
v -0.798522711 1.77650201 -1.2700001E-06
v -1.00603259 1.8836447 -1.2700001E-06
v -0.8603248 1.72685933 -1.2700001E-06
v -1.07858479 1.81000805 -1.2700001E-06
v -0.914883673 1.67235565 -1.2700001E-06
v -1.14138722 1.72980142 -1.2700001E-06
v -0.96190989 1.61350143 -1.2700001E-06
v -1.19369423 1.64370549 -1.2700001E-06
v -1.00112641 1.55075955 -1.27000021E-06
v -1.23483944 1.55245197 -1.2700001E-06
v -1.03226793 1.48455715 -1.27000021E-06
v -1.26428699 1.45685589 -1.2700001E-06
v -1.05507159 1.41528642 -1.27000033E-06
v -1.28167415 1.35782897 -1.27000021E-06
v -1.06926501 1.34332144 -1.27000033E-06
v -1.28682613 1.25638127 -1.27000021E-06
v -1.07455242 1.26902795 -1.27000044E-06
v -1.279966 1.15544546 -1.27000033E-06
v -1.07074857 1.19414473 -1.27000044E-06
v -1.26562321 1.07188177 -1.27000033E-06
v -1.06060827 1.13029408 -1.27000055E-06
v -1.24416745 0.989389122 -1.27000044E-06
v -1.04425073 1.06530368 -1.27000055E-06
v -1.21615791 0.908208787 -1.27000055E-06
v -1.02182961 0.999568462 -1.27000067E-06
v -1.18200803 0.828544199 -1.27000055E-06
v -0.993495941 0.933489323 -1.27000078E-06
v -1.14200044 0.750574887 -1.27000078E-06
v -0.959391713 0.867456317 -1.27000089E-06
v -1.09630716 0.674468577 -1.27000089E-06
v -0.91963923 0.801841736 -1.27000101E-06
v -1.0450145 0.600383759 -1.27000101E-06
v -0.87434411 0.736993432 -1.27000101E-06
v -0.988145471 0.52846992 -1.27000112E-06
v -0.823593616 0.673234403 -1.27000123E-06
v -0.925684154 0.458867371 -1.27000135E-06
v -0.76746583 0.610866129 -1.27000135E-06
v -0.857601643 0.391709626 -1.27000158E-06
v -0.706038833 0.550167441 -1.27000146E-06
v -0.783873796 0.327123523 -1.27000158E-06
v -0.639399946 0.491400391 -1.27000158E-06
v -0.704511166 0.265235841 -1.2700018E-06
v -0.56766206 0.43481794 -1.27000158E-06
v -0.619571269 0.206179559 -1.27000192E-06
v -0.490970463 0.380667657 -1.27000169E-06
v -0.52917403 0.150098786 -1.27000203E-06
v -0.409514248 0.329197824 -1.27000169E-06
v -0.433514148 0.0971613154 -1.27000203E-06
v -0.323531419 0.280667454 -1.2700018E-06
v -0.332861274 0.0475666709 -1.27000203E-06
v -0.233314142 0.235350266 -1.2700018E-06
vt 0 0
vt 0 1
vt 0.0166666675 1
vt 0.0166666675 0
vt 0.0333333351 1
vt 0.0333333351 0
vt 0.0500000045 1
vt 0.0500000045 0
vt 0.0666666701 1
vt 0.0666666701 0
vt 0.0833333358 1
vt 0.0833333358 0
vt 0.100000001 1
vt 0.100000001 0
vt 0.116666667 1
vt 0.116666667 0
vt 0.13333334 1
vt 0.13333334 0
vt 0.150000006 1
vt 0.150000006 0
vt 0.166666672 1
vt 0.166666672 0
vt 0.183333337 1
vt 0.183333337 0
vt 0.200000003 1
vt 0.200000003 0
vt 0.216666669 1
vt 0.216666669 0
vt 0.233333334 1
vt 0.233333334 0
vt 0.25 1
vt 0.25 0
vt 0.266666681 1
vt 0.266666681 0
vt 0.283333361 1
vt 0.283333361 0
vt 0.300000042 1
vt 0.300000042 0
vt 0.316666722 1
vt 0.316666722 0
vt 0.333333403 1
vt 0.333333403 0
vt 0.350000083 1
vt 0.350000083 0
vt 0.366666764 1
vt 0.366666764 0
vt 0.383333445 1
vt 0.383333445 0
vt 0.400000125 1
vt 0.400000125 0
vt 0.416666806 1
vt 0.416666806 0
vt 0.433333486 1
vt 0.433333486 0
vt 0.450000167 1
vt 0.450000167 0
vt 0.466666847 1
vt 0.466666847 0
vt 0.483333528 1
vt 0.483333528 0
vt 0.500000179 1
vt 0.500000179 0
vt 0.51666683 1
vt 0.51666683 0
vt 0.53333348 1
vt 0.53333348 0
vt 0.550000131 1
vt 0.550000131 0
vt 0.566666782 1
vt 0.566666782 0
vt 0.583333433 1
vt 0.583333433 0
vt 0.600000083 1
vt 0.600000083 0
vt 0.616666734 1
vt 0.616666734 0
vt 0.633333385 1
vt 0.633333385 0
vt 0.650000036 1
vt 0.650000036 0
vt 0.666666687 1
vt 0.666666687 0
vt 0.683333337 1
vt 0.683333337 0
vt 0.699999988 1
vt 0.699999988 0
vt 0.716666639 1
vt 0.716666639 0
vt 0.73333329 1
vt 0.73333329 0
vt 0.74999994 1
vt 0.74999994 0
vt 0.766666591 1
vt 0.766666591 0
vt 0.783333242 1
vt 0.783333242 0
vt 0.799999893 1
vt 0.799999893 0
vt 0.816666543 1
vt 0.816666543 0
vt 0.833333194 1
vt 0.833333194 0
vt 0.849999845 1
vt 0.849999845 0
vt 0.866666496 1
vt 0.866666496 0
vt 0.883333147 1
vt 0.883333147 0
vt 0.899999797 1
vt 0.899999797 0
vt 0.916666448 1
vt 0.916666448 0
vt 0.933333099 1
vt 0.933333099 0
vt 0.94999975 1
vt 0.94999975 0
vt 0.9666664 1
vt 0.9666664 0
vt 0.983333051 1
vt 0.983333051 0
vt 0.999999702 1
vt 0.999999702 0
vn 0.342072308 -0.939672828 -0.00118163659
vn 0.198029637 -0.980160534 -0.00833282154
vn 0.121862799 -0.992532432 -0.00536796404
vn 0.289426208 -0.957199812 -0.00101247977
vn 0.0615384951 -0.998096883 -0.00396115333
vn 0.238492936 -0.971143782 -0.000888131268
vn 0.0212858599 -0.999767005 -0.0035740342
vn 0.193093494 -0.981180072 -0.000793268147
vn -0.000625514775 -0.999991655 -0.00404239306
vn 0.155963078 -0.98776269 -0.000716690847
vn -0.00951915514 -0.999935865 -0.00614621444
vn 0.128343165 -0.991729558 -0.000649636961
vn -0.00879231934 -0.999869347 -0.0135637764
vn 0.110295363 -0.99389863 -0.000585004047
vn -7.42806697E-06 -0.999810398 -0.0194721967
vn 0.102691405 -0.994713008 -0.000528949022
vn -0.0111362273 -0.999829054 -0.0147626232
vn 0.102855347 -0.99469614 -0.000475956302
vn -0.0156103913 -0.999866366 -0.0048437831
vn 0.108854353 -0.994057655 -0.000418533542
vn -0.0132398596 -0.999910116 -0.00213745376
vn 0.120254792 -0.992743015 -0.000361301587
vn -0.00551756751 -0.999984145 -0.00118785177
vn 0.136541203 -0.990634322 -0.000307904964
vn 0.00871639978 -0.999961734 -0.000752798573
vn 0.156714648 -0.987643838 -0.000260551053
vn 0.0291482545 -0.999574959 -0.000517281762
vn 0.179372564 -0.983781219 -0.000220095753
vn 0.0534371585 -0.998571157 -0.000374974828
vn 0.202605829 -0.979260385 -0.000186476012
vn 0.0777053237 -0.996976376 -0.000282591413
vn 0.224462345 -0.974482656 -0.000159132862
vn 0.0978998244 -0.995196283 -0.000219922687
vn 0.242910847 -0.970048606 -0.000137306764
vn 0.110909425 -0.993830502 -0.000176346904
vn 0.256593972 -0.966519356 -0.000120203942
vn 0.115068078 -0.993357599 -0.000145706639
vn 0.264512986 -0.964382052 -0.000107092223
vn 0.110294223 -0.993898988 -0.000124156024
vn 0.266428322 -0.96385473 -9.73367933E-05
vn 0.0977885649 -0.995207131 -0.000109185035
vn 0.262552977 -0.964917541 -9.04289773E-05
vn 0.0793628022 -0.996845782 -9.913752E-05
vn 0.253628641 -0.967301607 -8.59845677E-05
vn 0.0575195886 -0.998344421 -9.29518646E-05
vn 0.240739718 -0.970589697 -8.37520638E-05
vn 0.0347651243 -0.99939549 -9.0009642E-05
vn 0.225247845 -0.974301457 -8.36064864E-05
vn 0.0135640586 -0.99990797 -9.00328087E-05
vn 0.208742335 -0.97797066 -8.55608014E-05
vn -0.0043209102 -0.999990702 -9.30592942E-05
vn 0.192941368 -0.981210291 -8.97754508E-05
vn -0.0181301907 -0.99983561 -9.97656171E-05
vn 0.179491475 -0.983759522 -9.68255044E-05
vn -0.0274442136 -0.999623299 -0.000111941226
vn 0.172956333 -0.984929502 -0.00010754534
vn -0.0333863012 -0.999442518 -0.000130176297
vn 0.178587139 -0.983924091 -0.000121371857
vn -0.039670188 -0.999212861 -0.000156603463
vn 0.199323311 -0.979933739 -0.000138054878
vn -0.0479653217 -0.998849034 -0.0001945525
vn 0.238361686 -0.971176505 -0.000156652648
vn -0.0539595895 -0.998543143 -0.000248923374
vn 0.296814024 -0.954935312 -0.000174858913
vn -0.0422051065 -0.999108851 -0.000324648834
vn 0.370770812 -0.928724468 -0.000188900565
vn 0.0188309923 -0.999822676 -0.000418721116
vn 0.448775262 -0.893644691 -0.000194797612
vn 0.156996608 -0.987599015 -0.00049575849
vn 0.515710175 -0.856763005 -0.000190997627
vn 0.323001832 -0.946398258 -0.000490734063
vn 0.56129849 -0.827613354 -0.000179592724
vn 0.412833899 -0.910806298 -0.000410982466
vn 0.583053708 -0.81243366 -0.000164286757
vn 0.405957162 -0.913891971 -0.00032103603
vn 0.584633827 -0.811297297 -0.000148285209
vn 0.336417913 -0.941712797 -0.000249462493
vn 0.571597219 -0.820534229 -0.000133367692
vn 0.237781063 -0.971318781 -0.000197471905
vn 0.549984455 -0.835174859 -0.000120281686
vn 0.136593699 -0.99062717 -0.000160711526
vn 0.525506556 -0.850789487 -0.000109153101
vn 0.0527704917 -0.998606741 -0.000135259426
vn 0.50344032 -0.864030063 -9.98773394E-05
vn -0.000267980446 -1 -0.000118308897
vn 0.488115668 -0.872779012 -9.22495165E-05
vn -0.0147847394 -0.999890685 -0.000107756678
vn 0.482629448 -0.87582463 -8.6058375E-05
vn 0.0116495276 -0.99993217 -0.00010202577
vn 0.488163024 -0.872752368 -8.11855716E-05
vn 0.0624322519 -0.998049259 -9.97854659E-05
vn 0.500622213 -0.865665913 -7.79421971E-05
vn 0.132991686 -0.99111712 -9.91386041E-05
vn 0.518597424 -0.855018497 -7.54401772E-05
vn 0.214872599 -0.976642013 -9.96816088E-05
vn 0.54005003 -0.841632903 -7.37281007E-05
vn 0.298749655 -0.954331458 -0.000101375197
vn 0.562872231 -0.826543987 -7.28915984E-05
vn 0.376626372 -0.926365256 -0.000104591243
vn 0.585214376 -0.810878694 -7.3066185E-05
vn 0.443468511 -0.896289945 -0.00011012391
vn 0.605642736 -0.79573667 -7.44471181E-05
vn 0.497343391 -0.867553771 -0.000119225027
vn 0.623233318 -0.782035887 -7.73157662E-05
vn 0.538539052 -0.842600584 -0.000133863417
vn 0.637488663 -0.770459771 -8.20764035E-05
vn 0.568475127 -0.8227005 -0.000157372997
vn 0.648240149 -0.761435986 -8.9330686E-05
vn 0.588892341 -0.808211505 -0.000196030189
vn 0.655545354 -0.755155861 -9.99972763E-05
vn 0.60146153 -0.798901677 -0.000262952119
vn 0.659595132 -0.751621068 -0.000115528121
vn 0.607626021 -0.79422313 -0.000389252353
vn 0.660640299 -0.75070262 -0.000138287127
vn 0.608589768 -0.793484747 -0.000660462247
vn 0.658951998 -0.752184987 -0.000172266184
vn 0.60545361 -0.795879543 -0.00132744876
vn 0.654806077 -0.755796969 -0.000224472838
vn 0.599615633 -0.800284445 -0.00243692985
vn 0.648447216 -0.761259615 -0.000307684473
vn 0.590830982 -0.806791008 -0.00264476659
vn 0.640087903 -0.768301547 -0.00044646021
g FX_m_ring_02_0
f 3/3/3 2/2/2 1/1/1
f 4/4/4 3/3/3 1/1/1
f 5/5/5 3/3/3 4/4/4
f 6/6/6 5/5/5 4/4/4
f 7/7/7 5/5/5 6/6/6
f 8/8/8 7/7/7 6/6/6
f 9/9/9 7/7/7 8/8/8
f 10/10/10 9/9/9 8/8/8
f 11/11/11 9/9/9 10/10/10
f 12/12/12 11/11/11 10/10/10
f 13/13/13 11/11/11 12/12/12
f 14/14/14 13/13/13 12/12/12
f 15/15/15 13/13/13 14/14/14
f 16/16/16 15/15/15 14/14/14
f 17/17/17 15/15/15 16/16/16
f 18/18/18 17/17/17 16/16/16
f 19/19/19 17/17/17 18/18/18
f 20/20/20 19/19/19 18/18/18
f 21/21/21 19/19/19 20/20/20
f 22/22/22 21/21/21 20/20/20
f 23/23/23 21/21/21 22/22/22
f 24/24/24 23/23/23 22/22/22
f 25/25/25 23/23/23 24/24/24
f 26/26/26 25/25/25 24/24/24
f 27/27/27 25/25/25 26/26/26
f 28/28/28 27/27/27 26/26/26
f 29/29/29 27/27/27 28/28/28
f 30/30/30 29/29/29 28/28/28
f 31/31/31 29/29/29 30/30/30
f 32/32/32 31/31/31 30/30/30
f 33/33/33 31/31/31 32/32/32
f 34/34/34 33/33/33 32/32/32
f 35/35/35 33/33/33 34/34/34
f 36/36/36 35/35/35 34/34/34
f 37/37/37 35/35/35 36/36/36
f 38/38/38 37/37/37 36/36/36
f 39/39/39 37/37/37 38/38/38
f 40/40/40 39/39/39 38/38/38
f 41/41/41 39/39/39 40/40/40
f 42/42/42 41/41/41 40/40/40
f 43/43/43 41/41/41 42/42/42
f 44/44/44 43/43/43 42/42/42
f 45/45/45 43/43/43 44/44/44
f 46/46/46 45/45/45 44/44/44
f 47/47/47 45/45/45 46/46/46
f 48/48/48 47/47/47 46/46/46
f 49/49/49 47/47/47 48/48/48
f 50/50/50 49/49/49 48/48/48
f 51/51/51 49/49/49 50/50/50
f 52/52/52 51/51/51 50/50/50
f 53/53/53 51/51/51 52/52/52
f 54/54/54 53/53/53 52/52/52
f 55/55/55 53/53/53 54/54/54
f 56/56/56 55/55/55 54/54/54
f 57/57/57 55/55/55 56/56/56
f 58/58/58 57/57/57 56/56/56
f 59/59/59 57/57/57 58/58/58
f 60/60/60 59/59/59 58/58/58
f 61/61/61 59/59/59 60/60/60
f 62/62/62 61/61/61 60/60/60
f 63/63/63 61/61/61 62/62/62
f 64/64/64 63/63/63 62/62/62
f 65/65/65 63/63/63 64/64/64
f 66/66/66 65/65/65 64/64/64
f 67/67/67 65/65/65 66/66/66
f 68/68/68 67/67/67 66/66/66
f 69/69/69 67/67/67 68/68/68
f 70/70/70 69/69/69 68/68/68
f 71/71/71 69/69/69 70/70/70
f 72/72/72 71/71/71 70/70/70
f 73/73/73 71/71/71 72/72/72
f 74/74/74 73/73/73 72/72/72
f 75/75/75 73/73/73 74/74/74
f 76/76/76 75/75/75 74/74/74
f 77/77/77 75/75/75 76/76/76
f 78/78/78 77/77/77 76/76/76
f 79/79/79 77/77/77 78/78/78
f 80/80/80 79/79/79 78/78/78
f 81/81/81 79/79/79 80/80/80
f 82/82/82 81/81/81 80/80/80
f 83/83/83 81/81/81 82/82/82
f 84/84/84 83/83/83 82/82/82
f 85/85/85 83/83/83 84/84/84
f 86/86/86 85/85/85 84/84/84
f 87/87/87 85/85/85 86/86/86
f 88/88/88 87/87/87 86/86/86
f 89/89/89 87/87/87 88/88/88
f 90/90/90 89/89/89 88/88/88
f 91/91/91 89/89/89 90/90/90
f 92/92/92 91/91/91 90/90/90
f 93/93/93 91/91/91 92/92/92
f 94/94/94 93/93/93 92/92/92
f 95/95/95 93/93/93 94/94/94
f 96/96/96 95/95/95 94/94/94
f 97/97/97 95/95/95 96/96/96
f 98/98/98 97/97/97 96/96/96
f 99/99/99 97/97/97 98/98/98
f 100/100/100 99/99/99 98/98/98
f 101/101/101 99/99/99 100/100/100
f 102/102/102 101/101/101 100/100/100
f 103/103/103 101/101/101 102/102/102
f 104/104/104 103/103/103 102/102/102
f 105/105/105 103/103/103 104/104/104
f 106/106/106 105/105/105 104/104/104
f 107/107/107 105/105/105 106/106/106
f 108/108/108 107/107/107 106/106/106
f 109/109/109 107/107/107 108/108/108
f 110/110/110 109/109/109 108/108/108
f 111/111/111 109/109/109 110/110/110
f 112/112/112 111/111/111 110/110/110
f 113/113/113 111/111/111 112/112/112
f 114/114/114 113/113/113 112/112/112
f 115/115/115 113/113/113 114/114/114
f 116/116/116 115/115/115 114/114/114
f 117/117/117 115/115/115 116/116/116
f 118/118/118 117/117/117 116/116/116
f 119/119/119 117/117/117 118/118/118
f 120/120/120 119/119/119 118/118/118
f 121/121/121 119/119/119 120/120/120
f 122/122/122 121/121/121 120/120/120
