g 11
v 0.0139664896 0.00807559676 0
v 0.00891285483 0.0329226032 0
v -0.0109239081 0.00301313959 0
v -0.0159775391 0.0278601684 0
v 0.0183235388 0.0345323645 0
v 0.00603790348 0.0567634925 0
v 0.0102500496 0.0725624338 0
v -0.00953683723 0.0566363931 0
v 0.0154884048 0.0851368532 0
v -0.00908050034 0.0915811434 0
v -0.00281582703 0.116023138 0
v -0.0124202007 0.0925089717 0
v -0.0178142656 0.116789952 0
v -0.0427953228 0.11219573 0
v -0.0224004779 0.141727477 0
v -0.0473815352 0.137133271 0
v -0.0371309407 0.172010034 0
v -0.0508844666 0.150655851 0
v -0.0584479086 0.185739607 0
v -0.0722014457 0.164385438 0
v -0.0557772145 0.199026495 0
v -0.0811749622 0.198687851 0
v -0.0590175502 0.22734499 0
v -0.0834402516 0.220367074 0
v -0.0659833029 0.251725137 0
v -0.0904060081 0.244747221 0
v -0.0991469845 0.288241416 0
v -0.0973717794 0.269127429 0
vt 0 1
vt 0.0769230798 1
vt 0 0
vt 0.0769230798 0
vt 0.15384616 1
vt 0.15384616 0
vt 0.230769247 1
vt 0.230769247 0
vt 0.307692319 1
vt 0.307692319 0
vt 0.384615391 1
vt 0.384615391 0
vt 0.461538464 1
vt 0.461538464 0
vt 0.538461566 1
vt 0.538461566 0
vt 0.615384638 1
vt 0.615384638 0
vt 0.692307711 1
vt 0.692307711 0
vt 0.769230783 1
vt 0.769230783 0
vt 0.846153855 1
vt 0.846153855 0
vt 0.923076928 1
vt 0.923076928 0
vt 1 1
vt 1 0
vn -0 0 -1
vn -0 0 1
vn -0 0 -1
vn -0 0 -1
vn -0 0 -1
vn -0 0 -1
vn -0 0 -1
vn -0 0 -1
vn -0 0 -1
vn -0 0 -1
vn -0 0 -1
vn -0 0 -1
vn -0 0 -1
vn -0 0 -1
vn -0 0 -1
vn -0 0 -1
vn -0 0 -1
vn -0 0 -1
vn -0 0 -1
vn -0 0 -1
vn -0 0 -1
vn -0 0 -1
vn -0 0 -1
vn -0 0 -1
vn -0 0 -1
vn -0 0 -1
vn -0 0 -1
vn -0 0 -1
g 11_0
f 3/3/3 2/2/2 1/1/1
f 2/2/2 3/3/3 4/4/4
f 4/4/4 5/5/5 2/2/2
f 5/5/5 4/4/4 6/6/6
f 6/6/6 7/7/7 5/5/5
f 7/7/7 6/6/6 8/8/8
f 8/8/8 9/9/9 7/7/7
f 9/9/9 8/8/8 10/10/10
f 10/10/10 11/11/11 9/9/9
f 11/11/11 10/10/10 12/12/12
f 12/12/12 13/13/13 11/11/11
f 13/13/13 12/12/12 14/14/14
f 14/14/14 15/15/15 13/13/13
f 15/15/15 14/14/14 16/16/16
f 16/16/16 17/17/17 15/15/15
f 17/17/17 16/16/16 18/18/18
f 18/18/18 19/19/19 17/17/17
f 19/19/19 18/18/18 20/20/20
f 20/20/20 21/21/21 19/19/19
f 21/21/21 20/20/20 22/22/22
f 22/22/22 23/23/23 21/21/21
f 23/23/23 22/22/22 24/24/24
f 24/24/24 25/25/25 23/23/23
f 25/25/25 24/24/24 26/26/26
f 26/26/26 27/27/27 25/25/25
f 27/27/27 26/26/26 28/28/28
