g 21
v 0.00922817364 -0.00732123433 0
v 0.0254153628 0.0137597462 0
v -0.010917847 0.00814802479 0
v 0.00526934257 0.0292290058 0
v 0.0402733721 0.0498156101 0
v 0.0193427093 0.0354257673 0
v 0.0244298317 0.0560513027 0
v 0.00548301078 0.0729680955 0
v 0.0421317741 0.0758774653 0
v 0.0231849514 0.0927942693 0
v 0.0435262471 0.111722857 0
v 0.018194383 0.109863639 0
v 0.0415807404 0.138230413 0
v 0.0162488744 0.13637118 0
v 0.0369311981 0.154680595 0
v 0.0186688881 0.172334149 0
v 0.0554040857 0.173790485 0
v 0.0371417738 0.191444054 0
v 0.0413202904 0.210878968 0
v 0.0222744085 0.194073781 0
v 0.0237901304 0.210987508 0
v 0.0108490288 0.232843578 0
v 0.0466605648 0.224529222 0
v 0.0337194651 0.246385291 0
v 0.0695310086 0.238070905 0
v 0.0565899014 0.259927005 0
v 0.0898450911 0.263658971 0
v 0.0672880858 0.27533555 0
v 0.102063537 0.287262827 0
v 0.0795065463 0.298939377 0
v 0.101806626 0.327205598 0
v 0.0960951895 0.302456051 0
v 0.075908415 0.333182126 0
v 0.0701969787 0.308432579 0
v 0.0701061934 0.324966609 0
v 0.0486858413 0.338616818 0
v 0.084389925 0.347381055 0
v 0.0629695728 0.361031264 0
v 0.0986736938 0.369795591 0
v 0.0772533417 0.383445829 0
v 0.112957448 0.432668537 0
v 0.0915370658 0.405860305 0
vt 0 1
vt 0.0500000007 1
vt 0 0
vt 0.0500000007 0
vt 0.100000001 1
vt 0.100000001 0
vt 0.150000006 1
vt 0.150000006 0
vt 0.200000003 1
vt 0.200000003 0
vt 0.25 1
vt 0.25 0
vt 0.300000012 1
vt 0.300000012 0
vt 0.350000024 1
vt 0.350000024 0
vt 0.400000036 1
vt 0.400000036 0
vt 0.450000048 1
vt 0.450000048 0
vt 0.50000006 1
vt 0.50000006 0
vt 0.550000072 1
vt 0.550000072 0
vt 0.600000083 1
vt 0.600000083 0
vt 0.650000095 1
vt 0.650000095 0
vt 0.700000107 1
vt 0.700000107 0
vt 0.750000119 1
vt 0.750000119 0
vt 0.800000131 1
vt 0.800000131 0
vt 0.850000143 1
vt 0.850000143 0
vt 0.900000155 1
vt 0.900000155 0
vt 0.950000167 1
vt 0.950000167 0
vt 1.00000012 1
vt 1.00000012 0
vn -0 0 -1
vn -0 0 -1
vn -0 0 -1
vn -0 0 -1
vn -0 0 -1
vn -0 0 1
vn -0 0 -1
vn -0 0 -1
vn -0 0 -1
vn -0 0 -1
vn -0 0 -1
vn -0 0 -1
vn -0 0 -1
vn -0 0 -1
vn -0 0 -1
vn -0 0 -1
vn -0 0 -1
vn -0 0 -1
vn -0 0 -1
vn -0 0 -1
vn -0 0 -1
vn -0 0 -1
vn -0 0 -1
vn -0 0 -1
vn -0 0 -1
vn -0 0 -1
vn -0 0 -1
vn -0 0 -1
vn -0 0 -1
vn -0 0 -1
vn -0 0 -1
vn -0 0 1
vn -0 0 -1
vn -0 0 -1
vn -0 0 -1
vn -0 0 -1
vn -0 0 -1
vn -0 0 -1
vn -0 0 -1
vn -0 0 -1
vn -0 0 -1
vn -0 0 -1
g 21_0
f 3/3/3 2/2/2 1/1/1
f 2/2/2 3/3/3 4/4/4
f 4/4/4 5/5/5 2/2/2
f 5/5/5 4/4/4 6/6/6
f 6/6/6 7/7/7 5/5/5
f 7/7/7 6/6/6 8/8/8
f 8/8/8 9/9/9 7/7/7
f 9/9/9 8/8/8 10/10/10
f 10/10/10 11/11/11 9/9/9
f 11/11/11 10/10/10 12/12/12
f 12/12/12 13/13/13 11/11/11
f 13/13/13 12/12/12 14/14/14
f 14/14/14 15/15/15 13/13/13
f 15/15/15 14/14/14 16/16/16
f 16/16/16 17/17/17 15/15/15
f 17/17/17 16/16/16 18/18/18
f 18/18/18 19/19/19 17/17/17
f 19/19/19 18/18/18 20/20/20
f 20/20/20 21/21/21 19/19/19
f 21/21/21 20/20/20 22/22/22
f 22/22/22 23/23/23 21/21/21
f 23/23/23 22/22/22 24/24/24
f 24/24/24 25/25/25 23/23/23
f 25/25/25 24/24/24 26/26/26
f 26/26/26 27/27/27 25/25/25
f 27/27/27 26/26/26 28/28/28
f 28/28/28 29/29/29 27/27/27
f 29/29/29 28/28/28 30/30/30
f 30/30/30 31/31/31 29/29/29
f 31/31/31 30/30/30 32/32/32
f 32/32/32 33/33/33 31/31/31
f 33/33/33 32/32/32 34/34/34
f 34/34/34 35/35/35 33/33/33
f 35/35/35 34/34/34 36/36/36
f 36/36/36 37/37/37 35/35/35
f 37/37/37 36/36/36 38/38/38
f 38/38/38 39/39/39 37/37/37
f 39/39/39 38/38/38 40/40/40
f 40/40/40 41/41/41 39/39/39
f 41/41/41 40/40/40 42/42/42
