g 3
v 0.0149736442 0.00186446949 0
v 0.0206524581 0.0238698367 0
v -0.00962059759 0.00821139291 0
v -0.00394178322 0.0302167591 0
v 0.0263312664 0.0458752289 0
v 0.00173703057 0.0522221513 0
v 0.0100664152 0.0750741437 0
v -0.00629461324 0.0556453913 0
v -0.0160051342 0.0899123624 0
v -0.0171584673 0.0645385757 0
v -0.0387080163 0.0909443274 0
v -0.0398613513 0.0655705333 0
v -0.0436095633 0.100862809 0
v -0.0644932613 0.0864048973 0
v -0.0422694683 0.11448884 0
v -0.0675817356 0.116598189 0
v -0.0479671583 0.144754857 0
v -0.0676256642 0.128670588 0
v -0.0623583235 0.162344038 0
v -0.0820168331 0.1462598 0
v -0.0952059776 0.169468939 0
v -0.0838467404 0.146750495 0
v -0.0801861584 0.173264444 0
v -0.105552837 0.174565285 0
v -0.0790222436 0.195960924 0
v -0.1043889 0.197261766 0
v -0.0767423883 0.208185256 0
v -0.0947029069 0.226145789 0
v -0.0714133009 0.24150084 0
v -0.0925473869 0.227411449 0
v -0.0840195939 0.260410279 0
v -0.105153657 0.246320888 0
v -0.0966258794 0.279319704 0
v -0.117759965 0.265230328 0
v -0.101766557 0.293626666 0
v -0.127131462 0.292291671 0
v -0.102961034 0.316321641 0
v -0.128325939 0.314986646 0
v -0.104155488 0.339016467 0
v -0.129520386 0.337681472 0
v -0.105349965 0.361711383 0
v -0.130714864 0.360376388 0
v -0.122525245 0.387114227 0
v -0.140918329 0.369596988 0
v -0.138198584 0.403571218 0
v -0.156591669 0.386054009 0
v -0.153871879 0.420028239 0
v -0.172264993 0.402510971 0
v -0.162923768 0.428973824 0
v -0.188323781 0.428973824 0
v -0.162923768 0.451700151 0
v -0.188323781 0.451700151 0
v -0.172338516 0.477915287 0
v -0.195428774 0.467332214 0
v -0.181807533 0.498574883 0
v -0.187092364 0.514310479 0
vt 0 1
vt 0.0370370373 1
vt 0 0
vt 0.0370370373 0
vt 0.0740740746 1
vt 0.0740740746 0
vt 0.111111112 1
vt 0.111111112 0
vt 0.148148149 1
vt 0.148148149 0
vt 0.185185194 1
vt 0.185185194 0
vt 0.222222239 1
vt 0.222222239 0
vt 0.259259284 1
vt 0.259259284 0
vt 0.296296328 1
vt 0.296296328 0
vt 0.333333373 1
vt 0.333333373 0
vt 0.370370418 1
vt 0.370370418 0
vt 0.407407463 1
vt 0.407407463 0
vt 0.444444507 1
vt 0.444444507 0
vt 0.481481552 1
vt 0.481481552 0
vt 0.518518567 1
vt 0.518518567 0
vt 0.555555582 1
vt 0.555555582 0
vt 0.592592597 1
vt 0.592592597 0
vt 0.629629612 1
vt 0.629629612 0
vt 0.666666627 1
vt 0.666666627 0
vt 0.703703642 1
vt 0.703703642 0
vt 0.740740657 1
vt 0.740740657 0
vt 0.777777672 1
vt 0.777777672 0
vt 0.814814687 1
vt 0.814814687 0
vt 0.851851702 1
vt 0.851851702 0
vt 0.888888717 1
vt 0.888888717 0
vt 0.925925732 1
vt 0.925925732 0
vt 0.962962747 1
vt 0.962962747 0
vt 0.999999762 1
vt 0.999999762 0
vn -0 0 -1
vn -0 0 -1
vn -0 0 -1
vn -0 0 -1
vn -0 0 -1
vn -0 0 -1
vn -0 0 -1
vn -0 0 -1
vn -0 0 -1
vn -0 0 -1
vn -0 0 -1
vn -0 0 -1
vn -0 0 -1
vn -0 0 -1
vn -0 0 -1
vn -0 0 -1
vn -0 0 -1
vn -0 0 -1
vn -0 0 -1
vn -0 0 -1
vn -0 0 1
vn -0 0 -1
vn -0 0 -1
vn -0 0 -1
vn -0 0 -1
vn -0 0 -1
vn -0 0 -1
vn -0 0 -1
vn -0 0 -1
vn -0 0 1
vn -0 0 -1
vn -0 0 -1
vn -0 0 -1
vn -0 0 -1
vn -0 0 -1
vn -0 0 -1
vn -0 0 -1
vn -0 0 -1
vn -0 0 -1
vn -0 0 -1
vn -0 0 -1
vn -0 0 -1
vn -0 0 -1
vn -0 0 -1
vn -0 0 -1
vn -0 0 -1
vn -0 0 -1
vn -0 0 -1
vn -0 0 -1
vn -0 0 -1
vn -0 0 -1
vn -0 0 -1
vn -0 0 -1
vn -0 0 -1
vn -0 0 -1
vn -0 0 -1
g 3_0
f 3/3/3 2/2/2 1/1/1
f 2/2/2 3/3/3 4/4/4
f 4/4/4 5/5/5 2/2/2
f 5/5/5 4/4/4 6/6/6
f 6/6/6 7/7/7 5/5/5
f 7/7/7 6/6/6 8/8/8
f 8/8/8 9/9/9 7/7/7
f 9/9/9 8/8/8 10/10/10
f 10/10/10 11/11/11 9/9/9
f 11/11/11 10/10/10 12/12/12
f 12/12/12 13/13/13 11/11/11
f 13/13/13 12/12/12 14/14/14
f 14/14/14 15/15/15 13/13/13
f 15/15/15 14/14/14 16/16/16
f 16/16/16 17/17/17 15/15/15
f 17/17/17 16/16/16 18/18/18
f 18/18/18 19/19/19 17/17/17
f 19/19/19 18/18/18 20/20/20
f 20/20/20 21/21/21 19/19/19
f 21/21/21 20/20/20 22/22/22
f 22/22/22 23/23/23 21/21/21
f 23/23/23 22/22/22 24/24/24
f 24/24/24 25/25/25 23/23/23
f 25/25/25 24/24/24 26/26/26
f 26/26/26 27/27/27 25/25/25
f 27/27/27 26/26/26 28/28/28
f 28/28/28 29/29/29 27/27/27
f 29/29/29 28/28/28 30/30/30
f 30/30/30 31/31/31 29/29/29
f 31/31/31 30/30/30 32/32/32
f 32/32/32 33/33/33 31/31/31
f 33/33/33 32/32/32 34/34/34
f 34/34/34 35/35/35 33/33/33
f 35/35/35 34/34/34 36/36/36
f 36/36/36 37/37/37 35/35/35
f 37/37/37 36/36/36 38/38/38
f 38/38/38 39/39/39 37/37/37
f 39/39/39 38/38/38 40/40/40
f 40/40/40 41/41/41 39/39/39
f 41/41/41 40/40/40 42/42/42
f 42/42/42 43/43/43 41/41/41
f 43/43/43 42/42/42 44/44/44
f 44/44/44 45/45/45 43/43/43
f 45/45/45 44/44/44 46/46/46
f 46/46/46 47/47/47 45/45/45
f 47/47/47 46/46/46 48/48/48
f 48/48/48 49/49/49 47/47/47
f 49/49/49 48/48/48 50/50/50
f 50/50/50 51/51/51 49/49/49
f 51/51/51 50/50/50 52/52/52
f 52/52/52 53/53/53 51/51/51
f 53/53/53 52/52/52 54/54/54
f 54/54/54 55/55/55 53/53/53
f 55/55/55 54/54/54 56/56/56
