g Cone002
v 0.032107532 0.148979411 0
v 0.00323402928 0.0761313364 0.0342332385
v 0.00646805856 0.152262673 0
v 0.016053766 0.0744897053 0.0342332385
v 0.0568233356 0.141410291 0
v 0.0284116678 0.0707051456 0.0342332385
v 0.0799044371 0.129773036 0
v 0.0399522185 0.0648865178 0.0342332385
v 0.100686818 0.114402466 0
v 0.0503434092 0.0572012328 0.0342332385
v 0.118572652 0.0957407281 0
v 0.0592863262 0.047870364 0.0342332385
v 0.133047357 0.0743247047 0
v 0.0665236786 0.0371623524 0.0342332385
v 0.14369452 0.0507705063 0
v 0.07184726 0.0253852531 0.0342332385
v 0.150207862 0.0257557258 0
v 0.0751039311 0.0128778629 0.0342332385
v 0.152400002 0 0
v 0.0762000009 0 0.0342332385
v 0.150207907 -0.0257554408 0
v 0.0751039535 -0.0128777204 0.0342332385
v 0.143694609 -0.0507702604 0
v 0.0718473047 -0.0253851302 0.0342332385
v 0.133047462 -0.074324511 0
v 0.0665237308 -0.0371622555 0.0342332385
v 0.118572779 -0.0957405791 0
v 0.0592863895 -0.0478702895 0.0342332385
v 0.100686952 -0.114402339 0
v 0.0503434762 -0.0572011694 0.0342332385
v 0.0799045488 -0.129772961 0
v 0.0399522744 -0.0648864806 0.0342332385
v 0.056823425 -0.141410232 0
v 0.0284117125 -0.0707051158 0.0342332385
v 0.0321075916 -0.148979396 0
v 0.0160537958 -0.0744896978 0.0342332385
v 0.00646808464 -0.152262673 0
v 0.00323404232 -0.0761313364 0.0342332385
v -0.0193575006 -0.151165619 0
v -0.0096787503 -0.0755828097 0.0342332385
v -0.0446262062 -0.145719796 0
v -0.0223131031 -0.0728598982 0.0342332385
v -0.0686110929 -0.136081874 0
v -0.0343055464 -0.0680409372 0.0342332385
v -0.0906221569 -0.122529127 0
v -0.0453110784 -0.0612645634 0.0342332385
v -0.110026181 -0.105451412 0
v -0.0550130904 -0.0527257062 0.0342332385
v -0.126264915 -0.0853400752 0
v -0.0631324574 -0.0426700376 0.0342332385
v -0.138871253 -0.0627736598 0
v -0.0694356263 -0.0313868299 0.0342332385
v -0.147482514 -0.0384013727 0
v -0.0737412572 -0.0192006864 0.0342332385
v -0.151850984 -0.0129243424 0
v -0.0759254918 -0.00646217121 0.0342332385
v -0.151850969 0.012924497 0
v -0.0759254843 0.00646224851 0.0342332385
v -0.147482485 0.038401518 0
v -0.0737412423 0.019200759 0.0342332385
v -0.138871193 0.0627738088 0
v -0.0694355965 0.0313869044 0.0342332385
v -0.12626484 0.0853402019 0
v -0.0631324202 0.0426701009 0.0342332385
v -0.110026084 0.105451517 0
v -0.0550130419 0.0527257584 0.0342332385
v -0.09062206 0.122529186 0
v -0.04531103 0.0612645932 0.0342332385
v -0.0686110184 0.136081919 0
v -0.0343055092 0.0680409595 0.0342332385
v -0.0446261577 0.145719826 0
v -0.0223130789 0.0728599131 0.0342332385
v -0.0193574913 0.151165619 0
v -0.00967874564 0.0755828097 0.0342332385
v 0.00646805856 0.152262673 0
v 0.00323402928 0.0761313364 0.0342332385
vt 0.966216147 0
vt 0.993243217 1
vt 0.993243217 0
vt 0.966216147 1
vt 0.939189136 0
vt 0.939189136 1
vt 0.912162185 0
vt 0.912162185 1
vt 0.885135114 0
vt 0.885135114 1
vt 0.858108044 0
vt 0.858108044 1
vt 0.831081092 0
vt 0.831081092 1
vt 0.804054081 0
vt 0.804054081 1
vt 0.777027011 0
vt 0.777027011 1
vt 0.75 0
vt 0.75 1
vt 0.722973228 0
vt 0.722973228 1
vt 0.695946157 0
vt 0.695946157 1
vt 0.668919086 0
vt 0.668919086 1
vt 0.641892135 0
vt 0.641892135 1
vt 0.614865005 0
vt 0.614865005 1
vt 0.587837994 0
vt 0.587837994 1
vt 0.560810924 0
vt 0.560810924 1
vt 0.533783853 0
vt 0.533783853 1
vt 0.506756783 0
vt 0.506756783 1
vt 0.479729742 0
vt 0.479729742 1
vt 0.452702701 0
vt 0.452702701 1
vt 0.425675631 0
vt 0.425675631 1
vt 0.39864862 0
vt 0.39864862 1
vt 0.371621549 0
vt 0.371621549 1
vt 0.344594508 0
vt 0.344594508 1
vt 0.317567468 0
vt 0.317567468 1
vt 0.290540457 0
vt 0.290540457 1
vt 0.263513446 0
vt 0.263513446 1
vt 0.23648642 0
vt 0.23648642 1
vt 0.209459394 0
vt 0.209459394 1
vt 0.182432368 0
vt 0.182432368 1
vt 0.155405357 0
vt 0.155405357 1
vt 0.128378376 0
vt 0.128378376 1
vt 0.101351313 0
vt 0.101351313 1
vt 0.0743242949 0
vt 0.0743242949 1
vt 0.0472972766 0
vt 0.0472972766 1
vt 0.0202702563 0
vt 0.0202702563 1
vt -0.00675678253 0
vt -0.00675678253 1
vn 0.08633627 0.400601745 0.912175655
vn 0.0173924398 0.409430355 0.912175655
vn 0.0173924379 0.409430355 0.912175655
vn 0.0863362625 0.400601715 0.912175655
vn 0.152796417 0.380248547 0.912175655
vn 0.152796417 0.380248576 0.912175655
vn 0.214860931 0.348956227 0.912175655
vn 0.214860946 0.348956317 0.912175655
vn 0.270744175 0.307625234 0.912175655
vn 0.270744175 0.307625234 0.912175655
vn 0.318838686 0.257444263 0.912175655
vn 0.318838686 0.257444292 0.912175655
vn 0.357760817 0.199857146 0.912175655
vn 0.357760817 0.199857146 0.912175655
vn 0.386390716 0.13652049 0.912175655
vn 0.386390835 0.13652049 0.912175655
vn 0.403904974 0.0692564398 0.912175655
vn 0.403904974 0.0692564398 0.912175655
vn 0.409799635 0 0.912175655
vn 0.409799516 0 0.912175655
vn 0.403905094 -0.0692558885 0.912175655
vn 0.403905064 -0.0692559257 0.912175655
vn 0.386391014 -0.136519849 0.912175655
vn 0.386391014 -0.136519834 0.912175655
vn 0.357761145 -0.199856609 0.912175655
vn 0.357761145 -0.199856594 0.912175655
vn 0.318838984 -0.257443905 0.912175655
vn 0.318838984 -0.257443935 0.912175655
vn 0.270744532 -0.307624996 0.912175655
vn 0.270744503 -0.307624996 0.912175655
vn 0.214861199 -0.348956048 0.912175655
vn 0.214861244 -0.348956108 0.912175655
vn 0.152796715 -0.380248427 0.912175655
vn 0.152796671 -0.380248457 0.912175536
vn 0.0863365009 -0.400601685 0.912175655
vn 0.0863365307 -0.400601715 0.912175655
vn 0.0173925124 -0.409430295 0.912175655
vn 0.0173925143 -0.409430355 0.912175655
vn -0.0520518385 -0.406480342 0.912175655
vn -0.0520518385 -0.406480342 0.912175655
vn -0.119998649 -0.391836733 0.912175655
vn -0.119998649 -0.391836733 0.912175655
vn -0.184493333 -0.365920633 0.912175655
vn -0.184493333 -0.365920663 0.912175655
vn -0.243680596 -0.329477608 0.912175655
vn -0.243680611 -0.329477578 0.912175655
vn -0.295857519 -0.283556014 0.912175655
vn -0.295857549 -0.283556044 0.912175655
vn -0.339523107 -0.229477182 0.912175655
vn -0.339523107 -0.229477212 0.912175655
vn -0.373421133 -0.168796748 0.912175655
vn -0.373421192 -0.168796763 0.912175655
vn -0.396576613 -0.103260346 0.912175655
vn -0.396576583 -0.103260331 0.912175655
vn -0.408323228 -0.0347531848 0.912175655
vn -0.408323288 -0.0347531922 0.912175655
vn -0.408323228 0.0347536802 0.912175655
vn -0.408323199 0.0347536802 0.912175655
vn -0.396576524 0.103260621 0.912175655
vn -0.396576524 0.103260607 0.912175655
vn -0.373420924 0.168797046 0.912175655
vn -0.373420984 0.168797061 0.912175655
vn -0.339522809 0.22947751 0.912175655
vn -0.339522839 0.22947751 0.912175655
vn -0.295857161 0.283556342 0.912175655
vn -0.295857191 0.283556372 0.912175655
vn -0.243680283 0.329477817 0.912175536
vn -0.243680313 0.329477817 0.912175655
vn -0.184493259 0.365920663 0.912175655
vn -0.184493273 0.365920663 0.912175655
vn -0.119998552 0.391836733 0.912175655
vn -0.119998567 0.391836792 0.912175655
vn -0.0520517677 0.406480432 0.912175655
vn -0.0520517603 0.406480432 0.912175655
vn 0.0173924379 0.409430355 0.912175655
vn 0.0173924398 0.409430355 0.912175655
g Cone002_0
f 3/3/3 2/2/2 1/1/1
f 2/2/2 4/4/4 1/1/1
f 1/1/1 4/4/4 5/5/5
f 4/4/4 6/6/6 5/5/5
f 5/5/5 6/6/6 7/7/7
f 6/6/6 8/8/8 7/7/7
f 7/7/7 8/8/8 9/9/9
f 8/8/8 10/10/10 9/9/9
f 9/9/9 10/10/10 11/11/11
f 10/10/10 12/12/12 11/11/11
f 11/11/11 12/12/12 13/13/13
f 12/12/12 14/14/14 13/13/13
f 13/13/13 14/14/14 15/15/15
f 14/14/14 16/16/16 15/15/15
f 15/15/15 16/16/16 17/17/17
f 16/16/16 18/18/18 17/17/17
f 17/17/17 18/18/18 19/19/19
f 18/18/18 20/20/20 19/19/19
f 19/19/19 20/20/20 21/21/21
f 20/20/20 22/22/22 21/21/21
f 21/21/21 22/22/22 23/23/23
f 22/22/22 24/24/24 23/23/23
f 23/23/23 24/24/24 25/25/25
f 24/24/24 26/26/26 25/25/25
f 25/25/25 26/26/26 27/27/27
f 26/26/26 28/28/28 27/27/27
f 27/27/27 28/28/28 29/29/29
f 28/28/28 30/30/30 29/29/29
f 29/29/29 30/30/30 31/31/31
f 30/30/30 32/32/32 31/31/31
f 31/31/31 32/32/32 33/33/33
f 32/32/32 34/34/34 33/33/33
f 33/33/33 34/34/34 35/35/35
f 34/34/34 36/36/36 35/35/35
f 35/35/35 36/36/36 37/37/37
f 36/36/36 38/38/38 37/37/37
f 37/37/37 38/38/38 39/39/39
f 38/38/38 40/40/40 39/39/39
f 39/39/39 40/40/40 41/41/41
f 40/40/40 42/42/42 41/41/41
f 41/41/41 42/42/42 43/43/43
f 42/42/42 44/44/44 43/43/43
f 43/43/43 44/44/44 45/45/45
f 44/44/44 46/46/46 45/45/45
f 45/45/45 46/46/46 47/47/47
f 46/46/46 48/48/48 47/47/47
f 47/47/47 48/48/48 49/49/49
f 48/48/48 50/50/50 49/49/49
f 49/49/49 50/50/50 51/51/51
f 50/50/50 52/52/52 51/51/51
f 51/51/51 52/52/52 53/53/53
f 52/52/52 54/54/54 53/53/53
f 53/53/53 54/54/54 55/55/55
f 54/54/54 56/56/56 55/55/55
f 55/55/55 56/56/56 57/57/57
f 56/56/56 58/58/58 57/57/57
f 57/57/57 58/58/58 59/59/59
f 58/58/58 60/60/60 59/59/59
f 59/59/59 60/60/60 61/61/61
f 60/60/60 62/62/62 61/61/61
f 61/61/61 62/62/62 63/63/63
f 62/62/62 64/64/64 63/63/63
f 63/63/63 64/64/64 65/65/65
f 64/64/64 66/66/66 65/65/65
f 65/65/65 66/66/66 67/67/67
f 66/66/66 68/68/68 67/67/67
f 67/67/67 68/68/68 69/69/69
f 68/68/68 70/70/70 69/69/69
f 69/69/69 70/70/70 71/71/71
f 70/70/70 72/72/72 71/71/71
f 71/71/71 72/72/72 73/73/73
f 72/72/72 74/74/74 73/73/73
f 73/73/73 74/74/74 75/75/75
f 74/74/74 76/76/76 75/75/75
