g Plane012
v -0.277610451 -0.244119659 0
v -0.293101162 -0.257349998 0
v -0.314064801 -0.23280476 0
v -0.29857406 -0.219574407 0
v -0.332244664 -0.204261228 0
v -0.314874977 -0.193617061 0
v -0.349581331 -0.175184742 0
v -0.33076039 -0.167388842 0
v -0.361934006 -0.145362705 0
v -0.343113065 -0.137566805 0
v -0.373796403 -0.113700747 0
v -0.353987634 -0.108945079 0
v -0.381331891 -0.082313396 0
v -0.361523122 -0.0775577277 0
v -0.387355566 -0.0490684025 0
v -0.367046744 -0.0474700704 0
v -0.389888138 -0.0168887451 0
v -0.369579315 -0.0152904121 0
v -0.389888108 0.0168892182 0
v -0.369579285 0.0152908815 0
v -0.387355506 0.0490688272 0
v -0.367046684 0.0474704877 0
v -0.381331772 0.0823137984 0
v -0.361523002 0.07755813 0
v -0.373796344 0.113701098 0
v -0.353987575 0.108945429 0
v -0.361933887 0.145363033 0
v -0.343112946 0.137567148 0
v -0.349581182 0.175185084 0
v -0.330760241 0.167389199 0
v -0.332244366 0.204261661 0
v -0.314874709 0.193617478 0
v -0.314064473 0.232805088 0
v -0.298573762 0.219574749 0
v -0.293100864 0.257350355 0
v -0.277610123 0.244120002 0
vt 0 0
vt 0 1
vt 0.0588235296 1
vt 0.0588235296 0
vt 0.117647059 1
vt 0.117647059 0
vt 0.176470593 1
vt 0.176470593 0
vt 0.235294119 1
vt 0.235294119 0
vt 0.294117659 1
vt 0.294117659 0
vt 0.352941185 1
vt 0.352941185 0
vt 0.411764711 1
vt 0.411764711 0
vt 0.470588237 1
vt 0.470588237 0
vt 0.529411793 1
vt 0.529411793 0
vt 0.588235319 1
vt 0.588235319 0
vt 0.647058845 1
vt 0.647058845 0
vt 0.70588237 1
vt 0.70588237 0
vt 0.764705896 1
vt 0.764705896 0
vt 0.823529422 1
vt 0.823529422 0
vt 0.882352948 1
vt 0.882352948 0
vt 0.941176474 1
vt 0.941176474 0
vt 1 1
vt 1 0
vn -0 0 1
vn -0 0 1
vn -0 0 1
vn -0 0 1
vn -0 0 1
vn -0 0 1
vn -0 0 1
vn -0 0 1
vn -0 0 1
vn -0 0 1
vn -0 0 1
vn -0 0 1
vn -0 0 1
vn -0 0 1
vn -0 0 1
vn -0 0 1
vn -0 0 1
vn -0 0 1
vn -0 0 1
vn -0 0 1
vn -0 0 1
vn -0 0 1
vn -0 0 1
vn -0 0 1
vn -0 0 1
vn -0 0 1
vn -0 0 1
vn -0 0 1
vn -0 0 1
vn -0 0 1
vn -0 0 1
vn -0 0 1
vn -0 0 1
vn -0 0 1
vn -0 0 1
vn -0 0 1
g Plane012_0
f 3/3/3 2/2/2 1/1/1
f 4/4/4 3/3/3 1/1/1
f 5/5/5 3/3/3 4/4/4
f 6/6/6 5/5/5 4/4/4
f 7/7/7 5/5/5 6/6/6
f 8/8/8 7/7/7 6/6/6
f 9/9/9 7/7/7 8/8/8
f 10/10/10 9/9/9 8/8/8
f 11/11/11 9/9/9 10/10/10
f 12/12/12 11/11/11 10/10/10
f 13/13/13 11/11/11 12/12/12
f 14/14/14 13/13/13 12/12/12
f 15/15/15 13/13/13 14/14/14
f 16/16/16 15/15/15 14/14/14
f 17/17/17 15/15/15 16/16/16
f 18/18/18 17/17/17 16/16/16
f 19/19/19 17/17/17 18/18/18
f 20/20/20 19/19/19 18/18/18
f 21/21/21 19/19/19 20/20/20
f 22/22/22 21/21/21 20/20/20
f 23/23/23 21/21/21 22/22/22
f 24/24/24 23/23/23 22/22/22
f 25/25/25 23/23/23 24/24/24
f 26/26/26 25/25/25 24/24/24
f 27/27/27 25/25/25 26/26/26
f 28/28/28 27/27/27 26/26/26
f 29/29/29 27/27/27 28/28/28
f 30/30/30 29/29/29 28/28/28
f 31/31/31 29/29/29 30/30/30
f 32/32/32 31/31/31 30/30/30
f 33/33/33 31/31/31 32/32/32
f 34/34/34 33/33/33 32/32/32
f 35/35/35 33/33/33 34/34/34
f 36/36/36 35/35/35 34/34/34
