g Plane008
v 0.0331770591 -0.306998253 0
v 0.044344984 -0.4489007 0
v -0.0156519134 -0.451158851 0
v -0.00448393449 -0.309256405 0
v -0.0644808784 -0.447315902 0
v -0.0533128977 -0.305413514 0
v -0.123155355 -0.434244275 0
v -0.0899264589 -0.295835972 0
v -0.1795865 -0.413767517 0
v -0.125114873 -0.282261401 0
v -0.232889488 -0.386225849 0
v -0.158516392 -0.264860034 0
v -0.282224447 -0.352056652 0
v -0.189781249 -0.243819565 0
v -0.326805711 -0.311789513 0
v -0.218568608 -0.21934627 0
v -0.358615577 -0.274544924 0
v -0.250378489 -0.182101697 0
v -0.391502708 -0.224278465 0
v -0.270136863 -0.149905413 0
v -0.417632312 -0.170256004 0
v -0.286126196 -0.115784407 0
v -0.436601877 -0.11333517 0
v -0.298193574 -0.0801062211 0
v -0.448108315 -0.0544127226 0
v -0.306205899 -0.0432448052 0
v -0.451951176 0.00558414403 0
v -0.310048789 -0.00558379386 0
v -0.448108315 0.0544130765 0
v -0.306205839 0.0432451367 0
v -0.436601788 0.113335453 0
v -0.298193485 0.0801064968 0
v -0.417632192 0.170256287 0
v -0.286126077 0.115784682 0
v -0.39150247 0.224278852 0
v -0.270136684 0.149905667 0
v -0.358615369 0.274545193 0
v -0.250378281 0.18210195 0
v -0.326805472 0.311789781 0
v -0.218568385 0.219346538 0
v -0.282224149 0.352056921 0
v -0.189780951 0.243819773 0
v -0.232889131 0.386226058 0
v -0.158516005 0.264860272 0
v -0.179586172 0.413767666 0
v -0.125114575 0.282261491 0
v -0.12315508 0.434244335 0
v -0.0899261683 0.295836002 0
v -0.06448064 0.447315961 0
v -0.0533127412 0.305413514 0
v -0.0156516712 0.451158881 0
v -0.00448377524 0.309256434 0
v 0.0443451591 0.44890064 0
v 0.0331771821 0.306998223 0
vt 0 0
vt 0 1
vt 0.0384615399 1
vt 0.0384615399 0
vt 0.0769230798 1
vt 0.0769230798 0
vt 0.115384623 1
vt 0.115384623 0
vt 0.15384616 1
vt 0.15384616 0
vt 0.192307696 1
vt 0.192307696 0
vt 0.230769232 1
vt 0.230769232 0
vt 0.269230783 1
vt 0.269230783 0
vt 0.307692319 1
vt 0.307692319 0
vt 0.346153855 1
vt 0.346153855 0
vt 0.384615391 1
vt 0.384615391 0
vt 0.423076928 1
vt 0.423076928 0
vt 0.461538464 1
vt 0.461538464 0
vt 0.5 1
vt 0.5 0
vt 0.538461566 1
vt 0.538461566 0
vt 0.576923132 1
vt 0.576923132 0
vt 0.615384698 1
vt 0.615384698 0
vt 0.653846264 1
vt 0.653846264 0
vt 0.69230783 1
vt 0.69230783 0
vt 0.730769396 1
vt 0.730769396 0
vt 0.769230962 1
vt 0.769230962 0
vt 0.807692528 1
vt 0.807692528 0
vt 0.846154094 1
vt 0.846154094 0
vt 0.88461566 1
vt 0.88461566 0
vt 0.923077226 1
vt 0.923077226 0
vt 0.961538792 1
vt 0.961538792 0
vt 1.00000036 1
vt 1.00000036 0
vn -0 0 1
vn -0 0 1
vn -0 0 1
vn -0 0 1
vn -0 0 1
vn -0 0 1
vn -0 0 1
vn -0 0 1
vn -0 0 1
vn -0 0 1
vn -0 0 1
vn -0 0 1
vn -0 0 1
vn -0 0 1
vn -0 0 1
vn -0 0 1
vn -0 0 1
vn -0 0 1
vn -0 0 1
vn -0 0 1
vn -0 0 1
vn -0 0 1
vn -0 0 1
vn -0 0 1
vn -0 0 1
vn -0 0 1
vn -0 0 1
vn -0 0 1
vn -0 0 1
vn -0 0 1
vn -0 0 1
vn -0 0 1
vn -0 0 1
vn -0 0 1
vn -0 0 1
vn -0 0 1
vn -0 0 1
vn -0 0 1
vn -0 0 1
vn -0 0 1
vn -0 0 1
vn -0 0 1
vn -0 0 1
vn -0 0 1
vn -0 0 1
vn -0 0 1
vn -0 0 1
vn -0 0 1
vn -0 0 1
vn -0 0 1
vn -0 0 1
vn -0 0 1
vn -0 0 1
vn -0 0 1
g Plane008_0
f 3/3/3 2/2/2 1/1/1
f 4/4/4 3/3/3 1/1/1
f 5/5/5 3/3/3 4/4/4
f 6/6/6 5/5/5 4/4/4
f 7/7/7 5/5/5 6/6/6
f 8/8/8 7/7/7 6/6/6
f 9/9/9 7/7/7 8/8/8
f 10/10/10 9/9/9 8/8/8
f 11/11/11 9/9/9 10/10/10
f 12/12/12 11/11/11 10/10/10
f 13/13/13 11/11/11 12/12/12
f 14/14/14 13/13/13 12/12/12
f 15/15/15 13/13/13 14/14/14
f 16/16/16 15/15/15 14/14/14
f 17/17/17 15/15/15 16/16/16
f 18/18/18 17/17/17 16/16/16
f 19/19/19 17/17/17 18/18/18
f 20/20/20 19/19/19 18/18/18
f 21/21/21 19/19/19 20/20/20
f 22/22/22 21/21/21 20/20/20
f 23/23/23 21/21/21 22/22/22
f 24/24/24 23/23/23 22/22/22
f 25/25/25 23/23/23 24/24/24
f 26/26/26 25/25/25 24/24/24
f 27/27/27 25/25/25 26/26/26
f 28/28/28 27/27/27 26/26/26
f 29/29/29 27/27/27 28/28/28
f 30/30/30 29/29/29 28/28/28
f 31/31/31 29/29/29 30/30/30
f 32/32/32 31/31/31 30/30/30
f 33/33/33 31/31/31 32/32/32
f 34/34/34 33/33/33 32/32/32
f 35/35/35 33/33/33 34/34/34
f 36/36/36 35/35/35 34/34/34
f 37/37/37 35/35/35 36/36/36
f 38/38/38 37/37/37 36/36/36
f 39/39/39 37/37/37 38/38/38
f 40/40/40 39/39/39 38/38/38
f 41/41/41 39/39/39 40/40/40
f 42/42/42 41/41/41 40/40/40
f 43/43/43 41/41/41 42/42/42
f 44/44/44 43/43/43 42/42/42
f 45/45/45 43/43/43 44/44/44
f 46/46/46 45/45/45 44/44/44
f 47/47/47 45/45/45 46/46/46
f 48/48/48 47/47/47 46/46/46
f 49/49/49 47/47/47 48/48/48
f 50/50/50 49/49/49 48/48/48
f 51/51/51 49/49/49 50/50/50
f 52/52/52 51/51/51 50/50/50
f 53/53/53 51/51/51 52/52/52
f 54/54/54 53/53/53 52/52/52
