g 平面
v 1.75 0 -1.52989841E-07
v 1.75 -0.25 -1.31134158E-07
v 1.75 -0.5 -1.09278467E-07
v -2 0 0
v -1.75 0 0
v -1.75 0.25 0
v -1.75 0.5 0
v -2 0.5 0
v -2 0.25 0
v -1.5 0.5 0
v -1.5 0.25 0
v -1.25 0.5 0
v -1.25 0.25 0
v -1.25 1.25 0
v -1.25 0.75 0
v -1.25 1 0
v -1 1.25 0
v -1 1 0
v -0.75 1.25 0
v -1 0.75 0
v -1 0.5 0
v -1 0.25 0
v -0.75 1 0
v -0.5 1.25 0
v -0.5 1 0
v -0.5 2 0
v -0.5 1.5 0
v -0.5 1.75 0
v -0.25 2 0
v -0.25 1.75 0
v -0 2 0
v -0 1.75 0
v -0.25 1.5 0
v -0.25 1.25 0
v -0.25 1 0
v -0.25 -2 -1.74845553E-07
v -0 -2 -1.74845553E-07
v -0 -1.75 -1.52989841E-07
v -0.25 -1.75 -1.52989841E-07
v -0.5 -2 -1.74845553E-07
v -0.25 -1.5 -1.31134158E-07
v -0.25 -1.25 -1.09278467E-07
v -0.25 -1 -8.74227766E-08
v -0.5 -1 -8.74227766E-08
v -0.5 -1.75 -1.52989841E-07
v -0.5 -1.5 -1.31134158E-07
v -0.5 -1.25 -1.09278467E-07
v -0.75 -1.25 -1.09278467E-07
v -0.75 -1 -8.74227766E-08
v -1 -1.25 -1.09278467E-07
v -1 -1 -8.74227766E-08
v -1.25 -1.25 -1.09278467E-07
v -1 -0.75 -6.55670789E-08
v -1 -0.5 -4.37113883E-08
v -1 -0.25 -2.18556941E-08
v -1.25 -0.25 -2.18556941E-08
v -1.25 -1 -8.74227766E-08
v -1.25 -0.75 -6.55670789E-08
v -1.25 -0.5 -4.37113883E-08
v -1.5 -0.5 -4.37113883E-08
v -1.5 -0.25 -2.18556941E-08
v -1.75 -0.5 -4.37113883E-08
v -1.75 -0.25 -2.18556941E-08
v -2 -0.5 -4.37113883E-08
v -1.75 0 0
v -2 0 0
v -2 -0.25 -2.18556941E-08
v 1.75 0 -1.52989841E-07
v 2 0 -1.74845553E-07
v 2 0.25 -1.74845553E-07
v 2 0.5 -1.74845553E-07
v 1.75 0.5 -1.52989841E-07
v 1.75 0.25 -1.52989841E-07
v 1.5 0.25 -1.31134158E-07
v 1.5 0.5 -1.31134158E-07
v 1.25 0.25 -1.09278467E-07
v 1.25 0.5 -1.09278467E-07
v 1 0.25 -8.74227766E-08
v 1.25 0.75 -1.09278467E-07
v 1.25 1 -1.09278467E-07
v 1.25 1.25 -1.09278467E-07
v 1 1.25 -8.74227766E-08
v 1 0.5 -8.74227766E-08
v 1 0.75 -8.74227766E-08
v 1 1 -8.74227766E-08
v 0.75 1 -6.55670789E-08
v 0.75 1.25 -6.55670789E-08
v 0.5 1 -4.37113883E-08
v 0.5 1.25 -4.37113883E-08
v 0.25 1 -2.18556941E-08
v 0.5 1.5 -4.37113883E-08
v 0.5 1.75 -4.37113883E-08
v 0.5 2 -4.37113883E-08
v 0.25 2 -2.18556941E-08
v 0.25 1.25 -2.18556941E-08
v 0.25 1.5 -2.18556941E-08
v 0.25 1.75 -2.18556941E-08
v -0 1.75 0
v -0 2 0
v 0.25 -1.75 1.31134158E-07
v 1.33747968E-14 -1.75 1.52989841E-07
v 1.52854837E-14 -2 1.74845553E-07
v 0.25 -2 1.52989841E-07
v 0.25 -1 6.55670789E-08
v 0.25 -1.5 1.0927846E-07
v 0.25 -1.25 8.74227766E-08
v 0.5 -1 4.37113776E-08
v 0.5 -1.25 6.55670789E-08
v 0.75 -1 2.18556977E-08
v 0.5 -1.5 8.74227553E-08
v 0.5 -1.75 1.0927846E-07
v 0.5 -2 1.31134158E-07
v 0.75 -1.25 4.37113954E-08
v 1 -1 0
v 1 -1.25 2.18556977E-08
v 1 -0.25 -6.55670789E-08
v 1 -0.75 -2.18556977E-08
v 1 -0.5 -4.37113883E-08
v 1.25 -0.25 -8.74227766E-08
v 1.25 -0.5 -6.5567086E-08
v 1.5 -0.25 -1.0927846E-07
v 1.25 -0.75 -4.37113954E-08
v 1.25 -1 -2.18556977E-08
v 1.25 -1.25 0
v 1.5 -0.5 -8.74227695E-08
v 1.75 -0.25 -1.31134158E-07
v 1.75 -0.5 -1.09278467E-07
v 2 -0.5 -1.31134158E-07
v 2 -0.25 -1.52989841E-07
v 2 0 -1.74845553E-07
v 1.75 0 -1.52989841E-07
vt 0.125 0
vt 0.124999993 0.124999993
vt 0.124999993 0.249999985
vt 0 0
vt 0.125 0
vt 0.124999993 0.124999993
vt 0.124999993 0.249999985
vt 0 0.249999985
vt 0 0.124999993
vt 0.249999985 0.249999985
vt 0.249999985 0.124999993
vt 0.375 0.25
vt 0.375 0.125
vt 0.375 0.625
vt 0.375 0.375
vt 0.375 0.5
vt 0.5 0.625
vt 0.5 0.5
vt 0.625 0.625
vt 0.5 0.375
vt 0.5 0.25
vt 0.5 0.125
vt 0.625 0.5
vt 0.75 0.625
vt 0.75 0.5
vt 0.75 1
vt 0.75 0.75
vt 0.75 0.875
vt 0.875 1
vt 0.875 0.875
vt 1 1
vt 1 0.875
vt 0.875 0.75
vt 0.875 0.625
vt 0.875 0.5
vt 0.875 1
vt 1 1
vt 1 0.875
vt 0.875 0.875
vt 0.75 1
vt 0.875 0.75
vt 0.875 0.625
vt 0.875 0.5
vt 0.75 0.5
vt 0.75 0.875
vt 0.75 0.75
vt 0.75 0.625
vt 0.625 0.625
vt 0.625 0.5
vt 0.5 0.625
vt 0.5 0.5
vt 0.375 0.625
vt 0.5 0.375
vt 0.5 0.25
vt 0.5 0.125
vt 0.375 0.125
vt 0.375 0.5
vt 0.375 0.375
vt 0.375 0.25
vt 0.249999985 0.249999985
vt 0.249999985 0.124999993
vt 0.124999993 0.249999985
vt 0.124999993 0.124999993
vt 0 0.249999985
vt 0.125 0
vt 0 0
vt 0 0.124999993
vt 0.125 0
vt 0 0
vt 0 0.124999993
vt 0 0.249999985
vt 0.124999993 0.249999985
vt 0.124999993 0.124999993
vt 0.249999985 0.124999993
vt 0.249999985 0.249999985
vt 0.375 0.125
vt 0.375 0.25
vt 0.5 0.125
vt 0.375 0.375
vt 0.375 0.5
vt 0.375 0.625
vt 0.5 0.625
vt 0.5 0.25
vt 0.5 0.375
vt 0.5 0.5
vt 0.625 0.5
vt 0.625 0.625
vt 0.75 0.5
vt 0.75 0.625
vt 0.875 0.5
vt 0.75 0.75
vt 0.75 0.875
vt 0.75 1
vt 0.875 1
vt 0.875 0.625
vt 0.875 0.75
vt 0.875 0.875
vt 1 0.875
vt 1 1
vt 0.875 0.875
vt 1 0.875
vt 1 1
vt 0.875 1
vt 0.875 0.5
vt 0.875 0.75
vt 0.875 0.625
vt 0.75 0.5
vt 0.75 0.625
vt 0.625 0.5
vt 0.75 0.75
vt 0.75 0.875
vt 0.75 1
vt 0.625 0.625
vt 0.5 0.5
vt 0.5 0.625
vt 0.5 0.125
vt 0.5 0.375
vt 0.5 0.25
vt 0.375 0.125
vt 0.375 0.25
vt 0.249999985 0.124999993
vt 0.375 0.375
vt 0.375 0.5
vt 0.375 0.625
vt 0.249999985 0.249999985
vt 0.124999993 0.124999993
vt 0.124999993 0.249999985
vt 0 0.249999985
vt 0 0.124999993
vt 0 0
vt 0.125 0
vn -0 0 -1
vn -0 0 -1
vn -0 0 -1
vn -0 0 -1
vn -0 0 -1
vn -0 0 -1
vn -0 0 -1
vn -0 0 -1
vn -0 0 -1
vn -0 0 -1
vn -0 0 -1
vn -0 0 -1
vn -0 0 -1
vn -0 0 -1
vn -0 0 -1
vn -0 0 -1
vn -0 0 -1
vn -0 0 -1
vn -0 0 -1
vn -0 0 -1
vn -0 0 -1
vn -0 0 -1
vn -0 0 -1
vn -0 0 -1
vn -0 0 -1
vn -0 0 -1
vn -0 0 -1
vn -0 0 -1
vn -0 0 -1
vn -0 0 -1
vn -0 0 -1
vn -0 0 -1
vn -0 0 -1
vn -0 0 -1
vn -0 0 -1
vn -0 0 -1
vn -0 0 -1
vn -0 0 -1
vn -0 0 -1
vn -0 0 -1
vn -0 0 -1
vn -0 0 -1
vn -0 0 -1
vn -0 0 -1
vn -0 0 -1
vn -0 0 -1
vn -0 0 -1
vn -0 0 -1
vn -0 0 -1
vn -0 0 -1
vn -0 0 -1
vn -0 0 -1
vn -0 0 -1
vn -0 0 -1
vn -0 0 -1
vn -0 0 -1
vn -0 0 -1
vn -0 0 -1
vn -0 0 -1
vn -0 0 -1
vn -0 0 -1
vn -0 0 -1
vn -0 0 -1
vn -0 0 -1
vn -0 0 -1
vn -0 0 -1
vn -0 0 -1
vn -0 0 -1
vn -0 0 -1
vn -0 0 -1
vn -0 0 -1
vn -0 0 -1
vn -0 0 -1
vn -0 0 -1
vn -0 0 -1
vn -0 0 -1
vn -0 0 -1
vn -0 0 -1
vn -0 0 -1
vn -0 0 -1
vn -0 0 -1
vn -0 0 -1
vn -0 0 -1
vn -0 0 -1
vn -0 0 -1
vn -0 0 -1
vn -0 0 -1
vn -0 0 -1
vn -0 0 -1
vn -0 0 -1
vn -0 0 -1
vn -0 0 -1
vn -0 0 -1
vn -0 0 -1
vn -0 0 -1
vn -0 0 -1
vn -0 0 -1
vn -0 0 -1
vn -0 0 -1
vn -0 0 -1
vn -0 0 -1
vn -0 0 -1
vn -0 0 -1
vn -0 0 -1
vn -0 0 -1
vn -0 0 -1
vn -0 0 -1
vn -0 0 -1
vn -0 0 -1
vn -0 0 -1
vn -0 0 -1
vn -0 0 -1
vn -0 0 -1
vn -0 0 -1
vn -0 0 -1
vn -0 0 -1
vn -0 0 -1
vn -0 0 -1
vn -0 0 -1
vn -0 0 -1
vn -0 0 -1
vn -0 0 -1
vn -0 0 -1
vn -0 0 -1
vn -0 0 -1
vn -0 0 -1
vn -0 0 -1
vn -0 0 -1
vn -0 0 -1
vn -0 0 -1
vn -0 0 -1
g 平面_0
f 3/3/3 2/2/2 1/1/1
f 6/6/6 5/5/5 4/4/4
f 4/4/4 7/7/7 6/6/6
f 4/4/4 8/8/8 7/7/7
f 4/4/4 9/9/9 8/8/8
f 6/6/6 7/7/7 10/10/10
f 11/11/11 6/6/6 10/10/10
f 11/11/11 10/10/10 12/12/12
f 12/12/12 13/13/13 11/11/11
f 13/13/13 12/12/12 14/14/14
f 12/12/12 15/15/15 14/14/14
f 15/15/15 16/16/16 14/14/14
f 13/13/13 14/14/14 17/17/17
f 13/13/13 17/17/17 18/18/18
f 18/18/18 17/17/17 19/19/19
f 13/13/13 18/18/18 20/20/20
f 13/13/13 20/20/20 21/21/21
f 21/21/21 22/22/22 13/13/13
f 23/23/23 18/18/18 19/19/19
f 23/23/23 19/19/19 24/24/24
f 24/24/24 25/25/25 23/23/23
f 25/25/25 24/24/24 26/26/26
f 24/24/24 27/27/27 26/26/26
f 27/27/27 28/28/28 26/26/26
f 25/25/25 26/26/26 29/29/29
f 25/25/25 29/29/29 30/30/30
f 30/30/30 29/29/29 31/31/31
f 31/31/31 32/32/32 30/30/30
f 25/25/25 30/30/30 33/33/33
f 25/25/25 33/33/33 34/34/34
f 34/34/34 35/35/35 25/25/25
f 38/38/38 37/37/37 36/36/36
f 36/36/36 39/39/39 38/38/38
f 36/36/36 40/40/40 39/39/39
f 40/40/40 41/41/41 39/39/39
f 40/40/40 42/42/42 41/41/41
f 40/40/40 43/43/43 42/42/42
f 40/40/40 44/44/44 43/43/43
f 40/40/40 45/45/45 44/44/44
f 45/45/45 46/46/46 44/44/44
f 46/46/46 47/47/47 44/44/44
f 47/47/47 48/48/48 44/44/44
f 48/48/48 49/49/49 44/44/44
f 48/48/48 50/50/50 49/49/49
f 50/50/50 51/51/51 49/49/49
f 50/50/50 52/52/52 51/51/51
f 52/52/52 53/53/53 51/51/51
f 52/52/52 54/54/54 53/53/53
f 52/52/52 55/55/55 54/54/54
f 52/52/52 56/56/56 55/55/55
f 52/52/52 57/57/57 56/56/56
f 57/57/57 58/58/58 56/56/56
f 58/58/58 59/59/59 56/56/56
f 59/59/59 60/60/60 56/56/56
f 60/60/60 61/61/61 56/56/56
f 60/60/60 62/62/62 61/61/61
f 62/62/62 63/63/63 61/61/61
f 62/62/62 64/64/64 63/63/63
f 64/64/64 65/65/65 63/63/63
f 64/64/64 66/66/66 65/65/65
f 64/64/64 67/67/67 66/66/66
f 70/70/70 69/69/69 68/68/68
f 68/68/68 71/71/71 70/70/70
f 68/68/68 72/72/72 71/71/71
f 68/68/68 73/73/73 72/72/72
f 73/73/73 74/74/74 72/72/72
f 74/74/74 75/75/75 72/72/72
f 74/74/74 76/76/76 75/75/75
f 76/76/76 77/77/77 75/75/75
f 76/76/76 78/78/78 77/77/77
f 78/78/78 79/79/79 77/77/77
f 78/78/78 80/80/80 79/79/79
f 78/78/78 81/81/81 80/80/80
f 78/78/78 82/82/82 81/81/81
f 78/78/78 83/83/83 82/82/82
f 83/83/83 84/84/84 82/82/82
f 84/84/84 85/85/85 82/82/82
f 85/85/85 86/86/86 82/82/82
f 86/86/86 87/87/87 82/82/82
f 86/86/86 88/88/88 87/87/87
f 88/88/88 89/89/89 87/87/87
f 88/88/88 90/90/90 89/89/89
f 90/90/90 91/91/91 89/89/89
f 90/90/90 92/92/92 91/91/91
f 90/90/90 93/93/93 92/92/92
f 90/90/90 94/94/94 93/93/93
f 90/90/90 95/95/95 94/94/94
f 95/95/95 96/96/96 94/94/94
f 96/96/96 97/97/97 94/94/94
f 97/97/97 98/98/98 94/94/94
f 98/98/98 99/99/99 94/94/94
f 102/102/102 101/101/101 100/100/100
f 100/100/100 103/103/103 102/102/102
f 103/103/103 100/100/100 104/104/104
f 100/100/100 105/105/105 104/104/104
f 105/105/105 106/106/106 104/104/104
f 103/103/103 104/104/104 107/107/107
f 103/103/103 107/107/107 108/108/108
f 108/108/108 107/107/107 109/109/109
f 103/103/103 108/108/108 110/110/110
f 103/103/103 110/110/110 111/111/111
f 111/111/111 112/112/112 103/103/103
f 113/113/113 108/108/108 109/109/109
f 113/113/113 109/109/109 114/114/114
f 114/114/114 115/115/115 113/113/113
f 115/115/115 114/114/114 116/116/116
f 114/114/114 117/117/117 116/116/116
f 117/117/117 118/118/118 116/116/116
f 115/115/115 116/116/116 119/119/119
f 115/115/115 119/119/119 120/120/120
f 120/120/120 119/119/119 121/121/121
f 115/115/115 120/120/120 122/122/122
f 115/115/115 122/122/122 123/123/123
f 123/123/123 124/124/124 115/115/115
f 125/125/125 120/120/120 121/121/121
f 125/125/125 121/121/121 126/126/126
f 126/126/126 127/127/127 125/125/125
f 129/129/129 128/128/128 127/127/127
f 127/127/127 130/130/130 129/129/129
f 127/127/127 131/131/131 130/130/130
