g fx_mesh_plane_045
v -0.362445205 -0.190103516 -1.26999998E-06
v -0.315937787 -0.309700519 -1.26999998E-06
v -0.315937787 -0.174722999 -1.26999998E-06
v -0.415584415 -0.207206488 -1.26999998E-06
v -0.457555294 -0.217857286 -1.26999998E-06
v -0.362445205 -0.338263094 -1.26999998E-06
v -0.415584415 -0.370090693 -1.26999998E-06
v -0.457555294 -0.389960915 -1.26999998E-06
v -0.457555294 -0.392125398 -1.26999998E-06
v -0.415584415 -0.372139186 -1.26999998E-06
v -0.457555294 -0.393422067 -1.26999998E-06
v -0.362445205 -0.340126425 -1.26999998E-06
v -0.315937787 -0.311398059 -1.26999998E-06
v -0.415584415 -0.373366445 -1.26999998E-06
v -0.454364806 -0.413291931 -1.26999998E-06
v -0.362445205 -0.341242731 -1.26999998E-06
v -0.315937787 -0.312415063 -1.26999998E-06
v -0.413482398 -0.386481881 -1.26999998E-06
v -0.444918185 -0.431336462 -1.26999998E-06
v -0.36136806 -0.347996891 -1.26999998E-06
v -0.315716952 -0.313853145 -1.26999998E-06
v -0.407253057 -0.398378372 -1.26999998E-06
v -0.430441946 -0.445292085 -1.26999998E-06
v -0.358167857 -0.354104906 -1.26999998E-06
v -0.315048099 -0.315124005 -1.26999998E-06
v -0.397688895 -0.407598615 -1.26999998E-06
v -0.411998779 -0.454086244 -1.26999998E-06
v -0.353231162 -0.358864367 -1.26999998E-06
v -0.313978493 -0.316155493 -1.26999998E-06
v -0.385534108 -0.413395703 -1.26999998E-06
v -0.394303828 -0.456569791 -1.26999998E-06
v -0.34699586 -0.361839861 -1.26999998E-06
v -0.312690318 -0.316773027 -1.26999998E-06
v -0.373820394 -0.415032208 -1.26999998E-06
v -0.392906249 -0.456569791 -1.26999998E-06
v -0.340919703 -0.362679005 -1.26999998E-06
v -0.311325669 -0.316945821 -1.26999998E-06
v -0.372497618 -0.415032208 -1.26999998E-06
v -0.390644073 -0.456569791 -1.26999998E-06
v -0.339716554 -0.362679005 -1.26999998E-06
v -0.310229599 -0.316945821 -1.26999998E-06
v -0.370356649 -0.415032208 -1.26999998E-06
v 0.334937632 -0.362678945 -1.26999998E-06
v -0.337769002 -0.362679005 -1.26999998E-06
v -0.308455497 -0.316945821 -1.26999998E-06
v 0.304399252 -0.316945761 -1.26999998E-06
v 0.369206011 -0.415032119 -1.26999998E-06
v 0.39077875 -0.456569791 -1.26999998E-06
v 0.393781424 -0.456569791 -1.26999998E-06
v 0.372047842 -0.415032208 -1.26999998E-06
v 0.395941466 -0.456569791 -1.26999998E-06
v 0.337522566 -0.362679005 -1.26999998E-06
v 0.306754142 -0.316945821 -1.26999998E-06
v 0.374092281 -0.415032208 -1.26999998E-06
v 0.397233844 -0.456569791 -1.26999998E-06
v 0.339382201 -0.362679005 -1.26999998E-06
v 0.308448225 -0.316945821 -1.26999998E-06
v 0.375315398 -0.415032119 -1.26999998E-06
v 0.417197347 -0.453346848 -1.26999998E-06
v 0.340494722 -0.362678945 -1.26999998E-06
v 0.309461921 -0.316945761 -1.26999998E-06
v 0.388491243 -0.412908912 -1.26999998E-06
v 0.435224384 -0.443872333 -1.26999998E-06
v 0.347278178 -0.361590862 -1.26999998E-06
v 0.310903311 -0.316722691 -1.26999998E-06
v 0.40037632 -0.406661034 -1.26999998E-06
v 0.449157357 -0.429373294 -1.26999998E-06
v 0.35338065 -0.358381063 -1.26999998E-06
v 0.312173277 -0.316051692 -1.26999998E-06
v 0.409581572 -0.397081941 -1.26999998E-06
v 0.457922488 -0.410913587 -1.26999998E-06
v 0.358132243 -0.353436589 -1.26999998E-06
v 0.313202977 -0.314980567 -1.26999998E-06
v 0.415359527 -0.384916216 -1.26999998E-06
v 0.460377306 -0.393313527 -1.26999998E-06
v 0.361097872 -0.347196043 -1.26999998E-06
v 0.313818246 -0.313691378 -1.26999998E-06
v 0.416977048 -0.373263717 -1.26999998E-06
v 0.460377306 -0.391911566 -1.26999998E-06
v 0.361927271 -0.34114933 -1.26999998E-06
v 0.313989252 -0.312329978 -1.26999998E-06
v 0.416977048 -0.371936917 -1.26999998E-06
v 0.460377365 -0.38964507 -1.26999998E-06
v 0.361927211 -0.339942455 -1.26999998E-06
v 0.313989252 -0.311230481 -1.26999998E-06
v 0.416977167 -0.369791836 -1.26999998E-06
v 0.361927271 0.337299645 -1.26999998E-06
v 0.361927271 -0.337991297 -1.26999998E-06
v 0.313989252 -0.309452921 -1.26999998E-06
v 0.313989252 0.305756003 -1.26999998E-06
v 0.416977048 0.372612029 -1.26999998E-06
v 0.460377306 0.394779623 -1.26999998E-06
v 0.460377306 0.396935612 -1.26999998E-06
v 0.416977048 0.374652416 -1.26999998E-06
v 0.460377306 0.398223698 -1.26999998E-06
v 0.361927271 0.339155704 -1.26999998E-06
v 0.313989252 0.307446927 -1.26999998E-06
v 0.416977048 0.37587148 -1.26999998E-06
v 0.457121849 0.418280125 -1.26999998E-06
v 0.361927271 0.34026444 -1.26999998E-06
v 0.313989252 0.308456987 -1.26999998E-06
v 0.414832413 0.389107406 -1.26999998E-06
v 0.447620213 0.436288923 -1.26999998E-06
v 0.360828251 0.347077101 -1.26999998E-06
v 0.313763976 0.309901804 -1.26999998E-06
v 0.408566535 0.400980622 -1.26999998E-06
v 0.4330993 0.450199306 -1.26999998E-06
v 0.357608974 0.353173792 -1.26999998E-06
v 0.313090682 0.311171025 -1.26999998E-06
v 0.398973137 0.410171032 -1.26999998E-06
v 0.414622694 0.458936363 -1.26999998E-06
v 0.352657139 0.357917786 -1.26999998E-06
v 0.312018067 0.312199116 -1.26999998E-06
v 0.386796236 0.415930271 -1.26999998E-06
v 0.397116303 0.461362869 -1.26999998E-06
v 0.346411258 0.36087355 -1.26999998E-06
v 0.310728222 0.312812239 -1.26999998E-06
v 0.375204176 0.417529196 -1.26999998E-06
v 0.3957102 0.461362958 -1.26999998E-06
v 0.340393573 0.361693412 -1.26999998E-06
v 0.309369594 0.312981099 -1.26999998E-06
v 0.373873353 0.417529404 -1.26999998E-06
v 0.393439502 0.461362958 -1.26999998E-06
v 0.339183062 0.361693621 -1.26999998E-06
v 0.308266848 0.312981188 -1.26999998E-06
v 0.371724248 0.417529404 -1.26999998E-06
v 0.337228239 0.361693621 -1.26999998E-06
v 0.306485951 0.312981188 -1.26999998E-06
v -0.308722526 0.312981099 -1.26999998E-06
v -0.338062406 0.361693412 -1.26999998E-06
v -0.37067911 0.417529404 -1.26999998E-06
v -0.390984863 0.461362958 -1.26999998E-06
v -0.393136561 0.461362869 -1.26999998E-06
v -0.372715414 0.417529196 -1.26999998E-06
v -0.394420385 0.461362958 -1.26999998E-06
v -0.339914709 0.361693412 -1.26999998E-06
v -0.310410112 0.312981099 -1.26999998E-06
v -0.373930663 0.417529404 -1.26999998E-06
v -0.414569557 0.458074898 -1.26999998E-06
v -0.341019779 0.361693412 -1.26999998E-06
v -0.311416924 0.312981099 -1.26999998E-06
v -0.387226164 0.415363163 -1.26999998E-06
v -0.432561964 0.448544651 -1.26999998E-06
v -0.347861528 0.360583454 -1.26999998E-06
v -0.3128649 0.312753588 -1.26999998E-06
v -0.399089098 0.409078479 -1.26999998E-06
v -0.446448892 0.434002042 -1.26999998E-06
v -0.353952795 0.357354432 -1.26999998E-06
v -0.314133525 0.312078238 -1.26999998E-06
v -0.408263832 0.399470538 -1.26999998E-06
v -0.45515728 0.415508509 -1.26999998E-06
v -0.358688772 0.352395296 -1.26999998E-06
v -0.315159827 0.311004013 -1.26999998E-06
v -0.414004087 0.387282759 -1.26999998E-06
v -0.457555294 0.398097068 -1.26999998E-06
v -0.361634791 0.346143931 -1.26999998E-06
v -0.315770745 0.309713364 -1.26999998E-06
v -0.415584415 0.375751764 -1.26999998E-06
v -0.457555294 0.396686673 -1.26999998E-06
v -0.362445205 0.340155721 -1.26999998E-06
v -0.315937787 0.308357865 -1.26999998E-06
v -0.415584415 0.374416858 -1.26999998E-06
v -0.457555294 0.394411713 -1.26999998E-06
v -0.362445205 0.338941365 -1.26999998E-06
v -0.315937787 0.307251722 -1.26999998E-06
v -0.415584415 0.372263789 -1.26999998E-06
v -0.362445205 0.336983025 -1.26999998E-06
v -0.315937787 0.305467486 -1.26999998E-06
v -0.315937787 -0.17494078 -1.26999998E-06
v -0.362445205 -0.190342575 -1.26999998E-06
v -0.415584415 -0.207469285 -1.26999998E-06
v -0.457555294 -0.21813494 -1.26999998E-06
vt 0 0.333333343
vt 0.06333334 0
vt 0 0
vt 0 0.666666687
vt 0 1
vt 0.06333334 0.333333343
vt 0.06333334 0.666666687
vt 0.06333334 1
vt 0.0666666701 1
vt 0.0666666701 0.666666687
vt 0.0700000003 1
vt 0.0666666701 0.333333343
vt 0.0666666701 0
vt 0.0700000003 0.666666687
vt 0.0733333305 1
vt 0.0700000003 0.333333343
vt 0.0700000003 0
vt 0.0733333305 0.666666687
vt 0.0766666606 1
vt 0.0733333305 0.333333343
vt 0.0733333305 0
vt 0.0766666606 0.666666687
vt 0.0799999908 1
vt 0.0766666606 0.333333343
vt 0.0766666606 0
vt 0.0799999908 0.666666687
vt 0.0833333209 1
vt 0.0799999908 0.333333343
vt 0.0799999908 0
vt 0.0833333209 0.666666687
vt 0.0866666511 1
vt 0.0833333209 0.333333343
vt 0.0833333209 0
vt 0.0866666511 0.666666687
vt 0.0899999812 1
vt 0.0866666511 0.333333343
vt 0.0866666511 0
vt 0.0899999812 0.666666687
vt 0.0933333114 1
vt 0.0899999812 0.333333343
vt 0.0899999812 0
vt 0.0933333114 0.666666687
vt 0.309999794 0.333333343
vt 0.0933333114 0.333333343
vt 0.0933333114 0
vt 0.309999794 0
vt 0.309999794 0.666666687
vt 0.309999794 1
vt 0.313333124 1
vt 0.313333124 0.666666687
vt 0.316666454 1
vt 0.313333124 0.333333343
vt 0.313333124 0
vt 0.316666454 0.666666687
vt 0.319999784 1
vt 0.316666454 0.333333343
vt 0.316666454 0
vt 0.319999784 0.666666687
vt 0.323333114 1
vt 0.319999784 0.333333343
vt 0.319999784 0
vt 0.323333114 0.666666687
vt 0.326666445 1
vt 0.323333114 0.333333343
vt 0.323333114 0
vt 0.326666445 0.666666687
vt 0.329999775 1
vt 0.326666445 0.333333343
vt 0.326666445 0
vt 0.329999775 0.666666687
vt 0.333333105 1
vt 0.329999775 0.333333343
vt 0.329999775 0
vt 0.333333105 0.666666687
vt 0.336666435 1
vt 0.333333105 0.333333343
vt 0.333333105 0
vt 0.336666435 0.666666687
vt 0.339999765 1
vt 0.336666435 0.333333343
vt 0.336666435 0
vt 0.339999765 0.666666687
vt 0.343333095 1
vt 0.339999765 0.333333343
vt 0.339999765 0
vt 0.343333095 0.666666687
vt 0.563332915 0.333333343
vt 0.343333095 0.333333343
vt 0.343333095 0
vt 0.563332915 0
vt 0.563332915 0.666666687
vt 0.563332915 1
vt 0.566666245 1
vt 0.566666245 0.666666687
vt 0.569999576 1
vt 0.566666245 0.333333343
vt 0.566666245 0
vt 0.569999576 0.666666687
vt 0.573332906 1
vt 0.569999576 0.333333343
vt 0.569999576 0
vt 0.573332906 0.666666687
vt 0.576666236 1
vt 0.573332906 0.333333343
vt 0.573332906 0
vt 0.576666236 0.666666687
vt 0.579999566 1
vt 0.576666236 0.333333343
vt 0.576666236 0
vt 0.579999566 0.666666687
vt 0.583332896 1
vt 0.579999566 0.333333343
vt 0.579999566 0
vt 0.583332896 0.666666687
vt 0.586666226 1
vt 0.583332896 0.333333343
vt 0.583332896 0
vt 0.586666226 0.666666687
vt 0.589999557 1
vt 0.586666226 0.333333343
vt 0.586666226 0
vt 0.589999557 0.666666687
vt 0.593332887 1
vt 0.589999557 0.333333343
vt 0.589999557 0
vt 0.593332887 0.666666687
vt 0.593332887 0.333333343
vt 0.593332887 0
vt 0.813332677 0
vt 0.813332677 0.333333343
vt 0.813332677 0.666666687
vt 0.813332677 1
vt 0.816666007 1
vt 0.816666007 0.666666687
vt 0.819999337 1
vt 0.816666007 0.333333343
vt 0.816666007 0
vt 0.819999337 0.666666687
vt 0.823332667 1
vt 0.819999337 0.333333343
vt 0.819999337 0
vt 0.823332667 0.666666687
vt 0.826665998 1
vt 0.823332667 0.333333343
vt 0.823332667 0
vt 0.826665998 0.666666687
vt 0.829999328 1
vt 0.826665998 0.333333343
vt 0.826665998 0
vt 0.829999328 0.666666687
vt 0.833332658 1
vt 0.829999328 0.333333343
vt 0.829999328 0
vt 0.833332658 0.666666687
vt 0.836665988 1
vt 0.833332658 0.333333343
vt 0.833332658 0
vt 0.836665988 0.666666687
vt 0.839999318 1
vt 0.836665988 0.333333343
vt 0.836665988 0
vt 0.839999318 0.666666687
vt 0.843332648 1
vt 0.839999318 0.333333343
vt 0.839999318 0
vt 0.843332648 0.666666687
vt 0.843332648 0.333333343
vt 0.843332648 0
vt 0.999999166 0
vt 0.999999166 0.333333343
vt 0.999999166 0.666666687
vt 0.999999166 1
vn -0 0 -1
vn -0 0 -1
vn -0 0 -1
vn -0 0 -1
vn -0 0 -1
vn -0 0 -1
vn -0 0 -1
vn -0 0 -1
vn -0 0 -1
vn -0 0 -1
vn -0 0 -1
vn -0 0 -1
vn -0 0 -1
vn -0 0 -1
vn -0 0 -1
vn -0 0 -1
vn -0 0 -1
vn -0 0 -1
vn -0 0 -1
vn -0 0 -1
vn -0 0 -1
vn -0 0 -1
vn -0 0 -1
vn -0 0 -1
vn -0 0 -1
vn -0 0 -1
vn -0 0 -1
vn -0 0 -1
vn -0 0 -1
vn -0 0 -1
vn -0 0 -1
vn -0 0 -1
vn -0 0 -1
vn -0 0 -1
vn -0 0 -1
vn -0 0 -1
vn -0 0 -1
vn -0 0 -1
vn -0 0 -1
vn -0 0 -1
vn -0 0 -1
vn -0 0 -1
vn -0 0 -1
vn -0 0 -1
vn -0 0 -1
vn -0 0 -1
vn -0 0 -1
vn -0 0 -1
vn -0 0 -1
vn -0 0 -1
vn -0 0 -1
vn -0 0 -1
vn -0 0 -1
vn -0 0 -1
vn -0 0 -1
vn -0 0 -1
vn -0 0 -1
vn -0 0 -1
vn -0 0 -1
vn -0 0 -1
vn -0 0 -1
vn -0 0 -1
vn -0 0 -1
vn -0 0 -1
vn -0 0 -1
vn -0 0 -1
vn -0 0 -1
vn -0 0 -1
vn -0 0 -1
vn -0 0 -1
vn -0 0 -1
vn -0 0 -1
vn -0 0 -1
vn -0 0 -1
vn -0 0 -1
vn -0 0 -1
vn -0 0 -1
vn -0 0 -1
vn -0 0 -1
vn -0 0 -1
vn -0 0 -1
vn -0 0 -1
vn -0 0 -1
vn -0 0 -1
vn -0 0 -1
vn -0 0 -1
vn -0 0 -1
vn -0 0 -1
vn -0 0 -1
vn -0 0 -1
vn -0 0 -1
vn -0 0 -1
vn -0 0 -1
vn -0 0 -1
vn -0 0 -1
vn -0 0 -1
vn -0 0 -1
vn -0 0 -1
vn -0 0 -1
vn -0 0 -1
vn -0 0 -1
vn -0 0 -1
vn -0 0 -1
vn -0 0 -1
vn -0 0 -1
vn -0 0 -1
vn -0 0 -1
vn -0 0 -1
vn -0 0 -1
vn -0 0 -1
vn -0 0 -1
vn -0 0 -1
vn -0 0 -1
vn -0 0 -1
vn -0 0 -1
vn -0 0 -1
vn -0 0 -1
vn -0 0 -1
vn -0 0 -1
vn -0 0 -1
vn -0 0 -1
vn -0 0 -1
vn -0 0 -1
vn -0 0 -1
vn -0 0 -1
vn -0 0 -1
vn -0 0 -1
vn -0 0 -1
vn -0 0 -1
vn -0 0 -1
vn -0 0 -1
vn -0 0 -1
vn -0 0 -1
vn -0 0 -1
vn -0 0 -1
vn -0 0 -1
vn -0 0 -1
vn -0 0 -1
vn -0 0 -1
vn -0 0 -1
vn -0 0 -1
vn -0 0 -1
vn -0 0 -1
vn -0 0 -1
vn -0 0 -1
vn -0 0 -1
vn -0 0 -1
vn -0 0 -1
vn -0 0 -1
vn -0 0 -1
vn -0 0 -1
vn -0 0 -1
vn -0 0 -1
vn -0 0 -1
vn -0 0 -1
vn -0 0 -1
vn -0 0 -1
vn -0 0 -1
vn -0 0 -1
vn -0 0 -1
vn -0 0 -1
vn -0 0 -1
vn -0 0 -1
vn -0 0 -1
vn -0 0 -1
vn -0 0 -1
vn -0 0 -1
vn -0 0 -1
vn -0 0 -1
vn -0 0 -1
vn -0 0 -1
vn -0 0 -1
g fx_mesh_plane_045_0
f 3/3/3 2/2/2 1/1/1
f 1/1/1 2/2/2 4/4/4
f 4/4/4 2/2/2 5/5/5
f 2/2/2 6/6/6 5/5/5
f 5/5/5 6/6/6 7/7/7
f 8/8/8 5/5/5 7/7/7
f 8/8/8 7/7/7 9/9/9
f 10/10/10 9/9/9 7/7/7
f 7/7/7 6/6/6 10/10/10
f 9/9/9 10/10/10 11/11/11
f 6/6/6 2/2/2 12/12/12
f 12/12/12 10/10/10 6/6/6
f 13/13/13 12/12/12 2/2/2
f 14/14/14 11/11/11 10/10/10
f 10/10/10 12/12/12 14/14/14
f 11/11/11 14/14/14 15/15/15
f 12/12/12 13/13/13 16/16/16
f 16/16/16 14/14/14 12/12/12
f 17/17/17 16/16/16 13/13/13
f 18/18/18 15/15/15 14/14/14
f 14/14/14 16/16/16 18/18/18
f 15/15/15 18/18/18 19/19/19
f 16/16/16 17/17/17 20/20/20
f 20/20/20 18/18/18 16/16/16
f 21/21/21 20/20/20 17/17/17
f 22/22/22 19/19/19 18/18/18
f 18/18/18 20/20/20 22/22/22
f 19/19/19 22/22/22 23/23/23
f 20/20/20 21/21/21 24/24/24
f 24/24/24 22/22/22 20/20/20
f 25/25/25 24/24/24 21/21/21
f 26/26/26 23/23/23 22/22/22
f 22/22/22 24/24/24 26/26/26
f 23/23/23 26/26/26 27/27/27
f 24/24/24 25/25/25 28/28/28
f 28/28/28 26/26/26 24/24/24
f 29/29/29 28/28/28 25/25/25
f 30/30/30 27/27/27 26/26/26
f 26/26/26 28/28/28 30/30/30
f 27/27/27 30/30/30 31/31/31
f 28/28/28 29/29/29 32/32/32
f 32/32/32 30/30/30 28/28/28
f 33/33/33 32/32/32 29/29/29
f 34/34/34 31/31/31 30/30/30
f 30/30/30 32/32/32 34/34/34
f 31/31/31 34/34/34 35/35/35
f 32/32/32 33/33/33 36/36/36
f 36/36/36 34/34/34 32/32/32
f 37/37/37 36/36/36 33/33/33
f 38/38/38 35/35/35 34/34/34
f 34/34/34 36/36/36 38/38/38
f 35/35/35 38/38/38 39/39/39
f 36/36/36 37/37/37 40/40/40
f 40/40/40 38/38/38 36/36/36
f 41/41/41 40/40/40 37/37/37
f 38/38/38 40/40/40 42/42/42
f 42/42/42 39/39/39 38/38/38
f 39/39/39 42/42/42 43/43/43
f 40/40/40 41/41/41 44/44/44
f 44/44/44 42/42/42 40/40/40
f 42/42/42 44/44/44 43/43/43
f 45/45/45 44/44/44 41/41/41
f 44/44/44 45/45/45 43/43/43
f 45/45/45 46/46/46 43/43/43
f 47/47/47 39/39/39 43/43/43
f 48/48/48 39/39/39 47/47/47
f 48/48/48 47/47/47 49/49/49
f 50/50/50 49/49/49 47/47/47
f 47/47/47 43/43/43 50/50/50
f 49/49/49 50/50/50 51/51/51
f 43/43/43 46/46/46 52/52/52
f 52/52/52 50/50/50 43/43/43
f 53/53/53 52/52/52 46/46/46
f 54/54/54 51/51/51 50/50/50
f 50/50/50 52/52/52 54/54/54
f 51/51/51 54/54/54 55/55/55
f 52/52/52 53/53/53 56/56/56
f 56/56/56 54/54/54 52/52/52
f 57/57/57 56/56/56 53/53/53
f 58/58/58 55/55/55 54/54/54
f 54/54/54 56/56/56 58/58/58
f 55/55/55 58/58/58 59/59/59
f 56/56/56 57/57/57 60/60/60
f 60/60/60 58/58/58 56/56/56
f 61/61/61 60/60/60 57/57/57
f 62/62/62 59/59/59 58/58/58
f 58/58/58 60/60/60 62/62/62
f 59/59/59 62/62/62 63/63/63
f 60/60/60 61/61/61 64/64/64
f 64/64/64 62/62/62 60/60/60
f 65/65/65 64/64/64 61/61/61
f 66/66/66 63/63/63 62/62/62
f 62/62/62 64/64/64 66/66/66
f 63/63/63 66/66/66 67/67/67
f 64/64/64 65/65/65 68/68/68
f 68/68/68 66/66/66 64/64/64
f 69/69/69 68/68/68 65/65/65
f 70/70/70 67/67/67 66/66/66
f 66/66/66 68/68/68 70/70/70
f 67/67/67 70/70/70 71/71/71
f 68/68/68 69/69/69 72/72/72
f 72/72/72 70/70/70 68/68/68
f 73/73/73 72/72/72 69/69/69
f 74/74/74 71/71/71 70/70/70
f 70/70/70 72/72/72 74/74/74
f 71/71/71 74/74/74 75/75/75
f 72/72/72 73/73/73 76/76/76
f 76/76/76 74/74/74 72/72/72
f 77/77/77 76/76/76 73/73/73
f 78/78/78 75/75/75 74/74/74
f 74/74/74 76/76/76 78/78/78
f 75/75/75 78/78/78 79/79/79
f 76/76/76 77/77/77 80/80/80
f 80/80/80 78/78/78 76/76/76
f 81/81/81 80/80/80 77/77/77
f 82/82/82 79/79/79 78/78/78
f 78/78/78 80/80/80 82/82/82
f 79/79/79 82/82/82 83/83/83
f 80/80/80 81/81/81 84/84/84
f 84/84/84 82/82/82 80/80/80
f 85/85/85 84/84/84 81/81/81
f 82/82/82 84/84/84 86/86/86
f 86/86/86 83/83/83 82/82/82
f 83/83/83 86/86/86 87/87/87
f 84/84/84 85/85/85 88/88/88
f 88/88/88 86/86/86 84/84/84
f 86/86/86 88/88/88 87/87/87
f 89/89/89 88/88/88 85/85/85
f 88/88/88 89/89/89 87/87/87
f 89/89/89 90/90/90 87/87/87
f 91/91/91 83/83/83 87/87/87
f 92/92/92 83/83/83 91/91/91
f 92/92/92 91/91/91 93/93/93
f 94/94/94 93/93/93 91/91/91
f 91/91/91 87/87/87 94/94/94
f 93/93/93 94/94/94 95/95/95
f 87/87/87 90/90/90 96/96/96
f 96/96/96 94/94/94 87/87/87
f 97/97/97 96/96/96 90/90/90
f 98/98/98 95/95/95 94/94/94
f 94/94/94 96/96/96 98/98/98
f 95/95/95 98/98/98 99/99/99
f 96/96/96 97/97/97 100/100/100
f 100/100/100 98/98/98 96/96/96
f 101/101/101 100/100/100 97/97/97
f 102/102/102 99/99/99 98/98/98
f 98/98/98 100/100/100 102/102/102
f 99/99/99 102/102/102 103/103/103
f 100/100/100 101/101/101 104/104/104
f 104/104/104 102/102/102 100/100/100
f 105/105/105 104/104/104 101/101/101
f 106/106/106 103/103/103 102/102/102
f 102/102/102 104/104/104 106/106/106
f 103/103/103 106/106/106 107/107/107
f 104/104/104 105/105/105 108/108/108
f 108/108/108 106/106/106 104/104/104
f 109/109/109 108/108/108 105/105/105
f 110/110/110 107/107/107 106/106/106
f 106/106/106 108/108/108 110/110/110
f 107/107/107 110/110/110 111/111/111
f 108/108/108 109/109/109 112/112/112
f 112/112/112 110/110/110 108/108/108
f 113/113/113 112/112/112 109/109/109
f 114/114/114 111/111/111 110/110/110
f 110/110/110 112/112/112 114/114/114
f 111/111/111 114/114/114 115/115/115
f 112/112/112 113/113/113 116/116/116
f 116/116/116 114/114/114 112/112/112
f 117/117/117 116/116/116 113/113/113
f 118/118/118 115/115/115 114/114/114
f 114/114/114 116/116/116 118/118/118
f 115/115/115 118/118/118 119/119/119
f 116/116/116 117/117/117 120/120/120
f 120/120/120 118/118/118 116/116/116
f 121/121/121 120/120/120 117/117/117
f 122/122/122 119/119/119 118/118/118
f 118/118/118 120/120/120 122/122/122
f 119/119/119 122/122/122 123/123/123
f 120/120/120 121/121/121 124/124/124
f 124/124/124 122/122/122 120/120/120
f 125/125/125 124/124/124 121/121/121
f 122/122/122 124/124/124 126/126/126
f 126/126/126 123/123/123 122/122/122
f 124/124/124 125/125/125 127/127/127
f 127/127/127 126/126/126 124/124/124
f 128/128/128 127/127/127 125/125/125
f 128/128/128 129/129/129 127/127/127
f 127/127/127 129/129/129 126/126/126
f 126/126/126 129/129/129 123/123/123
f 129/129/129 130/130/130 123/123/123
f 130/130/130 131/131/131 123/123/123
f 131/131/131 132/132/132 123/123/123
f 132/132/132 131/131/131 133/133/133
f 134/134/134 133/133/133 131/131/131
f 131/131/131 130/130/130 134/134/134
f 133/133/133 134/134/134 135/135/135
f 130/130/130 129/129/129 136/136/136
f 136/136/136 134/134/134 130/130/130
f 137/137/137 136/136/136 129/129/129
f 138/138/138 135/135/135 134/134/134
f 134/134/134 136/136/136 138/138/138
f 135/135/135 138/138/138 139/139/139
f 136/136/136 137/137/137 140/140/140
f 140/140/140 138/138/138 136/136/136
f 141/141/141 140/140/140 137/137/137
f 142/142/142 139/139/139 138/138/138
f 138/138/138 140/140/140 142/142/142
f 139/139/139 142/142/142 143/143/143
f 140/140/140 141/141/141 144/144/144
f 144/144/144 142/142/142 140/140/140
f 145/145/145 144/144/144 141/141/141
f 146/146/146 143/143/143 142/142/142
f 142/142/142 144/144/144 146/146/146
f 143/143/143 146/146/146 147/147/147
f 144/144/144 145/145/145 148/148/148
f 148/148/148 146/146/146 144/144/144
f 149/149/149 148/148/148 145/145/145
f 150/150/150 147/147/147 146/146/146
f 146/146/146 148/148/148 150/150/150
f 147/147/147 150/150/150 151/151/151
f 148/148/148 149/149/149 152/152/152
f 152/152/152 150/150/150 148/148/148
f 153/153/153 152/152/152 149/149/149
f 154/154/154 151/151/151 150/150/150
f 150/150/150 152/152/152 154/154/154
f 151/151/151 154/154/154 155/155/155
f 152/152/152 153/153/153 156/156/156
f 156/156/156 154/154/154 152/152/152
f 157/157/157 156/156/156 153/153/153
f 158/158/158 155/155/155 154/154/154
f 154/154/154 156/156/156 158/158/158
f 155/155/155 158/158/158 159/159/159
f 156/156/156 157/157/157 160/160/160
f 160/160/160 158/158/158 156/156/156
f 161/161/161 160/160/160 157/157/157
f 162/162/162 159/159/159 158/158/158
f 158/158/158 160/160/160 162/162/162
f 159/159/159 162/162/162 163/163/163
f 160/160/160 161/161/161 164/164/164
f 164/164/164 162/162/162 160/160/160
f 165/165/165 164/164/164 161/161/161
f 162/162/162 164/164/164 166/166/166
f 166/166/166 163/163/163 162/162/162
f 164/164/164 165/165/165 167/167/167
f 167/167/167 166/166/166 164/164/164
f 168/168/168 167/167/167 165/165/165
f 168/168/168 169/169/169 167/167/167
f 169/169/169 166/166/166 167/167/167
f 163/163/163 166/166/166 169/169/169
f 170/170/170 163/163/163 169/169/169
f 171/171/171 163/163/163 170/170/170
f 172/172/172 163/163/163 171/171/171
