g char_svash2_mesh_05
v -0.275280565 -0.0731198788 0
v -0.275280565 0.477441251 0
v 0.275280565 0.477441251 0
v 0.275280565 -0.0731198788 0
v 0.0353008658 -0.197961494 0
v 0.0353008658 0.197961494 0
v 0.43122384 0.197961494 0
v 0.43122384 -0.197961494 0
v -0.0288167894 -0.197961494 -1.7306343E-08
v -0.0288167894 0.197961494 -1.7306343E-08
v -0.424739748 0.197961494 1.7306343E-08
v -0.424739748 -0.197961494 1.7306343E-08
v 0.128382087 -0.502091765 -2.14568274E-08
v 0.128382087 -0.0112167299 -2.14568274E-08
v -0.117055416 -0.0112167299 2.14568274E-08
v -0.117055416 -0.502091765 2.14568274E-08
vt -0.001953125 0.501953125
vt -0.001953125 0.998046875
vt 0.498046875 0.998046875
vt 0.498046875 0.501953125
vt 0.001953125 0.005859375
vt 0.001953125 0.501953125
vt 0.498046875 0.501953125
vt 0.498046875 0.005859375
vt 0.001953125 0.005859375
vt 0.001953125 0.501953125
vt 0.498046875 0.501953125
vt 0.498046875 0.005859375
vt 0.498046875 0.001953125
vt 0.498046875 0.998046875
vt 0.994140625 0.998046875
vt 0.994140625 0.001953125
vn -0 0 1
vn -0 0 1
vn -0 0 1
vn -0 0 1
vn -0 0 1
vn -0 0 1
vn -0 0 1
vn -0 0 1
vn -0 0 -1
vn -0 0 -1
vn -0 0 -1
vn -0 0 -1
vn -0 0 -1
vn -0 0 -1
vn -0 0 -1
vn -0 0 -1
g char_svash2_mesh_05_0
f 3/3/3 2/2/2 1/1/1
f 4/4/4 3/3/3 1/1/1
f 7/7/7 6/6/6 5/5/5
f 8/8/8 7/7/7 5/5/5
f 11/11/11 10/10/10 9/9/9
f 12/12/12 11/11/11 9/9/9
f 15/15/15 14/14/14 13/13/13
f 16/16/16 15/15/15 13/13/13
