g general_plane_67_2
v -0.0805835128 -0.00328990654 -0.0195512455
v -0.0805835128 0.0167481266 0.0106101995
v -0.076914832 0.0294207614 0.00190104719
v -0.0771506354 0.00855118595 -0.0276901815
v -0.0712165684 0.0414247178 -0.00703933463
v -0.0719597712 0.0194651112 -0.0358222984
v -0.0635934174 0.0524113923 -0.0162148196
v -0.0651927516 0.0291871373 -0.0439512879
v -0.0542157032 0.0620460585 -0.0256282184
v -0.0570724532 0.0374845155 -0.0520820469
v -0.0433179513 0.0700211897 -0.0352811478
v -0.0478571579 0.0441631787 -0.0602209605
v -0.03119459 0.0760699362 -0.045174025
v -0.037834242 0.049073115 -0.0683758035
v -0.0181928631 0.0799787194 -0.0553058237
v -0.0273126122 0.0521130376 -0.0765559822
v -0.00319611118 0.0816212371 -0.0668422133
v -0.0181214418 0.0532049723 -0.0836048275
v 0.0103742462 0.0804111436 -0.0775401592
v -0.00767339114 0.0524453446 -0.091803126
v 0.0234414171 0.0768335685 -0.0884560719
v 0.00228455081 0.0498420037 -0.100078374
v 0.0355679989 0.0710167512 -0.0995815098
v 0.0114401476 0.0455125645 -0.108448252
v 0.0463451371 0.0631742626 -0.110906497
v 0.0195036363 0.0396272838 -0.116932139
v 0.0554100536 0.0535989515 -0.122419618
v 0.0262165032 0.0324053876 -0.125550881
v 0.0630839989 0.0412023291 -0.135562301
v 0.0305689406 0.0254908968 -0.132886976
v 0.0672911778 0.029211523 -0.147412151
v 0.0338794775 0.0163848344 -0.141901299
v 0.0691050738 0.0169043075 -0.159390718
v 0.0352982022 0.00688868575 -0.151143387
v 0.0681788176 0.00473092496 -0.172083601
v 0.0347821526 -0.00263440842 -0.16063869
v 0.0619175173 -0.00746252108 -0.189950302
v 0.0321105607 -0.0106757404 -0.170433074
v 0.0524336882 -0.0162961949 -0.208525047
v 0.0263716802 -0.0186078567 -0.184369236
v 0.0408865586 -0.022363985 -0.227752835
v 0.0186020769 -0.0246317908 -0.200396851
v 0.0280336868 -0.0253751315 -0.247162715
v 0.00988628529 -0.0279649291 -0.216953754
v 0.0163394511 -0.0255611576 -0.264162332
v 0.000373467803 -0.0289815795 -0.234990254
v 0.00610822206 -0.0237457771 -0.279061824
v -0.00851317402 -0.0276842453 -0.252575994
v -0.00223816629 -0.020596778 -0.291687667
v -0.0159951355 -0.0245489348 -0.268818736
v -0.0082838051 -0.0171489697 -0.3014884
v -0.0219287723 -0.0198345724 -0.284745693
v -0.012774663 -0.0134919723 -0.309689641
v -0.0254681334 -0.0149462651 -0.29768312
v -0.0154566523 -0.0105479443 -0.315463006
v -0.0272795483 -0.0101799332 -0.308757633
v -0.0171675384 -0.00787606556 -0.320330054
v -0.0276305191 -0.00664369529 -0.316419005
v -0.0178158395 -0.00601701671 -0.323736072
v -0.0272576436 -0.00384954503 -0.322383374
v -0.0178209189 -0.00454343623 -0.326715469
v -0.0267254803 -0.00179970753 -0.326871365
vt 0 0
vt 0 1
vt 0.0333333351 1
vt 0.0333333351 0
vt 0.0666666701 1
vt 0.0666666701 0
vt 0.100000009 1
vt 0.100000009 0
vt 0.13333334 1
vt 0.13333334 0
vt 0.166666672 1
vt 0.166666672 0
vt 0.200000003 1
vt 0.200000003 0
vt 0.233333334 1
vt 0.233333334 0
vt 0.266666681 1
vt 0.266666681 0
vt 0.300000012 1
vt 0.300000012 0
vt 0.333333343 1
vt 0.333333343 0
vt 0.366666675 1
vt 0.366666675 0
vt 0.400000006 1
vt 0.400000006 0
vt 0.433333337 1
vt 0.433333337 0
vt 0.466666669 1
vt 0.466666669 0
vt 0.5 1
vt 0.5 0
vt 0.533333361 1
vt 0.533333361 0
vt 0.566666722 1
vt 0.566666722 0
vt 0.600000083 1
vt 0.600000083 0
vt 0.633333445 1
vt 0.633333445 0
vt 0.666666806 1
vt 0.666666806 0
vt 0.700000167 1
vt 0.700000167 0
vt 0.733333528 1
vt 0.733333528 0
vt 0.766666889 1
vt 0.766666889 0
vt 0.80000025 1
vt 0.80000025 0
vt 0.833333611 1
vt 0.833333611 0
vt 0.866666973 1
vt 0.866666973 0
vt 0.900000334 1
vt 0.900000334 0
vt 0.933333695 1
vt 0.933333695 0
vt 0.966667056 1
vt 0.966667056 0
vt 1.00000036 1
vt 1.00000036 0
vn 0.972657204 -0.193409219 0.128572449
vn 0.972657204 -0.193409219 0.128572449
vn 0.955576897 -0.244381502 0.164774403
vn 0.955470562 -0.244662464 0.164974049
vn 0.909973502 -0.340638906 0.236459866
vn 0.909781337 -0.340971351 0.236720115
vn 0.851415694 -0.425213307 0.307058722
vn 0.851078868 -0.425622463 0.307425231
vn 0.783083141 -0.495586246 0.37573266
vn 0.782520115 -0.49607569 0.376259357
vn 0.708780587 -0.550124407 0.441580415
vn 0.707904398 -0.550657988 0.442320079
vn 0.632686019 -0.588255882 0.503650069
vn 0.631433606 -0.588750958 0.504642427
vn 0.558720946 -0.611448169 0.560323179
vn 0.557083786 -0.611823976 0.561541796
vn 0.486973792 -0.619428813 0.615763247
vn 0.489192635 -0.61945641 0.613974333
vn 0.428946227 -0.614273906 0.662323654
vn 0.43006891 -0.614473701 0.661409616
vn 0.386545509 -0.603120446 0.697730839
vn 0.387037218 -0.603302777 0.697300494
vn 0.357876033 -0.589983523 0.723770797
vn 0.35794434 -0.590023935 0.723704159
vn 0.34239018 -0.579502344 0.739557922
vn 0.342309028 -0.579431713 0.739650846
vn 0.338554859 -0.576057434 0.744001627
vn 0.338593334 -0.576086223 0.74396193
vn 0.343465984 -0.585651875 0.734195411
vn 0.343212068 -0.585091174 0.734761119
vn 0.351065308 -0.609590948 0.710740447
vn 0.350976825 -0.609226525 0.711096585
vn 0.358929455 -0.651628196 0.668244243
vn 0.358965486 -0.651867926 0.667990983
vn 0.365763754 -0.74333626 0.560060799
vn 0.365803629 -0.745641828 0.556961298
vn 0.346809506 -0.855517268 0.384464949
vn 0.349880993 -0.847946048 0.398209512
vn 0.298853993 -0.925600171 0.232272729
vn 0.306958795 -0.917630374 0.252449602
vn 0.228359386 -0.968093872 0.103180312
vn 0.245679379 -0.960685432 0.129325524
vn 0.144155145 -0.989552677 -0.00219900883
vn 0.169239804 -0.985248506 0.0253607947
vn 0.0607519075 -0.994418144 -0.08626654
vn 0.0886404663 -0.994283259 -0.0595286302
vn -0.0219934341 -0.98668772 -0.161132082
vn 0.00719142379 -0.990745187 -0.13554354
vn -0.0986561552 -0.969130695 -0.225948662
vn -0.0718720108 -0.97638011 -0.203755692
vn -0.163518608 -0.944819272 -0.283863187
vn -0.143950433 -0.95329392 -0.265535116
vn -0.212662593 -0.918080807 -0.334517986
vn -0.201295227 -0.925181866 -0.321743518
vn -0.241719604 -0.894388199 -0.376352668
vn -0.238341391 -0.89796406 -0.369937718
vn -0.256231934 -0.875359714 -0.409988433
vn -0.255408704 -0.876891434 -0.407219857
vn -0.259952843 -0.867018521 -0.425092131
vn -0.259960979 -0.86704874 -0.425025493
vn -0.259717017 -0.86614424 -0.427014381
vn -0.259717017 -0.86614424 -0.427014381
g general_plane_67_2_0
f 3/3/3 2/2/2 1/1/1
f 4/4/4 3/3/3 1/1/1
f 5/5/5 3/3/3 4/4/4
f 6/6/6 5/5/5 4/4/4
f 7/7/7 5/5/5 6/6/6
f 8/8/8 7/7/7 6/6/6
f 9/9/9 7/7/7 8/8/8
f 10/10/10 9/9/9 8/8/8
f 11/11/11 9/9/9 10/10/10
f 12/12/12 11/11/11 10/10/10
f 13/13/13 11/11/11 12/12/12
f 14/14/14 13/13/13 12/12/12
f 15/15/15 13/13/13 14/14/14
f 16/16/16 15/15/15 14/14/14
f 17/17/17 15/15/15 16/16/16
f 18/18/18 17/17/17 16/16/16
f 19/19/19 17/17/17 18/18/18
f 20/20/20 19/19/19 18/18/18
f 21/21/21 19/19/19 20/20/20
f 22/22/22 21/21/21 20/20/20
f 23/23/23 21/21/21 22/22/22
f 24/24/24 23/23/23 22/22/22
f 25/25/25 23/23/23 24/24/24
f 26/26/26 25/25/25 24/24/24
f 27/27/27 25/25/25 26/26/26
f 28/28/28 27/27/27 26/26/26
f 29/29/29 27/27/27 28/28/28
f 30/30/30 29/29/29 28/28/28
f 31/31/31 29/29/29 30/30/30
f 32/32/32 31/31/31 30/30/30
f 33/33/33 31/31/31 32/32/32
f 34/34/34 33/33/33 32/32/32
f 35/35/35 33/33/33 34/34/34
f 36/36/36 35/35/35 34/34/34
f 37/37/37 35/35/35 36/36/36
f 38/38/38 37/37/37 36/36/36
f 39/39/39 37/37/37 38/38/38
f 40/40/40 39/39/39 38/38/38
f 41/41/41 39/39/39 40/40/40
f 42/42/42 41/41/41 40/40/40
f 43/43/43 41/41/41 42/42/42
f 44/44/44 43/43/43 42/42/42
f 45/45/45 43/43/43 44/44/44
f 46/46/46 45/45/45 44/44/44
f 47/47/47 45/45/45 46/46/46
f 48/48/48 47/47/47 46/46/46
f 49/49/49 47/47/47 48/48/48
f 50/50/50 49/49/49 48/48/48
f 51/51/51 49/49/49 50/50/50
f 52/52/52 51/51/51 50/50/50
f 53/53/53 51/51/51 52/52/52
f 54/54/54 53/53/53 52/52/52
f 55/55/55 53/53/53 54/54/54
f 56/56/56 55/55/55 54/54/54
f 57/57/57 55/55/55 56/56/56
f 58/58/58 57/57/57 56/56/56
f 59/59/59 57/57/57 58/58/58
f 60/60/60 59/59/59 58/58/58
f 61/61/61 59/59/59 60/60/60
f 62/62/62 61/61/61 60/60/60
