g 01
v 0.0158957038 0.0531809404 0.0529153571
v -0.011777794 0.0482531786 0.0618567057
v -0.0138367377 0.0747257024 0.0505706668
v 0.0131359212 0.0773887038 0.0433584005
v -0.0158957113 -0.0531809404 0.0530639775
v 0.0117777865 -0.0482531786 0.0620053262
v 0.0138367256 -0.0747257024 0.0507192984
v -0.0131359324 -0.0773887038 0.0435070246
v -0.0784923732 -0.0299078226 0.0234855246
v -0.0917653218 -0.0429980122 0.0123670585
v -0.0993720144 -0.0182290077 0.00705756806
v -0.084803246 -0.00910712779 0.0184796732
v -0.0652194321 -0.0168176368 0.0346039906
v -0.0702344775 1.47533419E-05 0.0299017765
v -0.0358836576 -0.095362246 0.0285017863
v -0.0131359324 -0.0773887038 0.0435070246
v -0.0103761544 -0.10159646 0.0339500718
v -0.0258896835 -0.074271597 0.0407828838
v -0.0158957113 -0.0531809404 0.0530639775
v 0.0784923732 0.0299078338 0.0233369078
v 0.0917653069 0.0429980233 0.0122184344
v 0.099372007 0.0182290245 0.00690895505
v 0.0848032385 0.00910713989 0.0183310509
v 0.0652194321 0.016817648 0.0344553813
v 0.0702344775 -1.47438059E-05 0.0297531486
v 0.0358836427 0.0953622535 0.0283531621
v 0.0131359212 0.0773887038 0.0433584005
v 0.0103761395 0.10159646 0.0338014439
v 0.0258896723 0.074271597 0.0406342596
v 0.0158957038 0.0531809404 0.0529153571
v 0.0704709589 -0.054754559 0.00331601454
v 0.058172442 -0.0535969585 0.015408936
v 0.0660938025 -0.0365275107 0.0202264916
v 0.0804504529 -0.0347382277 0.00832604896
v 0.0827694759 -0.0559121594 -0.00877690967
v 0.0948071107 -0.0329489484 -0.00357439439
v -0.0784923732 -0.0299078226 0.0234855246
v -0.0652194321 -0.0168176368 0.0346039906
v -0.0563215688 -0.0312210452 0.0392715856
v -0.0671507269 -0.0481355861 0.0284910556
v -0.0917653218 -0.0429980122 0.0123670585
v -0.077979885 -0.0650501251 0.0177105218
v 0.0784923732 0.0299078338 0.0233369078
v 0.0652194321 0.016817648 0.0344553813
v 0.0563215651 0.0312210545 0.0391229652
v 0.067150712 0.0481355973 0.0283424314
v 0.0917653069 0.0429980233 0.0122184344
v 0.0779798701 0.0650501326 0.0175618976
v 0.0381965116 -0.00910505839 0.0795412362
v 0.103534065 0.00910506118 0.0732300878
v 0.102900073 -0.0163228121 0.0675681308
v 0.0669506863 -0.0250621047 0.0707081035
v 0.0957048535 -0.0410191491 0.0618749745
v -0.103534065 -0.00910507608 0.0730815008
v -0.0957048684 0.0410191305 0.0617263541
v -0.0669506937 0.0250620898 0.0705594793
v -0.038196519 0.0091050528 0.079392612
v -0.0311288387 0.0314922743 0.070656389
v -0.038196519 0.0091050528 0.079392612
v -0.0669506937 0.0250620898 0.0705594793
v -0.0474703312 0.0564419962 0.0605455264
v 0.0311288312 -0.031492278 0.0708049834
v 0.0381965116 -0.00910505839 0.0795412362
v 0.0669506863 -0.0250621047 0.0707081035
v 0.0474703237 -0.0564420037 0.060694132
v 0.0516801327 0.0626444295 0.0333477259
v 0.058929909 0.0829034373 0.0229399726
v 0.0779798701 0.0650501326 0.0175618976
v 0.067150712 0.0481355973 0.0283424314
v 0.0444303602 0.0423854105 0.0437554829
v 0.0563215651 0.0312210545 0.0391229652
v -0.0516801402 -0.0626444221 0.0334963538
v -0.0589299202 -0.0829034299 0.023088593
v -0.077979885 -0.0650501251 0.0177105218
v -0.0671507269 -0.0481355861 0.0284910556
v -0.0444303639 -0.0423854068 0.0439041108
v -0.0563215688 -0.0312210452 0.0392715856
v -0.0651747882 0.0750049427 -0.0138066299
v -0.0308299884 0.0985941589 -0.0189624876
v -0.0364383794 0.0825528353 0.00409920886
v -0.0563918054 0.07268475 -0.00242004404
v -0.0476088263 0.0703645572 0.00896654185
v 0.0651748031 -0.0750049278 -0.0139552541
v 0.033266522 -0.092010349 -0.0191111006
v 0.0369054861 -0.0780867711 0.00569843128
v 0.0567568503 -0.0721023381 -0.00169474899
v 0.0483389013 -0.0691997483 0.0105657559
v -0.0855870396 0.0129478192 0.0134839676
v -0.0707046911 0.0182290543 0.0251655709
v -0.0702344775 1.47533419E-05 0.0299017765
v -0.084803246 -0.00910712779 0.0184796732
v -0.100469381 0.00766658457 0.00180236448
v -0.0993720144 -0.0182290077 0.00705756806
v 0.0855870321 -0.0129478062 0.0133353435
v 0.0707046837 -0.0182290431 0.0250169542
v 0.0702344775 -1.47438059E-05 0.0297531486
v 0.0848032385 0.00910713989 0.0183310509
v 0.100469381 -0.0076665692 0.00165373238
v 0.099372007 0.0182290245 0.00690895505
v 0.0444303602 0.0423854105 0.0437554829
v 0.0158957038 0.0531809404 0.0529153571
v 0.0258896723 0.074271597 0.0406342596
v 0.0516801327 0.0626444295 0.0333477259
v 0.0358836427 0.0953622535 0.0283531621
v 0.058929909 0.0829034373 0.0229399726
v -0.0444303639 -0.0423854068 0.0439041108
v -0.0158957113 -0.0531809404 0.0530639775
v -0.0258896835 -0.074271597 0.0407828838
v -0.0516801402 -0.0626444221 0.0334963538
v -0.0358836576 -0.095362246 0.0285017863
v -0.0589299202 -0.0829034299 0.023088593
v -0.011777794 0.0482531786 0.0618567057
v -0.0311288387 0.0314922743 0.070656389
v -0.0474703312 0.0564419962 0.0605455264
v -0.0138367377 0.0747257024 0.0505706668
v 0.0117777865 -0.0482531786 0.0620053262
v 0.0311288312 -0.031492278 0.0708049834
v 0.0474703237 -0.0564420037 0.060694132
v 0.0138367256 -0.0747257024 0.0507192984
v 0.0855870321 -0.0129478062 0.0133353435
v 0.100469381 -0.0076665692 0.00165373238
v 0.0948071107 -0.0329489484 -0.00357439439
v 0.0804504529 -0.0347382277 0.00832604896
v 0.0707046837 -0.0182290431 0.0250169542
v 0.0660938025 -0.0365275107 0.0202264916
v -0.0855870396 0.0129478192 0.0134839676
v -0.100469381 0.00766658457 0.00180236448
v -0.0948071107 0.0329489633 -0.00342578138
v -0.0804504529 0.0347382464 0.00847466197
v -0.0707046911 0.0182290543 0.0251655709
v -0.066093795 0.0365275219 0.0203751046
v -0.0707038119 0.0547545739 0.00346463593
v -0.0827694684 0.0559121743 -0.00862828828
v -0.0651747882 0.0750049427 -0.0138066299
v -0.0563918054 0.07268475 -0.00242004404
v 0.0704709589 -0.054754559 0.00331601454
v 0.0827694759 -0.0559121594 -0.00877690967
v 0.0651748031 -0.0750049278 -0.0139552541
v 0.0567568503 -0.0721023381 -0.00169474899
v -0.0131359324 -0.0773887038 0.0435070246
v 0.0138367256 -0.0747257024 0.0507192984
v 0.0158956647 -0.101198234 0.0394332707
v -0.0103761544 -0.10159646 0.0339500718
v -0.0827694684 0.0559121743 -0.00862828828
v -0.0804504529 0.0347382464 0.00847466197
v -0.0948071107 0.0329489633 -0.00342578138
v -0.0707038119 0.0547545739 0.00346463593
v -0.066093795 0.0365275219 0.0203751046
v -0.0586381592 0.0535969734 0.0155575611
v -0.0707038119 0.0547545739 0.00346463593
v -0.0563918054 0.07268475 -0.00242004404
v -0.0476088263 0.0703645572 0.00896654185
v 0.0474703237 -0.0564420037 0.060694132
v 0.0669506863 -0.0250621047 0.0707081035
v 0.0957048535 -0.0410191491 0.0618749745
v 0.0638118163 -0.0813917294 0.0505832881
v 0.0138367256 -0.0747257024 0.0507192984
v 0.0474703237 -0.0564420037 0.060694132
v 0.0638118163 -0.0813917294 0.0505832881
v 0.0158956647 -0.101198234 0.0394332707
v 0.0131359212 0.0773887038 0.0433584005
v -0.0138367377 0.0747257024 0.0505706668
v -0.0158956796 0.101198234 0.0392846316
v 0.0103761395 0.10159646 0.0338014439
v -0.0474703312 0.0564419962 0.0605455264
v -0.0669506937 0.0250620898 0.0705594793
v -0.0957048684 0.0410191305 0.0617263541
v -0.0638118237 0.0813917145 0.0504346602
v -0.0138367377 0.0747257024 0.0505706668
v -0.0474703312 0.0564419962 0.0605455264
v -0.0638118237 0.0813917145 0.0504346602
v -0.0158956796 0.101198234 0.0392846316
v 0.058172442 -0.0535969585 0.015408936
v 0.0704709589 -0.054754559 0.00331601454
v 0.0567568503 -0.0721023381 -0.00169474899
v 0.0483389013 -0.0691997483 0.0105657559
vt 0.328245372 0.0118059348
vt 0.216245979 0.0119772209
vt 0.273874521 0.499553978
vt 0.358293533 0.499424845
vt 0.332698047 0.00782430638
vt 0.219184592 0.00799750537
vt 0.277592212 0.500831366
vt 0.363152415 0.500700593
vt 0.598165512 0.500341654
vt 0.629769742 0.993215799
vt 0.690257907 0.993124366
vt 0.658362925 0.500250101
vt 0.566561341 0.00746746873
vt 0.626467943 0.00737587083
vt 0.451784402 0.993488491
vt 0.363152415 0.500700593
vt 0.393606782 0.993576884
vt 0.39224121 0.500656366
vt 0.332698047 0.00782430638
vt 0.590172052 0.49906984
vt 0.621354699 0.986687183
vt 0.681035995 0.98659569
vt 0.649566472 0.498978913
vt 0.558989406 0.01145251
vt 0.618096948 0.0113620702
vt 0.445743352 0.986955881
vt 0.358293533 0.499424845
vt 0.388341695 0.987043798
vt 0.386994362 0.499380857
vt 0.328245372 0.0118059348
vt 0.831210613 0.498700947
vt 0.798872828 0.0110854013
vt 0.738036275 0.0111785159
vt 0.770083308 0.498794526
vt 0.863548398 0.986316502
vt 0.802130401 0.986410558
vt 0.598165512 0.500341654
vt 0.566561341 0.00746746873
vt 0.507233858 0.00755797559
vt 0.53854847 0.500432611
vt 0.629769742 0.993215799
vt 0.569863081 0.993307233
vt 0.590172052 0.49906984
vt 0.558989406 0.01145251
vt 0.500453234 0.0115421638
vt 0.531350136 0.499159813
vt 0.621354699 0.986687183
vt 0.562247097 0.986777484
vt -0.00112932548 0.00833405275
vt 0.00217244402 0.994174719
vt 0.0564199202 0.994091451
vt 0.0550448932 0.501171231
vt 0.111219116 0.994008362
vt 0.00212840363 0.987635195
vt 0.109720573 0.987470508
vt 0.0542956255 0.499890268
vt -0.00112932571 0.0123100411
vt 0.106462851 0.0121453609
vt -0.00112932571 0.0123100411
vt 0.0542956255 0.499890268
vt 0.162983298 0.499723971
vt 0.107917339 0.00816757791
vt -0.00112932548 0.00833405275
vt 0.0550448932 0.501171231
vt 0.165201858 0.501002908
vt 0.473098338 0.49924919
vt 0.503710926 0.986867487
vt 0.562247097 0.986777484
vt 0.531350136 0.499159813
vt 0.44248572 0.0116308741
vt 0.500453234 0.0115421638
vt 0.479509145 0.50052315
vt 0.510535657 0.993398607
vt 0.569863081 0.993307233
vt 0.53854847 0.500432611
vt 0.448482633 0.00764768664
vt 0.507233858 0.00755797559
vt 0.938076973 0.992745817
vt 1.0015099 0.992648721
vt 0.934775174 0.0069052875
vt 0.905006349 0.499873519
vt 0.871935725 0.00700125005
vt 0.925549507 0.986221492
vt 0.988136411 0.986125708
vt 0.922291756 0.0108963419
vt 0.892920017 0.498606324
vt 0.860290587 0.0109911859
vt 0.719143212 0.500157118
vt 0.686956108 0.00728350598
vt 0.626467943 0.00737587083
vt 0.658362925 0.500250101
vt 0.751330316 0.993030727
vt 0.690257907 0.993124366
vt 0.709536076 0.498887032
vt 0.677778244 0.0112706861
vt 0.618096948 0.0113620702
vt 0.649566472 0.498978913
vt 0.741293907 0.986503482
vt 0.681035995 0.98659569
vt 0.44248572 0.0116308741
vt 0.328245372 0.0118059348
vt 0.386994362 0.499380857
vt 0.473098338 0.49924919
vt 0.445743352 0.986955881
vt 0.503710926 0.986867487
vt 0.448482633 0.00764768664
vt 0.332698047 0.00782430638
vt 0.39224121 0.500656366
vt 0.479509145 0.50052315
vt 0.451784402 0.993488491
vt 0.510535657 0.993398607
vt 0.216245979 0.0119772209
vt 0.106462851 0.0121453609
vt 0.162983298 0.499723971
vt 0.273874521 0.499553978
vt 0.219184592 0.00799750537
vt 0.107917339 0.00816757791
vt 0.165201858 0.501002908
vt 0.277592212 0.500831366
vt 0.709536076 0.498887032
vt 0.741293907 0.986503482
vt 0.802130401 0.986410558
vt 0.770083308 0.498794526
vt 0.677778244 0.0112706861
vt 0.738036275 0.0111785159
vt 0.719143212 0.500157118
vt 0.751330316 0.993030727
vt 0.812989235 0.99293679
vt 0.780508876 0.500063539
vt 0.686956108 0.00728350598
vt 0.748028576 0.00719034439
vt 0.84246254 0.499968916
vt 0.875237525 0.992841601
vt 0.938076973 0.992745817
vt 0.905006349 0.499873519
vt 0.831210613 0.498700947
vt 0.863548398 0.986316502
vt 0.925549507 0.986221492
vt 0.892920017 0.498606324
vt 0.363152415 0.500700593
vt 0.277592212 0.500831366
vt 0.335999817 0.993665099
vt 0.393606782 0.993576884
vt 0.875237525 0.992841601
vt 0.780508876 0.500063539
vt 0.812989235 0.99293679
vt 0.84246254 0.499968916
vt 0.748028576 0.00719034439
vt 0.809687614 0.00709626917
vt 0.84246254 0.499968916
vt 0.905006349 0.499873519
vt 0.871935725 0.00700125005
vt 0.165201858 0.501002908
vt 0.0550448932 0.501171231
vt 0.111219116 0.994008362
vt 0.222486377 0.993838251
vt 0.277592212 0.500831366
vt 0.165201858 0.501002908
vt 0.222486377 0.993838251
vt 0.335999817 0.993665099
vt 0.358293533 0.499424845
vt 0.273874521 0.499553978
vt 0.331503093 0.987130761
vt 0.388341695 0.987043798
vt 0.162983298 0.499723971
vt 0.0542956255 0.499890268
vt 0.109720573 0.987470508
vt 0.219503745 0.987302542
vt 0.273874521 0.499553978
vt 0.162983298 0.499723971
vt 0.219503745 0.987302542
vt 0.331503093 0.987130761
vt 0.798872828 0.0110854013
vt 0.831210613 0.498700947
vt 0.892920017 0.498606324
vt 0.860290587 0.0109911859
vn 0.284217447 0.361072272 0.888170719
vn 0.109760448 0.396860778 0.911292493
vn 0.211073279 0.388883471 0.896781862
vn 0.211073264 0.388883442 0.896781862
vn -0.284217596 -0.361072153 0.888170719
vn -0.109760478 -0.396860391 0.911292732
vn -0.211073458 -0.388883173 0.896781981
vn -0.211073458 -0.388883173 0.896781981
vn -0.622822821 -0.013144183 0.782252491
vn -0.597275138 -0.0763148591 0.798397362
vn -0.640807509 0.0611213967 0.765264571
vn -0.622822881 -0.013144183 0.782252491
vn -0.603509605 -0.0621205941 0.794932187
vn -0.643919766 0.0788406804 0.761019945
vn -0.281097054 -0.379957259 0.881258667
vn -0.281097054 -0.379957318 0.881258667
vn -0.281097054 -0.379957289 0.881258667
vn -0.281097054 -0.379957289 0.881258667
vn -0.281097025 -0.379957229 0.881258786
vn 0.62282294 0.0131443655 0.782252371
vn 0.597275257 0.0763151199 0.798397362
vn 0.640807688 -0.0611214191 0.765264571
vn 0.62282294 0.0131443664 0.782252312
vn 0.603509724 0.062120799 0.794932127
vn 0.643919945 -0.07884074 0.761019886
vn 0.281096876 0.379957378 0.881258667
vn 0.281096935 0.379957408 0.881258667
vn 0.281096905 0.379957408 0.881258667
vn 0.281096905 0.379957408 0.881258667
vn 0.281097054 0.379957378 0.881258667
vn 0.599224091 -0.462420434 0.65352726
vn 0.577675402 -0.539248288 0.612782419
vn 0.619882286 -0.39680323 0.676973462
vn 0.599224091 -0.462420374 0.65352726
vn 0.582138181 -0.524950325 0.620920479
vn 0.625274181 -0.377333999 0.683118939
vn -0.580488324 -0.121364161 0.805173337
vn -0.603509605 -0.0621205941 0.794932187
vn -0.536371052 -0.181145683 0.824313223
vn -0.580488324 -0.121364146 0.805173337
vn -0.597275138 -0.0763148591 0.798397362
vn -0.528698564 -0.191445634 0.826937914
vn 0.580488086 0.121364854 0.805173397
vn 0.603509724 0.062120799 0.794932127
vn 0.536371052 0.181145936 0.824313223
vn 0.580488086 0.121364862 0.805173397
vn 0.597275257 0.0763151199 0.798397362
vn 0.528698504 0.191445857 0.826937914
vn 0.105604976 -0.3074494 0.945686281
vn 0.150574774 -0.240734339 0.958839953
vn 0.150574774 -0.240734339 0.958839953
vn 0.150574788 -0.240734369 0.958839953
vn 0.11234083 -0.297651827 0.948041618
vn -0.15983285 0.241781488 0.957076371
vn -0.15983285 0.241781518 0.957076371
vn -0.15983285 0.241781518 0.957076371
vn -0.159832865 0.241781488 0.957076371
vn -0.0295949336 0.367233932 0.929657698
vn -0.109113395 0.307885319 0.945145965
vn -0.0667407587 0.357768178 0.931422293
vn -0.0667407662 0.357768208 0.931422293
vn 0.0295946449 -0.367233723 0.929657757
vn 0.105604976 -0.3074494 0.945686281
vn 0.0667399466 -0.357768625 0.931422293
vn 0.0667399541 -0.357768685 0.931422293
vn 0.482429534 0.244756863 0.841044486
vn 0.435255766 0.280560523 0.855475426
vn 0.528698504 0.191445857 0.826937914
vn 0.482429534 0.244756863 0.841044486
vn 0.442777663 0.275118709 0.853380024
vn 0.536371052 0.181145936 0.824313223
vn -0.482429534 -0.244756982 0.841044486
vn -0.435255826 -0.280560493 0.855475426
vn -0.528698564 -0.191445634 0.826937914
vn -0.482429534 -0.244756967 0.841044486
vn -0.442777693 -0.275118709 0.853380144
vn -0.536371052 -0.181145683 0.824313223
vn -0.51775527 0.674258947 0.526596904
vn -0.483097434 0.74393481 0.461712003
vn -0.483097464 0.74393481 0.461712003
vn -0.483097434 0.743934751 0.461712003
vn -0.513487458 0.683847547 0.518346608
vn 0.487020314 -0.70478493 0.515838444
vn 0.387729615 -0.815418363 0.429835767
vn 0.387729615 -0.815418363 0.429835767
vn 0.387729645 -0.815418243 0.429835737
vn 0.477521658 -0.717059791 0.507738411
vn -0.656126022 0.157907993 0.737945557
vn -0.648989558 0.239090413 0.722252309
vn -0.643919766 0.0788406804 0.761019945
vn -0.656126082 0.157907993 0.737945557
vn -0.650599003 0.217523351 0.727601945
vn -0.640807509 0.0611213967 0.765264571
vn 0.656126142 -0.157907978 0.737945497
vn 0.648989558 -0.23909016 0.722252309
vn 0.643919945 -0.07884074 0.761019886
vn 0.656126142 -0.157907978 0.737945437
vn 0.650599062 -0.217523172 0.727601886
vn 0.640807688 -0.0611214191 0.765264571
vn 0.442777663 0.275118709 0.853380024
vn 0.284217447 0.361072272 0.888170719
vn 0.390951395 0.312083006 0.865887463
vn 0.390951455 0.312083036 0.865887463
vn 0.340359837 0.344261974 0.875007987
vn 0.435255766 0.280560523 0.855475426
vn -0.442777693 -0.275118709 0.853380144
vn -0.284217596 -0.361072153 0.888170719
vn -0.390951425 -0.312082976 0.865887582
vn -0.390951365 -0.312082976 0.865887463
vn -0.340359956 -0.344261885 0.875007927
vn -0.435255826 -0.280560493 0.855475426
vn 0.109760448 0.396860778 0.911292493
vn -0.0295949336 0.367233932 0.929657698
vn 0.0584852546 0.401280791 0.914085984
vn 0.0584852546 0.401280791 0.914085984
vn -0.109760478 -0.396860391 0.911292732
vn 0.0295946449 -0.367233723 0.929657757
vn -0.0584848113 -0.401280314 0.914086282
vn -0.0584848113 -0.401280314 0.914086282
vn 0.641736984 -0.30065909 0.705533743
vn 0.650599062 -0.217523172 0.727601886
vn 0.625274181 -0.377333999 0.683118939
vn 0.641736865 -0.30065909 0.705533743
vn 0.648989558 -0.23909016 0.722252309
vn 0.619882286 -0.39680323 0.676973462
vn -0.641736865 0.300659567 0.705533564
vn -0.650599003 0.217523351 0.727601945
vn -0.627072692 0.375146002 0.682675123
vn -0.641736865 0.300659597 0.705533564
vn -0.648989558 0.239090413 0.722252309
vn -0.622355461 0.393637866 0.676552236
vn -0.532999218 0.628587246 0.566383123
vn -0.578844309 0.529245496 0.62035346
vn -0.51775527 0.674258947 0.526596904
vn -0.532999218 0.628587246 0.566383123
vn 0.54146421 -0.623044431 0.56447506
vn 0.582138181 -0.524950325 0.620920479
vn 0.487020314 -0.70478493 0.515838444
vn 0.54146421 -0.623044431 0.56447506
vn -0.19247058 -0.388839483 0.900976658
vn -0.192470595 -0.388839513 0.900976658
vn -0.138698623 -0.394736528 0.908265233
vn -0.238214493 -0.385131985 0.89158684
vn -0.578844309 0.529245496 0.62035346
vn -0.60492301 0.453956962 0.654210508
vn -0.627072692 0.375146002 0.682675123
vn -0.60492295 0.453956902 0.654210508
vn -0.622355461 0.393637866 0.676552236
vn -0.573185325 0.54367131 0.613090754
vn -0.54749018 0.606977344 0.576049626
vn -0.54749018 0.606977344 0.576049626
vn -0.513487458 0.683847547 0.518346608
vn 0.08560054 -0.339433223 0.936727047
vn 0.0856005549 -0.339433283 0.936727047
vn 0.11234083 -0.297651827 0.948041618
vn 0.00556004187 -0.376984626 0.926202834
vn -0.0507430471 -0.399099261 0.915502548
vn -0.0507430434 -0.399099261 0.915502548
vn 0.00556004187 -0.376984626 0.926202834
vn -0.138698623 -0.394736528 0.908265233
vn 0.192470253 0.388839722 0.900976658
vn 0.192470267 0.388839722 0.900976658
vn 0.138698533 0.394736886 0.908265173
vn 0.238214269 0.385132223 0.89158684
vn -0.0856009647 0.339433372 0.936727047
vn -0.0856009573 0.339433342 0.936726928
vn -0.114687473 0.300775617 0.946773887
vn -0.0055601974 0.376984864 0.926202714
vn 0.0507430695 0.399099827 0.915502369
vn 0.0507430732 0.399099827 0.915502369
vn -0.0055601974 0.376984864 0.926202714
vn 0.138698533 0.394736886 0.908265173
vn 0.577675402 -0.539248288 0.612782419
vn 0.569621742 -0.580943525 0.581408381
vn 0.569621682 -0.580943525 0.581408441
vn 0.477521658 -0.717059791 0.507738411
g 01_0
f 3/3/3 2/2/2 1/1/1
f 4/4/4 3/3/3 1/1/1
f 7/7/7 6/6/6 5/5/5
f 8/8/8 7/7/7 5/5/5
f 11/11/11 10/10/10 9/9/9
f 12/12/12 11/11/11 9/9/9
f 12/12/12 9/9/9 13/13/13
f 14/14/14 12/12/12 13/13/13
f 17/17/17 16/16/16 15/15/15
f 16/16/16 18/18/18 15/15/15
f 19/19/19 18/18/18 16/16/16
f 22/22/22 21/21/21 20/20/20
f 23/23/23 22/22/22 20/20/20
f 23/23/23 20/20/20 24/24/24
f 25/25/25 23/23/23 24/24/24
f 28/28/28 27/27/27 26/26/26
f 27/27/27 29/29/29 26/26/26
f 30/30/30 29/29/29 27/27/27
f 33/33/33 32/32/32 31/31/31
f 34/34/34 33/33/33 31/31/31
f 34/34/34 31/31/31 35/35/35
f 36/36/36 34/34/34 35/35/35
f 39/39/39 38/38/38 37/37/37
f 40/40/40 39/39/39 37/37/37
f 40/40/40 37/37/37 41/41/41
f 42/42/42 40/40/40 41/41/41
f 45/45/45 44/44/44 43/43/43
f 46/46/46 45/45/45 43/43/43
f 46/46/46 43/43/43 47/47/47
f 48/48/48 46/46/46 47/47/47
f 51/51/51 50/50/50 49/49/49
f 49/49/49 52/52/52 51/51/51
f 52/52/52 53/53/53 51/51/51
f 56/56/56 55/55/55 54/54/54
f 57/57/57 56/56/56 54/54/54
f 60/60/60 59/59/59 58/58/58
f 61/61/61 60/60/60 58/58/58
f 64/64/64 63/63/63 62/62/62
f 65/65/65 64/64/64 62/62/62
f 68/68/68 67/67/67 66/66/66
f 69/69/69 68/68/68 66/66/66
f 69/69/69 66/66/66 70/70/70
f 71/71/71 69/69/69 70/70/70
f 74/74/74 73/73/73 72/72/72
f 75/75/75 74/74/74 72/72/72
f 75/75/75 72/72/72 76/76/76
f 77/77/77 75/75/75 76/76/76
f 80/80/80 79/79/79 78/78/78
f 78/78/78 81/81/81 80/80/80
f 81/81/81 82/82/82 80/80/80
f 85/85/85 84/84/84 83/83/83
f 83/83/83 86/86/86 85/85/85
f 86/86/86 87/87/87 85/85/85
f 90/90/90 89/89/89 88/88/88
f 91/91/91 90/90/90 88/88/88
f 91/91/91 88/88/88 92/92/92
f 93/93/93 91/91/91 92/92/92
f 96/96/96 95/95/95 94/94/94
f 97/97/97 96/96/96 94/94/94
f 97/97/97 94/94/94 98/98/98
f 99/99/99 97/97/97 98/98/98
f 102/102/102 101/101/101 100/100/100
f 103/103/103 102/102/102 100/100/100
f 104/104/104 102/102/102 103/103/103
f 105/105/105 104/104/104 103/103/103
f 108/108/108 107/107/107 106/106/106
f 109/109/109 108/108/108 106/106/106
f 110/110/110 108/108/108 109/109/109
f 111/111/111 110/110/110 109/109/109
f 114/114/114 113/113/113 112/112/112
f 115/115/115 114/114/114 112/112/112
f 118/118/118 117/117/117 116/116/116
f 119/119/119 118/118/118 116/116/116
f 122/122/122 121/121/121 120/120/120
f 123/123/123 122/122/122 120/120/120
f 123/123/123 120/120/120 124/124/124
f 125/125/125 123/123/123 124/124/124
f 128/128/128 127/127/127 126/126/126
f 129/129/129 128/128/128 126/126/126
f 129/129/129 126/126/126 130/130/130
f 131/131/131 129/129/129 130/130/130
f 134/134/134 133/133/133 132/132/132
f 135/135/135 134/134/134 132/132/132
f 138/138/138 137/137/137 136/136/136
f 139/139/139 138/138/138 136/136/136
f 142/142/142 141/141/141 140/140/140
f 143/143/143 142/142/142 140/140/140
f 146/146/146 145/145/145 144/144/144
f 145/145/145 147/147/147 144/144/144
f 145/145/145 148/148/148 147/147/147
f 148/148/148 149/149/149 147/147/147
f 151/151/151 150/150/150 149/149/149
f 152/152/152 151/151/151 149/149/149
f 155/155/155 154/154/154 153/153/153
f 156/156/156 155/155/155 153/153/153
f 159/159/159 158/158/158 157/157/157
f 160/160/160 159/159/159 157/157/157
f 163/163/163 162/162/162 161/161/161
f 164/164/164 163/163/163 161/161/161
f 167/167/167 166/166/166 165/165/165
f 168/168/168 167/167/167 165/165/165
f 171/171/171 170/170/170 169/169/169
f 172/172/172 171/171/171 169/169/169
f 175/175/175 174/174/174 173/173/173
f 176/176/176 175/175/175 173/173/173
