g Cone001
v -2.72046094E-07 1.66980696 0
v 0.26121521 1.64924896 0
v 0.229458228 1.44874251 0.0424465723
v -1.96103571E-07 1.46680129 0.0424465649
v -0.261215746 1.64924872 0
v -3.71859166E-09 0.0228245519 1.06116414
v 0.0035705443 0.0225435439 1.06116414
v -0.00357055129 0.0225435421 1.06116414
v -0.229458541 1.44874251 0.0424465649
v -0.515999198 1.58808064 0
v -0.0070531806 0.0217074361 1.06116414
v -0.453266889 1.39501083 0.0424465612
v -0.758077025 1.48780859 0
v -0.0103621371 0.0203368198 1.06116414
v -0.665914237 1.30692923 0.04244655
v -0.981488526 1.35090184 0
v -0.0134159429 0.0184654444 1.06116414
v -0.862164617 1.18666685 0.04244655
v -1.18073237 1.1807313 0
v -0.016139403 0.0161393881 1.06116414
v -1.03718567 1.0371846 0.0424465425
v -1.35090268 0.981487155 0
v -0.0184654575 0.0134159252 1.06116414
v -1.18666756 0.862163663 0.0424465388
v -1.48780942 0.758075595 0
v -0.020336831 0.0103621176 1.06116414
v -1.30692995 0.665913045 0.0424465425
v -1.58808112 0.515997648 0
v -0.0217074435 0.00705315918 1.06116414
v -1.39501119 0.453265637 0.0424465425
v -1.64924908 0.261214137 0
v -0.0225435477 0.00357052987 1.06116414
v -1.44874275 0.229457185 0.0424465425
v -1.66980696 -1.34031825E-06 0
v -0.0228245519 -1.83207778E-08 1.06116414
v -1.46680129 -1.17058755E-06 0.0424465351
v -1.64924848 -0.261216819 0
v -0.0225435402 -0.00357056619 1.06116414
v -1.44874215 -0.229459569 0.0424465425
v -1.58808041 -0.516000211 0
v -0.0217074323 -0.0070531941 1.06116414
v -1.39501047 -0.453267783 0.0424465425
v -1.48780811 -0.758077979 0
v -0.0203368142 -0.0103621501 1.06116414
v -1.30692875 -0.665915132 0.0424465388
v -1.35090113 -0.98148942 0
v -0.0184654351 -0.013415955 1.06116414
v -1.18666625 -0.862165511 0.0424465463
v -1.18073058 -1.1807332 0
v -0.0161393769 -0.0161394142 1.06116414
v -1.03718388 -1.03718638 0.04244655
v -0.98148632 -1.35090339 0
v -0.0134159131 -0.0184654668 1.06116414
v -0.86216265 -1.18666828 0.0424465537
v -0.758074641 -1.4878099 0
v -0.0103621045 -0.0203368366 1.06116414
v -0.665912211 -1.30693042 0.0424465574
v -0.515996635 -1.58808148 0
v -0.00705314567 -0.0217074472 1.06116414
v -0.453264683 -1.39501143 0.0424465574
v -0.261213094 -1.64924908 0
v -0.00357051543 -0.0225435477 1.06116414
v -0.229456216 -1.44874275 0.0424465686
v 2.40859003E-06 -1.66980696 0
v 3.29229621E-08 -0.0228245519 1.06116414
v 2.15863633E-06 -1.46680129 0.0424465649
v 0.261217833 -1.64924848 0
v 0.00357058062 -0.0225435384 1.06116414
v 0.229460537 -1.44874227 0.0424465761
v 0.516001225 -1.58807993 0
v 0.00705320854 -0.0217074268 1.06116414
v 0.453268796 -1.39501023 0.0424465798
v 0.758078933 -1.48780763 0
v 0.0103621623 -0.0203368068 1.06116414
v 0.665915966 -1.3069284 0.0424465798
v 0.981490195 -1.35090053 0
v 0.0134159653 -0.0184654277 1.06116414
v 0.862166286 -1.18666577 0.0424465872
v 1.18073392 -1.18072975 0
v 0.0161394235 -0.0161393657 1.06116414
v 1.03718698 -1.0371834 0.042446591
v 1.35090411 -0.981485426 0
v 0.0184654742 -0.013415901 1.06116414
v 1.18666887 -0.862161875 0.0424465947
v 1.48781037 -0.758073688 0
v 0.0203368422 -0.0103620915 1.06116414
v 1.30693078 -0.665911317 0.0424465984
v 1.58808184 -0.515995622 0
v 0.021707451 -0.00705313124 1.06116414
v 1.3950119 -0.453263789 0.0424465984
v 1.64924955 -0.261212021 0
v 0.0225435495 -0.00357050076 1.06116414
v 1.4487431 -0.229455322 0.0424465984
v 1.66980696 0 0
v 0.0228245519 0 1.06116414
v 1.46680129 6.78236933E-09 0.0424466617
v 1.64924896 0.261215389 0
v 0.0225435439 0.00357054686 1.06116414
v 1.44874251 0.229458272 0.0424465984
v 1.58808088 0.515998721 0
v 0.0217074379 0.00705317454 1.06116414
v 1.39501107 0.453266561 0.0424465984
v 1.48780882 0.758076549 0
v 0.0203368254 0.0103621297 1.06116414
v 1.30692959 0.66591388 0.0424465947
v 1.3509022 0.98148787 0
v 0.01846545 0.0134159336 1.06116414
v 1.1866672 0.86216414 0.0424465947
v 1.18073177 1.18073177 0
v 0.0161393937 0.0161393937 1.06116414
v 1.03718507 1.03718507 0.0424465835
v 0.98148787 1.3509022 0
v 0.0134159336 0.01846545 1.06116414
v 0.86216414 1.18666708 0.0424465835
v 0.758076549 1.48780882 0
v 0.0103621297 0.0203368254 1.06116414
v 0.665913939 1.30692959 0.0424465835
v 0.515998662 1.58808088 0
v 0.00705317361 0.0217074379 1.06116414
v 0.453266501 1.39501095 0.0424465761
v 0.26121521 1.64924896 0
v 0.0035705443 0.0225435439 1.06116414
v 0.229458228 1.44874251 0.0424465723
vt 2.98023224E-08 0
vt -0.0249999762 0
vt -0.0249999762 0.0400000028
vt 2.98023224E-08 0.0400000028
vt 0.0250000656 0
vt 2.98023224E-08 1
vt -0.0249999762 1
vt 0.0250000656 1
vt 0.0250000656 0.0400000028
vt 0.0500000715 0
vt 0.0500000715 1
vt 0.0500000715 0.0400000028
vt 0.0750000775 0
vt 0.0750000775 1
vt 0.0750000775 0.0400000028
vt 0.100000083 0
vt 0.100000113 1
vt 0.100000083 0.0400000028
vt 0.125000089 0
vt 0.125000089 1
vt 0.125000089 0.0400000028
vt 0.150000095 0
vt 0.150000095 1
vt 0.150000095 0.0400000028
vt 0.175000101 0
vt 0.175000101 1
vt 0.175000101 0.0400000028
vt 0.200000107 0
vt 0.200000137 1
vt 0.200000107 0.0400000028
vt 0.225000143 0
vt 0.225000143 1
vt 0.225000143 0.0400000028
vt 0.250000119 0
vt 0.250000119 1
vt 0.250000119 0.0400000028
vt 0.275000155 0
vt 0.275000155 1
vt 0.275000155 0.0399999991
vt 0.300000161 0
vt 0.300000161 1
vt 0.300000161 0.0400000028
vt 0.325000167 0
vt 0.325000167 1
vt 0.325000167 0.0400000028
vt 0.350000203 0
vt 0.350000203 1
vt 0.350000203 0.0400000028
vt 0.375000209 0
vt 0.375000179 1
vt 0.375000209 0.0400000028
vt 0.400000215 0
vt 0.400000215 1
vt 0.400000215 0.0400000028
vt 0.425000221 0
vt 0.425000221 1
vt 0.425000221 0.0400000028
vt 0.450000226 0
vt 0.450000226 1
vt 0.450000226 0.0400000028
vt 0.475000232 0
vt 0.475000232 1
vt 0.475000232 0.0399999991
vt 0.500000238 0
vt 0.500000238 1
vt 0.500000238 0.0400000028
vt 0.525000215 0
vt 0.525000274 1
vt 0.525000215 0.0400000028
vt 0.55000025 0
vt 0.55000025 1
vt 0.55000025 0.0400000028
vt 0.575000286 0
vt 0.575000286 1
vt 0.575000286 0.0400000028
vt 0.600000262 0
vt 0.600000262 1
vt 0.600000262 0.0400000028
vt 0.625000298 0
vt 0.625000238 1
vt 0.625000298 0.0400000028
vt 0.650000334 0
vt 0.650000274 1
vt 0.650000334 0.0400000028
vt 0.67500031 0
vt 0.67500031 1
vt 0.67500031 0.0400000028
vt 0.700000286 0
vt 0.700000286 1
vt 0.700000286 0.0400000028
vt 0.725000322 0
vt 0.725000322 1
vt 0.725000322 0.0400000028
vt 0.75 0
vt 0.75 1
vt 0.75 0.0399999619
vt 0.774999976 0
vt 0.774999976 1
vt 0.774999976 0.0400000028
vt 0.799999952 0
vt 0.799999952 1
vt 0.799999952 0.0400000028
vt 0.825000048 0
vt 0.825000048 1
vt 0.825000048 0.0400000028
vt 0.849999964 0
vt 0.849999964 1
vt 0.849999964 0.0400000028
vt 0.875 0
vt 0.875 1
vt 0.875 0.0400000028
vt 0.899999976 0
vt 0.899999976 1
vt 0.899999976 0.0400000028
vt 0.924999952 0
vt 0.924999952 1
vt 0.924999952 0.0400000028
vt 0.949999988 0
vt 0.949999988 1
vt 0.949999988 0.0400000028
vt 0.975000024 0
vt 0.975000024 1
vt 0.975000024 0.0400000028
vn -0 0.204664603 0.978832245
vn 0.0320165604 0.202144846 0.978832245
vn 0.0610501096 0.385455281 0.920704722
vn -0 0.390259892 0.920704722
vn -0.0320166424 0.202144831 0.978832126
vn -0 0.576471627 0.817117155
vn 0.090180032 0.569374263 0.817117155
vn -0.0901802704 0.569374323 0.817117155
vn -0.0610502511 0.385455281 0.920704722
vn -0.0632448867 0.194647491 0.978832245
vn -0.178139776 0.548257053 0.817117155
vn -0.120597102 0.371159196 0.920704722
vn -0.0929158181 0.182357341 0.978832245
vn -0.261712909 0.513639927 0.817117155
vn -0.177174509 0.347724169 0.920704722
vn -0.120298773 0.165576935 0.978832245
vn -0.338841707 0.466375321 0.817117155
vn -0.229389116 0.315726846 0.920704722
vn -0.144719705 0.144719526 0.978832245
vn -0.407627136 0.407626897 0.817117155
vn -0.275955528 0.27595529 0.920704722
vn -0.165577099 0.120298699 0.978832245
vn -0.46637547 0.338841379 0.817117155
vn -0.315726966 0.229388952 0.920704722
vn -0.182357386 0.0929155871 0.978832245
vn -0.513640165 0.261712343 0.817117155
vn -0.347724169 0.177174047 0.920704722
vn -0.194647461 0.0632446483 0.978832245
vn -0.548257291 0.17813915 0.817117155
vn -0.371159345 0.120596692 0.920704722
vn -0.202144668 0.0320164151 0.978832245
vn -0.569374382 0.0901796222 0.817117155
vn -0.385455132 0.0610498004 0.920704722
vn -0.204664394 0 0.978832245
vn -0.576471746 -6.68297218E-07 0.817117155
vn -0.390259892 -4.47678161E-07 0.920704722
vn -0.202144593 -0.0320167281 0.978832245
vn -0.569374263 -0.0901805311 0.817117155
vn -0.385455191 -0.0610504374 0.920704722
vn -0.194647312 -0.0632449239 0.978832245
vn -0.548257053 -0.178140044 0.817117155
vn -0.371159047 -0.120597236 0.920704722
vn -0.182357237 -0.0929158628 0.978832245
vn -0.513639867 -0.261713147 0.817117155
vn -0.34772402 -0.177174598 0.920704722
vn -0.165576875 -0.120298862 0.978832245
vn -0.466375172 -0.338841915 0.817117155
vn -0.315726638 -0.229389206 0.920704722
vn -0.144719437 -0.14471975 0.978832245
vn -0.40762648 -0.407627463 0.817117214
vn -0.275955051 -0.275955707 0.920704722
vn -0.120298557 -0.165577188 0.978832245
vn -0.338840872 -0.466375738 0.817117214
vn -0.22938858 -0.315727174 0.920704722
vn -0.0929155201 -0.182357565 0.978832245
vn -0.261711836 -0.513640404 0.817117155
vn -0.177173778 -0.347724378 0.920704722
vn -0.0632445291 -0.19464764 0.978832245
vn -0.178138703 -0.54825747 0.817117155
vn -0.120596401 -0.371159494 0.920704722
vn -0.0320163555 -0.202144846 0.978832245
vn -0.0901794881 -0.569374442 0.817117155
vn -0.0610497296 -0.38545537 0.920704722
vn -0 -0.204664603 0.978832245
vn 5.15478291E-07 -0.576471627 0.817117155
vn 3.71657364E-07 -0.390259922 0.920704722
vn 0.0320168845 -0.202144817 0.978832126
vn 0.0901808739 -0.569374144 0.817117155
vn 0.0610506795 -0.385455132 0.920704722
vn 0.0632452071 -0.194647521 0.978832126
vn 0.178140685 -0.548256695 0.817117155
vn 0.120597735 -0.371159047 0.920704722
vn 0.0929161087 -0.182357401 0.978832126
vn 0.261713564 -0.513639569 0.817117155
vn 0.177174985 -0.347723991 0.920704603
vn 0.120299138 -0.165577039 0.978832126
vn 0.338842213 -0.466374964 0.817117155
vn 0.229389533 -0.315726668 0.920704722
vn 0.144720078 -0.144719556 0.978832126
vn 0.407627761 -0.407626301 0.817117155
vn 0.275956005 -0.275955021 0.920704722
vn 0.165577427 -0.120298542 0.978832126
vn 0.466376007 -0.338840604 0.817117155
vn 0.315727502 -0.22938849 0.920704722
vn 0.182357758 -0.0929155052 0.978832126
vn 0.513640404 -0.261711687 0.817117155
vn 0.347724587 -0.177173719 0.920704603
vn 0.194647878 -0.0632445514 0.978832126
vn 0.548257351 -0.178138554 0.817117155
vn 0.371159613 -0.120596349 0.920704722
vn 0.202145085 -0.0320163369 0.978832126
vn 0.569374442 -0.0901791826 0.817117155
vn 0.385455459 -0.0610495508 0.920704603
vn 0.204664841 0 0.978832126
vn 0.576471627 3.83187569E-07 0.817117155
vn 0.390260249 0 0.920704603
vn 0.20214498 0.0320166387 0.978832126
vn 0.569374263 0.0901799574 0.817117155
vn 0.38545531 0.0610501021 0.920704603
vn 0.194647729 0.0632448792 0.978832126
vn 0.548257053 0.178139433 0.817117214
vn 0.371159345 0.120596938 0.920704722
vn 0.182357609 0.0929158926 0.978832126
vn 0.513639867 0.261712819 0.817117155
vn 0.347724259 0.177174449 0.920704722
vn 0.165577188 0.120298922 0.978832126
vn 0.466375321 0.338841647 0.817117155
vn 0.315726995 0.229389191 0.920704722
vn 0.144719735 0.144719779 0.978832126
vn 0.407626957 0.407627076 0.817117155
vn 0.275955468 0.275955558 0.920704722
vn 0.120298892 0.165577158 0.978832126
vn 0.338841766 0.466375321 0.817117155
vn 0.229389206 0.315726966 0.920704603
vn 0.0929158404 0.18235755 0.978832126
vn 0.26171276 0.513639987 0.817117155
vn 0.177174389 0.347724169 0.920704722
vn 0.0632448196 0.19464764 0.978832126
vn 0.178139284 0.548257172 0.817117155
vn 0.120596871 0.371159405 0.920704722
vn 0.0320165604 0.202144846 0.978832245
vn 0.090180032 0.569374263 0.817117155
vn 0.0610501096 0.385455281 0.920704722
g Cone001_0
f 3/3/3 2/2/2 1/1/1
f 4/4/4 3/3/3 1/1/1
f 4/4/4 1/1/1 5/5/5
f 3/3/3 4/4/4 6/6/6
f 7/7/7 3/3/3 6/6/6
f 6/6/6 4/4/4 8/8/8
f 9/9/9 4/4/4 5/5/5
f 4/4/4 9/9/9 8/8/8
f 9/9/9 5/5/5 10/10/10
f 8/8/8 9/9/9 11/11/11
f 12/12/12 9/9/9 10/10/10
f 9/9/9 12/12/12 11/11/11
f 12/12/12 10/10/10 13/13/13
f 11/11/11 12/12/12 14/14/14
f 15/15/15 12/12/12 13/13/13
f 12/12/12 15/15/15 14/14/14
f 15/15/15 13/13/13 16/16/16
f 14/14/14 15/15/15 17/17/17
f 18/18/18 15/15/15 16/16/16
f 15/15/15 18/18/18 17/17/17
f 18/18/18 16/16/16 19/19/19
f 17/17/17 18/18/18 20/20/20
f 21/21/21 18/18/18 19/19/19
f 18/18/18 21/21/21 20/20/20
f 21/21/21 19/19/19 22/22/22
f 20/20/20 21/21/21 23/23/23
f 24/24/24 21/21/21 22/22/22
f 21/21/21 24/24/24 23/23/23
f 24/24/24 22/22/22 25/25/25
f 23/23/23 24/24/24 26/26/26
f 27/27/27 24/24/24 25/25/25
f 24/24/24 27/27/27 26/26/26
f 27/27/27 25/25/25 28/28/28
f 26/26/26 27/27/27 29/29/29
f 30/30/30 27/27/27 28/28/28
f 27/27/27 30/30/30 29/29/29
f 30/30/30 28/28/28 31/31/31
f 29/29/29 30/30/30 32/32/32
f 33/33/33 30/30/30 31/31/31
f 30/30/30 33/33/33 32/32/32
f 33/33/33 31/31/31 34/34/34
f 32/32/32 33/33/33 35/35/35
f 36/36/36 33/33/33 34/34/34
f 33/33/33 36/36/36 35/35/35
f 36/36/36 34/34/34 37/37/37
f 35/35/35 36/36/36 38/38/38
f 39/39/39 36/36/36 37/37/37
f 36/36/36 39/39/39 38/38/38
f 39/39/39 37/37/37 40/40/40
f 38/38/38 39/39/39 41/41/41
f 42/42/42 39/39/39 40/40/40
f 39/39/39 42/42/42 41/41/41
f 42/42/42 40/40/40 43/43/43
f 41/41/41 42/42/42 44/44/44
f 45/45/45 42/42/42 43/43/43
f 42/42/42 45/45/45 44/44/44
f 45/45/45 43/43/43 46/46/46
f 44/44/44 45/45/45 47/47/47
f 48/48/48 45/45/45 46/46/46
f 45/45/45 48/48/48 47/47/47
f 48/48/48 46/46/46 49/49/49
f 47/47/47 48/48/48 50/50/50
f 51/51/51 48/48/48 49/49/49
f 48/48/48 51/51/51 50/50/50
f 51/51/51 49/49/49 52/52/52
f 50/50/50 51/51/51 53/53/53
f 54/54/54 51/51/51 52/52/52
f 51/51/51 54/54/54 53/53/53
f 54/54/54 52/52/52 55/55/55
f 53/53/53 54/54/54 56/56/56
f 57/57/57 54/54/54 55/55/55
f 54/54/54 57/57/57 56/56/56
f 57/57/57 55/55/55 58/58/58
f 56/56/56 57/57/57 59/59/59
f 60/60/60 57/57/57 58/58/58
f 57/57/57 60/60/60 59/59/59
f 60/60/60 58/58/58 61/61/61
f 59/59/59 60/60/60 62/62/62
f 63/63/63 60/60/60 61/61/61
f 60/60/60 63/63/63 62/62/62
f 63/63/63 61/61/61 64/64/64
f 62/62/62 63/63/63 65/65/65
f 66/66/66 63/63/63 64/64/64
f 63/63/63 66/66/66 65/65/65
f 66/66/66 64/64/64 67/67/67
f 65/65/65 66/66/66 68/68/68
f 69/69/69 66/66/66 67/67/67
f 66/66/66 69/69/69 68/68/68
f 69/69/69 67/67/67 70/70/70
f 68/68/68 69/69/69 71/71/71
f 72/72/72 69/69/69 70/70/70
f 69/69/69 72/72/72 71/71/71
f 72/72/72 70/70/70 73/73/73
f 71/71/71 72/72/72 74/74/74
f 75/75/75 72/72/72 73/73/73
f 72/72/72 75/75/75 74/74/74
f 75/75/75 73/73/73 76/76/76
f 74/74/74 75/75/75 77/77/77
f 78/78/78 75/75/75 76/76/76
f 75/75/75 78/78/78 77/77/77
f 78/78/78 76/76/76 79/79/79
f 77/77/77 78/78/78 80/80/80
f 81/81/81 78/78/78 79/79/79
f 78/78/78 81/81/81 80/80/80
f 81/81/81 79/79/79 82/82/82
f 80/80/80 81/81/81 83/83/83
f 84/84/84 81/81/81 82/82/82
f 81/81/81 84/84/84 83/83/83
f 84/84/84 82/82/82 85/85/85
f 83/83/83 84/84/84 86/86/86
f 87/87/87 84/84/84 85/85/85
f 84/84/84 87/87/87 86/86/86
f 87/87/87 85/85/85 88/88/88
f 86/86/86 87/87/87 89/89/89
f 90/90/90 87/87/87 88/88/88
f 87/87/87 90/90/90 89/89/89
f 90/90/90 88/88/88 91/91/91
f 89/89/89 90/90/90 92/92/92
f 93/93/93 90/90/90 91/91/91
f 90/90/90 93/93/93 92/92/92
f 93/93/93 91/91/91 94/94/94
f 92/92/92 93/93/93 95/95/95
f 96/96/96 93/93/93 94/94/94
f 93/93/93 96/96/96 95/95/95
f 96/96/96 94/94/94 97/97/97
f 95/95/95 96/96/96 98/98/98
f 99/99/99 96/96/96 97/97/97
f 96/96/96 99/99/99 98/98/98
f 99/99/99 97/97/97 100/100/100
f 98/98/98 99/99/99 101/101/101
f 102/102/102 99/99/99 100/100/100
f 99/99/99 102/102/102 101/101/101
f 102/102/102 100/100/100 103/103/103
f 101/101/101 102/102/102 104/104/104
f 105/105/105 102/102/102 103/103/103
f 102/102/102 105/105/105 104/104/104
f 105/105/105 103/103/103 106/106/106
f 104/104/104 105/105/105 107/107/107
f 108/108/108 105/105/105 106/106/106
f 105/105/105 108/108/108 107/107/107
f 108/108/108 106/106/106 109/109/109
f 107/107/107 108/108/108 110/110/110
f 111/111/111 108/108/108 109/109/109
f 108/108/108 111/111/111 110/110/110
f 111/111/111 109/109/109 112/112/112
f 110/110/110 111/111/111 113/113/113
f 114/114/114 111/111/111 112/112/112
f 111/111/111 114/114/114 113/113/113
f 114/114/114 112/112/112 115/115/115
f 113/113/113 114/114/114 116/116/116
f 117/117/117 114/114/114 115/115/115
f 114/114/114 117/117/117 116/116/116
f 117/117/117 115/115/115 118/118/118
f 116/116/116 117/117/117 119/119/119
f 120/120/120 117/117/117 118/118/118
f 117/117/117 120/120/120 119/119/119
f 120/120/120 118/118/118 121/121/121
f 119/119/119 120/120/120 122/122/122
f 123/123/123 120/120/120 121/121/121
f 120/120/120 123/123/123 122/122/122
