g Cone001k
v 0.053805165 0.0310644284 0
v 0.0390060879 0.0390060879 0.00184524467
v 0.0439317338 0.0439317338 0
v 0.0477725118 0.0275814719 0.00184524467
v 0.0600118637 0.0160801318 0
v 0.0340804495 0.0340804495 0.00369048933
v 0.0532833114 0.0142772207 0.00184524467
v 0.0621288568 0 0
v 0.0417398512 0.0240985155 0.00369048933
v 0.0291548017 0.0291548017 0.00553573389
v 0.0551629439 0 0.00184524467
v 0.0600118525 -0.0160801746 0
v 0.0465547554 0.0124743097 0.00369048933
v 0.0357071944 0.0206155591 0.00553573389
v 0.0242291596 0.0242291596 0.00738097867
v 0.053283304 -0.0142772598 0.00184524467
v 0.0538051464 -0.0310644638 0
v 0.048197031 0 0.00369048933
v 0.0398261994 0.0106713986 0.00553573389
v 0.0296745375 0.0171326026 0.00738097867
v 0.0193035137 0.0193035137 0.00922622345
v 0.0236418806 0.0136496462 0.00922622345
v 0.0330976434 0.00886848755 0.00738097867
v 0.026369093 0.00706557697 0.00922622345
v 0.0477724932 -0.0275815055 0.00184524467
v 0.0439317077 -0.0439317636 0
v 0.046554748 -0.0124743441 0.00369048933
v 0.0412311181 0 0.00553573389
v 0.0342652053 0 0.00738097867
v 0.0272992924 0 0.00922622345
v 0.0390060656 -0.0390061177 0.00184524467
v 0.0310643967 -0.0538051836 0
v 0.0417398363 -0.0240985453 0.00369048933
v 0.039826192 -0.0106714275 0.00553573389
v 0.0330976397 -0.0088685127 0.00738097867
v 0.0263690874 -0.00706559652 0.00922622345
v 0.027581444 -0.0477725267 0.00184524467
v 0.0160800982 -0.0600118712 0
v 0.0340804309 -0.0340804718 0.00369048933
v 0.0357071832 -0.0206155833 0.00553573389
v 0.0296745282 -0.0171326231 0.00738097867
v 0.0236418732 -0.013649663 0.00922622345
v 0.0142771928 -0.0532833189 0.00184524467
v -2.88844682E-08 -0.0621288568 0
v 0.0240984913 -0.0417398699 0.00369048933
v 0.029154785 -0.0291548222 0.00553573389
v 0.0242291428 -0.0242291745 0.00738097867
v 0.0193035025 -0.0193035286 0.00922622345
v -2.56459316E-08 -0.0551629439 0.00184524467
v -0.016080156 -0.0600118563 0
v 0.0124742854 -0.0465547629 0.00369048933
v 0.0206155367 -0.0357072055 0.00553573389
v 0.0171325859 -0.0296745468 0.00738097867
v 0.0136496332 -0.0236418881 0.00922622345
v -0.0142772421 -0.053283304 0.00184524467
v -0.031064447 -0.0538051538 0
v -2.24073915E-08 -0.048197031 0.00369048933
v 0.0106713772 -0.0398262069 0.00553573389
v 0.00886846986 -0.0330976471 0.00738097867
v 0.007065563 -0.0263690967 0.00922622345
v -0.0275814869 -0.0477725007 0.00184524467
v -0.0439317599 -0.0439317115 0
v -0.0124743283 -0.0465547517 0.00369048933
v -1.91688532E-08 -0.0412311181 0.00553573389
v -1.59303148E-08 -0.0342652053 0.00738097867
v -1.26917765E-08 -0.0272992924 0.00922622345
v -0.039006114 -0.0390060693 0.00184524467
v -0.0538051799 -0.0310644023 0
v -0.0240985304 -0.0417398438 0.00369048933
v -0.0106714135 -0.0398261957 0.00553573389
v -0.00886850059 -0.0330976397 0.00738097867
v -0.00706558768 -0.0263690893 0.00922622345
v -0.047772523 -0.0275814477 0.00184524467
v -0.0600118712 -0.0160801038 0
v -0.0340804681 -0.0340804309 0.00369048933
v -0.0206155702 -0.0357071869 0.00553573389
v -0.0171326119 -0.0296745319 0.00738097867
v -0.0136496546 -0.023641875 0.00922622345
v -0.0532833189 -0.0142771974 0.00184524467
v -0.0621288568 2.419387E-08 0
v -0.0417398661 -0.0240984969 0.00369048933
v -0.0291548185 -0.0291547868 0.00553573389
v -0.0242291726 -0.0242291447 0.00738097867
v -0.0193035267 -0.0193035044 0.00922622345
v -0.0551629439 2.14812417E-08 0.00184524467
v -0.06001186 0.0160801504 0
v -0.0465547629 -0.0124742892 0.00369048933
v -0.0357072018 -0.0206155404 0.00553573389
v -0.0296745449 -0.0171325896 0.00738097867
v -0.0236418862 -0.013649635 0.00922622345
v -0.0532833077 0.0142772384 0.00184524467
v -0.0538051575 0.0310644433 0
v -0.048197031 1.87686169E-08 0.00369048933
v -0.0398262069 -0.0106713809 0.00553573389
v -0.0330976471 -0.00886847358 0.00738097867
v -0.0263690967 -0.00706556533 0.00922622345
v -0.0477725044 0.027581485 0.00184524467
v -0.0439317226 0.043931745 0
v -0.0465547517 0.0124743246 0.00369048933
v -0.0412311181 1.60559885E-08 0.00553573389
v -0.0342652053 1.33433629E-08 0.00738097867
v -0.0272992924 1.06307372E-08 0.00922622345
v -0.0390060805 0.0390061028 0.00184524467
v -0.0310644172 0.0538051724 0
v -0.0275814645 0.0477725156 0.00184524467
v -0.0417398475 0.0240985267 0.00369048933
v -0.0398261994 0.0106714116 0.00553573389
v -0.0330976434 0.00886849873 0.00738097867
v -0.0263690911 0.00706558581 0.00922622345
v -0.0340804383 0.0340804569 0.00369048933
v -0.0240985081 0.0417398587 0.00369048933
v -0.0357071906 0.0206155684 0.00553573389
v -0.0296745338 0.0171326101 0.00738097867
v -0.0236418769 0.0136496536 0.00922622345
v -0.0291547943 0.0291548092 0.00553573389
v -0.0206155516 0.0357071981 0.00553573389
v -0.0242291521 0.0242291652 0.00738097867
v -0.01930351 0.0193035193 0.00922622345
v -0.017132597 0.0296745412 0.00738097867
v -0.0136496425 0.0236418843 0.00922622345
vt 0.833333313 0
vt 0.875 0.199999988
vt 0.875 0
vt 0.833333313 0.199999988
vt 0.791666627 0
vt 0.875 0.400000006
vt 0.791666687 0.199999988
vt 0.75 0
vt 0.833333313 0.400000006
vt 0.875 0.600000024
vt 0.75 0.199999988
vt 0.708333254 0
vt 0.791666687 0.400000006
vt 0.833333313 0.600000024
vt 0.875 0.800000012
vt 0.708333254 0.199999988
vt 0.666666567 0
vt 0.75 0.400000006
vt 0.791666687 0.600000024
vt 0.833333313 0.800000012
vt 0.875 1
vt 0.833333313 1
vt 0.791666627 0.800000012
vt 0.791666627 1
vt 0.666666508 0.199999988
vt 0.624999881 0
vt 0.708333254 0.400000006
vt 0.75 0.600000024
vt 0.75 0.800000012
vt 0.75 1
vt 0.624999881 0.199999988
vt 0.583333254 0
vt 0.666666508 0.400000006
vt 0.708333254 0.600000024
vt 0.708333254 0.800000012
vt 0.708333254 1
vt 0.583333254 0.199999988
vt 0.541666567 0
vt 0.624999881 0.400000006
vt 0.666666567 0.600000024
vt 0.666666567 0.800000012
vt 0.666666567 1
vt 0.541666567 0.199999988
vt 0.499999911 0
vt 0.583333254 0.400000006
vt 0.624999881 0.600000024
vt 0.624999881 0.800000012
vt 0.624999881 1
vt 0.499999911 0.199999988
vt 0.458333254 0
vt 0.541666567 0.400000006
vt 0.583333254 0.600000024
vt 0.583333254 0.800000012
vt 0.583333254 1
vt 0.458333254 0.199999988
vt 0.416666597 0
vt 0.499999911 0.400000006
vt 0.541666567 0.600000024
vt 0.541666567 0.800000012
vt 0.541666567 1
vt 0.416666597 0.199999988
vt 0.374999911 0
vt 0.458333254 0.400000006
vt 0.499999911 0.600000024
vt 0.499999911 0.800000012
vt 0.499999911 1
vt 0.374999911 0.199999988
vt 0.333333254 0
vt 0.416666657 0.400000006
vt 0.458333254 0.600000024
vt 0.458333254 0.800000012
vt 0.458333254 1
vt 0.333333254 0.199999988
vt 0.291666597 0
vt 0.374999911 0.400000006
vt 0.416666657 0.600000024
vt 0.416666657 0.800000012
vt 0.416666597 1
vt 0.291666627 0.199999988
vt 0.24999994 0
vt 0.333333254 0.400000006
vt 0.374999911 0.600000024
vt 0.374999911 0.800000012
vt 0.374999911 1
vt 0.24999994 0.199999988
vt 0.208333284 0
vt 0.291666627 0.400000006
vt 0.333333254 0.600000024
vt 0.333333254 0.800000012
vt 0.333333254 1
vt 0.208333284 0.199999988
vt 0.166666627 0
vt 0.24999994 0.400000006
vt 0.291666597 0.600000024
vt 0.291666627 0.800000012
vt 0.291666597 1
vt 0.166666627 0.199999988
vt 0.12499997 0
vt 0.208333299 0.400000006
vt 0.24999994 0.600000024
vt 0.24999994 0.800000012
vt 0.24999994 1
vt 0.12499997 0.199999988
vt 0.0833333135 0
vt 0.0833333135 0.199999988
vt 0.166666627 0.400000006
vt 0.208333299 0.600000024
vt 0.208333299 0.800000012
vt 0.208333299 1
vt 0.12499997 0.400000006
vt 0.0833333135 0.400000006
vt 0.166666627 0.600000024
vt 0.166666627 0.800000012
vt 0.166666627 1
vt 0.12499997 0.600000024
vt 0.0833333135 0.600000024
vt 0.12499997 0.800000012
vt 0.12499997 1
vt 0.0833333135 0.800000012
vt 0.0833333135 1
vn 0.2217585 0.128032342 0.966659606
vn 0.181065038 0.181065038 0.966659665
vn 0.181065008 0.181064963 0.966659665
vn 0.221758485 0.128032327 0.966659665
vn 0.247339472 0.0662743971 0.966659606
vn 0.181065008 0.181065038 0.966659665
vn 0.247339427 0.0662743971 0.966659665
vn 0.256064624 -4.00023623E-08 0.966659665
vn 0.22175841 0.128032252 0.966659665
vn 0.181064978 0.181065008 0.966659665
vn 0.256064653 -3.0254995E-08 0.966659665
vn 0.247339472 -0.0662745461 0.966659606
vn 0.247339398 0.0662743896 0.966659665
vn 0.22175847 0.128032282 0.966659665
vn 0.181065008 0.181065023 0.966659665
vn 0.247339427 -0.0662745312 0.966659665
vn 0.221758381 -0.128032461 0.966659665
vn 0.256064504 -2.61023434E-08 0.966659665
vn 0.247339368 0.0662743822 0.966659665
vn 0.22175847 0.128032282 0.966659665
vn 0.181064993 0.181064948 0.966659665
vn 0.22175847 0.128032312 0.966659665
vn 0.247339472 0.0662744045 0.966659606
vn 0.247339457 0.0662744269 0.966659665
vn 0.221758366 -0.128032461 0.966659665
vn 0.181064889 -0.181065112 0.966659665
vn 0.247339278 -0.0662745237 0.966659665
vn 0.256064564 -3.79670482E-08 0.966659665
vn 0.256064653 -2.61023487E-08 0.966659665
vn 0.256064594 -4.72154902E-08 0.966659665
vn 0.181064948 -0.181065157 0.966659606
vn 0.128032178 -0.221758559 0.966659665
vn 0.221758351 -0.128032431 0.966659665
vn 0.247339368 -0.0662745014 0.966659665
vn 0.247339427 -0.0662745014 0.966659665
vn 0.247339338 -0.0662745014 0.966659665
vn 0.128032193 -0.221758589 0.966659606
vn 0.0662742704 -0.247339502 0.966659606
vn 0.181064919 -0.181065112 0.966659665
vn 0.221758381 -0.128032401 0.966659665
vn 0.221758351 -0.128032461 0.966659665
vn 0.221758306 -0.128032416 0.966659665
vn 0.0662742779 -0.247339502 0.966659606
vn -1.25491297E-07 -0.256064624 0.966659665
vn 0.128032118 -0.221758515 0.966659665
vn 0.18106477 -0.181065068 0.966659665
vn 0.181064889 -0.181065157 0.966659665
vn 0.181064859 -0.181065127 0.966659665
vn -1.37630579E-07 -0.256064624 0.966659665
vn -0.0662745237 -0.247339427 0.966659665
vn 0.066274263 -0.247339457 0.966659665
vn 0.128032148 -0.221758485 0.966659665
vn 0.128032178 -0.221758559 0.966659665
vn 0.128032178 -0.221758544 0.966659665
vn -0.0662745237 -0.247339472 0.966659606
vn -0.128032371 -0.221758425 0.966659665
vn -1.34071158E-07 -0.256064564 0.966659665
vn 0.0662742481 -0.247339398 0.966659665
vn 0.0662742704 -0.247339457 0.966659665
vn 0.0662743077 -0.247339487 0.966659665
vn -0.128032371 -0.221758455 0.966659665
vn -0.181065097 -0.181064919 0.966659665
vn -0.0662745014 -0.247339398 0.966659665
vn -1.25469256E-07 -0.256064564 0.966659665
vn -1.13011289E-07 -0.256064594 0.966659665
vn -1.48234705E-07 -0.256064624 0.966659665
vn -0.181065097 -0.181064963 0.966659665
vn -0.221758515 -0.128032193 0.966659665
vn -0.128032371 -0.221758395 0.966659665
vn -0.0662744865 -0.247339308 0.966659665
vn -0.0662745088 -0.247339427 0.966659665
vn -0.0662745237 -0.247339427 0.966659665
vn -0.22175853 -0.128032193 0.966659665
vn -0.247339502 -0.0662743002 0.966659606
vn -0.181065068 -0.181064919 0.966659665
vn -0.128032357 -0.22175841 0.966659665
vn -0.128032371 -0.22175847 0.966659665
vn -0.128032371 -0.221758336 0.966659665
vn -0.247339487 -0.0662743002 0.966659665
vn -0.256064624 9.87155104E-08 0.966659665
vn -0.22175847 -0.128032178 0.966659665
vn -0.181065068 -0.181064919 0.966659665
vn -0.181065097 -0.181064963 0.966659665
vn -0.181065068 -0.181064919 0.966659665
vn -0.256064624 1.03816156E-07 0.966659665
vn -0.247339398 0.066274479 0.966659665
vn -0.247339427 -0.0662742928 0.966659665
vn -0.22175847 -0.128032178 0.966659665
vn -0.22175853 -0.128032193 0.966659665
vn -0.221758515 -0.128032178 0.966659665
vn -0.247339427 0.066274479 0.966659665
vn -0.221758455 0.128032386 0.966659665
vn -0.256064564 1.17757182E-07 0.966659665
vn -0.247339398 -0.0662742928 0.966659665
vn -0.247339398 -0.0662742853 0.966659665
vn -0.247339487 -0.0662743449 0.966659665
vn -0.22175847 0.128032386 0.966659606
vn -0.181065008 0.181065068 0.966659665
vn -0.247339398 0.0662744567 0.966659665
vn -0.256064534 1.01443206E-07 0.966659665
vn -0.256064624 6.64423396E-08 0.966659665
vn -0.256064594 1.01019218E-07 0.966659665
vn -0.181064978 0.181065053 0.966659665
vn -0.128032282 0.221758515 0.966659665
vn -0.128032282 0.22175847 0.966659665
vn -0.221758395 0.128032342 0.966659665
vn -0.247339427 0.0662744418 0.966659665
vn -0.247339398 0.0662744641 0.966659665
vn -0.247339368 0.066274479 0.966659665
vn -0.181064963 0.181065053 0.966659665
vn -0.128032267 0.22175847 0.966659665
vn -0.221758381 0.128032371 0.966659665
vn -0.221758395 0.128032386 0.966659665
vn -0.221758366 0.128032371 0.966659665
vn -0.181064978 0.181065038 0.966659665
vn -0.128032252 0.22175841 0.966659665
vn -0.181064978 0.181065038 0.966659665
vn -0.181065023 0.181065068 0.966659665
vn -0.128032312 0.221758515 0.966659606
vn -0.128032282 0.22175847 0.966659665
g Cone001k_0
f 3/3/3 2/2/2 1/1/1
f 2/2/2 4/4/4 1/1/1
f 1/1/1 4/4/4 5/5/5
f 2/2/2 6/6/6 4/4/4
f 4/4/4 7/7/7 5/5/5
f 5/5/5 7/7/7 8/8/8
f 6/6/6 9/9/9 4/4/4
f 4/4/4 9/9/9 7/7/7
f 6/6/6 10/10/10 9/9/9
f 7/7/7 11/11/11 8/8/8
f 8/8/8 11/11/11 12/12/12
f 9/9/9 13/13/13 7/7/7
f 7/7/7 13/13/13 11/11/11
f 10/10/10 14/14/14 9/9/9
f 9/9/9 14/14/14 13/13/13
f 10/10/10 15/15/15 14/14/14
f 11/11/11 16/16/16 12/12/12
f 12/12/12 16/16/16 17/17/17
f 13/13/13 18/18/18 11/11/11
f 11/11/11 18/18/18 16/16/16
f 14/14/14 19/19/19 13/13/13
f 13/13/13 19/19/19 18/18/18
f 15/15/15 20/20/20 14/14/14
f 14/14/14 20/20/20 19/19/19
f 15/15/15 21/21/21 20/20/20
f 21/21/21 22/22/22 20/20/20
f 20/20/20 22/22/22 23/23/23
f 20/20/20 23/23/23 19/19/19
f 22/22/22 24/24/24 23/23/23
f 16/16/16 25/25/25 17/17/17
f 17/17/17 25/25/25 26/26/26
f 18/18/18 27/27/27 16/16/16
f 16/16/16 27/27/27 25/25/25
f 19/19/19 28/28/28 18/18/18
f 19/19/19 23/23/23 28/28/28
f 18/18/18 28/28/28 27/27/27
f 23/23/23 24/24/24 29/29/29
f 23/23/23 29/29/29 28/28/28
f 24/24/24 30/30/30 29/29/29
f 25/25/25 31/31/31 26/26/26
f 26/26/26 31/31/31 32/32/32
f 27/27/27 33/33/33 25/25/25
f 25/25/25 33/33/33 31/31/31
f 28/28/28 34/34/34 27/27/27
f 28/28/28 29/29/29 34/34/34
f 27/27/27 34/34/34 33/33/33
f 29/29/29 30/30/30 35/35/35
f 29/29/29 35/35/35 34/34/34
f 30/30/30 36/36/36 35/35/35
f 31/31/31 37/37/37 32/32/32
f 32/32/32 37/37/37 38/38/38
f 33/33/33 39/39/39 31/31/31
f 31/31/31 39/39/39 37/37/37
f 34/34/34 40/40/40 33/33/33
f 34/34/34 35/35/35 40/40/40
f 33/33/33 40/40/40 39/39/39
f 35/35/35 36/36/36 41/41/41
f 35/35/35 41/41/41 40/40/40
f 36/36/36 42/42/42 41/41/41
f 37/37/37 43/43/43 38/38/38
f 38/38/38 43/43/43 44/44/44
f 39/39/39 45/45/45 37/37/37
f 37/37/37 45/45/45 43/43/43
f 40/40/40 46/46/46 39/39/39
f 40/40/40 41/41/41 46/46/46
f 39/39/39 46/46/46 45/45/45
f 41/41/41 42/42/42 47/47/47
f 41/41/41 47/47/47 46/46/46
f 42/42/42 48/48/48 47/47/47
f 43/43/43 49/49/49 44/44/44
f 44/44/44 49/49/49 50/50/50
f 45/45/45 51/51/51 43/43/43
f 43/43/43 51/51/51 49/49/49
f 46/46/46 52/52/52 45/45/45
f 46/46/46 47/47/47 52/52/52
f 45/45/45 52/52/52 51/51/51
f 47/47/47 48/48/48 53/53/53
f 47/47/47 53/53/53 52/52/52
f 48/48/48 54/54/54 53/53/53
f 49/49/49 55/55/55 50/50/50
f 50/50/50 55/55/55 56/56/56
f 51/51/51 57/57/57 49/49/49
f 49/49/49 57/57/57 55/55/55
f 52/52/52 58/58/58 51/51/51
f 52/52/52 53/53/53 58/58/58
f 51/51/51 58/58/58 57/57/57
f 53/53/53 54/54/54 59/59/59
f 53/53/53 59/59/59 58/58/58
f 54/54/54 60/60/60 59/59/59
f 55/55/55 61/61/61 56/56/56
f 56/56/56 61/61/61 62/62/62
f 57/57/57 63/63/63 55/55/55
f 55/55/55 63/63/63 61/61/61
f 58/58/58 64/64/64 57/57/57
f 58/58/58 59/59/59 64/64/64
f 57/57/57 64/64/64 63/63/63
f 59/59/59 60/60/60 65/65/65
f 59/59/59 65/65/65 64/64/64
f 60/60/60 66/66/66 65/65/65
f 61/61/61 67/67/67 62/62/62
f 62/62/62 67/67/67 68/68/68
f 63/63/63 69/69/69 61/61/61
f 61/61/61 69/69/69 67/67/67
f 64/64/64 70/70/70 63/63/63
f 64/64/64 65/65/65 70/70/70
f 63/63/63 70/70/70 69/69/69
f 65/65/65 66/66/66 71/71/71
f 65/65/65 71/71/71 70/70/70
f 66/66/66 72/72/72 71/71/71
f 67/67/67 73/73/73 68/68/68
f 68/68/68 73/73/73 74/74/74
f 69/69/69 75/75/75 67/67/67
f 67/67/67 75/75/75 73/73/73
f 70/70/70 76/76/76 69/69/69
f 70/70/70 71/71/71 76/76/76
f 69/69/69 76/76/76 75/75/75
f 71/71/71 72/72/72 77/77/77
f 71/71/71 77/77/77 76/76/76
f 72/72/72 78/78/78 77/77/77
f 73/73/73 79/79/79 74/74/74
f 74/74/74 79/79/79 80/80/80
f 75/75/75 81/81/81 73/73/73
f 73/73/73 81/81/81 79/79/79
f 76/76/76 82/82/82 75/75/75
f 76/76/76 77/77/77 82/82/82
f 75/75/75 82/82/82 81/81/81
f 77/77/77 78/78/78 83/83/83
f 77/77/77 83/83/83 82/82/82
f 78/78/78 84/84/84 83/83/83
f 79/79/79 85/85/85 80/80/80
f 80/80/80 85/85/85 86/86/86
f 81/81/81 87/87/87 79/79/79
f 79/79/79 87/87/87 85/85/85
f 82/82/82 88/88/88 81/81/81
f 82/82/82 83/83/83 88/88/88
f 81/81/81 88/88/88 87/87/87
f 83/83/83 84/84/84 89/89/89
f 83/83/83 89/89/89 88/88/88
f 84/84/84 90/90/90 89/89/89
f 85/85/85 91/91/91 86/86/86
f 86/86/86 91/91/91 92/92/92
f 87/87/87 93/93/93 85/85/85
f 85/85/85 93/93/93 91/91/91
f 88/88/88 94/94/94 87/87/87
f 88/88/88 89/89/89 94/94/94
f 87/87/87 94/94/94 93/93/93
f 89/89/89 90/90/90 95/95/95
f 89/89/89 95/95/95 94/94/94
f 90/90/90 96/96/96 95/95/95
f 91/91/91 97/97/97 92/92/92
f 92/92/92 97/97/97 98/98/98
f 93/93/93 99/99/99 91/91/91
f 91/91/91 99/99/99 97/97/97
f 94/94/94 100/100/100 93/93/93
f 94/94/94 95/95/95 100/100/100
f 93/93/93 100/100/100 99/99/99
f 95/95/95 96/96/96 101/101/101
f 95/95/95 101/101/101 100/100/100
f 96/96/96 102/102/102 101/101/101
f 97/97/97 103/103/103 98/98/98
f 98/98/98 103/103/103 104/104/104
f 103/103/103 105/105/105 104/104/104
f 99/99/99 106/106/106 97/97/97
f 97/97/97 106/106/106 103/103/103
f 100/100/100 107/107/107 99/99/99
f 100/100/100 101/101/101 107/107/107
f 99/99/99 107/107/107 106/106/106
f 101/101/101 102/102/102 108/108/108
f 101/101/101 108/108/108 107/107/107
f 102/102/102 109/109/109 108/108/108
f 103/103/103 110/110/110 105/105/105
f 106/106/106 110/110/110 103/103/103
f 110/110/110 111/111/111 105/105/105
f 107/107/107 112/112/112 106/106/106
f 107/107/107 108/108/108 112/112/112
f 106/106/106 112/112/112 110/110/110
f 108/108/108 109/109/109 113/113/113
f 108/108/108 113/113/113 112/112/112
f 109/109/109 114/114/114 113/113/113
f 110/110/110 115/115/115 111/111/111
f 112/112/112 115/115/115 110/110/110
f 112/112/112 113/113/113 115/115/115
f 115/115/115 116/116/116 111/111/111
f 113/113/113 114/114/114 117/117/117
f 113/113/113 117/117/117 115/115/115
f 115/115/115 117/117/117 116/116/116
f 114/114/114 118/118/118 117/117/117
f 117/117/117 119/119/119 116/116/116
f 117/117/117 118/118/118 119/119/119
f 118/118/118 120/120/120 119/119/119
