g Cylinder001
v 1.04641521 0.699192464 0
v 0.699192464 1.04641533 0
v 1.224231 1.83219147 0
v 1.83219147 1.22423112 0
v 1.23433113 0.245523721 0
v 2.16121697 0.429892808 0
v 1.23433137 -0.245521739 0
v 2.16121769 -0.4298895 0
v 1.81388032 2.71466422 0
v 2.71466398 1.81388056 0
v 0.636950254 3.20216465 0
v 0.429892927 2.16121697 0
v 0.699192464 1.04641533 0
v 0.245523885 1.23433089 0
v 3.20216465 0.636950135 0
v 2.71466398 1.81388056 0
v 1.83219147 1.22423112 0
v 3.2021656 -0.636945248 0
v 1.83219302 -1.2242285 0
v 2.71466637 -1.81387687 0
v 1.04641616 -0.699190795 0
v 1.23433137 -0.245521739 0
v 1.83219302 -1.2242285 0
v 0.429892927 2.16121697 0
v -0.636949778 3.20216489 0
v -0.42989251 2.16121697 0
v -1.81388032 2.71466422 0
v -1.22423112 1.83219147 0
v -0.245523408 1.23433089 0
v -0.699192047 1.04641533 0
v -1.83219123 1.224231 0
v -1.04641509 0.699192464 0
v -2.16121721 0.429892302 0
v -1.23433065 0.245523438 0
v -2.1612165 -0.429893672 0
v -1.23433065 -0.245524138 0
v -1.83219063 -1.22423232 0
v -1.04641449 -0.699192941 0
v -3.20216441 -0.636951447 0
v -3.20216489 0.63694936 0
v -1.83219123 1.224231 0
v -2.71466422 1.81388032 0
v 0.245523885 1.23433089 0
v -0.42989251 2.16121697 0
v 0.429892927 2.16121697 0
v -0.699191451 -1.04641569 0
v -1.22422969 -1.83219242 0
v -1.83219063 -1.22423232 0
v -0.429890811 -2.16121721 0
v -0.245522484 -1.23433089 0
v -1.81387866 -2.71466541 0
v -2.71466303 -1.81388211 0
v -2.1612165 -0.429893672 0
v -3.20216441 -0.636951447 0
v -0.636947334 -3.20216513 0
v -0.429890811 -2.16121721 0
v -0.429890811 -2.16121721 0
v 0.636953533 -3.2021637 0
v 0.429895163 -2.1612165 0
v -0.429890811 -2.16121721 0
v 0.245525122 -1.23433077 0
v 1.22423327 -1.83218968 0
v 0.699193716 -1.04641414 0
v 1.83219302 -1.2242285 0
v 1.04641616 -0.699190795 0
v 2.71466637 -1.81387687 0
v 1.81388378 -2.71466184 0
v 0.429895163 -2.1612165 0
v 1.81388378 -2.71466184 0
v 0.636953533 -3.2021637 0
v -1.83219123 1.224231 0
v -2.71466422 1.81388032 0
v -1.81388032 2.71466422 0
vt 0.63636291 0.81295234
vt 0.63636291 0.750279069
vt 0.363636255 0.750279069
vt 0.363636255 0.81295234
vt 0.63636291 0.875625491
vt 0.363636255 0.875625491
vt 0.63636291 0.938298464
vt 0.363636255 0.938298464
vt 9.53674316E-07 0.750279009
vt 9.53674316E-07 0.81295228
vt 9.53674316E-07 0.687605679
vt 0.363636255 0.687605739
vt 0.63636291 0.750279069
vt 0.63636291 0.687605739
vt 9.53674316E-07 0.875625432
vt 9.53674316E-07 0.81295228
vt 0.363636255 0.81295234
vt 9.53674316E-07 0.938298404
vt 0.363636494 0.999998391
vt 9.53674316E-07 0.999998331
vt 0.636363149 0.999998391
vt 0.63636291 0.938298464
vt 0.363636494 0.999998391
vt 0.363636255 0.687605739
vt 1.01327896E-06 0.624932587
vt 0.363636315 0.624932647
vt 1.01327896E-06 0.562259436
vt 0.363636315 0.562259495
vt 0.63636291 0.624932647
vt 0.63636291 0.562259495
vt 0.363636315 0.499586195
vt 0.63636291 0.499586195
vt 0.363636315 0.436912924
vt 0.63636291 0.436912924
vt 0.363636315 0.374239624
vt 0.63636291 0.374239624
vt 0.363636315 0.311566442
vt 0.63636297 0.311566442
vt 1.01327896E-06 0.374239624
vt 1.01327896E-06 0.436912924
vt 0.363636315 0.499586195
vt 1.01327896E-06 0.499586195
vt 0.63636291 0.687605739
vt 0.363636315 0.624932647
vt 0.363636255 0.687605739
vt 0.63636297 0.248893201
vt 0.363636315 0.248893186
vt 0.363636315 0.311566442
vt 0.363636315 0.186219916
vt 0.63636297 0.186219931
vt 5.36441803E-07 0.248893172
vt 1.01327896E-06 0.311566442
vt 0.363636315 0.374239624
vt 1.01327896E-06 0.374239624
vt 5.36441803E-07 0.186219901
vt 0.363636315 0.186219916
vt 0.363636315 0.186219916
vt 5.36441803E-07 0.123546682
vt 0.363636315 0.123546697
vt 0.363636315 0.186219916
vt 0.63636297 0.123546712
vt 0.363636315 0.0608734675
vt 0.63636297 0.0608734488
vt 0.363636315 4.26681765E-08
vt 0.63636297 2.54765098E-08
vt 5.36441803E-07 2.6773165E-08
vt 5.36441803E-07 0.0608734488
vt 0.363636315 0.123546697
vt 5.36441803E-07 0.0608734488
vt 5.36441803E-07 0.123546682
vt 0.363636315 0.499586195
vt 1.01327896E-06 0.499586195
vt 1.01327896E-06 0.562259436
vn -0 0 1
vn -0 0 1
vn -0 0 1
vn -0 0 1
vn -0 0 1
vn -0 0 1
vn -0 0 1
vn -0 0 1
vn -0 0 1
vn -0 0 1
vn -0 0 1
vn -0 0 1
vn -0 0 1
vn -0 0 1
vn -0 0 1
vn -0 0 1
vn -0 0 1
vn -0 0 1
vn -0 0 1
vn -0 0 1
vn -0 0 1
vn -0 0 1
vn -0 0 1
vn -0 0 1
vn -0 0 1
vn -0 0 1
vn -0 0 1
vn -0 0 1
vn -0 0 1
vn -0 0 1
vn -0 0 1
vn -0 0 1
vn -0 0 1
vn -0 0 1
vn -0 0 1
vn -0 0 1
vn -0 0 1
vn -0 0 1
vn -0 0 1
vn -0 0 1
vn -0 0 1
vn -0 0 1
vn -0 0 1
vn -0 0 1
vn -0 0 1
vn -0 0 1
vn -0 0 1
vn -0 0 1
vn -0 0 1
vn -0 0 1
vn -0 0 1
vn -0 0 1
vn -0 0 1
vn -0 0 1
vn -0 0 1
vn -0 0 1
vn -0 0 1
vn -0 0 1
vn -0 0 1
vn -0 0 1
vn -0 0 1
vn -0 0 1
vn -0 0 1
vn -0 0 1
vn -0 0 1
vn -0 0 1
vn -0 0 1
vn -0 0 1
vn -0 0 1
vn -0 0 1
vn -0 0 1
vn -0 0 1
vn -0 0 1
g Cylinder001_0
f 3/3/3 2/2/2 1/1/1
f 4/4/4 3/3/3 1/1/1
f 4/4/4 1/1/1 5/5/5
f 6/6/6 4/4/4 5/5/5
f 6/6/6 5/5/5 7/7/7
f 8/8/8 6/6/6 7/7/7
f 9/9/9 3/3/3 4/4/4
f 10/10/10 9/9/9 4/4/4
f 9/9/9 11/11/11 3/3/3
f 11/11/11 12/12/12 3/3/3
f 3/3/3 12/12/12 13/13/13
f 12/12/12 14/14/14 13/13/13
f 15/15/15 6/6/6 8/8/8
f 15/15/15 16/16/16 6/6/6
f 16/16/16 17/17/17 6/6/6
f 18/18/18 15/15/15 8/8/8
f 18/18/18 8/8/8 19/19/19
f 20/20/20 18/18/18 19/19/19
f 8/8/8 22/22/22 21/21/21
f 23/23/23 8/8/8 21/21/21
f 11/11/11 25/25/25 24/24/24
f 25/25/25 26/26/26 24/24/24
f 25/25/25 27/27/27 26/26/26
f 27/27/27 28/28/28 26/26/26
f 26/26/26 28/28/28 29/29/29
f 28/28/28 30/30/30 29/29/29
f 28/28/28 31/31/31 30/30/30
f 31/31/31 32/32/32 30/30/30
f 31/31/31 33/33/33 32/32/32
f 33/33/33 34/34/34 32/32/32
f 33/33/33 35/35/35 34/34/34
f 35/35/35 36/36/36 34/34/34
f 35/35/35 37/37/37 36/36/36
f 37/37/37 38/38/38 36/36/36
f 39/39/39 35/35/35 33/33/33
f 40/40/40 39/39/39 33/33/33
f 40/40/40 33/33/33 41/41/41
f 42/42/42 40/40/40 41/41/41
f 44/44/44 29/29/29 43/43/43
f 45/45/45 44/44/44 43/43/43
f 47/47/47 46/46/46 38/38/38
f 48/48/48 47/47/47 38/38/38
f 47/47/47 49/49/49 46/46/46
f 49/49/49 50/50/50 46/46/46
f 51/51/51 47/47/47 48/48/48
f 52/52/52 51/51/51 48/48/48
f 52/52/52 48/48/48 53/53/53
f 54/54/54 52/52/52 53/53/53
f 51/51/51 55/55/55 47/47/47
f 55/55/55 56/56/56 47/47/47
f 55/55/55 58/58/58 57/57/57
f 58/58/58 59/59/59 57/57/57
f 60/60/60 59/59/59 50/50/50
f 59/59/59 61/61/61 50/50/50
f 59/59/59 62/62/62 61/61/61
f 62/62/62 63/63/63 61/61/61
f 62/62/62 64/64/64 63/63/63
f 64/64/64 65/65/65 63/63/63
f 66/66/66 64/64/64 62/62/62
f 67/67/67 66/66/66 62/62/62
f 69/69/69 62/62/62 68/68/68
f 70/70/70 69/69/69 68/68/68
f 72/72/72 71/71/71 28/28/28
f 73/73/73 72/72/72 28/28/28
