g Plane008
v 0.0764667913 0.00349608017 0
v 0.305066794 0.246159613 0
v 0.305066794 0.00349608017 0
v 0.0764667913 0.246159613 0
v -0.184485823 -0.139785603 0
v -0.155031204 0.14606908 0
v -0.0268311985 -0.0115855811 0
v -0.312685847 0.0178690888 0
v -0.220214263 0.0110134147 0
v -0.0170142706 0.239613429 0
v -0.0170142706 0.0110134147 0
v -0.220214263 0.239613429 0
v 0.0167961884 0.095562242 0
v 0.182367846 0.165161282 0
v 0.134381533 0.0475759357 0
v 0.0647825003 0.213147596 0
v 0.181923822 -0.133112222 -1.14705658E-08
v -0.00604645722 0.142225221 3.38398003E-08
v 0.230966851 0.0901650041 8.05984612E-09
v -0.0550895147 -0.0810520798 1.43093875E-08
v -0.739970148 0.226280108 5.65339064E-08
v -0.340216666 0.39494592 3.51547627E-08
v -0.479775935 0.102227479 5.03346307E-08
v -0.600410938 0.518998623 4.1354042E-08
v -0.561078727 0.00280993013 6.10285582E-08
v -0.744813561 0.197848171 8.1013404E-08
v -0.744813561 0.00280993013 8.1013404E-08
v -0.561078727 0.197848171 6.10285582E-08
v -0.351340771 -0.112351209 3.8215358E-08
v -0.375014603 0.117401458 4.07903613E-08
v -0.478054047 -0.00931179803 5.19979615E-08
v -0.248301387 0.0143620837 2.70077578E-08
v -0.322624445 0.00885190628 3.50918796E-08
v -0.485944271 0.192586735 5.2856187E-08
v -0.485944271 0.00885190628 5.2856187E-08
v -0.322624445 0.192586735 3.50918796E-08
v -0.513119042 0.0768071339 5.5811995E-08
v -0.64619559 0.132746622 7.0286724E-08
v -0.607627034 0.0382386409 6.60916299E-08
v -0.551687598 0.171315119 6.00070891E-08
vt 0.511258483 0.4913221
vt 0.961258531 0.969006062
vt 0.961258411 0.491321981
vt 0.511258602 0.969006181
vt 0.53420794 0.0309939384
vt 0.934208035 0.430993795
vt 0.934207916 0.0309938192
vt 0.534208059 0.430993915
vt 0.0387414694 0.506120086
vt 0.438741565 0.956119955
vt 0.438741446 0.506119967
vt 0.0387415886 0.956120074
vt 0.0917710662 0.140568554
vt 0.341771066 0.390568495
vt 0.341771007 0.140568495
vt 0.0917711258 0.390568554
vt 0.511258483 0.4913221
vt 0.961258531 0.969006062
vt 0.961258411 0.491321981
vt 0.511258602 0.969006181
vt 0.0387414694 0.506120086
vt 0.438741565 0.956119955
vt 0.438741446 0.506119967
vt 0.0387415886 0.956120074
vt 0.511258483 0.4913221
vt 0.961258531 0.969006062
vt 0.961258411 0.491321981
vt 0.511258602 0.969006181
vt 0.53420794 0.0309939384
vt 0.934208035 0.430993795
vt 0.934207916 0.0309938192
vt 0.534208059 0.430993915
vt 0.0387414694 0.506120086
vt 0.438741565 0.956119955
vt 0.438741446 0.506119967
vt 0.0387415886 0.956120074
vt 0.0917710662 0.140568554
vt 0.341771066 0.390568495
vt 0.341771007 0.140568495
vt 0.0917711258 0.390568554
vn -0 0 1
vn -0 0 1
vn -0 0 1
vn -0 0 1
vn -0 0 1
vn -0 0 1
vn -0 0 1
vn -0 0 1
vn -0 0 1
vn -0 0 1
vn -0 0 1
vn -0 0 1
vn -0 0 1
vn -0 0 1
vn -0 0 1
vn -0 0 1
vn -0 0 1
vn -0 0 1
vn -0 0 1
vn -0 0 1
vn -0 0 1
vn -0 0 1
vn -0 0 1
vn -0 0 1
vn -0 0 -1
vn -0 0 -1
vn -0 0 -1
vn -0 0 -1
vn -0 0 -1
vn -0 0 -1
vn -0 0 -1
vn -0 0 -1
vn -0 0 -1
vn -0 0 -1
vn -0 0 -1
vn -0 0 -1
vn -0 0 -1
vn -0 0 -1
vn -0 0 -1
vn -0 0 -1
g Plane008_0
f 3/3/3 2/2/2 1/1/1
f 4/4/4 1/1/1 2/2/2
f 7/7/7 6/6/6 5/5/5
f 8/8/8 5/5/5 6/6/6
f 11/11/11 10/10/10 9/9/9
f 12/12/12 9/9/9 10/10/10
f 15/15/15 14/14/14 13/13/13
f 16/16/16 13/13/13 14/14/14
f 19/19/19 18/18/18 17/17/17
f 20/20/20 17/17/17 18/18/18
f 23/23/23 22/22/22 21/21/21
f 24/24/24 21/21/21 22/22/22
f 27/27/27 26/26/26 25/25/25
f 28/28/28 25/25/25 26/26/26
f 31/31/31 30/30/30 29/29/29
f 32/32/32 29/29/29 30/30/30
f 35/35/35 34/34/34 33/33/33
f 36/36/36 33/33/33 34/34/34
f 39/39/39 38/38/38 37/37/37
f 40/40/40 37/37/37 38/38/38
