g Plane006
v 0.0746588185 0.00543366792 -0.0102925217
v 0.188868865 0.000381569436 -0.000722773722
v 0.178393885 -0.0385126397 0.0748511478
v 0.0652349442 -0.0297963452 0.0581143312
v 0.15730989 -0.0730834827 0.15371576
v 0.0473535769 -0.0586914271 0.124330081
v 0.128325373 -0.0983880237 0.231627241
v 0.0218770616 -0.0807872787 0.192639887
v 0.0950067267 -0.112859823 0.308226496
v -0.00891354587 -0.0941069424 0.263394058
v 0.0610369518 -0.116243571 0.383326024
v -0.0421013981 -0.0973789468 0.336768001
v 0.0297619812 -0.10945221 0.456928551
v -0.0743670091 -0.0903230533 0.412744045
v 0.00387442135 -0.0942912251 0.529226363
v -0.102378353 -0.0738309026 0.491111249
v -0.0147488331 -0.0731394589 0.600581884
v -0.123270214 -0.0499547683 0.571485102
v -0.0250849873 -0.0486560464 0.671488941
v -0.135100782 -0.0216671266 0.653346062
v -0.0269341543 -0.0235434435 0.742520094
v -0.137166888 0.00757673429 0.73609215
v -0.0208637342 -0.000356603705 0.814263105
v -0.130092666 0.0343805514 0.819101751
v -0.00814370718 0.0186738186 0.887256324
v -0.115668595 0.0559287444 0.901799798
v 0.00934514124 0.0318275578 0.961927414
v -0.0964878127 0.0703713298 0.983717382
v 0.0292665754 0.0380868576 1.03854442
v -0.0754748881 0.0770023614 1.06454146
v 0.049074661 0.0372941494 1.11718619
v -0.0554191172 0.0762216523 1.14414418
v 0.0663431287 0.0302148703 1.19773483
v -0.0386022292 0.0693259239 1.22259104
v 0.0791275203 0.0184526704 1.27989185
v -0.0265675914 0.0582049787 1.30012393
v 0.0801165402 0.00419988437 1.3640238
v -0.0138675729 0.0450167134 1.37631726
v 0.0700197592 -0.0103997253 1.44948351
v -0.00139289279 0.0321913473 1.45176005
v 0.0452158265 -0.0223889276 1.53130412
v 0.0163715612 0.020681059 1.53133762
v -0.0746588185 -0.00543367909 -0.0102925217
v -0.188868865 -0.000381597987 -0.000722773722
v -0.178393885 0.0385126099 0.0748511478
v -0.0652349442 0.0297963377 0.0581143312
v -0.157309905 0.0730834603 0.15371576
v -0.0473535843 0.0586914197 0.124330081
v -0.128325388 0.0983880013 0.231627241
v -0.0218770746 0.0807872713 0.192639887
v -0.0950067416 0.112859815 0.308226496
v 0.00891353097 0.0941069424 0.263394058
v -0.0610369705 0.116243556 0.383326024
v 0.0421013795 0.0973789543 0.336768001
v -0.029761998 0.10945221 0.456928551
v 0.0743669942 0.0903230682 0.412744045
v -0.00387443556 0.0942912251 0.529226363
v 0.102378346 0.0738309249 0.491111249
v 0.0147488229 0.0731394589 0.600581884
v 0.123270199 0.0499547869 0.571485102
v 0.0250849798 0.0486560501 0.671488941
v 0.135100782 0.0216671452 0.653346062
v 0.0269341506 0.0235434491 0.742520094
v 0.137166888 -0.0075767138 0.73609215
v 0.0208637342 0.000356606848 0.814263105
v 0.130092666 -0.0343805328 0.819101751
v 0.00814370997 -0.0186738167 0.887256324
v 0.115668602 -0.0559287257 0.901799798
v -0.00934513751 -0.0318275578 0.961927414
v 0.0964878201 -0.0703713149 0.983717382
v -0.0292665698 -0.0380868614 1.03854442
v 0.0754748955 -0.0770023465 1.06454146
v -0.0490746573 -0.0372941568 1.11718619
v 0.0554191284 -0.0762216523 1.14414418
v -0.0663431212 -0.0302148797 1.19773483
v 0.0386022404 -0.0693259239 1.22259104
v -0.0791275203 -0.0184526835 1.27989185
v 0.0265676007 -0.058204975 1.30012393
v -0.0801165402 -0.00419989647 1.3640238
v 0.0138675794 -0.0450167097 1.37631726
v -0.0700197592 0.010399715 1.44948351
v 0.00139289757 -0.0321913473 1.45176005
v -0.0452158302 0.0223889202 1.53130412
v -0.0163715575 -0.0206810627 1.53133762
vt 0 0
vt 0 1
vt 0.0500000007 1
vt 0.0500000007 0
vt 0.100000001 1
vt 0.100000001 0
vt 0.150000006 1
vt 0.150000006 0
vt 0.200000003 1
vt 0.200000003 0
vt 0.25 1
vt 0.25 0
vt 0.300000012 1
vt 0.300000012 0
vt 0.350000024 1
vt 0.350000024 0
vt 0.400000036 1
vt 0.400000036 0
vt 0.450000048 1
vt 0.450000048 0
vt 0.50000006 1
vt 0.50000006 0
vt 0.550000072 1
vt 0.550000072 0
vt 0.600000083 1
vt 0.600000083 0
vt 0.650000095 1
vt 0.650000095 0
vt 0.700000107 1
vt 0.700000107 0
vt 0.750000119 1
vt 0.750000119 0
vt 0.800000131 1
vt 0.800000131 0
vt 0.850000143 1
vt 0.850000143 0
vt 0.900000155 1
vt 0.900000155 0
vt 0.950000167 1
vt 0.950000167 0
vt 1.00000012 1
vt 1.00000012 0
vt 0 0
vt 0 1
vt 0.0500000007 1
vt 0.0500000007 0
vt 0.100000001 1
vt 0.100000001 0
vt 0.150000006 1
vt 0.150000006 0
vt 0.200000003 1
vt 0.200000003 0
vt 0.25 1
vt 0.25 0
vt 0.300000012 1
vt 0.300000012 0
vt 0.350000024 1
vt 0.350000024 0
vt 0.400000036 1
vt 0.400000036 0
vt 0.450000048 1
vt 0.450000048 0
vt 0.50000006 1
vt 0.50000006 0
vt 0.550000072 1
vt 0.550000072 0
vt 0.600000083 1
vt 0.600000083 0
vt 0.650000095 1
vt 0.650000095 0
vt 0.700000107 1
vt 0.700000107 0
vt 0.750000119 1
vt 0.750000119 0
vt 0.800000131 1
vt 0.800000131 0
vt 0.850000143 1
vt 0.850000143 0
vt 0.900000155 1
vt 0.900000155 0
vt 0.950000167 1
vt 0.950000167 0
vt 1.00000012 1
vt 1.00000012 0
vn 0.000866845425 0.889045358 0.457818389
vn 0.000866845425 0.889045358 0.457818389
vn 0.0060750586 0.902299285 0.431067288
vn 0.00618737796 0.902576208 0.430485696
vn 0.0249270778 0.931593359 0.362646371
vn 0.0249819458 0.931656778 0.362479627
vn 0.0598514378 0.960957468 0.270145595
vn 0.0597447716 0.960891724 0.270402759
vn 0.107307889 0.981014729 0.161539495
vn 0.107070595 0.980954885 0.16206041
vn 0.159670025 0.986101985 0.0459157154
vn 0.159436658 0.986115575 0.046434246
vn 0.20768638 0.975909054 -0.066841051
vn 0.207562357 0.975956678 -0.0665318519
vn 0.243852779 0.955334067 -0.166950867
vn 0.243837506 0.955346465 -0.166902542
vn 0.265032321 0.932406545 -0.245714918
vn 0.265056223 0.932369351 -0.245830208
vn 0.273311228 0.915098906 -0.296471119
vn 0.273321688 0.915056527 -0.296591967
vn 0.274770826 0.90830487 -0.315409511
vn 0.274770588 0.908301473 -0.315419704
vn 0.276723742 0.912222087 -0.302117407
vn 0.276740283 0.91225785 -0.301993996
vn 0.284629673 0.9227795 -0.259738386
vn 0.284673661 0.922824621 -0.259529203
vn 0.300054133 0.933844984 -0.194682255
vn 0.300115347 0.933875442 -0.194441304
vn 0.320524126 0.940125465 -0.115881227
vn 0.320592791 0.940134108 -0.115620367
vn 0.341212511 0.939383447 -0.0336578302
vn 0.341285348 0.939367771 -0.0333542638
vn 0.357498258 0.932984769 0.0416452959
vn 0.357565314 0.932943404 0.0419968814
vn 0.375994265 0.921303034 0.099141188
vn 0.376152396 0.921206236 0.0994410217
vn 0.420219421 0.897693276 0.132523403
vn 0.420329779 0.897636712 0.132556126
vn 0.546260059 0.825589359 0.141429156
vn 0.540805757 0.829147816 0.141573206
vn 0.645250022 0.751485169 0.137558788
vn 0.645250022 0.751485229 0.137558803
vn -0.000866709743 -0.889045358 0.457818389
vn -0.000866709626 -0.889045358 0.457818389
vn -0.0060749175 -0.902299285 0.431067288
vn -0.00618723547 -0.902576208 0.430485636
vn -0.0249269437 -0.931593359 0.362646371
vn -0.0249818061 -0.931656778 0.362479538
vn -0.0598513149 -0.960957468 0.270145625
vn -0.0597446598 -0.960891724 0.270402789
vn -0.107307769 -0.981014729 0.16153951
vn -0.107070468 -0.980954885 0.16206041
vn -0.159669831 -0.986102104 0.0459157228
vn -0.159436494 -0.986115575 0.0464342572
vn -0.207686186 -0.975909173 -0.0668410286
vn -0.207562178 -0.975956738 -0.0665318295
vn -0.243852645 -0.955334187 -0.166950911
vn -0.243837327 -0.955346465 -0.166902557
vn -0.265032232 -0.932406545 -0.245714948
vn -0.265056103 -0.932369411 -0.245830223
vn -0.273311079 -0.915098906 -0.296471059
vn -0.273321539 -0.915056527 -0.296591967
vn -0.274770737 -0.908304989 -0.315409482
vn -0.274770468 -0.908301473 -0.315419704
vn -0.276723593 -0.912222147 -0.302117407
vn -0.276740134 -0.91225785 -0.301993996
vn -0.284629524 -0.9227795 -0.259738386
vn -0.284673512 -0.92282474 -0.259529233
vn -0.300053954 -0.933844984 -0.19468224
vn -0.300115198 -0.933875442 -0.194441289
vn -0.320524007 -0.940125465 -0.115881212
vn -0.320592701 -0.940134108 -0.115620352
vn -0.341212332 -0.939383447 -0.0336578377
vn -0.341285199 -0.939367771 -0.0333542749
vn -0.357498109 -0.932984769 0.0416452922
vn -0.357565165 -0.932943404 0.0419968814
vn -0.375994116 -0.921303153 0.0991412103
vn -0.376152188 -0.921206236 0.099441044
vn -0.420219302 -0.897693276 0.132523432
vn -0.42032969 -0.897636831 0.13255614
vn -0.54625994 -0.825589478 0.141429156
vn -0.540805757 -0.829147935 0.14157325
vn -0.645249903 -0.751485229 0.137558788
vn -0.645249903 -0.751485229 0.137558788
g Plane006_0
f 3/3/3 2/2/2 1/1/1
f 4/4/4 3/3/3 1/1/1
f 5/5/5 3/3/3 4/4/4
f 6/6/6 5/5/5 4/4/4
f 7/7/7 5/5/5 6/6/6
f 8/8/8 7/7/7 6/6/6
f 9/9/9 7/7/7 8/8/8
f 10/10/10 9/9/9 8/8/8
f 11/11/11 9/9/9 10/10/10
f 12/12/12 11/11/11 10/10/10
f 13/13/13 11/11/11 12/12/12
f 14/14/14 13/13/13 12/12/12
f 15/15/15 13/13/13 14/14/14
f 16/16/16 15/15/15 14/14/14
f 17/17/17 15/15/15 16/16/16
f 18/18/18 17/17/17 16/16/16
f 19/19/19 17/17/17 18/18/18
f 20/20/20 19/19/19 18/18/18
f 21/21/21 19/19/19 20/20/20
f 22/22/22 21/21/21 20/20/20
f 23/23/23 21/21/21 22/22/22
f 24/24/24 23/23/23 22/22/22
f 25/25/25 23/23/23 24/24/24
f 26/26/26 25/25/25 24/24/24
f 27/27/27 25/25/25 26/26/26
f 28/28/28 27/27/27 26/26/26
f 29/29/29 27/27/27 28/28/28
f 30/30/30 29/29/29 28/28/28
f 31/31/31 29/29/29 30/30/30
f 32/32/32 31/31/31 30/30/30
f 33/33/33 31/31/31 32/32/32
f 34/34/34 33/33/33 32/32/32
f 35/35/35 33/33/33 34/34/34
f 36/36/36 35/35/35 34/34/34
f 37/37/37 35/35/35 36/36/36
f 38/38/38 37/37/37 36/36/36
f 39/39/39 37/37/37 38/38/38
f 40/40/40 39/39/39 38/38/38
f 41/41/41 39/39/39 40/40/40
f 42/42/42 41/41/41 40/40/40
f 45/45/45 44/44/44 43/43/43
f 46/46/46 45/45/45 43/43/43
f 47/47/47 45/45/45 46/46/46
f 48/48/48 47/47/47 46/46/46
f 49/49/49 47/47/47 48/48/48
f 50/50/50 49/49/49 48/48/48
f 51/51/51 49/49/49 50/50/50
f 52/52/52 51/51/51 50/50/50
f 53/53/53 51/51/51 52/52/52
f 54/54/54 53/53/53 52/52/52
f 55/55/55 53/53/53 54/54/54
f 56/56/56 55/55/55 54/54/54
f 57/57/57 55/55/55 56/56/56
f 58/58/58 57/57/57 56/56/56
f 59/59/59 57/57/57 58/58/58
f 60/60/60 59/59/59 58/58/58
f 61/61/61 59/59/59 60/60/60
f 62/62/62 61/61/61 60/60/60
f 63/63/63 61/61/61 62/62/62
f 64/64/64 63/63/63 62/62/62
f 65/65/65 63/63/63 64/64/64
f 66/66/66 65/65/65 64/64/64
f 67/67/67 65/65/65 66/66/66
f 68/68/68 67/67/67 66/66/66
f 69/69/69 67/67/67 68/68/68
f 70/70/70 69/69/69 68/68/68
f 71/71/71 69/69/69 70/70/70
f 72/72/72 71/71/71 70/70/70
f 73/73/73 71/71/71 72/72/72
f 74/74/74 73/73/73 72/72/72
f 75/75/75 73/73/73 74/74/74
f 76/76/76 75/75/75 74/74/74
f 77/77/77 75/75/75 76/76/76
f 78/78/78 77/77/77 76/76/76
f 79/79/79 77/77/77 78/78/78
f 80/80/80 79/79/79 78/78/78
f 81/81/81 79/79/79 80/80/80
f 82/82/82 81/81/81 80/80/80
f 83/83/83 81/81/81 82/82/82
f 84/84/84 83/83/83 82/82/82
