g Plane003
v -0.0248345062 -0.045164261 -1.26999998E-06
v -0.00410607178 0.0676691383 -1.26999998E-06
v -0.0334101208 0.0736519992 -1.26999998E-06
v -0.058695931 -0.0382482708 -1.26999998E-06
v -0.0650540069 0.0816851407 -1.26999998E-06
v -0.0964888409 -0.0286456961 -1.26999998E-06
v -0.0960697681 0.0917517692 -1.26999998E-06
v -0.135987461 -0.0158010945 -1.26999998E-06
v -0.123244181 0.103476204 -1.26999998E-06
v -0.175211295 0.00119980564 -1.26999998E-06
v -0.143121004 0.115588859 -1.26999998E-06
v -0.212422982 0.0241652392 -1.26999998E-06
v -0.151572898 0.123308457 -1.26999998E-06
v -0.248630702 0.0621462055 -1.26999998E-06
v -0.150877014 0.121552013 -1.26999998E-06
v -0.265586913 0.123190083 -1.26999998E-06
v -0.147557542 0.135247201 -1.26999998E-06
v -0.256001621 0.172676116 -1.26999998E-06
v -0.135587797 0.164696813 -1.26999998E-06
v -0.241227329 0.209433049 -1.26999998E-06
v -0.120551325 0.205748558 -1.26999998E-06
v -0.231006175 0.236744747 -1.26999998E-06
v -0.114345051 0.260215372 -1.26999998E-06
v -0.228767037 0.25192982 -1.26999998E-06
v -0.132804483 0.31807071 -1.26999998E-06
v -0.230384052 0.257744342 -1.26999998E-06
v -0.170358181 0.356143564 -1.26999998E-06
v -0.232750595 0.25987196 -1.26999998E-06
v -0.213850319 0.375238806 -1.26999998E-06
v -0.244768023 0.264761925 -1.26999998E-06
v -0.256685734 0.383104593 -1.26999998E-06
v -0.268955886 0.269041091 -1.26999998E-06
v -0.298256308 0.385745198 -1.26999998E-06
v -0.301846057 0.271079808 -1.26999998E-06
v -0.337860405 0.386557132 -1.26999998E-06
v -0.340064734 0.271856725 -1.26999998E-06
v -0.37374109 0.387879848 -1.26999998E-06
v -0.381292611 0.273407072 -1.26999998E-06
v -0.40313378 0.391293257 -1.26999998E-06
v -0.424218714 0.278525949 -1.26999998E-06
v -0.422553271 0.396806091 -1.26999998E-06
v -0.468251944 0.291579336 -1.26999998E-06
vt 0 0
vt 0 1
vt 0.0500000007 1
vt 0.0500000007 0
vt 0.100000001 1
vt 0.100000001 0
vt 0.150000006 1
vt 0.150000006 0
vt 0.200000003 1
vt 0.200000003 0
vt 0.25 1
vt 0.25 0
vt 0.300000012 1
vt 0.300000012 0
vt 0.350000024 1
vt 0.350000024 0
vt 0.400000036 1
vt 0.400000036 0
vt 0.450000048 1
vt 0.450000048 0
vt 0.50000006 1
vt 0.50000006 0
vt 0.550000072 1
vt 0.550000072 0
vt 0.600000083 1
vt 0.600000083 0
vt 0.650000095 1
vt 0.650000095 0
vt 0.700000107 1
vt 0.700000107 0
vt 0.750000119 1
vt 0.750000119 0
vt 0.800000131 1
vt 0.800000131 0
vt 0.850000143 1
vt 0.850000143 0
vt 0.900000155 1
vt 0.900000155 0
vt 0.950000167 1
vt 0.950000167 0
vt 1.00000012 1
vt 1.00000012 0
vn -0 0 -1
vn -0 0 -1
vn -0 0 -1
vn -0 0 -1
vn -0 0 -1
vn -0 0 -1
vn -0 0 -1
vn -0 0 -1
vn -0 0 -1
vn -0 0 -1
vn -0 0 -1
vn -0 0 -1
vn -0 0 -1
vn -0 0 -1
vn -0 0 -1
vn -0 0 -1
vn -0 0 -1
vn -0 0 -1
vn -0 0 -1
vn -0 0 -1
vn -0 0 -1
vn -0 0 -1
vn -0 0 -1
vn -0 0 -1
vn -0 0 -1
vn -0 0 -1
vn -0 0 -1
vn -0 0 -1
vn -0 0 -1
vn -0 0 -1
vn -0 0 -1
vn -0 0 -1
vn -0 0 -1
vn -0 0 -1
vn -0 0 -1
vn -0 0 -1
vn -0 0 -1
vn -0 0 -1
vn -0 0 -1
vn -0 0 -1
vn -0 0 -1
vn -0 0 -1
g Plane003_0
f 3/3/3 2/2/2 1/1/1
f 4/4/4 3/3/3 1/1/1
f 5/5/5 3/3/3 4/4/4
f 6/6/6 5/5/5 4/4/4
f 7/7/7 5/5/5 6/6/6
f 8/8/8 7/7/7 6/6/6
f 9/9/9 7/7/7 8/8/8
f 10/10/10 9/9/9 8/8/8
f 11/11/11 9/9/9 10/10/10
f 12/12/12 11/11/11 10/10/10
f 13/13/13 11/11/11 12/12/12
f 14/14/14 13/13/13 12/12/12
f 15/15/15 13/13/13 14/14/14
f 16/16/16 15/15/15 14/14/14
f 17/17/17 15/15/15 16/16/16
f 18/18/18 17/17/17 16/16/16
f 19/19/19 17/17/17 18/18/18
f 20/20/20 19/19/19 18/18/18
f 21/21/21 19/19/19 20/20/20
f 22/22/22 21/21/21 20/20/20
f 23/23/23 21/21/21 22/22/22
f 24/24/24 23/23/23 22/22/22
f 25/25/25 23/23/23 24/24/24
f 26/26/26 25/25/25 24/24/24
f 27/27/27 25/25/25 26/26/26
f 28/28/28 27/27/27 26/26/26
f 29/29/29 27/27/27 28/28/28
f 30/30/30 29/29/29 28/28/28
f 31/31/31 29/29/29 30/30/30
f 32/32/32 31/31/31 30/30/30
f 33/33/33 31/31/31 32/32/32
f 34/34/34 33/33/33 32/32/32
f 35/35/35 33/33/33 34/34/34
f 36/36/36 35/35/35 34/34/34
f 37/37/37 35/35/35 36/36/36
f 38/38/38 37/37/37 36/36/36
f 39/39/39 37/37/37 38/38/38
f 40/40/40 39/39/39 38/38/38
f 41/41/41 39/39/39 40/40/40
f 42/42/42 41/41/41 40/40/40
