g Plane007
v -0.0268227179 0.0410213768 -1.26999998E-06
v 0.0782976523 0.0432376005 -1.26999998E-06
v 0.0787478536 0.0740242004 -1.26999998E-06
v -0.0262714438 0.0791374519 -1.26999998E-06
v 0.0814699829 0.106713086 -1.26999998E-06
v -0.0229510237 0.119020097 -1.26999998E-06
v 0.0866052881 0.139953718 -1.26999998E-06
v -0.0166408606 0.159839079 -1.26999998E-06
v 0.0942173377 0.172424346 -1.26999998E-06
v -0.0070431307 0.20073548 -1.26999998E-06
v 0.104265109 0.202805832 -1.26999998E-06
v 0.00624470925 0.240847796 -1.26999998E-06
v 0.116546728 0.229794577 -1.26999998E-06
v 0.0237862561 0.279298991 -1.26999998E-06
v 0.130626947 0.252195686 -1.26999998E-06
v 0.0463780761 0.315103024 -1.26999998E-06
v 0.145840958 0.269174665 -1.26999998E-06
v 0.0750468522 0.346913934 -1.26999998E-06
v 0.164292932 0.283585757 -1.26999998E-06
v 0.106028154 0.371109486 -1.26999998E-06
v 0.185598031 0.295312941 -1.26999998E-06
v 0.143297777 0.391572446 -1.26999998E-06
v 0.208172664 0.302636951 -1.26999998E-06
v 0.186732218 0.405571401 -1.26999998E-06
v 0.231088892 0.304580629 -1.26999998E-06
v 0.235549226 0.409629643 -1.26999998E-06
v 0.254908592 0.30023253 -1.26999998E-06
v 0.287477076 0.400204986 -1.26999998E-06
v 0.272438675 0.292370796 -1.26999998E-06
v 0.341377646 0.371759802 -1.26999998E-06
v 0.281341702 0.27911669 -1.26999998E-06
v 0.377060056 0.322627515 -1.26999998E-06
v 0.286885858 0.25930661 -1.26999998E-06
v 0.391477287 0.270068854 -1.26999998E-06
v 0.287555009 0.25643608 -1.26999998E-06
v 0.384352446 0.215381861 -1.26999998E-06
v 0.274671197 0.234411761 -1.26999998E-06
v 0.36152041 0.175146073 -1.26999998E-06
v 0.253598094 0.207963496 -1.26999998E-06
v 0.329607069 0.135314852 -1.26999998E-06
v 0.245734289 0.200021848 -1.26999998E-06
v 0.284178495 0.102158479 -1.26999998E-06
vt 0 0
vt 0 1
vt 0.0500000007 1
vt 0.0500000007 0
vt 0.100000001 1
vt 0.100000001 0
vt 0.150000006 1
vt 0.150000006 0
vt 0.200000003 1
vt 0.200000003 0
vt 0.25 1
vt 0.25 0
vt 0.300000012 1
vt 0.300000012 0
vt 0.350000024 1
vt 0.350000024 0
vt 0.400000036 1
vt 0.400000036 0
vt 0.450000048 1
vt 0.450000048 0
vt 0.50000006 1
vt 0.50000006 0
vt 0.550000072 1
vt 0.550000072 0
vt 0.600000083 1
vt 0.600000083 0
vt 0.650000095 1
vt 0.650000095 0
vt 0.700000107 1
vt 0.700000107 0
vt 0.750000119 1
vt 0.750000119 0
vt 0.800000131 1
vt 0.800000131 0
vt 0.850000143 1
vt 0.850000143 0
vt 0.900000155 1
vt 0.900000155 0
vt 0.950000167 1
vt 0.950000167 0
vt 1.00000012 1
vt 1.00000012 0
vn -0 0 -1
vn -0 0 -1
vn -0 0 -1
vn -0 0 -1
vn -0 0 -1
vn -0 0 -1
vn -0 0 -1
vn -0 0 -1
vn -0 0 -1
vn -0 0 -1
vn -0 0 -1
vn -0 0 -1
vn -0 0 -1
vn -0 0 -1
vn -0 0 -1
vn -0 0 -1
vn -0 0 -1
vn -0 0 -1
vn -0 0 -1
vn -0 0 -1
vn -0 0 -1
vn -0 0 -1
vn -0 0 -1
vn -0 0 -1
vn -0 0 -1
vn -0 0 -1
vn -0 0 -1
vn -0 0 -1
vn -0 0 -1
vn -0 0 -1
vn -0 0 -1
vn -0 0 -1
vn -0 0 -1
vn -0 0 -1
vn -0 0 -1
vn -0 0 -1
vn -0 0 -1
vn -0 0 -1
vn -0 0 -1
vn -0 0 -1
vn -0 0 -1
vn -0 0 -1
g Plane007_0
f 3/3/3 2/2/2 1/1/1
f 4/4/4 3/3/3 1/1/1
f 5/5/5 3/3/3 4/4/4
f 6/6/6 5/5/5 4/4/4
f 7/7/7 5/5/5 6/6/6
f 8/8/8 7/7/7 6/6/6
f 9/9/9 7/7/7 8/8/8
f 10/10/10 9/9/9 8/8/8
f 11/11/11 9/9/9 10/10/10
f 12/12/12 11/11/11 10/10/10
f 13/13/13 11/11/11 12/12/12
f 14/14/14 13/13/13 12/12/12
f 15/15/15 13/13/13 14/14/14
f 16/16/16 15/15/15 14/14/14
f 17/17/17 15/15/15 16/16/16
f 18/18/18 17/17/17 16/16/16
f 19/19/19 17/17/17 18/18/18
f 20/20/20 19/19/19 18/18/18
f 21/21/21 19/19/19 20/20/20
f 22/22/22 21/21/21 20/20/20
f 23/23/23 21/21/21 22/22/22
f 24/24/24 23/23/23 22/22/22
f 25/25/25 23/23/23 24/24/24
f 26/26/26 25/25/25 24/24/24
f 27/27/27 25/25/25 26/26/26
f 28/28/28 27/27/27 26/26/26
f 29/29/29 27/27/27 28/28/28
f 30/30/30 29/29/29 28/28/28
f 31/31/31 29/29/29 30/30/30
f 32/32/32 31/31/31 30/30/30
f 33/33/33 31/31/31 32/32/32
f 34/34/34 33/33/33 32/32/32
f 35/35/35 33/33/33 34/34/34
f 36/36/36 35/35/35 34/34/34
f 37/37/37 35/35/35 36/36/36
f 38/38/38 37/37/37 36/36/36
f 39/39/39 37/37/37 38/38/38
f 40/40/40 39/39/39 38/38/38
f 41/41/41 39/39/39 40/40/40
f 42/42/42 41/41/41 40/40/40
