g xiaohuo_03
v 0.200365961 0.977080643 -1.26999998E-06
v 0.645444512 0.0371461324 -1.26999998E-06
v 0.645444512 -0.977080643 -1.26999998E-06
v -0.0104445172 -0.977080643 -1.26999998E-06
v -0.0104445172 0.970285892 -1.26999998E-06
v -0.645444512 -0.0245807189 -1.26999998E-06
vt 0.332996249 0.89435488
vt 0.5 0.524301887
vt 0.5 0.125
vt 0.25 0.125
vt 0.25 0.891679764
vt 0 0.5
vn -0 0 1
vn -0 0 1
vn -0 0 1
vn -0 0 1
vn -0 0 1
vn -0 0 1
g xiaohuo_03_0
f 3/3/3 2/2/2 1/1/1
f 1/1/1 4/4/4 3/3/3
f 1/1/1 5/5/5 4/4/4
f 5/5/5 6/6/6 4/4/4
