g Plane002
v 0.0705371201 -0.00636448013 -0.00213251845
v 0.0676036105 -0.00363003323 -0.00189655076
v 0.0719351768 -0.00508719916 -0.00148910994
v 0.0688411221 -0.0021528746 -0.00136122853
v 0.0733332485 -0.00380991749 -0.000845701492
v 0.0645152032 -0.0015056571 -0.00160215818
v 0.0700786337 -0.000675715972 -0.000825906289
v 0.0655237436 0.000167663587 -0.00117455504
v 0.0612671226 2.96056278E-05 -0.00125425297
v 0.066532284 0.00184098422 -0.000746951788
v 0.0619908385 0.0018655404 -0.000929323433
v 0.0578374863 0.000995351584 -0.00085233344
v 0.0627145544 0.00370147498 -0.000604393892
v 0.0582424402 0.00294074905 -0.000625535147
v 0.0541967526 0.00139928178 -0.000394442381
v 0.0586474016 0.00488614663 -0.000398736855
v 0.0542785339 0.00339329429 -0.000263189606
v 0.0507989079 0.00124350458 8.92140888E-05
v 0.0543603152 0.00538730668 -0.000131936831
v 0.0504509956 0.00321260164 0.000129396081
v 0.0477796271 0.000304890418 0.000645087624
v 0.050103087 0.00518169906 0.000169578081
v 0.0470060781 0.00214856863 0.000595327874
v 0.0443318263 -0.00137532677 0.00132164173
v 0.0462325327 0.00399224693 0.000545568124
v 0.0433568172 0.000363920932 0.00116552028
v 0.0406170934 -0.00349798729 0.00205244496
v 0.0423818082 0.00210316852 0.00100939872
v 0.039575398 -0.00181327737 0.00177563506
v 0.0367382281 -0.00573549606 0.00277040154
v 0.0385337025 -0.000128567466 0.00149882515
v 0.0357340239 -0.00405495008 0.00236133067
v 0.0327556916 -0.00775706815 0.0034094851
v 0.0347298235 -0.00237440388 0.00195225968
v 0.0319048911 -0.0060330336 0.0028582688
v 0.0286866315 -0.00921785366 0.00390112028
v 0.031054087 -0.00430899952 0.00230705272
v 0.0281601846 -0.0074194558 0.00320210843
v 0.0245212764 -0.00970371068 0.00416168664
v 0.0276337378 -0.00562105794 0.00250309659
v 0.0245696604 -0.00788615737 0.0033285243
v 0.0206112638 -0.00928231422 0.00419847155
v 0.0246180464 -0.00606860453 0.00249536196
v 0.0209280122 -0.00754566723 0.00325840292
v 0.0167763494 -0.00833351444 0.00408554636
v 0.0212447587 -0.00580902025 0.0023183343
v 0.0173429288 -0.00671792263 0.00305169355
v 0.0130315879 -0.00686610723 0.00382477185
v 0.0179095082 -0.00510233082 0.00201784098
v 0.0138144046 -0.00540292403 0.00270839618
v 0.0093857469 -0.00489203027 0.00341894082
v 0.0145972203 -0.00393974036 0.00159202039
v 0.0103424378 -0.00360066886 0.00222850917
v 0.00584105309 -0.00242295954 0.00287082791
v 0.0112991296 -0.00230930722 0.00103807729
v 0.00692702504 -0.00131115818 0.00161203369
v 0.00239501963 0.000531901489 0.00218256214
v 0.00801299699 -0.000199356917 0.000353239448
v 0.00356818014 0.00146560511 0.000858970394
v -0.000938282057 0.00394170452 0.00135876529
v 0.00474134088 0.00239930837 -0.000464621378
v 0.000283775356 0.00471026357 -2.53929829E-05
v 0.00150582893 0.00547882309 -0.00140955136
vt 1.00000012 0
vt 0.950000167 0
vt 1.00000012 0.5
vt 0.950000167 0.5
vt 1.00000012 1
vt 0.900000155 0
vt 0.950000167 1
vt 0.900000155 0.5
vt 0.850000143 0
vt 0.900000155 1
vt 0.850000143 0.5
vt 0.800000131 0
vt 0.850000143 1
vt 0.800000131 0.5
vt 0.750000119 0
vt 0.800000131 1
vt 0.750000119 0.5
vt 0.700000107 0
vt 0.750000119 1
vt 0.700000107 0.5
vt 0.650000095 0
vt 0.700000107 1
vt 0.650000095 0.5
vt 0.600000083 0
vt 0.650000095 1
vt 0.600000083 0.5
vt 0.550000072 0
vt 0.600000083 1
vt 0.550000072 0.5
vt 0.50000006 0
vt 0.550000072 1
vt 0.50000006 0.5
vt 0.450000048 0
vt 0.50000006 1
vt 0.450000048 0.5
vt 0.400000036 0
vt 0.450000048 1
vt 0.400000036 0.5
vt 0.350000024 0
vt 0.400000036 1
vt 0.350000024 0.5
vt 0.300000012 0
vt 0.350000024 1
vt 0.300000012 0.5
vt 0.25 0
vt 0.300000012 1
vt 0.25 0.5
vt 0.200000003 0
vt 0.25 1
vt 0.200000003 0.5
vt 0.150000006 0
vt 0.200000003 1
vt 0.150000006 0.5
vt 0.100000001 0
vt 0.150000006 1
vt 0.100000001 0.5
vt 0.0500000007 0
vt 0.100000001 1
vt 0.0500000007 0.5
vt 0 0
vt 0.0500000007 1
vt 0 0.5
vt 0 1
vn -0.18175754 -0.276424527 0.943691552
vn -0.130766198 -0.250039816 0.959364593
vn -0.189775899 -0.256191283 0.947813928
vn -0.140875265 -0.230131507 0.962908864
vn -0.197011292 -0.238208771 0.951022148
vn -0.0486313328 -0.230586112 0.971835971
vn -0.149792135 -0.212769389 0.965552509
vn -0.0626029447 -0.211022899 0.975474298
vn 0.0235852078 -0.193805948 0.980756342
vn -0.0746919066 -0.194411412 0.978072286
vn 0.00624168571 -0.176286012 0.98431915
vn 0.0787752271 -0.141827181 0.986752033
vn -0.00858391728 -0.161654308 0.986810088
vn 0.0591259524 -0.127495959 0.990075171
vn 0.117154807 -0.0798454806 0.989898741
vn 0.0423351787 -0.11557021 0.992396653
vn 0.0938599482 -0.0682769716 0.993241429
vn 0.146135315 -0.00575215137 0.989247859
vn 0.0743221939 -0.0592160746 0.995474637
vn 0.116555326 0.00151217263 0.993183076
vn 0.140922233 0.071536608 0.987432659
vn 0.0932053104 0.00701330276 0.995622218
vn 0.11300195 0.0736383647 0.99086225
vn 0.106622599 0.13624306 0.984921038
vn 0.0895923078 0.0748473778 0.993162155
vn 0.0838776603 0.135276422 0.987251163
vn 0.0647994131 0.19019787 0.979604959
vn 0.0626569539 0.134166896 0.988975883
vn 0.0444428585 0.188491911 0.981068671
vn 0.0251576975 0.240941837 0.970213413
vn 0.0241843909 0.1867055 0.98211813
vn 0.00552541064 0.23958391 0.970860004
vn -0.00355683779 0.293882638 0.955834925
vn -0.0151624214 0.238137677 0.971112967
vn -0.0234337561 0.293963253 0.955529392
vn -0.0072169546 0.351851434 0.936028123
vn -0.0460586771 0.294186354 0.954637647
vn -0.0273326859 0.355086386 0.934433877
vn 0.0226764716 0.408149213 0.912633538
vn -0.0531988032 0.359722078 0.931541622
vn 0.000710847264 0.416197538 0.909273982
vn 0.0619407482 0.457947016 0.886818886
vn -0.0272880625 0.426536947 0.904058397
vn 0.0427175201 0.469269663 0.88202107
vn 0.10643471 0.500805199 0.858991146
vn 0.0205337293 0.48241365 0.875702739
vn 0.0892623067 0.514108121 0.853068054
vn 0.16219233 0.53385359 0.829875886
vn 0.0696320832 0.529332221 0.845552325
vn 0.147481576 0.548491955 0.823046625
vn 0.225365043 0.556444526 0.799737453
vn 0.130902201 0.564926803 0.814691603
vn 0.213230342 0.571720421 0.792255342
vn 0.292364985 0.569103718 0.768533468
vn 0.19976452 0.588516533 0.783417106
vn 0.28266561 0.584397554 0.760644257
vn 0.360050619 0.573324859 0.735977054
vn 0.272050142 0.600882292 0.75161767
vn 0.352556944 0.587991297 0.72799027
vn 0.400997877 0.588022828 0.702445567
vn 0.344443142 0.603522778 0.719110012
vn 0.394459277 0.602279365 0.694018424
vn 0.387457073 0.617206752 0.684786797
g Plane002_0
f 3/3/3 2/2/2 1/1/1
f 2/2/2 3/3/3 4/4/4
f 5/5/5 4/4/4 3/3/3
f 4/4/4 6/6/6 2/2/2
f 4/4/4 5/5/5 7/7/7
f 6/6/6 4/4/4 8/8/8
f 7/7/7 8/8/8 4/4/4
f 8/8/8 9/9/9 6/6/6
f 8/8/8 7/7/7 10/10/10
f 9/9/9 8/8/8 11/11/11
f 10/10/10 11/11/11 8/8/8
f 11/11/11 12/12/12 9/9/9
f 11/11/11 10/10/10 13/13/13
f 12/12/12 11/11/11 14/14/14
f 13/13/13 14/14/14 11/11/11
f 14/14/14 15/15/15 12/12/12
f 14/14/14 13/13/13 16/16/16
f 15/15/15 14/14/14 17/17/17
f 16/16/16 17/17/17 14/14/14
f 17/17/17 18/18/18 15/15/15
f 17/17/17 16/16/16 19/19/19
f 18/18/18 17/17/17 20/20/20
f 19/19/19 20/20/20 17/17/17
f 20/20/20 21/21/21 18/18/18
f 20/20/20 19/19/19 22/22/22
f 21/21/21 20/20/20 23/23/23
f 22/22/22 23/23/23 20/20/20
f 23/23/23 24/24/24 21/21/21
f 23/23/23 22/22/22 25/25/25
f 24/24/24 23/23/23 26/26/26
f 25/25/25 26/26/26 23/23/23
f 26/26/26 27/27/27 24/24/24
f 26/26/26 25/25/25 28/28/28
f 27/27/27 26/26/26 29/29/29
f 28/28/28 29/29/29 26/26/26
f 29/29/29 30/30/30 27/27/27
f 29/29/29 28/28/28 31/31/31
f 30/30/30 29/29/29 32/32/32
f 31/31/31 32/32/32 29/29/29
f 32/32/32 33/33/33 30/30/30
f 32/32/32 31/31/31 34/34/34
f 33/33/33 32/32/32 35/35/35
f 34/34/34 35/35/35 32/32/32
f 35/35/35 36/36/36 33/33/33
f 35/35/35 34/34/34 37/37/37
f 36/36/36 35/35/35 38/38/38
f 37/37/37 38/38/38 35/35/35
f 38/38/38 39/39/39 36/36/36
f 38/38/38 37/37/37 40/40/40
f 39/39/39 38/38/38 41/41/41
f 40/40/40 41/41/41 38/38/38
f 41/41/41 42/42/42 39/39/39
f 41/41/41 40/40/40 43/43/43
f 42/42/42 41/41/41 44/44/44
f 43/43/43 44/44/44 41/41/41
f 44/44/44 45/45/45 42/42/42
f 44/44/44 43/43/43 46/46/46
f 45/45/45 44/44/44 47/47/47
f 46/46/46 47/47/47 44/44/44
f 47/47/47 48/48/48 45/45/45
f 47/47/47 46/46/46 49/49/49
f 48/48/48 47/47/47 50/50/50
f 49/49/49 50/50/50 47/47/47
f 50/50/50 51/51/51 48/48/48
f 50/50/50 49/49/49 52/52/52
f 51/51/51 50/50/50 53/53/53
f 52/52/52 53/53/53 50/50/50
f 53/53/53 54/54/54 51/51/51
f 53/53/53 52/52/52 55/55/55
f 54/54/54 53/53/53 56/56/56
f 55/55/55 56/56/56 53/53/53
f 56/56/56 57/57/57 54/54/54
f 56/56/56 55/55/55 58/58/58
f 57/57/57 56/56/56 59/59/59
f 58/58/58 59/59/59 56/56/56
f 59/59/59 60/60/60 57/57/57
f 59/59/59 58/58/58 61/61/61
f 60/60/60 59/59/59 62/62/62
f 61/61/61 62/62/62 59/59/59
f 62/62/62 61/61/61 63/63/63
