g general_range_03
v 1.18359971 -3.82221293 0
v 1.45397043 -4.09116983 0
v -1.45813489 -4.10806131 0
v -1.16031289 -3.7711401 0
v -1.14136624 -3.77457976 0
v -1.46739912 -4.11705971 0
v -1.477404 -1.46675241 0
v -1.12218559 -1.13530242 0
v -4.11247301 -1.44837201 0
v -3.7957108 -1.13285983 0
v -4.10649872 1.55663228 0
v -3.78561139 1.261976 0
v -1.54422605 1.57732809 0
v -1.21525633 1.2342335 0
v -1.49801874 4.13104773 0
v -1.1727767 3.81816888 0
v 1.47918618 4.11941814 0
v 1.18956959 3.82979846 0
v 1.49412775 1.46810818 0
v 1.2078526 1.18183064 0
v 4.10677147 1.44621027 0
v 3.82201076 1.16144764 0
v 4.10284996 -1.44425583 0
v 3.8239212 -1.14870811 0
v 1.49032044 -1.44743073 0
v 1.22677636 -1.13143933 0
v 1.45397043 -4.09116983 0
v 1.18359971 -3.82221293 0
vt 0.916666627 0
vt 0.916666687 1
vt 1 1
vt 1 0
vt 0 0
vt 0 1
vt 0.0833333284 1
vt 0.0833333284 0
vt 0.166666657 1
vt 0.166666672 0
vt 0.25 1
vt 0.25 0
vt 0.333333313 0.99999994
vt 0.333333313 0
vt 0.416666627 1
vt 0.416666687 0
vt 0.5 1
vt 0.5 0
vt 0.583333254 1
vt 0.583333254 0
vt 0.666666627 1
vt 0.666666627 0
vt 0.74999994 1
vt 0.75 0
vt 0.833333313 1
vt 0.833333373 0
vt 0.916666687 1
vt 0.916666627 0
vn -0 0 1
vn -0 0 1
vn -0 0 1
vn -0 0 1
vn -0 0 1
vn -0 0 1
vn -0 0 1
vn -0 0 1
vn -0 0 1
vn -0 0 1
vn -0 0 1
vn -0 0 1
vn -0 0 1
vn -0 0 1
vn -0 0 1
vn -0 0 1
vn -0 0 1
vn -0 0 1
vn -0 0 1
vn -0 0 1
vn -0 0 1
vn -0 0 1
vn -0 0 1
vn -0 0 1
vn -0 0 1
vn -0 0 1
vn -0 0 1
vn -0 0 1
g general_range_03_0
f 3/3/3 2/2/2 1/1/1
f 4/4/4 3/3/3 1/1/1
f 7/7/7 6/6/6 5/5/5
f 8/8/8 7/7/7 5/5/5
f 9/9/9 7/7/7 8/8/8
f 10/10/10 9/9/9 8/8/8
f 11/11/11 9/9/9 10/10/10
f 12/12/12 11/11/11 10/10/10
f 13/13/13 11/11/11 12/12/12
f 14/14/14 13/13/13 12/12/12
f 15/15/15 13/13/13 14/14/14
f 16/16/16 15/15/15 14/14/14
f 17/17/17 15/15/15 16/16/16
f 18/18/18 17/17/17 16/16/16
f 19/19/19 17/17/17 18/18/18
f 20/20/20 19/19/19 18/18/18
f 21/21/21 19/19/19 20/20/20
f 22/22/22 21/21/21 20/20/20
f 23/23/23 21/21/21 22/22/22
f 24/24/24 23/23/23 22/22/22
f 25/25/25 23/23/23 24/24/24
f 26/26/26 25/25/25 24/24/24
f 27/27/27 25/25/25 26/26/26
f 28/28/28 27/27/27 26/26/26
