g Cone003
v 1.30782318 0 0
v 0.79438293 0 0.076087445
v 0.787586927 0.103687786 0.076087445
v 1.29663455 0.170705184 0
v 1.29663455 0.170705184 0
v 0.787586927 0.103687786 0.076087445
v 0.76731497 0.205601424 0.076087445
v 1.26326013 0.338489532 0
v 1.26326013 0.338489532 0
v 0.76731497 0.205601424 0.076087445
v 0.733914137 0.303997219 0.076087445
v 1.20827103 0.500482261 0
v 1.20827103 0.500482261 0
v 0.733914137 0.303997219 0.076087445
v 0.687955797 0.397191465 0.076087445
v 1.13260806 0.653911591 0
v 1.13260806 0.653911591 0
v 0.687955797 0.397191465 0.076087445
v 0.630226374 0.483589709 0.076087445
v 1.03756583 0.796152294 0
v 1.03756583 0.796152294 0
v 0.630226374 0.483589709 0.076087445
v 0.561713636 0.561713576 0.076087445
v 0.924770653 0.924770594 0
v 0.924770653 0.924770594 0
v 0.561713636 0.561713576 0.076087445
v 0.483589768 0.630226374 0.076087445
v 0.796152353 1.03756583 0
v 0.796152353 1.03756583 0
v 0.483589768 0.630226374 0.076087445
v 0.397191525 0.687955797 0.076087445
v 0.65391165 1.13260806 0
v 0.65391165 1.13260806 0
v 0.397191525 0.687955797 0.076087445
v 0.303997278 0.733914137 0.076087445
v 0.50048238 1.20827103 0
v 0.50048238 1.20827103 0
v 0.303997278 0.733914137 0.076087445
v 0.205601543 0.76731497 0.076087445
v 0.338489741 1.26326013 0
v 0.338489741 1.26326013 0
v 0.205601543 0.76731497 0.076087445
v 0.10368792 0.787586868 0.076087445
v 0.170705393 1.29663455 0
v 0.170705393 1.29663455 0
v 0.10368792 0.787586868 0.076087445
v 1.54672065E-07 0.79438293 0.076087445
v 2.54642572E-07 1.30782318 0
v -0.653911948 -1.13260782 0
v -0.397191703 -0.687955678 0.076087445
v -0.303997308 -0.733914137 0.076087445
v -0.50048244 -1.20827103 0
v -0.50048244 -1.20827103 0
v -0.303997308 -0.733914137 0.076087445
v -0.205601379 -0.76731503 0.076087445
v -0.338489473 -1.26326013 0
v -0.338489473 -1.26326013 0
v -0.205601379 -0.76731503 0.076087445
v -0.103687562 -0.787586927 0.076087445
v -0.170704812 -1.29663455 0
v -0.170704812 -1.29663455 0
v -0.103687562 -0.787586927 0.076087445
v 3.88264226E-07 -0.79438293 0.076087445
v 6.39214306E-07 -1.30782318 0
v 6.39214306E-07 -1.30782318 0
v 3.88264226E-07 -0.79438293 0.076087445
v 0.103688329 -0.787586808 0.076087445
v 0.170706093 -1.29663444 0
v 0.170706093 -1.29663444 0
v 0.103688329 -0.787586808 0.076087445
v 0.205602154 -0.767314792 0.076087445
v 0.338490725 -1.26325977 0
v 0.338490725 -1.26325977 0
v 0.205602154 -0.767314792 0.076087445
v 0.303998023 -0.733913779 0.076087445
v 0.500483572 -1.20827043 0
v 0.500483572 -1.20827043 0
v 0.303998023 -0.733913779 0.076087445
v 0.397192359 -0.68795526 0.076087445
v 0.653913081 -1.13260722 0
v 0.653913081 -1.13260722 0
v 0.397192359 -0.68795526 0.076087445
v 0.483590692 -0.630225599 0.076087445
v 0.796153903 -1.03756464 0
v 0.796153903 -1.03756464 0
v 0.483590692 -0.630225599 0.076087445
v 0.56171453 -0.561712563 0.076087445
v 0.924772203 -0.924768925 0
v 0.924772203 -0.924768925 0
v 0.56171453 -0.561712563 0.076087445
v 0.630227327 -0.483588457 0.076087445
v 1.0375675 -0.796150267 0
v 1.0375675 -0.796150267 0
v 0.630227327 -0.483588457 0.076087445
v 0.687956691 -0.397189945 0.076087445
v 1.13260949 -0.653909087 0
v 1.13260949 -0.653909087 0
v 0.687956691 -0.397189945 0.076087445
v 0.733914912 -0.30399543 0.076087445
v 1.20827222 -0.5004794 0
v 1.20827222 -0.5004794 0
v 0.733914912 -0.30399543 0.076087445
v 0.767315567 -0.205599412 0.076087445
v 1.26326108 -0.338486224 0
v 1.26326108 -0.338486224 0
v 0.767315567 -0.205599412 0.076087445
v 0.787587166 -0.103685565 0.076087445
v 1.29663503 -0.170701519 0
v 1.29663503 -0.170701519 0
v 0.787587166 -0.103685565 0.076087445
v 0.79438293 0 0.076087445
v 1.30782318 0 0
vt 0.75 0
vt 0.75 0.802163839
vt 0.770833313 0.802163839
vt 0.770833313 0
vt 0.770833313 0
vt 0.770833313 0.802163839
vt 0.791666627 0.802163839
vt 0.791666627 0
vt 0.791666627 0
vt 0.791666627 0.802163839
vt 0.8125 0.802163839
vt 0.8125 0
vt 0.8125 0
vt 0.8125 0.802163839
vt 0.833333313 0.802163839
vt 0.833333313 0
vt 0.833333313 0
vt 0.833333313 0.802163839
vt 0.854166627 0.802163839
vt 0.854166627 0
vt 0.854166627 0
vt 0.854166627 0.802163839
vt 0.875 0.802163839
vt 0.875 0
vt 0.875 0
vt 0.875 0.802163839
vt 0.895833313 0.802163839
vt 0.895833313 0
vt 0.895833313 0
vt 0.895833313 0.802163839
vt 0.916666627 0.802163839
vt 0.916666627 0
vt 0.916666627 0
vt 0.916666627 0.802163839
vt 0.93749994 0.802163839
vt 0.93749994 0
vt 0.93749994 0
vt 0.93749994 0.802163839
vt 0.958333313 0.802163839
vt 0.958333313 0
vt 0.958333313 0
vt 0.958333313 0.802163839
vt 0.979166627 0.802163839
vt 0.979166627 0
vt 0.979166627 0
vt 0.979166627 0.802163839
vt 0.99999994 0.802163839
vt 0.99999994 0
vt 0.416666597 0
vt 0.416666597 0.802163839
vt 0.43749997 0.802163839
vt 0.43749997 0
vt 0.43749997 0
vt 0.43749997 0.802163839
vt 0.458333343 0.802163839
vt 0.458333343 0
vt 0.458333343 0
vt 0.458333343 0.802163839
vt 0.479166716 0.802163839
vt 0.479166716 0
vt 0.479166716 0
vt 0.479166716 0.802163839
vt 0.50000006 0.802163839
vt 0.50000006 0
vt 0.50000006 0
vt 0.50000006 0.802163839
vt 0.520833433 0.802163839
vt 0.520833433 0
vt 0.520833433 0
vt 0.520833433 0.802163839
vt 0.541666806 0.802163839
vt 0.541666806 0
vt 0.541666806 0
vt 0.541666806 0.802163839
vt 0.562500179 0.802163839
vt 0.562500179 0
vt 0.562500179 0
vt 0.562500179 0.802163839
vt 0.583333552 0.802163839
vt 0.583333552 0
vt 0.583333552 0
vt 0.583333552 0.802163839
vt 0.604166925 0.802163839
vt 0.604166925 0
vt 0.604166925 0
vt 0.604166925 0.802163839
vt 0.625000298 0.802163839
vt 0.625000298 0
vt 0.625000298 0
vt 0.625000298 0.802163839
vt 0.645833671 0.802163839
vt 0.645833671 0
vt 0.645833671 0
vt 0.645833671 0.802163839
vt 0.666666985 0.802163839
vt 0.666666985 0
vt 0.666666985 0
vt 0.666666985 0.802163839
vt 0.687500417 0.802163839
vt 0.687500417 0
vt 0.687500417 0
vt 0.687500417 0.802163839
vt 0.70833379 0.802163839
vt 0.70833379 0
vt 0.70833379 0
vt 0.70833379 0.802163839
vt 0.729167163 0.802163839
vt 0.729167163 0
vt 0.729167163 0
vt 0.729167163 0.802163839
vt 0.75 0.802163839
vt 0.75 0
vn 0.146583796 0.00960759819 0.989151597
vn 0.14658381 0.00960759819 0.989151597
vn 0.146583796 0.00960759819 0.989151597
vn 0.14658381 0.00960756838 0.989151597
vn 0.144075722 0.0286584906 0.989151597
vn 0.144075722 0.0286584944 0.989151597
vn 0.144075722 0.0286584906 0.989151597
vn 0.144075677 0.0286584664 0.989151597
vn 0.139102429 0.0472189188 0.989151597
vn 0.139102429 0.0472189113 0.989151597
vn 0.139102429 0.0472189113 0.989151597
vn 0.139102429 0.0472189561 0.989151597
vn 0.131749138 0.0649714321 0.989151597
vn 0.131749138 0.0649714321 0.989151597
vn 0.131749123 0.0649714246 0.989151597
vn 0.131749108 0.064971447 0.989151597
vn 0.122141473 0.0816123486 0.989151597
vn 0.122141488 0.0816123486 0.989151597
vn 0.122141488 0.0816123486 0.989151597
vn 0.122141488 0.0816123635 0.989151597
vn 0.110444047 0.0968567505 0.989151597
vn 0.110444047 0.0968567431 0.989151597
vn 0.110444047 0.0968567505 0.989151597
vn 0.110444024 0.0968567729 0.989151597
vn 0.0968567729 0.110444024 0.989151597
vn 0.0968567878 0.110444039 0.989151597
vn 0.0968567878 0.110444039 0.989151597
vn 0.0968568102 0.110444009 0.989151597
vn 0.0816123337 0.122141473 0.989151597
vn 0.0816123486 0.122141473 0.989151597
vn 0.0816123486 0.122141503 0.989151597
vn 0.0816123784 0.122141466 0.989151597
vn 0.064971447 0.131749138 0.989151597
vn 0.0649714395 0.131749123 0.989151597
vn 0.0649714395 0.131749123 0.989151597
vn 0.064971447 0.131749108 0.989151597
vn 0.0472189374 0.139102429 0.989151597
vn 0.0472189374 0.139102429 0.989151597
vn 0.0472189412 0.139102429 0.989151597
vn 0.0472189821 0.139102429 0.989151597
vn 0.0286584254 0.144075692 0.989151597
vn 0.0286584236 0.144075692 0.989151597
vn 0.0286584236 0.144075692 0.989151597
vn 0.0286583919 0.144075707 0.989151597
vn 0.0096076699 0.146583796 0.989151597
vn 0.0096076699 0.146583796 0.989151597
vn 0.00960766897 0.146583796 0.989151597
vn 0.009607655 0.146583796 0.989151597
vn -0.0649715215 -0.131749108 0.989151597
vn -0.064971514 -0.131749108 0.989151597
vn -0.0649715215 -0.131749108 0.989151597
vn -0.0649715587 -0.131749049 0.989151597
vn -0.0472189076 -0.139102429 0.989151597
vn -0.0472189113 -0.139102429 0.989151597
vn -0.0472189188 -0.139102429 0.989151597
vn -0.0472189002 -0.139102429 0.989151597
vn -0.0286583789 -0.144075736 0.989151597
vn -0.0286583789 -0.144075736 0.989151597
vn -0.0286583807 -0.144075736 0.989151597
vn -0.028658418 -0.144075722 0.989151597
vn -0.00960758328 -0.14658381 0.989151597
vn -0.00960758235 -0.146583796 0.989151597
vn -0.00960758235 -0.146583796 0.989151597
vn -0.00960755162 -0.146583796 0.989151597
vn 0.00960772112 -0.14658381 0.989151597
vn 0.00960772112 -0.14658381 0.989151597
vn 0.00960772112 -0.14658381 0.989151597
vn 0.00960772019 -0.146583796 0.989151597
vn 0.0286585707 -0.144075677 0.989151597
vn 0.0286585782 -0.144075692 0.989151597
vn 0.0286585782 -0.144075677 0.989151597
vn 0.02865858 -0.144075692 0.989151597
vn 0.0472190753 -0.139102399 0.989151597
vn 0.0472190715 -0.139102399 0.989151597
vn 0.0472190715 -0.139102399 0.989151597
vn 0.0472190715 -0.139102384 0.989151597
vn 0.064971596 -0.131749064 0.989151597
vn 0.064971596 -0.131749064 0.989151597
vn 0.064971596 -0.131749049 0.989151597
vn 0.0649715811 -0.131749049 0.989151597
vn 0.0816124901 -0.122141391 0.989151597
vn 0.0816124901 -0.122141376 0.989151597
vn 0.0816124901 -0.122141376 0.989151597
vn 0.0816124976 -0.122141391 0.989151597
vn 0.0968570188 -0.110443823 0.989151597
vn 0.0968570113 -0.110443816 0.989151597
vn 0.0968570113 -0.110443816 0.989151597
vn 0.0968570411 -0.110443801 0.989151597
vn 0.110444173 -0.0968566239 0.989151597
vn 0.110444188 -0.0968566239 0.989151597
vn 0.110444173 -0.0968566164 0.989151597
vn 0.110444114 -0.0968566388 0.989151597
vn 0.122141637 -0.0816120654 0.989151597
vn 0.122141637 -0.0816120729 0.989151597
vn 0.122141652 -0.0816120803 0.989151597
vn 0.122141667 -0.0816120729 0.989151597
vn 0.131749228 -0.0649711713 0.989151597
vn 0.131749228 -0.0649711713 0.989151597
vn 0.131749228 -0.0649711713 0.989151597
vn 0.131749243 -0.0649711564 0.989151597
vn 0.139102563 -0.0472185686 0.989151597
vn 0.139102563 -0.0472185686 0.989151597
vn 0.139102563 -0.0472185686 0.989151597
vn 0.139102563 -0.04721855 0.989151597
vn 0.144075796 -0.0286580436 0.989151597
vn 0.144075796 -0.0286580436 0.989151597
vn 0.144075796 -0.0286580417 0.989151597
vn 0.144075781 -0.0286580883 0.989151597
vn 0.14658381 -0.00960739329 0.989151597
vn 0.14658381 -0.00960739329 0.989151597
vn 0.146583796 -0.00960739329 0.989151597
vn 0.146583796 -0.00960735884 0.989151597
g Cone003_0
f 3/3/3 2/2/2 1/1/1
f 4/4/4 3/3/3 1/1/1
f 7/7/7 6/6/6 5/5/5
f 8/8/8 7/7/7 5/5/5
f 11/11/11 10/10/10 9/9/9
f 12/12/12 11/11/11 9/9/9
f 15/15/15 14/14/14 13/13/13
f 16/16/16 15/15/15 13/13/13
f 19/19/19 18/18/18 17/17/17
f 20/20/20 19/19/19 17/17/17
f 23/23/23 22/22/22 21/21/21
f 24/24/24 23/23/23 21/21/21
f 27/27/27 26/26/26 25/25/25
f 28/28/28 27/27/27 25/25/25
f 31/31/31 30/30/30 29/29/29
f 32/32/32 31/31/31 29/29/29
f 35/35/35 34/34/34 33/33/33
f 36/36/36 35/35/35 33/33/33
f 39/39/39 38/38/38 37/37/37
f 40/40/40 39/39/39 37/37/37
f 43/43/43 42/42/42 41/41/41
f 44/44/44 43/43/43 41/41/41
f 47/47/47 46/46/46 45/45/45
f 48/48/48 47/47/47 45/45/45
f 51/51/51 50/50/50 49/49/49
f 52/52/52 51/51/51 49/49/49
f 55/55/55 54/54/54 53/53/53
f 56/56/56 55/55/55 53/53/53
f 59/59/59 58/58/58 57/57/57
f 60/60/60 59/59/59 57/57/57
f 63/63/63 62/62/62 61/61/61
f 64/64/64 63/63/63 61/61/61
f 67/67/67 66/66/66 65/65/65
f 68/68/68 67/67/67 65/65/65
f 71/71/71 70/70/70 69/69/69
f 72/72/72 71/71/71 69/69/69
f 75/75/75 74/74/74 73/73/73
f 76/76/76 75/75/75 73/73/73
f 79/79/79 78/78/78 77/77/77
f 80/80/80 79/79/79 77/77/77
f 83/83/83 82/82/82 81/81/81
f 84/84/84 83/83/83 81/81/81
f 87/87/87 86/86/86 85/85/85
f 88/88/88 87/87/87 85/85/85
f 91/91/91 90/90/90 89/89/89
f 92/92/92 91/91/91 89/89/89
f 95/95/95 94/94/94 93/93/93
f 96/96/96 95/95/95 93/93/93
f 99/99/99 98/98/98 97/97/97
f 100/100/100 99/99/99 97/97/97
f 103/103/103 102/102/102 101/101/101
f 104/104/104 103/103/103 101/101/101
f 107/107/107 106/106/106 105/105/105
f 108/108/108 107/107/107 105/105/105
f 111/111/111 110/110/110 109/109/109
f 112/112/112 111/111/111 109/109/109
