g Plane009
v -0.236087084 -0.175109074 0
v -0.165516302 -0.150306717 0
v -0.174872175 -0.123973824 0
v -0.24477236 -0.150607467 0
v -0.186109126 -0.0974711776 0
v -0.254148841 -0.128551453 0
v -0.198809206 -0.0706049949 0
v -0.266214013 -0.103039443 0
v -0.211652562 -0.0436310582 0
v -0.279488713 -0.075153552 0
v -0.223301902 -0.0172008872 0
v -0.292511523 -0.0455809385 0
v -0.232440248 0.00772859808 0
v -0.303800285 -0.0147022028 0
v -0.237929106 0.0298567042 0
v -0.311694622 0.0174450595 0
v -0.239221618 0.0476071723 0
v -0.313942492 0.0510988198 0
v -0.236802131 0.0604017377 0
v -0.307206452 0.085673064 0
v -0.228853375 0.0772084668 0
v -0.293212295 0.115331329 0
v -0.217400625 0.0931667909 0
v -0.274389267 0.14162004 0
v -0.202525526 0.108162001 0
v -0.251735657 0.164498478 0
v -0.184497997 0.121906511 0
v -0.226061389 0.18409884 0
v -0.163752407 0.134084836 0
v -0.198011652 0.200580776 0
v -0.140826389 0.144422188 0
v -0.168128878 0.214063674 0
v -0.11631199 0.152699202 0
v -0.136900753 0.224612251 0
v -0.0908288062 0.158748835 0
v -0.104787447 0.232237369 0
v -0.0650120229 0.162450939 0
v -0.0722333565 0.236904144 0
v -0.039508827 0.163730308 0
v -0.0396712944 0.238532335 0
v -0.0149762901 0.162561387 0
v -0.00752420165 0.236991733 0
v 0.00792529155 0.158985645 0
v 0.0237888098 0.232086599 0
v 0.0285577532 0.153128639 0
v 0.0538171604 0.223537132 0
v 0.0484074615 0.144845039 0
v 0.0804934874 0.212416485 0
v 0.0683079883 0.134292573 0
v 0.106054187 0.198872745 0
v 0.0882543027 0.121602267 0
v 0.130592614 0.183269814 0
v 0.108219601 0.106947348 0
v 0.15422377 0.165930569 0
v 0.128174677 0.0905320719 0
v 0.177064866 0.147146061 0
v 0.148098469 0.0725827813 0
v 0.199225336 0.127185255 0
v 0.167981416 0.0533393808 0
v 0.220802799 0.106304362 0
v 0.187826425 0.033048369 0
v 0.241882667 0.0847525746 0
v 0.207647696 0.0119585721 0
v 0.26253885 0.0627756268 0
v 0.227469742 -0.009680029 0
v 0.282835007 0.0406199992 0
v 0.247326568 -0.0316193886 0
v 0.302825272 0.0185333639 0
v 0.267261207 -0.0536137819 0
v 0.322554916 -0.00323507376 0
v 0.28732568 -0.0754190385 0
v 0.342059821 -0.0244333912 0
v 0.307582378 -0.096794866 0
v 0.361366123 -0.0448069535 0
v 0.328105301 -0.117500193 0
v 0.380487919 -0.0641011223 0
v 0.348982185 -0.137294337 0
v 0.399425715 -0.0820601061 0
v 0.37031737 -0.155933112 0
v 0.418163031 -0.0984335244 0
v 0.392234236 -0.173159972 0
v 0.436664999 -0.112982638 0
v 0.414847553 -0.189353555 0
v 0.458272219 -0.128446415 0
vt 0 0
vt 0 1
vt 0.024390243 1
vt 0.024390243 0
vt 0.048780486 1
vt 0.048780486 0
vt 0.073170729 1
vt 0.073170729 0
vt 0.097560972 1
vt 0.097560972 0
vt 0.121951215 1
vt 0.121951215 0
vt 0.146341458 1
vt 0.146341458 0
vt 0.170731694 1
vt 0.170731694 0
vt 0.195121944 1
vt 0.195121944 0
vt 0.219512194 1
vt 0.219512194 0
vt 0.243902445 1
vt 0.243902445 0
vt 0.268292695 1
vt 0.268292695 0
vt 0.292682946 1
vt 0.292682946 0
vt 0.317073196 1
vt 0.317073196 0
vt 0.341463447 1
vt 0.341463447 0
vt 0.365853697 1
vt 0.365853697 0
vt 0.390243948 1
vt 0.390243948 0
vt 0.414634198 1
vt 0.414634198 0
vt 0.439024448 1
vt 0.439024448 0
vt 0.463414699 1
vt 0.463414699 0
vt 0.487804949 1
vt 0.487804949 0
vt 0.51219517 1
vt 0.51219517 0
vt 0.536585391 1
vt 0.536585391 0
vt 0.560975611 1
vt 0.560975611 0
vt 0.585365832 1
vt 0.585365832 0
vt 0.609756052 1
vt 0.609756052 0
vt 0.634146273 1
vt 0.634146273 0
vt 0.658536494 1
vt 0.658536494 0
vt 0.682926714 1
vt 0.682926714 0
vt 0.707316935 1
vt 0.707316935 0
vt 0.731707156 1
vt 0.731707156 0
vt 0.756097376 1
vt 0.756097376 0
vt 0.780487597 1
vt 0.780487597 0
vt 0.804877818 1
vt 0.804877818 0
vt 0.829268038 1
vt 0.829268038 0
vt 0.853658259 1
vt 0.853658259 0
vt 0.87804848 1
vt 0.87804848 0
vt 0.9024387 1
vt 0.9024387 0
vt 0.926828921 1
vt 0.926828921 0
vt 0.951219141 1
vt 0.951219141 0
vt 0.975609362 1
vt 0.975609362 0
vt 0.999999583 1
vt 0.999999583 0
vn -0 0 -1
vn -0 0 -1
vn -0 0 -1
vn -0 0 -1
vn -0 0 -1
vn -0 0 -1
vn -0 0 -1
vn -0 0 -1
vn -0 0 -1
vn -0 0 -1
vn -0 0 -1
vn -0 0 -1
vn -0 0 -1
vn -0 0 -1
vn -0 0 -1
vn -0 0 -1
vn -0 0 -1
vn -0 0 -1
vn -0 0 -1
vn -0 0 -1
vn -0 0 -1
vn -0 0 -1
vn -0 0 -1
vn -0 0 -1
vn -0 0 -1
vn -0 0 -1
vn -0 0 -1
vn -0 0 -1
vn -0 0 -1
vn -0 0 -1
vn -0 0 -1
vn -0 0 -1
vn -0 0 -1
vn -0 0 -1
vn -0 0 -1
vn -0 0 -1
vn -0 0 -1
vn -0 0 -1
vn -0 0 -1
vn -0 0 -1
vn -0 0 -1
vn -0 0 -1
vn -0 0 -1
vn -0 0 -1
vn -0 0 -1
vn -0 0 -1
vn -0 0 -1
vn -0 0 -1
vn -0 0 -1
vn -0 0 -1
vn -0 0 -1
vn -0 0 -1
vn -0 0 -1
vn -0 0 -1
vn -0 0 -1
vn -0 0 -1
vn -0 0 -1
vn -0 0 -1
vn -0 0 -1
vn -0 0 -1
vn -0 0 -1
vn -0 0 -1
vn -0 0 -1
vn -0 0 -1
vn -0 0 -1
vn -0 0 -1
vn -0 0 -1
vn -0 0 -1
vn -0 0 -1
vn -0 0 -1
vn -0 0 -1
vn -0 0 -1
vn -0 0 -1
vn -0 0 -1
vn -0 0 -1
vn -0 0 -1
vn -0 0 -1
vn -0 0 -1
vn -0 0 -1
vn -0 0 -1
vn -0 0 -1
vn -0 0 -1
vn -0 0 -1
vn -0 0 -1
g Plane009_0
f 3/3/3 2/2/2 1/1/1
f 4/4/4 3/3/3 1/1/1
f 5/5/5 3/3/3 4/4/4
f 6/6/6 5/5/5 4/4/4
f 7/7/7 5/5/5 6/6/6
f 8/8/8 7/7/7 6/6/6
f 9/9/9 7/7/7 8/8/8
f 10/10/10 9/9/9 8/8/8
f 11/11/11 9/9/9 10/10/10
f 12/12/12 11/11/11 10/10/10
f 13/13/13 11/11/11 12/12/12
f 14/14/14 13/13/13 12/12/12
f 15/15/15 13/13/13 14/14/14
f 16/16/16 15/15/15 14/14/14
f 17/17/17 15/15/15 16/16/16
f 18/18/18 17/17/17 16/16/16
f 19/19/19 17/17/17 18/18/18
f 20/20/20 19/19/19 18/18/18
f 21/21/21 19/19/19 20/20/20
f 22/22/22 21/21/21 20/20/20
f 23/23/23 21/21/21 22/22/22
f 24/24/24 23/23/23 22/22/22
f 25/25/25 23/23/23 24/24/24
f 26/26/26 25/25/25 24/24/24
f 27/27/27 25/25/25 26/26/26
f 28/28/28 27/27/27 26/26/26
f 29/29/29 27/27/27 28/28/28
f 30/30/30 29/29/29 28/28/28
f 31/31/31 29/29/29 30/30/30
f 32/32/32 31/31/31 30/30/30
f 33/33/33 31/31/31 32/32/32
f 34/34/34 33/33/33 32/32/32
f 35/35/35 33/33/33 34/34/34
f 36/36/36 35/35/35 34/34/34
f 37/37/37 35/35/35 36/36/36
f 38/38/38 37/37/37 36/36/36
f 39/39/39 37/37/37 38/38/38
f 40/40/40 39/39/39 38/38/38
f 41/41/41 39/39/39 40/40/40
f 42/42/42 41/41/41 40/40/40
f 43/43/43 41/41/41 42/42/42
f 44/44/44 43/43/43 42/42/42
f 45/45/45 43/43/43 44/44/44
f 46/46/46 45/45/45 44/44/44
f 47/47/47 45/45/45 46/46/46
f 48/48/48 47/47/47 46/46/46
f 49/49/49 47/47/47 48/48/48
f 50/50/50 49/49/49 48/48/48
f 51/51/51 49/49/49 50/50/50
f 52/52/52 51/51/51 50/50/50
f 53/53/53 51/51/51 52/52/52
f 54/54/54 53/53/53 52/52/52
f 55/55/55 53/53/53 54/54/54
f 56/56/56 55/55/55 54/54/54
f 57/57/57 55/55/55 56/56/56
f 58/58/58 57/57/57 56/56/56
f 59/59/59 57/57/57 58/58/58
f 60/60/60 59/59/59 58/58/58
f 61/61/61 59/59/59 60/60/60
f 62/62/62 61/61/61 60/60/60
f 63/63/63 61/61/61 62/62/62
f 64/64/64 63/63/63 62/62/62
f 65/65/65 63/63/63 64/64/64
f 66/66/66 65/65/65 64/64/64
f 67/67/67 65/65/65 66/66/66
f 68/68/68 67/67/67 66/66/66
f 69/69/69 67/67/67 68/68/68
f 70/70/70 69/69/69 68/68/68
f 71/71/71 69/69/69 70/70/70
f 72/72/72 71/71/71 70/70/70
f 73/73/73 71/71/71 72/72/72
f 74/74/74 73/73/73 72/72/72
f 75/75/75 73/73/73 74/74/74
f 76/76/76 75/75/75 74/74/74
f 77/77/77 75/75/75 76/76/76
f 78/78/78 77/77/77 76/76/76
f 79/79/79 77/77/77 78/78/78
f 80/80/80 79/79/79 78/78/78
f 81/81/81 79/79/79 80/80/80
f 82/82/82 81/81/81 80/80/80
f 83/83/83 81/81/81 82/82/82
f 84/84/84 83/83/83 82/82/82
