g Plane007
v 0.0766931474 0.0311336704 0
v -0.0793171227 -0.0541520007 0
v -0.129781857 0.0353323743 0
v 0.0215731412 0.128630251 0
v -0.191879511 0.123926483 0
v -0.0528655425 0.234777763 0
v -0.255524963 0.194929361 0
v -0.130230695 0.321080655 0
v -0.320025414 0.252816439 0
v -0.207754999 0.390686542 0
v -0.384911686 0.301749647 0
v -0.282448471 0.44705683 0
v -0.449677914 0.345700592 0
v -0.351357818 0.493842393 0
v -0.513625205 0.388817757 0
v -0.411722541 0.53451854 0
v -0.575620055 0.435851574 0
v -0.461216748 0.57195729 0
v -0.633300424 0.492181927 0
v -0.498742938 0.608402073 0
v -0.681958377 0.56236589 0
v -0.525549769 0.646918893 0
v -0.715721786 0.64762789 0
v -0.544050097 0.693906188 0
v -0.731421173 0.747042596 0
v -0.553953707 0.757912457 0
v -0.728951395 0.861771882 0
v -0.551906943 0.845398784 0
v -0.709754467 0.988669515 0
v -0.535966992 0.951109648 0
v -0.68022114 1.08706486 0
v -0.514488339 1.02267897 0
v -0.637007117 1.17733359 0
v -0.482824057 1.08878756 0
v -0.582048595 1.25910437 0
v -0.441612661 1.15006042 0
v -0.517279804 1.33239472 0
v -0.391495258 1.20673215 0
v -0.444473743 1.39749789 0
v -0.333273262 1.25876331 0
v -0.365205646 1.45483041 0
v -0.26794678 1.30598974 0
v -0.280887544 1.50482547 0
v -0.1966791 1.3482312 0
v -0.192822501 1.54787898 0
v -0.120742254 1.3853451 0
v -0.102248557 1.5843327 0
v -0.0414729714 1.41724229 0
v -0.0146583058 1.61404371 0
v 0.0413578376 1.44529831 0
vt 0 0
vt 0 1
vt 0.0416666679 1
vt 0.0416666679 0
vt 0.0833333358 1
vt 0.0833333358 0
vt 0.125 1
vt 0.125 0
vt 0.166666672 1
vt 0.166666672 0
vt 0.208333343 1
vt 0.208333343 0
vt 0.25 1
vt 0.25 0
vt 0.291666657 1
vt 0.291666657 0
vt 0.333333313 1
vt 0.333333313 0
vt 0.37499997 1
vt 0.37499997 0
vt 0.416666627 1
vt 0.416666627 0
vt 0.458333284 1
vt 0.458333284 0
vt 0.49999994 1
vt 0.49999994 0
vt 0.541666627 1
vt 0.541666627 0
vt 0.583333313 1
vt 0.583333313 0
vt 0.625 1
vt 0.625 0
vt 0.666666687 1
vt 0.666666687 0
vt 0.708333373 1
vt 0.708333373 0
vt 0.75000006 1
vt 0.75000006 0
vt 0.791666746 1
vt 0.791666746 0
vt 0.833333433 1
vt 0.833333433 0
vt 0.875000119 1
vt 0.875000119 0
vt 0.916666806 1
vt 0.916666806 0
vt 0.958333492 1
vt 0.958333492 0
vt 1.00000012 1
vt 1.00000012 0
vn -0 0 1
vn -0 0 1
vn -0 0 1
vn -0 0 1
vn -0 0 1
vn -0 0 1
vn -0 0 1
vn -0 0 1
vn -0 0 1
vn -0 0 1
vn -0 0 1
vn -0 0 1
vn -0 0 1
vn -0 0 1
vn -0 0 1
vn -0 0 1
vn -0 0 1
vn -0 0 1
vn -0 0 1
vn -0 0 1
vn -0 0 1
vn -0 0 1
vn -0 0 1
vn -0 0 1
vn -0 0 1
vn -0 0 1
vn -0 0 1
vn -0 0 1
vn -0 0 1
vn -0 0 1
vn -0 0 1
vn -0 0 1
vn -0 0 1
vn -0 0 1
vn -0 0 1
vn -0 0 1
vn -0 0 1
vn -0 0 1
vn -0 0 1
vn -0 0 1
vn -0 0 1
vn -0 0 1
vn -0 0 1
vn -0 0 1
vn -0 0 1
vn -0 0 1
vn -0 0 1
vn -0 0 1
vn -0 0 1
vn -0 0 1
g Plane007_0
f 3/3/3 2/2/2 1/1/1
f 4/4/4 3/3/3 1/1/1
f 5/5/5 3/3/3 4/4/4
f 6/6/6 5/5/5 4/4/4
f 7/7/7 5/5/5 6/6/6
f 8/8/8 7/7/7 6/6/6
f 9/9/9 7/7/7 8/8/8
f 10/10/10 9/9/9 8/8/8
f 11/11/11 9/9/9 10/10/10
f 12/12/12 11/11/11 10/10/10
f 13/13/13 11/11/11 12/12/12
f 14/14/14 13/13/13 12/12/12
f 15/15/15 13/13/13 14/14/14
f 16/16/16 15/15/15 14/14/14
f 17/17/17 15/15/15 16/16/16
f 18/18/18 17/17/17 16/16/16
f 19/19/19 17/17/17 18/18/18
f 20/20/20 19/19/19 18/18/18
f 21/21/21 19/19/19 20/20/20
f 22/22/22 21/21/21 20/20/20
f 23/23/23 21/21/21 22/22/22
f 24/24/24 23/23/23 22/22/22
f 25/25/25 23/23/23 24/24/24
f 26/26/26 25/25/25 24/24/24
f 27/27/27 25/25/25 26/26/26
f 28/28/28 27/27/27 26/26/26
f 29/29/29 27/27/27 28/28/28
f 30/30/30 29/29/29 28/28/28
f 31/31/31 29/29/29 30/30/30
f 32/32/32 31/31/31 30/30/30
f 33/33/33 31/31/31 32/32/32
f 34/34/34 33/33/33 32/32/32
f 35/35/35 33/33/33 34/34/34
f 36/36/36 35/35/35 34/34/34
f 37/37/37 35/35/35 36/36/36
f 38/38/38 37/37/37 36/36/36
f 39/39/39 37/37/37 38/38/38
f 40/40/40 39/39/39 38/38/38
f 41/41/41 39/39/39 40/40/40
f 42/42/42 41/41/41 40/40/40
f 43/43/43 41/41/41 42/42/42
f 44/44/44 43/43/43 42/42/42
f 45/45/45 43/43/43 44/44/44
f 46/46/46 45/45/45 44/44/44
f 47/47/47 45/45/45 46/46/46
f 48/48/48 47/47/47 46/46/46
f 49/49/49 47/47/47 48/48/48
f 50/50/50 49/49/49 48/48/48
