g Plane010
v -0.251465857 0.150523365 0
v -0.162298203 0.133396506 0
v -0.17013976 0.103190988 0
v -0.256474972 0.131305546 0
v -0.180778593 0.0747372955 0
v -0.264644235 0.109533235 0
v -0.192556679 0.0479331203 0
v -0.275151312 0.0856467113 0
v -0.204122767 0.0227013268 0
v -0.286844552 0.0601354763 0
v -0.214228243 -0.000710421766 0
v -0.298469752 0.0331650302 0
v -0.221744776 -0.0217227042 0
v -0.308652401 0.00456910068 0
v -0.225872114 -0.0394390635 0
v -0.315689892 -0.026136389 0
v -0.226557747 -0.0530157574 0
v -0.317131817 -0.05938242 0
v -0.224516571 -0.0629705712 0
v -0.30976069 -0.0942376554 0
v -0.218803406 -0.0731017366 0
v -0.292532146 -0.126094624 0
v -0.208425894 -0.0850657374 0
v -0.271543413 -0.150337338 0
v -0.195428714 -0.0956949294 0
v -0.247278467 -0.170232236 0
v -0.179747015 -0.104988165 0
v -0.220673397 -0.186039031 0
v -0.161551893 -0.112788074 0
v -0.192428082 -0.198174343 0
v -0.14120391 -0.118931115 0
v -0.1630532 -0.20706062 0
v -0.119172327 -0.123313792 0
v -0.132950559 -0.213059857 0
v -0.0959754139 -0.125900835 0
v -0.102473058 -0.216465861 0
v -0.0721485019 -0.126716301 0
v -0.0719566047 -0.217513859 0
v -0.0482306778 -0.125829145 0
v -0.0417329185 -0.216393769 0
v -0.0247634836 -0.123344406 0
v -0.0121319629 -0.213259071 0
v -0.00229438511 -0.119402401 0
v 0.0165229738 -0.208228767 0
v 0.0186144635 -0.114182562 0
v 0.0439225137 -0.201381892 0
v 0.0401590317 -0.107191131 0
v 0.070785068 -0.192667693 0
v 0.061344754 -0.0989032611 0
v 0.0967809111 -0.182500094 0
v 0.0822049603 -0.0894019082 0
v 0.121937178 -0.17104499 0
v 0.10279765 -0.0787649602 0
v 0.146305174 -0.158459708 0
v 0.123172522 -0.0670738146 0
v 0.169944853 -0.144897357 0
v 0.143373653 -0.0544176064 0
v 0.192921743 -0.130504429 0
v 0.163441807 -0.0408913009 0
v 0.215304196 -0.115420088 0
v 0.183417246 -0.0265960507 0
v 0.237161532 -0.0997787938 0
v 0.203340784 -0.0116364993 0
v 0.258562416 -0.0837111697 0
v 0.223255023 0.00387844536 0
v 0.279573768 -0.0673420131 0
v 0.24320507 0.0198371615 0
v 0.300260007 -0.0507953502 0
v 0.263238728 0.0361245386 0
v 0.320682406 -0.0341917127 0
v 0.283407211 0.0526262447 0
v 0.340899646 -0.017650472 0
v 0.303764641 0.0692236796 0
v 0.360966772 -0.00128945615 0
v 0.324368656 0.0857994109 0
v 0.380935848 0.0147758424 0
v 0.345279783 0.102231741 0
v 0.400855601 0.0304299258 0
v 0.366561681 0.118399359 0
v 0.420772046 0.0455607846 0
v 0.3882806 0.134176686 0
v 0.440728366 0.0600587353 0
v 0.410455227 0.149402902 0
v 0.460825205 0.073857896 0
vt 0 0
vt 0 1
vt 0.024390243 1
vt 0.024390243 0
vt 0.048780486 1
vt 0.048780486 0
vt 0.073170729 1
vt 0.073170729 0
vt 0.097560972 1
vt 0.097560972 0
vt 0.121951215 1
vt 0.121951215 0
vt 0.146341458 1
vt 0.146341458 0
vt 0.170731694 1
vt 0.170731694 0
vt 0.195121944 1
vt 0.195121944 0
vt 0.219512194 1
vt 0.219512194 0
vt 0.243902445 1
vt 0.243902445 0
vt 0.268292695 1
vt 0.268292695 0
vt 0.292682946 1
vt 0.292682946 0
vt 0.317073196 1
vt 0.317073196 0
vt 0.341463447 1
vt 0.341463447 0
vt 0.365853697 1
vt 0.365853697 0
vt 0.390243948 1
vt 0.390243948 0
vt 0.414634198 1
vt 0.414634198 0
vt 0.439024448 1
vt 0.439024448 0
vt 0.463414699 1
vt 0.463414699 0
vt 0.487804949 1
vt 0.487804949 0
vt 0.51219517 1
vt 0.51219517 0
vt 0.536585391 1
vt 0.536585391 0
vt 0.560975611 1
vt 0.560975611 0
vt 0.585365832 1
vt 0.585365832 0
vt 0.609756052 1
vt 0.609756052 0
vt 0.634146273 1
vt 0.634146273 0
vt 0.658536494 1
vt 0.658536494 0
vt 0.682926714 1
vt 0.682926714 0
vt 0.707316935 1
vt 0.707316935 0
vt 0.731707156 1
vt 0.731707156 0
vt 0.756097376 1
vt 0.756097376 0
vt 0.780487597 1
vt 0.780487597 0
vt 0.804877818 1
vt 0.804877818 0
vt 0.829268038 1
vt 0.829268038 0
vt 0.853658259 1
vt 0.853658259 0
vt 0.87804848 1
vt 0.87804848 0
vt 0.9024387 1
vt 0.9024387 0
vt 0.926828921 1
vt 0.926828921 0
vt 0.951219141 1
vt 0.951219141 0
vt 0.975609362 1
vt 0.975609362 0
vt 0.999999583 1
vt 0.999999583 0
vn -0 0 1
vn -0 0 1
vn -0 0 1
vn -0 0 1
vn -0 0 1
vn -0 0 1
vn -0 0 1
vn -0 0 1
vn -0 0 1
vn -0 0 1
vn -0 0 1
vn -0 0 1
vn -0 0 1
vn -0 0 1
vn -0 0 1
vn -0 0 1
vn -0 0 1
vn -0 0 1
vn -0 0 1
vn -0 0 1
vn -0 0 1
vn -0 0 1
vn -0 0 1
vn -0 0 1
vn -0 0 1
vn -0 0 1
vn -0 0 1
vn -0 0 1
vn -0 0 1
vn -0 0 1
vn -0 0 1
vn -0 0 1
vn -0 0 1
vn -0 0 1
vn -0 0 1
vn -0 0 1
vn -0 0 1
vn -0 0 1
vn -0 0 1
vn -0 0 1
vn -0 0 1
vn -0 0 1
vn -0 0 1
vn -0 0 1
vn -0 0 1
vn -0 0 1
vn -0 0 1
vn -0 0 1
vn -0 0 1
vn -0 0 1
vn -0 0 1
vn -0 0 1
vn -0 0 1
vn -0 0 1
vn -0 0 1
vn -0 0 1
vn -0 0 1
vn -0 0 1
vn -0 0 1
vn -0 0 1
vn -0 0 1
vn -0 0 1
vn -0 0 1
vn -0 0 1
vn -0 0 1
vn -0 0 1
vn -0 0 1
vn -0 0 1
vn -0 0 1
vn -0 0 1
vn -0 0 1
vn -0 0 1
vn -0 0 1
vn -0 0 1
vn -0 0 1
vn -0 0 1
vn -0 0 1
vn -0 0 1
vn -0 0 1
vn -0 0 1
vn -0 0 1
vn -0 0 1
vn -0 0 1
vn -0 0 1
g Plane010_0
f 3/3/3 2/2/2 1/1/1
f 4/4/4 3/3/3 1/1/1
f 5/5/5 3/3/3 4/4/4
f 6/6/6 5/5/5 4/4/4
f 7/7/7 5/5/5 6/6/6
f 8/8/8 7/7/7 6/6/6
f 9/9/9 7/7/7 8/8/8
f 10/10/10 9/9/9 8/8/8
f 11/11/11 9/9/9 10/10/10
f 12/12/12 11/11/11 10/10/10
f 13/13/13 11/11/11 12/12/12
f 14/14/14 13/13/13 12/12/12
f 15/15/15 13/13/13 14/14/14
f 16/16/16 15/15/15 14/14/14
f 17/17/17 15/15/15 16/16/16
f 18/18/18 17/17/17 16/16/16
f 19/19/19 17/17/17 18/18/18
f 20/20/20 19/19/19 18/18/18
f 21/21/21 19/19/19 20/20/20
f 22/22/22 21/21/21 20/20/20
f 23/23/23 21/21/21 22/22/22
f 24/24/24 23/23/23 22/22/22
f 25/25/25 23/23/23 24/24/24
f 26/26/26 25/25/25 24/24/24
f 27/27/27 25/25/25 26/26/26
f 28/28/28 27/27/27 26/26/26
f 29/29/29 27/27/27 28/28/28
f 30/30/30 29/29/29 28/28/28
f 31/31/31 29/29/29 30/30/30
f 32/32/32 31/31/31 30/30/30
f 33/33/33 31/31/31 32/32/32
f 34/34/34 33/33/33 32/32/32
f 35/35/35 33/33/33 34/34/34
f 36/36/36 35/35/35 34/34/34
f 37/37/37 35/35/35 36/36/36
f 38/38/38 37/37/37 36/36/36
f 39/39/39 37/37/37 38/38/38
f 40/40/40 39/39/39 38/38/38
f 41/41/41 39/39/39 40/40/40
f 42/42/42 41/41/41 40/40/40
f 43/43/43 41/41/41 42/42/42
f 44/44/44 43/43/43 42/42/42
f 45/45/45 43/43/43 44/44/44
f 46/46/46 45/45/45 44/44/44
f 47/47/47 45/45/45 46/46/46
f 48/48/48 47/47/47 46/46/46
f 49/49/49 47/47/47 48/48/48
f 50/50/50 49/49/49 48/48/48
f 51/51/51 49/49/49 50/50/50
f 52/52/52 51/51/51 50/50/50
f 53/53/53 51/51/51 52/52/52
f 54/54/54 53/53/53 52/52/52
f 55/55/55 53/53/53 54/54/54
f 56/56/56 55/55/55 54/54/54
f 57/57/57 55/55/55 56/56/56
f 58/58/58 57/57/57 56/56/56
f 59/59/59 57/57/57 58/58/58
f 60/60/60 59/59/59 58/58/58
f 61/61/61 59/59/59 60/60/60
f 62/62/62 61/61/61 60/60/60
f 63/63/63 61/61/61 62/62/62
f 64/64/64 63/63/63 62/62/62
f 65/65/65 63/63/63 64/64/64
f 66/66/66 65/65/65 64/64/64
f 67/67/67 65/65/65 66/66/66
f 68/68/68 67/67/67 66/66/66
f 69/69/69 67/67/67 68/68/68
f 70/70/70 69/69/69 68/68/68
f 71/71/71 69/69/69 70/70/70
f 72/72/72 71/71/71 70/70/70
f 73/73/73 71/71/71 72/72/72
f 74/74/74 73/73/73 72/72/72
f 75/75/75 73/73/73 74/74/74
f 76/76/76 75/75/75 74/74/74
f 77/77/77 75/75/75 76/76/76
f 78/78/78 77/77/77 76/76/76
f 79/79/79 77/77/77 78/78/78
f 80/80/80 79/79/79 78/78/78
f 81/81/81 79/79/79 80/80/80
f 82/82/82 81/81/81 80/80/80
f 83/83/83 81/81/81 82/82/82
f 84/84/84 83/83/83 82/82/82
