g Plane004
v 0.184047014 0.221150979 0
v 0.207001165 0.140515551 0
v 0.222335935 0.214539036 0
v 0.173389181 0.146310881 0
v 0.144225821 0.225828752 0
v 0.191666394 0.0664920136 0
v 0.137078509 0.150572196 0
v 0.103078879 0.228938282 0
v 0.162731335 0.0714707077 0
v 0.176331595 -0.00753149251 0
v 0.152073473 -0.00336944056 0
v 0.129931197 0.0753156319 0
v 0.122783892 5.90322488E-05 0
v 0.0987304524 0.153468251 0
v 0.0610809848 0.230682522 0
v 0.0943820253 0.0779981911 0
v 0.0869154036 -0.000742880977 0
v 0.0590957999 0.155113429 0
v 0.0188418068 0.231193498 0
v 0.0571106002 0.0795442462 0
v 0.0520072058 0.000704099482 0
v 0.0189702436 0.155598417 0
v -0.022966506 0.230566889 0
v 0.0190986767 0.0800032765 0
v 0.0161089189 0.00113716407 0
v -0.0208296813 0.155001923 0
v -0.06365785 0.228874296 0
v -0.0186928567 0.0794368908 0
v -0.0196742341 0.00271289144 0
v -0.0594828017 0.15339449 0
v -0.102579556 0.226162106 0
v -0.0553077534 0.0779146478 0
v -0.0511327051 0.00243480783 0
v -0.0961790457 0.150838375 0
v -0.139183849 0.222434282 0
v -0.0897785276 0.0755145997 0
v -0.0833780169 0.000190807143 0
v -0.130143389 0.147381619 0
v -0.173175707 0.2175951 0
v -0.121102899 0.0723288953 0
v -0.112062439 -0.0027237921 0
v -0.160684928 0.143038988 0
v -0.204897642 0.211250424 0
v -0.148194179 0.0684828311 0
v -0.1357034 -0.006073297 0
v -0.187325418 0.137725934 0
v -0.262223393 0.192474291 0
v -0.231551051 0.123153321 0
v -0.169749349 0.0642013699 0
v -0.15218097 -0.0093230987 0
v -0.201276407 0.0538338386 0
v -0.171803921 -0.0154857887 0
vt 0.599999964 0
vt 0.62499994 0.26832217
vt 0.62499994 0
vt 0.599999964 0.26832217
vt 0.574999988 0
vt 0.62499994 0.53664434
vt 0.574999988 0.26832217
vt 0.550000012 0
vt 0.599999964 0.53664434
vt 0.62499994 0.804966509
vt 0.599999964 0.804966509
vt 0.574999988 0.53664434
vt 0.574999988 0.804966509
vt 0.550000012 0.26832217
vt 0.525000036 0
vt 0.550000012 0.53664434
vt 0.550000012 0.804966509
vt 0.525000036 0.26832217
vt 0.50000006 0
vt 0.525000036 0.53664434
vt 0.525000036 0.804966509
vt 0.50000006 0.26832217
vt 0.475000083 0
vt 0.50000006 0.53664434
vt 0.50000006 0.804966509
vt 0.475000083 0.26832217
vt 0.450000077 0
vt 0.475000083 0.53664434
vt 0.475000083 0.804966509
vt 0.450000077 0.26832217
vt 0.425000072 0
vt 0.450000077 0.53664434
vt 0.450000077 0.804966509
vt 0.425000072 0.26832217
vt 0.400000066 0
vt 0.425000072 0.53664434
vt 0.425000072 0.804966509
vt 0.400000066 0.26832217
vt 0.37500006 0
vt 0.400000066 0.53664434
vt 0.400000066 0.804966509
vt 0.37500006 0.26832217
vt 0.350000054 0
vt 0.37500006 0.53664434
vt 0.37500006 0.804966509
vt 0.350000054 0.26832217
vt 0.325000048 0
vt 0.325000048 0.26832217
vt 0.350000054 0.53664434
vt 0.350000054 0.804966509
vt 0.325000048 0.53664434
vt 0.325000048 0.804966509
vn -0 0 -1
vn -0 0 -1
vn -0 0 -1
vn -0 0 -1
vn -0 0 -1
vn -0 0 -1
vn -0 0 -1
vn -0 0 -1
vn -0 0 -1
vn -0 0 -1
vn -0 0 -1
vn -0 0 -1
vn -0 0 -1
vn -0 0 -1
vn -0 0 -1
vn -0 0 -1
vn -0 0 -1
vn -0 0 -1
vn -0 0 -1
vn -0 0 -1
vn -0 0 -1
vn -0 0 -1
vn -0 0 -1
vn -0 0 -1
vn -0 0 -1
vn -0 0 -1
vn -0 0 -1
vn -0 0 -1
vn -0 0 -1
vn -0 0 -1
vn -0 0 -1
vn -0 0 -1
vn -0 0 -1
vn -0 0 -1
vn -0 0 -1
vn -0 0 -1
vn -0 0 -1
vn -0 0 -1
vn -0 0 -1
vn -0 0 -1
vn -0 0 -1
vn -0 0 -1
vn -0 0 -1
vn -0 0 -1
vn -0 0 -1
vn -0 0 -1
vn -0 0 -1
vn -0 0 -1
vn -0 0 -1
vn -0 0 -1
vn -0 0 -1
vn -0 0 -1
g Plane004_0
f 3/3/3 2/2/2 1/1/1
f 2/2/2 4/4/4 1/1/1
f 1/1/1 4/4/4 5/5/5
f 2/2/2 6/6/6 4/4/4
f 4/4/4 7/7/7 5/5/5
f 5/5/5 7/7/7 8/8/8
f 6/6/6 9/9/9 4/4/4
f 4/4/4 9/9/9 7/7/7
f 6/6/6 10/10/10 9/9/9
f 10/10/10 11/11/11 9/9/9
f 9/9/9 11/11/11 12/12/12
f 9/9/9 12/12/12 7/7/7
f 11/11/11 13/13/13 12/12/12
f 7/7/7 14/14/14 8/8/8
f 7/7/7 12/12/12 14/14/14
f 8/8/8 14/14/14 15/15/15
f 12/12/12 13/13/13 16/16/16
f 12/12/12 16/16/16 14/14/14
f 13/13/13 17/17/17 16/16/16
f 14/14/14 18/18/18 15/15/15
f 14/14/14 16/16/16 18/18/18
f 15/15/15 18/18/18 19/19/19
f 16/16/16 17/17/17 20/20/20
f 16/16/16 20/20/20 18/18/18
f 17/17/17 21/21/21 20/20/20
f 18/18/18 22/22/22 19/19/19
f 18/18/18 20/20/20 22/22/22
f 19/19/19 22/22/22 23/23/23
f 20/20/20 21/21/21 24/24/24
f 20/20/20 24/24/24 22/22/22
f 21/21/21 25/25/25 24/24/24
f 22/22/22 26/26/26 23/23/23
f 22/22/22 24/24/24 26/26/26
f 23/23/23 26/26/26 27/27/27
f 24/24/24 25/25/25 28/28/28
f 24/24/24 28/28/28 26/26/26
f 25/25/25 29/29/29 28/28/28
f 26/26/26 30/30/30 27/27/27
f 26/26/26 28/28/28 30/30/30
f 27/27/27 30/30/30 31/31/31
f 28/28/28 29/29/29 32/32/32
f 28/28/28 32/32/32 30/30/30
f 29/29/29 33/33/33 32/32/32
f 30/30/30 34/34/34 31/31/31
f 30/30/30 32/32/32 34/34/34
f 31/31/31 34/34/34 35/35/35
f 32/32/32 33/33/33 36/36/36
f 32/32/32 36/36/36 34/34/34
f 33/33/33 37/37/37 36/36/36
f 34/34/34 38/38/38 35/35/35
f 34/34/34 36/36/36 38/38/38
f 35/35/35 38/38/38 39/39/39
f 36/36/36 37/37/37 40/40/40
f 36/36/36 40/40/40 38/38/38
f 37/37/37 41/41/41 40/40/40
f 38/38/38 42/42/42 39/39/39
f 38/38/38 40/40/40 42/42/42
f 39/39/39 42/42/42 43/43/43
f 40/40/40 41/41/41 44/44/44
f 40/40/40 44/44/44 42/42/42
f 41/41/41 45/45/45 44/44/44
f 42/42/42 46/46/46 43/43/43
f 42/42/42 44/44/44 46/46/46
f 43/43/43 46/46/46 47/47/47
f 46/46/46 48/48/48 47/47/47
f 44/44/44 45/45/45 49/49/49
f 44/44/44 49/49/49 46/46/46
f 46/46/46 49/49/49 48/48/48
f 45/45/45 50/50/50 49/49/49
f 49/49/49 51/51/51 48/48/48
f 49/49/49 50/50/50 51/51/51
f 50/50/50 52/52/52 51/51/51
