g Cone001
v 0.662664711 -0.177560955 0
v 0.602878034 0.0523443595 0.00146243128
v 0.686040998 0 0
v 0.582335293 -0.103692323 0.00146243128
v 0.594128609 -0.343020916 0
v 0.51971513 0.104688719 0.00292486255
v 0.522107542 -0.249094993 0.00146243128
v 0.485103965 -0.485104591 0
v 0.502006114 -0.0298236832 0.00292486255
v 0.436552197 0.157033235 0.00438729348
v 0.426298976 -0.373954982 0.00146243139
v 0.343020171 -0.594129145 0
v 0.450086266 -0.155169025 0.00292486255
v 0.421676934 0.0440449528 0.00438729348
v 0.353389055 0.209377661 0.00584972557
v 0.301438808 -0.469763398 0.00146243139
v 0.177560121 -0.662664771 0
v 0.367493898 -0.262805462 0.00292486278
v 0.378065109 -0.0612430573 0.00438729348
v 0.341347575 0.117913507 0.00584972557
v 0.270226061 0.261722028 0.00731215579
v 0.261018366 0.191782147 0.00731215579
v 0.306043774 0.032682877 0.00584972557
v 0.234022588 0.126608804 0.00731215579
v 0.156036064 -0.52999109 0.00146243128
v -3.05175774E-07 -0.686040998 0
v 0.259857237 -0.3453978 0.00292486255
v 0.308688819 -0.151655838 0.00438729348
v 0.249883652 -0.0405063629 0.0058497251
v 0.191078559 0.0706432313 0.00731215579
v -3.05175774E-07 -0.550533593 0.00146243139
v -0.177560762 -0.662664652 0
v 0.134511873 -0.39731741 0.00292486278
v 0.21827583 -0.221032068 0.00438729348
v 0.176694259 -0.0966663733 0.0058497251
v 0.135112911 0.0276992787 0.00731215579
v -0.156036481 -0.529990971 0.00146243128
v -0.343020707 -0.594128847 0
v -2.28881831E-07 -0.415026277 0.00292486255
v 0.112987667 -0.264643669 0.00438729348
v 0.0914636999 -0.131969988 0.0058497251
v 0.0699395761 0.000703659025 0.00731215533
v -0.301439136 -0.46976313 0.00146243139
v -0.485104501 -0.485103965 0
v -0.13451229 -0.39731735 0.00292486255
v -1.52587887E-07 -0.279518813 0.00438729348
v -1.52587887E-07 -0.144011423 0.0058497251
v -7.62939436E-08 -0.00850395206 0.00731215579
v -0.426299274 -0.373954505 0.00146243128
v -0.594129086 -0.343020171 0
v -0.259857595 -0.345397532 0.00292486255
v -0.112988085 -0.26464358 0.00438729348
v -0.0914638862 -0.131969914 0.0058497251
v -0.0699396133 0.000703735335 0.00731215579
v -0.52210778 -0.249094352 0.00146243128
v -0.662664771 -0.177560195 0
v -0.367494196 -0.262805045 0.00292486255
v -0.218276098 -0.22103183 0.00438729348
v -0.176694602 -0.0966662169 0.0058497251
v -0.135112956 0.0276995078 0.00731215579
v -0.582335472 -0.103691667 0.00146243128
v -0.686040998 2.28881831E-07 0
v -0.450086504 -0.155168533 0.00292486255
v -0.308688998 -0.151655465 0.00438729348
v -0.249883831 -0.0405060574 0.0058497251
v -0.191078678 0.0706434622 0.00731215579
v -0.602877975 0.0523446649 0.00146243128
v -0.662664711 0.177560642 0
v -0.502006233 -0.0298231505 0.00292486278
v -0.378065169 -0.0612426363 0.00438729348
v -0.306043893 0.0326831825 0.0058497251
v -0.234022588 0.126609042 0.00731215579
v -0.582335413 0.208380967 0.00146243139
v -0.594128847 0.343020618 0
v -0.519715011 0.104689099 0.00292486255
v -0.421676815 0.0440453328 0.00438729348
v -0.341347545 0.117913969 0.0058497251
v -0.261018217 0.191782534 0.00731215579
v -0.522107542 0.353783548 0.00146243128
v -0.485104144 0.485104293 0
v -0.502006114 0.239201114 0.00292486255
v -0.436551958 0.157033384 0.00438729394
v -0.353388935 0.209377825 0.0058497251
v -0.270225912 0.261722028 0.00731215579
v -0.426298976 0.478643566 0.00146243128
v -0.34302038 0.594128966 0
v -0.450086325 0.364546508 0.00292486255
v -0.421676785 0.2700212 0.00438729348
v -0.341347456 0.300841451 0.0058497251
v -0.261018187 0.331661761 0.00731215579
v -0.301438868 0.574452221 0.00146243128
v -0.177560389 0.662664711 0
v -0.367493898 0.4721829 0.00292486278
v -0.37806502 0.375309289 0.00438729348
v -0.306043804 0.386072308 0.00584972557
v -0.234022483 0.396834999 0.00731215533
v -0.156036228 0.634679794 0.00146243128
v 7.62939436E-08 0.686040998 0
v -0.259857446 0.554775238 0.00292486255
v -0.30868873 0.465722114 0.00438729348
v -0.249883607 0.459261388 0.0058497251
v -0.191078559 0.452800751 0.00731215579
v 7.62939436E-08 0.655222535 0.00146243139
v 0.177560493 0.662664711 0
v -0.134512022 0.606694996 0.00292486255
v -0.218275905 0.535098314 0.00438729348
v -0.176694408 0.515421331 0.0058497251
v -0.135112867 0.495744616 0.00731215579
v 0.156036451 0.634679794 0.00146243139
v 0.343020558 0.594128966 0
v -0 0.624403775 0.00292486255
v -0.112987861 0.57870996 0.00438729348
v -0.0914636627 0.550725102 0.0058497251
v -0.0699395388 0.522740245 0.00731215579
v 0.301438987 0.574452221 0.00146243128
v 0.485104293 0.485104293 0
v 0.134512171 0.606694996 0.00292486255
v 7.62939436E-08 0.593585253 0.00438729348
v 7.62939436E-08 0.562766552 0.00584972557
v 7.62939436E-08 0.53194803 0.00731215579
v 0.426299125 0.478643477 0.00146243128
v 0.594128966 0.343020558 0
v 0.259857565 0.554775298 0.00292486278
v 0.112988047 0.57871002 0.00438729348
v 0.0914638489 0.550725222 0.0058497251
v 0.0699397251 0.522740185 0.00731215579
v 0.52210778 0.353783488 0.00146243139
v 0.662664711 0.177560493 0
v 0.367494047 0.47218284 0.00292486255
v 0.218275905 0.535098255 0.00438729348
v 0.176694408 0.51542145 0.00584972557
v 0.13511306 0.495744556 0.00731215579
v 0.582335413 0.208380729 0.00146243128
v 0.686040998 0 0
v 0.602878034 0.0523443595 0.00146243128
v 0.450086504 0.364546508 0.00292486278
v 0.308688968 0.465722173 0.00438729348
v 0.249883801 0.459261388 0.00584972557
v 0.191078633 0.452800602 0.00731215579
v 0.502006352 0.239200965 0.00292486278
v 0.51971513 0.104688719 0.00292486255
v 0.378065258 0.375309199 0.00438729348
v 0.306043923 0.38607201 0.0058497251
v 0.234022662 0.39683494 0.00731215579
v 0.421676934 0.270021141 0.00438729348
v 0.436552197 0.157033235 0.00438729348
v 0.341347635 0.300841451 0.0058497251
v 0.261018276 0.331661612 0.00731215579
v 0.353389055 0.209377661 0.00584972557
v 0.270226061 0.261722028 0.00731215579
vt 0.958333254 0.00255948305
vt 1 0.202559471
vt 1 0.00255948305
vt 0.958333254 0.202559471
vt 0.916666567 0.00255948305
vt 1 0.402559489
vt 0.916666567 0.202559471
vt 0.874999881 0.00255948305
vt 0.958333254 0.402559489
vt 1 0.602559507
vt 0.874999881 0.202559471
vt 0.833333254 0.00255948305
vt 0.916666567 0.402559489
vt 0.958333254 0.602559507
vt 1 0.802559495
vt 0.833333254 0.202559471
vt 0.791666627 0.00255948305
vt 0.874999881 0.402559489
vt 0.916666567 0.602559507
vt 0.958333254 0.802559495
vt 1 1.00255942
vt 0.958333254 1.00255942
vt 0.916666567 0.802559495
vt 0.916666567 1.00255942
vt 0.791666567 0.202559471
vt 0.74999994 0.00255948305
vt 0.833333254 0.402559489
vt 0.874999881 0.602559507
vt 0.874999881 0.802559495
vt 0.874999881 1.00255942
vt 0.74999994 0.202559471
vt 0.708333254 0.00255948305
vt 0.791666627 0.402559489
vt 0.833333254 0.602559507
vt 0.833333254 0.802559495
vt 0.833333254 1.00255942
vt 0.708333254 0.202559471
vt 0.666666627 0.00255948305
vt 0.74999994 0.402559489
vt 0.791666627 0.602559507
vt 0.791666567 0.802559495
vt 0.791666567 1.00255942
vt 0.666666627 0.202559471
vt 0.62499994 0.00255948305
vt 0.708333254 0.402559489
vt 0.74999994 0.602559507
vt 0.74999994 0.802559495
vt 0.74999994 1.00255942
vt 0.62499994 0.202559471
vt 0.583333254 0.00255948305
vt 0.666666627 0.402559489
vt 0.708333254 0.602559507
vt 0.708333254 0.802559495
vt 0.708333254 1.00255942
vt 0.583333254 0.202559471
vt 0.541666627 0.00255948305
vt 0.62499994 0.402559489
vt 0.666666627 0.602559507
vt 0.666666627 0.802559495
vt 0.666666627 1.00255942
vt 0.541666627 0.202559471
vt 0.5 0.00255948305
vt 0.583333254 0.402559489
vt 0.62499994 0.602559507
vt 0.62499994 0.802559495
vt 0.62499994 1.00255942
vt 0.5 0.202559471
vt 0.458333254 0.00255948305
vt 0.541666627 0.402559489
vt 0.583333254 0.602559507
vt 0.583333254 0.802559495
vt 0.583333254 1.00255942
vt 0.458333254 0.202559471
vt 0.416666597 0.00255948305
vt 0.5 0.402559489
vt 0.541666627 0.602559507
vt 0.541666627 0.802559495
vt 0.541666627 1.00255942
vt 0.416666597 0.202559471
vt 0.37499994 0.00255948305
vt 0.458333254 0.402559489
vt 0.5 0.602559507
vt 0.5 0.802559495
vt 0.5 1.00255942
vt 0.37499994 0.202559471
vt 0.333333284 0.00255948305
vt 0.416666597 0.402559489
vt 0.458333254 0.602559507
vt 0.458333254 0.802559495
vt 0.458333254 1.00255942
vt 0.333333284 0.202559471
vt 0.291666627 0.00255948305
vt 0.37499994 0.402559489
vt 0.416666597 0.602559507
vt 0.416666597 0.802559495
vt 0.416666597 1.00255942
vt 0.291666627 0.202559471
vt 0.249999985 0.00255948305
vt 0.333333284 0.402559489
vt 0.37499994 0.602559507
vt 0.37499994 0.802559495
vt 0.37499994 1.00255942
vt 0.249999985 0.202559471
vt 0.208333328 0.00255948305
vt 0.291666627 0.402559489
vt 0.333333284 0.602559507
vt 0.333333284 0.802559495
vt 0.333333284 1.00255942
vt 0.208333328 0.202559471
vt 0.166666672 0.00255948305
vt 0.249999985 0.402559489
vt 0.291666627 0.602559507
vt 0.291666627 0.802559495
vt 0.291666627 1.00255942
vt 0.166666672 0.202559471
vt 0.125 0.00255948305
vt 0.208333328 0.402559489
vt 0.249999985 0.602559507
vt 0.249999985 0.802559495
vt 0.249999985 1.00255942
vt 0.125 0.202559471
vt 0.0833333358 0.00255948305
vt 0.166666672 0.402559489
vt 0.208333328 0.602559507
vt 0.208333328 0.802559495
vt 0.208333328 1.00255942
vt 0.0833333358 0.202559471
vt 0.0416666754 0.00255948305
vt 0.125 0.402559489
vt 0.166666672 0.602559507
vt 0.166666672 0.802559495
vt 0.166666672 1.00255942
vt 0.0416666754 0.202559471
vt 0 0.00255948305
vt 0 0.202559471
vt 0.0833333358 0.402559489
vt 0.125 0.602559507
vt 0.125 0.802559495
vt 0.125 1.00255942
vt 0.0416666754 0.402559489
vt 0 0.402559489
vt 0.0833333358 0.602559507
vt 0.0833333358 0.802559495
vt 0.0833333358 1.00255942
vt 0.0416666754 0.602559507
vt 0 0.602559507
vt 0.0416666754 0.802559495
vt 0.0416666754 1.00255942
vt 0 0.802559495
vt 0 1.00255942
vn 0.0141989179 -0.0043547689 0.999889731
vn 0.0177038964 0.000193072163 0.99984324
vn 0.0171317756 -0.000716134149 0.999853015
vn 0.0147098787 -0.0037990252 0.999884605
vn 0.0112513639 -0.00694128545 0.99991262
vn 0.0177039038 0.000193068001 0.99984324
vn 0.0116654187 -0.00662374916 0.999909997
vn 0.00835645292 -0.008735287 0.999926925
vn 0.014709888 -0.00379902893 0.999884605
vn 0.0177038815 0.000193075117 0.99984324
vn 0.00866435748 -0.00857236609 0.999925733
vn 0.00552667538 -0.00991053414 0.999935627
vn 0.0116654197 -0.00662374822 0.999909997
vn 0.0147098787 -0.0037990259 0.999884605
vn 0.0177038815 0.000193082218 0.99984324
vn 0.00572916772 -0.00984282512 0.99993515
vn 0.00274920627 -0.0105760973 0.999940276
vn 0.00866435282 -0.00857236516 0.999925733
vn 0.011665415 -0.00662375055 0.999909997
vn 0.0147098703 -0.00379902381 0.999884605
vn 0.0181879587 0.000962433056 0.999834061
vn 0.0151422294 -0.00332875992 0.999879837
vn 0.0116654085 -0.00662375195 0.999909997
vn 0.0120157665 -0.00635506585 0.999907613
vn 0.00284937769 -0.0105598457 0.999940157
vn -0 -0.0107916333 0.999941826
vn 0.00572916167 -0.00984282233 0.99993515
vn 0.00866435096 -0.00857236423 0.999925733
vn 0.00866434816 -0.00857236516 0.999925733
vn 0.00892488565 -0.00843451358 0.99992466
vn -0 -0.0107916361 0.999941826
vn -0.00274921604 -0.0105760908 0.999940276
vn 0.00284937629 -0.010559842 0.999940157
vn 0.00572916167 -0.0098428214 0.99993515
vn 0.00572916167 -0.00984282326 0.99993515
vn 0.00590050593 -0.00978553109 0.999934793
vn -0.00284938724 -0.010559842 0.999940157
vn -0.00552668469 -0.00991052296 0.999935627
vn -0 -0.0107916333 0.999941826
vn 0.00284937536 -0.010559842 0.999940157
vn 0.00284937699 -0.0105598439 0.999940157
vn 0.00293413457 -0.010546091 0.999940157
vn -0.0057291775 -0.00984281674 0.99993515
vn -0.00835645851 -0.00873527303 0.999926925
vn -0.00284938817 -0.010559842 0.999940157
vn -0 -0.0107916286 0.999941826
vn -0 -0.0107916323 0.999941826
vn -0 -0.0107916305 0.999941826
vn -0.00866436586 -0.00857235771 0.999925733
vn -0.0112513714 -0.00694127241 0.99991262
vn -0.0057291775 -0.00984281674 0.99993515
vn -0.00284938724 -0.0105598383 0.999940157
vn -0.00284938584 -0.0105598392 0.999940157
vn -0.00293414411 -0.0105460826 0.999940157
vn -0.0116654299 -0.00662374124 0.999909997
vn -0.0141989319 -0.00435476005 0.999889731
vn -0.00866436586 -0.00857235771 0.999925733
vn -0.00572917704 -0.00984281674 0.99993515
vn -0.00572917704 -0.00984281674 0.99993515
vn -0.00590051198 -0.00978551805 0.999934793
vn -0.014709888 -0.00379901403 0.999884605
vn -0.0171317831 -0.00071612926 0.999853015
vn -0.0116654262 -0.00662373938 0.999909997
vn -0.00866436493 -0.00857235771 0.999925733
vn -0.00866436306 -0.00857235771 0.999925733
vn -0.00892489497 -0.00843450241 0.99992466
vn -0.0177038945 0.000193081869 0.99984324
vn -0.0198665485 0.00433927029 0.999793231
vn -0.0147098871 -0.00379901123 0.999884605
vn -0.0116654225 -0.00662373891 0.999909997
vn -0.0116654271 -0.00662373751 0.999909997
vn -0.0120157851 -0.00635504536 0.999907613
vn -0.0204050485 0.00574363908 0.99977535
vn -0.021982789 0.0112649389 0.999694943
vn -0.0177038908 0.000193084474 0.99984324
vn -0.0147098787 -0.00379901216 0.999884605
vn -0.0147098843 -0.00379900867 0.999884605
vn -0.0151422359 -0.00332875014 0.999879837
vn -0.0222829413 0.0132776881 0.999663472
vn -0.0226116348 0.0204422977 0.999535322
vn -0.0204050392 0.00574363815 0.99977535
vn -0.0177038815 0.000193081883 0.99984324
vn -0.0177038871 0.000193085871 0.99984324
vn -0.0181879643 0.00096243131 0.999834061
vn -0.0223335512 0.0229625646 0.999486804
vn -0.0201924145 0.0315991715 0.999296665
vn -0.0222829357 0.0132776899 0.999663472
vn -0.0204050317 0.00574362744 0.99977535
vn -0.0204050411 0.00574362138 0.99977535
vn -0.0208606459 0.00693195499 0.999758422
vn -0.0190710556 0.0339647196 0.999241114
vn -0.0127089564 0.042431768 0.99901855
vn -0.0223335288 0.0229625478 0.999486804
vn -0.0222829245 0.0132776648 0.999663472
vn -0.0222829357 0.0132776937 0.999663472
vn -0.0225368198 0.0149808023 0.999633789
vn -0.0113207875 0.0434978977 0.998989403
vn -0 0.0473996066 0.998876035
vn -0.0190710332 0.03396466 0.999241114
vn -0.0223335233 0.022962546 0.999486804
vn -0.0223335288 0.0229625572 0.999486804
vn -0.0220981054 0.0250952095 0.99944073
vn -0 0.0473995432 0.998876035
vn 0.0127089536 0.0424317867 0.99901855
vn -0.0113207428 0.0434978195 0.998989403
vn -0.0190710071 0.0339646228 0.999241114
vn -0.0190710519 0.033964701 0.999241114
vn -0.0181220211 0.0359664522 0.999188721
vn 0.0113208005 0.0434979126 0.998989403
vn 0.0201924052 0.0315991491 0.999296665
vn -0 0.0473994911 0.998876035
vn -0.0113207651 0.0434978008 0.998989403
vn -0.0113207884 0.0434978902 0.998989403
vn -0.0101459641 0.0444001332 0.998962283
vn 0.019071063 0.0339647159 0.999241114
vn 0.0226116348 0.0204422958 0.999535322
vn 0.0113207372 0.0434978157 0.998989403
vn -0 0.0473995209 0.998876035
vn -0 0.0473995097 0.998876035
vn -0 0.0473995022 0.998876035
vn 0.0223335531 0.0229625553 0.999486804
vn 0.0219828002 0.0112649286 0.999694943
vn 0.0190710332 0.0339646712 0.999241114
vn 0.0113207828 0.0434978493 0.998989403
vn 0.0113207623 0.0434978455 0.998989403
vn 0.0101459296 0.0443999358 0.998962283
vn 0.0222829618 0.0132776862 0.999663472
vn 0.0198665597 0.00433926797 0.999793231
vn 0.0223335493 0.0229625553 0.999486804
vn 0.019071022 0.0339646302 0.999241114
vn 0.019071063 0.0339646973 0.999241114
vn 0.0181219801 0.0359662622 0.999188721
vn 0.0204050671 0.00574362604 0.99977535
vn 0.0171317756 -0.000716134149 0.999853015
vn 0.0177038964 0.000193072163 0.99984324
vn 0.0222829431 0.0132776974 0.999663472
vn 0.0223334972 0.0229625311 0.999486804
vn 0.0223335139 0.0229625553 0.999486804
vn 0.0220980681 0.0250951257 0.99944073
vn 0.0204050597 0.00574362976 0.99977535
vn 0.0177039038 0.000193068001 0.99984324
vn 0.0222829171 0.0132776629 0.999663472
vn 0.0222829115 0.0132776434 0.999663472
vn 0.0225368347 0.0149807986 0.999633789
vn 0.0204050168 0.00574361952 0.99977535
vn 0.0177038815 0.000193075117 0.99984324
vn 0.0204050299 0.00574363023 0.99977535
vn 0.0208606571 0.00693196524 0.999758422
vn 0.0177038815 0.000193082218 0.99984324
vn 0.0181879587 0.000962433056 0.999834061
g Cone001_0
f 3/3/3 2/2/2 1/1/1
f 2/2/2 4/4/4 1/1/1
f 1/1/1 4/4/4 5/5/5
f 2/2/2 6/6/6 4/4/4
f 4/4/4 7/7/7 5/5/5
f 5/5/5 7/7/7 8/8/8
f 6/6/6 9/9/9 4/4/4
f 4/4/4 9/9/9 7/7/7
f 6/6/6 10/10/10 9/9/9
f 7/7/7 11/11/11 8/8/8
f 8/8/8 11/11/11 12/12/12
f 9/9/9 13/13/13 7/7/7
f 7/7/7 13/13/13 11/11/11
f 10/10/10 14/14/14 9/9/9
f 9/9/9 14/14/14 13/13/13
f 10/10/10 15/15/15 14/14/14
f 11/11/11 16/16/16 12/12/12
f 12/12/12 16/16/16 17/17/17
f 13/13/13 18/18/18 11/11/11
f 11/11/11 18/18/18 16/16/16
f 14/14/14 19/19/19 13/13/13
f 13/13/13 19/19/19 18/18/18
f 15/15/15 20/20/20 14/14/14
f 14/14/14 20/20/20 19/19/19
f 15/15/15 21/21/21 20/20/20
f 21/21/21 22/22/22 20/20/20
f 20/20/20 22/22/22 23/23/23
f 20/20/20 23/23/23 19/19/19
f 22/22/22 24/24/24 23/23/23
f 16/16/16 25/25/25 17/17/17
f 17/17/17 25/25/25 26/26/26
f 18/18/18 27/27/27 16/16/16
f 16/16/16 27/27/27 25/25/25
f 19/19/19 28/28/28 18/18/18
f 19/19/19 23/23/23 28/28/28
f 18/18/18 28/28/28 27/27/27
f 23/23/23 24/24/24 29/29/29
f 23/23/23 29/29/29 28/28/28
f 24/24/24 30/30/30 29/29/29
f 25/25/25 31/31/31 26/26/26
f 26/26/26 31/31/31 32/32/32
f 27/27/27 33/33/33 25/25/25
f 25/25/25 33/33/33 31/31/31
f 28/28/28 34/34/34 27/27/27
f 28/28/28 29/29/29 34/34/34
f 27/27/27 34/34/34 33/33/33
f 29/29/29 30/30/30 35/35/35
f 29/29/29 35/35/35 34/34/34
f 30/30/30 36/36/36 35/35/35
f 31/31/31 37/37/37 32/32/32
f 32/32/32 37/37/37 38/38/38
f 33/33/33 39/39/39 31/31/31
f 31/31/31 39/39/39 37/37/37
f 34/34/34 40/40/40 33/33/33
f 34/34/34 35/35/35 40/40/40
f 33/33/33 40/40/40 39/39/39
f 35/35/35 36/36/36 41/41/41
f 35/35/35 41/41/41 40/40/40
f 36/36/36 42/42/42 41/41/41
f 37/37/37 43/43/43 38/38/38
f 38/38/38 43/43/43 44/44/44
f 39/39/39 45/45/45 37/37/37
f 37/37/37 45/45/45 43/43/43
f 40/40/40 46/46/46 39/39/39
f 40/40/40 41/41/41 46/46/46
f 39/39/39 46/46/46 45/45/45
f 41/41/41 42/42/42 47/47/47
f 41/41/41 47/47/47 46/46/46
f 42/42/42 48/48/48 47/47/47
f 43/43/43 49/49/49 44/44/44
f 44/44/44 49/49/49 50/50/50
f 45/45/45 51/51/51 43/43/43
f 43/43/43 51/51/51 49/49/49
f 46/46/46 52/52/52 45/45/45
f 46/46/46 47/47/47 52/52/52
f 45/45/45 52/52/52 51/51/51
f 47/47/47 48/48/48 53/53/53
f 47/47/47 53/53/53 52/52/52
f 48/48/48 54/54/54 53/53/53
f 49/49/49 55/55/55 50/50/50
f 50/50/50 55/55/55 56/56/56
f 51/51/51 57/57/57 49/49/49
f 49/49/49 57/57/57 55/55/55
f 52/52/52 58/58/58 51/51/51
f 52/52/52 53/53/53 58/58/58
f 51/51/51 58/58/58 57/57/57
f 53/53/53 54/54/54 59/59/59
f 53/53/53 59/59/59 58/58/58
f 54/54/54 60/60/60 59/59/59
f 55/55/55 61/61/61 56/56/56
f 56/56/56 61/61/61 62/62/62
f 57/57/57 63/63/63 55/55/55
f 55/55/55 63/63/63 61/61/61
f 58/58/58 64/64/64 57/57/57
f 58/58/58 59/59/59 64/64/64
f 57/57/57 64/64/64 63/63/63
f 59/59/59 60/60/60 65/65/65
f 59/59/59 65/65/65 64/64/64
f 60/60/60 66/66/66 65/65/65
f 61/61/61 67/67/67 62/62/62
f 62/62/62 67/67/67 68/68/68
f 63/63/63 69/69/69 61/61/61
f 61/61/61 69/69/69 67/67/67
f 64/64/64 70/70/70 63/63/63
f 64/64/64 65/65/65 70/70/70
f 63/63/63 70/70/70 69/69/69
f 65/65/65 66/66/66 71/71/71
f 65/65/65 71/71/71 70/70/70
f 66/66/66 72/72/72 71/71/71
f 67/67/67 73/73/73 68/68/68
f 68/68/68 73/73/73 74/74/74
f 69/69/69 75/75/75 67/67/67
f 67/67/67 75/75/75 73/73/73
f 70/70/70 76/76/76 69/69/69
f 70/70/70 71/71/71 76/76/76
f 69/69/69 76/76/76 75/75/75
f 71/71/71 72/72/72 77/77/77
f 71/71/71 77/77/77 76/76/76
f 72/72/72 78/78/78 77/77/77
f 73/73/73 79/79/79 74/74/74
f 74/74/74 79/79/79 80/80/80
f 75/75/75 81/81/81 73/73/73
f 73/73/73 81/81/81 79/79/79
f 76/76/76 82/82/82 75/75/75
f 76/76/76 77/77/77 82/82/82
f 75/75/75 82/82/82 81/81/81
f 77/77/77 78/78/78 83/83/83
f 77/77/77 83/83/83 82/82/82
f 78/78/78 84/84/84 83/83/83
f 79/79/79 85/85/85 80/80/80
f 80/80/80 85/85/85 86/86/86
f 81/81/81 87/87/87 79/79/79
f 79/79/79 87/87/87 85/85/85
f 82/82/82 88/88/88 81/81/81
f 82/82/82 83/83/83 88/88/88
f 81/81/81 88/88/88 87/87/87
f 83/83/83 84/84/84 89/89/89
f 83/83/83 89/89/89 88/88/88
f 84/84/84 90/90/90 89/89/89
f 85/85/85 91/91/91 86/86/86
f 86/86/86 91/91/91 92/92/92
f 87/87/87 93/93/93 85/85/85
f 85/85/85 93/93/93 91/91/91
f 88/88/88 94/94/94 87/87/87
f 88/88/88 89/89/89 94/94/94
f 87/87/87 94/94/94 93/93/93
f 89/89/89 90/90/90 95/95/95
f 89/89/89 95/95/95 94/94/94
f 90/90/90 96/96/96 95/95/95
f 91/91/91 97/97/97 92/92/92
f 92/92/92 97/97/97 98/98/98
f 93/93/93 99/99/99 91/91/91
f 91/91/91 99/99/99 97/97/97
f 94/94/94 100/100/100 93/93/93
f 94/94/94 95/95/95 100/100/100
f 93/93/93 100/100/100 99/99/99
f 95/95/95 96/96/96 101/101/101
f 95/95/95 101/101/101 100/100/100
f 96/96/96 102/102/102 101/101/101
f 97/97/97 103/103/103 98/98/98
f 98/98/98 103/103/103 104/104/104
f 99/99/99 105/105/105 97/97/97
f 97/97/97 105/105/105 103/103/103
f 100/100/100 106/106/106 99/99/99
f 100/100/100 101/101/101 106/106/106
f 99/99/99 106/106/106 105/105/105
f 101/101/101 102/102/102 107/107/107
f 101/101/101 107/107/107 106/106/106
f 102/102/102 108/108/108 107/107/107
f 103/103/103 109/109/109 104/104/104
f 104/104/104 109/109/109 110/110/110
f 105/105/105 111/111/111 103/103/103
f 103/103/103 111/111/111 109/109/109
f 106/106/106 112/112/112 105/105/105
f 106/106/106 107/107/107 112/112/112
f 105/105/105 112/112/112 111/111/111
f 107/107/107 108/108/108 113/113/113
f 107/107/107 113/113/113 112/112/112
f 108/108/108 114/114/114 113/113/113
f 109/109/109 115/115/115 110/110/110
f 110/110/110 115/115/115 116/116/116
f 111/111/111 117/117/117 109/109/109
f 109/109/109 117/117/117 115/115/115
f 112/112/112 118/118/118 111/111/111
f 112/112/112 113/113/113 118/118/118
f 111/111/111 118/118/118 117/117/117
f 113/113/113 114/114/114 119/119/119
f 113/113/113 119/119/119 118/118/118
f 114/114/114 120/120/120 119/119/119
f 115/115/115 121/121/121 116/116/116
f 116/116/116 121/121/121 122/122/122
f 117/117/117 123/123/123 115/115/115
f 115/115/115 123/123/123 121/121/121
f 118/118/118 124/124/124 117/117/117
f 118/118/118 119/119/119 124/124/124
f 117/117/117 124/124/124 123/123/123
f 119/119/119 120/120/120 125/125/125
f 119/119/119 125/125/125 124/124/124
f 120/120/120 126/126/126 125/125/125
f 121/121/121 127/127/127 122/122/122
f 122/122/122 127/127/127 128/128/128
f 123/123/123 129/129/129 121/121/121
f 121/121/121 129/129/129 127/127/127
f 124/124/124 130/130/130 123/123/123
f 124/124/124 125/125/125 130/130/130
f 123/123/123 130/130/130 129/129/129
f 125/125/125 126/126/126 131/131/131
f 125/125/125 131/131/131 130/130/130
f 126/126/126 132/132/132 131/131/131
f 127/127/127 133/133/133 128/128/128
f 128/128/128 133/133/133 134/134/134
f 133/133/133 135/135/135 134/134/134
f 129/129/129 136/136/136 127/127/127
f 127/127/127 136/136/136 133/133/133
f 130/130/130 137/137/137 129/129/129
f 130/130/130 131/131/131 137/137/137
f 129/129/129 137/137/137 136/136/136
f 131/131/131 132/132/132 138/138/138
f 131/131/131 138/138/138 137/137/137
f 132/132/132 139/139/139 138/138/138
f 133/133/133 140/140/140 135/135/135
f 136/136/136 140/140/140 133/133/133
f 140/140/140 141/141/141 135/135/135
f 137/137/137 142/142/142 136/136/136
f 137/137/137 138/138/138 142/142/142
f 136/136/136 142/142/142 140/140/140
f 138/138/138 139/139/139 143/143/143
f 138/138/138 143/143/143 142/142/142
f 139/139/139 144/144/144 143/143/143
f 140/140/140 145/145/145 141/141/141
f 142/142/142 145/145/145 140/140/140
f 142/142/142 143/143/143 145/145/145
f 145/145/145 146/146/146 141/141/141
f 143/143/143 144/144/144 147/147/147
f 143/143/143 147/147/147 145/145/145
f 145/145/145 147/147/147 146/146/146
f 144/144/144 148/148/148 147/147/147
f 147/147/147 149/149/149 146/146/146
f 147/147/147 148/148/148 149/149/149
f 148/148/148 150/150/150 149/149/149
