g Plane007
v 0.0116768619 -0.102286495 -3.8245962E-11
v 0.0197819397 -0.0892438591 -7.78479226E-11
v 0.0211744774 -0.101107359 -8.9787594E-11
v 0.0102694305 -0.0902961418 -3.18516429E-11
v 0.00217924453 -0.103465624 1.32956762E-11
v 0.0185478535 -0.0773628131 -6.66756303E-11
v 0.000756922469 -0.0913484097 1.4144917E-11
v -0.00731837284 -0.10464476 6.48378851E-11
v -0.00875558518 -0.0924006924 6.01411906E-11
v 0.00902214926 -0.0782880411 -2.62326705E-11
v 0.0174724478 -0.0654663816 -5.61757967E-11
v -0.000503555581 -0.0792132691 1.42102875E-11
v -0.010029261 -0.0801384971 5.46532472E-11
v 0.00793524366 -0.0662643909 -2.12935468E-11
v 0.0165559109 -0.0535566397 -4.62574735E-11
v -0.00160196156 -0.0670624003 1.35884203E-11
v -0.0111391656 -0.0678604096 4.84706719E-11
v 0.00700890413 -0.0542273 -1.6942182E-11
v 0.015798403 -0.0416357368 -3.68274335E-11
v -0.00253810151 -0.0548979528 1.23728233E-11
v -0.0120851072 -0.0555686019 4.16881148E-11
v 0.00624329736 -0.042178914 -1.30843609E-11
v 0.0152000645 -0.0297057796 -2.77930231E-11
v -0.00331180892 -0.0427220911 1.06585678E-11
v -0.0128669152 -0.0432652682 3.44016413E-11
v 0.00563855935 -0.0301213842 -9.62643333E-12
v 0.0150636565 -0.0172245279 -1.90610912E-11
v -0.00392294535 -0.0305369906 8.54029781E-12
v -0.0134844491 -0.0309525933 2.67070289E-11
v 0.00551505527 -0.0178720634 -6.47403962E-12
v 0.0143350083 -0.00530181918 -1.05387704E-11
v -0.0040335455 -0.0185196083 6.11294175E-12
v -0.0135821467 -0.0191671439 1.86999236E-11
v 0.0047786166 -0.00582186738 -3.53367119E-12
v 0.0137655502 0.00662955316 -2.13327142E-12
v -0.00477777654 -0.00634191092 3.47142779E-12
v -0.0143341711 -0.006861954 1.04765979E-11
v 0.00420306809 0.00623709476 -7.11253322E-13
v 0.0162147004 0.0189279672 6.24854899E-12
v -0.00535941403 0.00584463635 7.10747054E-13
v -0.0149218971 0.00545218028 2.13276532E-12
v 0.00665726373 0.0184274539 2.08718394E-12
v 0.0180311725 0.0317256525 1.46998507E-11
v 0.00850299094 0.0308262892 4.95575152E-12
v -0.00290017319 0.0179269463 -2.07418089E-12
v 0.0178686306 0.0441267341 2.33133356E-11
v -0.00102519069 0.029926924 -4.78827698E-12
v -0.012457611 0.0174264442 -6.23554593E-12
v -0.010553373 0.0290275626 -1.4532305E-11
v 0.00835726596 0.0430641696 7.9883487E-12
v 0.0181903932 0.0565100983 3.21817607E-11
v -0.00115410064 0.0420016311 -7.33663911E-12
v -0.0106654679 0.0409390777 -2.26614838E-11
v 0.00869863946 0.0552846752 1.12787297E-11
v 0.0173581913 0.0689934418 4.13987802E-11
v -0.000793117913 0.0540592596 -9.62430222E-12
v -0.0102848709 0.0528338216 -3.05273341E-11
v 0.0078999158 0.0675319061 1.49213992E-11
v 0.0163356513 0.0820491388 5.10570475E-11
v -0.00155836053 0.0660703629 -1.15562681E-11
v -0.0110166389 0.0646088198 -3.80339336E-11
v 0.00698897196 0.0799913257 1.90098614E-11
v 0.0139445504 0.0942786857 6.12485063E-11
v -0.00235771085 0.0779334977 -1.30376075E-11
v -0.0117043853 0.0758756623 -4.5084509E-11
v 0.00464634504 0.0920118466 2.36374843E-11
v 0.0110792499 0.106362075 7.20675117E-11
v 0.00182736025 0.103913076 2.88989128E-11
v -0.00465186639 0.0897450671 -1.39738186E-11
v -0.013950076 0.0874782801 -5.15848371E-11
v -0.00742453383 0.101464078 -1.42696887E-11
v -0.0166764315 0.0990150794 -5.74382902E-11
v -0.0149218971 0.00545218028 2.13276532E-12
v -0.012457611 0.0174264442 -6.23554593E-12
v -0.00290017319 0.0179269463 -2.07418089E-12
v -0.00535941403 0.00584463635 7.10747054E-13
v 0.00665726373 0.0184274539 2.08718394E-12
v 0.00420306809 0.00623709476 -7.11253322E-13
vt 0.666666687 0
vt 1.03080201 0.0771525055
vt 1 0
vt 0.707809329 0.0202001929
vt 0.344049484 0
vt 1.00460446 0.148586333
vt 0.341370463 0.0588235296
vt 0.0107161263 0
vt 0.00267903227 0.0588235296
vt 0.70318377 0.0927173495
vt 0.986604869 0.192544788
vt 0.327975273 0.128363177
vt -0.0321483761 0.131042212
vt 0.655950665 0.171112537
vt 1.00803709 0.235294119
vt 0.301184893 0.168433502
vt -0.0348274112 0.189865753
vt 0.730963469 0.235294119
vt 0.98928386 0.291438639
vt 0.384234875 0.235294119
vt -0.00535806362 0.235294119
vt 0.730963469 0.31019184
vt 0.981246769 0.350262165
vt 0.400309116 0.30215472
vt -0.00803709496 0.283401519
vt 0.663987696 0.334187955
vt 1.00267899 0.39033246
vt 0.317259163 0.363657266
vt -0.0321483761 0.379731476
vt 0.768469989 0.3769373
vt 1.03214836 0.443797916
vt 0.373518825 0.441234052
vt -0.0562596619 0.454629213
vt 0.78990221 0.460354865
vt 1.02946937 0.524053752
vt 0.384294719 0.494699508
vt -0.0375064388 0.475946307
vt 0.704173148 0.537448883
vt 1 0.588235319
vt 0.341370434 0.542806923
vt 0 0.529411793
vt 0.693456948 0.521259487
vt 1.0053581 0.609552383
vt 0.645234406 0.569366872
vt 0.365481734 0.467678875
vt 1.05625963 0.630869448
vt 0.311901122 0.585441053
vt 0.00535806548 0.534654677
vt 0.00535806548 0.625626564
vt 0.696136057 0.708561361
vt 1.08840787 0.695051074
vt 0.298505962 0.815722644
vt -0.00803709403 0.738030732
vt 0.774689078 0.668440282
vt 1.05893862 0.791381061
vt 0.382041693 0.873663306
vt -0.00803709403 0.764705896
vt 0.757508695 0.754397929
vt 1.03750646 0.882352948
vt 0.367160082 0.904690146
vt -0.0160741881 0.807455242
vt 0.701494157 0.898427129
vt 1.01607418 0.941176474
vt 0.317259163 0.868957818
vt -0.0133951567 0.852883637
vt 0.669345737 0.941176474
vt 1 1
vt 0.666666687 1
vt 0.322617203 0.927781343
vt 0.00267903158 0.927781343
vt 0.333333343 1
vt 0 1
vt 0 0.529411793
vt 0.00535806548 0.534654677
vt 0.365481734 0.467678875
vt 0.341370434 0.542806923
vt 0.693456948 0.521259487
vt 0.704173148 0.537448883
vn -0 0 1
vn -0 0 1
vn -0 0 1
vn -0 0 1
vn -0 0 1
vn -0 0 1
vn -0 0 1
vn -0 0 1
vn -0 0 1
vn -0 0 1
vn -0 0 1
vn -0 0 1
vn -0 0 1
vn -0 0 1
vn -0 0 1
vn -0 0 1
vn -0 0 1
vn -0 0 1
vn -0 0 1
vn -0 0 1
vn -0 0 1
vn -0 0 1
vn -0 0 1
vn -0 0 1
vn -0 0 1
vn -0 0 1
vn -0 0 1
vn -0 0 1
vn -0 0 1
vn -0 0 1
vn -0 0 1
vn -0 0 1
vn -0 0 1
vn -0 0 1
vn -0 0 1
vn -0 0 1
vn -0 0 1
vn -0 0 1
vn -0 0 1
vn -0 0 1
vn -0 0 1
vn -0 0 1
vn -0 0 1
vn -0 0 1
vn -0 0 1
vn -0 0 1
vn -0 0 1
vn -0 0 1
vn -0 0 1
vn -0 0 1
vn -0 0 1
vn -0 0 1
vn -0 0 1
vn -0 0 1
vn -0 0 1
vn -0 0 1
vn -0 0 1
vn -0 0 1
vn -0 0 1
vn -0 0 1
vn -0 0 1
vn -0 0 1
vn -0 0 1
vn -0 0 1
vn -0 0 1
vn -0 0 1
vn -0 0 1
vn -0 0 1
vn -0 0 1
vn -0 0 1
vn -0 0 1
vn -0 0 1
vn -0 0 1
vn -0 0 1
vn -0 0 1
vn -0 0 1
vn -0 0 1
vn -0 0 1
g Plane007_0
f 3/3/3 2/2/2 1/1/1
f 2/2/2 4/4/4 1/1/1
f 1/1/1 4/4/4 5/5/5
f 2/2/2 6/6/6 4/4/4
f 4/4/4 7/7/7 5/5/5
f 5/5/5 7/7/7 8/8/8
f 7/7/7 9/9/9 8/8/8
f 6/6/6 10/10/10 4/4/4
f 4/4/4 10/10/10 7/7/7
f 6/6/6 11/11/11 10/10/10
f 7/7/7 12/12/12 9/9/9
f 10/10/10 12/12/12 7/7/7
f 12/12/12 13/13/13 9/9/9
f 11/11/11 14/14/14 10/10/10
f 10/10/10 14/14/14 12/12/12
f 11/11/11 15/15/15 14/14/14
f 12/12/12 16/16/16 13/13/13
f 14/14/14 16/16/16 12/12/12
f 16/16/16 17/17/17 13/13/13
f 15/15/15 18/18/18 14/14/14
f 14/14/14 18/18/18 16/16/16
f 15/15/15 19/19/19 18/18/18
f 16/16/16 20/20/20 17/17/17
f 18/18/18 20/20/20 16/16/16
f 20/20/20 21/21/21 17/17/17
f 19/19/19 22/22/22 18/18/18
f 18/18/18 22/22/22 20/20/20
f 19/19/19 23/23/23 22/22/22
f 20/20/20 24/24/24 21/21/21
f 22/22/22 24/24/24 20/20/20
f 24/24/24 25/25/25 21/21/21
f 23/23/23 26/26/26 22/22/22
f 22/22/22 26/26/26 24/24/24
f 23/23/23 27/27/27 26/26/26
f 24/24/24 28/28/28 25/25/25
f 26/26/26 28/28/28 24/24/24
f 28/28/28 29/29/29 25/25/25
f 27/27/27 30/30/30 26/26/26
f 26/26/26 30/30/30 28/28/28
f 27/27/27 31/31/31 30/30/30
f 28/28/28 32/32/32 29/29/29
f 30/30/30 32/32/32 28/28/28
f 32/32/32 33/33/33 29/29/29
f 31/31/31 34/34/34 30/30/30
f 30/30/30 34/34/34 32/32/32
f 31/31/31 35/35/35 34/34/34
f 32/32/32 36/36/36 33/33/33
f 34/34/34 36/36/36 32/32/32
f 36/36/36 37/37/37 33/33/33
f 35/35/35 38/38/38 34/34/34
f 34/34/34 38/38/38 36/36/36
f 35/35/35 39/39/39 38/38/38
f 36/36/36 40/40/40 37/37/37
f 38/38/38 40/40/40 36/36/36
f 40/40/40 41/41/41 37/37/37
f 39/39/39 42/42/42 38/38/38
f 39/39/39 43/43/43 42/42/42
f 43/43/43 44/44/44 42/42/42
f 42/42/42 44/44/44 45/45/45
f 43/43/43 46/46/46 44/44/44
f 44/44/44 47/47/47 45/45/45
f 45/45/45 47/47/47 48/48/48
f 47/47/47 49/49/49 48/48/48
f 46/46/46 50/50/50 44/44/44
f 44/44/44 50/50/50 47/47/47
f 46/46/46 51/51/51 50/50/50
f 47/47/47 52/52/52 49/49/49
f 50/50/50 52/52/52 47/47/47
f 52/52/52 53/53/53 49/49/49
f 51/51/51 54/54/54 50/50/50
f 50/50/50 54/54/54 52/52/52
f 51/51/51 55/55/55 54/54/54
f 52/52/52 56/56/56 53/53/53
f 54/54/54 56/56/56 52/52/52
f 56/56/56 57/57/57 53/53/53
f 55/55/55 58/58/58 54/54/54
f 54/54/54 58/58/58 56/56/56
f 55/55/55 59/59/59 58/58/58
f 56/56/56 60/60/60 57/57/57
f 58/58/58 60/60/60 56/56/56
f 60/60/60 61/61/61 57/57/57
f 59/59/59 62/62/62 58/58/58
f 58/58/58 62/62/62 60/60/60
f 59/59/59 63/63/63 62/62/62
f 60/60/60 64/64/64 61/61/61
f 62/62/62 64/64/64 60/60/60
f 64/64/64 65/65/65 61/61/61
f 63/63/63 66/66/66 62/62/62
f 62/62/62 66/66/66 64/64/64
f 63/63/63 67/67/67 66/66/66
f 67/67/67 68/68/68 66/66/66
f 64/64/64 69/69/69 65/65/65
f 66/66/66 69/69/69 64/64/64
f 66/66/66 68/68/68 69/69/69
f 69/69/69 70/70/70 65/65/65
f 68/68/68 71/71/71 69/69/69
f 69/69/69 71/71/71 70/70/70
f 71/71/71 72/72/72 70/70/70
f 75/75/75 74/74/74 73/73/73
f 76/76/76 75/75/75 73/73/73
f 77/77/77 75/75/75 76/76/76
f 78/78/78 77/77/77 76/76/76
