g Cone001
v -2.69614702E-07 0.579925954 0
v 0.120847367 0.451009482 -0.0176923983
v 0.150095582 0.560165524 0
v -2.17076519E-07 0.466919303 -0.0176923983
v -0.150096104 0.560165346 0
v 0.0915991589 0.34185344 -0.0353847966
v -0.120847791 0.451009393 -0.0176923983
v -0.289963126 0.502230465 0
v -1.64538349E-07 0.353912681 -0.0353847966
v 0.0623509362 0.232697323 -0.0530771986
v -0.2334598 0.4043639 -0.0176923983
v -0.410069793 0.410069346 0
v -0.0915994793 0.34185335 -0.0353847966
v -1.12000151E-07 0.240905985 -0.0530771986
v 0.0331027247 0.123541296 -0.0707695931
v -0.330162019 0.330161661 -0.0176923983
v -0.502230704 0.289962739 0
v -0.176956445 0.306497306 -0.0353847966
v -0.0623511486 0.232697278 -0.0530771986
v -5.94619785E-08 0.127899349 -0.0707695931
v 0.003854512 0.0143852634 -0.0884619951
v -6.92380819E-09 0.0148927197 -0.0884619951
v -0.0331028365 0.123541273 -0.0707695931
v -0.00385452528 0.0143852606 -0.0884619951
v -0.404364109 0.233459458 -0.0176923983
v -0.560165524 0.150095627 0
v -0.250254184 0.250253916 -0.0353847966
v -0.12045306 0.208630651 -0.0530771986
v -0.0639497116 0.110764056 -0.0707695931
v -0.0074463645 0.01289747 -0.0884619951
v -0.451009482 0.120847419 -0.0176923983
v -0.579925954 -2.25831499E-07 0
v -0.306497455 0.176956192 -0.0353847966
v -0.170346349 0.170346171 -0.0530771986
v -0.0904385522 0.0904384553 -0.0707695931
v -0.0105307493 0.0105307372 -0.0884619951
v -0.466919303 -1.81825087E-07 -0.0176923983
v -0.560165405 -0.150096074 0
v -0.34185344 0.0915991887 -0.0353847966
v -0.208630741 0.120452896 -0.0530771986
v -0.110764116 0.0639496222 -0.0707695931
v -0.0128974775 0.00744635379 -0.0884619951
v -0.451009393 -0.120847754 -0.0176923983
v -0.502230525 -0.289963126 0
v -0.353912681 -1.37818674E-07 -0.0353847966
v -0.232697323 0.0623509549 -0.0530771986
v -0.123541296 0.0331027322 -0.0707695931
v -0.0143852634 0.00385451317 -0.0884619951
v -0.40436393 -0.233459771 -0.0176923983
v -0.410069436 -0.410069644 0
v -0.34185335 -0.0915994495 -0.0353847966
v -0.240905985 -9.38122469E-08 -0.0530771986
v -0.127899349 -4.98058448E-08 -0.0707695931
v -0.0148927197 -5.79943871E-09 -0.0884619951
v -0.330161721 -0.330161899 -0.0176923983
v -0.289962858 -0.502230644 0
v -0.306497335 -0.176956415 -0.0353847966
v -0.232697293 -0.0623511337 -0.0530771986
v -0.123541273 -0.033102829 -0.0707695931
v -0.0143852625 -0.00385452458 -0.0884619951
v -0.233459577 -0.40436402 -0.0176923983
v -0.150095806 -0.560165465 0
v -0.250253975 -0.250254095 -0.0353847966
v -0.208630681 -0.120453052 -0.0530771986
v -0.110764071 -0.0639497042 -0.0707695931
v -0.0128974719 -0.00744636357 -0.0884619951
v -0.120847553 -0.451009423 -0.0176923983
v 4.37831922E-08 -0.579925954 0
v -0.176956281 -0.306497395 -0.0353847966
v -0.1703462 -0.170346305 -0.0530771986
v -0.0904384702 -0.0904385224 -0.0707695931
v -0.01053074 -0.0105307456 -0.0884619951
v 3.52514284E-08 -0.466919303 -0.0176923983
v 0.15009588 -0.560165405 0
v -0.0915992931 -0.34185341 -0.0353847966
v -0.120452955 -0.208630726 -0.0530771986
v -0.0639496595 -0.110764094 -0.0707695931
v -0.00744635751 -0.0128974747 -0.0884619951
v 0.120847628 -0.451009423 -0.0176923983
v 0.289962947 -0.502230644 0
v 2.67196647E-08 -0.353912681 -0.0353847966
v -0.0623510256 -0.232697323 -0.0530771986
v -0.0331027731 -0.123541296 -0.0707695931
v -0.00385451759 -0.0143852634 -0.0884619951
v 0.233459637 -0.40436399 -0.0176923983
v 0.410069525 -0.410069525 0
v 0.0915993527 -0.34185338 -0.0353847966
v 1.81878956E-08 -0.240905985 -0.0530771986
v 9.65613278E-09 -0.127899349 -0.0707695931
v 1.12436904E-09 -0.0148927197 -0.0884619951
v 0.33016181 -0.33016181 -0.0176923983
v 0.502230585 -0.289962977 0
v 0.176956326 -0.306497365 -0.0353847966
v 0.0623510629 -0.232697293 -0.0530771986
v 0.0331027918 -0.123541281 -0.0707695931
v 0.00385451992 -0.0143852625 -0.0884619951
v 0.40436399 -0.233459651 -0.0176923983
v 0.560165405 -0.15009588 0
v 0.250254065 -0.250254065 -0.0353847966
v 0.120452978 -0.208630696 -0.0530771986
v 0.0639496669 -0.110764094 -0.0707695931
v 0.00744635891 -0.0128974747 -0.0884619951
v 0.451009423 -0.120847613 -0.0176923983
v 0.579925954 0 0
v 0.306497335 -0.176956341 -0.0353847966
v 0.170346245 -0.170346245 -0.0530771986
v 0.0904384926 -0.0904384926 -0.0707695931
v 0.0105307428 -0.0105307428 -0.0884619951
v 0.466919303 0 -0.0176923983
v 0.560165346 0.150096282 0
v 0.34185338 -0.0915993378 -0.0353847966
v 0.208630696 -0.120452993 -0.0530771986
v 0.110764086 -0.0639496744 -0.0707695931
v 0.0128974728 -0.00744635984 -0.0884619951
v 0.451009333 0.12084794 -0.0176923983
v 0.502230406 0.289963305 0
v 0.353912681 0 -0.0353847966
v 0.232697293 -0.0623510554 -0.0530771986
v 0.123541281 -0.033102788 -0.0707695931
v 0.0143852625 -0.00385451945 -0.0884619951
v 0.404363841 0.23345992 -0.0176923983
v 0.410069287 0.410069823 0
v 0.341853321 0.0915995911 -0.0353847966
v 0.240905985 0 -0.0530771986
v 0.127899349 0 -0.0707695931
v 0.0148927197 0 -0.0884619951
v 0.330161601 0.330162048 -0.0176923983
v 0.289962679 0.502230763 0
v 0.306497246 0.176956534 -0.0353847966
v 0.232697248 0.0623512268 -0.0530771986
v 0.123541258 0.0331028774 -0.0707695931
v 0.0143852588 0.00385453016 -0.0884619951
v 0.233459413 0.404364109 -0.0176923983
v 0.150095582 0.560165524 0
v 0.120847367 0.451009482 -0.0176923983
v 0.250253916 0.250254214 -0.0353847966
v 0.208630621 0.120453134 -0.0530771986
v 0.110764049 0.0639497563 -0.0707695931
v 0.0128974682 0.00744636869 -0.0884619951
v 0.176956147 0.306497484 -0.0353847966
v 0.0915991589 0.34185344 -0.0353847966
v 0.170346156 0.170346364 -0.0530771986
v 0.0904384404 0.0904385522 -0.0707695931
v 0.0105307363 0.0105307503 -0.0884619951
v 0.120452866 0.20863077 -0.0530771986
v 0.0623509362 0.232697323 -0.0530771986
v 0.0639496073 0.110764116 -0.0707695931
v 0.00744635239 0.0128974775 -0.0884619951
v 0.0331027247 0.123541296 -0.0707695931
v 0.003854512 0.0143852634 -0.0884619951
vt 7.58909877E-08 0
vt -0.0416665673 0.199999988
vt -0.0416665673 0
vt 7.58909877E-08 0.199999988
vt 0.0416667312 0
vt -0.0416665673 0.400000006
vt 0.0416667312 0.199999988
vt 0.0833334252 0
vt 1.13836485E-07 0.400000006
vt -0.0416665673 0.600000024
vt 0.0833334252 0.199999988
vt 0.125000119 0
vt 0.0416667312 0.400000006
vt 1.13836485E-07 0.600000024
vt -0.0416665673 0.800000012
vt 0.125000089 0.199999988
vt 0.166666746 0
vt 0.0833334252 0.400000006
vt 0.0416667312 0.600000024
vt 7.58909877E-08 0.800000012
vt -0.0416665673 1
vt 7.58909877E-08 1
vt 0.0416667312 0.800000012
vt 0.0416667312 1
vt 0.166666746 0.199999988
vt 0.208333418 0
vt 0.125000119 0.400000006
vt 0.083333388 0.600000024
vt 0.0833334252 0.800000012
vt 0.0833334252 1
vt 0.208333418 0.199999988
vt 0.250000089 0
vt 0.166666746 0.400000006
vt 0.125000089 0.600000024
vt 0.125000089 0.800000012
vt 0.125000089 1
vt 0.250000089 0.199999988
vt 0.291666746 0
vt 0.208333418 0.400000006
vt 0.166666746 0.600000024
vt 0.166666746 0.800000012
vt 0.166666746 1
vt 0.291666746 0.199999988
vt 0.333333403 0
vt 0.250000089 0.400000006
vt 0.208333418 0.600000024
vt 0.208333418 0.800000012
vt 0.208333418 1
vt 0.333333403 0.199999988
vt 0.37500006 0
vt 0.291666746 0.400000006
vt 0.250000089 0.600000024
vt 0.250000089 0.800000012
vt 0.250000089 1
vt 0.37500006 0.199999988
vt 0.416666716 0
vt 0.333333403 0.400000006
vt 0.291666746 0.600000024
vt 0.291666746 0.800000012
vt 0.291666746 1
vt 0.416666716 0.199999988
vt 0.458333373 0
vt 0.37500006 0.400000006
vt 0.333333403 0.600000024
vt 0.333333403 0.800000012
vt 0.333333403 1
vt 0.458333373 0.199999988
vt 0.50000006 0
vt 0.416666716 0.400000006
vt 0.37500006 0.600000024
vt 0.37500006 0.800000012
vt 0.37500006 1
vt 0.5 0.199999988
vt 0.541666687 0
vt 0.458333373 0.400000006
vt 0.416666716 0.600000024
vt 0.416666716 0.800000012
vt 0.416666716 1
vt 0.541666687 0.199999988
vt 0.583333313 0
vt 0.50000006 0.400000006
vt 0.458333373 0.600000024
vt 0.458333373 0.800000012
vt 0.458333373 1
vt 0.583333313 0.199999988
vt 0.625 0
vt 0.541666687 0.400000006
vt 0.50000006 0.600000024
vt 0.50000006 0.800000012
vt 0.50000006 1
vt 0.625 0.199999988
vt 0.666666687 0
vt 0.583333373 0.400000006
vt 0.541666687 0.600000024
vt 0.541666687 0.800000012
vt 0.541666687 1
vt 0.666666687 0.199999988
vt 0.708333313 0
vt 0.625 0.400000006
vt 0.583333313 0.600000024
vt 0.583333313 0.800000012
vt 0.583333313 1
vt 0.708333313 0.199999988
vt 0.75 0
vt 0.666666687 0.400000006
vt 0.625 0.600000024
vt 0.625 0.800000012
vt 0.625 1
vt 0.75 0.199999988
vt 0.791666806 0
vt 0.708333313 0.400000006
vt 0.666666687 0.600000024
vt 0.666666687 0.800000012
vt 0.666666687 1
vt 0.791666806 0.199999988
vt 0.833333433 0
vt 0.75 0.400000006
vt 0.708333313 0.600000024
vt 0.708333313 0.800000012
vt 0.708333313 1
vt 0.833333433 0.199999988
vt 0.875000119 0
vt 0.791666806 0.400000006
vt 0.75 0.600000024
vt 0.75 0.800000012
vt 0.75 1
vt 0.875000119 0.199999988
vt 0.916666746 0
vt 0.833333433 0.400000006
vt 0.791666806 0.600000024
vt 0.791666806 0.800000012
vt 0.791666806 1
vt 0.916666746 0.199999988
vt 0.958333433 0
vt 0.958333433 0.199999988
vt 0.875000119 0.400000006
vt 0.833333433 0.600000024
vt 0.833333433 0.800000012
vt 0.833333433 1
vt 0.916666746 0.400000006
vt 0.958333433 0.400000006
vt 0.875 0.600000024
vt 0.875000119 0.800000012
vt 0.875 1
vt 0.916666746 0.600000024
vt 0.958333433 0.600000024
vt 0.916666746 0.800000012
vt 0.916666746 1
vt 0.958333433 0.800000012
vt 0.958333433 1
vn -0 0.154676557 -0.987965226
vn 0.0400331542 0.14940609 -0.987965226
vn 0.0400331542 0.149406105 -0.987965226
vn -0 0.154676542 -0.987965226
vn -0.0400333144 0.149406105 -0.987965226
vn 0.0400331542 0.149406046 -0.987965226
vn -0.0400332995 0.149406061 -0.987965226
vn -0.0773383453 0.13395384 -0.987965226
vn -0 0.154676482 -0.987965226
vn 0.0400331467 0.149406061 -0.987965226
vn -0.0773383304 0.133953795 -0.987965226
vn -0.109372906 0.109372787 -0.987965226
vn -0.0400332883 0.149406001 -0.987965226
vn -0 0.154676482 -0.987965226
vn 0.0400331579 0.14940612 -0.987965226
vn -0.109372884 0.10937278 -0.987965226
vn -0.133953884 0.0773382038 -0.987965226
vn -0.0773382857 0.133953765 -0.987965226
vn -0.040033292 0.149406001 -0.987965226
vn -0 0.154676527 -0.987965226
vn 0.0400331579 0.149406075 -0.987965226
vn -0 0.154676542 -0.987965226
vn -0.0400333069 0.149406061 -0.987965226
vn -0.0400333032 0.149406046 -0.987965226
vn -0.133953869 0.0773382112 -0.987965226
vn -0.14940609 0.0400331691 -0.987965226
vn -0.109372847 0.109372735 -0.987965226
vn -0.0773382932 0.133953765 -0.987965226
vn -0.0773383155 0.13395381 -0.987965226
vn -0.0773383081 0.13395381 -0.987965226
vn -0.149406075 0.0400331765 -0.987965226
vn -0.154676527 0 -0.987965226
vn -0.13395381 0.077338174 -0.987965226
vn -0.109372854 0.109372757 -0.987965226
vn -0.109372884 0.10937278 -0.987965226
vn -0.109372862 0.109372772 -0.987965226
vn -0.154676527 0 -0.987965226
vn -0.149406031 -0.0400332734 -0.987965226
vn -0.149406046 0.0400331654 -0.987965226
vn -0.13395384 0.077338174 -0.987965226
vn -0.133953869 0.077338174 -0.987965226
vn -0.133953854 0.0773381516 -0.987965226
vn -0.149406046 -0.0400332771 -0.987965226
vn -0.13395378 -0.0773383155 -0.987965226
vn -0.154676497 0 -0.987965226
vn -0.149406061 0.0400331654 -0.987965226
vn -0.149406075 0.0400331616 -0.987965226
vn -0.149406075 0.0400331467 -0.987965226
vn -0.133953795 -0.0773383155 -0.987965226
vn -0.109372817 -0.109372906 -0.987965226
vn -0.149406016 -0.0400332771 -0.987965226
vn -0.154676497 0 -0.987965226
vn -0.154676557 0 -0.987965226
vn -0.154676557 0 -0.987965226
vn -0.10937281 -0.109372869 -0.987965226
vn -0.0773382634 -0.13395384 -0.987965226
vn -0.133953765 -0.0773382932 -0.987965226
vn -0.149406016 -0.0400332697 -0.987965226
vn -0.149406061 -0.0400332734 -0.987965226
vn -0.149406075 -0.0400332771 -0.987965226
vn -0.0773382485 -0.13395384 -0.987965226
vn -0.0400332175 -0.149406046 -0.987965226
vn -0.109372772 -0.109372824 -0.987965226
vn -0.133953765 -0.0773383081 -0.987965226
vn -0.133953795 -0.0773383081 -0.987965226
vn -0.13395381 -0.0773383155 -0.987965226
vn -0.0400332212 -0.149406046 -0.987965226
vn -0 -0.154676542 -0.987965226
vn -0.0773382336 -0.13395381 -0.987965226
vn -0.109372772 -0.109372832 -0.987965226
vn -0.10937281 -0.109372854 -0.987965226
vn -0.109372795 -0.109372862 -0.987965226
vn -0 -0.154676527 -0.987965226
vn 0.0400332399 -0.149406105 -0.987965226
vn -0.0400332063 -0.149406046 -0.987965226
vn -0.077338241 -0.13395381 -0.987965226
vn -0.0773382634 -0.13395381 -0.987965226
vn -0.0773382634 -0.13395381 -0.987965226
vn 0.0400332361 -0.149406061 -0.987965226
vn 0.0773382708 -0.133953825 -0.987965226
vn -0 -0.154676497 -0.987965226
vn -0.0400332101 -0.149406046 -0.987965226
vn -0.0400332212 -0.149406061 -0.987965226
vn -0.0400332287 -0.149406061 -0.987965226
vn 0.0773382783 -0.13395381 -0.987965226
vn 0.109372847 -0.109372817 -0.987965226
vn 0.040033225 -0.149406001 -0.987965226
vn -0 -0.154676482 -0.987965226
vn -0 -0.154676557 -0.987965226
vn -0 -0.154676527 -0.987965226
vn 0.109372847 -0.109372847 -0.987965226
vn 0.133953825 -0.0773382783 -0.987965226
vn 0.077338241 -0.133953795 -0.987965226
vn 0.0400332287 -0.149406016 -0.987965226
vn 0.0400332287 -0.149406061 -0.987965226
vn 0.0400332287 -0.149406075 -0.987965226
vn 0.13395381 -0.0773382783 -0.987965226
vn 0.14940612 -0.0400332436 -0.987965226
vn 0.10937281 -0.10937281 -0.987965226
vn 0.077338241 -0.133953795 -0.987965226
vn 0.0773382708 -0.133953795 -0.987965226
vn 0.0773382783 -0.13395381 -0.987965226
vn 0.149406075 -0.0400332399 -0.987965226
vn 0.154676557 0 -0.987965226
vn 0.133953795 -0.0773382485 -0.987965226
vn 0.10937281 -0.10937281 -0.987965226
vn 0.109372847 -0.109372847 -0.987965226
vn 0.109372854 -0.109372817 -0.987965226
vn 0.154676557 0 -0.987965226
vn 0.149406075 0.0400333293 -0.987965226
vn 0.149406016 -0.0400332361 -0.987965226
vn 0.13395381 -0.077338241 -0.987965226
vn 0.13395381 -0.0773382783 -0.987965226
vn 0.13395381 -0.0773382708 -0.987965226
vn 0.149406061 0.0400333218 -0.987965226
vn 0.133953795 0.0773383677 -0.987965226
vn 0.154676497 0 -0.987965226
vn 0.149406046 -0.0400332361 -0.987965226
vn 0.149406075 -0.0400332399 -0.987965226
vn 0.149406046 -0.0400332361 -0.987965226
vn 0.13395378 0.0773383677 -0.987965226
vn 0.109372765 0.109372906 -0.987965226
vn 0.149406001 0.0400332995 -0.987965226
vn 0.154676497 0 -0.987965226
vn 0.154676527 0 -0.987965226
vn 0.154676482 0 -0.987965226
vn 0.109372757 0.109372906 -0.987965226
vn 0.0773381814 0.133953869 -0.987965226
vn 0.133953735 0.0773383304 -0.987965226
vn 0.149406016 0.0400332995 -0.987965226
vn 0.149406061 0.0400332995 -0.987965226
vn 0.149406031 0.0400332883 -0.987965226
vn 0.077338174 0.133953869 -0.987965226
vn 0.0400331542 0.149406105 -0.987965226
vn 0.0400331542 0.14940609 -0.987965226
vn 0.109372735 0.109372869 -0.987965226
vn 0.133953735 0.077338323 -0.987965226
vn 0.13395378 0.0773383453 -0.987965226
vn 0.133953765 0.077338323 -0.987965226
vn 0.0773381591 0.13395384 -0.987965226
vn 0.0400331542 0.149406046 -0.987965226
vn 0.10937272 0.109372854 -0.987965226
vn 0.109372735 0.109372891 -0.987965226
vn 0.109372735 0.109372906 -0.987965226
vn 0.0773381516 0.133953854 -0.987965226
vn 0.0400331467 0.149406061 -0.987965226
vn 0.0773381665 0.133953869 -0.987965226
vn 0.0773381591 0.133953899 -0.987965226
vn 0.0400331579 0.14940612 -0.987965226
vn 0.0400331579 0.149406075 -0.987965226
g Cone001_0
f 3/3/3 2/2/2 1/1/1
f 2/2/2 4/4/4 1/1/1
f 1/1/1 4/4/4 5/5/5
f 2/2/2 6/6/6 4/4/4
f 4/4/4 7/7/7 5/5/5
f 5/5/5 7/7/7 8/8/8
f 6/6/6 9/9/9 4/4/4
f 4/4/4 9/9/9 7/7/7
f 6/6/6 10/10/10 9/9/9
f 7/7/7 11/11/11 8/8/8
f 8/8/8 11/11/11 12/12/12
f 9/9/9 13/13/13 7/7/7
f 7/7/7 13/13/13 11/11/11
f 10/10/10 14/14/14 9/9/9
f 9/9/9 14/14/14 13/13/13
f 10/10/10 15/15/15 14/14/14
f 11/11/11 16/16/16 12/12/12
f 12/12/12 16/16/16 17/17/17
f 13/13/13 18/18/18 11/11/11
f 11/11/11 18/18/18 16/16/16
f 14/14/14 19/19/19 13/13/13
f 13/13/13 19/19/19 18/18/18
f 15/15/15 20/20/20 14/14/14
f 14/14/14 20/20/20 19/19/19
f 15/15/15 21/21/21 20/20/20
f 21/21/21 22/22/22 20/20/20
f 20/20/20 22/22/22 23/23/23
f 20/20/20 23/23/23 19/19/19
f 22/22/22 24/24/24 23/23/23
f 16/16/16 25/25/25 17/17/17
f 17/17/17 25/25/25 26/26/26
f 18/18/18 27/27/27 16/16/16
f 16/16/16 27/27/27 25/25/25
f 19/19/19 28/28/28 18/18/18
f 19/19/19 23/23/23 28/28/28
f 18/18/18 28/28/28 27/27/27
f 23/23/23 24/24/24 29/29/29
f 23/23/23 29/29/29 28/28/28
f 24/24/24 30/30/30 29/29/29
f 25/25/25 31/31/31 26/26/26
f 26/26/26 31/31/31 32/32/32
f 27/27/27 33/33/33 25/25/25
f 25/25/25 33/33/33 31/31/31
f 28/28/28 34/34/34 27/27/27
f 28/28/28 29/29/29 34/34/34
f 27/27/27 34/34/34 33/33/33
f 29/29/29 30/30/30 35/35/35
f 29/29/29 35/35/35 34/34/34
f 30/30/30 36/36/36 35/35/35
f 31/31/31 37/37/37 32/32/32
f 32/32/32 37/37/37 38/38/38
f 33/33/33 39/39/39 31/31/31
f 31/31/31 39/39/39 37/37/37
f 34/34/34 40/40/40 33/33/33
f 34/34/34 35/35/35 40/40/40
f 33/33/33 40/40/40 39/39/39
f 35/35/35 36/36/36 41/41/41
f 35/35/35 41/41/41 40/40/40
f 36/36/36 42/42/42 41/41/41
f 37/37/37 43/43/43 38/38/38
f 38/38/38 43/43/43 44/44/44
f 39/39/39 45/45/45 37/37/37
f 37/37/37 45/45/45 43/43/43
f 40/40/40 46/46/46 39/39/39
f 40/40/40 41/41/41 46/46/46
f 39/39/39 46/46/46 45/45/45
f 41/41/41 42/42/42 47/47/47
f 41/41/41 47/47/47 46/46/46
f 42/42/42 48/48/48 47/47/47
f 43/43/43 49/49/49 44/44/44
f 44/44/44 49/49/49 50/50/50
f 45/45/45 51/51/51 43/43/43
f 43/43/43 51/51/51 49/49/49
f 46/46/46 52/52/52 45/45/45
f 46/46/46 47/47/47 52/52/52
f 45/45/45 52/52/52 51/51/51
f 47/47/47 48/48/48 53/53/53
f 47/47/47 53/53/53 52/52/52
f 48/48/48 54/54/54 53/53/53
f 49/49/49 55/55/55 50/50/50
f 50/50/50 55/55/55 56/56/56
f 51/51/51 57/57/57 49/49/49
f 49/49/49 57/57/57 55/55/55
f 52/52/52 58/58/58 51/51/51
f 52/52/52 53/53/53 58/58/58
f 51/51/51 58/58/58 57/57/57
f 53/53/53 54/54/54 59/59/59
f 53/53/53 59/59/59 58/58/58
f 54/54/54 60/60/60 59/59/59
f 55/55/55 61/61/61 56/56/56
f 56/56/56 61/61/61 62/62/62
f 57/57/57 63/63/63 55/55/55
f 55/55/55 63/63/63 61/61/61
f 58/58/58 64/64/64 57/57/57
f 58/58/58 59/59/59 64/64/64
f 57/57/57 64/64/64 63/63/63
f 59/59/59 60/60/60 65/65/65
f 59/59/59 65/65/65 64/64/64
f 60/60/60 66/66/66 65/65/65
f 61/61/61 67/67/67 62/62/62
f 62/62/62 67/67/67 68/68/68
f 63/63/63 69/69/69 61/61/61
f 61/61/61 69/69/69 67/67/67
f 64/64/64 70/70/70 63/63/63
f 64/64/64 65/65/65 70/70/70
f 63/63/63 70/70/70 69/69/69
f 65/65/65 66/66/66 71/71/71
f 65/65/65 71/71/71 70/70/70
f 66/66/66 72/72/72 71/71/71
f 67/67/67 73/73/73 68/68/68
f 68/68/68 73/73/73 74/74/74
f 69/69/69 75/75/75 67/67/67
f 67/67/67 75/75/75 73/73/73
f 70/70/70 76/76/76 69/69/69
f 70/70/70 71/71/71 76/76/76
f 69/69/69 76/76/76 75/75/75
f 71/71/71 72/72/72 77/77/77
f 71/71/71 77/77/77 76/76/76
f 72/72/72 78/78/78 77/77/77
f 73/73/73 79/79/79 74/74/74
f 74/74/74 79/79/79 80/80/80
f 75/75/75 81/81/81 73/73/73
f 73/73/73 81/81/81 79/79/79
f 76/76/76 82/82/82 75/75/75
f 76/76/76 77/77/77 82/82/82
f 75/75/75 82/82/82 81/81/81
f 77/77/77 78/78/78 83/83/83
f 77/77/77 83/83/83 82/82/82
f 78/78/78 84/84/84 83/83/83
f 79/79/79 85/85/85 80/80/80
f 80/80/80 85/85/85 86/86/86
f 81/81/81 87/87/87 79/79/79
f 79/79/79 87/87/87 85/85/85
f 82/82/82 88/88/88 81/81/81
f 82/82/82 83/83/83 88/88/88
f 81/81/81 88/88/88 87/87/87
f 83/83/83 84/84/84 89/89/89
f 83/83/83 89/89/89 88/88/88
f 84/84/84 90/90/90 89/89/89
f 85/85/85 91/91/91 86/86/86
f 86/86/86 91/91/91 92/92/92
f 87/87/87 93/93/93 85/85/85
f 85/85/85 93/93/93 91/91/91
f 88/88/88 94/94/94 87/87/87
f 88/88/88 89/89/89 94/94/94
f 87/87/87 94/94/94 93/93/93
f 89/89/89 90/90/90 95/95/95
f 89/89/89 95/95/95 94/94/94
f 90/90/90 96/96/96 95/95/95
f 91/91/91 97/97/97 92/92/92
f 92/92/92 97/97/97 98/98/98
f 93/93/93 99/99/99 91/91/91
f 91/91/91 99/99/99 97/97/97
f 94/94/94 100/100/100 93/93/93
f 94/94/94 95/95/95 100/100/100
f 93/93/93 100/100/100 99/99/99
f 95/95/95 96/96/96 101/101/101
f 95/95/95 101/101/101 100/100/100
f 96/96/96 102/102/102 101/101/101
f 97/97/97 103/103/103 98/98/98
f 98/98/98 103/103/103 104/104/104
f 99/99/99 105/105/105 97/97/97
f 97/97/97 105/105/105 103/103/103
f 100/100/100 106/106/106 99/99/99
f 100/100/100 101/101/101 106/106/106
f 99/99/99 106/106/106 105/105/105
f 101/101/101 102/102/102 107/107/107
f 101/101/101 107/107/107 106/106/106
f 102/102/102 108/108/108 107/107/107
f 103/103/103 109/109/109 104/104/104
f 104/104/104 109/109/109 110/110/110
f 105/105/105 111/111/111 103/103/103
f 103/103/103 111/111/111 109/109/109
f 106/106/106 112/112/112 105/105/105
f 106/106/106 107/107/107 112/112/112
f 105/105/105 112/112/112 111/111/111
f 107/107/107 108/108/108 113/113/113
f 107/107/107 113/113/113 112/112/112
f 108/108/108 114/114/114 113/113/113
f 109/109/109 115/115/115 110/110/110
f 110/110/110 115/115/115 116/116/116
f 111/111/111 117/117/117 109/109/109
f 109/109/109 117/117/117 115/115/115
f 112/112/112 118/118/118 111/111/111
f 112/112/112 113/113/113 118/118/118
f 111/111/111 118/118/118 117/117/117
f 113/113/113 114/114/114 119/119/119
f 113/113/113 119/119/119 118/118/118
f 114/114/114 120/120/120 119/119/119
f 115/115/115 121/121/121 116/116/116
f 116/116/116 121/121/121 122/122/122
f 117/117/117 123/123/123 115/115/115
f 115/115/115 123/123/123 121/121/121
f 118/118/118 124/124/124 117/117/117
f 118/118/118 119/119/119 124/124/124
f 117/117/117 124/124/124 123/123/123
f 119/119/119 120/120/120 125/125/125
f 119/119/119 125/125/125 124/124/124
f 120/120/120 126/126/126 125/125/125
f 121/121/121 127/127/127 122/122/122
f 122/122/122 127/127/127 128/128/128
f 123/123/123 129/129/129 121/121/121
f 121/121/121 129/129/129 127/127/127
f 124/124/124 130/130/130 123/123/123
f 124/124/124 125/125/125 130/130/130
f 123/123/123 130/130/130 129/129/129
f 125/125/125 126/126/126 131/131/131
f 125/125/125 131/131/131 130/130/130
f 126/126/126 132/132/132 131/131/131
f 127/127/127 133/133/133 128/128/128
f 128/128/128 133/133/133 134/134/134
f 133/133/133 135/135/135 134/134/134
f 129/129/129 136/136/136 127/127/127
f 127/127/127 136/136/136 133/133/133
f 130/130/130 137/137/137 129/129/129
f 130/130/130 131/131/131 137/137/137
f 129/129/129 137/137/137 136/136/136
f 131/131/131 132/132/132 138/138/138
f 131/131/131 138/138/138 137/137/137
f 132/132/132 139/139/139 138/138/138
f 133/133/133 140/140/140 135/135/135
f 136/136/136 140/140/140 133/133/133
f 140/140/140 141/141/141 135/135/135
f 137/137/137 142/142/142 136/136/136
f 137/137/137 138/138/138 142/142/142
f 136/136/136 142/142/142 140/140/140
f 138/138/138 139/139/139 143/143/143
f 138/138/138 143/143/143 142/142/142
f 139/139/139 144/144/144 143/143/143
f 140/140/140 145/145/145 141/141/141
f 142/142/142 145/145/145 140/140/140
f 142/142/142 143/143/143 145/145/145
f 145/145/145 146/146/146 141/141/141
f 143/143/143 144/144/144 147/147/147
f 143/143/143 147/147/147 145/145/145
f 145/145/145 147/147/147 146/146/146
f 144/144/144 148/148/148 147/147/147
f 147/147/147 149/149/149 146/146/146
f 147/147/147 148/148/148 149/149/149
f 148/148/148 150/150/150 149/149/149
