g Plane004
v 0.10498555 0.0101797022 0
v 0.0955288336 0.00751466956 0
v 0.10216175 0.0226940028 0
v 0.0913639441 0.0196487233 0
v 0.0858706981 0.00371931936 0
v 0.0807406902 0.0154779162 0
v 0.0759693533 -0.000915320823 0
v 0.0702890307 0.0105875256 0
v 0.0658759326 -0.00604329631 0
v 0.0599893741 0.00535539025 0
v 0.0556202494 -0.0113070011 0
v 0.0498434156 0.000147683575 0
v 0.0452107377 -0.0163423102 0
v 0.0398743451 -0.00467593176 0
v 0.0346343555 -0.0207759179 0
v 0.0301267393 -0.00876496918 0
v 0.023859404 -0.02421402 0
v 0.020663863 -0.0117894448 0
v 0.0128525821 -0.0262224413 0
v 0.0115505541 -0.0134597523 0
v 0.00163024757 -0.0263142902 0
v 0.00280204974 -0.013538993 0
v -0.00953044277 -0.0240403693 0
v -0.00563251879 -0.0118179405 0
v -0.0188291222 -0.0205554795 0
v -0.0138648907 -0.00872594491 0
v -0.0287549179 -0.0160918105 0
v -0.0232709516 -0.00449406588 0
v -0.0391644649 -0.011040072 0
v -0.0334938504 0.000467564707 0
v -0.0498477072 -0.00579113141 0
v -0.0442434549 0.0057489709 0
v -0.0605589487 -0.000740764488 0
v -0.0552652553 0.0109450566 0
v -0.0710235685 0.00371252769 0
v -0.0663337111 0.0156535003 0
v -0.0809304044 0.00717480434 0
v -0.0772597939 0.0194674097 0
v -0.0899120718 0.00928006601 0
v -0.0879106969 0.0219519269 0
v -0.0978487208 0.00975725334 0
v -0.0982724875 0.0225791894 0
vt 0 1
vt 0.0500000007 1
vt 0 0
vt 0.0500000007 0
vt 0.100000001 1
vt 0.100000001 0
vt 0.150000006 1
vt 0.150000006 0
vt 0.200000003 1
vt 0.200000003 0
vt 0.25 1
vt 0.25 0
vt 0.300000012 1
vt 0.300000012 0
vt 0.350000024 1
vt 0.350000024 0
vt 0.400000036 1
vt 0.400000036 0
vt 0.450000048 1
vt 0.450000048 0
vt 0.50000006 1
vt 0.50000006 0
vt 0.550000072 1
vt 0.550000072 0
vt 0.600000083 1
vt 0.600000083 0
vt 0.650000095 1
vt 0.650000095 0
vt 0.700000107 1
vt 0.700000107 0
vt 0.750000119 1
vt 0.750000119 0
vt 0.800000131 1
vt 0.800000131 0
vt 0.850000143 1
vt 0.850000143 0
vt 0.900000155 1
vt 0.900000155 0
vt 0.950000167 1
vt 0.950000167 0
vt 1.00000012 1
vt 1.00000012 0
vn -0 0 1
vn -0 0 1
vn -0 0 1
vn -0 0 1
vn -0 0 1
vn -0 0 1
vn -0 0 1
vn -0 0 1
vn -0 0 1
vn -0 0 1
vn -0 0 1
vn -0 0 1
vn -0 0 1
vn -0 0 1
vn -0 0 1
vn -0 0 1
vn -0 0 1
vn -0 0 1
vn -0 0 1
vn -0 0 1
vn -0 0 1
vn -0 0 1
vn -0 0 1
vn -0 0 1
vn -0 0 1
vn -0 0 1
vn -0 0 1
vn -0 0 1
vn -0 0 1
vn -0 0 1
vn -0 0 1
vn -0 0 1
vn -0 0 1
vn -0 0 1
vn -0 0 1
vn -0 0 1
vn -0 0 1
vn -0 0 1
vn -0 0 1
vn -0 0 1
vn -0 0 1
vn -0 0 1
g Plane004_0
f 3/3/3 2/2/2 1/1/1
f 2/2/2 3/3/3 4/4/4
f 4/4/4 5/5/5 2/2/2
f 5/5/5 4/4/4 6/6/6
f 6/6/6 7/7/7 5/5/5
f 7/7/7 6/6/6 8/8/8
f 8/8/8 9/9/9 7/7/7
f 9/9/9 8/8/8 10/10/10
f 10/10/10 11/11/11 9/9/9
f 11/11/11 10/10/10 12/12/12
f 12/12/12 13/13/13 11/11/11
f 13/13/13 12/12/12 14/14/14
f 14/14/14 15/15/15 13/13/13
f 15/15/15 14/14/14 16/16/16
f 16/16/16 17/17/17 15/15/15
f 17/17/17 16/16/16 18/18/18
f 18/18/18 19/19/19 17/17/17
f 19/19/19 18/18/18 20/20/20
f 20/20/20 21/21/21 19/19/19
f 21/21/21 20/20/20 22/22/22
f 22/22/22 23/23/23 21/21/21
f 23/23/23 22/22/22 24/24/24
f 24/24/24 25/25/25 23/23/23
f 25/25/25 24/24/24 26/26/26
f 26/26/26 27/27/27 25/25/25
f 27/27/27 26/26/26 28/28/28
f 28/28/28 29/29/29 27/27/27
f 29/29/29 28/28/28 30/30/30
f 30/30/30 31/31/31 29/29/29
f 31/31/31 30/30/30 32/32/32
f 32/32/32 33/33/33 31/31/31
f 33/33/33 32/32/32 34/34/34
f 34/34/34 35/35/35 33/33/33
f 35/35/35 34/34/34 36/36/36
f 36/36/36 37/37/37 35/35/35
f 37/37/37 36/36/36 38/38/38
f 38/38/38 39/39/39 37/37/37
f 39/39/39 38/38/38 40/40/40
f 40/40/40 41/41/41 39/39/39
f 41/41/41 40/40/40 42/42/42
