g Plane002
v 2.72945285 -0.559235454 -0.000165675097
v 2.91187239 -0.514929116 -0.000227263547
v 2.91186619 -0.521305859 -0.000227263517
v 2.72919488 -0.517503679 -0.000165675112
v 2.91187859 -0.508475244 -0.000227263517
v 2.52765584 -0.59748143 -0.000116358926
v 2.72902346 -0.473854154 -0.000165675068
v 2.91188645 -0.501945257 -0.000227263474
v 2.52541208 -0.521402597 -0.00011635894
v 2.30989146 -0.633138418 -7.79513794E-05
v 2.72898793 -0.428445756 -0.000165675068
v 2.91189551 -0.495340049 -0.000227263474
v 2.30224013 -0.525927663 -7.79513794E-05
v 2.07958031 -0.663131833 -4.90889033E-05
v 2.52370167 -0.441686928 -0.000116358904
v 2.72914219 -0.381438285 -0.000165675068
v 2.91190529 -0.488660812 -0.000227263517
v 2.06139874 -0.529713392 -4.90889288E-05
v 1.84014213 -0.684687793 -2.84079779E-05
v 2.29626036 -0.414808691 -7.79513648E-05
v 2.52289057 -0.358909518 -0.000116358904
v 2.72953558 -0.332991838 -0.000165675068
v 2.91191554 -0.48190847 -0.000227263517
v 2.73021889 -0.283265799 -0.000165675068
v 1.80460691 -0.531029046 -2.84079542E-05
v 1.59500027 -0.695771575 -1.45449012E-05
v 2.04706526 -0.39343819 -4.90889288E-05
v 2.29312563 -0.300788224 -7.79513794E-05
v 2.52334547 -0.273637027 -0.000116358904
v 2.52543139 -0.18641673 -0.000116358926
v 2.52952003 -0.0977717042 -0.000116358926
v 1.53358042 -0.528100789 -1.45449012E-05
v 1.34757674 -0.695358396 -6.13614247E-06
v 1.77649152 -0.376303524 -2.84079542E-05
v 2.03928471 -0.255558342 -4.90889033E-05
v 2.29400992 -0.18479082 -7.79513794E-05
v 2.3000958 -0.0676328465 -7.79513794E-05
v 2.31258082 0.0499663651 -7.79513648E-05
v 1.25003624 -0.519420922 -6.13614247E-06
v 1.10129428 -0.683434427 -1.81812163E-06
v 1.48491204 -0.361369699 -1.45448539E-05
v 1.76100254 -0.221722469 -2.84079779E-05
v 2.04076672 -0.11706496 -4.90889142E-05
v 2.05424404 0.0213125926 -4.90888924E-05
v 2.0824964 0.159020752 -4.90889506E-05
v 0.955689132 -0.503965199 -1.81807422E-06
v 0.859575212 -0.660701573 -2.27188323E-07
v 1.17269778 -0.34634006 -6.13614247E-06
v 1.45792878 -0.196403578 -1.45448066E-05
v 1.763358 -0.0679927096 -2.84079542E-05
v 1.78882086 0.0845708922 -2.84079306E-05
v 1.84274578 0.235820249 -2.84079069E-05
v 0.652255714 -0.481212288 -2.2721197E-07
v 0.625841439 -0.62806052 0
v 0.341451049 -0.45087257 -2.36555931E-11
v 0.840214968 -0.329001665 -1.81812163E-06
v 0.487826526 -0.307383597 -2.2721197E-07
v 0.115893893 -0.279619217 2.36555931E-11
v 1.12970662 -0.176164255 -6.13609518E-06
v 1.46158171 -0.0333279185 -1.45449012E-05
v 1.50488436 0.12809284 -1.45448539E-05
v 1.59699678 0.288095534 -1.45449012E-05
v 0.396316409 -0.136620551 -2.27259278E-07
v -0.00963720214 -0.110136703 0
v 0.775964856 -0.15742296 -1.81807422E-06
v 1.13522649 -0.00824747328 -6.13611883E-06
v 1.20348811 0.158119932 -6.13614247E-06
v 1.3489176 0.323336303 -6.13614247E-06
v 0.784046888 0.0122038936 -1.81807422E-06
v 0.407759786 0.0330017023 -2.27282939E-07
v 0.00604885537 0.0591964237 0
v 0.885625601 0.180817291 -1.81812163E-06
v 1.10208547 0.348699301 -1.81807422E-06
v 0.552221894 0.202263653 -2.27235631E-07
v 0.204148382 0.228514776 2.36555931E-11
v 0.859979093 0.371169925 -2.2721197E-07
v 0.62601161 0.39767161 -2.36555931E-11
vt 0.900000095 0
vt 1.00000012 0.166666672
vt 1.00000012 0
vt 0.900000095 0.166666672
vt 1.00000012 0.333333343
vt 0.800000072 0
vt 0.900000095 0.333333343
vt 1.00000012 0.5
vt 0.800000072 0.166666672
vt 0.700000048 0
vt 0.900000095 0.5
vt 1.00000012 0.666666687
vt 0.700000048 0.166666672
vt 0.600000024 0
vt 0.800000072 0.333333343
vt 0.900000095 0.666666687
vt 1.00000012 0.833333373
vt 0.600000024 0.166666672
vt 0.5 0
vt 0.700000048 0.333333343
vt 0.800000072 0.5
vt 0.900000095 0.833333373
vt 1.00000012 1
vt 0.900000095 1
vt 0.5 0.166666672
vt 0.400000006 0
vt 0.600000024 0.333333343
vt 0.700000048 0.5
vt 0.800000072 0.666666687
vt 0.800000072 0.833333373
vt 0.800000072 1
vt 0.400000006 0.166666672
vt 0.300000012 0
vt 0.5 0.333333343
vt 0.600000024 0.5
vt 0.700000048 0.666666687
vt 0.700000048 0.833333373
vt 0.700000048 1
vt 0.300000012 0.166666672
vt 0.200000003 0
vt 0.400000006 0.333333343
vt 0.5 0.5
vt 0.600000024 0.666666687
vt 0.600000024 0.833333373
vt 0.600000024 1
vt 0.200000003 0.166666672
vt 0.100000001 0
vt 0.300000012 0.333333343
vt 0.400000006 0.5
vt 0.5 0.666666687
vt 0.5 0.833333373
vt 0.5 1
vt 0.100000001 0.166666672
vt 0 0
vt 0 0.166666672
vt 0.200000003 0.333333343
vt 0.100000001 0.333333343
vt 0 0.333333343
vt 0.300000012 0.5
vt 0.400000006 0.666666687
vt 0.400000006 0.833333373
vt 0.400000006 1
vt 0.100000001 0.5
vt 0 0.5
vt 0.200000003 0.5
vt 0.300000012 0.666666687
vt 0.300000012 0.833333373
vt 0.300000012 1
vt 0.200000003 0.666666687
vt 0.100000001 0.666666687
vt 0 0.666666687
vt 0.200000003 0.833333373
vt 0.200000003 1
vt 0.100000001 0.833333373
vt 0 0.833333373
vt 0.100000001 1
vt 0 1
vn 0.000284955633 1.73740716E-06 1
vn 0.000337378646 0 1
vn 0.000337698759 -3.24690006E-07 1
vn 0.000289900403 1.77797472E-06 1
vn 0.000336961064 0 1
vn 0.000205738732 5.71999817E-06 1
vn 0.000288956653 9.22198524E-07 1
vn 0.000336674362 -3.7961675E-07 1
vn 0.000207284436 5.66507333E-06 1
vn 0.000147236104 9.76066076E-06 1
vn 0.000288058975 -2.54411873E-07 1
vn 0.000336583558 -5.11739529E-07 1
vn 0.000146031802 9.50409867E-06 1
vn 0.00010336424 1.29877444E-05 1
vn 0.000205295539 3.52393977E-06 1
vn 0.000287213246 -1.71048657E-06 1
vn 0.000336784578 -6.18276715E-07 1
vn 0.000100170015 1.24051676E-05 1
vn 7.02882389E-05 1.48907775E-05 1
vn 0.000143142577 6.12829217E-06 1
vn 0.000203560572 6.21368372E-07 1
vn 0.000286448601 -3.39853364E-06 1
vn 0.000337064936 -7.68829864E-07 1
vn 0.00026227106 -4.36433675E-06 1
vn 6.5877357E-05 1.38459909E-05 1
vn 4.54515466E-05 1.51329114E-05 1
vn 9.67754313E-05 8.09190078E-06 1
vn 0.00014085554 1.59879437E-06 1
vn 0.000202121431 -3.01372484E-06 1
vn 0.000201032686 -7.39521874E-06 1
vn 0.00018635155 -1.01427222E-05 1
vn 4.05659011E-05 1.35052487E-05 1
vn 2.70883247E-05 1.35008077E-05 1
vn 6.2423147E-05 9.01318163E-06 1
vn 9.43259947E-05 2.37075142E-06 1
vn 0.00013932756 -4.1130329E-06 1
vn 0.000138744566 -1.11622039E-05 1
vn 0.000132091896 -1.61196313E-05 1
vn 2.24097694E-05 1.1259217E-05 1
vn 1.39846279E-05 1.00263314E-05 1
vn 3.7473259E-05 8.66320261E-06 1
vn 6.01346692E-05 2.7568417E-06 1
vn 9.30419919E-05 -4.8773386E-06 1
vn 9.32163093E-05 -1.40196125E-05 1
vn 9.25719287E-05 -2.11662391E-05 1
vn 1.0133258E-05 7.35662206E-06 1
vn 5.38825179E-06 5.34218725E-06 1
vn 2.00321774E-05 7.0198098E-06 1
vn 3.5563171E-05 2.67236214E-06 1
vn 5.92091092E-05 -5.15223564E-06 1
vn 5.998712E-05 -1.53574074E-05 1
vn 6.33780874E-05 -2.44732837E-05 1
vn 2.99192334E-06 2.9380351E-06 1
vn 1.03111222E-06 1.36178573E-06 1
vn 7.42663758E-07 9.30111696E-07 1
vn 8.69573614E-06 4.38339748E-06 1
vn 2.45150181E-06 1.63794175E-06 1
vn 6.15423971E-07 5.09573454E-07 1
vn 1.86262278E-05 2.13143539E-06 1
vn 3.49546463E-05 -4.78238417E-06 1
vn 3.59996666E-05 -1.46245202E-05 1
vn 4.15770774E-05 -2.53091748E-05 1
vn 2.09693212E-06 4.26669089E-07 1
vn 5.70875784E-07 0 1
vn 7.84195345E-06 1.27345368E-06 1
vn 1.82424938E-05 -3.72468116E-06 1
vn 1.92147545E-05 -1.16537458E-05 1
vn 2.51536731E-05 -2.29576181E-05 1
vn 7.62609397E-06 -2.18246578E-06 1
vn 2.02680803E-06 -7.29040039E-07 1
vn 5.65953144E-07 0 1
vn 8.30452245E-06 -7.05240927E-06 1
vn 1.29321525E-05 -1.70117382E-05 1
vn 2.35474545E-06 -2.55545297E-06 1
vn 6.06623132E-07 -8.07845367E-07 1
vn 4.65823268E-06 -8.54027803E-06 1
vn 7.57166333E-07 -1.88803085E-06 1
g Plane002_0
f 3/3/3 2/2/2 1/1/1
f 4/4/4 1/1/1 2/2/2
f 2/2/2 5/5/5 4/4/4
f 1/1/1 4/4/4 6/6/6
f 7/7/7 4/4/4 5/5/5
f 5/5/5 8/8/8 7/7/7
f 9/9/9 6/6/6 4/4/4
f 4/4/4 7/7/7 9/9/9
f 6/6/6 9/9/9 10/10/10
f 11/11/11 7/7/7 8/8/8
f 8/8/8 12/12/12 11/11/11
f 13/13/13 10/10/10 9/9/9
f 10/10/10 13/13/13 14/14/14
f 15/15/15 9/9/9 7/7/7
f 7/7/7 11/11/11 15/15/15
f 9/9/9 15/15/15 13/13/13
f 16/16/16 11/11/11 12/12/12
f 12/12/12 17/17/17 16/16/16
f 18/18/18 14/14/14 13/13/13
f 14/14/14 18/18/18 19/19/19
f 20/20/20 13/13/13 15/15/15
f 13/13/13 20/20/20 18/18/18
f 21/21/21 15/15/15 11/11/11
f 11/11/11 16/16/16 21/21/21
f 15/15/15 21/21/21 20/20/20
f 22/22/22 16/16/16 17/17/17
f 17/17/17 23/23/23 22/22/22
f 24/24/24 22/22/22 23/23/23
f 25/25/25 19/19/19 18/18/18
f 19/19/19 25/25/25 26/26/26
f 27/27/27 18/18/18 20/20/20
f 18/18/18 27/27/27 25/25/25
f 28/28/28 20/20/20 21/21/21
f 20/20/20 28/28/28 27/27/27
f 29/29/29 21/21/21 16/16/16
f 16/16/16 22/22/22 29/29/29
f 21/21/21 29/29/29 28/28/28
f 22/22/22 24/24/24 30/30/30
f 30/30/30 29/29/29 22/22/22
f 31/31/31 30/30/30 24/24/24
f 32/32/32 26/26/26 25/25/25
f 26/26/26 32/32/32 33/33/33
f 34/34/34 25/25/25 27/27/27
f 25/25/25 34/34/34 32/32/32
f 35/35/35 27/27/27 28/28/28
f 27/27/27 35/35/35 34/34/34
f 36/36/36 28/28/28 29/29/29
f 29/29/29 30/30/30 36/36/36
f 28/28/28 36/36/36 35/35/35
f 30/30/30 31/31/31 37/37/37
f 37/37/37 36/36/36 30/30/30
f 38/38/38 37/37/37 31/31/31
f 39/39/39 33/33/33 32/32/32
f 33/33/33 39/39/39 40/40/40
f 41/41/41 32/32/32 34/34/34
f 32/32/32 41/41/41 39/39/39
f 42/42/42 34/34/34 35/35/35
f 34/34/34 42/42/42 41/41/41
f 43/43/43 35/35/35 36/36/36
f 36/36/36 37/37/37 43/43/43
f 35/35/35 43/43/43 42/42/42
f 37/37/37 38/38/38 44/44/44
f 44/44/44 43/43/43 37/37/37
f 45/45/45 44/44/44 38/38/38
f 46/46/46 40/40/40 39/39/39
f 40/40/40 46/46/46 47/47/47
f 48/48/48 39/39/39 41/41/41
f 39/39/39 48/48/48 46/46/46
f 49/49/49 41/41/41 42/42/42
f 41/41/41 49/49/49 48/48/48
f 50/50/50 42/42/42 43/43/43
f 43/43/43 44/44/44 50/50/50
f 42/42/42 50/50/50 49/49/49
f 44/44/44 45/45/45 51/51/51
f 51/51/51 50/50/50 44/44/44
f 52/52/52 51/51/51 45/45/45
f 53/53/53 47/47/47 46/46/46
f 47/47/47 53/53/53 54/54/54
f 55/55/55 54/54/54 53/53/53
f 56/56/56 46/46/46 48/48/48
f 46/46/46 56/56/56 53/53/53
f 53/53/53 57/57/57 55/55/55
f 57/57/57 53/53/53 56/56/56
f 58/58/58 55/55/55 57/57/57
f 59/59/59 48/48/48 49/49/49
f 48/48/48 59/59/59 56/56/56
f 60/60/60 49/49/49 50/50/50
f 50/50/50 51/51/51 60/60/60
f 49/49/49 60/60/60 59/59/59
f 51/51/51 52/52/52 61/61/61
f 61/61/61 60/60/60 51/51/51
f 62/62/62 61/61/61 52/52/52
f 57/57/57 63/63/63 58/58/58
f 64/64/64 58/58/58 63/63/63
f 56/56/56 65/65/65 57/57/57
f 65/65/65 56/56/56 59/59/59
f 63/63/63 57/57/57 65/65/65
f 66/66/66 59/59/59 60/60/60
f 60/60/60 61/61/61 66/66/66
f 59/59/59 66/66/66 65/65/65
f 61/61/61 62/62/62 67/67/67
f 67/67/67 66/66/66 61/61/61
f 68/68/68 67/67/67 62/62/62
f 69/69/69 65/65/65 66/66/66
f 65/65/65 69/69/69 63/63/63
f 66/66/66 67/67/67 69/69/69
f 63/63/63 70/70/70 64/64/64
f 70/70/70 63/63/63 69/69/69
f 71/71/71 64/64/64 70/70/70
f 67/67/67 68/68/68 72/72/72
f 72/72/72 69/69/69 67/67/67
f 69/69/69 72/72/72 70/70/70
f 73/73/73 72/72/72 68/68/68
f 70/70/70 74/74/74 71/71/71
f 74/74/74 70/70/70 72/72/72
f 72/72/72 73/73/73 74/74/74
f 75/75/75 71/71/71 74/74/74
f 76/76/76 74/74/74 73/73/73
f 74/74/74 76/76/76 75/75/75
f 77/77/77 75/75/75 76/76/76
