g Plane006
v 0.427219123 0.40248552 0
v 0.523162901 0.946403444 0
v 0.440900177 0.960586309 0
v 0.350446016 0.415728897 0
v 0.35567534 0.974104881 0
v 0.273204386 0.427982002 0
v 0.268478483 0.986553729 0
v 0.194972888 0.439151883 0
v 0.179585785 0.997677088 0
v 0.116096452 0.449022979 0
v 0.0892648473 1.00721443 0
v 0.0369281247 0.457384855 0
v -0.00222612382 1.01490164 0
v -0.0421705842 0.464032531 0
v -0.0946365669 1.02046251 0
v -0.12082848 0.468769044 0
v -0.18772614 1.023615 0
v -0.198666498 0.471408427 0
v -0.28126204 1.02406001 0
v -0.275295794 0.471777022 0
v -0.375020623 1.02148259 0
v -0.350320578 0.469720155 0
v -0.46878311 1.01554573 0
v -0.423338205 0.465103388 0
v -0.562334001 1.00588512 0
v -0.493943959 0.457820892 0
v -0.655453503 0.99210453 0
v -0.56173712 0.447798252 0
v -0.747908533 0.973768473 0
v -0.626330256 0.435000569 0
v -0.839437485 0.950399339 0
v -0.68736434 0.419432908 0
v -0.929730237 0.921481729 0
v -0.74452889 0.401142955 0
v -1.01840186 0.886463702 0
v -0.797588825 0.380209357 0
v -1.10496235 0.844784856 0
v -0.846412659 0.356723189 0
v -1.18879151 0.795908749 0
v -0.891001046 0.330749571 0
v -1.26912296 0.739379644 0
v -0.931498766 0.302273393 0
v -1.34505987 0.674887121 0
v -0.968182862 0.27113539 0
v -1.41562223 0.602323711 0
v -1.00141275 0.236971185 0
v -1.47983265 0.521815062 0
v -1.0315448 0.19918552 0
v -1.53681922 0.433698714 0
v -1.05883086 0.156969488 0
v -1.58394027 0.340990424 0
v -1.07608414 0.123886235 0
v -1.61688125 0.244746298 0
v -1.08215892 0.106456295 0
v -1.63429368 0.144867122 0
v -1.08424509 0.0948810279 0
v -1.63505328 0.0443713218 0
v -1.0843246 0.0862024873 0
v -1.61961126 -0.0531114861 0
v -1.08280504 0.0768538341 0
v -1.58996499 -0.144629538 0
v -1.07854617 0.0639433861 0
v -1.54882896 -0.228692621 0
v -1.06969213 0.0460437015 0
v -1.49873376 -0.305184484 0
v -1.05456972 0.0230993647 0
v -1.44158578 -0.374803483 0
v -1.03213108 -0.00413036812 0
v -1.37865376 -0.438529819 0
v -1.00196445 -0.0346025378 0
v -1.31074214 -0.49731499 0
v -0.964125335 -0.0673051924 0
v -1.23837137 -0.551957369 0
v -0.918949723 -0.101377919 0
v -1.16191328 -0.603078663 0
v -0.866923809 -0.136138201 0
v -1.08167195 -0.65114516 0
v -0.808601618 -0.171057388 0
v -0.997929096 -0.696500897 0
v -0.744560063 -0.205730081 0
v -0.910969675 -0.739393592 0
v -0.675371468 -0.239848152 0
v -0.821083903 -0.780002773 0
v -0.601603389 -0.273169369 0
v -0.728580296 -0.81845665 0
v -0.523806393 -0.305504978 0
v -0.633780658 -0.854844332 0
v -0.44251582 -0.336703479 0
v -0.537019908 -0.889227509 0
v -0.35825479 -0.366642356 0
v -0.438644826 -0.921646833 0
v -0.271534383 -0.395219296 0
v -0.339011371 -0.952127934 0
v -0.182856962 -0.422347069 0
v -0.238483787 -0.980683923 0
v -0.0927165747 -0.447951347 0
v -0.137430757 -1.00731909 0
v -0.00160179171 -0.471966147 0
v -0.0362262279 -1.03202999 0
v 0.0900028646 -0.494333386 0
v 0.0647544786 -1.05480969 0
v 0.181614935 -0.514998794 0
v 0.165135309 -1.07564402 0
v 0.272752494 -0.533914685 0
v 0.264541417 -1.09451687 0
v 0.362932265 -0.551036119 0
v 0.362601727 -1.11140811 0
v 0.451667666 -0.566321611 0
v 0.458950818 -1.12629437 0
v 0.538465261 -0.579732835 0
v 0.553233743 -1.13914907 0
v 0.622822762 -0.59123522 0
v 0.645109415 -1.14994061 0
v 0.704223633 -0.60079819 0
v 0.734256625 -1.15863347 0
v 0.782130539 -0.608396947 0
v 0.820384383 -1.16518199 0
v 0.85597682 -0.614014864 0
v 0.903244853 -1.1695286 0
v 0.925152063 -0.617648363 0
v 0.982654035 -1.17159402 0
v 0.988981962 -0.619314909 0
v 1.05980861 -1.17131412 0
v 1.05250895 -0.619047105 0
vt 0 0
vt 0 1
vt 0.0163934417 1
vt 0.0163934417 0
vt 0.0327868834 1
vt 0.0327868834 0
vt 0.0491803251 1
vt 0.0491803251 0
vt 0.0655737668 1
vt 0.0655737668 0
vt 0.0819672048 1
vt 0.0819672048 0
vt 0.0983606428 1
vt 0.0983606428 0
vt 0.114754081 1
vt 0.114754081 0
vt 0.131147519 1
vt 0.131147519 0
vt 0.147540957 1
vt 0.147540957 0
vt 0.163934395 1
vt 0.163934395 0
vt 0.180327833 1
vt 0.180327833 0
vt 0.196721271 1
vt 0.196721271 0
vt 0.213114709 1
vt 0.213114709 0
vt 0.229508147 1
vt 0.229508147 0
vt 0.245901585 1
vt 0.245901585 0
vt 0.262295038 1
vt 0.262295038 0
vt 0.27868849 1
vt 0.27868849 0
vt 0.295081943 1
vt 0.295081943 0
vt 0.311475396 1
vt 0.311475396 0
vt 0.327868849 1
vt 0.327868849 0
vt 0.344262302 1
vt 0.344262302 0
vt 0.360655755 1
vt 0.360655755 0
vt 0.377049208 1
vt 0.377049208 0
vt 0.393442661 1
vt 0.393442661 0
vt 0.409836113 1
vt 0.409836113 0
vt 0.426229566 1
vt 0.426229566 0
vt 0.442623019 1
vt 0.442623019 0
vt 0.459016472 1
vt 0.459016472 0
vt 0.475409925 1
vt 0.475409925 0
vt 0.491803378 1
vt 0.491803378 0
vt 0.508196831 1
vt 0.508196831 0
vt 0.524590254 1
vt 0.524590254 0
vt 0.540983677 1
vt 0.540983677 0
vt 0.5573771 1
vt 0.5573771 0
vt 0.573770523 1
vt 0.573770523 0
vt 0.590163946 1
vt 0.590163946 0
vt 0.606557369 1
vt 0.606557369 0
vt 0.622950792 1
vt 0.622950792 0
vt 0.639344215 1
vt 0.639344215 0
vt 0.655737638 1
vt 0.655737638 0
vt 0.672131062 1
vt 0.672131062 0
vt 0.688524485 1
vt 0.688524485 0
vt 0.704917908 1
vt 0.704917908 0
vt 0.721311331 1
vt 0.721311331 0
vt 0.737704754 1
vt 0.737704754 0
vt 0.754098177 1
vt 0.754098177 0
vt 0.7704916 1
vt 0.7704916 0
vt 0.786885023 1
vt 0.786885023 0
vt 0.803278446 1
vt 0.803278446 0
vt 0.819671869 1
vt 0.819671869 0
vt 0.836065292 1
vt 0.836065292 0
vt 0.852458715 1
vt 0.852458715 0
vt 0.868852139 1
vt 0.868852139 0
vt 0.885245562 1
vt 0.885245562 0
vt 0.901638985 1
vt 0.901638985 0
vt 0.918032408 1
vt 0.918032408 0
vt 0.934425831 1
vt 0.934425831 0
vt 0.950819254 1
vt 0.950819254 0
vt 0.967212677 1
vt 0.967212677 0
vt 0.9836061 1
vt 0.9836061 0
vt 0.999999523 1
vt 0.999999523 0
vn -0 0 -1
vn -0 0 -1
vn -0 0 -1
vn -0 0 -1
vn -0 0 -1
vn -0 0 -1
vn -0 0 -1
vn -0 0 -1
vn -0 0 -1
vn -0 0 -1
vn -0 0 -1
vn -0 0 -1
vn -0 0 -1
vn -0 0 -1
vn -0 0 -1
vn -0 0 -1
vn -0 0 -1
vn -0 0 -1
vn -0 0 -1
vn -0 0 -1
vn -0 0 -1
vn -0 0 -1
vn -0 0 -1
vn -0 0 -1
vn -0 0 -1
vn -0 0 -1
vn -0 0 -1
vn -0 0 -1
vn -0 0 -1
vn -0 0 -1
vn -0 0 -1
vn -0 0 -1
vn -0 0 -1
vn -0 0 -1
vn -0 0 -1
vn -0 0 -1
vn -0 0 -1
vn -0 0 -1
vn -0 0 -1
vn -0 0 -1
vn -0 0 -1
vn -0 0 -1
vn -0 0 -1
vn -0 0 -1
vn -0 0 -1
vn -0 0 -1
vn -0 0 -1
vn -0 0 -1
vn -0 0 -1
vn -0 0 -1
vn -0 0 -1
vn -0 0 -1
vn -0 0 -1
vn -0 0 -1
vn -0 0 -1
vn -0 0 -1
vn -0 0 -1
vn -0 0 -1
vn -0 0 -1
vn -0 0 -1
vn -0 0 -1
vn -0 0 -1
vn -0 0 -1
vn -0 0 -1
vn -0 0 -1
vn -0 0 -1
vn -0 0 -1
vn -0 0 -1
vn -0 0 -1
vn -0 0 -1
vn -0 0 -1
vn -0 0 -1
vn -0 0 -1
vn -0 0 -1
vn -0 0 -1
vn -0 0 -1
vn -0 0 -1
vn -0 0 -1
vn -0 0 -1
vn -0 0 -1
vn -0 0 -1
vn -0 0 -1
vn -0 0 -1
vn -0 0 -1
vn -0 0 -1
vn -0 0 -1
vn -0 0 -1
vn -0 0 -1
vn -0 0 -1
vn -0 0 -1
vn -0 0 -1
vn -0 0 -1
vn -0 0 -1
vn -0 0 -1
vn -0 0 -1
vn -0 0 -1
vn -0 0 -1
vn -0 0 -1
vn -0 0 -1
vn -0 0 -1
vn -0 0 -1
vn -0 0 -1
vn -0 0 -1
vn -0 0 -1
vn -0 0 -1
vn -0 0 -1
vn -0 0 -1
vn -0 0 -1
vn -0 0 -1
vn -0 0 -1
vn -0 0 -1
vn -0 0 -1
vn -0 0 -1
vn -0 0 -1
vn -0 0 -1
vn -0 0 -1
vn -0 0 -1
vn -0 0 -1
vn -0 0 -1
vn -0 0 -1
vn -0 0 -1
vn -0 0 -1
vn -0 0 -1
vn -0 0 -1
g Plane006_0
f 3/3/3 2/2/2 1/1/1
f 4/4/4 3/3/3 1/1/1
f 5/5/5 3/3/3 4/4/4
f 6/6/6 5/5/5 4/4/4
f 7/7/7 5/5/5 6/6/6
f 8/8/8 7/7/7 6/6/6
f 9/9/9 7/7/7 8/8/8
f 10/10/10 9/9/9 8/8/8
f 11/11/11 9/9/9 10/10/10
f 12/12/12 11/11/11 10/10/10
f 13/13/13 11/11/11 12/12/12
f 14/14/14 13/13/13 12/12/12
f 15/15/15 13/13/13 14/14/14
f 16/16/16 15/15/15 14/14/14
f 17/17/17 15/15/15 16/16/16
f 18/18/18 17/17/17 16/16/16
f 19/19/19 17/17/17 18/18/18
f 20/20/20 19/19/19 18/18/18
f 21/21/21 19/19/19 20/20/20
f 22/22/22 21/21/21 20/20/20
f 23/23/23 21/21/21 22/22/22
f 24/24/24 23/23/23 22/22/22
f 25/25/25 23/23/23 24/24/24
f 26/26/26 25/25/25 24/24/24
f 27/27/27 25/25/25 26/26/26
f 28/28/28 27/27/27 26/26/26
f 29/29/29 27/27/27 28/28/28
f 30/30/30 29/29/29 28/28/28
f 31/31/31 29/29/29 30/30/30
f 32/32/32 31/31/31 30/30/30
f 33/33/33 31/31/31 32/32/32
f 34/34/34 33/33/33 32/32/32
f 35/35/35 33/33/33 34/34/34
f 36/36/36 35/35/35 34/34/34
f 37/37/37 35/35/35 36/36/36
f 38/38/38 37/37/37 36/36/36
f 39/39/39 37/37/37 38/38/38
f 40/40/40 39/39/39 38/38/38
f 41/41/41 39/39/39 40/40/40
f 42/42/42 41/41/41 40/40/40
f 43/43/43 41/41/41 42/42/42
f 44/44/44 43/43/43 42/42/42
f 45/45/45 43/43/43 44/44/44
f 46/46/46 45/45/45 44/44/44
f 47/47/47 45/45/45 46/46/46
f 48/48/48 47/47/47 46/46/46
f 49/49/49 47/47/47 48/48/48
f 50/50/50 49/49/49 48/48/48
f 51/51/51 49/49/49 50/50/50
f 52/52/52 51/51/51 50/50/50
f 53/53/53 51/51/51 52/52/52
f 54/54/54 53/53/53 52/52/52
f 55/55/55 53/53/53 54/54/54
f 56/56/56 55/55/55 54/54/54
f 57/57/57 55/55/55 56/56/56
f 58/58/58 57/57/57 56/56/56
f 59/59/59 57/57/57 58/58/58
f 60/60/60 59/59/59 58/58/58
f 61/61/61 59/59/59 60/60/60
f 62/62/62 61/61/61 60/60/60
f 63/63/63 61/61/61 62/62/62
f 64/64/64 63/63/63 62/62/62
f 65/65/65 63/63/63 64/64/64
f 66/66/66 65/65/65 64/64/64
f 67/67/67 65/65/65 66/66/66
f 68/68/68 67/67/67 66/66/66
f 69/69/69 67/67/67 68/68/68
f 70/70/70 69/69/69 68/68/68
f 71/71/71 69/69/69 70/70/70
f 72/72/72 71/71/71 70/70/70
f 73/73/73 71/71/71 72/72/72
f 74/74/74 73/73/73 72/72/72
f 75/75/75 73/73/73 74/74/74
f 76/76/76 75/75/75 74/74/74
f 77/77/77 75/75/75 76/76/76
f 78/78/78 77/77/77 76/76/76
f 79/79/79 77/77/77 78/78/78
f 80/80/80 79/79/79 78/78/78
f 81/81/81 79/79/79 80/80/80
f 82/82/82 81/81/81 80/80/80
f 83/83/83 81/81/81 82/82/82
f 84/84/84 83/83/83 82/82/82
f 85/85/85 83/83/83 84/84/84
f 86/86/86 85/85/85 84/84/84
f 87/87/87 85/85/85 86/86/86
f 88/88/88 87/87/87 86/86/86
f 89/89/89 87/87/87 88/88/88
f 90/90/90 89/89/89 88/88/88
f 91/91/91 89/89/89 90/90/90
f 92/92/92 91/91/91 90/90/90
f 93/93/93 91/91/91 92/92/92
f 94/94/94 93/93/93 92/92/92
f 95/95/95 93/93/93 94/94/94
f 96/96/96 95/95/95 94/94/94
f 97/97/97 95/95/95 96/96/96
f 98/98/98 97/97/97 96/96/96
f 99/99/99 97/97/97 98/98/98
f 100/100/100 99/99/99 98/98/98
f 101/101/101 99/99/99 100/100/100
f 102/102/102 101/101/101 100/100/100
f 103/103/103 101/101/101 102/102/102
f 104/104/104 103/103/103 102/102/102
f 105/105/105 103/103/103 104/104/104
f 106/106/106 105/105/105 104/104/104
f 107/107/107 105/105/105 106/106/106
f 108/108/108 107/107/107 106/106/106
f 109/109/109 107/107/107 108/108/108
f 110/110/110 109/109/109 108/108/108
f 111/111/111 109/109/109 110/110/110
f 112/112/112 111/111/111 110/110/110
f 113/113/113 111/111/111 112/112/112
f 114/114/114 113/113/113 112/112/112
f 115/115/115 113/113/113 114/114/114
f 116/116/116 115/115/115 114/114/114
f 117/117/117 115/115/115 116/116/116
f 118/118/118 117/117/117 116/116/116
f 119/119/119 117/117/117 118/118/118
f 120/120/120 119/119/119 118/118/118
f 121/121/121 119/119/119 120/120/120
f 122/122/122 121/121/121 120/120/120
f 123/123/123 121/121/121 122/122/122
f 124/124/124 123/123/123 122/122/122
