g FX_m_plane_04
v 2.2961514 0.00286890194 0
v 3.06153512 0.00294593209 0
v 3.06153488 0.00292253238 0
v 2.2961514 0.138720512 0
v 3.06153512 0.0029539743 0
v 1.53076696 0.00287126377 0
v 2.2961514 0.248727843 0
v 1.53076684 0.233576104 0
v 4.72354884E-07 0.00287138484 0
v 1.53076768 0.415796548 0
v 2.2961514 0.351938248 0
v 4.67152745E-07 0.321874052 0
v -1.53076625 0.00287126377 0
v 1.53076768 0.55136627 0
v 4.67152745E-07 0.732987344 0
v 4.84466568E-07 0.596860945 0
v -1.53076625 0.845605373 0
v -1.53076625 0.369508117 0
v -2.29614925 0.00287052477 0
v -1.53076625 0.70996958 0
v -2.29614925 0.198773637 0
v -3.0615325 0.00288634258 0
v -3.0615325 0.00290271756 0
v -3.0615325 0.00291578611 0
v -2.29614925 0.448941678 0
v -2.29614925 0.555863857 0
v -3.0615325 0.00293087726 0
v 2.2961514 0.248727843 0
v 3.06153512 0.0029057092 0
v 3.06153512 0.0029539743 0
vt 0.873915732 0.000929355621
vt 0.998760819 0.333952904
vt 0.998760819 0.000929355621
vt 0.873915732 0.335192055
vt 0.998760819 0.666976452
vt 0.749070644 0.000929355621
vt 0.873915732 0.668215632
vt 0.749070644 0.335192055
vt 0.49938041 0.000929355621
vt 0.749070644 0.668215632
vt 0.873915732 1
vt 0.49938041 0.333952904
vt 0.249690205 0.000929355621
vt 0.749070644 1
vt 0.49938041 1
vt 0.49938041 0.666976452
vt 0.249690205 1
vt 0.249690205 0.333952904
vt 0.124845102 0.000929355621
vt 0.249690205 0.666976452
vt 0.124845102 0.333952904
vt 0 0.000929355621
vt 0 0.333952904
vt 0 0.666976452
vt 0.124845102 0.666976452
vt 0.124845102 1
vt 0 1
vt 0.873915732 0.668215632
vt 0.998760819 1
vt 0.998760819 0.666976452
vn -0 0 1
vn -0 0 1
vn -0 0 1
vn -0 0 1
vn -0 0 1
vn -0 0 1
vn -0 0 1
vn -0 0 1
vn -0 0 1
vn -0 0 1
vn -0 0 1
vn -0 0 1
vn -0 0 1
vn -0 0 1
vn -0 0 1
vn -0 0 1
vn -0 0 1
vn -0 0 1
vn -0 0 1
vn -0 0 1
vn -0 0 1
vn -0 0 1
vn -0 0 1
vn -0 0 1
vn -0 0 1
vn -0 0 1
vn -0 0 1
vn -0 0 1
vn -0 0 1
vn -0 0 1
g FX_m_plane_04_0
f 3/3/3 2/2/2 1/1/1
f 2/2/2 4/4/4 1/1/1
f 2/2/2 5/5/5 4/4/4
f 1/1/1 4/4/4 6/6/6
f 5/5/5 7/7/7 4/4/4
f 4/4/4 8/8/8 6/6/6
f 4/4/4 7/7/7 8/8/8
f 6/6/6 8/8/8 9/9/9
f 7/7/7 10/10/10 8/8/8
f 7/7/7 11/11/11 10/10/10
f 8/8/8 12/12/12 9/9/9
f 8/8/8 10/10/10 12/12/12
f 9/9/9 12/12/12 13/13/13
f 11/11/11 14/14/14 10/10/10
f 10/10/10 14/14/14 15/15/15
f 16/16/16 10/10/10 15/15/15
f 10/10/10 16/16/16 12/12/12
f 16/16/16 15/15/15 17/17/17
f 12/12/12 18/18/18 13/13/13
f 12/12/12 16/16/16 18/18/18
f 13/13/13 18/18/18 19/19/19
f 20/20/20 16/16/16 17/17/17
f 16/16/16 20/20/20 18/18/18
f 18/18/18 21/21/21 19/19/19
f 18/18/18 20/20/20 21/21/21
f 19/19/19 21/21/21 22/22/22
f 21/21/21 23/23/23 22/22/22
f 23/23/23 21/21/21 24/24/24
f 20/20/20 17/17/17 25/25/25
f 20/20/20 25/25/25 21/21/21
f 21/21/21 25/25/25 24/24/24
f 17/17/17 26/26/26 25/25/25
f 25/25/25 26/26/26 24/24/24
f 26/26/26 27/27/27 24/24/24
f 30/30/30 29/29/29 28/28/28
f 29/29/29 11/11/11 28/28/28
