g FX_m_sphere_02
v -0.76752919 -1.85737523E-08 0.0942084938
v -0.739548445 -0.0428933315 0.233891964
v -0.741109908 -0.0257552583 0.234328672
v -0.683324516 -0.0786918998 0.364036798
v -0.688236833 -0.0473349877 0.36645925
v -0.603185892 -0.108690836 0.479531765
v -0.741891026 -0.0085883392 0.234547108
v -0.61158514 -0.0655331463 0.485832363
v -0.503810108 -0.132961214 0.57687068
v -0.69069767 -0.0157983247 0.367672801
v -0.741891026 0.00858826004 0.234547108
v -0.514479697 -0.0803659782 0.588514507
v -0.389781266 -0.151633918 0.653877735
v -0.741109908 0.0257551987 0.234328672
v -0.739548445 0.0428932458 0.233891964
v -0.69069767 0.0157982185 0.367672801
v -0.615800023 -0.0218976699 0.488994181
v -0.688236833 0.0473348536 0.36645925
v -0.683324516 0.0786918029 0.364036798
v -0.40067926 -0.0918624252 0.67140311
v -0.265333146 -0.164855495 0.709361494
v -0.615800083 0.0218974985 0.488994122
v -0.61158514 0.0655329749 0.485832363
v -0.603185892 0.108690664 0.479531825
v -0.519844055 -0.0268872175 0.594368577
v -0.274207592 -0.100055218 0.732182145
v -0.134264886 -0.17275469 0.742769241
v -0.514479756 0.0803657621 0.588514507
v -0.503810108 0.13296105 0.57687068
v -0.519843996 0.026887076 0.594368577
v -0.406167775 -0.0307684857 0.680229366
v -0.139234602 -0.1049731 0.769260705
v -1.69084335E-09 -0.175419226 0.753898203
v -0.40067926 0.0918621942 0.67140317
v -0.389781266 0.15163371 0.653877735
v -0.406167805 0.0307682864 0.680229306
v -0.278683126 -0.0335430726 0.743690908
v -6.62563726E-10 -0.106636159 0.781713247
v 0.1342531 -0.172881514 0.742706358
v -0.274207592 0.10005495 0.732182205
v -0.265333146 0.164855227 0.709361553
v -0.278683126 0.0335428715 0.743690908
v -0.141743094 -0.0352124237 0.78263247
v 0.139230281 -0.105052233 0.769237757
v 0.265288174 -0.165114462 0.709245861
v -0.139234602 0.104972877 0.769260764
v -0.134264886 0.172754452 0.742769301
v -0.141743094 0.0352121927 0.78263253
v -9.67485505E-08 -0.0357776284 0.795757473
v 0.274191231 -0.100216165 0.732140064
v 0.389688492 -0.152035818 0.653728545
v 9.42431129E-08 0.106635906 0.781713307
v -1.69084324E-09 0.175418958 0.753898323
v -9.67485505E-08 0.035777349 0.795757473
v 0.141742513 -0.0352392979 0.782629907
v 0.400645524 -0.092110768 0.67134887
v 0.503666401 -0.13352178 0.57671392
v 0.139230281 0.105051942 0.769237757
v 0.1342531 0.172881246 0.742706418
v 0.141742602 0.0352390669 0.782629907
v 0.278681189 -0.0335976779 0.743686259
v 0.514427543 -0.0807099789 0.588457644
v 0.603004277 -0.109430552 0.479395539
v 0.274191231 0.10021589 0.732140064
v 0.265288174 0.165114224 0.70924592
v 0.278681278 0.0335974619 0.743686259
v 0.406163901 -0.0308525097 0.680223346
v 0.611519337 -0.0659836531 0.48578307
v 0.683138132 -0.079634957 0.363944978
v 0.400645524 0.0921105519 0.67134887
v 0.389688492 0.152035609 0.653728604
v 0.40616399 0.0308523253 0.680223286
v 0.519837976 -0.0270031597 0.594362378
v 0.688169539 -0.047905162 0.36642617
v 0.739412963 -0.0440661311 0.23385413
v 0.514427423 0.0807097331 0.588457823
v 0.503666401 0.133521616 0.57671392
v 0.519838274 0.0270029884 0.59436214
v 0.615792572 -0.0220489316 0.488988847
v 0.741061091 -0.026460588 0.234315053
v 0.76752907 -1.82893078E-08 0.0942096561
v 0.611519217 0.0659834743 0.485783219
v 0.603004217 0.10943038 0.479395628
v 0.615792572 0.0220487602 0.488988847
v 0.69069016 -0.0159891397 0.367669165
v 0.68816942 0.0479050539 0.366426319
v 0.683138132 0.0796348453 0.363944978
v 0.6906901 0.0159890372 0.367669165
v 0.741885543 -0.0088236751 0.234545857
v 0.741885602 0.00882362574 0.234545663
v 0.741061032 0.0264605265 0.234315053
v 0.739412963 0.0440660529 0.23385413
vt 0 0.5
vt 0.0625 1
vt 0.0625 0.800000012
vt 0.125 1
vt 0.125 0.800000012
vt 0.1875 1
vt 0.0625 0.600000024
vt 0.1875 0.800000012
vt 0.25 1
vt 0.125 0.600000024
vt 0.0625 0.400000006
vt 0.25 0.800000012
vt 0.3125 1
vt 0.0625 0.200000003
vt 0.0625 0
vt 0.125 0.400000006
vt 0.1875 0.600000024
vt 0.125 0.200000003
vt 0.125 0
vt 0.3125 0.800000012
vt 0.375 1
vt 0.1875 0.400000006
vt 0.1875 0.200000003
vt 0.1875 0
vt 0.25 0.600000024
vt 0.375 0.800000012
vt 0.4375 1
vt 0.25 0.200000003
vt 0.25 0
vt 0.25 0.400000006
vt 0.3125 0.600000024
vt 0.4375 0.800000012
vt 0.5 1
vt 0.3125 0.200000003
vt 0.3125 0
vt 0.3125 0.400000006
vt 0.375 0.600000024
vt 0.5 0.800000012
vt 0.5625 1
vt 0.375 0.200000003
vt 0.375 0
vt 0.375 0.400000006
vt 0.4375 0.600000024
vt 0.5625 0.800000012
vt 0.625 1
vt 0.4375 0.200000003
vt 0.4375 0
vt 0.4375 0.400000006
vt 0.5 0.600000024
vt 0.625 0.800000012
vt 0.6875 1
vt 0.5 0.200000003
vt 0.5 0
vt 0.5 0.400000006
vt 0.5625 0.600000024
vt 0.6875 0.800000012
vt 0.75 1
vt 0.5625 0.200000003
vt 0.5625 0
vt 0.5625 0.400000006
vt 0.625 0.600000024
vt 0.75 0.800000012
vt 0.8125 1
vt 0.625 0.200000003
vt 0.625 0
vt 0.625 0.400000006
vt 0.6875 0.600000024
vt 0.8125 0.800000012
vt 0.875 1
vt 0.6875 0.200000003
vt 0.6875 0
vt 0.6875 0.400000006
vt 0.75 0.600000024
vt 0.875 0.800000012
vt 0.9375 1
vt 0.75 0.200000003
vt 0.75 0
vt 0.75 0.400000006
vt 0.8125 0.600000024
vt 0.9375 0.800000012
vt 1 0.5
vt 0.8125 0.200000003
vt 0.8125 0
vt 0.8125 0.400000006
vt 0.875 0.600000024
vt 0.875 0.200000003
vt 0.875 0
vt 0.875 0.400000006
vt 0.9375 0.600000024
vt 0.9375 0.400000006
vt 0.9375 0.200000003
vt 0.9375 0
vn 0.984650731 0 -0.174536124
vn 0.955848098 0.043306496 -0.290652722
vn 0.96351397 0.030318616 -0.265935153
vn 0.884533703 0.0638409629 -0.462087005
vn 0.895559847 0.0453895591 -0.44261986
vn 0.78441143 0.0847026184 -0.61443001
vn 0.962936759 0.0100981519 -0.269538373
vn 0.797354937 0.0615724623 -0.600361347
vn 0.658911228 0.102352813 -0.745224714
vn 0.896035552 0.0151004512 -0.443725556
vn 0.962936759 -0.0100981519 -0.269538373
vn 0.672142506 0.0753643438 -0.7365762
vn 0.512746453 0.116375186 -0.850616157
vn 0.96351397 -0.030318616 -0.265935153
vn 0.955848098 -0.043306496 -0.290652722
vn 0.896035552 -0.0151004512 -0.443725556
vn 0.798433721 0.0204676129 -0.601734698
vn 0.895560324 -0.0453776382 -0.442620128
vn 0.884535074 -0.063817136 -0.462087721
vn 0.524478614 0.0862604007 -0.84704262
vn 0.350745887 0.126421511 -0.927898109
vn 0.798525453 -0.0204640031 -0.601613104
vn 0.797354937 -0.0615724623 -0.600361347
vn 0.78441143 -0.0847026184 -0.61443001
vn 0.673791289 0.0250166487 -0.738498151
vn 0.359536618 0.0941403061 -0.928370059
vn 0.178042978 0.132647127 -0.975041211
vn 0.672142506 -0.0753643438 -0.7365762
vn 0.659005821 -0.102367498 -0.745139062
vn 0.673791468 -0.0250047259 -0.73849833
vn 0.526208639 0.0285749566 -0.849875271
vn 0.182733491 0.0989244729 -0.978172958
vn -5.81842469E-05 0.134753719 -0.990879118
vn 0.524478614 -0.0862604007 -0.84704262
vn 0.512746453 -0.116375186 -0.850616157
vn 0.526208639 -0.0285749566 -0.849875271
vn 0.360934198 0.0311438162 -0.932071209
vn -9.19759623E-06 0.100552641 -0.994931757
vn -0.178134605 0.132740125 -0.975011826
vn 0.359535813 -0.0941641405 -0.928368032
vn 0.350806773 -0.126491889 -0.927865446
vn 0.360933989 -0.0311557371 -0.932070792
vn 0.183555752 0.0327130258 -0.98246485
vn -0.182778284 0.0990189388 -0.978155077
vn -0.35079819 0.12668249 -0.927842796
vn 0.18269822 -0.0989535078 -0.978176653
vn 0.178042978 -0.132647127 -0.975041211
vn 0.18352133 -0.0327068903 -0.982471526
vn -9.03912951E-06 0.0332258195 -0.999447882
vn -0.359530926 0.0943071321 -0.928355396
vn -0.512813389 0.116680272 -0.850534022
vn -9.29008456E-06 -0.100533359 -0.994933665
vn -5.81779423E-05 -0.134727821 -0.990882576
vn -9.03193632E-06 -0.0332258195 -0.999447882
vn -0.18356736 0.0327185169 -0.982462406
vn -0.524467826 0.0864987597 -0.847025096
vn -0.658885241 0.102734081 -0.745195329
vn -0.182778284 -0.0990189388 -0.978155077
vn -0.178134605 -0.132740125 -0.975011826
vn -0.18356736 -0.0327185169 -0.982462406
vn -0.360933483 0.0312034171 -0.932069421
vn -0.672116578 0.0756946355 -0.736566126
vn -0.784398079 0.0852021948 -0.614377916
vn -0.359530926 -0.0943071321 -0.928355396
vn -0.35079819 -0.12668249 -0.927842796
vn -0.360933483 -0.0312034171 -0.932069421
vn -0.52627641 0.0286569633 -0.849830508
vn -0.797333837 0.0620015599 -0.600345433
vn -0.884499729 0.06443692 -0.462069273
vn -0.524466634 -0.0865225941 -0.847023308
vn -0.512729168 -0.116661102 -0.850587428
vn -0.52627629 -0.0286688861 -0.84983021
vn -0.67378968 0.0251120254 -0.738496363
vn -0.89553988 0.0458782651 -0.442609996
vn -0.955745518 0.0440988317 -0.290870756
vn -0.672117829 -0.0756708011 -0.736567438
vn -0.659074426 -0.102763586 -0.745023906
vn -0.67369467 -0.0251084846 -0.738583148
vn -0.798431575 0.0205987226 -0.601733088
vn -0.963544965 0.0309281349 -0.265752852
vn -0.984722078 0 -0.174133509
vn -0.797333837 -0.0620015599 -0.600345433
vn -0.784216166 -0.0851344168 -0.614619553
vn -0.798431575 -0.0205987226 -0.601733088
vn -0.896033347 0.0152613726 -0.443724394
vn -0.895540833 -0.0458544232 -0.442610413
vn -0.884499729 -0.06443692 -0.462069273
vn -0.896033287 -0.0152673321 -0.443724364
vn -0.962934613 0.010303786 -0.269537777
vn -0.962934613 -0.010303786 -0.269537777
vn -0.963544548 -0.0309400521 -0.265752733
vn -0.955744982 -0.0441107526 -0.290870577
g FX_m_sphere_02_0
f 3/3/3 2/2/2 1/1/1
f 4/4/4 2/2/2 3/3/3
f 5/5/5 4/4/4 3/3/3
f 6/6/6 4/4/4 5/5/5
f 7/7/7 3/3/3 1/1/1
f 5/5/5 3/3/3 7/7/7
f 8/8/8 6/6/6 5/5/5
f 9/9/9 6/6/6 8/8/8
f 10/10/10 5/5/5 7/7/7
f 8/8/8 5/5/5 10/10/10
f 11/11/11 7/7/7 1/1/1
f 10/10/10 7/7/7 11/11/11
f 12/12/12 9/9/9 8/8/8
f 13/13/13 9/9/9 12/12/12
f 14/14/14 11/11/11 1/1/1
f 15/15/15 14/14/14 1/1/1
f 16/16/16 10/10/10 11/11/11
f 16/16/16 11/11/11 14/14/14
f 17/17/17 8/8/8 10/10/10
f 12/12/12 8/8/8 17/17/17
f 17/17/17 10/10/10 16/16/16
f 18/18/18 14/14/14 15/15/15
f 18/18/18 16/16/16 14/14/14
f 19/19/19 18/18/18 15/15/15
f 20/20/20 13/13/13 12/12/12
f 21/21/21 13/13/13 20/20/20
f 22/22/22 17/17/17 16/16/16
f 22/22/22 16/16/16 18/18/18
f 23/23/23 18/18/18 19/19/19
f 23/23/23 22/22/22 18/18/18
f 24/24/24 23/23/23 19/19/19
f 25/25/25 12/12/12 17/17/17
f 25/25/25 17/17/17 22/22/22
f 20/20/20 12/12/12 25/25/25
f 26/26/26 21/21/21 20/20/20
f 27/27/27 21/21/21 26/26/26
f 28/28/28 23/23/23 24/24/24
f 29/29/29 28/28/28 24/24/24
f 30/30/30 22/22/22 23/23/23
f 30/30/30 25/25/25 22/22/22
f 28/28/28 30/30/30 23/23/23
f 31/31/31 20/20/20 25/25/25
f 31/31/31 25/25/25 30/30/30
f 26/26/26 20/20/20 31/31/31
f 32/32/32 27/27/27 26/26/26
f 33/33/33 27/27/27 32/32/32
f 34/34/34 28/28/28 29/29/29
f 35/35/35 34/34/34 29/29/29
f 36/36/36 30/30/30 28/28/28
f 36/36/36 31/31/31 30/30/30
f 34/34/34 36/36/36 28/28/28
f 37/37/37 26/26/26 31/31/31
f 37/37/37 31/31/31 36/36/36
f 32/32/32 26/26/26 37/37/37
f 38/38/38 33/33/33 32/32/32
f 39/39/39 33/33/33 38/38/38
f 40/40/40 34/34/34 35/35/35
f 41/41/41 40/40/40 35/35/35
f 42/42/42 36/36/36 34/34/34
f 42/42/42 37/37/37 36/36/36
f 40/40/40 42/42/42 34/34/34
f 43/43/43 32/32/32 37/37/37
f 43/43/43 37/37/37 42/42/42
f 38/38/38 32/32/32 43/43/43
f 44/44/44 39/39/39 38/38/38
f 45/45/45 39/39/39 44/44/44
f 46/46/46 40/40/40 41/41/41
f 47/47/47 46/46/46 41/41/41
f 48/48/48 42/42/42 40/40/40
f 48/48/48 43/43/43 42/42/42
f 46/46/46 48/48/48 40/40/40
f 49/49/49 38/38/38 43/43/43
f 49/49/49 43/43/43 48/48/48
f 44/44/44 38/38/38 49/49/49
f 50/50/50 45/45/45 44/44/44
f 51/51/51 45/45/45 50/50/50
f 52/52/52 46/46/46 47/47/47
f 53/53/53 52/52/52 47/47/47
f 54/54/54 48/48/48 46/46/46
f 54/54/54 49/49/49 48/48/48
f 52/52/52 54/54/54 46/46/46
f 55/55/55 44/44/44 49/49/49
f 55/55/55 49/49/49 54/54/54
f 50/50/50 44/44/44 55/55/55
f 56/56/56 51/51/51 50/50/50
f 57/57/57 51/51/51 56/56/56
f 58/58/58 52/52/52 53/53/53
f 59/59/59 58/58/58 53/53/53
f 60/60/60 54/54/54 52/52/52
f 60/60/60 55/55/55 54/54/54
f 58/58/58 60/60/60 52/52/52
f 61/61/61 50/50/50 55/55/55
f 61/61/61 55/55/55 60/60/60
f 56/56/56 50/50/50 61/61/61
f 62/62/62 57/57/57 56/56/56
f 63/63/63 57/57/57 62/62/62
f 64/64/64 58/58/58 59/59/59
f 65/65/65 64/64/64 59/59/59
f 66/66/66 60/60/60 58/58/58
f 66/66/66 61/61/61 60/60/60
f 64/64/64 66/66/66 58/58/58
f 67/67/67 56/56/56 61/61/61
f 67/67/67 61/61/61 66/66/66
f 62/62/62 56/56/56 67/67/67
f 68/68/68 63/63/63 62/62/62
f 69/69/69 63/63/63 68/68/68
f 70/70/70 64/64/64 65/65/65
f 71/71/71 70/70/70 65/65/65
f 72/72/72 66/66/66 64/64/64
f 72/72/72 67/67/67 66/66/66
f 70/70/70 72/72/72 64/64/64
f 73/73/73 62/62/62 67/67/67
f 73/73/73 67/67/67 72/72/72
f 68/68/68 62/62/62 73/73/73
f 74/74/74 69/69/69 68/68/68
f 75/75/75 69/69/69 74/74/74
f 76/76/76 70/70/70 71/71/71
f 77/77/77 76/76/76 71/71/71
f 78/78/78 72/72/72 70/70/70
f 78/78/78 73/73/73 72/72/72
f 76/76/76 78/78/78 70/70/70
f 79/79/79 68/68/68 73/73/73
f 79/79/79 73/73/73 78/78/78
f 74/74/74 68/68/68 79/79/79
f 80/80/80 75/75/75 74/74/74
f 80/80/80 81/81/81 75/75/75
f 82/82/82 76/76/76 77/77/77
f 83/83/83 82/82/82 77/77/77
f 84/84/84 78/78/78 76/76/76
f 84/84/84 79/79/79 78/78/78
f 82/82/82 84/84/84 76/76/76
f 85/85/85 74/74/74 79/79/79
f 80/80/80 74/74/74 85/85/85
f 85/85/85 79/79/79 84/84/84
f 86/86/86 82/82/82 83/83/83
f 87/87/87 86/86/86 83/83/83
f 88/88/88 84/84/84 82/82/82
f 88/88/88 85/85/85 84/84/84
f 86/86/86 88/88/88 82/82/82
f 89/89/89 80/80/80 85/85/85
f 89/89/89 85/85/85 88/88/88
f 89/89/89 81/81/81 80/80/80
f 90/90/90 89/89/89 88/88/88
f 90/90/90 88/88/88 86/86/86
f 90/90/90 81/81/81 89/89/89
f 91/91/91 86/86/86 87/87/87
f 91/91/91 90/90/90 86/86/86
f 91/91/91 81/81/81 90/90/90
f 92/92/92 91/91/91 87/87/87
f 92/92/92 81/81/81 91/91/91
