g FX_m_plane_05
v 2.2961514 -0.000680736033 0
v 3.06153512 0.0135272872 0
v 3.06153488 -0.00129575422 0
v 2.2961514 0.138720512 0
v 1.53076696 -0.000680723926 0
v 3.06153512 0.0210871454 0
v 1.53076684 0.233576104 0
v 4.72354884E-07 -0.000680723926 0
v 2.2961514 0.248727843 0
v 3.06153512 0.0291523505 0
v 2.2961514 0.351938248 0
v 1.53076768 0.415796548 0
v 1.53076768 0.55136627 0
v 4.67152745E-07 0.781368554 0
v 4.67152745E-07 0.33407554 0
v -1.53076625 -0.000694398012 0
v 4.84466568E-07 0.637243807 0
v -1.53076625 0.89732933 0
v -1.53076625 0.374280542 0
v -2.29614925 -0.000694882474 0
v -1.53076625 0.750696361 0
v -2.29614925 0.374397844 0
v -3.0615325 -0.000695984636 0
v -3.0615325 0.374312669 0
v -3.06523514 0.815972209 0
v -2.29244685 0.787269413 0
v -2.29614925 0.934004247 0
v -3.0615325 0.962792099 0
vt 0.873915732 0.000929355621
vt 0.998760819 0.333952904
vt 0.998760819 0.000929355621
vt 0.873915732 0.335192055
vt 0.749070644 0.000929355621
vt 0.998760819 0.666976452
vt 0.749070644 0.335192055
vt 0.49938041 0.000929355621
vt 0.873915732 0.668215632
vt 0.998760819 1
vt 0.873915732 1
vt 0.749070644 0.668215632
vt 0.749070644 1
vt 0.49938041 1
vt 0.49938041 0.333952904
vt 0.249690205 0.000929355621
vt 0.49938041 0.666976452
vt 0.249690205 1
vt 0.249690205 0.333952904
vt 0.124845102 0.000929355621
vt 0.249690205 0.666976452
vt 0.124845102 0.333952904
vt 0 0.000929355621
vt 0 0.333952904
vt 0 0.666976452
vt 0.124845102 0.666976452
vt 0.124845102 1
vt 0 1
vn -0 0 1
vn -0 0 1
vn -0 0 1
vn -0 0 1
vn -0 0 1
vn -0 0 1
vn -0 0 1
vn -0 0 1
vn -0 0 1
vn -0 0 1
vn -0 0 1
vn -0 0 1
vn -0 0 1
vn -0 0 1
vn -0 0 1
vn -0 0 1
vn -0 0 1
vn -0 0 1
vn -0 0 1
vn -0 0 1
vn -0 0 1
vn -0 0 1
vn -0 0 1
vn -0 0 1
vn -0 0 1
vn -0 0 1
vn -0 0 1
vn -0 0 1
g FX_m_plane_05_0
f 3/3/3 2/2/2 1/1/1
f 2/2/2 4/4/4 1/1/1
f 1/1/1 4/4/4 5/5/5
f 2/2/2 6/6/6 4/4/4
f 4/4/4 7/7/7 5/5/5
f 5/5/5 7/7/7 8/8/8
f 6/6/6 9/9/9 4/4/4
f 4/4/4 9/9/9 7/7/7
f 6/6/6 10/10/10 9/9/9
f 10/10/10 11/11/11 9/9/9
f 9/9/9 11/11/11 12/12/12
f 9/9/9 12/12/12 7/7/7
f 11/11/11 13/13/13 12/12/12
f 12/12/12 13/13/13 14/14/14
f 7/7/7 15/15/15 8/8/8
f 7/7/7 12/12/12 15/15/15
f 8/8/8 15/15/15 16/16/16
f 17/17/17 12/12/12 14/14/14
f 12/12/12 17/17/17 15/15/15
f 17/17/17 14/14/14 18/18/18
f 15/15/15 19/19/19 16/16/16
f 15/15/15 17/17/17 19/19/19
f 16/16/16 19/19/19 20/20/20
f 21/21/21 17/17/17 18/18/18
f 17/17/17 21/21/21 19/19/19
f 19/19/19 22/22/22 20/20/20
f 19/19/19 21/21/21 22/22/22
f 20/20/20 22/22/22 23/23/23
f 22/22/22 24/24/24 23/23/23
f 24/24/24 22/22/22 25/25/25
f 21/21/21 18/18/18 26/26/26
f 21/21/21 26/26/26 22/22/22
f 22/22/22 26/26/26 25/25/25
f 18/18/18 27/27/27 26/26/26
f 26/26/26 27/27/27 25/25/25
f 27/27/27 28/28/28 25/25/25
