g general_ring_70
v 0.072136797 0.664143503 0
v -5.78143471E-08 0.590992391 0
v -6.45455245E-08 0.667988241 0
v 0.0639526621 0.587583959 0
v 0.14345634 0.652652919 0
v 0.127180934 0.577396929 0
v 5.41147145E-08 0.667988241 0
v 4.738353E-08 0.590992391 0
v -0.063952677 0.587583959 0
v -0.0721368119 0.664143503 0
v -0.127180785 0.577396929 0
v -0.143456504 0.6526528 0
v -0.188967898 0.560546935 0
v -0.213150591 0.633646429 0
v -0.248613909 0.537224829 0
v -0.28042978 0.60733968 0
v -0.305443019 0.5076949 0
v -0.344531268 0.574030817 0
v -0.344531268 0.574030817 0
v -0.305443019 0.5076949 0
v -0.358811378 0.472291648 0
v -0.404729247 0.534096897 0
v -0.404729247 0.534096897 0
v -0.358811378 0.472291648 0
v -0.408114225 0.431416214 0
v -0.460341483 0.487990558 0
v -0.452793002 0.385531843 0
v -0.510737956 0.436234176 0
v -0.492341429 0.335158348 0
v -0.555347443 0.37941426 0
v -0.526311338 0.280866563 0
v -0.593664587 0.318174541 0
v -0.55431813 0.22327137 0
v -0.625255346 0.253208935 0
v -0.576044202 0.163025677 0
v -0.649761677 0.185253441 0
v -0.591243446 0.100811899 0
v -0.666905999 0.115078151 0
v -0.666905999 0.115078151 0
v -0.591243446 0.100811899 0
v -0.599743664 0.0373350978 0
v -0.676493943 0.0434780717 0
v -0.676493943 0.0434780717 0
v -0.599743664 0.0373350978 0
v -0.601448536 -0.0266857147 0
v -0.678416967 -0.0287355781 0
v -0.596338749 -0.0905250311 0
v -0.672653258 -0.100744545 0
v -0.672653258 -0.100744545 0
v -0.596338749 -0.0905250311 0
v -0.584472239 -0.153459549 0
v -0.659268141 -0.171732903 0
v -0.659268141 -0.171732903 0
v -0.584472239 -0.153459549 0
v -0.565983415 -0.214776218 0
v -0.63841325 -0.240896374 0
v -0.541081786 -0.273780257 0
v -0.61032486 -0.307451248 0
v -0.510049462 -0.329803139 0
v -0.575321257 -0.370643467 0
v -0.473238051 -0.382210165 0
v -0.533798993 -0.429757059 0
v -0.431064665 -0.430407435 0
v -0.486228615 -0.484122217 0
v -0.384007245 -0.473848879 0
v -0.43314907 -0.533122957 0
v -0.332598746 -0.512042284 0
v -0.375161797 -0.576204062 0
v -0.277421832 -0.544555008 0
v -0.312923759 -0.612877488 0
v -0.219101608 -0.571018577 0
v -0.247140169 -0.642727613 0
v -0.158298865 -0.591133177 0
v -0.178556383 -0.665416241 0
v -0.0957025513 -0.604670882 0
v -0.107949503 -0.680686355 0
v -0.0320218801 -0.611478269 0
v -0.0361194909 -0.688364923 0
v 0.0320216194 -0.611478329 0
v 0.0361197665 -0.688364863 0
v 0.0957022905 -0.604670882 0
v 0.107949756 -0.680686295 0
v 0.158298627 -0.591133237 0
v 0.178556666 -0.665416181 0
v 0.219101369 -0.571018696 0
v 0.247140437 -0.642727494 0
v 0.277421623 -0.544555128 0
v 0.312923998 -0.612877369 0
v 0.332598567 -0.512042463 0
v 0.375162005 -0.576203883 0
v 0.384007007 -0.473849028 0
v 0.433149338 -0.533122778 0
v 0.431064516 -0.430407584 0
v 0.486228794 -0.484122068 0
v 0.473237902 -0.382210314 0
v 0.533799171 -0.42975691 0
v 0.533799171 -0.42975691 0
v 0.473237902 -0.382210314 0
v 0.510049343 -0.329803318 0
v 0.575321376 -0.370643288 0
v 0.541081667 -0.273780465 0
v 0.610324979 -0.30745104 0
v 0.565983355 -0.214776427 0
v 0.63841331 -0.240896136 0
v 0.63841331 -0.240896136 0
v 0.565983355 -0.214776427 0
v 0.584472179 -0.153459787 0
v 0.6592682 -0.171732664 0
v 0.596338749 -0.0905252099 0
v 0.672653317 -0.100744307 0
v 0.672653317 -0.100744307 0
v 0.596338749 -0.0905252099 0
v 0.601448536 -0.0266858935 0
v 0.678416967 -0.0287353396 0
v 0.678416967 -0.0287353396 0
v 0.601448536 -0.0266858935 0
v 0.599743664 0.0373348594 0
v 0.676493883 0.0434783101 0
v 0.591243505 0.10081172 0
v 0.66690594 0.11507833 0
v 0.66690594 0.11507833 0
v 0.591243505 0.10081172 0
v 0.576044261 0.163025379 0
v 0.649761617 0.185253739 0
v 0.649761617 0.185253739 0
v 0.576044261 0.163025379 0
v 0.554318249 0.223271191 0
v 0.625255227 0.253209174 0
v 0.526311576 0.280866206 0
v 0.593664348 0.318175018 0
v 0.492341608 0.33515811 0
v 0.555347264 0.379414499 0
v 0.555347264 0.379414499 0
v 0.492341608 0.33515811 0
v 0.452793211 0.385531604 0
v 0.510737717 0.436234415 0
v 0.408114344 0.431416214 0
v 0.460341334 0.487990797 0
v 0.358811498 0.472291529 0
v 0.404729128 0.534096897 0
v 0.404729128 0.534096897 0
v 0.358811498 0.472291529 0
v 0.305443168 0.507694781 0
v 0.344531119 0.574030817 0
v 0.248614177 0.53722471 0
v 0.280429482 0.607339799 0
v 0.188968018 0.560546815 0
v 0.213150457 0.633646429 0
v 0.127180934 0.577396929 0
v 0.14345634 0.652652919 0
vt 0.983050823 0
vt 1 1
vt 1 0
vt 0.983050823 1
vt 0.966101646 0
vt 0.966101646 1
vt 0 0
vt 0 1
vt 0.0169491563 1
vt 0.0169491526 0
vt 0.0338983089 1
vt 0.0338983014 0
vt 0.0508474708 1
vt 0.0508474559 0
vt 0.0677966177 1
vt 0.0677966028 0
vt 0.0847457796 1
vt 0.0847457647 0
vt 0.0847457647 0
vt 0.0847457796 1
vt 0.101694942 1
vt 0.101694912 0
vt 0.101694912 0
vt 0.101694942 1
vt 0.118644089 1
vt 0.118644059 0
vt 0.135593235 1
vt 0.135593206 0
vt 0.152542397 1
vt 0.152542368 0
vt 0.169491559 1
vt 0.169491515 0
vt 0.186440706 1
vt 0.186440676 0
vt 0.203389853 1
vt 0.203389823 0
vt 0.220339 1
vt 0.22033897 0
vt 0.22033897 0
vt 0.220339 1
vt 0.237288177 1
vt 0.237288117 0
vt 0.237288117 0
vt 0.237288177 1
vt 0.254237294 1
vt 0.254237235 0
vt 0.271186471 1
vt 0.271186411 0
vt 0.271186411 0
vt 0.271186471 1
vt 0.288135588 1
vt 0.288135529 0
vt 0.288135529 0
vt 0.288135588 1
vt 0.305084795 1
vt 0.305084705 0
vt 0.322033942 1
vt 0.322033882 0
vt 0.338983059 1
vt 0.338983059 0
vt 0.355932236 1
vt 0.355932176 0
vt 0.372881353 1
vt 0.372881353 0
vt 0.38983053 1
vt 0.38983053 0
vt 0.406779706 1
vt 0.406779647 0
vt 0.423728883 1
vt 0.423728824 0
vt 0.44067806 1
vt 0.440677941 0
vt 0.457627177 1
vt 0.457627118 0
vt 0.474576354 1
vt 0.474576294 0
vt 0.491525531 1
vt 0.491525471 0
vt 0.508474708 1
vt 0.508474588 0
vt 0.525423765 1
vt 0.525423765 0
vt 0.542372942 1
vt 0.542372823 0
vt 0.559322119 1
vt 0.559322 0
vt 0.576271296 1
vt 0.576271176 0
vt 0.593220472 1
vt 0.593220353 0
vt 0.610169649 1
vt 0.61016953 0
vt 0.627118766 1
vt 0.627118647 0
vt 0.644067883 1
vt 0.644067764 0
vt 0.644067764 0
vt 0.644067883 1
vt 0.66101706 1
vt 0.661016941 0
vt 0.677966237 1
vt 0.677966118 0
vt 0.694915295 1
vt 0.694915295 0
vt 0.694915295 0
vt 0.694915295 1
vt 0.711864471 1
vt 0.711864471 0
vt 0.728813648 1
vt 0.728813648 0
vt 0.728813648 0
vt 0.728813648 1
vt 0.745762825 1
vt 0.745762825 0
vt 0.745762825 0
vt 0.745762825 1
vt 0.762712002 1
vt 0.762711942 0
vt 0.779661179 1
vt 0.779661119 0
vt 0.779661119 0
vt 0.779661179 1
vt 0.796610355 1
vt 0.796610236 0
vt 0.796610236 0
vt 0.796610355 1
vt 0.813559413 1
vt 0.813559294 0
vt 0.830508649 1
vt 0.830508471 0
vt 0.847457767 1
vt 0.847457647 0
vt 0.847457647 0
vt 0.847457767 1
vt 0.864406943 1
vt 0.864406824 0
vt 0.88135612 1
vt 0.881356001 0
vt 0.898305178 1
vt 0.898305058 0
vt 0.898305058 0
vt 0.898305178 1
vt 0.915254354 1
vt 0.915254235 0
vt 0.932203412 1
vt 0.932203412 0
vt 0.949152589 1
vt 0.949152589 0
vt 0.966101646 1
vt 0.966101646 0
vn -0 0 1
vn -0 0 1
vn -0 0 1
vn -0 0 1
vn -0 0 1
vn -0 0 1
vn -0 0 1
vn -0 0 1
vn -0 0 1
vn -0 0 1
vn -0 0 1
vn -0 0 1
vn -0 0 1
vn -0 0 1
vn -0 0 1
vn -0 0 1
vn -0 0 1
vn -0 0 1
vn -0 0 1
vn -0 0 1
vn -0 0 1
vn -0 0 1
vn -0 0 1
vn -0 0 1
vn -0 0 1
vn -0 0 1
vn -0 0 1
vn -0 0 1
vn -0 0 1
vn -0 0 1
vn -0 0 1
vn -0 0 1
vn -0 0 1
vn -0 0 1
vn -0 0 1
vn -0 0 1
vn -0 0 1
vn -0 0 1
vn -0 0 1
vn -0 0 1
vn -0 0 1
vn -0 0 1
vn -0 0 1
vn -0 0 1
vn -0 0 1
vn -0 0 1
vn -0 0 1
vn -0 0 1
vn -0 0 1
vn -0 0 1
vn -0 0 1
vn -0 0 1
vn -0 0 1
vn -0 0 1
vn -0 0 1
vn -0 0 1
vn -0 0 1
vn -0 0 1
vn -0 0 1
vn -0 0 1
vn -0 0 1
vn -0 0 1
vn -0 0 1
vn -0 0 1
vn -0 0 1
vn -0 0 1
vn -0 0 1
vn -0 0 1
vn -0 0 1
vn -0 0 1
vn -0 0 1
vn -0 0 1
vn -0 0 1
vn -0 0 1
vn -0 0 1
vn -0 0 1
vn -0 0 1
vn -0 0 1
vn -0 0 1
vn -0 0 1
vn -0 0 1
vn -0 0 1
vn -0 0 1
vn -0 0 1
vn -0 0 1
vn -0 0 1
vn -0 0 1
vn -0 0 1
vn -0 0 1
vn -0 0 1
vn -0 0 1
vn -0 0 1
vn -0 0 1
vn -0 0 1
vn -0 0 1
vn -0 0 1
vn -0 0 1
vn -0 0 1
vn -0 0 1
vn -0 0 1
vn -0 0 1
vn -0 0 1
vn -0 0 1
vn -0 0 1
vn -0 0 1
vn -0 0 1
vn -0 0 1
vn -0 0 1
vn -0 0 1
vn -0 0 1
vn -0 0 1
vn -0 0 1
vn -0 0 1
vn -0 0 1
vn -0 0 1
vn -0 0 1
vn -0 0 1
vn -0 0 1
vn -0 0 1
vn -0 0 1
vn -0 0 1
vn -0 0 1
vn -0 0 1
vn -0 0 1
vn -0 0 1
vn -0 0 1
vn -0 0 1
vn -0 0 1
vn -0 0 1
vn -0 0 1
vn -0 0 1
vn -0 0 1
vn -0 0 1
vn -0 0 1
vn -0 0 1
vn -0 0 1
vn -0 0 1
vn -0 0 1
vn -0 0 1
vn -0 0 1
vn -0 0 1
vn -0 0 1
vn -0 0 1
vn -0 0 1
vn -0 0 1
vn -0 0 1
vn -0 0 1
vn -0 0 1
vn -0 0 1
vn -0 0 1
g general_ring_70_0
f 3/3/3 2/2/2 1/1/1
f 2/2/2 4/4/4 1/1/1
f 1/1/1 4/4/4 5/5/5
f 4/4/4 6/6/6 5/5/5
f 9/9/9 8/8/8 7/7/7
f 10/10/10 9/9/9 7/7/7
f 11/11/11 9/9/9 10/10/10
f 12/12/12 11/11/11 10/10/10
f 13/13/13 11/11/11 12/12/12
f 14/14/14 13/13/13 12/12/12
f 15/15/15 13/13/13 14/14/14
f 16/16/16 15/15/15 14/14/14
f 17/17/17 15/15/15 16/16/16
f 18/18/18 17/17/17 16/16/16
f 21/21/21 20/20/20 19/19/19
f 22/22/22 21/21/21 19/19/19
f 25/25/25 24/24/24 23/23/23
f 26/26/26 25/25/25 23/23/23
f 27/27/27 25/25/25 26/26/26
f 28/28/28 27/27/27 26/26/26
f 29/29/29 27/27/27 28/28/28
f 30/30/30 29/29/29 28/28/28
f 31/31/31 29/29/29 30/30/30
f 32/32/32 31/31/31 30/30/30
f 33/33/33 31/31/31 32/32/32
f 34/34/34 33/33/33 32/32/32
f 35/35/35 33/33/33 34/34/34
f 36/36/36 35/35/35 34/34/34
f 37/37/37 35/35/35 36/36/36
f 38/38/38 37/37/37 36/36/36
f 41/41/41 40/40/40 39/39/39
f 42/42/42 41/41/41 39/39/39
f 45/45/45 44/44/44 43/43/43
f 46/46/46 45/45/45 43/43/43
f 47/47/47 45/45/45 46/46/46
f 48/48/48 47/47/47 46/46/46
f 51/51/51 50/50/50 49/49/49
f 52/52/52 51/51/51 49/49/49
f 55/55/55 54/54/54 53/53/53
f 56/56/56 55/55/55 53/53/53
f 57/57/57 55/55/55 56/56/56
f 58/58/58 57/57/57 56/56/56
f 59/59/59 57/57/57 58/58/58
f 60/60/60 59/59/59 58/58/58
f 61/61/61 59/59/59 60/60/60
f 62/62/62 61/61/61 60/60/60
f 63/63/63 61/61/61 62/62/62
f 64/64/64 63/63/63 62/62/62
f 65/65/65 63/63/63 64/64/64
f 66/66/66 65/65/65 64/64/64
f 67/67/67 65/65/65 66/66/66
f 68/68/68 67/67/67 66/66/66
f 69/69/69 67/67/67 68/68/68
f 70/70/70 69/69/69 68/68/68
f 71/71/71 69/69/69 70/70/70
f 72/72/72 71/71/71 70/70/70
f 73/73/73 71/71/71 72/72/72
f 74/74/74 73/73/73 72/72/72
f 75/75/75 73/73/73 74/74/74
f 76/76/76 75/75/75 74/74/74
f 77/77/77 75/75/75 76/76/76
f 78/78/78 77/77/77 76/76/76
f 79/79/79 77/77/77 78/78/78
f 80/80/80 79/79/79 78/78/78
f 81/81/81 79/79/79 80/80/80
f 82/82/82 81/81/81 80/80/80
f 83/83/83 81/81/81 82/82/82
f 84/84/84 83/83/83 82/82/82
f 85/85/85 83/83/83 84/84/84
f 86/86/86 85/85/85 84/84/84
f 87/87/87 85/85/85 86/86/86
f 88/88/88 87/87/87 86/86/86
f 89/89/89 87/87/87 88/88/88
f 90/90/90 89/89/89 88/88/88
f 91/91/91 89/89/89 90/90/90
f 92/92/92 91/91/91 90/90/90
f 93/93/93 91/91/91 92/92/92
f 94/94/94 93/93/93 92/92/92
f 95/95/95 93/93/93 94/94/94
f 96/96/96 95/95/95 94/94/94
f 99/99/99 98/98/98 97/97/97
f 100/100/100 99/99/99 97/97/97
f 101/101/101 99/99/99 100/100/100
f 102/102/102 101/101/101 100/100/100
f 103/103/103 101/101/101 102/102/102
f 104/104/104 103/103/103 102/102/102
f 107/107/107 106/106/106 105/105/105
f 108/108/108 107/107/107 105/105/105
f 109/109/109 107/107/107 108/108/108
f 110/110/110 109/109/109 108/108/108
f 113/113/113 112/112/112 111/111/111
f 114/114/114 113/113/113 111/111/111
f 117/117/117 116/116/116 115/115/115
f 118/118/118 117/117/117 115/115/115
f 119/119/119 117/117/117 118/118/118
f 120/120/120 119/119/119 118/118/118
f 123/123/123 122/122/122 121/121/121
f 124/124/124 123/123/123 121/121/121
f 127/127/127 126/126/126 125/125/125
f 128/128/128 127/127/127 125/125/125
f 129/129/129 127/127/127 128/128/128
f 130/130/130 129/129/129 128/128/128
f 131/131/131 129/129/129 130/130/130
f 132/132/132 131/131/131 130/130/130
f 135/135/135 134/134/134 133/133/133
f 136/136/136 135/135/135 133/133/133
f 137/137/137 135/135/135 136/136/136
f 138/138/138 137/137/137 136/136/136
f 139/139/139 137/137/137 138/138/138
f 140/140/140 139/139/139 138/138/138
f 143/143/143 142/142/142 141/141/141
f 144/144/144 143/143/143 141/141/141
f 145/145/145 143/143/143 144/144/144
f 146/146/146 145/145/145 144/144/144
f 147/147/147 145/145/145 146/146/146
f 148/148/148 147/147/147 146/146/146
f 149/149/149 147/147/147 148/148/148
f 150/150/150 149/149/149 148/148/148
