g Plane002
v 0.207991078 0.0748014376 0
v 0.282851666 0.0605770685 0
v 0.267813116 0.0210769586 0
v 0.201883659 0.0592835918 0
v 0.242582187 -0.0114199426 0
v 0.188860044 0.0426204614 0
v 0.210284933 -0.0364777148 0
v 0.171428517 0.0290708505 0
v 0.172324717 -0.0523428321 0
v 0.153820783 0.0215762984 0
v 0.135262951 -0.056439966 0
v 0.133965835 0.0197489876 0
v 0.102009468 -0.055165235 0
v 0.108763129 0.0207348783 0
v 0.0692526251 -0.0509041101 0
v 0.0818032995 0.0242551565 0
v 0.0370242409 -0.0446094871 0
v 0.0533792451 0.0298146531 0
v 0.00536183966 -0.0371287428 0
v 0.0237781927 0.0368123353 0
v -0.0256505478 -0.0292414315 0
v -0.0067592226 0.0445796438 0
v -0.0558701009 -0.0216832701 0
v -0.0380510241 0.0524039716 0
v -0.0850937441 -0.015151158 0
v -0.0699755698 0.059534058 0
v -0.113062963 -0.0102915717 0
v -0.102466613 0.0651680678 0
v -0.139484152 -0.00767104328 0
v -0.135493174 0.068424359 0
v -0.164087772 -0.00773823867 0
v -0.168999791 0.0683032945 0
v -0.186755195 -0.0108161513 0
v -0.202780589 0.063679643 0
v -0.193640679 -0.0121466909 0
v -0.244786605 0.0461023226 0
v -0.269786239 0.000143644327 0
v -0.194626302 -0.0131986132 0
v -0.193635225 -0.0299608652 0
v -0.268347561 -0.0449443981 0
v -0.185877696 -0.0527922697 0
v -0.254365623 -0.0861965269 0
v -0.174108565 -0.0700144023 0
v -0.231567502 -0.120063506 0
vt 0 0
vt 0 1
vt 0.0476190485 1
vt 0.0476190485 0
vt 0.095238097 1
vt 0.095238097 0
vt 0.142857149 1
vt 0.142857149 0
vt 0.190476194 1
vt 0.190476194 0
vt 0.238095239 1
vt 0.238095239 0
vt 0.285714298 1
vt 0.285714298 0
vt 0.333333343 1
vt 0.333333343 0
vt 0.380952388 1
vt 0.380952388 0
vt 0.428571433 1
vt 0.428571433 0
vt 0.476190478 1
vt 0.476190478 0
vt 0.523809552 1
vt 0.523809552 0
vt 0.571428597 1
vt 0.571428597 0
vt 0.619047642 1
vt 0.619047642 0
vt 0.666666687 1
vt 0.666666687 0
vt 0.714285731 1
vt 0.714285731 0
vt 0.761904776 1
vt 0.761904776 0
vt 0.809523821 1
vt 0.809523821 0
vt 0.857142866 0
vt 0.857142866 1
vt 0.90476191 1
vt 0.90476191 0
vt 0.952380955 1
vt 0.952380955 0
vt 1 1
vt 1 0
vn -0 0 1
vn -0 0 1
vn -0 0 1
vn -0 0 1
vn -0 0 1
vn -0 0 1
vn -0 0 1
vn -0 0 1
vn -0 0 1
vn -0 0 1
vn -0 0 1
vn -0 0 1
vn -0 0 1
vn -0 0 1
vn -0 0 1
vn -0 0 1
vn -0 0 1
vn -0 0 1
vn -0 0 1
vn -0 0 1
vn -0 0 1
vn -0 0 1
vn -0 0 1
vn -0 0 1
vn -0 0 1
vn -0 0 1
vn -0 0 1
vn -0 0 1
vn -0 0 1
vn -0 0 1
vn -0 0 1
vn -0 0 1
vn -0 0 1
vn -0 0 1
vn -0 0 1
vn -0 0 1
vn -0 0 1
vn -0 0 1
vn -0 0 1
vn -0 0 1
vn -0 0 1
vn -0 0 1
vn -0 0 1
vn -0 0 1
g Plane002_0
f 3/3/3 2/2/2 1/1/1
f 4/4/4 3/3/3 1/1/1
f 5/5/5 3/3/3 4/4/4
f 6/6/6 5/5/5 4/4/4
f 7/7/7 5/5/5 6/6/6
f 8/8/8 7/7/7 6/6/6
f 9/9/9 7/7/7 8/8/8
f 10/10/10 9/9/9 8/8/8
f 11/11/11 9/9/9 10/10/10
f 12/12/12 11/11/11 10/10/10
f 13/13/13 11/11/11 12/12/12
f 14/14/14 13/13/13 12/12/12
f 15/15/15 13/13/13 14/14/14
f 16/16/16 15/15/15 14/14/14
f 17/17/17 15/15/15 16/16/16
f 18/18/18 17/17/17 16/16/16
f 19/19/19 17/17/17 18/18/18
f 20/20/20 19/19/19 18/18/18
f 21/21/21 19/19/19 20/20/20
f 22/22/22 21/21/21 20/20/20
f 23/23/23 21/21/21 22/22/22
f 24/24/24 23/23/23 22/22/22
f 25/25/25 23/23/23 24/24/24
f 26/26/26 25/25/25 24/24/24
f 27/27/27 25/25/25 26/26/26
f 28/28/28 27/27/27 26/26/26
f 29/29/29 27/27/27 28/28/28
f 30/30/30 29/29/29 28/28/28
f 31/31/31 29/29/29 30/30/30
f 32/32/32 31/31/31 30/30/30
f 33/33/33 31/31/31 32/32/32
f 34/34/34 33/33/33 32/32/32
f 35/35/35 33/33/33 34/34/34
f 36/36/36 35/35/35 34/34/34
f 36/36/36 37/37/37 35/35/35
f 37/37/37 38/38/38 35/35/35
f 39/39/39 38/38/38 37/37/37
f 40/40/40 39/39/39 37/37/37
f 41/41/41 39/39/39 40/40/40
f 42/42/42 41/41/41 40/40/40
f 43/43/43 41/41/41 42/42/42
f 44/44/44 43/43/43 42/42/42
