g Cone001
v -0.0975958332 1.80832016 -0.757130563
v -0.114758983 1.87338829 -0.0801886693
v -0.114758983 1.87338829 -0.987469733
v -0.0975958332 1.80832016 0.111684509
v -0.081602335 1.6175524 -0.542488575
v -0.081602335 1.6175524 0.290481836
v -0.0678683892 1.31408358 -0.358171254
v -0.0678683892 1.31408334 0.444018722
v -0.0573299788 0.918594897 -0.216739625
v -0.0573298819 0.91859448 0.561831594
v -0.0507052876 0.458038718 -0.12783204
v -0.0507051907 0.458038509 0.635891914
v -0.0484456867 -0.0361987576 -0.0975072831
v -0.0484455898 -0.0361989513 0.661152482
v -0.0507052392 -0.530437887 -0.12783213
v -0.0507052392 -0.530437887 0.635891914
v -0.0573299788 -0.990993559 -0.216739863
v -0.0573299304 -0.990993559 0.561831474
v -0.0678684339 -1.38648188 -0.358171701
v -0.0678683892 -1.38648188 0.444018424
v -0.081602335 -1.68995035 -0.542488992
v -0.0816022828 -1.68995035 0.290481627
v -0.0975958854 -1.88071871 -0.75713104
v -0.0975959823 -1.88071871 0.111684121
v -0.114759028 -1.945786 -0.987470329
v -0.114759028 -1.945786 -0.0801891312
v -0.131922185 -1.88071835 -1.21780944
v -0.131922185 -1.88071835 -0.272062272
v -0.147915632 -1.68994951 -1.43245125
v -0.147915721 -1.68994951 -0.450859576
v -0.161649629 -1.38648021 -1.61676884
v -0.161649629 -1.38648021 -0.604396462
v -0.172188029 -0.990991533 -1.75820041
v -0.172188029 -0.990991533 -0.722209275
v -0.178812727 -0.530435562 -1.84710777
v -0.178812817 -0.530435562 -0.796269596
v -0.181072325 -0.0361981764 -1.87743247
v -0.181072369 -0.0361983702 -0.821529984
v -0.178812772 0.458039284 -1.84710777
v -0.178812817 0.458039105 -0.796269357
v -0.172187984 0.918595493 -1.75820005
v -0.172188029 0.918595254 -0.722208917
v -0.161649585 1.31408358 -1.61676824
v -0.161649629 1.31408358 -0.604396045
v -0.147915632 1.6175524 -1.43245089
v -0.147915721 1.6175524 -0.450859308
v -0.131922126 1.80832064 -1.21780884
v -0.131922126 1.80832064 -0.272061855
v -0.114758983 1.87338829 -0.987469733
v -0.114758983 1.87338829 -0.0801886693
vt 0.958333313 0
vt 0.99999994 1
vt 0.99999994 0
vt 0.958333313 1
vt 0.916666687 0
vt 0.916666687 1
vt 0.875 0
vt 0.875 1
vt 0.833333313 0
vt 0.833333313 1
vt 0.791666687 0
vt 0.791666687 1
vt 0.75 0
vt 0.75 1
vt 0.708333254 0
vt 0.708333254 1
vt 0.666666567 0
vt 0.666666567 1
vt 0.624999881 0
vt 0.624999881 1
vt 0.583333254 0
vt 0.583333254 1
vt 0.541666567 0
vt 0.541666567 1
vt 0.499999911 0
vt 0.499999911 1
vt 0.458333254 0
vt 0.458333254 1
vt 0.416666597 0
vt 0.416666597 1
vt 0.374999911 0
vt 0.374999911 1
vt 0.333333254 0
vt 0.333333254 1
vt 0.291666597 0
vt 0.291666597 1
vt 0.24999994 0
vt 0.24999994 1
vt 0.208333284 0
vt 0.208333284 1
vt 0.166666627 0
vt 0.166666627 1
vt 0.12499997 0
vt 0.12499997 1
vt 0.0833333135 0
vt 0.0833333135 1
vt 0.0416666567 0
vt 0.0416666567 1
vt -5.96046448E-08 0
vt -5.96046448E-08 1
vn 0.975329399 0.220754713 0
vn 0.947949588 0.318420559 0
vn -0.951856315 0.306544393 0
vn 0.994421899 0.105475031 0
vn 0.997395635 0.0721242204 0
vn 0.998419046 0.0562098362 0
vn 0.999262631 0.0383934975 0
vn 0.999436915 0.0335512869 0
vn 0.999768794 0.0215035472 0
vn 0.999808013 0.0195970442 0
vn 0.999951482 0.00985519309 0
vn 0.999958277 0.00913692266 0
vn 1 0 0
vn 1 0 0
vn 0.999951482 -0.0098552322 0
vn 0.999958277 -0.00913695619 0
vn 0.999768794 -0.0215035975 0
vn 0.999808013 -0.0195971038 0
vn 0.999262631 -0.0383934341 0
vn 0.999436915 -0.0335512571 0
vn 0.997395635 -0.0721244663 0
vn 0.998419046 -0.0562098585 0
vn 0.975328922 -0.22075662 0
vn 0.994421899 -0.10547547 0
vn -0.951856434 -0.306543976 0
vn 0.947948754 -0.318423033 0
vn -0.994808793 -0.10176108 0
vn -0.976207316 -0.216839224 0
vn -0.998484552 -0.0550332032 0
vn -0.9974612 -0.0712119564 0
vn -0.999451458 -0.0331174172 0
vn -0.999276102 -0.0380436853 0
vn -0.99981159 -0.019415589 0
vn -0.999772012 -0.021350937 0
vn -0.999958873 -0.00906705856 0
vn -0.999952078 -0.00979510508 0
vn -1 0 0
vn -1 0 0
vn -0.999958873 0.0090670744 0
vn -0.999952078 0.00979513302 0
vn -0.99981159 0.0194156673 0
vn -0.999772012 0.0213510059 0
vn -0.999451458 0.033117447 0
vn -0.999276102 0.0380437076 0
vn -0.998484552 0.0550333001 0
vn -0.9974612 0.0712123066 0
vn -0.994808793 0.101761557 0
vn -0.976207316 0.216839418 0
vn -0.951856315 0.306544393 0
vn 0.947949588 0.318420559 0
g Cone001_0
f 3/3/3 2/2/2 1/1/1
f 2/2/2 4/4/4 1/1/1
f 1/1/1 4/4/4 5/5/5
f 4/4/4 6/6/6 5/5/5
f 5/5/5 6/6/6 7/7/7
f 6/6/6 8/8/8 7/7/7
f 7/7/7 8/8/8 9/9/9
f 8/8/8 10/10/10 9/9/9
f 9/9/9 10/10/10 11/11/11
f 10/10/10 12/12/12 11/11/11
f 11/11/11 12/12/12 13/13/13
f 12/12/12 14/14/14 13/13/13
f 13/13/13 14/14/14 15/15/15
f 14/14/14 16/16/16 15/15/15
f 15/15/15 16/16/16 17/17/17
f 16/16/16 18/18/18 17/17/17
f 17/17/17 18/18/18 19/19/19
f 18/18/18 20/20/20 19/19/19
f 19/19/19 20/20/20 21/21/21
f 20/20/20 22/22/22 21/21/21
f 21/21/21 22/22/22 23/23/23
f 22/22/22 24/24/24 23/23/23
f 23/23/23 24/24/24 25/25/25
f 24/24/24 26/26/26 25/25/25
f 25/25/25 26/26/26 27/27/27
f 26/26/26 28/28/28 27/27/27
f 27/27/27 28/28/28 29/29/29
f 28/28/28 30/30/30 29/29/29
f 29/29/29 30/30/30 31/31/31
f 30/30/30 32/32/32 31/31/31
f 31/31/31 32/32/32 33/33/33
f 32/32/32 34/34/34 33/33/33
f 33/33/33 34/34/34 35/35/35
f 34/34/34 36/36/36 35/35/35
f 35/35/35 36/36/36 37/37/37
f 36/36/36 38/38/38 37/37/37
f 37/37/37 38/38/38 39/39/39
f 38/38/38 40/40/40 39/39/39
f 39/39/39 40/40/40 41/41/41
f 40/40/40 42/42/42 41/41/41
f 41/41/41 42/42/42 43/43/43
f 42/42/42 44/44/44 43/43/43
f 43/43/43 44/44/44 45/45/45
f 44/44/44 46/46/46 45/45/45
f 45/45/45 46/46/46 47/47/47
f 46/46/46 48/48/48 47/47/47
f 47/47/47 48/48/48 49/49/49
f 48/48/48 50/50/50 49/49/49
