g Cone003
v 0.0756629705 0.373411447 0
v 0.0326040946 0.379602373 0.254000008
v 0.0326040946 0.379602373 0
v 0.0756629705 0.373411447 0.254000008
v 0.11773546 0.36235255 0
v 0.11773546 0.36235255 0.254000008
v 0.158273101 0.346569806 0
v 0.158273101 0.346569806 0.254000008
v 0.196747392 0.326269001 0
v 0.196747392 0.326269001 0.254000008
v 0.232656792 0.301714778 0
v 0.232656792 0.301714778 0.254000008
v 0.265533179 0.273227245 0
v 0.265533179 0.273227245 0.254000008
v 0.294947922 0.241177738 0
v 0.294947922 0.241177738 0.254000008
v 0.3205176 0.20598416 0
v 0.3205176 0.20598416 0.254000008
v 0.341908813 0.168105245 0
v 0.341908813 0.168105245 0.254000008
v 0.358842701 0.1280348 0
v 0.358842701 0.1280348 0.254000008
v 0.371098518 0.0862952694 0
v 0.371098518 0.0862952694 0.254000008
v 0.378516555 0.0434307307 0
v 0.378516555 0.0434307307 0.254000008
v 0.380999982 0 0
v 0.380999982 0 0.254000008
v 0.378516436 -0.0434313677 0
v 0.378516436 -0.0434313677 0.254000008
v 0.371098399 -0.0862958804 0
v 0.371098399 -0.0862958804 0.254000008
v 0.358842492 -0.128035381 0
v 0.358842492 -0.128035381 0.254000008
v 0.341908544 -0.168105781 0
v 0.341908544 -0.168105781 0.254000008
v 0.320517272 -0.205984637 0
v 0.320517272 -0.205984637 0.254000008
v 0.294947594 -0.241178185 0
v 0.294947594 -0.241178185 0.254000008
v 0.265532821 -0.273227602 0
v 0.265532821 -0.273227602 0.254000008
v 0.232656404 -0.301715046 0
v 0.232656404 -0.301715046 0.254000008
v 0.196746975 -0.326269239 0
v 0.196746975 -0.326269239 0.254000008
v 0.158272654 -0.346569985 0
v 0.158272654 -0.346569985 0.254000008
v 0.117735013 -0.362352699 0
v 0.117735013 -0.362352699 0.254000008
v 0.0756624937 -0.373411566 0
v 0.0756624937 -0.373411566 0.254000008
v 0.0326036178 -0.379602402 0
v 0.0326036178 -0.379602402 0.254000008
v -0.0108803008 -0.380844623 0
v -0.0108803008 -0.380844623 0.254000008
v -0.0542223789 -0.377121896 0
v -0.0542223789 -0.377121896 0.254000008
v -0.096857585 -0.368482828 0
v -0.096857585 -0.368482828 0.254000008
v -0.1382301 -0.355040044 0
v -0.1382301 -0.355040044 0.254000008
v -0.177800596 -0.33696875 0
v -0.177800596 -0.33696875 0.254000008
v -0.215053171 -0.314504594 0
v -0.215053171 -0.314504594 0.254000008
v -0.249502212 -0.287940353 0
v -0.249502212 -0.287940353 0.254000008
v -0.280698597 -0.257622391 0
v -0.280698597 -0.257622391 0.254000008
v -0.308235675 -0.223945916 0
v -0.308235675 -0.223945916 0.254000008
v -0.331754416 -0.187349975 0
v -0.331754416 -0.187349975 0.254000008
v -0.350948244 -0.148311645 0
v -0.350948244 -0.148311645 0.254000008
v -0.36556688 -0.107339837 0
v -0.36556688 -0.107339837 0.254000008
v -0.375419855 -0.0649686977 0
v -0.375419855 -0.0649686977 0.254000008
v -0.380378634 -0.0217505898 0
v -0.380378634 -0.0217505898 0.254000008
v -0.380378604 0.0217510667 0
v -0.380378604 0.0217510667 0.254000008
v -0.375419796 0.0649691671 0
v -0.375419796 0.0649691671 0.254000008
v -0.36556676 0.107340299 0
v -0.36556676 0.107340299 0.254000008
v -0.350948036 0.148312062 0
v -0.350948036 0.148312062 0.254000008
v -0.331754178 0.187350377 0
v -0.331754178 0.187350377 0.254000008
v -0.308235377 0.223946303 0
v -0.308235377 0.223946303 0.254000008
v -0.28069827 0.257622749 0
v -0.28069827 0.257622749 0.254000008
v -0.249501839 0.287940651 0
v -0.249501839 0.287940651 0.254000008
v -0.215052783 0.314504862 0
v -0.215052783 0.314504862 0.254000008
v -0.177800164 0.336968988 0
v -0.177800164 0.336968988 0.254000008
v -0.138229668 0.355040222 0
v -0.138229668 0.355040222 0.254000008
v -0.0968571231 0.368482947 0
v -0.0968571231 0.368482947 0.254000008
v -0.0542219095 0.377121955 0
v -0.0542219095 0.377121955 0.254000008
v -0.010879823 0.380844623 0
v -0.010879823 0.380844623 0.254000008
v 0.0326040946 0.379602373 0
v 0.0326040946 0.379602373 0.254000008
vt 0.968181849 0
vt 0.986363709 1
vt 0.986363709 0
vt 0.968181849 1
vt 0.949999988 0
vt 0.949999988 1
vt 0.931818187 0
vt 0.931818187 1
vt 0.913636446 0
vt 0.913636446 1
vt 0.895454526 0
vt 0.895454526 1
vt 0.877272725 0
vt 0.877272725 1
vt 0.859090924 0
vt 0.859090924 1
vt 0.840909064 0
vt 0.840909064 1
vt 0.822727203 0
vt 0.822727203 1
vt 0.804545403 0
vt 0.804545403 1
vt 0.786363602 0
vt 0.786363602 1
vt 0.768181801 0
vt 0.768181801 1
vt 0.75 0
vt 0.75 1
vt 0.731817842 0
vt 0.731817842 1
vt 0.713636041 0
vt 0.713636041 1
vt 0.695454299 0
vt 0.695454299 1
vt 0.677272499 0
vt 0.677272499 1
vt 0.659090698 0
vt 0.659090698 1
vt 0.640908897 0
vt 0.640908897 1
vt 0.622727096 0
vt 0.622727096 1
vt 0.604545236 0
vt 0.604545236 1
vt 0.586363435 0
vt 0.586363435 1
vt 0.568181574 0
vt 0.568181574 1
vt 0.549999774 0
vt 0.549999774 1
vt 0.531817973 0
vt 0.531817973 1
vt 0.513636172 0
vt 0.513636172 1
vt 0.495454371 0
vt 0.495454371 1
vt 0.47727254 0
vt 0.47727254 1
vt 0.459090739 0
vt 0.459090739 1
vt 0.440908909 0
vt 0.440908909 1
vt 0.422727108 0
vt 0.422727108 1
vt 0.404545307 0
vt 0.404545307 1
vt 0.386363477 0
vt 0.386363477 1
vt 0.368181705 0
vt 0.368181705 1
vt 0.349999875 0
vt 0.349999875 1
vt 0.331818044 0
vt 0.331818044 1
vt 0.313636243 0
vt 0.313636243 1
vt 0.295454443 0
vt 0.295454443 1
vt 0.277272642 0
vt 0.277272642 1
vt 0.259090811 0
vt 0.259090811 1
vt 0.240909025 0
vt 0.240909025 1
vt 0.222727194 0
vt 0.222727194 1
vt 0.204545379 0
vt 0.204545379 1
vt 0.186363578 0
vt 0.186363578 1
vt 0.168181747 0
vt 0.168181747 1
vt 0.149999946 0
vt 0.149999946 1
vt 0.131818131 0
vt 0.131818131 1
vt 0.11363636 0
vt 0.11363636 1
vt 0.0954545066 0
vt 0.0954545066 1
vt 0.0772726983 0
vt 0.0772726983 1
vt 0.0590908863 0
vt 0.0590908863 1
vt 0.0409090742 0
vt 0.0409090742 1
vt 0.0227272641 0
vt 0.0227272641 1
vt 0.004545453 0
vt 0.004545453 1
vt -0.013636291 0
vt -0.013636291 1
vn 0.198590398 0.980082572 0
vn 0.0855750516 0.996331751 0
vn 0.0855750516 0.996331751 0
vn 0.198590398 0.980082572 0
vn 0.309016883 0.95105654 0
vn 0.309016883 0.95105654 0
vn 0.4154149 0.909631968 0
vn 0.4154149 0.909631968 0
vn 0.516397655 0.856348991 0
vn 0.516397655 0.856348991 0
vn 0.610647857 0.791902244 0
vn 0.610647857 0.791902244 0
vn 0.696937501 0.717131853 0
vn 0.696937501 0.717131853 0
vn 0.77414155 0.633012533 0
vn 0.77414155 0.633012533 0
vn 0.8412534 0.54064101 0
vn 0.8412534 0.54064101 0
vn 0.897398472 0.441220999 0
vn 0.897398472 0.441220999 0
vn 0.941844404 0.33604908 0
vn 0.941844404 0.33604908 0
vn 0.974011838 0.22649692 0
vn 0.974011838 0.22649692 0
vn 0.993481755 0.113991633 0
vn 0.993481755 0.113991633 0
vn 1 -6.93636593E-07 0
vn 1 -6.93636593E-07 0
vn 0.993481636 -0.113992646 0
vn 0.993481636 -0.113992646 0
vn 0.97401154 -0.22649838 0
vn 0.97401154 -0.22649838 0
vn 0.941843808 -0.336050898 0
vn 0.941843808 -0.336050898 0
vn 0.897397816 -0.44122237 0
vn 0.897397816 -0.44122237 0
vn 0.841252744 -0.540642142 0
vn 0.841252744 -0.540642142 0
vn 0.774140716 -0.633013546 0
vn 0.774140716 -0.633013546 0
vn 0.696936369 -0.717132926 0
vn 0.696936369 -0.717132926 0
vn 0.610646665 -0.791903138 0
vn 0.610646665 -0.791903138 0
vn 0.516396403 -0.856349707 0
vn 0.516396403 -0.856349707 0
vn 0.415413827 -0.909632504 0
vn 0.415413827 -0.909632504 0
vn 0.309015781 -0.951056898 0
vn 0.309015781 -0.951056898 0
vn 0.198588982 -0.980082929 0
vn 0.198588982 -0.980082929 0
vn 0.085573934 -0.996331871 0
vn 0.085573934 -0.996331871 0
vn -0.0285571758 -0.999592125 0
vn -0.0285571758 -0.999592125 0
vn -0.142316267 -0.989821315 0
vn -0.142316267 -0.989821315 0
vn -0.254219234 -0.967146635 0
vn -0.254219234 -0.967146635 0
vn -0.362808794 -0.931863606 0
vn -0.362808794 -0.931863606 0
vn -0.466668129 -0.884432495 0
vn -0.466668129 -0.884432495 0
vn -0.564443707 -0.825471461 0
vn -0.564443707 -0.825471461 0
vn -0.654861629 -0.755748749 0
vn -0.654861629 -0.755748749 0
vn -0.736741781 -0.676174164 0
vn -0.736741781 -0.676174164 0
vn -0.80901736 -0.587784708 0
vn -0.80901736 -0.587784708 0
vn -0.870746374 -0.491732448 0
vn -0.870746374 -0.491732448 0
vn -0.921123981 -0.389269173 0
vn -0.921123981 -0.389269173 0
vn -0.95949316 -0.281731635 0
vn -0.95949316 -0.281731635 0
vn -0.985353947 -0.170521751 0
vn -0.985353947 -0.170521751 0
vn -0.998369157 -0.0570881404 0
vn -0.998369157 -0.0570881404 0
vn -0.998369157 0.0570892692 0
vn -0.998369157 0.0570892692 0
vn -0.985353708 0.170522884 0
vn -0.985353708 0.170522884 0
vn -0.959492743 0.281733394 0
vn -0.959492743 0.281733394 0
vn -0.921123505 0.389270544 0
vn -0.921123505 0.389270544 0
vn -0.870745838 0.491733223 0
vn -0.870745838 0.491733223 0
vn -0.809016824 0.587785542 0
vn -0.809016824 0.587785542 0
vn -0.736740828 0.676175177 0
vn -0.736740828 0.676175177 0
vn -0.654860556 0.755749702 0
vn -0.654860556 0.755749702 0
vn -0.564443052 0.825471997 0
vn -0.564443052 0.825471997 0
vn -0.466666996 0.884433091 0
vn -0.466666996 0.884433091 0
vn -0.362807453 0.931864202 0
vn -0.362807453 0.931864202 0
vn -0.254218072 0.967146933 0
vn -0.254218072 0.967146933 0
vn -0.142314896 0.989821434 0
vn -0.142314896 0.989821434 0
vn -0.0285560656 0.999592245 0
vn -0.0285560656 0.999592245 0
vn 0.0855750516 0.996331751 0
vn 0.0855750516 0.996331751 0
g Cone003_0
f 3/3/3 2/2/2 1/1/1
f 2/2/2 4/4/4 1/1/1
f 1/1/1 4/4/4 5/5/5
f 4/4/4 6/6/6 5/5/5
f 5/5/5 6/6/6 7/7/7
f 6/6/6 8/8/8 7/7/7
f 7/7/7 8/8/8 9/9/9
f 8/8/8 10/10/10 9/9/9
f 9/9/9 10/10/10 11/11/11
f 10/10/10 12/12/12 11/11/11
f 11/11/11 12/12/12 13/13/13
f 12/12/12 14/14/14 13/13/13
f 13/13/13 14/14/14 15/15/15
f 14/14/14 16/16/16 15/15/15
f 15/15/15 16/16/16 17/17/17
f 16/16/16 18/18/18 17/17/17
f 17/17/17 18/18/18 19/19/19
f 18/18/18 20/20/20 19/19/19
f 19/19/19 20/20/20 21/21/21
f 20/20/20 22/22/22 21/21/21
f 21/21/21 22/22/22 23/23/23
f 22/22/22 24/24/24 23/23/23
f 23/23/23 24/24/24 25/25/25
f 24/24/24 26/26/26 25/25/25
f 25/25/25 26/26/26 27/27/27
f 26/26/26 28/28/28 27/27/27
f 27/27/27 28/28/28 29/29/29
f 28/28/28 30/30/30 29/29/29
f 29/29/29 30/30/30 31/31/31
f 30/30/30 32/32/32 31/31/31
f 31/31/31 32/32/32 33/33/33
f 32/32/32 34/34/34 33/33/33
f 33/33/33 34/34/34 35/35/35
f 34/34/34 36/36/36 35/35/35
f 35/35/35 36/36/36 37/37/37
f 36/36/36 38/38/38 37/37/37
f 37/37/37 38/38/38 39/39/39
f 38/38/38 40/40/40 39/39/39
f 39/39/39 40/40/40 41/41/41
f 40/40/40 42/42/42 41/41/41
f 41/41/41 42/42/42 43/43/43
f 42/42/42 44/44/44 43/43/43
f 43/43/43 44/44/44 45/45/45
f 44/44/44 46/46/46 45/45/45
f 45/45/45 46/46/46 47/47/47
f 46/46/46 48/48/48 47/47/47
f 47/47/47 48/48/48 49/49/49
f 48/48/48 50/50/50 49/49/49
f 49/49/49 50/50/50 51/51/51
f 50/50/50 52/52/52 51/51/51
f 51/51/51 52/52/52 53/53/53
f 52/52/52 54/54/54 53/53/53
f 53/53/53 54/54/54 55/55/55
f 54/54/54 56/56/56 55/55/55
f 55/55/55 56/56/56 57/57/57
f 56/56/56 58/58/58 57/57/57
f 57/57/57 58/58/58 59/59/59
f 58/58/58 60/60/60 59/59/59
f 59/59/59 60/60/60 61/61/61
f 60/60/60 62/62/62 61/61/61
f 61/61/61 62/62/62 63/63/63
f 62/62/62 64/64/64 63/63/63
f 63/63/63 64/64/64 65/65/65
f 64/64/64 66/66/66 65/65/65
f 65/65/65 66/66/66 67/67/67
f 66/66/66 68/68/68 67/67/67
f 67/67/67 68/68/68 69/69/69
f 68/68/68 70/70/70 69/69/69
f 69/69/69 70/70/70 71/71/71
f 70/70/70 72/72/72 71/71/71
f 71/71/71 72/72/72 73/73/73
f 72/72/72 74/74/74 73/73/73
f 73/73/73 74/74/74 75/75/75
f 74/74/74 76/76/76 75/75/75
f 75/75/75 76/76/76 77/77/77
f 76/76/76 78/78/78 77/77/77
f 77/77/77 78/78/78 79/79/79
f 78/78/78 80/80/80 79/79/79
f 79/79/79 80/80/80 81/81/81
f 80/80/80 82/82/82 81/81/81
f 81/81/81 82/82/82 83/83/83
f 82/82/82 84/84/84 83/83/83
f 83/83/83 84/84/84 85/85/85
f 84/84/84 86/86/86 85/85/85
f 85/85/85 86/86/86 87/87/87
f 86/86/86 88/88/88 87/87/87
f 87/87/87 88/88/88 89/89/89
f 88/88/88 90/90/90 89/89/89
f 89/89/89 90/90/90 91/91/91
f 90/90/90 92/92/92 91/91/91
f 91/91/91 92/92/92 93/93/93
f 92/92/92 94/94/94 93/93/93
f 93/93/93 94/94/94 95/95/95
f 94/94/94 96/96/96 95/95/95
f 95/95/95 96/96/96 97/97/97
f 96/96/96 98/98/98 97/97/97
f 97/97/97 98/98/98 99/99/99
f 98/98/98 100/100/100 99/99/99
f 99/99/99 100/100/100 101/101/101
f 100/100/100 102/102/102 101/101/101
f 101/101/101 102/102/102 103/103/103
f 102/102/102 104/104/104 103/103/103
f 103/103/103 104/104/104 105/105/105
f 104/104/104 106/106/106 105/105/105
f 105/105/105 106/106/106 107/107/107
f 106/106/106 108/108/108 107/107/107
f 107/107/107 108/108/108 109/109/109
f 108/108/108 110/110/110 109/109/109
f 109/109/109 110/110/110 111/111/111
f 110/110/110 112/112/112 111/111/111
