g FX_m_logos_range_03
v 1.723001 -1.67251301 -5.0000006E-05
v 1.34479403 -1.6725266 -5.0000006E-05
v 1.5654043 -1.51833439 -5.0000006E-05
v 0.994322121 -1.31068826 -5.0000006E-05
v 1.03414369 -1.67248976 -5.0000006E-05
v 0.825339615 -1.43030846 -5.0000006E-05
v 0.769102395 -1.67259753 -5.0000006E-05
v 0.642938077 -1.52825606 -5.0000006E-05
v 1.14732397 -1.17120874 -5.0000006E-05
v 1.5654043 -1.51833439 -5.0000006E-05
v 0.711118877 -1.03360176 -4.99999987E-05
v 0.577877104 -1.12792158 -4.99999987E-05
v 0.831759989 -0.923622847 -4.99999987E-05
v 0.937971532 -0.7996521 -4.99999987E-05
v 0.434054404 -1.20515275 -4.99999987E-05
v 1.28202546 -1.0139842 -5.0000006E-05
v 1.02814353 -0.663568914 -4.99999987E-05
v 0.449882418 -1.60304618 -5.0000006E-05
v 0.281831026 -1.26412439 -4.99999987E-05
v 0.490281254 -1.67259908 -5.0000006E-05
v 0.769102395 -1.67259753 -5.0000006E-05
v 0.312725902 -1.67259812 -5.0000006E-05
v 0.123514429 -1.3039428 -4.99999987E-05
v 1.7400502 -1.31448686 -5.0000006E-05
v 1.723001 -1.67251301 -5.0000006E-05
v 1.39638531 -0.84139806 -5.0000006E-05
v 1.10090899 -0.517436147 -4.99999987E-05
v 1.74833632 -1.30198193 -5.0000006E-05
v 2.24153996 -1.67253399 -5.0000006E-05
v 1.48866928 -0.656066716 -5.0000006E-05
v 1.15516508 -0.363468885 -4.99999987E-05
v 1.88832211 -1.09072196 -5.0000006E-05
v 2.24153996 -1.67253399 -5.0000006E-05
v 2.24152899 -1.29494929 -5.0000006E-05
v 2.24148107 -0.948844373 -5.0000006E-05
v 2.007972 -0.850432575 -5.0000006E-05
v 2.24148846 -0.638097882 -5.0000006E-05
v 2.09718609 -0.59726119 -5.0000006E-05
v 1.5574789 -0.460799545 -5.0000006E-05
v 1.19008911 -0.204001158 -4.99999987E-05
v 1.60177088 -0.258556217 -5.0000006E-05
v 1.20515156 -0.0414505564 -4.99999987E-05
v 1.62087381 -0.0524030998 -5.0000006E-05
v 1.20012426 0.121718951 -4.99999987E-05
v 2.15461254 -0.335044742 -5.0000006E-05
v 1.61449802 0.154534951 -5.0000006E-05
v 1.17508364 0.283034265 -4.99999987E-05
v 2.24151182 -0.34853062 -5.0000006E-05
v 2.24148846 -0.638097882 -5.0000006E-05
v 2.24148488 -0.0696453154 -5.0000006E-05
v 2.17938018 -0.0677590296 -5.0000006E-05
v 2.17111397 0.200544357 -5.0000006E-05
v 2.24151611 0.207078591 -5.0000006E-05
v 1.58274043 0.359121352 -5.0000006E-05
v 1.130409 0.44004944 -4.99999987E-05
v 2.12993884 0.465798587 -5.0000006E-05
v 2.24151492 0.490250945 -5.0000006E-05
v 1.52608228 0.558254242 -5.0000006E-05
v 1.06677747 0.590384781 -4.99999987E-05
v 2.05647922 0.723982334 -5.0000006E-05
v 2.24150848 0.789139032 -5.0000006E-05
v 1.44538236 0.748915315 -5.0000006E-05
v 0.985154092 0.731760681 -4.99999987E-05
v 1.95184863 0.971181571 -5.0000006E-05
v 2.24153733 1.11582351 -5.0000006E-05
v 1.81763327 1.20364952 -5.0000006E-05
v 2.24154091 1.48514009 -5.0000006E-05
v 1.34186423 0.928213894 -5.0000006E-05
v 0.886775613 0.862034798 -4.99999987E-05
v 1.21709681 1.09343243 -5.0000006E-05
v 0.773133636 0.979231715 -4.99999987E-05
v 1.0729717 1.24206638 -5.0000006E-05
v 0.645951092 1.08157563 -4.99999987E-05
v 1.6558677 1.41786194 -5.0000006E-05
v 0.911673784 1.37186253 -5.0000006E-05
v 0.507155597 1.16751397 -4.99999987E-05
v 0.735647798 1.48085344 -5.0000006E-05
v 0.358851254 1.2357446 -4.99999987E-05
v 1.18728018 1.67247796 -5.0000006E-05
v 1.4690038 1.61057162 -5.0000006E-05
v 1.52929413 1.67250037 -5.0000006E-05
v 1.95783281 1.67249262 -5.0000006E-05
v 2.24149776 1.67241943 -5.0000006E-05
v 2.24154091 1.48514009 -5.0000006E-05
v 0.901422083 1.67260158 -5.0000006E-05
v 1.18728018 1.67247796 -5.0000006E-05
v 0.61323297 1.67260098 -5.0000006E-05
v 0.54756248 1.56738627 -5.0000006E-05
v 0.422426969 1.67260194 -5.0000006E-05
v 0.203285918 1.28523362 -4.99999987E-05
v 0.208049551 1.67260253 -5.0000006E-05
v 0.203285918 1.28523362 -4.99999987E-05
v 0.206852421 1.6720221 -5.0000006E-05
v 0.0428183749 1.31523025 -4.99999987E-05
v 0.000208675876 1.67260289 -5.0000006E-05
v 0.208049551 1.67260253 -5.0000006E-05
v -0.120119087 1.32527995 -4.99999987E-05
v 0.103727072 -1.67260289 -5.0000006E-05
v 0.123514429 -1.3039428 -4.99999987E-05
v 0.312725902 -1.67259812 -5.0000006E-05
v -0.0384953618 -1.32400382 -4.99999987E-05
v -0.103309363 -1.67260289 -5.0000006E-05
v -0.2017425 -1.32400382 -4.99999987E-05
v -0.312078178 -1.67259717 -5.0000006E-05
v -0.363752306 -1.3039428 -4.99999987E-05
v -0.363752306 -1.3039428 -4.99999987E-05
v -0.312078178 -1.67259717 -5.0000006E-05
v -0.554504275 -1.67259753 -5.0000006E-05
v -0.522068918 -1.26412451 -4.99999987E-05
v -0.549583256 -1.6030463 -5.0000006E-05
v -0.742638946 -1.52825606 -5.0000006E-05
v -0.554504275 -1.67259753 -5.0000006E-05
v -0.674292326 -1.20515275 -4.99999987E-05
v -0.769122183 -1.67259824 -5.0000006E-05
v -0.925040543 -1.43030846 -5.0000006E-05
v -1.0339781 -1.67259693 -5.0000006E-05
v -0.818114877 -1.12792158 -4.99999987E-05
v -1.09402299 -1.31068826 -5.0000006E-05
v -1.0339781 -1.67259693 -5.0000006E-05
v -1.34355795 -1.67249107 -5.0000006E-05
v -0.951356769 -1.03360176 -4.99999987E-05
v -1.24702466 -1.17120874 -5.0000006E-05
v -1.07199764 -0.923622847 -4.99999987E-05
v -1.34355795 -1.67249107 -5.0000006E-05
v -1.38172626 -1.01398444 -5.0000006E-05
v -1.73963237 -1.31448686 -5.0000006E-05
v -1.17820942 -0.799652457 -4.99999987E-05
v -1.56498647 -1.51833439 -5.0000006E-05
v -1.72302544 -1.67252791 -5.0000006E-05
v -2.24074411 -1.6725235 -5.0000006E-05
v -1.49608612 -0.84139806 -5.0000006E-05
v -1.26838136 -0.663568914 -4.99999987E-05
v -1.74747801 -1.30264664 -5.0000006E-05
v -2.2404418 -1.29425931 -5.0000006E-05
v -1.88790429 -1.09072196 -5.0000006E-05
v -2.24018979 -0.948898852 -5.0000006E-05
v -2.00755429 -0.850432575 -5.0000006E-05
v -2.24009895 -0.638042152 -5.0000006E-05
v -1.58837008 -0.656066716 -5.0000006E-05
v -1.34114671 -0.517436147 -4.99999987E-05
v -2.09676838 -0.59726119 -5.0000006E-05
v -2.24052334 -0.348445356 -5.0000006E-05
v -1.65717959 -0.460799664 -5.0000006E-05
v -1.39540291 -0.363469124 -4.99999987E-05
v -2.15419483 -0.335044742 -5.0000006E-05
v -2.24049664 -0.069654882 -5.0000006E-05
v -1.70147169 -0.258556306 -5.0000006E-05
v -1.4303267 -0.204001263 -4.99999987E-05
v -2.17896223 -0.0677590296 -5.0000006E-05
v -1.72057462 -0.0524030998 -5.0000006E-05
v -1.44538939 -0.0414505564 -4.99999987E-05
v -2.17069602 0.200545087 -5.0000006E-05
v -2.24036384 0.207000732 -5.0000006E-05
v -1.71419883 0.154535487 -5.0000006E-05
v -1.44036222 0.121719383 -4.99999987E-05
v -2.12952113 0.465798825 -5.0000006E-05
v -2.24036384 0.207000732 -5.0000006E-05
v -2.2414093 0.490302831 -5.0000006E-05
v -1.68244123 0.359121621 -5.0000006E-05
v -1.41532147 0.283034503 -4.99999987E-05
v -2.05606151 0.723982334 -5.0000006E-05
v -2.24154091 0.78934288 -5.0000006E-05
v -1.62578297 0.558254421 -5.0000006E-05
v -1.3706466 0.440049648 -4.99999987E-05
v -1.95143068 0.971182168 -5.0000006E-05
v -2.24154091 0.78934288 -5.0000006E-05
v -2.24096537 1.11535299 -5.0000006E-05
v -1.54508305 0.748915613 -5.0000006E-05
v -1.3070153 0.59038496 -4.99999987E-05
v -1.81721544 1.20364952 -5.0000006E-05
v -2.24095011 1.48442626 -5.0000006E-05
v -1.44156504 0.928213894 -5.0000006E-05
v -1.22539175 0.731760681 -4.99999987E-05
v -1.95869362 1.67255425 -5.0000006E-05
v -2.24049878 1.67244184 -5.0000006E-05
v -1.65544951 1.41786242 -5.0000006E-05
v -1.31679738 1.09343302 -5.0000006E-05
v -1.12701333 0.862035275 -4.99999987E-05
v -1.17267215 1.24206686 -5.0000006E-05
v -1.01337123 0.979232252 -4.99999987E-05
v -1.46858561 1.61057186 -5.0000006E-05
v -1.52922451 1.67251647 -5.0000006E-05
v -1.95869362 1.67255425 -5.0000006E-05
v -1.18818235 1.67251801 -5.0000006E-05
v -1.01137459 1.37186253 -5.0000006E-05
v -0.900374889 1.67251551 -5.0000006E-05
v -0.886188805 1.08157563 -4.99999987E-05
v -0.835348427 1.48085344 -5.0000006E-05
v -0.747393191 1.16751397 -4.99999987E-05
v -0.647262931 1.56738651 -5.0000006E-05
v -0.599088788 1.23574495 -4.99999987E-05
v -0.443523854 1.28523362 -4.99999987E-05
v -0.664163589 1.67251277 -5.0000006E-05
v -0.900374889 1.67251551 -5.0000006E-05
v -0.664163589 1.67251277 -5.0000006E-05
v -0.421748906 1.67252135 -5.0000006E-05
v -0.283056349 1.31523025 -4.99999987E-05
v -0.443523854 1.28523362 -4.99999987E-05
v -0.421748906 1.67252135 -5.0000006E-05
v -0.207600862 1.67260253 -5.0000006E-05
v -0.206434727 1.6720221 -5.0000006E-05
v -0.120118856 1.32527995 -4.99999987E-05
v 0.000209003687 1.67260289 -5.0000006E-05
v -0.207600862 1.67260253 -5.0000006E-05
vt 0.627451062 0.339527994
vt 0.60784322 0.409771204
vt 0.627451062 0.400000006
vt 0.607843161 0.537363708
vt 0.588235378 0.459547132
vt 0.588235378 0.537363708
vt 0.568627477 0.493818402
vt 0.568627477 0.537363768
vt 0.627451062 0.537363768
vt 0.627451062 0.400000006
vt 0.607843161 0.600000024
vt 0.588235378 0.600000024
vt 0.627451062 0.600000024
vt 0.647058845 0.600000024
vt 0.568627477 0.600000024
vt 0.647058845 0.537363768
vt 0.666666746 0.600000024
vt 0.549019694 0.537363708
vt 0.549019694 0.600000024
vt 0.549019694 0.51692456
vt 0.568627477 0.493818402
vt 0.529411793 0.532069147
vt 0.529411793 0.600000024
vt 0.647058845 0.400000006
vt 0.627451062 0.339527994
vt 0.666666746 0.537363768
vt 0.686274529 0.600000024
vt 0.648154616 0.400000006
vt 0.648349524 0.229955733
vt 0.686274529 0.537363768
vt 0.705882311 0.600000024
vt 0.666666746 0.400000006
vt 0.648349524 0.229955733
vt 0.666666687 0.287481964
vt 0.686274588 0.33044976
vt 0.686274588 0.400000006
vt 0.70588237 0.358893275
vt 0.70588237 0.400000006
vt 0.705882311 0.537363768
vt 0.725490212 0.600000024
vt 0.725490212 0.537363648
vt 0.745098114 0.600000024
vt 0.745098054 0.537363708
vt 0.764705956 0.600000024
vt 0.725490212 0.400000006
vt 0.764705956 0.537363768
vt 0.784313798 0.600000024
vt 0.725490212 0.37578094
vt 0.70588237 0.358893275
vt 0.745098114 0.383126527
vt 0.745098114 0.400000006
vt 0.764705956 0.400000006
vt 0.764706016 0.380491674
vt 0.784313798 0.537363768
vt 0.80392158 0.600000024
vt 0.784313798 0.400000006
vt 0.784313738 0.368513763
vt 0.80392158 0.537363708
vt 0.823529541 0.600000024
vt 0.80392158 0.400000006
vt 0.80392158 0.34599483
vt 0.823529482 0.537363708
vt 0.843137324 0.600000024
vt 0.823529482 0.400000006
vt 0.823529482 0.310609221
vt 0.843137264 0.400000006
vt 0.843137264 0.259616435
vt 0.843137205 0.537363708
vt 0.862745166 0.600000024
vt 0.862745166 0.537363768
vt 0.882352948 0.600000024
vt 0.882352948 0.537363768
vt 0.901960909 0.600000024
vt 0.862745166 0.400000006
vt 0.90196085 0.537363768
vt 0.921568692 0.600000024
vt 0.921568513 0.537363708
vt 0.941176534 0.600000024
vt 0.90196085 0.434611887
vt 0.882352948 0.400000006
vt 0.882352948 0.375347435
vt 0.862745166 0.290462762
vt 0.852205753 0.228307217
vt 0.843137264 0.259616435
vt 0.921568573 0.475829124
vt 0.90196085 0.434611887
vt 0.941176534 0.505124331
vt 0.941176474 0.537363648
vt 0.960784316 0.523739576
vt 0.960784316 0.600000024
vt 0.980392218 0.534680188
vt 0.960784316 0.600000024
vt 0.980392158 0.537363768
vt 0.980392098 0.600000024
vt 0.99999994 0.537363648
vt 0.980392218 0.534680188
vt 1 0.600000024
vt 0.50980401 0.537363768
vt 0.529411793 0.600000024
vt 0.529411793 0.532069147
vt 0.50980401 0.600000024
vt 0.490196109 0.537363768
vt 0.490196109 0.600000024
vt 0.470588326 0.53241396
vt 0.470588297 0.600000024
vt 0.470588297 0.600000024
vt 0.470588326 0.53241396
vt 0.450980425 0.517551661
vt 0.450980425 0.600000024
vt 0.450980425 0.537363768
vt 0.431372643 0.537363768
vt 0.450980425 0.517551661
vt 0.431372643 0.600000024
vt 0.431372643 0.493530124
vt 0.411764741 0.537363708
vt 0.411764741 0.459415108
vt 0.411764741 0.600000024
vt 0.392156929 0.537363708
vt 0.411764741 0.459415108
vt 0.392156929 0.410130858
vt 0.392156929 0.600000024
vt 0.372549057 0.537363768
vt 0.372549057 0.600000024
vt 0.392156929 0.410130858
vt 0.352941185 0.537363648
vt 0.352941215 0.400000006
vt 0.352941215 0.600000024
vt 0.372549057 0.400000006
vt 0.372549057 0.33935833
vt 0.352001041 0.230289578
vt 0.333333373 0.537363768
vt 0.333333373 0.600000024
vt 0.351903677 0.400000006
vt 0.333333403 0.287862033
vt 0.333333373 0.400000006
vt 0.313725561 0.330411255
vt 0.313725531 0.400000006
vt 0.294117689 0.358949304
vt 0.313725531 0.537363768
vt 0.313725531 0.600000024
vt 0.294117689 0.400000006
vt 0.274509847 0.375934064
vt 0.294117689 0.537363768
vt 0.294117689 0.600000024
vt 0.274509847 0.400000006
vt 0.254901975 0.383040994
vt 0.274509847 0.537363708
vt 0.274509847 0.600000024
vt 0.254901975 0.400000006
vt 0.254901975 0.537363708
vt 0.254902005 0.600000024
vt 0.235294163 0.400000006
vt 0.235294178 0.380726278
vt 0.235294163 0.537363768
vt 0.235294148 0.600000024
vt 0.215686291 0.400000006
vt 0.235294178 0.380726278
vt 0.215686291 0.368447363
vt 0.215686291 0.537363708
vt 0.215686291 0.600000024
vt 0.196078449 0.400000006
vt 0.196078449 0.345825911
vt 0.196078449 0.537363708
vt 0.196078449 0.600000024
vt 0.176470593 0.400000006
vt 0.196078449 0.345825911
vt 0.176470608 0.310900301
vt 0.176470578 0.537363648
vt 0.176470578 0.600000024
vt 0.156862766 0.400000006
vt 0.156862766 0.259972543
vt 0.156862766 0.537363768
vt 0.156862766 0.600000024
vt 0.137254909 0.289998859
vt 0.148023114 0.226550698
vt 0.137254909 0.400000006
vt 0.137254924 0.537363768
vt 0.137254909 0.600000024
vt 0.117647067 0.537363768
vt 0.117647067 0.600000024
vt 0.117647067 0.400000006
vt 0.117647067 0.375204831
vt 0.137254909 0.289998859
vt 0.0980392247 0.433982462
vt 0.0980392247 0.537363768
vt 0.0784313679 0.476195425
vt 0.0980392247 0.600000024
vt 0.0784313679 0.537363768
vt 0.0784313679 0.600000024
vt 0.0588235334 0.537363768
vt 0.0588235334 0.600000024
vt 0.0392156839 0.600000024
vt 0.0588235334 0.505002677
vt 0.0784313679 0.476195425
vt 0.0588235334 0.505002677
vt 0.0392156839 0.524033666
vt 0.019607842 0.600000024
vt 0.0392156839 0.600000024
vt 0.0392156839 0.524033666
vt 0.019607842 0.534749627
vt 0.019607842 0.537363708
vt 0 0.600000024
vt 0 0.537363708
vt 0.019607842 0.534749627
vn -0 0 1
vn -0 0 1
vn -0 0 1
vn -0 0 1
vn -0 0 1
vn -0 0 1
vn -0 0 1
vn -0 0 1
vn -0 0 1
vn -0 0 1
vn -0 0 1
vn -0 0 1
vn -0 0 1
vn -0 0 1
vn -0 0 1
vn -0 0 1
vn -0 0 1
vn -0 0 1
vn -0 0 1
vn -0 0 1
vn -0 0 1
vn -0 0 1
vn -0 0 1
vn -0 0 1
vn -0 0 1
vn -0 0 1
vn -0 0 1
vn -0 0 1
vn -0 0 1
vn -0 0 1
vn -0 0 1
vn -0 0 1
vn -0 0 1
vn -0 0 1
vn -0 0 1
vn -0 0 1
vn -0 0 1
vn -0 0 1
vn -0 0 1
vn -0 0 1
vn -0 0 1
vn -0 0 1
vn -0 0 1
vn -0 0 1
vn -0 0 1
vn -0 0 1
vn -0 0 1
vn -0 0 1
vn -0 0 1
vn -0 0 1
vn -0 0 1
vn -0 0 1
vn -0 0 1
vn -0 0 1
vn -0 0 1
vn -0 0 1
vn -0 0 1
vn -0 0 1
vn -0 0 1
vn -0 0 1
vn -0 0 1
vn -0 0 1
vn -0 0 1
vn -0 0 1
vn -0 0 1
vn -0 0 1
vn -0 0 1
vn -0 0 1
vn -0 0 1
vn -0 0 1
vn -0 0 1
vn -0 0 1
vn -0 0 1
vn -0 0 1
vn -0 0 1
vn -0 0 1
vn -0 0 1
vn -0 0 1
vn -0 0 1
vn -0 0 1
vn -0 0 1
vn -0 0 1
vn -0 0 1
vn -0 0 1
vn -0 0 1
vn -0 0 1
vn -0 0 1
vn -0 0 1
vn -0 0 1
vn -0 0 1
vn -0 0 1
vn -0 0 1
vn -0 0 1
vn -0 0 1
vn -0 0 1
vn -0 0 1
vn -0 0 1
vn -0 0 1
vn -0 0 1
vn -0 0 1
vn -0 0 1
vn -0 0 1
vn -0 0 1
vn -0 0 1
vn -0 0 1
vn -0 0 1
vn -0 0 1
vn -0 0 1
vn -0 0 1
vn -0 0 1
vn -0 0 1
vn -0 0 1
vn -0 0 1
vn -0 0 1
vn -0 0 1
vn -0 0 1
vn -0 0 1
vn -0 0 1
vn -0 0 1
vn -0 0 1
vn -0 0 1
vn -0 0 1
vn -0 0 1
vn -0 0 1
vn -0 0 1
vn -0 0 1
vn -0 0 1
vn -0 0 1
vn -0 0 1
vn -0 0 1
vn -0 0 1
vn -0 0 1
vn -0 0 1
vn -0 0 1
vn -0 0 1
vn -0 0 1
vn -0 0 1
vn -0 0 1
vn -0 0 1
vn -0 0 1
vn -0 0 1
vn -0 0 1
vn -0 0 1
vn -0 0 1
vn -0 0 1
vn -0 0 1
vn -0 0 1
vn -0 0 1
vn -0 0 1
vn -0 0 1
vn -0 0 1
vn -0 0 1
vn -0 0 1
vn -0 0 1
vn -0 0 1
vn -0 0 1
vn -0 0 1
vn -0 0 1
vn -0 0 1
vn -0 0 1
vn -0 0 1
vn -0 0 1
vn -0 0 1
vn -0 0 1
vn -0 0 1
vn -0 0 1
vn -0 0 1
vn -0 0 1
vn -0 0 1
vn -0 0 1
vn -0 0 1
vn -0 0 1
vn -0 0 1
vn -0 0 1
vn -0 0 1
vn -0 0 1
vn -0 0 1
vn -0 0 1
vn -0 0 1
vn -0 0 1
vn -0 0 1
vn -0 0 1
vn -0 0 1
vn -0 0 1
vn -0 0 1
vn -0 0 1
vn -0 0 1
vn -0 0 1
vn -0 0 1
vn -0 0 1
vn -0 0 1
vn -0 0 1
vn -0 0 1
vn -0 0 1
vn -0 0 1
vn -0 0 1
vn -0 0 1
vn -0 0 1
vn -0 0 1
vn -0 0 1
vn -0 0 1
vn -0 0 1
vn -0 0 1
vn -0 0 1
g FX_m_logos_range_03_0
f 3/3/3 2/2/2 1/1/1
f 5/5/5 2/2/2 4/4/4
f 6/6/6 5/5/5 4/4/4
f 7/7/7 5/5/5 6/6/6
f 8/8/8 7/7/7 6/6/6
f 4/4/4 2/2/2 9/9/9
f 2/2/2 10/10/10 9/9/9
f 4/4/4 11/11/11 6/6/6
f 11/11/11 12/12/12 6/6/6
f 6/6/6 12/12/12 8/8/8
f 13/13/13 11/11/11 4/4/4
f 9/9/9 13/13/13 4/4/4
f 14/14/14 13/13/13 9/9/9
f 12/12/12 15/15/15 8/8/8
f 16/16/16 14/14/14 9/9/9
f 16/16/16 9/9/9 10/10/10
f 17/17/17 14/14/14 16/16/16
f 8/8/8 15/15/15 18/18/18
f 15/15/15 19/19/19 18/18/18
f 18/18/18 20/20/20 8/8/8
f 20/20/20 21/21/21 8/8/8
f 22/22/22 20/20/20 18/18/18
f 18/18/18 19/19/19 22/22/22
f 19/19/19 23/23/23 22/22/22
f 24/24/24 16/16/16 10/10/10
f 24/24/24 10/10/10 25/25/25
f 26/26/26 17/17/17 16/16/16
f 26/26/26 16/16/16 24/24/24
f 27/27/27 17/17/17 26/26/26
f 28/28/28 24/24/24 25/25/25
f 26/26/26 24/24/24 28/28/28
f 25/25/25 29/29/29 28/28/28
f 30/30/30 27/27/27 26/26/26
f 31/31/31 27/27/27 30/30/30
f 28/28/28 32/32/32 26/26/26
f 30/30/30 26/26/26 32/32/32
f 32/32/32 28/28/28 33/33/33
f 34/34/34 32/32/32 33/33/33
f 32/32/32 34/34/34 35/35/35
f 36/36/36 32/32/32 35/35/35
f 36/36/36 30/30/30 32/32/32
f 36/36/36 35/35/35 37/37/37
f 38/38/38 36/36/36 37/37/37
f 39/39/39 31/31/31 30/30/30
f 39/39/39 30/30/30 36/36/36
f 38/38/38 39/39/39 36/36/36
f 40/40/40 31/31/31 39/39/39
f 41/41/41 40/40/40 39/39/39
f 41/41/41 39/39/39 38/38/38
f 42/42/42 40/40/40 41/41/41
f 43/43/43 42/42/42 41/41/41
f 44/44/44 42/42/42 43/43/43
f 45/45/45 41/41/41 38/38/38
f 43/43/43 41/41/41 45/45/45
f 46/46/46 44/44/44 43/43/43
f 47/47/47 44/44/44 46/46/46
f 45/45/45 38/38/38 48/48/48
f 38/38/38 49/49/49 48/48/48
f 45/45/45 48/48/48 50/50/50
f 51/51/51 43/43/43 45/45/45
f 51/51/51 45/45/45 50/50/50
f 46/46/46 43/43/43 51/51/51
f 51/51/51 50/50/50 52/52/52
f 52/52/52 46/46/46 51/51/51
f 50/50/50 53/53/53 52/52/52
f 54/54/54 47/47/47 46/46/46
f 54/54/54 46/46/46 52/52/52
f 55/55/55 47/47/47 54/54/54
f 52/52/52 53/53/53 56/56/56
f 56/56/56 54/54/54 52/52/52
f 53/53/53 57/57/57 56/56/56
f 58/58/58 55/55/55 54/54/54
f 58/58/58 54/54/54 56/56/56
f 59/59/59 55/55/55 58/58/58
f 56/56/56 57/57/57 60/60/60
f 60/60/60 58/58/58 56/56/56
f 57/57/57 61/61/61 60/60/60
f 62/62/62 59/59/59 58/58/58
f 62/62/62 58/58/58 60/60/60
f 63/63/63 59/59/59 62/62/62
f 60/60/60 61/61/61 64/64/64
f 64/64/64 62/62/62 60/60/60
f 61/61/61 65/65/65 64/64/64
f 64/64/64 65/65/65 66/66/66
f 65/65/65 67/67/67 66/66/66
f 68/68/68 63/63/63 62/62/62
f 68/68/68 62/62/62 64/64/64
f 66/66/66 68/68/68 64/64/64
f 69/69/69 63/63/63 68/68/68
f 70/70/70 69/69/69 68/68/68
f 70/70/70 68/68/68 66/66/66
f 71/71/71 69/69/69 70/70/70
f 72/72/72 71/71/71 70/70/70
f 73/73/73 71/71/71 72/72/72
f 74/74/74 70/70/70 66/66/66
f 72/72/72 70/70/70 74/74/74
f 75/75/75 73/73/73 72/72/72
f 76/76/76 73/73/73 75/75/75
f 77/77/77 76/76/76 75/75/75
f 78/78/78 76/76/76 77/77/77
f 79/79/79 75/75/75 72/72/72
f 79/79/79 72/72/72 80/80/80
f 80/80/80 72/72/72 74/74/74
f 80/80/80 81/81/81 79/79/79
f 80/80/80 74/74/74 81/81/81
f 74/74/74 82/82/82 81/81/81
f 82/82/82 74/74/74 66/66/66
f 83/83/83 82/82/82 66/66/66
f 66/66/66 84/84/84 83/83/83
f 77/77/77 75/75/75 85/85/85
f 75/75/75 86/86/86 85/85/85
f 77/77/77 85/85/85 87/87/87
f 88/88/88 77/77/77 87/87/87
f 88/88/88 78/78/78 77/77/77
f 88/88/88 87/87/87 89/89/89
f 89/89/89 78/78/78 88/88/88
f 89/89/89 90/90/90 78/78/78
f 92/92/92 89/89/89 91/91/91
f 91/91/91 93/93/93 92/92/92
f 93/93/93 94/94/94 92/92/92
f 95/95/95 94/94/94 93/93/93
f 93/93/93 96/96/96 95/95/95
f 95/95/95 97/97/97 94/94/94
f 100/100/100 99/99/99 98/98/98
f 99/99/99 101/101/101 98/98/98
f 98/98/98 101/101/101 102/102/102
f 101/101/101 103/103/103 102/102/102
f 102/102/102 103/103/103 104/104/104
f 103/103/103 105/105/105 104/104/104
f 108/108/108 107/107/107 106/106/106
f 106/106/106 109/109/109 108/108/108
f 109/109/109 110/110/110 108/108/108
f 110/110/110 109/109/109 111/111/111
f 110/110/110 111/111/111 112/112/112
f 109/109/109 113/113/113 111/111/111
f 111/111/111 114/114/114 112/112/112
f 111/111/111 113/113/113 115/115/115
f 111/111/111 115/115/115 114/114/114
f 115/115/115 116/116/116 114/114/114
f 113/113/113 117/117/117 115/115/115
f 115/115/115 117/117/117 118/118/118
f 115/115/115 118/118/118 119/119/119
f 118/118/118 120/120/120 119/119/119
f 117/117/117 121/121/121 118/118/118
f 118/118/118 121/121/121 122/122/122
f 121/121/121 123/123/123 122/122/122
f 118/118/118 122/122/122 124/124/124
f 122/122/122 123/123/123 125/125/125
f 122/122/122 125/125/125 126/126/126
f 123/123/123 127/127/127 125/125/125
f 122/122/122 128/128/128 124/124/124
f 128/128/128 122/122/122 126/126/126
f 128/128/128 129/129/129 124/124/124
f 129/129/129 128/128/128 126/126/126
f 126/126/126 130/130/130 129/129/129
f 125/125/125 127/127/127 131/131/131
f 126/126/126 125/125/125 131/131/131
f 127/127/127 132/132/132 131/131/131
f 126/126/126 133/133/133 130/130/130
f 134/134/134 130/130/130 133/133/133
f 135/135/135 133/133/133 126/126/126
f 135/135/135 134/134/134 133/133/133
f 131/131/131 135/135/135 126/126/126
f 136/136/136 134/134/134 135/135/135
f 137/137/137 136/136/136 135/135/135
f 135/135/135 131/131/131 137/137/137
f 138/138/138 136/136/136 137/137/137
f 131/131/131 132/132/132 139/139/139
f 131/131/131 139/139/139 137/137/137
f 132/132/132 140/140/140 139/139/139
f 141/141/141 138/138/138 137/137/137
f 137/137/137 139/139/139 141/141/141
f 142/142/142 138/138/138 141/141/141
f 139/139/139 140/140/140 143/143/143
f 139/139/139 143/143/143 141/141/141
f 140/140/140 144/144/144 143/143/143
f 145/145/145 142/142/142 141/141/141
f 141/141/141 143/143/143 145/145/145
f 146/146/146 142/142/142 145/145/145
f 143/143/143 144/144/144 147/147/147
f 143/143/143 147/147/147 145/145/145
f 144/144/144 148/148/148 147/147/147
f 149/149/149 146/146/146 145/145/145
f 145/145/145 147/147/147 149/149/149
f 147/147/147 148/148/148 150/150/150
f 147/147/147 150/150/150 149/149/149
f 148/148/148 151/151/151 150/150/150
f 149/149/149 152/152/152 146/146/146
f 149/149/149 150/150/150 152/152/152
f 152/152/152 153/153/153 146/146/146
f 150/150/150 151/151/151 154/154/154
f 150/150/150 154/154/154 152/152/152
f 151/151/151 155/155/155 154/154/154
f 152/152/152 154/154/154 156/156/156
f 152/152/152 156/156/156 157/157/157
f 156/156/156 158/158/158 157/157/157
f 154/154/154 155/155/155 159/159/159
f 154/154/154 159/159/159 156/156/156
f 155/155/155 160/160/160 159/159/159
f 156/156/156 161/161/161 158/158/158
f 156/156/156 159/159/159 161/161/161
f 161/161/161 162/162/162 158/158/158
f 159/159/159 160/160/160 163/163/163
f 159/159/159 163/163/163 161/161/161
f 160/160/160 164/164/164 163/163/163
f 161/161/161 163/163/163 165/165/165
f 161/161/161 165/165/165 166/166/166
f 165/165/165 167/167/167 166/166/166
f 163/163/163 164/164/164 168/168/168
f 163/163/163 168/168/168 165/165/165
f 164/164/164 169/169/169 168/168/168
f 165/165/165 170/170/170 167/167/167
f 165/165/165 168/168/168 170/170/170
f 170/170/170 171/171/171 167/167/167
f 168/168/168 169/169/169 172/172/172
f 168/168/168 172/172/172 170/170/170
f 169/169/169 173/173/173 172/172/172
f 174/174/174 171/171/171 170/170/170
f 174/174/174 175/175/175 171/171/171
f 170/170/170 176/176/176 174/174/174
f 170/170/170 172/172/172 176/176/176
f 172/172/172 173/173/173 177/177/177
f 172/172/172 177/177/177 176/176/176
f 173/173/173 178/178/178 177/177/177
f 177/177/177 178/178/178 179/179/179
f 178/178/178 180/180/180 179/179/179
f 176/176/176 177/177/177 181/181/181
f 177/177/177 179/179/179 181/181/181
f 181/181/181 182/182/182 176/176/176
f 182/182/182 183/183/183 176/176/176
f 184/184/184 182/182/182 181/181/181
f 184/184/184 181/181/181 179/179/179
f 179/179/179 180/180/180 185/185/185
f 179/179/179 185/185/185 184/184/184
f 186/186/186 184/184/184 185/185/185
f 180/180/180 187/187/187 185/185/185
f 188/188/188 186/186/186 185/185/185
f 185/185/185 187/187/187 188/188/188
f 187/187/187 189/189/189 188/188/188
f 188/188/188 189/189/189 190/190/190
f 189/189/189 191/191/191 190/190/190
f 190/190/190 191/191/191 192/192/192
f 190/190/190 193/193/193 188/188/188
f 193/193/193 194/194/194 188/188/188
f 195/195/195 190/190/190 192/192/192
f 192/192/192 196/196/196 195/195/195
f 199/199/199 198/198/198 197/197/197
f 200/200/200 199/199/199 197/197/197
f 197/197/197 201/201/201 200/200/200
f 202/202/202 201/201/201 197/197/197
f 201/201/201 202/202/202 203/203/203
f 203/203/203 204/204/204 201/201/201
