g Plane001
v -0 0.00354774855 0
v 0.170445547 0.146277308 0
v 0.127000004 0.00354774855 0
v 0.0461333022 0.17266649 0
v -0.127000004 0.00354774855 0
v 0.227723107 0.253875285 0
v -0.0782010183 0.199239969 0
v 0.10816808 0.297261417 0
v 0.318769068 0.379726529 0
v -0.0113870716 0.340647221 0
v 0.208637789 0.444573641 0
v 0.410718679 0.469985783 0
v 0.098506391 0.509420574 0
v 0.325650066 0.560901105 0
v 0.512451828 0.529195607 0
v 0.240581289 0.651815951 0
v 0.460081398 0.644895256 0
v 0.642769098 0.562449753 0
v 0.407710999 0.760594547 0
v 0.614788592 0.68663162 0
v 0.80247128 0.584249496 0
v 0.586808383 0.810813844 0
v 0.783572912 0.71027565 0
v 0.994434416 0.600769699 0
v 0.764675021 0.836302638 0
v 0.964505196 0.724995494 0
v 1.17939413 0.64324373 0
v 0.934575915 0.849221587 0
v 1.1249299 0.755990744 0
v 1.36069381 0.710356891 0
v 1.07046556 0.868738055 0
v 1.27580297 0.804816306 0
v 1.55057919 0.796491086 0
v 1.19091213 0.899276018 0
v 1.4485172 0.874008358 0
v 1.69884896 0.933246791 0
v 1.34645557 0.95152545 0
v 1.60581803 0.97491461 0
v 1.8196348 1.1057018 0
v 1.51940119 1.01361978 0
v 1.73497415 1.11334634 0
v 1.85484719 1.23409641 0
v 1.65146816 1.12088609 0
v 1.78767848 1.23630285 0
v 1.78259289 1.44571877 0
v 1.72958779 1.23819709 0
v 1.76806879 1.44602704 0
v 1.75690746 1.44626367 0
vt 0.5 0
vt 1 0.0666666701
vt 1 0
vt 0.5 0.0666666701
vt 0 0
vt 1 0.13333334
vt 0 0.0666666701
vt 0.5 0.13333334
vt 1 0.200000018
vt 0 0.13333334
vt 0.5 0.200000018
vt 1 0.266666681
vt 0 0.200000018
vt 0.5 0.266666681
vt 1 0.333333343
vt 0 0.266666681
vt 0.5 0.333333343
vt 1 0.400000006
vt 0 0.333333343
vt 0.5 0.400000006
vt 1 0.466666669
vt 0 0.400000006
vt 0.5 0.466666669
vt 1 0.533333361
vt 0 0.466666669
vt 0.5 0.533333361
vt 1 0.600000024
vt 0 0.533333361
vt 0.5 0.600000024
vt 1 0.666666687
vt 0 0.600000024
vt 0.5 0.666666687
vt 1 0.733333349
vt 0 0.666666687
vt 0.5 0.733333349
vt 1 0.800000012
vt 0 0.733333349
vt 0.5 0.800000012
vt 1 0.866666675
vt 0 0.800000012
vt 0.5 0.866666675
vt 1 0.933333337
vt 0 0.866666675
vt 0.5 0.933333337
vt 1 1
vt 0 0.933333337
vt 0.5 1
vt 0 1
vn -0 0 1
vn -0 0 1
vn -0 0 1
vn -0 0 1
vn -0 0 1
vn -0 0 1
vn -0 0 1
vn -0 0 1
vn -0 0 1
vn -0 0 1
vn -0 0 1
vn -0 0 1
vn -0 0 1
vn -0 0 1
vn -0 0 1
vn -0 0 1
vn -0 0 1
vn -0 0 1
vn -0 0 1
vn -0 0 1
vn -0 0 1
vn -0 0 1
vn -0 0 1
vn -0 0 1
vn -0 0 1
vn -0 0 1
vn -0 0 1
vn -0 0 1
vn -0 0 1
vn -0 0 1
vn -0 0 1
vn -0 0 1
vn -0 0 1
vn -0 0 1
vn -0 0 1
vn -0 0 1
vn -0 0 1
vn -0 0 1
vn -0 0 1
vn -0 0 1
vn -0 0 1
vn -0 0 1
vn -0 0 1
vn -0 0 1
vn -0 0 1
vn -0 0 1
vn -0 0 1
vn -0 0 1
g Plane001_0
f 3/3/3 2/2/2 1/1/1
f 2/2/2 4/4/4 1/1/1
f 1/1/1 4/4/4 5/5/5
f 2/2/2 6/6/6 4/4/4
f 4/4/4 7/7/7 5/5/5
f 6/6/6 8/8/8 4/4/4
f 4/4/4 8/8/8 7/7/7
f 6/6/6 9/9/9 8/8/8
f 8/8/8 10/10/10 7/7/7
f 9/9/9 11/11/11 8/8/8
f 8/8/8 11/11/11 10/10/10
f 9/9/9 12/12/12 11/11/11
f 11/11/11 13/13/13 10/10/10
f 12/12/12 14/14/14 11/11/11
f 11/11/11 14/14/14 13/13/13
f 12/12/12 15/15/15 14/14/14
f 14/14/14 16/16/16 13/13/13
f 15/15/15 17/17/17 14/14/14
f 14/14/14 17/17/17 16/16/16
f 15/15/15 18/18/18 17/17/17
f 17/17/17 19/19/19 16/16/16
f 18/18/18 20/20/20 17/17/17
f 17/17/17 20/20/20 19/19/19
f 18/18/18 21/21/21 20/20/20
f 20/20/20 22/22/22 19/19/19
f 21/21/21 23/23/23 20/20/20
f 20/20/20 23/23/23 22/22/22
f 21/21/21 24/24/24 23/23/23
f 23/23/23 25/25/25 22/22/22
f 24/24/24 26/26/26 23/23/23
f 23/23/23 26/26/26 25/25/25
f 24/24/24 27/27/27 26/26/26
f 26/26/26 28/28/28 25/25/25
f 27/27/27 29/29/29 26/26/26
f 26/26/26 29/29/29 28/28/28
f 27/27/27 30/30/30 29/29/29
f 29/29/29 31/31/31 28/28/28
f 30/30/30 32/32/32 29/29/29
f 29/29/29 32/32/32 31/31/31
f 30/30/30 33/33/33 32/32/32
f 32/32/32 34/34/34 31/31/31
f 33/33/33 35/35/35 32/32/32
f 32/32/32 35/35/35 34/34/34
f 33/33/33 36/36/36 35/35/35
f 35/35/35 37/37/37 34/34/34
f 36/36/36 38/38/38 35/35/35
f 35/35/35 38/38/38 37/37/37
f 36/36/36 39/39/39 38/38/38
f 38/38/38 40/40/40 37/37/37
f 39/39/39 41/41/41 38/38/38
f 38/38/38 41/41/41 40/40/40
f 39/39/39 42/42/42 41/41/41
f 41/41/41 43/43/43 40/40/40
f 42/42/42 44/44/44 41/41/41
f 41/41/41 44/44/44 43/43/43
f 42/42/42 45/45/45 44/44/44
f 44/44/44 46/46/46 43/43/43
f 45/45/45 47/47/47 44/44/44
f 44/44/44 47/47/47 46/46/46
f 47/47/47 48/48/48 46/46/46
