g Plane001
v 0.0104171932 0.003874182 0
v 0.0174564924 0.205121011 3.40640538E-09
v 0.127000004 0.003874182 0
v -0.0862995759 0.142641395 3.40640538E-09
v -0.10616561 0.003874182 -1.89244745E-10
v -0.103196412 0.344095081 2.74404872E-08
v -0.190025032 0.0803769752 3.40640538E-09
v -0.191463694 0.241473719 2.74404872E-08
v -0.253114283 0.444260389 9.23514349E-08
v -0.279730976 0.138852865 2.76297332E-08
v -0.318674237 0.315542549 9.23514349E-08
v -0.391884297 0.541275918 2.18766928E-07
v -0.384234488 0.186824635 9.23514349E-08
v -0.457352608 0.408947706 2.18766928E-07
v -0.526701152 0.629813373 4.27693124E-07
v -0.52282089 0.276619643 2.18766928E-07
v -0.606230617 0.509558439 4.27503892E-07
v -0.676518381 0.697224319 7.38622248E-07
v -0.685759902 0.389303565 4.27693124E-07
v -0.763861775 0.585733593 7.38622248E-07
v -0.828979135 0.766873598 1.17312823E-06
v -0.851204932 0.474242449 7.38622248E-07
v -0.923400223 0.668421209 1.17312823E-06
v -0.98112303 0.848078191 1.75108164E-06
v -1.01782084 0.569968283 1.17312823E-06
v -1.08215976 0.768273175 1.75108164E-06
v -1.10943878 0.963747084 2.49348886E-06
v -1.18319643 0.688467681 1.75108164E-06
v -1.21235907 0.901216865 2.49348886E-06
v -1.22238326 1.10422921 3.41965256E-06
v -1.3152796 0.838686764 2.49329946E-06
v -1.3223964 1.06121314 3.41965256E-06
v -1.34672654 1.24770653 0.000454232621
v -1.42240953 1.01819694 3.42003113E-06
v -1.44008064 1.23512065 -9.19570521E-05
v -1.43766248 1.41423571 -0.000722564233
v -1.53343487 1.22253454 -0.000638144091
v -1.51679146 1.42668056 0.000252534053
v -1.47556031 1.61128914 -0.00286146509
v -1.59592044 1.43912506 0.00122763345
v -1.53306484 1.6370815 0.00131570909
v -1.46665418 1.82252705 -0.00278345821
v -1.59056902 1.66287327 0.00549291261
v -1.49125648 1.87684941 0.000374134397
v -1.42264009 2.00861263 -0.00218183803
v -1.51585925 1.93116987 0.00353173073
v -1.43247628 2.01366806 -0.00132842932
v -1.44231272 2.01872325 -0.00047502041
vt 0.5 0
vt 1 0.0666666701
vt 1 0
vt 0.5 0.0666666701
vt 0 0
vt 1 0.13333334
vt 0 0.0666666701
vt 0.5 0.13333334
vt 1 0.200000018
vt 0 0.13333334
vt 0.5 0.200000018
vt 1 0.266666681
vt 0 0.200000018
vt 0.5 0.266666681
vt 1 0.333333343
vt 0 0.266666681
vt 0.5 0.333333343
vt 1 0.400000006
vt 0 0.333333343
vt 0.5 0.400000006
vt 1 0.466666669
vt 0 0.400000006
vt 0.5 0.466666669
vt 1 0.533333361
vt 0 0.466666669
vt 0.5 0.533333361
vt 1 0.600000024
vt 0 0.533333361
vt 0.5 0.600000024
vt 1 0.666666687
vt 0 0.600000024
vt 0.5 0.666666687
vt 1 0.733333349
vt 0 0.666666687
vt 0.5 0.733333349
vt 1 0.800000012
vt 0 0.733333349
vt 0.5 0.800000012
vt 1 0.866666675
vt 0 0.800000012
vt 0.5 0.866666675
vt 1 0.933333337
vt 0 0.866666675
vt 0.5 0.933333337
vt 1 1
vt 0 0.933333337
vt 0.5 1
vt 0 1
vn -0 0 1
vn -0 0 1
vn -0 0 1
vn -0 0 1
vn -0 0 1
vn -0 0 1
vn -0 0 1
vn -0 0 1
vn 5.18180229E-07 -2.84829923E-07 1
vn 2.89370263E-07 0 1
vn 5.26272004E-07 -2.94195388E-07 1
vn 8.8798015E-07 -4.87857335E-07 1
vn 5.468724E-07 -3.08585726E-07 1
vn 8.44921487E-07 -4.60445534E-07 1
vn 1.27666999E-06 -8.38078677E-07 1
vn 8.11821224E-07 -4.38924303E-07 1
vn 1.2415494E-06 -8.20041578E-07 1
vn 1.70206818E-06 -1.34705613E-06 1
vn 1.19576544E-06 -7.91921877E-07 1
vn 1.67528594E-06 -1.34408856E-06 1
vn 2.0837208E-06 -2.01592798E-06 1
vn 1.6336063E-06 -1.32185392E-06 1
vn 2.02171282E-06 -2.00115119E-06 1
vn 2.32960133E-06 -2.89099125E-06 1
vn 1.94501604E-06 -1.95055782E-06 1
vn 2.23075767E-06 -2.83744157E-06 1
vn 2.3708335E-06 -3.89126444E-06 1
vn 2.14621787E-06 -2.77054073E-06 1
vn 2.26485668E-06 -3.79026619E-06 1
vn -0.000833545986 -0.00109486259 0.999999046
vn 2.17363663E-06 -3.66562676E-06 1
vn -0.00120793807 -0.000709004351 0.999999046
vn -0.000423673482 -0.000468831946 0.999999881
vn -0.00154460885 0.000107867018 0.999998808
vn -5.16640866E-05 -0.000361382001 1
vn 0.0157662425 0.00506931683 0.999862909
vn 0.000272482837 -0.00259696203 0.999996662
vn 0.0200471673 -0.00110379327 0.999798477
vn 0.0547626428 0.0025539347 0.998496175
vn 0.0217059106 -0.00866811816 0.999726832
vn 0.0581721179 -0.00704575656 0.998281717
vn 0.0812773854 -0.0101439776 0.996639848
vn 0.0599691533 -0.0117793921 0.998130739
vn 0.0785278827 -0.0163585711 0.996777713
vn 0.0787270069 -0.0216640774 0.996660829
vn 0.078739211 -0.0189642925 0.99671495
vn 0.0789906234 -0.0215099528 0.996643305
vn 0.079232417 -0.0213685948 0.996627212
g Plane001_0
f 3/3/3 2/2/2 1/1/1
f 2/2/2 4/4/4 1/1/1
f 1/1/1 4/4/4 5/5/5
f 2/2/2 6/6/6 4/4/4
f 4/4/4 7/7/7 5/5/5
f 6/6/6 8/8/8 4/4/4
f 4/4/4 8/8/8 7/7/7
f 6/6/6 9/9/9 8/8/8
f 8/8/8 10/10/10 7/7/7
f 9/9/9 11/11/11 8/8/8
f 8/8/8 11/11/11 10/10/10
f 9/9/9 12/12/12 11/11/11
f 11/11/11 13/13/13 10/10/10
f 12/12/12 14/14/14 11/11/11
f 11/11/11 14/14/14 13/13/13
f 12/12/12 15/15/15 14/14/14
f 14/14/14 16/16/16 13/13/13
f 15/15/15 17/17/17 14/14/14
f 14/14/14 17/17/17 16/16/16
f 15/15/15 18/18/18 17/17/17
f 17/17/17 19/19/19 16/16/16
f 18/18/18 20/20/20 17/17/17
f 17/17/17 20/20/20 19/19/19
f 18/18/18 21/21/21 20/20/20
f 20/20/20 22/22/22 19/19/19
f 21/21/21 23/23/23 20/20/20
f 20/20/20 23/23/23 22/22/22
f 21/21/21 24/24/24 23/23/23
f 23/23/23 25/25/25 22/22/22
f 24/24/24 26/26/26 23/23/23
f 23/23/23 26/26/26 25/25/25
f 24/24/24 27/27/27 26/26/26
f 26/26/26 28/28/28 25/25/25
f 27/27/27 29/29/29 26/26/26
f 26/26/26 29/29/29 28/28/28
f 27/27/27 30/30/30 29/29/29
f 29/29/29 31/31/31 28/28/28
f 30/30/30 32/32/32 29/29/29
f 29/29/29 32/32/32 31/31/31
f 30/30/30 33/33/33 32/32/32
f 32/32/32 34/34/34 31/31/31
f 33/33/33 35/35/35 32/32/32
f 32/32/32 35/35/35 34/34/34
f 33/33/33 36/36/36 35/35/35
f 35/35/35 37/37/37 34/34/34
f 36/36/36 38/38/38 35/35/35
f 35/35/35 38/38/38 37/37/37
f 36/36/36 39/39/39 38/38/38
f 38/38/38 40/40/40 37/37/37
f 39/39/39 41/41/41 38/38/38
f 38/38/38 41/41/41 40/40/40
f 39/39/39 42/42/42 41/41/41
f 41/41/41 43/43/43 40/40/40
f 42/42/42 44/44/44 41/41/41
f 41/41/41 44/44/44 43/43/43
f 42/42/42 45/45/45 44/44/44
f 44/44/44 46/46/46 43/43/43
f 45/45/45 47/47/47 44/44/44
f 44/44/44 47/47/47 46/46/46
f 47/47/47 48/48/48 46/46/46
