g Plane001
v 0.0025173123 0.252322584 -0.634194911
v 0.256517321 0.253392667 -0.381199121
v 0.00251733651 0.253392667 -0.381199121
v 0.256517321 0.252322584 -0.634194911
v 0.0025173123 -0.00167741696 -0.634194911
v 0.256517321 -0.00167741696 -0.634194911
v 0.00251736096 -0.255677402 -0.634194911
v 0.256517351 -0.255677402 -0.634194911
v 0.00251736096 -0.508738101 -0.635085762
v 0.256517351 -0.508738101 -0.635085762
v 0.00251737307 -0.508738101 -0.382294983
v 0.25651738 -0.508738101 -0.382294983
v 0.00251738518 -0.508738101 -0.128294975
v 0.25651738 -0.508738101 -0.128294975
v 0.00251739728 -0.508738101 0.125705019
v 0.25651738 -0.508738101 0.125705019
v 0.00251740939 -0.508738101 0.379705012
v 0.25651741 -0.508738101 0.379705012
v 0.00251740939 -0.508402169 0.635085762
v 0.25651741 -0.508402169 0.635085762
v 0.00251740939 -0.254402161 0.635085762
v 0.25651741 -0.254402161 0.635085762
v 0.00251740939 -0.000402155682 0.635085762
v 0.25651741 -0.000402155682 0.635085762
v 0.00251740939 0.253597856 0.635085762
v 0.25651741 0.253597856 0.635085762
v 0.00251739728 0.253503472 0.381033272
v 0.25651738 0.253503472 0.381033272
v 0.00251739728 0.508738101 0.380879372
v 0.25651738 0.508738101 0.380879372
v 0.00251738518 0.508738101 0.126879364
v 0.25651738 0.508738101 0.126879364
v 0.00251737307 0.508738101 -0.127120629
v 0.25651738 0.508738101 -0.127120629
v 0.00251736096 0.508738101 -0.381120622
v 0.256517351 0.508738101 -0.381120622
v 0.00251733651 0.253392667 -0.381199121
v 0.256517321 0.253392667 -0.381199121
vt 0.944444418 6.37989714E-08
vt 1.00000012 1
vt 1 5.96046448E-08
vt 0.944444537 1
vt 0.888888896 6.79932981E-08
vt 0.888888955 1
vt 0.833333313 7.21876319E-08
vt 0.833333373 1
vt 0.777777791 7.63819585E-08
vt 0.777777851 1
vt 0.722222209 8.05762852E-08
vt 0.722222328 1
vt 0.666666627 8.47706119E-08
vt 0.666666746 1
vt 0.611111104 8.89649385E-08
vt 0.611111164 1
vt 0.555555582 9.31592723E-08
vt 0.555555642 1
vt 0.5 9.73535919E-08
vt 0.500000119 1
vt 0.444444418 1.01547926E-07
vt 0.444444478 1
vt 0.388888836 1.05742259E-07
vt 0.388888896 1
vt 0.333333254 1.09936586E-07
vt 0.333333313 1
vt 0.277777672 1.14130913E-07
vt 0.277777731 1
vt 0.22222209 1.18325246E-07
vt 0.222222149 1
vt 0.166666508 1.22519566E-07
vt 0.166666567 1.00000024
vt 0.111110926 1.267139E-07
vt 0.111110985 1.00000024
vt 0.0555553436 1.30908234E-07
vt 0.0555554032 1.00000024
vt -2.38418579E-07 1.35102567E-07
vt -1.1920929E-07 1.00000024
vn -0 0.705609798 -0.70860064
vn -0 0.705718637 -0.70849216
vn -0 0.705718696 -0.7084921
vn -0 0.705609798 -0.708600581
vn -0 0 -1
vn -0 0 -1
vn -0 0.00176011736 -0.99999845
vn -0 0.00176011736 -0.99999845
vn -0 -0.705861092 -0.708350241
vn -0 -0.705861092 -0.708350241
vn -0 -1 0
vn -0 -1 0
vn -0 -1 0
vn -0 -1 0
vn -0 -1 0
vn -0 -1 0
vn -0 -0.999999762 0.000657678291
vn -0 -0.999999762 0.000657678291
vn -0 -0.706641614 0.707571745
vn -0 -0.706641614 0.707571745
vn -0 0 1
vn -0 0 1
vn -0 0 1
vn -0 0 1
vn -0 0.707238078 0.70697546
vn -0 0.707238078 0.70697552
vn -0 0.707451224 0.706762195
vn -0 0.707451224 0.706762195
vn -0 0.707319975 0.706893504
vn -0 0.707319915 0.706893444
vn -0 1 0
vn -0 1 0
vn -0 1 0
vn -0 1 0
vn -0 0.707215488 -0.706998169
vn -0 0.707215488 -0.70699811
vn -0 0.705718696 -0.7084921
vn -0 0.705718637 -0.70849216
g Plane001_0
f 3/3/3 2/2/2 1/1/1
f 2/2/2 4/4/4 1/1/1
f 1/1/1 4/4/4 5/5/5
f 4/4/4 6/6/6 5/5/5
f 5/5/5 6/6/6 7/7/7
f 6/6/6 8/8/8 7/7/7
f 7/7/7 8/8/8 9/9/9
f 8/8/8 10/10/10 9/9/9
f 9/9/9 10/10/10 11/11/11
f 10/10/10 12/12/12 11/11/11
f 11/11/11 12/12/12 13/13/13
f 12/12/12 14/14/14 13/13/13
f 13/13/13 14/14/14 15/15/15
f 14/14/14 16/16/16 15/15/15
f 15/15/15 16/16/16 17/17/17
f 16/16/16 18/18/18 17/17/17
f 17/17/17 18/18/18 19/19/19
f 18/18/18 20/20/20 19/19/19
f 19/19/19 20/20/20 21/21/21
f 20/20/20 22/22/22 21/21/21
f 21/21/21 22/22/22 23/23/23
f 22/22/22 24/24/24 23/23/23
f 23/23/23 24/24/24 25/25/25
f 24/24/24 26/26/26 25/25/25
f 25/25/25 26/26/26 27/27/27
f 26/26/26 28/28/28 27/27/27
f 27/27/27 28/28/28 29/29/29
f 28/28/28 30/30/30 29/29/29
f 29/29/29 30/30/30 31/31/31
f 30/30/30 32/32/32 31/31/31
f 31/31/31 32/32/32 33/33/33
f 32/32/32 34/34/34 33/33/33
f 33/33/33 34/34/34 35/35/35
f 34/34/34 36/36/36 35/35/35
f 35/35/35 36/36/36 37/37/37
f 36/36/36 38/38/38 37/37/37
