g FX_m_ribbon_01
v -0.0755779445 0.00955748372 0
v 0.0643708035 0.00201346725 0
v 0.0565475896 -0.0834646747 0
v -0.0821990967 -0.0636678636 0
v 0.0372734517 -0.171165958 0
v -0.0967275947 -0.130101591 0
v -0.00117659965 -0.26543206 0
v -0.126982167 -0.203662112 0
v -0.0518389866 -0.350046039 0
v -0.163094863 -0.264812857 0
v -0.114911906 -0.41339609 0
v -0.202177614 -0.30372721 0
v -0.189676911 -0.466248572 0
v -0.267171144 -0.349470109 0
v -0.265795738 -0.513613224 0
v -0.335230798 -0.39187032 0
v -0.347719043 -0.554162025 0
v -0.401055247 -0.424555659 0
v -0.437174022 -0.5815835 0
v -0.464171171 -0.444056332 0
v -0.509672582 -0.591352642 0
v -0.522278845 -0.451768845 0
v -0.593079507 -0.596448839 0
v -0.598427951 -0.456399083 0
v -0.683873117 -0.598455906 0
v -0.685132325 -0.458309621 0
v -0.777072549 -0.598453581 0
v -0.776049316 -0.458305448 0
v -0.867252111 -0.597425222 0
v -0.865280092 -0.457287192 0
v -0.948720157 -0.596326947 0
v -0.947193146 -0.456183404 0
vt 0 0
vt 0 1
vt 0.0666666701 1
vt 0.0666666701 0
vt 0.13333334 1
vt 0.13333334 0
vt 0.200000018 1
vt 0.200000018 0
vt 0.266666681 1
vt 0.266666681 0
vt 0.333333343 1
vt 0.333333343 0
vt 0.400000006 1
vt 0.400000006 0
vt 0.466666669 1
vt 0.466666669 0
vt 0.533333361 1
vt 0.533333361 0
vt 0.600000024 1
vt 0.600000024 0
vt 0.666666687 1
vt 0.666666687 0
vt 0.733333349 1
vt 0.733333349 0
vt 0.800000012 1
vt 0.800000012 0
vt 0.866666675 1
vt 0.866666675 0
vt 0.933333337 1
vt 0.933333337 0
vt 1 1
vt 1 0
vn -0 0 1
vn -0 0 1
vn -0 0 1
vn -0 0 1
vn -0 0 1
vn -0 0 1
vn -0 0 1
vn -0 0 1
vn -0 0 1
vn -0 0 1
vn -0 0 1
vn -0 0 1
vn -0 0 1
vn -0 0 1
vn -0 0 1
vn -0 0 1
vn -0 0 1
vn -0 0 1
vn -0 0 1
vn -0 0 1
vn -0 0 1
vn -0 0 1
vn -0 0 1
vn -0 0 1
vn -0 0 1
vn -0 0 1
vn -0 0 1
vn -0 0 1
vn -0 0 1
vn -0 0 1
vn -0 0 1
vn -0 0 1
g FX_m_ribbon_01_0
f 3/3/3 2/2/2 1/1/1
f 4/4/4 3/3/3 1/1/1
f 5/5/5 3/3/3 4/4/4
f 6/6/6 5/5/5 4/4/4
f 7/7/7 5/5/5 6/6/6
f 8/8/8 7/7/7 6/6/6
f 9/9/9 7/7/7 8/8/8
f 10/10/10 9/9/9 8/8/8
f 11/11/11 9/9/9 10/10/10
f 12/12/12 11/11/11 10/10/10
f 13/13/13 11/11/11 12/12/12
f 14/14/14 13/13/13 12/12/12
f 15/15/15 13/13/13 14/14/14
f 16/16/16 15/15/15 14/14/14
f 17/17/17 15/15/15 16/16/16
f 18/18/18 17/17/17 16/16/16
f 19/19/19 17/17/17 18/18/18
f 20/20/20 19/19/19 18/18/18
f 21/21/21 19/19/19 20/20/20
f 22/22/22 21/21/21 20/20/20
f 23/23/23 21/21/21 22/22/22
f 24/24/24 23/23/23 22/22/22
f 25/25/25 23/23/23 24/24/24
f 26/26/26 25/25/25 24/24/24
f 27/27/27 25/25/25 26/26/26
f 28/28/28 27/27/27 26/26/26
f 29/29/29 27/27/27 28/28/28
f 30/30/30 29/29/29 28/28/28
f 31/31/31 29/29/29 30/30/30
f 32/32/32 31/31/31 30/30/30
