g airboom
v 0.00405622553 -0.0149566131 7.84690783E-05
v 0.00499569625 -0.0149566131 7.84694494E-05
v 0.00499569578 -0.0140351495 0.00102082919
v 0.00405622507 -0.0140351495 0.00102082873
v -0.00422010804 -0.0149566159 7.84658405E-05
v 0.00499569485 -0.0130154472 0.00195594388
v -0.0042201085 -0.0140351495 0.00102082558
v -0.00499569299 -0.0149566159 7.84655349E-05
v -0.00499569345 -0.0140351495 0.00102082535
v 0.00405622367 -0.0130154472 0.00195594388
v 0.00499569299 -0.0117273284 0.00304980134
v -0.00422010943 -0.0130154509 0.00195594085
v -0.00499569392 -0.0130154509 0.00195594062
v 0.00405622227 -0.0117273284 0.00304980087
v 0.00499569392 -0.0104599502 0.00410263287
v -0.00422011083 -0.0117273312 0.00304979784
v -0.00499569578 -0.0117273312 0.00304979761
v 0.00405622274 -0.0104599502 0.0041026324
v 0.00499569392 -0.00905740634 0.00495784357
v -0.0042201113 -0.0104599521 0.00410262914
v -0.00499569578 -0.0104599521 0.00410262868
v 0.00405622227 -0.00905740634 0.00495784311
v 0.00499569159 -0.00749386474 0.00552352611
v -0.00422011223 -0.00905740913 0.00495783938
v -0.00499569625 -0.00905740913 0.00495783892
v 0.00405622087 -0.00749386474 0.00552352518
v 0.00499569299 -0.00586614711 0.0059438711
v -0.00422011223 -0.0074938694 0.00552352285
v -0.00499569718 -0.0074938694 0.00552352238
v 0.00405622227 -0.00586614711 0.00594387064
v 0.00499569159 -0.00411517918 0.00620749174
v 0.00405622087 -0.00411517918 0.00620749081
v -0.0042201113 -0.00586614851 0.00594386738
v -0.00499569625 -0.00586614851 0.00594386691
v -0.00422011269 -0.00411518104 0.00620748755
v -0.00499569764 -0.00411518104 0.00620748708
v -0.0149566149 -0.0040562246 7.84690637E-05
v -0.0149566131 -0.00499569578 7.84694421E-05
v -0.0140351485 -0.00499569532 0.00102082908
v -0.0140351495 -0.0040562246 0.00102082873
v -0.0149566159 0.00422010897 7.84658332E-05
v -0.013015449 -0.00499569392 0.00195594365
v -0.0140351495 0.00422010897 0.00102082558
v -0.0149566159 0.00499569299 7.84655276E-05
v -0.0140351495 0.00499569392 0.00102082524
v -0.0130154472 -0.00405622274 0.00195594365
v -0.0117273284 -0.00499569206 0.00304980087
v -0.0130154509 0.0042201099 0.00195594062
v -0.0130154509 0.00499569392 0.00195594039
v -0.0117273284 -0.00405622134 0.00304980064
v -0.0104599502 -0.00499569345 0.0041026324
v -0.0117273312 0.0042201113 0.00304979761
v -0.0117273312 0.00499569625 0.00304979738
v -0.0104599502 -0.00405622227 0.00410263194
v -0.00905740634 -0.00499569392 0.00495784311
v -0.0104599521 0.0042201113 0.00410262914
v -0.0104599521 0.00499569625 0.00410262821
v -0.00905740634 -0.00405622181 0.00495784264
v -0.00749386521 -0.00499569159 0.00552352518
v -0.00905740913 0.00422011269 0.00495783892
v -0.00905740913 0.00499569625 0.00495783845
v -0.00749386428 -0.00405622041 0.00552352471
v -0.00586614711 -0.00499569252 0.00594387064
v -0.0074938694 0.00422011176 0.00552352238
v -0.0074938694 0.00499569718 0.00552352192
v -0.00586614711 -0.00405622181 0.00594386971
v -0.00411518011 -0.00499569112 0.00620749081
v -0.00411518011 -0.00405622041 0.00620749034
v -0.00586614851 0.0042201113 0.00594386691
v -0.00586614851 0.00499569625 0.00594386645
v -0.00411518104 0.00422011269 0.00620748708
v -0.00411518104 0.00499569811 0.00620748615
v -0.0040562246 0.0149566149 7.84690565E-05
v -0.00499569532 0.0149566121 7.84694275E-05
v -0.00499569485 0.0140351485 0.00102082908
v -0.00405622413 0.0140351495 0.00102082861
v 0.0042201099 0.0149566159 7.84658259E-05
v -0.00499569345 0.013015449 0.00195594341
v 0.0042201099 0.0140351495 0.00102082547
v 0.00499569299 0.0149566159 7.84655203E-05
v 0.00499569532 0.0140351495 0.00102082524
v -0.00405622227 0.013015449 0.00195594341
v -0.00499569159 0.0117273284 0.00304980064
v 0.0042201113 0.0130154509 0.00195594062
v 0.00499569392 0.0130154509 0.00195594016
v -0.00405622041 0.0117273284 0.00304980041
v -0.00499569299 0.0104599502 0.0041026324
v 0.00422011269 0.0117273312 0.00304979738
v 0.00499569764 0.0117273312 0.00304979715
v -0.00405622181 0.0104599502 0.00410263194
v -0.00499569345 0.00905740634 0.00495784311
v 0.0042201113 0.0104599521 0.00410262868
v 0.00499569625 0.0104599521 0.00410262821
v -0.00405622134 0.0090574054 0.00495784264
v -0.00499569112 0.00749386521 0.00552352471
v 0.00422011269 0.00905740913 0.00495783892
v 0.00499569625 0.00905740913 0.00495783845
v -0.00405622041 0.00749386474 0.00552352425
v -0.00499569206 0.00586614711 0.00594386971
v 0.00422011176 0.0074938694 0.00552352192
v 0.00499569718 0.0074938694 0.00552352099
v -0.00405622134 0.00586614711 0.00594386924
v -0.00499569066 0.00411518011 0.00620749034
v -0.00405622041 0.00411518011 0.00620748987
v 0.0042201113 0.00586614851 0.00594386645
v 0.00499569625 0.00586614851 0.00594386552
v 0.00422011316 0.00411518058 0.00620748615
v 0.00499569811 0.00411518058 0.00620748568
v 0.0149566149 0.0040562246 7.84690492E-05
v 0.0149566121 0.00499569485 7.84694203E-05
v 0.0140351485 0.00499569392 0.00102082896
v 0.0140351485 0.00405622367 0.00102082849
v 0.0149566159 -0.0042201099 7.84658187E-05
v 0.013015449 0.00499569299 0.00195594341
v 0.0140351495 -0.0042201099 0.00102082535
v 0.0149566159 -0.00499569299 7.84655058E-05
v 0.0140351495 -0.00499569532 0.00102082512
v 0.013015449 0.00405622181 0.00195594341
v 0.0117273284 0.00499569112 0.00304980041
v 0.0130154509 -0.0042201113 0.00195594039
v 0.0130154509 -0.00499569392 0.00195594016
v 0.0117273284 0.00405621994 0.00304979994
v 0.0104599502 0.00499569206 0.00410263194
v 0.0117273312 -0.00422011269 0.00304979715
v 0.0117273312 -0.00499569764 0.00304979668
v 0.0104599502 0.00405622134 0.00410263147
v 0.0090574054 0.00499569299 0.00495784264
v 0.0104599521 -0.0042201113 0.00410262821
v 0.0104599521 -0.00499569625 0.00410262775
v 0.00905740634 0.00405622041 0.00495784217
v 0.00749386614 0.00499569066 0.00552352425
v 0.00905740913 -0.00422011269 0.00495783845
v 0.00905740913 -0.00499569625 0.00495783798
v 0.00749386521 0.00405621994 0.00552352378
v 0.00586614758 0.00499569206 0.00594386924
v 0.0074938694 -0.00422011176 0.00552352099
v 0.0074938694 -0.00499569718 0.00552352052
v 0.00586614711 0.00405622134 0.00594386877
v 0.00411518058 0.00499569066 0.00620748987
v 0.00411518058 0.00405621994 0.00620748941
v 0.00586614851 -0.0042201113 0.00594386552
v 0.00586614851 -0.00499569625 0.00594386505
v 0.00411518011 -0.00422011316 0.00620748568
v 0.00411518011 -0.00499569857 0.00620748522
vt 1 0.0940280855
vt 1 0
vt 0.875 0
vt 0.875 0.0940280706
vt 1 0.922374606
vt 0.75 0
vt 0.875 0.922374606
vt 1 1
vt 0.875 1
vt 0.74999994 0.0940280706
vt 0.625 0
vt 0.75 0.922374666
vt 0.75 1
vt 0.625 0.0940281004
vt 0.5 0
vt 0.625 0.922374666
vt 0.625 1
vt 0.5 0.094028078
vt 0.375 0
vt 0.5 0.922374606
vt 0.5 1
vt 0.375 0.0940281004
vt 0.25 0
vt 0.375 0.922374606
vt 0.375 1
vt 0.25 0.0940280706
vt 0.125 0
vt 0.24999997 0.922374606
vt 0.249999985 1
vt 0.124999993 0.094028078
vt 0 0
vt 0 0.094028078
vt 0.124999985 0.922374606
vt 0.124999993 1
vt 0 0.922374606
vt 0 1
vt 1 0.0940280855
vt 1 0
vt 0.875 0
vt 0.875 0.0940280706
vt 1 0.922374606
vt 0.75 0
vt 0.875 0.922374606
vt 1 1
vt 0.875 1
vt 0.74999994 0.0940280706
vt 0.625 0
vt 0.75 0.922374666
vt 0.75 1
vt 0.625 0.0940281004
vt 0.5 0
vt 0.625 0.922374666
vt 0.625 1
vt 0.5 0.094028078
vt 0.375 0
vt 0.5 0.922374606
vt 0.5 1
vt 0.375 0.0940281004
vt 0.25 0
vt 0.375 0.922374606
vt 0.375 1
vt 0.25 0.0940280706
vt 0.125 0
vt 0.24999997 0.922374606
vt 0.249999985 1
vt 0.124999993 0.094028078
vt 0 0
vt 0 0.094028078
vt 0.124999985 0.922374606
vt 0.124999993 1
vt 0 0.922374606
vt 0 1
vt 1 0.0940280855
vt 1 0
vt 0.875 0
vt 0.875 0.0940280706
vt 1 0.922374606
vt 0.75 0
vt 0.875 0.922374606
vt 1 1
vt 0.875 1
vt 0.74999994 0.0940280706
vt 0.625 0
vt 0.75 0.922374666
vt 0.75 1
vt 0.625 0.0940281004
vt 0.5 0
vt 0.625 0.922374666
vt 0.625 1
vt 0.5 0.094028078
vt 0.375 0
vt 0.5 0.922374606
vt 0.5 1
vt 0.375 0.0940281004
vt 0.25 0
vt 0.375 0.922374606
vt 0.375 1
vt 0.25 0.0940280706
vt 0.125 0
vt 0.24999997 0.922374606
vt 0.249999985 1
vt 0.124999993 0.094028078
vt 0 0
vt 0 0.094028078
vt 0.124999985 0.922374606
vt 0.124999993 1
vt 0 0.922374606
vt 0 1
vt 1 0.0940280855
vt 1 0
vt 0.875 0
vt 0.875 0.0940280706
vt 1 0.922374606
vt 0.75 0
vt 0.875 0.922374606
vt 1 1
vt 0.875 1
vt 0.74999994 0.0940280706
vt 0.625 0
vt 0.75 0.922374666
vt 0.75 1
vt 0.625 0.0940281004
vt 0.5 0
vt 0.625 0.922374666
vt 0.625 1
vt 0.5 0.094028078
vt 0.375 0
vt 0.5 0.922374606
vt 0.5 1
vt 0.375 0.0940281004
vt 0.25 0
vt 0.375 0.922374606
vt 0.375 1
vt 0.25 0.0940280706
vt 0.125 0
vt 0.24999997 0.922374606
vt 0.249999985 1
vt 0.124999993 0.094028078
vt 0 0
vt 0 0.094028078
vt 0.124999985 0.922374606
vt 0.124999993 1
vt 0 0.922374606
vt 0 1
vn -0 0.714997113 -0.699127316
vn -0 0.714997113 -0.699127316
vn -0 0.695693314 -0.718338907
vn -0 0.695693314 -0.718338907
vn -0 0.714997113 -0.699127316
vn -0 0.661711514 -0.749758601
vn -0 0.695693314 -0.718338907
vn -0 0.714997113 -0.699127316
vn -0 0.695693314 -0.718338907
vn -0 0.661711514 -0.749758601
vn -0 0.643163443 -0.765728891
vn -0 0.661711514 -0.749758601
vn -0 0.661711514 -0.749758601
vn -0 0.643163443 -0.765728891
vn -0 0.581327677 -0.813669503
vn -0 0.643163443 -0.765728891
vn -0 0.643163443 -0.765728891
vn -0 0.581327677 -0.813669503
vn -0 0.432578266 -0.901596427
vn -0 0.581327677 -0.813669503
vn -0 0.581327677 -0.813669503
vn -0 0.432578266 -0.901596427
vn -0 0.295451641 -0.955357671
vn -0 0.432578266 -0.901596427
vn -0 0.432578266 -0.901596427
vn -0 0.295451641 -0.955357671
vn -0 0.19971846 -0.979853392
vn -0 0.295451641 -0.955357671
vn -0 0.295451641 -0.955357671
vn -0 0.19971846 -0.979853392
vn -0 0.14887321 -0.988856256
vn -0 0.14887321 -0.988856256
vn -0 0.19971846 -0.979853392
vn -0 0.19971846 -0.979853392
vn -0 0.14887321 -0.988856256
vn -0 0.14887321 -0.988856256
vn 0.714997113 0 -0.699127316
vn 0.714997113 0 -0.699127316
vn 0.695693314 0 -0.718338907
vn 0.695693314 0 -0.718338907
vn 0.714997113 0 -0.699127316
vn 0.661711514 0 -0.749758601
vn 0.695693314 0 -0.718338907
vn 0.714997113 0 -0.699127316
vn 0.695693314 0 -0.718338907
vn 0.661711514 0 -0.749758601
vn 0.643163443 0 -0.765728891
vn 0.661711514 0 -0.749758601
vn 0.661711514 0 -0.749758601
vn 0.643163443 0 -0.765728891
vn 0.581327677 0 -0.813669503
vn 0.643163443 0 -0.765728891
vn 0.643163443 0 -0.765728891
vn 0.581327677 0 -0.813669503
vn 0.432578266 0 -0.901596427
vn 0.581327677 0 -0.813669503
vn 0.581327677 0 -0.813669503
vn 0.432578266 0 -0.901596427
vn 0.295451641 0 -0.955357671
vn 0.432578266 0 -0.901596427
vn 0.432578266 0 -0.901596427
vn 0.295451641 0 -0.955357671
vn 0.19971846 0 -0.979853392
vn 0.295451641 0 -0.955357671
vn 0.295451641 0 -0.955357671
vn 0.19971846 0 -0.979853392
vn 0.14887321 0 -0.988856256
vn 0.14887321 0 -0.988856256
vn 0.19971846 0 -0.979853392
vn 0.19971846 0 -0.979853392
vn 0.14887321 0 -0.988856256
vn 0.14887321 0 -0.988856256
vn -0 -0.714997113 -0.699127316
vn -0 -0.714997113 -0.699127316
vn -0 -0.695693314 -0.718338907
vn -0 -0.695693314 -0.718338907
vn -0 -0.714997113 -0.699127316
vn -0 -0.661711514 -0.749758601
vn -0 -0.695693314 -0.718338907
vn -0 -0.714997113 -0.699127316
vn -0 -0.695693314 -0.718338907
vn -0 -0.661711514 -0.749758601
vn -0 -0.643163443 -0.765728891
vn -0 -0.661711514 -0.749758601
vn -0 -0.661711514 -0.749758601
vn -0 -0.643163443 -0.765728891
vn -0 -0.581327677 -0.813669503
vn -0 -0.643163443 -0.765728891
vn -0 -0.643163443 -0.765728891
vn -0 -0.581327677 -0.813669503
vn -0 -0.432578266 -0.901596427
vn -0 -0.581327677 -0.813669503
vn -0 -0.581327677 -0.813669503
vn -0 -0.432578266 -0.901596427
vn -0 -0.295451641 -0.955357671
vn -0 -0.432578266 -0.901596427
vn -0 -0.432578266 -0.901596427
vn -0 -0.295451641 -0.955357671
vn -0 -0.19971846 -0.979853392
vn -0 -0.295451641 -0.955357671
vn -0 -0.295451641 -0.955357671
vn -0 -0.19971846 -0.979853392
vn -0 -0.14887321 -0.988856256
vn -0 -0.14887321 -0.988856256
vn -0 -0.19971846 -0.979853392
vn -0 -0.19971846 -0.979853392
vn -0 -0.14887321 -0.988856256
vn -0 -0.14887321 -0.988856256
vn -0.714997113 0 -0.699127316
vn -0.714997113 0 -0.699127316
vn -0.695693314 0 -0.718338907
vn -0.695693314 0 -0.718338907
vn -0.714997113 0 -0.699127316
vn -0.661711514 0 -0.749758601
vn -0.695693314 0 -0.718338907
vn -0.714997113 0 -0.699127316
vn -0.695693314 0 -0.718338907
vn -0.661711514 0 -0.749758601
vn -0.643163443 0 -0.765728891
vn -0.661711514 0 -0.749758601
vn -0.661711514 0 -0.749758601
vn -0.643163443 0 -0.765728891
vn -0.581327677 0 -0.813669503
vn -0.643163443 0 -0.765728891
vn -0.643163443 0 -0.765728891
vn -0.581327677 0 -0.813669503
vn -0.432578266 0 -0.901596427
vn -0.581327677 0 -0.813669503
vn -0.581327677 0 -0.813669503
vn -0.432578266 0 -0.901596427
vn -0.295451641 0 -0.955357671
vn -0.432578266 0 -0.901596427
vn -0.432578266 0 -0.901596427
vn -0.295451641 0 -0.955357671
vn -0.19971846 0 -0.979853392
vn -0.295451641 0 -0.955357671
vn -0.295451641 0 -0.955357671
vn -0.19971846 0 -0.979853392
vn -0.14887321 0 -0.988856256
vn -0.14887321 0 -0.988856256
vn -0.19971846 0 -0.979853392
vn -0.19971846 0 -0.979853392
vn -0.14887321 0 -0.988856256
vn -0.14887321 0 -0.988856256
g airboom_0
f 3/3/3 2/2/2 1/1/1
f 4/4/4 3/3/3 1/1/1
f 4/4/4 1/1/1 5/5/5
f 6/6/6 3/3/3 4/4/4
f 7/7/7 4/4/4 5/5/5
f 7/7/7 5/5/5 8/8/8
f 9/9/9 7/7/7 8/8/8
f 10/10/10 6/6/6 4/4/4
f 10/10/10 4/4/4 7/7/7
f 11/11/11 6/6/6 10/10/10
f 12/12/12 7/7/7 9/9/9
f 12/12/12 10/10/10 7/7/7
f 13/13/13 12/12/12 9/9/9
f 14/14/14 11/11/11 10/10/10
f 14/14/14 10/10/10 12/12/12
f 15/15/15 11/11/11 14/14/14
f 16/16/16 12/12/12 13/13/13
f 16/16/16 14/14/14 12/12/12
f 17/17/17 16/16/16 13/13/13
f 18/18/18 15/15/15 14/14/14
f 18/18/18 14/14/14 16/16/16
f 19/19/19 15/15/15 18/18/18
f 20/20/20 16/16/16 17/17/17
f 20/20/20 18/18/18 16/16/16
f 21/21/21 20/20/20 17/17/17
f 22/22/22 19/19/19 18/18/18
f 22/22/22 18/18/18 20/20/20
f 23/23/23 19/19/19 22/22/22
f 24/24/24 20/20/20 21/21/21
f 24/24/24 22/22/22 20/20/20
f 25/25/25 24/24/24 21/21/21
f 26/26/26 23/23/23 22/22/22
f 26/26/26 22/22/22 24/24/24
f 27/27/27 23/23/23 26/26/26
f 28/28/28 24/24/24 25/25/25
f 28/28/28 26/26/26 24/24/24
f 29/29/29 28/28/28 25/25/25
f 30/30/30 27/27/27 26/26/26
f 30/30/30 26/26/26 28/28/28
f 31/31/31 27/27/27 30/30/30
f 32/32/32 31/31/31 30/30/30
f 33/33/33 28/28/28 29/29/29
f 33/33/33 30/30/30 28/28/28
f 32/32/32 30/30/30 33/33/33
f 34/34/34 33/33/33 29/29/29
f 35/35/35 32/32/32 33/33/33
f 35/35/35 33/33/33 34/34/34
f 36/36/36 35/35/35 34/34/34
f 39/39/39 38/38/38 37/37/37
f 40/40/40 39/39/39 37/37/37
f 40/40/40 37/37/37 41/41/41
f 42/42/42 39/39/39 40/40/40
f 43/43/43 40/40/40 41/41/41
f 43/43/43 41/41/41 44/44/44
f 45/45/45 43/43/43 44/44/44
f 46/46/46 42/42/42 40/40/40
f 46/46/46 40/40/40 43/43/43
f 47/47/47 42/42/42 46/46/46
f 48/48/48 43/43/43 45/45/45
f 48/48/48 46/46/46 43/43/43
f 49/49/49 48/48/48 45/45/45
f 50/50/50 47/47/47 46/46/46
f 50/50/50 46/46/46 48/48/48
f 51/51/51 47/47/47 50/50/50
f 52/52/52 48/48/48 49/49/49
f 52/52/52 50/50/50 48/48/48
f 53/53/53 52/52/52 49/49/49
f 54/54/54 51/51/51 50/50/50
f 54/54/54 50/50/50 52/52/52
f 55/55/55 51/51/51 54/54/54
f 56/56/56 52/52/52 53/53/53
f 56/56/56 54/54/54 52/52/52
f 57/57/57 56/56/56 53/53/53
f 58/58/58 55/55/55 54/54/54
f 58/58/58 54/54/54 56/56/56
f 59/59/59 55/55/55 58/58/58
f 60/60/60 56/56/56 57/57/57
f 60/60/60 58/58/58 56/56/56
f 61/61/61 60/60/60 57/57/57
f 62/62/62 59/59/59 58/58/58
f 62/62/62 58/58/58 60/60/60
f 63/63/63 59/59/59 62/62/62
f 64/64/64 60/60/60 61/61/61
f 64/64/64 62/62/62 60/60/60
f 65/65/65 64/64/64 61/61/61
f 66/66/66 63/63/63 62/62/62
f 66/66/66 62/62/62 64/64/64
f 67/67/67 63/63/63 66/66/66
f 68/68/68 67/67/67 66/66/66
f 69/69/69 64/64/64 65/65/65
f 69/69/69 66/66/66 64/64/64
f 68/68/68 66/66/66 69/69/69
f 70/70/70 69/69/69 65/65/65
f 71/71/71 68/68/68 69/69/69
f 71/71/71 69/69/69 70/70/70
f 72/72/72 71/71/71 70/70/70
f 75/75/75 74/74/74 73/73/73
f 76/76/76 75/75/75 73/73/73
f 76/76/76 73/73/73 77/77/77
f 78/78/78 75/75/75 76/76/76
f 79/79/79 76/76/76 77/77/77
f 79/79/79 77/77/77 80/80/80
f 81/81/81 79/79/79 80/80/80
f 82/82/82 78/78/78 76/76/76
f 82/82/82 76/76/76 79/79/79
f 83/83/83 78/78/78 82/82/82
f 84/84/84 79/79/79 81/81/81
f 84/84/84 82/82/82 79/79/79
f 85/85/85 84/84/84 81/81/81
f 86/86/86 83/83/83 82/82/82
f 86/86/86 82/82/82 84/84/84
f 87/87/87 83/83/83 86/86/86
f 88/88/88 84/84/84 85/85/85
f 88/88/88 86/86/86 84/84/84
f 89/89/89 88/88/88 85/85/85
f 90/90/90 87/87/87 86/86/86
f 90/90/90 86/86/86 88/88/88
f 91/91/91 87/87/87 90/90/90
f 92/92/92 88/88/88 89/89/89
f 92/92/92 90/90/90 88/88/88
f 93/93/93 92/92/92 89/89/89
f 94/94/94 91/91/91 90/90/90
f 94/94/94 90/90/90 92/92/92
f 95/95/95 91/91/91 94/94/94
f 96/96/96 92/92/92 93/93/93
f 96/96/96 94/94/94 92/92/92
f 97/97/97 96/96/96 93/93/93
f 98/98/98 95/95/95 94/94/94
f 98/98/98 94/94/94 96/96/96
f 99/99/99 95/95/95 98/98/98
f 100/100/100 96/96/96 97/97/97
f 100/100/100 98/98/98 96/96/96
f 101/101/101 100/100/100 97/97/97
f 102/102/102 99/99/99 98/98/98
f 102/102/102 98/98/98 100/100/100
f 103/103/103 99/99/99 102/102/102
f 104/104/104 103/103/103 102/102/102
f 105/105/105 100/100/100 101/101/101
f 105/105/105 102/102/102 100/100/100
f 104/104/104 102/102/102 105/105/105
f 106/106/106 105/105/105 101/101/101
f 107/107/107 104/104/104 105/105/105
f 107/107/107 105/105/105 106/106/106
f 108/108/108 107/107/107 106/106/106
f 111/111/111 110/110/110 109/109/109
f 112/112/112 111/111/111 109/109/109
f 112/112/112 109/109/109 113/113/113
f 114/114/114 111/111/111 112/112/112
f 115/115/115 112/112/112 113/113/113
f 115/115/115 113/113/113 116/116/116
f 117/117/117 115/115/115 116/116/116
f 118/118/118 114/114/114 112/112/112
f 118/118/118 112/112/112 115/115/115
f 119/119/119 114/114/114 118/118/118
f 120/120/120 115/115/115 117/117/117
f 120/120/120 118/118/118 115/115/115
f 121/121/121 120/120/120 117/117/117
f 122/122/122 119/119/119 118/118/118
f 122/122/122 118/118/118 120/120/120
f 123/123/123 119/119/119 122/122/122
f 124/124/124 120/120/120 121/121/121
f 124/124/124 122/122/122 120/120/120
f 125/125/125 124/124/124 121/121/121
f 126/126/126 123/123/123 122/122/122
f 126/126/126 122/122/122 124/124/124
f 127/127/127 123/123/123 126/126/126
f 128/128/128 124/124/124 125/125/125
f 128/128/128 126/126/126 124/124/124
f 129/129/129 128/128/128 125/125/125
f 130/130/130 127/127/127 126/126/126
f 130/130/130 126/126/126 128/128/128
f 131/131/131 127/127/127 130/130/130
f 132/132/132 128/128/128 129/129/129
f 132/132/132 130/130/130 128/128/128
f 133/133/133 132/132/132 129/129/129
f 134/134/134 131/131/131 130/130/130
f 134/134/134 130/130/130 132/132/132
f 135/135/135 131/131/131 134/134/134
f 136/136/136 132/132/132 133/133/133
f 136/136/136 134/134/134 132/132/132
f 137/137/137 136/136/136 133/133/133
f 138/138/138 135/135/135 134/134/134
f 138/138/138 134/134/134 136/136/136
f 139/139/139 135/135/135 138/138/138
f 140/140/140 139/139/139 138/138/138
f 141/141/141 136/136/136 137/137/137
f 141/141/141 138/138/138 136/136/136
f 140/140/140 138/138/138 141/141/141
f 142/142/142 141/141/141 137/137/137
f 143/143/143 140/140/140 141/141/141
f 143/143/143 141/141/141 142/142/142
f 144/144/144 143/143/143 142/142/142
