g Plane001
v -0.123498939 -0.374849975 0.378936887
v -0.127000034 -0.379639655 0.382535249
v -0.123498939 -0.625425458 0.375251442
v -0.127000064 -0.633400261 0.382415831
v -0.123498902 -0.625425458 0.126453206
v -0.127000019 -0.633400261 0.128415734
v -0.123498917 -0.625425458 -0.125911906
v -0.127000004 -0.633400261 -0.125584364
v -0.123498902 -0.625425458 -0.373091787
v -0.127000019 -0.633400261 -0.379584104
v -0.123498917 -0.374440014 -0.373980105
v -0.127000034 -0.379224509 -0.380478203
v -0.123498961 -0.374440014 -0.626345098
v -0.127000064 -0.379224509 -0.634478211
v -0.123498954 -0.119938888 -0.625735343
v -0.127000079 -0.124846071 -0.633864522
v -0.123498864 -0.120535046 -0.877492845
v -0.127000049 -0.125466332 -0.887252986
v -0.123498864 0.123627447 -0.877492845
v -0.127000049 0.128533646 -0.887252986
v -0.123498939 0.124080531 -0.625243425
v -0.127000034 0.129005 -0.633369207
v -0.123498939 0.378222167 -0.625243425
v -0.127000034 0.383004904 -0.633369207
v -0.123498902 0.379647315 -0.372685015
v -0.127000019 0.384448141 -0.379174709
v -0.123498917 0.63045907 -0.372685015
v -0.127000019 0.638448119 -0.379174709
v -0.123498932 0.630423248 -0.125568733
v -0.127000004 0.63841182 -0.125239015
v -0.123498902 0.62978822 0.125373796
v -0.126999989 0.637768686 0.127329364
v -0.123498917 0.62978822 0.374172151
v -0.126999974 0.637768686 0.381329507
v -0.123498864 0.377176404 0.375338435
v -0.126999974 0.381945759 0.382503361
v -0.123498939 0.126364723 0.375338435
v -0.127000004 0.127946019 0.382503361
v -0.123498879 -0.124447405 0.375338435
v -0.127000004 -0.126054287 0.382503361
v -0.123498939 -0.374849975 0.378936887
v -0.127000034 -0.379639655 0.382535249
vt 1 0.00207553804
vt 0 0.00207553804
vt 1 0.0519717634
vt 0 0.0519717634
vt 1 0.101867989
vt 0 0.101867989
vt 1 0.151764214
vt 0 0.151764214
vt 1 0.201660424
vt 0 0.201660424
vt 1 0.251556665
vt 0 0.251556665
vt 1 0.301452875
vt 0 0.301452875
vt 1 0.351349115
vt 0 0.351349115
vt 1 0.401245326
vt 0 0.401245326
vt 1 0.451141536
vt 0 0.451141536
vt 1 0.501037776
vt 0 0.501037776
vt 1 0.550934017
vt 0 0.550934017
vt 1 0.600830257
vt 0 0.600830257
vt 1 0.650726438
vt 0 0.650726438
vt 1 0.700622678
vt 0 0.700622678
vt 1 0.750518918
vt 0 0.750518918
vt 1 0.800415099
vt 0 0.800415099
vt 1 0.850311339
vt 0 0.850311339
vt 1 0.900207579
vt 0 0.900207579
vt 1 0.95010376
vt 0 0.95010376
vt 1 1
vt 0 1
vn -0.720610619 0.00250320882 -0.693335474
vn -0.723850787 0.00741889281 -0.68991667
vn -0.949622035 0.206912383 -0.235383123
vn -0.950519383 0.222799689 -0.216502503
vn -0.915643752 0.401990682 0
vn -0.915643752 0.401990622 0
vn -0.915644765 0.401988417 0
vn -0.915644765 0.401988417 0
vn -0.944202363 0.204034299 0.25855723
vn -0.946368039 0.234820828 0.221916139
vn -0.916442931 0.272093266 0.293424189
vn -0.909677863 0.338111967 0.24117738
vn -0.918313563 0.346447587 0.19150506
vn -0.935541332 0.232318312 0.26606524
vn -0.93643266 0.231757268 0.263405234
vn -0.920770109 0.339958251 0.191339642
vn -0.924663782 0.347246587 0.156258419
vn -0.949869573 0.201853573 0.238752812
vn -0.924767673 -0.34634757 0.157633215
vn -0.949775815 -0.201562509 0.239371076
vn -0.936538994 -0.231549099 0.263210207
vn -0.921457589 -0.337406307 0.192543492
vn -0.918772221 -0.344264627 0.19323428
vn -0.935482502 -0.232164338 0.266406357
vn -0.916572392 -0.271069199 0.293966711
vn -0.910453081 -0.333785623 0.244258747
vn -0.94414115 -0.202687338 0.259837478
vn -0.946445346 -0.234449759 0.221979037
vn -0.915908694 -0.40138644 -0.000525373092
vn -0.915908277 -0.401387244 -0.000547739037
vn -0.915804386 -0.401624054 -0.000582638371
vn -0.915790796 -0.401655316 -0.000439802854
vn -0.949979186 -0.207093596 -0.233777121
vn -0.950518608 -0.223175004 -0.216118723
vn -0.898645818 -0.000661718601 -0.43867439
vn -0.898823678 -0.00134862005 -0.438308388
vn -0.898473024 0 -0.43902874
vn -0.898473024 0 -0.4390288
vn -0.898223519 -0.00274763932 -0.439530522
vn -0.897269845 -0.00352507737 -0.441468477
vn -0.720610619 0.00250320882 -0.693335474
vn -0.723850787 0.00741889281 -0.68991667
g Plane001_0
f 3/3/3 2/2/2 1/1/1
f 2/2/2 3/3/3 4/4/4
f 5/5/5 4/4/4 3/3/3
f 4/4/4 5/5/5 6/6/6
f 7/7/7 6/6/6 5/5/5
f 6/6/6 7/7/7 8/8/8
f 9/9/9 8/8/8 7/7/7
f 8/8/8 9/9/9 10/10/10
f 11/11/11 10/10/10 9/9/9
f 10/10/10 11/11/11 12/12/12
f 13/13/13 12/12/12 11/11/11
f 12/12/12 13/13/13 14/14/14
f 15/15/15 14/14/14 13/13/13
f 14/14/14 15/15/15 16/16/16
f 17/17/17 16/16/16 15/15/15
f 16/16/16 17/17/17 18/18/18
f 19/19/19 18/18/18 17/17/17
f 18/18/18 19/19/19 20/20/20
f 21/21/21 20/20/20 19/19/19
f 20/20/20 21/21/21 22/22/22
f 23/23/23 22/22/22 21/21/21
f 22/22/22 23/23/23 24/24/24
f 25/25/25 24/24/24 23/23/23
f 24/24/24 25/25/25 26/26/26
f 27/27/27 26/26/26 25/25/25
f 26/26/26 27/27/27 28/28/28
f 29/29/29 28/28/28 27/27/27
f 28/28/28 29/29/29 30/30/30
f 31/31/31 30/30/30 29/29/29
f 30/30/30 31/31/31 32/32/32
f 33/33/33 32/32/32 31/31/31
f 32/32/32 33/33/33 34/34/34
f 35/35/35 34/34/34 33/33/33
f 34/34/34 35/35/35 36/36/36
f 37/37/37 36/36/36 35/35/35
f 36/36/36 37/37/37 38/38/38
f 39/39/39 38/38/38 37/37/37
f 38/38/38 39/39/39 40/40/40
f 41/41/41 40/40/40 39/39/39
f 40/40/40 41/41/41 42/42/42
