g Plane005
v -0.149736464 -0.0783540159 0
v -0.159775034 -0.108142763 0
v -0.157912508 -0.109794207 0
v -0.15432629 -0.075328812 0
v -0.160841957 -0.107430182 0
v -0.158972904 -0.0721916705 0
v -0.130742803 -0.0512108058 0
v -0.135984853 -0.0468997695 0
v -0.141226873 -0.0425887182 0
v -0.103670157 -0.0520789959 0
v -0.103780136 -0.058865115 0
v -0.103560172 -0.0452928059 0
v -0.0726018772 -0.0652861074 0
v -0.0724918842 -0.0584999584 0
v -0.0723819062 -0.0517137945 0
v -0.0690554976 -0.0283114016 0
v -0.0755413324 -0.0263119694 0
v -0.0820271969 -0.0243125092 0
v -0.0716522411 0.00462282309 0
v -0.0781380981 0.00662227301 0
v -0.0846239552 0.00862170663 0
v -0.059404552 -0.025400456 0
v -0.0555524081 -0.0198125448 0
v -0.0517002344 -0.0142246066 0
v -0.0363030843 -0.0555388108 0
v -0.0324509442 -0.0499508902 0
v -0.0285987724 -0.0443629548 0
v -0.0077574458 -0.0541966483 0
v -0.020951461 -0.0510070063 0
v -0.0143544488 -0.0526018143 0
v -0.00239347969 -0.015243846 0
v -0.00899047498 -0.0136490297 0
v -0.0155875115 -0.0120542133 0
vt 0.900000095 0
vt 1.00000012 0.5
vt 1.00000012 0
vt 0.900000095 0.5
vt 1.00000012 1
vt 0.900000095 1
vt 0.800000072 0
vt 0.800000072 0.5
vt 0.800000072 1
vt 0.700000048 0.5
vt 0.700000048 0
vt 0.700000048 1
vt 0.600000024 0
vt 0.600000024 0.5
vt 0.600000024 1
vt 0.5 0
vt 0.5 0.5
vt 0.5 1
vt 0.400000006 0
vt 0.400000006 0.5
vt 0.400000006 1
vt 0.300000012 0
vt 0.300000012 0.5
vt 0.300000012 1
vt 0.200000003 0
vt 0.200000003 0.5
vt 0.200000003 1
vt 0.100000001 0
vt 0.100000001 1
vt 0.100000001 0.5
vt 0 0
vt 0 0.5
vt 0 1
vn -0 0 -1
vn -0 0 -1
vn -0 0 -1
vn -0 0 -1
vn -0 0 -1
vn -0 0 -1
vn -0 0 -1
vn -0 0 -1
vn -0 0 -1
vn -0 0 -1
vn -0 0 -1
vn -0 0 -1
vn -0 0 -1
vn -0 0 -1
vn -0 0 1
vn -0 0 -1
vn -0 0 -1
vn -0 0 -1
vn -0 0 1
vn -0 0 -1
vn -0 0 -1
vn -0 0 -1
vn -0 0 -1
vn -0 0 -1
vn -0 0 -1
vn -0 0 -1
vn -0 0 -1
vn -0 0 -1
vn -0 0 -1
vn -0 0 -1
vn -0 0 -1
vn -0 0 -1
vn -0 0 -1
g Plane005_0
f 3/3/3 2/2/2 1/1/1
f 4/4/4 1/1/1 2/2/2
f 2/2/2 5/5/5 4/4/4
f 6/6/6 4/4/4 5/5/5
f 1/1/1 4/4/4 7/7/7
f 4/4/4 6/6/6 8/8/8
f 8/8/8 7/7/7 4/4/4
f 9/9/9 8/8/8 6/6/6
f 8/8/8 10/10/10 7/7/7
f 8/8/8 9/9/9 10/10/10
f 11/11/11 7/7/7 10/10/10
f 12/12/12 10/10/10 9/9/9
f 11/11/11 10/10/10 13/13/13
f 10/10/10 12/12/12 14/14/14
f 14/14/14 13/13/13 10/10/10
f 15/15/15 14/14/14 12/12/12
f 13/13/13 14/14/14 16/16/16
f 14/14/14 15/15/15 17/17/17
f 17/17/17 16/16/16 14/14/14
f 18/18/18 17/17/17 15/15/15
f 16/16/16 17/17/17 19/19/19
f 17/17/17 18/18/18 20/20/20
f 20/20/20 19/19/19 17/17/17
f 21/21/21 20/20/20 18/18/18
f 19/19/19 20/20/20 22/22/22
f 20/20/20 21/21/21 23/23/23
f 23/23/23 22/22/22 20/20/20
f 24/24/24 23/23/23 21/21/21
f 22/22/22 23/23/23 25/25/25
f 23/23/23 24/24/24 26/26/26
f 26/26/26 25/25/25 23/23/23
f 27/27/27 26/26/26 24/24/24
f 25/25/25 26/26/26 28/28/28
f 27/27/27 29/29/29 26/26/26
f 30/30/30 28/28/28 26/26/26
f 30/30/30 26/26/26 29/29/29
f 28/28/28 30/30/30 31/31/31
f 32/32/32 31/31/31 30/30/30
f 30/30/30 29/29/29 32/32/32
f 33/33/33 32/32/32 29/29/29
