g Cone002
v 0.816267192 -0.816266954 -2.38410891E-15
v 0.385924757 -0.385924608 0.00700048869
v 0.385924548 0.385924757 0.00700048869
v 0.816266954 0.816267192 4.33329096E-15
v -0.385924786 0.385924578 0.00700048869
v -0.816267312 0.816266835 2.3841087E-15
v -0.385924608 -0.385924757 0.00700048869
v -0.816266954 -0.816267192 -4.33329096E-15
v 0.385924757 -0.385924608 0.00700048869
v 0.816267192 -0.816266954 -2.38410891E-15
vt -0.25 0
vt -0.25 0.99999994
vt 3.79454939E-08 0.99999994
vt 3.79454939E-08 0
vt 0.25000003 0.99999994
vt 0.25000003 0
vt 0.5 0.99999994
vt 0.5 0
vt 0.75 0.99999994
vt 0.75 0
vn 0.0205379967 -0.0205379557 0.999578059
vn 0.020537978 -0.0205379762 0.999578059
vn 0.0205379631 0.0205379855 0.999578059
vn 0.0205379538 0.0205379948 0.999578059
vn -0.0205379725 0.0205379836 0.999578059
vn -0.0205379818 0.0205379725 0.999578059
vn -0.0205379725 -0.0205379836 0.999578059
vn -0.0205379613 -0.0205379985 0.999578059
vn 0.020537978 -0.0205379762 0.999578059
vn 0.0205379967 -0.0205379557 0.999578059
g Cone002_0
f 3/3/3 2/2/2 1/1/1
f 4/4/4 3/3/3 1/1/1
f 5/5/5 3/3/3 4/4/4
f 6/6/6 5/5/5 4/4/4
f 7/7/7 5/5/5 6/6/6
f 8/8/8 7/7/7 6/6/6
f 9/9/9 7/7/7 8/8/8
f 10/10/10 9/9/9 8/8/8
