g Cone005
v 0.0536984429 0 0
v 0.0444234349 -0.000261579786 0.00547567941
v 0.0440433994 0.00553684309 0.00547567941
v 0.0532390475 0.0070090536 0
v 0.0429097451 0.0112360548 0.00547567941
v 0.0518687144 0.0138981799 0
v 0.0410418957 0.0167385377 0.00547567941
v 0.0496108942 0.0205495059 0
v 0.0384718254 0.0219501387 0.00547567941
v 0.0465042219 0.0268492214 0
v 0.0352434851 0.0267816968 0.00547567941
v 0.0426018387 0.0326895416 0
v 0.0314121172 0.0311505366 0.00547567941
v 0.0379705355 0.0379705317 0
v 0.027043283 0.0349819064 0.00547567941
v 0.0326895453 0.0426018387 0
v 0.0222117249 0.0382102504 0.00547567941
v 0.0268492214 0.0465042144 0
v 0.0170001145 0.0407803245 0.00547567941
v 0.0205495078 0.0496108904 0
v 0.0114976354 0.0426481739 0.00547567941
v 0.0138981864 0.0518687107 0
v 0.00579842413 0.0437818095 0.00547567941
v 0.00700906012 0.0532390401 0
v 7.62939489E-09 0.0441618599 0.00547567941
v 1.14440919E-08 0.0536984429 0
v 1.14440919E-08 0.0536984429 0
v 7.62939489E-09 0.0441618599 0.00547567941
v -0.00579841621 0.043781817 0.00547567941
v -0.00700904103 0.0532390475 0
v -0.0114976242 0.0426481739 0.00547567941
v -0.0138981678 0.0518687181 0
v -0.0170001071 0.0407803319 0.00547567941
v -0.0205494892 0.0496108942 0
v -0.0222117174 0.0382102504 0.00547567941
v -0.0268492159 0.0465042219 0
v -0.0270432718 0.0349819101 0.00547567941
v -0.0326895304 0.0426018424 0
v -0.0314121097 0.0311505403 0.00547567941
v -0.0379705206 0.0379705392 0
v -0.0352434777 0.026781708 0.00547567941
v -0.0426018275 0.032689549 0
v -0.0384718254 0.0219501518 0.00547567941
v -0.0465042107 0.0268492345 0
v -0.0410419032 0.016738547 0.00547567941
v -0.049610883 0.020549519 0
v -0.0429097451 0.011236066 0.00547567941
v -0.0518687032 0.0138981966 0
v -0.0440433919 0.00553685892 0.00547567941
v -0.0532390401 0.00700907363 0
v -0.0444234423 -0.000261562498 0.00547567988
v -0.0536984429 2.09109423E-08 0
vt 0.75 0
vt 0.75 0.998351157
vt 0.770833313 0.998351157
vt 0.770833313 0
vt 0.791666627 0.998351157
vt 0.791666627 0
vt 0.8125 0.998351157
vt 0.8125 0
vt 0.833333313 0.998351157
vt 0.833333313 0
vt 0.854166627 0.998351157
vt 0.854166627 0
vt 0.875 0.998351157
vt 0.875 0
vt 0.895833313 0.998351157
vt 0.895833313 0
vt 0.916666627 0.998351157
vt 0.916666627 0
vt 0.93749994 0.998351157
vt 0.93749994 0
vt 0.958333313 0.998351157
vt 0.958333313 0
vt 0.979166627 0.998351157
vt 0.979166627 0
vt 0.99999994 0.998351157
vt 0.99999994 0
vt -5.96046448E-08 0
vt -5.96046448E-08 0.998351157
vt 0.0208333284 0.998351157
vt 0.0208333284 0
vt 0.0416666567 0.998351157
vt 0.0416666567 0
vt 0.0624999851 0.998351157
vt 0.0624999851 0
vt 0.0833333135 0.998351157
vt 0.0833333135 0
vt 0.104166642 0.998351157
vt 0.104166642 0
vt 0.12499997 0.998351157
vt 0.12499997 0
vt 0.145833299 0.998351157
vt 0.145833299 0
vt 0.166666627 0.998351157
vt 0.166666627 0
vt 0.187499955 0.998351157
vt 0.187499955 0
vt 0.208333284 0.998351157
vt 0.208333284 0
vt 0.229166627 0.998351157
vt 0.229166612 0
vt 0.24999994 0.998351157
vt 0.24999994 0
vn 0.507408082 0.0332568437 0.861063838
vn 0.507407725 0.0332560949 0.861064136
vn 0.502743542 0.0656477287 0.861939311
vn 0.50259012 0.0666529164 0.861951649
vn 0.488559932 0.130373061 0.862735271
vn 0.48828575 0.131318882 0.862747014
vn 0.466149271 0.192551166 0.863498032
vn 0.46577391 0.193410233 0.863508642
vn 0.435947061 0.251162171 0.864215136
vn 0.435496181 0.251912028 0.864224136
vn 0.398508549 0.305257052 0.864875197
vn 0.398012608 0.305881917 0.864882767
vn 0.354498178 0.353970915 0.865468442
vn 0.353990227 0.354464173 0.865474403
vn 0.304676026 0.396536231 0.86598593
vn 0.304189503 0.396899998 0.865990281
vn 0.249884665 0.432289839 0.866419733
vn 0.249451503 0.432533979 0.866422772
vn 0.191036284 0.460679382 0.866763949
vn 0.190684259 0.460821897 0.866765618
vn 0.129095942 0.481271565 0.867013216
vn 0.128847897 0.481336623 0.867013931
vn 0.0650722161 0.493752927 0.867164195
vn 0.0649442896 0.493769288 0.867164433
vn 4.03061108E-07 0.497934192 0.867214799
vn 3.36035072E-07 0.497934192 0.867214799
vn 3.36035072E-07 0.497934192 0.867214799
vn 4.03061108E-07 0.497934192 0.867214799
vn -0.0650722757 0.493752867 0.867164195
vn -0.0649441183 0.493769318 0.867164433
vn -0.129095957 0.481271505 0.867013216
vn -0.128847957 0.481336623 0.86701405
vn -0.191036239 0.460679471 0.86676383
vn -0.19068414 0.460822105 0.866765618
vn -0.249884754 0.432289541 0.866419792
vn -0.249451399 0.432533801 0.866422832
vn -0.304676026 0.396536261 0.86598593
vn -0.304189622 0.396899879 0.865990281
vn -0.354497969 0.353971213 0.865468442
vn -0.353990108 0.354464412 0.865474403
vn -0.39850843 0.305257559 0.864875019
vn -0.398012638 0.305882215 0.864882708
vn -0.435947299 0.251162887 0.864214778
vn -0.43549636 0.251912385 0.864223957
vn -0.466149747 0.192551494 0.863497794
vn -0.465774387 0.19341062 0.863508284
vn -0.488560289 0.130372643 0.862735093
vn -0.488286197 0.131319016 0.862746716
vn -0.502743721 0.0656479821 0.861939132
vn -0.50259012 0.0666532069 0.861951649
vn -0.507408142 0.0332576185 0.861063838
vn -0.507408023 0.0332577452 0.861063957
g Cone005_0
f 3/3/3 2/2/2 1/1/1
f 4/4/4 3/3/3 1/1/1
f 5/5/5 3/3/3 4/4/4
f 6/6/6 5/5/5 4/4/4
f 7/7/7 5/5/5 6/6/6
f 8/8/8 7/7/7 6/6/6
f 9/9/9 7/7/7 8/8/8
f 10/10/10 9/9/9 8/8/8
f 11/11/11 9/9/9 10/10/10
f 12/12/12 11/11/11 10/10/10
f 13/13/13 11/11/11 12/12/12
f 14/14/14 13/13/13 12/12/12
f 15/15/15 13/13/13 14/14/14
f 16/16/16 15/15/15 14/14/14
f 17/17/17 15/15/15 16/16/16
f 18/18/18 17/17/17 16/16/16
f 19/19/19 17/17/17 18/18/18
f 20/20/20 19/19/19 18/18/18
f 21/21/21 19/19/19 20/20/20
f 22/22/22 21/21/21 20/20/20
f 23/23/23 21/21/21 22/22/22
f 24/24/24 23/23/23 22/22/22
f 25/25/25 23/23/23 24/24/24
f 26/26/26 25/25/25 24/24/24
f 29/29/29 28/28/28 27/27/27
f 30/30/30 29/29/29 27/27/27
f 31/31/31 29/29/29 30/30/30
f 32/32/32 31/31/31 30/30/30
f 33/33/33 31/31/31 32/32/32
f 34/34/34 33/33/33 32/32/32
f 35/35/35 33/33/33 34/34/34
f 36/36/36 35/35/35 34/34/34
f 37/37/37 35/35/35 36/36/36
f 38/38/38 37/37/37 36/36/36
f 39/39/39 37/37/37 38/38/38
f 40/40/40 39/39/39 38/38/38
f 41/41/41 39/39/39 40/40/40
f 42/42/42 41/41/41 40/40/40
f 43/43/43 41/41/41 42/42/42
f 44/44/44 43/43/43 42/42/42
f 45/45/45 43/43/43 44/44/44
f 46/46/46 45/45/45 44/44/44
f 47/47/47 45/45/45 46/46/46
f 48/48/48 47/47/47 46/46/46
f 49/49/49 47/47/47 48/48/48
f 50/50/50 49/49/49 48/48/48
f 51/51/51 49/49/49 50/50/50
f 52/52/52 51/51/51 50/50/50
