g delphnn_flash
v 1.99789977 -0.180173606 0
v 1.81380844 0.0847457945 0
v 2.00423121 0.0901651382 0
v 1.80816793 -0.163082182 0
v 1.954427 -0.451977432 0
v 1.62338543 0.0793264583 0
v 1.76882958 -0.409037322 0
v 1.87503946 -0.712834656 0
v 1.61843622 -0.145990759 0
v 1.43296266 0.0739071146 0
v 1.69698417 -0.645110607 0
v 1.76165819 -0.959351778 0
v 1.58323216 -0.366097182 0
v 1.4287045 -0.128899351 0
v 1.24253964 0.0684877783 0
v 1.23897278 -0.111807905 0
v 1.39763486 -0.323157042 0
v 1.21203744 -0.280216902 0
v 1.5943588 -0.868241012 0
v 1.61615384 -1.18824184 0
v 1.51892877 -0.577386618 0
v 1.34087348 -0.509662569 0
v 1.16281819 -0.441938579 0
v 1.46265626 -1.07542014 0
v 1.44036305 -1.39620841 0
v 1.42705953 -0.777130067 0
v 1.25976026 -0.686019242 0
v 1.09246087 -0.594908357 0
v 1.30356193 -1.26363504 0
v 1.23616266 -1.57986891 0
v 1.30915856 -0.962598622 0
v 1.15566087 -0.849776983 0
v 1.00216329 -0.736955464 0
v 1.11878097 -1.4298296 0
v 1.00559545 -1.73572886 0
v 1.1667608 -1.13106167 0
v 1.02995956 -0.998488247 0
v 0.893158436 -0.865914941 0
v 0.910102069 -1.57089174 0
v 0.755302846 -1.85838461 0
v 1.00139928 -1.27979028 0
v 0.884017527 -1.12975109 0
v 0.766635776 -0.97971189 0
v 0.683560967 -1.68190992 0
v 0.494094938 -1.94420362 0
v 0.814608693 -1.40605462 0
v 0.719115376 -1.24121749 0
v 0.623621941 -1.07638049 0
v 0.447194397 -1.75956714 0
v 0.226050004 -1.99318612 0
v 0.611819148 -1.50543499 0
v 0.540077329 -1.32896018 0
v 0.46833545 -1.15248549 0
v 0.204611778 -1.80389607 0
v -0.0449497886 -2.00543618 0
v 0.400293827 -1.57493079 0
v 0.353393286 -1.39029443 0
v 0.306492716 -1.20565796 0
v -0.0406810082 -1.81498396 0
v -0.315128535 -1.98105621 0
v 0.183173552 -1.61460626 0
v 0.161735326 -1.42531633 0
v 0.1402971 -1.23602653 0
v -0.285230637 -1.79291689 0
v -0.580709875 -1.92011297 0
v -0.0364122279 -1.62453187 0
v -0.0321434475 -1.43407965 0
v -0.0278746672 -1.24362743 0
v -0.525583684 -1.73776329 0
v -0.83780998 -1.82267666 0
v -0.255332708 -1.60477757 0
v -0.225434825 -1.41663849 0
v -0.195536911 -1.22849917 0
v -0.75823319 -1.64959371 0
v -1.08235562 -1.68892944 0
v -0.470457464 -1.55541372 0
v -0.415331244 -1.37306428 0
v -0.360205054 -1.19071472 0
v -0.979572535 -1.52853656 0
v -1.30570805 -1.52289546 0
v -0.678656459 -1.47651041 0
v -0.599079669 -1.30342722 0
v -0.519502878 -1.13034403 0
v -1.18172169 -1.3782661 0
v -1.50147438 -1.33027017 0
v -0.87678951 -1.36814356 0
v -0.774006426 -1.20775068 0
v -0.671223342 -1.04735792 0
v -1.35887074 -1.20395923 0
v -1.6677711 -1.11463583 0
v -1.0577352 -1.23363686 0
v -0.933748782 -1.08900762 0
v -0.809762359 -0.944378376 0
v -1.50937223 -1.00880504 0
v -1.80287325 -0.87945646 0
v -1.21626687 -1.07764852 0
v -1.07366312 -0.951337755 0
v -0.93105942 -0.825026929 0
v -1.63165975 -0.795933068 0
v -1.90509498 -0.628106475 0
v -1.35097384 -0.902974308 0
v -1.19257522 -0.797143579 0
v -1.03417671 -0.691312909 0
v -1.72418404 -0.568428338 0
v -1.97271526 -0.363954157 0
v -1.460446 -0.712409616 0
v -1.28923249 -0.628886163 0
v -1.11801898 -0.545362711 0
v -1.78538036 -0.329373002 0
v -2.00396609 -0.0904755816 0
v -1.54327309 -0.50875026 0
v -1.36236215 -0.449072152 0
v -1.1814512 -0.389394015 0
v -1.81365907 -0.0819023624 0
v -1.99817836 0.179875746 0
v -1.80818963 0.16592975 0
v -1.59804535 -0.294791818 0
v -1.41071033 -0.260210633 0
v -1.22337544 -0.225629464 0
v -1.62335193 -0.073329173 0
v -1.61820078 0.151983798 0
v -1.43304503 -0.0647559762 0
v -1.24273801 -0.0561827607 0
v -1.42821193 0.138037845 0
v -1.23822308 0.124091893 0
vt 0.958333313 2.98023224E-07
vt 1 0.250000417
vt 1 2.98023224E-07
vt 0.958333313 0.250000417
vt 0.916666627 2.98023224E-07
vt 1 0.500000477
vt 0.916666687 0.250000417
vt 0.87499994 2.98023224E-07
vt 0.958333373 0.500000477
vt 1 0.750000417
vt 0.87499994 0.250000417
vt 0.833333254 2.98023224E-07
vt 0.916666687 0.500000477
vt 0.958333313 0.750000417
vt 1 1.00000036
vt 0.958333313 1.00000036
vt 0.916666627 0.750000417
vt 0.916666627 1.00000036
vt 0.833333313 0.250000417
vt 0.791666567 2.98023224E-07
vt 0.875 0.500000477
vt 0.87499994 0.750000417
vt 0.87499994 1.00000036
vt 0.791666567 0.250000417
vt 0.749999881 2.98023224E-07
vt 0.833333313 0.500000477
vt 0.833333254 0.750000477
vt 0.833333254 1.00000036
vt 0.74999994 0.250000417
vt 0.708333194 2.98023224E-07
vt 0.791666627 0.500000477
vt 0.791666567 0.750000477
vt 0.791666567 1.00000036
vt 0.708333194 0.250000417
vt 0.666666567 3.57627869E-07
vt 0.74999994 0.500000477
vt 0.749999881 0.750000477
vt 0.749999881 1.00000036
vt 0.666666567 0.250000358
vt 0.624999821 3.57627869E-07
vt 0.708333254 0.500000477
vt 0.708333194 0.750000477
vt 0.708333194 1.00000036
vt 0.624999821 0.250000358
vt 0.583333194 3.57627869E-07
vt 0.666666508 0.500000358
vt 0.666666508 0.750000358
vt 0.666666508 1.00000036
vt 0.583333194 0.250000358
vt 0.541666448 3.57627869E-07
vt 0.624999881 0.500000358
vt 0.624999821 0.750000417
vt 0.624999821 1.00000036
vt 0.541666448 0.250000358
vt 0.499999762 3.57627869E-07
vt 0.583333135 0.500000358
vt 0.583333135 0.750000417
vt 0.583333135 1.00000036
vt 0.499999762 0.250000358
vt 0.458333105 3.57627869E-07
vt 0.541666508 0.500000358
vt 0.541666448 0.750000417
vt 0.541666448 1.00000036
vt 0.458333105 0.250000358
vt 0.416666418 3.57627869E-07
vt 0.499999821 0.500000358
vt 0.499999762 0.750000417
vt 0.499999762 1.00000036
vt 0.416666418 0.250000358
vt 0.374999791 3.57627869E-07
vt 0.458333105 0.500000358
vt 0.458333135 0.750000417
vt 0.458333135 1.00000036
vt 0.374999791 0.250000358
vt 0.333333164 3.57627869E-07
vt 0.416666478 0.500000358
vt 0.416666508 0.750000417
vt 0.416666508 1.00000036
vt 0.333333164 0.250000358
vt 0.291666478 3.57627869E-07
vt 0.374999851 0.500000358
vt 0.374999821 0.750000417
vt 0.374999821 1.00000036
vt 0.291666478 0.250000417
vt 0.249999791 3.57627869E-07
vt 0.333333164 0.500000358
vt 0.333333135 0.750000417
vt 0.333333135 1.00000036
vt 0.249999791 0.250000417
vt 0.20833315 3.57627869E-07
vt 0.291666478 0.500000417
vt 0.291666508 0.750000417
vt 0.291666508 1.00000048
vt 0.208333164 0.250000417
vt 0.166666523 3.57627869E-07
vt 0.249999851 0.500000417
vt 0.249999881 0.750000417
vt 0.249999821 1.00000048
vt 0.166666478 0.250000417
vt 0.124999836 3.57627869E-07
vt 0.208333239 0.500000417
vt 0.208333179 0.750000417
vt 0.208333194 1.00000048
vt 0.124999791 0.250000417
vt 0.0833331496 3.57627869E-07
vt 0.166666552 0.500000417
vt 0.166666493 0.750000417
vt 0.166666508 1.00000048
vt 0.0833331645 0.250000417
vt 0.041666463 3.57627869E-07
vt 0.124999866 0.500000417
vt 0.124999866 0.750000417
vt 0.124999821 1.00000048
vt 0.0416664742 0.250000417
vt -1.62920671E-07 3.57627869E-07
vt -1.51992822E-07 0.250000417
vt 0.0833331719 0.500000417
vt 0.0833331868 0.750000417
vt 0.0833331943 1.00000048
vt 0.041666545 0.500000417
vt -1.41064973E-07 0.500000417
vt 0.0416664965 0.750000417
vt 0.0416665077 1.00000048
vt -1.30137124E-07 0.750000417
vt -1.1920929E-07 1.00000048
vn -0 0 1
vn -0 0 1
vn -0 0 1
vn -0 0 1
vn -0 0 1
vn -0 0 1
vn -0 0 1
vn -0 0 1
vn -0 0 1
vn -0 0 1
vn -0 0 1
vn -0 0 1
vn -0 0 1
vn -0 0 1
vn -0 0 1
vn -0 0 1
vn -0 0 1
vn -0 0 1
vn -0 0 1
vn -0 0 1
vn -0 0 1
vn -0 0 1
vn -0 0 1
vn -0 0 1
vn -0 0 1
vn -0 0 1
vn -0 0 1
vn -0 0 1
vn -0 0 1
vn -0 0 1
vn -0 0 1
vn -0 0 1
vn -0 0 1
vn -0 0 1
vn -0 0 1
vn -0 0 1
vn -0 0 1
vn -0 0 1
vn -0 0 1
vn -0 0 1
vn -0 0 1
vn -0 0 1
vn -0 0 1
vn -0 0 1
vn -0 0 1
vn -0 0 1
vn -0 0 1
vn -0 0 1
vn -0 0 1
vn -0 0 1
vn -0 0 1
vn -0 0 1
vn -0 0 1
vn -0 0 1
vn -0 0 1
vn -0 0 1
vn -0 0 1
vn -0 0 1
vn -0 0 1
vn -0 0 1
vn -0 0 1
vn -0 0 1
vn -0 0 1
vn -0 0 1
vn -0 0 1
vn -0 0 1
vn -0 0 1
vn -0 0 1
vn -0 0 1
vn -0 0 1
vn -0 0 1
vn -0 0 1
vn -0 0 1
vn -0 0 1
vn -0 0 1
vn -0 0 1
vn -0 0 1
vn -0 0 1
vn -0 0 1
vn -0 0 1
vn -0 0 1
vn -0 0 1
vn -0 0 1
vn -0 0 1
vn -0 0 1
vn -0 0 1
vn -0 0 1
vn -0 0 1
vn -0 0 1
vn -0 0 1
vn -0 0 1
vn -0 0 1
vn -0 0 1
vn -0 0 1
vn -0 0 1
vn -0 0 1
vn -0 0 1
vn -0 0 1
vn -0 0 1
vn -0 0 1
vn -0 0 1
vn -0 0 1
vn -0 0 1
vn -0 0 1
vn -0 0 1
vn -0 0 1
vn -0 0 1
vn -0 0 1
vn -0 0 1
vn -0 0 1
vn -0 0 1
vn -0 0 1
vn -0 0 1
vn -0 0 1
vn -0 0 1
vn -0 0 1
vn -0 0 1
vn -0 0 1
vn -0 0 1
vn -0 0 1
vn -0 0 1
vn -0 0 1
vn -0 0 1
vn -0 0 1
vn -0 0 1
g delphnn_flash_0
f 3/3/3 2/2/2 1/1/1
f 2/2/2 4/4/4 1/1/1
f 1/1/1 4/4/4 5/5/5
f 2/2/2 6/6/6 4/4/4
f 4/4/4 7/7/7 5/5/5
f 5/5/5 7/7/7 8/8/8
f 6/6/6 9/9/9 4/4/4
f 4/4/4 9/9/9 7/7/7
f 6/6/6 10/10/10 9/9/9
f 7/7/7 11/11/11 8/8/8
f 8/8/8 11/11/11 12/12/12
f 9/9/9 13/13/13 7/7/7
f 7/7/7 13/13/13 11/11/11
f 10/10/10 14/14/14 9/9/9
f 9/9/9 14/14/14 13/13/13
f 10/10/10 15/15/15 14/14/14
f 15/15/15 16/16/16 14/14/14
f 14/14/14 16/16/16 17/17/17
f 14/14/14 17/17/17 13/13/13
f 16/16/16 18/18/18 17/17/17
f 11/11/11 19/19/19 12/12/12
f 12/12/12 19/19/19 20/20/20
f 13/13/13 21/21/21 11/11/11
f 13/13/13 17/17/17 21/21/21
f 11/11/11 21/21/21 19/19/19
f 17/17/17 18/18/18 22/22/22
f 17/17/17 22/22/22 21/21/21
f 18/18/18 23/23/23 22/22/22
f 19/19/19 24/24/24 20/20/20
f 20/20/20 24/24/24 25/25/25
f 21/21/21 26/26/26 19/19/19
f 21/21/21 22/22/22 26/26/26
f 19/19/19 26/26/26 24/24/24
f 22/22/22 23/23/23 27/27/27
f 22/22/22 27/27/27 26/26/26
f 23/23/23 28/28/28 27/27/27
f 24/24/24 29/29/29 25/25/25
f 25/25/25 29/29/29 30/30/30
f 26/26/26 31/31/31 24/24/24
f 26/26/26 27/27/27 31/31/31
f 24/24/24 31/31/31 29/29/29
f 27/27/27 28/28/28 32/32/32
f 27/27/27 32/32/32 31/31/31
f 28/28/28 33/33/33 32/32/32
f 29/29/29 34/34/34 30/30/30
f 30/30/30 34/34/34 35/35/35
f 31/31/31 36/36/36 29/29/29
f 31/31/31 32/32/32 36/36/36
f 29/29/29 36/36/36 34/34/34
f 32/32/32 33/33/33 37/37/37
f 32/32/32 37/37/37 36/36/36
f 33/33/33 38/38/38 37/37/37
f 34/34/34 39/39/39 35/35/35
f 35/35/35 39/39/39 40/40/40
f 36/36/36 41/41/41 34/34/34
f 36/36/36 37/37/37 41/41/41
f 34/34/34 41/41/41 39/39/39
f 37/37/37 38/38/38 42/42/42
f 37/37/37 42/42/42 41/41/41
f 38/38/38 43/43/43 42/42/42
f 39/39/39 44/44/44 40/40/40
f 40/40/40 44/44/44 45/45/45
f 41/41/41 46/46/46 39/39/39
f 41/41/41 42/42/42 46/46/46
f 39/39/39 46/46/46 44/44/44
f 42/42/42 43/43/43 47/47/47
f 42/42/42 47/47/47 46/46/46
f 43/43/43 48/48/48 47/47/47
f 44/44/44 49/49/49 45/45/45
f 45/45/45 49/49/49 50/50/50
f 46/46/46 51/51/51 44/44/44
f 46/46/46 47/47/47 51/51/51
f 44/44/44 51/51/51 49/49/49
f 47/47/47 48/48/48 52/52/52
f 47/47/47 52/52/52 51/51/51
f 48/48/48 53/53/53 52/52/52
f 49/49/49 54/54/54 50/50/50
f 50/50/50 54/54/54 55/55/55
f 51/51/51 56/56/56 49/49/49
f 51/51/51 52/52/52 56/56/56
f 49/49/49 56/56/56 54/54/54
f 52/52/52 53/53/53 57/57/57
f 52/52/52 57/57/57 56/56/56
f 53/53/53 58/58/58 57/57/57
f 54/54/54 59/59/59 55/55/55
f 55/55/55 59/59/59 60/60/60
f 56/56/56 61/61/61 54/54/54
f 56/56/56 57/57/57 61/61/61
f 54/54/54 61/61/61 59/59/59
f 57/57/57 58/58/58 62/62/62
f 57/57/57 62/62/62 61/61/61
f 58/58/58 63/63/63 62/62/62
f 59/59/59 64/64/64 60/60/60
f 60/60/60 64/64/64 65/65/65
f 61/61/61 66/66/66 59/59/59
f 61/61/61 62/62/62 66/66/66
f 59/59/59 66/66/66 64/64/64
f 62/62/62 63/63/63 67/67/67
f 62/62/62 67/67/67 66/66/66
f 63/63/63 68/68/68 67/67/67
f 64/64/64 69/69/69 65/65/65
f 65/65/65 69/69/69 70/70/70
f 66/66/66 71/71/71 64/64/64
f 66/66/66 67/67/67 71/71/71
f 64/64/64 71/71/71 69/69/69
f 67/67/67 68/68/68 72/72/72
f 67/67/67 72/72/72 71/71/71
f 68/68/68 73/73/73 72/72/72
f 69/69/69 74/74/74 70/70/70
f 70/70/70 74/74/74 75/75/75
f 71/71/71 76/76/76 69/69/69
f 71/71/71 72/72/72 76/76/76
f 69/69/69 76/76/76 74/74/74
f 72/72/72 73/73/73 77/77/77
f 72/72/72 77/77/77 76/76/76
f 73/73/73 78/78/78 77/77/77
f 74/74/74 79/79/79 75/75/75
f 75/75/75 79/79/79 80/80/80
f 76/76/76 81/81/81 74/74/74
f 76/76/76 77/77/77 81/81/81
f 74/74/74 81/81/81 79/79/79
f 77/77/77 78/78/78 82/82/82
f 77/77/77 82/82/82 81/81/81
f 78/78/78 83/83/83 82/82/82
f 79/79/79 84/84/84 80/80/80
f 80/80/80 84/84/84 85/85/85
f 81/81/81 86/86/86 79/79/79
f 81/81/81 82/82/82 86/86/86
f 79/79/79 86/86/86 84/84/84
f 82/82/82 83/83/83 87/87/87
f 82/82/82 87/87/87 86/86/86
f 83/83/83 88/88/88 87/87/87
f 84/84/84 89/89/89 85/85/85
f 85/85/85 89/89/89 90/90/90
f 86/86/86 91/91/91 84/84/84
f 86/86/86 87/87/87 91/91/91
f 84/84/84 91/91/91 89/89/89
f 87/87/87 88/88/88 92/92/92
f 87/87/87 92/92/92 91/91/91
f 88/88/88 93/93/93 92/92/92
f 89/89/89 94/94/94 90/90/90
f 90/90/90 94/94/94 95/95/95
f 91/91/91 96/96/96 89/89/89
f 91/91/91 92/92/92 96/96/96
f 89/89/89 96/96/96 94/94/94
f 92/92/92 93/93/93 97/97/97
f 92/92/92 97/97/97 96/96/96
f 93/93/93 98/98/98 97/97/97
f 94/94/94 99/99/99 95/95/95
f 95/95/95 99/99/99 100/100/100
f 96/96/96 101/101/101 94/94/94
f 96/96/96 97/97/97 101/101/101
f 94/94/94 101/101/101 99/99/99
f 97/97/97 98/98/98 102/102/102
f 97/97/97 102/102/102 101/101/101
f 98/98/98 103/103/103 102/102/102
f 99/99/99 104/104/104 100/100/100
f 100/100/100 104/104/104 105/105/105
f 101/101/101 106/106/106 99/99/99
f 101/101/101 102/102/102 106/106/106
f 99/99/99 106/106/106 104/104/104
f 102/102/102 103/103/103 107/107/107
f 102/102/102 107/107/107 106/106/106
f 103/103/103 108/108/108 107/107/107
f 104/104/104 109/109/109 105/105/105
f 105/105/105 109/109/109 110/110/110
f 106/106/106 111/111/111 104/104/104
f 106/106/106 107/107/107 111/111/111
f 104/104/104 111/111/111 109/109/109
f 107/107/107 108/108/108 112/112/112
f 107/107/107 112/112/112 111/111/111
f 108/108/108 113/113/113 112/112/112
f 109/109/109 114/114/114 110/110/110
f 110/110/110 114/114/114 115/115/115
f 114/114/114 116/116/116 115/115/115
f 111/111/111 117/117/117 109/109/109
f 111/111/111 112/112/112 117/117/117
f 109/109/109 117/117/117 114/114/114
f 112/112/112 113/113/113 118/118/118
f 112/112/112 118/118/118 117/117/117
f 113/113/113 119/119/119 118/118/118
f 114/114/114 120/120/120 116/116/116
f 117/117/117 120/120/120 114/114/114
f 117/117/117 118/118/118 120/120/120
f 120/120/120 121/121/121 116/116/116
f 118/118/118 119/119/119 122/122/122
f 118/118/118 122/122/122 120/120/120
f 120/120/120 122/122/122 121/121/121
f 119/119/119 123/123/123 122/122/122
f 122/122/122 124/124/124 121/121/121
f 122/122/122 123/123/123 124/124/124
f 123/123/123 125/125/125 124/124/124
