g Plane002
v 0.099999994 -0.25 0
v -0 -0.25 0
v 0.099999994 -0.149999991 0
v -0 -0.149999991 0
v -0.099999994 -0.25 0
v -0.099999994 -0.149999991 0
v -0.199999988 -0.25 0
v -0.199999988 -0.149999991 0
v -0.099999994 -0.049999997 0
v -0.199999988 -0.049999997 0
v -0 -0.049999997 0
v 0.099999994 -0.049999997 0
v -0.099999994 0.049999997 0
v -0.199999988 0.049999997 0
v 0.199999988 -0.049999997 0
v 0.199999988 -0.149999991 0
v 0.199999988 0.049999997 0
v 0.099999994 0.049999997 0
v 0.199999988 0.149999991 0
v 0.099999994 0.149999991 0
v -0 0.049999997 0
v -0 0.149999991 0
v 0.099999994 0.25 0
v -0 0.25 0
v -0.099999994 0.149999991 0
v -0.099999994 0.25 0
v -0.199999988 0.149999991 0
v -0.199999988 0.25 0
vt 0.75 0
vt 0.5 0
vt 0.75 0.200000003
vt 0.5 0.200000003
vt 0.25 0
vt 0.25 0.200000003
vt 0 0
vt 0 0.200000003
vt 0.25 0.400000006
vt 0 0.400000006
vt 0.5 0.400000006
vt 0.75 0.400000006
vt 0.25 0.600000024
vt 0 0.600000024
vt 1 0.400000006
vt 1 0.200000003
vt 1 0.600000024
vt 0.75 0.600000024
vt 1 0.800000012
vt 0.75 0.800000012
vt 0.5 0.600000024
vt 0.5 0.800000012
vt 0.75 1
vt 0.5 1
vt 0.25 0.800000012
vt 0.25 1
vt 0 0.800000012
vt 0 1
vn -0 0 1
vn -0 0 1
vn -0 0 1
vn -0 0 1
vn -0 0 1
vn -0 0 1
vn -0 0 1
vn -0 0 1
vn -0 0 1
vn -0 0 1
vn -0 0 1
vn -0 0 1
vn -0 0 1
vn -0 0 1
vn -0 0 1
vn -0 0 1
vn -0 0 1
vn -0 0 1
vn -0 0 1
vn -0 0 1
vn -0 0 1
vn -0 0 1
vn -0 0 1
vn -0 0 1
vn -0 0 1
vn -0 0 1
vn -0 0 1
vn -0 0 1
g Plane002_0
f 3/3/3 2/2/2 1/1/1
f 2/2/2 3/3/3 4/4/4
f 4/4/4 5/5/5 2/2/2
f 5/5/5 4/4/4 6/6/6
f 6/6/6 7/7/7 5/5/5
f 7/7/7 6/6/6 8/8/8
f 9/9/9 8/8/8 6/6/6
f 8/8/8 9/9/9 10/10/10
f 11/11/11 6/6/6 4/4/4
f 6/6/6 11/11/11 9/9/9
f 12/12/12 4/4/4 3/3/3
f 4/4/4 12/12/12 11/11/11
f 13/13/13 10/10/10 9/9/9
f 10/10/10 13/13/13 14/14/14
f 3/3/3 15/15/15 12/12/12
f 15/15/15 3/3/3 16/16/16
f 17/17/17 12/12/12 15/15/15
f 12/12/12 17/17/17 18/18/18
f 18/18/18 11/11/11 12/12/12
f 19/19/19 18/18/18 17/17/17
f 18/18/18 19/19/19 20/20/20
f 21/21/21 9/9/9 11/11/11
f 11/11/11 18/18/18 21/21/21
f 20/20/20 21/21/21 18/18/18
f 9/9/9 21/21/21 13/13/13
f 21/21/21 20/20/20 22/22/22
f 22/22/22 13/13/13 21/21/21
f 23/23/23 22/22/22 20/20/20
f 22/22/22 23/23/23 24/24/24
f 13/13/13 22/22/22 25/25/25
f 24/24/24 25/25/25 22/22/22
f 25/25/25 14/14/14 13/13/13
f 25/25/25 24/24/24 26/26/26
f 14/14/14 25/25/25 27/27/27
f 26/26/26 27/27/27 25/25/25
f 27/27/27 26/26/26 28/28/28
