g 平面
v 10.1868477 -0.643346369 0
v 10.1605787 -0.641969264 -2.98023224E-08
v 10.1981602 -0.109201811 0
v 10.2087049 -0.109201811 0
v 10.1665869 -1.17996597 0
v 10.2131166 -0.644723475 0
v 10.1213665 -1.1752044 0
v 10.2131166 -0.644723475 0
v 10.1868477 -0.643346369 0
v 10.2192497 -0.109201811 0
v 10.076148 -1.17044222 0
v 10.1605787 -0.641969264 -2.98023224E-08
v 10.1868477 -0.643346369 0
v -10.2087049 -0.109201811 1.1641535E-10
v -10.1981602 -0.109201811 5.82076679E-11
v -10.1605787 -0.641969264 2.98023259E-08
v -10.1868477 -0.643346369 1.50175747E-08
v -10.2192497 -0.109201811 -1.11758727E-08
v -10.1868477 -0.643346369 1.50175747E-08
v -10.2131166 -0.644723475 1.12340821E-08
v -10.1868477 -0.643346369 1.50175747E-08
v -10.1605787 -0.641969264 2.98023259E-08
v -10.0761499 -1.17044139 -2.96859071E-08
v -10.1213665 -1.1752044 -2.98023171E-08
v -10.2131166 -0.644723475 1.12340821E-08
v -9.94898987 -1.69238198 3.00351601E-08
v -10.1665859 -1.17996669 3.35276198E-08
v -10.0125475 -1.70249629 4.65661343E-10
v -9.77978706 -2.20558953 2.32830644E-10
v -10.0761051 -1.71261132 4.19095203E-09
v -9.86085129 -2.22296786 -3.02679908E-08
v -9.5694437 -2.70791173 0
v -9.94191742 -2.24034572 -2.60770356E-08
v -9.66692924 -2.73438644 -2.93366664E-08
v -9.31910801 -3.19728017 0
v -9.76441765 -2.7608614 1.58324873E-08
v -9.43161392 -3.2345624 2.9802333E-08
v -9.02990627 -3.67164612 4.65661398E-10
v -9.54411888 -3.27184558 -7.42729753E-08
v -9.15590858 -3.72135806 -1.3969836E-08
v -8.70337868 -4.12911844 0
v -9.28191185 -3.77106953 -4.40049952E-08
v -8.8409977 -4.19268417 9.31322797E-10
v -8.34099293 -4.56781864 0
v -8.97861671 -4.25624943 -1.8160792E-08
v -8.4882288 -4.64652348 -1.39698404E-08
v -7.94439173 -4.98595715 0
v -8.63546276 -4.72522879 7.45058149E-09
v -8.09910965 -5.08093548 -1.86264471E-09
v -7.51562166 -5.38201952 -1.49011665E-08
v -8.2538271 -5.17591238 4.65661287E-10
v -7.67530966 -5.49405575 0
v -7.05636597 -5.75429392 -1.39698386E-08
v -7.83499813 -5.60609245 -1.67638081E-08
v -7.21864367 -5.88411808 0
v -6.56888247 -6.10150051 1.86264537E-09
v -7.38092089 -6.01394224 -1.49011612E-08
v -6.73106623 -6.24945068 -1.49011647E-08
v -6.0552969 -6.42233372 -1.67638063E-08
v -6.89324856 -6.39740038 2.79396817E-09
v -6.21466541 -6.58849001 -1.86264537E-09
v -6.3740325 -6.75464582 9.31322686E-10
v -6.21466541 -6.58849001 -1.86264537E-09
v -6.0552969 -6.42233372 -1.67638063E-08
v -5.51765108 -6.71539879 0
v -5.67165232 -6.89978504 -5.58793722E-09
v -6.3740325 -6.75464582 9.31322686E-10
v -5.82565212 -7.08416986 2.79396861E-09
v -5.67165232 -6.89978504 -5.58793722E-09
v -5.51765108 -6.71539879 0
v -4.95874023 -6.98023129 0
v -5.104352 -7.18200064 -7.4505806E-09
v -5.82565212 -7.08416986 2.79396861E-09
v -4.38047266 -7.21537447 -1.11758744E-08
v -5.24996328 -7.38376951 -1.86264537E-09
v -4.51519442 -7.43392944 1.30385178E-08
v -3.78546095 -7.42032766 0
v -4.64991617 -7.65248346 1.11758744E-08
v -3.90670156 -7.65449286 -1.4901163E-08
v -4.02794218 -7.88865709 -5.58793456E-09
v -3.90670156 -7.65449286 -1.4901163E-08
v -3.78546095 -7.42032766 0
v -3.17624259 -7.59472561 1.11758727E-08
v -3.28148031 -7.84274578 3.72529074E-09
v -4.02794218 -7.88865709 -5.58793456E-09
v -3.3867178 -8.09076595 1.02445492E-08
v -3.28148031 -7.84274578 3.72529074E-09
v -3.17624259 -7.59472561 1.11758727E-08
v -2.55496168 -7.73739529 0
v -2.64220691 -7.99788237 -7.45058237E-09
v -3.3867178 -8.09076595 1.02445492E-08
v -2.72945237 -8.25837135 3.7252903E-09
v -1.92447126 -7.84917021 -3.72529119E-09
v -1.99161923 -8.11923885 -7.4505806E-09
v -2.72945237 -8.25837135 3.7252903E-09
v -2.05876756 -8.38930893 -1.86264537E-09
v -1.28684914 -7.92886257 7.45058149E-09
v -1.33250332 -8.20629597 7.45058149E-09
v -2.05876756 -8.38930893 -1.86264537E-09
v -1.37815738 -8.48372936 9.31322686E-10
v -0.644561887 -7.97647095 7.45058149E-09
v -0.667681158 -8.25867939 2.23517382E-08
v -1.37815738 -8.48372936 9.31322686E-10
v -0.690800369 -8.54088783 9.31322663E-09
v -0.667681158 -8.25867939 2.23517382E-08
v -0.644561887 -7.97647095 7.45058149E-09
v -1.78762502E-06 -7.99280453 7.45058149E-09
v -0 -8.27616596 7.45058237E-09
v -0.690800369 -8.54088783 9.31322663E-09
v 1.91613071E-06 -8.55952644 -1.11758691E-08
v -0 -8.27616596 7.45058237E-09
v -1.78762502E-06 -7.99280453 7.45058149E-09
v 0.644558251 -7.97647095 7.45058149E-09
v 0.667681158 -8.25867939 1.11758744E-08
v 1.91613071E-06 -8.55952644 -1.11758691E-08
v 0.690804362 -8.54088783 9.31322663E-09
v 0.667681158 -8.25867939 1.11758744E-08
v 0.644558251 -7.97647095 7.45058149E-09
v 1.28684556 -7.92886257 7.45058237E-09
v 1.33250332 -8.20629597 1.11758727E-08
v 0.690804362 -8.54088783 9.31322663E-09
v 1.37816119 -8.48372936 7.45058149E-09
v 1.92446756 -7.84917116 -7.45058237E-09
v 1.99161923 -8.11923885 -7.45058149E-09
v 2.55495858 -7.73739529 -7.45058237E-09
v 2.64220691 -7.99788237 -1.49011647E-08
v 3.17623925 -7.59472656 0
v 3.28148031 -7.84274626 1.49011647E-08
v 3.78545761 -7.42032957 0
v 3.90670156 -7.65449286 1.49011612E-08
v 4.38046932 -7.2153759 -7.45058149E-09
v 4.51519442 -7.43392944 0
v 1.37816119 -8.48372936 7.45058149E-09
v 1.33250332 -8.20629597 1.11758727E-08
v 2.0587709 -8.38930798 5.58793634E-09
v 4.51519442 -7.43392944 0
v 4.38046932 -7.2153759 -7.45058149E-09
v 4.9587369 -6.98023367 -7.45058149E-09
v 5.104352 -7.18200064 0
v 4.02794647 -7.88865566 -3.72529074E-09
v 4.64991951 -7.65248251 -1.4901163E-08
v 3.90670156 -7.65449286 1.49011612E-08
v 3.38672137 -8.090765 1.49011647E-08
v 3.28148031 -7.84274626 1.49011647E-08
v 2.72945547 -8.2583704 -3.7252903E-09
v 2.64220691 -7.99788237 -1.49011647E-08
v 2.0587709 -8.38930798 5.58793634E-09
v 1.99161923 -8.11923885 -7.45058149E-09
v 2.72945547 -8.2583704 -3.7252903E-09
v 4.64991951 -7.65248251 -1.4901163E-08
v 5.104352 -7.18200064 0
v 5.2499671 -7.38376713 9.31322663E-09
v 4.9587369 -6.98023367 -7.45058149E-09
v 5.51764822 -6.71540022 0
v 5.67165232 -6.89978504 1.49011647E-08
v 5.2499671 -7.38376713 9.31322663E-09
v 5.82565594 -7.08416748 0
v 6.05529451 -6.4223361 -1.4901163E-08
v 6.21466541 -6.58849001 0
v 5.82565594 -7.08416748 0
v 5.67165232 -6.89978504 1.49011647E-08
v 6.37403536 -6.75464392 3.72529119E-09
v 6.21466541 -6.58849001 0
v 6.05529451 -6.4223361 -1.4901163E-08
v 6.56887913 -6.10150242 0
v 6.73106623 -6.24945068 0
v 6.37403536 -6.75464392 3.72529119E-09
v 6.73106623 -6.24945068 0
v 6.89325237 -6.39739847 0
v 7.21864367 -5.88411808 1.49011647E-08
v 7.38092327 -6.01393986 -1.4901163E-08
v 6.56887913 -6.10150242 0
v 7.05636263 -5.7542963 1.4901163E-08
v 7.21864367 -5.88411808 1.49011647E-08
v 7.05636263 -5.7542963 1.4901163E-08
v 7.5156188 -5.38202238 1.49011647E-08
v 7.67530966 -5.49405575 -7.45058237E-09
v 7.38092327 -6.01393986 -1.4901163E-08
v 7.67530966 -5.49405575 -7.45058237E-09
v 7.83500099 -5.60609007 -1.8626455E-08
v 7.5156188 -5.38202238 1.49011647E-08
v 7.94438934 -4.98596001 0
v 8.09910965 -5.08093548 -7.45058149E-09
v 7.83500099 -5.60609007 -1.8626455E-08
v 8.09910965 -5.08093548 -7.45058149E-09
v 8.25382996 -5.17590952 3.72529119E-09
v 7.94438934 -4.98596001 0
v 8.34099102 -4.5678215 0
v 8.4882288 -4.64652348 1.4901163E-08
v 8.25382996 -5.17590952 3.72529119E-09
v 8.63546467 -4.72522593 -2.98023259E-08
v 8.4882288 -4.64652348 1.4901163E-08
v 8.34099102 -4.5678215 0
v 8.70337582 -4.12912035 -1.4901163E-08
v 8.8409977 -4.19268417 0
v 8.63546467 -4.72522593 -2.98023259E-08
v 8.97861862 -4.25624657 1.86264533E-08
v 8.8409977 -4.19268417 0
v 8.70337582 -4.12912035 -1.4901163E-08
v 9.02990437 -3.67164779 1.4901163E-08
v 9.15590858 -3.72135806 0
v 8.97861862 -4.25624657 1.86264533E-08
v 9.15590858 -3.72135806 0
v 9.28191376 -3.7710669 -1.49011647E-08
v 9.43161392 -3.2345624 -1.4901163E-08
v 9.54412079 -3.27184248 -1.49011647E-08
v 9.31910706 -3.19728255 1.4901163E-08
v 9.02990437 -3.67164779 1.4901163E-08
v 9.56944275 -2.7079134 0
v 9.66692924 -2.73438644 0
v 9.43161392 -3.2345624 -1.4901163E-08
v 9.76441765 -2.76085973 0
v 9.66692924 -2.73438644 0
v 9.56944275 -2.7079134 0
v 9.77978611 -2.20559144 0
v 9.86085129 -2.22296786 0
v 9.76441765 -2.76085973 0
v 9.94191742 -2.24034381 0
v 9.86085129 -2.22296786 0
v 9.77978611 -2.20559144 0
v 9.94898796 -1.69238281 -2.98023259E-08
v 10.0125475 -1.70249629 1.4901163E-08
v 9.94191742 -2.24034381 0
v 10.0125475 -1.70249629 1.4901163E-08
v 10.0761061 -1.7126106 0
v 10.0125475 -1.70249629 1.4901163E-08
v 9.94898796 -1.69238281 -2.98023259E-08
v 10.076148 -1.17044222 0
v 10.1213665 -1.1752044 0
v 10.0761061 -1.7126106 0
v 10.1665869 -1.17996597 0
vt 0.979166627 0.5
vt 0.979166687 1
vt 1 1
vt 1 0.5
vt 0.958333254 0
vt 0.979166627 0
vt 0.958333313 0.5
vt 0.979166627 0
vt 0.979166627 0.5
vt 1 0
vt 0.958333373 1
vt 0.979166687 1
vt 0.979166627 0.5
vt 0 0.5
vt 0 1
vt 0.0208333265 1
vt 0.0208333302 0.5
vt 0 0
vt 0.0208333302 0.5
vt 0.020833334 0
vt 0.0208333302 0.5
vt 0.0208333265 1
vt 0.041666653 1
vt 0.0416666567 0.5
vt 0.020833334 0
vt 0.0624999851 1
vt 0.0416666642 0
vt 0.0624999925 0.5
vt 0.0833333135 1
vt 0.0625 0
vt 0.0833333284 0.5
vt 0.104166642 1
vt 0.0833333358 0
vt 0.104166657 0.5
vt 0.12499997 1
vt 0.104166672 0
vt 0.124999985 0.5
vt 0.145833299 1
vt 0.125 0
vt 0.145833313 0.5
vt 0.166666627 1
vt 0.145833328 0
vt 0.166666642 0.5
vt 0.187499955 1
vt 0.166666657 0
vt 0.18749997 0.5
vt 0.208333284 1
vt 0.1875 0
vt 0.208333313 0.5
vt 0.229166627 1
vt 0.208333328 0
vt 0.229166642 0.5
vt 0.249999955 1
vt 0.229166657 0
vt 0.24999997 0.5
vt 0.270833284 1
vt 0.25 0
vt 0.270833313 0.5
vt 0.291666627 1
vt 0.270833343 0
vt 0.291666657 0.5
vt 0.291666687 0
vt 0.291666657 0.5
vt 0.291666627 1
vt 0.31249994 1
vt 0.31249997 0.5
vt 0.291666687 0
vt 0.3125 0
vt 0.31249997 0.5
vt 0.31249994 1
vt 0.333333284 1
vt 0.333333313 0.5
vt 0.3125 0
vt 0.354166627 1
vt 0.333333343 0
vt 0.354166657 0.5
vt 0.37499997 1
vt 0.354166687 0
vt 0.375 0.5
vt 0.37500003 0
vt 0.375 0.5
vt 0.37499997 1
vt 0.395833284 1
vt 0.395833313 0.5
vt 0.37500003 0
vt 0.395833343 0
vt 0.395833313 0.5
vt 0.395833284 1
vt 0.416666627 1
vt 0.416666627 0.5
vt 0.395833343 0
vt 0.416666657 0
vt 0.43749997 1
vt 0.4375 0.5
vt 0.416666657 0
vt 0.4375 0
vt 0.458333313 1
vt 0.458333313 0.5
vt 0.4375 0
vt 0.458333343 0
vt 0.479166627 1
vt 0.479166627 0.5
vt 0.458333343 0
vt 0.479166657 0
vt 0.479166627 0.5
vt 0.479166627 1
vt 0.49999997 1
vt 0.49999997 0.5
vt 0.479166657 0
vt 0.49999997 0
vt 0.49999997 0.5
vt 0.49999997 1
vt 0.520833313 1
vt 0.520833313 0.5
vt 0.49999997 0
vt 0.520833313 0
vt 0.520833313 0.5
vt 0.520833313 1
vt 0.541666687 1
vt 0.541666687 0.5
vt 0.520833313 0
vt 0.541666687 0
vt 0.5625 1
vt 0.5625 0.5
vt 0.583333313 1
vt 0.583333313 0.5
vt 0.604166687 1
vt 0.604166627 0.5
vt 0.62500006 1
vt 0.625 0.5
vt 0.645833373 1
vt 0.645833373 0.5
vt 0.541666687 0
vt 0.541666687 0.5
vt 0.5625 0
vt 0.645833373 0.5
vt 0.645833373 1
vt 0.666666687 1
vt 0.666666627 0.5
vt 0.62499994 0
vt 0.645833313 0
vt 0.625 0.5
vt 0.604166627 0
vt 0.604166627 0.5
vt 0.583333313 0
vt 0.583333313 0.5
vt 0.5625 0
vt 0.5625 0.5
vt 0.583333313 0
vt 0.645833313 0
vt 0.666666627 0.5
vt 0.666666627 0
vt 0.666666687 1
vt 0.6875 1
vt 0.6875 0.5
vt 0.666666627 0
vt 0.68749994 0
vt 0.708333373 1
vt 0.708333313 0.5
vt 0.68749994 0
vt 0.6875 0.5
vt 0.708333254 0
vt 0.708333313 0.5
vt 0.708333373 1
vt 0.729166687 1
vt 0.729166627 0.5
vt 0.708333254 0
vt 0.729166627 0.5
vt 0.729166627 0
vt 0.75 0.5
vt 0.74999994 0
vt 0.729166687 1
vt 0.75000006 1
vt 0.75 0.5
vt 0.75000006 1
vt 0.770833373 1
vt 0.770833313 0.5
vt 0.74999994 0
vt 0.770833313 0.5
vt 0.770833254 0
vt 0.770833373 1
vt 0.791666746 1
vt 0.791666687 0.5
vt 0.770833254 0
vt 0.791666687 0.5
vt 0.791666627 0
vt 0.791666746 1
vt 0.81250006 1
vt 0.8125 0.5
vt 0.791666627 0
vt 0.81249994 0
vt 0.8125 0.5
vt 0.81250006 1
vt 0.833333373 1
vt 0.833333313 0.5
vt 0.81249994 0
vt 0.833333254 0
vt 0.833333313 0.5
vt 0.833333373 1
vt 0.854166687 1
vt 0.854166627 0.5
vt 0.833333254 0
vt 0.854166627 0.5
vt 0.854166627 0
vt 0.875 0.5
vt 0.87499994 0
vt 0.87500006 1
vt 0.854166687 1
vt 0.895833433 1
vt 0.895833373 0.5
vt 0.875 0.5
vt 0.895833313 0
vt 0.895833373 0.5
vt 0.895833433 1
vt 0.916666746 1
vt 0.916666687 0.5
vt 0.895833313 0
vt 0.916666627 0
vt 0.916666687 0.5
vt 0.916666746 1
vt 0.93750006 1
vt 0.9375 0.5
vt 0.916666627 0
vt 0.9375 0.5
vt 0.9375 0
vt 0.9375 0.5
vt 0.93750006 1
vt 0.958333373 1
vt 0.958333313 0.5
vt 0.9375 0
vt 0.958333254 0
vn -8.08910897E-07 0 1
vn -8.08910897E-07 0 1
vn -8.08910897E-07 0 1
vn -8.08910897E-07 0 1
vn -0 0 1
vn -0 0 1
vn -4.0949962E-07 0 1
vn -0 0 1
vn -0 0 1
vn -0 0 1
vn -4.0949962E-07 0 1
vn -4.0949962E-07 0 1
vn -4.0949962E-07 0 1
vn -4.0076273E-07 0 1
vn -4.0076273E-07 0 1
vn -4.0076273E-07 0 1
vn -4.0076273E-07 0 1
vn -4.1041568E-07 0 1
vn -4.1041568E-07 0 1
vn -4.1041568E-07 0 1
vn -1.97599007E-07 -1.263097E-07 1
vn -1.97599007E-07 -1.263097E-07 1
vn -1.97599007E-07 -1.263097E-07 1
vn -1.97599007E-07 -1.263097E-07 1
vn 8.27318559E-07 0 1
vn -2.76147148E-07 0 1
vn 6.00878252E-07 1.13861276E-07 1
vn -2.76147148E-07 0 1
vn -3.81701369E-07 -1.77060741E-07 1
vn -0 0 1
vn -3.81701369E-07 -1.77060741E-07 1
vn -3.05387488E-07 -1.21094402E-07 1
vn 2.44623465E-07 1.2956184E-07 1
vn -3.05387488E-07 -1.21094402E-07 1
vn -0 0 1
vn -2.385774E-07 -1.38123994E-07 1
vn -0 0 1
vn -0 0 1
vn -4.64805936E-07 -2.67265051E-07 1
vn -0 0 1
vn -0 0 1
vn -1.60175702E-07 0 1
vn -0 0 1
vn -0 0 1
vn -0 0 1
vn -0 0 1
vn -0 0 1
vn -0 0 1
vn -0 0 1
vn -0 0 1
vn -0 0 1
vn -0 0 1
vn -0 0 1
vn -0 0 1
vn -0 0 1
vn -0 0 1
vn -0 0 1
vn -0 0 1
vn -0 0 1
vn -0 0 1
vn -0 0 1
vn -0 0 1
vn -0 0 1
vn -0 0 1
vn -0 0 1
vn -0 0 1
vn -0 0 1
vn -0 0 1
vn -0 0 1
vn -0 0 1
vn -0 0 1
vn -0 0 1
vn -0 0 1
vn -0 0 1
vn -0 0 1
vn -0 0 1
vn -0 0 1
vn -0 0 1
vn -0 0 1
vn -0 0 1
vn -0 0 1
vn -0 0 1
vn -0 0 1
vn -0 0 1
vn -0 0 1
vn -0 0 1
vn -0 0 1
vn -0 0 1
vn -0 0 1
vn -0 0 1
vn -0 0 1
vn -0 0 1
vn -0 0 1
vn -0 0 1
vn -0 0 1
vn -0 0 1
vn -0 0 1
vn -0 0 1
vn -0 0 1
vn -0 0 1
vn -0 0 1
vn -0 0 1
vn -0 0 1
vn -0 0 1
vn -0 0 1
vn -0 0 1
vn -0 0 1
vn -0 0 1
vn -0 0 1
vn -0 0 1
vn -0 0 1
vn -0 0 1
vn -0 0 1
vn -0 0 1
vn -0 0 1
vn -0 0 1
vn -0 0 1
vn -0 0 1
vn -0 0 1
vn -0 0 1
vn -0 0 1
vn -0 0 1
vn -0 0 1
vn -0 0 1
vn -0 0 1
vn -0 0 1
vn -0 0 1
vn -0 0 1
vn -0 0 1
vn -0 0 1
vn -0 0 1
vn -0 0 1
vn -0 0 1
vn -0 0 1
vn -0 0 1
vn -0 0 1
vn -0 0 1
vn -0 0 1
vn -0 0 1
vn -0 0 1
vn -0 0 1
vn -0 0 1
vn -0 0 1
vn -0 0 1
vn -0 0 1
vn -0 0 1
vn -0 0 1
vn -0 0 1
vn -0 0 1
vn -0 0 1
vn -0 0 1
vn -0 0 1
vn -0 0 1
vn -0 0 1
vn -0 0 1
vn -0 0 1
vn -0 0 1
vn -0 0 1
vn -0 0 1
vn -0 0 1
vn -0 0 1
vn -0 0 1
vn -0 0 1
vn -0 0 1
vn -0 0 1
vn -0 0 1
vn -0 0 1
vn -0 0 1
vn -0 0 1
vn -0 0 1
vn -0 0 1
vn -0 0 1
vn -0 0 1
vn -0 0 1
vn -0 0 1
vn -0 0 1
vn -0 0 1
vn -0 0 1
vn -0 0 1
vn -0 0 1
vn -0 0 1
vn -0 0 1
vn -0 0 1
vn -0 0 1
vn -0 0 1
vn -0 0 1
vn -0 0 1
vn -0 0 1
vn -0 0 1
vn -0 0 1
vn -0 0 1
vn -0 0 1
vn -0 0 1
vn -0 0 1
vn -0 0 1
vn -0 0 1
vn -0 0 1
vn -0 0 1
vn -0 0 1
vn -0 0 1
vn -0 0 1
vn -0 0 1
vn 1.58998688E-07 0 1
vn -0 0 1
vn 1.58998688E-07 0 1
vn -0 0 1
vn 1.58998688E-07 0 1
vn 1.58998688E-07 0 1
vn 1.23516386E-07 0 1
vn 1.23516386E-07 0 1
vn -0 0 1
vn -0 0 1
vn -0 0 1
vn -0 0 1
vn -0 0 1
vn -0 0 1
vn -0 0 1
vn -0 0 1
vn -2.89290853E-07 1.0422437E-07 1
vn -2.89290853E-07 1.0422437E-07 1
vn -2.89290853E-07 1.0422437E-07 1
vn -2.89290853E-07 1.0422437E-07 1
vn -0 0 1
vn -0 0 1
vn -0 0 1
vn -4.00581911E-07 0 1
vn -4.00581911E-07 0 1
vn -4.00581911E-07 0 1
vn -4.00581911E-07 0 1
vn 1.35427044E-07 0 1
vn 1.35427044E-07 0 1
g 平面_0
f 3/3/3 2/2/2 1/1/1
f 4/4/4 3/3/3 1/1/1
f 6/6/6 1/1/1 5/5/5
f 1/1/1 7/7/7 5/5/5
f 4/4/4 9/9/9 8/8/8
f 10/10/10 4/4/4 8/8/8
f 12/12/12 11/11/11 7/7/7
f 13/13/13 12/12/12 7/7/7
f 16/16/16 15/15/15 14/14/14
f 17/17/17 16/16/16 14/14/14
f 19/19/19 14/14/14 18/18/18
f 20/20/20 19/19/19 18/18/18
f 23/23/23 22/22/22 21/21/21
f 24/24/24 23/23/23 21/21/21
f 24/24/24 21/21/21 25/25/25
f 26/26/26 23/23/23 24/24/24
f 27/27/27 24/24/24 25/25/25
f 28/28/28 26/26/26 24/24/24
f 28/28/28 24/24/24 27/27/27
f 29/29/29 26/26/26 28/28/28
f 30/30/30 28/28/28 27/27/27
f 31/31/31 29/29/29 28/28/28
f 31/31/31 28/28/28 30/30/30
f 32/32/32 29/29/29 31/31/31
f 33/33/33 31/31/31 30/30/30
f 34/34/34 32/32/32 31/31/31
f 34/34/34 31/31/31 33/33/33
f 35/35/35 32/32/32 34/34/34
f 36/36/36 34/34/34 33/33/33
f 37/37/37 35/35/35 34/34/34
f 37/37/37 34/34/34 36/36/36
f 38/38/38 35/35/35 37/37/37
f 39/39/39 37/37/37 36/36/36
f 40/40/40 38/38/38 37/37/37
f 40/40/40 37/37/37 39/39/39
f 41/41/41 38/38/38 40/40/40
f 42/42/42 40/40/40 39/39/39
f 43/43/43 41/41/41 40/40/40
f 43/43/43 40/40/40 42/42/42
f 44/44/44 41/41/41 43/43/43
f 45/45/45 43/43/43 42/42/42
f 46/46/46 44/44/44 43/43/43
f 46/46/46 43/43/43 45/45/45
f 47/47/47 44/44/44 46/46/46
f 48/48/48 46/46/46 45/45/45
f 49/49/49 47/47/47 46/46/46
f 49/49/49 46/46/46 48/48/48
f 50/50/50 47/47/47 49/49/49
f 51/51/51 49/49/49 48/48/48
f 52/52/52 50/50/50 49/49/49
f 52/52/52 49/49/49 51/51/51
f 53/53/53 50/50/50 52/52/52
f 54/54/54 52/52/52 51/51/51
f 55/55/55 53/53/53 52/52/52
f 55/55/55 52/52/52 54/54/54
f 56/56/56 53/53/53 55/55/55
f 57/57/57 55/55/55 54/54/54
f 58/58/58 56/56/56 55/55/55
f 58/58/58 55/55/55 57/57/57
f 59/59/59 56/56/56 58/58/58
f 60/60/60 58/58/58 57/57/57
f 61/61/61 59/59/59 58/58/58
f 61/61/61 58/58/58 60/60/60
f 62/62/62 61/61/61 60/60/60
f 65/65/65 64/64/64 63/63/63
f 66/66/66 65/65/65 63/63/63
f 66/66/66 63/63/63 67/67/67
f 68/68/68 66/66/66 67/67/67
f 71/71/71 70/70/70 69/69/69
f 72/72/72 71/71/71 69/69/69
f 72/72/72 69/69/69 73/73/73
f 74/74/74 71/71/71 72/72/72
f 75/75/75 72/72/72 73/73/73
f 76/76/76 74/74/74 72/72/72
f 76/76/76 72/72/72 75/75/75
f 77/77/77 74/74/74 76/76/76
f 78/78/78 76/76/76 75/75/75
f 79/79/79 77/77/77 76/76/76
f 79/79/79 76/76/76 78/78/78
f 80/80/80 79/79/79 78/78/78
f 83/83/83 82/82/82 81/81/81
f 84/84/84 83/83/83 81/81/81
f 84/84/84 81/81/81 85/85/85
f 86/86/86 84/84/84 85/85/85
f 89/89/89 88/88/88 87/87/87
f 90/90/90 89/89/89 87/87/87
f 90/90/90 87/87/87 91/91/91
f 92/92/92 90/90/90 91/91/91
f 93/93/93 89/89/89 90/90/90
f 94/94/94 93/93/93 90/90/90
f 94/94/94 90/90/90 95/95/95
f 96/96/96 94/94/94 95/95/95
f 97/97/97 93/93/93 94/94/94
f 98/98/98 97/97/97 94/94/94
f 98/98/98 94/94/94 99/99/99
f 100/100/100 98/98/98 99/99/99
f 101/101/101 97/97/97 98/98/98
f 102/102/102 101/101/101 98/98/98
f 102/102/102 98/98/98 103/103/103
f 104/104/104 102/102/102 103/103/103
f 107/107/107 106/106/106 105/105/105
f 108/108/108 107/107/107 105/105/105
f 108/108/108 105/105/105 109/109/109
f 110/110/110 108/108/108 109/109/109
f 113/113/113 112/112/112 111/111/111
f 114/114/114 113/113/113 111/111/111
f 114/114/114 111/111/111 115/115/115
f 116/116/116 114/114/114 115/115/115
f 119/119/119 118/118/118 117/117/117
f 120/120/120 119/119/119 117/117/117
f 120/120/120 117/117/117 121/121/121
f 122/122/122 120/120/120 121/121/121
f 123/123/123 119/119/119 120/120/120
f 124/124/124 123/123/123 120/120/120
f 125/125/125 123/123/123 124/124/124
f 126/126/126 125/125/125 124/124/124
f 127/127/127 125/125/125 126/126/126
f 128/128/128 127/127/127 126/126/126
f 129/129/129 127/127/127 128/128/128
f 130/130/130 129/129/129 128/128/128
f 131/131/131 129/129/129 130/130/130
f 132/132/132 131/131/131 130/130/130
f 124/124/124 134/134/134 133/133/133
f 135/135/135 124/124/124 133/133/133
f 138/138/138 137/137/137 136/136/136
f 139/139/139 138/138/138 136/136/136
f 141/141/141 136/136/136 140/140/140
f 136/136/136 142/142/142 140/140/140
f 140/140/140 142/142/142 143/143/143
f 142/142/142 144/144/144 143/143/143
f 143/143/143 144/144/144 145/145/145
f 144/144/144 146/146/146 145/145/145
f 146/146/146 148/148/148 147/147/147
f 149/149/149 146/146/146 147/147/147
f 151/151/151 136/136/136 150/150/150
f 152/152/152 151/151/151 150/150/150
f 154/154/154 153/153/153 151/151/151
f 155/155/155 154/154/154 151/151/151
f 155/155/155 151/151/151 156/156/156
f 157/157/157 155/155/155 156/156/156
f 158/158/158 154/154/154 155/155/155
f 159/159/159 158/158/158 155/155/155
f 159/159/159 161/161/161 160/160/160
f 162/162/162 159/159/159 160/160/160
f 165/165/165 164/164/164 163/163/163
f 166/166/166 165/165/165 163/163/163
f 168/168/168 163/163/163 167/167/167
f 169/169/169 168/168/168 167/167/167
f 170/170/170 168/168/168 169/169/169
f 171/171/171 170/170/170 169/169/169
f 173/173/173 172/172/172 168/168/168
f 174/174/174 173/173/173 168/168/168
f 176/176/176 175/175/175 170/170/170
f 177/177/177 176/176/176 170/170/170
f 179/179/179 170/170/170 178/178/178
f 180/180/180 179/179/179 178/178/178
f 182/182/182 181/181/181 179/179/179
f 183/183/183 182/182/182 179/179/179
f 185/185/185 179/179/179 184/184/184
f 186/186/186 185/185/185 184/184/184
f 188/188/188 187/187/187 185/185/185
f 189/189/189 188/188/188 185/185/185
f 189/189/189 185/185/185 190/190/190
f 191/191/191 189/189/189 190/190/190
f 194/194/194 193/193/193 192/192/192
f 195/195/195 194/194/194 192/192/192
f 195/195/195 192/192/192 196/196/196
f 197/197/197 195/195/195 196/196/196
f 200/200/200 199/199/199 198/198/198
f 201/201/201 200/200/200 198/198/198
f 203/203/203 198/198/198 202/202/202
f 204/204/204 203/203/203 202/202/202
f 205/205/205 203/203/203 204/204/204
f 206/206/206 205/205/205 204/204/204
f 205/205/205 207/207/207 203/203/203
f 207/207/207 208/208/208 203/203/203
f 209/209/209 207/207/207 205/205/205
f 210/210/210 209/209/209 205/205/205
f 210/210/210 211/211/211 206/206/206
f 212/212/212 210/210/210 206/206/206
f 215/215/215 214/214/214 213/213/213
f 216/216/216 215/215/215 213/213/213
f 216/216/216 213/213/213 217/217/217
f 218/218/218 216/216/216 217/217/217
f 221/221/221 220/220/220 219/219/219
f 222/222/222 221/221/221 219/219/219
f 224/224/224 219/219/219 223/223/223
f 225/225/225 224/224/224 223/223/223
f 228/228/228 227/227/227 226/226/226
f 229/229/229 228/228/228 226/226/226
f 229/229/229 226/226/226 230/230/230
f 231/231/231 229/229/229 230/230/230
