g 平面
v 0.0366982855 0.00644134032 0
v 0.0432636738 0.00759899383 0
v 0.0439310819 -2.95639038E-05 0
v 0.0372644141 -2.95615191E-05 0
v 0.0301329028 0.00528368447 0
v 0.0305977501 -2.95615191E-05 0
v 0.0235675164 0.00412603142 0
v 0.0239310823 -2.95591344E-05 0
v 0.0287524816 0.0104354899 0
v 0.0350170992 0.0127156209 0
v 0.0264984313 0.0152693186 0
v 0.020724928 0.0119359847 0
v 0.022487862 0.00815535802 0
v 0.0183322728 0.0153530473 0
v 0.0234392378 0.0196382981 0
v 0.0153826047 0.0183027163 0
v 0.0322719328 0.0186026506 0
v 0.0196678564 0.0234096814 0
v 0.0119655412 0.0206953697 0
v 0.0285462011 0.0239235461 0
v 0.0380454361 0.0219359845 0
v 0.0336531624 0.0282087997 0
v 0.0239531081 0.0285166409 0
v 0.0282383598 0.0336236022 0
v 0.015298875 0.026468873 0
v 0.00818491261 0.0224583056 0
v 0.0186322127 0.0322423726 0
v 0.0104650473 0.0287229214 0
v 0.00415558834 0.0235379599 0
v 0.012745182 0.0349875391 0
v 0.0219655465 0.0380158722 0
v 0.0150253186 0.0412521586 0
v 0.00531324418 0.0301033445 0
v 0.00647089863 0.036668729 0
v -8.40221226E-10 0.0239015259 0
v 0.00762855494 0.0432341136 0
v -3.58096053E-10 0.0305681936 0
v -0.00415559066 0.0235379599 0
v 4.36118336E-10 0.0372348577 0
v 1.54242197E-09 0.0439015292 0
v -0.00531324511 0.0301033445 0
v -0.00818491448 0.0224583056 0
v -0.00647089817 0.036668729 0
v -0.00762855075 0.0432341136 0
v -0.0104650483 0.0287229214 0
v -0.011965544 0.020695366 0
v -0.0127451811 0.0349875391 0
v -0.0150253158 0.0412521586 0
v -0.015298875 0.026468873 0
v -0.0153826056 0.0183027145 0
v -0.0186322071 0.0322423726 0
v -0.0219655409 0.038015876 0
v -0.0196678564 0.0234096814 0
v -0.0183322746 0.0153530464 0
v -0.0239531063 0.0285166409 0
v -0.028238358 0.0336236022 0
v -0.0234392378 0.0196382962 0
v -0.020724928 0.0119359847 0
v -0.0285462011 0.0239235461 0
v -0.0264984313 0.0152693186 0
v -0.0224878639 0.00815535244 0
v -0.0322719328 0.0186026506 0
v -0.0336531624 0.0282087997 0
v -0.0380454361 0.0219359845 0
v -0.0287524816 0.0104354853 0
v -0.0235675164 0.00412603142 0
v -0.0350170992 0.0127156209 0
v -0.041281715 0.0149957594 0
v -0.0301329028 0.00528368447 0
v -0.0239310823 -2.95591344E-05 0
v -0.0305977501 -2.95615191E-05 0
v -0.0366982855 0.00644134032 0
v -0.0372644141 -2.95615191E-05 0
v -0.0432636738 0.00759899383 0
v -0.0439310819 -2.95639038E-05 0
v -0.0366982855 0.00644134032 0
v -0.0432636738 0.00759899383 0
v -0.041281715 0.0149957594 0
v -0.0350170992 0.0127156209 0
v -0.0285462011 0.0239235461 0
v -0.0336531624 0.0282087997 0
v -0.028238358 0.0336236022 0
v -0.0239531063 0.0285166409 0
v 0.0186322127 0.0322423726 0
v 0.0219655465 0.0380158722 0
v 0.0282383598 0.0336236022 0
v 0.0239531081 0.0285166409 0
v 0.0322719328 0.0186026506 0
v 0.0380454361 0.0219359845 0
v 0.0412817188 0.0149957538 0
v 0.0432636738 0.00759899383 0
v 0.0366982855 0.00644134032 0
v 0.022487862 0.00815535802 0
v 0.0287524816 0.0104354899 0
v 0.0301329028 0.00528368447 0
v 0.0235675164 0.00412603142 0
v 0.00531324418 0.0301033445 0
v 0.00647089863 0.036668729 0
v 0.012745182 0.0349875391 0
v 0.0104650473 0.0287229214 0
vt 0.944444418 0.666666687
vt 0.944444418 1
vt 1 1
vt 1 0.666666687
vt 0.944444358 0.333333343
vt 1 0.333333343
vt 0.944444418 0
vt 1 0
vt 0.888888836 0.333333343
vt 0.888888836 0.666666687
vt 0.833333313 0.333333343
vt 0.833333373 0
vt 0.888888836 0
vt 0.777777791 0
vt 0.777777791 0.333333343
vt 0.722222269 0
vt 0.833333313 0.666666687
vt 0.722222209 0.333333343
vt 0.666666687 0
vt 0.777777791 0.666666687
vt 0.833333313 1
vt 0.777777791 1
vt 0.722222209 0.666666687
vt 0.722222209 1
vt 0.666666627 0.333333343
vt 0.611111164 0
vt 0.666666627 0.666666687
vt 0.611111164 0.333333343
vt 0.555555582 0
vt 0.611111164 0.666666687
vt 0.666666687 1
vt 0.611111164 1
vt 0.555555582 0.333333343
vt 0.555555582 0.666666687
vt 0.5 0
vt 0.555555582 1
vt 0.5 0.333333343
vt 0.444444448 0
vt 0.5 0.666666687
vt 0.5 1
vt 0.444444418 0.333333343
vt 0.388888896 0
vt 0.444444418 0.666666687
vt 0.444444448 1
vt 0.388888896 0.333333343
vt 0.333333313 0
vt 0.388888896 0.666666687
vt 0.388888896 1
vt 0.333333313 0.333333343
vt 0.277777761 0
vt 0.333333313 0.666666687
vt 0.333333343 1
vt 0.277777761 0.333333343
vt 0.222222209 0
vt 0.277777791 0.666666687
vt 0.277777791 1
vt 0.222222209 0.333333343
vt 0.166666657 0
vt 0.222222224 0.666666687
vt 0.166666657 0.333333343
vt 0.111111112 0
vt 0.166666672 0.666666687
vt 0.222222239 1
vt 0.166666687 1
vt 0.111111104 0.333333343
vt 0.055555556 0
vt 0.111111112 0.666666687
vt 0.111111119 1
vt 0.0555555522 0.333333343
vt 0 0
vt 0 0.333333313
vt 0.055555556 0.666666687
vt 0 0.666666627
vt 0.0555555597 1
vt 0 1
vt 0.055555556 0.666666687
vt 0.0555555597 1
vt 0.111111119 1
vt 0.111111112 0.666666687
vt 0.222222224 0.666666687
vt 0.222222239 1
vt 0.277777791 1
vt 0.277777791 0.666666687
vt 0.666666627 0.666666687
vt 0.666666687 1
vt 0.722222209 1
vt 0.722222209 0.666666687
vt 0.833333313 0.666666687
vt 0.833333313 1
vt 0.888888896 1
vt 0.944444418 1
vt 0.944444418 0.666666687
vt 0.888888836 0
vt 0.888888836 0.333333343
vt 0.944444358 0.333333343
vt 0.944444418 0
vt 0.555555582 0.333333343
vt 0.555555582 0.666666687
vt 0.611111164 0.666666687
vt 0.611111164 0.333333343
vn -0 0 1
vn -0 0 1
vn -0 0 1
vn -0 0 1
vn -0 0 1
vn -0 0 1
vn -0 0 1
vn -0 0 1
vn -0 0 1
vn -0 0 1
vn -0 0 1
vn -0 0 1
vn -0 0 1
vn -0 0 1
vn -0 0 1
vn -0 0 1
vn -0 0 1
vn -0 0 1
vn -0 0 1
vn -0 0 1
vn -0 0 1
vn -0 0 1
vn -0 0 1
vn -0 0 1
vn -0 0 1
vn -0 0 1
vn -0 0 1
vn -0 0 1
vn -0 0 1
vn -0 0 1
vn -0 0 1
vn -0 0 1
vn -0 0 1
vn -0 0 1
vn -0 0 1
vn -0 0 1
vn -0 0 1
vn -0 0 1
vn -0 0 1
vn -0 0 1
vn -0 0 1
vn -0 0 1
vn -0 0 1
vn -0 0 1
vn -0 0 1
vn -0 0 1
vn -0 0 1
vn -0 0 1
vn -0 0 1
vn -0 0 1
vn -0 0 1
vn -0 0 1
vn -0 0 1
vn -0 0 1
vn -0 0 1
vn -0 0 1
vn -0 0 1
vn -0 0 1
vn -0 0 1
vn -0 0 1
vn -0 0 1
vn -0 0 1
vn -0 0 1
vn -0 0 1
vn -0 0 1
vn -0 0 1
vn -0 0 1
vn -0 0 1
vn -0 0 1
vn -0 0 1
vn -0 0 1
vn -0 0 1
vn -0 0 1
vn -0 0 1
vn -0 0 1
vn -0 0 1
vn -0 0 1
vn -0 0 1
vn -0 0 1
vn -0 0 1
vn -0 0 1
vn -0 0 1
vn -0 0 1
vn -0 0 1
vn -0 0 1
vn -0 0 1
vn -0 0 1
vn -0 0 1
vn -0 0 1
vn -0 0 1
vn -0 0 1
vn -0 0 1
vn -0 0 1
vn -0 0 1
vn -0 0 1
vn -0 0 1
vn -0 0 1
vn -0 0 1
vn -0 0 1
vn -0 0 1
g 平面_0
f 3/3/3 2/2/2 1/1/1
f 4/4/4 3/3/3 1/1/1
f 4/4/4 1/1/1 5/5/5
f 6/6/6 4/4/4 5/5/5
f 6/6/6 5/5/5 7/7/7
f 8/8/8 6/6/6 7/7/7
f 5/5/5 1/1/1 9/9/9
f 1/1/1 10/10/10 9/9/9
f 9/9/9 10/10/10 11/11/11
f 9/9/9 11/11/11 12/12/12
f 13/13/13 9/9/9 12/12/12
f 12/12/12 11/11/11 14/14/14
f 11/11/11 15/15/15 14/14/14
f 14/14/14 15/15/15 16/16/16
f 10/10/10 17/17/17 11/11/11
f 11/11/11 17/17/17 15/15/15
f 15/15/15 18/18/18 16/16/16
f 16/16/16 18/18/18 19/19/19
f 17/17/17 20/20/20 15/15/15
f 15/15/15 20/20/20 18/18/18
f 17/17/17 21/21/21 20/20/20
f 21/21/21 22/22/22 20/20/20
f 20/20/20 22/22/22 23/23/23
f 20/20/20 23/23/23 18/18/18
f 22/22/22 24/24/24 23/23/23
f 18/18/18 25/25/25 19/19/19
f 18/18/18 23/23/23 25/25/25
f 19/19/19 25/25/25 26/26/26
f 23/23/23 27/27/27 25/25/25
f 25/25/25 28/28/28 26/26/26
f 25/25/25 27/27/27 28/28/28
f 26/26/26 28/28/28 29/29/29
f 27/27/27 30/30/30 28/28/28
f 27/27/27 31/31/31 30/30/30
f 31/31/31 32/32/32 30/30/30
f 28/28/28 33/33/33 29/29/29
f 30/30/30 32/32/32 34/34/34
f 29/29/29 33/33/33 35/35/35
f 32/32/32 36/36/36 34/34/34
f 33/33/33 37/37/37 35/35/35
f 33/33/33 34/34/34 37/37/37
f 35/35/35 37/37/37 38/38/38
f 34/34/34 36/36/36 39/39/39
f 34/34/34 39/39/39 37/37/37
f 36/36/36 40/40/40 39/39/39
f 37/37/37 41/41/41 38/38/38
f 37/37/37 39/39/39 41/41/41
f 38/38/38 41/41/41 42/42/42
f 39/39/39 40/40/40 43/43/43
f 39/39/39 43/43/43 41/41/41
f 40/40/40 44/44/44 43/43/43
f 41/41/41 45/45/45 42/42/42
f 41/41/41 43/43/43 45/45/45
f 42/42/42 45/45/45 46/46/46
f 43/43/43 44/44/44 47/47/47
f 43/43/43 47/47/47 45/45/45
f 44/44/44 48/48/48 47/47/47
f 45/45/45 49/49/49 46/46/46
f 45/45/45 47/47/47 49/49/49
f 46/46/46 49/49/49 50/50/50
f 47/47/47 48/48/48 51/51/51
f 47/47/47 51/51/51 49/49/49
f 48/48/48 52/52/52 51/51/51
f 49/49/49 53/53/53 50/50/50
f 49/49/49 51/51/51 53/53/53
f 50/50/50 53/53/53 54/54/54
f 51/51/51 52/52/52 55/55/55
f 51/51/51 55/55/55 53/53/53
f 52/52/52 56/56/56 55/55/55
f 53/53/53 57/57/57 54/54/54
f 53/53/53 55/55/55 57/57/57
f 54/54/54 57/57/57 58/58/58
f 55/55/55 59/59/59 57/57/57
f 57/57/57 60/60/60 58/58/58
f 57/57/57 59/59/59 60/60/60
f 58/58/58 60/60/60 61/61/61
f 59/59/59 62/62/62 60/60/60
f 59/59/59 63/63/63 62/62/62
f 63/63/63 64/64/64 62/62/62
f 60/60/60 65/65/65 61/61/61
f 60/60/60 62/62/62 65/65/65
f 61/61/61 65/65/65 66/66/66
f 62/62/62 64/64/64 67/67/67
f 62/62/62 67/67/67 65/65/65
f 64/64/64 68/68/68 67/67/67
f 65/65/65 69/69/69 66/66/66
f 65/65/65 67/67/67 69/69/69
f 66/66/66 69/69/69 70/70/70
f 69/69/69 71/71/71 70/70/70
f 67/67/67 72/72/72 69/69/69
f 69/69/69 72/72/72 71/71/71
f 72/72/72 73/73/73 71/71/71
f 72/72/72 74/74/74 73/73/73
f 74/74/74 75/75/75 73/73/73
f 78/78/78 77/77/77 76/76/76
f 79/79/79 78/78/78 76/76/76
f 82/82/82 81/81/81 80/80/80
f 83/83/83 82/82/82 80/80/80
f 86/86/86 85/85/85 84/84/84
f 87/87/87 86/86/86 84/84/84
f 90/90/90 89/89/89 88/88/88
f 10/10/10 90/90/90 88/88/88
f 91/91/91 90/90/90 10/10/10
f 92/92/92 91/91/91 10/10/10
f 95/95/95 94/94/94 93/93/93
f 96/96/96 95/95/95 93/93/93
f 99/99/99 98/98/98 97/97/97
f 100/100/100 99/99/99 97/97/97
