g stone_03
v -0.0176653638 -0.065412581 -0.308466822
v -0.00307185668 -0.00254553393 -0.524570823
v -0.0781809613 -0.0856136158 -0.0585234463
v -0.00307185668 -0.00254553393 -0.524570823
v -0.00327565707 0.064933911 -0.220189303
v -0.0455926731 0.0328857489 -0.267823279
v -0.00307185668 -0.00254553393 -0.524570823
v 0.0597670898 -0.0128283538 -0.227414638
v 0.0470242389 0.0425040796 -0.193906739
v 0.0438237377 -0.0740001798 -0.132453442
v -0.00307185668 -0.00254553393 -0.524570823
v -0.0176653638 -0.065412581 -0.308466822
v -0.00307185668 -0.00254553393 -0.524570823
v 0.0438237377 -0.0740001798 -0.132453442
v 0.0597670898 -0.0128283538 -0.227414638
v -0.00341857364 0.112254292 -0.0067398306
v -0.0525645465 0.121961363 0.106250905
v -0.0749181509 0.0573217683 -0.0907513872
v -0.062664412 -0.00599146821 -0.226907134
v -0.00307185668 -0.00254553393 -0.524570823
v -0.0455926731 0.0328857489 -0.267823279
v -0.114787214 -0.0889131948 0.0681257546
v -0.11618939 -0.00344876433 -0.0415229574
v -0.00504801469 -0.111987308 -0.0347831286
v -0.0738235489 -0.0066367439 -0.171167493
v -0.0781809613 -0.0856136158 -0.0585234463
v -0.00307185668 -0.00254553393 -0.524570823
v -0.062664412 -0.00599146821 -0.226907134
v 0.0597670898 -0.0128283538 -0.227414638
v 0.0438237377 -0.0740001798 -0.132453442
v 0.0604786426 -0.0956947803 7.91624188E-09
v 0.103169121 -0.00311474013 5.12227416E-09
v -0.11618939 -0.00344876433 -0.0415229574
v -0.0738235489 -0.0066367439 -0.171167493
v -0.062664412 -0.00599146821 -0.226907134
v -0.0455926731 0.0328857489 -0.267823279
v -0.0749181509 0.0573217683 -0.0907513872
v 0.0604786426 -0.0956947803 7.91624188E-09
v 0.0438237377 -0.0740001798 -0.132453442
v -0.0176653638 -0.065412581 -0.308466822
v -0.00504801469 -0.111987308 -0.0347831286
v 0.0470242389 0.0425040796 -0.193906739
v 0.08429759 0.0760226548 0.0521195829
v -0.00341857364 0.112254292 -0.0067398306
v -0.00332551869 0.0814433396 -0.145719767
v 0.0597670898 -0.0128283538 -0.227414638
v 0.103169121 -0.00311474013 5.12227416E-09
v 0.08429759 0.0760226548 0.0521195829
v 0.0470242389 0.0425040796 -0.193906739
v -0.0749181509 0.0573217683 -0.0907513872
v -0.0455926731 0.0328857489 -0.267823279
v -0.00327565707 0.064933911 -0.220189303
v -0.00332551869 0.0814433396 -0.145719767
v -0.00341857364 0.112254292 -0.0067398306
v -0.11618939 -0.00344876433 -0.0415229574
v -0.114787214 -0.0889131948 0.0681257546
v -0.0781809613 -0.0856136158 -0.0585234463
v -0.0738235489 -0.0066367439 -0.171167493
v -0.00504801469 -0.111987308 -0.0347831286
v -0.0176653638 -0.065412581 -0.308466822
v -0.0781809613 -0.0856136158 -0.0585234463
v -0.114787214 -0.0889131948 0.0681257546
v -0.00307185668 -0.00254553393 -0.524570823
v 0.0470242389 0.0425040796 -0.193906739
v -0.00332551869 0.0814433396 -0.145719767
v -0.00327565707 0.064933911 -0.220189303
vt 0.528808594 0.536621094
vt 0.594238281 0.535644531
vt 0.454589844 0.520019531
vt 0.154785156 0.765136719
vt 0.244628906 0.784667969
vt 0.231933594 0.768066406
vt 0.277832031 0.638183594
vt 0.363769531 0.664550781
vt 0.376464844 0.649902344
vt 0.449707031 0.213378906
vt 0.331542969 0.219238281
vt 0.396972656 0.229980469
vt 0.375488281 0.103027344
vt 0.493652344 0.0981445312
vt 0.462402344 0.0854492188
vt 0.770996094 0.804199219
vt 0.806152344 0.796386719
vt 0.748535156 0.774902344
vt 0.752441406 0.417480469
vt 0.838378906 0.441894531
vt 0.767089844 0.410644531
vt 0.619628906 0.951660156
vt 0.657714844 0.960449219
vt 0.634277344 0.925292969
vt 0.431152344 0.425292969
vt 0.393066406 0.438964844
vt 0.532714844 0.455566406
vt 0.446777344 0.430175781
vt 0.835449219 0.106933594
vt 0.865722656 0.119628906
vt 0.904785156 0.116699219
vt 0.900878906 0.0932617188
vt 0.438964844 0.331542969
vt 0.476074219 0.345214844
vt 0.492675781 0.350097656
vt 0.508300781 0.343261719
vt 0.459472656 0.321777344
vt 0.916503906 0.229003906
vt 0.876464844 0.231933594
vt 0.823730469 0.247558594
vt 0.905761719 0.249511719
vt 0.715332031 0.559082031
vt 0.788574219 0.567871094
vt 0.771972656 0.545410156
vt 0.729980469 0.546386719
vt 0.800292969 0.696777344
vt 0.866699219 0.711425781
vt 0.887207031 0.690917969
vt 0.813964844 0.682128906
vt 0.581542969 0.767089844
vt 0.527832031 0.766113281
vt 0.540527344 0.782714844
vt 0.562011719 0.787597656
vt 0.603027344 0.796386719
vt 0.162597656 0.407714844
vt 0.125488281 0.423339844
vt 0.162597656 0.434082031
vt 0.200683594 0.420410156
vt 0.699707031 0.318847656
vt 0.618652344 0.316894531
vt 0.690917969 0.334472656
vt 0.726074219 0.344238281
vt 0.384277344 0.596191406
vt 0.483886719 0.607910156
vt 0.498535156 0.595214844
vt 0.477050781 0.595214844
vn -0.748220384 -0.621783853 -0.231411085
vn -0.748220384 -0.621783853 -0.231411085
vn -0.748220384 -0.621783853 -0.231411085
vn -0.443870723 0.874787152 -0.194231912
vn -0.443870723 0.874787152 -0.194231912
vn -0.443870723 0.874787152 -0.194231912
vn 0.927306175 0.325484753 -0.184832275
vn 0.927306175 0.325484753 -0.184832275
vn 0.927306175 0.325484753 -0.184832275
vn 0.490749449 -0.844948888 -0.212664679
vn 0.490749449 -0.844948888 -0.212664679
vn 0.490749449 -0.844948888 -0.212664679
vn 0.832871795 -0.518328786 -0.194061846
vn 0.832871795 -0.518328786 -0.194061846
vn 0.832871795 -0.518328786 -0.194061846
vn -0.391532034 0.886543274 -0.246462271
vn -0.391532034 0.886543274 -0.246462271
vn -0.391532034 0.886543274 -0.246462271
vn -0.956735909 0.221232072 -0.188978329
vn -0.956735909 0.221232072 -0.188978329
vn -0.956735909 0.221232072 -0.188978329
vn 0.593682349 0.638343751 0.48995769
vn 0.593682349 0.638343751 0.48995769
vn 0.593682349 0.638343751 0.48995769
vn -0.955182791 -0.223741308 -0.193818703
vn -0.955182791 -0.223741308 -0.193818703
vn -0.955182791 -0.223741308 -0.193818703
vn -0.955182791 -0.223741308 -0.193818703
vn 0.884490311 -0.437466145 -0.16217345
vn 0.884490311 -0.437466145 -0.16217345
vn 0.884490311 -0.437466145 -0.16217345
vn 0.884490311 -0.437466145 -0.16217345
vn -0.929726422 0.281939507 -0.23689428
vn -0.929726422 0.281939507 -0.23689428
vn -0.929726422 0.281939507 -0.23689428
vn -0.929726422 0.281939507 -0.23689428
vn -0.929726422 0.281939507 -0.23689428
vn 0.354057997 -0.917778671 -0.179792032
vn 0.354057997 -0.917778671 -0.179792032
vn 0.354057997 -0.917778671 -0.179792032
vn 0.354057997 -0.917778671 -0.179792032
vn 0.480771661 0.856129289 -0.18947646
vn 0.480771661 0.856129289 -0.18947646
vn 0.480771661 0.856129289 -0.18947646
vn 0.480771661 0.856129289 -0.18947646
vn 0.922688961 0.336620867 -0.187966689
vn 0.922688961 0.336620867 -0.187966689
vn 0.922688961 0.336620867 -0.187966689
vn 0.922688961 0.336620867 -0.187966689
vn -0.443870574 0.874787331 -0.194232002
vn -0.443870574 0.874787331 -0.194232002
vn -0.443870574 0.874787331 -0.194232002
vn -0.443870574 0.874787331 -0.194232002
vn -0.443870574 0.874787331 -0.194232002
vn -0.892967105 -0.356112629 -0.275306076
vn -0.892967105 -0.356112629 -0.275306076
vn -0.892967105 -0.356112629 -0.275306076
vn -0.892967105 -0.356112629 -0.275306076
vn -0.296878576 -0.945245564 -0.13555032
vn -0.296878576 -0.945245564 -0.13555032
vn -0.296878576 -0.945245564 -0.13555032
vn -0.296878576 -0.945245564 -0.13555032
vn 0.48077175 0.856129169 -0.189476475
vn 0.48077175 0.856129169 -0.189476475
vn 0.48077175 0.856129169 -0.189476475
vn 0.48077175 0.856129169 -0.189476475
g stone_03_0
f 3/3/3 2/2/2 1/1/1
f 6/6/6 5/5/5 4/4/4
f 9/9/9 8/8/8 7/7/7
f 12/12/12 11/11/11 10/10/10
f 15/15/15 14/14/14 13/13/13
f 18/18/18 17/17/17 16/16/16
f 21/21/21 20/20/20 19/19/19
f 24/24/24 23/23/23 22/22/22
f 27/27/27 26/26/26 25/25/25
f 28/28/28 27/27/27 25/25/25
f 31/31/31 30/30/30 29/29/29
f 32/32/32 31/31/31 29/29/29
f 35/35/35 34/34/34 33/33/33
f 33/33/33 36/36/36 35/35/35
f 33/33/33 37/37/37 36/36/36
f 40/40/40 39/39/39 38/38/38
f 41/41/41 40/40/40 38/38/38
f 44/44/44 43/43/43 42/42/42
f 45/45/45 44/44/44 42/42/42
f 48/48/48 47/47/47 46/46/46
f 49/49/49 48/48/48 46/46/46
f 52/52/52 51/51/51 50/50/50
f 50/50/50 53/53/53 52/52/52
f 50/50/50 54/54/54 53/53/53
f 57/57/57 56/56/56 55/55/55
f 58/58/58 57/57/57 55/55/55
f 61/61/61 60/60/60 59/59/59
f 62/62/62 61/61/61 59/59/59
f 65/65/65 64/64/64 63/63/63
f 66/66/66 65/65/65 63/63/63
