g Cone001
v 0.122399598 0.456801325 0
v 0.0707734376 0.523882031 0.129892945
v 4.84466547E-08 0.472915471 0
v 0.188790947 0.506127775 0.12989296
v 0.236457855 0.409556925 0
v 0.13315171 0.529280841 0.244378
v 0.298765957 0.454074562 0.12989296
v 0.334401786 0.334401786 0
v 0.240060389 0.511427641 0.244377956
v 0.187134802 0.48997739 0.343455106
v 0.393203378 0.371269643 0.129892945
v 0.409556836 0.236457855 0
v 0.339683294 0.459083945 0.244377986
v 0.277803391 0.47353673 0.343455106
v 0.232722804 0.411743611 0.427124202
v 0.465668023 0.263356358 0.129892945
v 0.456801325 0.122399598 0
v 0.425231457 0.375817716 0.244377956
v 0.362293154 0.425335407 0.343455017
v 0.303616166 0.398031175 0.427124202
v 0.269915551 0.304215014 0.495385408
v 0.319094479 0.294216782 0.495385408
v 0.369678438 0.357827634 0.427124113
v 0.364922047 0.264904141 0.495385408
v 0.511220872 0.137688681 0.129892945
v 0.472915471 0 0
v 0.490874827 0.26730305 0.244377956
v 0.434845895 0.348658323 0.343455017
v 0.426407248 0.293872803 0.427124172
v 0.40427509 0.218274221 0.495385408
v 0.526758194 0.00283054425 0.129892901
v 0.456801325 -0.122399867 0
v 0.532140136 0.140934959 0.244377956
v 0.490517974 0.248730838 0.343455106
v 0.469936848 0.210525706 0.427124202
v 0.434471697 0.157504961 0.495385408
v 0.511220992 -0.132027939 0.129892945
v 0.409556717 -0.236458018 0
v 0.546214938 0.00532515952 0.244377956
v 0.525514781 0.132362515 0.343455106
v 0.497300804 0.113465652 0.427124172
v 0.453453958 0.0867376328 0.495385408
v 0.465667844 -0.257695526 0.129892915
v 0.334401518 -0.334401965 0
v 0.532139957 -0.130284846 0.244377956
v 0.537451446 0.00748423301 0.343455076
v 0.506633818 0.00930747483 0.427124113
v 0.459928453 0.0107949805 0.495385349
v 0.393203169 -0.365608841 0.12989296
v 0.236457556 -0.409556925 0
v 0.490874827 -0.256652921 0.244377956
v 0.525514662 -0.117394507 0.343455017
v 0.497300804 -0.0948508978 0.427124202
v 0.453453958 -0.0651478618 0.495385408
v 0.29876563 -0.448413521 0.129892945
v 0.122399211 -0.456801325 0
v 0.425231159 -0.365167588 0.244377911
v 0.490517765 -0.233762562 0.343455017
v 0.469936758 -0.191910833 0.427124202
v 0.434471577 -0.135915086 0.495385408
v 0.188790798 -0.500466704 0.12989296
v -2.42233284E-07 -0.472915471 0
v 0.339683056 -0.448433757 0.244377881
v 0.434845984 -0.333690137 0.343455106
v 0.426407158 -0.275258005 0.427124262
v 0.40427497 -0.196684256 0.495385408
v 0.0707732439 -0.518220961 0.129892915
v -0.122399695 -0.456801176 0
v 0.240060106 -0.500777066 0.244377956
v 0.362293035 -0.410367161 0.343455017
v 0.369678169 -0.339212596 0.427124202
v 0.364921957 -0.243314117 0.495385408
v -0.0472443067 -0.500466585 0.12989296
v -0.236457855 -0.409556687 0
v 0.133151457 -0.518630385 0.244377956
v 0.277803183 -0.458568424 0.343455106
v 0.303616107 -0.379416138 0.427124202
v 0.319094479 -0.272626907 0.495385408
v -0.157219052 -0.448413283 0.129892915
v -0.334401906 -0.334401548 0
v 0.0262428746 -0.500777006 0.244377986
v 0.187134653 -0.475008845 0.343455076
v 0.232722655 -0.393128633 0.427124113
v 0.269915491 -0.2826249 0.495385408
v -0.251656741 -0.365608394 0.129892915
v -0.409556925 -0.236457542 0
v -0.0733800679 -0.448433518 0.244377941
v 0.0964660123 -0.458568215 0.343455017
v 0.161829174 -0.3794159 0.427124202
v 0.220736474 -0.272626817 0.495385408
v -0.324121118 -0.257695049 0.129892915
v -0.456801325 -0.122399382 0
v -0.158928305 -0.365167141 0.244377956
v 0.011976352 -0.410366893 0.343455106
v 0.0957668796 -0.339212418 0.427124023
v 0.174909085 -0.243314043 0.495385498
v -0.369674087 -0.132027328 0.129892945
v -0.472915471 1.45339968E-07 0
v -0.224571675 -0.256652385 0.244377986
v -0.0605766326 -0.333689749 0.343455106
v 0.0390380248 -0.275257677 0.427124113
v 0.135556012 -0.196684122 0.495385349
v -0.385211378 0.00283068954 0.12989296
v -0.456801236 0.122399651 0
v -0.265836835 -0.130284294 0.244377956
v -0.116248429 -0.233762085 0.343455076
v -0.00449148938 -0.19191052 0.427124202
v 0.10535951 -0.135914832 0.495385498
v -0.369674027 0.137688681 0.129892901
v -0.409556776 0.236457944 0
v -0.279911548 0.00532549853 0.244377986
v -0.151245251 -0.117393948 0.343454987
v -0.031855274 -0.0948504582 0.427124202
v 0.0863771364 -0.0651474744 0.495385408
v -0.324120969 0.263356596 0.129892945
v -0.334401667 0.334401786 0
v -0.265836716 0.140935436 0.244377956
v -0.163181871 0.00748432986 0.343455076
v -0.0411885232 0.00930766854 0.427124202
v 0.0799025819 0.0107952226 0.495385408
v -0.251656473 0.371269822 0.129892945
v -0.236457676 0.409556925 0
v -0.224571481 0.267303169 0.244377986
v -0.151245072 0.132362753 0.343455136
v -0.0318552256 0.113465793 0.427124113
v 0.0863771886 0.0867378265 0.495385498
v -0.157218844 0.454074562 0.12989296
v -0.122399434 0.456801325 0
v -0.158928037 0.375817806 0.244377986
v -0.116248257 0.248731032 0.343455106
v -0.00449139252 0.210525706 0.427124113
v 0.10535951 0.157505065 0.495385349
v -0.0472440645 0.506127477 0.129892945
v 4.84466547E-08 0.472915471 0
v 0.0707734376 0.523882031 0.129892945
v -0.0733798742 0.459084243 0.244377986
v -0.0605764389 0.348658413 0.343455076
v 0.0390382186 0.293873012 0.427124202
v 0.135556161 0.218274221 0.495385408
v 0.0262430683 0.51142776 0.244378
v 0.13315171 0.529280841 0.244378
v 0.0119764972 0.425335526 0.343455076
v 0.0957670733 0.357827634 0.427124113
v 0.174909085 0.264904141 0.495385408
v 0.096466206 0.47353673 0.343455106
v 0.187134802 0.48997739 0.343455106
v 0.161829323 0.398030877 0.427124172
v 0.220736578 0.29421702 0.495385408
v 0.232722804 0.411743611 0.427124202
v 0.269915551 0.304215014 0.495385408
vt 0.958333313 0
vt 1 0.199999988
vt 1 0
vt 0.958333313 0.199999988
vt 0.916666687 0
vt 1 0.399999976
vt 0.916666687 0.199999988
vt 0.875 0
vt 0.958333313 0.399999976
vt 1 0.600000024
vt 0.875 0.199999988
vt 0.833333373 0
vt 0.916666687 0.399999976
vt 0.958333373 0.600000024
vt 1 0.799999952
vt 0.833333373 0.199999988
vt 0.791666627 0
vt 0.875 0.399999976
vt 0.916666687 0.600000024
vt 0.958333313 0.799999952
vt 1 1
vt 0.958333313 1
vt 0.916666687 0.799999952
vt 0.916666687 1
vt 0.791666687 0.199999988
vt 0.75 0
vt 0.833333373 0.399999976
vt 0.875 0.600000024
vt 0.875 0.799999952
vt 0.875 1
vt 0.75 0.199999988
vt 0.708333194 0
vt 0.791666687 0.399999976
vt 0.833333373 0.600000024
vt 0.833333373 0.799999952
vt 0.833333373 1
vt 0.708333194 0.199999988
vt 0.666666567 0
vt 0.75 0.399999976
vt 0.791666627 0.600000024
vt 0.791666627 0.799999952
vt 0.791666627 1
vt 0.666666567 0.199999988
vt 0.624999881 0
vt 0.708333194 0.399999976
vt 0.75 0.600000024
vt 0.75 0.799999952
vt 0.75 1
vt 0.624999881 0.199999988
vt 0.583333254 0
vt 0.666666567 0.399999976
vt 0.708333194 0.600000024
vt 0.708333194 0.799999952
vt 0.708333254 1
vt 0.583333254 0.199999988
vt 0.541666567 0
vt 0.624999881 0.399999976
vt 0.666666567 0.600000024
vt 0.666666567 0.799999952
vt 0.666666567 1
vt 0.541666567 0.199999988
vt 0.49999994 0
vt 0.583333254 0.399999976
vt 0.624999881 0.600000024
vt 0.624999881 0.799999952
vt 0.624999881 1
vt 0.49999994 0.199999988
vt 0.458333284 0
vt 0.541666567 0.399999976
vt 0.583333254 0.600000024
vt 0.583333254 0.799999952
vt 0.583333254 1
vt 0.458333284 0.199999988
vt 0.416666627 0
vt 0.49999994 0.399999976
vt 0.541666567 0.600000024
vt 0.541666567 0.799999952
vt 0.541666567 1
vt 0.416666627 0.199999988
vt 0.37499994 0
vt 0.458333284 0.399999976
vt 0.49999994 0.600000024
vt 0.49999994 0.799999952
vt 0.49999994 1
vt 0.374999911 0.199999988
vt 0.333333254 0
vt 0.416666627 0.399999976
vt 0.458333284 0.600000024
vt 0.458333284 0.799999952
vt 0.458333284 1
vt 0.333333254 0.199999988
vt 0.291666597 0
vt 0.374999911 0.399999976
vt 0.416666627 0.600000024
vt 0.416666627 0.799999952
vt 0.416666627 1
vt 0.291666627 0.199999988
vt 0.24999994 0
vt 0.333333254 0.399999976
vt 0.374999911 0.600000024
vt 0.37499994 0.799999952
vt 0.37499994 1
vt 0.24999994 0.199999988
vt 0.208333284 0
vt 0.291666627 0.399999976
vt 0.333333254 0.600000024
vt 0.333333284 0.799999952
vt 0.333333284 1
vt 0.208333284 0.199999988
vt 0.166666627 0
vt 0.24999994 0.399999976
vt 0.291666597 0.600000024
vt 0.291666627 0.799999952
vt 0.291666627 1
vt 0.166666627 0.199999988
vt 0.12499997 0
vt 0.208333284 0.399999976
vt 0.24999994 0.600000024
vt 0.24999994 0.799999952
vt 0.24999994 1
vt 0.12499997 0.199999988
vt 0.0833333135 0
vt 0.166666627 0.399999976
vt 0.208333284 0.600000024
vt 0.208333284 0.799999952
vt 0.208333313 1
vt 0.0833333135 0.199999988
vt 0.0416666567 0
vt 0.12499997 0.399999976
vt 0.166666627 0.600000024
vt 0.166666627 0.799999952
vt 0.166666627 1
vt 0.0416666567 0.199999988
vt 0 0
vt 0 0.199999988
vt 0.0833333135 0.399999976
vt 0.12499997 0.600000024
vt 0.12499997 0.799999952
vt 0.12499997 1
vt 0.0416666567 0.399999976
vt 0 0.399999976
vt 0.0833333135 0.600000024
vt 0.0833333135 0.799999952
vt 0.0833333135 1
vt 0.0416666567 0.600000024
vt 0 0.600000024
vt 0.0416666567 0.799999952
vt 0.0416666567 1
vt 0 0.799999952
vt 0 1
vn 0.220191061 0.870714486 -0.439740926
vn -0.00731122075 0.980967224 -0.194035724
vn -0.0411357395 0.940138042 -0.338302076
vn 0.270118803 0.913237333 -0.305013895
vn 0.448541373 0.757488787 -0.474364191
vn 0.00336003373 0.986241817 0.165275067
vn 0.509286582 0.786025226 -0.350416303
vn 0.641453385 0.609928489 -0.465322345
vn 0.313479602 0.948970735 0.0344253778
vn 0.0136040729 0.852328777 0.522829294
vn 0.701194227 0.621882379 -0.348696053
vn 0.791453302 0.429418147 -0.43497321
vn 0.579744101 0.813625336 -0.0437110215
vn 0.314627767 0.854327559 0.413683295
vn 0.0128675168 0.649898767 0.759911895
vn 0.84251523 0.43095839 -0.323176235
vn 0.887387216 0.221632347 -0.404256284
vn 0.775698423 0.627050817 -0.0714101121
vn 0.581674635 0.747839272 0.319985986
vn 0.268278927 0.668726325 0.693420172
vn 0.022269655 0.540269792 0.841197133
vn 0.256544799 0.555911183 0.790662706
vn 0.507666707 0.603222728 0.615139723
vn 0.477341026 0.502396405 0.720932305
vn 0.929536939 0.220675766 -0.29540351
vn 0.921123207 -0.00150432193 -0.38926816
vn 0.904273808 0.421491295 -0.0680739507
vn 0.774860501 0.57746762 0.257142693
vn 0.69040823 0.47766161 0.543300807
vn 0.645206094 0.397676975 0.65235126
vn 0.959645212 -8.62810339E-05 -0.281213731
vn 0.890021265 -0.225307286 -0.39635697
vn 0.975948572 0.211023867 -0.0547116399
vn 0.894977689 0.385382295 0.224712044
vn 0.808725834 0.324266165 0.49072814
vn 0.752611041 0.269350797 0.600854993
vn 0.932045817 -0.221511751 -0.286746025
vn 0.796421468 -0.435160279 -0.419938505
vn 0.998960018 3.64497027E-05 -0.0455946289
vn 0.958106756 0.191544145 0.212937519
vn 0.872304976 0.162716076 0.461093932
vn 0.809508264 0.135017261 0.571372628
vn 0.847262263 -0.433800608 -0.306535184
vn 0.647659123 -0.61898458 -0.444292307
vn 0.976403654 -0.211068362 -0.045674555
vn 0.977104127 0.000156925496 0.212761596
vn 0.891319573 0.000214062879 0.453375399
vn 0.826390147 0.000868119067 0.563097239
vn 0.707223952 -0.627833009 -0.32505402
vn 0.453969538 -0.770144582 -0.448094994
vn 0.90524143 -0.421928257 -0.0501457937
vn 0.956469417 -0.190858766 0.220769346
vn 0.869584799 -0.161729723 0.466546685
vn 0.807248235 -0.133005634 0.575030148
vn 0.514799058 -0.795126557 -0.320555419
vn 0.222723752 -0.885359049 -0.408085018
vn 0.776918054 -0.627990127 -0.0450202823
vn 0.891760647 -0.383496404 0.240194604
vn 0.803455353 -0.321546197 0.501066446
vn 0.748057246 -0.266308874 0.60785687
vn 0.273287356 -0.923396945 -0.26954037
vn -0.0419807434 -0.952659309 -0.301127464
vn 0.580500901 -0.814198434 -0.00998647418
vn 0.770239174 -0.573240519 0.27951172
vn 0.683213949 -0.471918106 0.557236195
vn 0.638752937 -0.392537892 0.661746681
vn -0.00642347522 -0.987932861 -0.154749259
vn -0.321472168 -0.939701557 -0.116689779
vn 0.313616931 -0.946760237 0.0727291927
vn 0.57640779 -0.739745617 0.347175002
vn 0.50019908 -0.593468368 0.630552351
vn 0.470463842 -0.494308263 0.730974078
vn -0.29022029 -0.956764162 0.0193492305
vn -0.563145101 -0.818625212 0.112785168
vn 0.00452387054 -0.979101419 0.203322172
vn 0.310735703 -0.841471195 0.44200632
vn 0.26325357 -0.655505657 0.707820475
vn 0.251801759 -0.545398712 0.799459875
vn -0.525825083 -0.821834207 0.219309032
vn -0.718523026 -0.618329287 0.318423599
vn -0.283633679 -0.889502704 0.358241379
vn 0.0136699565 -0.83637917 0.547980905
vn 0.0124136908 -0.636074126 0.771528125
vn 0.0214605536 -0.529648721 0.847945631
vn -0.678082228 -0.617437482 0.398717284
vn -0.793822348 -0.399598658 0.458439767
vn -0.492808461 -0.710860074 0.501814425
vn -0.245514169 -0.726306736 0.642029107
vn -0.199751839 -0.548542559 0.811911404
vn -0.173550129 -0.460049033 0.870766997
vn -0.752888739 -0.39679262 0.525084853
vn -0.823335409 -0.194060996 0.53334707
vn -0.611665368 -0.506156743 0.608005583
vn -0.422980398 -0.563493669 0.70962137
vn -0.348472863 -0.430928618 0.832386434
vn -0.312639236 -0.365573436 0.876705647
vn -0.781504035 -0.191030473 0.593935072
vn -0.831879199 -0.00110116065 0.554955721
vn -0.667431951 -0.317261219 0.673706055
vn -0.52497685 -0.398809195 0.751897931
vn -0.441215903 -0.311644703 0.841549695
vn -0.401743054 -0.267374307 0.875850141
vn -0.789529562 0.000286316324 0.61371243
vn -0.827173233 0.192679629 0.527881503
vn -0.690170884 -0.15170905 0.707565129
vn -0.577828944 -0.251746029 0.776361823
vn -0.494803786 -0.200722516 0.845505655
vn -0.454678565 -0.173677534 0.873557925
vn -0.785366058 0.192538112 0.588327408
vn -0.800568402 0.40048337 0.445761353
vn -0.697118759 0.000204966171 0.716955602
vn -0.60258019 -0.121373512 0.788774788
vn -0.522422254 -0.0980682224 0.847028792
vn -0.482544065 -0.0852053389 0.871717393
vn -0.75962919 0.400780708 0.512189746
vn -0.725487947 0.621530354 0.295579463
vn -0.693424225 0.152860239 0.704128265
vn -0.610535741 0.00014432882 0.791988671
vn -0.531489015 0.000102397098 0.84706521
vn -0.491658568 0.000315950398 0.870787978
vn -0.685188532 0.623717308 0.376156062
vn -0.566336036 0.820396543 0.0788224787
vn -0.673656046 0.320716798 0.665829003
vn -0.605108857 0.122198552 0.786708951
vn -0.524312735 0.0986473337 0.845792413
vn -0.483992428 0.086112164 0.870824933
vn -0.530300856 0.826959908 0.186864153
vn -0.320384711 0.934317708 -0.156218037
vn -0.619758785 0.513338506 0.593618274
vn -0.582763135 0.254299819 0.771828055
vn -0.498451769 0.202489555 0.842937589
vn -0.457450181 0.17544803 0.871755242
vn -0.291592211 0.956347823 -0.0193081126
vn -0.0411357395 0.940138042 -0.338302076
vn -0.00731122075 0.980967224 -0.194035724
vn -0.500296414 0.721611261 0.47851944
vn -0.531785429 0.40455541 0.744002163
vn -0.446202517 0.315586627 0.837441564
vn -0.405480951 0.270703673 0.873100579
vn -0.28796488 0.900507927 0.325824618
vn 0.00336003373 0.986241817 0.165275067
vn -0.430136144 0.573841989 0.696913481
vn -0.353758931 0.43814832 0.826365888
vn -0.31652239 0.371228933 0.872927606
vn -0.250242263 0.741104543 0.623011172
vn 0.0136040729 0.852328777 0.522829294
vn -0.203344107 0.559663355 0.803385496
vn -0.176043168 0.468514353 0.865738451
vn 0.0128675168 0.649898767 0.759911895
vn 0.022269655 0.540269792 0.841197133
g Cone001_0
f 3/3/3 2/2/2 1/1/1
f 2/2/2 4/4/4 1/1/1
f 1/1/1 4/4/4 5/5/5
f 2/2/2 6/6/6 4/4/4
f 4/4/4 7/7/7 5/5/5
f 5/5/5 7/7/7 8/8/8
f 6/6/6 9/9/9 4/4/4
f 4/4/4 9/9/9 7/7/7
f 6/6/6 10/10/10 9/9/9
f 7/7/7 11/11/11 8/8/8
f 8/8/8 11/11/11 12/12/12
f 9/9/9 13/13/13 7/7/7
f 7/7/7 13/13/13 11/11/11
f 10/10/10 14/14/14 9/9/9
f 9/9/9 14/14/14 13/13/13
f 10/10/10 15/15/15 14/14/14
f 11/11/11 16/16/16 12/12/12
f 12/12/12 16/16/16 17/17/17
f 13/13/13 18/18/18 11/11/11
f 11/11/11 18/18/18 16/16/16
f 14/14/14 19/19/19 13/13/13
f 13/13/13 19/19/19 18/18/18
f 15/15/15 20/20/20 14/14/14
f 14/14/14 20/20/20 19/19/19
f 15/15/15 21/21/21 20/20/20
f 21/21/21 22/22/22 20/20/20
f 20/20/20 22/22/22 23/23/23
f 20/20/20 23/23/23 19/19/19
f 22/22/22 24/24/24 23/23/23
f 16/16/16 25/25/25 17/17/17
f 17/17/17 25/25/25 26/26/26
f 18/18/18 27/27/27 16/16/16
f 16/16/16 27/27/27 25/25/25
f 19/19/19 28/28/28 18/18/18
f 19/19/19 23/23/23 28/28/28
f 18/18/18 28/28/28 27/27/27
f 23/23/23 24/24/24 29/29/29
f 23/23/23 29/29/29 28/28/28
f 24/24/24 30/30/30 29/29/29
f 25/25/25 31/31/31 26/26/26
f 26/26/26 31/31/31 32/32/32
f 27/27/27 33/33/33 25/25/25
f 25/25/25 33/33/33 31/31/31
f 28/28/28 34/34/34 27/27/27
f 28/28/28 29/29/29 34/34/34
f 27/27/27 34/34/34 33/33/33
f 29/29/29 30/30/30 35/35/35
f 29/29/29 35/35/35 34/34/34
f 30/30/30 36/36/36 35/35/35
f 31/31/31 37/37/37 32/32/32
f 32/32/32 37/37/37 38/38/38
f 33/33/33 39/39/39 31/31/31
f 31/31/31 39/39/39 37/37/37
f 34/34/34 40/40/40 33/33/33
f 34/34/34 35/35/35 40/40/40
f 33/33/33 40/40/40 39/39/39
f 35/35/35 36/36/36 41/41/41
f 35/35/35 41/41/41 40/40/40
f 36/36/36 42/42/42 41/41/41
f 37/37/37 43/43/43 38/38/38
f 38/38/38 43/43/43 44/44/44
f 39/39/39 45/45/45 37/37/37
f 37/37/37 45/45/45 43/43/43
f 40/40/40 46/46/46 39/39/39
f 40/40/40 41/41/41 46/46/46
f 39/39/39 46/46/46 45/45/45
f 41/41/41 42/42/42 47/47/47
f 41/41/41 47/47/47 46/46/46
f 42/42/42 48/48/48 47/47/47
f 43/43/43 49/49/49 44/44/44
f 44/44/44 49/49/49 50/50/50
f 45/45/45 51/51/51 43/43/43
f 43/43/43 51/51/51 49/49/49
f 46/46/46 52/52/52 45/45/45
f 46/46/46 47/47/47 52/52/52
f 45/45/45 52/52/52 51/51/51
f 47/47/47 48/48/48 53/53/53
f 47/47/47 53/53/53 52/52/52
f 48/48/48 54/54/54 53/53/53
f 49/49/49 55/55/55 50/50/50
f 50/50/50 55/55/55 56/56/56
f 51/51/51 57/57/57 49/49/49
f 49/49/49 57/57/57 55/55/55
f 52/52/52 58/58/58 51/51/51
f 52/52/52 53/53/53 58/58/58
f 51/51/51 58/58/58 57/57/57
f 53/53/53 54/54/54 59/59/59
f 53/53/53 59/59/59 58/58/58
f 54/54/54 60/60/60 59/59/59
f 55/55/55 61/61/61 56/56/56
f 56/56/56 61/61/61 62/62/62
f 57/57/57 63/63/63 55/55/55
f 55/55/55 63/63/63 61/61/61
f 58/58/58 64/64/64 57/57/57
f 58/58/58 59/59/59 64/64/64
f 57/57/57 64/64/64 63/63/63
f 59/59/59 60/60/60 65/65/65
f 59/59/59 65/65/65 64/64/64
f 60/60/60 66/66/66 65/65/65
f 61/61/61 67/67/67 62/62/62
f 62/62/62 67/67/67 68/68/68
f 63/63/63 69/69/69 61/61/61
f 61/61/61 69/69/69 67/67/67
f 64/64/64 70/70/70 63/63/63
f 64/64/64 65/65/65 70/70/70
f 63/63/63 70/70/70 69/69/69
f 65/65/65 66/66/66 71/71/71
f 65/65/65 71/71/71 70/70/70
f 66/66/66 72/72/72 71/71/71
f 67/67/67 73/73/73 68/68/68
f 68/68/68 73/73/73 74/74/74
f 69/69/69 75/75/75 67/67/67
f 67/67/67 75/75/75 73/73/73
f 70/70/70 76/76/76 69/69/69
f 70/70/70 71/71/71 76/76/76
f 69/69/69 76/76/76 75/75/75
f 71/71/71 72/72/72 77/77/77
f 71/71/71 77/77/77 76/76/76
f 72/72/72 78/78/78 77/77/77
f 73/73/73 79/79/79 74/74/74
f 74/74/74 79/79/79 80/80/80
f 75/75/75 81/81/81 73/73/73
f 73/73/73 81/81/81 79/79/79
f 76/76/76 82/82/82 75/75/75
f 76/76/76 77/77/77 82/82/82
f 75/75/75 82/82/82 81/81/81
f 77/77/77 78/78/78 83/83/83
f 77/77/77 83/83/83 82/82/82
f 78/78/78 84/84/84 83/83/83
f 79/79/79 85/85/85 80/80/80
f 80/80/80 85/85/85 86/86/86
f 81/81/81 87/87/87 79/79/79
f 79/79/79 87/87/87 85/85/85
f 82/82/82 88/88/88 81/81/81
f 82/82/82 83/83/83 88/88/88
f 81/81/81 88/88/88 87/87/87
f 83/83/83 84/84/84 89/89/89
f 83/83/83 89/89/89 88/88/88
f 84/84/84 90/90/90 89/89/89
f 85/85/85 91/91/91 86/86/86
f 86/86/86 91/91/91 92/92/92
f 87/87/87 93/93/93 85/85/85
f 85/85/85 93/93/93 91/91/91
f 88/88/88 94/94/94 87/87/87
f 88/88/88 89/89/89 94/94/94
f 87/87/87 94/94/94 93/93/93
f 89/89/89 90/90/90 95/95/95
f 89/89/89 95/95/95 94/94/94
f 90/90/90 96/96/96 95/95/95
f 91/91/91 97/97/97 92/92/92
f 92/92/92 97/97/97 98/98/98
f 93/93/93 99/99/99 91/91/91
f 91/91/91 99/99/99 97/97/97
f 94/94/94 100/100/100 93/93/93
f 94/94/94 95/95/95 100/100/100
f 93/93/93 100/100/100 99/99/99
f 95/95/95 96/96/96 101/101/101
f 95/95/95 101/101/101 100/100/100
f 96/96/96 102/102/102 101/101/101
f 97/97/97 103/103/103 98/98/98
f 98/98/98 103/103/103 104/104/104
f 99/99/99 105/105/105 97/97/97
f 97/97/97 105/105/105 103/103/103
f 100/100/100 106/106/106 99/99/99
f 100/100/100 101/101/101 106/106/106
f 99/99/99 106/106/106 105/105/105
f 101/101/101 102/102/102 107/107/107
f 101/101/101 107/107/107 106/106/106
f 102/102/102 108/108/108 107/107/107
f 103/103/103 109/109/109 104/104/104
f 104/104/104 109/109/109 110/110/110
f 105/105/105 111/111/111 103/103/103
f 103/103/103 111/111/111 109/109/109
f 106/106/106 112/112/112 105/105/105
f 106/106/106 107/107/107 112/112/112
f 105/105/105 112/112/112 111/111/111
f 107/107/107 108/108/108 113/113/113
f 107/107/107 113/113/113 112/112/112
f 108/108/108 114/114/114 113/113/113
f 109/109/109 115/115/115 110/110/110
f 110/110/110 115/115/115 116/116/116
f 111/111/111 117/117/117 109/109/109
f 109/109/109 117/117/117 115/115/115
f 112/112/112 118/118/118 111/111/111
f 112/112/112 113/113/113 118/118/118
f 111/111/111 118/118/118 117/117/117
f 113/113/113 114/114/114 119/119/119
f 113/113/113 119/119/119 118/118/118
f 114/114/114 120/120/120 119/119/119
f 115/115/115 121/121/121 116/116/116
f 116/116/116 121/121/121 122/122/122
f 117/117/117 123/123/123 115/115/115
f 115/115/115 123/123/123 121/121/121
f 118/118/118 124/124/124 117/117/117
f 118/118/118 119/119/119 124/124/124
f 117/117/117 124/124/124 123/123/123
f 119/119/119 120/120/120 125/125/125
f 119/119/119 125/125/125 124/124/124
f 120/120/120 126/126/126 125/125/125
f 121/121/121 127/127/127 122/122/122
f 122/122/122 127/127/127 128/128/128
f 123/123/123 129/129/129 121/121/121
f 121/121/121 129/129/129 127/127/127
f 124/124/124 130/130/130 123/123/123
f 124/124/124 125/125/125 130/130/130
f 123/123/123 130/130/130 129/129/129
f 125/125/125 126/126/126 131/131/131
f 125/125/125 131/131/131 130/130/130
f 126/126/126 132/132/132 131/131/131
f 127/127/127 133/133/133 128/128/128
f 128/128/128 133/133/133 134/134/134
f 133/133/133 135/135/135 134/134/134
f 129/129/129 136/136/136 127/127/127
f 127/127/127 136/136/136 133/133/133
f 130/130/130 137/137/137 129/129/129
f 130/130/130 131/131/131 137/137/137
f 129/129/129 137/137/137 136/136/136
f 131/131/131 132/132/132 138/138/138
f 131/131/131 138/138/138 137/137/137
f 132/132/132 139/139/139 138/138/138
f 133/133/133 140/140/140 135/135/135
f 136/136/136 140/140/140 133/133/133
f 140/140/140 141/141/141 135/135/135
f 137/137/137 142/142/142 136/136/136
f 137/137/137 138/138/138 142/142/142
f 136/136/136 142/142/142 140/140/140
f 138/138/138 139/139/139 143/143/143
f 138/138/138 143/143/143 142/142/142
f 139/139/139 144/144/144 143/143/143
f 140/140/140 145/145/145 141/141/141
f 142/142/142 145/145/145 140/140/140
f 142/142/142 143/143/143 145/145/145
f 145/145/145 146/146/146 141/141/141
f 143/143/143 144/144/144 147/147/147
f 143/143/143 147/147/147 145/145/145
f 145/145/145 147/147/147 146/146/146
f 144/144/144 148/148/148 147/147/147
f 147/147/147 149/149/149 146/146/146
f 147/147/147 148/148/148 149/149/149
f 148/148/148 150/150/150 149/149/149
