g Cone002
v 0.188937783 1.43512309 0
v 1.07783613E-07 0.553567767 0.296743125
v 2.81839931E-07 1.44750667 0
v 0.0722551867 0.54883188 0.296743125
v 0.374642521 1.39818406 0
v 0.14327395 0.5347054 0.296743125
v 0.553936958 1.33732176 0
v 0.211841285 0.511429906 0.296743125
v 0.723753452 1.25357759 0
v 0.276783913 0.479403734 0.296743125
v 0.881186306 1.14838421 0
v 0.336990744 0.439174831 0.296743125
v 1.02354193 1.02354181 0
v 0.39143154 0.39143151 0.296743125
v 1.14838421 0.881186247 0
v 0.439174831 0.336990684 0.296743125
v 1.25357759 0.723753333 0
v 0.479403734 0.276783884 0.296743125
v 1.33732176 0.553936899 0
v 0.511429906 0.211841211 0.296743125
v 1.39818406 0.374642283 0
v 0.5347054 0.143273875 0.296743125
v 1.43512309 0.188937545 0
v 0.54883188 0.0722550973 0.296743125
v 1.44750667 0 0
v 0.553567767 0 0.296743125
v 1.43512368 -0.188933492 0
v 0.548832119 -0.0722535476 0.296743125
v 1.39818513 -0.374638647 0
v 0.534705758 -0.143272474 0.296743125
v 1.33732307 -0.55393362 0
v 0.511430442 -0.211839974 0.296743125
v 1.25357914 -0.723750591 0
v 0.47940436 -0.276782811 0.296743125
v 1.14838612 -0.881183982 0
v 0.439175516 -0.33698985 0.296743125
v 1.0235436 -1.0235399 0
v 0.391432196 -0.391430795 0.296743125
v 0.881188035 -1.1483829 0
v 0.3369914 -0.439174294 0.296743125
v 0.723755002 -1.25357652 0
v 0.276784509 -0.479403377 0.296743125
v 0.553938329 -1.33732116 0
v 0.211841792 -0.511429667 0.296743125
v 0.374643594 -1.3981837 0
v 0.143274367 -0.534705222 0.296743125
v 0.188938543 -1.43512297 0
v 0.0722554699 -0.54883188 0.296743125
v 7.07486322E-07 -1.44750667 0
v 2.70562907E-07 -0.553567767 0.296743125
v -0.188937128 -1.43512309 0
v -0.0722549409 -0.54883188 0.296743125
v -0.374642223 -1.39818406 0
v -0.143273845 -0.53470546 0.296743125
v -0.553937018 -1.33732176 0
v -0.211841285 -0.511429906 0.296743125
v -0.72375375 -1.25357723 0
v -0.276784033 -0.479403615 0.296743125
v -0.881186903 -1.14838374 0
v -0.336990952 -0.439174652 0.296743125
v -1.0235424 -1.02354133 0
v -0.391431749 -0.391431302 0.296743125
v -1.14838469 -0.881185651 0
v -0.43917504 -0.336990476 0.296743125
v -1.25357795 -0.723752737 0
v -0.479403883 -0.276783645 0.296743125
v -1.337322 -0.553936183 0
v -0.511430025 -0.211840972 0.296743125
v -1.39818418 -0.374641687 0
v -0.53470546 -0.143273637 0.296743125
v -1.43512309 -0.188936934 0
v -0.54883194 -0.0722548664 0.296743125
v -1.44750667 5.63679862E-07 0
v -0.553567767 2.15567226E-07 0.296743125
v -1.43512309 0.188938066 0
v -0.54883188 0.072255291 0.296743125
v -1.39818406 0.374642789 0
v -0.534705341 0.143274054 0.296743125
v -1.33732152 0.553937256 0
v -0.511429846 0.211841375 0.296743125
v -1.25357735 0.723753691 0
v -0.479403675 0.276784003 0.296743125
v -1.14838409 0.881186485 0
v -0.439174742 0.336990774 0.296743125
v -1.02354145 1.02354205 0
v -0.391431421 0.3914316 0.296743125
v -0.881186008 1.14838445 0
v -0.336990595 0.439174891 0.296743125
v -0.723753154 1.25357771 0
v -0.276783794 0.479403764 0.296743125
v -0.553936481 1.337322 0
v -0.211841062 0.511429965 0.296743125
v -0.374641955 1.39818406 0
v -0.143273756 0.53470546 0.296743125
v -0.188937217 1.43512309 0
v -0.0722549707 0.54883188 0.296743125
v 2.81839931E-07 1.44750667 0
v 1.07783613E-07 0.553567767 0.296743125
vt 2.22936634E-07 0.0208332539
vt 1.00000012 -5.96046448E-08
vt 2.24509506E-07 -1.1920929E-07
vt 1.00000012 0.0208333135
vt 2.21363763E-07 0.0416665673
vt 1.00000012 0.0416666269
vt 2.19790891E-07 0.0624998808
vt 1.00000012 0.0624999404
vt 2.1821802E-07 0.0833332539
vt 1.00000012 0.0833333135
vt 2.16645148E-07 0.104166567
vt 1.00000012 0.104166627
vt 2.15072276E-07 0.124999881
vt 1.00000012 0.12499994
vt 2.13499391E-07 0.145833254
vt 1.00000012 0.145833313
vt 2.11926533E-07 0.166666508
vt 1.00000012 0.166666567
vt 2.10353647E-07 0.187499881
vt 1.00000012 0.18749994
vt 2.0878079E-07 0.208333254
vt 1.00000012 0.208333313
vt 2.07207904E-07 0.229166567
vt 1.00000012 0.229166627
vt 2.05635047E-07 0.249999881
vt 1.00000012 0.24999994
vt 2.04062189E-07 0.270832777
vt 1.00000012 0.270832837
vt 2.02489318E-07 0.29166615
vt 1.00000012 0.29166621
vt 2.00916446E-07 0.312499523
vt 1.00000012 0.312499583
vt 1.99343575E-07 0.333332837
vt 1.00000012 0.333332896
vt 1.97770703E-07 0.35416621
vt 1.00000012 0.354166269
vt 1.96197817E-07 0.374999583
vt 1.00000012 0.374999642
vt 1.94624945E-07 0.395832956
vt 1.00000012 0.395833015
vt 1.93052074E-07 0.416666329
vt 1.00000012 0.416666389
vt 1.91479188E-07 0.437499702
vt 1.00000012 0.437499762
vt 1.89906316E-07 0.458333075
vt 1.00000012 0.458333135
vt 1.88333445E-07 0.479166448
vt 1.00000012 0.479166508
vt 1.86760559E-07 0.499999821
vt 1.00000012 0.499999911
vt 1.85187702E-07 0.520833135
vt 1.00000012 0.520833254
vt 1.83614816E-07 0.541666508
vt 1.00000012 0.541666627
vt 1.82041944E-07 0.562499881
vt 1.00000012 0.5625
vt 1.80469073E-07 0.583333254
vt 1.00000012 0.583333373
vt 1.78896187E-07 0.604166627
vt 1.00000012 0.604166746
vt 1.77323315E-07 0.62499994
vt 1.00000012 0.62500006
vt 1.75750444E-07 0.645833254
vt 1.00000012 0.645833373
vt 1.74177572E-07 0.666666627
vt 1.00000012 0.666666746
vt 1.726047E-07 0.68749994
vt 1.00000012 0.6875
vt 1.71031829E-07 0.708333254
vt 1.00000012 0.708333373
vt 1.69458957E-07 0.729166627
vt 1.00000012 0.729166746
vt 1.67886085E-07 0.74999994
vt 1.00000012 0.75
vt 1.66313214E-07 0.770833254
vt 1.00000012 0.770833313
vt 1.64740342E-07 0.791666627
vt 1.00000012 0.791666627
vt 1.63167471E-07 0.812499881
vt 1.00000012 0.8125
vt 1.61594599E-07 0.833333254
vt 1.00000012 0.833333313
vt 1.60021727E-07 0.854166567
vt 1.00000012 0.854166627
vt 1.58448842E-07 0.874999881
vt 1.00000012 0.875
vt 1.5687597E-07 0.895833254
vt 1.00000012 0.895833313
vt 1.55303098E-07 0.916666567
vt 1.00000012 0.916666627
vt 1.53730227E-07 0.937499881
vt 1.00000012 0.93749994
vt 1.52157355E-07 0.958333254
vt 1.00000012 0.958333313
vt 1.50584484E-07 0.979166508
vt 1.00000012 0.979166627
vt 1.49011612E-07 0.999999881
vt 1.00000012 0.99999994
vn 0.0411217436 0.31235069 0.949076355
vn -0 0.315045953 0.949076355
vn -0 0.315045953 0.949076355
vn 0.0411217399 0.31235072 0.949076355
vn 0.0815399215 0.304310977 0.949076355
vn 0.0815399215 0.304310977 0.949076355
vn 0.120562926 0.291064471 0.949076355
vn 0.120562926 0.29106456 0.949076355
vn 0.157522961 0.272837818 0.949076355
vn 0.157522976 0.272837847 0.949076355
vn 0.191787824 0.24994275 0.949076355
vn 0.191787824 0.24994275 0.949076355
vn 0.222771168 0.222771078 0.949076355
vn 0.222771168 0.222771063 0.949076355
vn 0.249942824 0.191787794 0.949076355
vn 0.249942854 0.191787779 0.949076355
vn 0.272837847 0.157522961 0.949076355
vn 0.272837847 0.157522976 0.949076355
vn 0.29106456 0.120562911 0.949076355
vn 0.29106456 0.120562911 0.949076355
vn 0.304311037 0.0815399587 0.949076355
vn 0.304311067 0.0815399587 0.949076355
vn 0.31235069 0.0411217362 0.949076355
vn 0.31235072 0.0411217362 0.949076355
vn 0.315045923 0 0.949076355
vn 0.315045953 0 0.949076355
vn 0.312350869 -0.0411210582 0.949076355
vn 0.312350839 -0.0411210805 0.949076355
vn 0.304311275 -0.0815391019 0.949076355
vn 0.304311305 -0.0815391168 0.949076355
vn 0.291064888 -0.120562203 0.949076355
vn 0.291064858 -0.120562188 0.949076355
vn 0.272838205 -0.157522365 0.949076355
vn 0.272838205 -0.157522351 0.949076355
vn 0.249943063 -0.191787392 0.949076355
vn 0.249943107 -0.191787422 0.949076355
vn 0.222771481 -0.222770825 0.949076355
vn 0.222771525 -0.222770795 0.949076355
vn 0.191788226 -0.249942437 0.949076355
vn 0.191788256 -0.249942467 0.949076355
vn 0.157523334 -0.272837639 0.949076355
vn 0.157523349 -0.272837669 0.949076355
vn 0.120563164 -0.291064382 0.949076355
vn 0.120563179 -0.291064441 0.949076355
vn 0.0815401748 -0.304310977 0.949076355
vn 0.0815401748 -0.304310977 0.949076355
vn 0.041121982 -0.31235069 0.949076355
vn 0.0411219858 -0.31235069 0.949076355
vn -0 -0.315045953 0.949076355
vn -0 -0.315046042 0.949076355
vn -0.0411216207 -0.31235075 0.949076355
vn -0.041121617 -0.31235075 0.949076355
vn -0.0815398321 -0.304311067 0.949076355
vn -0.0815398172 -0.304311037 0.949076355
vn -0.120562941 -0.291064471 0.949076355
vn -0.120562963 -0.291064501 0.949076355
vn -0.157523111 -0.272837818 0.949076355
vn -0.157523111 -0.272837847 0.949076355
vn -0.191787899 -0.24994272 0.949076355
vn -0.191787928 -0.24994278 0.949076355
vn -0.222771287 -0.222771019 0.949076355
vn -0.222771257 -0.222771019 0.949076355
vn -0.249942884 -0.19178769 0.949076355
vn -0.249942914 -0.191787675 0.949076355
vn -0.272837907 -0.157522798 0.949076355
vn -0.272837937 -0.157522827 0.949076355
vn -0.29106462 -0.120562665 0.949076355
vn -0.29106462 -0.12056268 0.949076355
vn -0.304311067 -0.081539765 0.949076355
vn -0.304311067 -0.0815397725 0.949076355
vn -0.31235072 -0.0411216393 0.949076355
vn -0.31235075 -0.0411216468 0.949076355
vn -0.315045953 0 0.949076355
vn -0.315045983 0 0.949076355
vn -0.31235069 0.0411218256 0.949076355
vn -0.31235072 0.0411218256 0.949076355
vn -0.304311007 0.0815400779 0.949076355
vn -0.304310977 0.0815400779 0.949076355
vn -0.291064471 0.120562993 0.949076355
vn -0.291064471 0.120562993 0.949076355
vn -0.272837818 0.157523006 0.949076355
vn -0.272837818 0.157523006 0.949076355
vn -0.24994269 0.191787899 0.949076355
vn -0.24994272 0.191787928 0.949076355
vn -0.222771078 0.222771212 0.949076355
vn -0.222771078 0.222771212 0.949076355
vn -0.191787809 0.24994275 0.949076355
vn -0.191787854 0.249942809 0.949076355
vn -0.157522932 0.272837877 0.949076355
vn -0.157522947 0.272837877 0.949076355
vn -0.12056274 0.29106456 0.949076355
vn -0.12056274 0.29106459 0.949076355
vn -0.0815398321 0.304311067 0.949076355
vn -0.0815398321 0.304311097 0.949076355
vn -0.0411216952 0.31235069 0.949076355
vn -0.0411217026 0.31235075 0.949076355
vn -0 0.315045953 0.949076355
vn -0 0.315045953 0.949076355
g Cone002_0
f 3/3/3 2/2/2 1/1/1
f 2/2/2 4/4/4 1/1/1
f 1/1/1 4/4/4 5/5/5
f 4/4/4 6/6/6 5/5/5
f 5/5/5 6/6/6 7/7/7
f 6/6/6 8/8/8 7/7/7
f 7/7/7 8/8/8 9/9/9
f 8/8/8 10/10/10 9/9/9
f 9/9/9 10/10/10 11/11/11
f 10/10/10 12/12/12 11/11/11
f 11/11/11 12/12/12 13/13/13
f 12/12/12 14/14/14 13/13/13
f 13/13/13 14/14/14 15/15/15
f 14/14/14 16/16/16 15/15/15
f 15/15/15 16/16/16 17/17/17
f 16/16/16 18/18/18 17/17/17
f 17/17/17 18/18/18 19/19/19
f 18/18/18 20/20/20 19/19/19
f 19/19/19 20/20/20 21/21/21
f 20/20/20 22/22/22 21/21/21
f 21/21/21 22/22/22 23/23/23
f 22/22/22 24/24/24 23/23/23
f 23/23/23 24/24/24 25/25/25
f 24/24/24 26/26/26 25/25/25
f 25/25/25 26/26/26 27/27/27
f 26/26/26 28/28/28 27/27/27
f 27/27/27 28/28/28 29/29/29
f 28/28/28 30/30/30 29/29/29
f 29/29/29 30/30/30 31/31/31
f 30/30/30 32/32/32 31/31/31
f 31/31/31 32/32/32 33/33/33
f 32/32/32 34/34/34 33/33/33
f 33/33/33 34/34/34 35/35/35
f 34/34/34 36/36/36 35/35/35
f 35/35/35 36/36/36 37/37/37
f 36/36/36 38/38/38 37/37/37
f 37/37/37 38/38/38 39/39/39
f 38/38/38 40/40/40 39/39/39
f 39/39/39 40/40/40 41/41/41
f 40/40/40 42/42/42 41/41/41
f 41/41/41 42/42/42 43/43/43
f 42/42/42 44/44/44 43/43/43
f 43/43/43 44/44/44 45/45/45
f 44/44/44 46/46/46 45/45/45
f 45/45/45 46/46/46 47/47/47
f 46/46/46 48/48/48 47/47/47
f 47/47/47 48/48/48 49/49/49
f 48/48/48 50/50/50 49/49/49
f 49/49/49 50/50/50 51/51/51
f 50/50/50 52/52/52 51/51/51
f 51/51/51 52/52/52 53/53/53
f 52/52/52 54/54/54 53/53/53
f 53/53/53 54/54/54 55/55/55
f 54/54/54 56/56/56 55/55/55
f 55/55/55 56/56/56 57/57/57
f 56/56/56 58/58/58 57/57/57
f 57/57/57 58/58/58 59/59/59
f 58/58/58 60/60/60 59/59/59
f 59/59/59 60/60/60 61/61/61
f 60/60/60 62/62/62 61/61/61
f 61/61/61 62/62/62 63/63/63
f 62/62/62 64/64/64 63/63/63
f 63/63/63 64/64/64 65/65/65
f 64/64/64 66/66/66 65/65/65
f 65/65/65 66/66/66 67/67/67
f 66/66/66 68/68/68 67/67/67
f 67/67/67 68/68/68 69/69/69
f 68/68/68 70/70/70 69/69/69
f 69/69/69 70/70/70 71/71/71
f 70/70/70 72/72/72 71/71/71
f 71/71/71 72/72/72 73/73/73
f 72/72/72 74/74/74 73/73/73
f 73/73/73 74/74/74 75/75/75
f 74/74/74 76/76/76 75/75/75
f 75/75/75 76/76/76 77/77/77
f 76/76/76 78/78/78 77/77/77
f 77/77/77 78/78/78 79/79/79
f 78/78/78 80/80/80 79/79/79
f 79/79/79 80/80/80 81/81/81
f 80/80/80 82/82/82 81/81/81
f 81/81/81 82/82/82 83/83/83
f 82/82/82 84/84/84 83/83/83
f 83/83/83 84/84/84 85/85/85
f 84/84/84 86/86/86 85/85/85
f 85/85/85 86/86/86 87/87/87
f 86/86/86 88/88/88 87/87/87
f 87/87/87 88/88/88 89/89/89
f 88/88/88 90/90/90 89/89/89
f 89/89/89 90/90/90 91/91/91
f 90/90/90 92/92/92 91/91/91
f 91/91/91 92/92/92 93/93/93
f 92/92/92 94/94/94 93/93/93
f 93/93/93 94/94/94 95/95/95
f 94/94/94 96/96/96 95/95/95
f 95/95/95 96/96/96 97/97/97
f 96/96/96 98/98/98 97/97/97
