g bg_02
v -0.0500973463 0.0629819185 0
v 0.0432554632 0.0629819185 0
v 0.0577557161 0.0396691412 0
v -0.0628741086 0.049964238 0
v -0.078123793 0.00813063141 0
v 0.0754034519 0.0118400138 0
v -0.0805553719 -0.0314361155 0
v 0.0780824572 -0.0122709749 0
v 0.0780824572 -0.043182496 0
v -0.0805553719 -0.0629819185 0
v 0.0805553719 -0.0629819185 0
vt 0.215665594 0.955425024
vt 0.583196342 0.955424964
vt 0.640283942 0.863642454
vt 0.165363371 0.904174328
vt 0.105325237 0.739475071
vt 0.709763229 0.754078984
vt 0.0957521424 0.583700478
vt 0.72031045 0.659153819
vt 0.720310509 0.537454903
vt 0.0957521573 0.459504426
vt 0.730046391 0.459504455
vn -0 0 1
vn -0 0 1
vn -0 0 1
vn -0 0 1
vn -0 0 1
vn -0 0 1
vn -0 0 1
vn -0 0 1
vn -0 0 1
vn -0 0 1
vn -0 0 1
g bg_02_0
f 3/3/3 2/2/2 1/1/1
f 4/4/4 3/3/3 1/1/1
f 4/4/4 5/5/5 3/3/3
f 5/5/5 6/6/6 3/3/3
f 5/5/5 7/7/7 6/6/6
f 7/7/7 8/8/8 6/6/6
f 7/7/7 9/9/9 8/8/8
f 7/7/7 10/10/10 9/9/9
f 10/10/10 11/11/11 9/9/9
