g Object002
v 1.9081769 0.63499999 0
v 3.17817688 0.63499999 0
v 1.9081769 -0.63499999 0
v 3.17817688 -0.63499999 0
v -0.63499999 0.63499999 0
v 0.63499999 0.63499999 0
v -0.63499999 -0.63499999 0
v 0.63499999 -0.63499999 0
v -1.90499997 0.63499999 0
v -0.63499999 0.63499999 0
v -1.90499997 -0.63499999 0
v -0.63499999 -0.63499999 0
v 0.63499999 0.63499999 0
v 1.90499997 0.63499999 0
v 0.63499999 -0.63499999 0
v 1.90499997 -0.63499999 0
v -3.17882752 0.63499999 0
v -1.90882766 0.63499999 0
v -3.17882752 -0.63499999 0
v -1.90882766 -0.63499999 0
vt 0 1
vt 1 1
vt 0 0
vt 1 0
vt 0 1
vt 1 1
vt 0 0
vt 1 0
vt 0 1
vt 1 1
vt 0 0
vt 1 0
vt 0 1
vt 1 1
vt 0 0
vt 1 0
vt 0 1
vt 1 1
vt 0 0
vt 1 0
vn -0 0 1
vn -0 0 1
vn -0 0 1
vn -0 0 1
vn -0 0 1
vn -0 0 1
vn -0 0 1
vn -0 0 1
vn -0 0 1
vn -0 0 1
vn -0 0 1
vn -0 0 1
vn -0 0 1
vn -0 0 1
vn -0 0 1
vn -0 0 1
vn -0 0 1
vn -0 0 1
vn -0 0 1
vn -0 0 1
g Object002_0
f 3/3/3 2/2/2 1/1/1
f 2/2/2 3/3/3 4/4/4
f 7/7/7 6/6/6 5/5/5
f 6/6/6 7/7/7 8/8/8
f 11/11/11 10/10/10 9/9/9
f 10/10/10 11/11/11 12/12/12
f 15/15/15 14/14/14 13/13/13
f 14/14/14 15/15/15 16/16/16
f 19/19/19 18/18/18 17/17/17
f 18/18/18 19/19/19 20/20/20
