g polySurface2
v -0.0967163444 -0.0101852464 0
v -0.094566226 -0.0167028513 0
v -0.0970869437 -0.0165280104 0
v -0.0941270441 -0.0103644775 0
v -0.0917355716 -0.0168162156 0
v -0.0914844498 -0.0104676122 0
v -0.0887537152 -0.016829595 0
v -0.0887295157 -0.0104760649 0
v -0.0856676623 -0.0167122688 0
v -0.0859150141 -0.0103635164 0
v -0.0825233236 -0.0164324734 0
v -0.083094798 -0.0101046469 0
v -0.0793655291 -0.015956752 0
v -0.0803237632 -0.00967585761 0
v -0.0762384608 -0.0152491303 0
v -0.077657491 -0.00905604847 0
v -0.0731865168 -0.0142703913 0
v -0.0751504675 -0.00822797325 0
v -0.0702570826 -0.0130126141 0
v -0.0727904662 -0.00718596438 0
v -0.0674749687 -0.0115301181 0
v -0.0704822466 -0.00593331316 0
v -0.0648095086 -0.00987283885 0
v -0.0681759864 -0.00448444812 0
v -0.0622186773 -0.00808484573 0
v -0.0658332482 -0.00285963528 0
v -0.0596573204 -0.00620493386 0
v -0.063418746 -0.0010844135 0
v -0.0570797399 -0.00426734425 0
v -0.0608977266 0.00081111904 0
v -0.0544408634 -0.00230298517 0
v -0.058234781 0.00279349787 0
v -0.0516998656 -0.000341129286 0
v -0.0553986281 0.00482481951 0
v -0.048864644 0.00157706253 0
v -0.0524266101 0.00683826441 0
v -0.0459957868 0.00338826166 0
v -0.0493900999 0.00875915494 0
v -0.043168053 0.00502044661 0
v -0.0463484004 0.0105207441 0
v -0.0404612236 0.00640099496 0
v -0.0433557071 0.0120569514 0
v -0.0379645042 0.00745730381 0
v -0.0404568724 0.0133016203 0
v -0.0357858837 0.00812004041 0
v -0.0376779176 0.0141853616 0
v -0.0340710878 0.00833719224 0
v -0.0350071341 0.0146214338 0
v -0.0329612866 0.00815079641 0
v -0.0324022584 0.0144797228 0
v -0.0322122611 0.00776072498 0
v -0.0300291441 0.0137274452 0
v -0.0315044746 0.0072158142 0
v -0.0280732904 0.0125632184 0
v -0.0307005215 0.00647520041 0
v -0.0265380144 0.0112753389 0
v -0.0297653675 0.00555323111 0
v -0.025324259 0.0100968359 0
v -0.0286491383 0.00452448381 0
v -0.0243478101 0.00920064934 0
v -0.0272209346 0.00349925994 0
v -0.023605518 0.0087238783 0
v -0.0252702758 0.00269639958 0
v -0.0231741425 0.00869423803 0
v -0.0229418408 0.00249593263 0
v -0.0228320975 0.00884857122 0
v -0.0207965467 0.00285439007 0
v -0.0220579375 0.00908147823 0
v -0.0188571829 0.00348063465 0
v -0.0208825059 0.00950275362 0
v -0.0170463845 0.00420949934 0
v -0.0194368362 0.0100962352 0
v -0.0153309489 0.00493532186 0
v -0.0178078264 0.0107862232 0
v -0.0137179894 0.00556807965 0
v -0.0160420071 0.0114813661 0
v -0.0122454781 0.00602414599 0
v -0.0141551159 0.0120839495 0
v -0.0109728472 0.00623867987 0
v -0.0121405842 0.0124840112 0
v -0.00984607171 0.00624824967 0
v -0.0100912042 0.0125971027 0
v -0.00876363274 0.0061102435 0
v -0.00813430268 0.0124325557 0
v -0.00771740405 0.00584589457 0
v -0.00630341982 0.012040128 0
v -0.00671386207 0.00547409058 0
v -0.00461743819 0.011471834 0
v -0.00576765509 0.00501652248 0
v -0.00308709615 0.0107769296 0
v -0.0048981905 0.00449948292 0
v -0.00171835418 0.0100000761 0
v -0.00412701117 0.00395407667 0
v -0.000515084248 0.00918109901 0
v -0.00346598146 0.00340997684 0
v 0.000521931623 0.00835614186 0
v -0.00285199634 0.00285123824 0
v 0.00139786245 0.00757420063 0
v -0.00220567221 0.00224616053 0
v 0.00213346956 0.00688724499 0
v -0.00146119588 0.00158220285 0
v 0.00276318076 0.00632798159 0
v -0.000559020031 0.000874958001 0
v 0.00332770823 0.00590100279 0
v 0.000544562354 0.000172729488 0
v 0.00388350966 0.00557820778 0
v 0.00186563015 -0.000459814066 0
v 0.00451481342 0.00531510357 0
v 0.00339990132 -0.000972709619 0
v 0.00532593252 0.00508189201 0
v 0.00508470042 -0.00134966848 0
v 0.00641890056 0.00486224145 0
v 0.00679419003 -0.00162930484 0
v 0.00780438865 0.00464343047 0
v 0.00849386677 -0.00186866755 0
v 0.00937749352 0.00442315591 0
v 0.0101353787 -0.00210676179 0
v 0.0110472152 0.00418103673 0
v 0.0116504431 -0.00237242691 0
v 0.012742457 0.00388659001 0
v 0.0129533242 -0.00268482207 0
v 0.0144096129 0.00349959359 0
v 0.0139360856 -0.00304315565 0
v 0.0160172023 0.00295991404 0
v 0.0144730993 -0.00339586241 0
v 0.01755815 0.00215845113 0
v 0.0147298379 -0.00371600618 0
v 0.0189175364 0.00106215477 0
v 0.0151244299 -0.0042187022 0
v 0.0199305769 -6.31427756E-05 0
v 0.0158014055 -0.0050469446 0
v 0.0207165089 -0.00102084153 0
v 0.0168384016 -0.00615818007 0
v 0.0214614812 -0.00179985992 0
v 0.0183169693 -0.00740510924 0
v 0.0223477781 -0.00249384879 0
v 0.0202968456 -0.00863838848 0
v 0.0235794298 -0.00319849956 0
v 0.0228312351 -0.00977190956 0
v 0.0253670346 -0.00394631876 0
v 0.0259750988 -0.0107755726 0
v 0.0278739687 -0.00471240515 0
v 0.0296161883 -0.0116338255 0
v 0.0310593173 -0.0054463339 0
v 0.0336233638 -0.0123408558 0
v 0.0347197279 -0.00608261116 0
v 0.0378634967 -0.0128754443 0
v 0.0386526138 -0.00657108286 0
v 0.0421896689 -0.0132067008 0
v 0.0426691584 -0.00687125651 0
v 0.0464523248 -0.0132993078 0
v 0.0465831682 -0.00694709271 0
v 0.0505064912 -0.0131134195 0
v 0.0502039194 -0.00676706759 0
v 0.0542208888 -0.0125996154 0
v 0.0533269718 -0.00630925177 0
v 0.0575117618 -0.0117138457 0
v 0.0558125041 -0.00559174037 0
v 0.0603572875 -0.0105059268 0
v 0.0578151643 -0.00468307501 0
v 0.0627866685 -0.00907458272 0
v 0.0595092811 -0.00363154872 0
v 0.0648554191 -0.0075432919 0
v 0.0610429496 -0.00246068463 0
v 0.0666414574 -0.00604170794 0
v 0.0625417084 -0.00118783466 0
v 0.0682364628 -0.0046836948 0
v 0.064117521 0.000153884888 0
v 0.0697294921 -0.00355504034 0
v 0.0658848137 0.00150326721 0
v 0.071206294 -0.00270037656 0
v 0.0679583699 0.00276028621 0
v 0.0728064254 -0.00203225599 0
v 0.0702728778 0.00379432668 0
v 0.0746304616 -0.00144100189 0
v 0.0726308972 0.00458970061 0
v 0.0766309872 -0.000904664979 0
v 0.0749709234 0.00522821397 0
v 0.0787460804 -0.000391759851 0
v 0.0772457048 0.00578212738 0
v 0.0809181184 0.00014115333 0
v 0.0794041008 0.00631169789 0
v 0.0830963328 0.000747609127 0
v 0.0813877881 0.00686716055 0
v 0.0852375552 0.00149284839 0
v 0.0831309706 0.00748702046 0
v 0.0873005688 0.0024531316 0
v 0.0845747367 0.00819227193 0
v 0.0892089456 0.00364252552 0
v 0.0857892036 0.00899727363 0
v 0.0909201056 0.00502839079 0
v 0.0868674442 0.00992160756 0
v 0.0924393982 0.00658167806 0
v 0.0878550857 0.0109807588 0
v 0.0937845558 0.00827113166 0
v 0.0887853801 0.0121923536 0
v 0.09498436 0.0100704571 0
v 0.0896808431 0.0135691063 0
v 0.0960732475 0.0119613642 0
v 0.0905579925 0.015115709 0
v 0.0970869437 0.0139328046 0
v 0.0914321691 0.016829595 0
vt 2.98023224E-08 1
vt 0.0116530657 2.98023224E-08
vt 0 2.98023224E-08
vt 0.0116530657 1
vt 0.0246967673 2.98023224E-08
vt 0.0246967673 1
vt 0.0379728079 2.98023224E-08
vt 0.0379728377 1
vt 0.0513511896 2.98023224E-08
vt 0.0513511598 1
vt 0.0648021698 2.98023224E-08
vt 0.0648021996 1
vt 0.0781199932 2.98023224E-08
vt 0.0781199634 1
vt 0.0911211967 2.98023224E-08
vt 0.0911211967 1
vt 0.10366112 2.98023224E-08
vt 0.10366112 1
vt 0.115913987 2.98023224E-08
vt 0.115914017 1
vt 0.128387332 2.98023224E-08
vt 0.128387332 1
vt 0.141323209 2.98023224E-08
vt 0.141323209 1
vt 0.154864311 0
vt 0.154864341 1
vt 0.169098139 0
vt 0.169098109 1
vt 0.184078813 0
vt 0.184078813 1
vt 0.199846387 0
vt 0.199846357 1
vt 0.216415405 0
vt 0.216415375 1
vt 0.233465433 0
vt 0.233465433 1
vt 0.250530899 0
vt 0.250530899 1
vt 0.267225444 0
vt 0.267225444 1
vt 0.283202648 0
vt 0.283202648 1
vt 0.298186243 0
vt 0.298186243 1
vt 0.312036335 0
vt 0.312036335 1
vt 0.320034385 0
vt 0.320034385 1
vt 0.326868951 0
vt 0.326868951 1
vt 0.333295286 0
vt 0.333295286 1
vt 0.339631975 0
vt 0.339631975 1
vt 0.346222639 0
vt 0.346222639 1
vt 0.353022099 0
vt 0.353022099 1
vt 0.359842181 0
vt 0.359842181 1
vt 0.366601169 0
vt 0.366601169 1
vt 0.373547792 0
vt 0.373547792 1
vt 0.380936444 0
vt 0.380936444 1
vt 0.389658332 0
vt 0.389658332 1
vt 0.399013638 0
vt 0.399013638 1
vt 0.407974243 0
vt 0.407974243 1
vt 0.416524768 0
vt 0.416524768 1
vt 0.424478412 0
vt 0.424478412 1
vt 0.431554794 0
vt 0.431554794 1
vt 0.437479258 0
vt 0.437479258 1
vt 0.443418503 0
vt 0.443418503 1
vt 0.450242996 0
vt 0.450242996 1
vt 0.456898808 0
vt 0.456898808 1
vt 0.463380456 0
vt 0.463380456 1
vt 0.469641864 0
vt 0.469641864 1
vt 0.475605607 0
vt 0.475605607 1
vt 0.481171012 0
vt 0.481171012 1
vt 0.486251831 0
vt 0.486251831 1
vt 0.490944147 0
vt 0.490944147 1
vt 0.495391309 0
vt 0.495391309 1
vt 0.499721289 0
vt 0.499721289 1
vt 0.504073441 0
vt 0.504073441 1
vt 0.508624852 0
vt 0.508624852 1
vt 0.513602078 0
vt 0.513602078 1
vt 0.519271016 0
vt 0.519271016 1
vt 0.525797129 0
vt 0.525797129 1
vt 0.533007562 0
vt 0.533007562 1
vt 0.540626347 0
vt 0.540626347 1
vt 0.548365772 0
vt 0.548365772 1
vt 0.555945814 0
vt 0.555945814 1
vt 0.563113451 0
vt 0.563113451 1
vt 0.569677293 0
vt 0.569677293 1
vt 0.575592697 0
vt 0.575592697 1
vt 0.581138194 0
vt 0.581138194 1
vt 0.586556554 0
vt 0.586556554 1
vt 0.592080116 0
vt 0.592080116 1
vt 0.598013103 0
vt 0.598013103 1
vt 0.604827642 0
vt 0.604827642 1
vt 0.613153517 0
vt 0.613153517 1
vt 0.623693109 0
vt 0.623693109 1
vt 0.637054384 0
vt 0.637054384 1
vt 0.652997077 0
vt 0.652997077 1
vt 0.670754671 0
vt 0.670754671 1
vt 0.689536989 0
vt 0.689536989 1
vt 0.708564341 0
vt 0.708564341 1
vt 0.727064192 0
vt 0.727064192 1
vt 0.744272351 0
vt 0.744272351 1
vt 0.76045537 0
vt 0.76045537 1
vt 0.776099801 0
vt 0.776099801 1
vt 0.790290356 0
vt 0.790290356 1
vt 0.8032341 0
vt 0.8032341 1
vt 0.815049291 0
vt 0.815049291 1
vt 0.825760722 0
vt 0.825760722 1
vt 0.835376859 0
vt 0.835376859 1
vt 0.84396863 0
vt 0.84396863 1
vt 0.851801276 0
vt 0.851801276 1
vt 0.859761357 0
vt 0.859761357 1
vt 0.868563414 0
vt 0.868563414 1
vt 0.878071189 0
vt 0.878071189 1
vt 0.888061881 0
vt 0.888061881 1
vt 0.898328304 0
vt 0.898328304 1
vt 0.908707738 0
vt 0.908707738 1
vt 0.919115305 0
vt 0.919115305 1
vt 0.929561257 0
vt 0.929561257 1
vt 0.939883828 0
vt 0.939883828 1
vt 0.949991941 0
vt 0.949991941 1
vt 0.959966063 0
vt 0.959966063 1
vt 0.969879627 0
vt 0.969879627 1
vt 0.979784608 0
vt 0.979784608 1
vt 0.98979342 0
vt 0.98979342 1
vt 1 0
vt 1 1
vn -0 0 1
vn -0 0 1
vn -0 0 1
vn -0 0 1
vn -0 0 1
vn -0 0 1
vn -0 0 1
vn -0 0 1
vn -0 0 1
vn -0 0 1
vn -0 0 1
vn -0 0 1
vn -0 0 1
vn -0 0 1
vn -0 0 1
vn -0 0 1
vn -0 0 1
vn -0 0 1
vn -0 0 1
vn -0 0 1
vn -0 0 1
vn -0 0 1
vn -0 0 1
vn -0 0 1
vn -0 0 1
vn -0 0 1
vn -0 0 1
vn -0 0 1
vn -0 0 1
vn -0 0 1
vn -0 0 1
vn -0 0 1
vn -0 0 1
vn -0 0 1
vn -0 0 1
vn -0 0 1
vn -0 0 1
vn -0 0 1
vn -0 0 1
vn -0 0 1
vn -0 0 1
vn -0 0 1
vn -0 0 1
vn -0 0 1
vn -0 0 1
vn -0 0 1
vn -0 0 1
vn -0 0 1
vn -0 0 1
vn -0 0 1
vn -0 0 1
vn -0 0 1
vn -0 0 1
vn -0 0 1
vn -0 0 1
vn -0 0 1
vn -0 0 1
vn -0 0 1
vn -0 0 1
vn -0 0 1
vn -0 0 1
vn -0 0 1
vn -0 0 1
vn -0 0 1
vn -0 0 1
vn -0 0 1
vn -0 0 1
vn -0 0 1
vn -0 0 1
vn -0 0 1
vn -0 0 1
vn -0 0 1
vn -0 0 1
vn -0 0 1
vn -0 0 1
vn -0 0 1
vn -0 0 1
vn -0 0 1
vn -0 0 1
vn -0 0 1
vn -0 0 1
vn -0 0 1
vn -0 0 1
vn -0 0 1
vn -0 0 1
vn -0 0 1
vn -0 0 1
vn -0 0 1
vn -0 0 1
vn -0 0 1
vn -0 0 1
vn -0 0 1
vn -0 0 1
vn -0 0 1
vn -0 0 1
vn -0 0 1
vn 1.06499243E-07 0 1
vn 1.04741751E-07 0 1
vn -0 0 1
vn -0 0 1
vn -0 0 1
vn -0 0 1
vn -0 0 1
vn -0 0 1
vn -0 0 1
vn -0 0 1
vn -0 0 1
vn -0 0 1
vn -0 0 1
vn -0 0 1
vn -0 0 1
vn -0 0 1
vn -0 0 1
vn -0 0 1
vn -0 0 1
vn -0 0 1
vn -0 0 1
vn -0 0 1
vn -0 0 1
vn -0 0 1
vn -0 0 1
vn -0 0 1
vn -0 0 1
vn -0 0 1
vn -0 0 1
vn -0 0 1
vn -1.22467512E-07 0 1
vn -1.07100178E-07 0 1
vn -1.29737799E-07 0 1
vn -1.31911492E-07 0 1
vn -0 0 1
vn -0 0 1
vn -0 0 1
vn -0 0 1
vn -0 0 1
vn -0 0 1
vn -0 0 1
vn -0 0 1
vn -0 0 1
vn -0 0 1
vn -0 0 1
vn -0 0 1
vn -0 0 1
vn -0 0 1
vn -0 0 1
vn -0 0 1
vn -0 0 1
vn -0 0 1
vn -0 0 1
vn -0 0 1
vn -0 0 1
vn -0 0 1
vn -0 0 1
vn -0 0 1
vn -0 0 1
vn -0 0 1
vn -0 0 1
vn -0 0 1
vn -0 0 1
vn -0 0 1
vn -0 0 1
vn -0 0 1
vn -0 0 1
vn -0 0 1
vn -0 0 1
vn -0 0 1
vn -0 0 1
vn -0 0 1
vn -0 0 1
vn -0 0 1
vn -0 0 1
vn -0 0 1
vn -0 0 1
vn -0 0 1
vn -0 0 1
vn -0 0 1
vn -0 0 1
vn -0 0 1
vn -0 0 1
vn -0 0 1
vn -0 0 1
vn -0 0 1
vn -0 0 1
vn -0 0 1
vn -0 0 1
vn -0 0 1
vn -0 0 1
vn -0 0 1
vn -0 0 1
vn -0 0 1
vn -0 0 1
vn -0 0 1
vn -0 0 1
vn -0 0 1
vn -0 0 1
vn -0 0 1
vn -0 0 1
vn -0 0 1
vn -0 0 1
vn -0 0 1
vn -0 0 1
vn -0 0 1
g polySurface2_0
f 3/3/3 2/2/2 1/1/1
f 2/2/2 4/4/4 1/1/1
f 2/2/2 5/5/5 4/4/4
f 5/5/5 6/6/6 4/4/4
f 5/5/5 7/7/7 6/6/6
f 7/7/7 8/8/8 6/6/6
f 7/7/7 9/9/9 8/8/8
f 9/9/9 10/10/10 8/8/8
f 9/9/9 11/11/11 10/10/10
f 11/11/11 12/12/12 10/10/10
f 11/11/11 13/13/13 12/12/12
f 13/13/13 14/14/14 12/12/12
f 13/13/13 15/15/15 14/14/14
f 15/15/15 16/16/16 14/14/14
f 15/15/15 17/17/17 16/16/16
f 17/17/17 18/18/18 16/16/16
f 17/17/17 19/19/19 18/18/18
f 19/19/19 20/20/20 18/18/18
f 19/19/19 21/21/21 20/20/20
f 21/21/21 22/22/22 20/20/20
f 21/21/21 23/23/23 22/22/22
f 23/23/23 24/24/24 22/22/22
f 23/23/23 25/25/25 24/24/24
f 25/25/25 26/26/26 24/24/24
f 25/25/25 27/27/27 26/26/26
f 27/27/27 28/28/28 26/26/26
f 27/27/27 29/29/29 28/28/28
f 29/29/29 30/30/30 28/28/28
f 29/29/29 31/31/31 30/30/30
f 31/31/31 32/32/32 30/30/30
f 31/31/31 33/33/33 32/32/32
f 33/33/33 34/34/34 32/32/32
f 33/33/33 35/35/35 34/34/34
f 35/35/35 36/36/36 34/34/34
f 35/35/35 37/37/37 36/36/36
f 37/37/37 38/38/38 36/36/36
f 37/37/37 39/39/39 38/38/38
f 39/39/39 40/40/40 38/38/38
f 39/39/39 41/41/41 40/40/40
f 41/41/41 42/42/42 40/40/40
f 41/41/41 43/43/43 42/42/42
f 43/43/43 44/44/44 42/42/42
f 43/43/43 45/45/45 44/44/44
f 45/45/45 46/46/46 44/44/44
f 45/45/45 47/47/47 46/46/46
f 47/47/47 48/48/48 46/46/46
f 47/47/47 49/49/49 48/48/48
f 49/49/49 50/50/50 48/48/48
f 49/49/49 51/51/51 50/50/50
f 51/51/51 52/52/52 50/50/50
f 51/51/51 53/53/53 52/52/52
f 53/53/53 54/54/54 52/52/52
f 53/53/53 55/55/55 54/54/54
f 55/55/55 56/56/56 54/54/54
f 55/55/55 57/57/57 56/56/56
f 57/57/57 58/58/58 56/56/56
f 57/57/57 59/59/59 58/58/58
f 59/59/59 60/60/60 58/58/58
f 59/59/59 61/61/61 60/60/60
f 61/61/61 62/62/62 60/60/60
f 61/61/61 63/63/63 62/62/62
f 63/63/63 64/64/64 62/62/62
f 63/63/63 65/65/65 64/64/64
f 65/65/65 66/66/66 64/64/64
f 65/65/65 67/67/67 66/66/66
f 67/67/67 68/68/68 66/66/66
f 67/67/67 69/69/69 68/68/68
f 69/69/69 70/70/70 68/68/68
f 69/69/69 71/71/71 70/70/70
f 71/71/71 72/72/72 70/70/70
f 71/71/71 73/73/73 72/72/72
f 73/73/73 74/74/74 72/72/72
f 73/73/73 75/75/75 74/74/74
f 75/75/75 76/76/76 74/74/74
f 75/75/75 77/77/77 76/76/76
f 77/77/77 78/78/78 76/76/76
f 77/77/77 79/79/79 78/78/78
f 79/79/79 80/80/80 78/78/78
f 79/79/79 81/81/81 80/80/80
f 81/81/81 82/82/82 80/80/80
f 81/81/81 83/83/83 82/82/82
f 83/83/83 84/84/84 82/82/82
f 83/83/83 85/85/85 84/84/84
f 85/85/85 86/86/86 84/84/84
f 85/85/85 87/87/87 86/86/86
f 87/87/87 88/88/88 86/86/86
f 87/87/87 89/89/89 88/88/88
f 89/89/89 90/90/90 88/88/88
f 89/89/89 91/91/91 90/90/90
f 91/91/91 92/92/92 90/90/90
f 91/91/91 93/93/93 92/92/92
f 93/93/93 94/94/94 92/92/92
f 93/93/93 95/95/95 94/94/94
f 95/95/95 96/96/96 94/94/94
f 95/95/95 97/97/97 96/96/96
f 97/97/97 98/98/98 96/96/96
f 97/97/97 99/99/99 98/98/98
f 99/99/99 100/100/100 98/98/98
f 99/99/99 101/101/101 100/100/100
f 101/101/101 102/102/102 100/100/100
f 101/101/101 103/103/103 102/102/102
f 103/103/103 104/104/104 102/102/102
f 103/103/103 105/105/105 104/104/104
f 105/105/105 106/106/106 104/104/104
f 105/105/105 107/107/107 106/106/106
f 107/107/107 108/108/108 106/106/106
f 107/107/107 109/109/109 108/108/108
f 109/109/109 110/110/110 108/108/108
f 109/109/109 111/111/111 110/110/110
f 111/111/111 112/112/112 110/110/110
f 111/111/111 113/113/113 112/112/112
f 113/113/113 114/114/114 112/112/112
f 113/113/113 115/115/115 114/114/114
f 115/115/115 116/116/116 114/114/114
f 115/115/115 117/117/117 116/116/116
f 117/117/117 118/118/118 116/116/116
f 117/117/117 119/119/119 118/118/118
f 119/119/119 120/120/120 118/118/118
f 119/119/119 121/121/121 120/120/120
f 121/121/121 122/122/122 120/120/120
f 121/121/121 123/123/123 122/122/122
f 123/123/123 124/124/124 122/122/122
f 123/123/123 125/125/125 124/124/124
f 125/125/125 126/126/126 124/124/124
f 125/125/125 127/127/127 126/126/126
f 127/127/127 128/128/128 126/126/126
f 127/127/127 129/129/129 128/128/128
f 129/129/129 130/130/130 128/128/128
f 129/129/129 131/131/131 130/130/130
f 131/131/131 132/132/132 130/130/130
f 131/131/131 133/133/133 132/132/132
f 133/133/133 134/134/134 132/132/132
f 133/133/133 135/135/135 134/134/134
f 135/135/135 136/136/136 134/134/134
f 135/135/135 137/137/137 136/136/136
f 137/137/137 138/138/138 136/136/136
f 137/137/137 139/139/139 138/138/138
f 139/139/139 140/140/140 138/138/138
f 139/139/139 141/141/141 140/140/140
f 141/141/141 142/142/142 140/140/140
f 141/141/141 143/143/143 142/142/142
f 143/143/143 144/144/144 142/142/142
f 143/143/143 145/145/145 144/144/144
f 145/145/145 146/146/146 144/144/144
f 145/145/145 147/147/147 146/146/146
f 147/147/147 148/148/148 146/146/146
f 147/147/147 149/149/149 148/148/148
f 149/149/149 150/150/150 148/148/148
f 149/149/149 151/151/151 150/150/150
f 151/151/151 152/152/152 150/150/150
f 151/151/151 153/153/153 152/152/152
f 153/153/153 154/154/154 152/152/152
f 153/153/153 155/155/155 154/154/154
f 155/155/155 156/156/156 154/154/154
f 155/155/155 157/157/157 156/156/156
f 157/157/157 158/158/158 156/156/156
f 157/157/157 159/159/159 158/158/158
f 159/159/159 160/160/160 158/158/158
f 159/159/159 161/161/161 160/160/160
f 161/161/161 162/162/162 160/160/160
f 161/161/161 163/163/163 162/162/162
f 163/163/163 164/164/164 162/162/162
f 163/163/163 165/165/165 164/164/164
f 165/165/165 166/166/166 164/164/164
f 165/165/165 167/167/167 166/166/166
f 167/167/167 168/168/168 166/166/166
f 167/167/167 169/169/169 168/168/168
f 169/169/169 170/170/170 168/168/168
f 169/169/169 171/171/171 170/170/170
f 171/171/171 172/172/172 170/170/170
f 171/171/171 173/173/173 172/172/172
f 173/173/173 174/174/174 172/172/172
f 173/173/173 175/175/175 174/174/174
f 175/175/175 176/176/176 174/174/174
f 175/175/175 177/177/177 176/176/176
f 177/177/177 178/178/178 176/176/176
f 177/177/177 179/179/179 178/178/178
f 179/179/179 180/180/180 178/178/178
f 179/179/179 181/181/181 180/180/180
f 181/181/181 182/182/182 180/180/180
f 181/181/181 183/183/183 182/182/182
f 183/183/183 184/184/184 182/182/182
f 183/183/183 185/185/185 184/184/184
f 185/185/185 186/186/186 184/184/184
f 185/185/185 187/187/187 186/186/186
f 187/187/187 188/188/188 186/186/186
f 187/187/187 189/189/189 188/188/188
f 189/189/189 190/190/190 188/188/188
f 189/189/189 191/191/191 190/190/190
f 191/191/191 192/192/192 190/190/190
f 191/191/191 193/193/193 192/192/192
f 193/193/193 194/194/194 192/192/192
f 193/193/193 195/195/195 194/194/194
f 195/195/195 196/196/196 194/194/194
f 195/195/195 197/197/197 196/196/196
f 197/197/197 198/198/198 196/196/196
f 197/197/197 199/199/199 198/198/198
f 199/199/199 200/200/200 198/198/198
f 199/199/199 201/201/201 200/200/200
f 201/201/201 202/202/202 200/200/200
