g polySurface387
v 0.0535430908 0.0398052596 -0.0203417968
v 0.0535430908 0.194380417 0.247390136
v 0.0418078601 0.199653998 0.244343251
v 0.0418078601 0.0450786948 -0.0233862307
v 0.0535430908 0.145013273 0.275891095
v 0.0535430908 -0.00956165325 0.00815917924
v 0.0418078601 -0.0148352049 0.0112036131
v 0.0418078601 0.139739752 0.278935552
v -0.0535430908 0.0398052596 -0.0203417968
v -0.0535430908 0.194380417 0.247390136
v -0.0535430908 0.145013273 0.275891095
v -0.0535430908 -0.00956165325 0.00815917924
v 0.0535430908 -0.00956165325 0.00815917924
v 0.0535430908 0.145013273 0.275891095
v 0.0535430908 0.194380417 0.247390136
v 0.0535430908 0.0398052596 -0.0203417968
v -0.0355429053 -0.0281624589 0.0188989248
v -0.0355429053 0.126412049 0.286630839
v 0.0355422981 0.126412049 0.286630839
v 0.0355422981 -0.0281624589 0.0188989248
v -0.0355429053 0.212980881 0.236650392
v -0.0355429053 0.0584063344 -0.0310815424
v 0.0355422981 0.0584063344 -0.0310815424
v 0.0355422981 0.212980881 0.236650392
v -0.0418087766 -0.0148352049 0.0112036131
v -0.0535430908 -0.00956165325 0.00815917924
v -0.0535430908 0.145013273 0.275891095
v -0.0418087766 0.139739752 0.278935552
v -0.0418087766 0.199653998 0.244343251
v -0.0535430908 0.194380417 0.247390136
v -0.0535430908 0.0398052596 -0.0203417968
v -0.0418087766 0.0450786948 -0.0233862307
v 0.0418078601 -0.0148352049 0.0112036131
v 0.0355422981 -0.0281624589 0.0188989248
v 0.0355422981 0.126412049 0.286630839
v 0.0418078601 0.139739752 0.278935552
v -0.0418087766 0.139739752 0.278935552
v -0.0355429053 0.126412049 0.286630839
v -0.0355429053 -0.0281624589 0.0188989248
v -0.0418087766 -0.0148352049 0.0112036131
v 0.0418078601 0.199653998 0.244343251
v 0.0355422981 0.212980881 0.236650392
v 0.0355422981 0.0584063344 -0.0310815424
v 0.0418078601 0.0450786948 -0.0233862307
v -0.0418087766 0.0450786948 -0.0233862307
v -0.0355429053 0.0584063344 -0.0310815424
v -0.0355429053 0.212980881 0.236650392
v -0.0418087766 0.199653998 0.244343251
vt 0.289474934 0.746789217
vt 0.289475292 0.868140936
vt 0.295010298 0.868140936
vt 0.295009702 0.746789217
vt 0.265611619 0.868140936
vt 0.265611619 0.746789217
vt 0.260076731 0.746789217
vt 0.260076731 0.868140936
vt 0.344215572 0.746789217
vt 0.344214141 0.868140936
vt 0.368078053 0.868140936
vt 0.368079245 0.746789217
vt 0.265611619 0.746789217
vt 0.265611619 0.868140936
vt 0.289475292 0.868140936
vt 0.289474934 0.746789217
vt 0.223361716 0.746789217
vt 0.223361716 0.868140936
vt 0.253120303 0.868140936
vt 0.253120303 0.746789217
vt 0.331724584 0.868140936
vt 0.331724584 0.746789217
vt 0.301966161 0.746789217
vt 0.301966161 0.868140936
vt 0.373613656 0.746789217
vt 0.368079245 0.746789217
vt 0.368078053 0.868140936
vt 0.373612344 0.868140936
vt 0.338680089 0.868140936
vt 0.344214141 0.868140936
vt 0.344215572 0.746789217
vt 0.338680446 0.746789217
vt 0.260076731 0.746789217
vt 0.253120303 0.746789217
vt 0.253120303 0.868140936
vt 0.260076731 0.868140936
vt 0.373612344 0.868140936
vt 0.380568206 0.868140936
vt 0.380568802 0.746789217
vt 0.373613656 0.746789217
vt 0.295010298 0.868140936
vt 0.301966161 0.868140936
vt 0.301966161 0.746789217
vt 0.295009702 0.746789217
vt 0.338680446 0.746789217
vt 0.331724584 0.746789217
vt 0.331724584 0.868140936
vt 0.338680089 0.868140936
vn 0.4606089 0.768685997 -0.443803251
vn 0.4606089 0.768685997 -0.443803251
vn 0.4606089 0.768685997 -0.443803221
vn 0.4606089 0.768685997 -0.443803221
vn 0.46057272 -0.768703341 0.443810791
vn 0.460572749 -0.768703282 0.443810821
vn 0.46057272 -0.768703341 0.443810791
vn 0.46057272 -0.768703341 0.443810791
vn -1 0 0
vn -1 0 0
vn -1 0 0
vn -1 0 0
vn 1 0 0
vn 1 0 0
vn 1 0 0
vn 1 0 0
vn -0 -0.866026223 0.49999851
vn -0 -0.866026223 0.49999851
vn -0 -0.866026223 0.49999851
vn -0 -0.866026223 0.49999851
vn -0 0.866026223 -0.499998659
vn -0 0.866026223 -0.499998659
vn -0 0.866026223 -0.499998659
vn -0 0.866026223 -0.499998659
vn -0.46060127 -0.768690407 0.443803281
vn -0.46060133 -0.768690407 0.443803281
vn -0.46060133 -0.768690407 0.443803281
vn -0.46060133 -0.768690407 0.443803251
vn -0.460636884 0.76867336 -0.443795919
vn -0.460636914 0.76867336 -0.44379586
vn -0.460636884 0.76867336 -0.443795919
vn -0.460636914 0.76867336 -0.44379586
vn 0.926182091 -0.326558053 0.188538
vn 0.926182091 -0.326558053 0.18853803
vn 0.926182091 -0.326558053 0.188538015
vn 0.926182091 -0.326558113 0.188538045
vn -0.926175654 -0.326571733 0.188545749
vn -0.926175654 -0.326571733 0.188545749
vn -0.926175654 -0.326571763 0.188545763
vn -0.926175654 -0.326571763 0.188545749
vn 0.926175356 0.326571941 -0.188547224
vn 0.926175356 0.326571941 -0.188547224
vn 0.926175356 0.326571941 -0.188547209
vn 0.926175356 0.326571941 -0.188547224
vn -0.926169097 0.326585174 -0.188555151
vn -0.926169097 0.326585144 -0.188555136
vn -0.926169097 0.326585174 -0.188555151
vn -0.926169097 0.326585114 -0.188555151
g polySurface387_0
f 3/3/3 2/2/2 1/1/1
f 4/4/4 3/3/3 1/1/1
f 7/7/7 6/6/6 5/5/5
f 8/8/8 7/7/7 5/5/5
f 11/11/11 10/10/10 9/9/9
f 12/12/12 11/11/11 9/9/9
f 15/15/15 14/14/14 13/13/13
f 16/16/16 15/15/15 13/13/13
f 19/19/19 18/18/18 17/17/17
f 20/20/20 19/19/19 17/17/17
f 23/23/23 22/22/22 21/21/21
f 24/24/24 23/23/23 21/21/21
f 27/27/27 26/26/26 25/25/25
f 28/28/28 27/27/27 25/25/25
f 31/31/31 30/30/30 29/29/29
f 32/32/32 31/31/31 29/29/29
f 35/35/35 34/34/34 33/33/33
f 36/36/36 35/35/35 33/33/33
f 39/39/39 38/38/38 37/37/37
f 40/40/40 39/39/39 37/37/37
f 43/43/43 42/42/42 41/41/41
f 44/44/44 43/43/43 41/41/41
f 47/47/47 46/46/46 45/45/45
f 48/48/48 47/47/47 45/45/45
