g polySurface388
v 0.0171008296 0.0100525664 0.340322256
v -1.2207031E-06 0.00180442806 0.343732893
v -0.0171029661 0.0100529473 0.340319812
v 0.0318829343 0.0456993841 0.150161132
v 0.0450912453 0.129904255 -0.0408984348
v 0.0318829343 0.0991050676 -0.0491528325
v 0.0450912453 0.0556002036 0.236406252
v 0.0318829343 0.160702124 -0.0326464847
v 0.0318829343 0.0248020161 0.228154287
v -1.2207031E-06 0.0120441439 0.224733889
v -1.2207031E-06 0.032942351 0.146743163
v 0.0318829343 0.0863985419 0.244658202
v -1.2207031E-06 0.0991546586 0.248073727
v -1.2207031E-06 0.173459008 -0.0292285141
v -0.0318850689 0.0863985419 0.244658202
v -0.0318850689 0.160702124 -0.0326464847
v -0.0450912453 0.0556002036 0.236406252
v -0.0450912453 0.129904255 -0.0408984348
v -0.0318850689 0.0456993841 0.150161132
v -0.0318850689 0.0991050676 -0.0491528325
v -0.0318850689 0.0248020161 0.228154287
v -1.2207031E-06 0.032942351 0.146743163
v -1.2207031E-06 0.0120441439 0.224733889
v 0.0318829343 0.160702124 -0.0326464847
v -1.2207031E-06 0.173459008 -0.0292285141
v -0.0318850689 0.160702124 -0.0326464847
v 0.0450912453 0.129904255 -0.0408984348
v -0.0450912453 0.129904255 -0.0408984348
v -0.0318850689 0.0991050676 -0.0491528325
v 0.0318829343 0.0991050676 -0.0491528325
v 0.0318829343 0.0422681421 -0.0643823221
v -0.0318850689 0.0422681421 -0.0643823221
v -0.0171008296 0.0390821062 0.231977537
v -1.2207031E-06 0.00180442806 0.343732893
v -1.2207031E-06 0.0322410576 0.230148926
v -0.0171029661 0.0100529473 0.340319812
v -0.0241839588 0.0556002036 0.236406252
v -0.0241839588 0.0304750819 0.330178201
v -0.0171008296 0.0721167773 0.240832508
v -0.0171008296 0.0508950017 0.32003662
v -1.2207031E-06 0.0789596513 0.242666006
v -1.2207031E-06 0.0593528748 0.315832525
v 0.0170986932 0.0721167773 0.240832508
v 0.0170986932 0.0508952327 0.32003662
v 0.0241818223 0.0556002036 0.236406252
v 0.0241818223 0.0304718781 0.330178201
v 0.0170986932 0.0390821062 0.231977537
v 0.0171008296 0.0100525664 0.340322256
v -1.2207031E-06 0.0322410576 0.230148926
v -1.2207031E-06 0.00180442806 0.343732893
v 0.0241818223 0.0304718781 0.330178201
v 0.0171008296 0.0100525664 0.340322256
v -0.0171029661 0.0100529473 0.340319812
v -0.0241839588 0.0304750819 0.330178201
v -0.0171008296 0.0508950017 0.32003662
v 0.0170986932 0.0508952327 0.32003662
v -1.2207031E-06 0.0593528748 0.315832525
v -0.0318850689 0.0456993841 0.150161132
v -0.0318850689 0.0166567229 0.10196045
v -0.0318850689 0.0422681421 -0.0643823221
v -0.0318850689 0.0991050676 -0.0491528325
v 0.0318829343 0.0166567229 0.10196045
v 0.0318829343 0.0456993841 0.150161132
v 0.0318829343 0.0991050676 -0.0491528325
v 0.0318829343 0.0422681421 -0.0643823221
v 0.0318829343 0.0166567229 0.10196045
v 0.0318829343 0.0422681421 -0.0643823221
v -0.0318850689 0.0422681421 -0.0643823221
v -0.0318850689 0.0166567229 0.10196045
v -0.0318850689 0.0166567229 0.10196045
v -0.0318850689 0.0456993841 0.150161132
v -1.2207031E-06 0.032942351 0.146743163
v 0.0318829343 0.0166567229 0.10196045
v 0.0318829343 0.0456993841 0.150161132
v 0.0278713983 0.181784049 -0.0269970689
v 0.0278713983 0.0170426182 -0.0711401328
v -0.0278704837 0.0170426182 -0.0711401328
v -0.0278704837 0.181784049 -0.0269970689
v 0.0278713983 0.0170426182 -0.0711401328
v 0.0278713983 0.0259885397 -0.104526363
v -0.0278704837 0.0259885397 -0.104526363
v -0.0278704837 0.0170426182 -0.0711401328
v 0.0278713983 0.0259885397 -0.104526363
v 0.0278713983 0.190729901 -0.0603833012
v -0.0278704837 0.190729901 -0.0603833012
v -0.0278704837 0.0259885397 -0.104526363
v 0.0278713983 0.190729901 -0.0603833012
v 0.0278713983 0.181784049 -0.0269970689
v -0.0278704837 0.181784049 -0.0269970689
v -0.0278704837 0.190729901 -0.0603833012
v -0.0278704837 0.181784049 -0.0269970689
v -0.0278704837 0.0170426182 -0.0711401328
v -0.0278704837 0.0259885397 -0.104526363
v -0.0278704837 0.190729901 -0.0603833012
v 0.0278713983 0.190729901 -0.0603833012
v 0.0278713983 0.0259885397 -0.104526363
v 0.0278713983 0.0170426182 -0.0711401328
v 0.0278713983 0.181784049 -0.0269970689
v -0.0318850689 0.0863985419 0.244658202
v -0.0241839588 0.0556002036 0.236406252
v -0.0450912453 0.0556002036 0.236406252
v -0.0171008296 0.0721167773 0.240832508
v -0.0171008296 0.0390821062 0.231977537
v -1.2207031E-06 0.0991546586 0.248073727
v -0.0318850689 0.0248020161 0.228154287
v -1.2207031E-06 0.0789596513 0.242666006
v -1.2207031E-06 0.0322410576 0.230148926
v 0.0318829343 0.0863985419 0.244658202
v -1.2207031E-06 0.0120441439 0.224733889
v 0.0170986932 0.0721167773 0.240832508
v 0.0170986932 0.0390821062 0.231977537
v 0.0450912453 0.0556002036 0.236406252
v 0.0318829343 0.0248020161 0.228154287
v 0.0241818223 0.0556002036 0.236406252
vt 0.634737134 0.244802773
vt 0.640830398 0.247981369
vt 0.646923304 0.244802296
vt 0.718633175 0.48988536
vt 0.645101786 0.477586776
vt 0.645101786 0.48988536
vt 0.747406006 0.477586776
vt 0.645102262 0.465289861
vt 0.747406006 0.48988536
vt 0.747406006 0.502163649
vt 0.718633175 0.502163649
vt 0.747406006 0.465289861
vt 0.747406006 0.452993661
vt 0.645102262 0.452993661
vt 0.747406006 0.440706998
vt 0.645102262 0.440706998
vt 0.747406006 0.428419799
vt 0.645101786 0.428419799
vt 0.718633175 0.416132897
vt 0.645101786 0.416132897
vt 0.747406006 0.416132897
vt 0.718633175 0.403845757
vt 0.747406006 0.403845757
vt 0.632816076 0.144171521
vt 0.641640544 0.147833094
vt 0.650464654 0.144171521
vt 0.629169464 0.13533169
vt 0.654110432 0.13533169
vt 0.650433898 0.126491427
vt 0.632847071 0.126491427
vt 0.632847071 0.110177755
vt 0.650433898 0.110177755
vt 0.634768724 0.421490073
vt 0.641384482 0.463480592
vt 0.641384482 0.421490073
vt 0.634768724 0.461541772
vt 0.628154874 0.421490073
vt 0.628154874 0.456156135
vt 0.621566296 0.421490073
vt 0.621566296 0.450770736
vt 0.615002513 0.421490073
vt 0.615002513 0.448539376
vt 0.608472347 0.421490073
vt 0.608472347 0.450770736
vt 0.601943731 0.421490073
vt 0.601943731 0.456157088
vt 0.59541297 0.421490073
vt 0.59541297 0.461542487
vt 0.588883162 0.421490073
vt 0.588883162 0.463480592
vt 0.632214069 0.236681074
vt 0.634737134 0.244802773
vt 0.646923304 0.244802296
vt 0.649446607 0.236679882
vt 0.646922708 0.228557914
vt 0.634737968 0.228557914
vt 0.640830398 0.225194544
vt 0.314647377 0.357305557
vt 0.328556716 0.371743947
vt 0.388158083 0.378268033
vt 0.388158083 0.357305557
vt 0.452958494 0.3843126
vt 0.466867238 0.369874448
vt 0.393357068 0.369874448
vt 0.393357068 0.390836686
vt 0.649883807 0.353960901
vt 0.649883807 0.307118088
vt 0.632421315 0.307118088
vt 0.632421315 0.353960901
vt 0.63962692 0.0815959126
vt 0.63962692 0.0657668263
vt 0.630800009 0.0681870133
vt 0.621972859 0.0815959126
vt 0.621972859 0.0657668263
vt 0.411754161 0.0885077119
vt 0.358368069 0.0885076821
vt 0.358368069 0.106048971
vt 0.411754161 0.106049001
vt 0.395775318 0.320849121
vt 0.383461833 0.320849121
vt 0.383461833 0.340707242
vt 0.395775318 0.340707242
vt 0.383461833 0.320849121
vt 0.322702229 0.320849061
vt 0.322702229 0.340707183
vt 0.383461833 0.340707242
vt 0.322702229 0.320849061
vt 0.310388803 0.320849121
vt 0.310388803 0.340707242
vt 0.322702229 0.340707183
vt 0.322702229 0.353020549
vt 0.383461833 0.353020608
vt 0.383461833 0.340707242
vt 0.322702229 0.340707183
vt 0.322702229 0.320849061
vt 0.383461833 0.320849121
vt 0.383461833 0.308535516
vt 0.322702229 0.308535457
vt 0.691124678 0.498275578
vt 0.702491283 0.50098747
vt 0.702469766 0.493538916
vt 0.696406245 0.503527701
vt 0.708590448 0.503493428
vt 0.686451793 0.509647548
vt 0.713842094 0.49821189
vt 0.69389987 0.509626508
vt 0.711130321 0.509578347
vt 0.691188753 0.520992994
vt 0.71857971 0.509557188
vt 0.696440995 0.515711367
vt 0.708625138 0.515677094
vt 0.702560782 0.525666475
vt 0.713906109 0.520929277
vt 0.702539682 0.518217444
vn -6.169267E-05 0.382236868 0.924064338
vn -6.16926773E-05 0.382236868 0.924064338
vn -6.169267E-05 0.382236868 0.924064338
vn 0.87421459 -0.468995363 -0.125666812
vn 0.999509811 0.0302419271 0.00810347218
vn 0.923871279 -0.369663119 -0.0990509689
vn 0.9784922 0.199254543 0.0533906743
vn 0.707091331 0.683027208 0.183018178
vn 0.603761673 -0.770002544 -0.206319973
vn -0 -0.965925813 -0.258818716
vn -0 -0.965925813 -0.258818716
vn 0.707100332 0.683018506 0.183015853
vn 1.85709453E-07 0.965925157 0.258821577
vn 1.85718804E-07 0.965925157 0.258821577
vn -0.707119465 0.683000028 0.183010802
vn -0.707110524 0.68300873 0.183013141
vn -0.978498638 0.199225381 0.0533828586
vn -0.999509931 0.0302369799 0.00810217299
vn -0.874238431 -0.468953967 -0.125655696
vn -0.923893034 -0.369612098 -0.0990372524
vn -0.603775203 -0.76999265 -0.20631735
vn -0 -0.965925813 -0.258818716
vn -0 -0.965925813 -0.258818716
vn -0 0.258800596 -0.9659307
vn -0 0.258800596 -0.9659307
vn -0 0.258800596 -0.9659307
vn -0 0.258809924 -0.965928257
vn -0 0.258809924 -0.965928257
vn -0 0.258820206 -0.965925515
vn -0 0.258820206 -0.965925515
vn -0 0.258820206 -0.965925515
vn -0 0.258820206 -0.965925515
vn -0.693314791 -0.696078181 -0.186520189
vn 2.67567848E-05 -0.965924144 -0.258825213
vn 6.14910641E-06 -0.965924144 -0.258825213
vn -0.584150672 -0.783987463 -0.210075468
vn -0.99948287 -0.0310568828 -0.00832722243
vn -0.979537606 -0.194402069 -0.0520956628
vn -0.725404203 0.66486901 0.178151742
vn -0.800127745 0.579391241 0.155246466
vn -3.17361719E-06 0.965924382 0.25882417
vn -3.82173721E-06 0.965924382 0.258824199
vn 0.725422621 0.66484952 0.178149402
vn 0.80014348 0.579369843 0.155244976
vn 0.999483109 -0.0310522951 -0.00832580496
vn 0.979533672 -0.194419846 -0.0521030128
vn 0.693287015 -0.696103334 -0.186529562
vn 0.584117353 -0.784010172 -0.210082948
vn 6.14910641E-06 -0.965924144 -0.258825213
vn 2.67567848E-05 -0.965924144 -0.258825213
vn 4.44076795E-06 0.444812983 0.895623446
vn -7.16775367E-06 0.444841683 0.8956092
vn -7.16775367E-06 0.444841653 0.8956092
vn 4.44159696E-06 0.444813102 0.895623446
vn 1.60513646E-05 0.444784492 0.895637691
vn 1.60513628E-05 0.444784433 0.895637691
vn -2.95241443E-06 0.445113093 0.895474374
vn -1 4.19030357E-07 0
vn -1 4.19030414E-07 0
vn -1 4.19030357E-07 0
vn -1 4.19030414E-07 0
vn 1 0 0
vn 1 0 0
vn 1 0 0
vn 1 0 0
vn -0 -0.98835361 -0.152174428
vn -0 -0.98835361 -0.152174428
vn -0 -0.98835361 -0.152174428
vn -0 -0.98835361 -0.152174428
vn -0.0778704286 -0.917845309 0.389225066
vn -0.276201665 -0.823213756 0.496015906
vn -4.00789816E-07 -0.897941411 0.440115035
vn 0.0778708905 -0.917844951 0.38922587
vn 0.276199132 -0.823214352 0.496016294
vn -0 -0.258823037 0.96592474
vn -0 -0.258823037 0.96592474
vn -0 -0.258823037 0.96592474
vn -0 -0.258823037 0.96592474
vn -0 -0.965924919 -0.258822322
vn -0 -0.965924919 -0.258822322
vn -0 -0.965924919 -0.258822322
vn -0 -0.965924919 -0.258822322
vn -0 0.258823246 -0.96592474
vn -0 0.258823246 -0.96592474
vn -0 0.258823246 -0.96592474
vn -0 0.258823246 -0.96592474
vn -0 0.965925694 0.258819371
vn -0 0.965925694 0.258819371
vn -0 0.965925694 0.258819371
vn -0 0.965925694 0.258819371
vn -1 -1.29421693E-07 0
vn -1 -1.29421693E-07 0
vn -1 -1.29421693E-07 0
vn -1 -1.29421679E-07 0
vn 1 0 0
vn 1 0 0
vn 1 0 0
vn 1 0 0
vn -1.43400357E-05 -0.258755893 0.96594274
vn 3.05421563E-05 -0.258820325 0.965925515
vn 3.05427529E-05 -0.258820325 0.965925515
vn -1.43407497E-05 -0.258755952 0.96594274
vn 2.19733683E-05 -0.258817405 0.96592629
vn -0 -0.258699745 0.965957761
vn 2.19760605E-05 -0.258817405 0.96592629
vn -0 -0.258699685 0.965957761
vn -1.86304447E-07 -0.258806735 0.965929031
vn 1.43398174E-05 -0.258756191 0.96594274
vn -1.8617439E-07 -0.258806735 0.965929031
vn 1.43401876E-05 -0.258756191 0.96594274
vn -2.21586433E-05 -0.258817345 0.96592629
vn -3.05407193E-05 -0.258820057 0.965925634
vn -2.21631253E-05 -0.258817345 0.96592629
vn -3.0540119E-05 -0.258819997 0.965925634
g polySurface388_0
f 3/3/3 2/2/2 1/1/1
f 6/6/6 5/5/5 4/4/4
f 5/5/5 7/7/7 4/4/4
f 5/5/5 8/8/8 7/7/7
f 7/7/7 9/9/9 4/4/4
f 4/4/4 9/9/9 10/10/10
f 11/11/11 4/4/4 10/10/10
f 8/8/8 12/12/12 7/7/7
f 13/13/13 12/12/12 8/8/8
f 14/14/14 13/13/13 8/8/8
f 15/15/15 13/13/13 14/14/14
f 16/16/16 15/15/15 14/14/14
f 17/17/17 15/15/15 16/16/16
f 18/18/18 17/17/17 16/16/16
f 19/19/19 17/17/17 18/18/18
f 20/20/20 19/19/19 18/18/18
f 19/19/19 21/21/21 17/17/17
f 19/19/19 22/22/22 21/21/21
f 22/22/22 23/23/23 21/21/21
f 26/26/26 25/25/25 24/24/24
f 26/26/26 24/24/24 27/27/27
f 28/28/28 26/26/26 27/27/27
f 28/28/28 27/27/27 29/29/29
f 27/27/27 30/30/30 29/29/29
f 30/30/30 31/31/31 29/29/29
f 31/31/31 32/32/32 29/29/29
f 35/35/35 34/34/34 33/33/33
f 34/34/34 36/36/36 33/33/33
f 33/33/33 36/36/36 37/37/37
f 36/36/36 38/38/38 37/37/37
f 37/37/37 38/38/38 39/39/39
f 38/38/38 40/40/40 39/39/39
f 39/39/39 40/40/40 41/41/41
f 40/40/40 42/42/42 41/41/41
f 41/41/41 42/42/42 43/43/43
f 42/42/42 44/44/44 43/43/43
f 43/43/43 44/44/44 45/45/45
f 44/44/44 46/46/46 45/45/45
f 45/45/45 46/46/46 47/47/47
f 46/46/46 48/48/48 47/47/47
f 47/47/47 48/48/48 49/49/49
f 48/48/48 50/50/50 49/49/49
f 53/53/53 52/52/52 51/51/51
f 54/54/54 53/53/53 51/51/51
f 55/55/55 54/54/54 51/51/51
f 56/56/56 55/55/55 51/51/51
f 56/56/56 57/57/57 55/55/55
f 60/60/60 59/59/59 58/58/58
f 61/61/61 60/60/60 58/58/58
f 64/64/64 63/63/63 62/62/62
f 65/65/65 64/64/64 62/62/62
f 68/68/68 67/67/67 66/66/66
f 69/69/69 68/68/68 66/66/66
f 72/72/72 71/71/71 70/70/70
f 72/72/72 70/70/70 73/73/73
f 74/74/74 72/72/72 73/73/73
f 77/77/77 76/76/76 75/75/75
f 78/78/78 77/77/77 75/75/75
f 81/81/81 80/80/80 79/79/79
f 82/82/82 81/81/81 79/79/79
f 85/85/85 84/84/84 83/83/83
f 86/86/86 85/85/85 83/83/83
f 89/89/89 88/88/88 87/87/87
f 90/90/90 89/89/89 87/87/87
f 93/93/93 92/92/92 91/91/91
f 94/94/94 93/93/93 91/91/91
f 97/97/97 96/96/96 95/95/95
f 98/98/98 97/97/97 95/95/95
f 101/101/101 100/100/100 99/99/99
f 100/100/100 102/102/102 99/99/99
f 103/103/103 100/100/100 101/101/101
f 99/99/99 102/102/102 104/104/104
f 105/105/105 103/103/103 101/101/101
f 102/102/102 106/106/106 104/104/104
f 107/107/107 103/103/103 105/105/105
f 104/104/104 106/106/106 108/108/108
f 109/109/109 107/107/107 105/105/105
f 106/106/106 110/110/110 108/108/108
f 111/111/111 107/107/107 109/109/109
f 108/108/108 110/110/110 112/112/112
f 113/113/113 111/111/111 109/109/109
f 110/110/110 114/114/114 112/112/112
f 114/114/114 111/111/111 113/113/113
f 112/112/112 114/114/114 113/113/113
