g Plane002
v -0.324041396 -0.24515076 0
v -0.199858353 -0.226195127 0
v -0.202787235 -0.191526994 0
v -0.327685297 -0.202005491 0
v -0.204477727 -0.159155235 0
v -0.329812974 -0.161232516 0
v -0.204969808 -0.129136324 0
v -0.330440074 -0.12285357 0
v -0.204317465 -0.101533309 0
v -0.329587519 -0.0868933275 0
v -0.202593461 -0.0764140114 0
v -0.32728368 -0.0533781312 0
v -0.199894622 -0.0538470745 0
v -0.323566258 -0.0223347321 0
v -0.196347564 -0.0338954367 0
v -0.318484396 0.00621248409 0
v -0.191475511 -0.0142479669 0
v -0.311549991 0.0342997797 0
v -0.182692602 0.0165948439 0
v -0.300455421 0.0731821954 0
v -0.178794578 0.0297018196 0
v -0.289587229 0.102934301 0
v -0.177163869 0.0334453173 0
v -0.277645141 0.123968549 0
v -0.176039696 0.0360929742 0
v -0.26250726 0.139461219 0
v -0.171807289 0.038255319 0
v -0.238692328 0.153170615 0
v -0.15218097 0.0444179997 0
v -0.201095551 0.16527161 0
v -0.1357034 0.0476678014 0
v -0.175930828 0.170269117 0
v -0.112062439 0.0510173067 0
v -0.144308552 0.174758434 0
v -0.0833780169 0.0539319068 0
v -0.107745238 0.178476945 0
v -0.0511327051 0.0561759062 0
v -0.0675092712 0.181278378 0
v -0.0196742341 0.0564539917 0
v -0.0247705802 0.183055222 0
v 0.0161089189 0.0548782647 0
v 0.0193415321 0.183716342 0
v 0.0520072058 0.0544451997 0
v 0.0637108907 0.183180526 0
v 0.0869154036 0.0529982187 0
v 0.107215934 0.181375906 0
v 0.122783892 0.0538001321 0
v 0.148710638 0.178244695 0
v 0.152073473 0.0503716581 0
v 0.186996549 0.173756719 0
v 0.176331595 0.0462096073 0
v 0.220770925 0.167945355 0
v 0.193451047 0.0419647358 0
v 0.248522356 0.161009178 0
v 0.201121792 0.039159406 0
v 0.27071324 0.152510524 0
v 0.203248784 0.0378542766 0
v 0.293897629 0.136850342 0
v 0.204671413 0.0359912626 0
v 0.310501069 0.116819151 0
v 0.208618179 0.0276377257 0
v 0.323082685 0.0910994709 0
v 0.213683948 0.0103330659 0
v 0.332398862 0.0597247332 0
v 0.218503237 -0.0150280558 0
v 0.339221478 0.0240339078 0
v 0.223198578 -0.0467829742 0
v 0.344901115 -0.0143354926 0
v 0.2291926 -0.0838420019 0
v 0.351294607 -0.0539683998 0
v 0.230744883 -0.112567283 0
v 0.357899338 -0.0892543048 0
v 0.234007567 -0.137673497 0
v 0.362379342 -0.123733483 0
v 0.23369734 -0.163982108 0
v 0.364884287 -0.158903733 0
v 0.233544096 -0.190479383 0
v 0.365404397 -0.194788113 0
v 0.236733422 -0.217214674 0
v 0.363926947 -0.231405839 0
v 0.236257046 -0.24495697 0
v 0.360436797 -0.268772185 0
vt 0 0.53664434
vt 0 0.804966509
vt 0.0250000004 0.804966509
vt 0.0250000004 0.53664434
vt 0.0500000007 0.804966509
vt 0.0500000007 0.53664434
vt 0.075000003 0.804966509
vt 0.075000003 0.53664434
vt 0.100000001 0.804966509
vt 0.100000001 0.53664434
vt 0.125 0.804966509
vt 0.125 0.53664434
vt 0.150000006 0.804966509
vt 0.150000006 0.53664434
vt 0.175000012 0.804966509
vt 0.175000012 0.53664434
vt 0.200000018 0.804966509
vt 0.200000018 0.53664434
vt 0.225000024 0.804966509
vt 0.225000024 0.53664434
vt 0.25000003 0.804966509
vt 0.25000003 0.53664434
vt 0.275000036 0.804966509
vt 0.275000036 0.53664434
vt 0.300000042 0.804966509
vt 0.300000042 0.53664434
vt 0.325000048 0.804966509
vt 0.325000048 0.53664434
vt 0.350000054 0.804966509
vt 0.350000054 0.53664434
vt 0.37500006 0.804966509
vt 0.37500006 0.53664434
vt 0.400000066 0.804966509
vt 0.400000066 0.53664434
vt 0.425000072 0.804966509
vt 0.425000072 0.53664434
vt 0.450000077 0.804966509
vt 0.450000077 0.53664434
vt 0.475000083 0.804966509
vt 0.475000083 0.53664434
vt 0.50000006 0.804966509
vt 0.50000006 0.53664434
vt 0.525000036 0.804966509
vt 0.525000036 0.53664434
vt 0.550000012 0.804966509
vt 0.550000012 0.53664434
vt 0.574999988 0.804966509
vt 0.574999988 0.53664434
vt 0.599999964 0.804966509
vt 0.599999964 0.53664434
vt 0.62499994 0.804966509
vt 0.62499994 0.53664434
vt 0.649999917 0.804966509
vt 0.649999917 0.53664434
vt 0.674999893 0.804966509
vt 0.674999893 0.53664434
vt 0.699999869 0.804966509
vt 0.699999869 0.53664434
vt 0.724999845 0.804966509
vt 0.724999845 0.53664434
vt 0.749999821 0.804966509
vt 0.749999821 0.53664434
vt 0.774999797 0.804966509
vt 0.774999797 0.53664434
vt 0.799999774 0.804966509
vt 0.799999774 0.53664434
vt 0.82499975 0.804966509
vt 0.82499975 0.53664434
vt 0.849999726 0.804966509
vt 0.849999726 0.53664434
vt 0.874999702 0.804966509
vt 0.874999702 0.53664434
vt 0.899999678 0.804966509
vt 0.899999678 0.53664434
vt 0.924999654 0.804966509
vt 0.924999654 0.53664434
vt 0.94999963 0.804966509
vt 0.94999963 0.53664434
vt 0.974999607 0.804966509
vt 0.974999607 0.53664434
vt 0.999999583 0.804966509
vt 0.999999583 0.53664434
vn -0 0 -1
vn -0 0 -1
vn -0 0 -1
vn -0 0 -1
vn -0 0 -1
vn -0 0 -1
vn -0 0 -1
vn -0 0 -1
vn -0 0 -1
vn -0 0 -1
vn -0 0 -1
vn -0 0 -1
vn -0 0 -1
vn -0 0 -1
vn -0 0 -1
vn -0 0 -1
vn -0 0 -1
vn -0 0 -1
vn -0 0 -1
vn -0 0 -1
vn -0 0 -1
vn -0 0 -1
vn -0 0 -1
vn -0 0 -1
vn -0 0 -1
vn -0 0 -1
vn -0 0 -1
vn -0 0 -1
vn -0 0 -1
vn -0 0 -1
vn -0 0 -1
vn -0 0 -1
vn -0 0 -1
vn -0 0 -1
vn -0 0 -1
vn -0 0 -1
vn -0 0 -1
vn -0 0 -1
vn -0 0 -1
vn -0 0 -1
vn -0 0 -1
vn -0 0 -1
vn -0 0 -1
vn -0 0 -1
vn -0 0 -1
vn -0 0 -1
vn -0 0 -1
vn -0 0 -1
vn -0 0 -1
vn -0 0 -1
vn -0 0 -1
vn -0 0 -1
vn -0 0 -1
vn -0 0 -1
vn -0 0 -1
vn -0 0 -1
vn -0 0 -1
vn -0 0 -1
vn -0 0 -1
vn -0 0 -1
vn -0 0 -1
vn -0 0 -1
vn -0 0 -1
vn -0 0 -1
vn -0 0 -1
vn -0 0 -1
vn -0 0 -1
vn -0 0 -1
vn -0 0 -1
vn -0 0 -1
vn -0 0 -1
vn -0 0 -1
vn -0 0 -1
vn -0 0 -1
vn -0 0 -1
vn -0 0 -1
vn -0 0 -1
vn -0 0 -1
vn -0 0 -1
vn -0 0 -1
vn -0 0 -1
vn -0 0 -1
g Plane002_0
f 3/3/3 2/2/2 1/1/1
f 4/4/4 3/3/3 1/1/1
f 5/5/5 3/3/3 4/4/4
f 6/6/6 5/5/5 4/4/4
f 7/7/7 5/5/5 6/6/6
f 8/8/8 7/7/7 6/6/6
f 9/9/9 7/7/7 8/8/8
f 10/10/10 9/9/9 8/8/8
f 11/11/11 9/9/9 10/10/10
f 12/12/12 11/11/11 10/10/10
f 13/13/13 11/11/11 12/12/12
f 14/14/14 13/13/13 12/12/12
f 15/15/15 13/13/13 14/14/14
f 16/16/16 15/15/15 14/14/14
f 17/17/17 15/15/15 16/16/16
f 18/18/18 17/17/17 16/16/16
f 19/19/19 17/17/17 18/18/18
f 20/20/20 19/19/19 18/18/18
f 21/21/21 19/19/19 20/20/20
f 22/22/22 21/21/21 20/20/20
f 23/23/23 21/21/21 22/22/22
f 24/24/24 23/23/23 22/22/22
f 25/25/25 23/23/23 24/24/24
f 26/26/26 25/25/25 24/24/24
f 27/27/27 25/25/25 26/26/26
f 28/28/28 27/27/27 26/26/26
f 29/29/29 27/27/27 28/28/28
f 30/30/30 29/29/29 28/28/28
f 31/31/31 29/29/29 30/30/30
f 32/32/32 31/31/31 30/30/30
f 33/33/33 31/31/31 32/32/32
f 34/34/34 33/33/33 32/32/32
f 35/35/35 33/33/33 34/34/34
f 36/36/36 35/35/35 34/34/34
f 37/37/37 35/35/35 36/36/36
f 38/38/38 37/37/37 36/36/36
f 39/39/39 37/37/37 38/38/38
f 40/40/40 39/39/39 38/38/38
f 41/41/41 39/39/39 40/40/40
f 42/42/42 41/41/41 40/40/40
f 43/43/43 41/41/41 42/42/42
f 44/44/44 43/43/43 42/42/42
f 45/45/45 43/43/43 44/44/44
f 46/46/46 45/45/45 44/44/44
f 47/47/47 45/45/45 46/46/46
f 48/48/48 47/47/47 46/46/46
f 49/49/49 47/47/47 48/48/48
f 50/50/50 49/49/49 48/48/48
f 51/51/51 49/49/49 50/50/50
f 52/52/52 51/51/51 50/50/50
f 53/53/53 51/51/51 52/52/52
f 54/54/54 53/53/53 52/52/52
f 55/55/55 53/53/53 54/54/54
f 56/56/56 55/55/55 54/54/54
f 57/57/57 55/55/55 56/56/56
f 58/58/58 57/57/57 56/56/56
f 59/59/59 57/57/57 58/58/58
f 60/60/60 59/59/59 58/58/58
f 61/61/61 59/59/59 60/60/60
f 62/62/62 61/61/61 60/60/60
f 63/63/63 61/61/61 62/62/62
f 64/64/64 63/63/63 62/62/62
f 65/65/65 63/63/63 64/64/64
f 66/66/66 65/65/65 64/64/64
f 67/67/67 65/65/65 66/66/66
f 68/68/68 67/67/67 66/66/66
f 69/69/69 67/67/67 68/68/68
f 70/70/70 69/69/69 68/68/68
f 71/71/71 69/69/69 70/70/70
f 72/72/72 71/71/71 70/70/70
f 73/73/73 71/71/71 72/72/72
f 74/74/74 73/73/73 72/72/72
f 75/75/75 73/73/73 74/74/74
f 76/76/76 75/75/75 74/74/74
f 77/77/77 75/75/75 76/76/76
f 78/78/78 77/77/77 76/76/76
f 79/79/79 77/77/77 78/78/78
f 80/80/80 79/79/79 78/78/78
f 81/81/81 79/79/79 80/80/80
f 82/82/82 81/81/81 80/80/80
