g Cone001
v 0.0784903094 0.241568372 0
v 0.0349859223 0.332868934 0.127000004
v 0.0265502166 0.252608567 0
v 0.103428736 0.31832096 0.127000004
v 0.0398253277 0.378912836 0.254000008
v 0.126999989 0.219970465 0
v 0.11773546 0.36235255 0.254000008
v 0.167351216 0.289860845 0.127000004
v 0.169959158 0.188758805 0
v 0.190499991 0.329955667 0.254000008
v 0.223959625 0.248732388 0.127000004
v 0.205490306 0.149297446 0
v 0.254938751 0.283138186 0.254000008
v 0.270779967 0.196733162 0.127000004
v 0.232040539 0.103311114 0
v 0.308235466 0.223946169 0.254000008
v 0.305765897 0.136135757 0.127000004
v 0.248449489 0.0528095737 0
v 0.348060787 0.154966652 0.254000008
v 0.327388406 0.0695885569 0.127000004
v 0.254000008 0 0
v 0.372674257 0.0792143568 0.254000008
v 0.334702462 0 0.127000004
v 0.248449385 -0.052810058 0
v 0.380999982 0 0.254000008
v 0.327388287 -0.0695892051 0.127000004
v 0.232040361 -0.103311509 0
v 0.372674078 -0.079215087 0.254000008
v 0.305765688 -0.136136279 0.127000004
v 0.205490097 -0.149297759 0
v 0.348060548 -0.154967263 0.254000008
v 0.270779699 -0.196733579 0.127000004
v 0.169958934 -0.188759014 0
v 0.308235139 -0.223946646 0.254000008
v 0.223959342 -0.248732686 0.127000004
v 0.126999766 -0.219970584 0
v 0.254938394 -0.283138514 0.254000008
v 0.167350933 -0.289861023 0.127000004
v 0.0784901232 -0.241568416 0
v 0.190499663 -0.329955876 0.254000008
v 0.103428498 -0.318321019 0.127000004
v 0.0265500806 -0.252608597 0
v 0.117735185 -0.362352639 0.254000008
v 0.0349857435 -0.332868934 0.127000004
v -0.0265503172 -0.252608567 0
v 0.0398251228 -0.378912866 0.254000008
v -0.0349860452 -0.332868934 0.127000004
v -0.0784903392 -0.241568342 0
v -0.0398254767 -0.378912807 0.254000008
v -0.103428774 -0.31832096 0.127000004
v -0.126999974 -0.219970465 0
v -0.117735505 -0.36235252 0.254000008
v -0.167351201 -0.289860845 0.127000004
v -0.169959143 -0.188758805 0
v -0.190499961 -0.329955667 0.254000008
v -0.22395961 -0.248732388 0.127000004
v -0.205490306 -0.149297476 0
v -0.254938722 -0.283138186 0.254000008
v -0.270779967 -0.196733207 0.127000004
v -0.232040539 -0.103311136 0
v -0.308235437 -0.223946214 0.254000008
v -0.305765897 -0.136135772 0.127000004
v -0.248449489 -0.0528095923 0
v -0.348060787 -0.154966697 0.254000008
v -0.327388406 -0.0695885867 0.127000004
v -0.254000008 -2.2205386E-08 0
v -0.372674227 -0.0792143941 0.254000008
v -0.334702462 -2.9260617E-08 0.127000004
v -0.248449489 0.0528095476 0
v -0.380999982 -3.33080763E-08 0.254000008
v -0.327388406 0.0695885271 0.127000004
v -0.232040554 0.103311084 0
v -0.372674257 0.079214327 0.254000008
v -0.305765897 0.136135727 0.127000004
v -0.205490336 0.149297431 0
v -0.348060817 0.154966637 0.254000008
v -0.270779967 0.196733147 0.127000004
v -0.169959202 0.188758776 0
v -0.308235496 0.223946169 0.254000008
v -0.223959684 0.248732388 0.127000004
v -0.127000004 0.219970435 0
v -0.254938811 0.283138156 0.254000008
v -0.167351261 0.289860815 0.127000004
v -0.0784903243 0.241568342 0
v -0.190500021 0.329955667 0.254000008
v -0.103428766 0.31832096 0.127000004
v -0.0265502408 0.252608567 0
v -0.117735483 0.36235252 0.254000008
v -0.0349859484 0.332868934 0.127000004
v 0.0265502166 0.252608567 0
v -0.0398253612 0.378912836 0.254000008
v 0.0349859223 0.332868934 0.127000004
v 0.0398253277 0.378912836 0.254000008
vt 0.949999988 0
vt 0.983333349 0.5
vt 0.983333349 0
vt 0.949999988 0.5
vt 0.983333349 1
vt 0.916666687 0
vt 0.949999988 1
vt 0.916666687 0.5
vt 0.883333325 0
vt 0.916666627 1
vt 0.883333325 0.5
vt 0.850000024 0
vt 0.883333325 1
vt 0.850000024 0.5
vt 0.816666663 0
vt 0.850000024 1
vt 0.816666663 0.5
vt 0.783333361 0
vt 0.816666663 1
vt 0.783333361 0.5
vt 0.75 0
vt 0.783333361 1
vt 0.75 0.5
vt 0.7166664 0
vt 0.75 1
vt 0.7166664 0.5
vt 0.683333099 0
vt 0.7166664 1
vt 0.683333099 0.5
vt 0.649999797 0
vt 0.683333099 1
vt 0.649999797 0.5
vt 0.616666436 0
vt 0.649999797 1
vt 0.616666436 0.5
vt 0.583333135 0
vt 0.616666496 1
vt 0.583333135 0.5
vt 0.549999893 0
vt 0.583333135 1
vt 0.549999893 0.5
vt 0.516666591 0
vt 0.549999893 1
vt 0.516666591 0.5
vt 0.48333329 0
vt 0.516666591 1
vt 0.48333329 0.5
vt 0.449999988 0
vt 0.48333329 1
vt 0.450000018 0.5
vt 0.416666687 0
vt 0.449999988 1
vt 0.416666687 0.5
vt 0.383333355 0
vt 0.416666687 1
vt 0.383333355 0.5
vt 0.350000024 0
vt 0.383333355 1
vt 0.350000024 0.5
vt 0.316666692 0
vt 0.350000024 1
vt 0.316666692 0.5
vt 0.283333361 0
vt 0.316666692 1
vt 0.283333361 0.5
vt 0.25000003 0
vt 0.283333361 1
vt 0.25000003 0.5
vt 0.216666684 0
vt 0.25000003 1
vt 0.216666684 0.5
vt 0.183333367 0
vt 0.216666684 1
vt 0.183333352 0.5
vt 0.150000021 0
vt 0.183333352 1
vt 0.150000021 0.5
vt 0.116666682 0
vt 0.150000021 1
vt 0.116666682 0.5
vt 0.0833333507 0
vt 0.116666682 1
vt 0.0833333507 0.5
vt 0.0500000194 0
vt 0.0833333507 1
vt 0.0500000194 0.5
vt 0.0166666862 0
vt 0.0500000194 1
vt 0.0166666862 0.5
vt -0.0166666508 0
vt 0.0166666862 1
vt -0.0166666508 0.5
vt -0.0166666508 1
vn 0.260813296 0.802700877 -0.536327958
vn 0.0939086527 0.893480539 -0.439173818
vn 0.0882230774 0.839386106 -0.536328018
vn 0.277621597 0.854431212 -0.439173877
vn 0.0982064605 0.934371412 -0.342498928
vn 0.422004849 0.730933726 -0.536327899
vn 0.290327072 0.893534839 -0.342499018
vn 0.449201047 0.778038979 -0.439173818
vn 0.564752698 0.627221406 -0.536328018
vn 0.469759107 0.813646555 -0.342499077
vn 0.601148307 0.667642891 -0.439173788
vn 0.682818174 0.496096432 -0.536328018
vn 0.628660381 0.69819808 -0.342499107
vn 0.726822555 0.528067529 -0.439173818
vn 0.771041155 0.343289703 -0.536327958
vn 0.760086179 0.552234888 -0.342499048
vn 0.820731163 0.3654131 -0.439173758
vn 0.825565994 0.175479531 -0.536328018
vn 0.85829252 0.382136524 -0.342499018
vn 0.878769875 0.186788395 -0.439173847
vn 0.844009578 -4.32177956E-07 -0.536328018
vn 0.918987393 0.195336893 -0.342499048
vn 0.898402154 -4.82326641E-07 -0.439173818
vn 0.825565696 -0.175480589 -0.536328018
vn 0.939518154 -5.2676404E-07 -0.342499048
vn 0.878769577 -0.186789528 -0.439173847
vn 0.771040559 -0.343290955 -0.536328018
vn 0.918987215 -0.1953381 -0.342499077
vn 0.820730507 -0.36541447 -0.439173847
vn 0.6828174 -0.496097416 -0.536328018
vn 0.858291924 -0.382137954 -0.342499048
vn 0.72682178 -0.528068602 -0.439173877
vn 0.564751863 -0.627222121 -0.536328018
vn 0.760085344 -0.55223608 -0.342499018
vn 0.601147532 -0.667643547 -0.439173877
vn 0.422004044 -0.730934203 -0.536328018
vn 0.628659487 -0.698198795 -0.342499077
vn 0.449200213 -0.778039515 -0.439173937
vn 0.2608127 -0.802701116 -0.536328018
vn 0.469758153 -0.813647091 -0.342499048
vn 0.277620822 -0.85443145 -0.439173847
vn 0.0882226676 -0.839386106 -0.536328018
vn 0.290326297 -0.893535137 -0.342499048
vn 0.0939081311 -0.893480599 -0.439173758
vn -0.088223353 -0.839385986 -0.536328018
vn 0.098205857 -0.934371412 -0.342499048
vn -0.0939089358 -0.893480539 -0.439173877
vn -0.260813534 -0.802700818 -0.536328077
vn -0.0982067436 -0.934371412 -0.342498958
vn -0.277621686 -0.854431093 -0.439173818
vn -0.422004849 -0.730933726 -0.536327958
vn -0.290327221 -0.893534839 -0.342498958
vn -0.449201107 -0.778038919 -0.439173818
vn -0.564752579 -0.627221525 -0.536327899
vn -0.469759196 -0.813646555 -0.342499048
vn -0.601148248 -0.667643011 -0.439173758
vn -0.682818055 -0.496096641 -0.536328018
vn -0.628660262 -0.69819808 -0.342499077
vn -0.726822436 -0.528067708 -0.439173788
vn -0.771041274 -0.343289673 -0.536327958
vn -0.760086 -0.552235067 -0.342499048
vn -0.820731163 -0.3654131 -0.439173758
vn -0.825566053 -0.175479546 -0.536328018
vn -0.85829252 -0.382136524 -0.342499048
vn -0.878769875 -0.186788395 -0.439173788
vn -0.844009697 0 -0.536328018
vn -0.918987393 -0.195336938 -0.342499077
vn -0.898402035 0 -0.439173877
vn -0.825566053 0.175479457 -0.536328018
vn -0.939518154 0 -0.342499018
vn -0.878769875 0.186788261 -0.439173788
vn -0.771041274 0.343289644 -0.536327958
vn -0.918987393 0.195336789 -0.342499077
vn -0.820731163 0.36541301 -0.439173877
vn -0.682818234 0.496096313 -0.536327899
vn -0.85829252 0.382136375 -0.342499107
vn -0.726822615 0.52806735 -0.439173818
vn -0.564752698 0.627221406 -0.536328018
vn -0.760086298 0.552234769 -0.342499137
vn -0.601148367 0.667642772 -0.439173847
vn -0.422004849 0.730933845 -0.536328018
vn -0.6286605 0.698197961 -0.342499077
vn -0.449201077 0.778039098 -0.439173877
vn -0.260813445 0.802700818 -0.536328077
vn -0.469759047 0.813646615 -0.342499107
vn -0.277621627 0.854431093 -0.439173877
vn -0.0882231593 0.839386106 -0.536328018
vn -0.290327162 0.893534839 -0.342499018
vn -0.0939087272 0.893480599 -0.439173758
vn 0.0882230774 0.839386106 -0.536328018
vn -0.098206535 0.934371412 -0.342498928
vn 0.0939086527 0.893480539 -0.439173818
vn 0.0982064605 0.934371412 -0.342498928
g Cone001_0
f 3/3/3 2/2/2 1/1/1
f 2/2/2 4/4/4 1/1/1
f 2/2/2 5/5/5 4/4/4
f 1/1/1 4/4/4 6/6/6
f 5/5/5 7/7/7 4/4/4
f 4/4/4 8/8/8 6/6/6
f 4/4/4 7/7/7 8/8/8
f 6/6/6 8/8/8 9/9/9
f 7/7/7 10/10/10 8/8/8
f 8/8/8 11/11/11 9/9/9
f 8/8/8 10/10/10 11/11/11
f 9/9/9 11/11/11 12/12/12
f 10/10/10 13/13/13 11/11/11
f 11/11/11 14/14/14 12/12/12
f 11/11/11 13/13/13 14/14/14
f 12/12/12 14/14/14 15/15/15
f 13/13/13 16/16/16 14/14/14
f 14/14/14 17/17/17 15/15/15
f 14/14/14 16/16/16 17/17/17
f 15/15/15 17/17/17 18/18/18
f 16/16/16 19/19/19 17/17/17
f 17/17/17 20/20/20 18/18/18
f 17/17/17 19/19/19 20/20/20
f 18/18/18 20/20/20 21/21/21
f 19/19/19 22/22/22 20/20/20
f 20/20/20 23/23/23 21/21/21
f 20/20/20 22/22/22 23/23/23
f 21/21/21 23/23/23 24/24/24
f 22/22/22 25/25/25 23/23/23
f 23/23/23 26/26/26 24/24/24
f 23/23/23 25/25/25 26/26/26
f 24/24/24 26/26/26 27/27/27
f 25/25/25 28/28/28 26/26/26
f 26/26/26 29/29/29 27/27/27
f 26/26/26 28/28/28 29/29/29
f 27/27/27 29/29/29 30/30/30
f 28/28/28 31/31/31 29/29/29
f 29/29/29 32/32/32 30/30/30
f 29/29/29 31/31/31 32/32/32
f 30/30/30 32/32/32 33/33/33
f 31/31/31 34/34/34 32/32/32
f 32/32/32 35/35/35 33/33/33
f 32/32/32 34/34/34 35/35/35
f 33/33/33 35/35/35 36/36/36
f 34/34/34 37/37/37 35/35/35
f 35/35/35 38/38/38 36/36/36
f 35/35/35 37/37/37 38/38/38
f 36/36/36 38/38/38 39/39/39
f 37/37/37 40/40/40 38/38/38
f 38/38/38 41/41/41 39/39/39
f 38/38/38 40/40/40 41/41/41
f 39/39/39 41/41/41 42/42/42
f 40/40/40 43/43/43 41/41/41
f 41/41/41 44/44/44 42/42/42
f 41/41/41 43/43/43 44/44/44
f 42/42/42 44/44/44 45/45/45
f 43/43/43 46/46/46 44/44/44
f 44/44/44 47/47/47 45/45/45
f 44/44/44 46/46/46 47/47/47
f 45/45/45 47/47/47 48/48/48
f 46/46/46 49/49/49 47/47/47
f 47/47/47 50/50/50 48/48/48
f 47/47/47 49/49/49 50/50/50
f 48/48/48 50/50/50 51/51/51
f 49/49/49 52/52/52 50/50/50
f 50/50/50 53/53/53 51/51/51
f 50/50/50 52/52/52 53/53/53
f 51/51/51 53/53/53 54/54/54
f 52/52/52 55/55/55 53/53/53
f 53/53/53 56/56/56 54/54/54
f 53/53/53 55/55/55 56/56/56
f 54/54/54 56/56/56 57/57/57
f 55/55/55 58/58/58 56/56/56
f 56/56/56 59/59/59 57/57/57
f 56/56/56 58/58/58 59/59/59
f 57/57/57 59/59/59 60/60/60
f 58/58/58 61/61/61 59/59/59
f 59/59/59 62/62/62 60/60/60
f 59/59/59 61/61/61 62/62/62
f 60/60/60 62/62/62 63/63/63
f 61/61/61 64/64/64 62/62/62
f 62/62/62 65/65/65 63/63/63
f 62/62/62 64/64/64 65/65/65
f 63/63/63 65/65/65 66/66/66
f 64/64/64 67/67/67 65/65/65
f 65/65/65 68/68/68 66/66/66
f 65/65/65 67/67/67 68/68/68
f 66/66/66 68/68/68 69/69/69
f 67/67/67 70/70/70 68/68/68
f 68/68/68 71/71/71 69/69/69
f 68/68/68 70/70/70 71/71/71
f 69/69/69 71/71/71 72/72/72
f 70/70/70 73/73/73 71/71/71
f 71/71/71 74/74/74 72/72/72
f 71/71/71 73/73/73 74/74/74
f 72/72/72 74/74/74 75/75/75
f 73/73/73 76/76/76 74/74/74
f 74/74/74 77/77/77 75/75/75
f 74/74/74 76/76/76 77/77/77
f 75/75/75 77/77/77 78/78/78
f 76/76/76 79/79/79 77/77/77
f 77/77/77 80/80/80 78/78/78
f 77/77/77 79/79/79 80/80/80
f 78/78/78 80/80/80 81/81/81
f 79/79/79 82/82/82 80/80/80
f 80/80/80 83/83/83 81/81/81
f 80/80/80 82/82/82 83/83/83
f 81/81/81 83/83/83 84/84/84
f 82/82/82 85/85/85 83/83/83
f 83/83/83 86/86/86 84/84/84
f 83/83/83 85/85/85 86/86/86
f 84/84/84 86/86/86 87/87/87
f 85/85/85 88/88/88 86/86/86
f 86/86/86 89/89/89 87/87/87
f 86/86/86 88/88/88 89/89/89
f 87/87/87 89/89/89 90/90/90
f 88/88/88 91/91/91 89/89/89
f 89/89/89 92/92/92 90/90/90
f 89/89/89 91/91/91 92/92/92
f 91/91/91 93/93/93 92/92/92
