g Plane001
v 0.381634057 1.38959467E-06 -0.893959641
v 0.751063049 1.34627589E-06 -0.606518209
v 0.539257586 1.3896248E-06 -0.894219637
v 0.528591931 1.3480709E-06 -0.621756554
v 0.20054163 1.38956261E-06 -0.893634021
v 0.978149772 1.30327135E-06 -0.283507526
v 0.296300113 1.34967217E-06 -0.638847113
v -0.00595409377 1.38952703E-06 -0.893251359
v 0.684343696 1.30738067E-06 -0.321551085
v 1.1924032 1.26043153E-06 0.0382622443
v 0.0517470352 1.35108712E-06 -0.657656431
v -0.239766464 1.38948496E-06 -0.892809808
v 0.394687921 1.3110822E-06 -0.368916005
v 0.831337988 1.26698558E-06 -0.0235681832
v 1.40162277 1.21728897E-06 0.36231181
v -0.208396196 1.35234291E-06 -0.67820102
v -0.502797723 1.3894321E-06 -0.892297387
v 0.108356372 1.31418551E-06 -0.421476394
v 0.487640768 1.27312524E-06 -0.103751712
v 0.974714518 1.22597896E-06 0.279019922
v 1.6136086 1.17408479E-06 0.686825812
v -0.488043457 1.35347966E-06 -0.700589955
v -0.796947002 1.38936218E-06 -0.891687393
v -0.179339051 1.31666786E-06 -0.476370931
v 0.161938369 1.27816543E-06 -0.19193536
v 0.578049183 1.23486313E-06 0.163711846
v 1.11960506 1.18392256E-06 0.589516163
v 1.83615947 1.13144722E-06 1.00707328
v 1.27114737 1.14078887E-06 0.908124685
v 0.668806672 1.19557262E-06 0.438919991
v 0.762805939 1.15473779E-06 0.72575891
v -0.791404188 1.35454036E-06 -0.724960506
v -1.12411785 1.38926634E-06 -0.890935361
v -0.475216717 1.31862407E-06 -0.531621933
v -0.151757985 1.28191641E-06 -0.281497866
v 0.213883072 1.2422687E-06 0.036678426
v 0.265583783 1.2058025E-06 0.269579977
v 0.318432689 1.16813624E-06 0.51151973
v -1.12273204 1.35556036E-06 -0.751388729
v -1.48621917 1.38913242E-06 -0.889967859
v -0.786865234 1.32021546E-06 -0.585754693
v -0.462994784 1.28454178E-06 -0.368478835
v -0.125087127 1.24756798E-06 -0.0896591544
v -0.098764129 1.21311018E-06 0.103003338
v -0.0722227246 1.17803711E-06 0.300300479
v -1.48609459 1.3565483E-06 -0.779749215
v -1.83615983 1.38897144E-06 -0.888791859
v -1.83615983 1.3576522E-06 -0.799862921
v -1.12164044 1.32163348E-06 -0.6375193
v -1.48599529 1.3230798E-06 -0.685743928
v -1.83615983 1.32478829E-06 -0.718393326
v -0.782521784 1.28639147E-06 -0.45032227
v -0.451191068 1.25092549E-06 -0.208844274
v -0.439617336 1.21746302E-06 -0.0503677055
v -0.428085506 1.18383798E-06 0.109332897
v -1.48589957 1.28941508E-06 -0.59026134
v -1.83615983 1.2913157E-06 -0.632339716
v -1.12059152 1.28787883E-06 -0.524947345
v -0.778324664 1.25292058E-06 -0.317548215
v -0.774226367 1.21965161E-06 -0.186294183
v -0.770178676 1.18643015E-06 -0.055398412
v -1.11957633 1.25425743E-06 -0.413378984
v -1.48580658 1.25559268E-06 -0.493590713
v -1.83615983 1.25734095E-06 -0.542505741
v -1.11858702 1.22072913E-06 -0.302511483
v -1.11761379 1.18725302E-06 -0.192037106
v -1.48571599 1.2216509E-06 -0.396020323
v -1.83615983 1.22297104E-06 -0.449694604
v -1.48562717 1.18762784E-06 -0.297838539
v -1.83615983 1.18831281E-06 -0.354710251
vt 0.888888896 0
vt 1 0.166666672
vt 1 0
vt 0.888888896 0.166666672
vt 0.777777791 0
vt 1 0.333333343
vt 0.777777791 0.166666672
vt 0.666666687 0
vt 0.888888896 0.333333343
vt 1 0.5
vt 0.666666687 0.166666672
vt 0.555555582 0
vt 0.777777791 0.333333343
vt 0.888888896 0.5
vt 1 0.666666687
vt 0.555555582 0.166666672
vt 0.444444448 0
vt 0.666666687 0.333333343
vt 0.777777791 0.5
vt 0.888888896 0.666666687
vt 1 0.833333373
vt 0.444444448 0.166666672
vt 0.333333343 0
vt 0.555555582 0.333333343
vt 0.666666687 0.5
vt 0.777777791 0.666666687
vt 0.888888896 0.833333373
vt 1 1
vt 0.888888896 1
vt 0.777777791 0.833333373
vt 0.777777791 1
vt 0.333333343 0.166666672
vt 0.222222224 0
vt 0.444444448 0.333333343
vt 0.555555582 0.5
vt 0.666666687 0.666666687
vt 0.666666687 0.833333373
vt 0.666666687 1
vt 0.222222224 0.166666672
vt 0.111111112 0
vt 0.333333343 0.333333343
vt 0.444444448 0.5
vt 0.555555582 0.666666687
vt 0.555555582 0.833333373
vt 0.555555582 1
vt 0.111111112 0.166666672
vt 0 0
vt 0 0.166666672
vt 0.222222224 0.333333343
vt 0.111111112 0.333333343
vt 0 0.333333343
vt 0.333333343 0.5
vt 0.444444448 0.666666687
vt 0.444444448 0.833333373
vt 0.444444448 1
vt 0.111111112 0.5
vt 0 0.5
vt 0.222222224 0.5
vt 0.333333343 0.666666687
vt 0.333333343 0.833333373
vt 0.333333343 1
vt 0.222222224 0.666666687
vt 0.111111112 0.666666687
vt 0 0.666666687
vt 0.222222224 0.833333373
vt 0.222222224 1
vt 0.111111112 0.833333373
vt 0 0.833333373
vt 0.111111112 1
vt 0 1
vn -0 -1 0
vn -0 -1 0
vn -0 -1 0
vn -0 -1 0
vn -0 -1 0
vn -0 -1 0
vn -0 -1 0
vn -0 -1 0
vn -0 -1 0
vn -0 -1 0
vn -0 -1 0
vn -0 -1 0
vn -0 -1 0
vn -0 -1 0
vn -0 -1 0
vn -0 -1 0
vn -0 -1 0
vn -0 -1 0
vn -0 -1 0
vn -0 -1 0
vn -0 -1 0
vn -0 -1 0
vn -0 -1 0
vn -0 -1 0
vn -0 -1 0
vn -0 -1 0
vn -0 -1 0
vn -0 -1 0
vn -0 -1 0
vn -0 -1 0
vn -0 -1 0
vn -0 -1 0
vn -0 -1 0
vn -0 -1 0
vn -0 -1 0
vn -0 -1 0
vn -0 -1 0
vn -0 -1 0
vn -0 -1 -2.71179232E-07
vn -0 -1 -2.93142449E-07
vn -0 -1 0
vn -0 -1 0
vn -0 -1 0
vn -0 -1 0
vn -0 -1 0
vn -0 -1 -3.21983009E-07
vn -0 -1 -3.20888375E-07
vn -0 -1 -3.48415341E-07
vn -0 -1 -2.98042153E-07
vn -0 -1 -3.4902078E-07
vn -0 -1 -3.74180843E-07
vn -0 -1 0
vn -0 -1 0
vn -0 -1 0
vn -0 -1 0
vn -0 -1 -3.45352333E-07
vn -0 -1 -3.66931459E-07
vn -0 -1 -2.99402728E-07
vn -0 -1 -2.5525469E-07
vn -0 -1 -2.56486146E-07
vn -0 -1 0
vn -0 -1 -3.00385381E-07
vn -0 -1 -3.42561776E-07
vn -0 -1 -3.61394086E-07
vn -0 -1 -3.00954468E-07
vn -0 -1 -2.96429761E-07
vn -0 -1 -3.40532779E-07
vn -0 -1 -3.57366503E-07
vn -0 -1 -3.37608014E-07
vn -0 -1 -3.555798E-07
g Plane001_0
f 3/3/3 2/2/2 1/1/1
f 2/2/2 4/4/4 1/1/1
f 1/1/1 4/4/4 5/5/5
f 2/2/2 6/6/6 4/4/4
f 4/4/4 7/7/7 5/5/5
f 5/5/5 7/7/7 8/8/8
f 6/6/6 9/9/9 4/4/4
f 4/4/4 9/9/9 7/7/7
f 6/6/6 10/10/10 9/9/9
f 7/7/7 11/11/11 8/8/8
f 8/8/8 11/11/11 12/12/12
f 9/9/9 13/13/13 7/7/7
f 7/7/7 13/13/13 11/11/11
f 10/10/10 14/14/14 9/9/9
f 9/9/9 14/14/14 13/13/13
f 10/10/10 15/15/15 14/14/14
f 11/11/11 16/16/16 12/12/12
f 12/12/12 16/16/16 17/17/17
f 13/13/13 18/18/18 11/11/11
f 11/11/11 18/18/18 16/16/16
f 14/14/14 19/19/19 13/13/13
f 13/13/13 19/19/19 18/18/18
f 15/15/15 20/20/20 14/14/14
f 14/14/14 20/20/20 19/19/19
f 15/15/15 21/21/21 20/20/20
f 16/16/16 22/22/22 17/17/17
f 17/17/17 22/22/22 23/23/23
f 18/18/18 24/24/24 16/16/16
f 16/16/16 24/24/24 22/22/22
f 19/19/19 25/25/25 18/18/18
f 18/18/18 25/25/25 24/24/24
f 20/20/20 26/26/26 19/19/19
f 19/19/19 26/26/26 25/25/25
f 21/21/21 27/27/27 20/20/20
f 20/20/20 27/27/27 26/26/26
f 21/21/21 28/28/28 27/27/27
f 28/28/28 29/29/29 27/27/27
f 27/27/27 29/29/29 30/30/30
f 27/27/27 30/30/30 26/26/26
f 29/29/29 31/31/31 30/30/30
f 22/22/22 32/32/32 23/23/23
f 23/23/23 32/32/32 33/33/33
f 24/24/24 34/34/34 22/22/22
f 22/22/22 34/34/34 32/32/32
f 25/25/25 35/35/35 24/24/24
f 24/24/24 35/35/35 34/34/34
f 26/26/26 36/36/36 25/25/25
f 26/26/26 30/30/30 36/36/36
f 25/25/25 36/36/36 35/35/35
f 30/30/30 31/31/31 37/37/37
f 30/30/30 37/37/37 36/36/36
f 31/31/31 38/38/38 37/37/37
f 32/32/32 39/39/39 33/33/33
f 33/33/33 39/39/39 40/40/40
f 34/34/34 41/41/41 32/32/32
f 32/32/32 41/41/41 39/39/39
f 35/35/35 42/42/42 34/34/34
f 34/34/34 42/42/42 41/41/41
f 36/36/36 43/43/43 35/35/35
f 36/36/36 37/37/37 43/43/43
f 35/35/35 43/43/43 42/42/42
f 37/37/37 38/38/38 44/44/44
f 37/37/37 44/44/44 43/43/43
f 38/38/38 45/45/45 44/44/44
f 39/39/39 46/46/46 40/40/40
f 40/40/40 46/46/46 47/47/47
f 46/46/46 48/48/48 47/47/47
f 41/41/41 49/49/49 39/39/39
f 39/39/39 49/49/49 46/46/46
f 46/46/46 50/50/50 48/48/48
f 49/49/49 50/50/50 46/46/46
f 50/50/50 51/51/51 48/48/48
f 42/42/42 52/52/52 41/41/41
f 41/41/41 52/52/52 49/49/49
f 43/43/43 53/53/53 42/42/42
f 43/43/43 44/44/44 53/53/53
f 42/42/42 53/53/53 52/52/52
f 44/44/44 45/45/45 54/54/54
f 44/44/44 54/54/54 53/53/53
f 45/45/45 55/55/55 54/54/54
f 50/50/50 56/56/56 51/51/51
f 56/56/56 57/57/57 51/51/51
f 49/49/49 58/58/58 50/50/50
f 52/52/52 58/58/58 49/49/49
f 58/58/58 56/56/56 50/50/50
f 53/53/53 59/59/59 52/52/52
f 53/53/53 54/54/54 59/59/59
f 52/52/52 59/59/59 58/58/58
f 54/54/54 55/55/55 60/60/60
f 54/54/54 60/60/60 59/59/59
f 55/55/55 61/61/61 60/60/60
f 59/59/59 62/62/62 58/58/58
f 58/58/58 62/62/62 56/56/56
f 59/59/59 60/60/60 62/62/62
f 56/56/56 63/63/63 57/57/57
f 62/62/62 63/63/63 56/56/56
f 63/63/63 64/64/64 57/57/57
f 60/60/60 61/61/61 65/65/65
f 60/60/60 65/65/65 62/62/62
f 62/62/62 65/65/65 63/63/63
f 61/61/61 66/66/66 65/65/65
f 63/63/63 67/67/67 64/64/64
f 65/65/65 67/67/67 63/63/63
f 65/65/65 66/66/66 67/67/67
f 67/67/67 68/68/68 64/64/64
f 66/66/66 69/69/69 67/67/67
f 67/67/67 69/69/69 68/68/68
f 69/69/69 70/70/70 68/68/68
