g char_bpipe_emitter_01
v -0.0764193535 -0.0764193535 0
v -0.0764193535 0.0764193535 0
v 0.0764193535 0.0764193535 0
v 0.0764193535 -0.0764193535 0
v -0.0289124884 0.366412371 0
v -0.0289124884 0.519251108 0
v 0.123926207 0.519251108 0
v 0.123926207 0.366412371 0
v 0.434279263 0.144148156 0
v 0.434279263 0.296986878 0
v 0.58711797 0.296986878 0
v 0.58711797 0.144148156 0
vt 0 0
vt 0 1
vt 1 1
vt 1 0
vt 0 0
vt 0 1
vt 1 1
vt 1 0
vt 0 0
vt 0 1
vt 1 1
vt 1 0
vn -0 0 1
vn -0 0 1
vn -0 0 1
vn -0 0 1
vn -0 0 1
vn -0 0 1
vn -0 0 1
vn -0 0 1
vn -0 0 1
vn -0 0 1
vn -0 0 1
vn -0 0 1
g char_bpipe_emitter_01_0
f 3/3/3 2/2/2 1/1/1
f 4/4/4 3/3/3 1/1/1
f 7/7/7 6/6/6 5/5/5
f 8/8/8 7/7/7 5/5/5
f 11/11/11 10/10/10 9/9/9
f 12/12/12 11/11/11 9/9/9
