g char_skadi2_01
v -0.018300347 -0.554605842 0
v 0.018300334 -0.761223674 0
v -0.018300347 -0.761223674 0
v 0.0183003396 -0.554605842 0
v -0.018300347 0 0
v 0.0183003601 0 0
v 0.327177912 -0.349621505 0
v 0.478003174 -0.45555979 0
v 0.455559671 -0.478003263 0
v 0.349621385 -0.327178001 0
v -0.0112218261 -0.0112217665 0
v 0.0112216175 0.0112217069 0
v -0.51654464 0.0183003433 0
v -0.761223674 -0.018300321 0
v -0.761223674 0.0183003601 0
v -0.51654464 -0.0183003377 0
v -0 0.0183003061 0
v -0 -0.018300375 0
v 0.367370039 0.344926387 0
v 0.45555979 0.478003144 0
v 0.478003323 0.455559671 0
v 0.344926476 0.36736989 0
v 0.0112217963 -0.0112217665 0
v -0.0112217367 0.0112217665 0
v -0.344926447 0.367370009 0
v -0.478003204 0.45555979 0
v -0.455559671 0.478003323 0
v -0.36736989 0.344926476 0
v 0.0112217367 0.0112217665 0
v -0.0112217367 -0.0112217665 0
v -0.36736998 -0.344926476 0
v -0.455559731 -0.478003263 0
v -0.478003293 -0.455559671 0
v -0.344926447 -0.36736992 0
v -0.0112217665 0.0112217367 0
v 0.0112217665 -0.0112217367 0
v 0.554605842 -0.0183003303 0
v 0.761223674 0.0183003899 0
v 0.761223674 -0.0183003303 0
v 0.554605842 0.0183003899 0
v -0 -0.0183003452 0
v -0 0.0183003619 0
v 0.0183003303 0.554605842 0
v -0.0183004458 0.761223674 0
v 0.0183002762 0.761223674 0
v -0.0183003917 0.554605842 0
v 0.0183003433 0 0
v -0.0183003638 0 0
v -0.158966869 -0.350604683 0
v -0.190361619 -0.492748916 0
v -0.21382004 -0.483032107 0
v -0.135508418 -0.360321462 0
v -0.0117292926 0.004858464 0
v 0.0117291734 -0.0048584044 0
v 0.116879798 -0.310942352 0
v 0.185423449 -0.418882608 0
v 0.165080428 -0.427309006 0
v 0.137222826 -0.302515984 0
v -0.0101715475 -0.00421316922 0
v 0.0101714358 0.00421321392 0
v -0.326210141 0.148862302 0
v -0.492748916 0.190361679 0
v -0.483032107 0.2138201 0
v -0.33592695 0.125403866 0
v 0.0048584044 0.0117292181 0
v -0.0048584342 -0.0117292181 0
v 0.327029794 0.123543426 0
v 0.418882608 0.185423434 0
v 0.427309066 0.165080369 0
v 0.318603426 0.143886447 0
v 0.00421312451 -0.0101714954 0
v -0.00421321392 0.0101715475 0
v -0.123543441 0.327029794 0
v -0.185423449 0.418882608 0
v -0.165080369 0.427308977 0
v -0.143886447 0.318603396 0
v 0.0101714879 0.00421318412 0
v -0.010171555 -0.00421321392 0
v -0.327029765 -0.123543471 0
v -0.418882608 -0.185423493 0
v -0.427308977 -0.165080413 0
v -0.318603367 -0.143886492 0
v -0.00421318412 0.0101714954 0
v 0.00421318412 -0.0101715475 0
v 0.350604683 -0.158966869 0
v 0.492748916 -0.190361649 0
v 0.483032107 -0.2138201 0
v 0.360321492 -0.135508388 0
v -0.0048584044 -0.0117292255 0
v 0.004858464 0.0117292404 0
v 0.158966869 0.350604713 0
v 0.190361589 0.492748916 0
v 0.21382007 0.483032107 0
v 0.135508388 0.360321522 0
v 0.0117292106 -0.0048584044 0
v -0.0117292553 0.0048584342 0
vt -0.412541807 -0.00048828125
vt -0.141113281 1.00048828
vt -0.141113281 -0.00048828125
vt -0.412541807 1.00048828
vt -1.14111328 -0.00048828125
vt -1.14111328 1.00048828
vt 1.85843539 -0.00048828125
vt 2.13427734 1.00048828
vt 2.13427734 -0.00048828125
vt 1.85843539 1.00048828
vt 1.13134766 -0.00048828125
vt 1.13134766 1.00048828
vt 0.679094553 -0.00048828125
vt 1.00146484 1.00048828
vt 1.00146484 -0.00048828125
vt 0.679094553 1.00048828
vt -0.00146484375 -0.00048828125
vt -0.00146484375 1.00048828
vt 0.262780905 -0.00048828125
vt 0.500488281 1.00048828
vt 0.500488281 -0.00048828125
vt 0.262780905 1.00048828
vt -0.502441406 -0.00048828125
vt -0.502441406 1.00048828
vt 0.262780905 -0.00048828125
vt 0.500488281 1.00048828
vt 0.500488281 -0.00048828125
vt 0.262780905 1.00048828
vt -0.502441406 -0.00048828125
vt -0.502441406 1.00048828
vt 0.262780905 -0.00048828125
vt 0.500488281 1.00048828
vt 0.500488281 -0.00048828125
vt 0.262780905 1.00048828
vt -0.502441406 -0.00048828125
vt -0.502441406 1.00048828
vt -0.412541807 -0.00048828125
vt -0.141113281 1.00048828
vt -0.141113281 -0.00048828125
vt -0.412541807 1.00048828
vt -1.14111328 -0.00048828125
vt -1.14111328 1.00048828
vt -0.412541807 -0.00048828125
vt -0.141113281 1.00048828
vt -0.141113281 -0.00048828125
vt -0.412541807 1.00048828
vt -1.14111328 -0.00048828125
vt -1.14111328 1.00048828
vt -0.412541807 -0.00048828125
vt -0.141113281 1.00048828
vt -0.141113281 -0.00048828125
vt -0.412541807 1.00048828
vt -1.14111328 -0.00048828125
vt -1.14111328 1.00048828
vt 1.85843539 -0.00048828125
vt 2.13427734 1.00048828
vt 2.13427734 -0.00048828125
vt 1.85843539 1.00048828
vt 1.13134766 -0.00048828125
vt 1.13134766 1.00048828
vt 0.679094553 -0.00048828125
vt 1.00146484 1.00048828
vt 1.00146484 -0.00048828125
vt 0.679094553 1.00048828
vt -0.00146484375 -0.00048828125
vt -0.00146484375 1.00048828
vt 0.262780905 -0.00048828125
vt 0.500488281 1.00048828
vt 0.500488281 -0.00048828125
vt 0.262780905 1.00048828
vt -0.502441406 -0.00048828125
vt -0.502441406 1.00048828
vt 0.262780905 -0.00048828125
vt 0.500488281 1.00048828
vt 0.500488281 -0.00048828125
vt 0.262780905 1.00048828
vt -0.502441406 -0.00048828125
vt -0.502441406 1.00048828
vt 0.262780905 -0.00048828125
vt 0.500488281 1.00048828
vt 0.500488281 -0.00048828125
vt 0.262780905 1.00048828
vt -0.502441406 -0.00048828125
vt -0.502441406 1.00048828
vt -0.412541807 -0.00048828125
vt -0.141113281 1.00048828
vt -0.141113281 -0.00048828125
vt -0.412541807 1.00048828
vt -1.14111328 -0.00048828125
vt -1.14111328 1.00048828
vt -0.412541807 -0.00048828125
vt -0.141113281 1.00048828
vt -0.141113281 -0.00048828125
vt -0.412541807 1.00048828
vt -1.14111328 -0.00048828125
vt -1.14111328 1.00048828
vn -0 0 1
vn -0 0 1
vn -0 0 1
vn -0 0 1
vn -0 0 1
vn -0 0 1
vn -0 0 1
vn -0 0 1
vn -0 0 1
vn -0 0 1
vn -0 0 1
vn -0 0 1
vn -0 0 1
vn -0 0 1
vn -0 0 1
vn -0 0 1
vn -0 0 1
vn -0 0 1
vn -0 0 1
vn -0 0 1
vn -0 0 1
vn -0 0 1
vn -0 0 1
vn -0 0 1
vn -0 0 1
vn -0 0 1
vn -0 0 1
vn -0 0 1
vn -0 0 1
vn -0 0 1
vn -0 0 1
vn -0 0 1
vn -0 0 1
vn -0 0 1
vn -0 0 1
vn -0 0 1
vn -0 0 1
vn -0 0 1
vn -0 0 1
vn -0 0 1
vn -0 0 1
vn -0 0 1
vn -0 0 1
vn -0 0 1
vn -0 0 1
vn -0 0 1
vn -0 0 1
vn -0 0 1
vn -0 0 1
vn -0 0 1
vn -0 0 1
vn -0 0 1
vn -0 0 1
vn -0 0 1
vn -0 0 1
vn -0 0 1
vn -0 0 1
vn -0 0 1
vn -0 0 1
vn -0 0 1
vn -0 0 1
vn -0 0 1
vn -0 0 1
vn -0 0 1
vn -0 0 1
vn -0 0 1
vn -0 0 1
vn -0 0 1
vn -0 0 1
vn -0 0 1
vn -0 0 1
vn -0 0 1
vn -0 0 1
vn -0 0 1
vn -0 0 1
vn -0 0 1
vn -0 0 1
vn -0 0 1
vn -0 0 1
vn -0 0 1
vn -0 0 1
vn -0 0 1
vn -0 0 1
vn -0 0 1
vn -0 0 1
vn -0 0 1
vn -0 0 1
vn -0 0 1
vn -0 0 1
vn -0 0 1
vn -0 0 1
vn -0 0 1
vn -0 0 1
vn -0 0 1
vn -0 0 1
vn -0 0 1
g char_skadi2_01_0
f 3/3/3 2/2/2 1/1/1
f 2/2/2 4/4/4 1/1/1
f 1/1/1 4/4/4 5/5/5
f 4/4/4 6/6/6 5/5/5
f 9/9/9 8/8/8 7/7/7
f 8/8/8 10/10/10 7/7/7
f 7/7/7 10/10/10 11/11/11
f 10/10/10 12/12/12 11/11/11
f 15/15/15 14/14/14 13/13/13
f 14/14/14 16/16/16 13/13/13
f 13/13/13 16/16/16 17/17/17
f 16/16/16 18/18/18 17/17/17
f 21/21/21 20/20/20 19/19/19
f 20/20/20 22/22/22 19/19/19
f 19/19/19 22/22/22 23/23/23
f 22/22/22 24/24/24 23/23/23
f 27/27/27 26/26/26 25/25/25
f 26/26/26 28/28/28 25/25/25
f 25/25/25 28/28/28 29/29/29
f 28/28/28 30/30/30 29/29/29
f 33/33/33 32/32/32 31/31/31
f 32/32/32 34/34/34 31/31/31
f 31/31/31 34/34/34 35/35/35
f 34/34/34 36/36/36 35/35/35
f 39/39/39 38/38/38 37/37/37
f 38/38/38 40/40/40 37/37/37
f 37/37/37 40/40/40 41/41/41
f 40/40/40 42/42/42 41/41/41
f 45/45/45 44/44/44 43/43/43
f 44/44/44 46/46/46 43/43/43
f 43/43/43 46/46/46 47/47/47
f 46/46/46 48/48/48 47/47/47
f 51/51/51 50/50/50 49/49/49
f 50/50/50 52/52/52 49/49/49
f 49/49/49 52/52/52 53/53/53
f 52/52/52 54/54/54 53/53/53
f 57/57/57 56/56/56 55/55/55
f 56/56/56 58/58/58 55/55/55
f 55/55/55 58/58/58 59/59/59
f 58/58/58 60/60/60 59/59/59
f 63/63/63 62/62/62 61/61/61
f 62/62/62 64/64/64 61/61/61
f 61/61/61 64/64/64 65/65/65
f 64/64/64 66/66/66 65/65/65
f 69/69/69 68/68/68 67/67/67
f 68/68/68 70/70/70 67/67/67
f 67/67/67 70/70/70 71/71/71
f 70/70/70 72/72/72 71/71/71
f 75/75/75 74/74/74 73/73/73
f 74/74/74 76/76/76 73/73/73
f 73/73/73 76/76/76 77/77/77
f 76/76/76 78/78/78 77/77/77
f 81/81/81 80/80/80 79/79/79
f 80/80/80 82/82/82 79/79/79
f 79/79/79 82/82/82 83/83/83
f 82/82/82 84/84/84 83/83/83
f 87/87/87 86/86/86 85/85/85
f 86/86/86 88/88/88 85/85/85
f 85/85/85 88/88/88 89/89/89
f 88/88/88 90/90/90 89/89/89
f 93/93/93 92/92/92 91/91/91
f 92/92/92 94/94/94 91/91/91
f 91/91/91 94/94/94 95/95/95
f 94/94/94 96/96/96 95/95/95
