g Plane003
v 1.11715901 0.248739555 0.368907213
v 1.06756163 0.0111373411 0.0869406238
v 1.17329383 -0.0107027637 0.326178938
v 1.01485908 0.25638935 0.127313733
v 0.859791517 0.00390244322 -0.0732793435
v 0.995904803 0.506995916 0.415733963
v 0.814405441 0.218904749 -0.0379270464
v 0.905489266 0.491334587 0.169825479
v 0.826738298 0.707805097 0.45970872
v 0.732385218 0.400478095 -0.00530684646
v 0.743903339 0.683354855 0.211854309
v 0.599998772 0.871112227 0.50757432
v 0.589726329 0.570553899 0.031863559
v 0.533380508 0.834937692 0.25628832
v 0.35832268 0.965577364 0.552894711
v 0.424224734 0.689795434 0.0667890459
v 0.299515486 0.92624265 0.300138474
v 0.0859625712 0.99149394 0.601890504
v 0.214987427 0.771136761 0.106003411
v 0.0404844284 0.950095892 0.346725494
v -0.178742856 0.94437027 0.651293039
v 0.0057489858 0.787545204 0.143595114
v -0.215393558 0.904391587 0.394486368
v -0.416250557 0.828171849 0.701113641
v -0.204148188 0.749641895 0.182785347
v -0.449107707 0.790092707 0.443506151
v -0.607870698 0.65250057 0.751367569
v -0.400106519 0.655221462 0.223733827
v -0.641074598 0.613921463 0.493878961
v -0.733879626 0.438155323 0.800789893
v -0.565330744 0.50665617 0.266616285
v -0.768176496 0.397708058 0.54373157
v -0.791596413 0.192715645 0.852477431
v -0.683543801 0.305634826 0.312969655
v -0.828125536 0.144474164 0.597076535
v -0.771581411 -0.0531300716 0.904704452
v -0.734329045 0.082622163 0.359868139
v -0.807661712 -0.114616595 0.652100265
v -0.676936269 -0.27487725 0.957512558
v -0.714460373 -0.149803013 0.40926978
v -0.706686437 -0.353734374 0.708941221
v -0.521170259 -0.445913523 1.0100596
v -0.620630562 -0.368647695 0.461427212
v -0.525294125 -0.552136242 0.770078421
v -0.320656985 -0.550699353 1.06359267
v -0.453660131 -0.550632715 0.51757586
v -0.295847893 -0.670130074 0.831187606
v -0.102625914 -0.577606201 1.11789167
v -0.230905697 -0.665414155 0.576921046
v -0.0409075543 -0.701115131 0.894670665
v 0.0913982391 -0.530663073 1.16937196
v 0.0226845611 -0.696122289 0.640068293
v 0.215542436 -0.635383129 0.963184774
v 0.25347963 -0.407149941 1.22488678
v 0.288277745 -0.627169788 0.711126506
v 0.416306615 -0.480104357 1.03238678
v 0.340648741 -0.254457295 1.27549863
v 0.500255764 -0.462549388 0.784323037
v 0.542124867 -0.253263742 1.10728085
v 0.353536665 -0.067519635 1.33302712
v 0.641518176 -0.205250531 0.869148672
v 0.560078561 -0.00498445891 1.18362498
v 0.661950648 0.0741592348 0.955043256
vt 0.950000167 0
vt 1.00000012 0.5
vt 1.00000012 0
vt 0.950000167 0.5
vt 1.00000012 1
vt 0.900000155 0
vt 0.950000167 1
vt 0.900000155 0.5
vt 0.850000143 0
vt 0.900000155 1
vt 0.850000143 0.5
vt 0.800000131 0
vt 0.850000143 1
vt 0.800000131 0.5
vt 0.750000119 0
vt 0.800000131 1
vt 0.750000119 0.5
vt 0.700000107 0
vt 0.750000119 1
vt 0.700000107 0.5
vt 0.650000095 0
vt 0.700000107 1
vt 0.650000095 0.5
vt 0.600000083 0
vt 0.650000095 1
vt 0.600000083 0.5
vt 0.550000072 0
vt 0.600000083 1
vt 0.550000072 0.5
vt 0.50000006 0
vt 0.550000072 1
vt 0.50000006 0.5
vt 0.450000048 0
vt 0.50000006 1
vt 0.450000048 0.5
vt 0.400000036 0
vt 0.450000048 1
vt 0.400000036 0.5
vt 0.350000024 0
vt 0.400000036 1
vt 0.350000024 0.5
vt 0.300000012 0
vt 0.350000024 1
vt 0.300000012 0.5
vt 0.25 0
vt 0.300000012 1
vt 0.25 0.5
vt 0.200000003 0
vt 0.25 1
vt 0.200000003 0.5
vt 0.150000006 0
vt 0.200000003 1
vt 0.150000006 0.5
vt 0.100000001 0
vt 0.150000006 1
vt 0.100000001 0.5
vt 0.0500000007 0
vt 0.100000001 1
vt 0.0500000007 0.5
vt 0 0
vt 0.0500000007 1
vt 0 0.5
vt 0 1
vn 0.8652547 0.353446662 -0.355541378
vn 0.767063498 0.261629283 -0.585801721
vn 0.892941177 0.254373044 -0.371416718
vn 0.745757103 0.348286659 -0.567928374
vn 0.586416662 0.251554191 -0.769958436
vn 0.767830789 0.555853248 -0.318532616
vn 0.568364203 0.318384141 -0.758678913
vn 0.660738051 0.526864231 -0.534639359
vn 0.617535174 0.735373616 -0.279062718
vn 0.502772808 0.457083046 -0.733685732
vn 0.523633599 0.689666331 -0.500168204
vn 0.426574856 0.872400582 -0.238644123
vn 0.386998087 0.595088661 -0.704345047
vn 0.350244612 0.813620269 -0.464058995
vn 0.194101915 0.961468279 -0.194687292
vn 0.246050656 0.69566083 -0.674918592
vn 0.135234356 0.895842254 -0.423294663
vn -0.0676833391 0.986778736 -0.147263795
vn 0.05665778 0.766002834 -0.6403355
vn -0.109137245 0.918575704 -0.379878521
vn -0.326945126 0.939791083 -0.0994972587
vn -0.150715604 0.784039557 -0.602135122
vn -0.352120042 0.873522699 -0.336109459
vn -0.57065326 0.819761932 -0.0484287441
vn -0.354034007 0.746701837 -0.563113153
vn -0.584732294 0.758174241 -0.288548023
vn -0.776806891 0.629710674 0.00595362578
vn -0.555574119 0.649104893 -0.519615471
vn -0.784348071 0.57325083 -0.237026706
vn -0.921802998 0.38253814 0.0628009588
vn -0.735629022 0.484223396 -0.473685235
vn -0.92519325 0.333087176 -0.18185243
vn -0.987540126 0.0992536843 0.122119494
vn -0.870652795 0.252327561 -0.422249526
vn -0.991155982 0.0505484864 -0.122697584
vn -0.962752521 -0.197262242 0.1849197
vn -0.930436373 -0.0129596051 -0.366224229
vn -0.96659261 -0.249041617 -0.0606386177
vn -0.84309268 -0.4756805 0.25084424
vn -0.90509963 -0.295181453 -0.306043506
vn -0.843280375 -0.537445307 0.00554872584
vn -0.637604952 -0.700137854 0.321351856
vn -0.784592032 -0.572193086 -0.238768309
vn -0.619104087 -0.781443954 0.0778172538
vn -0.364125669 -0.842962742 0.396012962
vn -0.568117976 -0.80607909 -0.165766075
vn -0.325897515 -0.93274951 0.154172733
vn -0.0686743259 -0.880654931 0.468754351
vn -0.273017049 -0.958011448 -0.0876109749
vn 0.0018110486 -0.972618282 0.232401296
vn 0.218925402 -0.808599532 0.54611212
vn 0.0658765733 -0.997820139 -0.00390485511
vn 0.33766368 -0.885541677 0.319059819
vn 0.454712242 -0.633125544 0.626409352
vn 0.416914254 -0.90444541 0.0903379098
vn 0.609394431 -0.678804338 0.409710914
vn 0.586458266 -0.402604491 0.702834427
vn 0.70823586 -0.679787397 0.190502509
vn 0.772101462 -0.388783485 0.502699494
vn 0.617388189 -0.270799577 0.738579392
vn 0.885611892 -0.356197 0.298018962
vn 0.80295527 -0.227657139 0.550849438
vn 0.920417309 -0.174803928 0.349679172
g Plane003_0
f 3/3/3 2/2/2 1/1/1
f 4/4/4 1/1/1 2/2/2
f 2/2/2 5/5/5 4/4/4
f 1/1/1 4/4/4 6/6/6
f 7/7/7 4/4/4 5/5/5
f 8/8/8 6/6/6 4/4/4
f 4/4/4 7/7/7 8/8/8
f 6/6/6 8/8/8 9/9/9
f 10/10/10 8/8/8 7/7/7
f 11/11/11 9/9/9 8/8/8
f 8/8/8 10/10/10 11/11/11
f 9/9/9 11/11/11 12/12/12
f 13/13/13 11/11/11 10/10/10
f 14/14/14 12/12/12 11/11/11
f 11/11/11 13/13/13 14/14/14
f 12/12/12 14/14/14 15/15/15
f 16/16/16 14/14/14 13/13/13
f 17/17/17 15/15/15 14/14/14
f 14/14/14 16/16/16 17/17/17
f 15/15/15 17/17/17 18/18/18
f 19/19/19 17/17/17 16/16/16
f 20/20/20 18/18/18 17/17/17
f 17/17/17 19/19/19 20/20/20
f 18/18/18 20/20/20 21/21/21
f 22/22/22 20/20/20 19/19/19
f 23/23/23 21/21/21 20/20/20
f 20/20/20 22/22/22 23/23/23
f 21/21/21 23/23/23 24/24/24
f 25/25/25 23/23/23 22/22/22
f 26/26/26 24/24/24 23/23/23
f 23/23/23 25/25/25 26/26/26
f 24/24/24 26/26/26 27/27/27
f 28/28/28 26/26/26 25/25/25
f 29/29/29 27/27/27 26/26/26
f 26/26/26 28/28/28 29/29/29
f 27/27/27 29/29/29 30/30/30
f 31/31/31 29/29/29 28/28/28
f 32/32/32 30/30/30 29/29/29
f 29/29/29 31/31/31 32/32/32
f 30/30/30 32/32/32 33/33/33
f 34/34/34 32/32/32 31/31/31
f 35/35/35 33/33/33 32/32/32
f 32/32/32 34/34/34 35/35/35
f 33/33/33 35/35/35 36/36/36
f 37/37/37 35/35/35 34/34/34
f 38/38/38 36/36/36 35/35/35
f 35/35/35 37/37/37 38/38/38
f 36/36/36 38/38/38 39/39/39
f 40/40/40 38/38/38 37/37/37
f 41/41/41 39/39/39 38/38/38
f 38/38/38 40/40/40 41/41/41
f 39/39/39 41/41/41 42/42/42
f 43/43/43 41/41/41 40/40/40
f 44/44/44 42/42/42 41/41/41
f 41/41/41 43/43/43 44/44/44
f 42/42/42 44/44/44 45/45/45
f 46/46/46 44/44/44 43/43/43
f 47/47/47 45/45/45 44/44/44
f 44/44/44 46/46/46 47/47/47
f 45/45/45 47/47/47 48/48/48
f 49/49/49 47/47/47 46/46/46
f 50/50/50 48/48/48 47/47/47
f 47/47/47 49/49/49 50/50/50
f 48/48/48 50/50/50 51/51/51
f 52/52/52 50/50/50 49/49/49
f 53/53/53 51/51/51 50/50/50
f 50/50/50 52/52/52 53/53/53
f 51/51/51 53/53/53 54/54/54
f 55/55/55 53/53/53 52/52/52
f 56/56/56 54/54/54 53/53/53
f 53/53/53 55/55/55 56/56/56
f 54/54/54 56/56/56 57/57/57
f 58/58/58 56/56/56 55/55/55
f 59/59/59 57/57/57 56/56/56
f 56/56/56 58/58/58 59/59/59
f 57/57/57 59/59/59 60/60/60
f 61/61/61 59/59/59 58/58/58
f 62/62/62 60/60/60 59/59/59
f 59/59/59 61/61/61 62/62/62
f 63/63/63 62/62/62 61/61/61
