g Plane002
v 1.25837064 -0.266022801 0
v 1.22338748 -0.170867935 0
v 0.528014779 -0.528440297 0
v 0.498685926 -0.448519319 0
v 1.18168521 -0.0675322935 0
v 0.467532903 -0.371290624 0
v 1.13755953 0.0307509322 0
v 0.420217037 -0.320931315 0
v 1.09070671 0.124107517 0
v 0.389305741 -0.259294152 0
v 1.04074705 0.212642103 0
v 0.375178933 -0.186484084 0
v 0.9872123 0.296412379 0
v 0.346041024 -0.140831277 0
v 0.929540277 0.375388205 0
v 0.318585694 -0.103169188 0
v 0.867088079 0.449392468 0
v 0.293456227 -0.0733208209 0
v 0.833975077 0.606613576 0
v 0.283929735 -0.0584212579 0
v 0.725182056 0.580595076 0
v 0.271175802 -0.0560333095 0
v 0.605390251 0.657065332 0
v 0.258818895 -0.0665108934 0
v 0.454668373 0.71482569 0
v 0.247627586 -0.0664612874 0
v 0.310186356 0.740471959 0
v 0.22550571 -0.069385156 0
v 0.176154315 0.743528366 0
v 0.204151392 -0.121740133 0
v 0.0532948934 0.731240213 0
v 0.167674869 -0.115556151 0
v -0.0585444868 0.708531916 0
v 0.131493837 -0.103732817 0
v -0.173373058 0.758099198 0
v 0.107307017 -0.102760881 0
v -0.312453032 0.775203288 0
v 0.0829343796 -0.107302219 0
v -0.42757836 0.78479135 0
v 0.0668241456 -0.100242727 0
v -0.582893014 0.728618681 0
v 0.0357131921 -0.103965916 0
v -0.763410568 0.57627821 0
v 0.0240169987 -0.126783997 0
v -0.814034045 0.462006956 0
v 0.00031476398 -0.158319846 0
v -0.826210499 0.228298217 0
v -0.0285344012 -0.177398473 0
v -0.791545749 0.0679154322 0
v -0.036742717 -0.195744365 0
v -0.80178082 -0.0571262315 0
v -0.0413914397 -0.212338224 0
v -0.818484247 -0.184307396 0
v -0.0438426733 -0.231350511 0
v -0.817668319 -0.311677754 0
v -0.0436073169 -0.255891293 0
v -0.800840914 -0.437015623 0
v -0.0391775742 -0.288181841 0
v -0.769884586 -0.559255064 0
v -0.0286707543 -0.329288274 0
v -0.699056983 -0.76459372 0
v 0.0657326132 -0.567854464 0
vt 1.07795906 0.376521826
vt 1.0607965 0.42784217
vt 0.719647527 0.234990939
vt 0.705258906 0.278095067
vt 1.04033732 0.483574659
vt 0.689975321 0.31974721
vt 1.01868939 0.536582232
vt 0.666762173 0.346907735
vt 0.995703578 0.586932719
vt 0.651597142 0.380150825
vt 0.971193135 0.634682477
vt 0.644666553 0.419419765
vt 0.944929242 0.679862738
vt 0.63037163 0.444041967
vt 0.916635454 0.722457111
vt 0.616901994 0.464354485
vt 0.885996342 0.762370229
vt 0.604573488 0.480452716
vt 0.869751275 0.847164989
vt 0.599899828 0.488488585
vt 0.81637764 0.833132327
vt 0.593642831 0.489776492
vt 0.757607937 0.874375463
vt 0.587580502 0.484125555
vt 0.683663845 0.905527413
vt 0.581658721 0.473586649
vt 0.612781286 0.919359446
vt 0.575589955 0.453096867
vt 0.547025383 0.921007872
vt 0.572945654 0.411199927
vt 0.486750811 0.914380491
vt 0.545452714 0.416015297
vt 0.43188256 0.902133107
vt 0.525115132 0.464050502
vt 0.375547826 0.928866386
vt 0.51324904 0.464574665
vt 0.307315469 0.938091278
vt 0.501291931 0.462125331
vt 0.25083515 0.943262458
vt 0.493388206 0.465932846
vt 0.174638033 0.912966609
vt 0.478125215 0.463924766
vt 0.0860764161 0.830804169
vt 0.472387105 0.451618165
vt 0.0612406321 0.769173622
vt 0.460758835 0.434609771
vt 0.0552668795 0.643126369
vt 0.446605504 0.424320012
vt 0.0722733214 0.556626379
vt 0.442578495 0.414425403
vt 0.0672520474 0.489187002
vt 0.440297842 0.405475765
vt 0.0590573885 0.420593798
vt 0.439095259 0.3952218
vt 0.0594576336 0.351898521
vt 0.439210743 0.381986111
vt 0.0677131191 0.284299433
vt 0.441383958 0.364570677
vt 0.082900241 0.218371466
vt 0.446538568 0.342400551
vt 0.117648154 0.107625157
vt 0.492852718 0.213733509
vn -0 0 -1
vn -0 0 -1
vn -0 0 -1
vn -0 0 -1
vn -0 0 -1
vn -0 0 -1
vn -0 0 -1
vn -0 0 -1
vn -0 0 -1
vn -0 0 -1
vn -0 0 -1
vn -0 0 -1
vn -0 0 -1
vn -0 0 -1
vn -0 0 -1
vn -0 0 -1
vn -0 0 -1
vn -0 0 -1
vn -0 0 -1
vn -0 0 -1
vn -0 0 -1
vn -0 0 -1
vn -0 0 -1
vn -0 0 -1
vn -0 0 -1
vn -0 0 -1
vn -0 0 -1
vn -0 0 -1
vn -0 0 -1
vn -0 0 -1
vn -0 0 -1
vn -0 0 -1
vn -0 0 -1
vn -0 0 -1
vn -0 0 -1
vn -0 0 -1
vn -0 0 -1
vn -0 0 -1
vn -0 0 -1
vn -0 0 -1
vn -0 0 -1
vn -0 0 -1
vn -0 0 -1
vn -0 0 -1
vn -0 0 -1
vn -0 0 -1
vn -0 0 -1
vn -0 0 -1
vn -0 0 -1
vn -0 0 -1
vn -0 0 -1
vn -0 0 -1
vn -0 0 -1
vn -0 0 -1
vn -0 0 -1
vn -0 0 -1
vn -0 0 -1
vn -0 0 -1
vn -0 0 -1
vn -0 0 -1
vn -0 0 -1
vn -0 0 -1
g Plane002_0
f 3/3/3 2/2/2 1/1/1
f 2/2/2 3/3/3 4/4/4
f 4/4/4 5/5/5 2/2/2
f 5/5/5 4/4/4 6/6/6
f 6/6/6 7/7/7 5/5/5
f 7/7/7 6/6/6 8/8/8
f 8/8/8 9/9/9 7/7/7
f 9/9/9 8/8/8 10/10/10
f 10/10/10 11/11/11 9/9/9
f 11/11/11 10/10/10 12/12/12
f 12/12/12 13/13/13 11/11/11
f 13/13/13 12/12/12 14/14/14
f 14/14/14 15/15/15 13/13/13
f 15/15/15 14/14/14 16/16/16
f 16/16/16 17/17/17 15/15/15
f 17/17/17 16/16/16 18/18/18
f 18/18/18 19/19/19 17/17/17
f 19/19/19 18/18/18 20/20/20
f 20/20/20 21/21/21 19/19/19
f 21/21/21 20/20/20 22/22/22
f 22/22/22 23/23/23 21/21/21
f 23/23/23 22/22/22 24/24/24
f 24/24/24 25/25/25 23/23/23
f 25/25/25 24/24/24 26/26/26
f 26/26/26 27/27/27 25/25/25
f 27/27/27 26/26/26 28/28/28
f 28/28/28 29/29/29 27/27/27
f 29/29/29 28/28/28 30/30/30
f 30/30/30 31/31/31 29/29/29
f 31/31/31 30/30/30 32/32/32
f 32/32/32 33/33/33 31/31/31
f 33/33/33 32/32/32 34/34/34
f 34/34/34 35/35/35 33/33/33
f 35/35/35 34/34/34 36/36/36
f 36/36/36 37/37/37 35/35/35
f 37/37/37 36/36/36 38/38/38
f 38/38/38 39/39/39 37/37/37
f 39/39/39 38/38/38 40/40/40
f 40/40/40 41/41/41 39/39/39
f 41/41/41 40/40/40 42/42/42
f 42/42/42 43/43/43 41/41/41
f 43/43/43 42/42/42 44/44/44
f 44/44/44 45/45/45 43/43/43
f 45/45/45 44/44/44 46/46/46
f 46/46/46 47/47/47 45/45/45
f 47/47/47 46/46/46 48/48/48
f 48/48/48 49/49/49 47/47/47
f 49/49/49 48/48/48 50/50/50
f 50/50/50 51/51/51 49/49/49
f 51/51/51 50/50/50 52/52/52
f 52/52/52 53/53/53 51/51/51
f 53/53/53 52/52/52 54/54/54
f 54/54/54 55/55/55 53/53/53
f 55/55/55 54/54/54 56/56/56
f 56/56/56 57/57/57 55/55/55
f 57/57/57 56/56/56 58/58/58
f 58/58/58 59/59/59 57/57/57
f 59/59/59 58/58/58 60/60/60
f 60/60/60 61/61/61 59/59/59
f 61/61/61 60/60/60 62/62/62
