g stone_01
v -0.48558712 0.209147185 -0.508102119
v -0.525859654 -0.0386444703 -0.312548935
v -0.290924609 -0.623227119 -0.0262583643
v -0.0687788129 -0.309124619 -0.614544749
v 0.449531823 -0.722935498 -0.0411141329
v 0.558365643 0.107111692 -0.365420997
v 0.521033347 -0.229488373 -0.486954808
v 0.507198036 -0.0282938536 0.131588787
v 0.456465155 -0.393371135 0.424265385
v 0.449531823 -0.722935498 -0.0411141329
v -0.290924609 -0.623227119 -0.0262583643
v 0.27035895 -0.030780429 0.629083037
v 0.290808201 0.338633478 0.550026417
v -0.440054983 0.0869447216 0.550979614
v -0.525859654 -0.0386444703 -0.312548935
v 0.310363233 0.601175427 -0.0782800689
v 0.224604875 0.54531455 0.508867919
v -0.365255803 0.602475286 -0.192771465
v -0.48558712 0.209147185 -0.508102119
v -0.347633094 0.518916249 0.537103176
vt 0.221897274 0.526508927
vt 0.152509093 0.527064443
vt 0.038311407 0.61598897
vt 0.165647775 0.639206588
vt 0.0708609968 0.770575404
vt 0.283485502 0.728162587
vt 0.208035201 0.740780294
vt 0.288741797 0.810823798
vt 0.294301361 0.852657974
vt 0.208739147 0.889556289
vt 0.34979558 0.981321514
vt 0.317274064 0.837477803
vt 0.32640478 0.824086964
vt 0.347058415 0.849068165
vt 0.464719087 0.863947332
vt 0.338366151 0.795010567
vt 0.335380852 0.819984674
vt 0.368188173 0.812080383
vt 0.443313181 0.790987074
vt 0.349145919 0.829564631
vn -0.647249758 0.267957985 -0.713628888
vn -0.946173549 -0.227944732 -0.229775861
vn -0.557215571 -0.82736969 0.0704988539
vn -0.149939522 -0.356644273 -0.922129571
vn 0.518000662 -0.855328262 -0.00943040103
vn 0.795525491 0.347802073 -0.496158123
vn 0.700916648 -0.162273511 -0.694538057
vn 0.973692358 0.113135576 0.197796524
vn 0.58236444 -0.484459281 0.652802348
vn 0.518000662 -0.855328262 -0.00943040103
vn -0.557215571 -0.82736969 0.0704988539
vn 0.347097069 -0.15937227 0.924188316
vn 0.604981184 0.265821815 0.750557482
vn -0.697577298 -0.134498104 0.703772724
vn -0.946173549 -0.227944732 -0.229775861
vn 0.516134858 0.820926666 -0.24430342
vn 0.426111221 0.667641401 0.610478699
vn -0.489280701 0.80121547 -0.344468027
vn -0.647249758 0.267957985 -0.713628888
vn -0.500424743 0.608249307 0.616123319
g stone_01_0
f 3/3/3 2/2/2 1/1/1
f 4/4/4 3/3/3 1/1/1
f 3/3/3 4/4/4 5/5/5
f 1/1/1 6/6/6 4/4/4
f 4/4/4 7/7/7 5/5/5
f 6/6/6 7/7/7 4/4/4
f 7/7/7 6/6/6 8/8/8
f 7/7/7 8/8/8 9/9/9
f 9/9/9 10/10/10 7/7/7
f 9/9/9 11/11/11 10/10/10
f 9/9/9 8/8/8 12/12/12
f 9/9/9 12/12/12 11/11/11
f 8/8/8 13/13/13 12/12/12
f 13/13/13 8/8/8 6/6/6
f 12/12/12 14/14/14 11/11/11
f 14/14/14 12/12/12 13/13/13
f 15/15/15 11/11/11 14/14/14
f 6/6/6 16/16/16 13/13/13
f 13/13/13 17/17/17 14/14/14
f 16/16/16 17/17/17 13/13/13
f 18/18/18 16/16/16 6/6/6
f 17/17/17 16/16/16 18/18/18
f 19/19/19 18/18/18 6/6/6
f 19/19/19 15/15/15 18/18/18
f 17/17/17 20/20/20 14/14/14
f 20/20/20 17/17/17 18/18/18
f 15/15/15 20/20/20 18/18/18
f 15/15/15 14/14/14 20/20/20
