g treebase8
v -22.3460693 38.7283669 29.1219482
v -31.7896423 38.7283669 18.3536377
v -36.3934326 38.7283669 4.79162598
v -35.456665 38.7283669 -9.50073242
v -29.1219482 38.7283669 -22.3459167
v -18.3538513 38.7283669 -31.7895508
v -9.5007019 38.7283669 35.456665
v -4.79125977 38.7283669 -36.3933105
v 4.79110718 38.7283669 36.3931885
v 9.50054932 38.7283669 -35.4567871
v 16.8617859 38.7283669 32.2960205
v 22.3458862 38.7283669 -29.1219788
v 23.6142883 38.7283669 31.067749
v 28.3723145 38.7283669 -24.9024963
v 30.9525146 38.7283669 -22.405304
v 29.1217957 38.7283669 22.3459473
v 28.2603455 38.7283669 27.7325439
v 31.1759644 38.7283669 15.3029785
v 32.2826538 38.7283669 -19.136322
v 35.4565125 38.7283669 9.50061035
v 36.393219 38.7283669 -4.79110718
vt 0.513793945 0.455302447
vt 0.539146304 0.504610777
vt 0.581436634 0.540462732
vt 0.634231806 0.557402194
vt 0.689488351 0.552848458
vt 0.738795936 0.527496576
vt 0.509239912 0.400045574
vt 0.774648607 0.485203505
vt 0.526179612 0.347253203
vt 0.791588545 0.432410896
vt 0.558087766 0.309612364
vt 0.787034631 0.37715444
vt 0.572107434 0.28704375
vt 0.780406117 0.34945783
vt 0.775081277 0.336618096
vt 0.611340106 0.279608071
vt 0.59071964 0.275054425
vt 0.639619529 0.28222096
vt 0.765200853 0.327182472
vt 0.666596174 0.275054425
vt 0.7193892 0.291993409
vn -0 1 0
vn -0 1 0
vn -0 1 0
vn -0 1 0
vn -0 1 0
vn -0 1 0
vn -0 1 0
vn -0 1 0
vn -0 1 0
vn -0 1 0
vn -0 1 0
vn -0 1 0
vn -0 1 0
vn -0 1 0
vn -0 1 0
vn -0 1 0
vn -0 1 0
vn -0 1 0
vn -0 1 0
vn -0 1 0
vn -0 1 0
g treebase8_0
f 3/3/3 2/2/2 1/1/1
f 4/4/4 3/3/3 1/1/1
f 5/5/5 4/4/4 1/1/1
f 1/1/1 6/6/6 5/5/5
f 1/1/1 7/7/7 6/6/6
f 7/7/7 8/8/8 6/6/6
f 7/7/7 9/9/9 8/8/8
f 9/9/9 10/10/10 8/8/8
f 9/9/9 11/11/11 10/10/10
f 11/11/11 12/12/12 10/10/10
f 11/11/11 13/13/13 12/12/12
f 13/13/13 14/14/14 12/12/12
f 15/15/15 14/14/14 13/13/13
f 13/13/13 16/16/16 15/15/15
f 13/13/13 17/17/17 16/16/16
f 16/16/16 18/18/18 15/15/15
f 18/18/18 19/19/19 15/15/15
f 18/18/18 20/20/20 19/19/19
f 20/20/20 21/21/21 19/19/19
