g Object004
v -0.021698676 -6.40838849E-08 0.705753863
v -0.00730604632 -4.53264306E-08 0.509362757
v 0.0334890895 -6.49105587E-08 0.671424866
v 0.0484714583 -4.62059511E-08 0.488089621
v 0.0910419673 -6.57372397E-08 0.638250232
v 0.00779375853 -2.72313763E-08 0.32590124
v 0.106595188 -4.70854751E-08 0.467396796
v 0.0641607642 -2.81810593E-08 0.317107081
v 0.0228726827 -1.07826938E-08 0.164697543
v 0.122852966 -2.91307458E-08 0.30823797
v 0.0797952712 -1.1817245E-08 0.167113677
v 0.0379312113 4.02467348E-09 0.0246050507
v 0.139020875 -1.28517792E-08 0.168763816
v 0.0953663662 2.88548563E-09 0.0370193347
v 0.0529775806 1.71984933E-08 -0.0954965055
v 0.155080453 1.74626325E-09 0.0479522683
v 0.110865712 1.59270748E-08 -0.074216269
v 0.0680327639 2.87510868E-08 -0.196711749
v 0.171005741 1.46556047E-08 -0.0551474206
v 0.126285121 2.73074772E-08 -0.167581394
v 0.0831463784 3.87033801E-08 -0.280149132
v 0.186757147 2.58639261E-08 -0.141399741
v 0.141616836 3.70268829E-08 -0.244010255
v 0.0984356552 4.70932484E-08 -0.346964717
v 0.202265218 3.53503609E-08 -0.211561739
v 0.15685302 4.50850877E-08 -0.30438301
v 0.114203781 5.39960858E-08 -0.398453832
v 0.217388853 4.30769624E-08 -0.266237289
v 0.171986014 5.14822389E-08 -0.349524438
v 0.131383255 5.95789906E-08 -0.436214119
v 0.231788665 4.89683956E-08 -0.305779785
v 0.187008545 5.62182549E-08 -0.380203635
v 0.166643798 6.57372539E-08 -0.466583908
v 0.244458333 5.2857569E-08 -0.33008188
v 0.203736112 5.94523613E-08 -0.397494674
v 0.289292812 5.9592665E-08 -0.361970454
v 0.241609856 5.3167529E-08 -0.333480209
v 0.229114115 5.66067584E-08 -0.364311665
v 0.318756849 4.74081645E-08 -0.266834617
v 0.170813605 5.36207843E-08 -0.367172152
v 0.254240096 4.57445708E-08 -0.274108112
v 0.344781369 3.16492645E-08 -0.15296945
v 0.191802248 4.40809735E-08 -0.282936782
v 0.278926432 3.03074472E-08 -0.155552775
v 0.369603068 1.50705883E-08 -0.0384197608
v 0.215163514 2.89656032E-08 -0.159155414
v 0.302978247 1.3736865E-08 -0.034431342
v 0.392932206 1.15306575E-09 0.0546009168
v 0.238425463 1.24031194E-08 -0.0304116011
v 0.326194763 -5.25609278E-10 0.0658035278
v 0.408714741 -5.26991872E-09 0.0964698717
v 0.261473566 -2.20429586E-09 0.0782715678
v 0.348370641 -9.0384118E-09 0.123452187
v 0.362754256 -5.02901987E-09 0.0959112868
v 0.289632499 -1.28069102E-08 0.153303087
v 0.392080724 -1.20896138E-08 0.141664162
v 0.366723448 -1.71716741E-09 0.073663272
v 0.421779931 -1.91502227E-08 0.185849354
v 0.433189154 -4.01484979E-09 0.0879448578
v 0.397467643 1.53039093E-08 -0.0380968153
v 0.501501858 -6.31256647E-09 0.101529688
v 0.467144489 1.41222216E-08 -0.0269958694
v 0.538769782 1.29405446E-08 -0.0177165419
v -0.151224002 3.93871069E-08 -0.520736098
v -0.116693072 2.54317669E-08 -0.338314921
v -0.105514102 4.22348307E-08 -0.520082474
v -0.069479771 2.83462391E-08 -0.346408159
v -0.0575982295 4.50825475E-08 -0.516138613
v -0.0744780079 9.73004344E-09 -0.149322018
v -0.0201121438 3.12607291E-08 -0.351295888
v -0.025725076 1.27817072E-08 -0.167670399
v -0.0329813212 -4.26420366E-09 0.00384953478
v 0.0251068007 1.58333311E-08 -0.182693437
v 0.0170164034 -1.04327169E-09 -0.0235106405
v 0.00756475143 -1.65633161E-08 0.125839829
v 0.0690124556 2.17762564E-09 -0.0472727306
v 0.0584464334 -1.31286519E-08 0.09075021
v 0.0470095314 -2.71865002E-08 0.220954001
v 0.111235552 -9.69398783E-09 0.0596301183
v 0.0982926413 -2.34744562E-08 0.1793354
v 0.0853418857 -3.61646073E-08 0.293077469
v 0.151375443 -1.97623979E-08 0.142101482
v 0.136307374 -3.20806528E-08 0.245933101
v 0.122835085 -4.35487912E-08 0.345632493
v 0.188934296 -2.79967072E-08 0.203570172
v 0.172265843 -3.89472632E-08 0.293665349
v 0.160439715 -4.94214447E-08 0.381495953
v 0.223166704 -3.4345728E-08 0.246767059
v 0.205965579 -4.40742802E-08 0.325088531
v 0.200895578 -5.38750591E-08 0.402480125
v 0.252670228 -3.87271122E-08 0.273741186
v 0.237224951 -4.74617146E-08 0.342223376
v 0.258446127 -5.68552601E-08 0.40531382
v 0.274266094 -4.10483665E-08 0.286243379
v 0.266748011 -4.91156165E-08 0.346416742
v 0.359412402 -4.931427E-08 0.32658273
v 0.275084764 -4.13759729E-08 0.288436741
v 0.298754096 -4.59133389E-08 0.315733522
v 0.388830394 -3.81803105E-08 0.247902408
v 0.239827603 -4.25124291E-08 0.304611683
v 0.321905017 -3.66735868E-08 0.246872336
v 0.406846046 -2.45522163E-08 0.157031968
v 0.257018358 -3.51668596E-08 0.246761188
v 0.338568419 -2.36527953E-08 0.155491129
v 0.420119792 -9.8177928E-09 0.0610542782
v 0.272365928 -2.27533743E-08 0.154411346
v 0.351281226 -9.10750764E-09 0.0561972819
v 0.431771457 3.89472365E-09 -0.0270103794
v 0.284517229 -8.39722158E-09 0.0507813841
v 0.36267975 4.70580552E-09 -0.0364135355
v 0.444072217 1.40723753E-08 -0.0914022326
v 0.29564783 5.5168643E-09 -0.0475864708
v 0.375465602 1.55306186E-08 -0.107492164
v 0.455205351 1.77013089E-08 -0.113619916
v 0.308857828 1.69888743E-08 -0.126622394
v 0.398383051 2.22998775E-08 -0.14928171
v 0.400109977 1.76741057E-08 -0.118794404
v 0.34289971 2.68985119E-08 -0.188957766
v 0.443822414 2.37796112E-08 -0.153382123
v 0.422123313 1.18339534E-08 -0.0787436292
v 0.488315642 2.98851219E-08 -0.187526554
v 0.48964563 1.42971031E-08 -0.089843221
v 0.455360472 -2.21578289E-09 0.0128195779
v 0.558946848 1.67602998E-08 -0.102440804
v 0.525590897 -4.40874198E-10 0.00304091163
v 0.597666979 1.33403455E-09 -0.00733846892
vt 0.802019715 0.160011142
vt 0.776921332 0.160011142
vt 0.802019715 0.5
vt 0.776921332 0.5
vt 0.802019715 0.839988947
vt 0.751822948 0.160011142
vt 0.776921332 0.839988947
vt 0.751822948 0.5
vt 0.726724505 0.160011142
vt 0.751822948 0.839988947
vt 0.726724505 0.5
vt 0.701626062 0.160011142
vt 0.726724505 0.839988947
vt 0.701626062 0.5
vt 0.676527679 0.160011142
vt 0.701626062 0.839988947
vt 0.676527679 0.5
vt 0.651429296 0.160011142
vt 0.676527679 0.839988947
vt 0.651429296 0.5
vt 0.626330853 0.160011142
vt 0.651429296 0.839988947
vt 0.626330853 0.5
vt 0.601232409 0.160011142
vt 0.626330853 0.839988947
vt 0.601232409 0.5
vt 0.576134026 0.160011142
vt 0.601232409 0.839988947
vt 0.576134026 0.5
vt 0.551035643 0.160011142
vt 0.576134026 0.839988947
vt 0.551035643 0.5
vt 0.5259372 0.160011142
vt 0.551035643 0.839988947
vt 0.5259372 0.5
vt 0.500838757 0.160011142
vt 0.5259372 0.839988947
vt 0.500838757 0.5
vt 0.475740373 0.160011142
vt 0.500838757 0.839988947
vt 0.475740373 0.5
vt 0.45064196 0.160011142
vt 0.475740373 0.839988947
vt 0.45064196 0.5
vt 0.425543547 0.160011142
vt 0.45064196 0.839988947
vt 0.425543547 0.5
vt 0.400445133 0.160011142
vt 0.425543547 0.839988947
vt 0.400445133 0.5
vt 0.37534672 0.160011142
vt 0.400445133 0.839988947
vt 0.37534672 0.5
vt 0.350248337 0.160011142
vt 0.37534672 0.839988947
vt 0.350248337 0.5
vt 0.325149924 0.160011142
vt 0.350248337 0.839988947
vt 0.325149924 0.5
vt 0.30005151 0.160011142
vt 0.325149924 0.839988947
vt 0.30005151 0.5
vt 0.30005151 0.839988947
vt 0.606450438 0.160011142
vt 0.581352115 0.160011142
vt 0.606450438 0.5
vt 0.581352115 0.5
vt 0.606450438 0.839988947
vt 0.556253672 0.160011142
vt 0.581352115 0.839988947
vt 0.556253672 0.5
vt 0.531155229 0.160011142
vt 0.556253672 0.839988947
vt 0.531155229 0.5
vt 0.506056786 0.160011142
vt 0.531155229 0.839988947
vt 0.506056786 0.5
vt 0.480958432 0.160011142
vt 0.506056786 0.839988947
vt 0.480958432 0.5
vt 0.455859989 0.160011142
vt 0.480958432 0.839988947
vt 0.455859989 0.5
vt 0.430761546 0.160011142
vt 0.455859989 0.839988947
vt 0.430761546 0.5
vt 0.405663162 0.160011142
vt 0.430761546 0.839988947
vt 0.405663162 0.5
vt 0.380564779 0.160011142
vt 0.405663162 0.839988947
vt 0.380564779 0.5
vt 0.355466336 0.160011142
vt 0.380564779 0.839988947
vt 0.355466336 0.5
vt 0.330367893 0.160011142
vt 0.355466336 0.839988947
vt 0.330367893 0.5
vt 0.30526951 0.160011142
vt 0.330367893 0.839988947
vt 0.30526951 0.5
vt 0.280171126 0.160011142
vt 0.30526951 0.839988947
vt 0.280171126 0.5
vt 0.255072683 0.160011142
vt 0.280171126 0.839988947
vt 0.255072683 0.5
vt 0.22997424 0.160011142
vt 0.255072683 0.839988947
vt 0.22997424 0.5
vt 0.204875857 0.160011142
vt 0.22997424 0.839988947
vt 0.204875857 0.5
vt 0.179777473 0.160011142
vt 0.204875857 0.839988947
vt 0.179777473 0.5
vt 0.15467903 0.160011142
vt 0.179777473 0.839988947
vt 0.15467903 0.5
vt 0.129580647 0.160011142
vt 0.15467903 0.839988947
vt 0.129580647 0.5
vt 0.104482234 0.160011142
vt 0.129580647 0.839988947
vt 0.104482234 0.5
vt 0.104482234 0.839988947
vn -0 1 0
vn -0 1 0
vn -0 1 0
vn -0 1 0
vn -0 1 0
vn -0 1 0
vn -0 1 0
vn -0 1 0
vn -0 1 0
vn -0 1 0
vn -0 1 0
vn -0 1 0
vn -0 1 0
vn -0 1 0
vn -0 1 0
vn -0 1 0
vn -0 1 0
vn -0 1 0
vn -0 1 0
vn -0 1 0
vn -0 1 0
vn -0 1 0
vn -0 1 0
vn -0 1 0
vn -0 1 0
vn -0 1 0
vn -0 1 0
vn -0 1 0
vn -0 1 0
vn -0 1 0
vn -0 1 0
vn -0 1 0
vn -0 1 0
vn -0 1 0
vn -0 1 0
vn -0 1 0
vn -0 -1 0
vn -0 1 0
vn -0 1 0
vn -0 1 0
vn -0 1 0
vn -0 1 0
vn -0 1 0
vn -0 1 0
vn -0 1 0
vn -0 1 0
vn -0 1 0
vn -0 1 0
vn -0 1 0
vn -0 1 0
vn -0 1 0
vn -0 1 0
vn -0 1 0
vn -0 1 0
vn -0 1 0
vn -0 1 0
vn -0 1 0
vn -0 1 0
vn -0 1 0
vn -0 1 0
vn -0 1 0
vn -0 1 0
vn -0 1 0
vn -0 -1 0
vn -0 -1 0
vn -0 -1 0
vn -0 -1 0
vn -0 -1 0
vn -0 -1 0
vn -0 -1 0
vn -0 -1 0
vn -0 -1 0
vn -0 -1 0
vn -0 -1 0
vn -0 -1 0
vn -0 -1 0
vn -0 -1 0
vn -0 -1 0
vn -0 -1 0
vn -0 -1 0
vn -0 -1 0
vn -0 -1 0
vn -0 -1 0
vn -0 -1 0
vn -0 -1 0
vn -0 -1 0
vn -0 -1 0
vn -0 -1 0
vn -0 -1 0
vn -0 -1 0
vn -0 -1 0
vn -0 -1 0
vn -0 -1 0
vn -0 -1 0
vn -0 -1 0
vn -0 -1 0
vn -0 -1 0
vn -0 -1 0
vn -0 -1 0
vn -0 -1 0
vn -0 -1 0
vn -0 -1 0
vn -0 -1 0
vn -0 -1 0
vn -0 -1 0
vn -0 -1 0
vn -0 -1 0
vn -0 -1 0
vn -0 -1 0
vn -0 -1 0
vn -0 -1 0
vn -0 -1 0
vn -0 -1 0
vn -0 -1 0
vn -0 -1 0
vn -0 -1 0
vn -0 -1 0
vn -0 -1 0
vn -0 -1 0
vn -0 -1 0
vn -0 -1 0
vn -0 -1 0
vn -0 -1 0
vn -0 -1 0
vn -0 -1 0
vn -0 -1 0
g Object004_0
f 3/3/3 2/2/2 1/1/1
f 2/2/2 3/3/3 4/4/4
f 5/5/5 4/4/4 3/3/3
f 4/4/4 6/6/6 2/2/2
f 4/4/4 5/5/5 7/7/7
f 6/6/6 4/4/4 8/8/8
f 7/7/7 8/8/8 4/4/4
f 8/8/8 9/9/9 6/6/6
f 8/8/8 7/7/7 10/10/10
f 9/9/9 8/8/8 11/11/11
f 10/10/10 11/11/11 8/8/8
f 11/11/11 12/12/12 9/9/9
f 11/11/11 10/10/10 13/13/13
f 12/12/12 11/11/11 14/14/14
f 13/13/13 14/14/14 11/11/11
f 14/14/14 15/15/15 12/12/12
f 14/14/14 13/13/13 16/16/16
f 15/15/15 14/14/14 17/17/17
f 16/16/16 17/17/17 14/14/14
f 17/17/17 18/18/18 15/15/15
f 17/17/17 16/16/16 19/19/19
f 18/18/18 17/17/17 20/20/20
f 19/19/19 20/20/20 17/17/17
f 20/20/20 21/21/21 18/18/18
f 20/20/20 19/19/19 22/22/22
f 21/21/21 20/20/20 23/23/23
f 22/22/22 23/23/23 20/20/20
f 23/23/23 24/24/24 21/21/21
f 23/23/23 22/22/22 25/25/25
f 24/24/24 23/23/23 26/26/26
f 25/25/25 26/26/26 23/23/23
f 26/26/26 27/27/27 24/24/24
f 26/26/26 25/25/25 28/28/28
f 27/27/27 26/26/26 29/29/29
f 28/28/28 29/29/29 26/26/26
f 29/29/29 30/30/30 27/27/27
f 29/29/29 28/28/28 31/31/31
f 30/30/30 29/29/29 32/32/32
f 31/31/31 32/32/32 29/29/29
f 32/32/32 33/33/33 30/30/30
f 32/32/32 31/31/31 34/34/34
f 33/33/33 32/32/32 35/35/35
f 34/34/34 35/35/35 32/32/32
f 35/35/35 36/36/36 33/33/33
f 35/35/35 34/34/34 37/37/37
f 36/36/36 35/35/35 38/38/38
f 37/37/37 38/38/38 35/35/35
f 38/38/38 39/39/39 36/36/36
f 38/38/38 37/37/37 40/40/40
f 39/39/39 38/38/38 41/41/41
f 40/40/40 41/41/41 38/38/38
f 41/41/41 42/42/42 39/39/39
f 41/41/41 40/40/40 43/43/43
f 42/42/42 41/41/41 44/44/44
f 43/43/43 44/44/44 41/41/41
f 44/44/44 45/45/45 42/42/42
f 44/44/44 43/43/43 46/46/46
f 45/45/45 44/44/44 47/47/47
f 46/46/46 47/47/47 44/44/44
f 47/47/47 48/48/48 45/45/45
f 47/47/47 46/46/46 49/49/49
f 48/48/48 47/47/47 50/50/50
f 49/49/49 50/50/50 47/47/47
f 50/50/50 51/51/51 48/48/48
f 50/50/50 49/49/49 52/52/52
f 51/51/51 50/50/50 53/53/53
f 52/52/52 53/53/53 50/50/50
f 53/53/53 54/54/54 51/51/51
f 53/53/53 52/52/52 55/55/55
f 54/54/54 53/53/53 56/56/56
f 55/55/55 56/56/56 53/53/53
f 56/56/56 57/57/57 54/54/54
f 56/56/56 55/55/55 58/58/58
f 57/57/57 56/56/56 59/59/59
f 58/58/58 59/59/59 56/56/56
f 59/59/59 60/60/60 57/57/57
f 59/59/59 58/58/58 61/61/61
f 60/60/60 59/59/59 62/62/62
f 61/61/61 62/62/62 59/59/59
f 62/62/62 61/61/61 63/63/63
f 66/66/66 65/65/65 64/64/64
f 65/65/65 66/66/66 67/67/67
f 68/68/68 67/67/67 66/66/66
f 67/67/67 69/69/69 65/65/65
f 67/67/67 68/68/68 70/70/70
f 69/69/69 67/67/67 71/71/71
f 70/70/70 71/71/71 67/67/67
f 71/71/71 72/72/72 69/69/69
f 71/71/71 70/70/70 73/73/73
f 72/72/72 71/71/71 74/74/74
f 73/73/73 74/74/74 71/71/71
f 74/74/74 75/75/75 72/72/72
f 74/74/74 73/73/73 76/76/76
f 75/75/75 74/74/74 77/77/77
f 76/76/76 77/77/77 74/74/74
f 77/77/77 78/78/78 75/75/75
f 77/77/77 76/76/76 79/79/79
f 78/78/78 77/77/77 80/80/80
f 79/79/79 80/80/80 77/77/77
f 80/80/80 81/81/81 78/78/78
f 80/80/80 79/79/79 82/82/82
f 81/81/81 80/80/80 83/83/83
f 82/82/82 83/83/83 80/80/80
f 83/83/83 84/84/84 81/81/81
f 83/83/83 82/82/82 85/85/85
f 84/84/84 83/83/83 86/86/86
f 85/85/85 86/86/86 83/83/83
f 86/86/86 87/87/87 84/84/84
f 86/86/86 85/85/85 88/88/88
f 87/87/87 86/86/86 89/89/89
f 88/88/88 89/89/89 86/86/86
f 89/89/89 90/90/90 87/87/87
f 89/89/89 88/88/88 91/91/91
f 90/90/90 89/89/89 92/92/92
f 91/91/91 92/92/92 89/89/89
f 92/92/92 93/93/93 90/90/90
f 92/92/92 91/91/91 94/94/94
f 93/93/93 92/92/92 95/95/95
f 94/94/94 95/95/95 92/92/92
f 95/95/95 96/96/96 93/93/93
f 95/95/95 94/94/94 97/97/97
f 96/96/96 95/95/95 98/98/98
f 97/97/97 98/98/98 95/95/95
f 98/98/98 99/99/99 96/96/96
f 98/98/98 97/97/97 100/100/100
f 99/99/99 98/98/98 101/101/101
f 100/100/100 101/101/101 98/98/98
f 101/101/101 102/102/102 99/99/99
f 101/101/101 100/100/100 103/103/103
f 102/102/102 101/101/101 104/104/104
f 103/103/103 104/104/104 101/101/101
f 104/104/104 105/105/105 102/102/102
f 104/104/104 103/103/103 106/106/106
f 105/105/105 104/104/104 107/107/107
f 106/106/106 107/107/107 104/104/104
f 107/107/107 108/108/108 105/105/105
f 107/107/107 106/106/106 109/109/109
f 108/108/108 107/107/107 110/110/110
f 109/109/109 110/110/110 107/107/107
f 110/110/110 111/111/111 108/108/108
f 110/110/110 109/109/109 112/112/112
f 111/111/111 110/110/110 113/113/113
f 112/112/112 113/113/113 110/110/110
f 113/113/113 114/114/114 111/111/111
f 113/113/113 112/112/112 115/115/115
f 114/114/114 113/113/113 116/116/116
f 115/115/115 116/116/116 113/113/113
f 116/116/116 117/117/117 114/114/114
f 116/116/116 115/115/115 118/118/118
f 117/117/117 116/116/116 119/119/119
f 118/118/118 119/119/119 116/116/116
f 119/119/119 120/120/120 117/117/117
f 119/119/119 118/118/118 121/121/121
f 120/120/120 119/119/119 122/122/122
f 121/121/121 122/122/122 119/119/119
f 122/122/122 123/123/123 120/120/120
f 122/122/122 121/121/121 124/124/124
f 123/123/123 122/122/122 125/125/125
f 124/124/124 125/125/125 122/122/122
f 125/125/125 124/124/124 126/126/126
