g Plane002
v 0.0273250993 0.0678965971 9.12361827E-07
v 0.0862111598 0.11674273 6.11211192E-07
v 0.0819753259 0.0678965971 9.12361827E-07
v 0.0287370533 0.122911826 6.11211135E-07
v 0.100086115 0.165588871 3.8490262E-07
v -0.0273251124 0.0678965971 9.12361827E-07
v 0.0333620124 0.178364411 3.8490262E-07
v 0.123727672 0.214435041 2.22744575E-07
v -0.0287370663 0.122911826 6.11211192E-07
v -0.081975311 0.0678965971 9.12361827E-07
v -0.0862111822 0.11674273 6.11211192E-07
v -0.0333620496 0.178364396 3.84902592E-07
v -0.100086123 0.165588871 3.8490262E-07
v 0.041242566 0.234849975 2.22744575E-07
v 0.157263443 0.263281167 1.14045228E-07
v -0.0412425771 0.23484996 2.22744575E-07
v -0.123727694 0.214435041 2.22744575E-07
v 0.0524211228 0.292964131 1.14045228E-07
v 0.200820982 0.312127352 4.81128275E-08
v -0.0524211824 0.292964131 1.14045228E-07
v -0.157263473 0.263281167 1.14045228E-07
v 0.0669403151 0.353302598 4.81128275E-08
v 0.254527897 0.360973507 1.42556535E-08
v -0.0669403449 0.353302598 4.81128239E-08
v -0.200821027 0.312127352 4.81128275E-08
v 0.0848426148 0.416460961 1.42556535E-08
v 0.318511575 0.409819663 1.78195669E-09
v -0.0848426297 0.416461021 1.42556535E-08
v -0.254527897 0.360973507 1.42556535E-08
v 0.106170528 0.483034939 1.78195669E-09
v 0.392899811 0.458665848 0
v 0.130966574 0.5536201 0
v -0.10617058 0.483034939 1.78195669E-09
v -0.318511695 0.409819663 1.78195669E-09
v -0.130966663 0.5536201 0
v -0.39289996 0.458665848 0
v -0.0831049085 -0.0331985317 9.12361827E-07
v -0.159283087 -0.0260992311 6.11211192E-07
v -0.121748462 0.00544501655 9.12361827E-07
v -0.123004965 -0.0711017624 6.11211135E-07
v -0.203633592 -0.0508275889 3.8490262E-07
v -0.0444613732 -0.071842052 9.12361827E-07
v -0.165486202 -0.107042305 3.8490262E-07
v -0.254890144 -0.0686499774 2.22744575E-07
v -0.0823646039 -0.111742109 6.11211192E-07
v -0.00581783755 -0.110485554 9.12361827E-07
v -0.0373620726 -0.148020253 6.11211192E-07
v -0.118305154 -0.154223368 3.84902592E-07
v -0.0620904304 -0.192370743 3.8490262E-07
v -0.210999906 -0.14141126 2.22744575E-07
v -0.313142955 -0.0794760138 1.14045228E-07
v -0.152674079 -0.199737057 2.22744575E-07
v -0.0799127817 -0.243627295 2.22744575E-07
v -0.259997249 -0.174599737 1.14045228E-07
v -0.378482282 -0.0832156539 4.81128311E-08
v -0.185862541 -0.248734444 1.14045228E-07
v -0.0907388404 -0.301880032 1.14045228E-07
v -0.31292963 -0.206998914 4.81128311E-08
v -0.450998247 -0.0797785819 1.42556598E-08
v -0.218261704 -0.301666796 4.81128204E-08
v -0.0944784582 -0.367219359 4.81128311E-08
v -0.370248169 -0.238999769 1.42556598E-08
v -0.53078109 -0.0690747052 1.78195458E-09
v -0.250262618 -0.358985364 1.42556598E-08
v -0.0910414159 -0.439735264 1.42556598E-08
v -0.43240422 -0.270993561 1.78195458E-09
v -0.617920876 -0.0510137714 0
v -0.499848843 -0.303371221 0
v -0.282256365 -0.421141237 1.78195458E-09
v -0.0803374648 -0.519518077 1.78195458E-09
v -0.314634085 -0.488586068 0
v -0.0622764789 -0.606658101 0
v 0.0657767728 -0.0781478211 9.12361827E-07
v 0.0520650856 -0.153417349 6.11211192E-07
v 0.0239122752 -0.113276273 9.12361827E-07
v 0.100058258 -0.121199526 6.11211135E-07
v 0.0728339106 -0.199754357 3.8490262E-07
v 0.107641272 -0.0430193469 9.12361827E-07
v 0.132159546 -0.166651532 3.8490262E-07
v 0.0861211494 -0.252369106 2.22744575E-07
v 0.144085988 -0.0842558816 6.11211192E-07
v 0.149505764 -0.00789089408 9.12361827E-07
v 0.184148297 -0.0425864272 6.11211192E-07
v 0.183273137 -0.123762161 3.84902592E-07
v 0.226174802 -0.0710861161 3.8490262E-07
v 0.162430897 -0.214987576 2.22744575E-07
v 0.0918289274 -0.311343849 1.14045228E-07
v 0.225618184 -0.161967129 2.22744575E-07
v 0.275682986 -0.0933079869 2.22744575E-07
v 0.191222668 -0.266690969 1.14045228E-07
v 0.0898596197 -0.376760364 4.81128311E-08
v 0.271536529 -0.199299678 1.14045228E-07
v 0.332770586 -0.109169886 1.14045228E-07
v 0.218885109 -0.322245717 4.81128311E-08
v 0.0801153854 -0.448700994 1.42556598E-08
v 0.321443707 -0.236188948 4.81128204E-08
v 0.397535324 -0.118590072 4.81128311E-08
v 0.245768577 -0.382135272 1.42556598E-08
v 0.0624987297 -0.527247071 1.78195458E-09
v 0.375755012 -0.273063689 1.42556598E-08
v 0.470074803 -0.121486284 1.42556598E-08
v 0.272223294 -0.446843177 1.78195458E-09
v 0.0369116999 -0.612481236 0
v 0.29859966 -0.516853154 0
v 0.434886038 -0.310352981 1.78195458E-09
v 0.550487041 -0.117776625 1.78195458E-09
v 0.49925226 -0.348485738 0
v 0.638869345 -0.107379176 0
vt 0.333333462 0.999999762
vt 1.5844887E-07 0.874999702
vt 1.49011626E-07 0.999999702
vt 0.333333462 0.874999762
vt 1.678861E-07 0.749999642
vt 0.666666746 0.999999762
vt 0.333333492 0.749999762
vt 1.77323344E-07 0.624999642
vt 0.666666746 0.874999762
vt 1.00000012 0.999999821
vt 1.00000012 0.874999821
vt 0.666666865 0.749999762
vt 1.00000012 0.749999881
vt 0.333333492 0.624999762
vt 2.46365232E-07 0.499999702
vt 0.666666865 0.624999762
vt 1.00000012 0.624999881
vt 0.333333552 0.499999702
vt 2.55802462E-07 0.374999702
vt 0.666666865 0.499999821
vt 1.00000024 0.499999821
vt 0.333333582 0.374999702
vt 2.65239692E-07 0.249999702
vt 0.666666985 0.374999821
vt 1.00000024 0.374999821
vt 0.333333582 0.249999702
vt 2.7467695E-07 0.124999702
vt 0.666666985 0.249999821
vt 1.00000024 0.249999821
vt 0.333333582 0.124999702
vt 2.84114179E-07 -3.57627869E-07
vt 0.333333611 -2.38418579E-07
vt 0.666666985 0.124999821
vt 1.00000024 0.124999821
vt 0.666666985 -2.38418579E-07
vt 1.00000024 -1.1920929E-07
vt 0.333333462 0.999999762
vt 1.5844887E-07 0.874999702
vt 1.49011626E-07 0.999999702
vt 0.333333462 0.874999762
vt 1.678861E-07 0.749999642
vt 0.666666746 0.999999762
vt 0.333333492 0.749999762
vt 1.77323344E-07 0.624999642
vt 0.666666746 0.874999762
vt 1.00000012 0.999999821
vt 1.00000012 0.874999821
vt 0.666666865 0.749999762
vt 1.00000012 0.749999881
vt 0.333333492 0.624999762
vt 2.46365232E-07 0.499999702
vt 0.666666865 0.624999762
vt 1.00000012 0.624999881
vt 0.333333552 0.499999702
vt 2.55802462E-07 0.374999702
vt 0.666666865 0.499999821
vt 1.00000024 0.499999821
vt 0.333333582 0.374999702
vt 2.65239692E-07 0.249999702
vt 0.666666985 0.374999821
vt 1.00000024 0.374999821
vt 0.333333582 0.249999702
vt 2.7467695E-07 0.124999702
vt 0.666666985 0.249999821
vt 1.00000024 0.249999821
vt 0.333333582 0.124999702
vt 2.84114179E-07 -3.57627869E-07
vt 0.333333611 -2.38418579E-07
vt 0.666666985 0.124999821
vt 1.00000024 0.124999821
vt 0.666666985 -2.38418579E-07
vt 1.00000024 -1.1920929E-07
vt 0.333333462 0.999999762
vt 1.5844887E-07 0.874999702
vt 1.49011626E-07 0.999999702
vt 0.333333462 0.874999762
vt 1.678861E-07 0.749999642
vt 0.666666746 0.999999762
vt 0.333333492 0.749999762
vt 1.77323344E-07 0.624999642
vt 0.666666746 0.874999762
vt 1.00000012 0.999999821
vt 1.00000012 0.874999821
vt 0.666666865 0.749999762
vt 1.00000012 0.749999881
vt 0.333333492 0.624999762
vt 2.46365232E-07 0.499999702
vt 0.666666865 0.624999762
vt 1.00000012 0.624999881
vt 0.333333552 0.499999702
vt 2.55802462E-07 0.374999702
vt 0.666666865 0.499999821
vt 1.00000024 0.499999821
vt 0.333333582 0.374999702
vt 2.65239692E-07 0.249999702
vt 0.666666985 0.374999821
vt 1.00000024 0.374999821
vt 0.333333582 0.249999702
vt 2.7467695E-07 0.124999702
vt 0.666666985 0.249999821
vt 1.00000024 0.249999821
vt 0.333333582 0.124999702
vt 2.84114179E-07 -3.57627869E-07
vt 0.333333611 -2.38418579E-07
vt 0.666666985 0.124999821
vt 1.00000024 0.124999821
vt 0.666666985 -2.38418579E-07
vt 1.00000024 -1.1920929E-07
vn -0 5.62225523E-06 1
vn 3.92697302E-07 5.12374345E-06 1
vn -0 6.16529132E-06 1
vn 3.04631868E-07 4.78323727E-06 1
vn 6.00308738E-07 3.58513535E-06 1
vn -0 5.47395075E-06 1
vn 3.47020233E-07 3.4236682E-06 1
vn 5.36555717E-07 2.32255547E-06 1
vn -0 4.8148122E-06 1
vn -3.38448046E-07 5.80146707E-06 1
vn -6.60401099E-07 5.13370787E-06 1
vn -2.82961508E-07 3.44918294E-06 1
vn -7.41343626E-07 3.56966962E-06 1
vn 2.8767127E-07 2.29452098E-06 1
vn 3.73194183E-07 1.37151903E-06 1
vn -2.58850321E-07 2.30932665E-06 1
vn -5.9749425E-07 2.30508681E-06 1
vn -0 1.4091753E-06 1
vn -0 7.06785272E-07 1
vn -0 1.41637213E-06 1
vn -3.97015043E-07 1.35990183E-06 1
vn -0 7.59827174E-07 1
vn -0 2.86532639E-07 1
vn -0 7.63125513E-07 1
vn -0 7.00711894E-07 1
vn -0 3.28880645E-07 1
vn -0 0 1
vn -0 3.30355249E-07 1
vn -0 2.84237586E-07 1
vn -0 0 1
vn -0 0 1
vn -0 0 1
vn -0 0 1
vn -0 0 1
vn -0 0 1
vn -0 0 1
vn -4.08798678E-06 -3.86308375E-06 1
vn -3.90071227E-06 -3.34535594E-06 1
vn -4.3595187E-06 -4.35952006E-06 1
vn -3.59766727E-06 -3.16685328E-06 1
vn -2.95955556E-06 -2.11059205E-06 1
vn -3.87066621E-06 -3.87066893E-06 1
vn -2.66627967E-06 -2.17551906E-06 1
vn -2.0216969E-06 -1.26289353E-06 1
vn -3.27540215E-06 -3.5337689E-06 1
vn -3.8629355E-06 -4.34157255E-06 1
vn -3.16310548E-06 -4.09705081E-06 1
vn -2.23885672E-06 -2.63902416E-06 1
vn -1.99992905E-06 -3.04834771E-06 1
vn -1.82588542E-06 -1.41905741E-06 1
vn -1.23369841E-06 -7.05922446E-07 1
vn -1.44990565E-06 -1.81597557E-06 1
vn -1.20745051E-06 -2.05243555E-06 1
vn -1.13672388E-06 -8.56150507E-07 1
vn -6.49382571E-07 -3.50162679E-07 1
vn -8.6980981E-07 -1.13324256E-06 1
vn -6.80863536E-07 -1.24232861E-06 1
vn -6.19118907E-07 -4.55438595E-07 1
vn -2.67323941E-07 0 1
vn -4.61277835E-07 -6.17944352E-07 1
vn -3.39483137E-07 -6.51472931E-07 1
vn -2.70526982E-07 0 1
vn -0 0 1
vn -0 -2.70272238E-07 1
vn -0 -2.67944984E-07 1
vn -0 0 1
vn -0 0 1
vn -0 0 1
vn -0 0 1
vn -0 0 1
vn -0 0 1
vn -0 0 1
vn 3.4920904E-06 -4.40912345E-06 1
vn 2.99265275E-06 -4.17743695E-06 1
vn 3.96297128E-06 -4.72289003E-06 1
vn 2.84124394E-06 -3.85998692E-06 1
vn 1.8446184E-06 -3.13224632E-06 1
vn 3.51858716E-06 -4.19329172E-06 1
vn 1.93485789E-06 -2.84574321E-06 1
vn 1.08188226E-06 -2.12407258E-06 1
vn 3.2348521E-06 -3.5709279E-06 1
vn 3.98837756E-06 -4.22663425E-06 1
vn 3.80578103E-06 -3.50815299E-06 1
vn 2.43385171E-06 -2.46034324E-06 1
vn 2.86244131E-06 -2.25799954E-06 1
vn 1.25451936E-06 -1.94261702E-06 1
vn 5.95711981E-07 -1.29053012E-06 1
vn 1.68269753E-06 -1.60266143E-06 1
vn 1.93938854E-06 -1.38173755E-06 1
vn 7.53821325E-07 -1.20701816E-06 1
vn 2.92232386E-07 -6.77430137E-07 1
vn 1.05312097E-06 -9.65269123E-07 1
vn 1.17825857E-06 -7.86548924E-07 1
vn 3.99745204E-07 -6.56457303E-07 1
vn -0 -2.78325018E-07 1
vn 5.75389549E-07 -5.13380257E-07 1
vn 6.19405967E-07 -3.94971494E-07 1
vn -0 -2.86456412E-07 1
vn -0 0 1
vn -0 0 1
vn 2.55243918E-07 0 1
vn -0 0 1
vn -0 0 1
vn -0 0 1
vn -0 0 1
vn -0 0 1
vn -0 0 1
vn -0 0 1
g Plane002_0
f 3/3/3 2/2/2 1/1/1
f 4/4/4 1/1/1 2/2/2
f 2/2/2 5/5/5 4/4/4
f 1/1/1 4/4/4 6/6/6
f 7/7/7 4/4/4 5/5/5
f 5/5/5 8/8/8 7/7/7
f 9/9/9 6/6/6 4/4/4
f 4/4/4 7/7/7 9/9/9
f 6/6/6 9/9/9 10/10/10
f 11/11/11 10/10/10 9/9/9
f 9/9/9 12/12/12 11/11/11
f 12/12/12 9/9/9 7/7/7
f 13/13/13 11/11/11 12/12/12
f 14/14/14 7/7/7 8/8/8
f 7/7/7 14/14/14 12/12/12
f 8/8/8 15/15/15 14/14/14
f 12/12/12 16/16/16 13/13/13
f 16/16/16 12/12/12 14/14/14
f 17/17/17 13/13/13 16/16/16
f 18/18/18 14/14/14 15/15/15
f 14/14/14 18/18/18 16/16/16
f 15/15/15 19/19/19 18/18/18
f 16/16/16 20/20/20 17/17/17
f 20/20/20 16/16/16 18/18/18
f 21/21/21 17/17/17 20/20/20
f 22/22/22 18/18/18 19/19/19
f 18/18/18 22/22/22 20/20/20
f 19/19/19 23/23/23 22/22/22
f 20/20/20 24/24/24 21/21/21
f 24/24/24 20/20/20 22/22/22
f 25/25/25 21/21/21 24/24/24
f 26/26/26 22/22/22 23/23/23
f 22/22/22 26/26/26 24/24/24
f 23/23/23 27/27/27 26/26/26
f 24/24/24 28/28/28 25/25/25
f 28/28/28 24/24/24 26/26/26
f 29/29/29 25/25/25 28/28/28
f 30/30/30 26/26/26 27/27/27
f 26/26/26 30/30/30 28/28/28
f 27/27/27 31/31/31 30/30/30
f 32/32/32 30/30/30 31/31/31
f 28/28/28 33/33/33 29/29/29
f 33/33/33 28/28/28 30/30/30
f 30/30/30 32/32/32 33/33/33
f 34/34/34 29/29/29 33/33/33
f 35/35/35 33/33/33 32/32/32
f 33/33/33 35/35/35 34/34/34
f 36/36/36 34/34/34 35/35/35
f 39/39/39 38/38/38 37/37/37
f 40/40/40 37/37/37 38/38/38
f 38/38/38 41/41/41 40/40/40
f 37/37/37 40/40/40 42/42/42
f 43/43/43 40/40/40 41/41/41
f 41/41/41 44/44/44 43/43/43
f 45/45/45 42/42/42 40/40/40
f 40/40/40 43/43/43 45/45/45
f 42/42/42 45/45/45 46/46/46
f 47/47/47 46/46/46 45/45/45
f 45/45/45 48/48/48 47/47/47
f 48/48/48 45/45/45 43/43/43
f 49/49/49 47/47/47 48/48/48
f 50/50/50 43/43/43 44/44/44
f 43/43/43 50/50/50 48/48/48
f 44/44/44 51/51/51 50/50/50
f 48/48/48 52/52/52 49/49/49
f 52/52/52 48/48/48 50/50/50
f 53/53/53 49/49/49 52/52/52
f 54/54/54 50/50/50 51/51/51
f 50/50/50 54/54/54 52/52/52
f 51/51/51 55/55/55 54/54/54
f 52/52/52 56/56/56 53/53/53
f 56/56/56 52/52/52 54/54/54
f 57/57/57 53/53/53 56/56/56
f 58/58/58 54/54/54 55/55/55
f 54/54/54 58/58/58 56/56/56
f 55/55/55 59/59/59 58/58/58
f 56/56/56 60/60/60 57/57/57
f 60/60/60 56/56/56 58/58/58
f 61/61/61 57/57/57 60/60/60
f 62/62/62 58/58/58 59/59/59
f 58/58/58 62/62/62 60/60/60
f 59/59/59 63/63/63 62/62/62
f 60/60/60 64/64/64 61/61/61
f 64/64/64 60/60/60 62/62/62
f 65/65/65 61/61/61 64/64/64
f 66/66/66 62/62/62 63/63/63
f 62/62/62 66/66/66 64/64/64
f 63/63/63 67/67/67 66/66/66
f 68/68/68 66/66/66 67/67/67
f 64/64/64 69/69/69 65/65/65
f 69/69/69 64/64/64 66/66/66
f 66/66/66 68/68/68 69/69/69
f 70/70/70 65/65/65 69/69/69
f 71/71/71 69/69/69 68/68/68
f 69/69/69 71/71/71 70/70/70
f 72/72/72 70/70/70 71/71/71
f 75/75/75 74/74/74 73/73/73
f 76/76/76 73/73/73 74/74/74
f 74/74/74 77/77/77 76/76/76
f 73/73/73 76/76/76 78/78/78
f 79/79/79 76/76/76 77/77/77
f 77/77/77 80/80/80 79/79/79
f 81/81/81 78/78/78 76/76/76
f 76/76/76 79/79/79 81/81/81
f 78/78/78 81/81/81 82/82/82
f 83/83/83 82/82/82 81/81/81
f 81/81/81 84/84/84 83/83/83
f 84/84/84 81/81/81 79/79/79
f 85/85/85 83/83/83 84/84/84
f 86/86/86 79/79/79 80/80/80
f 79/79/79 86/86/86 84/84/84
f 80/80/80 87/87/87 86/86/86
f 84/84/84 88/88/88 85/85/85
f 88/88/88 84/84/84 86/86/86
f 89/89/89 85/85/85 88/88/88
f 90/90/90 86/86/86 87/87/87
f 86/86/86 90/90/90 88/88/88
f 87/87/87 91/91/91 90/90/90
f 88/88/88 92/92/92 89/89/89
f 92/92/92 88/88/88 90/90/90
f 93/93/93 89/89/89 92/92/92
f 94/94/94 90/90/90 91/91/91
f 90/90/90 94/94/94 92/92/92
f 91/91/91 95/95/95 94/94/94
f 92/92/92 96/96/96 93/93/93
f 96/96/96 92/92/92 94/94/94
f 97/97/97 93/93/93 96/96/96
f 98/98/98 94/94/94 95/95/95
f 94/94/94 98/98/98 96/96/96
f 95/95/95 99/99/99 98/98/98
f 96/96/96 100/100/100 97/97/97
f 100/100/100 96/96/96 98/98/98
f 101/101/101 97/97/97 100/100/100
f 102/102/102 98/98/98 99/99/99
f 98/98/98 102/102/102 100/100/100
f 99/99/99 103/103/103 102/102/102
f 104/104/104 102/102/102 103/103/103
f 100/100/100 105/105/105 101/101/101
f 105/105/105 100/100/100 102/102/102
f 102/102/102 104/104/104 105/105/105
f 106/106/106 101/101/101 105/105/105
f 107/107/107 105/105/105 104/104/104
f 105/105/105 107/107/107 106/106/106
f 108/108/108 106/106/106 107/107/107
