g Plane001
v 0.127000004 -0.127000004 0
v 0.0423333272 0.127000004 0
v 0.127000004 0.127000004 0
v 0.0423333421 -0.127000004 0
v -0.0423333421 0.127000004 0
v -0.0423333272 -0.127000004 0
v -0.127000004 0.127000004 0
v -0.127000004 -0.127000004 0
vt 1 0
vt 0.666666687 1
vt 1 1
vt 0.666666627 0
vt 0.333333373 1
vt 0.333333313 0
vt 0 1
vt 0 0
vn -0 0 1
vn -0 0 1
vn -0 0 1
vn -0 0 1
vn -0 0 1
vn -0 0 1
vn -0 0 1
vn -0 0 1
g Plane001_0
f 3/3/3 2/2/2 1/1/1
f 2/2/2 4/4/4 1/1/1
f 2/2/2 5/5/5 4/4/4
f 5/5/5 6/6/6 4/4/4
f 6/6/6 5/5/5 7/7/7
f 8/8/8 6/6/6 7/7/7
