g Plane001
v 0.0289456658 -0.0891624838 0
v 0.0389303043 -0.0498047955 0
v 0.0754579529 -0.0830079839 0
v -0.0177571159 -0.04730656 0
v -0.0172419157 -0.0953169614 0
v 0.0118545936 -0.016601596 0
v -0.0743910521 -0.0448083282 0
v -0.0631047338 -0.101471461 0
v -0.0494396947 -0.00545064826 0
v -0.00576914893 0.0166016035 0
v -0.130971462 -0.0423101038 0
v -0.108642809 -0.107625954 0
v -0.187498376 -0.0398118682 0
v -0.10966792 0.00570029393 0
v -0.0661020428 0.0364052616 0
v -0.0139409127 0.0498047844 0
v -0.168830082 0.0168512724 0
v -0.226926163 0.0280022398 0
v -0.123072527 0.0562089458 0
v -0.0677441806 0.0782611966 0
v -0.0126607092 0.0830079764 0
v -0.0543660969 0.120117098 0
v -0.176680535 0.0760126337 0
v -0.226926163 0.0958163068 0
v -0.114604846 0.106717624 0
v -0.0842649192 0.15722619 0
v -0.154522926 0.135173976 0
v -0.187498391 0.163630381 0
v -0.102357171 0.194335341 0
v -0.108642869 0.231444448 0
vt 0.75 0
vt 1 0.200000003
vt 1 0
vt 0.75 0.200000003
vt 0.5 0
vt 1 0.400000006
vt 0.5 0.200000003
vt 0.25 0
vt 0.75 0.400000006
vt 1 0.600000024
vt 0.25 0.200000003
vt 0 0
vt 0 0.200000003
vt 0.5 0.400000006
vt 0.75 0.600000024
vt 1 0.800000012
vt 0.25 0.400000006
vt 0 0.400000006
vt 0.5 0.600000024
vt 0.75 0.800000012
vt 1 1
vt 0.75 1
vt 0.25 0.600000024
vt 0 0.600000024
vt 0.5 0.800000012
vt 0.5 1
vt 0.25 0.800000012
vt 0 0.800000012
vt 0.25 1
vt 0 1
vn -0 0 1
vn -0 0 1
vn -0 0 1
vn -0 0 1
vn -0 0 1
vn -0 0 1
vn -0 0 1
vn -0 0 1
vn -0 0 1
vn -0 0 1
vn -0 0 1
vn -0 0 1
vn -0 0 1
vn -0 0 1
vn -0 0 1
vn -0 0 1
vn -0 0 1
vn -0 0 1
vn -0 0 1
vn -0 0 1
vn -0 0 1
vn -0 0 1
vn -0 0 1
vn -0 0 1
vn -0 0 1
vn -0 0 1
vn -0 0 1
vn -0 0 1
vn -0 0 1
vn -0 0 1
g Plane001_0
f 3/3/3 2/2/2 1/1/1
f 2/2/2 4/4/4 1/1/1
f 1/1/1 4/4/4 5/5/5
f 2/2/2 6/6/6 4/4/4
f 4/4/4 7/7/7 5/5/5
f 5/5/5 7/7/7 8/8/8
f 6/6/6 9/9/9 4/4/4
f 4/4/4 9/9/9 7/7/7
f 6/6/6 10/10/10 9/9/9
f 7/7/7 11/11/11 8/8/8
f 8/8/8 11/11/11 12/12/12
f 11/11/11 13/13/13 12/12/12
f 9/9/9 14/14/14 7/7/7
f 7/7/7 14/14/14 11/11/11
f 10/10/10 15/15/15 9/9/9
f 9/9/9 15/15/15 14/14/14
f 10/10/10 16/16/16 15/15/15
f 11/11/11 17/17/17 13/13/13
f 14/14/14 17/17/17 11/11/11
f 17/17/17 18/18/18 13/13/13
f 15/15/15 19/19/19 14/14/14
f 14/14/14 19/19/19 17/17/17
f 16/16/16 20/20/20 15/15/15
f 15/15/15 20/20/20 19/19/19
f 16/16/16 21/21/21 20/20/20
f 21/21/21 22/22/22 20/20/20
f 17/17/17 23/23/23 18/18/18
f 19/19/19 23/23/23 17/17/17
f 23/23/23 24/24/24 18/18/18
f 20/20/20 25/25/25 19/19/19
f 20/20/20 22/22/22 25/25/25
f 19/19/19 25/25/25 23/23/23
f 22/22/22 26/26/26 25/25/25
f 23/23/23 27/27/27 24/24/24
f 25/25/25 27/27/27 23/23/23
f 25/25/25 26/26/26 27/27/27
f 27/27/27 28/28/28 24/24/24
f 26/26/26 29/29/29 27/27/27
f 27/27/27 29/29/29 28/28/28
f 29/29/29 30/30/30 28/28/28
