g Plane001
v 0.125554278 -0.906046808 0.0143987695
v 0.242552176 -0.872292757 0.125109732
v 0.242552176 -0.930437744 0.0491324179
v 0.125554308 -0.850474358 0.0850967988
v -2.42233273E-08 -0.897907972 0.0024183481
v 0.242552221 -0.790198028 0.182813838
v -2.42233273E-08 -0.843180895 0.0713676363
v -0.125554204 -0.906046808 0.0143987816
v 0.125554174 -0.772937417 0.138759106
v 0.242552072 -0.68974936 0.220862776
v -0.125554189 -0.850474417 0.0850968063
v -0.242552131 -0.930437744 0.0491324179
v -0.242552131 -0.872292876 0.125109762
v -2.42233273E-08 -0.767150521 0.123690926
v 0.125554308 -0.678329349 0.174115166
v 0.242552131 -0.576589465 0.238733605
v -0.125554234 -0.772937477 0.138759121
v -0.242552131 -0.790198028 0.182813838
v -2.42233273E-08 -0.674486339 0.158154458
v 0.125554159 -0.571676552 0.190654248
v 0.242552176 -0.455998719 0.236713961
v -0.125554219 -0.67832917 0.174115151
v -0.242552131 -0.689749241 0.220862821
v -0 -0.570014536 0.174252614
v 0.125554234 -0.457768768 0.188587591
v 0.242552131 -0.332685411 0.215776727
v -0.125554249 -0.571676672 0.190654263
v -0.242552131 -0.576589465 0.238733605
v -0 -0.458362818 0.172173187
v 0.125554174 -0.340950787 0.168743625
v 0.242552131 -0.210738778 0.177401736
v -0.125554234 -0.457768708 0.188587576
v -0.242552131 -0.455998719 0.236713961
v -0 -0.343752742 0.152699158
v 0.125554249 -0.225051478 0.132417634
v 0.242552072 -0.0936783925 0.123375647
v -0.125554234 -0.340950876 0.16874364
v -0.242552131 -0.332685411 0.215776727
v -0 -0.229922742 0.117066935
v 0.125554174 -0.113396466 0.0812008083
v 0.242552131 0.0154771563 0.0556016862
v 0.125554249 -0.00884442125 0.0168166459
v -0.125554219 -0.225051478 0.132417634
v -0.242552131 -0.210738778 0.177401766
v -2.42233273E-08 -0.120130457 0.0668049902
v -0 -0.0171792805 0.003578173
v -0.125554234 -0.113396466 0.0812008232
v -0.242552131 -0.0936782956 0.123375654
v -0.125554219 -0.00884461496 0.0168166459
v -0.242552131 0.0154771563 0.0556016862
vt 1.1920929E-07 0.74999994
vt 0.111111164 0.99999994
vt 0 0.99999994
vt 0.111111164 0.74999994
vt 1.1920929E-07 0.49999994
vt 0.222222269 0.99999994
vt 0.111111164 0.49999994
vt 1.1920929E-07 0.24999994
vt 0.222222269 0.74999994
vt 0.333333373 0.99999994
vt 0.111111224 0.24999994
vt 1.1920929E-07 -5.96046448E-08
vt 0.111111224 -5.12159879E-08
vt 0.222222328 0.49999994
vt 0.333333373 0.74999994
vt 0.444444478 0.99999994
vt 0.222222328 0.24999997
vt 0.222222328 -4.2827331E-08
vt 0.333333433 0.49999994
vt 0.444444537 0.75
vt 0.555555642 0.99999994
vt 0.333333433 0.24999997
vt 0.333333492 -3.44386777E-08
vt 0.444444537 0.5
vt 0.555555642 0.75
vt 0.666666746 0.99999994
vt 0.444444537 0.24999997
vt 0.444444537 -2.60500208E-08
vt 0.555555642 0.5
vt 0.666666746 0.75
vt 0.777777851 0.99999994
vt 0.555555701 0.24999997
vt 0.555555701 -1.76613639E-08
vt 0.666666746 0.5
vt 0.777777851 0.75
vt 0.888888955 1
vt 0.666666806 0.25
vt 0.666666806 -9.2727106E-09
vt 0.777777851 0.5
vt 0.888888955 0.75
vt 1 1
vt 1 0.75
vt 0.77777791 0.25
vt 0.77777791 -8.84053719E-10
vt 0.888888955 0.5
vt 1 0.5
vt 0.888889015 0.25
vt 0.888889015 7.50460316E-09
vt 1.00000012 0.25000003
vt 1.00000012 1.58932565E-08
vn -0.218051329 -0.768390596 0.601688862
vn -0.352230817 -0.639107764 0.683721364
vn -0.33185637 -0.745513558 0.577997267
vn -0.238717318 -0.66892457 0.703955889
vn -0 -0.784741282 0.619823456
vn -0.372665942 -0.429671466 0.822497725
vn -0 -0.686220407 0.727393687
vn 0.218051448 -0.768390775 0.601688564
vn -0.253934115 -0.449746102 0.856297851
vn -0.380083025 -0.235276803 0.894528747
vn 0.238717407 -0.66892457 0.703955889
vn 0.33185631 -0.745513797 0.577997029
vn 0.352230817 -0.639107764 0.683721364
vn -0 -0.463225156 0.886240661
vn -0.259070516 -0.245030642 0.934260368
vn -0.381367713 -0.064294368 0.922184825
vn 0.253934354 -0.449745744 0.85629791
vn 0.372666091 -0.429671079 0.822497964
vn -0 -0.252515167 0.967592955
vn -0.259672165 -0.0655924082 0.963466704
vn -0.379878759 0.0848216042 0.921139181
vn 0.259070426 -0.245030418 0.934260488
vn 0.380083114 -0.235276565 0.894528747
vn -0 -0.0672068223 0.997739077
vn -0.258343905 0.0901147127 0.961840808
vn -0.377029032 0.215909883 0.900684237
vn 0.259672284 -0.0655925125 0.963466585
vn 0.381367862 -0.0642944202 0.922184825
vn -0 0.093551904 0.995614409
vn -0.256131411 0.226414546 0.939751565
vn -0.373367012 0.332793802 0.86593622
vn 0.258343875 0.0901147351 0.961840808
vn 0.379878938 0.0848215818 0.921139181
vn -0 0.234077722 0.972217858
vn -0.253423631 0.347548544 0.902766049
vn -0.368981779 0.438880324 0.819290161
vn 0.25613156 0.226414502 0.939751565
vn 0.377029121 0.215909824 0.900684118
vn -0 0.358750105 0.933433712
vn -0.250273705 0.457177132 0.853435516
vn -0.36597383 0.489471912 0.791505098
vn -0.247183114 0.508585393 0.82476753
vn 0.253423601 0.347548395 0.902766049
vn 0.373367131 0.332793653 0.8659361
vn -0 0.471322954 0.88196075
vn -0 0.523849607 0.851810813
vn 0.250273943 0.457177341 0.853435338
vn 0.368982166 0.438880533 0.819289923
vn 0.247183129 0.508585811 0.824767232
vn 0.365974367 0.48947221 0.791504741
g Plane001_0
f 3/3/3 2/2/2 1/1/1
f 2/2/2 4/4/4 1/1/1
f 1/1/1 4/4/4 5/5/5
f 2/2/2 6/6/6 4/4/4
f 4/4/4 7/7/7 5/5/5
f 5/5/5 7/7/7 8/8/8
f 6/6/6 9/9/9 4/4/4
f 4/4/4 9/9/9 7/7/7
f 6/6/6 10/10/10 9/9/9
f 7/7/7 11/11/11 8/8/8
f 8/8/8 11/11/11 12/12/12
f 11/11/11 13/13/13 12/12/12
f 9/9/9 14/14/14 7/7/7
f 7/7/7 14/14/14 11/11/11
f 10/10/10 15/15/15 9/9/9
f 9/9/9 15/15/15 14/14/14
f 10/10/10 16/16/16 15/15/15
f 11/11/11 17/17/17 13/13/13
f 14/14/14 17/17/17 11/11/11
f 17/17/17 18/18/18 13/13/13
f 15/15/15 19/19/19 14/14/14
f 14/14/14 19/19/19 17/17/17
f 16/16/16 20/20/20 15/15/15
f 15/15/15 20/20/20 19/19/19
f 16/16/16 21/21/21 20/20/20
f 17/17/17 22/22/22 18/18/18
f 19/19/19 22/22/22 17/17/17
f 22/22/22 23/23/23 18/18/18
f 20/20/20 24/24/24 19/19/19
f 19/19/19 24/24/24 22/22/22
f 21/21/21 25/25/25 20/20/20
f 20/20/20 25/25/25 24/24/24
f 21/21/21 26/26/26 25/25/25
f 22/22/22 27/27/27 23/23/23
f 24/24/24 27/27/27 22/22/22
f 27/27/27 28/28/28 23/23/23
f 25/25/25 29/29/29 24/24/24
f 24/24/24 29/29/29 27/27/27
f 26/26/26 30/30/30 25/25/25
f 25/25/25 30/30/30 29/29/29
f 26/26/26 31/31/31 30/30/30
f 27/27/27 32/32/32 28/28/28
f 29/29/29 32/32/32 27/27/27
f 32/32/32 33/33/33 28/28/28
f 30/30/30 34/34/34 29/29/29
f 29/29/29 34/34/34 32/32/32
f 31/31/31 35/35/35 30/30/30
f 30/30/30 35/35/35 34/34/34
f 31/31/31 36/36/36 35/35/35
f 32/32/32 37/37/37 33/33/33
f 34/34/34 37/37/37 32/32/32
f 37/37/37 38/38/38 33/33/33
f 35/35/35 39/39/39 34/34/34
f 34/34/34 39/39/39 37/37/37
f 36/36/36 40/40/40 35/35/35
f 35/35/35 40/40/40 39/39/39
f 36/36/36 41/41/41 40/40/40
f 41/41/41 42/42/42 40/40/40
f 37/37/37 43/43/43 38/38/38
f 39/39/39 43/43/43 37/37/37
f 43/43/43 44/44/44 38/38/38
f 40/40/40 45/45/45 39/39/39
f 40/40/40 42/42/42 45/45/45
f 39/39/39 45/45/45 43/43/43
f 42/42/42 46/46/46 45/45/45
f 43/43/43 47/47/47 44/44/44
f 45/45/45 47/47/47 43/43/43
f 45/45/45 46/46/46 47/47/47
f 47/47/47 48/48/48 44/44/44
f 46/46/46 49/49/49 47/47/47
f 47/47/47 49/49/49 48/48/48
f 49/49/49 50/50/50 48/48/48
