g lightning02
v 0.10695035 -5.32101767E-05 0.148297384
v 0.129712582 -5.30945108E-05 0.180216849
v 0.0931490883 -4.76342721E-05 0.221323699
v 0.0586182959 -4.77333451E-05 0.173984244
v 0.0557357706 -4.26579354E-05 0.261238992
v 0.010799244 -4.274206E-05 0.2007135
v 0.0175112858 -3.81544596E-05 0.300016612
v -0.0319723226 -3.8225251E-05 0.223915428
v -0.0214860421 -3.41128216E-05 0.337710619
v -0.0822243169 -3.41718296E-05 0.251713276
v -0.0581292026 -3.05219619E-05 0.3727009
v -0.12252745 -3.05706781E-05 0.273778379
v -0.127452061 -2.73708429E-05 0.441368401
v -0.161013857 -2.74107206E-05 0.285193533
v -0.175928995 -2.46726759E-05 0.285732567
v -0.154959023 -2.46378986E-05 0.452413231
v -0.257072121 -2.23219686E-05 0.400211126
v -0.217540786 -2.23507359E-05 0.275832504
v -0.270736337 -2.04502521E-05 0.246473283
v -0.391016364 -2.03987674E-05 0.327536196
v -0.372650594 -1.88825707E-05 0.268272489
v -0.267683983 -1.89309776E-05 0.22396946
v -0.338297337 -1.77510865E-05 0.145508721
v -0.225785047 -1.77972634E-05 0.111552864
v -0.284640133 -1.699325E-05 0.0445363447
v -0.212258846 -1.70380245E-05 0.0639854744
v -0.25117594 -1.65980182E-05 0.0151085006
v -0.186264142 -1.66421887E-05 0.0584617294
v -0.204452127 -1.655091E-05 -0.00757734152
v -0.0832575634 -1.66129721E-05 0.0583833791
v -0.163588941 -1.68540046E-05 -0.0143150175
v -0.0275760293 -1.69164796E-05 0.0633540526
v 0.0066540027 -1.75399164E-05 0.0104090059
v -0.127277404 -1.74882898E-05 -0.0652374402
v -0.0980892628 -1.84337805E-05 -0.11035189
v 0.0302215554 -1.84874771E-05 -0.0378800519
v -0.0685496405 -1.96866258E-05 -0.155267775
v 0.0534376279 -1.97430145E-05 -0.0863675475
v -0.0387161933 -2.12357772E-05 -0.200017869
v 0.0763599947 -2.12954474E-05 -0.135021165
v -0.00864666235 -2.30701771E-05 -0.244634703
v 0.099046275 -2.31336999E-05 -0.183808133
v 0.0216012485 -2.51787769E-05 -0.289150625
v 0.121554084 -2.52466798E-05 -0.232695803
v 0.051969938 -2.7550519E-05 -0.333598286
v 0.14394106 -2.76233259E-05 -0.281651646
v 0.0824017525 -3.01743476E-05 -0.378010511
v 0.166265115 -3.02525405E-05 -0.330643237
v 0.128108531 -3.30392104E-05 -0.435573608
v 0.187394112 -3.31232586E-05 -0.383712143
v 0.143317193 -3.61356215E-05 -0.453990102
v 0.190836504 -3.62323881E-05 -0.387605011
v 0.247399285 -3.94571143E-05 -0.454369545
v 0.249422997 -3.95598327E-05 -0.398487419
v 0.301138312 -4.29864776E-05 -0.451665014
v 0.302910209 -4.30955624E-05 -0.399080306
v 0.354869723 -4.67126301E-05 -0.449219197
v 0.35640499 -4.68284743E-05 -0.401106596
v 0.408591539 -5.06245306E-05 -0.447098285
v 0.409909278 -5.07475088E-05 -0.4022955
v 0.46230185 -5.47111049E-05 -0.44536835
v 0.46342504 -5.48416028E-05 -0.407179058
vt 1.00000036 0
vt 1.00000036 1
vt 0.966666996 1
vt 0.966666996 0
vt 0.933333695 1
vt 0.933333695 0
vt 0.900000334 1
vt 0.900000334 0
vt 0.866667032 1
vt 0.866667032 0
vt 0.833333671 1
vt 0.833333671 0
vt 0.80000037 1
vt 0.80000037 0
vt 0.766667008 0
vt 0.766667008 1
vt 0.733333707 1
vt 0.733333707 0
vt 0.700000346 0
vt 0.700000346 1
vt 0.666666985 1
vt 0.666666985 0
vt 0.633333683 1
vt 0.633333683 0
vt 0.600000381 1
vt 0.600000381 0
vt 0.56666702 1
vt 0.56666702 0
vt 0.533333659 1
vt 0.533333659 0
vt 0.500000358 1
vt 0.500000358 0
vt 0.466666996 0
vt 0.466666996 1
vt 0.433333635 1
vt 0.433333635 0
vt 0.400000274 1
vt 0.400000274 0
vt 0.366666913 1
vt 0.366666913 0
vt 0.333333552 1
vt 0.333333552 0
vt 0.300000191 1
vt 0.300000191 0
vt 0.26666683 1
vt 0.26666683 0
vt 0.233333468 1
vt 0.233333468 0
vt 0.200000107 1
vt 0.200000107 0
vt 0.166666746 1
vt 0.166666746 0
vt 0.133333385 1
vt 0.133333385 0
vt 0.100000024 1
vt 0.100000024 0
vt 0.0666666627 1
vt 0.0666666627 0
vt 0.0333333015 1
vt 0.0333333015 0
vt 0 1
vt 0 0
vn 8.07649267E-05 1 -6.10909483E-05
vn 8.07649194E-05 1 -6.10909483E-05
vn 7.65852237E-05 1 -5.80733649E-05
vn 7.67508536E-05 1 -5.81929417E-05
vn 7.27603401E-05 1 -5.31646983E-05
vn 7.27717488E-05 1 -5.32138583E-05
vn 6.54018149E-05 1 -4.57657115E-05
vn 6.59048019E-05 1 -4.61547315E-05
vn 6.11220166E-05 1 -4.21314908E-05
vn 6.10992356E-05 1 -4.21212244E-05
vn 5.26268705E-05 1 -2.86104787E-05
vn 5.27452357E-05 1 -2.87868661E-05
vn 9.47753433E-05 1 -1.98444668E-05
vn 8.54174796E-05 1 -1.94499771E-05
vn 7.13378031E-05 1 -8.12813323E-06
vn 8.41963192E-05 1 -1.13291362E-05
vn 2.39620604E-05 1 5.82136909E-06
vn 2.26912234E-05 1 6.50138873E-06
vn 1.99010155E-05 1 2.8198594E-05
vn 1.84092878E-05 1 2.34199342E-05
vn 1.89542025E-05 1 3.43715728E-05
vn 1.0669537E-05 1 2.10893177E-05
vn 3.58658644E-06 1 1.09977927E-05
vn 2.26578436E-06 1 1.08930517E-05
vn -1.06472567E-06 1 1.1714319E-05
vn -2.95428072E-06 1 1.24170365E-05
vn -3.58438024E-06 1 9.04069293E-06
vn -1.51947552E-06 1 4.29352804E-06
vn 1.19400681E-06 1 -1.21016876E-06
vn 5.112483E-06 1 -8.27594158E-06
vn 5.78813115E-06 1 -9.48485285E-06
vn 5.44174691E-06 1 -8.84977089E-06
vn 7.12538622E-06 1 -1.18620292E-05
vn 7.02916986E-06 1 -1.16894853E-05
vn 1.03501161E-05 1 -1.75813002E-05
vn 1.0350117E-05 1 -1.7581302E-05
vn 1.31495599E-05 1 -2.24604519E-05
vn 1.31495599E-05 1 -2.24604519E-05
vn 1.58585208E-05 1 -2.71571971E-05
vn 1.58585208E-05 1 -2.71571953E-05
vn 1.84787641E-05 1 -3.16703117E-05
vn 1.84787623E-05 1 -3.16703081E-05
vn 2.10126509E-05 1 -3.59981605E-05
vn 2.10126491E-05 1 -3.59981605E-05
vn 2.34633317E-05 1 -4.01385041E-05
vn 2.34633335E-05 1 -4.01384932E-05
vn 2.53758699E-05 1 -3.94107446E-05
vn 2.53811468E-05 1 -3.93872288E-05
vn 9.51082766E-05 1 -9.11997558E-05
vn 8.70095901E-05 1 -8.47258052E-05
vn 0.000109907123 1 -8.93431352E-05
vn 9.69670364E-05 1 -7.55196743E-05
vn 5.23808812E-05 1 -7.71145642E-06
vn 5.2402178E-05 1 -7.69986036E-06
vn 6.76352211E-05 1 0
vn 6.7741159E-05 1 0
vn 7.12147303E-05 1 0
vn 7.12986512E-05 1 0
vn 7.46051592E-05 1 5.58800423E-07
vn 7.46441656E-05 1 5.64513527E-07
vn 7.63174176E-05 1 8.09590802E-07
vn 7.63174176E-05 1 8.09590802E-07
g lightning02_0
f 3/3/3 2/2/2 1/1/1
f 4/4/4 3/3/3 1/1/1
f 5/5/5 3/3/3 4/4/4
f 6/6/6 5/5/5 4/4/4
f 7/7/7 5/5/5 6/6/6
f 8/8/8 7/7/7 6/6/6
f 9/9/9 7/7/7 8/8/8
f 10/10/10 9/9/9 8/8/8
f 11/11/11 9/9/9 10/10/10
f 12/12/12 11/11/11 10/10/10
f 13/13/13 11/11/11 12/12/12
f 14/14/14 13/13/13 12/12/12
f 14/14/14 15/15/15 13/13/13
f 15/15/15 16/16/16 13/13/13
f 17/17/17 16/16/16 15/15/15
f 18/18/18 17/17/17 15/15/15
f 18/18/18 19/19/19 17/17/17
f 19/19/19 20/20/20 17/17/17
f 21/21/21 20/20/20 19/19/19
f 22/22/22 21/21/21 19/19/19
f 23/23/23 21/21/21 22/22/22
f 24/24/24 23/23/23 22/22/22
f 25/25/25 23/23/23 24/24/24
f 26/26/26 25/25/25 24/24/24
f 27/27/27 25/25/25 26/26/26
f 28/28/28 27/27/27 26/26/26
f 29/29/29 27/27/27 28/28/28
f 30/30/30 29/29/29 28/28/28
f 31/31/31 29/29/29 30/30/30
f 32/32/32 31/31/31 30/30/30
f 32/32/32 33/33/33 31/31/31
f 33/33/33 34/34/34 31/31/31
f 35/35/35 34/34/34 33/33/33
f 36/36/36 35/35/35 33/33/33
f 37/37/37 35/35/35 36/36/36
f 38/38/38 37/37/37 36/36/36
f 39/39/39 37/37/37 38/38/38
f 40/40/40 39/39/39 38/38/38
f 41/41/41 39/39/39 40/40/40
f 42/42/42 41/41/41 40/40/40
f 43/43/43 41/41/41 42/42/42
f 44/44/44 43/43/43 42/42/42
f 45/45/45 43/43/43 44/44/44
f 46/46/46 45/45/45 44/44/44
f 47/47/47 45/45/45 46/46/46
f 48/48/48 47/47/47 46/46/46
f 49/49/49 47/47/47 48/48/48
f 50/50/50 49/49/49 48/48/48
f 51/51/51 49/49/49 50/50/50
f 52/52/52 51/51/51 50/50/50
f 53/53/53 51/51/51 52/52/52
f 54/54/54 53/53/53 52/52/52
f 55/55/55 53/53/53 54/54/54
f 56/56/56 55/55/55 54/54/54
f 57/57/57 55/55/55 56/56/56
f 58/58/58 57/57/57 56/56/56
f 59/59/59 57/57/57 58/58/58
f 60/60/60 59/59/59 58/58/58
f 61/61/61 59/59/59 60/60/60
f 62/62/62 61/61/61 60/60/60
