g typhon_skill_03_mark_002
v 1.2476052 -0.454091281 0
v 1.2029382 -0.43783316 0
v 1.10863388 -0.640069485 0
v 1.14979935 -0.663837016 0
v 0.980644405 -0.822857499 0
v 1.0170573 -0.853412449 0
v 0.822858274 -0.98064363 0
v 0.853412449 -1.01705742 0
v 0.6400702 -1.10863316 0
v 0.663837016 -1.14979947 0
v 0.437833935 -1.20293736 0
v 0.454091281 -1.24760544 0
v 0.222294375 -1.26069105 0
v 0.230548233 -1.30750358 0
v 4.84466568E-07 -1.28013933 0
v 1.93786619E-07 -1.32767403 0
v -0.222293496 -1.26069117 0
v -0.230548039 -1.3075037 0
v -1.01705694 -0.853412628 0
v -0.980643213 -0.822857916 0
v -1.10863292 -0.640069723 0
v -1.14979923 -0.663837314 0
v -1.20293736 -0.437833548 0
v -1.24760532 -0.454091668 0
v -1.26069105 -0.222293884 0
v -1.30750346 -0.23054862 0
v -1.28013933 -1.93786619E-07 0
v -1.32767403 -5.8135987E-07 0
v -1.26069129 0.222293794 4.84466547E-08
v -1.30750382 0.230547652 4.84466547E-08
v -1.20293772 0.43783316 0
v -1.24760568 0.454090685 0
v -1.1086334 0.640069842 0
v -1.1497997 0.663836598 0
v -0.980643988 0.822857916 0
v -1.01705778 0.853411853 0
v -0.23054871 1.30750346 0
v -0.222294077 1.260692 0
v -1.93786619E-07 1.28014004 0
v -6.78253173E-07 1.32767403 0
v 0.2222936 1.260692 0
v 0.230547458 1.30750394 0
v 0.437833339 1.20293844 0
v 0.454090685 1.24760556 0
v 0.640069842 1.10863447 0
v 0.66383642 1.14979982 0
v 0.822857738 0.980644763 0
v 0.853411853 1.0170579 0
v 0.980643809 0.82285887 0
v 1.0170567 0.853412986 0
v 1.10863352 0.640070975 0
v 1.14979875 0.66383779 0
v 1.20293796 0.43783471 0
v 1.24760509 0.454092056 0
vt 1 0.328989804
vt 0.982655406 0.335112602
vt 0.946036339 0.25895071
vt 0.962021232 0.249999911
vt 0.896337032 0.190113038
vt 0.910476446 0.178606093
vt 0.835067511 0.130691051
vt 0.846931934 0.116977662
vt 0.764089584 0.0824903846
vt 0.77331835 0.0669872165
vt 0.68555975 0.0469755828
vt 0.691872537 0.030153662
vt 0.6018641 0.0252256393
vt 0.60506916 0.00759610534
vt 0.515545726 0.01790151
vt 0.515545607 0
vt 0.429227352 0.0252256691
vt 0.426022053 0.00759613514
vt 0.120614856 0.178606182
vt 0.134754568 0.190113068
vt 0.0850552619 0.25895083
vt 0.069070071 0.24999997
vt 0.0484361649 0.335112661
vt 0.031091243 0.328989893
vt 0.0260099769 0.416284561
vt 0.00783240795 0.413175851
vt 0.0184580982 0.50000006
vt 5.96046448E-08 0.499999911
vt 0.0260099471 0.583715618
vt 0.00783228874 0.586824
vt 0.0484360754 0.664887428
vt 0.0310911536 0.671009958
vt 0.0850551724 0.741049409
vt 0.0690700114 0.74999994
vt 0.134754419 0.809887111
vt 0.120614707 0.821393728
vt 0.426022023 0.992403865
vt 0.429227352 0.974774718
vt 0.515545726 0.982098818
vt 0.515545547 1
vt 0.60186404 0.974774659
vt 0.605069041 0.992403984
vt 0.68555969 0.953024745
vt 0.691872537 0.969846368
vt 0.764089584 0.917509973
vt 0.77331841 0.933012784
vt 0.835067511 0.869309306
vt 0.846931934 0.883022308
vt 0.896337032 0.80988729
vt 0.910476387 0.821393967
vt 0.946036339 0.741049647
vt 0.962021112 0.750000238
vt 0.982655406 0.664887786
vt 1 0.671010256
vn -0 0 -1
vn -0 0 -1
vn -0 0 -1
vn -0 0 -1
vn -0 0 -1
vn -0 0 -1
vn -0 0 -1
vn -0 0 -1
vn -0 0 -1
vn -0 0 -1
vn -0 0 -1
vn -0 0 -1
vn -0 0 -1
vn -0 0 -1
vn -0 0 -1
vn -0 0 -1
vn -0 0 -1
vn -0 0 -1
vn -0 0 -1
vn -0 0 -1
vn -0 0 -1
vn -0 0 -1
vn -0 0 -1
vn -0 0 -1
vn -0 0 -1
vn -0 0 -1
vn -0 0 -1
vn -0 0 -1
vn -0 0 -1
vn -0 0 -1
vn -0 0 -1
vn -0 0 -1
vn -0 0 -1
vn -0 0 -1
vn -0 0 -1
vn -0 0 -1
vn -0 0 -1
vn -0 0 -1
vn -0 0 -1
vn -0 0 -1
vn -0 0 -1
vn -0 0 -1
vn -0 0 -1
vn -0 0 -1
vn -0 0 -1
vn -0 0 -1
vn -0 0 -1
vn -0 0 -1
vn -0 0 -1
vn -0 0 -1
vn -0 0 -1
vn -0 0 -1
vn -0 0 -1
vn -0 0 -1
g typhon_skill_03_mark_002_0
f 3/3/3 2/2/2 1/1/1
f 4/4/4 3/3/3 1/1/1
f 5/5/5 3/3/3 4/4/4
f 6/6/6 5/5/5 4/4/4
f 7/7/7 5/5/5 6/6/6
f 8/8/8 7/7/7 6/6/6
f 9/9/9 7/7/7 8/8/8
f 10/10/10 9/9/9 8/8/8
f 11/11/11 9/9/9 10/10/10
f 12/12/12 11/11/11 10/10/10
f 13/13/13 11/11/11 12/12/12
f 14/14/14 13/13/13 12/12/12
f 15/15/15 13/13/13 14/14/14
f 16/16/16 15/15/15 14/14/14
f 17/17/17 15/15/15 16/16/16
f 18/18/18 17/17/17 16/16/16
f 21/21/21 20/20/20 19/19/19
f 22/22/22 21/21/21 19/19/19
f 23/23/23 21/21/21 22/22/22
f 24/24/24 23/23/23 22/22/22
f 25/25/25 23/23/23 24/24/24
f 26/26/26 25/25/25 24/24/24
f 27/27/27 25/25/25 26/26/26
f 28/28/28 27/27/27 26/26/26
f 29/29/29 27/27/27 28/28/28
f 30/30/30 29/29/29 28/28/28
f 31/31/31 29/29/29 30/30/30
f 32/32/32 31/31/31 30/30/30
f 33/33/33 31/31/31 32/32/32
f 34/34/34 33/33/33 32/32/32
f 35/35/35 33/33/33 34/34/34
f 36/36/36 35/35/35 34/34/34
f 39/39/39 38/38/38 37/37/37
f 40/40/40 39/39/39 37/37/37
f 41/41/41 39/39/39 40/40/40
f 42/42/42 41/41/41 40/40/40
f 43/43/43 41/41/41 42/42/42
f 44/44/44 43/43/43 42/42/42
f 45/45/45 43/43/43 44/44/44
f 46/46/46 45/45/45 44/44/44
f 47/47/47 45/45/45 46/46/46
f 48/48/48 47/47/47 46/46/46
f 49/49/49 47/47/47 48/48/48
f 50/50/50 49/49/49 48/48/48
f 51/51/51 49/49/49 50/50/50
f 52/52/52 51/51/51 50/50/50
f 53/53/53 51/51/51 52/52/52
f 54/54/54 53/53/53 52/52/52
