g Cone001
v 0.29598397 1.10462677 -0.614679992
v 9.68933094E-08 0.941631436 -0.518350244
v 9.68933094E-08 1.14359391 -0.614679992
v 0.243712053 0.909545839 -0.518350244
v 0.571797073 0.99038142 -0.614679992
v 9.68933094E-08 0.788164914 -0.408728451
v 0.470815629 0.815476596 -0.518350244
v 0.808643103 0.808643103 -0.614679992
v 0.203992009 0.761308789 -0.408728391
v -0 0.673400223 -0.285814583
v 0.665833771 0.665833831 -0.518350244
v 0.99038142 0.571797132 -0.614679992
v 0.394082338 0.682570755 -0.408728451
v 0.174288779 0.650454938 -0.285814583
v -9.68933094E-08 0.587544382 -0.149608791
v 0.815476596 0.470815688 -0.518350244
v 1.10462677 0.295984 -0.614679992
v 0.557316542 0.557316422 -0.408728391
v 0.336700082 0.583181858 -0.285814524
v 0.152067751 0.567524314 -0.149608791
v -0 0.520803154 -0.000110845947
v 0.134793609 0.503057122 -0.000110845947
v 0.293772072 0.508828104 -0.149608791
v 0.260401547 0.451028705 -0.000110845947
v 0.909546018 0.243712276 -0.518350244
v 1.14359391 2.69261697E-08 -0.614679992
v 0.682570755 0.394082367 -0.408728391
v 0.476165891 0.47616595 -0.285814524
v 0.415456414 0.415456474 -0.149608791
v 0.368263274 0.368263304 -0.000110845947
v 0.941631258 -6.99671432E-08 -0.518350244
v 1.10462689 -0.295984626 -0.614679992
v 0.76130873 0.203992128 -0.408728391
v 0.58318162 0.336699903 -0.285814583
v 0.508828461 0.293772191 -0.149608791
v 0.451028556 0.260401368 -0.000110845947
v 0.90954566 -0.243712708 -0.518350244
v 0.990380824 -0.571797609 -0.614679992
v 0.788164854 -6.99671432E-08 -0.408728331
v 0.65045464 0.174288705 -0.285814524
v 0.567524254 0.15206778 -0.149608746
v 0.503057063 0.134793729 -0.000110845947
v 0.815476179 -0.470816165 -0.518350244
v 0.808642685 -0.80864352 -0.614679992
v 0.761308551 -0.203992471 -0.408728391
v 0.673400164 2.69261697E-08 -0.285814524
v 0.587544382 2.69261697E-08 -0.149608791
v 0.520803094 2.69261697E-08 -0.000110845947
v 0.665833354 -0.665834129 -0.518350244
v 0.571796477 -0.990381658 -0.614679992
v 0.682570517 -0.394082934 -0.408728451
v 0.650454462 -0.174289331 -0.285814524
v 0.567524076 -0.152068019 -0.149608746
v 0.503057301 -0.134794071 -0.000110797497
v 0.470815331 -0.815476835 -0.518350244
v 0.295983374 -1.10462689 -0.614679992
v 0.557316363 -0.557316959 -0.408728391
v 0.583181441 -0.336700559 -0.285814553
v 0.508828044 -0.293772459 -0.149608791
v 0.451028377 -0.260401815 -0.000110845947
v 0.243711665 -0.909546018 -0.518350244
v -5.8135987E-07 -1.14359391 -0.614679992
v 0.39408204 -0.682570934 -0.408728391
v 0.476165891 -0.476166099 -0.285814494
v 0.415456325 -0.415456802 -0.149608746
v 0.368263185 -0.368263602 -0.000110845947
v -4.84466568E-07 -0.941631258 -0.518350244
v -0.295984268 -1.10462677 -0.614679992
v 0.203991622 -0.76130873 -0.408728451
v 0.336699516 -0.583181858 -0.285814553
v 0.293771803 -0.508828461 -0.149608746
v 0.260401249 -0.451028615 -0.000110845947
v -0.24371244 -0.909545898 -0.518350184
v -0.571797371 -0.990381181 -0.614679992
v -2.90679935E-07 -0.788164735 -0.408728391
v 0.174288198 -0.650454819 -0.285814613
v 0.15206708 -0.567524195 -0.149608746
v 0.13479352 -0.503057003 -0.000110797497
v -0.470815718 -0.815476477 -0.518350184
v -0.80864346 -0.808642566 -0.614679992
v -0.203992397 -0.761308551 -0.408728331
v -3.87573238E-07 -0.673400104 -0.285814553
v -4.84466568E-07 -0.587544322 -0.149608791
v -2.90679935E-07 -0.520802975 -0.000110894391
v -0.665834129 -0.665833533 -0.518350184
v -0.990381658 -0.571796298 -0.614679992
v -0.394082725 -0.682570577 -0.408728391
v -0.174289167 -0.650454521 -0.285814553
v -0.152067944 -0.567524076 -0.149608746
v -0.134793997 -0.503057003 -0.000110894391
v -0.815476835 -0.470815212 -0.518350184
v -1.10462689 -0.295983255 -0.614679992
v -0.557317019 -0.557316244 -0.408728391
v -0.33670029 -0.58318162 -0.285814524
v -0.293772578 -0.508828163 -0.149608836
v -0.260401636 -0.451028466 -0.000110845947
v -0.909546018 -0.243711546 -0.518350184
v -1.14359391 4.14499397E-07 -0.614679992
v -0.682570994 -0.394082218 -0.408728391
v -0.476166278 -0.476165652 -0.285814553
v -0.415456861 -0.415456474 -0.149608791
v -0.368263453 -0.368263006 -0.000110894391
v -0.941631258 3.17606094E-07 -0.518350244
v -1.10462689 0.295984089 -0.614679992
v -0.761308849 -0.203991592 -0.408728331
v -0.583181858 -0.336699814 -0.285814524
v -0.508828461 -0.293771863 -0.149608746
v -0.451028675 -0.26040113 -0.000110797497
v -0.909545898 0.243712276 -0.518350244
v -0.990381181 0.571797311 -0.614679992
v -0.788164794 4.14499397E-07 -0.408728391
v -0.650454819 -0.17428866 -0.285814524
v -0.567524433 -0.152067631 -0.149608895
v -0.503057122 -0.134793401 -0.000110845947
v -0.815476596 0.470815778 -0.518350244
v -0.808642805 0.808643341 -0.614679992
v -0.76130867 0.203992411 -0.408728391
v -0.673400223 3.17606094E-07 -0.285814613
v -0.587544322 3.17606094E-07 -0.149608746
v -0.520803034 1.23819476E-07 -0.000110894391
v -0.665833712 0.665834427 -0.518350184
v -0.571796834 0.99038142 -0.614679992
v -0.682570755 0.394082457 -0.408728451
v -0.65045464 0.174288899 -0.285814583
v -0.567524195 0.152067676 -0.149608746
v -0.503057063 0.134793922 -0.000110894391
v -0.470815539 0.815476954 -0.518350184
v -0.295983881 1.10462677 -0.614679992
v -0.557316601 0.55731678 -0.408728391
v -0.583181679 0.336700112 -0.285814553
v -0.508828163 0.293772191 -0.149608746
v -0.451028526 0.260401577 -0.000110894391
v -0.243712053 0.909545839 -0.518350244
v 9.68933094E-08 1.14359391 -0.614679992
v 9.68933094E-08 0.941631436 -0.518350244
v -0.394082427 0.682570994 -0.408728391
v -0.476165742 0.47616604 -0.285814553
v -0.415456504 0.415456951 -0.149608791
v -0.368263125 0.368263781 -0.000110845947
v -0.203992099 0.761308968 -0.408728331
v 9.68933094E-08 0.788164914 -0.408728451
v -0.336700171 0.583181858 -0.285814494
v -0.293772072 0.508828282 -0.149608746
v -0.260401338 0.451028913 -0.000110894391
v -0.174288779 0.650454521 -0.285814524
v -0 0.673400223 -0.285814583
v -0.152067557 0.567524314 -0.149608746
v -0.134793609 0.503057301 -0.000110797497
v -9.68933094E-08 0.587544382 -0.149608791
v -0 0.520803154 -0.000110845947
vt 0.0416665375 0.999999881
vt -7.4307394E-08 0.799999893
vt -8.94069743E-08 0.999999881
vt 0.0416665524 0.799999893
vt 0.0833331645 0.999999881
vt 3.96831012E-10 0.599999905
vt 0.0833331794 0.799999893
vt 0.124999851 0.999999881
vt 0.0416666269 0.599999905
vt 1.54964113E-08 0.399999857
vt 0.124999866 0.799999893
vt 0.166666538 0.999999881
vt 0.0833332539 0.599999905
vt 0.0416666418 0.399999857
vt 3.05959844E-08 0.199999928
vt 0.166666552 0.799999893
vt 0.208333224 0.999999881
vt 0.12499994 0.599999905
vt 0.0833332688 0.399999857
vt 0.0416666567 0.199999928
vt 4.56955718E-08 -1.78813934E-07
vt 0.0416666716 -1.78813934E-07
vt 0.0833332837 0.199999928
vt 0.0833332986 -1.78813934E-07
vt 0.208333239 0.799999893
vt 0.249999851 0.999999881
vt 0.166666627 0.599999905
vt 0.124999955 0.399999857
vt 0.12499997 0.199999928
vt 0.124999985 -1.78813934E-07
vt 0.249999866 0.799999893
vt 0.291666597 0.999999881
vt 0.208333313 0.599999905
vt 0.166666642 0.399999857
vt 0.166666657 0.199999928
vt 0.166666672 -1.78813934E-07
vt 0.291666627 0.799999893
vt 0.333333343 0.99999994
vt 0.24999994 0.599999905
vt 0.208333269 0.399999857
vt 0.208333284 0.199999928
vt 0.208333299 -1.78813934E-07
vt 0.333333373 0.799999952
vt 0.37499997 0.99999994
vt 0.291666687 0.599999905
vt 0.249999955 0.399999857
vt 0.24999997 0.199999928
vt 0.25 -5.96046448E-08
vt 0.375 0.799999952
vt 0.416666597 0.99999994
vt 0.333333373 0.599999905
vt 0.291666716 0.399999857
vt 0.291666716 0.199999928
vt 0.291666746 -5.96046448E-08
vt 0.416666627 0.799999952
vt 0.458333284 0.99999994
vt 0.37500006 0.599999905
vt 0.333333403 0.399999857
vt 0.333333462 0.199999928
vt 0.333333492 -5.96046448E-08
vt 0.458333313 0.799999952
vt 0.49999994 0.99999994
vt 0.416666687 0.599999964
vt 0.375000089 0.399999857
vt 0.37500003 0.199999928
vt 0.375000119 -5.96046448E-08
vt 0.49999997 0.799999952
vt 0.541666627 0.99999994
vt 0.458333373 0.599999964
vt 0.416666716 0.399999917
vt 0.416666716 0.199999988
vt 0.416666746 0
vt 0.541666627 0.799999952
vt 0.583333254 0.99999994
vt 0.5 0.599999964
vt 0.458333403 0.399999917
vt 0.458333403 0.199999988
vt 0.458333433 0
vt 0.583333254 0.799999952
vt 0.625 0.99999994
vt 0.541666627 0.599999964
vt 0.5 0.399999917
vt 0.5 0.199999988
vt 0.500000119 0
vt 0.625 0.799999952
vt 0.666666627 0.99999994
vt 0.583333373 0.599999964
vt 0.541666746 0.399999917
vt 0.541666746 0.199999988
vt 0.541666746 0
vt 0.666666627 0.799999952
vt 0.708333254 1
vt 0.625 0.600000024
vt 0.583333373 0.399999917
vt 0.583333373 0.199999988
vt 0.583333373 0
vt 0.708333254 0.800000012
vt 0.749999881 1
vt 0.666666627 0.600000024
vt 0.625 0.399999976
vt 0.625 0.200000048
vt 0.625000119 0
vt 0.749999881 0.800000012
vt 0.791666508 1
vt 0.708333373 0.600000024
vt 0.666666746 0.399999976
vt 0.666666746 0.200000048
vt 0.666666746 0
vt 0.791666627 0.800000012
vt 0.833333254 1
vt 0.75 0.600000024
vt 0.708333373 0.399999976
vt 0.708333373 0.200000048
vt 0.708333373 0
vt 0.833333254 0.800000012
vt 0.874999881 1
vt 0.791666627 0.600000024
vt 0.75 0.399999976
vt 0.75 0.200000048
vt 0.75 0
vt 0.874999881 0.800000012
vt 0.916666508 1
vt 0.833333254 0.600000024
vt 0.791666627 0.399999976
vt 0.791666627 0.200000048
vt 0.791666746 0
vt 0.916666508 0.800000012
vt 0.958333254 1
vt 0.875 0.600000024
vt 0.833333373 0.399999976
vt 0.833333373 0.200000048
vt 0.833333373 0
vt 0.958333254 0.800000012
vt 0.999999881 1
vt 0.999999881 0.800000012
vt 0.916666627 0.600000024
vt 0.875 0.399999976
vt 0.875 0.200000048
vt 0.875 0
vt 0.958333254 0.600000024
vt 1 0.600000024
vt 0.916666627 0.399999976
vt 0.916666627 0.200000048
vt 0.916666627 0
vt 0.958333254 0.399999976
vt 1 0.399999976
vt 0.958333254 0.200000048
vt 0.958333373 0
vt 1.00000012 0.200000048
vt 1.00000012 0
vn 0.111423209 0.415836662 0.902587712
vn -0 0.502378285 0.864647985
vn -0 0.430506021 0.902587652
vn 0.130025178 0.485260189 0.864647865
vn 0.215252757 0.37282896 0.902587831
vn 4.24688494E-07 0.654625773 0.755953074
vn 0.251189023 0.435072213 0.864647985
vn 0.304413378 0.304413289 0.90258795
vn 0.169429719 0.632320642 0.755952537
vn -5.4147921E-07 0.78900677 0.614384592
vn 0.355234921 0.355234802 0.864648163
vn 0.372828841 0.215252757 0.90258795
vn 0.327313453 0.566922784 0.755952597
vn 0.204209551 0.762122035 0.614384592
vn -0 0.880456567 0.474126875
vn 0.435072154 0.251189262 0.864647985
vn 0.41583699 0.111423299 0.902587652
vn 0.462890923 0.462890804 0.755952477
vn 0.394503564 0.683299363 0.614384949
vn 0.227879614 0.850454986 0.474127799
vn 5.96075381E-07 0.91313529 0.407656729
vn 0.236337379 0.882020831 0.40765658
vn 0.44022873 0.762497067 0.474127501
vn 0.456567794 0.790798962 0.407655418
vn 0.485260218 0.130025193 0.864647985
vn 0.430505872 0 0.902587712
vn 0.566922665 0.327313274 0.755952895
vn 0.557912111 0.557911634 0.61438489
vn 0.622576356 0.622577071 0.474127024
vn 0.645684242 0.645684123 0.40765667
vn 0.502378285 0 0.864647985
vn 0.415836036 -0.111423418 0.902588129
vn 0.632320166 0.169429839 0.755952895
vn 0.68329978 0.394503236 0.614384651
vn 0.762497306 0.440228939 0.474126875
vn 0.790797949 0.456567317 0.407657862
vn 0.485259861 -0.130025551 0.864647985
vn 0.372828841 -0.215253055 0.902587831
vn 0.654626191 -3.25951419E-07 0.755952835
vn 0.762121916 0.204210088 0.614384651
vn 0.850455582 0.227878883 0.474127173
vn 0.882020712 0.236337185 0.407656997
vn 0.435072362 -0.251189381 0.864647865
vn 0.304413229 -0.304413557 0.90258795
vn 0.632320344 -0.169430017 0.755952597
vn 0.789006531 -3.02276305E-07 0.61438483
vn 0.880456448 -3.23820728E-07 0.474126965
vn 0.913135529 3.90452442E-07 0.407656074
vn 0.355234891 -0.355235279 0.864647985
vn 0.215252668 -0.372829109 0.902587712
vn 0.566922665 -0.327313393 0.755952716
vn 0.762121797 -0.204210326 0.61438477
vn 0.850455761 -0.22787945 0.474126607
vn 0.882021368 -0.236337259 0.407655478
vn 0.251188874 -0.435072303 0.864647985
vn 0.111422941 -0.415836871 0.902587712
vn 0.462890625 -0.462891042 0.755952537
vn 0.683299661 -0.394503355 0.61438489
vn 0.762497306 -0.440228611 0.474127144
vn 0.790797651 -0.456568986 0.40765667
vn 0.130024791 -0.485260248 0.864647985
vn -0 -0.430505842 0.902587831
vn 0.327312499 -0.566923082 0.755952895
vn 0.557911515 -0.557912111 0.61438483
vn 0.622576177 -0.622577012 0.474127352
vn 0.645683765 -0.64568454 0.407656729
vn -0 -0.502378106 0.864648044
vn -0.111423247 -0.415836811 0.902587712
vn 0.169429347 -0.632320404 0.755952716
vn 0.394502193 -0.683300257 0.61438483
vn 0.44022724 -0.76249814 0.474127173
vn 0.456566572 -0.790798903 0.407656789
vn -0.130025193 -0.48526001 0.864647985
vn -0.215253115 -0.372828841 0.902587831
vn -0 -0.654626071 0.755952835
vn 0.204209283 -0.762121856 0.614384949
vn 0.227878213 -0.850455642 0.474127263
vn 0.236337081 -0.88202101 0.407656312
vn -0.251189291 -0.435072303 0.864647985
vn -0.304413736 -0.304413468 0.902587831
vn -0.169429913 -0.632320225 0.755952835
vn -3.93911193E-07 -0.789006531 0.614384711
vn -3.345354E-07 -0.880456448 0.474127054
vn -2.58761332E-07 -0.913135231 0.407656759
vn -0.355235189 -0.355234981 0.864647985
vn -0.372829288 -0.215252727 0.902587712
vn -0.327313364 -0.566922784 0.755952716
vn -0.204210192 -0.762121797 0.614384711
vn -0.227879241 -0.850455463 0.474127054
vn -0.23633711 -0.882020831 0.40765664
vn -0.435072571 -0.251188964 0.864647865
vn -0.4158369 -0.111423001 0.902587712
vn -0.462890893 -0.462890625 0.755952597
vn -0.394503355 -0.68329978 0.614384592
vn -0.440228373 -0.762497425 0.474127322
vn -0.456568062 -0.790797651 0.407657564
vn -0.485260397 -0.13002485 0.864647865
vn -0.430505842 0 0.902587831
vn -0.566922963 -0.327312827 0.755952835
vn -0.55791223 -0.557911813 0.614384651
vn -0.622576952 -0.622575998 0.474127799
vn -0.645684481 -0.645682931 0.40765816
vn -0.502378225 0 0.864647985
vn -0.415836662 0.111423202 0.902587712
vn -0.632320583 -0.169429362 0.755952597
vn -0.683299959 -0.394502729 0.614384711
vn -0.762497663 -0.440227777 0.474127501
vn -0.790798068 -0.456567287 0.407657534
vn -0.485260099 0.130025178 0.864647985
vn -0.372828931 0.21525304 0.902587712
vn -0.654626071 4.33015742E-07 0.755952835
vn -0.762121975 -0.204209656 0.614384592
vn -0.850455403 -0.227878481 0.474127531
vn -0.882020712 -0.236336425 0.407657385
vn -0.435072452 0.251189053 0.864647985
vn -0.304413825 0.304413855 0.902587652
vn -0.632320225 0.169429973 0.755952835
vn -0.789006531 5.42669284E-07 0.61438483
vn -0.880456448 4.61920791E-07 0.474127054
vn -0.91313529 0 0.407656729
vn -0.35523501 0.35523501 0.864647985
vn -0.215253085 0.372829556 0.902587533
vn -0.566922784 0.327313036 0.755952895
vn -0.762121797 0.204209983 0.61438477
vn -0.850455463 0.227879182 0.474127144
vn -0.882020831 0.236337319 0.407656759
vn -0.251188785 0.435072511 0.864647985
vn -0.111423045 0.4158369 0.902587712
vn -0.462890506 0.462890238 0.755953014
vn -0.68329972 0.394503325 0.61438483
vn -0.762497723 0.440228075 0.474127084
vn -0.790798306 0.456567526 0.407656908
vn -0.130025089 0.485260606 0.864647686
vn -0 0.430506021 0.902587652
vn -0 0.502378285 0.864647985
vn -0.327313185 0.566922784 0.755952716
vn -0.557912409 0.557911694 0.614384532
vn -0.622576773 0.622576654 0.474127144
vn -0.645684004 0.645684242 0.407656819
vn -0.169429481 0.632320285 0.755952954
vn 4.24688494E-07 0.654625773 0.755953074
vn -0.394502759 0.683299661 0.614385188
vn -0.440227509 0.762498021 0.474127173
vn -0.456567407 0.790798843 0.407655954
vn -0.204209387 0.762121677 0.614385068
vn -5.4147921E-07 0.78900677 0.614384592
vn -0.227879286 0.85045594 0.474126309
vn -0.236336678 0.882021189 0.407656133
vn -0 0.880456567 0.474126875
vn 5.96075381E-07 0.91313529 0.407656729
g Cone001_0
f 3/3/3 2/2/2 1/1/1
f 2/2/2 4/4/4 1/1/1
f 1/1/1 4/4/4 5/5/5
f 2/2/2 6/6/6 4/4/4
f 4/4/4 7/7/7 5/5/5
f 5/5/5 7/7/7 8/8/8
f 6/6/6 9/9/9 4/4/4
f 4/4/4 9/9/9 7/7/7
f 6/6/6 10/10/10 9/9/9
f 7/7/7 11/11/11 8/8/8
f 8/8/8 11/11/11 12/12/12
f 9/9/9 13/13/13 7/7/7
f 7/7/7 13/13/13 11/11/11
f 10/10/10 14/14/14 9/9/9
f 9/9/9 14/14/14 13/13/13
f 10/10/10 15/15/15 14/14/14
f 11/11/11 16/16/16 12/12/12
f 12/12/12 16/16/16 17/17/17
f 13/13/13 18/18/18 11/11/11
f 11/11/11 18/18/18 16/16/16
f 14/14/14 19/19/19 13/13/13
f 13/13/13 19/19/19 18/18/18
f 15/15/15 20/20/20 14/14/14
f 14/14/14 20/20/20 19/19/19
f 15/15/15 21/21/21 20/20/20
f 21/21/21 22/22/22 20/20/20
f 20/20/20 22/22/22 23/23/23
f 20/20/20 23/23/23 19/19/19
f 22/22/22 24/24/24 23/23/23
f 16/16/16 25/25/25 17/17/17
f 17/17/17 25/25/25 26/26/26
f 18/18/18 27/27/27 16/16/16
f 16/16/16 27/27/27 25/25/25
f 19/19/19 28/28/28 18/18/18
f 19/19/19 23/23/23 28/28/28
f 18/18/18 28/28/28 27/27/27
f 23/23/23 24/24/24 29/29/29
f 23/23/23 29/29/29 28/28/28
f 24/24/24 30/30/30 29/29/29
f 25/25/25 31/31/31 26/26/26
f 26/26/26 31/31/31 32/32/32
f 27/27/27 33/33/33 25/25/25
f 25/25/25 33/33/33 31/31/31
f 28/28/28 34/34/34 27/27/27
f 28/28/28 29/29/29 34/34/34
f 27/27/27 34/34/34 33/33/33
f 29/29/29 30/30/30 35/35/35
f 29/29/29 35/35/35 34/34/34
f 30/30/30 36/36/36 35/35/35
f 31/31/31 37/37/37 32/32/32
f 32/32/32 37/37/37 38/38/38
f 33/33/33 39/39/39 31/31/31
f 31/31/31 39/39/39 37/37/37
f 34/34/34 40/40/40 33/33/33
f 34/34/34 35/35/35 40/40/40
f 33/33/33 40/40/40 39/39/39
f 35/35/35 36/36/36 41/41/41
f 35/35/35 41/41/41 40/40/40
f 36/36/36 42/42/42 41/41/41
f 37/37/37 43/43/43 38/38/38
f 38/38/38 43/43/43 44/44/44
f 39/39/39 45/45/45 37/37/37
f 37/37/37 45/45/45 43/43/43
f 40/40/40 46/46/46 39/39/39
f 40/40/40 41/41/41 46/46/46
f 39/39/39 46/46/46 45/45/45
f 41/41/41 42/42/42 47/47/47
f 41/41/41 47/47/47 46/46/46
f 42/42/42 48/48/48 47/47/47
f 43/43/43 49/49/49 44/44/44
f 44/44/44 49/49/49 50/50/50
f 45/45/45 51/51/51 43/43/43
f 43/43/43 51/51/51 49/49/49
f 46/46/46 52/52/52 45/45/45
f 46/46/46 47/47/47 52/52/52
f 45/45/45 52/52/52 51/51/51
f 47/47/47 48/48/48 53/53/53
f 47/47/47 53/53/53 52/52/52
f 48/48/48 54/54/54 53/53/53
f 49/49/49 55/55/55 50/50/50
f 50/50/50 55/55/55 56/56/56
f 51/51/51 57/57/57 49/49/49
f 49/49/49 57/57/57 55/55/55
f 52/52/52 58/58/58 51/51/51
f 52/52/52 53/53/53 58/58/58
f 51/51/51 58/58/58 57/57/57
f 53/53/53 54/54/54 59/59/59
f 53/53/53 59/59/59 58/58/58
f 54/54/54 60/60/60 59/59/59
f 55/55/55 61/61/61 56/56/56
f 56/56/56 61/61/61 62/62/62
f 57/57/57 63/63/63 55/55/55
f 55/55/55 63/63/63 61/61/61
f 58/58/58 64/64/64 57/57/57
f 58/58/58 59/59/59 64/64/64
f 57/57/57 64/64/64 63/63/63
f 59/59/59 60/60/60 65/65/65
f 59/59/59 65/65/65 64/64/64
f 60/60/60 66/66/66 65/65/65
f 61/61/61 67/67/67 62/62/62
f 62/62/62 67/67/67 68/68/68
f 63/63/63 69/69/69 61/61/61
f 61/61/61 69/69/69 67/67/67
f 64/64/64 70/70/70 63/63/63
f 64/64/64 65/65/65 70/70/70
f 63/63/63 70/70/70 69/69/69
f 65/65/65 66/66/66 71/71/71
f 65/65/65 71/71/71 70/70/70
f 66/66/66 72/72/72 71/71/71
f 67/67/67 73/73/73 68/68/68
f 68/68/68 73/73/73 74/74/74
f 69/69/69 75/75/75 67/67/67
f 67/67/67 75/75/75 73/73/73
f 70/70/70 76/76/76 69/69/69
f 70/70/70 71/71/71 76/76/76
f 69/69/69 76/76/76 75/75/75
f 71/71/71 72/72/72 77/77/77
f 71/71/71 77/77/77 76/76/76
f 72/72/72 78/78/78 77/77/77
f 73/73/73 79/79/79 74/74/74
f 74/74/74 79/79/79 80/80/80
f 75/75/75 81/81/81 73/73/73
f 73/73/73 81/81/81 79/79/79
f 76/76/76 82/82/82 75/75/75
f 76/76/76 77/77/77 82/82/82
f 75/75/75 82/82/82 81/81/81
f 77/77/77 78/78/78 83/83/83
f 77/77/77 83/83/83 82/82/82
f 78/78/78 84/84/84 83/83/83
f 79/79/79 85/85/85 80/80/80
f 80/80/80 85/85/85 86/86/86
f 81/81/81 87/87/87 79/79/79
f 79/79/79 87/87/87 85/85/85
f 82/82/82 88/88/88 81/81/81
f 82/82/82 83/83/83 88/88/88
f 81/81/81 88/88/88 87/87/87
f 83/83/83 84/84/84 89/89/89
f 83/83/83 89/89/89 88/88/88
f 84/84/84 90/90/90 89/89/89
f 85/85/85 91/91/91 86/86/86
f 86/86/86 91/91/91 92/92/92
f 87/87/87 93/93/93 85/85/85
f 85/85/85 93/93/93 91/91/91
f 88/88/88 94/94/94 87/87/87
f 88/88/88 89/89/89 94/94/94
f 87/87/87 94/94/94 93/93/93
f 89/89/89 90/90/90 95/95/95
f 89/89/89 95/95/95 94/94/94
f 90/90/90 96/96/96 95/95/95
f 91/91/91 97/97/97 92/92/92
f 92/92/92 97/97/97 98/98/98
f 93/93/93 99/99/99 91/91/91
f 91/91/91 99/99/99 97/97/97
f 94/94/94 100/100/100 93/93/93
f 94/94/94 95/95/95 100/100/100
f 93/93/93 100/100/100 99/99/99
f 95/95/95 96/96/96 101/101/101
f 95/95/95 101/101/101 100/100/100
f 96/96/96 102/102/102 101/101/101
f 97/97/97 103/103/103 98/98/98
f 98/98/98 103/103/103 104/104/104
f 99/99/99 105/105/105 97/97/97
f 97/97/97 105/105/105 103/103/103
f 100/100/100 106/106/106 99/99/99
f 100/100/100 101/101/101 106/106/106
f 99/99/99 106/106/106 105/105/105
f 101/101/101 102/102/102 107/107/107
f 101/101/101 107/107/107 106/106/106
f 102/102/102 108/108/108 107/107/107
f 103/103/103 109/109/109 104/104/104
f 104/104/104 109/109/109 110/110/110
f 105/105/105 111/111/111 103/103/103
f 103/103/103 111/111/111 109/109/109
f 106/106/106 112/112/112 105/105/105
f 106/106/106 107/107/107 112/112/112
f 105/105/105 112/112/112 111/111/111
f 107/107/107 108/108/108 113/113/113
f 107/107/107 113/113/113 112/112/112
f 108/108/108 114/114/114 113/113/113
f 109/109/109 115/115/115 110/110/110
f 110/110/110 115/115/115 116/116/116
f 111/111/111 117/117/117 109/109/109
f 109/109/109 117/117/117 115/115/115
f 112/112/112 118/118/118 111/111/111
f 112/112/112 113/113/113 118/118/118
f 111/111/111 118/118/118 117/117/117
f 113/113/113 114/114/114 119/119/119
f 113/113/113 119/119/119 118/118/118
f 114/114/114 120/120/120 119/119/119
f 115/115/115 121/121/121 116/116/116
f 116/116/116 121/121/121 122/122/122
f 117/117/117 123/123/123 115/115/115
f 115/115/115 123/123/123 121/121/121
f 118/118/118 124/124/124 117/117/117
f 118/118/118 119/119/119 124/124/124
f 117/117/117 124/124/124 123/123/123
f 119/119/119 120/120/120 125/125/125
f 119/119/119 125/125/125 124/124/124
f 120/120/120 126/126/126 125/125/125
f 121/121/121 127/127/127 122/122/122
f 122/122/122 127/127/127 128/128/128
f 123/123/123 129/129/129 121/121/121
f 121/121/121 129/129/129 127/127/127
f 124/124/124 130/130/130 123/123/123
f 124/124/124 125/125/125 130/130/130
f 123/123/123 130/130/130 129/129/129
f 125/125/125 126/126/126 131/131/131
f 125/125/125 131/131/131 130/130/130
f 126/126/126 132/132/132 131/131/131
f 127/127/127 133/133/133 128/128/128
f 128/128/128 133/133/133 134/134/134
f 133/133/133 135/135/135 134/134/134
f 129/129/129 136/136/136 127/127/127
f 127/127/127 136/136/136 133/133/133
f 130/130/130 137/137/137 129/129/129
f 130/130/130 131/131/131 137/137/137
f 129/129/129 137/137/137 136/136/136
f 131/131/131 132/132/132 138/138/138
f 131/131/131 138/138/138 137/137/137
f 132/132/132 139/139/139 138/138/138
f 133/133/133 140/140/140 135/135/135
f 136/136/136 140/140/140 133/133/133
f 140/140/140 141/141/141 135/135/135
f 137/137/137 142/142/142 136/136/136
f 137/137/137 138/138/138 142/142/142
f 136/136/136 142/142/142 140/140/140
f 138/138/138 139/139/139 143/143/143
f 138/138/138 143/143/143 142/142/142
f 139/139/139 144/144/144 143/143/143
f 140/140/140 145/145/145 141/141/141
f 142/142/142 145/145/145 140/140/140
f 142/142/142 143/143/143 145/145/145
f 145/145/145 146/146/146 141/141/141
f 143/143/143 144/144/144 147/147/147
f 143/143/143 147/147/147 145/145/145
f 145/145/145 147/147/147 146/146/146
f 144/144/144 148/148/148 147/147/147
f 147/147/147 149/149/149 146/146/146
f 147/147/147 148/148/148 149/149/149
f 148/148/148 150/150/150 149/149/149
