g general_plane_139
v 0.00831903517 -0.0587170012 -6.83940016E-10
v 0.0118212774 -0.0792466477 8.87666829E-10
v 0.00512032211 -0.0600990392 -3.63797881E-10
v 0.0154618025 -0.077704221 5.09317033E-10
v 0.0111308992 -0.0575052314 9.16770659E-10
v 0.0194647312 -0.0760006607 -1.48429535E-09
v 0.0138152912 -0.0561311506 5.82076609E-10
v 0.0233811513 -0.0740204826 -2.61934474E-10
v 0.0164187774 -0.0546648391 -8.44011083E-10
v 0.0272218436 -0.0718353763 -5.23868948E-10
v 0.0189185515 -0.053076122 1.74622983E-10
v 0.0309645459 -0.069398731 3.49245965E-10
v 0.0211537182 -0.0512338541 2.91038305E-10
v 0.0344924927 -0.0665181801 0
v 0.0232232362 -0.0492782854 -6.4028427E-10
v 0.0378321782 -0.0633535311 -5.82076609E-11
v 0.0250903517 -0.0471879393 -1.0477379E-09
v 0.0409325063 -0.0598591603 9.31322575E-10
v 0.0266186818 -0.0449344814 -5.82076609E-10
v 0.0436488017 -0.0559575744 -3.49245965E-10
v 0.0279637873 -0.0426269285 -4.65661287E-10
v 0.046054706 -0.0518058427 5.82076609E-10
v 0.0290964693 -0.040251825 -2.32830644E-10
v 0.0480884202 -0.0473819859 0
v 0.0297767371 -0.0377922356 -8.14907253E-10
v 0.0494797863 -0.042621661 1.16415322E-09
v 0.0302473381 -0.0353308246 -2.32830644E-10
v 0.0503930449 -0.0377149656 1.16415322E-09
v 0.0304821283 -0.0328567438 -9.31322575E-10
v 0.0507676229 -0.0326774567 -2.32830644E-10
v 0.030206725 -0.0304196067 6.98491931E-10
v 0.0502979904 -0.0276134126 6.98491931E-10
v 0.029730238 -0.0280220211 -4.65661287E-10
v 0.0492914543 -0.0226468444 4.65661287E-10
v 0.0290213972 -0.0256551802 -2.32830644E-10
v 0.0477324277 -0.0178174041 0
v 0.0278249383 -0.0234259795 -6.98491931E-10
v 0.0454423018 -0.0133680347 1.39698386E-09
v 0.0264509097 -0.0212551653 -4.65661287E-10
v 0.0427741557 -0.00921003148 9.31322575E-10
v 0.0248704627 -0.0191458035 -2.32830644E-10
v 0.0397516564 -0.00535872253 -4.65661287E-10
v 0.022724241 -0.0172628202 -2.32830644E-10
v 0.0363541022 -0.00223749876 0
v 0.0204412565 -0.0154365432 4.65661287E-10
v 0.0328549072 0.000608231872 0
v 0.0180125609 -0.01367574 1.39698386E-09
v 0.0292763859 0.00319612492 -4.65661287E-10
v 0.0153927207 -0.0121150492 4.65661287E-10
v 0.0255475417 0.00544664357 0
v 0.0127208605 -0.0106821852 4.65661287E-10
v 0.0216972455 0.00751006883 -1.39698386E-09
v 0.00999647379 -0.0093746921 0
v 0.0177266598 0.00938104745 4.65661287E-10
v 0.00717892498 -0.00839321222 -9.31322575E-10
v 0.013543576 0.0108687943 0
v 0.00429962575 -0.00755859911 0
v 0.00930783153 0.0120997718 -9.31322575E-10
v 0.00135529041 -0.00686526485 4.65661287E-10
v 0.0050317198 0.013085111 -9.31322575E-10
v -0.00177308172 -0.00642861985 -9.31322575E-10
v 0.000853359699 0.0136869317 9.31322575E-10
v -0.00504980981 -0.00607554615 -4.65661287E-10
v -0.00316673517 0.0141231576 -1.39698386E-09
v -0.00847081095 -0.00580370985 -4.65661287E-10
v -0.00702882558 0.0144312652 -9.31322575E-10
v -0.0122179836 -0.00553477183 -4.65661287E-10
v -0.0104775801 0.0146767227 9.31322575E-10
v -0.0161357298 -0.00514698774 -9.31322575E-10
v -0.0136844814 0.0149906604 2.79396772E-09
v -0.0201986283 -0.00462215301 -4.65661287E-10
v -0.0166777596 0.0153562622 9.31322575E-10
v -0.0244420618 -0.00369628984 -4.65661287E-10
v -0.0193149298 0.0159313977 0
v -0.0286374241 -0.00239172578 0
v -0.0218062699 0.0167098194 4.65661287E-10
v -0.0327585191 -0.000749968924 -9.31322575E-10
v -0.0242017806 0.0176433958 4.65661287E-10
v -0.0365907997 0.00131513458 -1.39698386E-09
v -0.0265494585 0.0189419575 1.39698386E-09
v -0.0402005613 0.00358648505 0
v -0.028901279 0.0204346217 1.39698386E-09
v -0.0436261594 0.00601692405 -1.39698386E-09
v -0.0312535316 0.0220933668 0
v -0.046778366 0.00863393303 -6.98491931E-10
v -0.0335666388 0.0240282267 4.65661287E-10
v -0.0497692674 0.0113504333 2.32830644E-10
v -0.0358469188 0.0261051543 9.31322575E-10
v -0.0526327342 0.0141428625 -1.39698386E-09
v -0.03809838 0.0282951109 4.65661287E-10
v -0.0553143173 0.0170323625 4.65661287E-10
v -0.0402836502 0.0306563526 -4.65661287E-10
v -0.0578833967 0.0199787654 0
v -0.0424231142 0.0331132039 4.65661287E-10
v -0.0603657663 0.022968214 0
v -0.0445262641 0.0356427431 9.31322575E-10
v -0.0627228022 0.0260159746 2.32830644E-10
v -0.0465638489 0.0382806323 -4.65661287E-10
v -0.0649968088 0.0291010179 4.65661287E-10
v -0.0485555679 0.0409845747 1.39698386E-09
v -0.0672083199 0.032213822 -4.65661287E-10
v -0.0505125821 0.043737106 0
v -0.0693285763 0.0353653766 2.32830644E-10
v -0.0524118841 0.0465617739 -4.65661287E-10
v -0.0713843256 0.0385433026 -4.65661287E-10
v -0.0542693585 0.0494342148 -9.31322575E-10
v -0.0733930916 0.0417408273 -6.98491931E-10
v -0.0560960174 0.0523401015 9.31322575E-10
v -0.0753345937 0.0449673124 -9.31322575E-10
v -0.0578729361 0.0552931912 9.31322575E-10
v -0.07726188 0.0481710471 -4.65661287E-10
v -0.0597496778 0.0584109835 0
v -0.0791832358 0.0513641126 -4.65661287E-10
v -0.0616710335 0.0616040491 0
vt 0.982142806 0
vt 1 1
vt 1 0
vt 0.982142866 1
vt 0.964285612 0
vt 0.964285731 1
vt 0.946428537 0
vt 0.946428657 1
vt 0.928571343 0
vt 0.928571463 1
vt 0.910714269 0
vt 0.910714388 1
vt 0.892856956 0
vt 0.892857194 1
vt 0.874999881 0
vt 0.875 1
vt 0.857142687 0
vt 0.857142925 1
vt 0.839285493 0
vt 0.839285731 1
vt 0.821428418 0
vt 0.821428657 1
vt 0.803571343 0
vt 0.803571522 1
vt 0.785714209 0
vt 0.785714388 1
vt 0.767857075 0
vt 0.767857254 1
vt 0.749999881 0
vt 0.750000119 1
vt 0.732142806 0
vt 0.732142925 1
vt 0.714285612 0
vt 0.714285731 1
vt 0.696428537 0
vt 0.696428657 1
vt 0.678571343 0
vt 0.678571463 1
vt 0.660714269 0
vt 0.660714388 1
vt 0.642857075 0
vt 0.642857194 1
vt 0.625 0
vt 0.625000119 1
vt 0.607142806 0
vt 0.607142925 1
vt 0.589285731 0
vt 0.589285851 1
vt 0.571428537 0
vt 0.571428657 1
vt 0.553571463 0
vt 0.553571582 1
vt 0.535714269 0
vt 0.535714388 1
vt 0.517857194 0
vt 0.517857313 1
vt 0.50000006 0
vt 0.500000119 1
vt 0.482142866 0
vt 0.482143044 1
vt 0.464285731 0
vt 0.46428591 1
vt 0.446428597 0
vt 0.446428716 1
vt 0.428571463 0
vt 0.428571582 1
vt 0.410714298 0
vt 0.410714418 1
vt 0.392857164 0
vt 0.392857283 1
vt 0.37500003 0
vt 0.375000119 1
vt 0.357142866 0
vt 0.357142985 1
vt 0.339285672 0
vt 0.339285791 1
vt 0.321428537 0
vt 0.321428657 1
vt 0.303571403 0
vt 0.303571522 1
vt 0.285714269 0
vt 0.285714388 1
vt 0.267857075 0
vt 0.267857254 1
vt 0.24999997 0
vt 0.250000119 1
vt 0.232142836 0
vt 0.232142955 1
vt 0.214285702 0
vt 0.214285791 1
vt 0.196428552 0
vt 0.196428657 1
vt 0.178571403 0
vt 0.178571492 1
vt 0.160714269 0
vt 0.160714328 1
vt 0.142857134 0
vt 0.142857194 1
vt 0.125 0
vt 0.12500003 1
vt 0.107142851 0
vt 0.107142895 1
vt 0.089285709 0
vt 0.0892857462 1
vt 0.0714285672 0
vt 0.071428597 1
vt 0.0535714254 0
vt 0.0535714477 1
vt 0.0357142836 0
vt 0.0357142948 1
vt 0.0178571437 0
vt 0.0178571474 1
vt 0 0
vt 0 1
vn -0 0 1
vn -0 0 1
vn -0 0 1
vn -0 0 1
vn -0 0 1
vn -0 0 1
vn -0 0 1
vn -0 0 1
vn -0 0 1
vn -0 0 1
vn -0 0 1
vn -0 0 1
vn -0 0 1
vn -0 0 1
vn -0 0 1
vn -0 0 1
vn -0 0 1
vn -0 0 1
vn -0 0 1
vn -0 0 1
vn -0 0 1
vn -0 0 1
vn -0 0 1
vn -0 0 1
vn -0 0 1
vn -0 0 1
vn -0 0 1
vn -0 0 1
vn -0 0 1
vn -0 0 1
vn -0 0 1
vn -0 0 1
vn -0 0 1
vn -0 0 1
vn -0 0 1
vn -0 0 1
vn -0 0 1
vn -0 0 1
vn -0 0 1
vn -0 0 1
vn -0 0 1
vn -0 0 1
vn -0 0 1
vn -0 0 1
vn -0 0 1
vn -0 0 1
vn -0 0 1
vn -0 0 1
vn -0 0 1
vn -0 0 1
vn -0 0 1
vn -0 0 1
vn -0 0 1
vn -0 0 1
vn -0 0 1
vn -0 0 1
vn -0 0 1
vn -0 0 1
vn -0 0 1
vn -0 0 1
vn -0 0 1
vn -0 0 1
vn -0 0 1
vn -0 0 1
vn -0 0 1
vn -0 0 1
vn -0 0 1
vn -0 0 1
vn -0 0 1
vn -0 0 1
vn -0 0 1
vn -0 0 1
vn -0 0 1
vn -0 0 1
vn -0 0 1
vn -0 0 1
vn -0 0 1
vn -0 0 1
vn -0 0 1
vn -0 0 1
vn -0 0 1
vn -0 0 1
vn -0 0 1
vn -0 0 1
vn -0 0 1
vn -0 0 1
vn -0 0 1
vn -0 0 1
vn -0 0 1
vn -0 0 1
vn -0 0 1
vn -0 0 1
vn -0 0 1
vn -0 0 1
vn -0 0 1
vn -0 0 1
vn -0 0 1
vn -0 0 1
vn -0 0 1
vn -0 0 1
vn -0 0 1
vn -0 0 1
vn -0 0 1
vn -0 0 1
vn -0 0 1
vn -0 0 1
vn -0 0 1
vn -0 0 1
vn -0 0 1
vn -0 0 1
vn -0 0 1
vn -0 0 1
vn -0 0 1
vn -0 0 1
g general_plane_139_0
f 3/3/3 2/2/2 1/1/1
f 2/2/2 4/4/4 1/1/1
f 1/1/1 4/4/4 5/5/5
f 4/4/4 6/6/6 5/5/5
f 5/5/5 6/6/6 7/7/7
f 6/6/6 8/8/8 7/7/7
f 7/7/7 8/8/8 9/9/9
f 8/8/8 10/10/10 9/9/9
f 9/9/9 10/10/10 11/11/11
f 10/10/10 12/12/12 11/11/11
f 11/11/11 12/12/12 13/13/13
f 12/12/12 14/14/14 13/13/13
f 13/13/13 14/14/14 15/15/15
f 14/14/14 16/16/16 15/15/15
f 15/15/15 16/16/16 17/17/17
f 16/16/16 18/18/18 17/17/17
f 17/17/17 18/18/18 19/19/19
f 18/18/18 20/20/20 19/19/19
f 19/19/19 20/20/20 21/21/21
f 20/20/20 22/22/22 21/21/21
f 21/21/21 22/22/22 23/23/23
f 22/22/22 24/24/24 23/23/23
f 23/23/23 24/24/24 25/25/25
f 24/24/24 26/26/26 25/25/25
f 25/25/25 26/26/26 27/27/27
f 26/26/26 28/28/28 27/27/27
f 27/27/27 28/28/28 29/29/29
f 28/28/28 30/30/30 29/29/29
f 29/29/29 30/30/30 31/31/31
f 30/30/30 32/32/32 31/31/31
f 31/31/31 32/32/32 33/33/33
f 32/32/32 34/34/34 33/33/33
f 33/33/33 34/34/34 35/35/35
f 34/34/34 36/36/36 35/35/35
f 35/35/35 36/36/36 37/37/37
f 36/36/36 38/38/38 37/37/37
f 37/37/37 38/38/38 39/39/39
f 38/38/38 40/40/40 39/39/39
f 39/39/39 40/40/40 41/41/41
f 40/40/40 42/42/42 41/41/41
f 41/41/41 42/42/42 43/43/43
f 42/42/42 44/44/44 43/43/43
f 43/43/43 44/44/44 45/45/45
f 44/44/44 46/46/46 45/45/45
f 45/45/45 46/46/46 47/47/47
f 46/46/46 48/48/48 47/47/47
f 47/47/47 48/48/48 49/49/49
f 48/48/48 50/50/50 49/49/49
f 49/49/49 50/50/50 51/51/51
f 50/50/50 52/52/52 51/51/51
f 51/51/51 52/52/52 53/53/53
f 52/52/52 54/54/54 53/53/53
f 53/53/53 54/54/54 55/55/55
f 54/54/54 56/56/56 55/55/55
f 55/55/55 56/56/56 57/57/57
f 56/56/56 58/58/58 57/57/57
f 57/57/57 58/58/58 59/59/59
f 58/58/58 60/60/60 59/59/59
f 59/59/59 60/60/60 61/61/61
f 60/60/60 62/62/62 61/61/61
f 61/61/61 62/62/62 63/63/63
f 62/62/62 64/64/64 63/63/63
f 63/63/63 64/64/64 65/65/65
f 64/64/64 66/66/66 65/65/65
f 65/65/65 66/66/66 67/67/67
f 66/66/66 68/68/68 67/67/67
f 67/67/67 68/68/68 69/69/69
f 68/68/68 70/70/70 69/69/69
f 69/69/69 70/70/70 71/71/71
f 70/70/70 72/72/72 71/71/71
f 71/71/71 72/72/72 73/73/73
f 72/72/72 74/74/74 73/73/73
f 73/73/73 74/74/74 75/75/75
f 74/74/74 76/76/76 75/75/75
f 75/75/75 76/76/76 77/77/77
f 76/76/76 78/78/78 77/77/77
f 77/77/77 78/78/78 79/79/79
f 78/78/78 80/80/80 79/79/79
f 79/79/79 80/80/80 81/81/81
f 80/80/80 82/82/82 81/81/81
f 81/81/81 82/82/82 83/83/83
f 82/82/82 84/84/84 83/83/83
f 83/83/83 84/84/84 85/85/85
f 84/84/84 86/86/86 85/85/85
f 85/85/85 86/86/86 87/87/87
f 86/86/86 88/88/88 87/87/87
f 87/87/87 88/88/88 89/89/89
f 88/88/88 90/90/90 89/89/89
f 89/89/89 90/90/90 91/91/91
f 90/90/90 92/92/92 91/91/91
f 91/91/91 92/92/92 93/93/93
f 92/92/92 94/94/94 93/93/93
f 93/93/93 94/94/94 95/95/95
f 94/94/94 96/96/96 95/95/95
f 95/95/95 96/96/96 97/97/97
f 96/96/96 98/98/98 97/97/97
f 97/97/97 98/98/98 99/99/99
f 98/98/98 100/100/100 99/99/99
f 99/99/99 100/100/100 101/101/101
f 100/100/100 102/102/102 101/101/101
f 101/101/101 102/102/102 103/103/103
f 102/102/102 104/104/104 103/103/103
f 103/103/103 104/104/104 105/105/105
f 104/104/104 106/106/106 105/105/105
f 105/105/105 106/106/106 107/107/107
f 106/106/106 108/108/108 107/107/107
f 107/107/107 108/108/108 109/109/109
f 108/108/108 110/110/110 109/109/109
f 109/109/109 110/110/110 111/111/111
f 110/110/110 112/112/112 111/111/111
f 111/111/111 112/112/112 113/113/113
f 112/112/112 114/114/114 113/113/113
