g lighting_02
v 0.0521020889 0.216861427 0.00919083506
v 0.121711589 0.185655668 -0.00615464337
v 0.0308053233 0.283524543 0.0118412618
v 0.0957949534 0.147122219 -0.00220059347
v 0.210275635 0.0310488213 -2.77567325E-09
v 0.142875984 0.0115900859 -8.22908408E-11
v 0.111853942 -0.0600077212 1.40437206E-09
v 0.139034823 -0.0719826892 -2.13436024E-09
v 0.092736192 -0.0515851602 2.05499218E-09
v 0.0933446288 -0.11997775 2.85045965E-09
v 0.117173031 -0.183739454 -2.77567325E-09
v 0.0191947687 -0.0781052262 -0.000240042573
v 0.0380762145 -0.122559994 -0.000168198763
v -0.0174819715 -0.0747727677 -0.000240038018
vt 1 1
vt 0.75 0
vt 1 0
vt 0.75 1
vt 0.5 0
vt 0.5 1
vt 0.342754662 0.628981292
vt 0.375496149 0
vt 0.372477174 1
vt 0.25 1
vt 0.25 0
vt 0 1
vt 0.0748241395 0
vt 0 0
vn -0.224110857 -0.0207812358 -0.974342108
vn -0.147571057 -0.014670454 -0.988942623
vn -0.230009571 -0.0348129421 -0.972565532
vn -0.0954163745 -0.0259865299 -0.995098174
vn -0.00418773759 -0.0166479889 -0.999852657
vn 0.00166835799 -0.00577886635 -0.99998188
vn -0 0 -1
vn -0 0 -1
vn -0 0 -1
vn 0.00191426149 0.000715457951 -0.999997973
vn 0.00164233369 0.000383109844 -0.999998569
vn 0.000516547356 -0.00123682467 -0.999999166
vn 0.00108870456 -0.00115369936 -0.999998808
vn -0.000152864581 -0.00168103341 -0.999998569
g lighting_02_0
f 3/3/3 2/2/2 1/1/1
f 4/4/4 1/1/1 2/2/2
f 2/2/2 5/5/5 4/4/4
f 6/6/6 4/4/4 5/5/5
f 6/6/6 5/5/5 7/7/7
f 8/8/8 7/7/7 5/5/5
f 9/9/9 6/6/6 7/7/7
f 9/9/9 7/7/7 10/10/10
f 8/8/8 11/11/11 7/7/7
f 11/11/11 10/10/10 7/7/7
f 10/10/10 11/11/11 12/12/12
f 13/13/13 12/12/12 11/11/11
f 13/13/13 14/14/14 12/12/12
