g outline_01
v -0.233143136 -0.0503479242 0
v -0.242721051 -0.0599258393 0
v -0.242721051 0.059264116 0
v -0.233143136 0.0496862009 0
v -0.223565221 -0.0407700092 0
v -0.150000006 0.059264116 0
v -0.223565221 0.0401082858 0
v -0.213987306 -0.0311920922 0
v -0.213987306 0.0305303689 0
v -0.140422091 0.0496862009 0
v -0.150000006 0.150000006 0
v -0.130844176 0.0401082858 0
v -0.121266261 0.0305303689 0
v -0.140422091 0.140422091 0
v -0.0587347411 0.150000006 0
v -0.130844176 0.130844176 0
v -0.121266261 0.121266261 0
v -0.049156826 0.140422091 0
v -0.0587347411 0.244441539 0
v -0.0395789109 0.130844176 0
v -0.0300009958 0.121266261 0
v -0.049156826 0.234863624 0
v 0.0579406768 0.244441539 0
v -0.0395789109 0.225285709 0
v -0.0300009958 0.215707794 0
v 0.0483627617 0.234863624 0
v 0.0579406768 0.150000006 0
v 0.0387848467 0.225285709 0
v 0.0292069316 0.215707794 0
v 0.0483627617 0.140422091 0
v 0.150000006 0.150000006 0
v 0.0387848467 0.130844176 0
v 0.0292069316 0.121266261 0
v 0.140422091 0.140422091 0
v 0.150000006 0.059264116 0
v 0.130844176 0.130844176 0
v 0.121266261 0.121266261 0
v 0.140422091 0.0496862009 0
v 0.243382782 0.059264116 0
v 0.233804867 0.0496862009 0
v 0.130844176 0.0401082858 0
v 0.121266261 0.0305303689 0
v 0.224226952 0.0401082858 0
v 0.214649037 0.0305303689 0
v 0.233804867 -0.0503479205 0
v 0.243382782 -0.0599258356 0
v 0.243382782 0.059264116 0
v 0.150000006 -0.0599258356 0
v 0.224226952 -0.0407700054 0
v 0.214649037 0.0305303689 0
v 0.214649037 -0.0311920885 0
v 0.140422091 -0.0503479205 0
v 0.150000006 -0.150000006 0
v 0.130844176 -0.0407700054 0
v 0.121266261 -0.0311920885 0
v 0.140422091 -0.140422091 0
v 0.0579406731 -0.150000006 0
v 0.130844176 -0.130844176 0
v 0.121266261 -0.121266261 0
v 0.048362758 -0.140422091 0
v 0.0579406731 -0.242059335 0
v 0.0387848429 -0.130844176 0
v 0.029206926 -0.121266261 0
v 0.048362758 -0.23248142 0
v -0.059264116 -0.242059335 0
v 0.0387848429 -0.222903505 0
v 0.029206926 -0.21332559 0
v -0.0496862009 -0.23248142 0
v -0.059264116 -0.150000006 0
v -0.0401082858 -0.222903505 0
v -0.0305303689 -0.21332559 0
v -0.0496862009 -0.140422091 0
v -0.150000006 -0.150000006 0
v -0.0401082858 -0.130844176 0
v -0.0305303689 -0.121266261 0
v -0.140422091 -0.140422091 0
v -0.150000006 -0.0599258393 0
v -0.130844176 -0.130844176 0
v -0.121266261 -0.121266261 0
v -0.140422091 -0.0503479242 0
v -0.242721051 -0.0599258393 0
v -0.233143136 -0.0503479242 0
v -0.130844176 -0.0407700092 0
v -0.121266261 -0.0311920922 0
v -0.223565221 -0.0407700092 0
v -0.213987306 -0.0311920922 0
vt -0.427571595 0.622884035
vt -0.428222656 0.912597656
vt -0.339355469 0.912597656
vt -0.339355469 0.622558594
vt -0.426920593 0.333170533
vt -0.250488281 0.912597656
vt -0.339355469 0.333496094
vt -0.426269531 0.0434570312
vt -0.339355469 0.0434570312
vt -0.250488281 0.622558594
vt -0.160644531 0.912597656
vt -0.250488281 0.333496094
vt -0.250488281 0.0434570312
vt -0.160644531 0.622558594
vt -0.0678710938 0.912597656
vt -0.160644531 0.333496094
vt -0.160644531 0.0434570312
vt -0.0678710938 0.622558594
vt 0.0229492188 0.912597656
vt -0.0678710938 0.333496094
vt -0.0678710938 0.0434570312
vt 0.0229492188 0.622558594
vt 0.109863281 0.912597656
vt 0.0229492188 0.333496094
vt 0.0229492188 0.0434570312
vt 0.109863281 0.622558594
vt 0.193847656 0.912597656
vt 0.109863281 0.333496094
vt 0.109863281 0.0434570312
vt 0.193847656 0.622558594
vt 0.290527344 0.912597656
vt 0.193847656 0.333496094
vt 0.193847656 0.0434570312
vt 0.290527344 0.622558594
vt 0.396972656 0.912597656
vt 0.290527344 0.333496094
vt 0.290527344 0.0434570312
vt 0.396972656 0.622558594
vt 0.500488281 0.912597656
vt 0.500488281 0.622558594
vt 0.396972656 0.333496094
vt 0.396972656 0.0434570312
vt 0.500488281 0.332519531
vt 0.500488281 0.0434570312
vt 0.602050781 0.621582031
vt 0.602050781 0.911621094
vt 0.500488281 0.911621094
vt 0.690917969 0.911621094
vt 0.602050781 0.332519531
vt 0.500488281 0.0424804688
vt 0.602050781 0.0424804688
vt 0.690917969 0.621582031
vt 0.781738281 0.911621094
vt 0.690917969 0.332519531
vt 0.690917969 0.0424804688
vt 0.781738281 0.621582031
vt 0.856933594 0.911621094
vt 0.781738281 0.332519531
vt 0.781738281 0.0424804688
vt 0.856933594 0.621582031
vt 0.946777344 0.911621094
vt 0.856933594 0.332519531
vt 0.856933594 0.0424804688
vt 0.946777344 0.621582031
vt 1.03173828 0.911621094
vt 0.946777344 0.332519531
vt 0.946777344 0.0424804688
vt 1.03173828 0.621582031
vt 1.12548828 0.911621094
vt 1.03173828 0.332519531
vt 1.03173828 0.0424804688
vt 1.12548828 0.621582031
vt 1.21044922 0.911621094
vt 1.12548828 0.332519531
vt 1.12548828 0.0424804688
vt 1.21044922 0.621582031
vt 1.30517578 0.911621094
vt 1.21044922 0.332519531
vt 1.21044922 0.0424804688
vt 1.30517578 0.621582031
vt 1.39208984 0.911621094
vt 1.39208984 0.621582031
vt 1.30517578 0.332519531
vt 1.30517578 0.0424804688
vt 1.39208984 0.332519531
vt 1.39208984 0.0424804688
vn -0 0 1
vn -0 0 1
vn -0 0 1
vn -0 0 1
vn -0 0 1
vn -0 0 1
vn -0 0 1
vn -0 0 1
vn -0 0 1
vn -0 0 1
vn -0 0 1
vn -0 0 1
vn -0 0 1
vn -0 0 1
vn -0 0 1
vn -0 0 1
vn -0 0 1
vn -0 0 1
vn -0 0 1
vn -0 0 1
vn -0 0 1
vn -0 0 1
vn -0 0 1
vn -0 0 1
vn -0 0 1
vn -0 0 1
vn -0 0 1
vn -0 0 1
vn -0 0 1
vn -0 0 1
vn -0 0 1
vn -0 0 1
vn -0 0 1
vn -0 0 1
vn -0 0 1
vn -0 0 1
vn -0 0 1
vn -0 0 1
vn -0 0 1
vn -0 0 1
vn -0 0 1
vn -0 0 1
vn -0 0 1
vn -0 0 1
vn -0 0 1
vn -0 0 1
vn -0 0 1
vn -0 0 1
vn -0 0 1
vn -0 0 1
vn -0 0 1
vn -0 0 1
vn -0 0 1
vn -0 0 1
vn -0 0 1
vn -0 0 1
vn -0 0 1
vn -0 0 1
vn -0 0 1
vn -0 0 1
vn -0 0 1
vn -0 0 1
vn -0 0 1
vn -0 0 1
vn -0 0 1
vn -0 0 1
vn -0 0 1
vn -0 0 1
vn -0 0 1
vn -0 0 1
vn -0 0 1
vn -0 0 1
vn -0 0 1
vn -0 0 1
vn -0 0 1
vn -0 0 1
vn -0 0 1
vn -0 0 1
vn -0 0 1
vn -0 0 1
vn -0 0 1
vn -0 0 1
vn -0 0 1
vn -0 0 1
vn -0 0 1
vn -0 0 1
g outline_01_0
f 3/3/3 2/2/2 1/1/1
f 4/4/4 3/3/3 1/1/1
f 4/4/4 1/1/1 5/5/5
f 6/6/6 3/3/3 4/4/4
f 7/7/7 4/4/4 5/5/5
f 7/7/7 5/5/5 8/8/8
f 9/9/9 7/7/7 8/8/8
f 10/10/10 6/6/6 4/4/4
f 10/10/10 4/4/4 7/7/7
f 11/11/11 6/6/6 10/10/10
f 12/12/12 7/7/7 9/9/9
f 12/12/12 10/10/10 7/7/7
f 13/13/13 12/12/12 9/9/9
f 14/14/14 11/11/11 10/10/10
f 14/14/14 10/10/10 12/12/12
f 15/15/15 11/11/11 14/14/14
f 16/16/16 12/12/12 13/13/13
f 16/16/16 14/14/14 12/12/12
f 17/17/17 16/16/16 13/13/13
f 18/18/18 15/15/15 14/14/14
f 18/18/18 14/14/14 16/16/16
f 19/19/19 15/15/15 18/18/18
f 20/20/20 16/16/16 17/17/17
f 20/20/20 18/18/18 16/16/16
f 21/21/21 20/20/20 17/17/17
f 22/22/22 19/19/19 18/18/18
f 22/22/22 18/18/18 20/20/20
f 23/23/23 19/19/19 22/22/22
f 24/24/24 20/20/20 21/21/21
f 24/24/24 22/22/22 20/20/20
f 25/25/25 24/24/24 21/21/21
f 26/26/26 23/23/23 22/22/22
f 26/26/26 22/22/22 24/24/24
f 27/27/27 23/23/23 26/26/26
f 28/28/28 24/24/24 25/25/25
f 28/28/28 26/26/26 24/24/24
f 29/29/29 28/28/28 25/25/25
f 30/30/30 27/27/27 26/26/26
f 30/30/30 26/26/26 28/28/28
f 31/31/31 27/27/27 30/30/30
f 32/32/32 28/28/28 29/29/29
f 32/32/32 30/30/30 28/28/28
f 33/33/33 32/32/32 29/29/29
f 34/34/34 31/31/31 30/30/30
f 34/34/34 30/30/30 32/32/32
f 35/35/35 31/31/31 34/34/34
f 36/36/36 32/32/32 33/33/33
f 36/36/36 34/34/34 32/32/32
f 37/37/37 36/36/36 33/33/33
f 38/38/38 35/35/35 34/34/34
f 38/38/38 34/34/34 36/36/36
f 39/39/39 35/35/35 38/38/38
f 40/40/40 39/39/39 38/38/38
f 41/41/41 36/36/36 37/37/37
f 41/41/41 38/38/38 36/36/36
f 40/40/40 38/38/38 41/41/41
f 42/42/42 41/41/41 37/37/37
f 43/43/43 41/41/41 42/42/42
f 43/43/43 40/40/40 41/41/41
f 44/44/44 43/43/43 42/42/42
f 45/45/45 40/40/40 43/43/43
f 45/45/45 46/46/46 40/40/40
f 46/46/46 47/47/47 40/40/40
f 48/48/48 46/46/46 45/45/45
f 49/49/49 45/45/45 43/43/43
f 49/49/49 43/43/43 50/50/50
f 51/51/51 49/49/49 50/50/50
f 52/52/52 48/48/48 45/45/45
f 52/52/52 45/45/45 49/49/49
f 53/53/53 48/48/48 52/52/52
f 54/54/54 49/49/49 51/51/51
f 54/54/54 52/52/52 49/49/49
f 55/55/55 54/54/54 51/51/51
f 56/56/56 53/53/53 52/52/52
f 56/56/56 52/52/52 54/54/54
f 57/57/57 53/53/53 56/56/56
f 58/58/58 54/54/54 55/55/55
f 58/58/58 56/56/56 54/54/54
f 59/59/59 58/58/58 55/55/55
f 60/60/60 57/57/57 56/56/56
f 60/60/60 56/56/56 58/58/58
f 61/61/61 57/57/57 60/60/60
f 62/62/62 58/58/58 59/59/59
f 62/62/62 60/60/60 58/58/58
f 63/63/63 62/62/62 59/59/59
f 64/64/64 61/61/61 60/60/60
f 64/64/64 60/60/60 62/62/62
f 65/65/65 61/61/61 64/64/64
f 66/66/66 62/62/62 63/63/63
f 66/66/66 64/64/64 62/62/62
f 67/67/67 66/66/66 63/63/63
f 68/68/68 65/65/65 64/64/64
f 68/68/68 64/64/64 66/66/66
f 69/69/69 65/65/65 68/68/68
f 70/70/70 66/66/66 67/67/67
f 70/70/70 68/68/68 66/66/66
f 71/71/71 70/70/70 67/67/67
f 72/72/72 69/69/69 68/68/68
f 72/72/72 68/68/68 70/70/70
f 73/73/73 69/69/69 72/72/72
f 74/74/74 70/70/70 71/71/71
f 74/74/74 72/72/72 70/70/70
f 75/75/75 74/74/74 71/71/71
f 76/76/76 73/73/73 72/72/72
f 76/76/76 72/72/72 74/74/74
f 77/77/77 73/73/73 76/76/76
f 78/78/78 74/74/74 75/75/75
f 78/78/78 76/76/76 74/74/74
f 79/79/79 78/78/78 75/75/75
f 80/80/80 77/77/77 76/76/76
f 80/80/80 76/76/76 78/78/78
f 81/81/81 77/77/77 80/80/80
f 82/82/82 81/81/81 80/80/80
f 83/83/83 78/78/78 79/79/79
f 83/83/83 80/80/80 78/78/78
f 82/82/82 80/80/80 83/83/83
f 84/84/84 83/83/83 79/79/79
f 85/85/85 82/82/82 83/83/83
f 85/85/85 83/83/83 84/84/84
f 86/86/86 85/85/85 84/84/84
