g Plane003
v 0.0150000006 0.00373392971 -1.78622339E-09
v 0.00900000241 0.00373392971 -1.78622339E-09
v 0.0128135951 0.00598741183 0.00137355679
v 0.00690939371 0.00598741183 0.00134957558
v 0.00300000003 0.00373392971 -1.78622339E-09
v 0.011206219 0.00824785698 0.00246580807
v 0.00105464179 0.0059874109 0.00132205524
v -0.00299999816 0.00373392971 -1.78622339E-09
v 0.00519008469 0.00824785512 0.00236837496
v 0.0098525472 0.0105152652 0.00321718585
v -0.0047506718 0.0059874109 0.00129099539
v -0.00899999961 0.00373392971 -1.78622339E-09
v -0.000644622836 0.00824785419 0.00225795503
v 0.00364513043 0.0105152652 0.00299633737
v 0.0085426867 0.012789635 0.00356741715
v -0.0105065405 0.0059874109 0.0012563963
v -0.0149999987 0.00373392971 -1.78622339E-09
v -0.0162129588 0.00598740997 0.00121825747
v -0.00629789196 0.00824785698 0.00213454757
v -0.0117697231 0.00824785512 0.00199815282
v -0.0170601252 0.00824785419 0.00184877194
v -0.00218948373 0.0105152633 0.00274880324
v 0.00216497038 0.0127896359 0.00317487214
v 0.00715885404 0.0150709683 0.00345648429
v -0.012740301 0.0105152633 0.00217367825
v -0.0174565036 0.0105152633 0.00184608728
v -0.00765129784 0.0105152652 0.00247458322
v -0.00361046055 0.0127896359 0.00273921643
v 0.000707218191 0.0150709683 0.00284760655
v 0.00565602537 0.0173592698 0.00282529136
v -0.013354498 0.0127896359 0.00173857005
v -0.0173230972 0.0127896341 0.00117358018
v -0.00878362171 0.0127896359 0.00226044981
v -0.00489391154 0.0150709683 0.00217784732
v -0.000719949778 0.0173592698 0.00196084264
v 0.00404582405 0.0196545273 0.0016160683
v -0.0135446237 0.0150709674 0.000655689568
v -0.0165942088 0.0150709683 -0.000196709036
v -0.00964452233 0.0150709674 0.00144720962
v -0.00599575276 0.0173592661 0.00101763965
v -0.00207122997 0.0196545273 0.000463783945
v 0.00238357554 0.0219567567 -0.000227479337
v -0.0132467858 0.0173592661 -0.00110501808
v -0.015222026 0.0173592698 -0.00228447281
v -0.0101713622 0.0173592661 -4.31350782E-06
v -0.0068522389 0.0196545273 -0.000784136122
v -0.00327478047 0.021956753 -0.00169148634
v 0.000758153968 0.0242659394 -0.00276022078
v -0.0124060959 0.0196545273 -0.00356688234
v -0.0131789474 0.0196545273 -0.00510170637
v -0.0102971932 0.0196545273 -0.0021276921
v -0.00738812005 0.0219567493 -0.00326608727
v -0.00424028793 0.0242659356 -0.00455020508
v -0.000715702074 0.0265820902 -0.00603589509
v -0.00486478442 0.0265820902 -0.0081553543
v -0.00752250431 0.0242659394 -0.00646303548
v -0.00717276148 0.0265820939 -0.0104066012
v -0.0099564353 0.0219567493 -0.00495128147
v -0.0109797353 0.0219567493 -0.00674706558
v -0.0104580112 0.0219567493 -0.00865344331
v -0.00908849109 0.0242659394 -0.0084987171
v -0.00763963256 0.0265820902 -0.012789635
v -0.00893825199 0.0242659394 -0.010657249
v -0.00707178144 0.0242659356 -0.0129386252
v -0.00626540044 0.0265820865 -0.0153044565
v -0.00305005652 0.0265820865 -0.0179510638
vt 1 0
vt 0.800000012 0
vt 1 0.100000001
vt 0.800000012 0.100000001
vt 0.600000024 0
vt 1 0.200000003
vt 0.600000024 0.100000001
vt 0.400000006 0
vt 0.800000012 0.200000003
vt 1 0.300000012
vt 0.400000006 0.100000001
vt 0.200000003 0
vt 0.600000024 0.200000003
vt 0.800000012 0.300000012
vt 1 0.400000006
vt 0.200000003 0.100000001
vt 0 0
vt 0 0.100000001
vt 0.400000006 0.200000003
vt 0.200000003 0.200000003
vt 0 0.200000003
vt 0.600000024 0.300000012
vt 0.800000012 0.400000006
vt 1 0.5
vt 0.200000003 0.300000012
vt 0 0.300000012
vt 0.400000006 0.300000012
vt 0.600000024 0.400000006
vt 0.800000012 0.5
vt 1 0.600000024
vt 0.200000003 0.400000006
vt 0 0.400000006
vt 0.400000006 0.400000006
vt 0.600000024 0.5
vt 0.800000012 0.600000024
vt 1 0.700000048
vt 0.200000003 0.5
vt 0 0.5
vt 0.400000006 0.5
vt 0.600000024 0.600000024
vt 0.800000012 0.700000048
vt 1 0.800000072
vt 0.200000003 0.600000024
vt 0 0.600000024
vt 0.400000006 0.600000024
vt 0.600000024 0.700000048
vt 0.800000012 0.800000072
vt 1 0.900000095
vt 0.200000003 0.700000048
vt 0 0.700000048
vt 0.400000006 0.700000048
vt 0.600000024 0.800000072
vt 0.800000012 0.900000095
vt 1 1.00000012
vt 0.800000012 1.00000012
vt 0.600000024 0.900000095
vt 0.600000024 1.00000012
vt 0.400000006 0.800000072
vt 0.200000003 0.800000072
vt 0 0.800000072
vt 0.400000006 0.900000095
vt 0.400000006 1.00000012
vt 0.200000003 0.900000095
vt 0 0.900000095
vt 0.200000003 1.00000012
vt 0 1.00000012
vn -0 -0.520464957 0.853883088
vn -0.00181347819 -0.516316414 0.85639596
vn -0.00176741602 -0.494533151 0.869157016
vn -0.00570312468 -0.46789664 0.883764803
vn -0.0020858848 -0.508822441 0.860868931
vn -0.00935423374 -0.397029907 0.917757988
vn -0.00669021765 -0.45102936 0.892484128
vn -0.00234760856 -0.500094295 0.865967751
vn -0.0180101637 -0.352033913 0.935814023
vn -0.0248394702 -0.267276078 0.963299751
vn -0.0077068056 -0.431050122 0.902295053
vn -0.00258712796 -0.49005416 0.871688247
vn -0.0213854779 -0.313243508 0.949432015
vn -0.039258942 -0.198832765 0.979246795
vn -0.0475554541 -0.104111634 0.993428051
vn -0.00871820189 -0.407535821 0.913147569
vn -0.00435042521 -0.480328292 0.877077997
vn -0.0159558654 -0.360077471 0.932785928
vn -0.0250306148 -0.266627491 0.963474572
vn -0.028849246 -0.210835263 0.977095842
vn -0.0455081649 -0.135240868 0.989767134
vn -0.0472729988 -0.13498275 0.989719629
vn -0.0685515925 -0.011582939 0.99758029
vn -0.0758591965 0.0839362666 0.993579388
vn -0.0659820735 0.0328025743 0.997281432
vn -0.0929511264 0.126300529 0.987627625
vn -0.056252446 -0.0583919771 0.996707559
vn -0.0837105438 0.0740323663 0.993736267
vn -0.103467837 0.192086712 0.975908399
vn -0.107343599 0.277533382 0.954700291
vn -0.121386379 0.290296465 0.94920665
vn -0.158616349 0.387763411 0.908009052
vn -0.101356298 0.174271226 0.979467452
vn -0.128248319 0.287833601 0.94905436
vn -0.141096145 0.385165721 0.911997437
vn -0.139910117 0.45334506 0.880285978
vn -0.196781278 0.516910613 0.833114982
vn -0.246578693 0.608248889 0.754474819
vn -0.158904597 0.395856291 0.904459655
vn -0.178687871 0.476254433 0.860960066
vn -0.180213884 0.545717716 0.818361163
vn -0.173392758 0.595671892 0.784289479
vn -0.302112967 0.683896065 0.664088786
vn -0.373631656 0.753990471 0.540275514
vn -0.229961932 0.575583935 0.784742355
vn -0.236375451 0.621568143 0.746846557
vn -0.222856015 0.665945232 0.71193552
vn -0.21043849 0.701118171 0.681284785
vn -0.466450065 0.772152841 0.431514025
vn -0.590636671 0.771540165 0.236377046
vn -0.323834032 0.700517535 0.635929823
vn -0.308795184 0.720811129 0.620545626
vn -0.274892509 0.748509586 0.603462994
vn -0.249955505 0.762859464 0.59629488
vn -0.351295859 0.788903773 0.504204392
vn -0.412754029 0.773554027 0.480882764
vn -0.606805801 0.748622 0.267117679
vn -0.464271098 0.761742949 0.451885045
vn -0.720668733 0.689840317 0.0689697489
vn -0.879480124 0.380499274 -0.28589353
vn -0.685407937 0.703895628 0.186405212
vn -0.910559356 0.23602131 -0.339375496
vn -0.90142262 0.217047647 -0.374603331
vn -0.711070955 -0.339253098 -0.615861535
vn -0.634404719 -0.413657814 -0.653006732
vn -0.552743793 -0.493487298 -0.671524167
g Plane003_0
f 3/3/3 2/2/2 1/1/1
f 2/2/2 3/3/3 4/4/4
f 4/4/4 5/5/5 2/2/2
f 6/6/6 4/4/4 3/3/3
f 5/5/5 4/4/4 7/7/7
f 7/7/7 8/8/8 5/5/5
f 4/4/4 6/6/6 9/9/9
f 9/9/9 7/7/7 4/4/4
f 10/10/10 9/9/9 6/6/6
f 8/8/8 7/7/7 11/11/11
f 11/11/11 12/12/12 8/8/8
f 7/7/7 9/9/9 13/13/13
f 13/13/13 11/11/11 7/7/7
f 9/9/9 10/10/10 14/14/14
f 14/14/14 13/13/13 9/9/9
f 15/15/15 14/14/14 10/10/10
f 12/12/12 11/11/11 16/16/16
f 16/16/16 17/17/17 12/12/12
f 17/17/17 16/16/16 18/18/18
f 11/11/11 13/13/13 19/19/19
f 19/19/19 16/16/16 11/11/11
f 20/20/20 18/18/18 16/16/16
f 16/16/16 19/19/19 20/20/20
f 18/18/18 20/20/20 21/21/21
f 13/13/13 14/14/14 22/22/22
f 22/22/22 19/19/19 13/13/13
f 14/14/14 15/15/15 23/23/23
f 23/23/23 22/22/22 14/14/14
f 24/24/24 23/23/23 15/15/15
f 25/25/25 21/21/21 20/20/20
f 21/21/21 25/25/25 26/26/26
f 27/27/27 20/20/20 19/19/19
f 19/19/19 22/22/22 27/27/27
f 20/20/20 27/27/27 25/25/25
f 22/22/22 23/23/23 28/28/28
f 28/28/28 27/27/27 22/22/22
f 23/23/23 24/24/24 29/29/29
f 29/29/29 28/28/28 23/23/23
f 30/30/30 29/29/29 24/24/24
f 31/31/31 26/26/26 25/25/25
f 26/26/26 31/31/31 32/32/32
f 33/33/33 25/25/25 27/27/27
f 27/27/27 28/28/28 33/33/33
f 25/25/25 33/33/33 31/31/31
f 28/28/28 29/29/29 34/34/34
f 34/34/34 33/33/33 28/28/28
f 29/29/29 30/30/30 35/35/35
f 35/35/35 34/34/34 29/29/29
f 36/36/36 35/35/35 30/30/30
f 37/37/37 32/32/32 31/31/31
f 32/32/32 37/37/37 38/38/38
f 39/39/39 31/31/31 33/33/33
f 33/33/33 34/34/34 39/39/39
f 31/31/31 39/39/39 37/37/37
f 34/34/34 35/35/35 40/40/40
f 40/40/40 39/39/39 34/34/34
f 35/35/35 36/36/36 41/41/41
f 41/41/41 40/40/40 35/35/35
f 42/42/42 41/41/41 36/36/36
f 43/43/43 38/38/38 37/37/37
f 38/38/38 43/43/43 44/44/44
f 45/45/45 37/37/37 39/39/39
f 39/39/39 40/40/40 45/45/45
f 37/37/37 45/45/45 43/43/43
f 40/40/40 41/41/41 46/46/46
f 46/46/46 45/45/45 40/40/40
f 41/41/41 42/42/42 47/47/47
f 47/47/47 46/46/46 41/41/41
f 48/48/48 47/47/47 42/42/42
f 49/49/49 44/44/44 43/43/43
f 44/44/44 49/49/49 50/50/50
f 51/51/51 43/43/43 45/45/45
f 45/45/45 46/46/46 51/51/51
f 43/43/43 51/51/51 49/49/49
f 46/46/46 47/47/47 52/52/52
f 52/52/52 51/51/51 46/46/46
f 47/47/47 48/48/48 53/53/53
f 53/53/53 52/52/52 47/47/47
f 54/54/54 53/53/53 48/48/48
f 53/53/53 54/54/54 55/55/55
f 55/55/55 56/56/56 53/53/53
f 52/52/52 53/53/53 56/56/56
f 56/56/56 55/55/55 57/57/57
f 51/51/51 52/52/52 58/58/58
f 58/58/58 49/49/49 51/51/51
f 56/56/56 58/58/58 52/52/52
f 59/59/59 50/50/50 49/49/49
f 49/49/49 58/58/58 59/59/59
f 50/50/50 59/59/59 60/60/60
f 57/57/57 61/61/61 56/56/56
f 58/58/58 56/56/56 61/61/61
f 61/61/61 59/59/59 58/58/58
f 61/61/61 57/57/57 62/62/62
f 63/63/63 60/60/60 59/59/59
f 59/59/59 61/61/61 63/63/63
f 62/62/62 63/63/63 61/61/61
f 60/60/60 63/63/63 64/64/64
f 63/63/63 62/62/62 65/65/65
f 65/65/65 64/64/64 63/63/63
f 64/64/64 65/65/65 66/66/66
