g Cone001
v 0.0028260164 0.0123815844 0
v 5.51323431E-09 0.0730249956 0.00634999992
v 9.58823354E-10 0.0126999998 0
v 0.0162495933 0.0711941123 0.00634999992
v 0.00551032368 0.0114423046 0
v 1.00676454E-08 0.13335 0.0126999998
v 0.0316843614 0.0657932535 0.00634999992
v 0.0079183206 0.00992926024 0
v 0.029673174 0.130006641 0.0126999998
v 1.46220556E-08 0.193674996 0.0190500002
v 0.0455303416 0.057093244 0.00634999992
v 0.00992925931 0.00791832153 0
v 0.0578584 0.120144188 0.0126999998
v 0.043096751 0.18881917 0.0190500002
v 1.91764666E-08 0.254000008 0.0253999997
v 0.0565203242 0.247631684 0.0253999997
v 0.0840324387 0.174495131 0.0190500002
v 0.110206477 0.228846088 0.0253999997
v 0.0570932366 0.045530349 0.00634999992
v 0.0114423046 0.00551032368 0
v 0.0831423625 0.104257226 0.0126999998
v 0.120754391 0.151421219 0.0190500002
v 0.158366412 0.198585197 0.0253999997
v 0.0657932535 0.0316843614 0.00634999992
v 0.0123815844 0.0028260157 0
v 0.104257226 0.08314237 0.0126999998
v 0.151421204 0.120754398 0.0190500002
v 0.198585182 0.158366427 0.0253999997
v 0.0711941123 0.0162495915 0.00634999992
v 0.0126999998 0 0
v 0.120144188 0.0578584 0.0126999998
v 0.174495131 0.0840324387 0.0190500002
v 0.228846088 0.110206477 0.0253999997
v 0.0730249956 0 0.00634999992
v 0.012381589 -0.00282599707 0
v 0.130006641 0.0296731666 0.0126999998
v 0.18881917 0.0430967435 0.0190500002
v 0.247631684 0.056520313 0.0253999997
v 0.0711941347 -0.0162494835 0.00634999992
v 0.011442313 -0.00551030692 0
v 0.13335 0 0.0126999998
v 0.193674996 0 0.0190500002
v 0.254000008 0 0.0253999997
v 0.0657932907 -0.0316842683 0.00634999992
v 0.00992927048 -0.00791830756 0
v 0.130006686 -0.029672971 0.0126999998
v 0.18881923 -0.043096453 0.0190500002
v 0.247631788 -0.0565199368 0.0253999997
v 0.0570933037 -0.0455302708 0.00634999992
v 0.0079183327 -0.00992924999 0
v 0.120144285 -0.0578582212 0.0126999998
v 0.174495265 -0.0840321854 0.0190500002
v 0.228846252 -0.110206135 0.0253999997
v 0.0455304123 -0.0570931882 0.00634999992
v 0.00551033672 -0.0114422981 0
v 0.104257345 -0.0831422284 0.0126999998
v 0.151421383 -0.120754182 0.0190500002
v 0.198585406 -0.158366159 0.0253999997
v 0.0316844359 -0.0657932162 0.00634999992
v 0.00282602897 -0.0123815816 0
v 0.0831424892 -0.104257129 0.0126999998
v 0.12075457 -0.151421055 0.0190500002
v 0.15836665 -0.198585004 0.0253999997
v 0.016249666 -0.0711940899 0.00634999992
v 1.22631088E-08 -0.0126999998 0
v 0.0578585304 -0.120144129 0.0126999998
v 0.0840326324 -0.174495056 0.0190500002
v 0.110206731 -0.228845954 0.0253999997
v 7.05128755E-08 -0.0730249956 0.00634999992
v -0.00282600499 -0.0123815862 0
v 0.0296733044 -0.130006596 0.0126999998
v 0.0430969372 -0.18881911 0.0190500002
v 0.0565205812 -0.247631639 0.0253999997
v -0.0162495282 -0.0711941198 0.00634999992
v -0.00551031437 -0.0114423092 0
v 1.2876265E-07 -0.13335 0.0126999998
v 1.87012404E-07 -0.193674996 0.0190500002
v 2.45262186E-07 -0.254000008 0.0253999997
v -0.0316843092 -0.0657932758 0.00634999992
v -0.00791831315 -0.0099292649 0
v -0.029673053 -0.130006656 0.0126999998
v -0.0430965759 -0.188819185 0.0190500002
v -0.0565201007 -0.247631729 0.0253999997
v -0.0455303006 -0.0570932738 0.00634999992
v -0.00992925465 -0.00791832618 0
v -0.0578583032 -0.120144241 0.0126999998
v -0.0840322971 -0.174495205 0.0190500002
v -0.110206291 -0.228846177 0.0253999997
v -0.0570932142 -0.0455303788 0.00634999992
v -0.0114423018 -0.00551032927 0
v -0.083142288 -0.104257286 0.0126999998
v -0.120754279 -0.151421294 0.0190500002
v -0.158366278 -0.198585302 0.0253999997
v -0.0657932311 -0.0316843949 0.00634999992
v -0.0123815835 -0.00282602082 0
v -0.104257174 -0.0831424296 0.0126999998
v -0.15142113 -0.120754473 0.0190500002
v -0.198585093 -0.158366531 0.0253999997
v -0.0711941049 -0.0162496194 0.00634999992
v -0.0126999998 -4.13818535E-09 0
v -0.120144166 -0.0578584597 0.0126999998
v -0.174495101 -0.0840325207 0.0190500002
v -0.228846028 -0.110206582 0.0253999997
v -0.0730249956 -2.37945645E-08 0.00634999992
v -0.0123815853 0.0028260129 0
v -0.130006626 -0.0296732187 0.0126999998
v -0.188819155 -0.043096818 0.0190500002
v -0.247631654 -0.0565204173 0.0253999997
v -0.0711941123 0.0162495747 0.00634999992
v -0.0114423046 0.00551032182 0
v -0.13335 -4.3450946E-08 0.0126999998
v -0.193674996 -6.3107322E-08 0.0190500002
v -0.254000008 -8.27637052E-08 0.0253999997
v -0.0657932535 0.0316843502 0.00634999992
v -0.00992926024 0.00791831966 0
v -0.130006641 0.0296731368 0.0126999998
v -0.18881917 0.0430966951 0.0190500002
v -0.247631714 0.0565202609 0.0253999997
v -0.057093244 0.0455303378 0.00634999992
v -0.0079183206 0.00992926024 0
v -0.120144203 0.0578583814 0.0126999998
v -0.174495146 0.0840324089 0.0190500002
v -0.228846103 0.11020644 0.0253999997
v -0.0455303416 0.057093244 0.00634999992
v -0.00551032182 0.0114423046 0
v -0.104257226 0.0831423551 0.0126999998
v -0.151421219 0.120754376 0.0190500002
v -0.198585197 0.158366397 0.0253999997
v -0.0316843502 0.0657932535 0.00634999992
v -0.00282601453 0.0123815853 0
v -0.0831423625 0.104257226 0.0126999998
v -0.120754391 0.151421219 0.0190500002
v -0.158366412 0.198585197 0.0253999997
v -0.016249584 0.0711941123 0.00634999992
v 9.58823354E-10 0.0126999998 0
v 5.51323431E-09 0.0730249956 0.00634999992
v -0.0578583814 0.120144203 0.0126999998
v -0.0840324089 0.174495146 0.0190500002
v -0.11020644 0.228846103 0.0253999997
v -0.0296731517 0.130006641 0.0126999998
v 1.00676454E-08 0.13335 0.0126999998
v -0.0430967212 0.18881917 0.0190500002
v -0.0565202907 0.247631714 0.0253999997
v 1.46220556E-08 0.193674996 0.0190500002
v 1.91764666E-08 0.254000008 0.0253999997
vt 0.964285672 0
vt 1.09518206 0.25
vt 0.99999994 0
vt 1.05946779 0.25
vt 0.928571403 0
vt 1.19036412 0.5
vt 1.02375364 0.25
vt 0.892857194 0
vt 1.15464985 0.5
vt 1.2855463 0.75
vt 0.988039315 0.25
vt 0.857142866 0
vt 1.11893559 0.5
vt 1.24983191 0.75
vt 1.37865925 1
vt 1.34294486 1
vt 1.21411777 0.75
vt 1.30723071 1
vt 0.952324986 0.25
vt 0.821428597 0
vt 1.08322144 0.5
vt 1.17840362 0.75
vt 1.27151656 1
vt 0.916610718 0.25
vt 0.785714269 0
vt 1.04750705 0.5
vt 1.14268923 0.75
vt 1.23580217 1
vt 0.880896389 0.25
vt 0.75 0
vt 1.01179278 0.5
vt 1.10697484 0.75
vt 1.20008779 1
vt 0.845182121 0.25
vt 0.71428597 0
vt 0.97607851 0.5
vt 1.07126069 0.75
vt 1.16437364 1
vt 0.809468091 0.25
vt 0.678571701 0
vt 0.940364242 0.5
vt 1.0355463 0.75
vt 1.12865925 1
vt 0.773753822 0.25
vt 0.642857373 0
vt 0.904650211 0.5
vt 0.999832332 0.75
vt 1.09294534 1
vt 0.738039494 0.25
vt 0.607143044 0
vt 0.868935943 0.5
vt 0.964118063 0.75
vt 1.05723095 1
vt 0.702325165 0.25
vt 0.571428776 0
vt 0.833221614 0.5
vt 0.928403735 0.75
vt 1.02151668 1
vt 0.666610897 0.25
vt 0.535714447 0
vt 0.797507286 0.5
vt 0.892689407 0.75
vt 0.985802352 1
vt 0.630896568 0.25
vt 0.500000179 0
vt 0.761793017 0.5
vt 0.856975138 0.75
vt 0.950088084 1
vt 0.5951823 0.25
vt 0.464285851 0
vt 0.726078689 0.5
vt 0.82126081 0.75
vt 0.914373755 1
vt 0.559467971 0.25
vt 0.428571552 0
vt 0.69036442 0.5
vt 0.785546541 0.75
vt 0.878659487 1
vt 0.523753643 0.25
vt 0.392857254 0
vt 0.654650092 0.5
vt 0.749832213 0.75
vt 0.842945158 1
vt 0.488039404 0.25
vt 0.357142955 0
vt 0.618935764 0.5
vt 0.714117885 0.75
vt 0.80723083 1
vt 0.452325106 0.25
vt 0.321428686 0
vt 0.583221495 0.5
vt 0.678403616 0.75
vt 0.771516562 1
vt 0.416610807 0.25
vt 0.285714358 0
vt 0.547507226 0.5
vt 0.642689347 0.75
vt 0.735802293 1
vt 0.380896479 0.25
vt 0.25000006 0
vt 0.511792958 0.5
vt 0.606975079 0.75
vt 0.700087965 1
vt 0.34518218 0.25
vt 0.214285761 0
vt 0.4760786 0.5
vt 0.571260691 0.75
vt 0.664373636 1
vt 0.309467912 0.25
vt 0.178571463 0
vt 0.440364301 0.5
vt 0.535546422 0.75
vt 0.628659368 1
vt 0.273753583 0.25
vt 0.142857164 0
vt 0.404650003 0.5
vt 0.499832124 0.75
vt 0.592945099 1
vt 0.238039285 0.25
vt 0.107142858 0
vt 0.368935704 0.5
vt 0.464117825 0.75
vt 0.557230771 1
vt 0.202325016 0.25
vt 0.0714285597 0
vt 0.333221406 0.5
vt 0.428403527 0.75
vt 0.521516442 1
vt 0.166610688 0.25
vt 0.0357142985 0
vt 0.297507107 0.5
vt 0.392689228 0.75
vt 0.485802174 1
vt 0.130896419 0.25
vt -5.96046448E-08 0
vt 0.0951820612 0.25
vt 0.261792809 0.5
vt 0.35697493 0.75
vt 0.450087875 1
vt 0.22607854 0.5
vt 0.190364182 0.5
vt 0.321260661 0.75
vt 0.414373606 1
vt 0.285546303 0.75
vt 0.378659248 1
vn 0.0232945587 0.102060124 -0.994505465
vn -0 0.104684792 -0.994505465
vn -0 0.104684792 -0.994505465
vn 0.0232945643 0.102060132 -0.994505465
vn 0.0454210192 0.0943177268 -0.994505465
vn -0 0.104684792 -0.994505465
vn 0.0454210304 0.0943177342 -0.994505465
vn 0.0652698949 0.0818458572 -0.994505465
vn 0.0232945643 0.102060124 -0.994505465
vn -0 0.104684792 -0.994505465
vn 0.0652698949 0.0818458647 -0.994505465
vn 0.0818458647 0.0652699023 -0.994505465
vn 0.0454210304 0.0943177417 -0.994505465
vn 0.0232945699 0.102060124 -0.994505465
vn -0 0.104684792 -0.994505465
vn 0.0232945643 0.102060124 -0.994505465
vn 0.0454210266 0.0943177342 -0.994505465
vn 0.0454210229 0.0943177268 -0.994505465
vn 0.0818458572 0.0652699023 -0.994505465
vn 0.0943177342 0.0454210304 -0.994505465
vn 0.0652698874 0.0818458647 -0.994505465
vn 0.0652698874 0.0818458647 -0.994505465
vn 0.0652698874 0.0818458647 -0.994505465
vn 0.0943177417 0.0454210266 -0.994505465
vn 0.102060124 0.023294555 -0.994505465
vn 0.0818458572 0.0652698874 -0.994505465
vn 0.0818458647 0.0652698949 -0.994505465
vn 0.0818458647 0.0652698949 -0.994505465
vn 0.102060132 0.0232945587 -0.994505465
vn 0.104684792 0 -0.994505465
vn 0.0943177342 0.0454210266 -0.994505465
vn 0.0943177342 0.0454210266 -0.994505465
vn 0.0943177417 0.0454210304 -0.994505465
vn 0.104684778 0 -0.994505465
vn 0.102060139 -0.0232944582 -0.994505465
vn 0.102060124 0.0232945643 -0.994505465
vn 0.102060124 0.0232945606 -0.994505465
vn 0.102060124 0.0232945587 -0.994505465
vn 0.102060139 -0.0232944451 -0.994505465
vn 0.0943177938 -0.0454208888 -0.994505465
vn 0.104684778 0 -0.994505465
vn 0.104684778 0 -0.994505465
vn 0.10468477 0 -0.994505465
vn 0.0943178087 -0.0454208888 -0.994505465
vn 0.0818459466 -0.0652697831 -0.994505465
vn 0.102060139 -0.0232944358 -0.994505465
vn 0.102060154 -0.0232944358 -0.994505465
vn 0.102060132 -0.0232944321 -0.994505465
vn 0.0818459317 -0.0652697831 -0.994505465
vn 0.0652699918 -0.0818457752 -0.994505465
vn 0.0943178013 -0.0454208814 -0.994505465
vn 0.0943178013 -0.0454208851 -0.994505465
vn 0.0943178087 -0.0454208888 -0.994505465
vn 0.0652699918 -0.0818457901 -0.994505465
vn 0.0454211235 -0.0943176895 -0.994505465
vn 0.0818459317 -0.0652697906 -0.994505465
vn 0.0818459317 -0.0652697906 -0.994505465
vn 0.0818459317 -0.0652697831 -0.994505465
vn 0.0454211272 -0.0943176821 -0.994505465
vn 0.0232946612 -0.102060109 -0.994505465
vn 0.0652699843 -0.0818457976 -0.994505465
vn 0.0652699918 -0.0818457827 -0.994505465
vn 0.0652699843 -0.0818457827 -0.994505465
vn 0.0232946649 -0.102060109 -0.994505465
vn -0 -0.104684785 -0.994505465
vn 0.0454211272 -0.0943176821 -0.994505465
vn 0.045421131 -0.0943176746 -0.994505465
vn 0.0454211421 -0.0943176821 -0.994505465
vn -0 -0.104684778 -0.994505465
vn -0.0232944675 -0.102060139 -0.994505465
vn 0.0232946612 -0.102060102 -0.994505465
vn 0.0232946593 -0.102060102 -0.994505465
vn 0.0232946612 -0.102060087 -0.994505465
vn -0.0232944693 -0.102060139 -0.994505465
vn -0.0454209521 -0.0943177789 -0.994505465
vn -0 -0.104684778 -0.994505465
vn -0 -0.104684778 -0.994505465
vn -0 -0.104684792 -0.994505465
vn -0.045420941 -0.0943177715 -0.994505465
vn -0.0652698427 -0.0818459019 -0.994505465
vn -0.0232944712 -0.102060139 -0.994505465
vn -0.0232944656 -0.102060132 -0.994505465
vn -0.0232944619 -0.102060132 -0.994505465
vn -0.0652698502 -0.0818459094 -0.994505465
vn -0.0818458125 -0.0652699396 -0.994505465
vn -0.0454209521 -0.0943177789 -0.994505465
vn -0.0454209372 -0.094317764 -0.994505465
vn -0.0454209335 -0.0943177417 -0.994505465
vn -0.0818458125 -0.0652699471 -0.994505465
vn -0.0943177268 -0.0454210788 -0.994505465
vn -0.0652698353 -0.0818459168 -0.994505465
vn -0.0652698502 -0.0818459094 -0.994505465
vn -0.0652698353 -0.0818458945 -0.994505465
vn -0.0943177268 -0.0454210751 -0.994505465
vn -0.102060124 -0.0232945941 -0.994505465
vn -0.0818458274 -0.0652699545 -0.994505465
vn -0.08184582 -0.0652699396 -0.994505465
vn -0.0818458125 -0.0652699396 -0.994505465
vn -0.102060109 -0.0232945997 -0.994505465
vn -0.104684785 0 -0.994505465
vn -0.0943177044 -0.0454210788 -0.994505465
vn -0.0943177044 -0.0454210788 -0.994505465
vn -0.0943177044 -0.0454210788 -0.994505465
vn -0.104684792 0 -0.994505465
vn -0.102060124 0.0232945401 -0.994505465
vn -0.102060109 -0.0232945997 -0.994505465
vn -0.102060109 -0.0232945979 -0.994505465
vn -0.102060124 -0.0232946035 -0.994505465
vn -0.102060132 0.0232945401 -0.994505465
vn -0.0943177417 0.0454210192 -0.994505465
vn -0.104684778 0 -0.994505465
vn -0.104684778 0 -0.994505465
vn -0.104684792 0 -0.994505465
vn -0.0943177342 0.0454210266 -0.994505465
vn -0.0818458647 0.0652698874 -0.994505465
vn -0.102060132 0.0232945401 -0.994505465
vn -0.102060124 0.0232945383 -0.994505465
vn -0.102060124 0.0232945308 -0.994505465
vn -0.0818458796 0.0652698949 -0.994505465
vn -0.0652698874 0.0818458647 -0.994505465
vn -0.0943177417 0.0454210266 -0.994505465
vn -0.0943177417 0.0454210155 -0.994505465
vn -0.0943177417 0.0454210117 -0.994505465
vn -0.0652699023 0.0818458647 -0.994505465
vn -0.0454210192 0.0943177342 -0.994505465
vn -0.0818458796 0.0652698874 -0.994505465
vn -0.0818458647 0.06526988 -0.994505465
vn -0.0818458796 0.0652698949 -0.994505465
vn -0.0454210304 0.0943177417 -0.994505465
vn -0.0232945494 0.102060124 -0.994505465
vn -0.0652698874 0.0818458572 -0.994505465
vn -0.0652698949 0.0818458647 -0.994505465
vn -0.0652699023 0.0818458647 -0.994505465
vn -0.0232945476 0.102060124 -0.994505465
vn -0 0.104684792 -0.994505465
vn -0 0.104684792 -0.994505465
vn -0.0454210229 0.0943177342 -0.994505465
vn -0.0454210229 0.0943177417 -0.994505465
vn -0.0454210155 0.0943177417 -0.994505465
vn -0.0232945513 0.102060132 -0.994505465
vn -0 0.104684792 -0.994505465
vn -0.0232945494 0.102060109 -0.994505465
vn -0.023294542 0.102060102 -0.994505465
vn -0 0.104684792 -0.994505465
vn -0 0.104684792 -0.994505465
g Cone001_0
f 3/3/3 2/2/2 1/1/1
f 2/2/2 4/4/4 1/1/1
f 1/1/1 4/4/4 5/5/5
f 2/2/2 6/6/6 4/4/4
f 4/4/4 7/7/7 5/5/5
f 5/5/5 7/7/7 8/8/8
f 6/6/6 9/9/9 4/4/4
f 4/4/4 9/9/9 7/7/7
f 6/6/6 10/10/10 9/9/9
f 7/7/7 11/11/11 8/8/8
f 8/8/8 11/11/11 12/12/12
f 9/9/9 13/13/13 7/7/7
f 7/7/7 13/13/13 11/11/11
f 10/10/10 14/14/14 9/9/9
f 9/9/9 14/14/14 13/13/13
f 10/10/10 15/15/15 14/14/14
f 15/15/15 16/16/16 14/14/14
f 14/14/14 16/16/16 17/17/17
f 14/14/14 17/17/17 13/13/13
f 16/16/16 18/18/18 17/17/17
f 11/11/11 19/19/19 12/12/12
f 12/12/12 19/19/19 20/20/20
f 13/13/13 21/21/21 11/11/11
f 13/13/13 17/17/17 21/21/21
f 11/11/11 21/21/21 19/19/19
f 17/17/17 18/18/18 22/22/22
f 17/17/17 22/22/22 21/21/21
f 18/18/18 23/23/23 22/22/22
f 19/19/19 24/24/24 20/20/20
f 20/20/20 24/24/24 25/25/25
f 21/21/21 26/26/26 19/19/19
f 21/21/21 22/22/22 26/26/26
f 19/19/19 26/26/26 24/24/24
f 22/22/22 23/23/23 27/27/27
f 22/22/22 27/27/27 26/26/26
f 23/23/23 28/28/28 27/27/27
f 24/24/24 29/29/29 25/25/25
f 25/25/25 29/29/29 30/30/30
f 26/26/26 31/31/31 24/24/24
f 26/26/26 27/27/27 31/31/31
f 24/24/24 31/31/31 29/29/29
f 27/27/27 28/28/28 32/32/32
f 27/27/27 32/32/32 31/31/31
f 28/28/28 33/33/33 32/32/32
f 29/29/29 34/34/34 30/30/30
f 30/30/30 34/34/34 35/35/35
f 31/31/31 36/36/36 29/29/29
f 31/31/31 32/32/32 36/36/36
f 29/29/29 36/36/36 34/34/34
f 32/32/32 33/33/33 37/37/37
f 32/32/32 37/37/37 36/36/36
f 33/33/33 38/38/38 37/37/37
f 34/34/34 39/39/39 35/35/35
f 35/35/35 39/39/39 40/40/40
f 36/36/36 41/41/41 34/34/34
f 36/36/36 37/37/37 41/41/41
f 34/34/34 41/41/41 39/39/39
f 37/37/37 38/38/38 42/42/42
f 37/37/37 42/42/42 41/41/41
f 38/38/38 43/43/43 42/42/42
f 39/39/39 44/44/44 40/40/40
f 40/40/40 44/44/44 45/45/45
f 41/41/41 46/46/46 39/39/39
f 41/41/41 42/42/42 46/46/46
f 39/39/39 46/46/46 44/44/44
f 42/42/42 43/43/43 47/47/47
f 42/42/42 47/47/47 46/46/46
f 43/43/43 48/48/48 47/47/47
f 44/44/44 49/49/49 45/45/45
f 45/45/45 49/49/49 50/50/50
f 46/46/46 51/51/51 44/44/44
f 46/46/46 47/47/47 51/51/51
f 44/44/44 51/51/51 49/49/49
f 47/47/47 48/48/48 52/52/52
f 47/47/47 52/52/52 51/51/51
f 48/48/48 53/53/53 52/52/52
f 49/49/49 54/54/54 50/50/50
f 50/50/50 54/54/54 55/55/55
f 51/51/51 56/56/56 49/49/49
f 51/51/51 52/52/52 56/56/56
f 49/49/49 56/56/56 54/54/54
f 52/52/52 53/53/53 57/57/57
f 52/52/52 57/57/57 56/56/56
f 53/53/53 58/58/58 57/57/57
f 54/54/54 59/59/59 55/55/55
f 55/55/55 59/59/59 60/60/60
f 56/56/56 61/61/61 54/54/54
f 56/56/56 57/57/57 61/61/61
f 54/54/54 61/61/61 59/59/59
f 57/57/57 58/58/58 62/62/62
f 57/57/57 62/62/62 61/61/61
f 58/58/58 63/63/63 62/62/62
f 59/59/59 64/64/64 60/60/60
f 60/60/60 64/64/64 65/65/65
f 61/61/61 66/66/66 59/59/59
f 61/61/61 62/62/62 66/66/66
f 59/59/59 66/66/66 64/64/64
f 62/62/62 63/63/63 67/67/67
f 62/62/62 67/67/67 66/66/66
f 63/63/63 68/68/68 67/67/67
f 64/64/64 69/69/69 65/65/65
f 65/65/65 69/69/69 70/70/70
f 66/66/66 71/71/71 64/64/64
f 66/66/66 67/67/67 71/71/71
f 64/64/64 71/71/71 69/69/69
f 67/67/67 68/68/68 72/72/72
f 67/67/67 72/72/72 71/71/71
f 68/68/68 73/73/73 72/72/72
f 69/69/69 74/74/74 70/70/70
f 70/70/70 74/74/74 75/75/75
f 71/71/71 76/76/76 69/69/69
f 71/71/71 72/72/72 76/76/76
f 69/69/69 76/76/76 74/74/74
f 72/72/72 73/73/73 77/77/77
f 72/72/72 77/77/77 76/76/76
f 73/73/73 78/78/78 77/77/77
f 74/74/74 79/79/79 75/75/75
f 75/75/75 79/79/79 80/80/80
f 76/76/76 81/81/81 74/74/74
f 76/76/76 77/77/77 81/81/81
f 74/74/74 81/81/81 79/79/79
f 77/77/77 78/78/78 82/82/82
f 77/77/77 82/82/82 81/81/81
f 78/78/78 83/83/83 82/82/82
f 79/79/79 84/84/84 80/80/80
f 80/80/80 84/84/84 85/85/85
f 81/81/81 86/86/86 79/79/79
f 81/81/81 82/82/82 86/86/86
f 79/79/79 86/86/86 84/84/84
f 82/82/82 83/83/83 87/87/87
f 82/82/82 87/87/87 86/86/86
f 83/83/83 88/88/88 87/87/87
f 84/84/84 89/89/89 85/85/85
f 85/85/85 89/89/89 90/90/90
f 86/86/86 91/91/91 84/84/84
f 86/86/86 87/87/87 91/91/91
f 84/84/84 91/91/91 89/89/89
f 87/87/87 88/88/88 92/92/92
f 87/87/87 92/92/92 91/91/91
f 88/88/88 93/93/93 92/92/92
f 89/89/89 94/94/94 90/90/90
f 90/90/90 94/94/94 95/95/95
f 91/91/91 96/96/96 89/89/89
f 91/91/91 92/92/92 96/96/96
f 89/89/89 96/96/96 94/94/94
f 92/92/92 93/93/93 97/97/97
f 92/92/92 97/97/97 96/96/96
f 93/93/93 98/98/98 97/97/97
f 94/94/94 99/99/99 95/95/95
f 95/95/95 99/99/99 100/100/100
f 96/96/96 101/101/101 94/94/94
f 96/96/96 97/97/97 101/101/101
f 94/94/94 101/101/101 99/99/99
f 97/97/97 98/98/98 102/102/102
f 97/97/97 102/102/102 101/101/101
f 98/98/98 103/103/103 102/102/102
f 99/99/99 104/104/104 100/100/100
f 100/100/100 104/104/104 105/105/105
f 101/101/101 106/106/106 99/99/99
f 101/101/101 102/102/102 106/106/106
f 99/99/99 106/106/106 104/104/104
f 102/102/102 103/103/103 107/107/107
f 102/102/102 107/107/107 106/106/106
f 103/103/103 108/108/108 107/107/107
f 104/104/104 109/109/109 105/105/105
f 105/105/105 109/109/109 110/110/110
f 106/106/106 111/111/111 104/104/104
f 106/106/106 107/107/107 111/111/111
f 104/104/104 111/111/111 109/109/109
f 107/107/107 108/108/108 112/112/112
f 107/107/107 112/112/112 111/111/111
f 108/108/108 113/113/113 112/112/112
f 109/109/109 114/114/114 110/110/110
f 110/110/110 114/114/114 115/115/115
f 111/111/111 116/116/116 109/109/109
f 111/111/111 112/112/112 116/116/116
f 109/109/109 116/116/116 114/114/114
f 112/112/112 113/113/113 117/117/117
f 112/112/112 117/117/117 116/116/116
f 113/113/113 118/118/118 117/117/117
f 114/114/114 119/119/119 115/115/115
f 115/115/115 119/119/119 120/120/120
f 116/116/116 121/121/121 114/114/114
f 116/116/116 117/117/117 121/121/121
f 114/114/114 121/121/121 119/119/119
f 117/117/117 118/118/118 122/122/122
f 117/117/117 122/122/122 121/121/121
f 118/118/118 123/123/123 122/122/122
f 119/119/119 124/124/124 120/120/120
f 120/120/120 124/124/124 125/125/125
f 121/121/121 126/126/126 119/119/119
f 121/121/121 122/122/122 126/126/126
f 119/119/119 126/126/126 124/124/124
f 122/122/122 123/123/123 127/127/127
f 122/122/122 127/127/127 126/126/126
f 123/123/123 128/128/128 127/127/127
f 124/124/124 129/129/129 125/125/125
f 125/125/125 129/129/129 130/130/130
f 126/126/126 131/131/131 124/124/124
f 126/126/126 127/127/127 131/131/131
f 124/124/124 131/131/131 129/129/129
f 127/127/127 128/128/128 132/132/132
f 127/127/127 132/132/132 131/131/131
f 128/128/128 133/133/133 132/132/132
f 129/129/129 134/134/134 130/130/130
f 130/130/130 134/134/134 135/135/135
f 134/134/134 136/136/136 135/135/135
f 131/131/131 137/137/137 129/129/129
f 131/131/131 132/132/132 137/137/137
f 129/129/129 137/137/137 134/134/134
f 132/132/132 133/133/133 138/138/138
f 132/132/132 138/138/138 137/137/137
f 133/133/133 139/139/139 138/138/138
f 134/134/134 140/140/140 136/136/136
f 137/137/137 140/140/140 134/134/134
f 137/137/137 138/138/138 140/140/140
f 140/140/140 141/141/141 136/136/136
f 138/138/138 139/139/139 142/142/142
f 138/138/138 142/142/142 140/140/140
f 140/140/140 142/142/142 141/141/141
f 139/139/139 143/143/143 142/142/142
f 142/142/142 144/144/144 141/141/141
f 142/142/142 143/143/143 144/144/144
f 143/143/143 145/145/145 144/144/144
