g general_plane_60
v 0.527633548 0.258673698 0
v 0.466933042 0.313961446 0
v 0.479639083 0.328166693 0
v 0.544860959 0.281475723 -5.82076609E-11
v 0.00615859032 -0.340968072 6.33008312E-10
v -0.0134934187 -0.427267849 -9.37143341E-09
v -0.0465764701 -0.420021176 -1.14669092E-08
v -0.0202971399 -0.332204282 1.33150024E-09
v -0.0202971399 -0.332204282 1.33150024E-09
v -0.0801618099 -0.412871927 -9.54605639E-09
v -0.0453852713 -0.320125997 1.01863407E-09
v -0.0453852713 -0.320125997 1.01863407E-09
v -0.0801618099 -0.412871927 -9.54605639E-09
v -0.113645405 -0.403201669 -1.97906047E-08
v -0.0690302253 -0.305838853 1.83354132E-09
v -0.146611303 -0.390189469 -1.51339918E-08
v -0.0915825069 -0.290645629 3.95812094E-09
v -0.0915825069 -0.290645629 3.95812094E-09
v -0.146611303 -0.390189469 -1.51339918E-08
v -0.179461867 -0.373733789 -4.65661287E-09
v -0.113284379 -0.274321079 3.7252903E-09
v -0.113284379 -0.274321079 3.7252903E-09
v -0.179461867 -0.373733789 -4.65661287E-09
v -0.213270843 -0.353280157 -1.44354999E-08
v -0.132955074 -0.254819572 5.00585884E-09
v -0.132955074 -0.254819572 5.00585884E-09
v -0.213270843 -0.353280157 -1.44354999E-08
v -0.246842504 -0.326069564 -6.51925802E-09
v -0.150116891 -0.233347833 2.09547579E-09
v -0.150116891 -0.233347833 2.09547579E-09
v -0.246842504 -0.326069564 -6.51925802E-09
v -0.277917594 -0.289250076 -1.86264515E-08
v -0.164975673 -0.211600453 3.95812094E-09
v -0.164975673 -0.211600453 3.95812094E-09
v -0.277917594 -0.289250076 -1.86264515E-08
v -0.303150862 -0.238369882 -7.4505806E-09
v -0.175056636 -0.190024734 4.19095159E-09
v -0.175056636 -0.190024734 4.19095159E-09
v -0.303150862 -0.238369882 -7.4505806E-09
v -0.31327495 -0.171073437 -1.86264515E-08
v -0.178853005 -0.170498818 2.79396772E-09
v -0.178853005 -0.170498818 2.79396772E-09
v -0.31327495 -0.171073437 -1.86264515E-08
v -0.293678135 -0.0989251956 -7.4505806E-09
v -0.175851732 -0.153600842 7.4505806E-09
v -0.175851732 -0.153600842 7.4505806E-09
v -0.293678135 -0.0989251956 -7.4505806E-09
v -0.250838608 -0.0473882481 -1.11758709E-08
v -0.16369912 -0.137061328 6.51925802E-09
v -0.16369912 -0.137061328 6.51925802E-09
v -0.250838608 -0.0473882481 -1.11758709E-08
v -0.205805272 -0.0185907856 -1.11758709E-08
v -0.143182814 -0.120963305 3.7252903E-09
v -0.143182814 -0.120963305 3.7252903E-09
v -0.205805272 -0.0185907856 -1.11758709E-08
v -0.163231015 -0.00192053616 0
v -0.11749202 -0.107340388 9.31322575E-10
v -0.11749202 -0.107340388 9.31322575E-10
v -0.163231015 -0.00192053616 0
v -0.123573273 0.00800387561 -1.11758709E-08
v -0.0887261927 -0.0961987749 9.31322575E-10
v -0.0887261927 -0.0961987749 9.31322575E-10
v -0.123573273 0.00800387561 -1.11758709E-08
v -0.0887346566 0.0142510757 0
v -0.0575353205 -0.0860083401 3.7252903E-09
v -0.0602191985 0.0191397518 -3.7252903E-09
v -0.0242775083 -0.0746157393 9.31322575E-10
v -0.0242775083 -0.0746157393 9.31322575E-10
v -0.0407430232 0.0239186734 -1.86264515E-09
v 0.0102544427 -0.0576631501 0
v 0.0102544427 -0.0576631501 0
v -0.0407430232 0.0239186734 -1.86264515E-09
v -0.0294262171 0.028898336 -1.86264515E-09
v 0.0413850993 -0.0306460634 2.79396772E-09
v 0.0413850993 -0.0306460634 2.79396772E-09
v -0.0294262171 0.028898336 -1.86264515E-09
v -0.0213763267 0.037301369 -1.86264515E-09
v 0.0618790239 0.00459210575 9.31322575E-10
v 0.0618790239 0.00459210575 9.31322575E-10
v -0.0213763267 0.037301369 -1.86264515E-09
v -0.0168798715 0.0475397259 -5.58793545E-09
v 0.0701493919 0.0436233133 4.65661287E-10
v 0.0701493919 0.0436233133 4.65661287E-10
v -0.0168798715 0.0475397259 -5.58793545E-09
v -0.0170617402 0.0560000911 -3.7252903E-09
v 0.0642519593 0.0828565881 9.31322575E-10
v 0.0642519593 0.0828565881 9.31322575E-10
v -0.0170617402 0.0560000911 -3.7252903E-09
v -0.0229913294 0.0668196008 -1.39698386E-09
v 0.0469833314 0.115275674 2.32830644E-10
v 0.0469833314 0.115275674 2.32830644E-10
v -0.0229913294 0.0668196008 -1.39698386E-09
v -0.0352365077 0.0800364166 -1.86264515E-09
v 0.0258627832 0.14003703 3.25962901E-09
v 0.0258627832 0.14003703 3.25962901E-09
v -0.0352365077 0.0800364166 -1.86264515E-09
v -0.0518466532 0.0932247117 -6.05359674E-09
v 0.0041179657 0.159988433 2.79396772E-09
v 0.0041179657 0.159988433 2.79396772E-09
v -0.0518466532 0.0932247117 -6.05359674E-09
v -0.0711295605 0.105682664 -5.3551048E-09
v -0.017215088 0.177059025 2.21189111E-09
v -0.0922398865 0.117682047 -2.32830644E-09
v -0.0376486778 0.19237867 2.6775524E-09
v -0.114778191 0.130012423 -2.79396772E-09
v -0.0567718148 0.206769228 4.42378223E-09
v -0.0567718148 0.206769228 4.42378223E-09
v -0.114778191 0.130012423 -2.79396772E-09
v -0.139498442 0.144629866 -6.98491931E-09
v -0.0737412274 0.220510602 3.84170562E-09
v -0.0737412274 0.220510602 3.84170562E-09
v -0.139498442 0.144629866 -6.98491931E-09
v -0.170622855 0.172069609 -6.51925802E-09
v -0.084348768 0.231920481 2.56113708E-09
v -0.0853843689 0.234340101 3.7252903E-09
v -0.186453849 0.197898865 -9.31322575E-09
v -0.194571823 0.239748746 -1.86264515E-09
v -0.0849439204 0.232385397 2.79396772E-09
v -0.089212656 0.230581731 2.79396772E-09
v -0.189415723 0.281493157 -5.58793545E-09
v -0.170693606 0.307055831 -3.7252903E-09
v -0.0848195553 0.230694413 0
v -0.0821218789 0.232091516 2.79396772E-09
v -0.147261143 0.329835832 0
v -0.124858737 0.343843013 0
v -0.0770508647 0.233769745 0
v -0.0701296329 0.235332668 -3.7252903E-09
v -0.103925258 0.353102177 0
v -0.0828200579 0.360400319 -3.7252903E-09
v -0.0630035996 0.236942381 0
v -0.0770508647 0.233769745 0
v -0.103925258 0.353102177 0
v -0.124858737 0.343843013 0
v -0.0630035996 0.236942381 0
v -0.0828200579 0.360400319 -3.7252903E-09
v -0.0453028977 0.367030174 -3.7252903E-09
v -0.0452758372 0.237136096 1.86264515E-09
v -0.0452758372 0.237136096 1.86264515E-09
v -0.0453028977 0.367030174 -3.7252903E-09
v -0.0116503537 0.36886254 3.7252903E-09
v -0.0254825652 0.235114962 1.86264515E-09
v -0.0254825652 0.235114962 1.86264515E-09
v -0.0116503537 0.36886254 3.7252903E-09
v 0.0196250379 0.367965519 3.7252903E-09
v -0.00437623262 0.231434166 1.86264515E-09
v -0.00437623262 0.231434166 1.86264515E-09
v 0.0196250379 0.367965519 3.7252903E-09
v 0.0490591824 0.365056962 -7.4505806E-09
v 0.0178231597 0.226256162 3.7252903E-09
v 0.0178231597 0.226256162 3.7252903E-09
v 0.0490591824 0.365056962 -7.4505806E-09
v 0.0774847418 0.360629946 0
v 0.0409777611 0.220002681 -1.86264515E-09
v 0.0774847418 0.360629946 0
v 0.105590999 0.354937851 -3.7252903E-09
v 0.06506598 0.213051081 -1.86264515E-09
v 0.105590999 0.354937851 -3.7252903E-09
v 0.133307382 0.347996563 1.11758709E-08
v 0.0902387053 0.205383718 -1.86264515E-09
v 0.160625175 0.339909583 -3.7252903E-09
v 0.116666205 0.19710353 -1.86264515E-09
v 0.187609017 0.331504643 -7.4505806E-09
v 0.14372173 0.188676536 0
v 0.213714808 0.323496431 3.7252903E-09
v 0.17111221 0.180279881 0
v 0.238904029 0.316156566 0
v 0.198953122 0.172177762 0
v 0.263198674 0.309563309 3.7252903E-09
v 0.227277145 0.164526731 0
v 0.285811961 0.303988427 0
v 0.256530821 0.158150971 1.86264515E-09
v 0.256530821 0.158150971 1.86264515E-09
v 0.306310654 0.299203247 0
v 0.286911637 0.154175222 -1.86264515E-09
v 0.286911637 0.154175222 -1.86264515E-09
v 0.325349838 0.295203567 3.7252903E-09
v 0.317983061 0.153110534 -1.86264515E-09
v 0.317983061 0.153110534 -1.86264515E-09
v 0.344069034 0.29222241 2.60770321E-08
v 0.349085391 0.155588597 -4.65661287E-09
v 0.349085391 0.155588597 -4.65661287E-09
v 0.344069034 0.29222241 2.60770321E-08
v 0.363586247 0.290310502 7.4505806E-09
v 0.379463375 0.161525846 -3.7252903E-09
v 0.379463375 0.161525846 -3.7252903E-09
v 0.363586247 0.290310502 7.4505806E-09
v 0.383116245 0.289464504 7.4505806E-09
v 0.408897817 0.170626253 0
v 0.408897817 0.170626253 0
v 0.383116245 0.289464504 7.4505806E-09
v 0.401738048 0.289917916 7.4505806E-09
v 0.437075168 0.182975829 -9.31322575E-10
v 0.437075168 0.182975829 -9.31322575E-10
v 0.401738048 0.289917916 7.4505806E-09
v 0.419520944 0.292008728 1.11758709E-08
v 0.463400871 0.198386401 -2.79396772E-09
v 0.463400871 0.198386401 -2.79396772E-09
v 0.419520944 0.292008728 1.11758709E-08
v 0.436489075 0.296233684 0
v 0.487392992 0.21645534 -4.65661287E-10
v 0.487392992 0.21645534 -4.65661287E-10
v 0.436489075 0.296233684 0
v 0.452391088 0.303376406 0
v 0.508720756 0.2367827 -2.32830644E-10
v 0.508720756 0.2367827 -2.32830644E-10
v 0.452391088 0.303376406 0
v 0.466933042 0.313961446 0
v 0.527633548 0.258673698 0
v -0.0848195553 0.230694413 0
v -0.170693606 0.307055831 -3.7252903E-09
v -0.147261143 0.329835832 0
v -0.0821218789 0.232091516 2.79396772E-09
v -0.0849439204 0.232385397 2.79396772E-09
v -0.194571823 0.239748746 -1.86264515E-09
v -0.189415723 0.281493157 -5.58793545E-09
v -0.089212656 0.230581731 2.79396772E-09
v -0.084348768 0.231920481 2.56113708E-09
v -0.170622855 0.172069609 -6.51925802E-09
v -0.186453849 0.197898865 -9.31322575E-09
v -0.0853843689 0.234340101 3.7252903E-09
vt 0.982758641 0
vt 0.982758641 1
vt 1 1
vt 1 0
vt 0 0
vt 0 1
vt 0.017241383 1
vt 0.0172413792 0
vt 0.0172413792 0
vt 0.0344827659 1
vt 0.0344827585 0
vt 0.0344827585 0
vt 0.0344827659 1
vt 0.0517241508 1
vt 0.0517241359 0
vt 0.0689655319 1
vt 0.068965517 0
vt 0.068965517 0
vt 0.0689655319 1
vt 0.086206913 1
vt 0.0862068981 0
vt 0.0862068981 0
vt 0.086206913 1
vt 0.103448302 1
vt 0.103448279 0
vt 0.103448279 0
vt 0.103448302 1
vt 0.120689675 1
vt 0.120689645 0
vt 0.120689645 0
vt 0.120689675 1
vt 0.137931049 1
vt 0.137931019 0
vt 0.137931019 0
vt 0.137931049 1
vt 0.155172437 1
vt 0.155172408 0
vt 0.155172408 0
vt 0.155172437 1
vt 0.172413826 1
vt 0.172413796 0
vt 0.172413796 0
vt 0.172413826 1
vt 0.189655215 1
vt 0.18965517 0
vt 0.18965517 0
vt 0.189655215 1
vt 0.206896588 1
vt 0.206896544 0
vt 0.206896544 0
vt 0.206896588 1
vt 0.224137962 1
vt 0.224137902 0
vt 0.224137902 0
vt 0.224137962 1
vt 0.24137935 1
vt 0.241379291 0
vt 0.241379291 0
vt 0.24137935 1
vt 0.258620739 1
vt 0.258620679 0
vt 0.258620679 0
vt 0.258620739 1
vt 0.275862098 1
vt 0.275862038 0
vt 0.293103516 1
vt 0.293103397 0
vt 0.293103397 0
vt 0.310344875 1
vt 0.310344815 0
vt 0.310344815 0
vt 0.310344875 1
vt 0.327586293 1
vt 0.327586174 0
vt 0.327586174 0
vt 0.327586293 1
vt 0.344827652 1
vt 0.344827592 0
vt 0.344827592 0
vt 0.344827652 1
vt 0.36206907 1
vt 0.362068951 0
vt 0.362068951 0
vt 0.36206907 1
vt 0.379310459 1
vt 0.37931034 0
vt 0.37931034 0
vt 0.379310459 1
vt 0.396551847 1
vt 0.396551728 0
vt 0.396551728 0
vt 0.396551847 1
vt 0.413793236 1
vt 0.413793117 0
vt 0.413793117 0
vt 0.413793236 1
vt 0.431034625 1
vt 0.431034446 0
vt 0.431034446 0
vt 0.431034625 1
vt 0.448275983 1
vt 0.448275864 0
vt 0.465517402 1
vt 0.465517223 0
vt 0.48275876 1
vt 0.482758641 0
vt 0.482758641 0
vt 0.48275876 1
vt 0.500000119 1
vt 0.5 0
vt 0.5 0
vt 0.500000119 1
vt 0.517241597 1
vt 0.517241359 0
vt 0.525862038 0
vt 0.525862336 1
vt 0.534482956 1
vt 0.534482718 0
vt 0.543103456 0
vt 0.543103635 1
vt 0.551724315 1
vt 0.551724076 0
vt 0.560344756 0
vt 0.560344994 1
vt 0.568965673 1
vt 0.568965435 0
vt 0.577586293 0
vt 0.577586293 0.99999994
vt 0.586207032 1
vt 0.586206913 0
vt 0.568965435 0
vt 0.577586293 0.99999994
vt 0.568965673 1
vt 0.586206913 0
vt 0.586207032 1
vt 0.603448391 1
vt 0.603448272 0
vt 0.603448272 0
vt 0.603448391 1
vt 0.620689869 1
vt 0.620689631 0
vt 0.620689631 0
vt 0.620689869 1
vt 0.637931228 1
vt 0.637930989 0
vt 0.637930989 0
vt 0.637931228 1
vt 0.655172586 1
vt 0.655172348 0
vt 0.655172348 0
vt 0.655172586 1
vt 0.672413945 1
vt 0.672413707 0
vt 0.672413945 1
vt 0.689655304 1
vt 0.689655066 0
vt 0.689655304 1
vt 0.706896663 1
vt 0.706896424 0
vt 0.724138141 1
vt 0.724137783 0
vt 0.741379499 1
vt 0.741379142 0
vt 0.758620918 1
vt 0.75862056 0
vt 0.775862277 1
vt 0.775861979 0
vt 0.793103635 1
vt 0.793103337 0
vt 0.810344994 1
vt 0.810344696 0
vt 0.810344696 0
vt 0.827586353 1
vt 0.827586055 0
vt 0.827586055 0
vt 0.844827652 1
vt 0.844827414 0
vt 0.844827414 0
vt 0.862069011 1
vt 0.862068892 0
vt 0.862068892 0
vt 0.862069011 1
vt 0.879310369 1
vt 0.87931025 0
vt 0.87931025 0
vt 0.879310369 1
vt 0.896551847 1
vt 0.896551609 0
vt 0.896551609 0
vt 0.896551847 1
vt 0.913793206 1
vt 0.913793087 0
vt 0.913793087 0
vt 0.913793206 1
vt 0.931034565 1
vt 0.931034446 0
vt 0.931034446 0
vt 0.931034565 1
vt 0.948275924 1
vt 0.948275805 0
vt 0.948275805 0
vt 0.948275924 1
vt 0.965517282 1
vt 0.965517163 0
vt 0.965517163 0
vt 0.965517282 1
vt 0.982758641 1
vt 0.982758641 0
vt 0.551724076 0
vt 0.551724315 1
vt 0.560344994 1
vt 0.560344756 0
vt 0.534482718 0
vt 0.534482956 1
vt 0.543103635 1
vt 0.543103456 0
vt 0.517241359 0
vt 0.517241597 1
vt 0.525862336 1
vt 0.525862038 0
vn -0 0 1
vn -0 0 1
vn -0 0 1
vn -0 0 1
vn -0 0 1
vn -0 0 1
vn -0 0 1
vn -0 0 1
vn -0 0 1
vn -0 0 1
vn -0 0 1
vn -0 0 1
vn -0 0 1
vn -0 0 1
vn -0 0 1
vn -0 0 1
vn -0 0 1
vn -0 0 1
vn -0 0 1
vn -0 0 1
vn -0 0 1
vn -0 0 1
vn -0 0 1
vn -0 0 1
vn -0 0 1
vn -0 0 1
vn -0 0 1
vn -0 0 1
vn -0 0 1
vn -0 0 1
vn -0 0 1
vn -0 0 1
vn -0 0 1
vn -0 0 1
vn -0 0 1
vn -0 0 1
vn -0 0 1
vn -0 0 1
vn -0 0 1
vn -0 0 1
vn -0 0 1
vn -0 0 1
vn -0 0 1
vn -0 0 1
vn -0 0 1
vn -0 0 1
vn -0 0 1
vn -0 0 1
vn -0 0 1
vn -0 0 1
vn -0 0 1
vn -0 0 1
vn -0 0 1
vn -0 0 1
vn -0 0 1
vn -0 0 1
vn -0 0 1
vn -0 0 1
vn -0 0 1
vn -0 0 1
vn -0 0 1
vn -0 0 1
vn -0 0 1
vn -0 0 1
vn -0 0 1
vn -0 0 1
vn -0 0 1
vn -0 0 1
vn -0 0 1
vn -0 0 1
vn -0 0 1
vn -0 0 1
vn -0 0 1
vn -0 0 1
vn -0 0 1
vn -0 0 1
vn -0 0 1
vn -0 0 1
vn -0 0 1
vn -0 0 1
vn -0 0 1
vn -0 0 1
vn -0 0 1
vn -0 0 1
vn -0 0 1
vn -0 0 1
vn -0 0 1
vn -0 0 1
vn -0 0 1
vn -0 0 1
vn -0 0 1
vn -0 0 1
vn -0 0 1
vn -0 0 1
vn -0 0 1
vn -0 0 1
vn -0 0 1
vn -0 0 1
vn -0 0 1
vn -0 0 1
vn -0 0 1
vn -0 0 1
vn -0 0 1
vn -0 0 1
vn -0 0 1
vn -0 0 1
vn -0 0 1
vn -0 0 1
vn -0 0 1
vn -0 0 1
vn -0 0 1
vn -0 0 1
vn -0 0 1
vn -0 0 1
vn -0 0 1
vn -0 0 1
vn -0 0 1
vn -0 0 1
vn -0 0 1
vn -0 0 1
vn -0 0 1
vn -0 0 1
vn -0 0 1
vn -0 0 1
vn -0 0 1
vn -0 0 1
vn -0 0 1
vn -0 0 1
vn -0 0 1
vn -0 0 1
vn -0 0 1
vn -0 0 1
vn -0 0 1
vn -0 0 1
vn -0 0 1
vn -0 0 1
vn -0 0 1
vn -0 0 1
vn -0 0 1
vn -0 0 1
vn -0 0 1
vn -0 0 1
vn -0 0 1
vn -0 0 1
vn -0 0 1
vn -0 0 1
vn -0 0 1
vn -0 0 1
vn -0 0 1
vn -0 0 1
vn -0 0 1
vn -0 0 1
vn -0 0 1
vn -0 0 1
vn -0 0 1
vn -0 0 1
vn -0 0 1
vn -0 0 1
vn -0 0 1
vn -0 0 1
vn -0 0 1
vn -0 0 1
vn -0 0 1
vn -0 0 1
vn -0 0 1
vn -0 0 1
vn -0 0 1
vn -0 0 1
vn -0 0 1
vn -0 0 1
vn -0 0 1
vn -0 0 1
vn -0 0 1
vn -0 0 1
vn -0 0 1
vn -0 0 1
vn -0 0 1
vn -0 0 1
vn -0 0 1
vn -0 0 1
vn -0 0 1
vn -0 0 1
vn -0 0 1
vn -0 0 1
vn -0 0 1
vn -0 0 1
vn -0 0 1
vn -0 0 1
vn -0 0 1
vn -0 0 1
vn -0 0 1
vn -0 0 1
vn -0 0 1
vn -0 0 1
vn -0 0 1
vn -0 0 1
vn -0 0 1
vn -0 0 1
vn -0 0 1
vn -0 0 1
vn -0 0 1
vn -0 0 1
vn -0 0 1
vn -0 0 1
vn -0 0 1
vn -0 0 1
vn -0 0 1
vn -0 0 1
vn -0 0 1
vn -0 0 1
vn -0 0 1
vn -0 0 1
vn -0 0 1
vn -0 0 1
vn -0 0 1
vn -0 0 1
vn -0 0 1
vn -0 0 1
vn -0 0 1
vn -0 0 1
g general_plane_60_0
f 3/3/3 2/2/2 1/1/1
f 4/4/4 3/3/3 1/1/1
f 7/7/7 6/6/6 5/5/5
f 8/8/8 7/7/7 5/5/5
f 10/10/10 7/7/7 9/9/9
f 11/11/11 10/10/10 9/9/9
f 14/14/14 13/13/13 12/12/12
f 15/15/15 14/14/14 12/12/12
f 16/16/16 14/14/14 15/15/15
f 17/17/17 16/16/16 15/15/15
f 20/20/20 19/19/19 18/18/18
f 21/21/21 20/20/20 18/18/18
f 24/24/24 23/23/23 22/22/22
f 25/25/25 24/24/24 22/22/22
f 28/28/28 27/27/27 26/26/26
f 29/29/29 28/28/28 26/26/26
f 32/32/32 31/31/31 30/30/30
f 33/33/33 32/32/32 30/30/30
f 36/36/36 35/35/35 34/34/34
f 37/37/37 36/36/36 34/34/34
f 40/40/40 39/39/39 38/38/38
f 41/41/41 40/40/40 38/38/38
f 44/44/44 43/43/43 42/42/42
f 45/45/45 44/44/44 42/42/42
f 48/48/48 47/47/47 46/46/46
f 49/49/49 48/48/48 46/46/46
f 52/52/52 51/51/51 50/50/50
f 53/53/53 52/52/52 50/50/50
f 56/56/56 55/55/55 54/54/54
f 57/57/57 56/56/56 54/54/54
f 60/60/60 59/59/59 58/58/58
f 61/61/61 60/60/60 58/58/58
f 64/64/64 63/63/63 62/62/62
f 65/65/65 64/64/64 62/62/62
f 66/66/66 64/64/64 65/65/65
f 67/67/67 66/66/66 65/65/65
f 69/69/69 66/66/66 68/68/68
f 70/70/70 69/69/69 68/68/68
f 73/73/73 72/72/72 71/71/71
f 74/74/74 73/73/73 71/71/71
f 77/77/77 76/76/76 75/75/75
f 78/78/78 77/77/77 75/75/75
f 81/81/81 80/80/80 79/79/79
f 82/82/82 81/81/81 79/79/79
f 85/85/85 84/84/84 83/83/83
f 86/86/86 85/85/85 83/83/83
f 89/89/89 88/88/88 87/87/87
f 90/90/90 89/89/89 87/87/87
f 93/93/93 92/92/92 91/91/91
f 94/94/94 93/93/93 91/91/91
f 97/97/97 96/96/96 95/95/95
f 98/98/98 97/97/97 95/95/95
f 101/101/101 100/100/100 99/99/99
f 102/102/102 101/101/101 99/99/99
f 103/103/103 101/101/101 102/102/102
f 104/104/104 103/103/103 102/102/102
f 105/105/105 103/103/103 104/104/104
f 106/106/106 105/105/105 104/104/104
f 109/109/109 108/108/108 107/107/107
f 110/110/110 109/109/109 107/107/107
f 113/113/113 112/112/112 111/111/111
f 114/114/114 113/113/113 111/111/111
f 117/117/117 116/116/116 115/115/115
f 118/118/118 117/117/117 115/115/115
f 121/121/121 120/120/120 119/119/119
f 122/122/122 121/121/121 119/119/119
f 125/125/125 124/124/124 123/123/123
f 126/126/126 125/125/125 123/123/123
f 129/129/129 128/128/128 127/127/127
f 130/130/130 129/129/129 127/127/127
f 127/127/127 132/132/132 131/131/131
f 132/132/132 133/133/133 131/131/131
f 136/136/136 135/135/135 134/134/134
f 137/137/137 136/136/136 134/134/134
f 140/140/140 139/139/139 138/138/138
f 141/141/141 140/140/140 138/138/138
f 144/144/144 143/143/143 142/142/142
f 145/145/145 144/144/144 142/142/142
f 148/148/148 147/147/147 146/146/146
f 149/149/149 148/148/148 146/146/146
f 152/152/152 151/151/151 150/150/150
f 153/153/153 152/152/152 150/150/150
f 155/155/155 154/154/154 153/153/153
f 156/156/156 155/155/155 153/153/153
f 158/158/158 157/157/157 156/156/156
f 159/159/159 158/158/158 156/156/156
f 160/160/160 158/158/158 159/159/159
f 161/161/161 160/160/160 159/159/159
f 162/162/162 160/160/160 161/161/161
f 163/163/163 162/162/162 161/161/161
f 164/164/164 162/162/162 163/163/163
f 165/165/165 164/164/164 163/163/163
f 166/166/166 164/164/164 165/165/165
f 167/167/167 166/166/166 165/165/165
f 168/168/168 166/166/166 167/167/167
f 169/169/169 168/168/168 167/167/167
f 170/170/170 168/168/168 169/169/169
f 171/171/171 170/170/170 169/169/169
f 173/173/173 170/170/170 172/172/172
f 174/174/174 173/173/173 172/172/172
f 176/176/176 173/173/173 175/175/175
f 177/177/177 176/176/176 175/175/175
f 179/179/179 176/176/176 178/178/178
f 180/180/180 179/179/179 178/178/178
f 183/183/183 182/182/182 181/181/181
f 184/184/184 183/183/183 181/181/181
f 187/187/187 186/186/186 185/185/185
f 188/188/188 187/187/187 185/185/185
f 191/191/191 190/190/190 189/189/189
f 192/192/192 191/191/191 189/189/189
f 195/195/195 194/194/194 193/193/193
f 196/196/196 195/195/195 193/193/193
f 199/199/199 198/198/198 197/197/197
f 200/200/200 199/199/199 197/197/197
f 203/203/203 202/202/202 201/201/201
f 204/204/204 203/203/203 201/201/201
f 207/207/207 206/206/206 205/205/205
f 208/208/208 207/207/207 205/205/205
f 211/211/211 210/210/210 209/209/209
f 212/212/212 211/211/211 209/209/209
f 215/215/215 214/214/214 213/213/213
f 216/216/216 215/215/215 213/213/213
f 219/219/219 218/218/218 217/217/217
f 220/220/220 219/219/219 217/217/217
