g Plane002
v 0.0505299941 0.145791873 0
v 0.0432779863 0.147552744 0
v 0.0475767888 0.149499461 0
v 0.0440916903 0.142913401 0
v 0.0536213182 0.141617447 0
v 0.0450574085 0.137891009 0
v 0.0566287972 0.137449563 0
v 0.0459633805 0.132938325 0
v 0.0595521256 0.133287966 0
v 0.0468098819 0.128055781 0
v 0.0623909943 0.129132226 0
v 0.0475972258 0.123243645 0
v 0.0651450679 0.124982059 0
v 0.0483257584 0.118502319 0
v 0.0678139925 0.120837063 0
v 0.0489958376 0.113832101 0
v 0.0703973696 0.116696924 0
v 0.0496078767 0.109233387 0
v 0.0728947222 0.1125613 0
v 0.0501622558 0.104706511 0
v 0.0753056705 0.108429819 0
v 0.0506595112 0.100251816 0
v 0.0776296481 0.104302153 0
v 0.0511001088 0.0958696157 0
v 0.0798661336 0.100178041 0
v 0.0514845923 0.0915602967 0
v 0.0820145383 0.0960570872 0
v 0.051813554 0.0873240829 0
v 0.0840742216 0.0919390097 0
v 0.0520875826 0.0831612945 0
v 0.0860445201 0.0878235772 0
v 0.0523073934 0.0790722445 0
v 0.0879247487 0.0837104991 0
v 0.0524737164 0.0750571266 0
v 0.0897140801 0.079599604 0
v 0.0525872707 0.0711162016 0
v 0.091411747 0.075490728 0
v 0.0526489355 0.0672496408 0
v 0.0930168405 0.0713836625 0
v 0.0526595116 0.0634575337 0
v 0.0945284814 0.0672783703 0
v 0.0526199713 0.059739992 0
v 0.0959456414 0.0631748214 0
v 0.0525312684 0.0560970716 0
v 0.0972673371 0.0590730458 0
v 0.0523944274 0.0525287092 0
v 0.0984924957 0.0549731329 0
v 0.0522105508 0.0490347855 0
v 0.0996199623 0.0508753397 0
v 0.0519807339 0.0456151552 0
v 0.10064856 0.0467798524 0
v 0.0517061688 0.0422694869 0
v 0.101577096 0.0426871069 0
v 0.0513880514 0.0389974192 0
v 0.102404296 0.0385975838 0
v 0.0510276705 0.0357984602 0
v 0.10312888 0.0345119126 0
v 0.050626304 0.0326720104 0
v 0.103749529 0.0304308273 0
v 0.0501852594 0.0296173189 0
v 0.104264893 0.0263551921 0
v 0.0497058667 0.0266334843 0
v 0.104673676 0.0222860668 0
v 0.0491894819 0.0237195008 0
v 0.104974471 0.0182246324 0
v 0.0486374572 0.0208741631 0
v 0.105166003 0.0141722141 0
v 0.0480511002 0.0180961043 0
v 0.105246954 0.010130411 0
v 0.0474316962 0.0153838368 0
v 0.105216056 0.00610083342 0
v 0.0467805266 0.012735595 0
v 0.105042137 0.00186671258 0
v 0.0460783765 0.010000932 0
v 0.104611158 -0.00316566229 0
v 0.0452458933 0.0067461608 0
v 0.104010969 -0.00820440985 0
v 0.0443412773 0.00349344965 0
v 0.103241965 -0.0132423379 0
v 0.0433658697 0.000251076213 0
v 0.102304295 -0.0182723776 0
v 0.0423212722 -0.00297278864 0
v 0.101197876 -0.0232872982 0
v 0.0412093438 -0.006169884 0
v 0.0999223664 -0.0282798782 0
v 0.0400321856 -0.00933205336 0
v 0.0984771028 -0.0332429036 0
v 0.0387920961 -0.0124512548 0
v 0.0968612581 -0.0381689295 0
v 0.0374917202 -0.0155195063 0
v 0.0950737 -0.0430503935 0
v 0.0361339264 -0.0185289793 0
v 0.0931129977 -0.0478795506 0
v 0.03472187 -0.0214720368 0
v 0.0909775272 -0.0526484847 0
v 0.033258941 -0.0243413094 0
v 0.0886653215 -0.0573488809 0
v 0.0317488462 -0.0271297004 0
v 0.0861741975 -0.0619721115 0
v 0.0301954839 -0.0298304856 0
v 0.0835017264 -0.0665090382 0
v 0.0286030099 -0.032437373 0
v 0.0806453526 -0.0709500313 0
v 0.0269757733 -0.0349446312 0
v 0.0776022673 -0.0752848685 0
v 0.0253182687 -0.0373471864 0
v 0.0743697658 -0.0795024782 0
v 0.0236350149 -0.0396406762 0
v 0.0709450766 -0.0835909843 0
v 0.0219304748 -0.0418216512 0
v 0.0673257336 -0.0875374898 0
v 0.0202088635 -0.0438875742 0
v 0.0635096431 -0.091328077 0
v 0.0184739772 -0.0458370782 0
v 0.0594954863 -0.0949475467 0
v 0.016728973 -0.047669895 0
v 0.0552827828 -0.0983796269 0
v 0.0149759669 -0.049387034 0
v 0.0132158324 -0.0509906076 0
v 0.0508725233 -0.101606712 0
v 0.0114476299 -0.0524839312 0
v 0.0462672114 -0.104610272 0
v 0.00966844521 -0.0538711138 0
v 0.0414716825 -0.107370697 0
v 0.0078728674 -0.0551568605 0
v 0.0364930145 -0.109867968 0
v 0.00605274178 -0.0563459583 0
v 0.0313410945 -0.112081915 0
v 0.00420643343 -0.0574398115 0
v 0.0262781046 -0.113896713 0
v 0.00221746438 -0.0581302457 0
v 0.0223680492 -0.115015149 0
v 8.87584683E-05 -0.0587706156 0
v 0.0184144024 -0.11598713 0
v -0.00212456705 -0.0592549406 0
v 0.0144215152 -0.116814412 0
v -0.00439032074 -0.0596331693 0
v 0.0103931995 -0.117499091 0
v -0.00675443653 -0.0599455163 0
v 0.00633286452 -0.118043408 0
v -0.00934754312 -0.0602321886 0
v 0.00224336609 -0.118449911 0
v -0.0115775205 -0.0604903288 0
v -0.00187281601 -0.118721128 0
v -0.0141889714 -0.0605410747 0
v -0.00601371285 -0.118859686 0
v -0.0173237361 -0.0602615997 0
v -0.0101776598 -0.118868232 0
v -0.0200643968 -0.0598491542 0
v -0.014363436 -0.118749402 0
v -0.022612283 -0.0594912507 0
v -0.0185701698 -0.118505687 0
v -0.0247858092 -0.0588505082 0
v -0.0227972195 -0.118139617 0
v -0.0275129341 -0.0585480183 0
v -0.0270441938 -0.117653489 0
v -0.0301187411 -0.0580645837 0
v -0.0313110501 -0.117049545 0
v -0.033031106 -0.0575267598 0
v -0.0355978273 -0.116329893 0
v -0.0362364352 -0.0569735244 0
v -0.0399047136 -0.115496516 0
v -0.0398979709 -0.05624073 0
v -0.0442321822 -0.114551246 0
v -0.0430737808 -0.0552583858 0
v -0.0485806689 -0.11349576 0
v -0.0468331464 -0.0546470731 0
v -0.0529507212 -0.112331636 0
v -0.0505748577 -0.0537518859 0
v -0.0573430397 -0.111060314 0
v -0.0543039776 -0.053040009 0
v -0.0617583171 -0.109683104 0
v -0.0574635789 -0.0523501299 0
v -0.0661973059 -0.108201213 0
v -0.0611024983 -0.0517671667 0
v -0.0706607178 -0.106615745 0
v -0.0648020133 -0.0500521921 0
v -0.0751493946 -0.104927674 0
v -0.0678131282 -0.0491150171 0
v -0.079664126 -0.10313791 0
v -0.0713873804 -0.0472650342 0
v -0.0842057094 -0.101247244 0
v -0.0754347295 -0.0449021347 0
v -0.0887748599 -0.0992564261 0
v -0.0792313665 -0.0423045345 0
v -0.0933723748 -0.0971661285 0
v -0.0824915096 -0.0400362238 0
v -0.0979991108 -0.0949768871 0
v -0.087133728 -0.0380412713 0
v -0.102655791 -0.0926892236 0
v -0.0914094597 -0.0360956416 0
v -0.107343003 -0.0903036892 0
v -0.0959038734 -0.0337215811 0
v -0.112061575 -0.0878206342 0
v -0.100740395 -0.0314000323 0
v -0.11681211 -0.085240446 0
v -0.105191983 -0.0288921222 0
v -0.121595286 -0.0825634748 0
v -0.110219449 -0.0262051262 0
v -0.126411751 -0.0797899887 0
v -0.113976553 -0.0234438106 0
v -0.13057375 -0.0771659389 0
vt 0.985972285 0.00823754072
vt 0.995890081 0.991762698
vt 0.995890081 0.00823754072
vt 0.985972285 0.991762698
vt 0.97605443 0.00823754072
vt 0.97605443 0.991762698
vt 0.966136634 0.00823754072
vt 0.966136634 0.991762698
vt 0.956218779 0.00823754072
vt 0.956218779 0.991762698
vt 0.946300983 0.00823754072
vt 0.946300983 0.991762698
vt 0.936383188 0.00823754072
vt 0.936383188 0.991762698
vt 0.926465392 0.00823754072
vt 0.926465392 0.991762698
vt 0.916547596 0.00823754072
vt 0.916547596 0.991762698
vt 0.906629801 0.00823754072
vt 0.906629801 0.991762698
vt 0.896712005 0.00823754072
vt 0.896712005 0.991762698
vt 0.886794209 0.00823754072
vt 0.886794209 0.991762698
vt 0.876876414 0.00823754072
vt 0.876876414 0.991762698
vt 0.866958559 0.00823754072
vt 0.866958559 0.991762698
vt 0.857040763 0.00823754072
vt 0.857040763 0.991762698
vt 0.847122908 0.00823754072
vt 0.847122908 0.991762698
vt 0.837205112 0.00823754072
vt 0.837205112 0.991762698
vt 0.827287257 0.00823754072
vt 0.827287257 0.991762698
vt 0.817369461 0.00823754072
vt 0.817369461 0.991762698
vt 0.807451606 0.00823754072
vt 0.807451606 0.991762698
vt 0.79753381 0.00823754072
vt 0.79753381 0.991762698
vt 0.787616014 0.00823754072
vt 0.787616014 0.991762698
vt 0.777698278 0.00823754072
vt 0.777698278 0.991762698
vt 0.767780423 0.00823754072
vt 0.767780423 0.991762698
vt 0.757862568 0.00823754072
vt 0.757862568 0.991762698
vt 0.747944832 0.00823754072
vt 0.747944832 0.991762698
vt 0.738026977 0.00823754072
vt 0.738026977 0.991762698
vt 0.728109121 0.00823754072
vt 0.728109121 0.991762698
vt 0.718191385 0.00823754072
vt 0.718191385 0.991762698
vt 0.70827353 0.00823754072
vt 0.70827353 0.991762698
vt 0.698355734 0.00823754072
vt 0.698355734 0.991762698
vt 0.688437939 0.00823754072
vt 0.688437939 0.991762698
vt 0.678520143 0.00823754072
vt 0.678520143 0.991762698
vt 0.668602407 0.00823754072
vt 0.668602407 0.991762698
vt 0.658684611 0.00823754072
vt 0.658684611 0.991762698
vt 0.648766756 0.00823754072
vt 0.648766756 0.991762698
vt 0.63884896 0.00823754072
vt 0.63884896 0.991762698
vt 0.628931165 0.00823754072
vt 0.628931165 0.991762698
vt 0.619013309 0.00823754072
vt 0.619013309 0.991762698
vt 0.609095573 0.00823754072
vt 0.609095573 0.991762698
vt 0.599177718 0.00823754072
vt 0.599177718 0.991762698
vt 0.589259982 0.00823754072
vt 0.589259982 0.991762698
vt 0.579342127 0.00823754072
vt 0.579342127 0.991762698
vt 0.569424272 0.00823754072
vt 0.569424272 0.991762698
vt 0.559506536 0.00823754072
vt 0.559506536 0.991762698
vt 0.54958868 0.00823754072
vt 0.54958868 0.991762698
vt 0.539670944 0.00823754072
vt 0.539670944 0.991762698
vt 0.529753149 0.00823754072
vt 0.529753149 0.991762698
vt 0.519835353 0.00823754072
vt 0.519835353 0.991762698
vt 0.509917557 0.00823754072
vt 0.509917557 0.991762698
vt 0.499999762 0.00823754072
vt 0.499999762 0.991762698
vt 0.490081906 0.00823754072
vt 0.490081906 0.991762698
vt 0.480164111 0.00823754072
vt 0.480164111 0.991762698
vt 0.470246315 0.00823754072
vt 0.470246315 0.991762698
vt 0.460328519 0.00823754072
vt 0.460328519 0.991762698
vt 0.450410724 0.00823754072
vt 0.450410724 0.991762698
vt 0.440492928 0.00823754072
vt 0.440492928 0.991762698
vt 0.430575013 0.00823754072
vt 0.430575013 0.991762698
vt 0.420657277 0.00823754072
vt 0.420657277 0.991762698
vt 0.410739541 0.991762698
vt 0.410739541 0.00823754072
vt 0.400821745 0.991762698
vt 0.400821745 0.00823754072
vt 0.39090389 0.991762698
vt 0.39090389 0.00823754072
vt 0.380986094 0.991762698
vt 0.380986094 0.00823754072
vt 0.371068299 0.991762698
vt 0.371068299 0.00823754072
vt 0.361150503 0.991762698
vt 0.361150503 0.00823754072
vt 0.351232708 0.991762698
vt 0.351232708 0.00823754072
vt 0.341314912 0.991762698
vt 0.341314912 0.00823754072
vt 0.331397116 0.991762698
vt 0.331397116 0.00823754072
vt 0.321479321 0.991762698
vt 0.321479321 0.00823754072
vt 0.311561406 0.991762698
vt 0.311561406 0.00823754072
vt 0.30164367 0.991762698
vt 0.30164367 0.00823754072
vt 0.291725874 0.991762698
vt 0.291725874 0.00823754072
vt 0.281808078 0.991762698
vt 0.281808078 0.00823754072
vt 0.271890283 0.991762698
vt 0.271890283 0.00823754072
vt 0.261972427 0.991762698
vt 0.261972427 0.00823754072
vt 0.252054632 0.991762698
vt 0.252054632 0.00823754072
vt 0.242136836 0.991762698
vt 0.242136836 0.00823754072
vt 0.2322191 0.991762698
vt 0.2322191 0.00823754072
vt 0.222301304 0.991762698
vt 0.222301304 0.00823754072
vt 0.212383509 0.991762698
vt 0.212383509 0.00823754072
vt 0.202465713 0.991762698
vt 0.202465713 0.00823754072
vt 0.192547917 0.991762698
vt 0.192547917 0.00823754072
vt 0.182630062 0.991762698
vt 0.182630062 0.00823754072
vt 0.172712266 0.991762698
vt 0.172712266 0.00823754072
vt 0.162794471 0.991762698
vt 0.162794471 0.00823754072
vt 0.152876675 0.991762698
vt 0.152876675 0.00823754072
vt 0.14295882 0.991762698
vt 0.14295882 0.00823754072
vt 0.133041024 0.991762698
vt 0.133041024 0.00823754072
vt 0.123123229 0.991762698
vt 0.123123229 0.00823754072
vt 0.113205433 0.991762698
vt 0.113205433 0.00823754072
vt 0.103287637 0.991762698
vt 0.103287637 0.00823754072
vt 0.0933698416 0.991762698
vt 0.0933698416 0.00823754072
vt 0.0834520459 0.991762698
vt 0.0834520459 0.00823754072
vt 0.0735342503 0.991762698
vt 0.0735342503 0.00823754072
vt 0.0636164546 0.991762698
vt 0.0636164546 0.00823754072
vt 0.0536986589 0.991762698
vt 0.0536986589 0.00823754072
vt 0.0437808633 0.991762698
vt 0.0437808633 0.00823754072
vt 0.0338630676 0.991762698
vt 0.0338630676 0.00823754072
vt 0.023945272 0.991762698
vt 0.023945272 0.00823754072
vt 0.0140274167 0.991762698
vt 0.0140274167 0.00823754072
vt 0.00410968065 0.991762698
vt 0.00410968065 0.00823754072
vn -0 0 1
vn -0 0 1
vn -0 0 1
vn -0 0 1
vn -0 0 1
vn -0 0 1
vn -0 0 1
vn -0 0 1
vn -0 0 1
vn -0 0 1
vn -0 0 1
vn -0 0 1
vn -0 0 1
vn -0 0 1
vn -0 0 1
vn -0 0 1
vn -0 0 1
vn -0 0 1
vn -0 0 1
vn -0 0 1
vn -0 0 1
vn -0 0 1
vn -0 0 1
vn -0 0 1
vn -0 0 1
vn -0 0 1
vn -0 0 1
vn -0 0 1
vn -0 0 1
vn -0 0 1
vn -0 0 1
vn -0 0 1
vn -0 0 1
vn -0 0 1
vn -0 0 1
vn -0 0 1
vn -0 0 1
vn -0 0 1
vn -0 0 1
vn -0 0 1
vn -0 0 1
vn -0 0 1
vn -0 0 1
vn -0 0 1
vn -0 0 1
vn -0 0 1
vn -0 0 1
vn -0 0 1
vn -0 0 1
vn -0 0 1
vn -0 0 1
vn -0 0 1
vn -0 0 1
vn -0 0 1
vn -0 0 1
vn -0 0 1
vn -0 0 1
vn -0 0 1
vn -0 0 1
vn -0 0 1
vn -0 0 1
vn -0 0 1
vn -0 0 1
vn -0 0 1
vn -0 0 1
vn -0 0 1
vn -0 0 1
vn -0 0 1
vn -0 0 1
vn -0 0 1
vn -0 0 1
vn -0 0 1
vn -0 0 1
vn -0 0 1
vn -0 0 1
vn -0 0 1
vn -0 0 1
vn -0 0 1
vn -0 0 1
vn -0 0 1
vn -0 0 1
vn -0 0 1
vn -0 0 1
vn -0 0 1
vn -0 0 1
vn -0 0 1
vn -0 0 1
vn -0 0 1
vn -0 0 1
vn -0 0 1
vn -0 0 1
vn -0 0 1
vn -0 0 1
vn -0 0 1
vn -0 0 1
vn -0 0 1
vn -0 0 1
vn -0 0 1
vn -0 0 1
vn -0 0 1
vn -0 0 1
vn -0 0 1
vn -0 0 1
vn -0 0 1
vn -0 0 1
vn -0 0 1
vn -0 0 1
vn -0 0 1
vn -0 0 1
vn -0 0 1
vn -0 0 1
vn -0 0 1
vn -0 0 1
vn -0 0 1
vn -0 0 1
vn -0 0 1
vn -0 0 1
vn -0 0 1
vn -0 0 1
vn -0 0 1
vn -0 0 1
vn -0 0 1
vn -0 0 1
vn -0 0 1
vn -0 0 1
vn -0 0 1
vn -0 0 1
vn -0 0 1
vn -0 0 1
vn -0 0 1
vn -0 0 1
vn -0 0 1
vn -0 0 1
vn -0 0 1
vn -0 0 1
vn -0 0 1
vn -0 0 1
vn -0 0 1
vn -0 0 1
vn -0 0 1
vn -0 0 1
vn -0 0 1
vn -0 0 1
vn -0 0 1
vn -0 0 1
vn -0 0 1
vn -0 0 1
vn -0 0 1
vn -0 0 1
vn -0 0 1
vn -0 0 1
vn -0 0 1
vn -0 0 1
vn -0 0 1
vn -0 0 1
vn -0 0 1
vn -0 0 1
vn -0 0 1
vn -0 0 1
vn -0 0 1
vn -0 0 1
vn -0 0 1
vn -0 0 1
vn -0 0 1
vn -0 0 1
vn -0 0 1
vn -0 0 1
vn -0 0 1
vn -0 0 1
vn -0 0 1
vn -0 0 1
vn -0 0 1
vn -0 0 1
vn -0 0 1
vn -0 0 1
vn -0 0 1
vn -0 0 1
vn -0 0 1
vn -0 0 1
vn -0 0 1
vn -0 0 1
vn -0 0 1
vn -0 0 1
vn -0 0 1
vn -0 0 1
vn -0 0 1
vn -0 0 1
vn -0 0 1
vn -0 0 1
vn -0 0 1
vn -0 0 1
vn -0 0 1
vn -0 0 1
vn -0 0 1
vn -0 0 1
vn -0 0 1
vn -0 0 1
vn -0 0 1
vn -0 0 1
vn -0 0 1
vn -0 0 1
vn -0 0 1
g Plane002_0
f 3/3/3 2/2/2 1/1/1
f 4/4/4 1/1/1 2/2/2
f 1/1/1 4/4/4 5/5/5
f 6/6/6 5/5/5 4/4/4
f 5/5/5 6/6/6 7/7/7
f 8/8/8 7/7/7 6/6/6
f 7/7/7 8/8/8 9/9/9
f 10/10/10 9/9/9 8/8/8
f 9/9/9 10/10/10 11/11/11
f 12/12/12 11/11/11 10/10/10
f 11/11/11 12/12/12 13/13/13
f 14/14/14 13/13/13 12/12/12
f 13/13/13 14/14/14 15/15/15
f 16/16/16 15/15/15 14/14/14
f 15/15/15 16/16/16 17/17/17
f 18/18/18 17/17/17 16/16/16
f 17/17/17 18/18/18 19/19/19
f 20/20/20 19/19/19 18/18/18
f 19/19/19 20/20/20 21/21/21
f 22/22/22 21/21/21 20/20/20
f 21/21/21 22/22/22 23/23/23
f 24/24/24 23/23/23 22/22/22
f 23/23/23 24/24/24 25/25/25
f 26/26/26 25/25/25 24/24/24
f 25/25/25 26/26/26 27/27/27
f 28/28/28 27/27/27 26/26/26
f 27/27/27 28/28/28 29/29/29
f 30/30/30 29/29/29 28/28/28
f 29/29/29 30/30/30 31/31/31
f 32/32/32 31/31/31 30/30/30
f 31/31/31 32/32/32 33/33/33
f 34/34/34 33/33/33 32/32/32
f 33/33/33 34/34/34 35/35/35
f 36/36/36 35/35/35 34/34/34
f 35/35/35 36/36/36 37/37/37
f 38/38/38 37/37/37 36/36/36
f 37/37/37 38/38/38 39/39/39
f 40/40/40 39/39/39 38/38/38
f 39/39/39 40/40/40 41/41/41
f 42/42/42 41/41/41 40/40/40
f 41/41/41 42/42/42 43/43/43
f 44/44/44 43/43/43 42/42/42
f 43/43/43 44/44/44 45/45/45
f 46/46/46 45/45/45 44/44/44
f 45/45/45 46/46/46 47/47/47
f 48/48/48 47/47/47 46/46/46
f 47/47/47 48/48/48 49/49/49
f 50/50/50 49/49/49 48/48/48
f 49/49/49 50/50/50 51/51/51
f 52/52/52 51/51/51 50/50/50
f 51/51/51 52/52/52 53/53/53
f 54/54/54 53/53/53 52/52/52
f 53/53/53 54/54/54 55/55/55
f 56/56/56 55/55/55 54/54/54
f 55/55/55 56/56/56 57/57/57
f 58/58/58 57/57/57 56/56/56
f 57/57/57 58/58/58 59/59/59
f 60/60/60 59/59/59 58/58/58
f 59/59/59 60/60/60 61/61/61
f 62/62/62 61/61/61 60/60/60
f 61/61/61 62/62/62 63/63/63
f 64/64/64 63/63/63 62/62/62
f 63/63/63 64/64/64 65/65/65
f 66/66/66 65/65/65 64/64/64
f 65/65/65 66/66/66 67/67/67
f 68/68/68 67/67/67 66/66/66
f 67/67/67 68/68/68 69/69/69
f 70/70/70 69/69/69 68/68/68
f 69/69/69 70/70/70 71/71/71
f 72/72/72 71/71/71 70/70/70
f 71/71/71 72/72/72 73/73/73
f 74/74/74 73/73/73 72/72/72
f 73/73/73 74/74/74 75/75/75
f 76/76/76 75/75/75 74/74/74
f 75/75/75 76/76/76 77/77/77
f 78/78/78 77/77/77 76/76/76
f 77/77/77 78/78/78 79/79/79
f 80/80/80 79/79/79 78/78/78
f 79/79/79 80/80/80 81/81/81
f 82/82/82 81/81/81 80/80/80
f 81/81/81 82/82/82 83/83/83
f 84/84/84 83/83/83 82/82/82
f 83/83/83 84/84/84 85/85/85
f 86/86/86 85/85/85 84/84/84
f 85/85/85 86/86/86 87/87/87
f 88/88/88 87/87/87 86/86/86
f 87/87/87 88/88/88 89/89/89
f 90/90/90 89/89/89 88/88/88
f 89/89/89 90/90/90 91/91/91
f 92/92/92 91/91/91 90/90/90
f 91/91/91 92/92/92 93/93/93
f 94/94/94 93/93/93 92/92/92
f 93/93/93 94/94/94 95/95/95
f 96/96/96 95/95/95 94/94/94
f 95/95/95 96/96/96 97/97/97
f 98/98/98 97/97/97 96/96/96
f 97/97/97 98/98/98 99/99/99
f 100/100/100 99/99/99 98/98/98
f 99/99/99 100/100/100 101/101/101
f 102/102/102 101/101/101 100/100/100
f 101/101/101 102/102/102 103/103/103
f 104/104/104 103/103/103 102/102/102
f 103/103/103 104/104/104 105/105/105
f 106/106/106 105/105/105 104/104/104
f 105/105/105 106/106/106 107/107/107
f 108/108/108 107/107/107 106/106/106
f 107/107/107 108/108/108 109/109/109
f 110/110/110 109/109/109 108/108/108
f 109/109/109 110/110/110 111/111/111
f 112/112/112 111/111/111 110/110/110
f 111/111/111 112/112/112 113/113/113
f 114/114/114 113/113/113 112/112/112
f 113/113/113 114/114/114 115/115/115
f 116/116/116 115/115/115 114/114/114
f 115/115/115 116/116/116 117/117/117
f 118/118/118 117/117/117 116/116/116
f 118/118/118 119/119/119 117/117/117
f 120/120/120 117/117/117 119/119/119
f 119/119/119 121/121/121 120/120/120
f 122/122/122 120/120/120 121/121/121
f 121/121/121 123/123/123 122/122/122
f 124/124/124 122/122/122 123/123/123
f 123/123/123 125/125/125 124/124/124
f 126/126/126 124/124/124 125/125/125
f 125/125/125 127/127/127 126/126/126
f 128/128/128 126/126/126 127/127/127
f 127/127/127 129/129/129 128/128/128
f 130/130/130 128/128/128 129/129/129
f 129/129/129 131/131/131 130/130/130
f 132/132/132 130/130/130 131/131/131
f 131/131/131 133/133/133 132/132/132
f 134/134/134 132/132/132 133/133/133
f 133/133/133 135/135/135 134/134/134
f 136/136/136 134/134/134 135/135/135
f 135/135/135 137/137/137 136/136/136
f 138/138/138 136/136/136 137/137/137
f 137/137/137 139/139/139 138/138/138
f 140/140/140 138/138/138 139/139/139
f 139/139/139 141/141/141 140/140/140
f 142/142/142 140/140/140 141/141/141
f 141/141/141 143/143/143 142/142/142
f 144/144/144 142/142/142 143/143/143
f 143/143/143 145/145/145 144/144/144
f 146/146/146 144/144/144 145/145/145
f 145/145/145 147/147/147 146/146/146
f 148/148/148 146/146/146 147/147/147
f 147/147/147 149/149/149 148/148/148
f 150/150/150 148/148/148 149/149/149
f 149/149/149 151/151/151 150/150/150
f 152/152/152 150/150/150 151/151/151
f 151/151/151 153/153/153 152/152/152
f 154/154/154 152/152/152 153/153/153
f 153/153/153 155/155/155 154/154/154
f 156/156/156 154/154/154 155/155/155
f 155/155/155 157/157/157 156/156/156
f 158/158/158 156/156/156 157/157/157
f 157/157/157 159/159/159 158/158/158
f 160/160/160 158/158/158 159/159/159
f 159/159/159 161/161/161 160/160/160
f 162/162/162 160/160/160 161/161/161
f 161/161/161 163/163/163 162/162/162
f 164/164/164 162/162/162 163/163/163
f 163/163/163 165/165/165 164/164/164
f 166/166/166 164/164/164 165/165/165
f 165/165/165 167/167/167 166/166/166
f 168/168/168 166/166/166 167/167/167
f 167/167/167 169/169/169 168/168/168
f 170/170/170 168/168/168 169/169/169
f 169/169/169 171/171/171 170/170/170
f 172/172/172 170/170/170 171/171/171
f 171/171/171 173/173/173 172/172/172
f 174/174/174 172/172/172 173/173/173
f 173/173/173 175/175/175 174/174/174
f 176/176/176 174/174/174 175/175/175
f 175/175/175 177/177/177 176/176/176
f 178/178/178 176/176/176 177/177/177
f 177/177/177 179/179/179 178/178/178
f 180/180/180 178/178/178 179/179/179
f 179/179/179 181/181/181 180/180/180
f 182/182/182 180/180/180 181/181/181
f 181/181/181 183/183/183 182/182/182
f 184/184/184 182/182/182 183/183/183
f 183/183/183 185/185/185 184/184/184
f 186/186/186 184/184/184 185/185/185
f 185/185/185 187/187/187 186/186/186
f 188/188/188 186/186/186 187/187/187
f 187/187/187 189/189/189 188/188/188
f 190/190/190 188/188/188 189/189/189
f 189/189/189 191/191/191 190/190/190
f 192/192/192 190/190/190 191/191/191
f 191/191/191 193/193/193 192/192/192
f 194/194/194 192/192/192 193/193/193
f 193/193/193 195/195/195 194/194/194
f 196/196/196 194/194/194 195/195/195
f 195/195/195 197/197/197 196/196/196
f 198/198/198 196/196/196 197/197/197
f 197/197/197 199/199/199 198/198/198
f 200/200/200 198/198/198 199/199/199
f 199/199/199 201/201/201 200/200/200
f 202/202/202 200/200/200 201/201/201
