g Combined Mesh (root: scene) 5
v 4.1184864 -2.29922724 0.047709845
v 4.1184864 -2.29922724 -0.0110636894
v 4.1184864 -2.54016352 -0.0110636894
v 4.1184864 -2.54016352 0.047709845
v 4.1184864 -2.29922724 -0.0110636894
v 3.87755013 -2.29922724 -0.0110636894
v 3.87755013 -2.54016352 -0.0110636894
v 4.1184864 -2.54016352 -0.0110636894
v 3.87755013 -2.29922724 -0.0110636894
v 3.87755013 -2.29922724 0.047709845
v 3.87755013 -2.54016352 0.047709845
v 3.87755013 -2.54016352 -0.0110636894
v 4.1184864 -2.54016352 0.047709845
v 4.1184864 -2.54016352 -0.0110636894
v 3.87755013 -2.54016352 -0.0110636894
v 3.87755013 -2.54016352 0.047709845
v 3.87755013 -2.29922724 0.047709845
v 3.87755013 -2.29922724 -0.0110636894
v 4.1184864 -2.29922724 -0.0110636894
v 4.1184864 -2.29922724 0.047709845
v 4.31394625 -3.63734674 -2.20596838
v 4.31394625 -3.63734674 -2.80977368
v 4.29033947 -3.63734674 -2.80977368
v 4.29033947 -3.63734674 -2.20596838
v 4.28771591 -3.63472462 -2.80715132
v 4.28771591 -3.63472462 -2.20596838
v 4.28771496 -1.67747712 -2.20596838
v 4.28771496 -1.67747712 -2.80715132
v 4.29033947 -3.63734674 -2.80977368
v 4.29033947 -1.67485332 -2.80977368
v 4.29033947 -1.67485332 -2.80977368
v 4.31394625 -3.63734674 -2.80977368
v 4.31394625 -1.6748544 -2.80977368
v 4.29033947 -1.67485332 -2.20596838
v 4.31394625 -1.6748544 -2.80977368
v 4.31394625 -1.6748544 -2.20596838
v 2.64542246 -2.18274593 0.0146495225
v 2.77218819 -2.37257481 0.0146495225
v 2.83027482 -2.34968758 0.0146535849
v 2.69097471 -2.14438868 0.0146535849
v 2.5205977 -2.04397798 0.0146495225
v 2.54471874 -1.98696375 0.0146535849
v 2.37039685 -1.94143653 0.0146495225
v 2.37488365 -1.87392569 0.0146535849
v 2.18666387 -1.86682463 0.0146495225
v 2.18268681 -1.79586101 0.0146535849
v 1.99694955 -1.8148458 0.0146495225
v 1.9904933 -1.74279797 0.0146535849
v 1.80137706 -1.77890027 0.0146495225
v 1.79290652 -1.70667958 0.0146535849
v 1.54500985 -1.76231468 0.0146495225
v 1.53476334 -1.69541824 0.0146535849
v 1.14509475 -1.76244593 0.0146495514
v 1.1484046 -1.69542921 0.0146535467
v 1.04797006 -1.68046534 0.0146535467
v 1.04459119 -1.74809551 0.0146496659
v 0.8440907 -1.6203903 0.0125282081
v 0.840808213 -1.69062495 0.0145525336
v 0.820059896 -1.5426302 0.00983650237
v 1.28371561 -1.64989948 0.0146521851
v 0.85820502 -1.49811971 0.0147467703
v 1.26198089 -1.70216334 0.0144326836
v 1.6773057 -1.72438204 0.0146521851
v 1.68266523 -1.78412783 0.0144326836
v 2.13652253 -1.77063739 0.0146521851
v 2.15279889 -1.83071339 0.0144326836
v 2.65363073 -1.81452119 0.0146521851
v 2.66930079 -1.87451851 0.0144326836
v 3.04537511 -1.87264681 0.0146521851
v 3.05121732 -1.93244386 0.0144326836
v 3.30845428 -2.00566053 0.0144326836
v 3.30504656 -1.94484782 0.0146521851
v 3.55345106 -2.0483408 0.0146521851
v 3.5375917 -2.10226321 0.0144326836
v 3.73699117 -2.23245072 0.0144326836
v 3.75352192 -2.17700243 0.0146521851
v 4.01432896 -2.42962551 0.0146521851
v 3.96845675 -2.46145105 0.0144326836
v 4.09571266 -2.66696692 0.0144326836
v 4.14336252 -2.63320637 0.0146521851
v 1.06434536 -1.48505247 0.047709845
v 1.06434536 -1.48505247 -0.0110636912
v 1.06434536 -1.72598875 -0.0110636912
v 1.06434536 -1.72598875 0.047709845
v 1.06434536 -1.48505247 -0.0110636912
v 0.930213332 -1.48505247 -0.0110636912
v 0.930213332 -1.72598875 -0.0110636912
v 1.06434536 -1.72598875 -0.0110636912
v 0.930213332 -1.48505247 -0.0110636912
v 0.930213332 -1.48505247 0.047709845
v 0.930213332 -1.72598875 0.047709845
v 0.930213332 -1.72598875 -0.0110636912
v 1.06434536 -1.72598875 0.047709845
v 1.06434536 -1.72598875 -0.0110636912
v 0.930213332 -1.72598875 -0.0110636912
v 0.930213332 -1.72598875 0.047709845
v 0.930213332 -1.48505247 0.047709845
v 0.930213332 -1.48505247 -0.0110636912
v 1.06434536 -1.48505247 -0.0110636912
v 1.06434536 -1.48505247 0.047709845
v 2.83943677 -2.27459097 0.047709845
v 2.83943677 -2.27459097 -0.0110636894
v 2.83943677 -2.51552701 -0.0110636894
v 2.83943677 -2.51552701 0.047709845
v 2.83943677 -2.27459097 -0.0110636894
v 2.70530462 -2.27459097 -0.0110636894
v 2.70530462 -2.51552701 -0.0110636894
v 2.83943677 -2.51552701 -0.0110636894
v 2.70530462 -2.27459097 -0.0110636894
v 2.70530462 -2.27459097 0.047709845
v 2.70530462 -2.51552701 0.047709845
v 2.70530462 -2.51552701 -0.0110636894
v 2.83943677 -2.51552701 0.047709845
v 2.83943677 -2.51552701 -0.0110636894
v 2.70530462 -2.51552701 -0.0110636894
v 2.70530462 -2.51552701 0.047709845
v 2.70530462 -2.27459097 0.047709845
v 2.70530462 -2.27459097 -0.0110636894
v 2.83943677 -2.27459097 -0.0110636894
v 2.83943677 -2.27459097 0.047709845
vt 0.437946439 0.540877581
vt 0.437946439 0.55113554
vt 0.448204398 0.55113554
vt 0.448204398 0.540877581
vt 0.437946439 0.55113554
vt 0.437946439 0.561393499
vt 0.448204398 0.561393499
vt 0.448204398 0.55113554
vt 0.437946439 0.561393499
vt 0.437946439 0.571651459
vt 0.448204398 0.571651459
vt 0.448204398 0.561393499
vt 0.448204398 0.540877581
vt 0.448204398 0.55113554
vt 0.458462358 0.55113554
vt 0.458462358 0.540877581
vt 0.427688479 0.540877581
vt 0.427688479 0.55113554
vt 0.437946439 0.55113554
vt 0.437946439 0.540877581
vt 0.00272167474 0.720001101
vt 0.00272167474 0.790788591
vt 0.00409201533 0.790788412
vt 0.00409235805 0.720001817
vt 0.00454711169 0.790476859
vt 0.00454965979 0.720000446
vt 0.234010965 0.720001817
vt 0.234013334 0.790473104
vt 0.00424677879 0.790907204
vt 0.234468773 0.790748358
vt 0.234319299 0.790906549
vt 0.00424405187 0.7928707
vt 0.234316558 0.792869985
vt 0.234468251 0.719990849
vt 0.235834673 0.790741861
vt 0.235835195 0.719989359
vt 0.0693023726 0.0263800491
vt 0.0411870107 0.0263800491
vt 0.034243755 0.0487542786
vt 0.0649607405 0.0487542786
vt 0.0943838581 0.0263800491
vt 0.0940691754 0.0487542786
vt 0.12108063 0.0263800491
vt 0.124098562 0.0487542786
vt 0.15098986 0.0263800491
vt 0.155386418 0.0487542786
vt 0.180517852 0.0263800491
vt 0.185322225 0.0487542786
vt 0.210004181 0.0263800491
vt 0.21510151 0.0487542786
vt 0.247005612 0.0263800491
vt 0.252065212 0.0487542786
vt 0.303319544 0.0263800491
vt 0.306476474 0.0487542786
vt 0.321429908 0.0487542786
vt 0.318249464 0.0263800491
vt 0.353390485 0.0487542786
vt 0.350055695 0.0263800491
vt 0.568002224 0.0263800491
vt 0.508505344 0.0487542786
vt 0.566647112 0.0487542786
vt 0.507137835 0.0263800491
vt 0.462248236 0.0487542786
vt 0.457496852 0.0263800491
vt 0.412448406 0.0487542786
vt 0.406604439 0.0263800491
vt 0.35618481 0.0487542786
vt 0.350407481 0.0263800491
vt 0.309532553 0.0487542786
vt 0.304715186 0.0263800491
vt 0.269415408 0.0263800491
vt 0.274203658 0.0487542786
vt 0.23547928 0.0487542786
vt 0.23350592 0.0263800491
vt 0.197641745 0.0263800491
vt 0.199641854 0.0487542786
vt 0.146550581 0.0487542786
vt 0.150163099 0.0263800491
vt 0.118082657 0.0263800491
vt 0.114382647 0.0487542786
vt 0.433377922 0.545106649
vt 0.433346093 0.54998368
vt 0.45333904 0.550114095
vt 0.453370869 0.545237005
vt 0.433346093 0.54998368
vt 0.433273494 0.561113954
vt 0.453266442 0.561244428
vt 0.45333904 0.550114095
vt 0.433273494 0.561113954
vt 0.433241665 0.565990984
vt 0.453234613 0.566121399
vt 0.453266442 0.561244428
vt 0.453370869 0.545237005
vt 0.45333904 0.550114095
vt 0.464469343 0.550186694
vt 0.464501172 0.545309603
vt 0.422247589 0.545033932
vt 0.42221579 0.549911082
vt 0.433346093 0.54998368
vt 0.433377922 0.545106649
vt 0.433377922 0.545106649
vt 0.433346093 0.54998368
vt 0.45333904 0.550114095
vt 0.453370869 0.545237005
vt 0.433346093 0.54998368
vt 0.433273494 0.561113954
vt 0.453266442 0.561244428
vt 0.45333904 0.550114095
vt 0.433273494 0.561113954
vt 0.433241665 0.565990984
vt 0.453234613 0.566121399
vt 0.453266442 0.561244428
vt 0.453370869 0.545237005
vt 0.45333904 0.550114095
vt 0.464469343 0.550186694
vt 0.464501172 0.545309603
vt 0.422247589 0.545033932
vt 0.42221579 0.549911082
vt 0.433346093 0.54998368
vt 0.433377922 0.545106649
vn 1 0 0
vn 1 0 0
vn 1 0 0
vn 1 0 0
vn -0 0 -1
vn -0 0 -1
vn -0 0 -1
vn -0 0 -1
vn -1 0 0
vn -1 0 0
vn -1 0 0
vn -1 0 0
vn -0 -1 0
vn -0 -1 0
vn -0 -1 0
vn -0 -1 0
vn -0 1 0
vn -0 1 0
vn -0 1 0
vn -0 1 0
vn -0 -1 0
vn -0 -1 0
vn -0.0839033872 -0.426806688 -0.900442302
vn -0.0993658304 -0.995050967 -0
vn -0.999990582 -0.00185748958 -0.00391890248
vn -0.999999166 -0.00134057715 -0
vn -0.999999166 0.00134057284 0
vn -0.999990582 0.00185748318 -0.00391890248
vn -0.0839033872 -0.426806688 -0.900442302
vn -0.0839040354 0.426806659 -0.900442243
vn -0.0839040354 0.426806659 -0.900442243
vn -0 0 -1
vn -0 0 -1
vn -0.0993681848 0.995050728 0
vn -0 1 0
vn -0 1 0
vn 5.41998343E-05 4.19599492E-05 -1
vn 5.60828739E-05 3.77648757E-05 -1
vn 5.60828739E-05 3.77648757E-05 -1
vn 5.4109747E-05 4.21606273E-05 -1
vn 4.62393291E-05 5.10599348E-05 -1
vn 4.35127185E-05 5.28758173E-05 -1
vn 3.23179083E-05 5.73449033E-05 -1
vn 2.84887574E-05 5.79042498E-05 -1
vn 2.07432695E-05 5.83523833E-05 -1
vn 1.88279937E-05 5.82033099E-05 -1
vn 1.37117213E-05 5.77443134E-05 -1
vn 1.26258892E-05 5.76302737E-05 -1
vn -0 5.81034546E-05 -1
vn -0 5.83137989E-05 -1
vn -0 5.95605306E-05 -1
vn -0 5.97073558E-05 -1
vn -0 5.97620347E-05 -1
vn -0 5.97422986E-05 -1
vn 0.000872283126 -0.0105707608 -0.999943733
vn 0.000763011398 -0.00922709145 -0.999957204
vn 0.00120905938 -0.0147119658 -0.999891043
vn 0.00120905926 -0.0147119658 -0.999891043
vn 0.0230739359 0.0397274084 -0.998944104
vn 0.012642825 0.0228013694 -0.999660015
vn 0.0230739396 0.0397274122 -0.998944104
vn 0.0131629938 0.0236454401 -0.999633789
vn 0.00071552 0.00374650909 -0.999992728
vn 0.000655039155 0.00373781007 -0.999992847
vn 0.000447124941 0.00371726067 -0.999992967
vn 0.000432993227 0.00371910515 -0.999992967
vn 0.000498231326 0.00372669776 -0.999992967
vn 0.000550665543 0.00372876413 -0.999992967
vn 0.000841714616 0.00371620408 -0.999992728
vn 0.000929499744 0.00370678632 -0.999992728
vn 0.00143541303 0.00364872278 -0.999992371
vn 0.00133093179 0.00366143859 -0.99999249
vn 0.00183935079 0.00352018513 -0.999992132
vn 0.00191738748 0.00348543748 -0.999992132
vn 0.00267634005 0.00308498438 -0.999991655
vn 0.00250482582 0.00318304962 -0.999991775
vn 0.00306230225 0.00254169875 -0.999992132
vn 0.00304581434 0.00258303294 -0.999992013
vn 0.00326119992 0.00204306468 -0.999992609
vn 0.00326119945 0.00204306445 -0.999992609
vn 1 0 0
vn 1 0 0
vn 1 0 0
vn 1 0 0
vn -0 0 -1
vn -0 0 -1
vn -0 0 -1
vn -0 0 -1
vn -1 0 0
vn -1 0 0
vn -1 0 0
vn -1 0 0
vn -0 -1 0
vn -0 -1 0
vn -0 -1 0
vn -0 -1 0
vn -0 1 0
vn -0 1 0
vn -0 1 0
vn -0 1 0
vn 1 0 0
vn 1 0 0
vn 1 0 0
vn 1 0 0
vn -0 0 -1
vn -0 0 -1
vn -0 0 -1
vn -0 0 -1
vn -1 0 0
vn -1 0 0
vn -1 0 0
vn -1 0 0
vn -0 -1 0
vn -0 -1 0
vn -0 -1 0
vn -0 -1 0
vn -0 1 0
vn -0 1 0
vn -0 1 0
vn -0 1 0
g Combined Mesh (root: scene) 5_0
f 3/3/3 2/2/2 1/1/1
f 4/4/4 3/3/3 1/1/1
f 7/7/7 6/6/6 5/5/5
f 8/8/8 7/7/7 5/5/5
f 11/11/11 10/10/10 9/9/9
f 12/12/12 11/11/11 9/9/9
f 15/15/15 14/14/14 13/13/13
f 16/16/16 15/15/15 13/13/13
f 19/19/19 18/18/18 17/17/17
f 20/20/20 19/19/19 17/17/17
g Combined Mesh (root: scene) 5_1
f 23/23/23 22/22/22 21/21/21
f 24/24/24 23/23/23 21/21/21
f 25/25/25 23/23/23 24/24/24
f 26/26/26 25/25/25 24/24/24
f 26/26/26 27/27/27 25/25/25
f 27/27/27 28/28/28 25/25/25
f 25/25/25 28/28/28 29/29/29
f 28/28/28 27/27/27 30/30/30
f 28/28/28 31/31/31 29/29/29
f 29/29/29 31/31/31 32/32/32
f 31/31/31 33/33/33 32/32/32
f 27/27/27 34/34/34 30/30/30
f 30/30/30 34/34/34 35/35/35
f 34/34/34 36/36/36 35/35/35
g Combined Mesh (root: scene) 5_2
f 39/39/39 38/38/38 37/37/37
f 40/40/40 39/39/39 37/37/37
f 40/40/40 37/37/37 41/41/41
f 42/42/42 40/40/40 41/41/41
f 42/42/42 41/41/41 43/43/43
f 44/44/44 42/42/42 43/43/43
f 44/44/44 43/43/43 45/45/45
f 46/46/46 44/44/44 45/45/45
f 46/46/46 45/45/45 47/47/47
f 48/48/48 46/46/46 47/47/47
f 48/48/48 47/47/47 49/49/49
f 50/50/50 48/48/48 49/49/49
f 50/50/50 49/49/49 51/51/51
f 52/52/52 50/50/50 51/51/51
f 52/52/52 51/51/51 53/53/53
f 54/54/54 52/52/52 53/53/53
f 54/54/54 53/53/53 55/55/55
f 53/53/53 56/56/56 55/55/55
f 55/55/55 56/56/56 57/57/57
f 56/56/56 58/58/58 57/57/57
g Combined Mesh (root: scene) 5_3
f 61/61/61 60/60/60 59/59/59
f 60/60/60 62/62/62 59/59/59
f 60/60/60 63/63/63 62/62/62
f 63/63/63 64/64/64 62/62/62
f 63/63/63 65/65/65 64/64/64
f 65/65/65 66/66/66 64/64/64
f 65/65/65 67/67/67 66/66/66
f 67/67/67 68/68/68 66/66/66
f 67/67/67 69/69/69 68/68/68
f 69/69/69 70/70/70 68/68/68
f 71/71/71 70/70/70 69/69/69
f 72/72/72 71/71/71 69/69/69
f 72/72/72 73/73/73 71/71/71
f 73/73/73 74/74/74 71/71/71
f 75/75/75 74/74/74 73/73/73
f 76/76/76 75/75/75 73/73/73
f 76/76/76 77/77/77 75/75/75
f 77/77/77 78/78/78 75/75/75
f 79/79/79 78/78/78 77/77/77
f 80/80/80 79/79/79 77/77/77
g Combined Mesh (root: scene) 5_4
f 83/83/83 82/82/82 81/81/81
f 84/84/84 83/83/83 81/81/81
f 87/87/87 86/86/86 85/85/85
f 88/88/88 87/87/87 85/85/85
f 91/91/91 90/90/90 89/89/89
f 92/92/92 91/91/91 89/89/89
f 95/95/95 94/94/94 93/93/93
f 96/96/96 95/95/95 93/93/93
f 99/99/99 98/98/98 97/97/97
f 100/100/100 99/99/99 97/97/97
g Combined Mesh (root: scene) 5_5
f 103/103/103 102/102/102 101/101/101
f 104/104/104 103/103/103 101/101/101
f 107/107/107 106/106/106 105/105/105
f 108/108/108 107/107/107 105/105/105
f 111/111/111 110/110/110 109/109/109
f 112/112/112 111/111/111 109/109/109
f 115/115/115 114/114/114 113/113/113
f 116/116/116 115/115/115 113/113/113
f 119/119/119 118/118/118 117/117/117
f 120/120/120 119/119/119 117/117/117
