g Plane001
v 0.0157026015 -0.909822822 7.52080996E-06
v 0.0683172196 -0.606548548 6.59892294E-06
v 0.0471078306 -0.909822822 7.52080996E-06
v 0.0227724221 -0.606548548 6.59892294E-06
v -0.0157026146 -0.909822822 7.52080996E-06
v 0.091685757 -0.303274274 5.54440203E-06
v -0.0227723978 -0.606548548 6.59892294E-06
v -0.0471078195 -0.909822822 7.52080996E-06
v -0.0683171824 -0.606548548 6.59892339E-06
v 0.0305619426 -0.303274274 5.54440203E-06
v 0.117213555 -9.68933094E-08 4.35724951E-06
v -0.0305619296 -0.303274214 5.54440248E-06
v -0.0916857645 -0.303274274 5.54440203E-06
v 0.0390711613 -9.68933094E-08 4.35724951E-06
v 0.144900575 0.303274214 3.03746583E-06
v -0.0390711837 -9.68933094E-08 4.35724951E-06
v -0.117213532 -9.68933094E-08 4.35724951E-06
v 0.0483001769 0.303274214 3.03746583E-06
v 0.174746722 0.606548429 1.58504952E-06
v -0.0483001992 0.303274214 3.03746583E-06
v -0.144900545 0.303274125 3.03746515E-06
v 0.0582489148 0.606548429 1.58504952E-06
v 0.206752196 0.909822643 5.19424618E-13
v 0.0689174011 0.909822643 5.19424618E-13
v -0.0582489409 0.606548429 1.58504952E-06
v -0.174746767 0.606548429 1.58504952E-06
v -0.068917416 0.909822643 5.19424618E-13
v -0.206752196 0.909822643 5.19424618E-13
vt 2.38418579E-07 0.666666627
vt 0.166666925 0.999999881
vt 2.38418579E-07 0.99999994
vt 0.166666806 0.666666567
vt 1.1920929E-07 0.333333313
vt 0.333333611 0.999999821
vt 0.166666746 0.333333254
vt 0 -5.96046448E-08
vt 0.166666687 -1.1920929E-07
vt 0.333333492 0.666666508
vt 0.500000238 0.999999821
vt 0.333333373 0.333333254
vt 0.333333313 -1.1920929E-07
vt 0.500000179 0.666666508
vt 0.666666925 0.999999762
vt 0.50000006 0.333333135
vt 0.49999994 -1.78813934E-07
vt 0.666666865 0.666666448
vt 0.833333611 0.999999702
vt 0.666666746 0.333333135
vt 0.666666746 -1.78813934E-07
vt 0.833333552 0.666666389
vt 1.00000024 0.999999702
vt 1.00000024 0.666666389
vt 0.833333433 0.333333075
vt 0.833333373 -3.57627869E-07
vt 1.00000012 0.333333075
vt 1 -3.57627869E-07
vn -0 3.03978027E-06 1
vn -0 3.2686396E-06 1
vn -0 3.03978027E-06 1
vn -0 3.25844962E-06 1
vn -0 3.03977959E-06 1
vn -0 3.70695898E-06 1
vn -0 3.2584494E-06 1
vn -0 3.03977913E-06 1
vn -0 3.26863938E-06 1
vn -0 3.69578584E-06 1
vn -0 4.14527267E-06 1
vn -0 3.69578606E-06 1
vn -0 3.70695898E-06 1
vn -0 4.13311818E-06 1
vn -0 4.58358681E-06 1
vn -0 4.13311864E-06 1
vn -0 4.14527312E-06 1
vn -0 4.57045144E-06 1
vn -0 5.02190278E-06 1
vn -0 4.57045098E-06 1
vn -0 4.58358545E-06 1
vn -0 5.00778697E-06 1
vn -0 5.22645541E-06 1
vn -0 5.22645496E-06 1
vn -0 5.00778606E-06 1
vn -0 5.02190096E-06 1
vn -0 5.22645496E-06 1
vn -0 5.22645541E-06 1
g Plane001_0
f 3/3/3 2/2/2 1/1/1
f 2/2/2 4/4/4 1/1/1
f 1/1/1 4/4/4 5/5/5
f 2/2/2 6/6/6 4/4/4
f 4/4/4 7/7/7 5/5/5
f 5/5/5 7/7/7 8/8/8
f 7/7/7 9/9/9 8/8/8
f 6/6/6 10/10/10 4/4/4
f 4/4/4 10/10/10 7/7/7
f 6/6/6 11/11/11 10/10/10
f 7/7/7 12/12/12 9/9/9
f 10/10/10 12/12/12 7/7/7
f 12/12/12 13/13/13 9/9/9
f 11/11/11 14/14/14 10/10/10
f 10/10/10 14/14/14 12/12/12
f 11/11/11 15/15/15 14/14/14
f 12/12/12 16/16/16 13/13/13
f 14/14/14 16/16/16 12/12/12
f 16/16/16 17/17/17 13/13/13
f 15/15/15 18/18/18 14/14/14
f 14/14/14 18/18/18 16/16/16
f 15/15/15 19/19/19 18/18/18
f 16/16/16 20/20/20 17/17/17
f 18/18/18 20/20/20 16/16/16
f 20/20/20 21/21/21 17/17/17
f 19/19/19 22/22/22 18/18/18
f 18/18/18 22/22/22 20/20/20
f 19/19/19 23/23/23 22/22/22
f 23/23/23 24/24/24 22/22/22
f 20/20/20 25/25/25 21/21/21
f 22/22/22 25/25/25 20/20/20
f 22/22/22 24/24/24 25/25/25
f 25/25/25 26/26/26 21/21/21
f 24/24/24 27/27/27 25/25/25
f 25/25/25 27/27/27 26/26/26
f 27/27/27 28/28/28 26/26/26
