g Plane001
v 0.138860643 -0.179365024 -0.0220599137
v 0.162778169 -0.187240243 0.0394252315
v 0.157572865 -0.184256151 -0.0228377171
v 0.141299963 -0.18274264 0.0385830589
v 0.120111421 -0.173518434 -0.0211446937
v 0.169702545 -0.169208437 0.100515738
v 0.119870007 -0.177044645 0.0375395268
v 0.101319835 -0.166727364 -0.0200951155
v 0.145238414 -0.165693939 0.0984338671
v 0.17943193 -0.131644413 0.153490365
v 0.0984964073 -0.170161322 0.0362987369
v 0.0824800059 -0.159002587 -0.0189144202
v 0.12091855 -0.160849556 0.0956593901
v 0.151852369 -0.129437745 0.150827944
v 0.192621887 -0.0783894733 0.192228779
v 0.0771880224 -0.162108034 0.0348662958
v 0.0635856763 -0.15035516 -0.0176058467
v 0.0967713445 -0.154693842 0.0922088847
v 0.124507517 -0.125960648 0.14686574
v 0.161931112 -0.0774457902 0.189779222
v 0.209444478 -0.0151927676 0.212216839
v 0.055954773 -0.152899966 0.0332473926
v 0.0446299799 -0.140795857 -0.0161734
v 0.072827749 -0.147245109 0.08810056
v 0.0974508673 -0.121232301 0.141636238
v 0.131543428 -0.075540401 0.185377896
v 0.175804317 -0.015065792 0.210719258
v 0.229604781 0.0509884097 0.211130708
v 0.0348072499 -0.142552182 0.0314477235
v 0.0256052688 -0.130335569 -0.0146204643
v 0.049122896 -0.138521805 0.0833537877
v 0.0707424507 -0.115271702 0.135174677
v 0.101540118 -0.0726888329 0.179074883
v 0.142500609 -0.014568883 0.206674516
v 0.193332434 0.0510896556 0.211071342
v 0.252419174 0.112845875 0.189141929
v 0.0137577113 -0.131079823 0.0294731371
v 0.00650345488 -0.118985347 -0.0129511338
v -0.00718098134 -0.118498169 0.0273304023
v 0.025695743 -0.128542334 0.0779892579
v 0.00258961902 -0.117325023 0.0720293298
v -0.0201472435 -0.10488838 0.0654978454
v 0.213958159 0.113918163 0.190585643
v 0.276940703 0.163626358 0.148901761
v 0.157388106 0.0506932177 0.208047256
v 0.0444495864 -0.108097874 0.127519026
v -0.00657554343 -0.0901871249 0.108793139
v -0.0311260074 -0.0794883519 0.0978151038
v 0.0186484009 -0.0997301564 0.118710391
v 0.236805797 0.166664705 0.151390076
v 0.302111536 0.197968349 0.0952046737
v 0.0720123276 -0.0689067841 0.170924515
v -0.0126071759 -0.0521329232 0.136010259
v -0.0390427485 -0.0447842889 0.121118784
v 0.0148125403 -0.0586132444 0.149324819
v 0.0430637971 -0.0642096773 0.16098626
v 0.109640107 -0.0137081947 0.200149074
v -0.014680136 -0.00675638253 0.150810614
v -0.0431224406 -0.00417334959 0.133127719
v 0.0150131825 -0.00900791772 0.166454792
v 0.0457484201 -0.0109213302 0.179955319
v 0.0773434639 -0.0124902222 0.191215977
v 0.121896885 0.0498075336 0.202136889
v -0.0123578208 0.041561015 0.151510909
v -0.0429656915 0.0383690521 0.132666364
v 0.0196696334 0.0443102717 0.168002933
v 0.0528621785 0.0466068871 0.182013914
v 0.0870008171 0.0484425686 0.19342719
v 0.175775528 0.113401957 0.188949391
v -0.00563638052 0.0880758613 0.137802228
v -0.0385879055 0.0786789209 0.1197799
v 0.0287538413 0.0960703194 0.15339981
v 0.0643078461 0.102631159 0.166433156
v 0.100791082 0.107727408 0.176776275
v 0.138003901 0.111328013 0.184315711
v 0.19687058 0.166904792 0.151093304
v 0.00505342195 0.128148898 0.110803746
v -0.0304176193 0.112810142 0.0957297906
v 0.0417946391 0.141035438 0.123701468
v 0.0795481727 0.151411697 0.134291023
v 0.118096434 0.159220442 0.142454594
v 0.157255813 0.164404005 0.148086786
v 0.260819256 0.203722641 0.0977487192
v 0.326920509 0.212559387 0.0343727097
v 0.0188880675 0.15770936 0.0729753226
v -0.019254541 0.137421876 0.0628700629
v 0.0579265989 0.174535364 0.081520468
v 0.0976685509 0.187813431 0.0884068087
v 0.137953088 0.197457165 0.0935466588
v 0.178646073 0.203380853 0.096861586
v 0.284906834 0.22129719 0.0355563387
v 0.350538909 0.206524432 -0.0265571568
v 0.308086991 0.217843994 -0.0283692013
v 0.0347317941 0.173669353 0.0278928373
v -0.00619143387 0.150104746 0.0244174916
v 0.0759792253 0.192956373 0.0307962149
v 0.0512483977 0.174245536 -0.0200896543
v 0.00749300187 0.149617553 -0.0158640947
v 0.0945965052 0.194131419 -0.0235768482
v 0.137634784 0.209144741 -0.0262752585
v 0.117477484 0.207853854 0.0330899768
v 0.180442661 0.219153672 -0.0281400979
v 0.159165904 0.21824871 0.0347406492
v 0.223085314 0.2240275 -0.0291326847
v 0.200994119 0.224029571 0.0357187688
v 0.26561752 0.223634318 -0.0292188246
v 0.242920056 0.225082994 0.0359982513
v 0.219634145 0.205497995 0.0982828289
vt -5.31486251E-08 0.125
vt 0.049999956 0
vt -4.37113883E-08 0
vt 0.0499999486 0.125
vt -6.25858618E-08 0.25
vt 0.0999999568 0
vt 0.0499999374 0.25
vt -7.20230986E-08 0.375
vt 0.0999999493 0.125
vt 0.149999961 0
vt 0.04999993 0.375
vt -8.14603425E-08 0.5
vt 0.0999999419 0.25
vt 0.149999946 0.125
vt 0.199999958 0
vt 0.0499999188 0.5
vt -9.08975721E-08 0.625
vt 0.099999927 0.375
vt 0.149999946 0.25
vt 0.199999943 0.125
vt 0.24999997 0
vt 0.0499999113 0.625
vt -1.00334816E-07 0.75
vt 0.0999999195 0.5
vt 0.149999931 0.375
vt 0.199999943 0.25
vt 0.24999994 0.125
vt 0.299999982 0
vt 0.0499999002 0.75
vt -1.09772053E-07 0.875
vt 0.0999999121 0.625
vt 0.149999931 0.5
vt 0.199999928 0.375
vt 0.24999994 0.25
vt 0.299999952 0.125
vt 0.349999994 0
vt 0.0499998927 0.875
vt -1.1920929E-07 1
vt 0.0499998815 1
vt 0.0999999046 0.75
vt 0.0999998897 0.875
vt 0.0999998823 1
vt 0.349999964 0.125
vt 0.400000006 5.96046448E-08
vt 0.299999952 0.25
vt 0.149999917 0.625
vt 0.149999902 0.875
vt 0.149999887 1
vt 0.149999902 0.75
vt 0.399999976 0.12500006
vt 0.450000018 5.96046448E-08
vt 0.199999928 0.5
vt 0.199999899 0.875
vt 0.199999884 1
vt 0.199999899 0.75
vt 0.199999914 0.625
vt 0.24999994 0.375
vt 0.249999881 0.875
vt 0.249999881 1
vt 0.249999911 0.75
vt 0.249999911 0.625
vt 0.249999911 0.5
vt 0.299999952 0.375
vt 0.299999893 0.875
vt 0.299999893 1
vt 0.299999923 0.75
vt 0.299999923 0.625
vt 0.299999923 0.5
vt 0.349999964 0.25
vt 0.349999905 0.875
vt 0.349999905 1
vt 0.349999934 0.75
vt 0.349999934 0.625
vt 0.349999934 0.5
vt 0.349999964 0.375
vt 0.399999976 0.25000006
vt 0.399999917 0.875
vt 0.399999917 1
vt 0.399999946 0.75
vt 0.399999946 0.625
vt 0.399999946 0.5
vt 0.399999976 0.37500006
vt 0.449999988 0.12500006
vt 0.5 5.96046448E-08
vt 0.449999928 0.87500006
vt 0.449999928 1
vt 0.449999958 0.75
vt 0.449999958 0.625
vt 0.449999958 0.5
vt 0.449999988 0.37500006
vt 0.5 0.12500006
vt 0.550000012 5.96046448E-08
vt 0.550000012 0.12500006
vt 0.49999994 0.87500006
vt 0.49999994 1
vt 0.49999994 0.75000006
vt 0.549999952 0.87500006
vt 0.549999952 1
vt 0.549999952 0.75000006
vt 0.549999952 0.625
vt 0.49999994 0.625
vt 0.550000012 0.5
vt 0.5 0.5
vt 0.550000012 0.37500006
vt 0.5 0.37500006
vt 0.550000012 0.25000006
vt 0.5 0.25000006
vt 0.449999988 0.25000006
vn -0.251713425 -0.96682781 -0.0434104465
vn -0.206037298 -0.968544543 0.139535159
vn -0.227276936 -0.973155797 -0.0362349302
vn -0.233547464 -0.964829743 0.120661415
vn -0.298079491 -0.952781558 -0.0579299666
vn -0.162020341 -0.875590146 0.45507279
vn -0.28455478 -0.95294714 0.104499988
vn -0.341715217 -0.936932862 -0.0734003186
vn -0.19342266 -0.87980926 0.434192717
vn -0.12098904 -0.683931887 0.7194435
vn -0.332814038 -0.93898803 0.0868127123
vn -0.382490695 -0.919587851 -0.0897720382
vn -0.251203418 -0.873444557 0.417122751
vn -0.156101614 -0.697105706 0.699768484
vn -0.0810178444 -0.420361072 0.903732598
vn -0.378160805 -0.923262119 0.0676870793
vn -0.420340419 -0.90103519 -0.107002333
vn -0.306488097 -0.864939213 0.397423059
vn -0.220034152 -0.69498688 0.684527636
vn -0.119870372 -0.441782236 0.889077902
vn -0.0397296995 -0.116508529 0.992394686
vn -0.420510322 -0.906059623 0.0471909232
vn -0.455249399 -0.881538272 -0.12505345
vn -0.359060824 -0.854560435 0.375235766
vn -0.281682968 -0.691069245 0.665641069
vn -0.189755946 -0.441815585 0.876807749
vn -0.0825275853 -0.143710911 0.986172616
vn 0.00459570391 0.195669562 0.980659127
vn -0.459836334 -0.887640953 0.025379125
vn -0.4872365 -0.861333787 -0.143891126
vn -0.40880388 -0.842559636 0.350674719
vn -0.340798914 -0.685575128 0.643306255
vn -0.257459015 -0.440628856 0.859977365
vn -0.158527434 -0.143977329 0.97680068
vn -0.0423898809 0.166564897 0.985118926
vn 0.0525938198 0.485634655 0.872578263
vn -0.496153325 -0.868231952 0.0022897278
vn -0.505439043 -0.848729074 -0.1555323
vn -0.514841676 -0.857174158 0.013804486
vn -0.455678672 -0.829156518 0.323815316
vn -0.499702394 -0.8145262 0.294694036
vn -0.52217716 -0.79816705 0.300433576
vn 0.00123826531 0.459377319 0.888240397
vn 0.103914149 0.725525379 0.680304945
vn -0.124897107 0.167526245 0.977924168
vn -0.397262841 -0.678716958 0.61767745
vn -0.502315342 -0.661572397 0.556777656
vn -0.528197169 -0.643912613 0.553519905
vn -0.451073825 -0.670674145 0.588836551
vn 0.0480817817 0.706969798 0.705607474
vn 0.157594025 0.891993105 0.423689008
vn -0.322672576 -0.438386321 0.838868201
vn -0.502996027 -0.426772088 0.751572073
vn -0.531858325 -0.413263291 0.7391482
vn -0.44531998 -0.431344897 0.784622014
vn -0.385275304 -0.435246587 0.813709617
vn -0.232357979 -0.143812373 0.961939633
vn -0.501122236 -0.139947772 0.853985369
vn -0.532627761 -0.135082841 0.835500002
vn -0.437794775 -0.141305968 0.887901068
vn -0.372042835 -0.142424554 0.917223692
vn -0.303587615 -0.143275753 0.941969514
vn -0.205225646 0.167787582 0.964224994
vn -0.496467203 0.163901344 0.852441549
vn -0.530355155 0.158352613 0.832855344
vn -0.428184688 0.165404171 0.888425231
vn -0.357029706 0.166616067 0.91911304
vn -0.282711565 0.167448148 0.944476187
vn -0.0883241072 0.462604702 0.882153988
vn -0.489226848 0.448979467 0.747712791
vn -0.525178492 0.434387982 0.731775045
vn -0.416722834 0.454611957 0.787191212
vn -0.340359598 0.459097594 0.820600212
vn -0.259967089 0.462154865 0.847838402
vn -0.175744995 0.46343857 0.868526518
vn -0.0492294803 0.713115513 0.699315846
vn -0.480080783 0.681347549 0.552528739
vn -0.517555475 0.661303699 0.542967618
vn -0.40430671 0.693995833 0.595739722
vn -0.322969735 0.70412612 0.632373989
vn -0.236183345 0.711144269 0.662186742
vn -0.144548073 0.71435684 0.684689879
vn 0.0972241163 0.885173798 0.454988867
vn 0.212491587 0.968588173 0.129167721
vn -0.470192552 0.832887888 0.291918904
vn -0.50836271 0.811298072 0.288726002
vn -0.392372459 0.856046259 0.336494595
vn -0.30641824 0.87500006 0.374810278
vn -0.212858051 0.888547778 0.406416565
vn -0.112935148 0.89540416 0.430693805
vn 0.147564307 0.975825846 0.161210045
vn 0.230930269 0.97288847 0.0126246903
vn 0.184240609 0.982844114 0.00853752345
vn -0.461030453 0.88738364 0.00112014078
vn -0.498912603 0.866648614 0.00253026607
vn -0.382478833 0.923027813 0.0415878221
vn -0.445041925 0.884070218 -0.14267984
vn -0.488844991 0.856353104 -0.166403174
vn -0.365171403 0.924843013 -0.106373094
vn -0.272254854 0.959378481 -0.0739612058
vn -0.292335749 0.953190982 0.077244103
vn -0.167565003 0.98479712 -0.0457898937
vn -0.191562667 0.975563586 0.107607633
vn -0.0537576452 0.998304367 -0.022329472
vn -0.0822816938 0.987817466 0.132084325
vn 0.0651339814 0.99786818 -0.00408548675
vn 0.032168176 0.988148987 0.150089279
vn -0.00867687166 0.8944785 0.447026759
g Plane001_0
f 3/3/3 2/2/2 1/1/1
f 2/2/2 4/4/4 1/1/1
f 1/1/1 4/4/4 5/5/5
f 2/2/2 6/6/6 4/4/4
f 4/4/4 7/7/7 5/5/5
f 5/5/5 7/7/7 8/8/8
f 6/6/6 9/9/9 4/4/4
f 4/4/4 9/9/9 7/7/7
f 6/6/6 10/10/10 9/9/9
f 7/7/7 11/11/11 8/8/8
f 8/8/8 11/11/11 12/12/12
f 9/9/9 13/13/13 7/7/7
f 7/7/7 13/13/13 11/11/11
f 10/10/10 14/14/14 9/9/9
f 9/9/9 14/14/14 13/13/13
f 10/10/10 15/15/15 14/14/14
f 11/11/11 16/16/16 12/12/12
f 12/12/12 16/16/16 17/17/17
f 13/13/13 18/18/18 11/11/11
f 11/11/11 18/18/18 16/16/16
f 14/14/14 19/19/19 13/13/13
f 13/13/13 19/19/19 18/18/18
f 15/15/15 20/20/20 14/14/14
f 14/14/14 20/20/20 19/19/19
f 15/15/15 21/21/21 20/20/20
f 16/16/16 22/22/22 17/17/17
f 17/17/17 22/22/22 23/23/23
f 18/18/18 24/24/24 16/16/16
f 16/16/16 24/24/24 22/22/22
f 19/19/19 25/25/25 18/18/18
f 18/18/18 25/25/25 24/24/24
f 20/20/20 26/26/26 19/19/19
f 19/19/19 26/26/26 25/25/25
f 21/21/21 27/27/27 20/20/20
f 20/20/20 27/27/27 26/26/26
f 21/21/21 28/28/28 27/27/27
f 22/22/22 29/29/29 23/23/23
f 23/23/23 29/29/29 30/30/30
f 24/24/24 31/31/31 22/22/22
f 22/22/22 31/31/31 29/29/29
f 25/25/25 32/32/32 24/24/24
f 24/24/24 32/32/32 31/31/31
f 26/26/26 33/33/33 25/25/25
f 25/25/25 33/33/33 32/32/32
f 27/27/27 34/34/34 26/26/26
f 26/26/26 34/34/34 33/33/33
f 28/28/28 35/35/35 27/27/27
f 27/27/27 35/35/35 34/34/34
f 28/28/28 36/36/36 35/35/35
f 29/29/29 37/37/37 30/30/30
f 30/30/30 37/37/37 38/38/38
f 37/37/37 39/39/39 38/38/38
f 31/31/31 40/40/40 29/29/29
f 29/29/29 40/40/40 37/37/37
f 37/37/37 41/41/41 39/39/39
f 40/40/40 41/41/41 37/37/37
f 41/41/41 42/42/42 39/39/39
f 36/36/36 43/43/43 35/35/35
f 36/36/36 44/44/44 43/43/43
f 35/35/35 45/45/45 34/34/34
f 35/35/35 43/43/43 45/45/45
f 31/31/31 46/46/46 40/40/40
f 32/32/32 46/46/46 31/31/31
f 41/41/41 47/47/47 42/42/42
f 47/47/47 48/48/48 42/42/42
f 40/40/40 49/49/49 41/41/41
f 46/46/46 49/49/49 40/40/40
f 49/49/49 47/47/47 41/41/41
f 44/44/44 50/50/50 43/43/43
f 44/44/44 51/51/51 50/50/50
f 32/32/32 52/52/52 46/46/46
f 33/33/33 52/52/52 32/32/32
f 47/47/47 53/53/53 48/48/48
f 53/53/53 54/54/54 48/48/48
f 49/49/49 55/55/55 47/47/47
f 55/55/55 53/53/53 47/47/47
f 46/46/46 56/56/56 49/49/49
f 52/52/52 56/56/56 46/46/46
f 56/56/56 55/55/55 49/49/49
f 33/33/33 57/57/57 52/52/52
f 34/34/34 57/57/57 33/33/33
f 34/34/34 45/45/45 57/57/57
f 53/53/53 58/58/58 54/54/54
f 58/58/58 59/59/59 54/54/54
f 55/55/55 60/60/60 53/53/53
f 60/60/60 58/58/58 53/53/53
f 56/56/56 61/61/61 55/55/55
f 61/61/61 60/60/60 55/55/55
f 52/52/52 62/62/62 56/56/56
f 57/57/57 62/62/62 52/52/52
f 62/62/62 61/61/61 56/56/56
f 45/45/45 63/63/63 57/57/57
f 57/57/57 63/63/63 62/62/62
f 58/58/58 64/64/64 59/59/59
f 64/64/64 65/65/65 59/59/59
f 60/60/60 66/66/66 58/58/58
f 66/66/66 64/64/64 58/58/58
f 61/61/61 67/67/67 60/60/60
f 67/67/67 66/66/66 60/60/60
f 62/62/62 68/68/68 61/61/61
f 63/63/63 68/68/68 62/62/62
f 68/68/68 67/67/67 61/61/61
f 45/45/45 69/69/69 63/63/63
f 43/43/43 69/69/69 45/45/45
f 43/43/43 50/50/50 69/69/69
f 64/64/64 70/70/70 65/65/65
f 70/70/70 71/71/71 65/65/65
f 66/66/66 72/72/72 64/64/64
f 72/72/72 70/70/70 64/64/64
f 67/67/67 73/73/73 66/66/66
f 73/73/73 72/72/72 66/66/66
f 68/68/68 74/74/74 67/67/67
f 74/74/74 73/73/73 67/67/67
f 63/63/63 75/75/75 68/68/68
f 69/69/69 75/75/75 63/63/63
f 75/75/75 74/74/74 68/68/68
f 50/50/50 76/76/76 69/69/69
f 69/69/69 76/76/76 75/75/75
f 70/70/70 77/77/77 71/71/71
f 77/77/77 78/78/78 71/71/71
f 72/72/72 79/79/79 70/70/70
f 79/79/79 77/77/77 70/70/70
f 73/73/73 80/80/80 72/72/72
f 80/80/80 79/79/79 72/72/72
f 74/74/74 81/81/81 73/73/73
f 81/81/81 80/80/80 73/73/73
f 75/75/75 82/82/82 74/74/74
f 76/76/76 82/82/82 75/75/75
f 82/82/82 81/81/81 74/74/74
f 50/50/50 83/83/83 76/76/76
f 51/51/51 83/83/83 50/50/50
f 51/51/51 84/84/84 83/83/83
f 77/77/77 85/85/85 78/78/78
f 85/85/85 86/86/86 78/78/78
f 79/79/79 87/87/87 77/77/77
f 87/87/87 85/85/85 77/77/77
f 80/80/80 88/88/88 79/79/79
f 88/88/88 87/87/87 79/79/79
f 81/81/81 89/89/89 80/80/80
f 89/89/89 88/88/88 80/80/80
f 82/82/82 90/90/90 81/81/81
f 90/90/90 89/89/89 81/81/81
f 84/84/84 91/91/91 83/83/83
f 84/84/84 92/92/92 91/91/91
f 92/92/92 93/93/93 91/91/91
f 85/85/85 94/94/94 86/86/86
f 94/94/94 95/95/95 86/86/86
f 87/87/87 96/96/96 85/85/85
f 96/96/96 94/94/94 85/85/85
f 94/94/94 97/97/97 95/95/95
f 97/97/97 98/98/98 95/95/95
f 99/99/99 97/97/97 94/94/94
f 96/96/96 99/99/99 94/94/94
f 100/100/100 99/99/99 96/96/96
f 101/101/101 96/96/96 87/87/87
f 101/101/101 100/100/100 96/96/96
f 88/88/88 101/101/101 87/87/87
f 102/102/102 100/100/100 101/101/101
f 103/103/103 101/101/101 88/88/88
f 103/103/103 102/102/102 101/101/101
f 89/89/89 103/103/103 88/88/88
f 104/104/104 102/102/102 103/103/103
f 105/105/105 103/103/103 89/89/89
f 105/105/105 104/104/104 103/103/103
f 106/106/106 104/104/104 105/105/105
f 90/90/90 105/105/105 89/89/89
f 107/107/107 106/106/106 105/105/105
f 107/107/107 105/105/105 90/90/90
f 93/93/93 106/106/106 107/107/107
f 91/91/91 93/93/93 107/107/107
f 108/108/108 107/107/107 90/90/90
f 91/91/91 107/107/107 108/108/108
f 108/108/108 90/90/90 82/82/82
f 83/83/83 91/91/91 108/108/108
f 76/76/76 108/108/108 82/82/82
f 83/83/83 108/108/108 76/76/76
