g Plane003
v 1.12331617 0.0121558374 0
v 1.15459478 0.0504017361 0
v 1.16296685 0.0364058018 0
v 1.11496353 0.0261633806 0
v 1.14622271 0.0643976703 0
v 1.08120322 -0.00989393983 0
v 1.10661077 0.0401709229 0
v 1.07483578 0.00512042688 0
v 1.03615892 -0.0217060558 0
v 1.06846809 0.0201347955 0
v 1.03496778 -0.00544081163 0
v 0.988984883 -0.0129013248 0
v 1.03377652 0.0108244326 0
v 0.996115804 0.00176590914 0
v 0.948702335 0.0164502356 0
v 1.00324655 0.0164331328 0
v 0.959522903 0.0286524985 0
v 0.912680924 0.0491196401 0
v 0.970343351 0.0408547521 0
v 0.923351288 0.061453335 0
v 0.880439281 0.0718479678 0
v 0.934021652 0.073787041 0
v 0.887370527 0.0866105705 0
v 0.856649756 0.0750263408 0
v 0.894301772 0.101373166 0
v 0.851753831 0.0905829147 0
v 0.82780838 0.0535989366 0
v 0.846857786 0.106139474 0
v 0.816665351 0.0655073896 0
v 0.792389393 0.0187414717 0
v 0.805522501 0.0774158612 0
v 0.781045198 0.0304583944 0
v 0.754063725 -0.0127158556 0
v 0.769700944 0.0421753153 0
v 0.745544434 0.00119088055 0
v 0.708212912 -0.0236948766 0
v 0.737025082 0.0150976153 0
v 0.711202621 -0.0076624495 0
v 0.66621381 0.00399214542 0
v 0.714192271 0.00836997759 0
v 0.677428722 0.01583286 0
v 0.634054124 0.0347188301 0
v 0.688643694 0.0276735779 0
v 0.645024121 0.0467868075 0
v 0.603926718 0.0576964356 0
v 0.655994117 0.0588547774 0
v 0.612097085 0.0718110502 0
v 0.571341693 0.0691546053 0
v 0.620267391 0.0859256685 0
v 0.573547363 0.085313566 0
v 0.531227112 0.067862168 0
v 0.575752974 0.101472542 0
v 0.529085517 0.084029749 0
v 0.491731465 0.0591888838 0
v 0.526943922 0.10019733 0
v 0.486835629 0.0747454837 0
v 0.455062956 0.0436681323 0
v 0.481939763 0.0903020874 0
v 0.447251379 0.0579844378 0
v 0.417305738 0.0180582721 0
v 0.439439803 0.0723007545 0
v 0.4081949 0.0315848961 0
v 0.363103181 -0.0075217397 0
v 0.399084032 0.0451115221 0
v 0.358426452 0.00810212735 0
v 0.31188345 -0.0162655022 0
v 0.353749722 0.0237259939 0
v 0.31102854 2.08730944E-05 0
v 0.269245356 -0.0147006726 0
v 0.310173631 0.0163072553 0
v 0.271271169 0.00148182258 0
v 0.24017255 -0.00911928806 0
v 0.273297012 0.017664317 0
v 0.244424134 0.00662558852 0
v 0.204230368 0.016884014 0
v 0.248675704 0.0223704651 0
v 0.215714082 0.0284642298 0
v 0.17393662 0.0401007012 0
v 0.227197811 0.0400444418 0
v 0.179819047 0.0553116798 0
v 0.139074072 0.0356265157 0
v 0.18570146 0.070522666 0
v 0.133202881 0.050841853 0
v 0.0971622989 0.0205568131 0
v 0.127331689 0.0660571903 0
v 0.0921606719 0.0360797271 0
v 0.0543194376 0.00924464781 0
v 0.0871590376 0.0516026393 0
v 0.051150728 0.0252426583 0
v 0.00871236809 0.00389665528 0
v 0.0479820222 0.0412406698 0
v 0.00815403834 0.0201959014 0
v 0.00759570859 0.0364951454 0
vt 0.966667056 0
vt 1.00000036 0.5
vt 1.00000036 0
vt 0.966667056 0.5
vt 1.00000036 1
vt 0.933333695 0
vt 0.966667056 1
vt 0.933333695 0.5
vt 0.900000334 0
vt 0.933333695 1
vt 0.900000334 0.5
vt 0.866666973 0
vt 0.900000334 1
vt 0.866666973 0.5
vt 0.833333611 0
vt 0.866666973 1
vt 0.833333611 0.5
vt 0.80000025 0
vt 0.833333611 1
vt 0.80000025 0.5
vt 0.766666889 0
vt 0.80000025 1
vt 0.766666889 0.5
vt 0.733333528 0
vt 0.766666889 1
vt 0.733333528 0.5
vt 0.700000167 0
vt 0.733333528 1
vt 0.700000167 0.5
vt 0.666666806 0
vt 0.700000167 1
vt 0.666666806 0.5
vt 0.633333445 0
vt 0.666666806 1
vt 0.633333445 0.5
vt 0.600000083 0
vt 0.633333445 1
vt 0.600000083 0.5
vt 0.566666722 0
vt 0.600000083 1
vt 0.566666722 0.5
vt 0.533333361 0
vt 0.566666722 1
vt 0.533333361 0.5
vt 0.5 0
vt 0.533333361 1
vt 0.5 0.5
vt 0.466666669 0
vt 0.5 1
vt 0.466666669 0.5
vt 0.433333337 0
vt 0.466666669 1
vt 0.433333337 0.5
vt 0.400000006 0
vt 0.433333337 1
vt 0.400000006 0.5
vt 0.366666675 0
vt 0.400000006 1
vt 0.366666675 0.5
vt 0.333333343 0
vt 0.366666675 1
vt 0.333333343 0.5
vt 0.300000012 0
vt 0.333333343 1
vt 0.300000012 0.5
vt 0.266666681 0
vt 0.300000012 1
vt 0.266666681 0.5
vt 0.233333334 0
vt 0.266666681 1
vt 0.233333334 0.5
vt 0.200000003 0
vt 0.233333334 1
vt 0.200000003 0.5
vt 0.166666672 0
vt 0.200000003 1
vt 0.166666672 0.5
vt 0.13333334 0
vt 0.166666672 1
vt 0.13333334 0.5
vt 0.100000009 0
vt 0.13333334 1
vt 0.100000009 0.5
vt 0.0666666701 0
vt 0.100000009 1
vt 0.0666666701 0.5
vt 0.0333333351 0
vt 0.0666666701 1
vt 0.0333333351 0.5
vt 0 0
vt 0.0333333351 1
vt 0 0.5
vt 0 1
vn -0 0 1
vn -0 0 1
vn -0 0 1
vn -0 0 1
vn -0 0 1
vn -0 0 1
vn -0 0 1
vn -0 0 1
vn -0 0 1
vn -0 0 1
vn -0 0 1
vn -0 0 1
vn -0 0 1
vn -0 0 1
vn -0 0 1
vn -0 0 1
vn -0 0 1
vn -0 0 1
vn -0 0 1
vn -0 0 1
vn -0 0 1
vn -0 0 1
vn -0 0 1
vn -0 0 1
vn -0 0 1
vn -0 0 1
vn -0 0 1
vn -0 0 1
vn -0 0 1
vn -0 0 1
vn -0 0 1
vn -0 0 1
vn -0 0 1
vn -0 0 1
vn -0 0 1
vn -0 0 1
vn -0 0 1
vn -0 0 1
vn -0 0 1
vn -0 0 1
vn -0 0 1
vn -0 0 1
vn -0 0 1
vn -0 0 1
vn -0 0 1
vn -0 0 1
vn -0 0 1
vn -0 0 1
vn -0 0 1
vn -0 0 1
vn -0 0 1
vn -0 0 1
vn -0 0 1
vn -0 0 1
vn -0 0 1
vn -0 0 1
vn -0 0 1
vn -0 0 1
vn -0 0 1
vn -0 0 1
vn -0 0 1
vn -0 0 1
vn -0 0 1
vn -0 0 1
vn -0 0 1
vn -0 0 1
vn -0 0 1
vn -0 0 1
vn -0 0 1
vn -0 0 1
vn -0 0 1
vn -0 0 1
vn -0 0 1
vn -0 0 1
vn -0 0 1
vn -0 0 1
vn -0 0 1
vn -0 0 1
vn -0 0 1
vn -0 0 1
vn -0 0 1
vn -0 0 1
vn -0 0 1
vn -0 0 1
vn -0 0 1
vn -0 0 1
vn -0 0 1
vn -0 0 1
vn -0 0 1
vn -0 0 1
vn -0 0 1
vn -0 0 1
vn -0 0 1
g Plane003_0
f 3/3/3 2/2/2 1/1/1
f 2/2/2 4/4/4 1/1/1
f 2/2/2 5/5/5 4/4/4
f 1/1/1 4/4/4 6/6/6
f 5/5/5 7/7/7 4/4/4
f 4/4/4 8/8/8 6/6/6
f 4/4/4 7/7/7 8/8/8
f 6/6/6 8/8/8 9/9/9
f 7/7/7 10/10/10 8/8/8
f 8/8/8 11/11/11 9/9/9
f 8/8/8 10/10/10 11/11/11
f 9/9/9 11/11/11 12/12/12
f 10/10/10 13/13/13 11/11/11
f 11/11/11 14/14/14 12/12/12
f 11/11/11 13/13/13 14/14/14
f 12/12/12 14/14/14 15/15/15
f 13/13/13 16/16/16 14/14/14
f 14/14/14 17/17/17 15/15/15
f 14/14/14 16/16/16 17/17/17
f 15/15/15 17/17/17 18/18/18
f 16/16/16 19/19/19 17/17/17
f 17/17/17 20/20/20 18/18/18
f 17/17/17 19/19/19 20/20/20
f 18/18/18 20/20/20 21/21/21
f 19/19/19 22/22/22 20/20/20
f 20/20/20 23/23/23 21/21/21
f 20/20/20 22/22/22 23/23/23
f 21/21/21 23/23/23 24/24/24
f 22/22/22 25/25/25 23/23/23
f 23/23/23 26/26/26 24/24/24
f 23/23/23 25/25/25 26/26/26
f 24/24/24 26/26/26 27/27/27
f 25/25/25 28/28/28 26/26/26
f 26/26/26 29/29/29 27/27/27
f 26/26/26 28/28/28 29/29/29
f 27/27/27 29/29/29 30/30/30
f 28/28/28 31/31/31 29/29/29
f 29/29/29 32/32/32 30/30/30
f 29/29/29 31/31/31 32/32/32
f 30/30/30 32/32/32 33/33/33
f 31/31/31 34/34/34 32/32/32
f 32/32/32 35/35/35 33/33/33
f 32/32/32 34/34/34 35/35/35
f 33/33/33 35/35/35 36/36/36
f 34/34/34 37/37/37 35/35/35
f 35/35/35 38/38/38 36/36/36
f 35/35/35 37/37/37 38/38/38
f 36/36/36 38/38/38 39/39/39
f 37/37/37 40/40/40 38/38/38
f 38/38/38 41/41/41 39/39/39
f 38/38/38 40/40/40 41/41/41
f 39/39/39 41/41/41 42/42/42
f 40/40/40 43/43/43 41/41/41
f 41/41/41 44/44/44 42/42/42
f 41/41/41 43/43/43 44/44/44
f 42/42/42 44/44/44 45/45/45
f 43/43/43 46/46/46 44/44/44
f 44/44/44 47/47/47 45/45/45
f 44/44/44 46/46/46 47/47/47
f 45/45/45 47/47/47 48/48/48
f 46/46/46 49/49/49 47/47/47
f 47/47/47 50/50/50 48/48/48
f 47/47/47 49/49/49 50/50/50
f 48/48/48 50/50/50 51/51/51
f 49/49/49 52/52/52 50/50/50
f 50/50/50 53/53/53 51/51/51
f 50/50/50 52/52/52 53/53/53
f 51/51/51 53/53/53 54/54/54
f 52/52/52 55/55/55 53/53/53
f 53/53/53 56/56/56 54/54/54
f 53/53/53 55/55/55 56/56/56
f 54/54/54 56/56/56 57/57/57
f 55/55/55 58/58/58 56/56/56
f 56/56/56 59/59/59 57/57/57
f 56/56/56 58/58/58 59/59/59
f 57/57/57 59/59/59 60/60/60
f 58/58/58 61/61/61 59/59/59
f 59/59/59 62/62/62 60/60/60
f 59/59/59 61/61/61 62/62/62
f 60/60/60 62/62/62 63/63/63
f 61/61/61 64/64/64 62/62/62
f 62/62/62 65/65/65 63/63/63
f 62/62/62 64/64/64 65/65/65
f 63/63/63 65/65/65 66/66/66
f 64/64/64 67/67/67 65/65/65
f 65/65/65 68/68/68 66/66/66
f 65/65/65 67/67/67 68/68/68
f 66/66/66 68/68/68 69/69/69
f 67/67/67 70/70/70 68/68/68
f 68/68/68 71/71/71 69/69/69
f 68/68/68 70/70/70 71/71/71
f 69/69/69 71/71/71 72/72/72
f 70/70/70 73/73/73 71/71/71
f 71/71/71 74/74/74 72/72/72
f 71/71/71 73/73/73 74/74/74
f 72/72/72 74/74/74 75/75/75
f 73/73/73 76/76/76 74/74/74
f 74/74/74 77/77/77 75/75/75
f 74/74/74 76/76/76 77/77/77
f 75/75/75 77/77/77 78/78/78
f 76/76/76 79/79/79 77/77/77
f 77/77/77 80/80/80 78/78/78
f 77/77/77 79/79/79 80/80/80
f 78/78/78 80/80/80 81/81/81
f 79/79/79 82/82/82 80/80/80
f 80/80/80 83/83/83 81/81/81
f 80/80/80 82/82/82 83/83/83
f 81/81/81 83/83/83 84/84/84
f 82/82/82 85/85/85 83/83/83
f 83/83/83 86/86/86 84/84/84
f 83/83/83 85/85/85 86/86/86
f 84/84/84 86/86/86 87/87/87
f 85/85/85 88/88/88 86/86/86
f 86/86/86 89/89/89 87/87/87
f 86/86/86 88/88/88 89/89/89
f 87/87/87 89/89/89 90/90/90
f 88/88/88 91/91/91 89/89/89
f 89/89/89 92/92/92 90/90/90
f 89/89/89 91/91/91 92/92/92
f 91/91/91 93/93/93 92/92/92
