g Plane002
v 1.10947156 -0.0909349844 0
v 1.14986265 -0.0859504864 0
v 1.14153814 -0.099974744 0
v 1.11061013 -0.0746659636 0
v 1.15818727 -0.0719262436 0
v 1.06993735 -0.0920514762 0
v 1.11174858 -0.0583969504 0
v 1.06881642 -0.0757812411 0
v 1.02582872 -0.0922291428 0
v 1.06769562 -0.0595109984 0
v 1.02770972 -0.0760291666 0
v 0.980791986 -0.0752343163 0
v 1.02959061 -0.0598291978 0
v 0.990517318 -0.0621426329 0
v 0.951629221 -0.0557859354 0
v 1.00024283 -0.0490509495 0
v 0.956190825 -0.0401280485 0
v 0.922743201 -0.0557094514 0
v 0.960752368 -0.0244701654 0
v 0.919289887 -0.039770484 0
v 0.887009621 -0.0685993806 0
v 0.915836513 -0.0238314904 0
v 0.880215228 -0.0537733212 0
v 0.846485913 -0.0882944763 0
v 0.873420715 -0.0389472507 0
v 0.839439154 -0.0735866278 0
v 0.799157023 -0.0992037207 0
v 0.832392514 -0.0588787943 0
v 0.799905598 -0.0829121172 0
v 0.756459713 -0.0875852928 0
v 0.800654054 -0.0666204914 0
v 0.763454735 -0.072852768 0
v 0.718563616 -0.0654098541 0
v 0.770449698 -0.058120247 0
v 0.727454066 -0.0517374054 0
v 0.682331204 -0.0428137928 0
v 0.736344576 -0.0380649529 0
v 0.689768374 -0.0282994956 0
v 0.659428298 -0.0412263535 0
v 0.697205663 -0.0137852049 0
v 0.656276822 -0.0252249278 0
v 0.623846173 -0.0547051504 0
v 0.653125286 -0.00922351144 0
v 0.616480649 -0.0401543267 0
v 0.582769811 -0.078449823 0
v 0.609115064 -0.0256034937 0
v 0.574144781 -0.0646083504 0
v 0.541333079 -0.104147188 0
v 0.56551981 -0.0507668741 0
v 0.533034563 -0.0901075453 0
v 0.502383649 -0.123537101 0
v 0.524736047 -0.0760678798 0
v 0.496914774 -0.108172536 0
v 0.457744956 -0.126892701 0
v 0.491446018 -0.0928079933 0
v 0.459501296 -0.110678747 0
v 0.40448311 -0.115655273 0
v 0.461257607 -0.0944647789 0
v 0.409281403 -0.100068316 0
v 0.357647508 -0.097659722 0
v 0.414079756 -0.0844813585 0
v 0.364420474 -0.0828238055 0
v 0.319236606 -0.0781386793 0
v 0.371193409 -0.0679878891 0
v 0.327146024 -0.0638761967 0
v 0.291595072 -0.0623168908 0
v 0.335055381 -0.0496136993 0
v 0.299685955 -0.0481565744 0
v 0.279403567 -0.0570048653 0
v 0.307776839 -0.0339962579 0
v 0.279349267 -0.0406961404 0
v 0.249061421 -0.0636637211 0
v 0.279294997 -0.0243874192 0
v 0.244301975 -0.0480648428 0
v 0.203622863 -0.0776753873 0
v 0.239542544 -0.0324659646 0
v 0.199253932 -0.0619626641 0
v 0.153068095 -0.0866478533 0
v 0.194885001 -0.0462499484 0
v 0.152480394 -0.0703496337 0
v 0.105322614 -0.077230759 0
v 0.151892707 -0.0540514179 0
v 0.112087734 -0.0623912662 0
v 0.0672660396 -0.0532294661 0
v 0.118852861 -0.0475517735 0
v 0.0771506131 -0.0402574949 0
v 0.0340879522 -0.0279798228 0
v 0.087035194 -0.0272855256 0
v 0.0433769189 -0.01457489 0
v 0.00258920901 -0.0118450457 0
v 0.0526658855 -0.00116995815 0
v 0.00709987991 0.00382757862 0
v 0.0116105489 0.0195001904 0
vt 0.966667056 0
vt 1.00000036 0.5
vt 1.00000036 0
vt 0.966667056 0.5
vt 1.00000036 1
vt 0.933333695 0
vt 0.966667056 1
vt 0.933333695 0.5
vt 0.900000334 0
vt 0.933333695 1
vt 0.900000334 0.5
vt 0.866666973 0
vt 0.900000334 1
vt 0.866666973 0.5
vt 0.833333611 0
vt 0.866666973 1
vt 0.833333611 0.5
vt 0.80000025 0
vt 0.833333611 1
vt 0.80000025 0.5
vt 0.766666889 0
vt 0.80000025 1
vt 0.766666889 0.5
vt 0.733333528 0
vt 0.766666889 1
vt 0.733333528 0.5
vt 0.700000167 0
vt 0.733333528 1
vt 0.700000167 0.5
vt 0.666666806 0
vt 0.700000167 1
vt 0.666666806 0.5
vt 0.633333445 0
vt 0.666666806 1
vt 0.633333445 0.5
vt 0.600000083 0
vt 0.633333445 1
vt 0.600000083 0.5
vt 0.566666722 0
vt 0.600000083 1
vt 0.566666722 0.5
vt 0.533333361 0
vt 0.566666722 1
vt 0.533333361 0.5
vt 0.5 0
vt 0.533333361 1
vt 0.5 0.5
vt 0.466666669 0
vt 0.5 1
vt 0.466666669 0.5
vt 0.433333337 0
vt 0.466666669 1
vt 0.433333337 0.5
vt 0.400000006 0
vt 0.433333337 1
vt 0.400000006 0.5
vt 0.366666675 0
vt 0.400000006 1
vt 0.366666675 0.5
vt 0.333333343 0
vt 0.366666675 1
vt 0.333333343 0.5
vt 0.300000012 0
vt 0.333333343 1
vt 0.300000012 0.5
vt 0.266666681 0
vt 0.300000012 1
vt 0.266666681 0.5
vt 0.233333334 0
vt 0.266666681 1
vt 0.233333334 0.5
vt 0.200000003 0
vt 0.233333334 1
vt 0.200000003 0.5
vt 0.166666672 0
vt 0.200000003 1
vt 0.166666672 0.5
vt 0.13333334 0
vt 0.166666672 1
vt 0.13333334 0.5
vt 0.100000009 0
vt 0.13333334 1
vt 0.100000009 0.5
vt 0.0666666701 0
vt 0.100000009 1
vt 0.0666666701 0.5
vt 0.0333333351 0
vt 0.0666666701 1
vt 0.0333333351 0.5
vt 0 0
vt 0.0333333351 1
vt 0 0.5
vt 0 1
vn -0 0 1
vn -0 0 1
vn -0 0 1
vn -0 0 1
vn -0 0 1
vn -0 0 1
vn -0 0 1
vn -0 0 1
vn -0 0 1
vn -0 0 1
vn -0 0 1
vn -0 0 1
vn -0 0 1
vn -0 0 1
vn -0 0 1
vn -0 0 1
vn -0 0 1
vn -0 0 1
vn -0 0 1
vn -0 0 1
vn -0 0 1
vn -0 0 1
vn -0 0 1
vn -0 0 1
vn -0 0 1
vn -0 0 1
vn -0 0 1
vn -0 0 1
vn -0 0 1
vn -0 0 1
vn -0 0 1
vn -0 0 1
vn -0 0 1
vn -0 0 1
vn -0 0 1
vn -0 0 1
vn -0 0 1
vn -0 0 1
vn -0 0 1
vn -0 0 1
vn -0 0 1
vn -0 0 1
vn -0 0 1
vn -0 0 1
vn -0 0 1
vn -0 0 1
vn -0 0 1
vn -0 0 1
vn -0 0 1
vn -0 0 1
vn -0 0 1
vn -0 0 1
vn -0 0 1
vn -0 0 1
vn -0 0 1
vn -0 0 1
vn -0 0 1
vn -0 0 1
vn -0 0 1
vn -0 0 1
vn -0 0 1
vn -0 0 1
vn -0 0 1
vn -0 0 1
vn -0 0 1
vn -0 0 1
vn -0 0 1
vn -0 0 1
vn -0 0 1
vn -0 0 1
vn -0 0 1
vn -0 0 1
vn -0 0 1
vn -0 0 1
vn -0 0 1
vn -0 0 1
vn -0 0 1
vn -0 0 1
vn -0 0 1
vn -0 0 1
vn -0 0 1
vn -0 0 1
vn -0 0 1
vn -0 0 1
vn -0 0 1
vn -0 0 1
vn -0 0 1
vn -0 0 1
vn -0 0 1
vn -0 0 1
vn -0 0 1
vn -0 0 1
vn -0 0 1
g Plane002_0
f 3/3/3 2/2/2 1/1/1
f 2/2/2 4/4/4 1/1/1
f 2/2/2 5/5/5 4/4/4
f 1/1/1 4/4/4 6/6/6
f 5/5/5 7/7/7 4/4/4
f 4/4/4 8/8/8 6/6/6
f 4/4/4 7/7/7 8/8/8
f 6/6/6 8/8/8 9/9/9
f 7/7/7 10/10/10 8/8/8
f 8/8/8 11/11/11 9/9/9
f 8/8/8 10/10/10 11/11/11
f 9/9/9 11/11/11 12/12/12
f 10/10/10 13/13/13 11/11/11
f 11/11/11 14/14/14 12/12/12
f 11/11/11 13/13/13 14/14/14
f 12/12/12 14/14/14 15/15/15
f 13/13/13 16/16/16 14/14/14
f 14/14/14 17/17/17 15/15/15
f 14/14/14 16/16/16 17/17/17
f 15/15/15 17/17/17 18/18/18
f 16/16/16 19/19/19 17/17/17
f 17/17/17 20/20/20 18/18/18
f 17/17/17 19/19/19 20/20/20
f 18/18/18 20/20/20 21/21/21
f 19/19/19 22/22/22 20/20/20
f 20/20/20 23/23/23 21/21/21
f 20/20/20 22/22/22 23/23/23
f 21/21/21 23/23/23 24/24/24
f 22/22/22 25/25/25 23/23/23
f 23/23/23 26/26/26 24/24/24
f 23/23/23 25/25/25 26/26/26
f 24/24/24 26/26/26 27/27/27
f 25/25/25 28/28/28 26/26/26
f 26/26/26 29/29/29 27/27/27
f 26/26/26 28/28/28 29/29/29
f 27/27/27 29/29/29 30/30/30
f 28/28/28 31/31/31 29/29/29
f 29/29/29 32/32/32 30/30/30
f 29/29/29 31/31/31 32/32/32
f 30/30/30 32/32/32 33/33/33
f 31/31/31 34/34/34 32/32/32
f 32/32/32 35/35/35 33/33/33
f 32/32/32 34/34/34 35/35/35
f 33/33/33 35/35/35 36/36/36
f 34/34/34 37/37/37 35/35/35
f 35/35/35 38/38/38 36/36/36
f 35/35/35 37/37/37 38/38/38
f 36/36/36 38/38/38 39/39/39
f 37/37/37 40/40/40 38/38/38
f 38/38/38 41/41/41 39/39/39
f 38/38/38 40/40/40 41/41/41
f 39/39/39 41/41/41 42/42/42
f 40/40/40 43/43/43 41/41/41
f 41/41/41 44/44/44 42/42/42
f 41/41/41 43/43/43 44/44/44
f 42/42/42 44/44/44 45/45/45
f 43/43/43 46/46/46 44/44/44
f 44/44/44 47/47/47 45/45/45
f 44/44/44 46/46/46 47/47/47
f 45/45/45 47/47/47 48/48/48
f 46/46/46 49/49/49 47/47/47
f 47/47/47 50/50/50 48/48/48
f 47/47/47 49/49/49 50/50/50
f 48/48/48 50/50/50 51/51/51
f 49/49/49 52/52/52 50/50/50
f 50/50/50 53/53/53 51/51/51
f 50/50/50 52/52/52 53/53/53
f 51/51/51 53/53/53 54/54/54
f 52/52/52 55/55/55 53/53/53
f 53/53/53 56/56/56 54/54/54
f 53/53/53 55/55/55 56/56/56
f 54/54/54 56/56/56 57/57/57
f 55/55/55 58/58/58 56/56/56
f 56/56/56 59/59/59 57/57/57
f 56/56/56 58/58/58 59/59/59
f 57/57/57 59/59/59 60/60/60
f 58/58/58 61/61/61 59/59/59
f 59/59/59 62/62/62 60/60/60
f 59/59/59 61/61/61 62/62/62
f 60/60/60 62/62/62 63/63/63
f 61/61/61 64/64/64 62/62/62
f 62/62/62 65/65/65 63/63/63
f 62/62/62 64/64/64 65/65/65
f 63/63/63 65/65/65 66/66/66
f 64/64/64 67/67/67 65/65/65
f 65/65/65 68/68/68 66/66/66
f 65/65/65 67/67/67 68/68/68
f 66/66/66 68/68/68 69/69/69
f 67/67/67 70/70/70 68/68/68
f 68/68/68 71/71/71 69/69/69
f 68/68/68 70/70/70 71/71/71
f 69/69/69 71/71/71 72/72/72
f 70/70/70 73/73/73 71/71/71
f 71/71/71 74/74/74 72/72/72
f 71/71/71 73/73/73 74/74/74
f 72/72/72 74/74/74 75/75/75
f 73/73/73 76/76/76 74/74/74
f 74/74/74 77/77/77 75/75/75
f 74/74/74 76/76/76 77/77/77
f 75/75/75 77/77/77 78/78/78
f 76/76/76 79/79/79 77/77/77
f 77/77/77 80/80/80 78/78/78
f 77/77/77 79/79/79 80/80/80
f 78/78/78 80/80/80 81/81/81
f 79/79/79 82/82/82 80/80/80
f 80/80/80 83/83/83 81/81/81
f 80/80/80 82/82/82 83/83/83
f 81/81/81 83/83/83 84/84/84
f 82/82/82 85/85/85 83/83/83
f 83/83/83 86/86/86 84/84/84
f 83/83/83 85/85/85 86/86/86
f 84/84/84 86/86/86 87/87/87
f 85/85/85 88/88/88 86/86/86
f 86/86/86 89/89/89 87/87/87
f 86/86/86 88/88/88 89/89/89
f 87/87/87 89/89/89 90/90/90
f 88/88/88 91/91/91 89/89/89
f 89/89/89 92/92/92 90/90/90
f 89/89/89 91/91/91 92/92/92
f 91/91/91 93/93/93 92/92/92
