g general_plane_51
v -0.599602997 -0.139996156 8.36735126E-10
v -0.626522839 -0.313750029 -8.36735126E-10
v -0.610655546 -0.13975136 8.36735126E-10
v -0.61547029 -0.313994825 -8.36735126E-10
v -0.583765984 -0.140282154 1.79716153E-09
v -0.597581506 -0.314455748 -1.79716153E-09
v -0.572393537 -0.140392065 -7.30778993E-10
v -0.576306224 -0.315068901 7.30778993E-10
v -0.560954034 -0.140639633 -3.7425707E-09
v -0.555106759 -0.315262407 3.7425707E-09
v -0.304680556 0.298608214 -3.7252903E-09
v -0.150275052 0.38037768 3.7252903E-09
v -0.139619559 0.357985973 7.4505806E-09
v -0.296201497 0.280465603 -7.4505806E-09
v -0.131400138 0.340587765 3.7252903E-09
v -0.290474832 0.26832065 -3.7252903E-09
v -0.123906374 0.322777063 0
v -0.285373569 0.256026477 0
v -0.116789669 0.304762602 1.86264515E-09
v -0.28048861 0.243689254 -1.86264515E-09
v -0.110371321 0.286414295 7.4505806E-09
v -0.276153594 0.231246188 1.86264515E-09
v -0.104515612 0.267804921 3.7252903E-09
v -0.272202909 0.218730688 -3.7252903E-09
v -0.0992954373 0.248956338 0
v -0.268692911 0.20615679 -5.58793545E-09
v -0.0948551893 0.229817346 3.7252903E-09
v -0.265759349 0.193498284 -5.58793545E-09
v -0.0909496248 0.21053353 0
v -0.263125688 0.180823147 -3.7252903E-09
v -0.263125688 0.180823147 -3.7252903E-09
v -0.0909496248 0.21053353 0
v -0.0880630314 0.190970972 -1.86264515E-09
v -0.261277318 0.168077558 -7.4505806E-09
v -0.0855757296 0.171342 3.7252903E-09
v -0.259562194 0.155341744 -7.4505806E-09
v -0.259562194 0.155341744 -7.4505806E-09
v -0.0855757296 0.171342 3.7252903E-09
v -0.0843558908 0.151493236 3.7252903E-09
v -0.258849263 0.142584503 -1.86264515E-09
v -0.083373636 0.131629273 3.7252903E-09
v -0.258085132 0.12983942 -1.86264515E-09
v -0.258085132 0.12983942 -1.86264515E-09
v -0.083373636 0.131629273 3.7252903E-09
v -0.0839059055 0.111649066 3.7252903E-09
v -0.258539438 0.117166169 -1.86264515E-09
v -0.0845908821 0.0916736871 1.86264515E-09
v -0.258840978 0.104488075 -7.4505806E-09
v -0.258840978 0.104488075 -7.4505806E-09
v -0.0845908821 0.0916736871 1.86264515E-09
v -0.0868441164 0.0717190877 0
v -0.260383189 0.092004098 -5.58793545E-09
v -0.0893517435 0.051783938 3.7252903E-09
v -0.261857659 0.0795150474 -1.86264515E-09
v -0.261857659 0.0795150474 -1.86264515E-09
v -0.0893517435 0.051783938 3.7252903E-09
v -0.0932759941 0.0319805257 1.86264515E-09
v -0.264385134 0.0673214719 -1.86264515E-09
v -0.097661227 0.0122366268 1.86264515E-09
v -0.267025441 0.0551675856 -3.7252903E-09
v -0.267025441 0.0551675856 -3.7252903E-09
v -0.097661227 0.0122366268 1.86264515E-09
v -0.103310227 -0.00730682537 -2.79396772E-09
v -0.27051276 0.0433944389 3.7252903E-09
v -0.1096434 -0.0267228652 -3.7252903E-09
v -0.274285316 0.0317607634 -1.86264515E-09
v -0.274285316 0.0317607634 -1.86264515E-09
v -0.1096434 -0.0267228652 -3.7252903E-09
v -0.117100686 -0.0459050685 -2.79396772E-09
v -0.278681606 0.0205698758 2.79396772E-09
v -0.125502288 -0.0648708791 9.31322575E-10
v -0.283511937 0.00969626009 -9.31322575E-10
v -0.125502288 -0.0648708791 9.31322575E-10
v -0.134957045 -0.0836776346 6.51925802E-09
v -0.288675129 -0.000623147935 -9.31322575E-10
v -0.288675129 -0.000623147935 -9.31322575E-10
v -0.134957045 -0.0836776346 6.51925802E-09
v -0.145776182 -0.102265291 5.58793545E-09
v -0.294289738 -0.0102271587 9.31322575E-10
v -0.157582521 -0.120542511 -9.31322575E-10
v -0.300035834 -0.0193775259 -9.31322575E-09
v -0.300035834 -0.0193775259 -9.31322575E-09
v -0.157582521 -0.120542511 -9.31322575E-10
v -0.171343058 -0.138259843 1.11758709E-08
v -0.306356668 -0.0273606293 -6.51925802E-09
v -0.185646892 -0.155296504 5.58793545E-09
v -0.312779963 -0.0354446024 -9.31322575E-10
v -0.312779963 -0.0354446024 -9.31322575E-10
v -0.185646892 -0.155296504 5.58793545E-09
v -0.201173469 -0.170234501 -9.31322575E-09
v -0.320912391 -0.0429949686 -1.39698386E-09
v -0.216922134 -0.184818745 -4.19095159E-09
v -0.328954995 -0.0507443622 3.25962901E-09
v -0.328954995 -0.0507443622 3.25962901E-09
v -0.216922134 -0.184818745 -4.19095159E-09
v -0.232960492 -0.197028011 0
v -0.339012444 -0.0581745505 1.25728548E-08
v -0.249100685 -0.209104002 -2.32830644E-09
v -0.348968089 -0.0657380223 -9.31322575E-10
v -0.348968089 -0.0657380223 -9.31322575E-10
v -0.249100685 -0.209104002 -2.32830644E-09
v -0.265478849 -0.219681412 -1.39698386E-09
v -0.360078543 -0.072786212 -2.79396772E-09
v -0.281929463 -0.230058089 -7.91624188E-09
v -0.371224344 -0.0798791051 1.07102096E-08
v -0.371224344 -0.0798791051 1.07102096E-08
v -0.281929463 -0.230058089 -7.91624188E-09
v -0.298618883 -0.239409804 9.31322575E-10
v -0.383045167 -0.0864408463 6.98491931E-10
v -0.315395713 -0.248455167 -7.91624188E-09
v -0.395004332 -0.0929245353 7.91624188E-09
v -0.332405031 -0.256753564 4.65661287E-10
v -0.407350272 -0.0989229381 -1.16415322E-09
v -0.349539578 -0.264661551 2.21189111E-09
v -0.419868052 -0.104720309 -2.21189111E-09
v -0.366898596 -0.271990389 -6.05359674E-09
v -0.432591796 -0.110090092 1.29221007E-08
v -0.384444118 -0.278833061 3.7252903E-09
v -0.445481628 -0.115120724 7.4505806E-09
v -0.402204633 -0.285206258 -4.65661287E-10
v -0.458451033 -0.119786672 -6.98491931E-10
v -0.420248389 -0.290959358 2.15368345E-09
v -0.471538484 -0.123936504 -2.15368345E-09
v -0.438472927 -0.296353996 1.86264515E-09
v -0.484615922 -0.127836555 -2.3865141E-09
v -0.484615922 -0.127836555 -2.3865141E-09
v -0.457093954 -0.300991297 -4.30736691E-09
v -0.497700512 -0.131054804 1.08848326E-08
v -0.475851655 -0.305353314 -7.79982656E-09
v -0.510731161 -0.134149581 -4.07453626E-10
v -0.510731161 -0.134149581 -4.07453626E-10
v -0.475851655 -0.305353314 -7.79982656E-09
v -0.495188802 -0.308711708 5.82076609E-11
v -0.52358377 -0.136313841 -5.82076609E-11
v -0.514585555 -0.311889112 -7.79982656E-09
v -0.536392629 -0.138534665 -3.3469405E-10
v -0.536392629 -0.138534665 -3.3469405E-10
v -0.514585555 -0.311889112 -7.79982656E-09
v -0.534838915 -0.313667208 1.15687726E-09
v -0.548680544 -0.139495701 -1.59343472E-09
v -0.555106759 -0.315262407 3.7425707E-09
v -0.560954034 -0.140639633 -3.7425707E-09
vt 0.987735868 0
vt 1 1
vt 1 0
vt 0.987735868 1
vt 0.968867898 0
vt 0.968867958 1
vt 0.949999928 0
vt 0.950000048 1
vt 0.931132019 0
vt 0.931132138 1
vt 0 0
vt 0 1
vt 0.0254716761 1
vt 0.0254716761 0
vt 0.044339627 1
vt 0.0443396308 0
vt 0.0632075444 1
vt 0.0632075518 0
vt 0.0820754692 1
vt 0.0820754766 0
vt 0.100943401 1
vt 0.100943401 0
vt 0.119811326 1
vt 0.119811341 0
vt 0.138679236 1
vt 0.138679266 0
vt 0.157547176 1
vt 0.157547206 0
vt 0.176415116 1
vt 0.176415116 0
vt 0.176415116 0
vt 0.176415116 1
vt 0.195283026 1
vt 0.195283055 0
vt 0.214150965 1
vt 0.21415098 0
vt 0.21415098 0
vt 0.214150965 1
vt 0.233018905 1
vt 0.233018905 0
vt 0.251886845 1
vt 0.251886845 0
vt 0.251886845 0
vt 0.251886845 1
vt 0.270754755 1
vt 0.270754755 0
vt 0.289622664 1
vt 0.289622664 0
vt 0.289622664 0
vt 0.289622664 1
vt 0.308490604 1
vt 0.308490574 0
vt 0.327358544 1
vt 0.327358514 0
vt 0.327358514 0
vt 0.327358544 1
vt 0.346226484 1
vt 0.346226454 0
vt 0.365094393 1
vt 0.365094364 0
vt 0.365094364 0
vt 0.365094393 1
vt 0.383962333 1
vt 0.383962274 0
vt 0.402830273 1
vt 0.402830184 0
vt 0.402830184 0
vt 0.402830273 1
vt 0.421698213 1
vt 0.421698093 0
vt 0.440566182 1
vt 0.440566063 0
vt 0.440566182 1
vt 0.459434092 1
vt 0.459433973 0
vt 0.459433973 0
vt 0.459434092 1
vt 0.478302032 1
vt 0.478301883 0
vt 0.497169971 1
vt 0.497169793 0
vt 0.497169793 0
vt 0.497169971 1
vt 0.516037881 1
vt 0.516037762 0
vt 0.534905791 1
vt 0.534905672 0
vt 0.534905672 0
vt 0.534905791 1
vt 0.553773701 1
vt 0.553773582 0
vt 0.572641671 1
vt 0.572641492 0
vt 0.572641492 0
vt 0.572641671 1
vt 0.591509581 1
vt 0.591509342 0
vt 0.610377491 1
vt 0.610377312 0
vt 0.610377312 0
vt 0.610377491 1
vt 0.6292454 1
vt 0.629245162 0
vt 0.64811337 1
vt 0.648113132 0
vt 0.648113132 0
vt 0.64811337 1
vt 0.66698128 1
vt 0.666980982 0
vt 0.68584919 1
vt 0.685848951 0
vt 0.7047171 1
vt 0.704716802 0
vt 0.723585069 1
vt 0.723584771 0
vt 0.742452979 1
vt 0.742452681 0
vt 0.761320889 1
vt 0.761320651 0
vt 0.780188799 1
vt 0.78018856 0
vt 0.799056768 1
vt 0.79905647 0
vt 0.817924738 1
vt 0.81792444 0
vt 0.81792444 0
vt 0.836792588 1
vt 0.83679235 0
vt 0.855660498 1
vt 0.855660319 0
vt 0.855660319 0
vt 0.855660498 1
vt 0.874528408 1
vt 0.874528229 0
vt 0.893396318 1
vt 0.893396139 0
vt 0.893396139 0
vt 0.893396318 1
vt 0.912264228 1
vt 0.912264109 0
vt 0.931132138 1
vt 0.931132019 0
vn -0 0 1
vn -0 0 1
vn -0 0 1
vn -0 0 1
vn -0 0 1
vn -0 0 1
vn -0 0 1
vn -0 0 1
vn -0 0 1
vn -0 0 1
vn -0 0 1
vn -0 0 1
vn -0 0 1
vn -0 0 1
vn -0 0 1
vn -0 0 1
vn -0 0 1
vn -0 0 1
vn -0 0 1
vn -0 0 1
vn -0 0 1
vn -0 0 1
vn -0 0 1
vn -0 0 1
vn -0 0 1
vn -0 0 1
vn -0 0 1
vn -0 0 1
vn -0 0 1
vn -0 0 1
vn -0 0 1
vn -0 0 1
vn -0 0 1
vn -0 0 1
vn -0 0 1
vn -0 0 1
vn -0 0 1
vn -0 0 1
vn -0 0 1
vn -0 0 1
vn -0 0 1
vn -0 0 1
vn -0 0 1
vn -0 0 1
vn -0 0 1
vn -0 0 1
vn -0 0 1
vn -0 0 1
vn -0 0 1
vn -0 0 1
vn -0 0 1
vn -0 0 1
vn -0 0 1
vn -0 0 1
vn -0 0 1
vn -0 0 1
vn -0 0 1
vn -0 0 1
vn -0 0 1
vn -0 0 1
vn -0 0 1
vn -0 0 1
vn -0 0 1
vn -0 0 1
vn -0 0 1
vn -0 0 1
vn -0 0 1
vn -0 0 1
vn -0 0 1
vn -0 0 1
vn -0 0 1
vn -0 0 1
vn -0 0 1
vn -0 0 1
vn -0 0 1
vn -0 0 1
vn -0 0 1
vn -0 0 1
vn -0 0 1
vn -0 0 1
vn -0 0 1
vn -0 0 1
vn -0 0 1
vn -0 0 1
vn -0 0 1
vn -0 0 1
vn -0 0 1
vn -0 0 1
vn -0 0 1
vn -0 0 1
vn -0 0 1
vn -0 0 1
vn -0 0 1
vn -0 0 1
vn -0 0 1
vn -0 0 1
vn -0 0 1
vn -0 0 1
vn -0 0 1
vn -0 0 1
vn -0 0 1
vn -0 0 1
vn -0 0 1
vn -0 0 1
vn -0 0 1
vn -0 0 1
vn -0 0 1
vn -0 0 1
vn -0 0 1
vn -0 0 1
vn -0 0 1
vn -0 0 1
vn -0 0 1
vn -0 0 1
vn -0 0 1
vn -0 0 1
vn -0 0 1
vn -0 0 1
vn -0 0 1
vn -0 0 1
vn -0 0 1
vn -0 0 1
vn -0 0 1
vn -0 0 1
vn -0 0 1
vn -0 0 1
vn -0 0 1
vn -0 0 1
vn -0 0 1
vn -0 0 1
vn -0 0 1
vn -0 0 1
vn -0 0 1
vn -0 0 1
vn -0 0 1
vn -0 0 1
vn -0 0 1
vn -0 0 1
vn -0 0 1
vn -0 0 1
vn -0 0 1
vn -0 0 1
g general_plane_51_0
f 3/3/3 2/2/2 1/1/1
f 2/2/2 4/4/4 1/1/1
f 1/1/1 4/4/4 5/5/5
f 4/4/4 6/6/6 5/5/5
f 5/5/5 6/6/6 7/7/7
f 6/6/6 8/8/8 7/7/7
f 7/7/7 8/8/8 9/9/9
f 8/8/8 10/10/10 9/9/9
f 13/13/13 12/12/12 11/11/11
f 14/14/14 13/13/13 11/11/11
f 15/15/15 13/13/13 14/14/14
f 16/16/16 15/15/15 14/14/14
f 17/17/17 15/15/15 16/16/16
f 18/18/18 17/17/17 16/16/16
f 19/19/19 17/17/17 18/18/18
f 20/20/20 19/19/19 18/18/18
f 21/21/21 19/19/19 20/20/20
f 22/22/22 21/21/21 20/20/20
f 23/23/23 21/21/21 22/22/22
f 24/24/24 23/23/23 22/22/22
f 25/25/25 23/23/23 24/24/24
f 26/26/26 25/25/25 24/24/24
f 27/27/27 25/25/25 26/26/26
f 28/28/28 27/27/27 26/26/26
f 29/29/29 27/27/27 28/28/28
f 30/30/30 29/29/29 28/28/28
f 33/33/33 32/32/32 31/31/31
f 34/34/34 33/33/33 31/31/31
f 35/35/35 33/33/33 34/34/34
f 36/36/36 35/35/35 34/34/34
f 39/39/39 38/38/38 37/37/37
f 40/40/40 39/39/39 37/37/37
f 41/41/41 39/39/39 40/40/40
f 42/42/42 41/41/41 40/40/40
f 45/45/45 44/44/44 43/43/43
f 46/46/46 45/45/45 43/43/43
f 47/47/47 45/45/45 46/46/46
f 48/48/48 47/47/47 46/46/46
f 51/51/51 50/50/50 49/49/49
f 52/52/52 51/51/51 49/49/49
f 53/53/53 51/51/51 52/52/52
f 54/54/54 53/53/53 52/52/52
f 57/57/57 56/56/56 55/55/55
f 58/58/58 57/57/57 55/55/55
f 59/59/59 57/57/57 58/58/58
f 60/60/60 59/59/59 58/58/58
f 63/63/63 62/62/62 61/61/61
f 64/64/64 63/63/63 61/61/61
f 65/65/65 63/63/63 64/64/64
f 66/66/66 65/65/65 64/64/64
f 69/69/69 68/68/68 67/67/67
f 70/70/70 69/69/69 67/67/67
f 71/71/71 69/69/69 70/70/70
f 72/72/72 71/71/71 70/70/70
f 74/74/74 73/73/73 72/72/72
f 75/75/75 74/74/74 72/72/72
f 78/78/78 77/77/77 76/76/76
f 79/79/79 78/78/78 76/76/76
f 80/80/80 78/78/78 79/79/79
f 81/81/81 80/80/80 79/79/79
f 84/84/84 83/83/83 82/82/82
f 85/85/85 84/84/84 82/82/82
f 86/86/86 84/84/84 85/85/85
f 87/87/87 86/86/86 85/85/85
f 90/90/90 89/89/89 88/88/88
f 91/91/91 90/90/90 88/88/88
f 92/92/92 90/90/90 91/91/91
f 93/93/93 92/92/92 91/91/91
f 96/96/96 95/95/95 94/94/94
f 97/97/97 96/96/96 94/94/94
f 98/98/98 96/96/96 97/97/97
f 99/99/99 98/98/98 97/97/97
f 102/102/102 101/101/101 100/100/100
f 103/103/103 102/102/102 100/100/100
f 104/104/104 102/102/102 103/103/103
f 105/105/105 104/104/104 103/103/103
f 108/108/108 107/107/107 106/106/106
f 109/109/109 108/108/108 106/106/106
f 110/110/110 108/108/108 109/109/109
f 111/111/111 110/110/110 109/109/109
f 112/112/112 110/110/110 111/111/111
f 113/113/113 112/112/112 111/111/111
f 114/114/114 112/112/112 113/113/113
f 115/115/115 114/114/114 113/113/113
f 116/116/116 114/114/114 115/115/115
f 117/117/117 116/116/116 115/115/115
f 118/118/118 116/116/116 117/117/117
f 119/119/119 118/118/118 117/117/117
f 120/120/120 118/118/118 119/119/119
f 121/121/121 120/120/120 119/119/119
f 122/122/122 120/120/120 121/121/121
f 123/123/123 122/122/122 121/121/121
f 124/124/124 122/122/122 123/123/123
f 125/125/125 124/124/124 123/123/123
f 127/127/127 124/124/124 126/126/126
f 128/128/128 127/127/127 126/126/126
f 129/129/129 127/127/127 128/128/128
f 130/130/130 129/129/129 128/128/128
f 133/133/133 132/132/132 131/131/131
f 134/134/134 133/133/133 131/131/131
f 135/135/135 133/133/133 134/134/134
f 136/136/136 135/135/135 134/134/134
f 139/139/139 138/138/138 137/137/137
f 140/140/140 139/139/139 137/137/137
f 141/141/141 139/139/139 140/140/140
f 142/142/142 141/141/141 140/140/140
