g halfSphere_01
v -0.494634032 -2.51958767E-07 0.0238743108
v -0.475265324 -0.0397089384 -0.0814489871
v -0.475265384 -0.0202435497 -0.0879362822
v -0.417857111 -0.0779045671 -0.182714447
v -0.417869091 -0.0397199318 -0.195441976
v -0.320150495 -0.114313453 -0.274413943
v -0.320214987 -0.059163563 -0.292811394
v -0.185555577 -0.147683054 -0.350459903
v -0.185602427 -0.078482911 -0.373543352
v -0.0243197158 -0.175945044 -0.407118231
v -0.0243380591 -0.0962826684 -0.433680564
v 0.159325212 -0.197427541 -0.43829453
v 0.163631558 -0.111029707 -0.464039922
v 0.363194048 -0.21093221 -0.440992743
v 0.394574344 -0.121094972 -0.448434174
v 0.572519541 -0.215606838 -0.426039726
v 0.601536274 -0.124817148 -0.435261428
v 0.535894811 -0.299279094 -0.403534681
v 0.332529008 -0.293726623 -0.414436907
v 0.490747333 -0.372618467 -0.360664308
v 0.150020093 -0.277051151 -0.398292631
v 0.303920627 -0.366296411 -0.361950934
v 0.425552905 -0.432806551 -0.288811982
v -0.0242921412 -0.24935919 -0.363988876
v 0.147173494 -0.346839964 -0.336884707
v 0.279482365 -0.425852746 -0.28319484
v 0.372135162 -0.477530301 -0.190804794
v -0.185485289 -0.211454928 -0.312983662
v -0.0242595747 -0.313701421 -0.305956274
v 0.143246531 -0.40411222 -0.261657953
v 0.253905088 -0.470106989 -0.185888574
v 0.337058246 -0.505071044 -0.0814481899
v -0.320052683 -0.165140212 -0.244546592
v -0.185401827 -0.267343134 -0.262565643
v -0.0242271423 -0.366499633 -0.235256225
v 0.138036489 -0.44666791 -0.171884969
v 0.21481207 -0.49735862 -0.0771538839
v 0.316269159 -0.514370441 0.0333225317
v -0.41783601 -0.11309731 -0.162046462
v -0.319935679 -0.209685206 -0.204366878
v -0.185318083 -0.313199937 -0.201153174
v -0.0241995007 -0.405727565 -0.154608712
v 0.131098241 -0.472872913 -0.0749598816
v 0.202744052 -0.506560266 0.0296741705
v 0.325287223 -0.505070984 0.146290347
v -0.475265324 -0.0576483347 -0.0709141493
v -0.494634032 -2.51958767E-07 0.0238743108
v -0.417805791 -0.143945128 -0.134233147
v -0.319817066 -0.246235535 -0.155428067
v -0.18524687 -0.3472673 -0.131111488
v -0.0241810605 -0.429881781 -0.0671124458
v 0.121734396 -0.481721103 0.0251987297
v 0.210603639 -0.497358531 0.135741606
v 0.358565211 -0.477530301 0.252672583
v -0.475265265 -0.0733723566 -0.0567366295
v -0.494634032 -2.51958767E-07 0.0238743108
v -0.41776967 -0.169261768 -0.10034515
v -0.319714904 -0.27338919 -0.0996162295
v -0.185199007 -0.368242353 -0.055131387
v -0.0241744295 -0.438037217 0.0238742754
v 0.130550832 -0.472872913 0.124329239
v 0.251034409 -0.470106959 0.240639001
v 0.417174339 -0.432806492 0.344505578
v -0.475265265 -0.0862767175 -0.0394613035
v -0.494634032 -2.51958767E-07 0.0238743108
v -0.417734623 -0.188073814 -0.061686296
v -0.319646001 -0.290107369 -0.0390754305
v -0.185182139 -0.375324041 0.0238742419
v -0.0241809264 -0.429881722 0.114860997
v 0.13596946 -0.446667969 0.22065872
v 0.283985287 -0.425852686 0.335128188
v 0.494476259 -0.372618467 0.414065868
v -0.475265324 -0.0958655179 -0.0197520591
v -0.494634032 -2.51958767E-07 0.0238743108
v -0.417708755 -0.199658141 -0.0197429396
v -0.319621623 -0.29575181 0.0238742754
v -0.185198948 -0.368242323 0.102879897
v -0.0241994336 -0.405727476 0.202357277
v 0.142114609 -0.40411225 0.309843391
v 0.307511032 -0.366296411 0.411485732
v 0.554819286 -0.299279064 0.465515018
v -0.475265324 -0.101770274 0.00163376145
v -0.494634032 -2.51958767E-07 0.0238743108
v -0.417699218 -0.203569651 0.0238742772
v -0.31964606 -0.29010731 0.0868239403
v -0.185246795 -0.34726733 0.178860009
v -0.0242270753 -0.366499484 0.283004701
v 0.145501181 -0.346839994 0.384824783
v 0.347005904 -0.293726563 0.464370191
v 0.600354016 -0.215606794 0.501107991
v -0.475265324 -0.103764057 0.0238742772
v -0.494634032 -2.51958767E-07 0.0238743108
v -0.417708755 -0.199658111 0.0674914569
v -0.319714963 -0.273389161 0.147364751
v -0.185318023 -0.313199937 0.24890168
v -0.0242595747 -0.313701302 0.353704721
v 0.156455904 -0.27705124 0.444842845
v 0.390717506 -0.21093215 0.500322461
v 0.631645977 -0.124817125 0.522628129
v 0.425573289 -0.121094912 0.521958768
v 0.181510374 -0.197427705 0.485601723
v 0.188087702 -0.111029848 0.513126135
v -0.0242920741 -0.249359086 0.411737233
v -0.0242394507 -0.175944939 0.454850942
v -0.0234385356 -0.0962826163 0.481254756
v -0.185401827 -0.267343134 0.310314208
v -0.185485154 -0.211454958 0.360732108
v -0.185555577 -0.147683069 0.39820832
v -0.185602427 -0.0784829259 0.421291888
v -0.319817007 -0.246235505 0.203176618
v -0.319935739 -0.209685192 0.252115369
v -0.320052683 -0.165140167 0.292295069
v -0.320150435 -0.114313439 0.322162479
v -0.320214987 -0.0591635704 0.34055987
v -0.417734563 -0.188073799 0.109434843
v -0.41776973 -0.169261739 0.148093671
v -0.417805731 -0.143945083 0.181981698
v -0.417835951 -0.113097265 0.209794968
v -0.41785717 -0.0779045373 0.230462924
v -0.417869151 -0.0397199318 0.243190452
v -0.475265324 -0.101770267 0.0461147912
v -0.494634032 -2.51958767E-07 0.0238743108
v -0.475265324 -0.0958655104 0.0675006136
v -0.494634032 -2.51958767E-07 0.0238743108
v -0.475265324 -0.0862767026 0.0872098505
v -0.494634032 -2.51958767E-07 0.0238743108
v -0.475265324 -0.0733723342 0.104485184
v -0.494634032 -2.51958767E-07 0.0238743108
v -0.475265384 -0.0576483272 0.118662655
v -0.494634032 -2.51958767E-07 0.0238743108
v -0.475265384 -0.0397089384 0.129197478
v -0.494634032 -2.51958767E-07 0.0238743108
v -0.475265324 -0.0202435683 0.135684848
v -0.494634032 -2.51958767E-07 0.0238743108
vt 0.951210678 -5.51436096E-05
vt 0.916374207 0.124286935
vt 0.986047626 0.124286935
vt 0.916374445 0.248629346
vt 0.986047864 0.248629346
vt 0.916374564 0.372971535
vt 0.986047983 0.372971535
vt 0.916374564 0.497313857
vt 0.986047983 0.497313857
vt 0.916374564 0.621655941
vt 0.986047983 0.621655941
vt 0.916374683 0.745998204
vt 0.986048162 0.745998204
vt 0.916374564 0.870340288
vt 0.986047983 0.870340288
vt 0.916374564 0.994682372
vt 0.986047983 0.994682372
vt 0.846701145 0.994682372
vt 0.846701145 0.870340288
vt 0.777027667 0.994682372
vt 0.846701264 0.745998204
vt 0.777027667 0.870340288
vt 0.707354367 0.994682372
vt 0.846701145 0.62165606
vt 0.777027845 0.745998204
vt 0.707354367 0.870340288
vt 0.637680888 0.994682372
vt 0.846701145 0.497313857
vt 0.777027667 0.621655941
vt 0.707354367 0.745998204
vt 0.637680888 0.870340288
vt 0.568007469 0.994682372
vt 0.846701145 0.372971535
vt 0.777027667 0.497313857
vt 0.707354188 0.62165606
vt 0.637681007 0.745998204
vt 0.568007588 0.870340288
vt 0.49833411 0.994682372
vt 0.846701026 0.248629346
vt 0.777027667 0.372971535
vt 0.707354188 0.497313857
vt 0.637680888 0.621655941
vt 0.568007588 0.745998204
vt 0.49833411 0.870340288
vt 0.428660661 0.994682372
vt 0.846700847 0.124286935
vt 0.881537199 -5.51436096E-05
vt 0.777027667 0.248629346
vt 0.707354188 0.372971535
vt 0.637680888 0.497313857
vt 0.568007469 0.621655941
vt 0.49833411 0.745998204
vt 0.428660661 0.870340288
vt 0.358987212 0.994682372
vt 0.777027369 0.124286935
vt 0.811863899 -5.51436096E-05
vt 0.707354188 0.248629346
vt 0.637680888 0.372971535
vt 0.568007588 0.497313857
vt 0.49833411 0.621655941
vt 0.428660721 0.745998204
vt 0.358987212 0.870340288
vt 0.289313823 0.994682372
vt 0.707354069 0.124286935
vt 0.742190599 -5.51436096E-05
vt 0.637680888 0.248629346
vt 0.568007588 0.372971535
vt 0.49833411 0.497313857
vt 0.428660661 0.621655941
vt 0.358987272 0.745998204
vt 0.289313823 0.870340288
vt 0.219640315 0.994682372
vt 0.637680769 0.124286935
vt 0.6725173 -5.51436096E-05
vt 0.568007588 0.248629346
vt 0.49833411 0.372971535
vt 0.428660661 0.497313857
vt 0.358987212 0.621655941
vt 0.289313912 0.745998204
vt 0.219640315 0.870340288
vt 0.149966955 0.994682372
vt 0.568007469 0.124286935
vt 0.602844119 -5.51436096E-05
vt 0.49833411 0.248629346
vt 0.428660721 0.372971535
vt 0.358987272 0.497313857
vt 0.289313823 0.621655941
vt 0.219640464 0.745998085
vt 0.149966955 0.870340288
vt 0.0802935064 0.994682372
vt 0.49833411 0.124286935
vt 0.533170819 -5.51436096E-05
vt 0.428660721 0.248629346
vt 0.358987272 0.372971535
vt 0.289313912 0.497313857
vt 0.219640315 0.621655941
vt 0.149967015 0.745998085
vt 0.0802935064 0.870340288
vt 0.0106201172 0.994682372
vt 0.010619998 0.870340168
vt 0.080293566 0.745998085
vt 0.0106201172 0.745998085
vt 0.149966955 0.621655703
vt 0.0802935064 0.621655703
vt 0.0106201172 0.621655703
vt 0.219640464 0.497313857
vt 0.149967015 0.497313619
vt 0.080293566 0.497313619
vt 0.0106201172 0.497313619
vt 0.289313912 0.372971535
vt 0.219640464 0.372971416
vt 0.149967015 0.372971416
vt 0.0802936554 0.372971416
vt 0.0106202066 0.372971416
vt 0.358987331 0.248629346
vt 0.289313912 0.248629346
vt 0.219640523 0.248629346
vt 0.149967164 0.248629346
vt 0.0802936554 0.248629227
vt 0.0106202662 0.248629227
vt 0.42866078 0.124286935
vt 0.463497519 -5.51436096E-05
vt 0.35898748 0.124286935
vt 0.39382419 -5.51436096E-05
vt 0.289314151 0.124286935
vt 0.32415095 -5.51436096E-05
vt 0.219640791 0.124286935
vt 0.25447762 -5.51436096E-05
vt 0.149967432 0.124286935
vt 0.184804291 -5.51436096E-05
vt 0.0802939832 0.124286935
vt 0.115130961 -5.51436096E-05
vt 0.010620594 0.124286935
vt 0.0454576015 -5.51436096E-05
vn -0.990789473 -0.135411456 0
vn -0.942874074 -0.138559222 -0.302968562
vn -0.941789865 -0.106389694 -0.318924934
vn -0.800543666 -0.248455122 -0.545343816
vn -0.799240887 -0.190440789 -0.570040524
vn -0.618169904 -0.325336516 -0.715557218
vn -0.617159367 -0.249433458 -0.746255577
vn -0.444628149 -0.370375961 -0.815553486
vn -0.443231046 -0.283890069 -0.850266278
vn -0.283465266 -0.380761474 -0.880152345
vn -0.274580479 -0.294295847 -0.915420949
vn -0.113836572 -0.326250106 -0.938403964
vn -0.0828300267 -0.241379037 -0.96688956
vn 0.0191051383 -0.244307727 -0.969509482
vn 0.0461447947 -0.143927813 -0.988511801
vn 0.0600012094 -0.188579589 -0.980223179
vn 0.0647007376 -0.113073692 -0.991477787
vn 0.0366536751 -0.397239178 -0.91698277
vn -0.0417194143 -0.458577901 -0.887674391
vn -0.00659223134 -0.628978193 -0.77739495
vn -0.178508952 -0.519778788 -0.835442662
vn -0.100316755 -0.678748012 -0.727487206
vn -0.0484039709 -0.818442225 -0.572546363
vn -0.301162124 -0.552120388 -0.777473152
vn -0.219557241 -0.696882129 -0.682751596
vn -0.13318567 -0.833051264 -0.536923826
vn -0.0681501329 -0.925444126 -0.372704685
vn -0.444357336 -0.529566526 -0.722568989
vn -0.310593903 -0.699011743 -0.644138217
vn -0.237227961 -0.821706593 -0.518190324
vn -0.146704838 -0.92109406 -0.360643059
vn -0.0688213706 -0.978606284 -0.193890095
vn -0.614777625 -0.466607183 -0.635866344
vn -0.442626119 -0.662703156 -0.604074955
vn -0.313372403 -0.809616506 -0.496305168
vn -0.24907124 -0.900483668 -0.356500596
vn -0.172647044 -0.96593231 -0.192789704
vn -0.069643952 -0.997568786 -0.00250254362
vn -0.796629786 -0.358059198 -0.487005651
vn -0.610202432 -0.585848093 -0.533324361
vn -0.440214664 -0.766865909 -0.467041373
vn -0.314282954 -0.887365639 -0.337355196
vn -0.269271702 -0.943351269 -0.193858534
vn -0.188456714 -0.982080758 -0.0011292143
vn -0.0853633359 -0.975864351 0.201002121
vn -0.941336989 -0.200389653 -0.271530122
vn -0.990789473 -0.135411456 0
vn -0.791961372 -0.451891065 -0.410599202
vn -0.605461776 -0.679988563 -0.413559735
vn -0.437943071 -0.841064394 -0.317516357
vn -0.31743449 -0.932129979 -0.174266994
vn -0.286296695 -0.958137214 -0.00271617179
vn -0.192882523 -0.96090287 0.198650673
vn -0.094273515 -0.910720646 0.402119756
vn -0.939542949 -0.253861248 -0.229811877
vn -0.990789473 -0.135411456 0
vn -0.78731513 -0.527043641 -0.319937378
vn -0.601400733 -0.747585118 -0.281839848
vn -0.436330229 -0.885356367 -0.160499468
vn -0.320728868 -0.947171032 -0.000305194466
vn -0.282668591 -0.939868569 0.191690966
vn -0.169412225 -0.91051054 0.377187103
vn -0.0678441375 -0.796123326 0.601319373
vn -0.937758923 -0.297163993 -0.179726705
vn -0.990789473 -0.135411456 0
vn -0.783417642 -0.581688404 -0.218850315
vn -0.598699272 -0.788163722 -0.142678231
vn -0.435750782 -0.900067389 0
vn -0.318926007 -0.931752205 0.173562884
vn -0.262158304 -0.894573331 0.361955523
vn -0.146920457 -0.819354653 0.554141045
vn -0.0340900831 -0.627416253 0.777937531
vn -0.936255634 -0.328962117 -0.123326458
vn -0.990789473 -0.135411456 0
vn -0.780838251 -0.614782333 -0.111060016
vn -0.597751439 -0.801681459 0
vn -0.436330229 -0.885356367 0.160499468
vn -0.316396028 -0.886623025 0.337332398
vn -0.243331686 -0.816578805 0.523439348
vn -0.116828755 -0.669934154 0.733170629
vn -0.0175179467 -0.450888753 0.892408133
vn -0.935256779 -0.348375142 -0.0626861602
vn -0.990789473 -0.135411456 0
vn -0.779941976 -0.62585187 0
vn -0.598699272 -0.788163722 0.142678231
vn -0.437943071 -0.841064394 0.317516357
vn -0.315169632 -0.808753252 0.496574461
vn -0.222451583 -0.689175665 0.689602911
vn -0.0755964965 -0.483854175 0.871877491
vn -0.0102240313 -0.290209889 0.956908345
vn -0.93491447 -0.35487318 0
vn -0.990789473 -0.135411456 0
vn -0.780838251 -0.614782333 0.111060016
vn -0.601400733 -0.747585118 0.281839848
vn -0.440214664 -0.766865909 0.467041373
vn -0.310167342 -0.696205556 0.647374749
vn -0.182568893 -0.51505059 0.837491274
vn -0.0452297851 -0.317798764 0.947078764
vn -0.00802657288 -0.229566067 0.973260045
vn -0.0301831551 -0.239328921 0.970469356
vn -0.132329866 -0.345626354 0.928994775
vn -0.114232622 -0.275739163 0.954420745
vn -0.294906825 -0.546751142 0.783640981
vn -0.274187893 -0.379633009 0.883572221
vn -0.264876306 -0.296707869 0.917499304
vn -0.442626119 -0.662703156 0.604074955
vn -0.444337398 -0.529518068 0.722616732
vn -0.444267601 -0.369709283 0.816052198
vn -0.442521006 -0.28266409 0.851044178
vn -0.605461776 -0.679988563 0.413559735
vn -0.610202432 -0.585848093 0.533324361
vn -0.614777625 -0.466607183 0.635866344
vn -0.618169904 -0.325336516 0.715557218
vn -0.617159367 -0.249433458 0.746255577
vn -0.783417642 -0.581688404 0.218850315
vn -0.78731513 -0.527043641 0.319937378
vn -0.791961372 -0.451891065 0.410599202
vn -0.796629786 -0.358059198 0.487005651
vn -0.800543666 -0.248455122 0.545343816
vn -0.799240887 -0.190440789 0.570040524
vn -0.935256779 -0.348375142 0.0626861602
vn -0.990789473 -0.135411456 0
vn -0.936255634 -0.328962117 0.123326458
vn -0.990789473 -0.135411456 0
vn -0.937758923 -0.297163993 0.179726705
vn -0.990789473 -0.135411456 0
vn -0.939536333 -0.25385946 0.22984077
vn -0.990789473 -0.135411456 0
vn -0.941336989 -0.200389653 0.271530122
vn -0.990789473 -0.135411456 0
vn -0.942877412 -0.138555229 0.30295983
vn -0.990789473 -0.135411456 0
vn -0.941789865 -0.106389694 0.318924934
vn -0.990789473 -0.135411456 0
g halfSphere_01_0
f 3/3/3 2/2/2 1/1/1
f 4/4/4 2/2/2 3/3/3
f 5/5/5 4/4/4 3/3/3
f 6/6/6 4/4/4 5/5/5
f 7/7/7 6/6/6 5/5/5
f 8/8/8 6/6/6 7/7/7
f 9/9/9 8/8/8 7/7/7
f 10/10/10 8/8/8 9/9/9
f 11/11/11 10/10/10 9/9/9
f 12/12/12 10/10/10 11/11/11
f 13/13/13 12/12/12 11/11/11
f 14/14/14 12/12/12 13/13/13
f 15/15/15 14/14/14 13/13/13
f 16/16/16 14/14/14 15/15/15
f 17/17/17 16/16/16 15/15/15
f 16/16/16 18/18/18 14/14/14
f 18/18/18 19/19/19 14/14/14
f 14/14/14 19/19/19 12/12/12
f 18/18/18 20/20/20 19/19/19
f 12/12/12 21/21/21 10/10/10
f 19/19/19 21/21/21 12/12/12
f 20/20/20 22/22/22 19/19/19
f 19/19/19 22/22/22 21/21/21
f 20/20/20 23/23/23 22/22/22
f 10/10/10 24/24/24 8/8/8
f 21/21/21 24/24/24 10/10/10
f 22/22/22 25/25/25 21/21/21
f 21/21/21 25/25/25 24/24/24
f 23/23/23 26/26/26 22/22/22
f 22/22/22 26/26/26 25/25/25
f 23/23/23 27/27/27 26/26/26
f 24/24/24 28/28/28 8/8/8
f 8/8/8 28/28/28 6/6/6
f 25/25/25 29/29/29 24/24/24
f 24/24/24 29/29/29 28/28/28
f 26/26/26 30/30/30 25/25/25
f 25/25/25 30/30/30 29/29/29
f 27/27/27 31/31/31 26/26/26
f 26/26/26 31/31/31 30/30/30
f 27/27/27 32/32/32 31/31/31
f 28/28/28 33/33/33 6/6/6
f 6/6/6 33/33/33 4/4/4
f 29/29/29 34/34/34 28/28/28
f 28/28/28 34/34/34 33/33/33
f 30/30/30 35/35/35 29/29/29
f 29/29/29 35/35/35 34/34/34
f 31/31/31 36/36/36 30/30/30
f 30/30/30 36/36/36 35/35/35
f 32/32/32 37/37/37 31/31/31
f 31/31/31 37/37/37 36/36/36
f 32/32/32 38/38/38 37/37/37
f 33/33/33 39/39/39 4/4/4
f 4/4/4 39/39/39 2/2/2
f 34/34/34 40/40/40 33/33/33
f 33/33/33 40/40/40 39/39/39
f 35/35/35 41/41/41 34/34/34
f 34/34/34 41/41/41 40/40/40
f 36/36/36 42/42/42 35/35/35
f 35/35/35 42/42/42 41/41/41
f 37/37/37 43/43/43 36/36/36
f 36/36/36 43/43/43 42/42/42
f 38/38/38 44/44/44 37/37/37
f 37/37/37 44/44/44 43/43/43
f 38/38/38 45/45/45 44/44/44
f 39/39/39 46/46/46 2/2/2
f 2/2/2 46/46/46 47/47/47
f 40/40/40 48/48/48 39/39/39
f 39/39/39 48/48/48 46/46/46
f 41/41/41 49/49/49 40/40/40
f 40/40/40 49/49/49 48/48/48
f 42/42/42 50/50/50 41/41/41
f 41/41/41 50/50/50 49/49/49
f 43/43/43 51/51/51 42/42/42
f 42/42/42 51/51/51 50/50/50
f 44/44/44 52/52/52 43/43/43
f 43/43/43 52/52/52 51/51/51
f 45/45/45 53/53/53 44/44/44
f 44/44/44 53/53/53 52/52/52
f 45/45/45 54/54/54 53/53/53
f 48/48/48 55/55/55 46/46/46
f 46/46/46 55/55/55 56/56/56
f 49/49/49 57/57/57 48/48/48
f 48/48/48 57/57/57 55/55/55
f 50/50/50 58/58/58 49/49/49
f 49/49/49 58/58/58 57/57/57
f 51/51/51 59/59/59 50/50/50
f 50/50/50 59/59/59 58/58/58
f 52/52/52 60/60/60 51/51/51
f 51/51/51 60/60/60 59/59/59
f 53/53/53 61/61/61 52/52/52
f 52/52/52 61/61/61 60/60/60
f 54/54/54 62/62/62 53/53/53
f 53/53/53 62/62/62 61/61/61
f 54/54/54 63/63/63 62/62/62
f 57/57/57 64/64/64 55/55/55
f 55/55/55 64/64/64 65/65/65
f 58/58/58 66/66/66 57/57/57
f 57/57/57 66/66/66 64/64/64
f 59/59/59 67/67/67 58/58/58
f 58/58/58 67/67/67 66/66/66
f 60/60/60 68/68/68 59/59/59
f 59/59/59 68/68/68 67/67/67
f 61/61/61 69/69/69 60/60/60
f 60/60/60 69/69/69 68/68/68
f 62/62/62 70/70/70 61/61/61
f 61/61/61 70/70/70 69/69/69
f 63/63/63 71/71/71 62/62/62
f 62/62/62 71/71/71 70/70/70
f 63/63/63 72/72/72 71/71/71
f 66/66/66 73/73/73 64/64/64
f 64/64/64 73/73/73 74/74/74
f 67/67/67 75/75/75 66/66/66
f 66/66/66 75/75/75 73/73/73
f 68/68/68 76/76/76 67/67/67
f 67/67/67 76/76/76 75/75/75
f 69/69/69 77/77/77 68/68/68
f 68/68/68 77/77/77 76/76/76
f 70/70/70 78/78/78 69/69/69
f 69/69/69 78/78/78 77/77/77
f 71/71/71 79/79/79 70/70/70
f 70/70/70 79/79/79 78/78/78
f 72/72/72 80/80/80 71/71/71
f 71/71/71 80/80/80 79/79/79
f 72/72/72 81/81/81 80/80/80
f 75/75/75 82/82/82 73/73/73
f 73/73/73 82/82/82 83/83/83
f 76/76/76 84/84/84 75/75/75
f 75/75/75 84/84/84 82/82/82
f 77/77/77 85/85/85 76/76/76
f 76/76/76 85/85/85 84/84/84
f 78/78/78 86/86/86 77/77/77
f 77/77/77 86/86/86 85/85/85
f 79/79/79 87/87/87 78/78/78
f 78/78/78 87/87/87 86/86/86
f 80/80/80 88/88/88 79/79/79
f 79/79/79 88/88/88 87/87/87
f 81/81/81 89/89/89 80/80/80
f 80/80/80 89/89/89 88/88/88
f 81/81/81 90/90/90 89/89/89
f 84/84/84 91/91/91 82/82/82
f 82/82/82 91/91/91 92/92/92
f 85/85/85 93/93/93 84/84/84
f 84/84/84 93/93/93 91/91/91
f 86/86/86 94/94/94 85/85/85
f 85/85/85 94/94/94 93/93/93
f 87/87/87 95/95/95 86/86/86
f 86/86/86 95/95/95 94/94/94
f 88/88/88 96/96/96 87/87/87
f 87/87/87 96/96/96 95/95/95
f 89/89/89 97/97/97 88/88/88
f 88/88/88 97/97/97 96/96/96
f 90/90/90 98/98/98 89/89/89
f 89/89/89 98/98/98 97/97/97
f 90/90/90 99/99/99 98/98/98
f 99/99/99 100/100/100 98/98/98
f 98/98/98 100/100/100 101/101/101
f 98/98/98 101/101/101 97/97/97
f 100/100/100 102/102/102 101/101/101
f 97/97/97 103/103/103 96/96/96
f 97/97/97 101/101/101 103/103/103
f 101/101/101 102/102/102 104/104/104
f 101/101/101 104/104/104 103/103/103
f 102/102/102 105/105/105 104/104/104
f 96/96/96 106/106/106 95/95/95
f 96/96/96 103/103/103 106/106/106
f 103/103/103 104/104/104 107/107/107
f 103/103/103 107/107/107 106/106/106
f 104/104/104 105/105/105 108/108/108
f 104/104/104 108/108/108 107/107/107
f 105/105/105 109/109/109 108/108/108
f 95/95/95 106/106/106 110/110/110
f 95/95/95 110/110/110 94/94/94
f 106/106/106 107/107/107 111/111/111
f 106/106/106 111/111/111 110/110/110
f 107/107/107 108/108/108 112/112/112
f 107/107/107 112/112/112 111/111/111
f 108/108/108 109/109/109 113/113/113
f 108/108/108 113/113/113 112/112/112
f 109/109/109 114/114/114 113/113/113
f 94/94/94 110/110/110 115/115/115
f 94/94/94 115/115/115 93/93/93
f 110/110/110 111/111/111 116/116/116
f 110/110/110 116/116/116 115/115/115
f 111/111/111 112/112/112 117/117/117
f 111/111/111 117/117/117 116/116/116
f 112/112/112 113/113/113 118/118/118
f 112/112/112 118/118/118 117/117/117
f 113/113/113 114/114/114 119/119/119
f 113/113/113 119/119/119 118/118/118
f 114/114/114 120/120/120 119/119/119
f 93/93/93 115/115/115 121/121/121
f 93/93/93 121/121/121 91/91/91
f 91/91/91 121/121/121 122/122/122
f 115/115/115 123/123/123 121/121/121
f 115/115/115 116/116/116 123/123/123
f 121/121/121 123/123/123 124/124/124
f 116/116/116 125/125/125 123/123/123
f 116/116/116 117/117/117 125/125/125
f 123/123/123 125/125/125 126/126/126
f 117/117/117 127/127/127 125/125/125
f 125/125/125 127/127/127 128/128/128
f 117/117/117 118/118/118 127/127/127
f 118/118/118 129/129/129 127/127/127
f 127/127/127 129/129/129 130/130/130
f 118/118/118 119/119/119 129/129/129
f 119/119/119 131/131/131 129/129/129
f 129/129/129 131/131/131 132/132/132
f 119/119/119 120/120/120 131/131/131
f 120/120/120 133/133/133 131/131/131
f 131/131/131 133/133/133 134/134/134
