g Plane001
v 1.1951052 -0.265630603 -2.3953632E-08
v 1.1941371 0.214368135 -1.77657196E-08
v 1.41567719 -0.0399834663 -2.98911438E-08
v 1.01176047 0.0171704851 -1.45049066E-08
v 0.933432817 -0.450887203 -1.73054602E-08
v 0.979831159 0.474350899 -6.2026686E-09
v 0.79259795 -0.145001903 -1.04818767E-08
v 0.639436245 -0.588490069 -1.06477547E-08
v 0.834716082 0.303663939 -5.49299495E-09
v 0.772871375 0.739814341 4.79970907E-09
v 0.664030492 0.593746424 3.08408921E-09
v 0.656714439 0.162963063 -3.96563271E-09
v 0.525806785 0.472948253 2.24480656E-09
v 0.544575334 -0.265639901 -6.32760422E-09
v 0.323097855 -0.673022926 -4.65359395E-09
v 0.452968866 0.0580907911 -2.18819873E-09
v 0.364623368 0.382677495 1.77125437E-09
v 0.276677758 -0.339923143 -2.64554245E-09
v -0.00475746347 -0.701106369 5.61229258E-11
v 0.231553555 -0.00665388396 -7.01532554E-10
v 0.187724933 0.326781094 1.17859045E-09
v -0.00137991842 -0.364879787 9.75258329E-12
v -0.332851201 -0.671520233 2.93506086E-09
v 0.00117377308 -0.0286492463 -7.82749354E-13
v 0.0029039022 0.30758363 2.45869488E-11
v -0.27950567 -0.339485735 1.15236987E-09
v -0.649860144 -0.585255742 3.53159058E-09
v -0.229149655 -0.00703040836 -5.18032783E-10
v -0.181785986 0.325825483 -2.07515161E-09
v -0.547594011 -0.264701515 3.82579829E-10
v -0.944827974 -0.445494354 1.50587831E-09
v -0.450408399 0.0572864488 -2.60702415E-09
v -0.358319372 0.380648166 -5.43389955E-09
v -0.795892358 -0.143444732 -2.59839017E-09
v -1.20757031 -0.257513165 -3.35659922E-09
v -0.653928995 0.161636665 -6.53039889E-09
v -0.518987179 0.469630539 -1.02828039E-08
v -1.0153569 0.0195011403 -7.97675437E-09
v -1.42905855 -0.0285195522 -1.1135449E-08
v -1.19798994 0.217638984 -1.58181184E-08
v -0.831687331 0.301693797 -1.24498012E-08
v -0.656671882 0.588871539 -1.67624563E-08
v -0.976602793 0.471610069 -2.04190993E-08
v -0.765105486 0.733118117 -2.49172221E-08
vt 0.900000095 0
vt 1.00000012 0.333333343
vt 1.00000012 0
vt 0.900000095 0.333333343
vt 0.800000072 0
vt 1.00000012 0.666666687
vt 0.800000072 0.333333343
vt 0.700000048 0
vt 0.900000095 0.666666687
vt 1.00000012 1
vt 0.900000095 1
vt 0.800000072 0.666666687
vt 0.800000072 1
vt 0.700000048 0.333333343
vt 0.600000024 0
vt 0.700000048 0.666666687
vt 0.700000048 1
vt 0.600000024 0.333333343
vt 0.5 0
vt 0.600000024 0.666666687
vt 0.600000024 1
vt 0.5 0.333333343
vt 0.400000006 0
vt 0.5 0.666666687
vt 0.5 1
vt 0.400000006 0.333333343
vt 0.300000012 0
vt 0.400000006 0.666666687
vt 0.400000006 1
vt 0.300000012 0.333333343
vt 0.200000003 0
vt 0.300000012 0.666666687
vt 0.300000012 1
vt 0.200000003 0.333333343
vt 0.100000001 0
vt 0.200000003 0.666666687
vt 0.200000003 1
vt 0.100000001 0.333333343
vt 0 0
vt 0 0.333333343
vt 0.100000001 0.666666687
vt 0.100000001 1
vt 0 0.666666687
vt 0 1
vn -0 0 1
vn -0 0 1
vn -0 0 1
vn -0 0 1
vn -0 0 1
vn -0 0 1
vn -0 0 1
vn -0 0 1
vn -0 0 1
vn -0 0 1
vn -0 0 1
vn -0 0 1
vn -0 0 1
vn -0 0 1
vn -0 0 1
vn -0 0 1
vn -0 0 1
vn -0 0 1
vn -0 0 1
vn -0 0 1
vn -0 0 1
vn -0 0 1
vn -0 0 1
vn -0 0 1
vn -0 0 1
vn -0 0 1
vn -0 0 1
vn -0 0 1
vn -0 0 1
vn -0 0 1
vn -0 0 1
vn -0 0 1
vn -0 0 1
vn -0 0 1
vn -0 0 1
vn -0 0 1
vn -0 0 1
vn -0 0 1
vn -0 0 1
vn -0 0 1
vn -0 0 1
vn -0 0 1
vn -0 0 1
vn -0 0 1
g Plane001_0
f 3/3/3 2/2/2 1/1/1
f 2/2/2 4/4/4 1/1/1
f 1/1/1 4/4/4 5/5/5
f 2/2/2 6/6/6 4/4/4
f 4/4/4 7/7/7 5/5/5
f 5/5/5 7/7/7 8/8/8
f 6/6/6 9/9/9 4/4/4
f 4/4/4 9/9/9 7/7/7
f 6/6/6 10/10/10 9/9/9
f 10/10/10 11/11/11 9/9/9
f 9/9/9 11/11/11 12/12/12
f 9/9/9 12/12/12 7/7/7
f 11/11/11 13/13/13 12/12/12
f 7/7/7 14/14/14 8/8/8
f 7/7/7 12/12/12 14/14/14
f 8/8/8 14/14/14 15/15/15
f 12/12/12 13/13/13 16/16/16
f 12/12/12 16/16/16 14/14/14
f 13/13/13 17/17/17 16/16/16
f 14/14/14 18/18/18 15/15/15
f 14/14/14 16/16/16 18/18/18
f 15/15/15 18/18/18 19/19/19
f 16/16/16 17/17/17 20/20/20
f 16/16/16 20/20/20 18/18/18
f 17/17/17 21/21/21 20/20/20
f 18/18/18 22/22/22 19/19/19
f 18/18/18 20/20/20 22/22/22
f 19/19/19 22/22/22 23/23/23
f 20/20/20 21/21/21 24/24/24
f 20/20/20 24/24/24 22/22/22
f 21/21/21 25/25/25 24/24/24
f 22/22/22 26/26/26 23/23/23
f 22/22/22 24/24/24 26/26/26
f 23/23/23 26/26/26 27/27/27
f 24/24/24 25/25/25 28/28/28
f 24/24/24 28/28/28 26/26/26
f 25/25/25 29/29/29 28/28/28
f 26/26/26 30/30/30 27/27/27
f 26/26/26 28/28/28 30/30/30
f 27/27/27 30/30/30 31/31/31
f 28/28/28 29/29/29 32/32/32
f 28/28/28 32/32/32 30/30/30
f 29/29/29 33/33/33 32/32/32
f 30/30/30 34/34/34 31/31/31
f 30/30/30 32/32/32 34/34/34
f 31/31/31 34/34/34 35/35/35
f 32/32/32 33/33/33 36/36/36
f 32/32/32 36/36/36 34/34/34
f 33/33/33 37/37/37 36/36/36
f 34/34/34 38/38/38 35/35/35
f 34/34/34 36/36/36 38/38/38
f 35/35/35 38/38/38 39/39/39
f 38/38/38 40/40/40 39/39/39
f 36/36/36 37/37/37 41/41/41
f 36/36/36 41/41/41 38/38/38
f 38/38/38 41/41/41 40/40/40
f 37/37/37 42/42/42 41/41/41
f 41/41/41 43/43/43 40/40/40
f 41/41/41 42/42/42 43/43/43
f 42/42/42 44/44/44 43/43/43
