g Plane006
v -0.112629846 0.0802154243 0
v -0.0656547025 0.130549014 0
v -0.222292289 0.16603145 0
v -0.156047687 0.236470446 0
v -0.0170750841 0.163019136 0
v -0.07920935 0.287636876 0
v 0.0324264988 0.180298448 0
v 0.00400575995 0.316616148 0
v 0.083301805 0.184285522 0
v 0.0897492841 0.32338503 0
v 0.135899603 0.175471202 0
v 0.174275547 0.309327573 0
v 0.18956317 0.153588027 0
v 0.254844606 0.276586324 0
v 0.224011421 0.127956316 0
v 0.323753476 0.225125059 0
v 0.252742916 0.0887047201 0
v 0.374673963 0.155958369 0
v 0.272441566 0.0392800495 0
v 0.407114714 0.0746831447 0
v 0.279462337 -0.0142611573 0
v 0.418711126 -0.0144021129 0
v 0.27197057 -0.0663275644 0
v 0.405288637 -0.106533639 0
v 0.248768583 -0.113637999 0
v 0.362035125 -0.194637656 0
v 0.206157014 -0.155458868 0
v 0.286640435 -0.269092768 0
v 0.134469539 -0.192917123 0
v 0.18690069 -0.321917981 0
v 0.0663503855 -0.213024259 0
v 0.0904122218 -0.35017851 0
v 0.00868630782 -0.216519967 0
v 0.000409931381 -0.355522662 0
v -0.0430947877 -0.207590908 0
v -0.0812495351 -0.341510534 0
v -0.0929160789 -0.188339308 0
v -0.153358266 -0.313786447 0
v -0.142688379 -0.160461977 0
v -0.216721028 -0.278400153 0
v -0.194008663 -0.126005456 0
v -0.273686528 -0.240205616 0
vt 1.00000012 1
vt 0.950000107 1
vt 1.00000012 0
vt 0.950000107 0
vt 0.900000095 1
vt 0.900000095 0
vt 0.850000143 1
vt 0.850000143 0
vt 0.800000131 1
vt 0.800000131 0
vt 0.750000119 1
vt 0.750000119 0
vt 0.700000107 1
vt 0.700000107 0
vt 0.650000095 1
vt 0.650000095 0
vt 0.600000083 1
vt 0.600000083 0
vt 0.550000072 1
vt 0.550000072 0
vt 0.50000006 1
vt 0.50000006 0
vt 0.450000048 1
vt 0.450000048 0
vt 0.400000036 1
vt 0.400000036 0
vt 0.350000024 1
vt 0.350000024 0
vt 0.300000012 1
vt 0.300000012 0
vt 0.25 1
vt 0.25 0
vt 0.199999988 1
vt 0.199999988 0
vt 0.149999976 1
vt 0.149999976 0
vt 0.0999999642 1
vt 0.0999999642 0
vt 0.0499999523 1
vt 0.0499999523 0
vt 0 1
vt 0 0
vn -0 0 -1
vn -0 0 -1
vn -0 0 -1
vn -0 0 -1
vn -0 0 -1
vn -0 0 -1
vn -0 0 -1
vn -0 0 -1
vn -0 0 -1
vn -0 0 -1
vn -0 0 -1
vn -0 0 -1
vn -0 0 -1
vn -0 0 -1
vn -0 0 -1
vn -0 0 -1
vn -0 0 -1
vn -0 0 -1
vn -0 0 -1
vn -0 0 -1
vn -0 0 -1
vn -0 0 -1
vn -0 0 -1
vn -0 0 -1
vn -0 0 -1
vn -0 0 -1
vn -0 0 -1
vn -0 0 -1
vn -0 0 -1
vn -0 0 -1
vn -0 0 -1
vn -0 0 -1
vn -0 0 -1
vn -0 0 -1
vn -0 0 -1
vn -0 0 -1
vn -0 0 -1
vn -0 0 -1
vn -0 0 -1
vn -0 0 -1
vn -0 0 -1
vn -0 0 -1
g Plane006_0
f 3/3/3 2/2/2 1/1/1
f 2/2/2 3/3/3 4/4/4
f 4/4/4 5/5/5 2/2/2
f 5/5/5 4/4/4 6/6/6
f 6/6/6 7/7/7 5/5/5
f 7/7/7 6/6/6 8/8/8
f 8/8/8 9/9/9 7/7/7
f 9/9/9 8/8/8 10/10/10
f 10/10/10 11/11/11 9/9/9
f 11/11/11 10/10/10 12/12/12
f 12/12/12 13/13/13 11/11/11
f 13/13/13 12/12/12 14/14/14
f 14/14/14 15/15/15 13/13/13
f 15/15/15 14/14/14 16/16/16
f 16/16/16 17/17/17 15/15/15
f 17/17/17 16/16/16 18/18/18
f 18/18/18 19/19/19 17/17/17
f 19/19/19 18/18/18 20/20/20
f 20/20/20 21/21/21 19/19/19
f 21/21/21 20/20/20 22/22/22
f 22/22/22 23/23/23 21/21/21
f 23/23/23 22/22/22 24/24/24
f 24/24/24 25/25/25 23/23/23
f 25/25/25 24/24/24 26/26/26
f 26/26/26 27/27/27 25/25/25
f 27/27/27 26/26/26 28/28/28
f 28/28/28 29/29/29 27/27/27
f 29/29/29 28/28/28 30/30/30
f 30/30/30 31/31/31 29/29/29
f 31/31/31 30/30/30 32/32/32
f 32/32/32 33/33/33 31/31/31
f 33/33/33 32/32/32 34/34/34
f 34/34/34 35/35/35 33/33/33
f 35/35/35 34/34/34 36/36/36
f 36/36/36 37/37/37 35/35/35
f 37/37/37 36/36/36 38/38/38
f 38/38/38 39/39/39 37/37/37
f 39/39/39 38/38/38 40/40/40
f 40/40/40 41/41/41 39/39/39
f 41/41/41 40/40/40 42/42/42
