g Plane004
v -0.16511175 -0.0247581657 0
v -0.128246427 0.00898257922 0
v -0.24693723 0.0723684877 0
v -0.215092242 0.101647571 0
v -0.089111574 0.0435116254 0
v -0.168695763 0.1424831 0
v -0.0445170514 0.0741546303 0
v -0.107015572 0.184712023 0
v 0.00739118969 0.0962172747 0
v -0.0279834047 0.218191192 0
v 0.0670694634 0.105115533 0
v 0.0667351708 0.23211509 0
v 0.117111735 0.0975948498 0
v 0.155883253 0.218531907 0
v 0.158737257 0.0770393759 0
v 0.230465069 0.181844503 0
v 0.194516256 0.0453822948 0
v 0.288847536 0.130415276 0
v 0.223997012 0.00551524572 0
v 0.332419604 0.0716480091 0
v 0.246065423 -0.0378611162 0
v 0.363232493 0.0111375833 0
v 0.260046721 -0.0788806826 0
v 0.38289842 -0.046686653 0
v 0.265805751 -0.109196834 0
v 0.392481297 -0.100124687 0
v 0.261594653 -0.126744211 0
v 0.380405128 -0.171611488 0
v 0.241319671 -0.164536834 0
v 0.346913218 -0.235098869 0
v 0.206826866 -0.207757011 0
v 0.299816817 -0.29425478 0
v 0.164040312 -0.247372076 0
v 0.242849275 -0.346961945 0
v 0.120031774 -0.276380956 0
v 0.178596094 -0.389071733 0
v 0.0789392069 -0.291573912 0
v 0.10820438 -0.415156096 0
v 0.0298430827 -0.297946841 0
v 0.0348569304 -0.424847811 0
v -0.0252313372 -0.295875698 0
v -0.0387373827 -0.422155529 0
v -0.0823053718 -0.286251277 0
v -0.110475302 -0.410087705 0
v -0.137450382 -0.270666718 0
v -0.178202927 -0.39095071 0
v -0.186797649 -0.251155883 0
v -0.239707604 -0.366609484 0
v -0.226279289 -0.230302364 0
v -0.292974532 -0.33837986 0
vt 1.00000012 1
vt 0.958333433 1
vt 1.00000012 0
vt 0.958333433 0
vt 0.916666806 1
vt 0.916666806 0
vt 0.875000119 1
vt 0.875000119 0
vt 0.833333433 1
vt 0.833333433 0
vt 0.791666746 1
vt 0.791666746 0
vt 0.750000119 1
vt 0.750000119 0
vt 0.708333492 1
vt 0.708333492 0
vt 0.666666806 1
vt 0.666666806 0
vt 0.625000119 1
vt 0.625000119 0
vt 0.583333492 1
vt 0.583333492 0
vt 0.541666865 1
vt 0.541666865 0
vt 0.500000179 1
vt 0.500000179 0
vt 0.458333492 1
vt 0.458333492 0
vt 0.416666806 1
vt 0.416666806 0
vt 0.375000119 1
vt 0.375000119 0
vt 0.333333433 1
vt 0.333333433 0
vt 0.291666746 1
vt 0.291666746 0
vt 0.25000006 1
vt 0.25000006 0
vt 0.208333373 1
vt 0.208333373 0
vt 0.166666687 1
vt 0.166666687 0
vt 0.125 1
vt 0.125 0
vt 0.0833333135 1
vt 0.0833333135 0
vt 0.0416666269 1
vt 0.0416666269 0
vt 0 1
vt 0 0
vn -0 0 -1
vn -0 0 -1
vn -0 0 -1
vn -0 0 -1
vn -0 0 -1
vn -0 0 -1
vn -0 0 -1
vn -0 0 -1
vn -0 0 -1
vn -0 0 -1
vn -0 0 -1
vn -0 0 -1
vn -0 0 -1
vn -0 0 -1
vn -0 0 -1
vn -0 0 -1
vn -0 0 -1
vn -0 0 -1
vn -0 0 -1
vn -0 0 -1
vn -0 0 -1
vn -0 0 -1
vn -0 0 -1
vn -0 0 -1
vn -0 0 -1
vn -0 0 -1
vn -0 0 -1
vn -0 0 -1
vn -0 0 -1
vn -0 0 -1
vn -0 0 -1
vn -0 0 -1
vn -0 0 -1
vn -0 0 -1
vn -0 0 -1
vn -0 0 -1
vn -0 0 -1
vn -0 0 -1
vn -0 0 -1
vn -0 0 -1
vn -0 0 -1
vn -0 0 -1
vn -0 0 -1
vn -0 0 -1
vn -0 0 -1
vn -0 0 -1
vn -0 0 -1
vn -0 0 -1
vn -0 0 -1
vn -0 0 -1
g Plane004_0
f 3/3/3 2/2/2 1/1/1
f 2/2/2 3/3/3 4/4/4
f 4/4/4 5/5/5 2/2/2
f 5/5/5 4/4/4 6/6/6
f 6/6/6 7/7/7 5/5/5
f 7/7/7 6/6/6 8/8/8
f 8/8/8 9/9/9 7/7/7
f 9/9/9 8/8/8 10/10/10
f 10/10/10 11/11/11 9/9/9
f 11/11/11 10/10/10 12/12/12
f 12/12/12 13/13/13 11/11/11
f 13/13/13 12/12/12 14/14/14
f 14/14/14 15/15/15 13/13/13
f 15/15/15 14/14/14 16/16/16
f 16/16/16 17/17/17 15/15/15
f 17/17/17 16/16/16 18/18/18
f 18/18/18 19/19/19 17/17/17
f 19/19/19 18/18/18 20/20/20
f 20/20/20 21/21/21 19/19/19
f 21/21/21 20/20/20 22/22/22
f 22/22/22 23/23/23 21/21/21
f 23/23/23 22/22/22 24/24/24
f 24/24/24 25/25/25 23/23/23
f 25/25/25 24/24/24 26/26/26
f 26/26/26 27/27/27 25/25/25
f 27/27/27 26/26/26 28/28/28
f 28/28/28 29/29/29 27/27/27
f 29/29/29 28/28/28 30/30/30
f 30/30/30 31/31/31 29/29/29
f 31/31/31 30/30/30 32/32/32
f 32/32/32 33/33/33 31/31/31
f 33/33/33 32/32/32 34/34/34
f 34/34/34 35/35/35 33/33/33
f 35/35/35 34/34/34 36/36/36
f 36/36/36 37/37/37 35/35/35
f 37/37/37 36/36/36 38/38/38
f 38/38/38 39/39/39 37/37/37
f 39/39/39 38/38/38 40/40/40
f 40/40/40 41/41/41 39/39/39
f 41/41/41 40/40/40 42/42/42
f 42/42/42 43/43/43 41/41/41
f 43/43/43 42/42/42 44/44/44
f 44/44/44 45/45/45 43/43/43
f 45/45/45 44/44/44 46/46/46
f 46/46/46 47/47/47 45/45/45
f 47/47/47 46/46/46 48/48/48
f 48/48/48 49/49/49 47/47/47
f 49/49/49 48/48/48 50/50/50
