g wuxian_01
v -0.585806608 0.209485218 0
v -0.543689013 0.302029908 0
v -0.373411685 0.121508531 0
v -0.347671777 0.181910217 0
v -0.487094134 0.386469632 0
v -0.312281042 0.237165004 0
v -0.417533487 0.460563153 0
v -0.268228978 0.285749912 0
v -0.336861789 0.522343993 0
v -0.216742218 0.326326668 0
v -0.247227758 0.570173204 0
v -0.15925096 0.357778311 0
v -0.151016846 0.602782011 0
v -0.0973489955 0.37923944 0
v -0.0507888719 0.619305491 0
v -0.0327516608 0.390119672 0
v 0.0507897772 0.619305432 0
v 0.0327523984 0.390119642 0
v 0.151017666 0.602781832 0
v 0.0973497778 0.379239291 0
v 0.247228563 0.570172787 0
v 0.159251601 0.357778013 0
v 0.336862475 0.522343576 0
v 0.216742918 0.326326221 0
v 0.417534262 0.460562497 0
v 0.268229663 0.285749316 0
v 0.48709473 0.386469007 0
v 0.312281579 0.237164453 0
v 0.54368943 0.302029133 0
v 0.347671956 0.181909829 0
v 0.585806787 0.20948486 0
v 0.373411953 0.121507928 0
v -1.06595707 0.377022952 0
v -0.988097012 0.545207798 0
v -0.831291497 0.279821545 0
v -0.771526515 0.41249302 0
v -0.884078681 0.698556066 0
v -0.690935671 0.533596218 0
v -0.756646872 0.833039165 0
v -0.591687083 0.639896035 0
v -0.609160185 0.945124984 0
v -0.476445615 0.728554308 0
v -0.445502639 1.03187013 0
v -0.348301083 0.797204792 0
v -0.26998207 1.09099722 0
v -0.210686892 0.844015241 0
v -0.0872163922 1.12095392 0
v -0.0672878996 0.867737055 0
v 0.0979851112 1.12095392 0
v 0.0780564323 0.867736876 0
v 0.280750304 1.09099698 0
v 0.221455082 0.844014943 0
v 0.456271172 1.03186941 0
v 0.359069467 0.797204137 0
v 0.619928598 0.94512409 0
v 0.487214059 0.728553414 0
v 0.767415285 0.833037972 0
v 0.602455497 0.639894903 0
v 0.894846797 0.698554814 0
v 0.701703727 0.533594966 0
v 0.998864532 0.545206785 0
v 0.782293737 0.412492394 0
v 1.07672441 0.377022088 0
v 0.842059076 0.279820383 0
v -1.5612905 0.554584384 0
v -1.4475143 0.802324355 0
v -1.27969205 0.437942535 0
v -1.1876297 0.643066645 0
v -1.2951014 1.02828395 0
v -1.0633297 0.830332279 0
v -1.10809577 1.22649837 0
v -0.91014415 0.994726658 0
v -0.891453743 1.39173555 0
v -0.732196212 1.13185084 0
v -0.650910258 1.51963592 0
v -0.534268379 1.23803735 0
v -0.392830759 1.60682452 0
v -0.321676582 1.31044602 0
v -0.12404044 1.65100169 0
v -0.100126252 1.34714115 0
v 0.14835079 1.65100157 0
v 0.124436386 1.34714103 0
v 0.417140484 1.60682428 0
v 0.345986247 1.31044602 0
v 0.675220132 1.51963556 0
v 0.558578134 1.23803699 0
v 0.915763259 1.39173543 0
v 0.756505609 1.13185072 0
v 1.132406 1.22649765 0
v 0.934454083 0.994725883 0
v 1.31941092 1.02828348 0
v 1.08763921 0.830331743 0
v 1.47182405 0.80232358 0
v 1.2119391 0.643066287 0
v 1.5855999 0.554583848 0
v 1.30400145 0.437942058 0
vt 0.294677377 0.0191309899
vt 0.322425097 0.0191309899
vt 0.294677377 0.00737334788
vt 0.322425097 0.00737334788
vt 0.350172758 0.0191309899
vt 0.350172758 0.00737334788
vt 0.377920508 0.0191309899
vt 0.377920508 0.00737334788
vt 0.405668169 0.0191309899
vt 0.405668169 0.00737334788
vt 0.43341589 0.0191309899
vt 0.43341589 0.00737334788
vt 0.461163551 0.0191309899
vt 0.461163551 0.00737334788
vt 0.488911271 0.0191309899
vt 0.488911271 0.00737334788
vt 0.516659021 0.0191309899
vt 0.516659021 0.00737334788
vt 0.544406652 0.0191309899
vt 0.544406652 0.00737334788
vt 0.572154343 0.0191309899
vt 0.572154343 0.00737334788
vt 0.599902034 0.0191309899
vt 0.599902034 0.00737334788
vt 0.627649784 0.0191309899
vt 0.627649784 0.00737334788
vt 0.655397415 0.0191309899
vt 0.655397415 0.00737334788
vt 0.683145106 0.0191309899
vt 0.683145106 0.00737334788
vt 0.710892737 0.0191309899
vt 0.710892737 0.00737334788
vt 0.296093553 0.156968147
vt 0.323841274 0.156968147
vt 0.296093553 0.144639388
vt 0.323841274 0.144639388
vt 0.351588964 0.156968147
vt 0.351588964 0.144639388
vt 0.379336655 0.156968147
vt 0.379336655 0.144639388
vt 0.407084346 0.156968147
vt 0.407084346 0.144639388
vt 0.434832066 0.156968147
vt 0.434832066 0.144639388
vt 0.462579727 0.156968147
vt 0.462579727 0.144639388
vt 0.490327448 0.156968147
vt 0.490327448 0.144639388
vt 0.518075168 0.156968147
vt 0.518075168 0.144639388
vt 0.545822859 0.156968147
vt 0.545822859 0.144639388
vt 0.573570549 0.156968147
vt 0.573570549 0.144639388
vt 0.60131824 0.156968147
vt 0.60131824 0.144639388
vt 0.629065931 0.156968147
vt 0.629065931 0.144639388
vt 0.656813622 0.156968147
vt 0.656813622 0.144639388
vt 0.684561312 0.156968147
vt 0.684561312 0.144639388
vt 0.712309003 0.156968147
vt 0.712309003 0.144639388
vt 0.291173726 0.313587874
vt 0.319114685 0.313587874
vt 0.291173726 0.301851898
vt 0.319114685 0.301851898
vt 0.347055674 0.313587874
vt 0.347055674 0.301851898
vt 0.374996662 0.313587874
vt 0.374996662 0.301851898
vt 0.402937651 0.313587874
vt 0.402937651 0.301851898
vt 0.430878639 0.313587874
vt 0.430878639 0.301851898
vt 0.458819568 0.313587874
vt 0.458819568 0.301851898
vt 0.486760557 0.313587874
vt 0.486760557 0.301851898
vt 0.514701486 0.313587874
vt 0.514701486 0.301851898
vt 0.542642474 0.313587874
vt 0.542642474 0.301851898
vt 0.570583463 0.313587874
vt 0.570583463 0.301851898
vt 0.598524451 0.313587874
vt 0.598524451 0.301851898
vt 0.62646538 0.313587874
vt 0.62646538 0.301851898
vt 0.654406369 0.313587874
vt 0.654406369 0.301851898
vt 0.682347298 0.313587874
vt 0.682347298 0.301851898
vt 0.710288346 0.313587874
vt 0.710288346 0.301851898
vn -0 0 1
vn -0 0 1
vn -0 0 1
vn -0 0 1
vn -0 0 1
vn -0 0 1
vn -0 0 1
vn -0 0 1
vn -0 0 1
vn -0 0 1
vn -0 0 1
vn -0 0 1
vn -0 0 1
vn -0 0 1
vn -0 0 1
vn -0 0 1
vn -0 0 1
vn -0 0 1
vn -0 0 1
vn -0 0 1
vn -0 0 1
vn -0 0 1
vn -0 0 1
vn -0 0 1
vn -0 0 1
vn -0 0 1
vn -0 0 1
vn -0 0 1
vn -0 0 1
vn -0 0 1
vn -0 0 1
vn -0 0 1
vn -0 0 1
vn -0 0 1
vn -0 0 1
vn -0 0 1
vn -0 0 1
vn -0 0 1
vn -0 0 1
vn -0 0 1
vn -0 0 1
vn -0 0 1
vn -0 0 1
vn -0 0 1
vn -0 0 1
vn -0 0 1
vn -0 0 1
vn -0 0 1
vn -0 0 1
vn -0 0 1
vn -0 0 1
vn -0 0 1
vn -0 0 1
vn -0 0 1
vn -0 0 1
vn -0 0 1
vn -0 0 1
vn -0 0 1
vn -0 0 1
vn -0 0 1
vn -0 0 1
vn -0 0 1
vn -0 0 1
vn -0 0 1
vn -0 0 1
vn -0 0 1
vn -0 0 1
vn -0 0 1
vn -0 0 1
vn -0 0 1
vn -0 0 1
vn -0 0 1
vn -0 0 1
vn -0 0 1
vn -0 0 1
vn -0 0 1
vn -0 0 1
vn -0 0 1
vn -0 0 1
vn -0 0 1
vn -0 0 1
vn -0 0 1
vn -0 0 1
vn -0 0 1
vn -0 0 1
vn -0 0 1
vn -0 0 1
vn -0 0 1
vn -0 0 1
vn -0 0 1
vn -0 0 1
vn -0 0 1
vn -0 0 1
vn -0 0 1
vn -0 0 1
vn -0 0 1
g wuxian_01_0
f 3/3/3 2/2/2 1/1/1
f 2/2/2 3/3/3 4/4/4
f 4/4/4 5/5/5 2/2/2
f 5/5/5 4/4/4 6/6/6
f 6/6/6 7/7/7 5/5/5
f 7/7/7 6/6/6 8/8/8
f 8/8/8 9/9/9 7/7/7
f 9/9/9 8/8/8 10/10/10
f 10/10/10 11/11/11 9/9/9
f 11/11/11 10/10/10 12/12/12
f 12/12/12 13/13/13 11/11/11
f 13/13/13 12/12/12 14/14/14
f 14/14/14 15/15/15 13/13/13
f 15/15/15 14/14/14 16/16/16
f 16/16/16 17/17/17 15/15/15
f 17/17/17 16/16/16 18/18/18
f 18/18/18 19/19/19 17/17/17
f 19/19/19 18/18/18 20/20/20
f 20/20/20 21/21/21 19/19/19
f 21/21/21 20/20/20 22/22/22
f 22/22/22 23/23/23 21/21/21
f 23/23/23 22/22/22 24/24/24
f 24/24/24 25/25/25 23/23/23
f 25/25/25 24/24/24 26/26/26
f 26/26/26 27/27/27 25/25/25
f 27/27/27 26/26/26 28/28/28
f 28/28/28 29/29/29 27/27/27
f 29/29/29 28/28/28 30/30/30
f 30/30/30 31/31/31 29/29/29
f 31/31/31 30/30/30 32/32/32
f 35/35/35 34/34/34 33/33/33
f 34/34/34 35/35/35 36/36/36
f 36/36/36 37/37/37 34/34/34
f 37/37/37 36/36/36 38/38/38
f 38/38/38 39/39/39 37/37/37
f 39/39/39 38/38/38 40/40/40
f 40/40/40 41/41/41 39/39/39
f 41/41/41 40/40/40 42/42/42
f 42/42/42 43/43/43 41/41/41
f 43/43/43 42/42/42 44/44/44
f 44/44/44 45/45/45 43/43/43
f 45/45/45 44/44/44 46/46/46
f 46/46/46 47/47/47 45/45/45
f 47/47/47 46/46/46 48/48/48
f 48/48/48 49/49/49 47/47/47
f 49/49/49 48/48/48 50/50/50
f 50/50/50 51/51/51 49/49/49
f 51/51/51 50/50/50 52/52/52
f 52/52/52 53/53/53 51/51/51
f 53/53/53 52/52/52 54/54/54
f 54/54/54 55/55/55 53/53/53
f 55/55/55 54/54/54 56/56/56
f 56/56/56 57/57/57 55/55/55
f 57/57/57 56/56/56 58/58/58
f 58/58/58 59/59/59 57/57/57
f 59/59/59 58/58/58 60/60/60
f 60/60/60 61/61/61 59/59/59
f 61/61/61 60/60/60 62/62/62
f 62/62/62 63/63/63 61/61/61
f 63/63/63 62/62/62 64/64/64
f 67/67/67 66/66/66 65/65/65
f 66/66/66 67/67/67 68/68/68
f 68/68/68 69/69/69 66/66/66
f 69/69/69 68/68/68 70/70/70
f 70/70/70 71/71/71 69/69/69
f 71/71/71 70/70/70 72/72/72
f 72/72/72 73/73/73 71/71/71
f 73/73/73 72/72/72 74/74/74
f 74/74/74 75/75/75 73/73/73
f 75/75/75 74/74/74 76/76/76
f 76/76/76 77/77/77 75/75/75
f 77/77/77 76/76/76 78/78/78
f 78/78/78 79/79/79 77/77/77
f 79/79/79 78/78/78 80/80/80
f 80/80/80 81/81/81 79/79/79
f 81/81/81 80/80/80 82/82/82
f 82/82/82 83/83/83 81/81/81
f 83/83/83 82/82/82 84/84/84
f 84/84/84 85/85/85 83/83/83
f 85/85/85 84/84/84 86/86/86
f 86/86/86 87/87/87 85/85/85
f 87/87/87 86/86/86 88/88/88
f 88/88/88 89/89/89 87/87/87
f 89/89/89 88/88/88 90/90/90
f 90/90/90 91/91/91 89/89/89
f 91/91/91 90/90/90 92/92/92
f 92/92/92 93/93/93 91/91/91
f 93/93/93 92/92/92 94/94/94
f 94/94/94 95/95/95 93/93/93
f 95/95/95 94/94/94 96/96/96
