g FX_m_slash_03
v 0.986086786 -1.64158714 -5.82643588E-05
v -1.05994332 -1.92918277 -5.82860266E-05
v 0.0199822094 -2.87632489 -5.82860266E-05
v -0.0368421786 -1.01933658 -5.82643588E-05
v 1.32387269 0.00781345181 -5.82643588E-05
v 0.32319501 -0.0162630826 -5.82643588E-05
v 0.20146212 0.832930267 5.88199218E-05
v 0.631636143 1.77060294 -5.88199218E-05
v -0.247447491 1.87509871 -5.74347287E-05
v -1.3238728 2.87632465 -5.71954879E-05
vt 0.752722442 1.00272238
vt 1.00272238 0.00272242888
vt 1.00272238 1.00272238
vt 0.752722442 0.00272242888
vt 0.502722442 1.00272238
vt 0.502722442 0.00272242888
vt 0.252722442 0.00272242888
vt 0.252722442 1.00272238
vt 0.00272242888 0.00272242888
vt 0.00272242888 1.00272238
vn -0.292824596 -0.956166267 -6.44076499E-06
vn 0.330341607 0.943861425 -9.84778126E-06
vn -0.582186222 0.813055456 -2.50194103E-06
vn 0.683740199 0.729721665 -0.00237017474
vn -0.378225863 -0.925713062 -0.000698602467
vn -0.00315954117 -0.999994755 -0.000827304262
vn -0.93799454 -0.346650183 -0.000116990443
vn -0.944623172 -0.328156918 -0.000109531968
vn -0.965337276 0.2610057 -8.59856591E-05
vn -0.955166459 0.296069175 -8.57219566E-05
g FX_m_slash_03_0
f 3/3/3 2/2/2 1/1/1
f 4/4/4 1/1/1 2/2/2
f 1/1/1 4/4/4 5/5/5
f 6/6/6 5/5/5 4/4/4
f 6/6/6 7/7/7 5/5/5
f 8/8/8 5/5/5 7/7/7
f 7/7/7 9/9/9 8/8/8
f 10/10/10 8/8/8 9/9/9
