g Plane003
v -0.150442809 -0.168823034 0
v -0.0875793695 -0.240626544 0
v -0.165304542 -0.236180544 0
v -0.0790171251 -0.19979617 0
v -0.00985421892 -0.245072544 0
v -0.115102999 -0.113664113 0
v -0.00759139704 -0.230769292 0
v -0.0561833419 -0.164550647 0
v -0.0729504675 -0.0730656832 0
v 0.0027363156 -0.215437204 0
v -0.0232742578 -0.133009344 0
v -0.0304138903 -0.040538542 0
v 0.0264019258 -0.192952991 0
v 0.0152763929 -0.103573158 0
v 0.00827575475 -0.012397211 0
v 0.0609666891 -0.166607767 0
v 0.0550348423 -0.0746431276 0
v 0.0385474525 0.0123872953 0
v 0.10179393 -0.136889055 0
v 0.0915673301 -0.0446202457 0
v 0.05609769 0.0319240019 0
v 0.144587204 -0.101627782 0
v 0.120440066 -0.0119054895 0
v 0.0614014603 0.0427812636 0
v 0.184782445 -0.0557349809 0
v 0.137219295 0.0251001697 0
v 0.0611995831 0.052387815 0
v 0.213037133 0.00741907535 0
v 0.137471199 0.0679956973 0
v 0.0510678738 0.0761783645 0
v 0.213742808 0.0836035833 0
v 0.116867281 0.117788509 0
v 0.0314512774 0.0978907645 0
v 0.182666689 0.159398645 0
v 0.0811332986 0.157829612 0
v 0.000784327101 0.118559621 0
v 0.130815297 0.217768446 0
v 0.0401532166 0.18572402 0
v -0.0400945246 0.142434582 0
v 0.079522118 0.252888411 0
v 0.00148682785 0.208252192 0
v -0.0883097276 0.183825985 0
v 0.043068178 0.274069786 0
v -0.0273062307 0.232194766 0
v -0.116504855 0.257253826 0
v 0.0371516794 0.277022779 0
v -0.0390879251 0.265474826 0
v 0.035239879 0.27876994 0
vt 0.933333337 0
vt 1 0.5
vt 1 0
vt 0.933333337 0.5
vt 1 1
vt 0.866666675 0
vt 0.933333337 1
vt 0.866666675 0.5
vt 0.800000012 0
vt 0.866666675 1
vt 0.800000012 0.5
vt 0.733333349 0
vt 0.800000012 1
vt 0.733333349 0.5
vt 0.666666687 0
vt 0.733333349 1
vt 0.666666687 0.5
vt 0.600000024 0
vt 0.666666687 1
vt 0.600000024 0.5
vt 0.533333361 0
vt 0.600000024 1
vt 0.533333361 0.5
vt 0.466666669 0
vt 0.533333361 1
vt 0.466666669 0.5
vt 0.400000006 0
vt 0.466666669 1
vt 0.400000006 0.5
vt 0.333333343 0
vt 0.400000006 1
vt 0.333333343 0.5
vt 0.266666681 0
vt 0.333333343 1
vt 0.266666681 0.5
vt 0.200000018 0
vt 0.266666681 1
vt 0.200000018 0.5
vt 0.13333334 0
vt 0.200000018 1
vt 0.13333334 0.5
vt 0.0666666701 0
vt 0.13333334 1
vt 0.0666666701 0.5
vt 0 0
vt 0.0666666701 1
vt 0 0.5
vt 0 1
vn -0 0 1
vn -0 0 1
vn -0 0 1
vn -0 0 1
vn -0 0 1
vn -0 0 1
vn -0 0 1
vn -0 0 1
vn -0 0 1
vn -0 0 1
vn -0 0 1
vn -0 0 1
vn -0 0 1
vn -0 0 1
vn -0 0 1
vn -0 0 1
vn -0 0 1
vn -0 0 1
vn -0 0 1
vn -0 0 1
vn -0 0 1
vn -0 0 1
vn -0 0 1
vn -0 0 1
vn -0 0 1
vn -0 0 1
vn -0 0 1
vn -0 0 1
vn -0 0 1
vn -0 0 1
vn -0 0 1
vn -0 0 1
vn -0 0 1
vn -0 0 1
vn -0 0 1
vn -0 0 1
vn -0 0 1
vn -0 0 1
vn -0 0 1
vn -0 0 1
vn -0 0 1
vn -0 0 1
vn -0 0 1
vn -0 0 1
vn -0 0 1
vn -0 0 1
vn -0 0 1
vn -0 0 1
g Plane003_0
f 3/3/3 2/2/2 1/1/1
f 4/4/4 1/1/1 2/2/2
f 2/2/2 5/5/5 4/4/4
f 1/1/1 4/4/4 6/6/6
f 7/7/7 4/4/4 5/5/5
f 8/8/8 6/6/6 4/4/4
f 4/4/4 7/7/7 8/8/8
f 6/6/6 8/8/8 9/9/9
f 10/10/10 8/8/8 7/7/7
f 11/11/11 9/9/9 8/8/8
f 8/8/8 10/10/10 11/11/11
f 9/9/9 11/11/11 12/12/12
f 13/13/13 11/11/11 10/10/10
f 14/14/14 12/12/12 11/11/11
f 11/11/11 13/13/13 14/14/14
f 12/12/12 14/14/14 15/15/15
f 16/16/16 14/14/14 13/13/13
f 17/17/17 15/15/15 14/14/14
f 14/14/14 16/16/16 17/17/17
f 15/15/15 17/17/17 18/18/18
f 19/19/19 17/17/17 16/16/16
f 20/20/20 18/18/18 17/17/17
f 17/17/17 19/19/19 20/20/20
f 18/18/18 20/20/20 21/21/21
f 22/22/22 20/20/20 19/19/19
f 23/23/23 21/21/21 20/20/20
f 20/20/20 22/22/22 23/23/23
f 21/21/21 23/23/23 24/24/24
f 25/25/25 23/23/23 22/22/22
f 26/26/26 24/24/24 23/23/23
f 23/23/23 25/25/25 26/26/26
f 24/24/24 26/26/26 27/27/27
f 28/28/28 26/26/26 25/25/25
f 29/29/29 27/27/27 26/26/26
f 26/26/26 28/28/28 29/29/29
f 27/27/27 29/29/29 30/30/30
f 31/31/31 29/29/29 28/28/28
f 32/32/32 30/30/30 29/29/29
f 29/29/29 31/31/31 32/32/32
f 30/30/30 32/32/32 33/33/33
f 34/34/34 32/32/32 31/31/31
f 35/35/35 33/33/33 32/32/32
f 32/32/32 34/34/34 35/35/35
f 33/33/33 35/35/35 36/36/36
f 37/37/37 35/35/35 34/34/34
f 38/38/38 36/36/36 35/35/35
f 35/35/35 37/37/37 38/38/38
f 36/36/36 38/38/38 39/39/39
f 40/40/40 38/38/38 37/37/37
f 41/41/41 39/39/39 38/38/38
f 38/38/38 40/40/40 41/41/41
f 39/39/39 41/41/41 42/42/42
f 43/43/43 41/41/41 40/40/40
f 44/44/44 42/42/42 41/41/41
f 41/41/41 43/43/43 44/44/44
f 42/42/42 44/44/44 45/45/45
f 46/46/46 44/44/44 43/43/43
f 47/47/47 45/45/45 44/44/44
f 44/44/44 46/46/46 47/47/47
f 48/48/48 47/47/47 46/46/46
