g Line004
v -0.582647383 0.0793016776 0
v 0.457085878 0.0264338683 0
v -0.661949158 0.0264338683 0
v 0.897651017 0.0793016776 0
v 0.457085878 -0.0264338683 0
v 1.16199005 -0.0793016776 0
v -0.8337695 -0.0264338683 0
v -0.895448565 -0.0793016776 0
vt 0.216809332 1
vt 0.722162604 0.666666508
vt 0.178265423 0.666666508
vt 0.93629539 1
vt 0.722162604 0.333333492
vt 1.06477499 0
vt 0.0947536528 0.333333492
vt 0.0647750497 0
vn -0 0 1
vn -0 0 1
vn -0 0 1
vn -0 0 1
vn -0 0 1
vn -0 0 1
vn -0 0 1
vn -0 0 1
g Line004_0
f 3/3/3 2/2/2 1/1/1
f 2/2/2 4/4/4 1/1/1
f 5/5/5 4/4/4 2/2/2
f 6/6/6 4/4/4 5/5/5
f 7/7/7 6/6/6 5/5/5
f 8/8/8 6/6/6 7/7/7
