g Plane003
v 0.181970581 -0.0263465028 -0.0427577533
v 0.326036096 -0.00434818584 0.0500249527
v 0.312487483 -0.102157332 0.0732907131
v 0.17505455 -0.0822285265 -0.0294831134
v 0.270896167 -0.190694153 0.0958017856
v 0.151822671 -0.134868816 -0.016236024
v 0.206007794 -0.26260227 0.117581591
v 0.113905616 -0.179975212 -0.00298950984
v 0.13180764 -0.30813244 0.136729732
v 0.0552445576 -0.216103673 0.012165579
v 0.0403873771 -0.33420068 0.157276809
v -0.00347933569 -0.231743649 0.0252703875
v -0.0534082353 -0.334089756 0.177160949
v -0.0655689165 -0.231848612 0.0384299085
v -0.142623976 -0.309150279 0.196406528
v -0.127274424 -0.216095045 0.051656574
v -0.215127781 -0.264808804 0.213719442
v -0.188340873 -0.178937793 0.0662200674
v -0.278165132 -0.199803606 0.231895626
v -0.234004021 -0.131653145 0.0794071183
v -0.320095927 -0.126989141 0.24845615
v -0.270119101 -0.0686154589 0.0937232897
v -0.342418492 -0.0412371159 0.265635222
v -0.286322147 -0.00245174277 0.10690175
v -0.343561113 0.0459127575 0.282283515
v -0.287679046 0.0670768097 0.120182589
vt 0 0
vt 0 1
vt 0.0399999991 1
vt 0.0399999991 0
vt 0.0799999982 1
vt 0.0799999982 0
vt 0.119999997 1
vt 0.119999997 0
vt 0.159999996 1
vt 0.159999996 0
vt 0.199999988 1
vt 0.199999988 0
vt 0.23999998 1
vt 0.23999998 0
vt 0.279999971 1
vt 0.279999971 0
vt 0.319999963 1
vt 0.319999963 0
vt 0.359999955 1
vt 0.359999955 0
vt 0.399999946 1
vt 0.399999946 0
vt 0.439999938 1
vt 0.439999938 0
vt 0.47999993 1
vt 0.47999993 0
vn -0.55194509 0.261731863 0.791740537
vn -0.55194509 0.261731893 0.791740537
vn -0.530204654 0.344744086 0.774618983
vn -0.531117439 0.341594577 0.775388479
vn -0.457670629 0.501147866 0.734430611
vn -0.46050182 0.496774048 0.735631406
vn -0.330601752 0.639461756 0.694111764
vn -0.336230904 0.63491708 0.695578218
vn -0.168006718 0.739569724 0.651774824
vn -0.16408816 0.741344929 0.650755465
vn 0.0236022472 0.794590414 0.60668695
vn 0.0244693011 0.794705749 0.60650146
vn 0.226956129 0.794469655 0.563301742
vn 0.224055707 0.79485321 0.563921571
vn 0.43620944 0.734132528 0.520356357
vn 0.430491 0.736670732 0.521530211
vn 0.621145129 0.622712314 0.475823671
vn 0.622742712 0.621453762 0.475380629
vn 0.769610465 0.46949923 0.432747364
vn 0.768391311 0.471147686 0.43312186
vn 0.879007697 0.275436282 0.389204532
vn 0.880603433 0.271556139 0.388323188
vn 0.93754375 0.0576833077 0.343051583
vn 0.937576771 0.057431072 0.343003869
vn 0.938547373 -0.166304439 0.302442908
vn 0.938910782 -0.163224399 0.302992284
g Plane003_0
f 3/3/3 2/2/2 1/1/1
f 4/4/4 3/3/3 1/1/1
f 5/5/5 3/3/3 4/4/4
f 6/6/6 5/5/5 4/4/4
f 7/7/7 5/5/5 6/6/6
f 8/8/8 7/7/7 6/6/6
f 9/9/9 7/7/7 8/8/8
f 10/10/10 9/9/9 8/8/8
f 11/11/11 9/9/9 10/10/10
f 12/12/12 11/11/11 10/10/10
f 13/13/13 11/11/11 12/12/12
f 14/14/14 13/13/13 12/12/12
f 15/15/15 13/13/13 14/14/14
f 16/16/16 15/15/15 14/14/14
f 17/17/17 15/15/15 16/16/16
f 18/18/18 17/17/17 16/16/16
f 19/19/19 17/17/17 18/18/18
f 20/20/20 19/19/19 18/18/18
f 21/21/21 19/19/19 20/20/20
f 22/22/22 21/21/21 20/20/20
f 23/23/23 21/21/21 22/22/22
f 24/24/24 23/23/23 22/22/22
f 25/25/25 23/23/23 24/24/24
f 26/26/26 25/25/25 24/24/24
