g fx_mesh_plane_04
v -0.609600008 -1.01600003 0
v -0.406399995 -1.01600003 0.152400002
v -0.406399995 -1.01600003 0
v -0.609600008 -1.01600003 0.152400002
v -0.406399995 -1.01600003 0.304800004
v -0.81279999 -1.01600003 0
v -0.609600008 -1.01600003 0.304800004
v -0.406399995 -1.01600003 0.457199991
v -0.81279999 -1.01600003 0.152400002
v -1.01600003 -1.01600003 0
v -1.01600003 -1.01600003 0.152400002
v -0.81279999 -1.01600003 0.304800004
v -1.01600003 -1.01600003 0.304800004
v -0.609600008 -1.01600003 0.457199991
v -0.406399995 -1.01600003 0.609600008
v -0.81279999 -1.01600003 0.457199991
v -1.01600003 -1.01600003 0.457199991
v -0.609600008 -1.01600003 0.609600008
v -0.406399995 -1.01600003 0.761999965
v -0.609600008 -1.01600003 0.761999965
v -0.81279999 -1.01600003 0.609600008
v -1.01600003 -1.01600003 0.609600008
v -0.81279999 -1.01600003 0.761999965
v -1.01600003 -1.01600003 0.761999965
v 0.81279999 -1.01600003 0
v 1.01600003 -1.01600003 0.152400002
v 1.01600003 -1.01600003 0
v 0.81279999 -1.01600003 0.152400002
v 1.01600003 -1.01600003 0.304800004
v 0.609600008 -1.01600003 0
v 0.81279999 -1.01600003 0.304800004
v 1.01600003 -1.01600003 0.457199991
v 0.609600008 -1.01600003 0.152400002
v 0.406399995 -1.01600003 0
v 0.406399995 -1.01600003 0.152400002
v 0.609600008 -1.01600003 0.304800004
v 0.406399995 -1.01600003 0.304800004
v 0.81279999 -1.01600003 0.457199991
v 1.01600003 -1.01600003 0.609600008
v 0.609600008 -1.01600003 0.457199991
v 0.406399995 -1.01600003 0.457199991
v 0.81279999 -1.01600003 0.609600008
v 1.01600003 -1.01600003 0.761999965
v 0.81279999 -1.01600003 0.761999965
v 0.609600008 -1.01600003 0.609600008
v 0.406399995 -1.01600003 0.609600008
v 0.609600008 -1.01600003 0.761999965
v 0.406399995 -1.01600003 0.761999965
v 1.01600003 -0.609600008 0
v 1.01600003 -0.406399995 0.152400002
v 1.01600003 -0.406399995 0
v 1.01600003 -0.609600008 0.152400002
v 1.01600003 -0.406399995 0.304800004
v 1.01600003 -0.81279999 0
v 1.01600003 -0.609600008 0.304800004
v 1.01600003 -0.406399995 0.457199991
v 1.01600003 -0.81279999 0.152400002
v 1.01600003 -1.01600003 0
v 1.01600003 -1.01600003 0.152400002
v 1.01600003 -0.81279999 0.304800004
v 1.01600003 -1.01600003 0.304800004
v 1.01600003 -0.609600008 0.457199991
v 1.01600003 -0.406399995 0.609600008
v 1.01600003 -0.81279999 0.457199991
v 1.01600003 -1.01600003 0.457199991
v 1.01600003 -0.609600008 0.609600008
v 1.01600003 -0.406399995 0.761999965
v 1.01600003 -0.609600008 0.761999965
v 1.01600003 -0.81279999 0.609600008
v 1.01600003 -1.01600003 0.609600008
v 1.01600003 -0.81279999 0.761999965
v 1.01600003 -1.01600003 0.761999965
v 1.01600003 0.81279999 0
v 1.01600003 1.01600003 0.152400002
v 1.01600003 1.01600003 0
v 1.01600003 0.81279999 0.152400002
v 1.01600003 1.01600003 0.304800004
v 1.01600003 0.609600008 0
v 1.01600003 0.81279999 0.304800004
v 1.01600003 1.01600003 0.457199991
v 1.01600003 0.609600008 0.152400002
v 1.01600003 0.406399995 0
v 1.01600003 0.406399995 0.152400002
v 1.01600003 0.609600008 0.304800004
v 1.01600003 0.406399995 0.304800004
v 1.01600003 0.81279999 0.457199991
v 1.01600003 1.01600003 0.609600008
v 1.01600003 0.609600008 0.457199991
v 1.01600003 0.406399995 0.457199991
v 1.01600003 0.81279999 0.609600008
v 1.01600003 1.01600003 0.761999965
v 1.01600003 0.81279999 0.761999965
v 1.01600003 0.609600008 0.609600008
v 1.01600003 0.406399995 0.609600008
v 1.01600003 0.609600008 0.761999965
v 1.01600003 0.406399995 0.761999965
v 0.609600008 1.01600003 0
v 0.406399995 1.01600003 0.152400002
v 0.406399995 1.01600003 0
v 0.609600008 1.01600003 0.152400002
v 0.406399995 1.01600003 0.304800004
v 0.81279999 1.01600003 0
v 0.609600008 1.01600003 0.304800004
v 0.406399995 1.01600003 0.457199991
v 0.81279999 1.01600003 0.152400002
v 1.01600003 1.01600003 0
v 1.01600003 1.01600003 0.152400002
v 0.81279999 1.01600003 0.304800004
v 1.01600003 1.01600003 0.304800004
v 0.609600008 1.01600003 0.457199991
v 0.406399995 1.01600003 0.609600008
v 0.81279999 1.01600003 0.457199991
v 1.01600003 1.01600003 0.457199991
v 0.609600008 1.01600003 0.609600008
v 0.406399995 1.01600003 0.761999965
v 0.609600008 1.01600003 0.761999965
v 0.81279999 1.01600003 0.609600008
v 1.01600003 1.01600003 0.609600008
v 0.81279999 1.01600003 0.761999965
v 1.01600003 1.01600003 0.761999965
v -0.81279999 1.01600003 0
v -1.01600003 1.01600003 0.152400002
v -1.01600003 1.01600003 0
v -0.81279999 1.01600003 0.152400002
v -1.01600003 1.01600003 0.304800004
v -0.609600008 1.01600003 0
v -0.81279999 1.01600003 0.304800004
v -1.01600003 1.01600003 0.457199991
v -0.609600008 1.01600003 0.152400002
v -0.406399995 1.01600003 0
v -0.406399995 1.01600003 0.152400002
v -0.609600008 1.01600003 0.304800004
v -0.406399995 1.01600003 0.304800004
v -0.81279999 1.01600003 0.457199991
v -1.01600003 1.01600003 0.609600008
v -0.609600008 1.01600003 0.457199991
v -0.406399995 1.01600003 0.457199991
v -0.81279999 1.01600003 0.609600008
v -1.01600003 1.01600003 0.761999965
v -0.81279999 1.01600003 0.761999965
v -0.609600008 1.01600003 0.609600008
v -0.406399995 1.01600003 0.609600008
v -0.609600008 1.01600003 0.761999965
v -0.406399995 1.01600003 0.761999965
v -1.01600003 0.609600008 0
v -1.01600003 0.406399995 0.152400002
v -1.01600003 0.406399995 0
v -1.01600003 0.609600008 0.152400002
v -1.01600003 0.406399995 0.304800004
v -1.01600003 0.81279999 0
v -1.01600003 0.609600008 0.304800004
v -1.01600003 0.406399995 0.457199991
v -1.01600003 0.81279999 0.152400002
v -1.01600003 1.01600003 0
v -1.01600003 1.01600003 0.152400002
v -1.01600003 0.81279999 0.304800004
v -1.01600003 1.01600003 0.304800004
v -1.01600003 0.609600008 0.457199991
v -1.01600003 0.406399995 0.609600008
v -1.01600003 0.81279999 0.457199991
v -1.01600003 1.01600003 0.457199991
v -1.01600003 0.609600008 0.609600008
v -1.01600003 0.406399995 0.761999965
v -1.01600003 0.609600008 0.761999965
v -1.01600003 0.81279999 0.609600008
v -1.01600003 1.01600003 0.609600008
v -1.01600003 0.81279999 0.761999965
v -1.01600003 1.01600003 0.761999965
v -1.01600003 -0.81279999 0
v -1.01600003 -1.01600003 0.152400002
v -1.01600003 -1.01600003 0
v -1.01600003 -0.81279999 0.152400002
v -1.01600003 -1.01600003 0.304800004
v -1.01600003 -0.609600008 0
v -1.01600003 -0.81279999 0.304800004
v -1.01600003 -1.01600003 0.457199991
v -1.01600003 -0.609600008 0.152400002
v -1.01600003 -0.406399995 0
v -1.01600003 -0.406399995 0.152400002
v -1.01600003 -0.609600008 0.304800004
v -1.01600003 -0.406399995 0.304800004
v -1.01600003 -0.81279999 0.457199991
v -1.01600003 -1.01600003 0.609600008
v -1.01600003 -0.609600008 0.457199991
v -1.01600003 -0.406399995 0.457199991
v -1.01600003 -0.81279999 0.609600008
v -1.01600003 -1.01600003 0.761999965
v -1.01600003 -0.81279999 0.761999965
v -1.01600003 -0.609600008 0.609600008
v -1.01600003 -0.406399995 0.609600008
v -1.01600003 -0.609600008 0.761999965
v -1.01600003 -0.406399995 0.761999965
vt -0.00161761045 0.99706018
vt 0.198987886 1.23534179
vt -0.00161761045 1.23534179
vt 0.198987886 0.99706018
vt 0.399593264 1.23534179
vt -0.00161761045 0.758778214
vt 0.399593264 0.99706018
vt 0.600198805 1.23534179
vt 0.198987827 0.758778214
vt -0.00161761045 0.522871077
vt 0.198987886 0.522871077
vt 0.399593264 0.758778214
vt 0.399593264 0.522871077
vt 0.600198805 0.99706018
vt 0.800804257 1.23534179
vt 0.600198805 0.758778214
vt 0.600198805 0.521826446
vt 0.800804257 0.99706018
vt 1.00140965 1.23534179
vt 1.00140965 0.99706018
vt 0.800804257 0.758778036
vt 0.800804257 0.521921158
vt 1.00140965 0.758778036
vt 1.00140965 0.522871077
vt -0.00191360712 0.270839095
vt 0.198846459 0.521386325
vt -0.00191360712 0.521386325
vt 0.198846459 0.270839095
vt 0.399606407 0.521386325
vt -0.00191360712 0.0177690759
vt 0.399606466 0.270839095
vt 0.600366592 0.522496104
vt 0.198846459 0.0177690759
vt -0.00191360712 -0.235301003
vt 0.198846459 -0.235301003
vt 0.399606466 0.0177690759
vt 0.399606466 -0.235301003
vt 0.600366592 0.270839095
vt 0.801126599 0.522395134
vt 0.600366592 0.0177690759
vt 0.600366592 -0.235301003
vt 0.801126599 0.270838737
vt 1.00188661 0.521386325
vt 1.00188661 0.270838737
vt 0.801126599 0.0177687779
vt 0.801126599 -0.235301316
vt 1.00188661 0.0177687779
vt 1.00188661 -0.235301316
vt -0.00161761045 0.99706018
vt 0.198987886 1.23534179
vt -0.00161761045 1.23534179
vt 0.198987886 0.99706018
vt 0.399593264 1.23534179
vt -0.00161761045 0.758778214
vt 0.399593264 0.99706018
vt 0.600198805 1.23534179
vt 0.198987827 0.758778214
vt -0.00161761045 0.522871077
vt 0.198987886 0.522871077
vt 0.399593264 0.758778214
vt 0.399593264 0.522871077
vt 0.600198805 0.99706018
vt 0.800804257 1.23534179
vt 0.600198805 0.758778214
vt 0.600198805 0.521826446
vt 0.800804257 0.99706018
vt 1.00140965 1.23534179
vt 1.00140965 0.99706018
vt 0.800804257 0.758778036
vt 0.800804257 0.521921158
vt 1.00140965 0.758778036
vt 1.00140965 0.522871077
vt -0.00191360712 0.270839095
vt 0.198846459 0.521386325
vt -0.00191360712 0.521386325
vt 0.198846459 0.270839095
vt 0.399606407 0.521386325
vt -0.00191360712 0.0177690759
vt 0.399606466 0.270839095
vt 0.600366592 0.522496104
vt 0.198846459 0.0177690759
vt -0.00191360712 -0.235301003
vt 0.198846459 -0.235301003
vt 0.399606466 0.0177690759
vt 0.399606466 -0.235301003
vt 0.600366592 0.270839095
vt 0.801126599 0.522395134
vt 0.600366592 0.0177690759
vt 0.600366592 -0.235301003
vt 0.801126599 0.270838737
vt 1.00188661 0.521386325
vt 1.00188661 0.270838737
vt 0.801126599 0.0177687779
vt 0.801126599 -0.235301316
vt 1.00188661 0.0177687779
vt 1.00188661 -0.235301316
vt -0.00161761045 0.99706018
vt 0.198987886 1.23534179
vt -0.00161761045 1.23534179
vt 0.198987886 0.99706018
vt 0.399593264 1.23534179
vt -0.00161761045 0.758778214
vt 0.399593264 0.99706018
vt 0.600198805 1.23534179
vt 0.198987827 0.758778214
vt -0.00161761045 0.522871077
vt 0.198987886 0.522871077
vt 0.399593264 0.758778214
vt 0.399593264 0.522871077
vt 0.600198805 0.99706018
vt 0.800804257 1.23534179
vt 0.600198805 0.758778214
vt 0.600198805 0.521826446
vt 0.800804257 0.99706018
vt 1.00140965 1.23534179
vt 1.00140965 0.99706018
vt 0.800804257 0.758778036
vt 0.800804257 0.521921158
vt 1.00140965 0.758778036
vt 1.00140965 0.522871077
vt -0.00191360712 0.270839095
vt 0.198846459 0.521386325
vt -0.00191360712 0.521386325
vt 0.198846459 0.270839095
vt 0.399606407 0.521386325
vt -0.00191360712 0.0177690759
vt 0.399606466 0.270839095
vt 0.600366592 0.522496104
vt 0.198846459 0.0177690759
vt -0.00191360712 -0.235301003
vt 0.198846459 -0.235301003
vt 0.399606466 0.0177690759
vt 0.399606466 -0.235301003
vt 0.600366592 0.270839095
vt 0.801126599 0.522395134
vt 0.600366592 0.0177690759
vt 0.600366592 -0.235301003
vt 0.801126599 0.270838737
vt 1.00188661 0.521386325
vt 1.00188661 0.270838737
vt 0.801126599 0.0177687779
vt 0.801126599 -0.235301316
vt 1.00188661 0.0177687779
vt 1.00188661 -0.235301316
vt -0.00161761045 0.99706018
vt 0.198987886 1.23534179
vt -0.00161761045 1.23534179
vt 0.198987886 0.99706018
vt 0.399593264 1.23534179
vt -0.00161761045 0.758778214
vt 0.399593264 0.99706018
vt 0.600198805 1.23534179
vt 0.198987827 0.758778214
vt -0.00161761045 0.522871077
vt 0.198987886 0.522871077
vt 0.399593264 0.758778214
vt 0.399593264 0.522871077
vt 0.600198805 0.99706018
vt 0.800804257 1.23534179
vt 0.600198805 0.758778214
vt 0.600198805 0.521826446
vt 0.800804257 0.99706018
vt 1.00140965 1.23534179
vt 1.00140965 0.99706018
vt 0.800804257 0.758778036
vt 0.800804257 0.521921158
vt 1.00140965 0.758778036
vt 1.00140965 0.522871077
vt -0.00191360712 0.270839095
vt 0.198846459 0.521386325
vt -0.00191360712 0.521386325
vt 0.198846459 0.270839095
vt 0.399606407 0.521386325
vt -0.00191360712 0.0177690759
vt 0.399606466 0.270839095
vt 0.600366592 0.522496104
vt 0.198846459 0.0177690759
vt -0.00191360712 -0.235301003
vt 0.198846459 -0.235301003
vt 0.399606466 0.0177690759
vt 0.399606466 -0.235301003
vt 0.600366592 0.270839095
vt 0.801126599 0.522395134
vt 0.600366592 0.0177690759
vt 0.600366592 -0.235301003
vt 0.801126599 0.270838737
vt 1.00188661 0.521386325
vt 1.00188661 0.270838737
vt 0.801126599 0.0177687779
vt 0.801126599 -0.235301316
vt 1.00188661 0.0177687779
vt 1.00188661 -0.235301316
vn -0 -1 0
vn -0 -1 0
vn -0 -1 0
vn -0 -1 0
vn -0 -1 0
vn -0 -1 0
vn -0 -1 0
vn -0 -1 0
vn -0 -1 0
vn -0 -1 0
vn -0 -1 0
vn -0 -1 0
vn -0 -1 0
vn -0 -1 0
vn -0 -1 0
vn -0 -1 0
vn -0 -1 0
vn -0 -1 0
vn -0 -1 0
vn -0 -1 0
vn -0 -1 0
vn -0 -1 0
vn -0 -1 0
vn -0 -1 0
vn -0 -1 0
vn -0 -1 0
vn -0 -1 0
vn -0 -1 0
vn -0 -1 0
vn -0 -1 0
vn -0 -1 0
vn -0 -1 0
vn -0 -1 0
vn -0 -1 0
vn -0 -1 0
vn -0 -1 0
vn -0 -1 0
vn -0 -1 0
vn -0 -1 0
vn -0 -1 0
vn -0 -1 0
vn -0 -1 0
vn -0 -1 0
vn -0 -1 0
vn -0 -1 0
vn -0 -1 0
vn -0 -1 0
vn -0 -1 0
vn 1 0 0
vn 1 0 0
vn 1 0 0
vn 1 0 0
vn 1 0 0
vn 1 0 0
vn 1 0 0
vn 1 0 0
vn 1 0 0
vn 1 0 0
vn 1 0 0
vn 1 0 0
vn 1 0 0
vn 1 0 0
vn 1 0 0
vn 1 0 0
vn 1 0 0
vn 1 0 0
vn 1 0 0
vn 1 0 0
vn 1 0 0
vn 1 0 0
vn 1 0 0
vn 1 0 0
vn 1 0 0
vn 1 0 0
vn 1 0 0
vn 1 0 0
vn 1 0 0
vn 1 0 0
vn 1 0 0
vn 1 0 0
vn 1 0 0
vn 1 0 0
vn 1 0 0
vn 1 0 0
vn 1 0 0
vn 1 0 0
vn 1 0 0
vn 1 0 0
vn 1 0 0
vn 1 0 0
vn 1 0 0
vn 1 0 0
vn 1 0 0
vn 1 0 0
vn 1 0 0
vn 1 0 0
vn -0 1 0
vn -0 1 0
vn -0 1 0
vn -0 1 0
vn -0 1 0
vn -0 1 0
vn -0 1 0
vn -0 1 0
vn -0 1 0
vn -0 1 0
vn -0 1 0
vn -0 1 0
vn -0 1 0
vn -0 1 0
vn -0 1 0
vn -0 1 0
vn -0 1 0
vn -0 1 0
vn -0 1 0
vn -0 1 0
vn -0 1 0
vn -0 1 0
vn -0 1 0
vn -0 1 0
vn -0 1 0
vn -0 1 0
vn -0 1 0
vn -0 1 0
vn -0 1 0
vn -0 1 0
vn -0 1 0
vn -0 1 0
vn -0 1 0
vn -0 1 0
vn -0 1 0
vn -0 1 0
vn -0 1 0
vn -0 1 0
vn -0 1 0
vn -0 1 0
vn -0 1 0
vn -0 1 0
vn -0 1 0
vn -0 1 0
vn -0 1 0
vn -0 1 0
vn -0 1 0
vn -0 1 0
vn -1 0 0
vn -1 0 0
vn -1 0 0
vn -1 0 0
vn -1 0 0
vn -1 0 0
vn -1 0 0
vn -1 0 0
vn -1 0 0
vn -1 0 0
vn -1 0 0
vn -1 0 0
vn -1 0 0
vn -1 0 0
vn -1 0 0
vn -1 0 0
vn -1 0 0
vn -1 0 0
vn -1 0 0
vn -1 0 0
vn -1 0 0
vn -1 0 0
vn -1 0 0
vn -1 0 0
vn -1 0 0
vn -1 0 0
vn -1 0 0
vn -1 0 0
vn -1 0 0
vn -1 0 0
vn -1 0 0
vn -1 0 0
vn -1 0 0
vn -1 0 0
vn -1 0 0
vn -1 0 0
vn -1 0 0
vn -1 0 0
vn -1 0 0
vn -1 0 0
vn -1 0 0
vn -1 0 0
vn -1 0 0
vn -1 0 0
vn -1 0 0
vn -1 0 0
vn -1 0 0
vn -1 0 0
g fx_mesh_plane_04_0
f 3/3/3 2/2/2 1/1/1
f 4/4/4 1/1/1 2/2/2
f 2/2/2 5/5/5 4/4/4
f 1/1/1 4/4/4 6/6/6
f 7/7/7 4/4/4 5/5/5
f 5/5/5 8/8/8 7/7/7
f 9/9/9 6/6/6 4/4/4
f 4/4/4 7/7/7 9/9/9
f 6/6/6 9/9/9 10/10/10
f 11/11/11 10/10/10 9/9/9
f 9/9/9 12/12/12 11/11/11
f 12/12/12 9/9/9 7/7/7
f 13/13/13 11/11/11 12/12/12
f 14/14/14 7/7/7 8/8/8
f 7/7/7 14/14/14 12/12/12
f 8/8/8 15/15/15 14/14/14
f 12/12/12 16/16/16 13/13/13
f 16/16/16 12/12/12 14/14/14
f 17/17/17 13/13/13 16/16/16
f 18/18/18 14/14/14 15/15/15
f 14/14/14 18/18/18 16/16/16
f 15/15/15 19/19/19 18/18/18
f 20/20/20 18/18/18 19/19/19
f 16/16/16 21/21/21 17/17/17
f 21/21/21 16/16/16 18/18/18
f 18/18/18 20/20/20 21/21/21
f 22/22/22 17/17/17 21/21/21
f 23/23/23 21/21/21 20/20/20
f 21/21/21 23/23/23 22/22/22
f 24/24/24 22/22/22 23/23/23
f 27/27/27 26/26/26 25/25/25
f 28/28/28 25/25/25 26/26/26
f 26/26/26 29/29/29 28/28/28
f 25/25/25 28/28/28 30/30/30
f 31/31/31 28/28/28 29/29/29
f 29/29/29 32/32/32 31/31/31
f 33/33/33 30/30/30 28/28/28
f 28/28/28 31/31/31 33/33/33
f 30/30/30 33/33/33 34/34/34
f 35/35/35 34/34/34 33/33/33
f 33/33/33 36/36/36 35/35/35
f 36/36/36 33/33/33 31/31/31
f 37/37/37 35/35/35 36/36/36
f 38/38/38 31/31/31 32/32/32
f 31/31/31 38/38/38 36/36/36
f 32/32/32 39/39/39 38/38/38
f 36/36/36 40/40/40 37/37/37
f 40/40/40 36/36/36 38/38/38
f 41/41/41 37/37/37 40/40/40
f 42/42/42 38/38/38 39/39/39
f 38/38/38 42/42/42 40/40/40
f 39/39/39 43/43/43 42/42/42
f 44/44/44 42/42/42 43/43/43
f 40/40/40 45/45/45 41/41/41
f 45/45/45 40/40/40 42/42/42
f 42/42/42 44/44/44 45/45/45
f 46/46/46 41/41/41 45/45/45
f 47/47/47 45/45/45 44/44/44
f 45/45/45 47/47/47 46/46/46
f 48/48/48 46/46/46 47/47/47
f 51/51/51 50/50/50 49/49/49
f 52/52/52 49/49/49 50/50/50
f 50/50/50 53/53/53 52/52/52
f 49/49/49 52/52/52 54/54/54
f 55/55/55 52/52/52 53/53/53
f 53/53/53 56/56/56 55/55/55
f 57/57/57 54/54/54 52/52/52
f 52/52/52 55/55/55 57/57/57
f 54/54/54 57/57/57 58/58/58
f 59/59/59 58/58/58 57/57/57
f 57/57/57 60/60/60 59/59/59
f 60/60/60 57/57/57 55/55/55
f 61/61/61 59/59/59 60/60/60
f 62/62/62 55/55/55 56/56/56
f 55/55/55 62/62/62 60/60/60
f 56/56/56 63/63/63 62/62/62
f 60/60/60 64/64/64 61/61/61
f 64/64/64 60/60/60 62/62/62
f 65/65/65 61/61/61 64/64/64
f 66/66/66 62/62/62 63/63/63
f 62/62/62 66/66/66 64/64/64
f 63/63/63 67/67/67 66/66/66
f 68/68/68 66/66/66 67/67/67
f 64/64/64 69/69/69 65/65/65
f 69/69/69 64/64/64 66/66/66
f 66/66/66 68/68/68 69/69/69
f 70/70/70 65/65/65 69/69/69
f 71/71/71 69/69/69 68/68/68
f 69/69/69 71/71/71 70/70/70
f 72/72/72 70/70/70 71/71/71
f 75/75/75 74/74/74 73/73/73
f 76/76/76 73/73/73 74/74/74
f 74/74/74 77/77/77 76/76/76
f 73/73/73 76/76/76 78/78/78
f 79/79/79 76/76/76 77/77/77
f 77/77/77 80/80/80 79/79/79
f 81/81/81 78/78/78 76/76/76
f 76/76/76 79/79/79 81/81/81
f 78/78/78 81/81/81 82/82/82
f 83/83/83 82/82/82 81/81/81
f 81/81/81 84/84/84 83/83/83
f 84/84/84 81/81/81 79/79/79
f 85/85/85 83/83/83 84/84/84
f 86/86/86 79/79/79 80/80/80
f 79/79/79 86/86/86 84/84/84
f 80/80/80 87/87/87 86/86/86
f 84/84/84 88/88/88 85/85/85
f 88/88/88 84/84/84 86/86/86
f 89/89/89 85/85/85 88/88/88
f 90/90/90 86/86/86 87/87/87
f 86/86/86 90/90/90 88/88/88
f 87/87/87 91/91/91 90/90/90
f 92/92/92 90/90/90 91/91/91
f 88/88/88 93/93/93 89/89/89
f 93/93/93 88/88/88 90/90/90
f 90/90/90 92/92/92 93/93/93
f 94/94/94 89/89/89 93/93/93
f 95/95/95 93/93/93 92/92/92
f 93/93/93 95/95/95 94/94/94
f 96/96/96 94/94/94 95/95/95
f 99/99/99 98/98/98 97/97/97
f 100/100/100 97/97/97 98/98/98
f 98/98/98 101/101/101 100/100/100
f 97/97/97 100/100/100 102/102/102
f 103/103/103 100/100/100 101/101/101
f 101/101/101 104/104/104 103/103/103
f 105/105/105 102/102/102 100/100/100
f 100/100/100 103/103/103 105/105/105
f 102/102/102 105/105/105 106/106/106
f 107/107/107 106/106/106 105/105/105
f 105/105/105 108/108/108 107/107/107
f 108/108/108 105/105/105 103/103/103
f 109/109/109 107/107/107 108/108/108
f 110/110/110 103/103/103 104/104/104
f 103/103/103 110/110/110 108/108/108
f 104/104/104 111/111/111 110/110/110
f 108/108/108 112/112/112 109/109/109
f 112/112/112 108/108/108 110/110/110
f 113/113/113 109/109/109 112/112/112
f 114/114/114 110/110/110 111/111/111
f 110/110/110 114/114/114 112/112/112
f 111/111/111 115/115/115 114/114/114
f 116/116/116 114/114/114 115/115/115
f 112/112/112 117/117/117 113/113/113
f 117/117/117 112/112/112 114/114/114
f 114/114/114 116/116/116 117/117/117
f 118/118/118 113/113/113 117/117/117
f 119/119/119 117/117/117 116/116/116
f 117/117/117 119/119/119 118/118/118
f 120/120/120 118/118/118 119/119/119
f 123/123/123 122/122/122 121/121/121
f 124/124/124 121/121/121 122/122/122
f 122/122/122 125/125/125 124/124/124
f 121/121/121 124/124/124 126/126/126
f 127/127/127 124/124/124 125/125/125
f 125/125/125 128/128/128 127/127/127
f 129/129/129 126/126/126 124/124/124
f 124/124/124 127/127/127 129/129/129
f 126/126/126 129/129/129 130/130/130
f 131/131/131 130/130/130 129/129/129
f 129/129/129 132/132/132 131/131/131
f 132/132/132 129/129/129 127/127/127
f 133/133/133 131/131/131 132/132/132
f 134/134/134 127/127/127 128/128/128
f 127/127/127 134/134/134 132/132/132
f 128/128/128 135/135/135 134/134/134
f 132/132/132 136/136/136 133/133/133
f 136/136/136 132/132/132 134/134/134
f 137/137/137 133/133/133 136/136/136
f 138/138/138 134/134/134 135/135/135
f 134/134/134 138/138/138 136/136/136
f 135/135/135 139/139/139 138/138/138
f 140/140/140 138/138/138 139/139/139
f 136/136/136 141/141/141 137/137/137
f 141/141/141 136/136/136 138/138/138
f 138/138/138 140/140/140 141/141/141
f 142/142/142 137/137/137 141/141/141
f 143/143/143 141/141/141 140/140/140
f 141/141/141 143/143/143 142/142/142
f 144/144/144 142/142/142 143/143/143
f 147/147/147 146/146/146 145/145/145
f 148/148/148 145/145/145 146/146/146
f 146/146/146 149/149/149 148/148/148
f 145/145/145 148/148/148 150/150/150
f 151/151/151 148/148/148 149/149/149
f 149/149/149 152/152/152 151/151/151
f 153/153/153 150/150/150 148/148/148
f 148/148/148 151/151/151 153/153/153
f 150/150/150 153/153/153 154/154/154
f 155/155/155 154/154/154 153/153/153
f 153/153/153 156/156/156 155/155/155
f 156/156/156 153/153/153 151/151/151
f 157/157/157 155/155/155 156/156/156
f 158/158/158 151/151/151 152/152/152
f 151/151/151 158/158/158 156/156/156
f 152/152/152 159/159/159 158/158/158
f 156/156/156 160/160/160 157/157/157
f 160/160/160 156/156/156 158/158/158
f 161/161/161 157/157/157 160/160/160
f 162/162/162 158/158/158 159/159/159
f 158/158/158 162/162/162 160/160/160
f 159/159/159 163/163/163 162/162/162
f 164/164/164 162/162/162 163/163/163
f 160/160/160 165/165/165 161/161/161
f 165/165/165 160/160/160 162/162/162
f 162/162/162 164/164/164 165/165/165
f 166/166/166 161/161/161 165/165/165
f 167/167/167 165/165/165 164/164/164
f 165/165/165 167/167/167 166/166/166
f 168/168/168 166/166/166 167/167/167
f 171/171/171 170/170/170 169/169/169
f 172/172/172 169/169/169 170/170/170
f 170/170/170 173/173/173 172/172/172
f 169/169/169 172/172/172 174/174/174
f 175/175/175 172/172/172 173/173/173
f 173/173/173 176/176/176 175/175/175
f 177/177/177 174/174/174 172/172/172
f 172/172/172 175/175/175 177/177/177
f 174/174/174 177/177/177 178/178/178
f 179/179/179 178/178/178 177/177/177
f 177/177/177 180/180/180 179/179/179
f 180/180/180 177/177/177 175/175/175
f 181/181/181 179/179/179 180/180/180
f 182/182/182 175/175/175 176/176/176
f 175/175/175 182/182/182 180/180/180
f 176/176/176 183/183/183 182/182/182
f 180/180/180 184/184/184 181/181/181
f 184/184/184 180/180/180 182/182/182
f 185/185/185 181/181/181 184/184/184
f 186/186/186 182/182/182 183/183/183
f 182/182/182 186/186/186 184/184/184
f 183/183/183 187/187/187 186/186/186
f 188/188/188 186/186/186 187/187/187
f 184/184/184 189/189/189 185/185/185
f 189/189/189 184/184/184 186/186/186
f 186/186/186 188/188/188 189/189/189
f 190/190/190 185/185/185 189/189/189
f 191/191/191 189/189/189 188/188/188
f 189/189/189 191/191/191 190/190/190
f 192/192/192 190/190/190 191/191/191
