g lap_s3slash01
v -1.08905315 3.09481525 -5.32929221E-08
v -1.1531601 2.74425292 -2.66464575E-08
v -1.2653234 3.0276649 -5.32929221E-08
v -0.987869442 2.80730033 -2.66464575E-08
v -0.895715356 3.1562078 -5.32929221E-08
v -1.04099667 2.46084094 0
v -0.812495649 2.86298847 -2.66464575E-08
v -0.699857593 3.20533299 -5.32929221E-08
v -0.886685669 2.5197854 0
v -0.928833127 2.17742872 2.6646461E-08
v -0.63484174 2.90754795 -2.66464575E-08
v -0.50206995 3.24219918 -5.32929221E-08
v -0.729275942 2.56976938 0
v -0.785502136 2.23227024 2.6646461E-08
v -0.816669822 1.89401674 5.32929221E-08
v -0.684318423 1.94475532 5.32929221E-08
v -0.646055996 2.27655005 2.6646461E-08
v -0.562836289 1.98333085 5.32929221E-08
v -0.455435872 2.94098783 -2.66464575E-08
v -0.302931398 3.26681995 -5.32929221E-08
v -0.569826186 2.60976267 0
v -0.504810572 2.31197762 2.6646461E-08
v -0.439794868 2.01419258 5.32929221E-08
v -0.274799317 2.96332097 -2.66464575E-08
v -0.103012607 3.27921152 -5.32929221E-08
v -0.408801883 2.63977647 0
v -0.362167895 2.33856487 2.6646461E-08
v -0.315533936 2.03735352 5.32929221E-08
v -0.093449235 2.97456169 -2.66464575E-08
v 0.0971211046 3.27938938 -5.32929221E-08
v -0.246667206 2.65982223 0
v -0.218535006 2.35632324 2.6646461E-08
v -0.19040291 2.05282426 5.32929221E-08
v 0.0880988836 2.97472262 -2.66464575E-08
v 0.29690823 3.26736808 -5.32929221E-08
v -0.0838859603 2.66991186 0
v -0.0743225962 2.36526179 2.6646461E-08
v -0.0647592247 2.06061196 5.32929221E-08
v 0.26933229 2.96381783 -2.66464575E-08
v 0.495786786 3.24315929 -5.32929221E-08
v 0.0790766627 2.67005634 0
v 0.0700543448 2.36538982 2.6646461E-08
v 0.0610321276 2.0607233 5.32929221E-08
v 0.449737906 2.94185805 -2.66464575E-08
v 0.693190813 3.20677733 -5.32929221E-08
v 0.241756365 2.66026783 0
v 0.214180425 2.35671782 2.6646461E-08
v 0.186604589 2.05316758 5.32929221E-08
v 0.628800333 2.90885639 -2.66464575E-08
v 0.888549447 3.15823388 -5.32929221E-08
v 0.403689027 2.64055657 0
v 0.357640147 2.33925533 2.6646461E-08
v 0.311591238 2.03795385 5.32929221E-08
v 0.806002378 2.86482453 -2.66464575E-08
v 1.08128083 3.09754443 -5.32929221E-08
v 0.564409852 2.61093545 0
v 0.500019372 2.31301451 2.6646461E-08
v 0.435628921 2.01509356 5.32929221E-08
v 0.980820537 2.80977583 -2.66464575E-08
v 1.27079308 3.02473116 -5.32929221E-08
v 0.723455369 2.57141519 0
v 0.640908241 2.27800608 2.6646461E-08
v 0.558361232 1.98459661 5.32929221E-08
v 1.15272641 2.74372697 -2.66464575E-08
v 1.45615387 2.93998861 -5.32929221E-08
v 0.880360186 2.52200723 0
v 0.779899895 2.23423886 2.6646461E-08
v 0.679439545 1.94647014 5.32929221E-08
v 1.32087922 2.66685152 -2.66464575E-08
v 1.63513505 2.84434271 -5.32929221E-08
v 1.03465974 2.46272302 0
v 0.916593194 2.18171883 2.6646461E-08
v 0.798526525 1.90071499 5.32929221E-08
v 1.48323154 2.58009195 -2.66464575E-08
v 1.80707121 2.7383306 -5.32929221E-08
v 1.18560469 2.39371443 0
v 1.05033016 2.12057757 2.6646461E-08
v 0.915055692 1.84744048 5.32929221E-08
v 1.6391871 2.48393321 -2.66464575E-08
v 1.97155869 2.6223824 -5.32929221E-08
v 1.33132815 2.31584144 0
v 1.17942464 2.05159068 2.6646461E-08
v 1.02752113 1.78734016 5.32929221E-08
v 1.78838754 2.37876105 -2.66464575E-08
v 2.12820315 2.49692535 -5.32929221E-08
v 1.47130311 2.22953606 0
v 1.30341899 1.97513866 2.6646461E-08
v 1.13553488 1.72074151 5.32929221E-08
v 1.93047786 2.26496053 -2.66464575E-08
v 2.27661967 2.36238146 -5.32929221E-08
v 1.60521626 2.1351397 0
v 1.42204499 1.89151847 2.6646461E-08
v 1.23887384 1.64789724 5.32929221E-08
v 2.06510878 2.14291334 -2.66464575E-08
v 2.41642761 2.21916771 -5.32929221E-08
v 1.73275256 2.0329957 0
v 1.53502727 1.80103076 2.6646461E-08
v 1.33730173 1.56906581 5.32929221E-08
v 2.19193316 2.01299953 -2.66464575E-08
v 2.54724646 2.06769967 -5.32929221E-08
v 1.85359812 1.92344534 0
v 1.6420871 1.70397735 2.6646461E-08
v 1.43057644 1.48450947 5.32929221E-08
v 2.31060338 1.87559772 -2.66464575E-08
v 2.66869545 1.90838933 -5.32929221E-08
v 1.96743894 1.80683136 0
v 1.7429446 1.60066319 2.6646461E-08
v 1.51845038 1.39449501 5.32929221E-08
v 2.42077184 1.73108459 -2.66464575E-08
v 2.78039145 1.74165273 -5.32929221E-08
v 2.0739603 1.68349588 0
v 1.83731747 1.49139392 2.6646461E-08
v 1.60067439 1.29929209 5.32929221E-08
v 2.52208996 1.57983994 -2.66464575E-08
v 2.88194656 1.56791008 -5.32929221E-08
v 2.17284822 1.5537802 0
v 1.92492449 1.37647557 2.6646461E-08
v 1.67700088 1.19917095 5.32929221E-08
v 2.61420679 1.42224467 -2.66464575E-08
v 2.97296929 1.38758945 -5.32929221E-08
v 2.26378846 1.41802716 0
v 2.00548697 1.25621438 2.6646461E-08
v 1.74718559 1.0944016 5.32929221E-08
v 2.69676948 1.25868392 -2.66464575E-08
v 3.05306482 1.20113027 -5.32929221E-08
v 2.34646702 1.27657926 0
v 2.07872725 1.13091385 2.6646461E-08
v 1.81098747 0.985248387 5.32929221E-08
v 2.76942325 1.08954835 -2.66464575E-08
v 3.12175393 1.00924015 -5.32929221E-08
v 2.42056942 1.12977839 0
v 2.14436936 1.00087285 2.6646461E-08
v 1.86816967 0.871967316 5.32929221E-08
v 2.83173561 0.915472388 -2.66464575E-08
v 3.1782043 0.814227104 -5.32929221E-08
v 2.48578167 0.977966666 0
v 2.20214009 0.866384923 2.6646461E-08
v 1.91849852 0.754803061 5.32929221E-08
v 2.88294172 0.73857677 -2.66464575E-08
v 3.22230124 0.617036998 -5.32929221E-08
v 2.54171753 0.821704566 0
v 2.25169921 0.727936745 2.6646461E-08
v 1.96168077 0.634168983 5.32929221E-08
v 2.92294025 0.559714258 -2.66464575E-08
v 3.25407338 0.418260992 -5.32929221E-08
v 2.58767915 0.662926376 0
v 2.29241657 0.587275982 2.6646461E-08
v 1.99715388 0.511625588 5.32929221E-08
v 2.95175934 0.379412413 -2.66464575E-08
v 3.27355361 0.218479544 -5.32929221E-08
v 2.62357903 0.502391517 0
v 2.3242178 0.445068747 2.6646461E-08
v 2.02485657 0.387746036 5.32929221E-08
v 2.96942925 0.198193476 -2.66464575E-08
v 3.28077912 0.0182634201 -5.32929221E-08
v 2.6494453 0.340563834 0
v 2.34713101 0.301715255 2.6646461E-08
v 2.04481697 0.262866646 5.32929221E-08
v 2.97598386 0.016574569 -2.66464575E-08
v 3.27578497 -0.18182306 -5.32929221E-08
v 2.66530538 0.177907452 0
v 2.36118102 0.157621428 2.6646461E-08
v 2.0570569 0.13733536 5.32929221E-08
v 2.97145319 -0.164930478 -2.66464575E-08
v 3.25860643 -0.381218165 -5.32929221E-08
v 2.67118859 0.0148856705 0
v 2.36639333 0.0131968204 2.6646461E-08
v 2.06159806 0.0115079703 5.32929221E-08
v 2.95586991 -0.345808476 -2.66464575E-08
v 3.2292757 -0.579361498 -5.32929221E-08
v 2.66712189 -0.148037806 0
v 2.36279035 -0.131145239 2.6646461E-08
v 2.05845881 -0.114252664 5.32929221E-08
v 2.92926383 -0.525547922 -2.66464575E-08
v 3.18782592 -0.775688052 -5.32929221E-08
v 2.65313387 -0.310398936 0
v 2.35039783 -0.274989277 2.6646461E-08
v 2.04766154 -0.239579707 5.32929221E-08
v 2.89166522 -0.703634024 -2.66464575E-08
v 3.13429046 -0.96962899 -5.32929221E-08
v 2.62925196 -0.471734315 0
v 2.32924008 -0.417920858 2.6646461E-08
v 2.02922797 -0.36410737 5.32929221E-08
v 2.84310508 -0.879550755 -2.66464575E-08
v 3.06870461 -1.16060555 -5.32929221E-08
v 2.59550452 -0.631579995 0
v 2.29934382 -0.559525967 2.6646461E-08
v 2.00318265 -0.487471938 5.32929221E-08
v 2.78361487 -1.05277658 -2.66464575E-08
v 2.99110961 -1.34802854 -5.32929221E-08
v 2.5519197 -0.789472401 0
v 2.26073456 -0.699394047 2.6646461E-08
v 1.96954894 -0.609315872 5.32929221E-08
v 2.71322966 -1.22278559 -2.66464575E-08
v 2.90922737 -1.51795709 -5.32929221E-08
v 2.63636851 -1.38212276 -2.66464575E-08
v 2.49852586 -0.944947958 0
v 2.21343613 -0.837119222 2.6646461E-08
v 1.92834675 -0.729290485 5.32929221E-08
v 2.43534994 -1.09754264 0
v 2.36350942 -1.24628842 0
v 2.15746999 -0.972299576 2.6646461E-08
v 1.87959027 -0.847056627 5.32929221E-08
v 2.09065056 -1.11045396 2.6646461E-08
v 1.81779134 -0.974619567 5.32929221E-08
vt 0.974999607 0
vt 0.999999583 0.25
vt 0.999999583 0
vt 0.974999607 0.25
vt 0.94999963 0
vt 0.999999583 0.5
vt 0.94999963 0.25
vt 0.924999654 0
vt 0.974999607 0.5
vt 0.999999583 0.75
vt 0.924999654 0.25
vt 0.899999678 0
vt 0.94999963 0.5
vt 0.974999607 0.75
vt 0.999999583 1
vt 0.974999607 1
vt 0.94999963 0.75
vt 0.94999963 1
vt 0.899999678 0.25
vt 0.874999702 0
vt 0.924999654 0.5
vt 0.924999654 0.75
vt 0.924999654 1
vt 0.874999702 0.25
vt 0.849999726 0
vt 0.899999678 0.5
vt 0.899999678 0.75
vt 0.899999678 1
vt 0.849999726 0.25
vt 0.82499975 0
vt 0.874999702 0.5
vt 0.874999702 0.75
vt 0.874999702 1
vt 0.82499975 0.25
vt 0.799999774 0
vt 0.849999726 0.5
vt 0.849999726 0.75
vt 0.849999726 1
vt 0.799999774 0.25
vt 0.774999797 0
vt 0.82499975 0.5
vt 0.82499975 0.75
vt 0.82499975 1
vt 0.774999797 0.25
vt 0.749999821 0
vt 0.799999774 0.5
vt 0.799999774 0.75
vt 0.799999774 1
vt 0.749999821 0.25
vt 0.724999845 0
vt 0.774999797 0.5
vt 0.774999797 0.75
vt 0.774999797 1
vt 0.724999845 0.25
vt 0.699999869 0
vt 0.749999821 0.5
vt 0.749999821 0.75
vt 0.749999821 1
vt 0.699999869 0.25
vt 0.674999893 0
vt 0.724999845 0.5
vt 0.724999845 0.75
vt 0.724999845 1
vt 0.674999893 0.25
vt 0.649999917 0
vt 0.699999869 0.5
vt 0.699999869 0.75
vt 0.699999869 1
vt 0.649999917 0.25
vt 0.62499994 0
vt 0.674999893 0.5
vt 0.674999893 0.75
vt 0.674999893 1
vt 0.62499994 0.25
vt 0.599999964 0
vt 0.649999917 0.5
vt 0.649999917 0.75
vt 0.649999917 1
vt 0.599999964 0.25
vt 0.574999988 0
vt 0.62499994 0.5
vt 0.62499994 0.75
vt 0.62499994 1
vt 0.574999988 0.25
vt 0.550000012 0
vt 0.599999964 0.5
vt 0.599999964 0.75
vt 0.599999964 1
vt 0.550000012 0.25
vt 0.525000036 0
vt 0.574999988 0.5
vt 0.574999988 0.75
vt 0.574999988 1
vt 0.525000036 0.25
vt 0.50000006 0
vt 0.550000012 0.5
vt 0.550000012 0.75
vt 0.550000012 1
vt 0.50000006 0.25
vt 0.475000083 0
vt 0.525000036 0.5
vt 0.525000036 0.75
vt 0.525000036 1
vt 0.475000083 0.25
vt 0.450000077 0
vt 0.50000006 0.5
vt 0.50000006 0.75
vt 0.50000006 1
vt 0.450000077 0.25
vt 0.425000072 0
vt 0.475000083 0.5
vt 0.475000083 0.75
vt 0.475000083 1
vt 0.425000072 0.25
vt 0.400000066 0
vt 0.450000077 0.5
vt 0.450000077 0.75
vt 0.450000077 1
vt 0.400000066 0.25
vt 0.37500006 0
vt 0.425000072 0.5
vt 0.425000072 0.75
vt 0.425000072 1
vt 0.37500006 0.25
vt 0.350000054 0
vt 0.400000066 0.5
vt 0.400000066 0.75
vt 0.400000066 1
vt 0.350000054 0.25
vt 0.325000048 0
vt 0.37500006 0.5
vt 0.37500006 0.75
vt 0.37500006 1
vt 0.325000048 0.25
vt 0.300000042 0
vt 0.350000054 0.5
vt 0.350000054 0.75
vt 0.350000054 1
vt 0.300000042 0.25
vt 0.275000036 0
vt 0.325000048 0.5
vt 0.325000048 0.75
vt 0.325000048 1
vt 0.275000036 0.25
vt 0.25000003 0
vt 0.300000042 0.5
vt 0.300000042 0.75
vt 0.300000042 1
vt 0.25000003 0.25
vt 0.225000024 0
vt 0.275000036 0.5
vt 0.275000036 0.75
vt 0.275000036 1
vt 0.225000024 0.25
vt 0.200000018 0
vt 0.25000003 0.5
vt 0.25000003 0.75
vt 0.25000003 1
vt 0.200000018 0.25
vt 0.175000012 0
vt 0.225000024 0.5
vt 0.225000024 0.75
vt 0.225000024 1
vt 0.175000012 0.25
vt 0.150000006 0
vt 0.200000018 0.5
vt 0.200000018 0.75
vt 0.200000018 1
vt 0.150000006 0.25
vt 0.125 0
vt 0.175000012 0.5
vt 0.175000012 0.75
vt 0.175000012 1
vt 0.125 0.25
vt 0.100000001 0
vt 0.150000006 0.5
vt 0.150000006 0.75
vt 0.150000006 1
vt 0.100000001 0.25
vt 0.075000003 0
vt 0.125 0.5
vt 0.125 0.75
vt 0.125 1
vt 0.075000003 0.25
vt 0.0500000007 0
vt 0.100000001 0.5
vt 0.100000001 0.75
vt 0.100000001 1
vt 0.0500000007 0.25
vt 0.0250000004 0
vt 0.075000003 0.5
vt 0.075000003 0.75
vt 0.075000003 1
vt 0.0250000004 0.25
vt 0 0
vt 0 0.25
vt 0.0500000007 0.5
vt 0.0500000007 0.75
vt 0.0500000007 1
vt 0.0250000004 0.5
vt 0 0.5
vt 0.0250000004 0.75
vt 0.0250000004 1
vt 0 0.75
vt 0 1
vn -0 0 1
vn -0 0 1
vn -0 0 1
vn -0 0 1
vn -0 0 1
vn -0 0 1
vn -0 0 1
vn -0 0 1
vn -0 0 1
vn -0 0 1
vn -0 0 1
vn -0 0 1
vn -0 0 1
vn -0 0 1
vn -0 0 1
vn -0 0 1
vn -0 0 1
vn -0 0 1
vn -0 0 1
vn -0 0 1
vn -0 0 1
vn -0 0 1
vn -0 0 1
vn -0 0 1
vn -0 0 1
vn -0 0 1
vn -0 0 1
vn -0 0 1
vn -0 0 1
vn -0 0 1
vn -0 0 1
vn -0 0 1
vn -0 0 1
vn -0 0 1
vn -0 0 1
vn -0 0 1
vn -0 0 1
vn -0 0 1
vn -0 0 1
vn -0 0 1
vn -0 0 1
vn -0 0 1
vn -0 0 1
vn -0 0 1
vn -0 0 1
vn -0 0 1
vn -0 0 1
vn -0 0 1
vn -0 0 1
vn -0 0 1
vn -0 0 1
vn -0 0 1
vn -0 0 1
vn -0 0 1
vn -0 0 1
vn -0 0 1
vn -0 0 1
vn -0 0 1
vn -0 0 1
vn -0 0 1
vn -0 0 1
vn -0 0 1
vn -0 0 1
vn -0 0 1
vn -0 0 1
vn -0 0 1
vn -0 0 1
vn -0 0 1
vn -0 0 1
vn -0 0 1
vn -0 0 1
vn -0 0 1
vn -0 0 1
vn -0 0 1
vn -0 0 1
vn -0 0 1
vn -0 0 1
vn -0 0 1
vn -0 0 1
vn -0 0 1
vn -0 0 1
vn -0 0 1
vn -0 0 1
vn -0 0 1
vn -0 0 1
vn -0 0 1
vn -0 0 1
vn -0 0 1
vn -0 0 1
vn -0 0 1
vn -0 0 1
vn -0 0 1
vn -0 0 1
vn -0 0 1
vn -0 0 1
vn -0 0 1
vn -0 0 1
vn -0 0 1
vn -0 0 1
vn -0 0 1
vn -0 0 1
vn -0 0 1
vn -0 0 1
vn -0 0 1
vn -0 0 1
vn -0 0 1
vn -0 0 1
vn -0 0 1
vn -0 0 1
vn -0 0 1
vn -0 0 1
vn -0 0 1
vn -0 0 1
vn -0 0 1
vn -0 0 1
vn -0 0 1
vn -0 0 1
vn -0 0 1
vn -0 0 1
vn -0 0 1
vn -0 0 1
vn -0 0 1
vn -0 0 1
vn -0 0 1
vn -0 0 1
vn -0 0 1
vn -0 0 1
vn -0 0 1
vn -0 0 1
vn -0 0 1
vn -0 0 1
vn -0 0 1
vn -0 0 1
vn -0 0 1
vn -0 0 1
vn -0 0 1
vn -0 0 1
vn -0 0 1
vn -0 0 1
vn -0 0 1
vn -0 0 1
vn -0 0 1
vn -0 0 1
vn -0 0 1
vn -0 0 1
vn -0 0 1
vn -0 0 1
vn -0 0 1
vn -0 0 1
vn -0 0 1
vn -0 0 1
vn -0 0 1
vn -0 0 1
vn -0 0 1
vn -0 0 1
vn -0 0 1
vn -0 0 1
vn -0 0 1
vn -0 0 1
vn -0 0 1
vn -0 0 1
vn -0 0 1
vn -0 0 1
vn -0 0 1
vn -0 0 1
vn -0 0 1
vn -0 0 1
vn -0 0 1
vn -0 0 1
vn -0 0 1
vn -0 0 1
vn -0 0 1
vn -0 0 1
vn -0 0 1
vn -0 0 1
vn -0 0 1
vn -0 0 1
vn -0 0 1
vn -0 0 1
vn -0 0 1
vn -0 0 1
vn -0 0 1
vn -0 0 1
vn -0 0 1
vn -0 0 1
vn -0 0 1
vn -0 0 1
vn -0 0 1
vn -0 0 1
vn -0 0 1
vn -0 0 1
vn -0 0 1
vn -0 0 1
vn -0 0 1
vn -0 0 1
vn -0 0 1
vn -0 0 1
vn -0 0 1
vn -0 0 1
vn -0 0 1
vn -0 0 1
vn -0 0 1
vn -0 0 1
vn -0 0 1
vn -0 0 1
g lap_s3slash01_0
f 3/3/3 2/2/2 1/1/1
f 2/2/2 4/4/4 1/1/1
f 1/1/1 4/4/4 5/5/5
f 2/2/2 6/6/6 4/4/4
f 4/4/4 7/7/7 5/5/5
f 5/5/5 7/7/7 8/8/8
f 6/6/6 9/9/9 4/4/4
f 4/4/4 9/9/9 7/7/7
f 6/6/6 10/10/10 9/9/9
f 7/7/7 11/11/11 8/8/8
f 8/8/8 11/11/11 12/12/12
f 9/9/9 13/13/13 7/7/7
f 7/7/7 13/13/13 11/11/11
f 10/10/10 14/14/14 9/9/9
f 9/9/9 14/14/14 13/13/13
f 10/10/10 15/15/15 14/14/14
f 15/15/15 16/16/16 14/14/14
f 14/14/14 16/16/16 17/17/17
f 14/14/14 17/17/17 13/13/13
f 16/16/16 18/18/18 17/17/17
f 11/11/11 19/19/19 12/12/12
f 12/12/12 19/19/19 20/20/20
f 13/13/13 21/21/21 11/11/11
f 13/13/13 17/17/17 21/21/21
f 11/11/11 21/21/21 19/19/19
f 17/17/17 18/18/18 22/22/22
f 17/17/17 22/22/22 21/21/21
f 18/18/18 23/23/23 22/22/22
f 19/19/19 24/24/24 20/20/20
f 20/20/20 24/24/24 25/25/25
f 21/21/21 26/26/26 19/19/19
f 21/21/21 22/22/22 26/26/26
f 19/19/19 26/26/26 24/24/24
f 22/22/22 23/23/23 27/27/27
f 22/22/22 27/27/27 26/26/26
f 23/23/23 28/28/28 27/27/27
f 24/24/24 29/29/29 25/25/25
f 25/25/25 29/29/29 30/30/30
f 26/26/26 31/31/31 24/24/24
f 26/26/26 27/27/27 31/31/31
f 24/24/24 31/31/31 29/29/29
f 27/27/27 28/28/28 32/32/32
f 27/27/27 32/32/32 31/31/31
f 28/28/28 33/33/33 32/32/32
f 29/29/29 34/34/34 30/30/30
f 30/30/30 34/34/34 35/35/35
f 31/31/31 36/36/36 29/29/29
f 31/31/31 32/32/32 36/36/36
f 29/29/29 36/36/36 34/34/34
f 32/32/32 33/33/33 37/37/37
f 32/32/32 37/37/37 36/36/36
f 33/33/33 38/38/38 37/37/37
f 34/34/34 39/39/39 35/35/35
f 35/35/35 39/39/39 40/40/40
f 36/36/36 41/41/41 34/34/34
f 36/36/36 37/37/37 41/41/41
f 34/34/34 41/41/41 39/39/39
f 37/37/37 38/38/38 42/42/42
f 37/37/37 42/42/42 41/41/41
f 38/38/38 43/43/43 42/42/42
f 39/39/39 44/44/44 40/40/40
f 40/40/40 44/44/44 45/45/45
f 41/41/41 46/46/46 39/39/39
f 41/41/41 42/42/42 46/46/46
f 39/39/39 46/46/46 44/44/44
f 42/42/42 43/43/43 47/47/47
f 42/42/42 47/47/47 46/46/46
f 43/43/43 48/48/48 47/47/47
f 44/44/44 49/49/49 45/45/45
f 45/45/45 49/49/49 50/50/50
f 46/46/46 51/51/51 44/44/44
f 46/46/46 47/47/47 51/51/51
f 44/44/44 51/51/51 49/49/49
f 47/47/47 48/48/48 52/52/52
f 47/47/47 52/52/52 51/51/51
f 48/48/48 53/53/53 52/52/52
f 49/49/49 54/54/54 50/50/50
f 50/50/50 54/54/54 55/55/55
f 51/51/51 56/56/56 49/49/49
f 51/51/51 52/52/52 56/56/56
f 49/49/49 56/56/56 54/54/54
f 52/52/52 53/53/53 57/57/57
f 52/52/52 57/57/57 56/56/56
f 53/53/53 58/58/58 57/57/57
f 54/54/54 59/59/59 55/55/55
f 55/55/55 59/59/59 60/60/60
f 56/56/56 61/61/61 54/54/54
f 56/56/56 57/57/57 61/61/61
f 54/54/54 61/61/61 59/59/59
f 57/57/57 58/58/58 62/62/62
f 57/57/57 62/62/62 61/61/61
f 58/58/58 63/63/63 62/62/62
f 59/59/59 64/64/64 60/60/60
f 60/60/60 64/64/64 65/65/65
f 61/61/61 66/66/66 59/59/59
f 61/61/61 62/62/62 66/66/66
f 59/59/59 66/66/66 64/64/64
f 62/62/62 63/63/63 67/67/67
f 62/62/62 67/67/67 66/66/66
f 63/63/63 68/68/68 67/67/67
f 64/64/64 69/69/69 65/65/65
f 65/65/65 69/69/69 70/70/70
f 66/66/66 71/71/71 64/64/64
f 66/66/66 67/67/67 71/71/71
f 64/64/64 71/71/71 69/69/69
f 67/67/67 68/68/68 72/72/72
f 67/67/67 72/72/72 71/71/71
f 68/68/68 73/73/73 72/72/72
f 69/69/69 74/74/74 70/70/70
f 70/70/70 74/74/74 75/75/75
f 71/71/71 76/76/76 69/69/69
f 71/71/71 72/72/72 76/76/76
f 69/69/69 76/76/76 74/74/74
f 72/72/72 73/73/73 77/77/77
f 72/72/72 77/77/77 76/76/76
f 73/73/73 78/78/78 77/77/77
f 74/74/74 79/79/79 75/75/75
f 75/75/75 79/79/79 80/80/80
f 76/76/76 81/81/81 74/74/74
f 76/76/76 77/77/77 81/81/81
f 74/74/74 81/81/81 79/79/79
f 77/77/77 78/78/78 82/82/82
f 77/77/77 82/82/82 81/81/81
f 78/78/78 83/83/83 82/82/82
f 79/79/79 84/84/84 80/80/80
f 80/80/80 84/84/84 85/85/85
f 81/81/81 86/86/86 79/79/79
f 81/81/81 82/82/82 86/86/86
f 79/79/79 86/86/86 84/84/84
f 82/82/82 83/83/83 87/87/87
f 82/82/82 87/87/87 86/86/86
f 83/83/83 88/88/88 87/87/87
f 84/84/84 89/89/89 85/85/85
f 85/85/85 89/89/89 90/90/90
f 86/86/86 91/91/91 84/84/84
f 86/86/86 87/87/87 91/91/91
f 84/84/84 91/91/91 89/89/89
f 87/87/87 88/88/88 92/92/92
f 87/87/87 92/92/92 91/91/91
f 88/88/88 93/93/93 92/92/92
f 89/89/89 94/94/94 90/90/90
f 90/90/90 94/94/94 95/95/95
f 91/91/91 96/96/96 89/89/89
f 91/91/91 92/92/92 96/96/96
f 89/89/89 96/96/96 94/94/94
f 92/92/92 93/93/93 97/97/97
f 92/92/92 97/97/97 96/96/96
f 93/93/93 98/98/98 97/97/97
f 94/94/94 99/99/99 95/95/95
f 95/95/95 99/99/99 100/100/100
f 96/96/96 101/101/101 94/94/94
f 96/96/96 97/97/97 101/101/101
f 94/94/94 101/101/101 99/99/99
f 97/97/97 98/98/98 102/102/102
f 97/97/97 102/102/102 101/101/101
f 98/98/98 103/103/103 102/102/102
f 99/99/99 104/104/104 100/100/100
f 100/100/100 104/104/104 105/105/105
f 101/101/101 106/106/106 99/99/99
f 101/101/101 102/102/102 106/106/106
f 99/99/99 106/106/106 104/104/104
f 102/102/102 103/103/103 107/107/107
f 102/102/102 107/107/107 106/106/106
f 103/103/103 108/108/108 107/107/107
f 104/104/104 109/109/109 105/105/105
f 105/105/105 109/109/109 110/110/110
f 106/106/106 111/111/111 104/104/104
f 106/106/106 107/107/107 111/111/111
f 104/104/104 111/111/111 109/109/109
f 107/107/107 108/108/108 112/112/112
f 107/107/107 112/112/112 111/111/111
f 108/108/108 113/113/113 112/112/112
f 109/109/109 114/114/114 110/110/110
f 110/110/110 114/114/114 115/115/115
f 111/111/111 116/116/116 109/109/109
f 111/111/111 112/112/112 116/116/116
f 109/109/109 116/116/116 114/114/114
f 112/112/112 113/113/113 117/117/117
f 112/112/112 117/117/117 116/116/116
f 113/113/113 118/118/118 117/117/117
f 114/114/114 119/119/119 115/115/115
f 115/115/115 119/119/119 120/120/120
f 116/116/116 121/121/121 114/114/114
f 116/116/116 117/117/117 121/121/121
f 114/114/114 121/121/121 119/119/119
f 117/117/117 118/118/118 122/122/122
f 117/117/117 122/122/122 121/121/121
f 118/118/118 123/123/123 122/122/122
f 119/119/119 124/124/124 120/120/120
f 120/120/120 124/124/124 125/125/125
f 121/121/121 126/126/126 119/119/119
f 121/121/121 122/122/122 126/126/126
f 119/119/119 126/126/126 124/124/124
f 122/122/122 123/123/123 127/127/127
f 122/122/122 127/127/127 126/126/126
f 123/123/123 128/128/128 127/127/127
f 124/124/124 129/129/129 125/125/125
f 125/125/125 129/129/129 130/130/130
f 126/126/126 131/131/131 124/124/124
f 126/126/126 127/127/127 131/131/131
f 124/124/124 131/131/131 129/129/129
f 127/127/127 128/128/128 132/132/132
f 127/127/127 132/132/132 131/131/131
f 128/128/128 133/133/133 132/132/132
f 129/129/129 134/134/134 130/130/130
f 130/130/130 134/134/134 135/135/135
f 131/131/131 136/136/136 129/129/129
f 131/131/131 132/132/132 136/136/136
f 129/129/129 136/136/136 134/134/134
f 132/132/132 133/133/133 137/137/137
f 132/132/132 137/137/137 136/136/136
f 133/133/133 138/138/138 137/137/137
f 134/134/134 139/139/139 135/135/135
f 135/135/135 139/139/139 140/140/140
f 136/136/136 141/141/141 134/134/134
f 136/136/136 137/137/137 141/141/141
f 134/134/134 141/141/141 139/139/139
f 137/137/137 138/138/138 142/142/142
f 137/137/137 142/142/142 141/141/141
f 138/138/138 143/143/143 142/142/142
f 139/139/139 144/144/144 140/140/140
f 140/140/140 144/144/144 145/145/145
f 141/141/141 146/146/146 139/139/139
f 141/141/141 142/142/142 146/146/146
f 139/139/139 146/146/146 144/144/144
f 142/142/142 143/143/143 147/147/147
f 142/142/142 147/147/147 146/146/146
f 143/143/143 148/148/148 147/147/147
f 144/144/144 149/149/149 145/145/145
f 145/145/145 149/149/149 150/150/150
f 146/146/146 151/151/151 144/144/144
f 146/146/146 147/147/147 151/151/151
f 144/144/144 151/151/151 149/149/149
f 147/147/147 148/148/148 152/152/152
f 147/147/147 152/152/152 151/151/151
f 148/148/148 153/153/153 152/152/152
f 149/149/149 154/154/154 150/150/150
f 150/150/150 154/154/154 155/155/155
f 151/151/151 156/156/156 149/149/149
f 151/151/151 152/152/152 156/156/156
f 149/149/149 156/156/156 154/154/154
f 152/152/152 153/153/153 157/157/157
f 152/152/152 157/157/157 156/156/156
f 153/153/153 158/158/158 157/157/157
f 154/154/154 159/159/159 155/155/155
f 155/155/155 159/159/159 160/160/160
f 156/156/156 161/161/161 154/154/154
f 156/156/156 157/157/157 161/161/161
f 154/154/154 161/161/161 159/159/159
f 157/157/157 158/158/158 162/162/162
f 157/157/157 162/162/162 161/161/161
f 158/158/158 163/163/163 162/162/162
f 159/159/159 164/164/164 160/160/160
f 160/160/160 164/164/164 165/165/165
f 161/161/161 166/166/166 159/159/159
f 161/161/161 162/162/162 166/166/166
f 159/159/159 166/166/166 164/164/164
f 162/162/162 163/163/163 167/167/167
f 162/162/162 167/167/167 166/166/166
f 163/163/163 168/168/168 167/167/167
f 164/164/164 169/169/169 165/165/165
f 165/165/165 169/169/169 170/170/170
f 166/166/166 171/171/171 164/164/164
f 166/166/166 167/167/167 171/171/171
f 164/164/164 171/171/171 169/169/169
f 167/167/167 168/168/168 172/172/172
f 167/167/167 172/172/172 171/171/171
f 168/168/168 173/173/173 172/172/172
f 169/169/169 174/174/174 170/170/170
f 170/170/170 174/174/174 175/175/175
f 171/171/171 176/176/176 169/169/169
f 171/171/171 172/172/172 176/176/176
f 169/169/169 176/176/176 174/174/174
f 172/172/172 173/173/173 177/177/177
f 172/172/172 177/177/177 176/176/176
f 173/173/173 178/178/178 177/177/177
f 174/174/174 179/179/179 175/175/175
f 175/175/175 179/179/179 180/180/180
f 176/176/176 181/181/181 174/174/174
f 176/176/176 177/177/177 181/181/181
f 174/174/174 181/181/181 179/179/179
f 177/177/177 178/178/178 182/182/182
f 177/177/177 182/182/182 181/181/181
f 178/178/178 183/183/183 182/182/182
f 179/179/179 184/184/184 180/180/180
f 180/180/180 184/184/184 185/185/185
f 181/181/181 186/186/186 179/179/179
f 181/181/181 182/182/182 186/186/186
f 179/179/179 186/186/186 184/184/184
f 182/182/182 183/183/183 187/187/187
f 182/182/182 187/187/187 186/186/186
f 183/183/183 188/188/188 187/187/187
f 184/184/184 189/189/189 185/185/185
f 185/185/185 189/189/189 190/190/190
f 186/186/186 191/191/191 184/184/184
f 186/186/186 187/187/187 191/191/191
f 184/184/184 191/191/191 189/189/189
f 187/187/187 188/188/188 192/192/192
f 187/187/187 192/192/192 191/191/191
f 188/188/188 193/193/193 192/192/192
f 189/189/189 194/194/194 190/190/190
f 190/190/190 194/194/194 195/195/195
f 194/194/194 196/196/196 195/195/195
f 191/191/191 197/197/197 189/189/189
f 191/191/191 192/192/192 197/197/197
f 189/189/189 197/197/197 194/194/194
f 192/192/192 193/193/193 198/198/198
f 192/192/192 198/198/198 197/197/197
f 193/193/193 199/199/199 198/198/198
f 194/194/194 200/200/200 196/196/196
f 197/197/197 200/200/200 194/194/194
f 197/197/197 198/198/198 200/200/200
f 200/200/200 201/201/201 196/196/196
f 198/198/198 199/199/199 202/202/202
f 198/198/198 202/202/202 200/200/200
f 200/200/200 202/202/202 201/201/201
f 199/199/199 203/203/203 202/202/202
f 202/202/202 204/204/204 201/201/201
f 202/202/202 203/203/203 204/204/204
f 203/203/203 205/205/205 204/204/204
