g Plane003
v -34.1337051 -36.419632 -3.76820681E-05
v 0.803482056 -3.74137878 -4.00176359E-05
v 6.88837433 -27.3891296 -3.49650072E-05
v -38.2793884 -12.3560486 -4.26070328E-05
v -5.28140259 19.9063873 -4.5070261E-05
v -71.9081268 -40.690918 -3.98983757E-05
v -42.4250717 11.7075272 -4.75320012E-05
v -72.974556 -16.2961426 -4.46438753E-05
v -105.165848 -39.2922363 -4.14852839E-05
v -74.0409851 8.09863281 -4.93893749E-05
v -101.662025 -15.1268616 -4.60153387E-05
v -134.342468 -31.1244354 -4.23872407E-05
v -98.1582031 9.03851318 -5.05453936E-05
v -124.341835 -8.84823608 -4.67214304E-05
v -158.450897 -14.5540009 -4.24388381E-05
v -114.341156 13.4279709 -5.10556129E-05
v -141.014023 2.53979492 -4.6762143E-05
v -174.564514 10.8759995 -4.15294999E-05
v -123.577148 19.6335831 -5.10854516E-05
v -151.384842 18.5535355 -4.61533491E-05
v -175.710724 42.3020172 -3.94310518E-05
v -128.205154 26.2310715 -5.07771911E-05
v -151.693695 37.8947067 -4.46248923E-05
v -167.011215 71.5597763 -3.66582462E-05
v -127.676666 33.487381 -4.98187364E-05
v -144.193512 62.8652496 -4.21324075E-05
v -154.337646 101.56823 -3.35666555E-05
v -121.375809 54.170723 -4.76065725E-05
v -132.04747 91.598732 -3.91069261E-05
v -140.849762 131.877151 -3.05067006E-05
v -109.757301 81.6292343 -4.46471895E-05
v -118.418816 122.228554 -3.59794867E-05
v -129.627472 160.634796 -2.78978769E-05
v -95.9878845 112.579948 -4.14522729E-05
v -106.470749 152.888245 -3.31811316E-05
v -123.571518 184.929916 -2.61784298E-05
v -83.3140564 145.141693 -3.8464379E-05
v -99.3665161 181.711212 -3.1142903E-05
v -123.935974 200.829575 -2.56170897E-05
v -75.1615067 178.492508 -3.61073726E-05
v -100.271103 206.84758 -3.02954613E-05
v -130.484802 219.870041 -2.57641441E-05
v -76.6062393 212.865585 -3.4973833E-05
v -108.119316 229.669388 -3.04715431E-05
v -140.30835 238.138336 -2.64387818E-05
v -85.7538147 239.468735 -3.51789422E-05
v -119.762169 251.332932 -3.12705961E-05
v -153.622101 255.811417 -2.76656683E-05
v -99.2159576 264.527466 -3.61024031E-05
v -135.199631 271.838135 -3.26926092E-05
v -170.647522 272.928772 -2.94764286E-05
v -116.777214 287.864868 -3.77195502E-05
v -154.431778 291.185059 -3.47375826E-05
v -191.548553 289.430908 -3.18984057E-05
v -138.216034 309.441345 -3.99987402E-05
v -177.458527 309.373657 -3.74055271E-05
v -216.417221 305.216003 -3.4949946E-05
v -163.3685 329.316406 -4.29126485E-05
v -204.279968 326.403992 -4.06964355E-05
v -244.754211 319.937927 -3.85710882E-05
v -192.142715 347.591919 -4.64429249E-05
v -234.195557 341.955139 -4.45188998E-05
v -223.636902 363.97229 -5.04667114E-05
v 27.4022522 19.993866 -2.96729377E-05
v -1.04153442 -2.83169556 -3.14566787E-05
v 23.3180084 -4.52139282 -2.90452117E-05
v 3.93992615 26.758606 -3.22121414E-05
v -25.4010773 -1.14202881 -3.38681457E-05
v 35.3637848 38.4437408 -2.99361309E-05
v -19.5223999 33.5233459 -3.47513451E-05
v 14.5561371 51.2220306 -3.25585643E-05
v 46.8875427 52.1297455 -2.98908781E-05
v -6.25148773 64.0003204 -3.5180994E-05
v 30.8035126 70.5021744 -3.24942448E-05
v 62.9944 62.4654846 -2.95397604E-05
v 14.7194824 88.8746109 -3.50976115E-05
v 52.6820526 84.5991211 -3.20191903E-05
v 80.0765533 69.2818909 -2.89682375E-05
v 42.3696442 106.732727 -3.44986256E-05
v 72.2934418 92.4263306 -3.14038407E-05
v 99.2544708 74.3763199 -2.82338751E-05
v 64.5103302 115.570778 -3.3839442E-05
v 94.5634003 98.3395462 -3.05728427E-05
v 120.955246 76.9761887 -2.73253427E-05
v 89.8723602 122.30278 -3.2911812E-05
v 119.835373 101.368561 -2.95247155E-05
v 145.616562 76.1704941 -2.6227608E-05
v 118.715469 125.760941 -3.17240847E-05
v 148.246719 100.446503 -2.82636593E-05
v 173.705948 70.8962631 -2.49240002E-05
v 150.876877 124.722504 -3.02997087E-05
v 179.935013 94.5064545 -2.6793874E-05
v 198.810867 62.7526703 -2.3728564E-05
v 186.164078 118.116646 -2.86637514E-05
v 207.344406 85.6310654 -2.54888728E-05
v 217.374344 55.3616409 -2.28279441E-05
v 215.877945 108.50946 -2.72491779E-05
v 226.869644 77.8579025 -2.45416049E-05
v 236.970627 46.6408463 -2.18630248E-05
v 236.364914 100.354156 -2.62552639E-05
v 247.301102 68.7660294 -2.35355692E-05
v 257.579468 36.585434 -2.08345828E-05
v 257.631592 90.8912125 -2.52081118E-05
v 268.638855 58.3554382 -2.24707619E-05
v 279.184082 25.192955 -1.97433001E-05
v 279.698181 80.1254349 -2.41069374E-05
v 290.882874 46.6261292 -2.13471849E-05
v 301.770386 12.4625015 -1.85897479E-05
v 302.581604 68.0593033 -2.29510679E-05
v 314.033081 33.5781174 -2.01648381E-05
v 325.327087 -1.60595703 -1.73744156E-05
v 326.295715 54.6937637 -2.17399283E-05
v 338.089539 19.2114029 -1.89237253E-05
v 349.844666 -17.0118103 -1.60977124E-05
v 350.852051 40.0287323 -2.04730295E-05
v 363.052368 3.52593994 -1.76238373E-05
v 375.315186 -33.7541351 -1.4759984E-05
v 376.260071 24.0636902 -1.91499621E-05
v 388.921387 -13.4782104 -1.62651813E-05
v 401.732178 -51.831955 -1.33615213E-05
v 402.527588 6.79772949 -1.77703787E-05
v 415.696655 -31.8010864 -1.48477538E-05
v 429.027222 -71.1986542 -1.19059459E-05
v 429.661133 -11.7702179 -1.63339864E-05
v 443.311584 -51.3946228 -1.33751255E-05
v 457.595947 -31.5905914 -1.48442996E-05
v 7.65913391 -42.1030731 -8.80997686E-05
v -1.31445312 -2.79878235 -1.21856083E-05
v -15.4612122 -22.7013245 -9.10793678E-05
v 25.3151398 -25.2357178 -8.74997568E-06
v 12.8323059 17.1037598 6.67081622E-05
v 18.6898651 -57.2479401 -8.64312678E-05
v 42.9711304 -8.36836243 7.05998245E-05
v 40.8368378 -46.9642944 -6.38464553E-06
v 20.7561798 -66.3139954 -8.58574786E-05
v 62.9838104 -36.6806488 7.36619841E-05
v 45.1230621 -67.8942871 -5.10534664E-06
v 17.5780487 -74.9087219 -8.57947525E-05
v 69.4899445 -69.4745789 7.56467925E-05
v 38.1738129 -88.0257263 -4.91207902E-06
v 9.849823 -83.5055542 -8.65991897E-05
v 58.7696381 -101.1427 7.59706018E-05
v 25.3291779 -102.390259 -5.63375215E-06
v -3.63692474 -92.6166077 -8.82477834E-05
v 40.8085327 -121.274963 7.53316926E-05
v 8.69740295 -113.69043 -7.29679596E-06
v -23.241394 -102.822784 -9.05448396E-05
v 21.0317535 -134.764252 7.36541915E-05
v -12.8180237 -124.904358 -9.66232983E-06
v -47.0934601 -113.204697 -9.31720497E-05
v -2.39459991 -146.98587 7.12201945E-05
v -37.9242249 -135.835815 -1.23509053E-05
v -73.6168213 -123.320374 -9.57575685E-05
v -28.7550049 -158.466919 6.84702463E-05
v -65.3284302 -146.288696 -1.49830994E-05
v -101.372849 -132.873199 -9.79215838E-05
v -57.0400391 -169.25705 6.5791377E-05
v -93.7378616 -156.066925 -1.71794818E-05
v -128.986923 -141.619568 -9.92843925E-05
v -86.1028748 -179.260651 6.35626275E-05
v -121.85968 -164.974335 -1.85606186E-05
v -155.05954 -149.321808 -9.94704897E-05
v -114.732445 -188.329071 6.21631625E-05
v -148.356598 -172.801849 -1.87485548E-05
v -178.6073 -155.658966 -9.87468302E-05
v -141.653625 -196.281891 6.19733764E-05
v -172.617508 -179.330963 -1.80030165E-05
v -202.557343 -161.339905 -9.74997965E-05
v -166.627716 -203.002991 6.27408081E-05
v -197.273956 -185.179535 -1.67192338E-05
v -226.911469 -166.363861 -9.57284792E-05
v -191.990555 -209.019135 6.40613289E-05
v -222.325928 -190.347504 -1.48972122E-05
v -251.671402 -170.72995 -9.34319542E-05
v -217.740295 -214.331116 6.59341167E-05
v -247.773407 -194.834869 -1.25369461E-05
v -276.838501 -174.437103 -9.06092318E-05
v -243.875427 -218.939789 6.83580656E-05
v -273.616455 -198.641663 -9.63843922E-06
v -302.414062 -177.484283 -8.72592864E-05
v -270.394409 -222.846222 7.13324043E-05
v -299.855042 -201.767883 -6.20169158E-06
v -328.39917 -179.870239 -8.33811282E-05
v -297.295959 -226.051483 7.48559105E-05
v -326.489075 -204.213501 -2.22670496E-06
v -354.788208 -181.593536 -7.89749029E-05
v -324.579041 -228.556732 7.89277256E-05
v -353.504517 -205.977844 2.28400677E-06
v -352.220825 -230.362122 8.35429164E-05
vt 0.0535426736 0
vt 0.00393635035 0.5
vt 0.00393635035 0
vt 0.0535426736 0.5
vt 0.00393635035 1
vt 0.103149056 0
vt 0.0535426736 1
vt 0.103149056 0.5
vt 0.152755439 0
vt 0.103149056 1
vt 0.152755439 0.5
vt 0.202361822 0
vt 0.152755439 1
vt 0.202361822 0.5
vt 0.251968265 0
vt 0.202361822 1
vt 0.251968265 0.5
vt 0.301574647 0
vt 0.251968265 1
vt 0.301574647 0.5
vt 0.35118103 0
vt 0.301574647 1
vt 0.35118103 0.5
vt 0.400787413 0
vt 0.35118103 1
vt 0.400787413 0.5
vt 0.450393796 0
vt 0.400787413 1
vt 0.450393796 0.5
vt 0.500000179 0
vt 0.450393796 1
vt 0.500000179 0.5
vt 0.549606562 0
vt 0.500000179 1
vt 0.549606562 0.5
vt 0.599212945 0
vt 0.549606562 1
vt 0.599212945 0.5
vt 0.648819327 0
vt 0.599212945 1
vt 0.648819327 0.5
vt 0.69842577 0
vt 0.648819327 1
vt 0.69842577 0.5
vt 0.748032093 0
vt 0.69842577 1
vt 0.748032093 0.5
vt 0.797638476 0
vt 0.748032093 1
vt 0.797638476 0.5
vt 0.847244859 0
vt 0.797638476 1
vt 0.847244859 0.5
vt 0.896851242 0
vt 0.847244859 1
vt 0.896851242 0.5
vt 0.946457624 0
vt 0.896851242 1
vt 0.946457624 0.5
vt 0.996064007 0
vt 0.946457624 1
vt 0.996064007 0.5
vt 0.996064007 1
vt 0.0535426736 0
vt 0.00393635035 0.5
vt 0.00393635035 0
vt 0.0535426736 0.5
vt 0.00393635035 1
vt 0.103149056 0
vt 0.0535426736 1
vt 0.103149056 0.5
vt 0.152755439 0
vt 0.103149056 1
vt 0.152755439 0.5
vt 0.202361822 0
vt 0.152755439 1
vt 0.202361822 0.5
vt 0.251968265 0
vt 0.202361822 1
vt 0.251968265 0.5
vt 0.301574647 0
vt 0.251968265 1
vt 0.301574647 0.5
vt 0.35118103 0
vt 0.301574647 1
vt 0.35118103 0.5
vt 0.400787413 0
vt 0.35118103 1
vt 0.400787413 0.5
vt 0.450393796 0
vt 0.400787413 1
vt 0.450393796 0.5
vt 0.500000179 0
vt 0.450393796 1
vt 0.500000179 0.5
vt 0.549606562 0
vt 0.500000179 1
vt 0.549606562 0.5
vt 0.599212945 0
vt 0.549606562 1
vt 0.599212945 0.5
vt 0.648819327 0
vt 0.599212945 1
vt 0.648819327 0.5
vt 0.69842577 0
vt 0.648819327 1
vt 0.69842577 0.5
vt 0.748032093 0
vt 0.69842577 1
vt 0.748032093 0.5
vt 0.797638476 0
vt 0.748032093 1
vt 0.797638476 0.5
vt 0.847244859 0
vt 0.797638476 1
vt 0.847244859 0.5
vt 0.896851242 0
vt 0.847244859 1
vt 0.896851242 0.5
vt 0.946457624 0
vt 0.896851242 1
vt 0.946457624 0.5
vt 0.996064007 0
vt 0.946457624 1
vt 0.996064007 0.5
vt 0.996064007 1
vt 0.0535426736 0
vt 0.00393635035 0.5
vt 0.00393635035 0
vt 0.0535426736 0.5
vt 0.00393635035 1
vt 0.103149056 0
vt 0.0535426736 1
vt 0.103149056 0.5
vt 0.152755439 0
vt 0.103149056 1
vt 0.152755439 0.5
vt 0.202361822 0
vt 0.152755439 1
vt 0.202361822 0.5
vt 0.251968265 0
vt 0.202361822 1
vt 0.251968265 0.5
vt 0.301574647 0
vt 0.251968265 1
vt 0.301574647 0.5
vt 0.35118103 0
vt 0.301574647 1
vt 0.35118103 0.5
vt 0.400787413 0
vt 0.35118103 1
vt 0.400787413 0.5
vt 0.450393796 0
vt 0.400787413 1
vt 0.450393796 0.5
vt 0.500000179 0
vt 0.450393796 1
vt 0.500000179 0.5
vt 0.549606562 0
vt 0.500000179 1
vt 0.549606562 0.5
vt 0.599212945 0
vt 0.549606562 1
vt 0.599212945 0.5
vt 0.648819327 0
vt 0.599212945 1
vt 0.648819327 0.5
vt 0.69842577 0
vt 0.648819327 1
vt 0.69842577 0.5
vt 0.748032093 0
vt 0.69842577 1
vt 0.748032093 0.5
vt 0.797638476 0
vt 0.748032093 1
vt 0.797638476 0.5
vt 0.847244859 0
vt 0.797638476 1
vt 0.847244859 0.5
vt 0.896851242 0
vt 0.847244859 1
vt 0.896851242 0.5
vt 0.946457624 0
vt 0.896851242 1
vt 0.946457624 0.5
vt 0.996064007 0
vt 0.946457624 1
vt 0.996064007 0.5
vt 0.996064007 1
vn -0 0 1
vn -0 0 1
vn -0 0 1
vn -0 0 1
vn -0 0 1
vn -0 0 1
vn -0 0 1
vn -0 0 1
vn -0 0 1
vn -0 0 1
vn -0 0 1
vn -0 0 1
vn -0 0 1
vn -0 0 1
vn -0 0 1
vn -0 0 1
vn -0 0 1
vn -0 0 1
vn -0 0 1
vn -0 0 1
vn -0 0 1
vn -0 0 1
vn -0 0 1
vn -0 0 1
vn -0 0 1
vn -0 0 1
vn -0 0 1
vn -0 0 1
vn -0 0 1
vn -0 0 1
vn -0 0 1
vn -0 0 1
vn -0 0 1
vn -0 0 1
vn -0 0 1
vn -0 0 1
vn -0 0 1
vn -0 0 1
vn -0 0 1
vn -0 0 1
vn -0 0 1
vn -0 0 1
vn -0 0 1
vn -0 0 1
vn -0 0 1
vn -0 0 1
vn -0 0 1
vn -0 0 1
vn -0 0 1
vn -0 0 1
vn -0 0 1
vn -0 0 1
vn -0 0 1
vn -0 0 1
vn -0 0 1
vn -0 0 1
vn -0 0 1
vn -0 0 1
vn -0 0 1
vn -0 0 1
vn -0 0 1
vn -0 0 1
vn -0 0 1
vn -0 0 -1
vn -0 0 -1
vn -0 0 -1
vn -0 0 -1
vn -0 0 -1
vn -0 0 -1
vn -0 0 -1
vn -0 0 -1
vn -0 0 -1
vn -0 0 -1
vn -0 0 -1
vn -0 0 -1
vn -0 0 -1
vn -0 0 -1
vn -0 0 -1
vn -0 0 -1
vn -0 0 -1
vn -0 0 -1
vn -0 0 -1
vn -0 0 -1
vn -0 0 -1
vn -0 0 -1
vn -0 0 -1
vn -0 0 -1
vn -0 0 -1
vn -0 0 -1
vn -0 0 -1
vn -0 0 -1
vn -0 0 -1
vn -0 0 -1
vn -0 0 -1
vn -0 0 -1
vn -0 0 -1
vn -0 0 -1
vn -0 0 -1
vn -0 0 -1
vn -0 0 -1
vn -0 0 -1
vn -0 0 -1
vn -0 0 -1
vn -0 0 -1
vn -0 0 -1
vn -0 0 -1
vn -0 0 -1
vn -0 0 -1
vn -0 0 -1
vn -0 0 -1
vn -0 0 -1
vn -0 0 -1
vn -0 0 -1
vn -0 0 -1
vn -0 0 -1
vn -0 0 -1
vn -0 0 -1
vn -0 0 -1
vn -0 0 -1
vn -0 0 -1
vn -0 0 -1
vn -0 0 -1
vn -0 0 -1
vn -0 0 -1
vn -0 0 -1
vn -0 0 -1
vn -0 0 -1
vn -0 0 -1
vn -0 0 -1
vn -0 0 -1
vn -0 0 -1
vn -0 0 -1
vn -0 0 -1
vn -0 0 -1
vn -0 0 -1
vn -0 0 -1
vn -0 0 -1
vn -0 0 -1
vn -0 0 -1
vn -0 0 -1
vn -0 0 -1
vn -0 0 -1
vn -0 0 -1
vn -0 0 -1
vn -0 0 -1
vn -0 0 -1
vn -0 0 -1
vn -0 0 -1
vn -0 0 -1
vn -0 0 -1
vn -0 0 -1
vn -0 0 -1
vn -0 0 -1
vn -0 0 -1
vn -0 0 -1
vn -0 0 -1
vn -0 0 -1
vn -0 0 -1
vn -0 0 -1
vn -0 0 -1
vn -0 0 -1
vn -0 0 -1
vn -0 0 -1
vn -0 0 -1
vn -0 0 -1
vn -0 0 -1
vn -0 0 -1
vn -0 0 -1
vn -0 0 -1
vn -0 0 -1
vn -0 0 -1
vn -0 0 -1
vn -0 0 -1
vn -0 0 -1
vn -0 0 -1
vn -0 0 -1
vn -0 0 -1
vn -0 0 -1
vn -0 0 -1
vn -0 0 -1
vn -0 0 -1
vn -0 0 -1
vn -0 0 -1
vn -0 0 -1
vn -0 0 -1
vn -0 0 -1
vn -0 0 -1
vn -0 0 -1
vn -0 0 -1
g Plane003_0
f 3/3/3 2/2/2 1/1/1
f 2/2/2 4/4/4 1/1/1
f 2/2/2 5/5/5 4/4/4
f 1/1/1 4/4/4 6/6/6
f 5/5/5 7/7/7 4/4/4
f 4/4/4 8/8/8 6/6/6
f 4/4/4 7/7/7 8/8/8
f 6/6/6 8/8/8 9/9/9
f 7/7/7 10/10/10 8/8/8
f 8/8/8 11/11/11 9/9/9
f 8/8/8 10/10/10 11/11/11
f 9/9/9 11/11/11 12/12/12
f 10/10/10 13/13/13 11/11/11
f 11/11/11 14/14/14 12/12/12
f 11/11/11 13/13/13 14/14/14
f 12/12/12 14/14/14 15/15/15
f 13/13/13 16/16/16 14/14/14
f 14/14/14 17/17/17 15/15/15
f 14/14/14 16/16/16 17/17/17
f 15/15/15 17/17/17 18/18/18
f 16/16/16 19/19/19 17/17/17
f 17/17/17 20/20/20 18/18/18
f 17/17/17 19/19/19 20/20/20
f 18/18/18 20/20/20 21/21/21
f 19/19/19 22/22/22 20/20/20
f 20/20/20 23/23/23 21/21/21
f 20/20/20 22/22/22 23/23/23
f 21/21/21 23/23/23 24/24/24
f 22/22/22 25/25/25 23/23/23
f 23/23/23 26/26/26 24/24/24
f 23/23/23 25/25/25 26/26/26
f 24/24/24 26/26/26 27/27/27
f 25/25/25 28/28/28 26/26/26
f 26/26/26 29/29/29 27/27/27
f 26/26/26 28/28/28 29/29/29
f 27/27/27 29/29/29 30/30/30
f 28/28/28 31/31/31 29/29/29
f 29/29/29 32/32/32 30/30/30
f 29/29/29 31/31/31 32/32/32
f 30/30/30 32/32/32 33/33/33
f 31/31/31 34/34/34 32/32/32
f 32/32/32 35/35/35 33/33/33
f 32/32/32 34/34/34 35/35/35
f 33/33/33 35/35/35 36/36/36
f 34/34/34 37/37/37 35/35/35
f 35/35/35 38/38/38 36/36/36
f 35/35/35 37/37/37 38/38/38
f 36/36/36 38/38/38 39/39/39
f 37/37/37 40/40/40 38/38/38
f 38/38/38 41/41/41 39/39/39
f 38/38/38 40/40/40 41/41/41
f 39/39/39 41/41/41 42/42/42
f 40/40/40 43/43/43 41/41/41
f 41/41/41 44/44/44 42/42/42
f 41/41/41 43/43/43 44/44/44
f 42/42/42 44/44/44 45/45/45
f 43/43/43 46/46/46 44/44/44
f 44/44/44 47/47/47 45/45/45
f 44/44/44 46/46/46 47/47/47
f 45/45/45 47/47/47 48/48/48
f 46/46/46 49/49/49 47/47/47
f 47/47/47 50/50/50 48/48/48
f 47/47/47 49/49/49 50/50/50
f 48/48/48 50/50/50 51/51/51
f 49/49/49 52/52/52 50/50/50
f 50/50/50 53/53/53 51/51/51
f 50/50/50 52/52/52 53/53/53
f 51/51/51 53/53/53 54/54/54
f 52/52/52 55/55/55 53/53/53
f 53/53/53 56/56/56 54/54/54
f 53/53/53 55/55/55 56/56/56
f 54/54/54 56/56/56 57/57/57
f 55/55/55 58/58/58 56/56/56
f 56/56/56 59/59/59 57/57/57
f 56/56/56 58/58/58 59/59/59
f 57/57/57 59/59/59 60/60/60
f 58/58/58 61/61/61 59/59/59
f 59/59/59 62/62/62 60/60/60
f 59/59/59 61/61/61 62/62/62
f 61/61/61 63/63/63 62/62/62
f 66/66/66 65/65/65 64/64/64
f 65/65/65 67/67/67 64/64/64
f 65/65/65 68/68/68 67/67/67
f 64/64/64 67/67/67 69/69/69
f 68/68/68 70/70/70 67/67/67
f 67/67/67 71/71/71 69/69/69
f 67/67/67 70/70/70 71/71/71
f 69/69/69 71/71/71 72/72/72
f 70/70/70 73/73/73 71/71/71
f 71/71/71 74/74/74 72/72/72
f 71/71/71 73/73/73 74/74/74
f 72/72/72 74/74/74 75/75/75
f 73/73/73 76/76/76 74/74/74
f 74/74/74 77/77/77 75/75/75
f 74/74/74 76/76/76 77/77/77
f 75/75/75 77/77/77 78/78/78
f 76/76/76 79/79/79 77/77/77
f 77/77/77 80/80/80 78/78/78
f 77/77/77 79/79/79 80/80/80
f 78/78/78 80/80/80 81/81/81
f 79/79/79 82/82/82 80/80/80
f 80/80/80 83/83/83 81/81/81
f 80/80/80 82/82/82 83/83/83
f 81/81/81 83/83/83 84/84/84
f 82/82/82 85/85/85 83/83/83
f 83/83/83 86/86/86 84/84/84
f 83/83/83 85/85/85 86/86/86
f 84/84/84 86/86/86 87/87/87
f 85/85/85 88/88/88 86/86/86
f 86/86/86 89/89/89 87/87/87
f 86/86/86 88/88/88 89/89/89
f 87/87/87 89/89/89 90/90/90
f 88/88/88 91/91/91 89/89/89
f 89/89/89 92/92/92 90/90/90
f 89/89/89 91/91/91 92/92/92
f 90/90/90 92/92/92 93/93/93
f 91/91/91 94/94/94 92/92/92
f 92/92/92 95/95/95 93/93/93
f 92/92/92 94/94/94 95/95/95
f 93/93/93 95/95/95 96/96/96
f 94/94/94 97/97/97 95/95/95
f 95/95/95 98/98/98 96/96/96
f 95/95/95 97/97/97 98/98/98
f 96/96/96 98/98/98 99/99/99
f 97/97/97 100/100/100 98/98/98
f 98/98/98 101/101/101 99/99/99
f 98/98/98 100/100/100 101/101/101
f 99/99/99 101/101/101 102/102/102
f 100/100/100 103/103/103 101/101/101
f 101/101/101 104/104/104 102/102/102
f 101/101/101 103/103/103 104/104/104
f 102/102/102 104/104/104 105/105/105
f 103/103/103 106/106/106 104/104/104
f 104/104/104 107/107/107 105/105/105
f 104/104/104 106/106/106 107/107/107
f 105/105/105 107/107/107 108/108/108
f 106/106/106 109/109/109 107/107/107
f 107/107/107 110/110/110 108/108/108
f 107/107/107 109/109/109 110/110/110
f 108/108/108 110/110/110 111/111/111
f 109/109/109 112/112/112 110/110/110
f 110/110/110 113/113/113 111/111/111
f 110/110/110 112/112/112 113/113/113
f 111/111/111 113/113/113 114/114/114
f 112/112/112 115/115/115 113/113/113
f 113/113/113 116/116/116 114/114/114
f 113/113/113 115/115/115 116/116/116
f 114/114/114 116/116/116 117/117/117
f 115/115/115 118/118/118 116/116/116
f 116/116/116 119/119/119 117/117/117
f 116/116/116 118/118/118 119/119/119
f 117/117/117 119/119/119 120/120/120
f 118/118/118 121/121/121 119/119/119
f 119/119/119 122/122/122 120/120/120
f 119/119/119 121/121/121 122/122/122
f 120/120/120 122/122/122 123/123/123
f 121/121/121 124/124/124 122/122/122
f 122/122/122 125/125/125 123/123/123
f 122/122/122 124/124/124 125/125/125
f 124/124/124 126/126/126 125/125/125
f 129/129/129 128/128/128 127/127/127
f 128/128/128 130/130/130 127/127/127
f 128/128/128 131/131/131 130/130/130
f 127/127/127 130/130/130 132/132/132
f 131/131/131 133/133/133 130/130/130
f 130/130/130 134/134/134 132/132/132
f 130/130/130 133/133/133 134/134/134
f 132/132/132 134/134/134 135/135/135
f 133/133/133 136/136/136 134/134/134
f 134/134/134 137/137/137 135/135/135
f 134/134/134 136/136/136 137/137/137
f 135/135/135 137/137/137 138/138/138
f 136/136/136 139/139/139 137/137/137
f 137/137/137 140/140/140 138/138/138
f 137/137/137 139/139/139 140/140/140
f 138/138/138 140/140/140 141/141/141
f 139/139/139 142/142/142 140/140/140
f 140/140/140 143/143/143 141/141/141
f 140/140/140 142/142/142 143/143/143
f 141/141/141 143/143/143 144/144/144
f 142/142/142 145/145/145 143/143/143
f 143/143/143 146/146/146 144/144/144
f 143/143/143 145/145/145 146/146/146
f 144/144/144 146/146/146 147/147/147
f 145/145/145 148/148/148 146/146/146
f 146/146/146 149/149/149 147/147/147
f 146/146/146 148/148/148 149/149/149
f 147/147/147 149/149/149 150/150/150
f 148/148/148 151/151/151 149/149/149
f 149/149/149 152/152/152 150/150/150
f 149/149/149 151/151/151 152/152/152
f 150/150/150 152/152/152 153/153/153
f 151/151/151 154/154/154 152/152/152
f 152/152/152 155/155/155 153/153/153
f 152/152/152 154/154/154 155/155/155
f 153/153/153 155/155/155 156/156/156
f 154/154/154 157/157/157 155/155/155
f 155/155/155 158/158/158 156/156/156
f 155/155/155 157/157/157 158/158/158
f 156/156/156 158/158/158 159/159/159
f 157/157/157 160/160/160 158/158/158
f 158/158/158 161/161/161 159/159/159
f 158/158/158 160/160/160 161/161/161
f 159/159/159 161/161/161 162/162/162
f 160/160/160 163/163/163 161/161/161
f 161/161/161 164/164/164 162/162/162
f 161/161/161 163/163/163 164/164/164
f 162/162/162 164/164/164 165/165/165
f 163/163/163 166/166/166 164/164/164
f 164/164/164 167/167/167 165/165/165
f 164/164/164 166/166/166 167/167/167
f 165/165/165 167/167/167 168/168/168
f 166/166/166 169/169/169 167/167/167
f 167/167/167 170/170/170 168/168/168
f 167/167/167 169/169/169 170/170/170
f 168/168/168 170/170/170 171/171/171
f 169/169/169 172/172/172 170/170/170
f 170/170/170 173/173/173 171/171/171
f 170/170/170 172/172/172 173/173/173
f 171/171/171 173/173/173 174/174/174
f 172/172/172 175/175/175 173/173/173
f 173/173/173 176/176/176 174/174/174
f 173/173/173 175/175/175 176/176/176
f 174/174/174 176/176/176 177/177/177
f 175/175/175 178/178/178 176/176/176
f 176/176/176 179/179/179 177/177/177
f 176/176/176 178/178/178 179/179/179
f 177/177/177 179/179/179 180/180/180
f 178/178/178 181/181/181 179/179/179
f 179/179/179 182/182/182 180/180/180
f 179/179/179 181/181/181 182/182/182
f 180/180/180 182/182/182 183/183/183
f 181/181/181 184/184/184 182/182/182
f 182/182/182 185/185/185 183/183/183
f 182/182/182 184/184/184 185/185/185
f 183/183/183 185/185/185 186/186/186
f 184/184/184 187/187/187 185/185/185
f 185/185/185 188/188/188 186/186/186
f 185/185/185 187/187/187 188/188/188
f 187/187/187 189/189/189 188/188/188
