g Plane002
v 10.8440437 -13.8904495 0
v 24.7575626 -12.0381384 0
v 24.74156 -20.1455059 0
v 11.8724289 -8.1480875 0
v -1.14052773 -9.34870911 0
v 24.7546177 -5.28650951 0
v 0.545841217 -5.34039879 0
v -11.2121525 -6.52028751 0
v 12.9905853 -3.15920353 0
v 24.732748 0.109378815 0
v -9.22220325 -3.6150713 0
v -19.3708305 -5.40518093 0
v -17.4317055 -2.97210503 0
v 2.43654442 -1.65415859 0
v 14.198513 1.07620621 0
v 24.6919422 4.1495285 0
v 15.496212 4.55813789 0
v -6.90750408 -0.771379471 0
v -15.0415564 -0.510860443 0
v 4.53157997 1.71000862 0
v 6.83094978 4.75210762 0
v -4.26805115 2.01079559 0
v -12.2003803 1.97854996 0
v -1.30384731 4.73143959 0
v -8.90818119 4.49612999 0
vt 0.75 0
vt 1 0.25
vt 1 0
vt 0.75 0.25
vt 0.5 0
vt 1 0.5
vt 0.5 0.25
vt 0.25 0
vt 0.75 0.5
vt 1 0.75
vt 0.25 0.25
vt 0 0
vt 0 0.25
vt 0.5 0.5
vt 0.75 0.75
vt 1 1
vt 0.75 1
vt 0.25 0.5
vt 0 0.5
vt 0.5 0.75
vt 0.5 1
vt 0.25 0.75
vt 0 0.75
vt 0.25 1
vt 0 1
vn -0 0 1
vn -0 0 1
vn -0 0 1
vn -0 0 1
vn -0 0 1
vn -0 0 1
vn -0 0 1
vn -0 0 1
vn -0 0 1
vn -0 0 1
vn -0 0 1
vn -0 0 1
vn -0 0 1
vn -0 0 1
vn -0 0 1
vn -0 0 1
vn -0 0 1
vn -0 0 1
vn -0 0 1
vn -0 0 1
vn -0 0 1
vn -0 0 1
vn -0 0 1
vn -0 0 1
vn -0 0 1
g Plane002_0
f 3/3/3 2/2/2 1/1/1
f 2/2/2 4/4/4 1/1/1
f 1/1/1 4/4/4 5/5/5
f 2/2/2 6/6/6 4/4/4
f 4/4/4 7/7/7 5/5/5
f 5/5/5 7/7/7 8/8/8
f 6/6/6 9/9/9 4/4/4
f 4/4/4 9/9/9 7/7/7
f 6/6/6 10/10/10 9/9/9
f 7/7/7 11/11/11 8/8/8
f 8/8/8 11/11/11 12/12/12
f 11/11/11 13/13/13 12/12/12
f 9/9/9 14/14/14 7/7/7
f 7/7/7 14/14/14 11/11/11
f 10/10/10 15/15/15 9/9/9
f 9/9/9 15/15/15 14/14/14
f 10/10/10 16/16/16 15/15/15
f 16/16/16 17/17/17 15/15/15
f 11/11/11 18/18/18 13/13/13
f 14/14/14 18/18/18 11/11/11
f 18/18/18 19/19/19 13/13/13
f 15/15/15 20/20/20 14/14/14
f 15/15/15 17/17/17 20/20/20
f 14/14/14 20/20/20 18/18/18
f 17/17/17 21/21/21 20/20/20
f 18/18/18 22/22/22 19/19/19
f 20/20/20 22/22/22 18/18/18
f 20/20/20 21/21/21 22/22/22
f 22/22/22 23/23/23 19/19/19
f 21/21/21 24/24/24 22/22/22
f 22/22/22 24/24/24 23/23/23
f 24/24/24 25/25/25 23/23/23
