g circle_002
v -0.446330696 -0.486356944 -0.207313672
v -0.691172123 -0.266523689 -0.226375818
v -0.595105946 -0.393760055 -0.222488135
v -0.606470704 -0.369376987 -0.148227453
v -0.38386181 -0.507091403 -0.174315199
v -0.741245329 -0.161526993 -0.203116566
v -0.601338506 -0.413416028 -0.0981653258
v -0.321697593 -0.520474494 -0.150588915
v -0.704725921 -0.179772854 -0.138493434
v -0.725689769 0.0311988853 -0.235836878
v -0.536633313 -0.445000052 -0.0459895208
v -0.269603342 -0.553856552 -0.120767154
v -0.676697791 -0.200979784 -0.0868798941
v -0.724358261 0.0291074049 -0.155934721
v -0.642836273 0.211454287 -0.21945329
v -0.432117164 -0.489879817 -0.000806906261
v -0.110698462 -0.560608506 -0.102595575
v -0.63781327 -0.266935676 -0.025651671
v -0.727651179 -0.0117056193 -0.0782093033
v -0.684227049 0.195960388 -0.14348869
v -0.558710098 0.308567256 -0.167154863
v -0.339906037 -0.526192963 0.0318106562
v 0.00136634102 -0.535514057 -0.0446760766
v -0.224563465 -0.496194363 0.0644526407
v -0.579550982 -0.371000528 0.0255874489
v -0.538843453 -0.383617193 0.108162291
v -0.465647876 -0.388421595 0.178620517
v -0.695257783 -0.0775427744 -0.0230056699
v -0.702064276 0.166381776 -0.0829865932
v -0.610500395 0.304232091 -0.0831649601
v -0.431698352 0.400070965 -0.0873044953
v -0.621810079 -0.21040988 0.146972224
v -0.562896669 -0.2286551 0.225261852
v -0.666013539 -0.196238533 0.056141559
v -0.711953998 0.114450291 -0.0213503595
v -0.645528734 0.276829481 -0.0187052842
v -0.476334721 0.402059942 -0.0136908274
v -0.237543568 0.446733475 -0.0602118038
v -0.700437963 -0.0387488604 0.126398563
v -0.65248549 -0.0550863035 0.205158114
v -0.708122551 0.0478806719 0.0333491787
v -0.654395401 0.239029765 0.0198991727
v -0.502512455 0.367452025 0.0443058833
v -0.240023836 0.464698553 0.0221193582
v 0.0100472877 0.498050451 -0.0305383857
v -0.0425182097 0.484954029 0.0481043048
v -0.264347792 0.466238022 0.0919426903
v -0.11116723 0.483125746 0.114180699
v -0.65967834 0.10959658 0.128279373
v -0.609207511 0.0892141089 0.208767712
v -0.679780424 0.158703446 0.0600996017
v -0.559132516 0.324428856 0.100469306
v -0.353355438 0.450635999 0.141954154
v -0.207358003 0.461278915 0.171326637
v -0.627560973 0.243888229 0.118073098
v -0.612379491 0.180876032 0.150529876
v -0.518556714 0.151870728 0.250872582
v -0.499131441 0.33058539 0.182018816
v -0.343989193 0.401164323 0.20783329
v -0.532546997 0.25435093 0.223978594
v -0.468007535 0.216313899 0.295652002
v -0.393142521 0.354584008 0.25863862
v -0.425006598 0.270163506 0.296740651
vt 0.833333373 0
vt 1 0.125
vt 1 0
vt 0.833333373 0.125
vt 0.666666687 0
vt 1 0.25
vt 0.666666687 0.125
vt 0.5 0
vt 0.833333373 0.25
vt 1 0.375
vt 0.5 0.125
vt 0.333333343 0
vt 0.666666687 0.25
vt 0.833333373 0.375
vt 1 0.5
vt 0.333333343 0.125
vt 0.166666672 0
vt 0.5 0.25
vt 0.666666687 0.375
vt 0.833333373 0.5
vt 1 0.625
vt 0.166666672 0.125
vt 0 0
vt 0 0.125
vt 0.333333343 0.25
vt 0.166666672 0.25
vt 0 0.25
vt 0.5 0.375
vt 0.666666687 0.5
vt 0.833333373 0.625
vt 1 0.75
vt 0.166666672 0.375
vt 0 0.375
vt 0.333333343 0.375
vt 0.5 0.5
vt 0.666666687 0.625
vt 0.833333373 0.75
vt 1 0.875
vt 0.166666672 0.5
vt 0 0.5
vt 0.333333343 0.5
vt 0.5 0.625
vt 0.666666687 0.75
vt 0.833333373 0.875
vt 1 1
vt 0.833333373 1
vt 0.666666687 0.875
vt 0.666666687 1
vt 0.166666672 0.625
vt 0 0.625
vt 0.333333343 0.625
vt 0.5 0.75
vt 0.5 0.875
vt 0.5 1
vt 0.333333343 0.75
vt 0.166666672 0.75
vt 0 0.75
vt 0.333333343 0.875
vt 0.333333343 1
vt 0.166666672 0.875
vt 0 0.875
vt 0.166666672 1
vt 0 1
vn 0.556195676 0.815547228 0.159778118
vn 0.810506105 0.508237958 -0.291159689
vn 0.667617083 0.73159492 -0.138044298
vn 0.770128071 0.63569957 -0.0528087504
vn 0.399219841 0.916523099 0.024678234
vn 0.939966619 0.17777954 -0.291302472
vn 0.735001266 0.66833061 -0.114486776
vn 0.389348388 0.918227911 0.0725627169
vn 0.943180203 0.268386275 -0.195907921
vn 0.980223536 -0.196864411 -0.0201537888
vn 0.603088558 0.782845199 -0.153093591
vn 0.255824983 0.966288805 -0.0289777741
vn 0.932094276 0.313804716 -0.18090567
vn 0.991399527 -0.129626274 -0.0179995187
vn 0.795771778 -0.545042753 0.263961494
vn 0.466556221 0.87747705 -0.111172222
vn -0.00475029368 0.944239974 -0.329223603
vn 0.892720342 0.40186885 -0.203842998
vn 0.989212036 0.046318572 -0.138975307
vn 0.866140783 -0.467667192 0.176316857
vn 0.567245245 -0.771189094 0.288963974
vn 0.201845527 0.918647945 -0.339623898
vn -0.0638888851 0.915739715 -0.396659672
vn 0.0142846853 0.89169836 -0.452404678
vn 0.747925758 0.614515305 -0.250954211
vn 0.606336296 0.66531831 -0.435554713
vn 0.417070031 0.703664482 -0.575246692
vn 0.969434738 0.192067385 -0.152664408
vn 0.948183537 -0.315989256 -0.0331472829
vn 0.652669668 -0.745552123 0.134812474
vn 0.328614175 -0.916934192 0.226372287
vn 0.828703701 0.401685059 -0.389742583
vn 0.732844174 0.447552264 -0.512480617
vn 0.93126595 0.344491214 -0.11861515
vn 0.968251348 -0.160695404 -0.191484809
vn 0.763746083 -0.639792681 -0.085773997
vn 0.413372904 -0.909115613 0.0513000712
vn 0.185519055 -0.972723961 0.139250472
vn 0.932163894 0.0817466751 -0.352687001
vn 0.84236747 0.100918166 -0.52937001
vn 0.981766403 -0.0278629437 -0.188038021
vn 0.83940661 -0.510492384 -0.18653211
vn 0.504740059 -0.86207509 -0.0454320498
vn 0.192748398 -0.979522347 0.0581717379
vn 0.148418352 -0.985637724 0.0805629492
vn 0.132544875 -0.98829937 0.0754728913
vn 0.210239336 -0.975703955 -0.0616541579
vn 0.101221807 -0.994744062 0.0154383797
vn 0.826929212 -0.255269974 -0.501024306
vn 0.731310964 -0.31621781 -0.604309916
vn 0.897520304 -0.301652879 -0.321656287
vn 0.623484254 -0.746879637 -0.231166705
vn 0.378624678 -0.887185633 -0.263713986
vn 0.155202195 -0.95958066 -0.23477073
vn 0.779663742 -0.474160731 -0.409018487
vn 0.733916521 -0.303440422 -0.607692719
vn 0.709877312 -0.169628099 -0.68359381
vn 0.563995838 -0.678573966 -0.470580667
vn 0.358619273 -0.735637963 -0.574655414
vn 0.670562685 -0.358270258 -0.649606109
vn 0.625240445 -0.325902909 -0.709127486
vn 0.523699999 -0.654337525 -0.545509517
vn 0.539415538 -0.477685362 -0.693431795
g circle_002_0
f 3/3/3 2/2/2 1/1/1
f 2/2/2 4/4/4 1/1/1
f 1/1/1 4/4/4 5/5/5
f 2/2/2 6/6/6 4/4/4
f 4/4/4 7/7/7 5/5/5
f 5/5/5 7/7/7 8/8/8
f 6/6/6 9/9/9 4/4/4
f 4/4/4 9/9/9 7/7/7
f 6/6/6 10/10/10 9/9/9
f 7/7/7 11/11/11 8/8/8
f 8/8/8 11/11/11 12/12/12
f 9/9/9 13/13/13 7/7/7
f 7/7/7 13/13/13 11/11/11
f 10/10/10 14/14/14 9/9/9
f 9/9/9 14/14/14 13/13/13
f 10/10/10 15/15/15 14/14/14
f 11/11/11 16/16/16 12/12/12
f 12/12/12 16/16/16 17/17/17
f 13/13/13 18/18/18 11/11/11
f 11/11/11 18/18/18 16/16/16
f 14/14/14 19/19/19 13/13/13
f 13/13/13 19/19/19 18/18/18
f 15/15/15 20/20/20 14/14/14
f 14/14/14 20/20/20 19/19/19
f 15/15/15 21/21/21 20/20/20
f 16/16/16 22/22/22 17/17/17
f 17/17/17 22/22/22 23/23/23
f 22/22/22 24/24/24 23/23/23
f 18/18/18 25/25/25 16/16/16
f 16/16/16 25/25/25 22/22/22
f 22/22/22 26/26/26 24/24/24
f 25/25/25 26/26/26 22/22/22
f 26/26/26 27/27/27 24/24/24
f 19/19/19 28/28/28 18/18/18
f 18/18/18 28/28/28 25/25/25
f 20/20/20 29/29/29 19/19/19
f 19/19/19 29/29/29 28/28/28
f 21/21/21 30/30/30 20/20/20
f 20/20/20 30/30/30 29/29/29
f 21/21/21 31/31/31 30/30/30
f 26/26/26 32/32/32 27/27/27
f 32/32/32 33/33/33 27/27/27
f 25/25/25 34/34/34 26/26/26
f 28/28/28 34/34/34 25/25/25
f 34/34/34 32/32/32 26/26/26
f 29/29/29 35/35/35 28/28/28
f 28/28/28 35/35/35 34/34/34
f 30/30/30 36/36/36 29/29/29
f 29/29/29 36/36/36 35/35/35
f 31/31/31 37/37/37 30/30/30
f 30/30/30 37/37/37 36/36/36
f 31/31/31 38/38/38 37/37/37
f 32/32/32 39/39/39 33/33/33
f 39/39/39 40/40/40 33/33/33
f 34/34/34 41/41/41 32/32/32
f 35/35/35 41/41/41 34/34/34
f 41/41/41 39/39/39 32/32/32
f 36/36/36 42/42/42 35/35/35
f 35/35/35 42/42/42 41/41/41
f 37/37/37 43/43/43 36/36/36
f 36/36/36 43/43/43 42/42/42
f 38/38/38 44/44/44 37/37/37
f 37/37/37 44/44/44 43/43/43
f 38/38/38 45/45/45 44/44/44
f 45/45/45 46/46/46 44/44/44
f 44/44/44 46/46/46 47/47/47
f 44/44/44 47/47/47 43/43/43
f 46/46/46 48/48/48 47/47/47
f 39/39/39 49/49/49 40/40/40
f 49/49/49 50/50/50 40/40/40
f 41/41/41 51/51/51 39/39/39
f 42/42/42 51/51/51 41/41/41
f 51/51/51 49/49/49 39/39/39
f 43/43/43 52/52/52 42/42/42
f 43/43/43 47/47/47 52/52/52
f 42/42/42 52/52/52 51/51/51
f 47/47/47 48/48/48 53/53/53
f 47/47/47 53/53/53 52/52/52
f 48/48/48 54/54/54 53/53/53
f 52/52/52 55/55/55 51/51/51
f 51/51/51 55/55/55 49/49/49
f 52/52/52 53/53/53 55/55/55
f 49/49/49 56/56/56 50/50/50
f 55/55/55 56/56/56 49/49/49
f 56/56/56 57/57/57 50/50/50
f 53/53/53 54/54/54 58/58/58
f 53/53/53 58/58/58 55/55/55
f 55/55/55 58/58/58 56/56/56
f 54/54/54 59/59/59 58/58/58
f 56/56/56 60/60/60 57/57/57
f 58/58/58 60/60/60 56/56/56
f 58/58/58 59/59/59 60/60/60
f 60/60/60 61/61/61 57/57/57
f 59/59/59 62/62/62 60/60/60
f 60/60/60 62/62/62 61/61/61
f 62/62/62 63/63/63 61/61/61
