g circle_001
v 0.126807913 0.0285908543 0.00263880333
v -0.0069174557 -0.00714189094 -0.0116316639
v -0.00693542929 -0.00711353449 -0.0116435867
v 0.153854102 -0.014672203 0.00498097576
v -0.00691135135 -0.00716018258 -0.0116179874
v 0.233171105 -0.00628632912 -0.0113121709
v 0.145882159 -0.0633123666 0.0131883845
v -0.00691773416 -0.00716661057 -0.0116038946
v 0.266104907 -0.0852088109 8.19202614E-06
v 0.359903485 0.0123164188 -0.00387111329
v 0.112474166 -0.119910799 0.00973115861
v -0.00693599833 -0.00716053369 -0.0115907555
v 0.38200292 -0.102907367 0.00189286866
v 0.440104723 0.028603483 0.00264384178
v 0.450679451 -0.107897542 -0.00311098341
v 0.218351379 -0.146136791 0.0103879245
v 0.306573689 -0.192633569 0.011831142
v 0.370275348 -0.251339465 0.007076954
v 0.0693943575 -0.151875496 0.00838964526
v -0.00696432777 -0.00714257499 -0.0115798758
v 0.152438462 -0.166151986 0.00940510537
v 0.227641702 -0.310330689 0.0084624039
v 0.288983703 -0.354726732 -0.00748510426
v 0.025453873 -0.141186297 0.00334782572
v -0.00699998438 -0.00711445184 -0.0115723079
v 0.0826671645 -0.243511945 0.00138122542
v 0.134752363 -0.331324577 0.00284307753
v 0.199775428 -0.396335125 0.0120074237
v -0.0140068121 -0.100962862 0.000605927256
v -0.00703944406 -0.00707895262 -0.0115688033
v 0.00755353598 -0.24747692 0.00379523099
v 0.0272736251 -0.374408454 0.0240118131
v 0.0732680112 -0.454182506 0.0147625552
v -0.0461643077 -0.0713676661 0.00212376961
v -0.00707886787 -0.00703951996 -0.0115696872
v -0.0663033053 -0.191515639 0.00485435082
v -0.0930057168 -0.317804277 -0.0122444965
v -0.0765744671 -0.39983803 -0.0151143055
v -0.0724650547 -0.0453229137 0.00585926184
v -0.00711439131 -0.00700006029 -0.0115748905
v -0.130920231 -0.17112495 0.0208021998
v -0.205579862 -0.288261026 0.00804116856
v -0.23666513 -0.35321793 -0.00430693477
v -0.102828488 -0.013271437 0.0083257556
v -0.00714250235 -0.00696442463 -0.0115839001
v -0.171658322 -0.130128115 0.00610358175
v -0.289704651 -0.203743398 0.00675544376
v -0.353218049 -0.236664891 -0.0084342612
v -0.143084154 0.0261697285 0.00166995393
v -0.00716047594 -0.00693608355 -0.011595821
v -0.192379102 -0.0655303001 -0.00197010511
v -0.318964243 -0.0909639001 -0.00422834326
v -0.399837911 -0.0765742138 -0.0107008331
v -0.153010845 0.070129782 -0.000645416148
v -0.00716655608 -0.00691783428 -0.0116094984
v -0.24890767 0.00835505687 -0.00545562478
v -0.377137274 0.0295295659 0.00301450747
v -0.454182655 0.0732682645 0.0205095951
v -0.120093383 0.113315597 0.00355144101
v -0.00716012483 -0.00691146357 -0.0116235856
v -0.243736044 0.0834401697 0.00673091877
v -0.331817567 0.13679412 0.0156191988
v -0.396334976 0.199775636 -0.00422699237
v -0.0635590106 0.146979511 -0.00149246049
v -0.00714184856 -0.00691755861 -0.0116366977
v -0.167045861 0.153230593 -0.000305650319
v -0.31196782 0.229478121 -0.00451687258
v -0.354726344 0.288983792 0.00508010108
v -0.0154243251 0.155719578 -0.00685691601
v -0.00711349491 -0.00693555363 -0.0116475662
v -0.147542 0.21888487 0.00581967132
v -0.193923935 0.308017284 -0.00239867903
v -0.251339138 0.370275468 0.0104006343
v 0.0276286677 0.128705561 -0.00186393771
v -0.00707787462 -0.00696364651 -0.0116551155
v -0.0858114287 0.266968369 0.0150577473
v -0.104550742 0.383162946 0.0174617283
v -0.107897267 0.450679511 0.0207405314
v 0.0679768845 0.104807034 0.00529705733
v -0.00703842705 -0.00699913967 -0.0116586229
v -0.00671641389 0.234601617 0.0177407507
v 0.0110538071 0.362631947 -0.0240693092
v 0.0286037531 0.440104425 -0.00739506027
v 0.0950794891 0.0984364599 0.0138920816
v -0.00699906377 -0.00703851786 -0.0116577316
v 0.0631591007 0.214972213 0.0112492852
v 0.123207331 0.369642854 -0.00711186742
v 0.16845268 0.454182446 0.0156479329
v 0.0982537866 0.0953262523 0.0240693092
v -0.00696358876 -0.00707795937 -0.0116525264
v 0.135816783 0.223857895 0.00980133191
v 0.239297673 0.28594771 0.00755236391
v 0.274309576 0.368766904 0.0151030449
v 0.103671648 0.068729043 0.0167220924
v -0.00693548983 -0.00711358897 -0.0116435243
v 0.126807839 0.0285908878 0.00263886456
v 0.222964078 0.137221843 0.00985425524
v 0.28431052 0.240588129 -0.000381720281
v 0.368766963 0.274309397 -0.00643734029
v 0.214747906 0.0637617558 -0.00165342831
v 0.233171016 -0.0062863077 -0.0113121057
v 0.369149625 0.124850735 -0.00910605956
v 0.454182535 0.168452427 -0.00596763333
v 0.359903425 0.0123164458 -0.00387104903
v 0.440104634 0.0286035221 0.00264390605
vt 0.99999994 0.750000119
vt 0.949999928 1.00000012
vt 0.99999994 1.00000012
vt 0.949999988 0.750000119
vt 0.899999976 1.00000012
vt 1 0.500000119
vt 0.899999976 0.750000119
vt 0.849999964 1.00000012
vt 0.949999988 0.500000119
vt 1 0.250000089
vt 0.849999964 0.750000119
vt 0.799999952 1.00000012
vt 0.949999988 0.250000089
vt 1 8.94069672E-08
vt 0.949999988 8.72213946E-08
vt 0.899999976 0.500000119
vt 0.899999976 0.250000089
vt 0.899999976 8.5035829E-08
vt 0.799999952 0.750000119
vt 0.75 1.00000012
vt 0.849999964 0.500000119
vt 0.849999964 0.250000089
vt 0.850000024 8.28502564E-08
vt 0.75 0.750000119
vt 0.699999928 1.00000012
vt 0.799999952 0.500000119
vt 0.799999952 0.25000006
vt 0.800000012 8.06646909E-08
vt 0.699999928 0.750000119
vt 0.649999976 1.00000012
vt 0.75 0.500000119
vt 0.75 0.25000006
vt 0.75 7.84791183E-08
vt 0.649999976 0.750000119
vt 0.599999905 1.00000012
vt 0.699999928 0.500000119
vt 0.699999988 0.25000006
vt 0.699999988 7.62935528E-08
vt 0.599999905 0.750000119
vt 0.549999952 1.00000012
vt 0.649999976 0.50000006
vt 0.649999976 0.25000006
vt 0.649999976 7.41079802E-08
vt 0.549999952 0.750000119
vt 0.499999881 1.00000012
vt 0.599999905 0.50000006
vt 0.599999964 0.25000006
vt 0.599999964 7.19224147E-08
vt 0.499999881 0.750000119
vt 0.449999869 1.00000012
vt 0.549999952 0.50000006
vt 0.549999952 0.25000006
vt 0.549999952 6.97368421E-08
vt 0.449999869 0.750000119
vt 0.399999857 1.00000012
vt 0.49999994 0.50000006
vt 0.49999994 0.25000006
vt 0.49999994 6.75512695E-08
vt 0.399999857 0.750000119
vt 0.349999845 1.00000012
vt 0.449999928 0.50000006
vt 0.449999928 0.25000006
vt 0.449999928 6.53656969E-08
vt 0.349999845 0.750000119
vt 0.299999833 1
vt 0.399999917 0.50000006
vt 0.399999917 0.25000006
vt 0.399999917 6.31801313E-08
vt 0.299999833 0.75
vt 0.249999821 1
vt 0.349999905 0.50000006
vt 0.349999905 0.25000006
vt 0.349999905 6.09945587E-08
vt 0.249999821 0.75
vt 0.199999809 1
vt 0.299999893 0.50000006
vt 0.299999893 0.25000006
vt 0.299999893 5.88089897E-08
vt 0.199999809 0.75
vt 0.149999797 1
vt 0.249999881 0.50000006
vt 0.249999881 0.25000006
vt 0.249999881 5.66234206E-08
vt 0.149999797 0.75
vt 0.0999997854 1
vt 0.199999869 0.50000006
vt 0.199999869 0.25000006
vt 0.199999869 5.44378516E-08
vt 0.0999997854 0.75
vt 0.0499997735 1
vt 0.149999857 0.50000006
vt 0.149999857 0.25000006
vt 0.149999857 5.22522825E-08
vt 0.0499997735 0.75
vt -1.1920929E-07 1
vt -1.1920929E-07 0.75
vt 0.099999845 0.50000006
vt 0.099999845 0.25000006
vt 0.099999845 5.00667099E-08
vt 0.0499998331 0.50000006
vt -1.1920929E-07 0.50000006
vt 0.0499998331 0.25000006
vt 0.0499998331 4.78811408E-08
vt -1.1920929E-07 0.25000006
vt -1.1920929E-07 4.56955753E-08
vn -0.0260663237 0.0468330234 0.998562634
vn -0.0999431163 0.057978984 0.993302464
vn -0.103328362 -0.0105132246 0.994591773
vn 0.0626009926 0.144486263 0.987524629
vn -0.117711969 0.115408763 0.986318827
vn 0.0984419733 0.152435631 0.983398438
vn -0.0110560926 0.0757847726 0.997062862
vn -0.118141621 0.0624058284 0.991033852
vn 0.0414438844 0.108452931 0.993237317
vn -0.0245143026 0.0382496938 0.998967409
vn -0.0642350614 -0.00219694409 0.997932434
vn -0.0928654671 0.0879092589 0.991790295
vn 0.0233519208 0.0436369963 0.998774469
vn -0.010053183 -0.00126854039 0.99994874
vn 0.0329441614 0.0116859404 0.999388933
vn 0.023100134 0.037113186 0.999044001
vn 0.0379532464 0.0093661705 0.99923563
vn 0.0728813559 -0.0565081611 0.995738506
vn -0.048945073 0.00108556531 0.998800874
vn 0.0185883958 0.115081131 0.993182123
vn -0.027386127 -0.0378042571 0.998909831
vn 0.0244835243 -0.0345916487 0.999101639
vn 0.0646708161 -0.0681458265 0.995577097
vn -0.0293625314 0.0396641903 0.998781502
vn 0.123242632 0.118669145 0.985255718
vn 0.00283541204 0.0168585666 0.999853849
vn 0.0372552574 0.0411392301 0.998458624
vn 0.0723867118 0.0340979546 0.996793568
vn 0.0941465497 0.0650315732 0.993432105
vn 0.18771717 0.0940622464 0.977708876
vn -0.0462049991 0.0342292301 0.998345375
vn -0.112957105 -0.031184325 0.993110418
vn -0.0433196314 -0.0188033581 0.998884261
vn 0.124634162 0.0820996463 0.988800287
vn 0.206112131 0.0914990306 0.974241138
vn 0.0606334992 -0.041946955 0.997278392
vn -0.0334661752 -0.105610505 0.993844271
vn -0.17644164 -0.164475963 0.970472038
vn 0.0765201598 0.0883757025 0.993143678
vn 0.188621938 0.182491064 0.964944959
vn 0.042134095 -0.0139528001 0.999014497
vn -0.0144908866 -0.100174442 0.994864404
vn -0.028090531 -0.119179912 0.992475212
vn 0.0514729545 0.146535888 0.987865269
vn 0.157635123 0.266306758 0.950911105
vn -0.0600680448 0.0720972493 0.995587111
vn -0.118160509 -0.0101151951 0.992942989
vn -0.151711851 -0.0574288517 0.986755073
vn 0.0214629751 0.0396031626 0.998984873
vn 0.0880852789 0.025261974 0.995792508
vn -0.0522050299 0.0333292969 0.998080134
vn -0.0483709723 0.00328729977 0.99882406
vn -0.0391535349 -0.0842857584 0.995672107
vn 0.029356489 -0.0390765965 0.998804927
vn 0.053413339 -0.0753590688 0.995724916
vn 0.0010502697 -0.0512310006 0.998686254
vn 0.0223824307 -0.0749008507 0.996939778
vn 0.0179928318 -0.00858049281 0.999801338
vn 0.036220856 -0.0358794406 0.998699546
vn 0.110568836 -0.0248864256 0.993556798
vn 0.0394081734 -0.0320753269 0.998708248
vn 0.034672644 0.0266529936 0.999043167
vn -0.00552300829 0.0576438308 0.99832195
vn 0.0626715422 -0.0618864223 0.996113539
vn -0.0452286117 -0.0316783004 0.9984743
vn 0.0128937596 0.0173220336 0.999766886
vn 0.0155921727 0.0146334618 0.999771416
vn 0.029648779 -0.0538370945 0.99810946
vn -0.0704974532 -0.153300047 0.985661805
vn -0.168165162 -0.0280213822 0.985360444
vn -0.0522452816 -0.0369934179 0.997948825
vn -0.0579494014 -0.0722974017 0.995698214
vn 0.0178553704 -0.13503255 0.990680277
vn -0.124390632 -0.0962120369 0.98755765
vn -0.243513212 0.0164138488 0.96975863
vn 0.011255512 -0.0146371312 0.999829531
vn 0.0777284577 -0.0682655722 0.994634748
vn 0.124299034 -0.149994195 0.980842233
vn -0.165980235 -0.00957814232 0.986082613
vn -0.552119195 0.35133341 0.756127775
vn -0.0410576314 -0.0278628618 0.998768151
vn 0.0829308257 0.0234385934 0.996279657
vn 0.0283463318 -0.174324945 0.984280109
vn -0.298236251 0.230682448 0.926196933
vn -0.47891286 0.194006115 0.856156647
vn -0.0512463227 0.0405502319 0.997862518
vn -0.100222372 -0.0275970567 0.994582236
vn -0.142838866 -0.139036909 0.979931533
vn -0.153094471 0.0814248323 0.984851301
vn -0.0358323269 -0.304013401 0.951993644
vn -0.00984264445 0.0708954185 0.997435272
vn 0.0138789741 -0.0352575816 0.999281943
vn -0.051413238 -0.110588893 0.992535591
vn 0.0456348993 -0.248328537 0.967600286
vn -0.0109548746 -0.336231291 0.941715777
vn 0.0699708909 -0.229492784 0.970791996
vn 0.0973810405 -0.0372984596 0.994548023
vn 0.0785758719 -0.0471910723 0.995790541
vn 0.0527843535 -0.0539290868 0.997148693
vn 0.100284226 -0.115063742 0.988283098
vn 0.0470933393 -0.0775475875 0.995875776
vn 0.00681814691 0.000193906919 0.999976754
vn -0.0195143539 0.0160005223 0.999681592
vn -0.0298523102 0.0121208187 0.999480903
vn -0.0806012675 0.0620275252 0.994814456
g circle_001_0
f 3/3/3 2/2/2 1/1/1
f 4/4/4 1/1/1 2/2/2
f 2/2/2 5/5/5 4/4/4
f 1/1/1 4/4/4 6/6/6
f 7/7/7 4/4/4 5/5/5
f 5/5/5 8/8/8 7/7/7
f 9/9/9 6/6/6 4/4/4
f 4/4/4 7/7/7 9/9/9
f 6/6/6 9/9/9 10/10/10
f 11/11/11 7/7/7 8/8/8
f 8/8/8 12/12/12 11/11/11
f 13/13/13 10/10/10 9/9/9
f 10/10/10 13/13/13 14/14/14
f 15/15/15 14/14/14 13/13/13
f 16/16/16 9/9/9 7/7/7
f 9/9/9 16/16/16 13/13/13
f 7/7/7 11/11/11 16/16/16
f 13/13/13 17/17/17 15/15/15
f 17/17/17 13/13/13 16/16/16
f 18/18/18 15/15/15 17/17/17
f 19/19/19 11/11/11 12/12/12
f 12/12/12 20/20/20 19/19/19
f 21/21/21 16/16/16 11/11/11
f 16/16/16 21/21/21 17/17/17
f 11/11/11 19/19/19 21/21/21
f 17/17/17 22/22/22 18/18/18
f 22/22/22 17/17/17 21/21/21
f 23/23/23 18/18/18 22/22/22
f 24/24/24 19/19/19 20/20/20
f 20/20/20 25/25/25 24/24/24
f 26/26/26 21/21/21 19/19/19
f 21/21/21 26/26/26 22/22/22
f 19/19/19 24/24/24 26/26/26
f 22/22/22 27/27/27 23/23/23
f 27/27/27 22/22/22 26/26/26
f 28/28/28 23/23/23 27/27/27
f 29/29/29 24/24/24 25/25/25
f 25/25/25 30/30/30 29/29/29
f 31/31/31 26/26/26 24/24/24
f 26/26/26 31/31/31 27/27/27
f 24/24/24 29/29/29 31/31/31
f 27/27/27 32/32/32 28/28/28
f 32/32/32 27/27/27 31/31/31
f 33/33/33 28/28/28 32/32/32
f 34/34/34 29/29/29 30/30/30
f 30/30/30 35/35/35 34/34/34
f 36/36/36 31/31/31 29/29/29
f 31/31/31 36/36/36 32/32/32
f 29/29/29 34/34/34 36/36/36
f 32/32/32 37/37/37 33/33/33
f 37/37/37 32/32/32 36/36/36
f 38/38/38 33/33/33 37/37/37
f 39/39/39 34/34/34 35/35/35
f 35/35/35 40/40/40 39/39/39
f 41/41/41 36/36/36 34/34/34
f 36/36/36 41/41/41 37/37/37
f 34/34/34 39/39/39 41/41/41
f 37/37/37 42/42/42 38/38/38
f 42/42/42 37/37/37 41/41/41
f 43/43/43 38/38/38 42/42/42
f 44/44/44 39/39/39 40/40/40
f 40/40/40 45/45/45 44/44/44
f 46/46/46 41/41/41 39/39/39
f 41/41/41 46/46/46 42/42/42
f 39/39/39 44/44/44 46/46/46
f 42/42/42 47/47/47 43/43/43
f 47/47/47 42/42/42 46/46/46
f 48/48/48 43/43/43 47/47/47
f 49/49/49 44/44/44 45/45/45
f 45/45/45 50/50/50 49/49/49
f 51/51/51 46/46/46 44/44/44
f 46/46/46 51/51/51 47/47/47
f 44/44/44 49/49/49 51/51/51
f 47/47/47 52/52/52 48/48/48
f 52/52/52 47/47/47 51/51/51
f 53/53/53 48/48/48 52/52/52
f 54/54/54 49/49/49 50/50/50
f 50/50/50 55/55/55 54/54/54
f 56/56/56 51/51/51 49/49/49
f 51/51/51 56/56/56 52/52/52
f 49/49/49 54/54/54 56/56/56
f 52/52/52 57/57/57 53/53/53
f 57/57/57 52/52/52 56/56/56
f 58/58/58 53/53/53 57/57/57
f 59/59/59 54/54/54 55/55/55
f 55/55/55 60/60/60 59/59/59
f 61/61/61 56/56/56 54/54/54
f 56/56/56 61/61/61 57/57/57
f 54/54/54 59/59/59 61/61/61
f 57/57/57 62/62/62 58/58/58
f 62/62/62 57/57/57 61/61/61
f 63/63/63 58/58/58 62/62/62
f 64/64/64 59/59/59 60/60/60
f 60/60/60 65/65/65 64/64/64
f 66/66/66 61/61/61 59/59/59
f 61/61/61 66/66/66 62/62/62
f 59/59/59 64/64/64 66/66/66
f 62/62/62 67/67/67 63/63/63
f 67/67/67 62/62/62 66/66/66
f 68/68/68 63/63/63 67/67/67
f 69/69/69 64/64/64 65/65/65
f 65/65/65 70/70/70 69/69/69
f 71/71/71 66/66/66 64/64/64
f 66/66/66 71/71/71 67/67/67
f 64/64/64 69/69/69 71/71/71
f 67/67/67 72/72/72 68/68/68
f 72/72/72 67/67/67 71/71/71
f 73/73/73 68/68/68 72/72/72
f 74/74/74 69/69/69 70/70/70
f 70/70/70 75/75/75 74/74/74
f 76/76/76 71/71/71 69/69/69
f 71/71/71 76/76/76 72/72/72
f 69/69/69 74/74/74 76/76/76
f 72/72/72 77/77/77 73/73/73
f 77/77/77 72/72/72 76/76/76
f 78/78/78 73/73/73 77/77/77
f 79/79/79 74/74/74 75/75/75
f 75/75/75 80/80/80 79/79/79
f 81/81/81 76/76/76 74/74/74
f 76/76/76 81/81/81 77/77/77
f 74/74/74 79/79/79 81/81/81
f 77/77/77 82/82/82 78/78/78
f 82/82/82 77/77/77 81/81/81
f 83/83/83 78/78/78 82/82/82
f 84/84/84 79/79/79 80/80/80
f 80/80/80 85/85/85 84/84/84
f 86/86/86 81/81/81 79/79/79
f 81/81/81 86/86/86 82/82/82
f 79/79/79 84/84/84 86/86/86
f 82/82/82 87/87/87 83/83/83
f 87/87/87 82/82/82 86/86/86
f 88/88/88 83/83/83 87/87/87
f 89/89/89 84/84/84 85/85/85
f 85/85/85 90/90/90 89/89/89
f 91/91/91 86/86/86 84/84/84
f 86/86/86 91/91/91 87/87/87
f 84/84/84 89/89/89 91/91/91
f 87/87/87 92/92/92 88/88/88
f 92/92/92 87/87/87 91/91/91
f 93/93/93 88/88/88 92/92/92
f 94/94/94 89/89/89 90/90/90
f 90/90/90 95/95/95 94/94/94
f 96/96/96 94/94/94 95/95/95
f 97/97/97 91/91/91 89/89/89
f 91/91/91 97/97/97 92/92/92
f 89/89/89 94/94/94 97/97/97
f 92/92/92 98/98/98 93/93/93
f 98/98/98 92/92/92 97/97/97
f 99/99/99 93/93/93 98/98/98
f 94/94/94 96/96/96 100/100/100
f 100/100/100 97/97/97 94/94/94
f 97/97/97 100/100/100 98/98/98
f 101/101/101 100/100/100 96/96/96
f 98/98/98 102/102/102 99/99/99
f 102/102/102 98/98/98 100/100/100
f 100/100/100 101/101/101 102/102/102
f 103/103/103 99/99/99 102/102/102
f 104/104/104 102/102/102 101/101/101
f 102/102/102 104/104/104 103/103/103
f 105/105/105 103/103/103 104/104/104
