g Cylinder001
v 0.227123827 0.847637296 0.00155440567
v 1.93786619E-07 0.877538741 0.227790266
v 1.93786619E-07 0.877538741 -0.00709463051
v 0.227123737 0.847637475 0.257112682
v 0.43876943 0.759970963 0.00188860658
v 9.68933094E-08 0.877538741 0.495244175
v 0.43876943 0.759970963 0.272160113
v 0.620513558 0.620513558 0.000964020321
v 0.227123737 0.847637117 0.533424973
v 9.68933094E-08 0.877538562 0.897621095
v 0.62051338 0.62051338 0.192772776
v 0.759970963 0.43876943 0.00032699827
v 0.438769519 0.759970963 0.547385693
v 0.227123931 0.847637475 0.888876617
v 9.68933094E-08 0.877538741 1.43936396
v 0.759971321 0.438769728 0.165652692
v 0.847637475 0.227123931 5.1784933E-05
v 0.620513678 0.620513678 0.41783312
v 0.438769639 0.759971321 0.83925271
v 0.227123827 0.847637475 1.32917404
v 9.68933094E-08 0.877538562 1.88838935
v 0.227123827 0.847637475 1.72782826
v 0.438769251 0.759970963 1.13740885
v 0.43876943 0.759970725 1.44688237
v 0.847637296 0.227123827 0.184663296
v 0.877538741 -9.68933094E-08 -7.56978979E-10
v 0.759971142 0.438769519 0.340861738
v 0.620513678 0.620513558 0.665112555
v 0.620513678 0.620513678 0.898541272
v 0.620513678 0.620513499 1.11622512
v 0.877538383 -9.68933094E-08 0.221743196
v 0.847637296 -0.227124318 1.05727258E-05
v 0.847637296 0.227123827 0.378922492
v 0.759970963 0.43876943 0.558733284
v 0.759970963 0.43876943 0.740875423
v 0.759970963 0.438769251 0.926652849
v 0.847637117 -0.227124318 0.250410169
v 0.759970546 -0.438769966 4.24044483E-05
v 0.877538562 9.68933094E-08 0.423296243
v 0.847637296 0.227123737 0.575464964
v 0.847637475 0.227123931 0.768086493
v 0.847637475 0.227123931 0.960290611
v 0.759970725 -0.438769907 0.276586354
v 0.620512962 -0.620513976 5.46993033E-06
v 0.847637475 -0.227124259 0.505782664
v 0.877538741 0 0.636962771
v 0.877538741 0 0.842876554
v 0.877538741 0 1.05617201
v 0.620512784 -0.620514035 0.260587543
v 0.438769132 -0.759971023 3.83409861E-06
v 0.759970725 -0.438769877 0.54235214
v 0.847637475 -0.227124363 0.770345867
v 0.847637296 -0.227124363 0.984538615
v 0.847637475 -0.227124318 1.21556938
v 0.438769042 -0.759971023 0.228046089
v 0.227123156 -0.847637475 -0.000747604936
v 0.62051338 -0.620513976 0.49810487
v 0.759970367 -0.438769966 0.864600241
v 0.759970725 -0.438769907 1.08729815
v 0.759970546 -0.438769907 1.29304063
v 0.227123052 -0.847637475 0.177821368
v -3.87573238E-07 -0.877538741 -0.00636041304
v 0.438768953 -0.759971023 0.420759678
v 0.620513082 -0.620514035 0.77014482
v 0.620512962 -0.620513976 0.984283149
v 0.62051326 -0.620513976 1.21517968
v -3.87573238E-07 -0.877538741 0.148700714
v -0.22712402 -0.847637177 -0.000712040928
v 0.227123246 -0.847637475 0.344182879
v 0.438769042 -0.759971023 0.636905909
v 0.438768953 -0.759971023 0.842733622
v 0.438768953 -0.759971023 1.0590241
v -0.22712402 -0.847637177 0.181557223
v -0.438769639 -0.759970725 8.5319858E-05
v -2.90679935E-07 -0.877538741 0.293740183
v 0.22712335 -0.847637475 0.535031319
v 0.227123246 -0.847637475 0.707528412
v 0.227122962 -0.847637475 0.925172687
v -0.43876949 -0.759970665 0.220559061
v -0.620513976 -0.62051332 0.000123889447
v -0.227123976 -0.847637177 0.355252743
v -2.90679935E-07 -0.877538741 0.46203956
v -4.84466568E-07 -0.877538741 0.619051039
v -3.87573238E-07 -0.877538741 0.830360353
v -0.620514035 -0.62051338 0.224980637
v -0.759970963 -0.438768983 0.000151358705
v -0.438769519 -0.759970665 0.449042827
v -0.227123737 -0.847637177 0.557734728
v -0.227123737 -0.847637177 0.742490709
v -0.227123976 -0.847637177 0.976203859
v -0.759971023 -0.438768983 0.227705255
v -0.847637475 -0.22712335 0.00014368596
v -0.620513976 -0.62051332 0.466858089
v -0.438769639 -0.759970725 0.690564811
v -0.438769519 -0.759970725 0.932436764
v -0.438769519 -0.759970725 1.17710483
v -0.847637475 -0.227123484 0.226900995
v -0.877538741 1.93786619E-07 0.000101595666
v -0.759971023 -0.438768893 0.475201428
v -0.620513976 -0.62051332 0.720615327
v -0.620513916 -0.62051332 1.0166682
v -0.620513976 -0.62051332 1.2989043
v -0.877538741 9.68933094E-08 0.222678408
v -0.847637296 0.227123931 0.000111650617
v -0.847637415 -0.22712329 0.472717762
v -0.759971023 -0.438768953 0.745016158
v -0.759971023 -0.438769132 1.07826054
v -0.759971023 -0.438768983 1.38380992
v -0.847637296 0.227123439 0.219249189
v -0.759970725 0.43876943 0.000352776435
v -0.877538741 2.90679935E-07 0.459765136
v -0.847637475 -0.227123395 0.731735826
v -0.847637475 -0.227123439 1.03445971
v -0.847637475 -0.227123484 1.32276285
v -0.759970725 0.438769251 0.224099904
v -0.620513439 0.620514154 0.000971322122
v -0.847637296 0.227124125 0.447171986
v -0.877538741 2.90679935E-07 0.705997348
v -0.877538741 2.90679935E-07 0.956002295
v -0.877538741 1.93786619E-07 1.20408487
v -0.620513439 0.620513678 0.2427582
v -0.43876937 0.759970546 0.00188966701
v -0.759970725 0.43876943 0.453015029
v -0.847637296 0.227124318 0.67958349
v -0.847637296 0.22712402 0.876273274
v -0.847637296 0.227123737 1.08333135
v -0.438769341 0.759970546 0.272290498
v -0.227123678 0.847637117 0.00155443361
v -0.62051332 0.620513976 0.489971012
v -0.759970784 0.43876943 0.676367819
v -0.759970725 0.43876943 0.845368564
v -0.759970725 0.438769639 1.03681612
v -0.227123737 0.847637296 0.25711593
v 1.93786619E-07 0.877538741 -0.00709463051
v 1.93786619E-07 0.877538741 0.227790266
v -0.438769341 0.759970963 0.547792912
v -0.62051338 0.620513856 0.741306126
v -0.62051338 0.620514154 0.955855787
v -0.62051338 0.620514035 1.18580258
v -0.227123782 0.847636938 0.533435822
v 9.68933094E-08 0.877538741 0.495244175
v -0.438769251 0.759970963 0.840040743
v -0.438769341 0.759970963 1.13859105
v -0.438769341 0.759970725 1.44738853
v -0.227123588 0.847637296 0.888900578
v 9.68933094E-08 0.877538562 0.897621095
v -0.227123633 0.847637117 1.32921553
v -0.227123782 0.847637475 1.72788346
v 9.68933094E-08 0.877538741 1.43936396
v 9.68933094E-08 0.877538562 1.88838935
vt 0.958333313 0.192444146
vt 0.99999994 0.31445086
vt 0.99999994 0.179486871
vt 0.958333313 0.327408135
vt 0.916666687 0.200689584
vt 0.99999994 0.449414879
vt 0.916666687 0.335653692
vt 0.875 0.203045502
vt 0.958333313 0.462372124
vt 0.99999994 0.584379077
vt 0.875 0.338009536
vt 0.833333313 0.195977911
vt 0.916666687 0.470617652
vt 0.958333313 0.597336173
vt 0.99999994 0.719342947
vt 0.833333313 0.330941945
vt 0.791666627 0.179486871
vt 0.875 0.472973526
vt 0.916666687 0.60558176
vt 0.958333313 0.732300282
vt 0.99999994 0.854306936
vt 0.958333313 0.86726439
vt 0.916666687 0.74054575
vt 0.916666687 0.875509858
vt 0.791666627 0.31445086
vt 0.75 0.160639852
vt 0.833333313 0.465905935
vt 0.875 0.607937694
vt 0.875 0.742901683
vt 0.875 0.877865672
vt 0.75 0.295603901
vt 0.708333254 0.144148812
vt 0.791666627 0.449414879
vt 0.833333313 0.600870013
vt 0.833333313 0.735834122
vt 0.833333313 0.870798111
vt 0.708333254 0.279112786
vt 0.666666567 0.128835648
vt 0.75 0.43056798
vt 0.791666627 0.584379077
vt 0.791666627 0.719342947
vt 0.791666627 0.854306936
vt 0.666666567 0.263799697
vt 0.62499994 0.119412132
vt 0.708333254 0.414076835
vt 0.75 0.565531969
vt 0.75 0.700496078
vt 0.75 0.835460067
vt 0.62499994 0.254376203
vt 0.583333254 0.114700407
vt 0.666666567 0.398763746
vt 0.708333254 0.549041033
vt 0.708333254 0.684004903
vt 0.708333254 0.818969011
vt 0.583333254 0.249664471
vt 0.541666567 0.114700407
vt 0.62499994 0.389340252
vt 0.666666567 0.533727884
vt 0.666666567 0.668691754
vt 0.666666567 0.803655863
vt 0.541666567 0.249664471
vt 0.499999911 0.119412132
vt 0.583333254 0.384628505
vt 0.62499994 0.52430439
vt 0.62499994 0.65926826
vt 0.62499994 0.794232368
vt 0.499999911 0.254376203
vt 0.458333254 0.128835648
vt 0.541666567 0.384628505
vt 0.583333254 0.519592643
vt 0.583333254 0.654556632
vt 0.583333254 0.789520741
vt 0.458333254 0.263799697
vt 0.416666657 0.146504611
vt 0.499999911 0.389340252
vt 0.541666567 0.519592643
vt 0.541666567 0.654556632
vt 0.541666567 0.789520741
vt 0.416666657 0.281468779
vt 0.374999911 0.164173678
vt 0.458333254 0.398763746
vt 0.499999911 0.52430439
vt 0.499999911 0.65926826
vt 0.499999911 0.794232368
vt 0.374999911 0.299137771
vt 0.333333254 0.179486871
vt 0.416666657 0.416432738
vt 0.458333254 0.533727884
vt 0.458333254 0.668691754
vt 0.458333254 0.803655863
vt 0.333333254 0.31445086
vt 0.291666597 0.193078369
vt 0.374999911 0.43410176
vt 0.416666657 0.551396847
vt 0.416666657 0.686360717
vt 0.416666657 0.821324944
vt 0.291666597 0.328042358
vt 0.24999994 0.203045502
vt 0.333333254 0.449414879
vt 0.374999911 0.569065809
vt 0.374999911 0.704029799
vt 0.374999911 0.838993907
vt 0.24999994 0.338009536
vt 0.208333299 0.209388211
vt 0.291666597 0.463006407
vt 0.333333254 0.584379077
vt 0.333333254 0.719342947
vt 0.333333254 0.854306936
vt 0.208333299 0.344352305
vt 0.166666627 0.212106481
vt 0.24999994 0.472973526
vt 0.291666597 0.597970486
vt 0.291666597 0.732934475
vt 0.291666597 0.867898583
vt 0.166666627 0.347070634
vt 0.12499997 0.210294351
vt 0.208333299 0.479316354
vt 0.24999994 0.607937694
vt 0.24999994 0.742901683
vt 0.24999994 0.877865672
vt 0.12499997 0.345258325
vt 0.0833333135 0.203045502
vt 0.166666627 0.482034624
vt 0.208333299 0.614280343
vt 0.208333299 0.749244452
vt 0.208333299 0.88420856
vt 0.0833333135 0.338009536
vt 0.0416666567 0.193078369
vt 0.12499997 0.480222434
vt 0.166666627 0.616998672
vt 0.166666627 0.751962781
vt 0.166666627 0.88692677
vt 0.0416666567 0.328042358
vt -5.96046448E-08 0.179486871
vt -5.96046448E-08 0.31445086
vt 0.0833333135 0.472973526
vt 0.12499997 0.615186453
vt 0.12499997 0.750150561
vt 0.12499997 0.885114551
vt 0.0416666567 0.463006407
vt -5.96046448E-08 0.449414879
vt 0.0833333135 0.607937694
vt 0.0833333135 0.742901683
vt 0.0833333135 0.877865672
vt 0.0416666567 0.597970486
vt -5.96046448E-08 0.584379077
vt 0.0416666567 0.732934475
vt 0.0416666567 0.867898583
vt -5.96046448E-08 0.719342947
vt -5.96046448E-08 0.854306936
vn 0.257250071 0.966344893 -4.53602752E-07
vn -3.4086824E-07 1 0
vn -0 1 0
vn 0.258818954 0.965925813 2.62736535E-07
vn 0.50009352 0.865971446 0
vn -4.43726776E-07 1 0
vn 0.500000536 0.86602515 0
vn 0.707309067 0.706904411 1.03140394E-06
vn 0.258818716 0.965925813 0
vn -3.63592733E-07 1 0
vn 0.707106233 0.707107306 -3.22626789E-07
vn 0.86610806 0.4998568 -1.93591154E-06
vn 0.499999255 0.866025805 -9.40607322E-07
vn 0.258817673 0.96592617 -6.16454884E-07
vn -4.32962509E-07 1 0
vn 0.866024971 0.500000775 -7.64923413E-07
vn 0.965941489 0.258760244 3.43298836E-07
vn 0.707106113 0.707107365 -6.90983768E-07
vn 0.500000715 0.866024971 3.16601216E-07
vn 0.258818954 0.965925813 0
vn -1.1011226E-05 1 3.04639883E-07
vn 0.191898778 0.981414735 0
vn 0.500000775 0.866024971 7.94875916E-07
vn 0.42972815 0.902958393 3.46076632E-07
vn 0.96592629 0.258817434 8.28188206E-07
vn 1 -8.0475811E-06 1.61178968E-06
vn 0.866025805 0.499999434 1.0511161E-06
vn 0.707107425 0.707106113 0
vn 0.70710659 0.707106948 0
vn 0.660617113 0.750723004 7.02940383E-07
vn 1 -3.13359465E-07 3.64232221E-07
vn 0.96592772 -0.258811742 9.84513804E-07
vn 0.965926051 0.258818001 0
vn 0.866025627 0.499999702 4.46439032E-07
vn 0.866025448 0.5 0
vn 0.856860518 0.51554817 4.62396827E-07
vn 0.965925932 -0.258818567 -4.56904644E-07
vn 0.866024435 -0.500001729 0
vn 1 4.09041832E-07 -9.1156403E-07
vn 0.965925932 0.258818716 -4.94575715E-07
vn 0.965925813 0.258819073 -4.49674388E-07
vn 0.971157074 0.238440797 0
vn 0.866024792 -0.500001132 -2.72463325E-07
vn 0.707101166 -0.707112372 0
vn 0.965925813 -0.258818775 -6.21852394E-07
vn 1 4.21002142E-07 -4.87111151E-07
vn 1 0 0
vn 0.999223471 -0.0394008644 0
vn 0.707106054 -0.707107425 -3.56275024E-07
vn 0.499880672 -0.866094291 0
vn 0.866024792 -0.500001073 0
vn 0.965925634 -0.25881964 5.05464016E-07
vn 0.965925694 -0.258819491 0
vn 0.953915596 -0.300074846 -2.81701233E-07
vn 0.499999762 -0.866025627 0
vn 0.257701516 -0.966224551 0
vn 0.707106292 -0.707107186 -3.13414688E-07
vn 0.866024792 -0.500001013 0
vn 0.866024613 -0.500001371 0
vn 0.866065025 -0.499931455 3.88559272E-07
vn 0.258818477 -0.965925932 0
vn 6.01929469E-06 -1 0
vn 0.499999404 -0.866025805 0
vn 0.707106173 -0.707107365 3.57768585E-07
vn 0.707106054 -0.707107544 0
vn 0.73646754 -0.676472902 -7.99442034E-07
vn -6.00406509E-07 -1 0
vn -0.257688135 -0.966228247 0
vn 0.258818746 -0.965925813 0
vn 0.499999791 -0.866025507 0
vn 0.499999791 -0.866025507 0
vn 0.539442539 -0.842022419 0
vn -0.25881955 -0.965925634 0
vn -0.499867946 -0.866101623 4.1667073E-07
vn -5.66917663E-07 -1 0
vn 0.258818656 -0.965925932 0
vn 0.258818507 -0.965925932 0
vn 0.294354051 -0.955696404 3.42638913E-07
vn -0.499999911 -0.866025507 0
vn -0.707098544 -0.707114995 0
vn -0.25881955 -0.965925634 0
vn -6.36287382E-07 -1 0
vn -8.20475748E-07 -1 0
vn -0.00560291717 -0.999984384 0
vn -0.707107008 -0.707106531 0
vn -0.866023898 -0.500002623 -2.65244722E-07
vn -0.499999851 -0.866025507 0
vn -0.258819312 -0.965925694 0
vn -0.258819222 -0.965925694 0
vn -0.308083355 -0.951359332 0
vn -0.866025686 -0.499999493 0
vn -0.965928257 -0.258810103 0
vn -0.707107186 -0.707106292 0
vn -0.499999911 -0.866025507 0
vn -0.5 -0.866025448 0
vn -0.546532631 -0.837437809 0
vn -0.965925813 -0.258818895 0
vn -1 6.2676454E-06 0
vn -0.866025805 -0.499999404 0
vn -0.707107306 -0.707106233 0
vn -0.707107008 -0.707106471 0
vn -0.732717097 -0.68053335 0
vn -1 3.64788832E-07 0
vn -0.965937614 0.258775264 5.1614694E-07
vn -0.965925813 -0.258818805 0
vn -0.866025686 -0.499999583 0
vn -0.866025627 -0.499999762 0
vn -0.868477643 -0.495728433 0
vn -0.965925813 0.258819103 0
vn -0.866104305 0.499863476 5.60382205E-07
vn -1 2.54754156E-07 0
vn -0.965925813 -0.258818895 0
vn -0.965925813 -0.258818716 0
vn -0.956792355 -0.290772349 0
vn -0.866025507 0.499999851 0
vn -0.707304895 0.706908584 1.25030112E-06
vn -0.965925694 0.258819491 -3.80803471E-07
vn -1 3.31299987E-07 0
vn -1 4.13825944E-07 0
vn -0.99918288 -0.0404177718 0
vn -0.707106471 0.707107008 0
vn -0.500091553 0.865972519 4.7855309E-07
vn -0.866025269 0.500000358 -3.17625137E-07
vn -0.965925634 0.258819669 0
vn -0.965925634 0.25881955 3.32677644E-07
vn -0.972404957 0.233299345 0
vn -0.500000119 0.866025329 -6.47477918E-07
vn -0.257250816 0.966344655 -5.50919253E-07
vn -0.70710659 0.707106948 -3.3637059E-07
vn -0.866025269 0.500000358 0
vn -0.866025448 0.50000006 0
vn -0.859635532 0.510907769 -3.19213171E-07
vn -0.258819342 0.965925694 0
vn -0 1 0
vn -3.4086824E-07 1 0
vn -0.499999225 0.866025865 0
vn -0.707106709 0.707106829 0
vn -0.707106531 0.707107008 -3.51188788E-07
vn -0.667182326 0.744894445 3.54662973E-07
vn -0.258818984 0.965925813 0
vn -4.43726776E-07 1 0
vn -0.499999166 0.866025865 -3.02153722E-07
vn -0.499999136 0.866025865 2.84290905E-07
vn -0.436495066 0.899706602 0
vn -0.258818567 0.965925932 0
vn -3.63592733E-07 1 0
vn -0.258818984 0.965925813 -2.58808569E-07
vn -0.191956341 0.98140347 -2.59246747E-07
vn -4.32962509E-07 1 0
vn -1.1011226E-05 1 3.04639883E-07
g Cylinder001_0
f 3/3/3 2/2/2 1/1/1
f 2/2/2 4/4/4 1/1/1
f 1/1/1 4/4/4 5/5/5
f 2/2/2 6/6/6 4/4/4
f 4/4/4 7/7/7 5/5/5
f 5/5/5 7/7/7 8/8/8
f 6/6/6 9/9/9 4/4/4
f 4/4/4 9/9/9 7/7/7
f 6/6/6 10/10/10 9/9/9
f 7/7/7 11/11/11 8/8/8
f 8/8/8 11/11/11 12/12/12
f 9/9/9 13/13/13 7/7/7
f 7/7/7 13/13/13 11/11/11
f 10/10/10 14/14/14 9/9/9
f 9/9/9 14/14/14 13/13/13
f 10/10/10 15/15/15 14/14/14
f 11/11/11 16/16/16 12/12/12
f 12/12/12 16/16/16 17/17/17
f 13/13/13 18/18/18 11/11/11
f 11/11/11 18/18/18 16/16/16
f 14/14/14 19/19/19 13/13/13
f 13/13/13 19/19/19 18/18/18
f 15/15/15 20/20/20 14/14/14
f 14/14/14 20/20/20 19/19/19
f 15/15/15 21/21/21 20/20/20
f 21/21/21 22/22/22 20/20/20
f 20/20/20 22/22/22 23/23/23
f 20/20/20 23/23/23 19/19/19
f 22/22/22 24/24/24 23/23/23
f 16/16/16 25/25/25 17/17/17
f 17/17/17 25/25/25 26/26/26
f 18/18/18 27/27/27 16/16/16
f 16/16/16 27/27/27 25/25/25
f 19/19/19 28/28/28 18/18/18
f 19/19/19 23/23/23 28/28/28
f 18/18/18 28/28/28 27/27/27
f 23/23/23 24/24/24 29/29/29
f 23/23/23 29/29/29 28/28/28
f 24/24/24 30/30/30 29/29/29
f 25/25/25 31/31/31 26/26/26
f 26/26/26 31/31/31 32/32/32
f 27/27/27 33/33/33 25/25/25
f 25/25/25 33/33/33 31/31/31
f 28/28/28 34/34/34 27/27/27
f 28/28/28 29/29/29 34/34/34
f 27/27/27 34/34/34 33/33/33
f 29/29/29 30/30/30 35/35/35
f 29/29/29 35/35/35 34/34/34
f 30/30/30 36/36/36 35/35/35
f 31/31/31 37/37/37 32/32/32
f 32/32/32 37/37/37 38/38/38
f 33/33/33 39/39/39 31/31/31
f 31/31/31 39/39/39 37/37/37
f 34/34/34 40/40/40 33/33/33
f 34/34/34 35/35/35 40/40/40
f 33/33/33 40/40/40 39/39/39
f 35/35/35 36/36/36 41/41/41
f 35/35/35 41/41/41 40/40/40
f 36/36/36 42/42/42 41/41/41
f 37/37/37 43/43/43 38/38/38
f 38/38/38 43/43/43 44/44/44
f 39/39/39 45/45/45 37/37/37
f 37/37/37 45/45/45 43/43/43
f 40/40/40 46/46/46 39/39/39
f 40/40/40 41/41/41 46/46/46
f 39/39/39 46/46/46 45/45/45
f 41/41/41 42/42/42 47/47/47
f 41/41/41 47/47/47 46/46/46
f 42/42/42 48/48/48 47/47/47
f 43/43/43 49/49/49 44/44/44
f 44/44/44 49/49/49 50/50/50
f 45/45/45 51/51/51 43/43/43
f 43/43/43 51/51/51 49/49/49
f 46/46/46 52/52/52 45/45/45
f 46/46/46 47/47/47 52/52/52
f 45/45/45 52/52/52 51/51/51
f 47/47/47 48/48/48 53/53/53
f 47/47/47 53/53/53 52/52/52
f 48/48/48 54/54/54 53/53/53
f 49/49/49 55/55/55 50/50/50
f 50/50/50 55/55/55 56/56/56
f 51/51/51 57/57/57 49/49/49
f 49/49/49 57/57/57 55/55/55
f 52/52/52 58/58/58 51/51/51
f 52/52/52 53/53/53 58/58/58
f 51/51/51 58/58/58 57/57/57
f 53/53/53 54/54/54 59/59/59
f 53/53/53 59/59/59 58/58/58
f 54/54/54 60/60/60 59/59/59
f 55/55/55 61/61/61 56/56/56
f 56/56/56 61/61/61 62/62/62
f 57/57/57 63/63/63 55/55/55
f 55/55/55 63/63/63 61/61/61
f 58/58/58 64/64/64 57/57/57
f 58/58/58 59/59/59 64/64/64
f 57/57/57 64/64/64 63/63/63
f 59/59/59 60/60/60 65/65/65
f 59/59/59 65/65/65 64/64/64
f 60/60/60 66/66/66 65/65/65
f 61/61/61 67/67/67 62/62/62
f 62/62/62 67/67/67 68/68/68
f 63/63/63 69/69/69 61/61/61
f 61/61/61 69/69/69 67/67/67
f 64/64/64 70/70/70 63/63/63
f 64/64/64 65/65/65 70/70/70
f 63/63/63 70/70/70 69/69/69
f 65/65/65 66/66/66 71/71/71
f 65/65/65 71/71/71 70/70/70
f 66/66/66 72/72/72 71/71/71
f 67/67/67 73/73/73 68/68/68
f 68/68/68 73/73/73 74/74/74
f 69/69/69 75/75/75 67/67/67
f 67/67/67 75/75/75 73/73/73
f 70/70/70 76/76/76 69/69/69
f 70/70/70 71/71/71 76/76/76
f 69/69/69 76/76/76 75/75/75
f 71/71/71 72/72/72 77/77/77
f 71/71/71 77/77/77 76/76/76
f 72/72/72 78/78/78 77/77/77
f 73/73/73 79/79/79 74/74/74
f 74/74/74 79/79/79 80/80/80
f 75/75/75 81/81/81 73/73/73
f 73/73/73 81/81/81 79/79/79
f 76/76/76 82/82/82 75/75/75
f 76/76/76 77/77/77 82/82/82
f 75/75/75 82/82/82 81/81/81
f 77/77/77 78/78/78 83/83/83
f 77/77/77 83/83/83 82/82/82
f 78/78/78 84/84/84 83/83/83
f 79/79/79 85/85/85 80/80/80
f 80/80/80 85/85/85 86/86/86
f 81/81/81 87/87/87 79/79/79
f 79/79/79 87/87/87 85/85/85
f 82/82/82 88/88/88 81/81/81
f 82/82/82 83/83/83 88/88/88
f 81/81/81 88/88/88 87/87/87
f 83/83/83 84/84/84 89/89/89
f 83/83/83 89/89/89 88/88/88
f 84/84/84 90/90/90 89/89/89
f 85/85/85 91/91/91 86/86/86
f 86/86/86 91/91/91 92/92/92
f 87/87/87 93/93/93 85/85/85
f 85/85/85 93/93/93 91/91/91
f 88/88/88 94/94/94 87/87/87
f 88/88/88 89/89/89 94/94/94
f 87/87/87 94/94/94 93/93/93
f 89/89/89 90/90/90 95/95/95
f 89/89/89 95/95/95 94/94/94
f 90/90/90 96/96/96 95/95/95
f 91/91/91 97/97/97 92/92/92
f 92/92/92 97/97/97 98/98/98
f 93/93/93 99/99/99 91/91/91
f 91/91/91 99/99/99 97/97/97
f 94/94/94 100/100/100 93/93/93
f 94/94/94 95/95/95 100/100/100
f 93/93/93 100/100/100 99/99/99
f 95/95/95 96/96/96 101/101/101
f 95/95/95 101/101/101 100/100/100
f 96/96/96 102/102/102 101/101/101
f 97/97/97 103/103/103 98/98/98
f 98/98/98 103/103/103 104/104/104
f 99/99/99 105/105/105 97/97/97
f 97/97/97 105/105/105 103/103/103
f 100/100/100 106/106/106 99/99/99
f 100/100/100 101/101/101 106/106/106
f 99/99/99 106/106/106 105/105/105
f 101/101/101 102/102/102 107/107/107
f 101/101/101 107/107/107 106/106/106
f 102/102/102 108/108/108 107/107/107
f 103/103/103 109/109/109 104/104/104
f 104/104/104 109/109/109 110/110/110
f 105/105/105 111/111/111 103/103/103
f 103/103/103 111/111/111 109/109/109
f 106/106/106 112/112/112 105/105/105
f 106/106/106 107/107/107 112/112/112
f 105/105/105 112/112/112 111/111/111
f 107/107/107 108/108/108 113/113/113
f 107/107/107 113/113/113 112/112/112
f 108/108/108 114/114/114 113/113/113
f 109/109/109 115/115/115 110/110/110
f 110/110/110 115/115/115 116/116/116
f 111/111/111 117/117/117 109/109/109
f 109/109/109 117/117/117 115/115/115
f 112/112/112 118/118/118 111/111/111
f 112/112/112 113/113/113 118/118/118
f 111/111/111 118/118/118 117/117/117
f 113/113/113 114/114/114 119/119/119
f 113/113/113 119/119/119 118/118/118
f 114/114/114 120/120/120 119/119/119
f 115/115/115 121/121/121 116/116/116
f 116/116/116 121/121/121 122/122/122
f 117/117/117 123/123/123 115/115/115
f 115/115/115 123/123/123 121/121/121
f 118/118/118 124/124/124 117/117/117
f 118/118/118 119/119/119 124/124/124
f 117/117/117 124/124/124 123/123/123
f 119/119/119 120/120/120 125/125/125
f 119/119/119 125/125/125 124/124/124
f 120/120/120 126/126/126 125/125/125
f 121/121/121 127/127/127 122/122/122
f 122/122/122 127/127/127 128/128/128
f 123/123/123 129/129/129 121/121/121
f 121/121/121 129/129/129 127/127/127
f 124/124/124 130/130/130 123/123/123
f 124/124/124 125/125/125 130/130/130
f 123/123/123 130/130/130 129/129/129
f 125/125/125 126/126/126 131/131/131
f 125/125/125 131/131/131 130/130/130
f 126/126/126 132/132/132 131/131/131
f 127/127/127 133/133/133 128/128/128
f 128/128/128 133/133/133 134/134/134
f 133/133/133 135/135/135 134/134/134
f 129/129/129 136/136/136 127/127/127
f 127/127/127 136/136/136 133/133/133
f 130/130/130 137/137/137 129/129/129
f 130/130/130 131/131/131 137/137/137
f 129/129/129 137/137/137 136/136/136
f 131/131/131 132/132/132 138/138/138
f 131/131/131 138/138/138 137/137/137
f 132/132/132 139/139/139 138/138/138
f 133/133/133 140/140/140 135/135/135
f 136/136/136 140/140/140 133/133/133
f 140/140/140 141/141/141 135/135/135
f 137/137/137 142/142/142 136/136/136
f 137/137/137 138/138/138 142/142/142
f 136/136/136 142/142/142 140/140/140
f 138/138/138 139/139/139 143/143/143
f 138/138/138 143/143/143 142/142/142
f 139/139/139 144/144/144 143/143/143
f 140/140/140 145/145/145 141/141/141
f 142/142/142 145/145/145 140/140/140
f 142/142/142 143/143/143 145/145/145
f 145/145/145 146/146/146 141/141/141
f 143/143/143 144/144/144 147/147/147
f 143/143/143 147/147/147 145/145/145
f 145/145/145 147/147/147 146/146/146
f 144/144/144 148/148/148 147/147/147
f 147/147/147 149/149/149 146/146/146
f 147/147/147 148/148/148 149/149/149
f 148/148/148 150/150/150 149/149/149
