g 柱体
v 0.636753619 -0.636753738 0
v 0.543471992 -0.652827263 0
v 0.601577103 -0.601577163 0
v 0.572088182 -0.694266796 0
v 0.671930134 -0.671930313 0
v 0.479148269 -0.696660995 0
v 0.600704253 -0.735706329 0
v 0.707106709 -0.707106829 0
v 0.629320383 -0.777145922 0
v 0.50097847 -0.743997455 0
v 0.522808671 -0.791334033 0
v 0.409311056 -0.732597649 0
v 0.544638872 -0.838670552 0
v 0.424204201 -0.785400629 0
v 0.334724993 -0.760243833 0
v 0.439097345 -0.838203549 0
v 0.453990459 -0.89100647 0
v 0.342605978 -0.818022668 0
v 0.256207824 -0.779296637 0
v 0.350486934 -0.875801504 0
v 0.35836792 -0.933580458 0
v 0.25707823 -0.841506302 0
v 0.174619421 -0.789547324 0
v 0.257948607 -0.903716028 0
v 0.168557718 -0.855594337 0
v 0.0908539146 -0.790883482 0
v 0.16249603 -0.92164135 0
v 0.258819014 -0.965925753 0
v 0.156434327 -0.987688363 0
v 0.0780145973 -0.860132098 0
v 0.00582878105 -0.783290386 0
v 0.0651752874 -0.929380774 0
v 0.0523359664 -0.99862951 0
v -0.0135594942 -0.855070114 0
v -0.0795242265 -0.766851485 0
v -0.0329477675 -0.926849782 0
v -0.0523360446 -0.998629451 0
v -0.105161041 -0.840463758 0
v -0.164269865 -0.741746724 0
v -0.130797863 -0.91407603 0
v -0.15643467 -0.987688243 0
v -0.195786297 -0.816473067 0
v -0.247479647 -0.708251178 0
v -0.22730273 -0.89119941 0
v -0.258819163 -0.965925753 0
v -0.284442425 -0.783360958 0
v -0.328242183 -0.666731834 0
v -0.370158255 -0.741490066 0
v -0.321405172 -0.858470738 0
v -0.35836795 -0.933580458 0
v -0.412074357 -0.816248298 0
v -0.4539904 -0.891006529 0
v -0.451994568 -0.691319346 0
v -0.498316705 -0.764994919 0
v -0.4539904 -0.891006529 0
v -0.544638813 -0.838670611 0
v -0.412074357 -0.816248298 0
v -0.370158255 -0.741490066 0
v -0.405672491 -0.617643714 0
v -0.328242183 -0.666731834 0
v -0.451994568 -0.691319346 0
v -0.478922427 -0.561524212 0
v -0.529055059 -0.633398056 0
v -0.498316705 -0.764994919 0
v -0.579187751 -0.705271959 0
v -0.544638813 -0.838670611 0
v -0.600494862 -0.568361342 0
v -0.629320502 -0.777145803 0
v -0.653800786 -0.637734056 0
v -0.707106769 -0.707106769 0
v -0.529055059 -0.633398056 0
v -0.547188938 -0.498988628 0
v -0.478922427 -0.561524212 0
v 0.35836792 -0.933580458 0
v 0.258819014 -0.965925753 0
v 0.257948607 -0.903716028 0
v 0.600704253 -0.735706329 0
v 0.522808671 -0.791334033 0
v 0.50097847 -0.743997455 0
v 0.572088182 -0.694266796 0
vt 0.999962687 0.333537877
vt 0.933357716 0.000387191772
vt 0.999962687 0.000387191772
vt 0.933357716 0.333537757
vt 0.999962687 0.666688561
vt 0.866752625 0.000387191772
vt 0.933357716 0.666688561
vt 0.999962687 0.999839246
vt 0.933357716 0.999839246
vt 0.866752625 0.333537757
vt 0.866752386 0.666688561
vt 0.800147533 0.000387191772
vt 0.866752625 0.999839246
vt 0.800147653 0.333537757
vt 0.733542442 0.000387191772
vt 0.800147355 0.666688681
vt 0.800147533 0.999839246
vt 0.733542442 0.333537757
vt 0.66693747 0.000387191772
vt 0.733542442 0.666688561
vt 0.733542442 0.999839246
vt 0.66693747 0.333537757
vt 0.600332379 0.000387191772
vt 0.666937351 0.666688561
vt 0.60033226 0.333537877
vt 0.533727229 0.000387191772
vt 0.600332379 0.666688561
vt 0.66693747 0.999839246
vt 0.600332379 0.999839246
vt 0.533727109 0.333537877
vt 0.467122197 0.000387191772
vt 0.533727109 0.666688561
vt 0.533727229 0.999839246
vt 0.467122316 0.333537638
vt 0.400517136 0.000387191772
vt 0.467122078 0.666688681
vt 0.467122197 0.999839246
vt 0.400516987 0.333537996
vt 0.333912104 0.000387191772
vt 0.400517136 0.666688442
vt 0.400517136 0.999839246
vt 0.333912104 0.333537877
vt 0.267306983 0.000387191772
vt 0.333911985 0.666688681
vt 0.333912104 0.999839246
vt 0.267306864 0.333537996
vt 0.200701892 0.000387191772
vt 0.200701803 0.333537996
vt 0.267306864 0.666688561
vt 0.267306983 0.999839246
vt 0.200701892 0.666688561
vt 0.200701892 0.999839246
vt 0.134096771 0.333537996
vt 0.134096622 0.666688681
vt 0.200701892 0.999839246
vt 0.134096891 0.999839246
vt 0.200701892 0.666688561
vt 0.200701803 0.333537996
vt 0.134096891 0.000387191772
vt 0.200701892 0.000387191772
vt 0.134096771 0.333537996
vt 0.0674917996 0.000387191772
vt 0.0674917996 0.333537996
vt 0.134096622 0.666688681
vt 0.0674919188 0.666688442
vt 0.134096891 0.999839246
vt 0.000886648893 0.333537996
vt 0.0674917996 0.999839246
vt 0.000886648893 0.666688561
vt 0.000886768103 0.999839246
vt 0.0674917996 0.333537996
vt 0.000886768103 0.000387191772
vt 0.0674917996 0.000387191772
vt 0.733542442 0.999839246
vt 0.66693747 0.999839246
vt 0.666937351 0.666688561
vt 0.933357716 0.666688561
vt 0.866752386 0.666688561
vt 0.866752625 0.333537757
vt 0.933357716 0.333537757
vn -0 0 1
vn -0 0 1
vn -0 0 1
vn -0 0 1
vn -0 0 1
vn -0 0 1
vn -0 0 1
vn -0 0 1
vn -0 0 1
vn -0 0 1
vn -0 0 1
vn -0 0 1
vn -0 0 1
vn -0 0 1
vn -0 0 1
vn -0 0 1
vn -0 0 1
vn -0 0 1
vn -0 0 1
vn -0 0 1
vn -0 0 1
vn -0 0 1
vn -0 0 1
vn -0 0 1
vn -0 0 1
vn -0 0 1
vn -0 0 1
vn -0 0 1
vn -0 0 1
vn -0 0 1
vn -0 0 1
vn -0 0 1
vn -0 0 1
vn -0 0 1
vn -0 0 1
vn -0 0 1
vn -0 0 1
vn -0 0 1
vn -0 0 1
vn -0 0 1
vn -0 0 1
vn -0 0 1
vn -0 0 1
vn -0 0 1
vn -0 0 1
vn -0 0 1
vn -0 0 1
vn -0 0 1
vn -0 0 1
vn -0 0 1
vn -0 0 1
vn -0 0 1
vn -0 0 1
vn -0 0 1
vn -0 0 1
vn -0 0 1
vn -0 0 1
vn -0 0 1
vn -0 0 1
vn -0 0 1
vn -0 0 1
vn -0 0 1
vn -0 0 1
vn -0 0 1
vn -0 0 1
vn -0 0 1
vn -0 0 1
vn -0 0 1
vn -0 0 1
vn -0 0 1
vn -0 0 1
vn -0 0 1
vn -0 0 1
vn -0 0 1
vn -0 0 1
vn -0 0 1
vn -0 0 1
vn -0 0 1
vn -0 0 1
vn -0 0 1
g 柱体_0
f 3/3/3 2/2/2 1/1/1
f 2/2/2 4/4/4 1/1/1
f 1/1/1 4/4/4 5/5/5
f 2/2/2 6/6/6 4/4/4
f 4/4/4 7/7/7 5/5/5
f 5/5/5 7/7/7 8/8/8
f 7/7/7 9/9/9 8/8/8
f 6/6/6 10/10/10 4/4/4
f 7/7/7 11/11/11 9/9/9
f 6/6/6 12/12/12 10/10/10
f 11/11/11 13/13/13 9/9/9
f 12/12/12 14/14/14 10/10/10
f 10/10/10 14/14/14 11/11/11
f 12/12/12 15/15/15 14/14/14
f 11/11/11 16/16/16 13/13/13
f 14/14/14 16/16/16 11/11/11
f 16/16/16 17/17/17 13/13/13
f 15/15/15 18/18/18 14/14/14
f 14/14/14 18/18/18 16/16/16
f 15/15/15 19/19/19 18/18/18
f 16/16/16 20/20/20 17/17/17
f 18/18/18 20/20/20 16/16/16
f 20/20/20 21/21/21 17/17/17
f 19/19/19 22/22/22 18/18/18
f 18/18/18 22/22/22 20/20/20
f 19/19/19 23/23/23 22/22/22
f 22/22/22 24/24/24 20/20/20
f 23/23/23 25/25/25 22/22/22
f 22/22/22 25/25/25 24/24/24
f 23/23/23 26/26/26 25/25/25
f 25/25/25 27/27/27 24/24/24
f 24/24/24 27/27/27 28/28/28
f 27/27/27 29/29/29 28/28/28
f 26/26/26 30/30/30 25/25/25
f 25/25/25 30/30/30 27/27/27
f 26/26/26 31/31/31 30/30/30
f 27/27/27 32/32/32 29/29/29
f 30/30/30 32/32/32 27/27/27
f 32/32/32 33/33/33 29/29/29
f 31/31/31 34/34/34 30/30/30
f 30/30/30 34/34/34 32/32/32
f 31/31/31 35/35/35 34/34/34
f 32/32/32 36/36/36 33/33/33
f 34/34/34 36/36/36 32/32/32
f 36/36/36 37/37/37 33/33/33
f 35/35/35 38/38/38 34/34/34
f 34/34/34 38/38/38 36/36/36
f 35/35/35 39/39/39 38/38/38
f 36/36/36 40/40/40 37/37/37
f 38/38/38 40/40/40 36/36/36
f 40/40/40 41/41/41 37/37/37
f 39/39/39 42/42/42 38/38/38
f 38/38/38 42/42/42 40/40/40
f 39/39/39 43/43/43 42/42/42
f 40/40/40 44/44/44 41/41/41
f 42/42/42 44/44/44 40/40/40
f 44/44/44 45/45/45 41/41/41
f 43/43/43 46/46/46 42/42/42
f 42/42/42 46/46/46 44/44/44
f 43/43/43 47/47/47 46/46/46
f 47/47/47 48/48/48 46/46/46
f 44/44/44 49/49/49 45/45/45
f 46/46/46 49/49/49 44/44/44
f 46/46/46 48/48/48 49/49/49
f 49/49/49 50/50/50 45/45/45
f 48/48/48 51/51/51 49/49/49
f 49/49/49 51/51/51 50/50/50
f 51/51/51 52/52/52 50/50/50
f 48/48/48 53/53/53 51/51/51
f 53/53/53 54/54/54 51/51/51
f 54/54/54 56/56/56 55/55/55
f 57/57/57 54/54/54 55/55/55
f 60/60/60 59/59/59 58/58/58
f 59/59/59 61/61/61 58/58/58
f 59/59/59 62/62/62 61/61/61
f 62/62/62 63/63/63 61/61/61
f 61/61/61 63/63/63 64/64/64
f 63/63/63 65/65/65 64/64/64
f 64/64/64 65/65/65 66/66/66
f 63/63/63 67/67/67 65/65/65
f 65/65/65 68/68/68 66/66/66
f 67/67/67 69/69/69 65/65/65
f 65/65/65 69/69/69 68/68/68
f 69/69/69 70/70/70 68/68/68
f 72/72/72 67/67/67 71/71/71
f 73/73/73 72/72/72 71/71/71
f 76/76/76 75/75/75 74/74/74
f 20/20/20 76/76/76 74/74/74
f 79/79/79 78/78/78 77/77/77
f 80/80/80 79/79/79 77/77/77
