g Plane001
v 0.5 -0.5 0
v 0.399999976 -0.5 0
v 0.5 -0.399999976 0
v 0.399999976 -0.399999976 0
v 0.299999982 -0.5 0
v 0.5 -0.299999982 0
v 0.299999982 -0.399999976 0
v 0.199999988 -0.5 0
v 0.399999976 -0.299999982 0
v 0.5 -0.199999988 0
v 0.199999988 -0.399999976 0
v 0.099999994 -0.5 0
v 0.299999982 -0.299999982 0
v 0.399999976 -0.199999988 0
v 0.5 -0.099999994 0
v 0.099999994 -0.399999976 0
v -0 -0.5 0
v 0.199999988 -0.299999982 0
v 0.299999982 -0.199999988 0
v 0.399999976 -0.099999994 0
v 0.5 0 0
v -0 -0.399999976 0
v -0.099999994 -0.5 0
v 0.099999994 -0.299999982 0
v 0.199999988 -0.199999988 0
v 0.299999982 -0.099999994 0
v 0.399999976 0 0
v 0.5 0.099999994 0
v -0.099999994 -0.399999976 0
v -0.199999988 -0.5 0
v -0 -0.299999982 0
v 0.099999994 -0.199999988 0
v 0.199999988 -0.099999994 0
v 0.299999982 0 0
v 0.399999976 0.099999994 0
v 0.5 0.199999988 0
v -0.199999988 -0.399999976 0
v -0.299999982 -0.5 0
v -0.099999994 -0.299999982 0
v -0 -0.199999988 0
v 0.099999994 -0.099999994 0
v 0.199999988 0 0
v 0.299999982 0.099999994 0
v 0.399999976 0.199999988 0
v 0.5 0.299999982 0
v -0.299999982 -0.399999976 0
v -0.399999976 -0.5 0
v -0.199999988 -0.299999982 0
v -0.099999994 -0.199999988 0
v -0 -0.099999994 0
v 0.099999994 0 0
v 0.199999988 0.099999994 0
v 0.299999982 0.199999988 0
v -0.399999976 -0.399999976 0
v -0.5 -0.5 0
v -0.5 -0.399999976 0
v -0.299999982 -0.299999982 0
v -0.399999976 -0.299999982 0
v -0.5 -0.299999982 0
v -0.199999988 -0.199999988 0
v -0.399999976 -0.199999988 0
v -0.5 -0.199999988 0
v -0.299999982 -0.199999988 0
v -0.099999994 -0.099999994 0
v -0.399999976 -0.099999994 0
v -0.5 -0.099999994 0
v -0.299999982 -0.099999994 0
v -0.199999988 -0.099999994 0
v -0 0 0
v -0.399999976 0 0
v -0.5 0 0
v -0.299999982 0 0
v -0.199999988 0 0
v -0.099999994 0 0
v 0.099999994 0.099999994 0
v -0.399999976 0.099999994 0
v -0.5 0.099999994 0
v -0.299999982 0.099999994 0
v -0.199999988 0.099999994 0
v -0.099999994 0.099999994 0
v -0 0.099999994 0
v 0.199999988 0.199999988 0
v -0.399999976 0.199999988 0
v -0.5 0.199999988 0
v -0.299999982 0.199999988 0
v -0.199999988 0.199999988 0
v -0.099999994 0.199999988 0
v -0 0.199999988 0
v 0.099999994 0.199999988 0
v -0.399999976 0.299999982 0
v -0.5 0.299999982 0
v -0.299999982 0.299999982 0
v -0.199999988 0.299999982 0
v -0.099999994 0.299999982 0
v -0 0.299999982 0
v 0.099999994 0.299999982 0
v 0.199999988 0.299999982 0
v -0.399999976 0.399999976 0
v -0.5 0.399999976 0
v -0.299999982 0.399999976 0
v -0.399999976 0.5 0
v -0.5 0.5 0
v -0.299999982 0.5 0
v -0.199999988 0.5 0
v -0.199999988 0.399999976 0
v -0.099999994 0.5 0
v -0.099999994 0.399999976 0
v -0 0.5 0
v -0 0.399999976 0
v 0.099999994 0.5 0
v 0.099999994 0.399999976 0
v 0.199999988 0.5 0
v 0.199999988 0.399999976 0
v 0.299999982 0.5 0
v 0.299999982 0.399999976 0
v 0.399999976 0.5 0
v 0.299999982 0.299999982 0
v 0.399999976 0.399999976 0
v 0.5 0.5 0
v 0.5 0.399999976 0
v 0.399999976 0.299999982 0
vt 1.00000012 0
vt 0.900000095 0
vt 1.01030409 0.0814528614
vt 0.91030407 0.0835136548
vt 0.808243275 0.0103039667
vt 1.01030409 0.18145287
vt 0.816486478 0.120607935
vt 0.708243251 -0.00206079334
vt 0.91030407 0.183513671
vt 1.00000012 0.300000012
vt 0.716486454 0.106182382
vt 0.600000024 -0.01236476
vt 0.808243275 0.210303962
vt 0.900000095 0.300000012
vt 1.00824332 0.395878434
vt 0.608243227 0.0835136548
vt 0.5 0
vt 0.697939277 0.208243176
vt 0.837094307 0.291756809
vt 0.922668815 0.402060807
vt 1.00824332 0.497939199
vt 0.528851151 0.0814528614
vt 0.400000006 0
vt 0.600000024 0.183513641
vt 0.721484005 0.280429006
vt 0.851519883 0.397939205
vt 0.922668815 0.504121542
vt 0.993817747 0.604121566
vt 0.420607954 0.0835136548
vt 0.300000012 0
vt 0.530911922 0.169088095
vt 0.613258421 0.266187787
vt 0.720374286 0.374635279
vt 0.843276739 0.502060771
vt 0.897939324 0.597939193
vt 0.993817747 0.702060819
vt 0.312292606 0.092042923
vt 0.200000003 0
vt 0.404121608 0.181452841
vt 0.483513653 0.287635267
vt 0.610121548 0.373492211
vt 0.730325162 0.484255791
vt 0.832972765 0.58969605
vt 0.906182528 0.683513701
vt 1.00000012 0.800000072
vt 0.222954839 0.0815250352
vt 0.100000001 0
vt 0.270862848 0.185502276
vt 0.369088113 0.308243185
vt 0.469088078 0.408243179
vt 0.613765895 0.49729827
vt 0.741215885 0.58969605
vt 0.812364876 0.68145293
vt 0.110303968 0.0855744481
vt 0 0
vt 0 0.0896960348
vt 0.179464281 0.170862809
vt 0.0917568281 0.17939204
vt 0 0.189696044
vt 0.260844946 0.304121614
vt 0.0814528614 0.29381761
vt 0 0.300000012
vt 0.164966524 0.289696038
vt 0.364966542 0.397939205
vt 0.0896960348 0.393817604
vt 0 0.400000006
vt 0.189696044 0.402060807
vt 0.285574466 0.400000006
vt 0.483513653 0.514425516
vt 0.0917568281 0.493817627
vt 0.00206079334 0.5
vt 0.189696044 0.502060831
vt 0.29587844 0.477331311
vt 0.383513659 0.47527048
vt 0.595878422 0.606182396
vt 0.0855744481 0.597939253
vt 0.00206079334 0.600000024
vt 0.198871434 0.601145744
vt 0.302975953 0.590628326
vt 0.375270486 0.59175688
vt 0.483513653 0.612364769
vt 0.689696074 0.712364793
vt 0.100000001 0.700000048
vt 0 0.700000048
vt 0.221753597 0.703189373
vt 0.321736515 0.705036759
vt 0.400000036 0.70618242
vt 0.510303974 0.702060819
vt 0.600000024 0.708243191
vt 0.102060795 0.79587847
vt 0 0.800000072
vt 0.214425564 0.783513725
vt 0.312364787 0.787635326
vt 0.389696062 0.789696038
vt 0.522668719 0.777331233
vt 0.618547142 0.810303986
vt 0.697939217 0.824729562
vt 0.102060795 0.895878494
vt 0 0.900000095
vt 0.20618239 0.883513749
vt 0.100000001 1.00000012
vt 0 1.00000012
vt 0.200000003 1.00000012
vt 0.300000012 1.00000012
vt 0.304121614 0.88763535
vt 0.400000006 1.00000012
vt 0.389696032 0.883513689
vt 0.5 1.00000012
vt 0.512364745 0.875270486
vt 0.600000024 1.00000012
vt 0.618547142 0.902060866
vt 0.700000048 1.00000012
vt 0.702060819 0.916486442
vt 0.800000072 1.00000012
vt 0.806182444 0.91030407
vt 0.900000095 1.00000012
vt 0.814425647 0.797939301
vt 0.900000095 0.904121697
vt 1.00000012 1.00000012
vt 1.00000012 0.900000095
vt 0.908243299 0.791756928
vn -0 0 1
vn -0 0 1
vn -0 0 1
vn -0 0 1
vn -0 0 1
vn -0 0 1
vn -0 0 1
vn -0 0 1
vn -0 0 1
vn -0 0 1
vn -0 0 1
vn -0 0 1
vn -0 0 1
vn -0 0 1
vn -0 0 1
vn -0 0 1
vn -0 0 1
vn -0 0 1
vn -0 0 1
vn -0 0 1
vn -0 0 1
vn -0 0 1
vn -0 0 1
vn -0 0 1
vn -0 0 1
vn -0 0 1
vn -0 0 1
vn -0 0 1
vn -0 0 1
vn -0 0 1
vn -0 0 1
vn -0 0 1
vn -0 0 1
vn -0 0 1
vn -0 0 1
vn -0 0 1
vn -0 0 1
vn -0 0 1
vn -0 0 1
vn -0 0 1
vn -0 0 1
vn -0 0 1
vn -0 0 1
vn -0 0 1
vn -0 0 1
vn -0 0 1
vn -0 0 1
vn -0 0 1
vn -0 0 1
vn -0 0 1
vn -0 0 1
vn -0 0 1
vn -0 0 1
vn -0 0 1
vn -0 0 1
vn -0 0 1
vn -0 0 1
vn -0 0 1
vn -0 0 1
vn -0 0 1
vn -0 0 1
vn -0 0 1
vn -0 0 1
vn -0 0 1
vn -0 0 1
vn -0 0 1
vn -0 0 1
vn -0 0 1
vn -0 0 1
vn -0 0 1
vn -0 0 1
vn -0 0 1
vn -0 0 1
vn -0 0 1
vn -0 0 1
vn -0 0 1
vn -0 0 1
vn -0 0 1
vn -0 0 1
vn -0 0 1
vn -0 0 1
vn -0 0 1
vn -0 0 1
vn -0 0 1
vn -0 0 1
vn -0 0 1
vn -0 0 1
vn -0 0 1
vn -0 0 1
vn -0 0 1
vn -0 0 1
vn -0 0 1
vn -0 0 1
vn -0 0 1
vn -0 0 1
vn -0 0 1
vn -0 0 1
vn -0 0 1
vn -0 0 1
vn -0 0 1
vn -0 0 1
vn -0 0 1
vn -0 0 1
vn -0 0 1
vn -0 0 1
vn -0 0 1
vn -0 0 1
vn -0 0 1
vn -0 0 1
vn -0 0 1
vn -0 0 1
vn -0 0 1
vn -0 0 1
vn -0 0 1
vn -0 0 1
vn -0 0 1
vn -0 0 1
vn -0 0 1
vn -0 0 1
vn -0 0 1
vn -0 0 1
g Plane001_0
f 3/3/3 2/2/2 1/1/1
f 2/2/2 3/3/3 4/4/4
f 4/4/4 5/5/5 2/2/2
f 6/6/6 4/4/4 3/3/3
f 5/5/5 4/4/4 7/7/7
f 7/7/7 8/8/8 5/5/5
f 4/4/4 6/6/6 9/9/9
f 9/9/9 7/7/7 4/4/4
f 10/10/10 9/9/9 6/6/6
f 8/8/8 7/7/7 11/11/11
f 11/11/11 12/12/12 8/8/8
f 7/7/7 9/9/9 13/13/13
f 13/13/13 11/11/11 7/7/7
f 9/9/9 10/10/10 14/14/14
f 14/14/14 13/13/13 9/9/9
f 15/15/15 14/14/14 10/10/10
f 12/12/12 11/11/11 16/16/16
f 16/16/16 17/17/17 12/12/12
f 11/11/11 13/13/13 18/18/18
f 18/18/18 16/16/16 11/11/11
f 13/13/13 14/14/14 19/19/19
f 19/19/19 18/18/18 13/13/13
f 14/14/14 15/15/15 20/20/20
f 20/20/20 19/19/19 14/14/14
f 21/21/21 20/20/20 15/15/15
f 17/17/17 16/16/16 22/22/22
f 22/22/22 23/23/23 17/17/17
f 16/16/16 18/18/18 24/24/24
f 24/24/24 22/22/22 16/16/16
f 18/18/18 19/19/19 25/25/25
f 25/25/25 24/24/24 18/18/18
f 19/19/19 20/20/20 26/26/26
f 26/26/26 25/25/25 19/19/19
f 20/20/20 21/21/21 27/27/27
f 27/27/27 26/26/26 20/20/20
f 28/28/28 27/27/27 21/21/21
f 23/23/23 22/22/22 29/29/29
f 29/29/29 30/30/30 23/23/23
f 22/22/22 24/24/24 31/31/31
f 31/31/31 29/29/29 22/22/22
f 24/24/24 25/25/25 32/32/32
f 32/32/32 31/31/31 24/24/24
f 25/25/25 26/26/26 33/33/33
f 33/33/33 32/32/32 25/25/25
f 26/26/26 27/27/27 34/34/34
f 34/34/34 33/33/33 26/26/26
f 27/27/27 28/28/28 35/35/35
f 35/35/35 34/34/34 27/27/27
f 36/36/36 35/35/35 28/28/28
f 30/30/30 29/29/29 37/37/37
f 37/37/37 38/38/38 30/30/30
f 29/29/29 31/31/31 39/39/39
f 39/39/39 37/37/37 29/29/29
f 31/31/31 32/32/32 40/40/40
f 40/40/40 39/39/39 31/31/31
f 32/32/32 33/33/33 41/41/41
f 41/41/41 40/40/40 32/32/32
f 33/33/33 34/34/34 42/42/42
f 42/42/42 41/41/41 33/33/33
f 34/34/34 35/35/35 43/43/43
f 43/43/43 42/42/42 34/34/34
f 35/35/35 36/36/36 44/44/44
f 44/44/44 43/43/43 35/35/35
f 45/45/45 44/44/44 36/36/36
f 38/38/38 37/37/37 46/46/46
f 46/46/46 47/47/47 38/38/38
f 37/37/37 39/39/39 48/48/48
f 48/48/48 46/46/46 37/37/37
f 39/39/39 40/40/40 49/49/49
f 49/49/49 48/48/48 39/39/39
f 40/40/40 41/41/41 50/50/50
f 50/50/50 49/49/49 40/40/40
f 41/41/41 42/42/42 51/51/51
f 51/51/51 50/50/50 41/41/41
f 42/42/42 43/43/43 52/52/52
f 52/52/52 51/51/51 42/42/42
f 43/43/43 44/44/44 53/53/53
f 53/53/53 52/52/52 43/43/43
f 47/47/47 46/46/46 54/54/54
f 54/54/54 55/55/55 47/47/47
f 55/55/55 54/54/54 56/56/56
f 46/46/46 48/48/48 57/57/57
f 57/57/57 54/54/54 46/46/46
f 58/58/58 56/56/56 54/54/54
f 54/54/54 57/57/57 58/58/58
f 56/56/56 58/58/58 59/59/59
f 60/60/60 57/57/57 48/48/48
f 48/48/48 49/49/49 60/60/60
f 61/61/61 59/59/59 58/58/58
f 59/59/59 61/61/61 62/62/62
f 63/63/63 58/58/58 57/57/57
f 57/57/57 60/60/60 63/63/63
f 58/58/58 63/63/63 61/61/61
f 64/64/64 60/60/60 49/49/49
f 49/49/49 50/50/50 64/64/64
f 65/65/65 62/62/62 61/61/61
f 62/62/62 65/65/65 66/66/66
f 67/67/67 61/61/61 63/63/63
f 61/61/61 67/67/67 65/65/65
f 68/68/68 63/63/63 60/60/60
f 60/60/60 64/64/64 68/68/68
f 63/63/63 68/68/68 67/67/67
f 69/69/69 64/64/64 50/50/50
f 50/50/50 51/51/51 69/69/69
f 70/70/70 66/66/66 65/65/65
f 66/66/66 70/70/70 71/71/71
f 72/72/72 65/65/65 67/67/67
f 65/65/65 72/72/72 70/70/70
f 73/73/73 67/67/67 68/68/68
f 67/67/67 73/73/73 72/72/72
f 74/74/74 68/68/68 64/64/64
f 64/64/64 69/69/69 74/74/74
f 68/68/68 74/74/74 73/73/73
f 75/75/75 69/69/69 51/51/51
f 51/51/51 52/52/52 75/75/75
f 76/76/76 71/71/71 70/70/70
f 71/71/71 76/76/76 77/77/77
f 78/78/78 70/70/70 72/72/72
f 70/70/70 78/78/78 76/76/76
f 79/79/79 72/72/72 73/73/73
f 72/72/72 79/79/79 78/78/78
f 80/80/80 73/73/73 74/74/74
f 73/73/73 80/80/80 79/79/79
f 81/81/81 74/74/74 69/69/69
f 69/69/69 75/75/75 81/81/81
f 74/74/74 81/81/81 80/80/80
f 82/82/82 75/75/75 52/52/52
f 52/52/52 53/53/53 82/82/82
f 83/83/83 77/77/77 76/76/76
f 77/77/77 83/83/83 84/84/84
f 85/85/85 76/76/76 78/78/78
f 76/76/76 85/85/85 83/83/83
f 86/86/86 78/78/78 79/79/79
f 78/78/78 86/86/86 85/85/85
f 87/87/87 79/79/79 80/80/80
f 79/79/79 87/87/87 86/86/86
f 88/88/88 80/80/80 81/81/81
f 80/80/80 88/88/88 87/87/87
f 89/89/89 81/81/81 75/75/75
f 81/81/81 89/89/89 88/88/88
f 75/75/75 82/82/82 89/89/89
f 90/90/90 84/84/84 83/83/83
f 84/84/84 90/90/90 91/91/91
f 92/92/92 83/83/83 85/85/85
f 83/83/83 92/92/92 90/90/90
f 93/93/93 85/85/85 86/86/86
f 85/85/85 93/93/93 92/92/92
f 94/94/94 86/86/86 87/87/87
f 86/86/86 94/94/94 93/93/93
f 95/95/95 87/87/87 88/88/88
f 87/87/87 95/95/95 94/94/94
f 96/96/96 88/88/88 89/89/89
f 88/88/88 96/96/96 95/95/95
f 97/97/97 89/89/89 82/82/82
f 89/89/89 97/97/97 96/96/96
f 98/98/98 91/91/91 90/90/90
f 91/91/91 98/98/98 99/99/99
f 100/100/100 90/90/90 92/92/92
f 90/90/90 100/100/100 98/98/98
f 101/101/101 99/99/99 98/98/98
f 99/99/99 101/101/101 102/102/102
f 98/98/98 103/103/103 101/101/101
f 103/103/103 98/98/98 100/100/100
f 100/100/100 104/104/104 103/103/103
f 92/92/92 105/105/105 100/100/100
f 104/104/104 100/100/100 105/105/105
f 105/105/105 92/92/92 93/93/93
f 105/105/105 106/106/106 104/104/104
f 93/93/93 107/107/107 105/105/105
f 106/106/106 105/105/105 107/107/107
f 107/107/107 93/93/93 94/94/94
f 107/107/107 108/108/108 106/106/106
f 94/94/94 109/109/109 107/107/107
f 108/108/108 107/107/107 109/109/109
f 109/109/109 94/94/94 95/95/95
f 109/109/109 110/110/110 108/108/108
f 95/95/95 111/111/111 109/109/109
f 110/110/110 109/109/109 111/111/111
f 111/111/111 95/95/95 96/96/96
f 111/111/111 112/112/112 110/110/110
f 96/96/96 113/113/113 111/111/111
f 112/112/112 111/111/111 113/113/113
f 113/113/113 114/114/114 112/112/112
f 113/113/113 96/96/96 97/97/97
f 114/114/114 113/113/113 115/115/115
f 97/97/97 115/115/115 113/113/113
f 115/115/115 116/116/116 114/114/114
f 115/115/115 97/97/97 117/117/117
f 82/82/82 117/117/117 97/97/97
f 117/117/117 82/82/82 53/53/53
f 116/116/116 115/115/115 118/118/118
f 117/117/117 118/118/118 115/115/115
f 118/118/118 119/119/119 116/116/116
f 119/119/119 118/118/118 120/120/120
f 53/53/53 121/121/121 117/117/117
f 118/118/118 117/117/117 121/121/121
f 121/121/121 120/120/120 118/118/118
f 121/121/121 53/53/53 44/44/44
f 120/120/120 121/121/121 45/45/45
f 44/44/44 45/45/45 121/121/121
