g 003
v 0.0210713111 0.24911043 1.56593342E-05
v -0.106307186 0.22627151 1.56593342E-05
v -0.148628935 0.320795029 5.14984185E-06
v 0.031681519 0.352131069 5.14984185E-06
v -0.106307186 0.22627151 1.56593342E-05
v -0.205200478 0.142803311 1.56402602E-05
v -0.289113879 0.203502238 5.14984185E-06
v -0.148628935 0.320795029 5.14984185E-06
v -0.289113879 0.203502238 5.14984185E-06
v -0.385589093 0.269992381 -8.5258489E-06
v -0.198933825 0.426614791 -8.5258489E-06
v -0.205200478 0.142803311 1.56402602E-05
v -0.249110475 0.0210710913 1.56402602E-05
v -0.352131158 0.0316811949 5.14984185E-06
v -0.289113879 0.203502238 5.14984185E-06
v -0.468926162 0.0410257839 -8.5258489E-06
v -0.385589093 0.269992381 -8.5258489E-06
v -0.249110475 0.0210710913 1.56402602E-05
v -0.226271555 -0.106307097 1.56402602E-05
v -0.320795149 -0.148628816 5.13076839E-06
v -0.352131158 0.0316811949 5.14984185E-06
v -0.226271555 -0.106307097 1.56402602E-05
v -0.142803371 -0.205200419 1.56211863E-05
v -0.203502342 -0.289113849 5.13076839E-06
v -0.320795149 -0.148628816 5.13076839E-06
v -0.142803371 -0.205200419 1.56211863E-05
v -0.021071149 -0.249110445 1.56211863E-05
v -0.0316813216 -0.352131099 5.13076839E-06
v -0.203502342 -0.289113849 5.13076839E-06
v -0.203502342 -0.289113849 5.13076839E-06
v -0.0410259217 -0.468926042 -8.54492282E-06
v -0.26999253 -0.385588944 -8.54492282E-06
v -0.021071149 -0.249110445 1.56211863E-05
v 0.106307015 -0.226271555 1.56211863E-05
v 0.148628682 -0.320795149 5.13076839E-06
v -0.0316813216 -0.352131099 5.13076839E-06
v 0.198933482 -0.426614791 -8.54492282E-06
v -0.0410259217 -0.468926042 -8.54492282E-06
v 0.106307015 -0.226271555 1.56211863E-05
v 0.205200344 -0.142803431 1.56211863E-05
v 0.28911382 -0.203502461 5.13076839E-06
v 0.148628682 -0.320795149 5.13076839E-06
v 0.385588855 -0.26999265 -8.54492282E-06
v 0.198933482 -0.426614791 -8.54492282E-06
v 0.205200344 -0.142803431 1.56211863E-05
v 0.24911043 -0.0210712347 1.56402602E-05
v 0.352131069 -0.0316814259 5.13076839E-06
v 0.28911382 -0.203502461 5.13076839E-06
v 0.468926042 -0.0410260558 -8.54492282E-06
v 0.385588855 -0.26999265 -8.54492282E-06
v 0.24911043 -0.0210712347 1.56402602E-05
v 0.226271585 0.106306978 1.56402602E-05
v 0.320795149 0.148628578 5.14984185E-06
v 0.352131069 -0.0316814259 5.13076839E-06
v 0.42661494 0.198933393 -8.5258489E-06
v 0.468926042 -0.0410260558 -8.54492282E-06
v 0.226271585 0.106306978 1.56402602E-05
v 0.142803475 0.205200285 1.56402602E-05
v 0.203502491 0.2891137 5.14984185E-06
v 0.320795149 0.148628578 5.14984185E-06
v 0.269992739 0.385588855 -8.5258489E-06
v 0.42661494 0.198933393 -8.5258489E-06
v 0.142803475 0.205200285 1.56402602E-05
v 0.0210713111 0.24911043 1.56593342E-05
v 0.031681519 0.352131069 5.14984185E-06
v 0.203502491 0.2891137 5.14984185E-06
v 0.0410262011 0.468926132 -8.5258489E-06
v 0.269992739 0.385588855 -8.5258489E-06
v 0.031681519 0.352131069 5.14984185E-06
v -0.148628935 0.320795029 5.14984185E-06
v -0.198933825 0.426614791 -8.5258489E-06
v 0.0410262011 0.468926132 -8.5258489E-06
v -0.352131158 0.0316811949 5.14984185E-06
v -0.320795149 -0.148628816 5.13076839E-06
v -0.42661491 -0.198933661 -8.54492282E-06
v -0.468926162 0.0410257839 -8.5258489E-06
v -0.320795149 -0.148628816 5.13076839E-06
v -0.203502342 -0.289113849 5.13076839E-06
v -0.26999253 -0.385588944 -8.54492282E-06
v -0.42661491 -0.198933661 -8.54492282E-06
vt 0.911096692 0.505311072
vt 0.984018028 0.546005309
vt 1.01070905 0.257966876
vt 0.911096692 0.257966638
vt 0.00335652032 0.505311072
vt 0.0825774968 0.485523462
vt 0.0888146162 0.28867197
vt 0.00335652032 0.257966638
vt 0.0888146162 0.28867197
vt 0.0866998956 0.0178647041
vt 0.00335652032 0.0106221139
vt 0.0825774968 0.485523462
vt 0.178302839 0.485523462
vt 0.168987498 0.264107704
vt 0.0888146162 0.28867197
vt 0.165935561 -0.0111056566
vt 0.0866998956 0.0178647041
vt 0.178302839 0.485523462
vt 0.245694369 0.535029709
vt 0.249160275 0.239543468
vt 0.168987498 0.264107704
vt 0.245694369 0.535029709
vt 0.31291306 0.52146101
vt 0.33344388 0.257966638
vt 0.249160275 0.239543468
vt 0.31291306 0.52146101
vt 0.415965706 0.505311072
vt 0.419811517 0.252660155
vt 0.33344388 0.257966638
vt 0.33344388 0.257966638
vt 0.419811517 0.0152094066
vt 0.331709683 -0.00765828788
vt 0.415965706 0.505311072
vt 0.498487502 0.505311072
vt 0.499032468 0.252660155
vt 0.419811517 0.252660155
vt 0.499032468 0.0152094066
vt 0.419811517 0.0152094066
vt 0.498487502 0.505311072
vt 0.589729428 0.496895969
vt 0.56524539 0.232732356
vt 0.499032468 0.252660155
vt 0.593485177 -0.00205205381
vt 0.499032468 0.0152094066
vt 0.589729428 0.496895969
vt 0.671948969 0.505764186
vt 0.649054587 0.252704054
vt 0.56524539 0.232732356
vt 0.678471029 0.00813695788
vt 0.593485177 -0.00205205381
vt 0.671948969 0.505764186
vt 0.754061341 0.512756884
vt 0.730649769 0.268199563
vt 0.649054587 0.252704054
vt 0.765397727 0.00216324627
vt 0.678471029 0.00813695788
vt 0.754061341 0.512756884
vt 0.828832865 0.511811793
vt 0.828574836 0.257966638
vt 0.730649769 0.268199563
vt 0.830964446 0.00944617391
vt 0.765397727 0.00216324627
vt 0.828832865 0.511811793
vt 0.911096692 0.505311072
vt 0.911096692 0.257966638
vt 0.828574836 0.257966638
vt 0.907147169 0.0326865613
vt 0.830964446 0.00944617391
vt 0.911096692 0.257966638
vt 0.983750045 0.329959333
vt 0.999209046 0.0403138101
vt 0.907147169 0.0326865613
vt 0.168987498 0.264107704
vt 0.249160275 0.239543468
vt 0.25150007 0.0167155862
vt 0.165935561 -0.0111056566
vt 0.249160275 0.239543468
vt 0.33344388 0.257966638
vt 0.331709683 -0.00765828788
vt 0.25150007 0.0167155862
vn -4.60131414E-05 9.34863419E-05 1
vn -0 0.000139741489 1
vn 3.61812272E-05 0.000134948496 1
vn 2.08376696E-05 7.72371932E-05 1
vn -2.07932972E-05 7.71938649E-05 1
vn -9.875244E-05 9.875244E-05 1
vn -8.6584856E-05 5.78762447E-05 1
vn -3.61677558E-05 0.000134979899 1
vn -0.000177901791 0.000177901762 1
vn -8.40632492E-05 8.61803492E-05 1
vn -6.51165756E-05 0.000243018309 1
vn -5.65373957E-05 5.65373957E-05 1
vn -0.000134930713 3.61218154E-05 1
vn -0.000103779443 6.88207319E-06 1
vn -9.875244E-05 9.875244E-05 1
vn -0.00011589106 3.26027694E-05 1
vn -0.000177901791 0.000177901762 1
vn -7.72315252E-05 2.06941259E-05 1
vn -0.000134938455 -3.62491264E-05 1
vn -9.34147247E-05 -4.60465235E-05 1
vn -0.000134930713 3.61218154E-05 1
vn -7.72638814E-05 -2.08120455E-05 1
vn -9.87524691E-05 -9.87524036E-05 1
vn -5.78762556E-05 -8.65848269E-05 1
vn -0.000134938455 -3.62491264E-05 1
vn -5.65886803E-05 -5.65886512E-05 1
vn -3.61459679E-05 -0.00013489835 1
vn -6.88208456E-06 -0.000103779399 1
vn -9.87524691E-05 -9.87524036E-05 1
vn -9.87524691E-05 -9.87524036E-05 1
vn -3.2602813E-05 -0.000115891133 1
vn -0.000178048038 -0.000178047965 1
vn -2.06941477E-05 -7.72315034E-05 1
vn 3.61458406E-05 -0.000134898393 1
vn 4.59296207E-05 -9.33166375E-05 1
vn -3.61459679E-05 -0.00013489835 1
vn 2.97106963E-05 -0.000116666102 1
vn -6.51702067E-05 -0.000243218135 1
vn 2.0694084E-05 -7.72315252E-05 1
vn 9.87523817E-05 -9.87525273E-05 1
vn 8.64344402E-05 -5.78497784E-05 1
vn 3.61458406E-05 -0.000134898393 1
vn 8.4063191E-05 -8.61804729E-05 1
vn 6.51699884E-05 -0.000243218194 1
vn 5.6553632E-05 -5.6581739E-05 1
vn 0.000134961127 -3.6252346E-05 1
vn 0.000103824648 -6.94682012E-06 1
vn 9.87523817E-05 -9.87525273E-05 1
vn 0.000115891118 -3.26028385E-05 1
vn 0.000178047849 -0.000178048125 1
vn 7.72736021E-05 -2.08780566E-05 1
vn 0.000134898364 3.6145786E-05 1
vn 9.33882475E-05 4.58962131E-05 1
vn 0.000134961127 -3.6252346E-05 1
vn 0.00011663614 2.96104099E-05 1
vn 0.000243018236 -6.51167065E-05 1
vn 7.72315398E-05 2.06940585E-05 1
vn 9.87525273E-05 9.87523672E-05 1
vn 5.78498184E-05 8.64345056E-05 1
vn 0.000134898364 3.6145786E-05 1
vn 8.61804001E-05 8.40631037E-05 1
vn 0.000243055343 6.50574148E-05 1
vn 5.65374467E-05 5.65373412E-05 1
vn 3.61812272E-05 0.000134948496 1
vn 6.94688561E-06 0.000103824677 1
vn 9.87525273E-05 9.87523672E-05 1
vn 3.26028749E-05 0.000115891016 1
vn 0.000177901937 0.000177901631 1
vn -2.97106799E-05 0.000116666008 1
vn -0 0.000251591089 1
vn 6.51167502E-05 0.000243018236 1
vn 3.61812272E-05 0.000134948496 1
vn -0.000134930713 3.61218154E-05 1
vn -0.000243050599 -6.51848895E-05 1
vn -0.000116695875 -2.9810888E-05 1
vn -0.000243036629 6.50375441E-05 1
vn -0.000134938455 -3.62491264E-05 1
vn -0.000178048038 -0.000178047965 1
vn -8.61804074E-05 -8.40632711E-05 1
vn -0.000243050599 -6.51848895E-05 1
g 003_0
f 3/3/3 2/2/2 1/1/1
f 4/4/4 3/3/3 1/1/1
f 7/7/7 6/6/6 5/5/5
f 8/8/8 7/7/7 5/5/5
f 10/10/10 9/9/9 8/8/8
f 11/11/11 10/10/10 8/8/8
f 14/14/14 13/13/13 12/12/12
f 15/15/15 14/14/14 12/12/12
f 16/16/16 14/14/14 15/15/15
f 17/17/17 16/16/16 15/15/15
f 20/20/20 19/19/19 18/18/18
f 21/21/21 20/20/20 18/18/18
f 24/24/24 23/23/23 22/22/22
f 25/25/25 24/24/24 22/22/22
f 28/28/28 27/27/27 26/26/26
f 29/29/29 28/28/28 26/26/26
f 31/31/31 28/28/28 30/30/30
f 32/32/32 31/31/31 30/30/30
f 35/35/35 34/34/34 33/33/33
f 36/36/36 35/35/35 33/33/33
f 37/37/37 35/35/35 36/36/36
f 38/38/38 37/37/37 36/36/36
f 41/41/41 40/40/40 39/39/39
f 42/42/42 41/41/41 39/39/39
f 43/43/43 41/41/41 42/42/42
f 44/44/44 43/43/43 42/42/42
f 47/47/47 46/46/46 45/45/45
f 48/48/48 47/47/47 45/45/45
f 49/49/49 47/47/47 48/48/48
f 50/50/50 49/49/49 48/48/48
f 53/53/53 52/52/52 51/51/51
f 54/54/54 53/53/53 51/51/51
f 55/55/55 53/53/53 54/54/54
f 56/56/56 55/55/55 54/54/54
f 59/59/59 58/58/58 57/57/57
f 60/60/60 59/59/59 57/57/57
f 61/61/61 59/59/59 60/60/60
f 62/62/62 61/61/61 60/60/60
f 65/65/65 64/64/64 63/63/63
f 66/66/66 65/65/65 63/63/63
f 67/67/67 65/65/65 66/66/66
f 68/68/68 67/67/67 66/66/66
f 71/71/71 70/70/70 69/69/69
f 72/72/72 71/71/71 69/69/69
f 75/75/75 74/74/74 73/73/73
f 76/76/76 75/75/75 73/73/73
f 79/79/79 78/78/78 77/77/77
f 80/80/80 79/79/79 77/77/77
