g Plane001
v -2.1039474 -1.14300001 0
v -2.29847336 -1.14300001 0
v -2.29847336 -0.889000058 0
v -2.1039474 -0.889000058 0
v -1.90942144 -1.14300001 0
v -2.29847336 -0.63500005 0
v -1.90942144 -0.889000058 0
v -1.71671069 -1.14300001 0
v -2.1039474 -0.63500005 0
v -2.29847336 -0.380999982 0
v -1.71671069 -0.888999999 0
v -1.52399993 -1.14300001 0
v -2.1039474 -0.380999982 0
v -2.29847336 -0.127000004 0
v -1.90942144 -0.63500005 0
v -2.1039474 -0.127000004 0
v -2.29847336 0.127000004 0
v -1.90942144 -0.380999982 0
v -1.71671069 -0.63499999 0
v -1.52399993 -0.888999999 0
v -2.1039474 0.127000004 0
v -2.29847336 0.380999982 0
v -1.90942144 -0.127000004 0
v -1.71671069 -0.380999982 0
v -2.1039474 0.380999982 0
v -2.29847336 0.63500005 0
v -1.90942144 0.127000004 0
v -2.1039474 0.63500005 0
v -2.29847336 0.889000058 0
v -1.26999998 -0.888999999 0
v -1.26999998 -1.14300001 0
v -1.52399993 -0.63499999 0
v -1.26999998 -0.63499999 0
v -1.52399993 -0.380999982 0
v -1.01600003 -0.63499999 0
v -1.01600003 -0.888999999 0
v -1.01600003 -1.14300001 0
v -0.761999965 -0.63499999 0
v -1.71671069 -0.127000004 0
v -1.52399993 -0.127000004 0
v -0.761999965 -0.888999999 0
v -0.761999965 -1.14300001 0
v -0.508000016 -0.63499999 0
v -1.71671069 0.127000004 0
v -1.52399993 0.127000004 0
v -0.508000016 -0.888999999 0
v -0.508000016 -1.14300001 0
v -0.254000008 -0.63499999 0
v -0.254000008 -0.888999999 0
v -0.254000008 -1.14300001 0
v -0 -0.63499999 0
v -0 -0.888999999 0
v -0 -1.14300001 0
v 0.254000008 -0.63499999 0
v 0.254000008 -0.888999999 0
v 0.254000008 -1.14300001 0
v 0.508000016 -0.63499999 0
v 0.508000016 -0.888999999 0
v 0.508000016 -1.14300001 0
v 0.761999965 -0.63499999 0
v 0.761999965 -0.888999999 0
v 0.761999965 -1.14300001 0
v 1.01600003 -0.63499999 0
v 1.01600003 -0.888999999 0
v 1.01600003 -1.14300001 0
v 1.26999998 -0.63499999 0
v 1.26999998 -0.888999999 0
v 1.26999998 -1.14300001 0
v 1.52399993 -0.63499999 0
v 1.52399993 -0.888999999 0
v 1.52399993 -1.14300001 0
v 1.76731968 -1.14300001 0
v 1.76731968 -0.888999999 0
v 2.01063943 -1.14300001 0
v 1.76731968 -0.63499999 0
v 1.52399993 -0.380999982 0
v 2.01063943 -0.889000058 0
v 2.25668645 -1.14300001 0
v 1.76731968 -0.380999982 0
v 1.52399993 -0.127000004 0
v 2.25668645 -0.889000058 0
v 2.50273347 -1.14300001 0
v 2.50273347 -0.889000058 0
v 2.01063943 -0.63500005 0
v 2.25668645 -0.63500005 0
v 2.50273347 -0.63500005 0
v 1.76731968 -0.127000004 0
v 1.52399993 0.127000004 0
v 2.01063943 -0.380999982 0
v 2.25668645 -0.380999982 0
v 2.50273347 -0.380999982 0
v 1.76731968 0.127000004 0
v 1.52399993 0.380999982 0
v 2.01063943 -0.127000004 0
v 2.25668645 -0.127000004 0
v 2.50273347 -0.127000004 0
v 1.76731968 0.380999982 0
v 1.52399993 0.63499999 0
v 2.01063943 0.127000004 0
v 2.25668645 0.127000004 0
v 2.50273347 0.127000004 0
v 2.01063943 0.380999982 0
v 2.25668645 0.380999982 0
v 2.50273347 0.380999982 0
v 1.76731968 0.63499999 0
v 2.01063943 0.63500005 0
v 2.25668645 0.63500005 0
v 2.50273347 0.63500005 0
v 1.52399993 0.888999999 0
v 1.26999998 0.63499999 0
v 1.76731968 0.888999999 0
v 2.01063943 0.889000058 0
v 2.25668645 0.889000058 0
v 2.50273347 0.889000058 0
v 2.25668645 1.14300001 0
v 2.50273347 1.14300001 0
v 2.01063943 1.14300001 0
v 1.76731968 1.14300001 0
v 1.52399993 1.14300001 0
v 1.26999998 0.888999999 0
v 1.01600003 0.63499999 0
v 1.26999998 1.14300001 0
v 1.01600003 0.888999999 0
v 0.761999965 0.63499999 0
v 1.01600003 1.14300001 0
v 0.761999965 0.888999999 0
v 0.508000016 0.63499999 0
v 0.761999965 1.14300001 0
v 0.508000016 0.888999999 0
v 0.254000008 0.63499999 0
v 0.508000016 1.14300001 0
v 0.254000008 0.888999999 0
v -0 0.63499999 0
v 0.254000008 1.14300001 0
v -0 0.888999999 0
v -0.254000008 0.63499999 0
v -0 1.14300001 0
v -0.254000008 0.888999999 0
v -0.508000016 0.63499999 0
v -0.254000008 1.14300001 0
v -0.508000016 0.888999999 0
v -0.761999965 0.63499999 0
v -0.508000016 1.14300001 0
v -0.761999965 0.888999999 0
v -1.01600003 0.63499999 0
v -0.761999965 1.14300001 0
v -1.01600003 0.888999999 0
v -1.26999998 0.63499999 0
v -1.01600003 1.14300001 0
v -1.26999998 0.888999999 0
v -1.26999998 1.14300001 0
v -1.52399993 0.63499999 0
v -1.52399993 0.888999999 0
v -1.52399993 1.14300001 0
v -1.71671069 1.14300001 0
v -1.71671069 0.888999999 0
v -1.90942144 1.14300001 0
v -1.71671069 0.63499999 0
v -1.52399993 0.380999982 0
v -1.90942144 0.889000058 0
v -2.1039474 1.14300001 0
v -1.71671069 0.380999982 0
v -1.90942144 0.63500005 0
v -2.1039474 0.889000058 0
v -2.29847336 1.14300001 0
v -1.90942144 0.380999982 0
vt 0.03125 0
vt 0 0
vt 0 0.111111112
vt 0.03125 0.111111112
vt 0.0625 0
vt 0 0.222222224
vt 0.0625 0.111111112
vt 0.09375 0
vt 0.03125 0.222222224
vt 0 0.333333343
vt 0.09375 0.111111112
vt 0.125 0
vt 0.03125 0.333333343
vt 0 0.444444448
vt 0.0625 0.222222224
vt 0.03125 0.444444448
vt 0 0.555555582
vt 0.0625 0.333333343
vt 0.09375 0.222222224
vt 0.125 0.111111112
vt 0.03125 0.555555582
vt 0 0.666666687
vt 0.0625 0.444444448
vt 0.09375 0.333333343
vt 0.03125 0.666666687
vt 0 0.777777791
vt 0.0625 0.555555582
vt 0.03125 0.777777791
vt 0 0.888888896
vt 0.1875 0.111111112
vt 0.1875 0
vt 0.125 0.222222224
vt 0.1875 0.222222224
vt 0.125 0.333333343
vt 0.25 0.222222224
vt 0.25 0.111111112
vt 0.25 0
vt 0.3125 0.222222224
vt 0.09375 0.444444448
vt 0.125 0.444444448
vt 0.3125 0.111111112
vt 0.3125 0
vt 0.375 0.222222224
vt 0.09375 0.555555582
vt 0.125 0.555555582
vt 0.375 0.111111112
vt 0.375 0
vt 0.4375 0.222222224
vt 0.4375 0.111111112
vt 0.4375 0
vt 0.5 0.222222224
vt 0.5 0.111111112
vt 0.5 0
vt 0.5625 0.222222224
vt 0.5625 0.111111112
vt 0.5625 0
vt 0.625 0.222222224
vt 0.625 0.111111112
vt 0.625 0
vt 0.6875 0.222222224
vt 0.6875 0.111111112
vt 0.6875 0
vt 0.75 0.222222224
vt 0.75 0.111111112
vt 0.75 0
vt 0.8125 0.222222224
vt 0.8125 0.111111112
vt 0.8125 0
vt 0.875 0.222222224
vt 0.875 0.111111112
vt 0.875 0
vt 0.90625 0
vt 0.90625 0.111111112
vt 0.9375 0
vt 0.90625 0.222222224
vt 0.875 0.333333343
vt 0.9375 0.111111112
vt 0.96875 0
vt 0.90625 0.333333343
vt 0.875 0.444444448
vt 0.96875 0.111111112
vt 1 0
vt 1 0.111111112
vt 0.9375 0.222222224
vt 0.96875 0.222222224
vt 1 0.222222224
vt 0.90625 0.444444448
vt 0.875 0.555555582
vt 0.9375 0.333333343
vt 0.96875 0.333333343
vt 1 0.333333343
vt 0.90625 0.555555582
vt 0.875 0.666666687
vt 0.9375 0.444444448
vt 0.96875 0.444444448
vt 1 0.444444448
vt 0.90625 0.666666687
vt 0.875 0.777777791
vt 0.9375 0.555555582
vt 0.96875 0.555555582
vt 1 0.555555582
vt 0.9375 0.666666687
vt 0.96875 0.666666687
vt 1 0.666666687
vt 0.90625 0.777777791
vt 0.9375 0.777777791
vt 0.96875 0.777777791
vt 1 0.777777791
vt 0.875 0.888888896
vt 0.8125 0.777777791
vt 0.90625 0.888888896
vt 0.9375 0.888888896
vt 0.96875 0.888888896
vt 1 0.888888896
vt 0.96875 1
vt 1 1
vt 0.9375 1
vt 0.90625 1
vt 0.875 1
vt 0.8125 0.888888896
vt 0.75 0.777777791
vt 0.8125 1
vt 0.75 0.888888896
vt 0.6875 0.777777791
vt 0.75 1
vt 0.6875 0.888888896
vt 0.625 0.777777791
vt 0.6875 1
vt 0.625 0.888888896
vt 0.5625 0.777777791
vt 0.625 1
vt 0.5625 0.888888896
vt 0.5 0.777777791
vt 0.5625 1
vt 0.5 0.888888896
vt 0.4375 0.777777791
vt 0.5 1
vt 0.4375 0.888888896
vt 0.375 0.777777791
vt 0.4375 1
vt 0.375 0.888888896
vt 0.3125 0.777777791
vt 0.375 1
vt 0.3125 0.888888896
vt 0.25 0.777777791
vt 0.3125 1
vt 0.25 0.888888896
vt 0.1875 0.777777791
vt 0.25 1
vt 0.1875 0.888888896
vt 0.1875 1
vt 0.125 0.777777791
vt 0.125 0.888888896
vt 0.125 1
vt 0.09375 1
vt 0.09375 0.888888896
vt 0.0625 1
vt 0.09375 0.777777791
vt 0.125 0.666666687
vt 0.0625 0.888888896
vt 0.03125 1
vt 0.09375 0.666666687
vt 0.0625 0.777777791
vt 0.03125 0.888888896
vt 0 1
vt 0.0625 0.666666687
vn -0 0 1
vn -0 0 1
vn -0 0 1
vn -0 0 1
vn -0 0 1
vn -0 0 1
vn -0 0 1
vn -0 0 1
vn -0 0 1
vn -0 0 1
vn -0 0 1
vn -0 0 1
vn -0 0 1
vn -0 0 1
vn -0 0 1
vn -0 0 1
vn -0 0 1
vn -0 0 1
vn -0 0 1
vn -0 0 1
vn -0 0 1
vn -0 0 1
vn -0 0 1
vn -0 0 1
vn -0 0 1
vn -0 0 1
vn -0 0 1
vn -0 0 1
vn -0 0 1
vn -0 0 1
vn -0 0 1
vn -0 0 1
vn -0 0 1
vn -0 0 1
vn -0 0 1
vn -0 0 1
vn -0 0 1
vn -0 0 1
vn -0 0 1
vn -0 0 1
vn -0 0 1
vn -0 0 1
vn -0 0 1
vn -0 0 1
vn -0 0 1
vn -0 0 1
vn -0 0 1
vn -0 0 1
vn -0 0 1
vn -0 0 1
vn -0 0 1
vn -0 0 1
vn -0 0 1
vn -0 0 1
vn -0 0 1
vn -0 0 1
vn -0 0 1
vn -0 0 1
vn -0 0 1
vn -0 0 1
vn -0 0 1
vn -0 0 1
vn -0 0 1
vn -0 0 1
vn -0 0 1
vn -0 0 1
vn -0 0 1
vn -0 0 1
vn -0 0 1
vn -0 0 1
vn -0 0 1
vn -0 0 1
vn -0 0 1
vn -0 0 1
vn -0 0 1
vn -0 0 1
vn -0 0 1
vn -0 0 1
vn -0 0 1
vn -0 0 1
vn -0 0 1
vn -0 0 1
vn -0 0 1
vn -0 0 1
vn -0 0 1
vn -0 0 1
vn -0 0 1
vn -0 0 1
vn -0 0 1
vn -0 0 1
vn -0 0 1
vn -0 0 1
vn -0 0 1
vn -0 0 1
vn -0 0 1
vn -0 0 1
vn -0 0 1
vn -0 0 1
vn -0 0 1
vn -0 0 1
vn -0 0 1
vn -0 0 1
vn -0 0 1
vn -0 0 1
vn -0 0 1
vn -0 0 1
vn -0 0 1
vn -0 0 1
vn -0 0 1
vn -0 0 1
vn -0 0 1
vn -0 0 1
vn -0 0 1
vn -0 0 1
vn -0 0 1
vn -0 0 1
vn -0 0 1
vn -0 0 1
vn -0 0 1
vn -0 0 1
vn -0 0 1
vn -0 0 1
vn -0 0 1
vn -0 0 1
vn -0 0 1
vn -0 0 1
vn -0 0 1
vn -0 0 1
vn -0 0 1
vn -0 0 1
vn -0 0 1
vn -0 0 1
vn -0 0 1
vn -0 0 1
vn -0 0 1
vn -0 0 1
vn -0 0 1
vn -0 0 1
vn -0 0 1
vn -0 0 1
vn -0 0 1
vn -0 0 1
vn -0 0 1
vn -0 0 1
vn -0 0 1
vn -0 0 1
vn -0 0 1
vn -0 0 1
vn -0 0 1
vn -0 0 1
vn -0 0 1
vn -0 0 1
vn -0 0 1
vn -0 0 1
vn -0 0 1
vn -0 0 1
vn -0 0 1
vn -0 0 1
vn -0 0 1
vn -0 0 1
vn -0 0 1
vn -0 0 1
vn -0 0 1
vn -0 0 1
vn -0 0 1
vn -0 0 1
g Plane001_0
f 3/3/3 2/2/2 1/1/1
f 4/4/4 3/3/3 1/1/1
f 4/4/4 1/1/1 5/5/5
f 6/6/6 3/3/3 4/4/4
f 7/7/7 4/4/4 5/5/5
f 7/7/7 5/5/5 8/8/8
f 9/9/9 6/6/6 4/4/4
f 9/9/9 4/4/4 7/7/7
f 10/10/10 6/6/6 9/9/9
f 11/11/11 7/7/7 8/8/8
f 11/11/11 8/8/8 12/12/12
f 13/13/13 10/10/10 9/9/9
f 14/14/14 10/10/10 13/13/13
f 15/15/15 9/9/9 7/7/7
f 15/15/15 7/7/7 11/11/11
f 13/13/13 9/9/9 15/15/15
f 16/16/16 14/14/14 13/13/13
f 17/17/17 14/14/14 16/16/16
f 18/18/18 13/13/13 15/15/15
f 16/16/16 13/13/13 18/18/18
f 19/19/19 15/15/15 11/11/11
f 18/18/18 15/15/15 19/19/19
f 20/20/20 11/11/11 12/12/12
f 19/19/19 11/11/11 20/20/20
f 21/21/21 17/17/17 16/16/16
f 22/22/22 17/17/17 21/21/21
f 23/23/23 16/16/16 18/18/18
f 21/21/21 16/16/16 23/23/23
f 24/24/24 18/18/18 19/19/19
f 23/23/23 18/18/18 24/24/24
f 25/25/25 22/22/22 21/21/21
f 26/26/26 22/22/22 25/25/25
f 27/27/27 21/21/21 23/23/23
f 25/25/25 21/21/21 27/27/27
f 28/28/28 26/26/26 25/25/25
f 29/29/29 26/26/26 28/28/28
f 30/30/30 20/20/20 12/12/12
f 31/31/31 30/30/30 12/12/12
f 32/32/32 19/19/19 20/20/20
f 24/24/24 19/19/19 32/32/32
f 33/33/33 32/32/32 20/20/20
f 30/30/30 33/33/33 20/20/20
f 34/34/34 24/24/24 32/32/32
f 35/35/35 33/33/33 30/30/30
f 36/36/36 30/30/30 31/31/31
f 36/36/36 35/35/35 30/30/30
f 37/37/37 36/36/36 31/31/31
f 38/38/38 35/35/35 36/36/36
f 39/39/39 24/24/24 34/34/34
f 39/39/39 23/23/23 24/24/24
f 40/40/40 39/39/39 34/34/34
f 27/27/27 23/23/23 39/39/39
f 41/41/41 36/36/36 37/37/37
f 41/41/41 38/38/38 36/36/36
f 42/42/42 41/41/41 37/37/37
f 43/43/43 38/38/38 41/41/41
f 44/44/44 39/39/39 40/40/40
f 44/44/44 27/27/27 39/39/39
f 45/45/45 44/44/44 40/40/40
f 46/46/46 41/41/41 42/42/42
f 46/46/46 43/43/43 41/41/41
f 47/47/47 46/46/46 42/42/42
f 48/48/48 43/43/43 46/46/46
f 49/49/49 46/46/46 47/47/47
f 49/49/49 48/48/48 46/46/46
f 50/50/50 49/49/49 47/47/47
f 51/51/51 48/48/48 49/49/49
f 52/52/52 49/49/49 50/50/50
f 52/52/52 51/51/51 49/49/49
f 53/53/53 52/52/52 50/50/50
f 54/54/54 51/51/51 52/52/52
f 55/55/55 52/52/52 53/53/53
f 55/55/55 54/54/54 52/52/52
f 56/56/56 55/55/55 53/53/53
f 57/57/57 54/54/54 55/55/55
f 58/58/58 55/55/55 56/56/56
f 58/58/58 57/57/57 55/55/55
f 59/59/59 58/58/58 56/56/56
f 60/60/60 57/57/57 58/58/58
f 61/61/61 58/58/58 59/59/59
f 61/61/61 60/60/60 58/58/58
f 62/62/62 61/61/61 59/59/59
f 63/63/63 60/60/60 61/61/61
f 64/64/64 61/61/61 62/62/62
f 64/64/64 63/63/63 61/61/61
f 65/65/65 64/64/64 62/62/62
f 66/66/66 63/63/63 64/64/64
f 67/67/67 64/64/64 65/65/65
f 67/67/67 66/66/66 64/64/64
f 68/68/68 67/67/67 65/65/65
f 69/69/69 66/66/66 67/67/67
f 70/70/70 67/67/67 68/68/68
f 70/70/70 69/69/69 67/67/67
f 71/71/71 70/70/70 68/68/68
f 70/70/70 71/71/71 72/72/72
f 73/73/73 70/70/70 72/72/72
f 69/69/69 70/70/70 73/73/73
f 73/73/73 72/72/72 74/74/74
f 75/75/75 69/69/69 73/73/73
f 76/76/76 69/69/69 75/75/75
f 77/77/77 73/73/73 74/74/74
f 75/75/75 73/73/73 77/77/77
f 77/77/77 74/74/74 78/78/78
f 79/79/79 76/76/76 75/75/75
f 80/80/80 76/76/76 79/79/79
f 81/81/81 77/77/77 78/78/78
f 81/81/81 78/78/78 82/82/82
f 83/83/83 81/81/81 82/82/82
f 84/84/84 75/75/75 77/77/77
f 84/84/84 77/77/77 81/81/81
f 79/79/79 75/75/75 84/84/84
f 85/85/85 81/81/81 83/83/83
f 85/85/85 84/84/84 81/81/81
f 86/86/86 85/85/85 83/83/83
f 87/87/87 80/80/80 79/79/79
f 88/88/88 80/80/80 87/87/87
f 89/89/89 79/79/79 84/84/84
f 89/89/89 84/84/84 85/85/85
f 87/87/87 79/79/79 89/89/89
f 90/90/90 85/85/85 86/86/86
f 90/90/90 89/89/89 85/85/85
f 91/91/91 90/90/90 86/86/86
f 92/92/92 88/88/88 87/87/87
f 93/93/93 88/88/88 92/92/92
f 94/94/94 87/87/87 89/89/89
f 94/94/94 89/89/89 90/90/90
f 92/92/92 87/87/87 94/94/94
f 95/95/95 90/90/90 91/91/91
f 95/95/95 94/94/94 90/90/90
f 96/96/96 95/95/95 91/91/91
f 97/97/97 93/93/93 92/92/92
f 98/98/98 93/93/93 97/97/97
f 99/99/99 92/92/92 94/94/94
f 99/99/99 94/94/94 95/95/95
f 97/97/97 92/92/92 99/99/99
f 100/100/100 95/95/95 96/96/96
f 100/100/100 99/99/99 95/95/95
f 101/101/101 100/100/100 96/96/96
f 102/102/102 97/97/97 99/99/99
f 102/102/102 99/99/99 100/100/100
f 103/103/103 100/100/100 101/101/101
f 103/103/103 102/102/102 100/100/100
f 104/104/104 103/103/103 101/101/101
f 105/105/105 98/98/98 97/97/97
f 105/105/105 97/97/97 102/102/102
f 106/106/106 102/102/102 103/103/103
f 106/106/106 105/105/105 102/102/102
f 107/107/107 103/103/103 104/104/104
f 107/107/107 106/106/106 103/103/103
f 108/108/108 107/107/107 104/104/104
f 109/109/109 98/98/98 105/105/105
f 98/98/98 109/109/109 110/110/110
f 111/111/111 105/105/105 106/106/106
f 111/111/111 109/109/109 105/105/105
f 112/112/112 106/106/106 107/107/107
f 112/112/112 111/111/111 106/106/106
f 113/113/113 107/107/107 108/108/108
f 113/113/113 112/112/112 107/107/107
f 114/114/114 113/113/113 108/108/108
f 115/115/115 113/113/113 114/114/114
f 116/116/116 115/115/115 114/114/114
f 115/115/115 117/117/117 113/113/113
f 117/117/117 112/112/112 113/113/113
f 117/117/117 118/118/118 112/112/112
f 118/118/118 111/111/111 112/112/112
f 118/118/118 119/119/119 111/111/111
f 119/119/119 109/109/109 111/111/111
f 109/109/109 120/120/120 110/110/110
f 109/109/109 119/119/119 120/120/120
f 110/110/110 120/120/120 121/121/121
f 119/119/119 122/122/122 120/120/120
f 120/120/120 123/123/123 121/121/121
f 120/120/120 122/122/122 123/123/123
f 121/121/121 123/123/123 124/124/124
f 122/122/122 125/125/125 123/123/123
f 123/123/123 126/126/126 124/124/124
f 123/123/123 125/125/125 126/126/126
f 124/124/124 126/126/126 127/127/127
f 125/125/125 128/128/128 126/126/126
f 126/126/126 129/129/129 127/127/127
f 126/126/126 128/128/128 129/129/129
f 127/127/127 129/129/129 130/130/130
f 128/128/128 131/131/131 129/129/129
f 129/129/129 132/132/132 130/130/130
f 129/129/129 131/131/131 132/132/132
f 130/130/130 132/132/132 133/133/133
f 131/131/131 134/134/134 132/132/132
f 132/132/132 135/135/135 133/133/133
f 132/132/132 134/134/134 135/135/135
f 133/133/133 135/135/135 136/136/136
f 134/134/134 137/137/137 135/135/135
f 135/135/135 138/138/138 136/136/136
f 135/135/135 137/137/137 138/138/138
f 136/136/136 138/138/138 139/139/139
f 137/137/137 140/140/140 138/138/138
f 138/138/138 141/141/141 139/139/139
f 138/138/138 140/140/140 141/141/141
f 139/139/139 141/141/141 142/142/142
f 140/140/140 143/143/143 141/141/141
f 141/141/141 144/144/144 142/142/142
f 141/141/141 143/143/143 144/144/144
f 142/142/142 144/144/144 145/145/145
f 143/143/143 146/146/146 144/144/144
f 144/144/144 147/147/147 145/145/145
f 144/144/144 146/146/146 147/147/147
f 145/145/145 147/147/147 148/148/148
f 146/146/146 149/149/149 147/147/147
f 147/147/147 150/150/150 148/148/148
f 147/147/147 149/149/149 150/150/150
f 149/149/149 151/151/151 150/150/150
f 148/148/148 150/150/150 152/152/152
f 150/150/150 151/151/151 153/153/153
f 150/150/150 153/153/153 152/152/152
f 151/151/151 154/154/154 153/153/153
f 154/154/154 155/155/155 153/153/153
f 155/155/155 156/156/156 153/153/153
f 153/153/153 156/156/156 152/152/152
f 155/155/155 157/157/157 156/156/156
f 156/156/156 158/158/158 152/152/152
f 152/152/152 158/158/158 159/159/159
f 157/157/157 160/160/160 156/156/156
f 156/156/156 160/160/160 158/158/158
f 157/157/157 161/161/161 160/160/160
f 158/158/158 162/162/162 159/159/159
f 159/159/159 162/162/162 45/45/45
f 162/162/162 44/44/44 45/45/45
f 160/160/160 163/163/163 158/158/158
f 158/158/158 163/163/163 162/162/162
f 161/161/161 164/164/164 160/160/160
f 160/160/160 164/164/164 163/163/163
f 161/161/161 165/165/165 164/164/164
f 165/165/165 29/29/29 164/164/164
f 164/164/164 29/29/29 28/28/28
f 164/164/164 28/28/28 163/163/163
f 162/162/162 166/166/166 44/44/44
f 163/163/163 166/166/166 162/162/162
f 163/163/163 28/28/28 166/166/166
f 166/166/166 27/27/27 44/44/44
f 28/28/28 25/25/25 166/166/166
f 166/166/166 25/25/25 27/27/27
