g Plane002.001
v -0.486859918 -0.245311961 -4.38229044E-08
v -0.566601872 -0.103790984 -3.84936669E-08
v -0.588126183 -0.255459517 -5.06201054E-08
v -0.464177072 -0.10204415 -3.27520056E-08
v -0.329111248 -0.238387525 -3.41213031E-08
v -0.544578612 0.0513950735 -2.58330513E-08
v -0.303938568 -0.113373116 -2.46432563E-08
v -0.185628697 -0.234207258 -2.53452672E-08
v -0.456968069 0.0500037745 -2.16819522E-08
v -0.522056043 0.210098609 -1.26382291E-08
v -0.431210726 0.201912269 -9.41146006E-09
v -0.300183028 0.022022998 -1.54301851E-08
v -0.314749509 0.178727835 -5.57723112E-09
v -0.15789412 -0.127010852 -1.73361965E-08
v -0.0591671169 -0.232483149 -1.76710202E-08
v -0.149706945 -0.01049437 -9.60347268E-09
v -0.157439575 0.125726327 -1.29863487E-09
v -0.0288688652 -0.142377838 -1.1002701E-08
v 0.0488957576 -0.232759953 -1.11826308E-08
v -0.0163128283 -0.0440877043 -4.60884308E-09
v -0.0173560716 0.0722165927 2.29924813E-09
v 0.081730023 -0.158807844 -5.72747005E-09
v 0.138540849 -0.234494999 -5.87222138E-09
v 0.0985032469 -0.0779360309 -5.36725775E-10
v 0.103851184 0.0191047955 5.11284082E-09
v 0.173859268 -0.175644711 -1.51291424E-09
v 0.211045027 -0.237176999 -1.65076586E-09
v 0.194589019 -0.111320652 2.59565947E-09
v 0.205822349 -0.0328971557 7.10314252E-09
v 0.24870716 -0.192365274 1.70579084E-09
v 0.300993443 -0.251573086 1.81293502E-09
v 0.272933811 -0.143724278 4.8272133E-09
v 0.291334838 -0.0854287595 8.25237212E-09
v 0.332797229 -0.220114887 4.04872535E-09
v 0.374475002 -0.262644619 3.89655419E-09
v 0.352523953 -0.18566753 6.11270767E-09
v 0.3706204 -0.145317107 8.42824388E-09
v 0.397098064 -0.241800949 5.17878984E-09
v 0.420493752 -0.266689956 5.08954701E-09
v 0.410613805 -0.218712464 6.36619157E-09
v 0.425522387 -0.192597017 7.73043496E-09
v 0.435218692 -0.253783017 5.68140957E-09
v 0.450284421 -0.267323643 5.79486281E-09
v 0.44503811 -0.239849091 6.23558138E-09
v 0.456195354 -0.223950922 6.89070578E-09
v 0.45722568 -0.260485947 5.93588068E-09
v 0.467441708 -0.26444459 6.10036999E-09
v 0.469221562 -0.262848437 6.08662676E-09
v 0.464147568 -0.253525585 6.09432815E-09
v 0.471257627 -0.246245116 6.2751635E-09
v 0.471030086 -0.261226624 6.0787162E-09
v 0.472867191 -0.259579092 6.07663919E-09
vt 0.916503906 0.300292969
vt 0.999511719 0.440917969
vt 0.999511719 0.324707031
vt 0.916503906 0.434082031
vt 0.833496094 0.275878906
vt 0.999511719 0.559082031
vt 0.833496094 0.425292969
vt 0.749511719 0.250488281
vt 0.916503906 0.565917969
vt 0.999511719 0.675292969
vt 0.916503906 0.699707031
vt 0.833496094 0.574707031
vt 0.833496094 0.724121094
vt 0.749511719 0.417480469
vt 0.666503906 0.224121094
vt 0.749511719 0.582519531
vt 0.749511719 0.749511719
vt 0.666503906 0.407714844
vt 0.583496094 0.198730469
vt 0.666503906 0.592285156
vt 0.666503906 0.775878906
vt 0.583496094 0.399902344
vt 0.500488281 0.171386719
vt 0.583496094 0.600097656
vt 0.583496094 0.801269531
vt 0.500488281 0.391113281
vt 0.416503906 0.143066406
vt 0.500488281 0.608886719
vt 0.500488281 0.828613281
vt 0.416503906 0.381347656
vt 0.333496094 0.115722656
vt 0.416503906 0.618652344
vt 0.416503906 0.856933594
vt 0.333496094 0.372558594
vt 0.250488281 0.0874023438
vt 0.333496094 0.627441406
vt 0.333496094 0.884277344
vt 0.250488281 0.362792969
vt 0.166503906 0.0571289062
vt 0.250488281 0.637207031
vt 0.250488281 0.912597656
vt 0.166503906 0.353027344
vt 0.0834960938 0.0278320312
vt 0.166503906 0.646972656
vt 0.166503906 0.942871094
vt 0.0834960938 0.343261719
vt -0.00048828125 -0.00048828125
vt -0.00048828125 0.333496094
vt 0.0834960938 0.656738281
vt 0.0834960938 0.972167969
vt -0.00048828125 0.666503906
vt -0.00048828125 1.00048828
vn -0 0 -1
vn -0 0 -1
vn -0 0 -1
vn -0 0 -1
vn -0 0 -1
vn -0 0 -1
vn -0 0 -1
vn -0 0 -1
vn -0 0 -1
vn -0 0 -1
vn -0 0 -1
vn -0 0 -1
vn -0 0 -1
vn -0 0 -1
vn -0 0 -1
vn -0 0 -1
vn -0 0 -1
vn -0 0 -1
vn -0 0 -1
vn -0 0 -1
vn -0 0 -1
vn -0 0 -1
vn -0 0 -1
vn -0 0 -1
vn -0 0 -1
vn -0 0 -1
vn -0 0 -1
vn -0 0 -1
vn -0 0 -1
vn -0 0 -1
vn -0 0 -1
vn -0 0 -1
vn -0 0 -1
vn -0 0 -1
vn -0 0 -1
vn -0 0 -1
vn -0 0 -1
vn -0 0 -1
vn -0 0 -1
vn -0 0 -1
vn -0 0 -1
vn -0 0 -1
vn -0 0 -1
vn -0 0 -1
vn -0 0 -1
vn -0 0 -1
vn -0 0 -1
vn -0 0 -1
vn -0 0 -1
vn -0 0 -1
vn -0 0 -1
vn -0 0 -1
g Plane002.001_0
f 3/3/3 2/2/2 1/1/1
f 2/2/2 4/4/4 1/1/1
f 1/1/1 4/4/4 5/5/5
f 2/2/2 6/6/6 4/4/4
f 4/4/4 7/7/7 5/5/5
f 5/5/5 7/7/7 8/8/8
f 6/6/6 9/9/9 4/4/4
f 4/4/4 9/9/9 7/7/7
f 6/6/6 10/10/10 9/9/9
f 10/10/10 11/11/11 9/9/9
f 9/9/9 11/11/11 12/12/12
f 9/9/9 12/12/12 7/7/7
f 11/11/11 13/13/13 12/12/12
f 7/7/7 14/14/14 8/8/8
f 7/7/7 12/12/12 14/14/14
f 8/8/8 14/14/14 15/15/15
f 12/12/12 13/13/13 16/16/16
f 12/12/12 16/16/16 14/14/14
f 13/13/13 17/17/17 16/16/16
f 14/14/14 18/18/18 15/15/15
f 14/14/14 16/16/16 18/18/18
f 15/15/15 18/18/18 19/19/19
f 16/16/16 17/17/17 20/20/20
f 16/16/16 20/20/20 18/18/18
f 17/17/17 21/21/21 20/20/20
f 18/18/18 22/22/22 19/19/19
f 18/18/18 20/20/20 22/22/22
f 19/19/19 22/22/22 23/23/23
f 20/20/20 21/21/21 24/24/24
f 20/20/20 24/24/24 22/22/22
f 21/21/21 25/25/25 24/24/24
f 22/22/22 26/26/26 23/23/23
f 22/22/22 24/24/24 26/26/26
f 23/23/23 26/26/26 27/27/27
f 24/24/24 25/25/25 28/28/28
f 24/24/24 28/28/28 26/26/26
f 25/25/25 29/29/29 28/28/28
f 26/26/26 30/30/30 27/27/27
f 26/26/26 28/28/28 30/30/30
f 27/27/27 30/30/30 31/31/31
f 28/28/28 29/29/29 32/32/32
f 28/28/28 32/32/32 30/30/30
f 29/29/29 33/33/33 32/32/32
f 30/30/30 34/34/34 31/31/31
f 30/30/30 32/32/32 34/34/34
f 31/31/31 34/34/34 35/35/35
f 32/32/32 33/33/33 36/36/36
f 32/32/32 36/36/36 34/34/34
f 33/33/33 37/37/37 36/36/36
f 34/34/34 38/38/38 35/35/35
f 34/34/34 36/36/36 38/38/38
f 35/35/35 38/38/38 39/39/39
f 36/36/36 37/37/37 40/40/40
f 36/36/36 40/40/40 38/38/38
f 37/37/37 41/41/41 40/40/40
f 38/38/38 42/42/42 39/39/39
f 38/38/38 40/40/40 42/42/42
f 39/39/39 42/42/42 43/43/43
f 40/40/40 41/41/41 44/44/44
f 40/40/40 44/44/44 42/42/42
f 41/41/41 45/45/45 44/44/44
f 42/42/42 46/46/46 43/43/43
f 42/42/42 44/44/44 46/46/46
f 43/43/43 46/46/46 47/47/47
f 46/46/46 48/48/48 47/47/47
f 44/44/44 45/45/45 49/49/49
f 44/44/44 49/49/49 46/46/46
f 46/46/46 49/49/49 48/48/48
f 45/45/45 50/50/50 49/49/49
f 49/49/49 51/51/51 48/48/48
f 49/49/49 50/50/50 51/51/51
f 50/50/50 52/52/52 51/51/51
