g Plane001
v -0.761999965 0.63499999 -1.26999998E-06
v -1.26999998 -0.317499995 -1.26999998E-06
v -1.26999998 0.63499999 -1.26999998E-06
v -0.126999974 -0.317499995 -1.26999998E-06
v -0.761999965 1.26999998 -1.26999998E-06
v 0.254000008 1.26999998 -1.26999998E-06
v 0.254000008 0 -1.26999998E-06
vt 0.200000003 0.75
vt 0 0.375
vt 0 0.75
vt 0.450000018 0.375
vt 0.200000003 1
vt 0.600000024 1
vt 0.600000024 0.5
vn -0 0 1
vn -0 0 1
vn -0 0 1
vn -0 0 1
vn -0 0 1
vn -0 0 1
vn -0 0 1
g Plane001_0
f 3/3/3 2/2/2 1/1/1
f 2/2/2 4/4/4 1/1/1
f 4/4/4 5/5/5 1/1/1
f 6/6/6 5/5/5 4/4/4
f 7/7/7 6/6/6 4/4/4
