g 001
v -0.00622752681 0.884746969 0.0138054918
v 0.192557812 0.717614233 0.0931813419
v -0.0349839106 0.823092103 0.0657522529
v 0.228803277 0.803994715 0.0313982889
v 0.0206376929 0.95582962 -0.00750700291
v 0.45006904 0.704169989 0.0581560954
v 0.400120527 0.592330396 0.131883815
v 0.527303874 0.486318409 0.169796944
v 0.264942735 0.902830124 0.00207738648
v 0.0453414172 1.03624046 0.00184523617
v 0.299101502 1.01357925 0.00603292882
v 0.542388618 0.964534044 0.0202020314
v 0.497694045 0.828293979 0.0209118538
v 0.637779295 0.592596292 0.0921948105
v 0.744735956 0.714863896 0.0537986532
v 0.847103715 0.85300827 0.0542610958
v 1.10338771 0.679249763 0.11253988
v 0.784619331 0.44814831 0.142832905
v 0.618658721 0.358998179 0.220833048
v 0.692451537 0.185807645 0.29227972
v 0.946590245 0.55493629 0.107086174
v 0.89654994 0.264163136 0.210978106
v 1.09801435 0.361389071 0.17474471
v 1.29496276 0.478154808 0.182027474
v 1.4251188 0.243253082 0.267582655
v 0.955506384 0.0624589771 0.291122496
v 0.71573478 0.00555528095 0.373573124
v 0.70343262 -0.129454792 0.440064281
v 1.19249392 0.141673818 0.256478071
v 0.979633987 -0.129779086 0.370491266
v 1.25404978 -0.103748508 0.350476146
v 1.52488828 -0.0514139161 0.377370596
v 1.5630821 -0.354345232 0.49659726
v 0.966194093 -0.319625348 0.455630898
v 0.665460706 -0.259109169 0.510533392
v 0.525996745 -0.565937161 0.694616497
v 1.26580179 -0.351419061 0.452113718
v 0.856144428 -0.703356087 0.648509264
v 0.323253334 -0.821653903 0.88814038
v 1.18927038 -0.807088912 0.657844543
v 1.52444923 -0.876978636 0.718184531
v 0.662919998 -1.04360664 0.854861081
v 0.0812977478 -1.0232873 1.09042037
v 1.01129413 -1.22719955 0.880396843
v 1.36808622 -1.37246835 0.959301114
v 0.410780936 -1.3321507 1.07465756
v -0.181127891 -1.17414534 1.30111098
v 0.756547809 -1.59860802 1.1203053
v 1.11919057 -1.823174 1.22097862
v 0.119778737 -1.56774211 1.30836964
v -0.450831205 -1.28134096 1.51991045
v 0.446503162 -1.9159348 1.3787986
v 0.800727487 -2.22009277 1.50512946
v -0.194744706 -1.75363135 1.55652809
v -0.819727778 -1.37546217 1.83108199
v 0.098668009 -2.17907739 1.65721488
v 0.432274371 -2.56030393 1.81383002
v -0.552458525 -1.89257264 1.84414232
v -1.08780193 -1.37565732 2.07543445
v -0.240672126 -2.36474323 1.92858124
v 0.118553616 -2.79489231 2.07451463
v -0.886124969 -1.9643954 2.12740397
v -1.33855844 -1.35252154 2.3265574
v -0.626455188 -2.5098803 2.25066376
v -0.304621726 -3.01691484 2.43432164
v -1.21245134 -2.00020719 2.42600393
v -1.73187494 -1.26368511 2.77312756
v -1.01344502 -2.60892415 2.59582591
v -0.736290872 -3.18571973 2.82399344
v -1.69410706 -1.97894454 2.92015004
v -2.07596755 -1.11134827 3.24453068
v -1.56392574 -2.66542196 3.13949537
v -1.33524418 -3.33313298 3.41681981
v -2.13528419 -1.87783134 3.45304155
v -2.40494704 -0.88656354 3.80734277
v -2.08249474 -2.63006449 3.73522043
v -1.91099727 -3.38145089 4.07407951
v -2.53340983 -1.69952691 4.04184008
v -2.59446645 -0.675040364 4.2557888
v -2.53530288 -2.51337075 4.3560195
v -2.40406632 -3.34430432 4.7302742
v -2.85676718 -1.48655248 4.62948799
v -2.779284 -0.358774602 4.86327648
v -2.97002125 -2.32627225 5.07965136
v -2.92786288 -3.21485591 5.58341312
v -3.11560369 -1.19005454 5.28531218
v -2.89297056 -0.0161028933 5.4930768
v -3.29086804 -2.07007003 5.79091024
v -3.29911327 -3.02272415 6.35499573
v -3.30758882 -0.860520124 5.97059011
v -2.91172814 0.301074654 6.0510602
v -3.54979682 -1.77519894 6.54006338
v -3.61409807 -2.78767228 7.17483807
v -3.41501021 -0.505823314 6.65533495
v -2.88070703 0.623462796 6.61523867
v -3.7328136 -1.41442549 7.35703135
v -3.85995197 -2.45637655 8.12762165
v -3.45590639 -0.126761451 7.35842991
v -2.7729547 1.01421928 7.26412535
v -3.83473182 -1.01282775 8.20691967
v -4.01186705 -2.07066321 9.13071537
v -3.40472078 0.29742679 8.08940506
v -2.58621383 1.41655612 7.90725756
v -3.83269048 -0.580806315 9.0335207
v -4.0510397 -1.66090536 10.0676289
v -3.27252221 0.743028164 8.82181454
v -2.34084868 1.82271063 8.54848862
v -3.74721813 -0.117461048 9.87083817
v -4.00343418 -1.21043205 11.0279818
v -3.0683012 1.20674539 9.55404472
v -2.01613784 2.24119949 9.16877747
v -3.57743669 0.378416806 10.7108946
v -3.85976195 -0.713211477 11.9965811
v -2.78045177 1.6934582 10.2708006
v -1.65851808 2.59066463 9.67149162
v -3.31892562 0.908665478 11.542737
v -3.62074947 -0.170088843 12.9675961
v -2.41173196 2.18076611 10.930871
v -1.28005731 2.94685841 10.1720057
v -2.93508053 1.49900532 12.379343
v -3.2133944 0.482480615 14.0040321
v -1.99329281 2.68871427 11.5796432
v -0.697901785 3.45504642 10.7720709
v -2.47565389 2.1256988 13.1976032
v -2.70663238 1.1885587 15.0180817
v -1.44967973 3.24907303 12.2070103
v -0.203049228 3.82069397 11.1936388
v -1.96097994 2.72995234 13.8722725
v -2.20852113 1.82281137 15.7726583
v -0.877877772 3.79482031 12.7529516
v 0.638039529 4.43012476 11.7740879
v -1.31518352 3.42908144 14.5645313
v -1.48545563 2.64312768 16.6404686
v 0.0154546769 4.58124828 13.4040318
v 1.63469899 5.13070297 12.2815533
v 1.02513659 5.43282795 13.9422121
v -0.369030952 4.37773418 15.3113165
v -0.480080754 3.73434711 17.5238476
v 0.659555674 5.37747622 15.9004622
v 0.577465534 4.87737656 18.2043247
vt 0.00238792296 0.335727483
vt 0.0117583461 0.000809897669
vt 0.00238792296 0.000809897669
vt 0.0117583461 0.335727483
vt 0.00238792296 0.663471282
vt 0.0217693616 0.335727483
vt 0.0217693616 0.000809897669
vt 0.0322778709 0.000809897669
vt 0.0117583461 0.663471282
vt 0.00238792296 0.997829378
vt 0.0117583461 0.997829378
vt 0.0217693616 0.997829378
vt 0.0217693616 0.663471282
vt 0.0322778709 0.335727483
vt 0.0322778709 0.663471282
vt 0.0322778709 0.997829378
vt 0.0430526808 0.997829378
vt 0.0430526808 0.335727483
vt 0.0430526808 0.000809897669
vt 0.0542484336 0.000809897669
vt 0.0430526808 0.663471282
vt 0.0542484336 0.335727483
vt 0.0542484336 0.663471282
vt 0.0542484336 0.997829378
vt 0.0653213561 0.997829378
vt 0.0653213561 0.335727483
vt 0.0653213561 0.000809897669
vt 0.0762245804 0.000809897669
vt 0.0653213561 0.663471282
vt 0.0762245804 0.335727483
vt 0.0762245804 0.663471282
vt 0.0762245804 0.997829378
vt 0.0871870369 0.997829378
vt 0.0871870369 0.335727483
vt 0.0871870369 0.000809897669
vt 0.110629864 0.000809897669
vt 0.0871870369 0.663471282
vt 0.110629864 0.335727483
vt 0.13447468 0.000809897669
vt 0.110629864 0.663471282
vt 0.110629864 0.997829378
vt 0.13447468 0.335727483
vt 0.15839386 0.000809897669
vt 0.13447468 0.663471282
vt 0.13447468 0.997829378
vt 0.15839386 0.335727483
vt 0.18235366 0.000809897669
vt 0.15839386 0.663471282
vt 0.15839386 0.997829378
vt 0.18235366 0.335727483
vt 0.206463829 0.000809897669
vt 0.18235366 0.663471282
vt 0.18235366 0.997829378
vt 0.206463829 0.335727483
vt 0.23053278 0.000809897669
vt 0.206463829 0.663471282
vt 0.206463829 0.997829378
vt 0.23053278 0.335727483
vt 0.254966199 0.000809897669
vt 0.23053278 0.663471282
vt 0.23053278 0.997829378
vt 0.254966199 0.335727483
vt 0.279685229 0.000809897669
vt 0.254966199 0.663471282
vt 0.254966199 0.997829378
vt 0.279685229 0.335727483
vt 0.317107737 0.000809897669
vt 0.279685229 0.663471282
vt 0.279685229 0.997829378
vt 0.317107737 0.335727483
vt 0.354782075 0.000809897669
vt 0.317107737 0.663471282
vt 0.317107737 0.997829378
vt 0.354782075 0.335727483
vt 0.392632008 0.000809897669
vt 0.354782075 0.663471282
vt 0.354782075 0.997829378
vt 0.392632008 0.335727483
vt 0.430962145 0.000809897669
vt 0.392632008 0.663471282
vt 0.392632008 0.997829378
vt 0.430962145 0.335727483
vt 0.469389915 0.000809897669
vt 0.430962145 0.663471282
vt 0.430962145 0.997829378
vt 0.469389915 0.335727483
vt 0.507964313 0.000809897669
vt 0.469389915 0.663471282
vt 0.469389915 0.997829378
vt 0.507964313 0.335727483
vt 0.54680872 0.000809897669
vt 0.507964313 0.663471282
vt 0.507964313 0.997829378
vt 0.54680872 0.335727483
vt 0.585830033 0.000809897669
vt 0.54680872 0.663471282
vt 0.54680872 0.997829378
vt 0.585830033 0.335727483
vt 0.62493664 0.000809897669
vt 0.585830033 0.663471282
vt 0.585830033 0.997829378
vt 0.62493664 0.335727483
vt 0.664069176 0.000809897669
vt 0.62493664 0.663471282
vt 0.62493664 0.997829378
vt 0.664069176 0.335727483
vt 0.703209281 0.000809897669
vt 0.664069176 0.663471282
vt 0.664069176 0.997829378
vt 0.703209281 0.335727483
vt 0.742426813 0.000809897669
vt 0.703209281 0.663471282
vt 0.703209281 0.997829378
vt 0.742426813 0.335727483
vt 0.781612635 0.000809897669
vt 0.742426813 0.663471282
vt 0.742426813 0.997829378
vt 0.781612635 0.335727483
vt 0.820652962 0.000809897669
vt 0.781612635 0.663471282
vt 0.781612635 0.997829378
vt 0.820652962 0.335727483
vt 0.859289408 0.000809897669
vt 0.820652962 0.663471282
vt 0.820652962 0.997829378
vt 0.859289408 0.335727483
vt 0.89769268 0.000809897669
vt 0.859289408 0.663471282
vt 0.859289408 0.997829378
vt 0.89769268 0.335727483
vt 0.947823882 0.000809897669
vt 0.89769268 0.663471282
vt 0.89769268 0.997829378
vt 0.947823882 0.335727483
vt 0.996971786 0.000809897669
vt 0.996971786 0.335727483
vt 0.947823882 0.663471282
vt 0.947823882 0.997829378
vt 0.996971786 0.663471282
vt 0.996971786 0.997829378
vn 0.08714059 0.42806375 0.899537683
vn 0.14410831 0.536720693 0.831362545
vn 0.146711931 0.561320662 0.814490438
vn 0.0798377991 0.410646588 0.908292592
vn -0.00472373469 0.123112842 0.992381394
vn 0.0730202124 0.395488113 0.915563881
vn 0.142504588 0.50150764 0.853336096
vn 0.152342528 0.477614462 0.86526078
vn -0.0183829777 0.123829938 0.9921332
vn -0.0364320315 -0.0582333021 0.997637987
vn -0.0533374213 -0.0215611942 0.998343706
vn -0.0833049417 0.0316722654 0.996020615
vn -0.0399332866 0.155651256 0.987004578
vn 0.0694827884 0.386907339 0.919497132
vn -0.0674804673 0.189057544 0.979644656
vn -0.126414806 0.0931370929 0.987595439
vn -0.158322215 0.162940323 0.973850369
vn 0.0766109526 0.386443466 0.919125736
vn 0.171227142 0.451236635 0.875823438
vn 0.191497803 0.426591963 0.883938849
vn -0.0868516341 0.236874565 0.967650294
vn 0.0887149051 0.387802035 0.917463481
vn -0.0915175304 0.28501603 0.954143822
vn -0.170453399 0.230282247 0.958079219
vn -0.169155166 0.284341931 0.943682313
vn 0.107364178 0.3900581 0.914509475
vn 0.210351408 0.409476608 0.88773936
vn 0.226756155 0.398831815 0.888546467
vn -0.0823379755 0.325175136 0.942062438
vn 0.123890609 0.392609507 0.911322594
vn -0.0674256086 0.356868953 0.931717932
vn -0.155161247 0.332170635 0.930369616
vn -0.123883896 0.384317786 0.914851189
vn 0.149710953 0.39938572 0.904476523
vn 0.250210375 0.390766054 0.885830998
vn 0.287989944 0.383739889 0.877385676
vn -0.0379059762 0.393856078 0.918390155
vn 0.192272574 0.407412767 0.892774343
vn 0.336835235 0.37707451 0.862761199
vn 0.0143433344 0.431899875 0.901807487
vn -0.0671411008 0.436953366 0.896974802
vn 0.248625368 0.413757265 0.875779808
vn 0.391123831 0.368108124 0.843515575
vn 0.0830085352 0.465219885 0.881294489
vn 0.00550345983 0.482986808 0.875610352
vn 0.310638726 0.415126473 0.855086863
vn 0.447846264 0.353855312 0.821109056
vn 0.157744601 0.488003284 0.858469248
vn 0.0853072256 0.516331851 0.852129221
vn 0.375472009 0.409530163 0.831447959
vn 0.508129895 0.334237933 0.793781459
vn 0.235459149 0.500285864 0.833230495
vn 0.168885037 0.537492394 0.826183856
vn 0.444174528 0.397474855 0.80294621
vn 0.578654289 0.310919315 0.753981709
vn 0.316017449 0.501496077 0.805378556
vn 0.254046738 0.544030666 0.799681723
vn 0.517668307 0.380610138 0.766260743
vn 0.639377952 0.278961062 0.716503024
vn 0.400031 0.495290667 0.771143615
vn 0.339777172 0.543145001 0.767818332
vn 0.586467505 0.354025275 0.728506684
vn 0.698967934 0.231807232 0.676542103
vn 0.480558634 0.4806315 0.733523428
vn 0.427351683 0.534826517 0.728924751
vn 0.65561837 0.313724279 0.686834514
vn 0.76554513 0.16644609 0.621479154
vn 0.56473577 0.452749491 0.68999368
vn 0.519648075 0.51178503 0.684135854
vn 0.734203458 0.254622281 0.629374921
vn 0.826306701 0.0869430155 0.556469321
vn 0.661414802 0.406197995 0.630502701
vn 0.624915898 0.47007376 0.623306334
vn 0.807967126 0.179105982 0.56134671
vn 0.872115314 -0.000163829318 0.48930034
vn 0.754423857 0.341775239 0.560387731
vn 0.725372314 0.410348296 0.552674592
vn 0.864291966 0.0970975086 0.493529588
vn 0.900501788 -0.091123566 0.425197691
vn 0.829053104 0.269684225 0.489838064
vn 0.807075679 0.34346801 0.480269313
vn 0.9061535 0.00697757863 0.422891617
vn 0.913515985 -0.186403975 0.361582845
vn 0.892450213 0.186843678 0.410636157
vn 0.880859673 0.261125863 0.394841105
vn 0.931187272 -0.0885859132 0.353613824
vn 0.911806405 -0.278873265 0.301394582
vn 0.936907291 0.0973554775 0.335747987
vn 0.929916024 0.178417683 0.321594864
vn 0.939675927 -0.178630739 0.291719705
vn 0.895743549 -0.3658382 0.252598315
vn 0.96315819 0.0119094923 0.268671751
vn 0.963987291 0.0935164988 0.24896428
vn 0.934038162 -0.267231554 0.236981139
vn 0.868332863 -0.446705878 0.215526968
vn 0.976786554 -0.0749802515 0.200663477
vn 0.984710515 0.00749052642 0.17403771
vn 0.916776836 -0.351712614 0.189257786
vn 0.831720293 -0.525643945 0.178716868
vn 0.977394879 -0.16119501 0.13680461
vn 0.991468549 -0.0795476884 0.1032589
vn 0.889022946 -0.43434611 0.144850448
vn 0.790596306 -0.592695534 0.153849095
vn 0.966052413 -0.245491251 0.0804782808
vn 0.986044526 -0.160505727 0.0442052297
vn 0.85568136 -0.504691362 0.114438064
vn 0.745881736 -0.651345015 0.139320403
vn 0.9469468 -0.319185078 0.0375845432
vn 0.972035408 -0.23479262 -0.00442445837
vn 0.818100214 -0.567637086 0.0921958387
vn 0.69210726 -0.710365951 0.127936378
vn 0.9214679 -0.388453156 0.000949130976
vn 0.951230943 -0.304890633 -0.0469183251
vn 0.772234142 -0.63112247 0.0730677545
vn 0.642392039 -0.754583836 0.133924574
vn 0.887906432 -0.458747298 -0.034250129
vn 0.920586526 -0.379725873 -0.0912620425
vn 0.728222966 -0.681572437 0.0717652142
vn 0.602398753 -0.782740474 0.15631038
vn 0.853284121 -0.518302202 -0.0571751222
vn 0.889623165 -0.440027297 -0.122256882
vn 0.690780163 -0.718591869 0.0803027898
vn 0.557275355 -0.811192334 0.177231565
vn 0.819333434 -0.569070399 -0.0696534887
vn 0.857172728 -0.495250881 -0.14135544
vn 0.64736706 -0.756590307 0.0921248496
vn 0.519235015 -0.828326464 0.210405141
vn 0.782016933 -0.618840814 -0.0740648061
vn 0.822672248 -0.547449589 -0.153327256
vn 0.613170266 -0.781139791 0.117655799
vn 0.494011343 -0.828914225 0.262400508
vn 0.748144865 -0.659965575 -0.0687372908
vn 0.787612438 -0.596234739 -0.155469447
vn 0.585692823 -0.794842958 0.158709154
vn 0.483895153 -0.824015796 0.29469201
vn 0.582698882 -0.794445634 0.171225205
vn 0.717987359 -0.694422424 -0.0476613715
vn 0.758846998 -0.635617733 -0.141920537
vn 0.710811675 -0.701996088 -0.0441378765
vn 0.748302579 -0.64997685 -0.132564366
g 001_0
f 3/3/3 2/2/2 1/1/1
f 2/2/2 4/4/4 1/1/1
f 1/1/1 4/4/4 5/5/5
f 6/6/6 4/4/4 2/2/2
f 7/7/7 6/6/6 2/2/2
f 7/7/7 8/8/8 6/6/6
f 4/4/4 9/9/9 5/5/5
f 5/5/5 9/9/9 10/10/10
f 9/9/9 11/11/11 10/10/10
f 12/12/12 11/11/11 9/9/9
f 13/13/13 9/9/9 4/4/4
f 6/6/6 13/13/13 4/4/4
f 13/13/13 12/12/12 9/9/9
f 8/8/8 14/14/14 6/6/6
f 6/6/6 14/14/14 13/13/13
f 13/13/13 15/15/15 12/12/12
f 14/14/14 15/15/15 13/13/13
f 15/15/15 16/16/16 12/12/12
f 17/17/17 16/16/16 15/15/15
f 18/18/18 14/14/14 8/8/8
f 19/19/19 18/18/18 8/8/8
f 19/19/19 20/20/20 18/18/18
f 21/21/21 15/15/15 14/14/14
f 21/21/21 17/17/17 15/15/15
f 18/18/18 21/21/21 14/14/14
f 20/20/20 22/22/22 18/18/18
f 18/18/18 22/22/22 21/21/21
f 21/21/21 23/23/23 17/17/17
f 22/22/22 23/23/23 21/21/21
f 23/23/23 24/24/24 17/17/17
f 25/25/25 24/24/24 23/23/23
f 26/26/26 22/22/22 20/20/20
f 27/27/27 26/26/26 20/20/20
f 27/27/27 28/28/28 26/26/26
f 29/29/29 23/23/23 22/22/22
f 29/29/29 25/25/25 23/23/23
f 26/26/26 29/29/29 22/22/22
f 28/28/28 30/30/30 26/26/26
f 26/26/26 30/30/30 29/29/29
f 29/29/29 31/31/31 25/25/25
f 30/30/30 31/31/31 29/29/29
f 31/31/31 32/32/32 25/25/25
f 33/33/33 32/32/32 31/31/31
f 34/34/34 30/30/30 28/28/28
f 35/35/35 34/34/34 28/28/28
f 35/35/35 36/36/36 34/34/34
f 37/37/37 31/31/31 30/30/30
f 37/37/37 33/33/33 31/31/31
f 34/34/34 37/37/37 30/30/30
f 36/36/36 38/38/38 34/34/34
f 34/34/34 38/38/38 37/37/37
f 36/36/36 39/39/39 38/38/38
f 37/37/37 40/40/40 33/33/33
f 38/38/38 40/40/40 37/37/37
f 40/40/40 41/41/41 33/33/33
f 39/39/39 42/42/42 38/38/38
f 38/38/38 42/42/42 40/40/40
f 39/39/39 43/43/43 42/42/42
f 40/40/40 44/44/44 41/41/41
f 42/42/42 44/44/44 40/40/40
f 44/44/44 45/45/45 41/41/41
f 43/43/43 46/46/46 42/42/42
f 42/42/42 46/46/46 44/44/44
f 43/43/43 47/47/47 46/46/46
f 44/44/44 48/48/48 45/45/45
f 46/46/46 48/48/48 44/44/44
f 48/48/48 49/49/49 45/45/45
f 47/47/47 50/50/50 46/46/46
f 46/46/46 50/50/50 48/48/48
f 47/47/47 51/51/51 50/50/50
f 48/48/48 52/52/52 49/49/49
f 50/50/50 52/52/52 48/48/48
f 52/52/52 53/53/53 49/49/49
f 51/51/51 54/54/54 50/50/50
f 50/50/50 54/54/54 52/52/52
f 51/51/51 55/55/55 54/54/54
f 52/52/52 56/56/56 53/53/53
f 54/54/54 56/56/56 52/52/52
f 56/56/56 57/57/57 53/53/53
f 55/55/55 58/58/58 54/54/54
f 54/54/54 58/58/58 56/56/56
f 55/55/55 59/59/59 58/58/58
f 56/56/56 60/60/60 57/57/57
f 58/58/58 60/60/60 56/56/56
f 60/60/60 61/61/61 57/57/57
f 59/59/59 62/62/62 58/58/58
f 58/58/58 62/62/62 60/60/60
f 59/59/59 63/63/63 62/62/62
f 60/60/60 64/64/64 61/61/61
f 62/62/62 64/64/64 60/60/60
f 64/64/64 65/65/65 61/61/61
f 63/63/63 66/66/66 62/62/62
f 62/62/62 66/66/66 64/64/64
f 63/63/63 67/67/67 66/66/66
f 64/64/64 68/68/68 65/65/65
f 66/66/66 68/68/68 64/64/64
f 68/68/68 69/69/69 65/65/65
f 67/67/67 70/70/70 66/66/66
f 66/66/66 70/70/70 68/68/68
f 67/67/67 71/71/71 70/70/70
f 68/68/68 72/72/72 69/69/69
f 70/70/70 72/72/72 68/68/68
f 72/72/72 73/73/73 69/69/69
f 71/71/71 74/74/74 70/70/70
f 70/70/70 74/74/74 72/72/72
f 71/71/71 75/75/75 74/74/74
f 72/72/72 76/76/76 73/73/73
f 74/74/74 76/76/76 72/72/72
f 76/76/76 77/77/77 73/73/73
f 75/75/75 78/78/78 74/74/74
f 74/74/74 78/78/78 76/76/76
f 75/75/75 79/79/79 78/78/78
f 76/76/76 80/80/80 77/77/77
f 78/78/78 80/80/80 76/76/76
f 80/80/80 81/81/81 77/77/77
f 79/79/79 82/82/82 78/78/78
f 78/78/78 82/82/82 80/80/80
f 79/79/79 83/83/83 82/82/82
f 80/80/80 84/84/84 81/81/81
f 82/82/82 84/84/84 80/80/80
f 84/84/84 85/85/85 81/81/81
f 83/83/83 86/86/86 82/82/82
f 82/82/82 86/86/86 84/84/84
f 83/83/83 87/87/87 86/86/86
f 84/84/84 88/88/88 85/85/85
f 86/86/86 88/88/88 84/84/84
f 88/88/88 89/89/89 85/85/85
f 87/87/87 90/90/90 86/86/86
f 86/86/86 90/90/90 88/88/88
f 87/87/87 91/91/91 90/90/90
f 88/88/88 92/92/92 89/89/89
f 90/90/90 92/92/92 88/88/88
f 92/92/92 93/93/93 89/89/89
f 91/91/91 94/94/94 90/90/90
f 90/90/90 94/94/94 92/92/92
f 91/91/91 95/95/95 94/94/94
f 92/92/92 96/96/96 93/93/93
f 94/94/94 96/96/96 92/92/92
f 96/96/96 97/97/97 93/93/93
f 95/95/95 98/98/98 94/94/94
f 94/94/94 98/98/98 96/96/96
f 95/95/95 99/99/99 98/98/98
f 96/96/96 100/100/100 97/97/97
f 98/98/98 100/100/100 96/96/96
f 100/100/100 101/101/101 97/97/97
f 99/99/99 102/102/102 98/98/98
f 98/98/98 102/102/102 100/100/100
f 99/99/99 103/103/103 102/102/102
f 100/100/100 104/104/104 101/101/101
f 102/102/102 104/104/104 100/100/100
f 104/104/104 105/105/105 101/101/101
f 103/103/103 106/106/106 102/102/102
f 102/102/102 106/106/106 104/104/104
f 103/103/103 107/107/107 106/106/106
f 104/104/104 108/108/108 105/105/105
f 106/106/106 108/108/108 104/104/104
f 108/108/108 109/109/109 105/105/105
f 107/107/107 110/110/110 106/106/106
f 106/106/106 110/110/110 108/108/108
f 107/107/107 111/111/111 110/110/110
f 108/108/108 112/112/112 109/109/109
f 110/110/110 112/112/112 108/108/108
f 112/112/112 113/113/113 109/109/109
f 111/111/111 114/114/114 110/110/110
f 110/110/110 114/114/114 112/112/112
f 111/111/111 115/115/115 114/114/114
f 112/112/112 116/116/116 113/113/113
f 114/114/114 116/116/116 112/112/112
f 116/116/116 117/117/117 113/113/113
f 115/115/115 118/118/118 114/114/114
f 114/114/114 118/118/118 116/116/116
f 115/115/115 119/119/119 118/118/118
f 116/116/116 120/120/120 117/117/117
f 118/118/118 120/120/120 116/116/116
f 120/120/120 121/121/121 117/117/117
f 119/119/119 122/122/122 118/118/118
f 118/118/118 122/122/122 120/120/120
f 119/119/119 123/123/123 122/122/122
f 120/120/120 124/124/124 121/121/121
f 122/122/122 124/124/124 120/120/120
f 124/124/124 125/125/125 121/121/121
f 123/123/123 126/126/126 122/122/122
f 122/122/122 126/126/126 124/124/124
f 123/123/123 127/127/127 126/126/126
f 124/124/124 128/128/128 125/125/125
f 126/126/126 128/128/128 124/124/124
f 128/128/128 129/129/129 125/125/125
f 127/127/127 130/130/130 126/126/126
f 126/126/126 130/130/130 128/128/128
f 127/127/127 131/131/131 130/130/130
f 128/128/128 132/132/132 129/129/129
f 130/130/130 132/132/132 128/128/128
f 132/132/132 133/133/133 129/129/129
f 131/131/131 134/134/134 130/130/130
f 130/130/130 134/134/134 132/132/132
f 131/131/131 135/135/135 134/134/134
f 135/135/135 136/136/136 134/134/134
f 132/132/132 137/137/137 133/133/133
f 134/134/134 137/137/137 132/132/132
f 134/134/134 136/136/136 137/137/137
f 137/137/137 138/138/138 133/133/133
f 136/136/136 139/139/139 137/137/137
f 137/137/137 139/139/139 138/138/138
f 139/139/139 140/140/140 138/138/138
