g cash_01
v 0.489957452 -0.25 0.00597176701
v 0.559951425 0.25 2.63383445E-05
v 0.559951425 -0.25 2.63383445E-05
v 0.489957452 0.25 0.00597176701
v 0.419963568 -0.25 0.0210569538
v 0.419963568 0.25 0.0210569538
v 0.349969625 -0.25 0.0434412397
v 0.349969625 0.25 0.0434412397
v 0.279975712 -0.25 0.0712839961
v 0.279975712 0.25 0.0712839961
v 0.209981784 -0.25 0.102744527
v 0.209981784 0.25 0.102744527
v 0.139987856 -0.25 0.135982215
v 0.139987856 0.25 0.135982215
v 0.0699939281 -0.25 0.169156402
v 0.0699939281 0.25 0.169156402
v -0 -0.25 0.200426385
v -0 0.25 0.200426385
v -0.0699939281 -0.25 0.227951646
v -0.0699939281 0.25 0.227951646
v -0.139987856 -0.25 0.24989146
v -0.139987856 0.25 0.24989146
v -0.209981784 -0.25 0.264405072
v -0.209981784 0.25 0.264405072
v -0.279975712 -0.25 0.269652039
v -0.279975712 0.25 0.269652039
v -0.349969625 -0.25 0.264405072
v -0.349969625 0.25 0.264405072
v -0.419963568 -0.25 0.24989146
v -0.419963568 0.25 0.24989146
v -0.489957452 -0.25 0.227951646
v -0.489957452 0.25 0.227951646
v -0.559951425 -0.25 0.200426385
v -0.559951425 0.25 0.200426385
vt 0.9375 0
vt 1 1
vt 1 0
vt 0.9375 1
vt 0.875 0
vt 0.875 1
vt 0.8125 0
vt 0.8125 1
vt 0.75 0
vt 0.75 1
vt 0.6875 0
vt 0.6875 1
vt 0.625 0
vt 0.625 1
vt 0.5625 0
vt 0.5625 1
vt 0.49999997 0
vt 0.5 1
vt 0.43749997 0
vt 0.4375 1
vt 0.375 0
vt 0.375 1
vt 0.3125 0
vt 0.3125 1
vt 0.25 0
vt 0.25 1
vt 0.1875 0
vt 0.1875 1
vt 0.125 0
vt 0.124999993 1
vt 0.0625 0
vt 0.0624999963 1
vt 0 0
vt 0 1
vn 0.148564547 0 0.988902748
vn 0.0846372321 0 0.99641186
vn 0.0846372321 0 0.99641186
vn 0.148564547 0 0.988902748
vn 0.258560479 0 0.965995014
vn 0.258560479 0 0.965995014
vn 0.337715805 0 0.941248178
vn 0.337715805 0 0.941248178
vn 0.39007321 0 0.920783877
vn 0.39007321 0 0.920783877
vn 0.419530869 0 0.90774101
vn 0.419530869 0 0.90774101
vn 0.42862308 0 0.90348345
vn 0.42862308 0 0.90348345
vn 0.418172002 0 0.908367813
vn 0.418172002 0 0.908367813
vn 0.38723442 0 0.921981275
vn 0.38723442 0 0.921981275
vn 0.333165079 0 0.942868531
vn 0.333165079 0 0.942868531
vn 0.252000242 0 0.967727125
vn 0.252000242 0 0.967727125
vn 0.139773548 0 0.990183532
vn 0.139773548 0 0.990183532
vn -0 0 1
vn -0 0 1
vn -0.139773548 0 0.990183532
vn -0.139773548 0 0.990183532
vn -0.252000272 0 0.967727125
vn -0.252000272 0 0.967727125
vn -0.333165079 0 0.942868531
vn -0.333165079 0 0.942868531
vn -0.365970582 0 0.930626452
vn -0.365970582 0 0.930626452
g cash_01_0
f 3/3/3 2/2/2 1/1/1
f 2/2/2 4/4/4 1/1/1
f 1/1/1 4/4/4 5/5/5
f 4/4/4 6/6/6 5/5/5
f 5/5/5 6/6/6 7/7/7
f 6/6/6 8/8/8 7/7/7
f 7/7/7 8/8/8 9/9/9
f 8/8/8 10/10/10 9/9/9
f 9/9/9 10/10/10 11/11/11
f 10/10/10 12/12/12 11/11/11
f 11/11/11 12/12/12 13/13/13
f 12/12/12 14/14/14 13/13/13
f 13/13/13 14/14/14 15/15/15
f 14/14/14 16/16/16 15/15/15
f 15/15/15 16/16/16 17/17/17
f 16/16/16 18/18/18 17/17/17
f 17/17/17 18/18/18 19/19/19
f 18/18/18 20/20/20 19/19/19
f 19/19/19 20/20/20 21/21/21
f 20/20/20 22/22/22 21/21/21
f 21/21/21 22/22/22 23/23/23
f 22/22/22 24/24/24 23/23/23
f 23/23/23 24/24/24 25/25/25
f 24/24/24 26/26/26 25/25/25
f 25/25/25 26/26/26 27/27/27
f 26/26/26 28/28/28 27/27/27
f 27/27/27 28/28/28 29/29/29
f 28/28/28 30/30/30 29/29/29
f 29/29/29 30/30/30 31/31/31
f 30/30/30 32/32/32 31/31/31
f 31/31/31 32/32/32 33/33/33
f 32/32/32 34/34/34 33/33/33
