g fx_m_slash_07
v 0.861554265 2.04577255 0
v 0.326349229 1.61039102 0
v 0.439215958 2.17388773 0
v 0.640157878 1.51519835 0
v 1.25078309 1.83772576 0
v 0.231073588 1.1325984 0
v 0.929365277 1.36061358 0
v 1.59194446 1.55774176 0
v 0.453267783 1.06519639 0
v 0.121737093 0.586301267 0
v 0.238796204 0.550791919 0
v 0.658042908 0.955742121 0
v 0.346678376 0.493127644 0
v 1.18285728 1.152578 0
v 1.87192833 1.21658027 0
v 0.837529421 0.808441341 0
v 0.441237777 0.415524721 0
v 1.39089286 0.899085879 0
v 2.07997537 0.827351689 0
v 0.984830558 0.628954709 0
v 0.51884073 0.32096532 0
v 1.54547739 0.609878778 0
v 2.20809054 0.405013442 0
v 1.09428501 0.424179673 0
v 0.576504827 0.213083237 0
v 1.64066994 0.296070099 0
v 2.25134945 -0.0342026949 0
v 1.16168678 0.201985508 0
v 0.612014353 0.0960241109 0
v 1.67281258 -0.0302791949 0
v 2.20809054 -0.47341907 0
v 1.18444562 -0.0290882159 0
v 0.624004424 -0.025713034 0
v 1.64066994 -0.356628746 0
v 2.07997561 -0.895757258 0
v 1.16168678 -0.260161996 0
v 0.612014353 -0.147450179 0
v 1.54547751 -0.670437217 0
v 1.87192857 -1.28498566 0
v 1.09428501 -0.482356071 0
v 0.576504946 -0.264509261 0
v 1.39089298 -0.959644437 0
v 1.59194446 -1.62614727 0
v 0.984830558 -0.687130988 0
v 0.51884073 -0.372391373 0
v 1.18285728 -1.21313643 0
v 1.25078285 -1.90613127 0
v 0.837529421 -0.86661762 0
v 0.441237777 -0.466950864 0
v 0.929365039 -1.42117214 0
v 0.861554205 -2.11417842 0
v 0.658042848 -1.01391876 0
v 0.346678346 -0.544553757 0
v 0.640157819 -1.57575679 0
v 0.439216256 -2.24229336 0
v 0.453267783 -1.12337339 0
v 0.238796175 -0.602217972 0
v 0.326349437 -1.67094934 0
v 1.39228025E-08 -2.28555226 0
v 0.231073782 -1.19077539 0
v 0.12173719 -0.637727499 0
v 7.70201325E-09 -1.70309198 0
v -0.439216256 -2.24229336 0
v 1.20254375E-08 -1.213534 0
v 2.22902443E-08 -0.64971751 0
v -0.326349407 -1.67094934 0
v -0.861554205 -2.11417842 0
v -0.231073782 -1.19077539 0
v -0.121737145 -0.637727499 0
v -0.640157819 -1.57575679 0
v -1.25078285 -1.90613127 0
v -0.453267783 -1.12337339 0
v -0.23879616 -0.602217972 0
v -0.929365039 -1.42117214 0
v -1.59194446 -1.62614727 0
v -0.658042848 -1.01391876 0
v -0.346678317 -0.544553757 0
v -1.18285728 -1.21313643 0
v -1.87192869 -1.28498542 0
v -0.837529421 -0.86661762 0
v -0.441237688 -0.466950864 0
v -1.39089322 -0.959644318 0
v -2.07997561 -0.89575696 0
v -1.54547751 -0.670437098 0
v -0.984830558 -0.687130749 0
v -0.51884073 -0.372391284 0
v -1.09428501 -0.482355922 0
v -0.576504946 -0.264509231 0
vt 0.952004015 0.0032218101
vt 0.999481142 0.335481167
vt 0.999480903 0.0032218101
vt 0.952004015 0.335481167
vt 0.904526889 0.0032218101
vt 0.999481142 0.667740583
vt 0.904526889 0.335481167
vt 0.857049882 0.0032218101
vt 0.952004015 0.667740583
vt 0.999480903 0.999999881
vt 0.952003896 0.999999881
vt 0.904526889 0.667740583
vt 0.904526889 0.999999881
vt 0.857049882 0.335481167
vt 0.809572875 0.0032218101
vt 0.857049882 0.667740583
vt 0.857049882 0.999999881
vt 0.809572875 0.335481167
vt 0.762095749 0.0032218101
vt 0.809572875 0.667740583
vt 0.809572756 0.999999881
vt 0.762095869 0.335481167
vt 0.714618623 0.0032218101
vt 0.762095869 0.667740583
vt 0.762095749 0.999999881
vt 0.714618623 0.335481167
vt 0.667141616 0.0032218101
vt 0.714618623 0.667740583
vt 0.714618623 0.999999881
vt 0.667141616 0.335481167
vt 0.619664609 0.0032218101
vt 0.667141616 0.667740583
vt 0.667141616 0.999999881
vt 0.619664609 0.335481167
vt 0.572187483 0.0032218101
vt 0.619664609 0.667740583
vt 0.619664609 0.999999881
vt 0.572187483 0.335481167
vt 0.524710476 0.0032218101
vt 0.572187483 0.667740583
vt 0.572187483 0.999999881
vt 0.524710536 0.335481167
vt 0.47723338 0.0032218101
vt 0.524710536 0.667740583
vt 0.524710476 0.999999881
vt 0.47723338 0.335481167
vt 0.429756373 0.0032218101
vt 0.47723338 0.667740583
vt 0.47723338 0.999999881
vt 0.429756373 0.335481167
vt 0.382279247 0.0032218101
vt 0.429756373 0.667740583
vt 0.429756373 0.999999881
vt 0.382279247 0.335481167
vt 0.33480224 0.0032218101
vt 0.382279247 0.667740583
vt 0.382279247 0.999999881
vt 0.33480224 0.335481167
vt 0.287325174 0.0032218101
vt 0.33480224 0.667740583
vt 0.33480224 0.999999881
vt 0.287325174 0.335481167
vt 0.239848107 0.0032218101
vt 0.287325174 0.667740583
vt 0.287325174 0.999999881
vt 0.239848107 0.335481167
vt 0.192371085 0.0032218101
vt 0.239848107 0.667740583
vt 0.239848047 0.999999881
vt 0.192371085 0.335481167
vt 0.144893959 0.0032218101
vt 0.192371085 0.667740583
vt 0.192371085 0.999999881
vt 0.144894049 0.335481167
vt 0.0974168926 0.0032218101
vt 0.144894049 0.667740583
vt 0.144893959 0.999999881
vt 0.0974168926 0.335481167
vt 0.0499398969 0.0032218101
vt 0.0974168926 0.667740583
vt 0.0974168926 0.999999881
vt 0.0499398969 0.335481167
vt 0.00246283412 0.0032218101
vt 0.00246283412 0.335481167
vt 0.0499398969 0.667740583
vt 0.0499398969 0.999999881
vt 0.00246283412 0.667740583
vt 0.00246283412 0.999999881
vn -0 0 1
vn -0 0 1
vn -0 0 1
vn -0 0 1
vn -0 0 1
vn -0 0 1
vn -0 0 1
vn -0 0 1
vn -0 0 1
vn -0 0 1
vn -0 0 1
vn -0 0 1
vn -0 0 1
vn -0 0 1
vn -0 0 1
vn -0 0 1
vn -0 0 1
vn -0 0 1
vn -0 0 1
vn -0 0 1
vn -0 0 1
vn -0 0 1
vn -0 0 1
vn -0 0 1
vn -0 0 1
vn -0 0 1
vn -0 0 1
vn -0 0 1
vn -0 0 1
vn -0 0 1
vn -0 0 1
vn -0 0 1
vn -0 0 1
vn -0 0 1
vn -0 0 1
vn -0 0 1
vn -0 0 1
vn -0 0 1
vn -0 0 1
vn -0 0 1
vn -0 0 1
vn -0 0 1
vn -0 0 1
vn -0 0 1
vn -0 0 1
vn -0 0 1
vn -0 0 1
vn -0 0 1
vn -0 0 1
vn -0 0 1
vn -0 0 1
vn -0 0 1
vn -0 0 1
vn -0 0 1
vn -0 0 1
vn -0 0 1
vn -0 0 1
vn -0 0 1
vn -0 0 1
vn -0 0 1
vn -0 0 1
vn -0 0 1
vn -0 0 1
vn -0 0 1
vn -0 0 1
vn -0 0 1
vn -0 0 1
vn -0 0 1
vn -0 0 1
vn -0 0 1
vn -0 0 1
vn -0 0 1
vn -0 0 1
vn -0 0 1
vn -0 0 1
vn -0 0 1
vn -0 0 1
vn -0 0 1
vn -0 0 1
vn -0 0 1
vn -0 0 1
vn -0 0 1
vn -0 0 1
vn -0 0 1
vn -0 0 1
vn -0 0 1
vn -0 0 1
vn -0 0 1
g fx_m_slash_07_0
f 3/3/3 2/2/2 1/1/1
f 2/2/2 4/4/4 1/1/1
f 1/1/1 4/4/4 5/5/5
f 2/2/2 6/6/6 4/4/4
f 4/4/4 7/7/7 5/5/5
f 5/5/5 7/7/7 8/8/8
f 6/6/6 9/9/9 4/4/4
f 4/4/4 9/9/9 7/7/7
f 6/6/6 10/10/10 9/9/9
f 10/10/10 11/11/11 9/9/9
f 9/9/9 11/11/11 12/12/12
f 9/9/9 12/12/12 7/7/7
f 11/11/11 13/13/13 12/12/12
f 7/7/7 14/14/14 8/8/8
f 7/7/7 12/12/12 14/14/14
f 8/8/8 14/14/14 15/15/15
f 12/12/12 13/13/13 16/16/16
f 12/12/12 16/16/16 14/14/14
f 13/13/13 17/17/17 16/16/16
f 14/14/14 18/18/18 15/15/15
f 14/14/14 16/16/16 18/18/18
f 15/15/15 18/18/18 19/19/19
f 16/16/16 17/17/17 20/20/20
f 16/16/16 20/20/20 18/18/18
f 17/17/17 21/21/21 20/20/20
f 18/18/18 22/22/22 19/19/19
f 18/18/18 20/20/20 22/22/22
f 19/19/19 22/22/22 23/23/23
f 20/20/20 21/21/21 24/24/24
f 20/20/20 24/24/24 22/22/22
f 21/21/21 25/25/25 24/24/24
f 22/22/22 26/26/26 23/23/23
f 22/22/22 24/24/24 26/26/26
f 23/23/23 26/26/26 27/27/27
f 24/24/24 25/25/25 28/28/28
f 24/24/24 28/28/28 26/26/26
f 25/25/25 29/29/29 28/28/28
f 26/26/26 30/30/30 27/27/27
f 26/26/26 28/28/28 30/30/30
f 27/27/27 30/30/30 31/31/31
f 28/28/28 29/29/29 32/32/32
f 28/28/28 32/32/32 30/30/30
f 29/29/29 33/33/33 32/32/32
f 30/30/30 34/34/34 31/31/31
f 30/30/30 32/32/32 34/34/34
f 31/31/31 34/34/34 35/35/35
f 32/32/32 33/33/33 36/36/36
f 32/32/32 36/36/36 34/34/34
f 33/33/33 37/37/37 36/36/36
f 34/34/34 38/38/38 35/35/35
f 34/34/34 36/36/36 38/38/38
f 35/35/35 38/38/38 39/39/39
f 36/36/36 37/37/37 40/40/40
f 36/36/36 40/40/40 38/38/38
f 37/37/37 41/41/41 40/40/40
f 38/38/38 42/42/42 39/39/39
f 38/38/38 40/40/40 42/42/42
f 39/39/39 42/42/42 43/43/43
f 40/40/40 41/41/41 44/44/44
f 40/40/40 44/44/44 42/42/42
f 41/41/41 45/45/45 44/44/44
f 42/42/42 46/46/46 43/43/43
f 42/42/42 44/44/44 46/46/46
f 43/43/43 46/46/46 47/47/47
f 44/44/44 45/45/45 48/48/48
f 44/44/44 48/48/48 46/46/46
f 45/45/45 49/49/49 48/48/48
f 46/46/46 50/50/50 47/47/47
f 46/46/46 48/48/48 50/50/50
f 47/47/47 50/50/50 51/51/51
f 48/48/48 49/49/49 52/52/52
f 48/48/48 52/52/52 50/50/50
f 49/49/49 53/53/53 52/52/52
f 50/50/50 54/54/54 51/51/51
f 50/50/50 52/52/52 54/54/54
f 51/51/51 54/54/54 55/55/55
f 52/52/52 53/53/53 56/56/56
f 52/52/52 56/56/56 54/54/54
f 53/53/53 57/57/57 56/56/56
f 54/54/54 58/58/58 55/55/55
f 54/54/54 56/56/56 58/58/58
f 55/55/55 58/58/58 59/59/59
f 56/56/56 57/57/57 60/60/60
f 56/56/56 60/60/60 58/58/58
f 57/57/57 61/61/61 60/60/60
f 58/58/58 62/62/62 59/59/59
f 58/58/58 60/60/60 62/62/62
f 59/59/59 62/62/62 63/63/63
f 60/60/60 61/61/61 64/64/64
f 60/60/60 64/64/64 62/62/62
f 61/61/61 65/65/65 64/64/64
f 62/62/62 66/66/66 63/63/63
f 62/62/62 64/64/64 66/66/66
f 63/63/63 66/66/66 67/67/67
f 64/64/64 65/65/65 68/68/68
f 64/64/64 68/68/68 66/66/66
f 65/65/65 69/69/69 68/68/68
f 66/66/66 70/70/70 67/67/67
f 66/66/66 68/68/68 70/70/70
f 67/67/67 70/70/70 71/71/71
f 68/68/68 69/69/69 72/72/72
f 68/68/68 72/72/72 70/70/70
f 69/69/69 73/73/73 72/72/72
f 70/70/70 74/74/74 71/71/71
f 70/70/70 72/72/72 74/74/74
f 71/71/71 74/74/74 75/75/75
f 72/72/72 73/73/73 76/76/76
f 72/72/72 76/76/76 74/74/74
f 73/73/73 77/77/77 76/76/76
f 74/74/74 78/78/78 75/75/75
f 74/74/74 76/76/76 78/78/78
f 75/75/75 78/78/78 79/79/79
f 76/76/76 77/77/77 80/80/80
f 76/76/76 80/80/80 78/78/78
f 77/77/77 81/81/81 80/80/80
f 78/78/78 82/82/82 79/79/79
f 78/78/78 80/80/80 82/82/82
f 79/79/79 82/82/82 83/83/83
f 82/82/82 84/84/84 83/83/83
f 80/80/80 81/81/81 85/85/85
f 80/80/80 85/85/85 82/82/82
f 82/82/82 85/85/85 84/84/84
f 81/81/81 86/86/86 85/85/85
f 85/85/85 87/87/87 84/84/84
f 85/85/85 86/86/86 87/87/87
f 86/86/86 88/88/88 87/87/87
