g general_ring_68
v 3.36061163E-07 1.02212143 -0.0364132151
v 2.65980759E-07 0.807046175 -0.0922635198
v -0.24060519 0.770780683 -0.0922635794
v -0.303999633 0.976300716 -0.0364132002
v 4.06141538E-07 1.23719645 -0.0577956848
v -0.459831983 0.66520679 -0.0922636613
v -0.36739412 1.18182087 -0.0577957481
v 4.76221942E-07 1.45227194 -0.182701707
v -0.430788606 1.38734102 -0.182701737
v -0.580988109 0.842910171 -0.0364133045
v -0.638200402 0.499705076 -0.0922635645
v -0.702144325 1.02061367 -0.0577958114
v -0.82330054 1.19831705 -0.182701781
v -0.806352913 0.633802295 -0.0364131778
v -0.759861946 0.288981199 -0.0922636092
v -0.974505484 0.767899632 -0.0577957369
v -1.14265811 0.901996732 -0.182701737
v -0.960069716 0.36755693 -0.0364132151
v -0.814006507 0.0517585278 -0.0922636092
v -1.16027761 0.446132898 -0.0577957779
v -1.36048555 0.524708629 -0.182701737
v -1.02848029 0.0678312778 -0.0364132598
v -0.795823038 -0.190884233 -0.0922636241
v -1.24295413 0.0839039087 -0.0577957667
v -1.45742798 0.0999765396 -0.182701737
v -1.0055058 -0.238742888 -0.0364132598
v -0.70692718 -0.417387366 -0.0922635943
v -1.21518862 -0.286601603 -0.0577957667
v -1.42487156 -0.334460318 -0.182701737
v -0.893187702 -0.524924934 -0.0364132077
v -0.555217624 -0.607625127 -0.092263639
v -1.07944834 -0.632462561 -0.0577957481
v -1.26570904 -0.740000129 -0.182701737
v -0.701505899 -0.765286326 -0.0364132747
v -0.354174554 -0.744693995 -0.092263639
v -0.847794235 -0.922947586 -0.0577957779
v -0.99408257 -1.08060884 -0.182701737
v -0.447492272 -0.938469887 -0.0364132449
v -0.121661581 -0.816414714 -0.0922635794
v -0.540809929 -1.13224602 -0.0577957779
v -0.634127617 -1.32602215 -0.182701737
v -0.153716892 -1.02908754 -0.0364132226
v 0.121661603 -0.816414714 -0.0922635794
v -0.185772195 -1.24176073 -0.0577957667
v -0.217827529 -1.45443368 -0.182701737
v 0.153716892 -1.02908754 -0.0364132226
v 0.354174554 -0.744693995 -0.092263639
v 0.185772195 -1.24176073 -0.0577957667
v 0.217827484 -1.45443368 -0.182701737
v 0.447492182 -0.938469946 -0.0364132747
v 0.555217624 -0.607625127 -0.0922635645
v 0.54080981 -1.13224602 -0.0577957965
v 0.634127498 -1.32602215 -0.182701737
v 0.701505899 -0.765286326 -0.0364132002
v 0.70692718 -0.417387366 -0.092263639
v 0.847794235 -0.922947705 -0.0577957593
v 0.994082451 -1.08060908 -0.182701737
v 0.893187642 -0.524924994 -0.0364132449
v 0.795823038 -0.190884233 -0.092263639
v 1.07944834 -0.632462621 -0.0577957779
v 1.26570892 -0.740000248 -0.182701737
v 1.00550568 -0.238743007 -0.0364132524
v 0.814006567 0.0517584085 -0.0922636241
v 1.21518862 -0.286601722 -0.0577957965
v 1.42487144 -0.334460497 -0.182701752
v 1.02848029 0.0678310394 -0.0364132598
v 0.759862065 0.288980961 -0.092263639
v 1.24295425 0.0839035511 -0.057795763
v 1.4574281 0.099976182 -0.182701766
v 0.960069835 0.36755681 -0.0364132747
v 0.638200521 0.499704957 -0.0922636241
v 1.16027772 0.446132541 -0.0577957779
v 1.36048567 0.52470839 -0.182701737
v 0.806353033 0.633802056 -0.0364132449
v 0.459831983 0.66520679 -0.0922636613
v 0.974505663 0.767899394 -0.0577957593
v 1.14265823 0.901996493 -0.182701737
v 0.580988109 0.842910171 -0.0364133045
v 0.24060519 0.770780683 -0.0922635794
v 0.702144325 1.02061367 -0.0577958114
v 0.82330054 1.19831705 -0.182701781
v 0.303999633 0.976300716 -0.0364132002
v -2.65980759E-07 0.807046056 -0.0922635496
v -3.36061134E-07 1.02212143 -0.0364132151
v 0.36739412 1.18182087 -0.0577957481
v 0.430788606 1.38734102 -0.182701737
v -4.06141538E-07 1.23719645 -0.0577956922
v -4.76221942E-07 1.45227194 -0.182701707
vt 1 0.516666651
vt 1 0.349999905
vt 0.952380955 0.349999964
vt 0.952380955 0.516666591
vt 1 0.683333278
vt 0.90476191 0.349999994
vt 0.952381015 0.683333278
vt 1 0.850000024
vt 0.952381015 0.849999905
vt 0.90476191 0.516666651
vt 0.857142866 0.349999994
vt 0.90476191 0.683333278
vt 0.90476191 0.849999905
vt 0.857142866 0.516666651
vt 0.809523821 0.349999994
vt 0.857142925 0.683333278
vt 0.857142925 0.849999905
vt 0.809523821 0.516666651
vt 0.761904716 0.349999994
vt 0.809523821 0.683333278
vt 0.809523821 0.849999905
vt 0.761904716 0.516666651
vt 0.714285731 0.350000024
vt 0.761904836 0.683333278
vt 0.761904836 0.849999905
vt 0.714285731 0.516666651
vt 0.666666687 0.350000024
vt 0.714285731 0.683333337
vt 0.714285731 0.849999905
vt 0.666666687 0.516666651
vt 0.619047642 0.350000024
vt 0.666666687 0.683333337
vt 0.666666746 0.850000024
vt 0.619047642 0.516666651
vt 0.571428537 0.350000024
vt 0.619047642 0.683333337
vt 0.619047642 0.850000024
vt 0.571428597 0.516666651
vt 0.523809493 0.350000024
vt 0.571428597 0.683333337
vt 0.571428657 0.850000024
vt 0.523809493 0.516666651
vt 0.476190448 0.350000024
vt 0.523809493 0.683333337
vt 0.523809552 0.850000024
vt 0.476190448 0.51666671
vt 0.428571403 0.350000024
vt 0.476190478 0.683333337
vt 0.476190478 0.850000024
vt 0.428571403 0.51666671
vt 0.380952358 0.350000024
vt 0.428571403 0.683333337
vt 0.428571433 0.850000024
vt 0.380952358 0.516666651
vt 0.333333373 0.350000024
vt 0.380952358 0.683333337
vt 0.380952388 0.850000024
vt 0.333333313 0.51666671
vt 0.285714269 0.350000024
vt 0.333333313 0.683333337
vt 0.333333343 0.850000024
vt 0.285714269 0.51666671
vt 0.238095164 0.350000054
vt 0.285714269 0.683333337
vt 0.285714298 0.850000024
vt 0.238095164 0.51666671
vt 0.190476179 0.350000054
vt 0.238095164 0.683333397
vt 0.238095164 0.850000024
vt 0.190476179 0.51666671
vt 0.142857075 0.350000054
vt 0.190476179 0.683333397
vt 0.190476179 0.850000024
vt 0.142857075 0.51666671
vt 0.0952380896 0.350000054
vt 0.142857075 0.683333397
vt 0.142857075 0.850000024
vt 0.0952380896 0.51666671
vt 0.0476191044 0.350000083
vt 0.0952380896 0.683333397
vt 0.0952380896 0.850000024
vt 0.0476189852 0.51666671
vt 0 0.350000083
vt 0 0.51666671
vt 0.0476191044 0.683333397
vt 0.0476189852 0.850000024
vt 0 0.683333397
vt 0 0.850000024
vn 0.00677430211 -0.0449448079 0.998966455
vn 0.0378565527 -0.251161903 0.967204511
vn 0.0740842298 -0.240175843 0.967898309
vn 0.013247868 -0.042949155 0.998989403
vn -0.0537047647 0.356308162 0.932823896
vn 0.14158608 -0.207668722 0.967898309
vn -0.105175585 0.340970516 0.934171915
vn -0.0754793659 0.500773609 0.862281144
vn -0.148027986 0.479894698 0.864747822
vn 0.0253188983 -0.0371359773 0.998989403
vn 0.196507469 -0.156709328 0.967898309
vn -0.201005593 0.294821262 0.934171915
vn -0.282902956 0.414942563 0.864747703
vn 0.0351401605 -0.028023215 0.998989403
vn 0.233967915 -0.0918258205 0.967898309
vn -0.278975546 0.222475752 0.934171915
vn -0.392640799 0.313120753 0.864747643
vn 0.0418388993 -0.0164206717 0.998989403
vn 0.250639439 -0.018782964 0.967898309
vn -0.332157284 0.130362198 0.934171915
vn -0.467490762 0.183476657 0.864747703
vn 0.0448201932 -0.00335886749 0.998989403
vn 0.24504061 0.0559288971 0.967898309
vn -0.355825424 0.0266655069 0.934171915
vn -0.5008021 0.0375300385 0.864747822
vn 0.0438190177 0.010001434 0.998989403
vn 0.217668921 0.125671104 0.967898309
vn -0.347876877 -0.0794005021 0.934171915
vn -0.489615083 -0.111751288 0.864747822
vn 0.0389243402 0.0224729478 0.998989403
vn 0.170956254 0.184246898 0.967898309
vn -0.309017956 -0.178411558 0.934171915
vn -0.43492353 -0.251103193 0.864747822
vn 0.0305710435 0.0329476632 0.998989403
vn 0.109053262 0.226451725 0.967898309
vn -0.242701337 -0.261569858 0.934171915
vn -0.341587067 -0.36814329 0.864747822
vn 0.0195012335 0.0404948778 0.998989403
vn 0.0374605469 0.248535141 0.967898309
vn -0.154819787 -0.321486503 0.934172034
vn -0.217899218 -0.45247227 0.864747822
vn 0.00669878256 0.044443842 0.998989403
vn -0.0374605171 0.248535112 0.967898309
vn -0.0531817377 -0.352837741 0.934171915
vn -0.0748500079 -0.49659729 0.864747703
vn -0.00669875136 0.0444438607 0.998989403
vn -0.109053351 0.226451516 0.967898309
vn 0.0531817786 -0.352837741 0.934171915
vn 0.0748500228 -0.49659723 0.864747703
vn -0.0195012875 0.0404947586 0.998989403
vn -0.170956254 0.184246942 0.967898309
vn 0.154819712 -0.321486533 0.934172034
vn 0.217899159 -0.452472389 0.864747822
vn -0.0305709876 0.032947626 0.998989403
vn -0.217668846 0.125671223 0.967898309
vn 0.242701337 -0.261569917 0.934171915
vn 0.341587067 -0.36814338 0.864747703
vn -0.0389241949 0.0224729944 0.998989403
vn -0.245040715 0.0559289232 0.96789819
vn 0.309017956 -0.178411528 0.934171915
vn 0.43492353 -0.251103163 0.864747703
vn -0.043819014 0.0100014023 0.998989403
vn -0.250639558 -0.0187827982 0.967898309
vn 0.347876817 -0.0794006065 0.934171915
vn 0.489615083 -0.11175146 0.864747822
vn -0.0448202193 -0.00335879927 0.998989403
vn -0.23396793 -0.0918256491 0.967898309
vn 0.355825394 0.0266654156 0.934171915
vn 0.500802159 0.0375299379 0.864747822
vn -0.04183897 -0.0164205953 0.998989403
vn -0.196507379 -0.156709373 0.967898309
vn 0.332157284 0.130362108 0.934172034
vn 0.467490762 0.183476627 0.864747822
vn -0.0351401977 -0.0280233119 0.998989403
vn -0.141586035 -0.207668826 0.967898309
vn 0.278975546 0.222475618 0.934171915
vn 0.392640859 0.313120663 0.864747703
vn -0.0253188442 -0.0371360444 0.998989403
vn -0.0740842149 -0.240175858 0.967898309
vn 0.201005653 0.294821143 0.934171915
vn 0.282903016 0.414942503 0.864747703
vn -0.0132478727 -0.0429491587 0.998989403
vn -0.0378565378 -0.251161873 0.967204511
vn -0.00677430443 -0.0449448116 0.998966455
vn 0.105175577 0.340970486 0.934171915
vn 0.148027956 0.479894668 0.864747882
vn 0.053704761 0.356308162 0.932823896
vn 0.0754793659 0.500773609 0.862281144
g general_ring_68_0
f 3/3/3 2/2/2 1/1/1
f 4/4/4 3/3/3 1/1/1
f 4/4/4 1/1/1 5/5/5
f 6/6/6 3/3/3 4/4/4
f 7/7/7 4/4/4 5/5/5
f 7/7/7 5/5/5 8/8/8
f 9/9/9 7/7/7 8/8/8
f 10/10/10 6/6/6 4/4/4
f 10/10/10 4/4/4 7/7/7
f 11/11/11 6/6/6 10/10/10
f 12/12/12 7/7/7 9/9/9
f 12/12/12 10/10/10 7/7/7
f 13/13/13 12/12/12 9/9/9
f 14/14/14 11/11/11 10/10/10
f 14/14/14 10/10/10 12/12/12
f 15/15/15 11/11/11 14/14/14
f 16/16/16 12/12/12 13/13/13
f 16/16/16 14/14/14 12/12/12
f 17/17/17 16/16/16 13/13/13
f 18/18/18 15/15/15 14/14/14
f 18/18/18 14/14/14 16/16/16
f 19/19/19 15/15/15 18/18/18
f 20/20/20 16/16/16 17/17/17
f 20/20/20 18/18/18 16/16/16
f 21/21/21 20/20/20 17/17/17
f 22/22/22 19/19/19 18/18/18
f 22/22/22 18/18/18 20/20/20
f 23/23/23 19/19/19 22/22/22
f 24/24/24 20/20/20 21/21/21
f 24/24/24 22/22/22 20/20/20
f 25/25/25 24/24/24 21/21/21
f 26/26/26 23/23/23 22/22/22
f 26/26/26 22/22/22 24/24/24
f 27/27/27 23/23/23 26/26/26
f 28/28/28 24/24/24 25/25/25
f 28/28/28 26/26/26 24/24/24
f 29/29/29 28/28/28 25/25/25
f 30/30/30 27/27/27 26/26/26
f 30/30/30 26/26/26 28/28/28
f 31/31/31 27/27/27 30/30/30
f 32/32/32 28/28/28 29/29/29
f 32/32/32 30/30/30 28/28/28
f 33/33/33 32/32/32 29/29/29
f 34/34/34 31/31/31 30/30/30
f 34/34/34 30/30/30 32/32/32
f 35/35/35 31/31/31 34/34/34
f 36/36/36 32/32/32 33/33/33
f 36/36/36 34/34/34 32/32/32
f 37/37/37 36/36/36 33/33/33
f 38/38/38 35/35/35 34/34/34
f 38/38/38 34/34/34 36/36/36
f 39/39/39 35/35/35 38/38/38
f 40/40/40 36/36/36 37/37/37
f 40/40/40 38/38/38 36/36/36
f 41/41/41 40/40/40 37/37/37
f 42/42/42 39/39/39 38/38/38
f 42/42/42 38/38/38 40/40/40
f 43/43/43 39/39/39 42/42/42
f 44/44/44 40/40/40 41/41/41
f 44/44/44 42/42/42 40/40/40
f 45/45/45 44/44/44 41/41/41
f 46/46/46 43/43/43 42/42/42
f 46/46/46 42/42/42 44/44/44
f 47/47/47 43/43/43 46/46/46
f 48/48/48 44/44/44 45/45/45
f 48/48/48 46/46/46 44/44/44
f 49/49/49 48/48/48 45/45/45
f 50/50/50 47/47/47 46/46/46
f 50/50/50 46/46/46 48/48/48
f 51/51/51 47/47/47 50/50/50
f 52/52/52 48/48/48 49/49/49
f 52/52/52 50/50/50 48/48/48
f 53/53/53 52/52/52 49/49/49
f 54/54/54 51/51/51 50/50/50
f 54/54/54 50/50/50 52/52/52
f 55/55/55 51/51/51 54/54/54
f 56/56/56 52/52/52 53/53/53
f 56/56/56 54/54/54 52/52/52
f 57/57/57 56/56/56 53/53/53
f 58/58/58 55/55/55 54/54/54
f 58/58/58 54/54/54 56/56/56
f 59/59/59 55/55/55 58/58/58
f 60/60/60 56/56/56 57/57/57
f 60/60/60 58/58/58 56/56/56
f 61/61/61 60/60/60 57/57/57
f 62/62/62 59/59/59 58/58/58
f 62/62/62 58/58/58 60/60/60
f 63/63/63 59/59/59 62/62/62
f 64/64/64 60/60/60 61/61/61
f 64/64/64 62/62/62 60/60/60
f 65/65/65 64/64/64 61/61/61
f 66/66/66 63/63/63 62/62/62
f 66/66/66 62/62/62 64/64/64
f 67/67/67 63/63/63 66/66/66
f 68/68/68 64/64/64 65/65/65
f 68/68/68 66/66/66 64/64/64
f 69/69/69 68/68/68 65/65/65
f 70/70/70 67/67/67 66/66/66
f 70/70/70 66/66/66 68/68/68
f 71/71/71 67/67/67 70/70/70
f 72/72/72 68/68/68 69/69/69
f 72/72/72 70/70/70 68/68/68
f 73/73/73 72/72/72 69/69/69
f 74/74/74 71/71/71 70/70/70
f 74/74/74 70/70/70 72/72/72
f 75/75/75 71/71/71 74/74/74
f 76/76/76 72/72/72 73/73/73
f 76/76/76 74/74/74 72/72/72
f 77/77/77 76/76/76 73/73/73
f 78/78/78 75/75/75 74/74/74
f 78/78/78 74/74/74 76/76/76
f 79/79/79 75/75/75 78/78/78
f 80/80/80 76/76/76 77/77/77
f 80/80/80 78/78/78 76/76/76
f 81/81/81 80/80/80 77/77/77
f 82/82/82 79/79/79 78/78/78
f 82/82/82 78/78/78 80/80/80
f 83/83/83 79/79/79 82/82/82
f 84/84/84 83/83/83 82/82/82
f 85/85/85 80/80/80 81/81/81
f 85/85/85 82/82/82 80/80/80
f 84/84/84 82/82/82 85/85/85
f 86/86/86 85/85/85 81/81/81
f 87/87/87 84/84/84 85/85/85
f 87/87/87 85/85/85 86/86/86
f 88/88/88 87/87/87 86/86/86
