g Cone002
v 0.109216638 0.417759478 0
v 0.0944530144 0.85841918 0.0253999997
v 0.0472265072 0.42920959 0
v 0.218433276 0.835518956 0.0253999997
v 0.168879002 0.397405475 0
v 0.337758005 0.794810951 0.0253999997
v 0.224942029 0.368581504 0
v 0.449884057 0.737163007 0.0253999997
v 0.276210815 0.331901848 0
v 0.552421629 0.663803697 0.0253999997
v 0.321592599 0.288148254 0
v 0.643185198 0.576296508 0.0253999997
v 0.360120237 0.23825331 0
v 0.720240474 0.476506621 0.0253999997
v 0.390972555 0.183280393 0
v 0.781945109 0.366560787 0.0253999997
v 0.413491905 0.124401197 0
v 0.826983809 0.248802394 0.0253999997
v 0.42719844 0.0628705844 0
v 0.85439688 0.125741169 0.0253999997
v 0.431800008 0 0
v 0.863600016 0 0.0253999997
v 0.42719838 -0.062871106 0
v 0.85439676 -0.125742212 0.0253999997
v 0.413491756 -0.124401674 0
v 0.826983511 -0.248803347 0.0253999997
v 0.390972346 -0.183280841 0
v 0.781944692 -0.366561681 0.0253999997
v 0.360119969 -0.238253698 0
v 0.720239937 -0.476507396 0.0253999997
v 0.321592331 -0.288148582 0
v 0.643184662 -0.576297164 0.0253999997
v 0.276210457 -0.331902117 0
v 0.552420914 -0.663804233 0.0253999997
v 0.224941701 -0.368581712 0
v 0.449883401 -0.737163424 0.0253999997
v 0.168878645 -0.397405624 0
v 0.337757289 -0.794811249 0.0253999997
v 0.109216258 -0.417759567 0
v 0.218432516 -0.835519135 0.0253999997
v 0.0472261198 -0.42920965 0
v 0.0944522396 -0.858419299 0.0253999997
v -0.0157705601 -0.431511939 0
v -0.0315411203 -0.863023877 0.0253999997
v -0.078431122 -0.424617231 0
v -0.156862244 -0.849234462 0.0253999997
v -0.139420062 -0.408672571 0
v -0.278840125 -0.817345142 0.0253999997
v -0.197437495 -0.384017795 0
v -0.39487499 -0.768035591 0.0253999997
v -0.251246929 -0.351178348 0
v -0.502493858 -0.702356696 0.0253999997
v -0.299701422 -0.310854137 0
v -0.599402845 -0.621708274 0.0253999997
v -0.341768324 -0.263904631 0
v -0.683536649 -0.527809262 0.0253999997
v -0.376551032 -0.211330414 0
v -0.753102064 -0.422660828 0.0253999997
v -0.403308213 -0.154252082 0
v -0.806616426 -0.308504164 0.0253999997
v -0.421469569 -0.0938861594 0
v -0.842939138 -0.187772319 0.0253999997
v -0.430648088 -0.0315192007 0
v -0.861296177 -0.0630384013 0.0253999997
v -0.430648088 0.0315195359 0
v -0.861296177 0.0630390719 0.0253999997
v -0.42146951 0.0938864946 0
v -0.842939019 0.187772989 0.0253999997
v -0.403308094 0.15425241 0
v -0.806616187 0.30850482 0.0253999997
v -0.376550883 0.211330727 0
v -0.753101766 0.422661453 0.0253999997
v -0.341768116 0.26390487 0
v -0.683536232 0.527809739 0.0253999997
v -0.299701184 0.310854375 0
v -0.599402368 0.621708751 0.0253999997
v -0.251246631 0.351178527 0
v -0.502493262 0.702357054 0.0253999997
v -0.197437197 0.384017944 0
v -0.394874394 0.768035889 0.0253999997
v -0.13941969 0.40867272 0
v -0.27883938 0.81734544 0.0253999997
v -0.0784307346 0.42461729 0
v -0.156861469 0.849234581 0.0253999997
v -0.0157701727 0.431511939 0
v -0.0315403454 0.863023877 0.0253999997
v 0.0472265072 0.42920959 0
v 0.0944530144 0.85841918 0.0253999997
vt 0.959302306 1
vt 0.982558131 0
vt 0.982558131 1
vt 0.959302306 0
vt 0.936046541 1
vt 0.936046541 0
vt 0.912790716 1
vt 0.912790716 0
vt 0.889534891 1
vt 0.889534891 0
vt 0.866279066 1
vt 0.866279066 0
vt 0.843023181 1
vt 0.843023181 0
vt 0.819767475 1
vt 0.819767475 0
vt 0.79651159 1
vt 0.79651159 0
vt 0.773255765 1
vt 0.773255765 0
vt 0.75 1
vt 0.75 0
vt 0.726743937 1
vt 0.726743937 0
vt 0.703488231 1
vt 0.703488231 0
vt 0.680232346 1
vt 0.680232346 0
vt 0.656976581 1
vt 0.656976581 0
vt 0.633720815 1
vt 0.633720815 0
vt 0.610464931 1
vt 0.610464931 0
vt 0.587209165 1
vt 0.587209165 0
vt 0.56395334 1
vt 0.56395334 0
vt 0.540697515 1
vt 0.540697515 0
vt 0.51744175 1
vt 0.51744175 0
vt 0.494185925 1
vt 0.494185925 0
vt 0.470930099 1
vt 0.470930099 0
vt 0.447674304 1
vt 0.447674304 0
vt 0.424418509 1
vt 0.424418509 0
vt 0.401162684 1
vt 0.401162684 0
vt 0.377906919 1
vt 0.377906919 0
vt 0.354651064 1
vt 0.354651064 0
vt 0.331395268 1
vt 0.331395268 0
vt 0.308139473 1
vt 0.308139473 0
vt 0.284883678 1
vt 0.284883678 0
vt 0.261627853 1
vt 0.261627853 0
vt 0.238372043 1
vt 0.238372043 0
vt 0.215116233 1
vt 0.215116233 0
vt 0.191860422 1
vt 0.191860422 0
vt 0.168604612 1
vt 0.168604612 0
vt 0.145348817 1
vt 0.145348817 0
vt 0.122093007 1
vt 0.122093007 0
vt 0.0988371968 1
vt 0.0988371968 0
vt 0.0755813941 1
vt 0.0755813941 0
vt 0.052325584 1
vt 0.052325584 0
vt 0.0290697776 1
vt 0.0290697776 0
vt 0.0058139707 1
vt 0.0058139707 0
vt -0.0174418688 1
vt -0.0174418688 0
vn 0.014852751 0.0568125993 -0.998274446
vn 0.00642249687 0.0583697483 -0.998274446
vn 0.00642249687 0.058369752 -0.998274446
vn 0.014852751 0.0568125993 -0.998274446
vn 0.022966465 0.0540445819 -0.998274446
vn 0.0229664668 0.0540445857 -0.998274446
vn 0.0305906665 0.050124716 -0.998274446
vn 0.0305906665 0.0501247197 -0.998274446
vn 0.037562903 0.0451365113 -0.998274446
vn 0.037562903 0.0451365076 -0.998274446
vn 0.0437345356 0.0391863063 -0.998274446
vn 0.0437345393 0.0391863063 -0.998274446
vn 0.0489740372 0.0324009284 -0.998274446
vn 0.0489740372 0.0324009284 -0.998274446
vn 0.0531697497 0.0249249544 -0.998274446
vn 0.0531697571 0.0249249507 -0.998274446
vn 0.0562322512 0.0169177521 -0.998274446
vn 0.056232255 0.0169177558 -0.998274446
vn 0.0580962412 0.0085500069 -0.998274446
vn 0.0580962487 0.00855000596 -0.998274446
vn 0.0587220266 0 -0.998274446
vn 0.0587220229 0 -0.998274446
vn 0.0580962412 -0.00855005998 -0.998274446
vn 0.0580962338 -0.00855005998 -0.998274446
vn 0.0562322326 -0.0169178247 -0.998274446
vn 0.0562322251 -0.0169178229 -0.998274446
vn 0.0531697236 -0.024925014 -0.998274446
vn 0.0531697273 -0.0249250159 -0.998274446
vn 0.0489739962 -0.0324009769 -0.998274446
vn 0.0489740036 -0.0324009769 -0.998274446
vn 0.0437344909 -0.0391863473 -0.998274446
vn 0.0437344946 -0.0391863473 -0.998274446
vn 0.0375628509 -0.0451365523 -0.998274446
vn 0.0375628509 -0.0451365523 -0.998274446
vn 0.030590618 -0.0501247421 -0.998274446
vn 0.030590618 -0.0501247495 -0.998274446
vn 0.0229664147 -0.0540446118 -0.998274446
vn 0.0229664166 -0.0540446192 -0.998274446
vn 0.0148527054 -0.0568126142 -0.998274446
vn 0.0148527073 -0.0568126142 -0.998274446
vn 0.00642245123 -0.058369752 -0.998274446
vn 0.00642245123 -0.058369752 -0.998274446
vn -0.00214468571 -0.0586828478 -0.998274446
vn -0.00214468595 -0.0586828403 -0.998274446
vn -0.010666145 -0.0577452146 -0.998274446
vn -0.0106661422 -0.0577452108 -0.998274446
vn -0.0189602431 -0.0555768386 -0.998274446
vn -0.0189602431 -0.0555768386 -0.998274446
vn -0.0268502291 -0.0522239618 -0.998274446
vn -0.0268502273 -0.0522239581 -0.998274446
vn -0.0341679603 -0.0477579981 -0.998274446
vn -0.0341679566 -0.0477579944 -0.998274446
vn -0.0407574736 -0.0422741696 -0.998274446
vn -0.0407574661 -0.0422741659 -0.998274446
vn -0.0464782976 -0.0358893275 -0.998274446
vn -0.0464782938 -0.0358893313 -0.998274446
vn -0.0512085184 -0.0287395734 -0.998274446
vn -0.0512085259 -0.0287395772 -0.998274446
vn -0.0548473299 -0.020977281 -0.998274446
vn -0.0548473336 -0.020977281 -0.998274446
vn -0.0573171601 -0.0127679119 -0.998274446
vn -0.0573171675 -0.0127679128 -0.998274446
vn -0.0585653707 -0.00428643171 -0.998274446
vn -0.0585653707 -0.00428642984 -0.998274446
vn -0.0585653782 0.00428645313 -0.998274446
vn -0.0585653707 0.00428645359 -0.998274446
vn -0.0573171489 0.0127679678 -0.998274446
vn -0.0573171489 0.012767965 -0.998274446
vn -0.054847315 0.0209773351 -0.998274446
vn -0.0548473075 0.0209773332 -0.998274446
vn -0.0512084886 0.0287396256 -0.998274446
vn -0.0512084961 0.0287396256 -0.998274446
vn -0.0464782678 0.0358893648 -0.998274446
vn -0.0464782715 0.0358893685 -0.998274446
vn -0.04075744 0.042274192 -0.998274446
vn -0.0407574438 0.042274192 -0.998274446
vn -0.0341679268 0.0477580279 -0.998274446
vn -0.034167923 0.0477580279 -0.998274446
vn -0.0268501937 0.0522239693 -0.998274446
vn -0.02685019 0.0522239693 -0.998274446
vn -0.0189601779 0.0555768572 -0.998274446
vn -0.0189601779 0.0555768572 -0.998274446
vn -0.0106660761 0.057745222 -0.998274446
vn -0.010666077 0.057745222 -0.998274446
vn -0.00214464078 0.0586828478 -0.998274446
vn -0.00214464054 0.0586828478 -0.998274446
vn 0.00642249687 0.058369752 -0.998274446
vn 0.00642249687 0.0583697483 -0.998274446
g Cone002_0
f 3/3/3 2/2/2 1/1/1
f 2/2/2 4/4/4 1/1/1
f 1/1/1 4/4/4 5/5/5
f 4/4/4 6/6/6 5/5/5
f 5/5/5 6/6/6 7/7/7
f 6/6/6 8/8/8 7/7/7
f 7/7/7 8/8/8 9/9/9
f 8/8/8 10/10/10 9/9/9
f 9/9/9 10/10/10 11/11/11
f 10/10/10 12/12/12 11/11/11
f 11/11/11 12/12/12 13/13/13
f 12/12/12 14/14/14 13/13/13
f 13/13/13 14/14/14 15/15/15
f 14/14/14 16/16/16 15/15/15
f 15/15/15 16/16/16 17/17/17
f 16/16/16 18/18/18 17/17/17
f 17/17/17 18/18/18 19/19/19
f 18/18/18 20/20/20 19/19/19
f 19/19/19 20/20/20 21/21/21
f 20/20/20 22/22/22 21/21/21
f 21/21/21 22/22/22 23/23/23
f 22/22/22 24/24/24 23/23/23
f 23/23/23 24/24/24 25/25/25
f 24/24/24 26/26/26 25/25/25
f 25/25/25 26/26/26 27/27/27
f 26/26/26 28/28/28 27/27/27
f 27/27/27 28/28/28 29/29/29
f 28/28/28 30/30/30 29/29/29
f 29/29/29 30/30/30 31/31/31
f 30/30/30 32/32/32 31/31/31
f 31/31/31 32/32/32 33/33/33
f 32/32/32 34/34/34 33/33/33
f 33/33/33 34/34/34 35/35/35
f 34/34/34 36/36/36 35/35/35
f 35/35/35 36/36/36 37/37/37
f 36/36/36 38/38/38 37/37/37
f 37/37/37 38/38/38 39/39/39
f 38/38/38 40/40/40 39/39/39
f 39/39/39 40/40/40 41/41/41
f 40/40/40 42/42/42 41/41/41
f 41/41/41 42/42/42 43/43/43
f 42/42/42 44/44/44 43/43/43
f 43/43/43 44/44/44 45/45/45
f 44/44/44 46/46/46 45/45/45
f 45/45/45 46/46/46 47/47/47
f 46/46/46 48/48/48 47/47/47
f 47/47/47 48/48/48 49/49/49
f 48/48/48 50/50/50 49/49/49
f 49/49/49 50/50/50 51/51/51
f 50/50/50 52/52/52 51/51/51
f 51/51/51 52/52/52 53/53/53
f 52/52/52 54/54/54 53/53/53
f 53/53/53 54/54/54 55/55/55
f 54/54/54 56/56/56 55/55/55
f 55/55/55 56/56/56 57/57/57
f 56/56/56 58/58/58 57/57/57
f 57/57/57 58/58/58 59/59/59
f 58/58/58 60/60/60 59/59/59
f 59/59/59 60/60/60 61/61/61
f 60/60/60 62/62/62 61/61/61
f 61/61/61 62/62/62 63/63/63
f 62/62/62 64/64/64 63/63/63
f 63/63/63 64/64/64 65/65/65
f 64/64/64 66/66/66 65/65/65
f 65/65/65 66/66/66 67/67/67
f 66/66/66 68/68/68 67/67/67
f 67/67/67 68/68/68 69/69/69
f 68/68/68 70/70/70 69/69/69
f 69/69/69 70/70/70 71/71/71
f 70/70/70 72/72/72 71/71/71
f 71/71/71 72/72/72 73/73/73
f 72/72/72 74/74/74 73/73/73
f 73/73/73 74/74/74 75/75/75
f 74/74/74 76/76/76 75/75/75
f 75/75/75 76/76/76 77/77/77
f 76/76/76 78/78/78 77/77/77
f 77/77/77 78/78/78 79/79/79
f 78/78/78 80/80/80 79/79/79
f 79/79/79 80/80/80 81/81/81
f 80/80/80 82/82/82 81/81/81
f 81/81/81 82/82/82 83/83/83
f 82/82/82 84/84/84 83/83/83
f 83/83/83 84/84/84 85/85/85
f 84/84/84 86/86/86 85/85/85
f 85/85/85 86/86/86 87/87/87
f 86/86/86 88/88/88 87/87/87
