g general_ring_03_2
v 4.28709654E-08 0.4420214 0
v 3.30564234E-08 0.329756171 0
v -0.0660003126 0.323255688 0
v -0.0879021585 0.433363825 0
v 5.2685504E-08 0.554286599 0
v -0.129464447 0.304004043 0
v -0.10980399 0.543471932 0
v -0.172426522 0.407723695 0
v -0.187953264 0.272741109 0
v -0.215388566 0.511443138 0
v -0.250324517 0.366086274 0
v -0.239219055 0.230668336 0
v -0.312695771 0.45943144 0
v -0.318602592 0.310051888 0
v -0.281291842 0.17940256 0
v -0.397986114 0.38943544 0
v -0.374637008 0.241773814 0
v -0.312554747 0.120913744 0
v -0.467982113 0.304145068 0
v -0.416274369 0.163875818 0
v -0.331806391 0.0574496388 0
v -0.519993901 0.206837863 0
v -0.441914529 0.0793515146 0
v -0.338306844 -0.00855070353 0
v -0.552022636 0.101253361 0
v -0.450572133 -0.00855067372 0
v -0.331806362 -0.0745511055 0
v -0.562837362 -0.00855067372 0
v -0.441914499 -0.0964529812 0
v -0.312554747 -0.138015121 0
v -0.552022576 -0.118354842 0
v -0.416274369 -0.180977196 0
v -0.281291872 -0.196503893 0
v -0.519993901 -0.22393924 0
v -0.374637067 -0.258875161 0
v -0.239219055 -0.247769758 0
v -0.467982173 -0.321246356 0
v -0.318602592 -0.327153295 0
v -0.187953234 -0.289842546 0
v -0.397986114 -0.406536818 0
v -0.250324488 -0.383187711 0
v -0.129464433 -0.32110545 0
v -0.312695712 -0.476532817 0
v -0.172426507 -0.424825072 0
v -0.0660003573 -0.340357095 0
v -0.215388551 -0.528544605 0
v -0.0879022181 -0.450465232 0
v 3.48070062E-09 -0.346857548 0
v -0.109804064 -0.560573339 0
v 3.48070062E-09 -0.459122837 0
v 0.0660003573 -0.340357095 0
v 3.48070062E-09 -0.571388066 0
v 0.0879022181 -0.450465232 0
v 0.129464433 -0.32110545 0
v 0.109804064 -0.560573339 0
v 0.172426507 -0.424825072 0
v 0.187953234 -0.289842546 0
v 0.215388551 -0.528544605 0
v 0.250324488 -0.383187711 0
v 0.239219055 -0.247769758 0
v 0.312695712 -0.476532817 0
v 0.318602592 -0.327153295 0
v 0.281291842 -0.196503937 0
v 0.397986114 -0.406536818 0
v 0.374637038 -0.258875191 0
v 0.312554747 -0.138015166 0
v 0.467982143 -0.321246415 0
v 0.416274369 -0.18097724 0
v 0.331806391 -0.0745510757 0
v 0.519993901 -0.2239393 0
v 0.441914529 -0.0964529216 0
v 0.338306844 -0.00855070353 0
v 0.552022636 -0.118354768 0
v 0.450572133 -0.00855067372 0
v 0.331806391 0.0574496388 0
v 0.562837362 -0.00855067372 0
v 0.441914529 0.0793515146 0
v 0.312554747 0.120913774 0
v 0.552022636 0.101253361 0
v 0.416274339 0.163875878 0
v 0.281291842 0.17940256 0
v 0.519993842 0.206837922 0
v 0.374637008 0.241773814 0
v 0.239219055 0.230668336 0
v 0.467982113 0.304145068 0
v 0.318602592 0.310051888 0
v 0.187953264 0.272741109 0
v 0.397986114 0.38943544 0
v 0.250324517 0.366086274 0
v 0.129464447 0.304004043 0
v 0.312695771 0.45943144 0
v 0.172426522 0.407723695 0
v 0.0660003126 0.323255688 0
v 0.215388566 0.511443138 0
v 0.0879021585 0.433363825 0
v -2.6095023E-08 0.329756171 0
v 0.10980399 0.543471932 0
v -3.59095651E-08 0.4420214 0
v -4.57241036E-08 0.554286599 0
vt 0 0.200000003
vt 0 0.400000006
vt 0.03125 0.400000006
vt 0.03125 0.200000003
vt 0 0
vt 0.0625 0.400000006
vt 0.03125 0
vt 0.0625 0.200000003
vt 0.09375 0.400000006
vt 0.0625 0
vt 0.09375 0.200000003
vt 0.125 0.400000006
vt 0.09375 0
vt 0.125 0.200000003
vt 0.15625 0.400000006
vt 0.125 0
vt 0.15625 0.200000003
vt 0.1875 0.400000006
vt 0.15625 0
vt 0.1875 0.200000003
vt 0.21875 0.400000006
vt 0.1875 0
vt 0.21875 0.200000003
vt 0.25 0.400000006
vt 0.21875 0
vt 0.25 0.200000003
vt 0.28125 0.400000006
vt 0.25 0
vt 0.28125 0.200000003
vt 0.3125 0.400000006
vt 0.28125 0
vt 0.3125 0.200000003
vt 0.34375 0.400000006
vt 0.3125 0
vt 0.34375 0.200000003
vt 0.375 0.400000006
vt 0.34375 0
vt 0.375 0.200000003
vt 0.40625003 0.400000006
vt 0.375 0
vt 0.40625003 0.200000003
vt 0.43750003 0.400000006
vt 0.40625 0
vt 0.43750003 0.200000003
vt 0.46875 0.400000006
vt 0.43750003 0
vt 0.46875 0.200000003
vt 0.5 0.400000006
vt 0.46875 0
vt 0.5 0.200000003
vt 0.53125 0.400000006
vt 0.5 0
vt 0.53125 0.200000003
vt 0.5625 0.400000006
vt 0.53125 0
vt 0.5625 0.200000003
vt 0.59375 0.400000006
vt 0.5625 0
vt 0.59375 0.200000003
vt 0.625 0.400000006
vt 0.59375 0
vt 0.625 0.200000003
vt 0.65625006 0.400000006
vt 0.625 0
vt 0.65625006 0.200000003
vt 0.6875 0.400000006
vt 0.65625 0
vt 0.6875 0.200000003
vt 0.71875 0.400000006
vt 0.6875 0
vt 0.71875 0.200000003
vt 0.75 0.400000006
vt 0.71875 0
vt 0.75 0.200000003
vt 0.78125 0.400000006
vt 0.75 0
vt 0.78125 0.200000003
vt 0.81250006 0.400000006
vt 0.78125 0
vt 0.81250006 0.200000003
vt 0.84375 0.400000006
vt 0.8125 0
vt 0.84375 0.200000003
vt 0.875 0.400000006
vt 0.84375 0
vt 0.875 0.200000003
vt 0.90625 0.400000006
vt 0.875 0
vt 0.90625 0.200000003
vt 0.9375 0.400000006
vt 0.90625 0
vt 0.9375 0.200000003
vt 0.96875006 0.400000006
vt 0.9375 0
vt 0.96875006 0.200000003
vt 1 0.400000006
vt 0.96875 0
vt 1 0.200000003
vt 1 0
vn -0 0 1
vn -0 0 1
vn -0 0 1
vn -0 0 1
vn -0 0 1
vn -0 0 1
vn -0 0 1
vn -0 0 1
vn -0 0 1
vn -0 0 1
vn -0 0 1
vn -0 0 1
vn -0 0 1
vn -0 0 1
vn -0 0 1
vn -0 0 1
vn -0 0 1
vn -0 0 1
vn -0 0 1
vn -0 0 1
vn -0 0 1
vn -0 0 1
vn -0 0 1
vn -0 0 1
vn -0 0 1
vn -0 0 1
vn -0 0 1
vn -0 0 1
vn -0 0 1
vn -0 0 1
vn -0 0 1
vn -0 0 1
vn -0 0 1
vn -0 0 1
vn -0 0 1
vn -0 0 1
vn -0 0 1
vn -0 0 1
vn -0 0 1
vn -0 0 1
vn -0 0 1
vn -0 0 1
vn -0 0 1
vn -0 0 1
vn -0 0 1
vn -0 0 1
vn -0 0 1
vn -0 0 1
vn -0 0 1
vn -0 0 1
vn -0 0 1
vn -0 0 1
vn -0 0 1
vn -0 0 1
vn -0 0 1
vn -0 0 1
vn -0 0 1
vn -0 0 1
vn -0 0 1
vn -0 0 1
vn -0 0 1
vn -0 0 1
vn -0 0 1
vn -0 0 1
vn -0 0 1
vn -0 0 1
vn -0 0 1
vn -0 0 1
vn -0 0 1
vn -0 0 1
vn -0 0 1
vn -0 0 1
vn -0 0 1
vn -0 0 1
vn -0 0 1
vn -0 0 1
vn -0 0 1
vn -0 0 1
vn -0 0 1
vn -0 0 1
vn -0 0 1
vn -0 0 1
vn -0 0 1
vn -0 0 1
vn -0 0 1
vn -0 0 1
vn -0 0 1
vn -0 0 1
vn -0 0 1
vn -0 0 1
vn -0 0 1
vn -0 0 1
vn -0 0 1
vn -0 0 1
vn -0 0 1
vn -0 0 1
vn -0 0 1
vn -0 0 1
vn -0 0 1
g general_ring_03_2_0
f 3/3/3 2/2/2 1/1/1
f 4/4/4 3/3/3 1/1/1
f 4/4/4 1/1/1 5/5/5
f 6/6/6 3/3/3 4/4/4
f 7/7/7 4/4/4 5/5/5
f 8/8/8 6/6/6 4/4/4
f 8/8/8 4/4/4 7/7/7
f 9/9/9 6/6/6 8/8/8
f 10/10/10 8/8/8 7/7/7
f 11/11/11 9/9/9 8/8/8
f 11/11/11 8/8/8 10/10/10
f 12/12/12 9/9/9 11/11/11
f 13/13/13 11/11/11 10/10/10
f 14/14/14 12/12/12 11/11/11
f 14/14/14 11/11/11 13/13/13
f 15/15/15 12/12/12 14/14/14
f 16/16/16 14/14/14 13/13/13
f 17/17/17 15/15/15 14/14/14
f 17/17/17 14/14/14 16/16/16
f 18/18/18 15/15/15 17/17/17
f 19/19/19 17/17/17 16/16/16
f 20/20/20 18/18/18 17/17/17
f 20/20/20 17/17/17 19/19/19
f 21/21/21 18/18/18 20/20/20
f 22/22/22 20/20/20 19/19/19
f 23/23/23 21/21/21 20/20/20
f 23/23/23 20/20/20 22/22/22
f 24/24/24 21/21/21 23/23/23
f 25/25/25 23/23/23 22/22/22
f 26/26/26 24/24/24 23/23/23
f 26/26/26 23/23/23 25/25/25
f 27/27/27 24/24/24 26/26/26
f 28/28/28 26/26/26 25/25/25
f 29/29/29 27/27/27 26/26/26
f 29/29/29 26/26/26 28/28/28
f 30/30/30 27/27/27 29/29/29
f 31/31/31 29/29/29 28/28/28
f 32/32/32 30/30/30 29/29/29
f 32/32/32 29/29/29 31/31/31
f 33/33/33 30/30/30 32/32/32
f 34/34/34 32/32/32 31/31/31
f 35/35/35 33/33/33 32/32/32
f 35/35/35 32/32/32 34/34/34
f 36/36/36 33/33/33 35/35/35
f 37/37/37 35/35/35 34/34/34
f 38/38/38 36/36/36 35/35/35
f 38/38/38 35/35/35 37/37/37
f 39/39/39 36/36/36 38/38/38
f 40/40/40 38/38/38 37/37/37
f 41/41/41 39/39/39 38/38/38
f 41/41/41 38/38/38 40/40/40
f 42/42/42 39/39/39 41/41/41
f 43/43/43 41/41/41 40/40/40
f 44/44/44 42/42/42 41/41/41
f 44/44/44 41/41/41 43/43/43
f 45/45/45 42/42/42 44/44/44
f 46/46/46 44/44/44 43/43/43
f 47/47/47 45/45/45 44/44/44
f 47/47/47 44/44/44 46/46/46
f 48/48/48 45/45/45 47/47/47
f 49/49/49 47/47/47 46/46/46
f 50/50/50 48/48/48 47/47/47
f 50/50/50 47/47/47 49/49/49
f 51/51/51 48/48/48 50/50/50
f 52/52/52 50/50/50 49/49/49
f 53/53/53 51/51/51 50/50/50
f 53/53/53 50/50/50 52/52/52
f 54/54/54 51/51/51 53/53/53
f 55/55/55 53/53/53 52/52/52
f 56/56/56 54/54/54 53/53/53
f 56/56/56 53/53/53 55/55/55
f 57/57/57 54/54/54 56/56/56
f 58/58/58 56/56/56 55/55/55
f 59/59/59 57/57/57 56/56/56
f 59/59/59 56/56/56 58/58/58
f 60/60/60 57/57/57 59/59/59
f 61/61/61 59/59/59 58/58/58
f 62/62/62 60/60/60 59/59/59
f 62/62/62 59/59/59 61/61/61
f 63/63/63 60/60/60 62/62/62
f 64/64/64 62/62/62 61/61/61
f 65/65/65 63/63/63 62/62/62
f 65/65/65 62/62/62 64/64/64
f 66/66/66 63/63/63 65/65/65
f 67/67/67 65/65/65 64/64/64
f 68/68/68 66/66/66 65/65/65
f 68/68/68 65/65/65 67/67/67
f 69/69/69 66/66/66 68/68/68
f 70/70/70 68/68/68 67/67/67
f 71/71/71 69/69/69 68/68/68
f 71/71/71 68/68/68 70/70/70
f 72/72/72 69/69/69 71/71/71
f 73/73/73 71/71/71 70/70/70
f 74/74/74 72/72/72 71/71/71
f 74/74/74 71/71/71 73/73/73
f 75/75/75 72/72/72 74/74/74
f 76/76/76 74/74/74 73/73/73
f 77/77/77 75/75/75 74/74/74
f 77/77/77 74/74/74 76/76/76
f 78/78/78 75/75/75 77/77/77
f 79/79/79 77/77/77 76/76/76
f 80/80/80 78/78/78 77/77/77
f 80/80/80 77/77/77 79/79/79
f 81/81/81 78/78/78 80/80/80
f 82/82/82 80/80/80 79/79/79
f 83/83/83 81/81/81 80/80/80
f 83/83/83 80/80/80 82/82/82
f 84/84/84 81/81/81 83/83/83
f 85/85/85 83/83/83 82/82/82
f 86/86/86 84/84/84 83/83/83
f 86/86/86 83/83/83 85/85/85
f 87/87/87 84/84/84 86/86/86
f 88/88/88 86/86/86 85/85/85
f 89/89/89 87/87/87 86/86/86
f 89/89/89 86/86/86 88/88/88
f 90/90/90 87/87/87 89/89/89
f 91/91/91 89/89/89 88/88/88
f 92/92/92 90/90/90 89/89/89
f 92/92/92 89/89/89 91/91/91
f 93/93/93 90/90/90 92/92/92
f 94/94/94 92/92/92 91/91/91
f 95/95/95 93/93/93 92/92/92
f 95/95/95 92/92/92 94/94/94
f 96/96/96 93/93/93 95/95/95
f 97/97/97 95/95/95 94/94/94
f 98/98/98 96/96/96 95/95/95
f 98/98/98 95/95/95 97/97/97
f 99/99/99 98/98/98 97/97/97
