g general_range_01
v 0.272705585 -0.227145314 0
v 0.272705585 -0.263535202 0
v -0.268589169 -0.263535142 0
v -0.268589169 -0.227145255 0
v 0.234272957 0.265800774 0
v 0.270662874 0.265800774 0
v 0.270662755 -0.26233989 0
v 0.234272838 -0.26233989 0
v -0.232496709 -0.263653338 0
v -0.268886566 -0.263653338 0
v -0.268886536 0.267464876 0
v -0.232496649 0.267464876 0
v -0.26922664 0.23208499 0
v -0.26922664 0.268474877 0
v 0.271696538 0.268474877 0
v 0.271696538 0.23208499 0
vt 0 0
vt 0 1
vt 1 1
vt 1 0
vt 0 0
vt 0 1
vt 1 1
vt 1 0
vt 0 0
vt 0 1
vt 1 1
vt 1 0
vt 0 0
vt 0 1
vt 1 1
vt 1 0
vn -0 0 1
vn -0 0 1
vn -0 0 1
vn -0 0 1
vn -0 0 1
vn -0 0 1
vn -0 0 1
vn -0 0 1
vn -0 0 1
vn -0 0 1
vn -0 0 1
vn -0 0 1
vn -0 0 1
vn -0 0 1
vn -0 0 1
vn -0 0 1
g general_range_01_0
f 3/3/3 2/2/2 1/1/1
f 4/4/4 3/3/3 1/1/1
f 7/7/7 6/6/6 5/5/5
f 8/8/8 7/7/7 5/5/5
f 11/11/11 10/10/10 9/9/9
f 12/12/12 11/11/11 9/9/9
f 15/15/15 14/14/14 13/13/13
f 16/16/16 15/15/15 13/13/13
