g general_plan_08
v 0.0018433209 -0.25 0
v 0.0315992534 -0.1875 0
v 0.00276498497 -0.25 0
v 0.0210661665 -0.1875 0
v 0.000921656727 -0.25 0
v 0.0604335219 -0.125 0
v 0.0105330795 -0.1875 0
v -7.4505806E-09 -0.25 0
v 0.0402890146 -0.125 0
v 0.0892677903 -0.0625 0
v -7.4505806E-09 -0.1875 0
v -0.00092167157 -0.25 0
v 0.0595118552 -0.0625 0
v 0.118102044 0 0
v 0.0201445073 -0.125 0
v -0.0105330944 -0.1875 0
v -0.00184333569 -0.25 0
v 0.0787346959 0 0
v 0.0892677903 0.0625 0
v 0.029755922 -0.0625 0
v -0 -0.125 0
v -0.0210661814 -0.1875 0
v -0.00276499987 -0.25 0
v -0.0315992683 -0.1875 0
v 0.0595118552 0.0625 0
v 0.0604335219 0.125 0
v -0.0201445073 -0.125 0
v -0.0402890146 -0.125 0
v -0.0604335219 -0.125 0
v 0.0393673442 0 0
v -9.31322575E-09 -0.0625 0
v 0.0402890146 0.125 0
v 0.0315992534 0.1875 0
v -0.0595118739 -0.0625 0
v -0.0892678052 -0.0625 0
v -0.0297559425 -0.0625 0
v 0.029755922 0.0625 0
v -7.4505806E-09 0 0
v 0.0210661665 0.1875 0
v 0.00276498497 0.25 0
v 0.00184332079 0.25 0
v -0.0787347108 0 0
v -0.118102059 0 0
v -0.0393673591 0 0
v 0.0201445073 0.125 0
v 0.0105330795 0.1875 0
v 0.000921656669 0.25 0
v -9.31322575E-09 0.0625 0
v -0.0595118739 0.0625 0
v -0.0892678052 0.0625 0
v -0.0297559425 0.0625 0
v -0 0.125 0
v -7.4505806E-09 0.1875 0
v -7.4505806E-09 0.25 0
v -0.0201445073 0.125 0
v -0.0402890146 0.125 0
v -0.0604335219 0.125 0
v -0.0105330944 0.1875 0
v -0.000921671628 0.25 0
v -0.0210661814 0.1875 0
v -0.0315992683 0.1875 0
v -0.00184333581 0.25 0
v -0.00276499987 0.25 0
vt 0.833333254 0
vt 1 0.125
vt 1 0
vt 0.833333194 0.124999985
vt 0.666666627 0
vt 1 0.25
vt 0.666666687 0.125
vt 0.5 0
vt 0.833333313 0.25
vt 1 0.375
vt 0.5 0.125
vt 0.333333343 0
vt 0.833333194 0.37499994
vt 1 0.5
vt 0.666666687 0.25
vt 0.333333343 0.125
vt 0.166666657 0
vt 0.833333194 0.49999994
vt 1 0.625
vt 0.666666687 0.375
vt 0.5 0.25
vt 0.166666642 0.124999985
vt 0 0
vt 0 0.124999993
vt 0.833333313 0.625
vt 1 0.75
vt 0.333333284 0.249999985
vt 0.166666672 0.25
vt 0 0.249999985
vt 0.666666627 0.49999994
vt 0.50000006 0.37500003
vt 0.833333313 0.75
vt 1 0.875
vt 0.166666642 0.37499994
vt 0 0.375
vt 0.333333313 0.375
vt 0.666666627 0.625
vt 0.5 0.5
vt 0.833333254 0.875
vt 1 1
vt 0.833333254 0.99999994
vt 0.166666642 0.49999997
vt 0 0.5
vt 0.333333313 0.5
vt 0.666666746 0.75
vt 0.666666687 0.875
vt 0.666666687 1
vt 0.50000006 0.62500006
vt 0.166666642 0.62499994
vt 0 0.625
vt 0.333333343 0.62500006
vt 0.5 0.75
vt 0.5 0.87500006
vt 0.5 1
vt 0.333333313 0.75
vt 0.166666657 0.75
vt 0 0.75
vt 0.333333284 0.875
vt 0.333333313 1
vt 0.166666657 0.87500006
vt 0 0.875
vt 0.166666657 1
vt 0 1
vn -0 0 1
vn -0 0 1
vn -0 0 1
vn -0 0 1
vn -0 0 1
vn -0 0 1
vn -0 0 1
vn -0 0 1
vn -0 0 1
vn -0 0 1
vn -0 0 1
vn -0 0 1
vn -0 0 1
vn -0 0 1
vn -0 0 1
vn -0 0 1
vn -0 0 1
vn -0 0 1
vn -0 0 1
vn -0 0 1
vn -0 0 1
vn -0 0 1
vn -0 0 1
vn -0 0 1
vn -0 0 1
vn -0 0 1
vn -0 0 1
vn -0 0 1
vn -0 0 1
vn -0 0 1
vn -0 0 1
vn -0 0 1
vn -0 0 1
vn -0 0 1
vn -0 0 1
vn -0 0 1
vn -0 0 1
vn -0 0 1
vn -0 0 1
vn -0 0 1
vn -0 0 1
vn -0 0 1
vn -0 0 1
vn -0 0 1
vn -0 0 1
vn -0 0 1
vn -0 0 1
vn -0 0 1
vn -0 0 1
vn -0 0 1
vn -0 0 1
vn -0 0 1
vn -0 0 1
vn -0 0 1
vn -0 0 1
vn -0 0 1
vn -0 0 1
vn -0 0 1
vn -0 0 1
vn -0 0 1
vn -0 0 1
vn -0 0 1
vn -0 0 1
g general_plan_08_0
f 3/3/3 2/2/2 1/1/1
f 2/2/2 4/4/4 1/1/1
f 1/1/1 4/4/4 5/5/5
f 2/2/2 6/6/6 4/4/4
f 4/4/4 7/7/7 5/5/5
f 5/5/5 7/7/7 8/8/8
f 6/6/6 9/9/9 4/4/4
f 4/4/4 9/9/9 7/7/7
f 6/6/6 10/10/10 9/9/9
f 7/7/7 11/11/11 8/8/8
f 8/8/8 11/11/11 12/12/12
f 10/10/10 13/13/13 9/9/9
f 10/10/10 14/14/14 13/13/13
f 9/9/9 15/15/15 7/7/7
f 7/7/7 15/15/15 11/11/11
f 9/9/9 13/13/13 15/15/15
f 11/11/11 16/16/16 12/12/12
f 12/12/12 16/16/16 17/17/17
f 14/14/14 18/18/18 13/13/13
f 14/14/14 19/19/19 18/18/18
f 13/13/13 20/20/20 15/15/15
f 13/13/13 18/18/18 20/20/20
f 15/15/15 21/21/21 11/11/11
f 11/11/11 21/21/21 16/16/16
f 15/15/15 20/20/20 21/21/21
f 16/16/16 22/22/22 17/17/17
f 17/17/17 22/22/22 23/23/23
f 22/22/22 24/24/24 23/23/23
f 19/19/19 25/25/25 18/18/18
f 19/19/19 26/26/26 25/25/25
f 21/21/21 27/27/27 16/16/16
f 16/16/16 27/27/27 22/22/22
f 22/22/22 28/28/28 24/24/24
f 27/27/27 28/28/28 22/22/22
f 28/28/28 29/29/29 24/24/24
f 18/18/18 30/30/30 20/20/20
f 18/18/18 25/25/25 30/30/30
f 20/20/20 31/31/31 21/21/21
f 21/21/21 31/31/31 27/27/27
f 20/20/20 30/30/30 31/31/31
f 26/26/26 32/32/32 25/25/25
f 26/26/26 33/33/33 32/32/32
f 28/28/28 34/34/34 29/29/29
f 34/34/34 35/35/35 29/29/29
f 27/27/27 36/36/36 28/28/28
f 31/31/31 36/36/36 27/27/27
f 36/36/36 34/34/34 28/28/28
f 25/25/25 37/37/37 30/30/30
f 25/25/25 32/32/32 37/37/37
f 30/30/30 38/38/38 31/31/31
f 31/31/31 38/38/38 36/36/36
f 30/30/30 37/37/37 38/38/38
f 33/33/33 39/39/39 32/32/32
f 33/33/33 40/40/40 39/39/39
f 40/40/40 41/41/41 39/39/39
f 34/34/34 42/42/42 35/35/35
f 42/42/42 43/43/43 35/35/35
f 36/36/36 44/44/44 34/34/34
f 38/38/38 44/44/44 36/36/36
f 44/44/44 42/42/42 34/34/34
f 32/32/32 45/45/45 37/37/37
f 32/32/32 39/39/39 45/45/45
f 39/39/39 41/41/41 46/46/46
f 39/39/39 46/46/46 45/45/45
f 41/41/41 47/47/47 46/46/46
f 37/37/37 48/48/48 38/38/38
f 38/38/38 48/48/48 44/44/44
f 37/37/37 45/45/45 48/48/48
f 42/42/42 49/49/49 43/43/43
f 49/49/49 50/50/50 43/43/43
f 44/44/44 51/51/51 42/42/42
f 48/48/48 51/51/51 44/44/44
f 51/51/51 49/49/49 42/42/42
f 45/45/45 52/52/52 48/48/48
f 45/45/45 46/46/46 52/52/52
f 48/48/48 52/52/52 51/51/51
f 46/46/46 47/47/47 53/53/53
f 46/46/46 53/53/53 52/52/52
f 47/47/47 54/54/54 53/53/53
f 52/52/52 55/55/55 51/51/51
f 51/51/51 55/55/55 49/49/49
f 52/52/52 53/53/53 55/55/55
f 49/49/49 56/56/56 50/50/50
f 55/55/55 56/56/56 49/49/49
f 56/56/56 57/57/57 50/50/50
f 53/53/53 54/54/54 58/58/58
f 53/53/53 58/58/58 55/55/55
f 55/55/55 58/58/58 56/56/56
f 54/54/54 59/59/59 58/58/58
f 56/56/56 60/60/60 57/57/57
f 58/58/58 60/60/60 56/56/56
f 58/58/58 59/59/59 60/60/60
f 60/60/60 61/61/61 57/57/57
f 59/59/59 62/62/62 60/60/60
f 60/60/60 62/62/62 61/61/61
f 62/62/62 63/63/63 61/61/61
