g Plane017
v 0.0087481318 0.00569170527 -1.07133724E-18
v 0.00586708356 0.00687384279 -7.18510535E-19
v 0.0151756182 0.0192293394 -1.85847714E-18
v 0.0100554619 0.0212626439 -1.23143898E-18
v 0.00278148754 0.0074613844 -3.40633984E-19
v 0.00430495478 0.0223697424 -5.27204856E-19
v -0.000636189361 0.00752437115 7.79107266E-20
v -0.0015795487 0.0224806461 1.93438913E-19
v -0.00399809936 0.00703139603 4.89625989E-19
v -0.00744239939 0.021616213 9.11431026E-19
v -0.00693113869 0.00604846794 8.48819657E-19
v -0.0131132351 0.0196999088 1.60590809E-18
v -0.00912038889 0.00475039147 1.11692544E-18
v -0.0183634888 0.0165463742 2.24887889E-18
v -0.010442513 0.00338263926 1.27883901E-18
v -0.0227730218 0.0118996035 2.78889093E-18
v -0.0108014084 0.00275098579 1.32279105E-18
v -0.0255047046 0.00564808212 3.12342572E-18
v -0.0107622491 0.00233713631 1.31799536E-18
v -0.0253892895 -0.000923199463 3.10929127E-18
v -0.0101415347 0.000863619149 1.24197984E-18
v -0.0231609717 -0.00655759685 2.83640087E-18
v -0.00849114824 -0.00138757273 1.03986571E-18
v -0.0197348744 -0.0112950802 2.41682509E-18
v -0.00586868543 -0.0039230343 7.1870668E-19
v -0.0155204795 -0.015387021 1.9007105E-18
v -0.00252646883 -0.0063972869 3.09403186E-19
v -0.0107324757 -0.0189368892 1.31434915E-18
v 0.00123950769 -0.00857456122 -1.51795914E-19
v -0.00554188527 -0.0219384227 6.78685201E-19
v 0.00511439983 -0.0102776187 -6.26333353E-19
v -0.000100953745 -0.0243268237 1.23632684E-20
v 0.00874946453 -0.0113716619 -1.0715003E-18
v 0.00547210267 -0.0259949043 -6.70139288E-19
v 0.011723958 -0.0117915133 -1.43577068E-18
v 0.0111309336 -0.0267657749 -1.36314629E-18
v 0.0143291987 -0.0115614766 -1.75482066E-18
v 0.0165454522 -0.0263826884 -2.02623371E-18
vt 0 1
vt 0.055555556 1
vt 0 0
vt 0.055555556 0
vt 0.111111112 1
vt 0.111111112 0
vt 0.166666672 1
vt 0.166666672 0
vt 0.222222224 1
vt 0.222222224 0
vt 0.277777791 1
vt 0.277777791 0
vt 0.333333343 1
vt 0.333333343 0
vt 0.388888896 1
vt 0.388888896 0
vt 0.444444448 1
vt 0.444444448 0
vt 0.5 1
vt 0.5 0
vt 0.555555582 1
vt 0.555555582 0
vt 0.611111164 1
vt 0.611111164 0
vt 0.666666746 1
vt 0.666666746 0
vt 0.722222328 1
vt 0.722222328 0
vt 0.77777791 1
vt 0.77777791 0
vt 0.833333492 1
vt 0.833333492 0
vt 0.888889074 1
vt 0.888889074 0
vt 0.944444656 1
vt 0.944444656 0
vt 1.00000024 1
vt 1.00000024 0
vn -0 0 1
vn -0 0 1
vn -0 0 1
vn -0 0 1
vn -0 0 1
vn -0 0 1
vn -0 0 1
vn -0 0 1
vn -0 0 1
vn -0 0 1
vn -0 0 1
vn -0 0 1
vn -0 0 1
vn -0 0 1
vn -0 0 1
vn -0 0 1
vn -0 0 1
vn -0 0 1
vn -0 0 1
vn -0 0 1
vn -0 0 1
vn -0 0 1
vn -0 0 1
vn -0 0 1
vn -0 0 1
vn -0 0 1
vn -0 0 1
vn -0 0 1
vn -0 0 1
vn -0 0 1
vn -0 0 1
vn -0 0 1
vn -0 0 1
vn -0 0 1
vn -0 0 1
vn -0 0 1
vn -0 0 1
vn -0 0 1
g Plane017_0
f 3/3/3 2/2/2 1/1/1
f 2/2/2 3/3/3 4/4/4
f 4/4/4 5/5/5 2/2/2
f 5/5/5 4/4/4 6/6/6
f 6/6/6 7/7/7 5/5/5
f 7/7/7 6/6/6 8/8/8
f 8/8/8 9/9/9 7/7/7
f 9/9/9 8/8/8 10/10/10
f 10/10/10 11/11/11 9/9/9
f 11/11/11 10/10/10 12/12/12
f 12/12/12 13/13/13 11/11/11
f 13/13/13 12/12/12 14/14/14
f 14/14/14 15/15/15 13/13/13
f 15/15/15 14/14/14 16/16/16
f 16/16/16 17/17/17 15/15/15
f 17/17/17 16/16/16 18/18/18
f 18/18/18 19/19/19 17/17/17
f 19/19/19 18/18/18 20/20/20
f 20/20/20 21/21/21 19/19/19
f 21/21/21 20/20/20 22/22/22
f 22/22/22 23/23/23 21/21/21
f 23/23/23 22/22/22 24/24/24
f 24/24/24 25/25/25 23/23/23
f 25/25/25 24/24/24 26/26/26
f 26/26/26 27/27/27 25/25/25
f 27/27/27 26/26/26 28/28/28
f 28/28/28 29/29/29 27/27/27
f 29/29/29 28/28/28 30/30/30
f 30/30/30 31/31/31 29/29/29
f 31/31/31 30/30/30 32/32/32
f 32/32/32 33/33/33 31/31/31
f 33/33/33 32/32/32 34/34/34
f 34/34/34 35/35/35 33/33/33
f 35/35/35 34/34/34 36/36/36
f 36/36/36 37/37/37 35/35/35
f 37/37/37 36/36/36 38/38/38
