g Plane016
v -0.00786974095 0.0184342936 9.63765399E-19
v -0.00186577754 0.0218446758 2.28491842E-19
v 0.000248334516 0.00583758578 -3.04122064E-20
v 0.00471858587 0.00838264357 -5.77860156E-19
v 0.00529874675 0.0247193612 -6.48909335E-19
v 0.00976584014 0.010414633 -1.19597051E-18
v 0.0133782951 0.0263493415 -1.63836862E-18
v 0.0146061396 0.0114137279 -1.7887361E-18
v 0.0221583545 0.0256558619 -2.71361584E-18
v 0.0183240566 0.0111686857 -2.24404981E-18
v 0.0306761544 0.0211289544 -3.7567458E-18
v 0.0207524765 0.00989949889 -2.54144543E-18
v 0.0361412726 0.013961548 -4.42602922E-18
v 0.0227176845 0.00729915453 -2.78211404E-18
v 0.0380969457 0.00602253387 -4.66553068E-18
v 0.023111077 0.0059609157 -2.8302907E-18
v 0.0362954587 -0.00161660882 -4.44491168E-18
v 0.0228480846 0.0049976455 -2.79808339E-18
v 0.0319511555 -0.00755281234 -3.91288814E-18
v 0.0213474855 0.00303691346 -2.61431301E-18
v 0.0262588914 -0.0121064195 -3.21578664E-18
v 0.0180475377 0.000429677923 -2.21018606E-18
v 0.019631708 -0.0157957077 -2.40419094E-18
v 0.0131683489 -0.00227516238 -1.61265767E-18
v 0.0122909527 -0.0188669432 -1.50520753E-18
v 0.00712166447 -0.00480072154 -8.72152355E-19
v 0.00446708454 -0.0214172155 -5.47060086E-19
v 0.00031019788 -0.00701928278 -3.79882826E-20
v -0.00358357187 -0.023481803 4.38860984E-19
v -0.00688931393 -0.00886495691 8.43697652E-19
v -0.0115897311 -0.0250697657 1.41933264E-18
v -0.0141149741 -0.0102980603 1.7285858E-18
v -0.0192780625 -0.0261775013 2.36088183E-18
v -0.0210070275 -0.0112915738 2.57261877E-18
v -0.0263903197 -0.0267922468 3.23188192E-18
v -0.0271905735 -0.0118276328 3.32988483E-18
v -0.032749705 -0.0268845633 4.01068239E-18
v -0.0323693082 -0.0119033949 3.96409682E-18
vt 0 1
vt 0.055555556 1
vt 0 0
vt 0.055555556 0
vt 0.111111112 1
vt 0.111111112 0
vt 0.166666672 1
vt 0.166666672 0
vt 0.222222224 1
vt 0.222222224 0
vt 0.277777791 1
vt 0.277777791 0
vt 0.333333343 1
vt 0.333333343 0
vt 0.388888896 1
vt 0.388888896 0
vt 0.444444448 1
vt 0.444444448 0
vt 0.5 1
vt 0.5 0
vt 0.555555582 1
vt 0.555555582 0
vt 0.611111164 1
vt 0.611111164 0
vt 0.666666746 1
vt 0.666666746 0
vt 0.722222328 1
vt 0.722222328 0
vt 0.77777791 1
vt 0.77777791 0
vt 0.833333492 1
vt 0.833333492 0
vt 0.888889074 1
vt 0.888889074 0
vt 0.944444656 1
vt 0.944444656 0
vt 1.00000024 1
vt 1.00000024 0
vn -0 0 1
vn -0 0 1
vn -0 0 1
vn -0 0 1
vn -0 0 1
vn -0 0 1
vn -0 0 1
vn -0 0 1
vn -0 0 1
vn -0 0 1
vn -0 0 1
vn -0 0 1
vn -0 0 1
vn -0 0 1
vn -0 0 1
vn -0 0 1
vn -0 0 1
vn -0 0 1
vn -0 0 1
vn -0 0 1
vn -0 0 1
vn -0 0 1
vn -0 0 1
vn -0 0 1
vn -0 0 1
vn -0 0 1
vn -0 0 1
vn -0 0 1
vn -0 0 1
vn -0 0 1
vn -0 0 1
vn -0 0 1
vn -0 0 1
vn -0 0 1
vn -0 0 1
vn -0 0 1
vn -0 0 1
vn -0 0 1
g Plane016_0
f 3/3/3 2/2/2 1/1/1
f 2/2/2 3/3/3 4/4/4
f 4/4/4 5/5/5 2/2/2
f 5/5/5 4/4/4 6/6/6
f 6/6/6 7/7/7 5/5/5
f 7/7/7 6/6/6 8/8/8
f 8/8/8 9/9/9 7/7/7
f 9/9/9 8/8/8 10/10/10
f 10/10/10 11/11/11 9/9/9
f 11/11/11 10/10/10 12/12/12
f 12/12/12 13/13/13 11/11/11
f 13/13/13 12/12/12 14/14/14
f 14/14/14 15/15/15 13/13/13
f 15/15/15 14/14/14 16/16/16
f 16/16/16 17/17/17 15/15/15
f 17/17/17 16/16/16 18/18/18
f 18/18/18 19/19/19 17/17/17
f 19/19/19 18/18/18 20/20/20
f 20/20/20 21/21/21 19/19/19
f 21/21/21 20/20/20 22/22/22
f 22/22/22 23/23/23 21/21/21
f 23/23/23 22/22/22 24/24/24
f 24/24/24 25/25/25 23/23/23
f 25/25/25 24/24/24 26/26/26
f 26/26/26 27/27/27 25/25/25
f 27/27/27 26/26/26 28/28/28
f 28/28/28 29/29/29 27/27/27
f 29/29/29 28/28/28 30/30/30
f 30/30/30 31/31/31 29/29/29
f 31/31/31 30/30/30 32/32/32
f 32/32/32 33/33/33 31/31/31
f 33/33/33 32/32/32 34/34/34
f 34/34/34 35/35/35 33/33/33
f 35/35/35 34/34/34 36/36/36
f 36/36/36 37/37/37 35/35/35
f 37/37/37 36/36/36 38/38/38
