g Cone003
v 0.0206936486 0.0906647742 0
v 9.58823332E-09 0.127000004 0.00642495882
v 7.02103264E-09 0.0929963961 0
v 0.0282601621 0.123815842 0.00642495882
v 0.0403496213 0.0837868527 0
v 0.0551032387 0.114423044 0.00642495882
v 0.0579822995 0.0727075115 0
v 0.079183206 0.0992925987 0.00642495882
v 0.072707504 0.0579823069 0
v 0.0992925912 0.0791832134 0.00642495882
v 0.0837868527 0.0403496251 0
v 0.114423044 0.0551032387 0.00642495882
v 0.0906647742 0.0206936467 0
v 0.123815842 0.0282601565 0.00642495882
v 0.0929963961 1.55197022E-09 0
v 0.127000004 0 0.00642495882
v 0.090664804 -0.0206935033 0
v 0.123815894 -0.0282599684 0.00642495882
v 0.0837869123 -0.0403494984 0
v 0.114423126 -0.0551030673 0.00642495882
v 7.02103264E-09 0.0929963961 0
v 9.58823332E-09 0.127000004 0.00642495882
v -0.0282601453 0.123815857 0.00642495882
v -0.0206936337 0.0906647891 0
v -0.05510322 0.114423051 0.00642495882
v -0.0403496101 0.0837868527 0
v -0.079183206 0.0992925987 0.00642495882
v -0.0579822995 0.0727075115 0
v -0.0992925987 0.0791831985 0.00642495882
v -0.0727075115 0.0579822995 0
v -0.114423051 0.05510322 0.00642495882
v -0.0837868527 0.0403496139 0
v -0.123815857 0.0282601304 0.00642495882
v -0.0906647891 0.0206936281 0
v -0.127000004 -4.13818526E-08 0.00642495882
v -0.0929963961 -2.8750101E-08 0
v -0.123815827 -0.0282602087 0.00642495882
v -0.0906647742 -0.0206936803 0
v -0.114423014 -0.0551032908 0.00642495882
v -0.0837868378 -0.0403496623 0
vt 0.964285672 0
vt 0.99999994 1
vt 0.99999994 0
vt 0.964285672 1
vt 0.928571403 0
vt 0.928571403 1
vt 0.892857194 0
vt 0.892857194 1
vt 0.857142866 0
vt 0.857142866 1
vt 0.821428597 0
vt 0.821428597 1
vt 0.785714269 0
vt 0.785714269 1
vt 0.75 0
vt 0.75 1
vt 0.71428597 0
vt 0.71428597 1
vt 0.678571701 0
vt 0.678571701 1
vt -5.96046448E-08 0
vt -5.96046448E-08 1
vt 0.0357142985 1
vt 0.0357142985 0
vt 0.0714285597 1
vt 0.0714285597 0
vt 0.107142858 1
vt 0.107142858 0
vt 0.142857164 1
vt 0.142857164 0
vt 0.178571463 1
vt 0.178571463 0
vt 0.214285776 1
vt 0.214285761 0
vt 0.25000006 1
vt 0.25000006 0
vt 0.285714358 1
vt 0.285714358 0
vt 0.321428657 1
vt 0.321428657 0
vn 0.0413141735 0.181009144 -0.982613266
vn -0 0.185664132 -0.982613266
vn -0 0.185664147 -0.982613266
vn 0.0413141698 0.181009129 -0.982613266
vn 0.080556646 0.167277619 -0.982613266
vn 0.080556646 0.167277604 -0.982613266
vn 0.115759678 0.145158082 -0.982613266
vn 0.115759671 0.145158067 -0.982613266
vn 0.145158052 0.115759693 -0.982613266
vn 0.145158052 0.115759693 -0.982613266
vn 0.167277619 0.0805566534 -0.982613266
vn 0.167277589 0.080556646 -0.982613266
vn 0.181009144 0.0413141698 -0.982613266
vn 0.181009158 0.041314166 -0.982613266
vn 0.185664102 0 -0.982613266
vn 0.185664132 0 -0.982613266
vn 0.181009188 -0.04131395 -0.982613266
vn 0.181009188 -0.0413139351 -0.982613266
vn 0.176315635 -0.0616952144 -0.982398331
vn 0.17631565 -0.0616952069 -0.982398331
vn -0 0.185664147 -0.982613266
vn -0 0.185664132 -0.982613266
vn -0.0413141437 0.181009129 -0.982613266
vn -0.0413141511 0.181009144 -0.982613266
vn -0.080556646 0.167277589 -0.982613266
vn -0.080556646 0.167277589 -0.982613266
vn -0.115759671 0.145158067 -0.982613266
vn -0.115759671 0.145158067 -0.982613266
vn -0.145158067 0.115759671 -0.982613266
vn -0.145158067 0.115759671 -0.982613266
vn -0.167277604 0.080556646 -0.982613266
vn -0.167277589 0.0805566609 -0.982613266
vn -0.181009158 0.0413141251 -0.982613266
vn -0.181009158 0.0413141288 -0.982613266
vn -0.185664132 0 -0.982613266
vn -0.185664147 0 -0.982613266
vn -0.181009129 -0.0413142331 -0.982613266
vn -0.181009114 -0.0413142294 -0.982613266
vn -0.176315561 -0.0616955645 -0.982398331
vn -0.176315561 -0.0616955645 -0.982398331
g Cone003_0
f 3/3/3 2/2/2 1/1/1
f 2/2/2 4/4/4 1/1/1
f 1/1/1 4/4/4 5/5/5
f 4/4/4 6/6/6 5/5/5
f 5/5/5 6/6/6 7/7/7
f 6/6/6 8/8/8 7/7/7
f 7/7/7 8/8/8 9/9/9
f 8/8/8 10/10/10 9/9/9
f 9/9/9 10/10/10 11/11/11
f 10/10/10 12/12/12 11/11/11
f 11/11/11 12/12/12 13/13/13
f 12/12/12 14/14/14 13/13/13
f 13/13/13 14/14/14 15/15/15
f 14/14/14 16/16/16 15/15/15
f 15/15/15 16/16/16 17/17/17
f 16/16/16 18/18/18 17/17/17
f 17/17/17 18/18/18 19/19/19
f 18/18/18 20/20/20 19/19/19
f 23/23/23 22/22/22 21/21/21
f 24/24/24 23/23/23 21/21/21
f 25/25/25 23/23/23 24/24/24
f 26/26/26 25/25/25 24/24/24
f 27/27/27 25/25/25 26/26/26
f 28/28/28 27/27/27 26/26/26
f 29/29/29 27/27/27 28/28/28
f 30/30/30 29/29/29 28/28/28
f 31/31/31 29/29/29 30/30/30
f 32/32/32 31/31/31 30/30/30
f 33/33/33 31/31/31 32/32/32
f 34/34/34 33/33/33 32/32/32
f 35/35/35 33/33/33 34/34/34
f 36/36/36 35/35/35 34/34/34
f 37/37/37 35/35/35 36/36/36
f 38/38/38 37/37/37 36/36/36
f 39/39/39 37/37/37 38/38/38
f 40/40/40 39/39/39 38/38/38
