g Cone003
v 0.0661599785 0.375211746 0
v 3.68672879E-08 0.456952274 0.118369289
v 2.87646991E-08 0.380999982 0
v 0.0793489516 0.45001018 0.118369289
v 3.83529333E-08 0.508000016 0.236738592
v 0.130309686 0.358022898 0
v 0.0882132947 0.500282347 0.236738592
v 0.156286895 0.429394662 0.118369289
v 0.190499991 0.329955667 0
v 0.173746243 0.477363825 0.236738592
v 0.228476122 0.395732313 0.118369289
v 0.244902059 0.291862935 0
v 0.253999978 0.439940929 0.236738592
v 0.293723255 0.3500458 0.118369289
v 0.291862935 0.244902074 0
v 0.326536059 0.38915062 0.236738592
v 0.35004577 0.293723285 0.118369289
v 0.329955667 0.190499991 0
v 0.38915056 0.326536119 0.236738592
v 0.395732284 0.228476137 0.118369289
v 0.358022898 0.130309686 0
v 0.43994087 0.254000008 0.236738592
v 0.429394722 0.156286895 0.118369289
v 0.375211746 0.0661599636 0
v 0.477363825 0.173746243 0.236738592
v 0.45001021 0.0793489441 0.118369289
v 0.380999982 0 0
v 0.500282347 0.0882132798 0.236738592
v 0.456952333 0 0.118369289
v 0.375211686 -0.0661602318 0
v 0.508000016 0 0.236738592
v 0.45001018 -0.0793492645 0.118369289
v 0.358022779 -0.130309924 0
v 0.500282228 -0.0882136449 0.236738592
v 0.429394633 -0.156287193 0.118369289
v 0.329955548 -0.19050023 0
v 0.477363735 -0.173746556 0.236738592
v 0.395732164 -0.228476435 0.118369289
v 0.439940721 -0.254000276 0.236738592
v -0.358022958 -0.130309507 0
v -0.395732403 -0.228475943 0.118369289
v -0.329955757 -0.190499842 0
v -0.429394752 -0.156286687 0.118369289
v -0.439941019 -0.25399977 0.236738592
v -0.375211775 -0.0661597922 0
v -0.477363914 -0.173746005 0.236738592
v -0.45001018 -0.079348743 0.118369289
v -0.380999982 1.4836688E-07 0
v -0.500282407 -0.0882130638 0.236738592
v -0.456952244 1.77943789E-07 0.118369289
v -0.375211716 0.0661600828 0
v -0.508000016 1.97822487E-07 0.236738592
v -0.450010121 0.0793490931 0.118369289
v -0.358022839 0.13030979 0
v -0.500282288 0.0882134512 0.236738592
v -0.429394573 0.156287029 0.118369289
v -0.329955637 0.190500095 0
v -0.477363795 0.173746392 0.236738592
v -0.395732224 0.228476241 0.118369289
v -0.291862845 0.244902149 0
v -0.43994084 0.254000127 0.236738592
v -0.350045681 0.293723375 0.118369289
v -0.244902 0.291862965 0
v -0.38915047 0.326536208 0.236738592
v -0.293723196 0.35004583 0.118369289
v -0.190499932 0.329955697 0
v -0.32653603 0.389150649 0.236738592
v -0.228476077 0.395732343 0.118369289
v -0.130309626 0.358022898 0
v -0.253999919 0.439940959 0.236738592
v -0.156286821 0.429394752 0.118369289
v -0.0661599115 0.375211746 0
v -0.173746169 0.477363884 0.236738592
v -0.0793488845 0.45001021 0.118369289
v 2.87646991E-08 0.380999982 0
v -0.0882132202 0.500282347 0.236738592
v 3.68672879E-08 0.456952274 0.118369289
v 3.83529333E-08 0.508000016 0.236738592
v 0.291862786 -0.244902268 0
v 0.395732164 -0.228476435 0.118369289
v 0.329955548 -0.19050023 0
v 0.350045562 -0.293723494 0.118369289
v 0.439940721 -0.254000276 0.236738592
v 0.24490191 -0.291863084 0
v 0.389150381 -0.326536357 0.236738592
v 0.293723077 -0.350045949 0.118369289
v 0.190499797 -0.329955786 0
v 0.326535881 -0.389150769 0.236738592
v 0.228475928 -0.395732433 0.118369289
v 0.130309492 -0.358022958 0
v 0.25399974 -0.439941078 0.236738592
v 0.156286672 -0.429394811 0.118369289
v 0.0661597699 -0.375211775 0
v 0.173745975 -0.477363914 0.236738592
v 0.0793487132 -0.45001021 0.118369289
v -1.77131582E-07 -0.380999982 0
v 0.0882130265 -0.500282407 0.236738592
v -2.10074376E-07 -0.456952274 0.118369289
v -0.0661601126 -0.375211716 0
v -2.36175438E-07 -0.508000016 0.236738592
v -0.0793491229 -0.45001018 0.118369289
v -0.13030982 -0.358022839 0
v -0.0882134885 -0.500282288 0.236738592
v -0.156287074 -0.429394633 0.118369289
v -0.19050011 -0.329955608 0
v -0.173746422 -0.477363795 0.236738592
v -0.228476271 -0.395732224 0.118369289
v -0.244902179 -0.291862845 0
v -0.254000157 -0.43994078 0.236738592
v -0.293723404 -0.350045681 0.118369289
v -0.291863054 -0.24490194 0
v -0.326536238 -0.38915047 0.236738592
v -0.350045919 -0.293723106 0.118369289
v -0.329955757 -0.190499842 0
v -0.389150769 -0.32653591 0.236738592
v -0.395732403 -0.228475943 0.118369289
v -0.439941019 -0.25399977 0.236738592
vt 0.916309536 0.00528752478
vt 0.996011138 0.171666101
vt 0.999686122 0.00528752478
vt 0.912634909 0.171666101
vt 0.996011138 0.337066978
vt 0.832933128 0.00479874853
vt 0.912634909 0.337066978
vt 0.832933128 0.170688465
vt 0.749557018 0.00479874853
vt 0.832933128 0.33657819
vt 0.749557018 0.170688465
vt 0.666180372 0.00479874853
vt 0.749557018 0.33657819
vt 0.666180253 0.170688465
vt 0.582803786 0.00479874853
vt 0.666180372 0.33657819
vt 0.582803786 0.170688465
vt 0.499427497 0.00479874853
vt 0.582803786 0.33657819
vt 0.499427497 0.170688465
vt 0.416050941 0.00479874853
vt 0.499427497 0.33657819
vt 0.416050941 0.170688465
vt 0.332674414 0.00479874853
vt 0.416050941 0.33657819
vt 0.332674414 0.170688465
vt 0.249298126 0.00479874853
vt 0.332674414 0.33657819
vt 0.249298126 0.170688465
vt 0.165921077 0.00479874853
vt 0.249298126 0.33657819
vt 0.165921435 0.170688465
vt 0.082544893 0.00479874853
vt 0.165921077 0.33657819
vt 0.0825447366 0.170688465
vt -0.000831603073 0.00479874853
vt 0.082544893 0.33657819
vt -0.000831767917 0.170688465
vt -0.000831603073 0.33657819
vt 0.916193247 0.669142008
vt 0.999099612 0.835031629
vt 0.999099612 0.669142008
vt 0.916193247 0.835031629
vt 0.999099612 1.00092137
vt 0.833286643 0.669142008
vt 0.916193247 1.00092137
vt 0.833286643 0.835031629
vt 0.750380278 0.669142008
vt 0.833286643 1.00092137
vt 0.750380278 0.835031629
vt 0.667473793 0.669142008
vt 0.750380278 1.00092137
vt 0.667473793 0.835031629
vt 0.584567428 0.669142008
vt 0.667473793 1.00092137
vt 0.584567428 0.835031629
vt 0.501660943 0.669142008
vt 0.584567428 1.00092137
vt 0.501660943 0.835031629
vt 0.418754518 0.669142008
vt 0.501660943 1.00092137
vt 0.418754518 0.835031629
vt 0.335848063 0.669142008
vt 0.418754518 1.00092137
vt 0.335848063 0.835031629
vt 0.252941668 0.669142008
vt 0.335848063 1.00092137
vt 0.252941668 0.835031629
vt 0.170035228 0.669142008
vt 0.252941668 1.00092137
vt 0.170035228 0.835031629
vt 0.0871287882 0.669142008
vt 0.170035228 1.00092137
vt 0.0871287882 0.835031629
vt 0.00422218675 0.669142008
vt 0.0871287882 1.00092137
vt 0.00422218675 0.835031629
vt 0.00422218675 1.00092137
vt 0.914460421 0.336958319
vt 0.997366548 0.502848029
vt 0.997366786 0.336958319
vt 0.914460182 0.502848029
vt 0.997366786 0.668737769
vt 0.831553817 0.336958319
vt 0.914460421 0.668737769
vt 0.831553817 0.502848029
vt 0.748647451 0.336958319
vt 0.831553817 0.668737769
vt 0.748647451 0.502848029
vt 0.665740967 0.336958319
vt 0.748647451 0.668737769
vt 0.665740967 0.502848029
vt 0.582834363 0.336958319
vt 0.665740967 0.668737769
vt 0.582834363 0.502848029
vt 0.499928027 0.336958319
vt 0.582834363 0.668737769
vt 0.499928027 0.502848029
vt 0.417021632 0.336958319
vt 0.499928027 0.668737769
vt 0.417021632 0.502848029
vt 0.334115267 0.336958319
vt 0.417021632 0.668737769
vt 0.334115267 0.502848029
vt 0.251208752 0.336958319
vt 0.334115267 0.668737769
vt 0.251208752 0.502848029
vt 0.168302327 0.336958319
vt 0.251208752 0.668737769
vt 0.168302327 0.502848029
vt 0.0853957385 0.336958319
vt 0.168302327 0.668737769
vt 0.0853957385 0.502848029
vt 0.00248932093 0.336958319
vt 0.0853957385 0.668737769
vt 0.00248932093 0.502848029
vt 0.00248932093 0.668737769
vn 0.146149039 0.828851819 -0.540041804
vn -0 0.883876741 -0.467719942
vn -0 0.841638207 -0.540041745
vn 0.153483674 0.870448589 -0.467719883
vn -0 0.918249547 -0.396002322
vn 0.287857264 0.790881276 -0.540041685
vn 0.159452468 0.904299259 -0.396002412
vn 0.302303702 0.830572426 -0.467719913
vn 0.420818985 0.728880227 -0.540041685
vn 0.314059913 0.862872183 -0.396002412
vn 0.441938221 0.765459776 -0.467719913
vn 0.540994525 0.644732356 -0.540041864
vn 0.459124595 0.795227468 -0.396002382
vn 0.568144977 0.677088916 -0.467719942
vn 0.644732296 0.540994585 -0.540041804
vn 0.590239346 0.703420043 -0.396002322
vn 0.677088916 0.568144977 -0.467719913
vn 0.728880167 0.420819104 -0.540041745
vn 0.703420103 0.590239346 -0.396002263
vn 0.765459716 0.44193837 -0.467719883
vn 0.790881038 0.287857324 -0.540041924
vn 0.795227468 0.459124684 -0.396002203
vn 0.830572426 0.30230391 -0.467719823
vn 0.828851759 0.146149009 -0.540042043
vn 0.862872303 0.314060092 -0.396002114
vn 0.870448589 0.153483644 -0.467719883
vn 0.841638148 0 -0.540042043
vn 0.904299319 0.159452453 -0.396002084
vn 0.883876741 0 -0.467719883
vn 0.828851581 -0.146149397 -0.540042043
vn 0.918249607 0 -0.396001965
vn 0.870448589 -0.153484076 -0.467719764
vn 0.790880799 -0.287857682 -0.540041983
vn 0.904299319 -0.15945287 -0.396001935
vn 0.830572248 -0.302304268 -0.467719883
vn 0.72887969 -0.42081967 -0.540041804
vn 0.862872124 -0.314060509 -0.396002084
vn 0.765459418 -0.441938937 -0.467719883
vn 0.79522711 -0.45912537 -0.396002263
vn -0.790881395 -0.287856847 -0.540041685
vn -0.765460014 -0.441937953 -0.467719883
vn -0.728880286 -0.420818746 -0.540041804
vn -0.830572605 -0.302303255 -0.467719883
vn -0.795227706 -0.459124297 -0.396002322
vn -0.828852057 -0.146148428 -0.540041566
vn -0.862872362 -0.314059436 -0.396002471
vn -0.870448768 -0.153483048 -0.467719913
vn -0.841638267 3.50938649E-07 -0.540041566
vn -0.904299259 -0.159451827 -0.39600265
vn -0.883876741 3.78595018E-07 -0.467719883
vn -0.828851938 0.146149322 -0.540041566
vn -0.918249428 3.96529543E-07 -0.396002591
vn -0.87044853 0.153483972 -0.467720002
vn -0.790881276 0.287857443 -0.540041566
vn -0.904299021 0.159452721 -0.396002561
vn -0.830572248 0.30230391 -0.467719972
vn -0.728880107 0.420819193 -0.540041685
vn -0.862872005 0.314060062 -0.396002561
vn -0.765459657 0.44193843 -0.467719972
vn -0.644732058 0.540994823 -0.540041804
vn -0.795227289 0.459124833 -0.396002471
vn -0.677088797 0.568145216 -0.467719913
vn -0.540994465 0.644732356 -0.540041804
vn -0.703419805 0.590239584 -0.396002352
vn -0.568144858 0.677088916 -0.467719942
vn -0.420819134 0.728880048 -0.540041864
vn -0.590239286 0.703419983 -0.396002322
vn -0.441938281 0.765459657 -0.467719972
vn -0.287857234 0.790881097 -0.540041864
vn -0.459124714 0.795227408 -0.396002442
vn -0.302303642 0.830572426 -0.467719972
vn -0.146148682 0.828851819 -0.540041804
vn -0.314059824 0.862872362 -0.396002233
vn -0.153483346 0.870448709 -0.467719942
vn -0 0.841638207 -0.540041745
vn -0.159452111 0.904299319 -0.396002114
vn -0 0.883876741 -0.467719942
vn -0 0.918249547 -0.396002322
vn 0.644731879 -0.540995121 -0.540041685
vn 0.765459418 -0.441938937 -0.467719883
vn 0.72887969 -0.42081967 -0.540041804
vn 0.677088559 -0.568145454 -0.467719913
vn 0.79522711 -0.45912537 -0.396002263
vn 0.540994227 -0.644732654 -0.540041745
vn 0.703419566 -0.590239882 -0.396002382
vn 0.568144619 -0.677089155 -0.467719913
vn 0.420818746 -0.728880286 -0.540041804
vn 0.590238988 -0.703420281 -0.396002412
vn 0.441937953 -0.765459955 -0.467719883
vn 0.287856847 -0.790881276 -0.540041864
vn 0.459124267 -0.795227706 -0.396002322
vn 0.302303284 -0.830572605 -0.467719913
vn 0.146148384 -0.828851938 -0.540041804
vn 0.314059436 -0.862872481 -0.396002233
vn 0.153483048 -0.870448768 -0.467719883
vn -3.53247458E-07 -0.841638207 -0.540041864
vn 0.159451827 -0.904299319 -0.396002233
vn -3.80991224E-07 -0.883876801 -0.467719853
vn -0.146149337 -0.828851759 -0.540041924
vn -4.03827613E-07 -0.918249547 -0.396002293
vn -0.153483972 -0.870448589 -0.467719883
vn -0.287857711 -0.790881038 -0.540041685
vn -0.159452766 -0.90429914 -0.396002322
vn -0.302304149 -0.830572248 -0.467719883
vn -0.420819342 -0.728880048 -0.540041745
vn -0.31406039 -0.862872005 -0.396002322
vn -0.441938609 -0.765459657 -0.467719853
vn -0.540994704 -0.644732118 -0.540041745
vn -0.459124953 -0.795227289 -0.396002322
vn -0.568145156 -0.677088797 -0.467719913
vn -0.644732535 -0.540994287 -0.540041804
vn -0.590239525 -0.703419864 -0.396002293
vn -0.677089095 -0.56814456 -0.467719913
vn -0.728880286 -0.420818746 -0.540041804
vn -0.703420281 -0.590238988 -0.396002352
vn -0.765460014 -0.441937953 -0.467719883
vn -0.795227706 -0.459124297 -0.396002322
g Cone003_0
f 3/3/3 2/2/2 1/1/1
f 2/2/2 4/4/4 1/1/1
f 2/2/2 5/5/5 4/4/4
f 1/1/1 4/4/4 6/6/6
f 5/5/5 7/7/7 4/4/4
f 4/4/4 8/8/8 6/6/6
f 4/4/4 7/7/7 8/8/8
f 6/6/6 8/8/8 9/9/9
f 7/7/7 10/10/10 8/8/8
f 8/8/8 11/11/11 9/9/9
f 8/8/8 10/10/10 11/11/11
f 9/9/9 11/11/11 12/12/12
f 10/10/10 13/13/13 11/11/11
f 11/11/11 14/14/14 12/12/12
f 11/11/11 13/13/13 14/14/14
f 12/12/12 14/14/14 15/15/15
f 13/13/13 16/16/16 14/14/14
f 14/14/14 17/17/17 15/15/15
f 14/14/14 16/16/16 17/17/17
f 15/15/15 17/17/17 18/18/18
f 16/16/16 19/19/19 17/17/17
f 17/17/17 20/20/20 18/18/18
f 17/17/17 19/19/19 20/20/20
f 18/18/18 20/20/20 21/21/21
f 19/19/19 22/22/22 20/20/20
f 20/20/20 23/23/23 21/21/21
f 20/20/20 22/22/22 23/23/23
f 21/21/21 23/23/23 24/24/24
f 22/22/22 25/25/25 23/23/23
f 23/23/23 26/26/26 24/24/24
f 23/23/23 25/25/25 26/26/26
f 24/24/24 26/26/26 27/27/27
f 25/25/25 28/28/28 26/26/26
f 26/26/26 29/29/29 27/27/27
f 26/26/26 28/28/28 29/29/29
f 27/27/27 29/29/29 30/30/30
f 28/28/28 31/31/31 29/29/29
f 29/29/29 32/32/32 30/30/30
f 29/29/29 31/31/31 32/32/32
f 30/30/30 32/32/32 33/33/33
f 31/31/31 34/34/34 32/32/32
f 32/32/32 35/35/35 33/33/33
f 32/32/32 34/34/34 35/35/35
f 33/33/33 35/35/35 36/36/36
f 34/34/34 37/37/37 35/35/35
f 35/35/35 38/38/38 36/36/36
f 35/35/35 37/37/37 38/38/38
f 37/37/37 39/39/39 38/38/38
f 42/42/42 41/41/41 40/40/40
f 41/41/41 43/43/43 40/40/40
f 41/41/41 44/44/44 43/43/43
f 40/40/40 43/43/43 45/45/45
f 44/44/44 46/46/46 43/43/43
f 43/43/43 47/47/47 45/45/45
f 43/43/43 46/46/46 47/47/47
f 45/45/45 47/47/47 48/48/48
f 46/46/46 49/49/49 47/47/47
f 47/47/47 50/50/50 48/48/48
f 47/47/47 49/49/49 50/50/50
f 48/48/48 50/50/50 51/51/51
f 49/49/49 52/52/52 50/50/50
f 50/50/50 53/53/53 51/51/51
f 50/50/50 52/52/52 53/53/53
f 51/51/51 53/53/53 54/54/54
f 52/52/52 55/55/55 53/53/53
f 53/53/53 56/56/56 54/54/54
f 53/53/53 55/55/55 56/56/56
f 54/54/54 56/56/56 57/57/57
f 55/55/55 58/58/58 56/56/56
f 56/56/56 59/59/59 57/57/57
f 56/56/56 58/58/58 59/59/59
f 57/57/57 59/59/59 60/60/60
f 58/58/58 61/61/61 59/59/59
f 59/59/59 62/62/62 60/60/60
f 59/59/59 61/61/61 62/62/62
f 60/60/60 62/62/62 63/63/63
f 61/61/61 64/64/64 62/62/62
f 62/62/62 65/65/65 63/63/63
f 62/62/62 64/64/64 65/65/65
f 63/63/63 65/65/65 66/66/66
f 64/64/64 67/67/67 65/65/65
f 65/65/65 68/68/68 66/66/66
f 65/65/65 67/67/67 68/68/68
f 66/66/66 68/68/68 69/69/69
f 67/67/67 70/70/70 68/68/68
f 68/68/68 71/71/71 69/69/69
f 68/68/68 70/70/70 71/71/71
f 69/69/69 71/71/71 72/72/72
f 70/70/70 73/73/73 71/71/71
f 71/71/71 74/74/74 72/72/72
f 71/71/71 73/73/73 74/74/74
f 72/72/72 74/74/74 75/75/75
f 73/73/73 76/76/76 74/74/74
f 74/74/74 77/77/77 75/75/75
f 74/74/74 76/76/76 77/77/77
f 76/76/76 78/78/78 77/77/77
f 81/81/81 80/80/80 79/79/79
f 80/80/80 82/82/82 79/79/79
f 80/80/80 83/83/83 82/82/82
f 79/79/79 82/82/82 84/84/84
f 83/83/83 85/85/85 82/82/82
f 82/82/82 86/86/86 84/84/84
f 82/82/82 85/85/85 86/86/86
f 84/84/84 86/86/86 87/87/87
f 85/85/85 88/88/88 86/86/86
f 86/86/86 89/89/89 87/87/87
f 86/86/86 88/88/88 89/89/89
f 87/87/87 89/89/89 90/90/90
f 88/88/88 91/91/91 89/89/89
f 89/89/89 92/92/92 90/90/90
f 89/89/89 91/91/91 92/92/92
f 90/90/90 92/92/92 93/93/93
f 91/91/91 94/94/94 92/92/92
f 92/92/92 95/95/95 93/93/93
f 92/92/92 94/94/94 95/95/95
f 93/93/93 95/95/95 96/96/96
f 94/94/94 97/97/97 95/95/95
f 95/95/95 98/98/98 96/96/96
f 95/95/95 97/97/97 98/98/98
f 96/96/96 98/98/98 99/99/99
f 97/97/97 100/100/100 98/98/98
f 98/98/98 101/101/101 99/99/99
f 98/98/98 100/100/100 101/101/101
f 99/99/99 101/101/101 102/102/102
f 100/100/100 103/103/103 101/101/101
f 101/101/101 104/104/104 102/102/102
f 101/101/101 103/103/103 104/104/104
f 102/102/102 104/104/104 105/105/105
f 103/103/103 106/106/106 104/104/104
f 104/104/104 107/107/107 105/105/105
f 104/104/104 106/106/106 107/107/107
f 105/105/105 107/107/107 108/108/108
f 106/106/106 109/109/109 107/107/107
f 107/107/107 110/110/110 108/108/108
f 107/107/107 109/109/109 110/110/110
f 108/108/108 110/110/110 111/111/111
f 109/109/109 112/112/112 110/110/110
f 110/110/110 113/113/113 111/111/111
f 110/110/110 112/112/112 113/113/113
f 111/111/111 113/113/113 114/114/114
f 112/112/112 115/115/115 113/113/113
f 113/113/113 116/116/116 114/114/114
f 113/113/113 115/115/115 116/116/116
f 115/115/115 117/117/117 116/116/116
