g general_shizi_09
v 0.253763199 -0.275314659 0
v 0.253763199 -0.227518946 0
v 1.2537632 -0.227518946 0
v 1.2537632 -0.275314659 0
v 0.24588412 0.218439564 0
v 0.24588412 0.266235292 0
v 1.24588418 0.266235292 0
v 1.24588418 0.218439564 0
v -0.253763199 0.266235173 0
v -0.253763199 0.21843946 0
v -1.2537632 0.21843949 0
v -1.2537632 0.266235232 0
v -0.253763199 -0.224892586 0
v -0.253763199 -0.272688299 0
v -1.2537632 -0.27268824 0
v -1.2537632 -0.224892527 0
v 0.225540042 -0.247318864 0
v 0.276572049 -0.247318864 0
v 0.276572049 -1.24731874 0
v 0.225540042 -1.24731874 0
v -0.23540622 0.250784755 0
v -0.286438167 0.250784755 0
v -0.286438167 1.25078475 0
v -0.235406116 1.25078475 0
v 0.262922317 0.256837547 0
v 0.211890399 0.256837547 0
v 0.211890444 1.25683761 0
v 0.262922406 1.25683761 0
v -0.281585634 -0.256837636 0
v -0.230553627 -0.256837636 0
v -0.230553627 -1.25683761 0
v -0.281585634 -1.25683761 0
vt -0.001953125 0.509765625
vt -0.001953125 0.615234375
vt 1.00195312 0.615234375
vt 1.00195312 0.509765625
vt -0.001953125 0.638671875
vt -0.001953125 0.744140625
vt 1.00195312 0.744140625
vt 1.00195312 0.638671875
vt -0.001953125 0.509765625
vt -0.001953125 0.615234375
vt 1.00195312 0.615234375
vt 1.00195312 0.509765625
vt -0.001953125 0.638671875
vt -0.001953125 0.744140625
vt 1.00195312 0.744140625
vt 1.00195312 0.638671875
vt -0.001953125 0.638671875
vt -0.001953125 0.744140625
vt 1.00195312 0.744140625
vt 1.00195312 0.638671875
vt -0.001953125 0.638671875
vt -0.001953125 0.744140625
vt 1.00195312 0.744140625
vt 1.00195312 0.638671875
vt -0.001953125 0.509765625
vt -0.001953125 0.615234375
vt 1.00195312 0.615234375
vt 1.00195312 0.509765625
vt -0.001953125 0.509765625
vt -0.001953125 0.615234375
vt 1.00195312 0.615234375
vt 1.00195312 0.509765625
vn -0 0 1
vn -0 0 1
vn -0 0 1
vn -0 0 1
vn -0 0 1
vn -0 0 1
vn -0 0 1
vn -0 0 1
vn -0 0 1
vn -0 0 1
vn -0 0 1
vn -0 0 1
vn -0 0 1
vn -0 0 1
vn -0 0 1
vn -0 0 1
vn -0 0 1
vn -0 0 1
vn -0 0 1
vn -0 0 1
vn -0 0 1
vn -0 0 1
vn -0 0 1
vn -0 0 1
vn -0 0 1
vn -0 0 1
vn -0 0 1
vn -0 0 1
vn -0 0 1
vn -0 0 1
vn -0 0 1
vn -0 0 1
g general_shizi_09_0
f 3/3/3 2/2/2 1/1/1
f 4/4/4 3/3/3 1/1/1
f 7/7/7 6/6/6 5/5/5
f 8/8/8 7/7/7 5/5/5
f 11/11/11 10/10/10 9/9/9
f 12/12/12 11/11/11 9/9/9
f 15/15/15 14/14/14 13/13/13
f 16/16/16 15/15/15 13/13/13
f 19/19/19 18/18/18 17/17/17
f 20/20/20 19/19/19 17/17/17
f 23/23/23 22/22/22 21/21/21
f 24/24/24 23/23/23 21/21/21
f 27/27/27 26/26/26 25/25/25
f 28/28/28 27/27/27 25/25/25
f 31/31/31 30/30/30 29/29/29
f 32/32/32 31/31/31 29/29/29
