g Plane014
v -0.187489331 -0.111910515 0
v -0.187187791 -0.0423074514 0
v -0.166095674 -0.0421138369 0
v -0.164515346 -0.111699603 0
v -0.142822877 -0.04122632 0
v -0.139067873 -0.110728666 0
v -0.118218943 -0.0394483171 0
v -0.111877665 -0.108762555 0
v -0.0931489617 -0.0365978144 0
v -0.0836592317 -0.105551578 0
v -0.0685055107 -0.0325190611 0
v -0.0551014803 -0.100819953 0
v -0.0452185571 -0.0271054059 0
v -0.0268532056 -0.0942424908 0
v -0.0242675114 -0.0203450695 0
v 0.000483110052 -0.0853995606 0
v -0.00665850844 -0.0124049783 0
v 0.0263345353 -0.0736923665 0
v 0.00670026941 -0.00375059457 0
v 0.0500285365 -0.0582238808 0
v 0.0170795768 0.00667167967 0
v 0.0703286529 -0.0381525718 0
v 0.0288862213 0.0227037258 0
v 0.0873551294 -0.0150595214 0
v 0.0391412154 0.0408932827 0
v 0.101697087 0.0103739006 0
v 0.0471379161 0.0601770617 0
v 0.112979151 0.0376025178 0
v 0.0523363389 0.0794321746 0
v 0.120659202 0.0661410391 0
v 0.0544074327 0.0974829867 0
v 0.123984486 0.0955567658 0
vt 0 0
vt 0 1
vt 0.0666666701 1
vt 0.0666666701 0
vt 0.13333334 1
vt 0.13333334 0
vt 0.200000018 1
vt 0.200000018 0
vt 0.266666681 1
vt 0.266666681 0
vt 0.333333343 1
vt 0.333333343 0
vt 0.400000006 1
vt 0.400000006 0
vt 0.466666669 1
vt 0.466666669 0
vt 0.533333361 1
vt 0.533333361 0
vt 0.600000024 1
vt 0.600000024 0
vt 0.666666687 1
vt 0.666666687 0
vt 0.733333349 1
vt 0.733333349 0
vt 0.800000012 1
vt 0.800000012 0
vt 0.866666675 1
vt 0.866666675 0
vt 0.933333337 1
vt 0.933333337 0
vt 1 1
vt 1 0
vn -0 0 1
vn -0 0 1
vn -0 0 1
vn -0 0 1
vn -0 0 1
vn -0 0 1
vn -0 0 1
vn -0 0 1
vn -0 0 1
vn -0 0 1
vn -0 0 1
vn -0 0 1
vn -0 0 1
vn -0 0 1
vn -0 0 1
vn -0 0 1
vn -0 0 1
vn -0 0 1
vn -0 0 1
vn -0 0 1
vn -0 0 1
vn -0 0 1
vn -0 0 1
vn -0 0 1
vn -0 0 1
vn -0 0 1
vn -0 0 1
vn -0 0 1
vn -0 0 1
vn -0 0 1
vn -0 0 1
vn -0 0 1
g Plane014_0
f 3/3/3 2/2/2 1/1/1
f 4/4/4 3/3/3 1/1/1
f 5/5/5 3/3/3 4/4/4
f 6/6/6 5/5/5 4/4/4
f 7/7/7 5/5/5 6/6/6
f 8/8/8 7/7/7 6/6/6
f 9/9/9 7/7/7 8/8/8
f 10/10/10 9/9/9 8/8/8
f 11/11/11 9/9/9 10/10/10
f 12/12/12 11/11/11 10/10/10
f 13/13/13 11/11/11 12/12/12
f 14/14/14 13/13/13 12/12/12
f 15/15/15 13/13/13 14/14/14
f 16/16/16 15/15/15 14/14/14
f 17/17/17 15/15/15 16/16/16
f 18/18/18 17/17/17 16/16/16
f 19/19/19 17/17/17 18/18/18
f 20/20/20 19/19/19 18/18/18
f 21/21/21 19/19/19 20/20/20
f 22/22/22 21/21/21 20/20/20
f 23/23/23 21/21/21 22/22/22
f 24/24/24 23/23/23 22/22/22
f 25/25/25 23/23/23 24/24/24
f 26/26/26 25/25/25 24/24/24
f 27/27/27 25/25/25 26/26/26
f 28/28/28 27/27/27 26/26/26
f 29/29/29 27/27/27 28/28/28
f 30/30/30 29/29/29 28/28/28
f 31/31/31 29/29/29 30/30/30
f 32/32/32 31/31/31 30/30/30
