g Plane026
v -0.187177137 -0.0420001 0
v -0.179442152 -0.0416756757 0
v -0.186493263 -0.112191185 0
v -0.174467444 -0.111693606 0
v -0.170786664 -0.0408252291 0
v -0.162193775 -0.110491693 0
v -0.161369801 -0.0394413918 0
v -0.149669349 -0.108653784 0
v -0.151330292 -0.0375338234 0
v -0.136911795 -0.106231436 0
v -0.140792564 -0.0351218171 0
v -0.123952314 -0.103266224 0
v -0.129870951 -0.0322305895 0
v -0.110833153 -0.0997940749 0
v -0.118671633 -0.0288889576 0
v -0.097604312 -0.0958473012 0
v -0.107296161 -0.0251280349 0
v -0.0843202397 -0.0914557576 0
v -0.095841825 -0.0209807623 0
v -0.0710402355 -0.0866476297 0
v -0.084403567 -0.0164815634 0
v -0.0578251518 -0.0814495906 0
v -0.0730749965 -0.0116662877 0
v -0.0447381586 -0.0758868307 0
v -0.061948739 -0.00657258183 0
v -0.0318426304 -0.0699830204 0
v -0.0511168391 -0.00123978022 0
v -0.0192019287 -0.0637593791 0
v -0.040672712 0.0042897393 0
v -0.00687942514 -0.0572348796 0
v -0.0307105277 0.0099700857 0
v 0.00506286928 -0.0504246876 0
v -0.0213262178 0.0157503337 0
v 0.0165646859 -0.0433389135 0
v -0.0126180286 0.021572344 0
v 0.0275680851 -0.0359805301 0
v -0.00468672952 0.0273676664 0
v 0.0380176418 -0.0283421651 0
v 0.00236439053 0.0330529287 0
v 0.047860451 -0.020401461 0
v 0.00843146164 0.0385227017 0
v 0.057043612 -0.012114401 0
v 0.0132028759 0.0434151851 0
v 0.0663370341 -0.00245445897 0
v 0.014597171 0.0454690792 0
v 0.0784219578 0.0162516795 0
v 0.0148725417 0.0463673919 0
v 0.0844467804 0.037056949 0
v 0.0148430858 0.0474468656 0
v 0.0842630714 0.0578444414 0
v 0.0142068844 0.0495763049 0
v 0.0788372383 0.0769654885 0
v 0.0124246292 0.0526792742 0
v 0.0693736747 0.0937163755 0
v 0.00929265004 0.0561718419 0
v 0.056741111 0.107901067 0
v 0.0049562864 0.0594184101 0
v 0.0414596796 0.119374812 0
v -0.000265681447 0.0619322099 0
v 0.0238745119 0.127845049 0
v -0.00605893228 0.0634121746 0
v 0.0043367506 0.132832542 0
vt 0 1
vt 0.0333333351 1
vt 0 0
vt 0.0333333351 0
vt 0.0666666701 1
vt 0.0666666701 0
vt 0.100000009 1
vt 0.100000009 0
vt 0.13333334 1
vt 0.13333334 0
vt 0.166666672 1
vt 0.166666672 0
vt 0.200000003 1
vt 0.200000003 0
vt 0.233333334 1
vt 0.233333334 0
vt 0.266666681 1
vt 0.266666681 0
vt 0.300000012 1
vt 0.300000012 0
vt 0.333333343 1
vt 0.333333343 0
vt 0.366666675 1
vt 0.366666675 0
vt 0.400000006 1
vt 0.400000006 0
vt 0.433333337 1
vt 0.433333337 0
vt 0.466666669 1
vt 0.466666669 0
vt 0.5 1
vt 0.5 0
vt 0.533333361 1
vt 0.533333361 0
vt 0.566666722 1
vt 0.566666722 0
vt 0.600000083 1
vt 0.600000083 0
vt 0.633333445 1
vt 0.633333445 0
vt 0.666666806 1
vt 0.666666806 0
vt 0.700000167 1
vt 0.700000167 0
vt 0.733333528 1
vt 0.733333528 0
vt 0.766666889 1
vt 0.766666889 0
vt 0.80000025 1
vt 0.80000025 0
vt 0.833333611 1
vt 0.833333611 0
vt 0.866666973 1
vt 0.866666973 0
vt 0.900000334 1
vt 0.900000334 0
vt 0.933333695 1
vt 0.933333695 0
vt 0.966667056 1
vt 0.966667056 0
vt 1.00000036 1
vt 1.00000036 0
vn -0 0 1
vn -0 0 1
vn -0 0 1
vn -0 0 1
vn -0 0 1
vn -0 0 1
vn -0 0 1
vn -0 0 1
vn -0 0 1
vn -0 0 1
vn -0 0 1
vn -0 0 1
vn -0 0 1
vn -0 0 1
vn -0 0 1
vn -0 0 1
vn -0 0 1
vn -0 0 1
vn -0 0 1
vn -0 0 1
vn -0 0 1
vn -0 0 1
vn -0 0 1
vn -0 0 1
vn -0 0 1
vn -0 0 1
vn -0 0 1
vn -0 0 1
vn -0 0 1
vn -0 0 1
vn -0 0 1
vn -0 0 1
vn -0 0 1
vn -0 0 1
vn -0 0 1
vn -0 0 1
vn -0 0 1
vn -0 0 1
vn -0 0 1
vn -0 0 1
vn -0 0 1
vn -0 0 1
vn -0 0 1
vn -0 0 1
vn -0 0 1
vn -0 0 1
vn -0 0 1
vn -0 0 1
vn -0 0 1
vn -0 0 1
vn -0 0 1
vn -0 0 1
vn -0 0 1
vn -0 0 1
vn -0 0 1
vn -0 0 1
vn -0 0 1
vn -0 0 1
vn -0 0 1
vn -0 0 1
vn -0 0 1
vn -0 0 1
g Plane026_0
f 3/3/3 2/2/2 1/1/1
f 2/2/2 3/3/3 4/4/4
f 4/4/4 5/5/5 2/2/2
f 5/5/5 4/4/4 6/6/6
f 6/6/6 7/7/7 5/5/5
f 7/7/7 6/6/6 8/8/8
f 8/8/8 9/9/9 7/7/7
f 9/9/9 8/8/8 10/10/10
f 10/10/10 11/11/11 9/9/9
f 11/11/11 10/10/10 12/12/12
f 12/12/12 13/13/13 11/11/11
f 13/13/13 12/12/12 14/14/14
f 14/14/14 15/15/15 13/13/13
f 15/15/15 14/14/14 16/16/16
f 16/16/16 17/17/17 15/15/15
f 17/17/17 16/16/16 18/18/18
f 18/18/18 19/19/19 17/17/17
f 19/19/19 18/18/18 20/20/20
f 20/20/20 21/21/21 19/19/19
f 21/21/21 20/20/20 22/22/22
f 22/22/22 23/23/23 21/21/21
f 23/23/23 22/22/22 24/24/24
f 24/24/24 25/25/25 23/23/23
f 25/25/25 24/24/24 26/26/26
f 26/26/26 27/27/27 25/25/25
f 27/27/27 26/26/26 28/28/28
f 28/28/28 29/29/29 27/27/27
f 29/29/29 28/28/28 30/30/30
f 30/30/30 31/31/31 29/29/29
f 31/31/31 30/30/30 32/32/32
f 32/32/32 33/33/33 31/31/31
f 33/33/33 32/32/32 34/34/34
f 34/34/34 35/35/35 33/33/33
f 35/35/35 34/34/34 36/36/36
f 36/36/36 37/37/37 35/35/35
f 37/37/37 36/36/36 38/38/38
f 38/38/38 39/39/39 37/37/37
f 39/39/39 38/38/38 40/40/40
f 40/40/40 41/41/41 39/39/39
f 41/41/41 40/40/40 42/42/42
f 42/42/42 43/43/43 41/41/41
f 43/43/43 42/42/42 44/44/44
f 44/44/44 45/45/45 43/43/43
f 45/45/45 44/44/44 46/46/46
f 46/46/46 47/47/47 45/45/45
f 47/47/47 46/46/46 48/48/48
f 48/48/48 49/49/49 47/47/47
f 49/49/49 48/48/48 50/50/50
f 50/50/50 51/51/51 49/49/49
f 51/51/51 50/50/50 52/52/52
f 52/52/52 53/53/53 51/51/51
f 53/53/53 52/52/52 54/54/54
f 54/54/54 55/55/55 53/53/53
f 55/55/55 54/54/54 56/56/56
f 56/56/56 57/57/57 55/55/55
f 57/57/57 56/56/56 58/58/58
f 58/58/58 59/59/59 57/57/57
f 59/59/59 58/58/58 60/60/60
f 60/60/60 61/61/61 59/59/59
f 61/61/61 60/60/60 62/62/62
