g Plane023
v -0.145096913 -0.0385497436 0
v -0.145096913 0.0385497436 0
v -0.125750661 0.0385497436 0
v -0.125750661 -0.0385497436 0
v -0.106404401 0.0385497436 0
v -0.106404401 -0.0385497436 0
v -0.0870581567 0.0385497436 0
v -0.0870581567 -0.0385497436 0
v -0.0677119046 0.0385497436 0
v -0.0677119046 -0.0385497436 0
v -0.0483656488 0.0385497436 0
v -0.0483656488 -0.0385497436 0
v -0.0290193949 0.0385497436 0
v -0.0290193949 -0.0385497436 0
v -0.00967314094 0.0385497436 0
v -0.00967314094 -0.0385497436 0
v 0.009673113 0.0385497436 0
v 0.009673113 -0.0385497436 0
v 0.0290193669 0.0385497436 0
v 0.0290193669 -0.0385497436 0
v 0.0483656228 0.0385497436 0
v 0.0483656228 -0.0385497436 0
v 0.0677118823 0.0385497436 0
v 0.0677118823 -0.0385497436 0
v 0.0870581269 0.0385497436 0
v 0.0870581269 -0.0385497436 0
v 0.106404379 0.0385497436 0
v 0.106404379 -0.0385497436 0
v 0.125750631 0.0385497436 0
v 0.125750631 -0.0385497436 0
v 0.145096883 0.0385497436 0
v 0.145096883 -0.0385497436 0
vt 0 0
vt 0 1
vt 0.0666666701 1
vt 0.0666666701 0
vt 0.13333334 1
vt 0.13333334 0
vt 0.200000018 1
vt 0.200000018 0
vt 0.266666681 1
vt 0.266666681 0
vt 0.333333343 1
vt 0.333333343 0
vt 0.400000006 1
vt 0.400000006 0
vt 0.466666669 1
vt 0.466666669 0
vt 0.533333361 1
vt 0.533333361 0
vt 0.600000024 1
vt 0.600000024 0
vt 0.666666687 1
vt 0.666666687 0
vt 0.733333349 1
vt 0.733333349 0
vt 0.800000012 1
vt 0.800000012 0
vt 0.866666675 1
vt 0.866666675 0
vt 0.933333337 1
vt 0.933333337 0
vt 1 1
vt 1 0
vn -0 0 1
vn -0 0 1
vn -0 0 1
vn -0 0 1
vn -0 0 1
vn -0 0 1
vn -0 0 1
vn -0 0 1
vn -0 0 1
vn -0 0 1
vn -0 0 1
vn -0 0 1
vn -0 0 1
vn -0 0 1
vn -0 0 1
vn -0 0 1
vn -0 0 1
vn -0 0 1
vn -0 0 1
vn -0 0 1
vn -0 0 1
vn -0 0 1
vn -0 0 1
vn -0 0 1
vn -0 0 1
vn -0 0 1
vn -0 0 1
vn -0 0 1
vn -0 0 1
vn -0 0 1
vn -0 0 1
vn -0 0 1
g Plane023_0
f 3/3/3 2/2/2 1/1/1
f 4/4/4 3/3/3 1/1/1
f 5/5/5 3/3/3 4/4/4
f 6/6/6 5/5/5 4/4/4
f 7/7/7 5/5/5 6/6/6
f 8/8/8 7/7/7 6/6/6
f 9/9/9 7/7/7 8/8/8
f 10/10/10 9/9/9 8/8/8
f 11/11/11 9/9/9 10/10/10
f 12/12/12 11/11/11 10/10/10
f 13/13/13 11/11/11 12/12/12
f 14/14/14 13/13/13 12/12/12
f 15/15/15 13/13/13 14/14/14
f 16/16/16 15/15/15 14/14/14
f 17/17/17 15/15/15 16/16/16
f 18/18/18 17/17/17 16/16/16
f 19/19/19 17/17/17 18/18/18
f 20/20/20 19/19/19 18/18/18
f 21/21/21 19/19/19 20/20/20
f 22/22/22 21/21/21 20/20/20
f 23/23/23 21/21/21 22/22/22
f 24/24/24 23/23/23 22/22/22
f 25/25/25 23/23/23 24/24/24
f 26/26/26 25/25/25 24/24/24
f 27/27/27 25/25/25 26/26/26
f 28/28/28 27/27/27 26/26/26
f 29/29/29 27/27/27 28/28/28
f 30/30/30 29/29/29 28/28/28
f 31/31/31 29/29/29 30/30/30
f 32/32/32 31/31/31 30/30/30
