g Plane029
v -0.228599995 -0.0762000009 0
v -0.279399991 -0.0762000009 0
v -0.279399991 0.152400002 0
v -0.228599995 0.101599999 0
v -0 0.152400002 0
v -0 0.101599999 0
v 0.254000008 0.152400002 0
v 0.254000008 0.101599999 0
v -0.228599995 0.0711200014 0
v -0.279399991 0.0711200014 0
v -0.279399991 -0.152400002 -1.33232314E-08
v -0.228599995 -0.101599999 -8.88215368E-09
v -0 -0.152400002 -1.33232314E-08
v -0 -0.101599999 -8.88215368E-09
v 0.254000008 -0.152400002 -1.33232314E-08
v 0.254000008 -0.101599999 -8.88215368E-09
vt 0 0
vt 0 1
vt 0.333333343 1
vt 0.333333343 0
vt 0.666666687 1
vt 0.666666687 0
vt 1 1
vt 1 0
vt 0 0
vt 0 1
vt 0.333333343 1
vt 0.333333343 0
vt 0.666666687 1
vt 0.666666687 0
vt 1 1
vt 1 0
vn -0 0 1
vn -0 0 1
vn -0 0 1
vn -0 0 1
vn -0 0 1
vn -0 0 1
vn -0 0 1
vn -0 0 1
vn -0 0 -1
vn -0 0 -1
vn -0 0 -1
vn -0 0 -1
vn -0 0 -1
vn -0 0 -1
vn -0 0 -1
vn -0 0 -1
g Plane029_0
f 3/3/3 2/2/2 1/1/1
f 4/4/4 3/3/3 1/1/1
f 5/5/5 3/3/3 4/4/4
f 6/6/6 5/5/5 4/4/4
f 7/7/7 5/5/5 6/6/6
f 8/8/8 7/7/7 6/6/6
f 11/11/11 10/10/10 9/9/9
f 12/12/12 11/11/11 9/9/9
f 13/13/13 11/11/11 12/12/12
f 14/14/14 13/13/13 12/12/12
f 15/15/15 13/13/13 14/14/14
f 16/16/16 15/15/15 14/14/14
