g 6
v 0.0132233202 -0.0198068339 0
v 0.0240596738 0.0298239551 0
v 0.0555186048 0.0212074742 0
v 0.0391775519 -0.0268925205 0
v 0.0858181119 0.00894601364 0
v 0.0641971454 -0.03702325 0
v 0.114648037 -0.00646355888 0
v 0.088522017 -0.0500304252 0
v 0.141948402 -0.0245827287 0
v 0.112020776 -0.0656312406 0
v 0.167673782 -0.0450013727 0
v 0.134547114 -0.0835145712 0
v 0.191780925 -0.0673325658 0
v 0.155952588 -0.103346042 0
v 0.214222386 -0.0912064463 0
v 0.176093027 -0.124774262 0
v 0.234943986 -0.116265237 0
v 0.194831133 -0.147435725 0
v 0.253884703 -0.142159924 0
v 0.212036088 -0.170958117 0
v 0.270954788 -0.168500081 0
v 0.227688625 -0.19512108 0
vt 0 0
vt 0 1
vt 0.100000001 1
vt 0.100000001 0
vt 0.200000003 1
vt 0.200000003 0
vt 0.300000012 1
vt 0.300000012 0
vt 0.400000006 1
vt 0.400000006 0
vt 0.5 1
vt 0.5 0
vt 0.600000024 1
vt 0.600000024 0
vt 0.700000048 1
vt 0.700000048 0
vt 0.800000072 1
vt 0.800000072 0
vt 0.900000095 1
vt 0.900000095 0
vt 1.00000012 1
vt 1.00000012 0
vn -0 0 1
vn -0 0 1
vn -0 0 1
vn -0 0 1
vn -0 0 1
vn -0 0 1
vn -0 0 1
vn -0 0 1
vn -0 0 1
vn -0 0 1
vn -0 0 1
vn -0 0 1
vn -0 0 1
vn -0 0 1
vn -0 0 1
vn -0 0 1
vn -0 0 1
vn -0 0 1
vn -0 0 1
vn -0 0 1
vn -0 0 1
vn -0 0 1
g 6_0
f 3/3/3 2/2/2 1/1/1
f 4/4/4 3/3/3 1/1/1
f 5/5/5 3/3/3 4/4/4
f 6/6/6 5/5/5 4/4/4
f 7/7/7 5/5/5 6/6/6
f 8/8/8 7/7/7 6/6/6
f 9/9/9 7/7/7 8/8/8
f 10/10/10 9/9/9 8/8/8
f 11/11/11 9/9/9 10/10/10
f 12/12/12 11/11/11 10/10/10
f 13/13/13 11/11/11 12/12/12
f 14/14/14 13/13/13 12/12/12
f 15/15/15 13/13/13 14/14/14
f 16/16/16 15/15/15 14/14/14
f 17/17/17 15/15/15 16/16/16
f 18/18/18 17/17/17 16/16/16
f 19/19/19 17/17/17 18/18/18
f 20/20/20 19/19/19 18/18/18
f 21/21/21 19/19/19 20/20/20
f 22/22/22 21/21/21 20/20/20
