g 8
v -0.0148947304 0.0105174296 0
v 0.0278891884 -0.01687208 0
v 0.00563521776 -0.0516340099 0
v -0.0371487029 -0.0242444985 0
v -0.0175104141 -0.0866259634 0
v -0.0593104772 -0.057757277 0
v -0.0421826951 -0.120843589 0
v -0.0827811882 -0.0903082937 0
v -0.0682670549 -0.154121071 0
v -0.107618719 -0.121994928 0
v -0.0956928954 -0.186397105 0
v -0.133752391 -0.152750164 0
v -0.124390028 -0.217610061 0
v -0.161111146 -0.182507321 0
v -0.154288843 -0.247698054 0
v -0.189623356 -0.21119985 0
v -0.185320079 -0.276598871 0
v -0.219216943 -0.238761783 0
v -0.21741493 -0.304249972 0
v -0.249819636 -0.265127361 0
v -0.250504851 -0.330588281 0
v -0.28135854 -0.290231228 0
v -0.284521729 -0.355550438 0
v -0.313760638 -0.314008504 0
v -0.319397688 -0.379072458 0
v -0.346952558 -0.336394817 0
v -0.35862419 -0.399715483 0
v -0.37857461 -0.352996916 0
v -0.402097493 -0.415327102 0
v -0.416928947 -0.366740346 0
v -0.448100686 -0.42774564 0
v -0.460090905 -0.378380835 0
v -0.49492687 -0.438481987 0
v -0.50592947 -0.388887733 0
v -0.540726483 -0.448852599 0
v -0.552456796 -0.399425477 0
v -0.583495557 -0.460032523 0
v -0.5978387 -0.411299348 0
v -0.621064961 -0.472992986 0
v -0.640406489 -0.426019013 0
v -0.65116781 -0.488281101 0
v -0.678589225 -0.445517719 0
v -0.672009289 -0.5057531 0
v -0.710343838 -0.472419739 0
v -0.683721602 -0.525654376 0
v -0.731700361 -0.508960426 0
v -0.687321484 -0.553421974 0
v -0.738118708 -0.552890241 0
v -0.687753558 -0.594694853 0
v -0.738550842 -0.594163001 0
vt 0 0
vt 0 1
vt 0.0416666679 1
vt 0.0416666679 0
vt 0.0833333358 1
vt 0.0833333358 0
vt 0.125 1
vt 0.125 0
vt 0.166666672 1
vt 0.166666672 0
vt 0.208333343 1
vt 0.208333343 0
vt 0.25 1
vt 0.25 0
vt 0.291666657 1
vt 0.291666657 0
vt 0.333333313 1
vt 0.333333313 0
vt 0.37499997 1
vt 0.37499997 0
vt 0.416666627 1
vt 0.416666627 0
vt 0.458333284 1
vt 0.458333284 0
vt 0.49999994 1
vt 0.49999994 0
vt 0.541666627 1
vt 0.541666627 0
vt 0.583333313 1
vt 0.583333313 0
vt 0.625 1
vt 0.625 0
vt 0.666666687 1
vt 0.666666687 0
vt 0.708333373 1
vt 0.708333373 0
vt 0.75000006 1
vt 0.75000006 0
vt 0.791666746 1
vt 0.791666746 0
vt 0.833333433 1
vt 0.833333433 0
vt 0.875000119 1
vt 0.875000119 0
vt 0.916666806 1
vt 0.916666806 0
vt 0.958333492 1
vt 0.958333492 0
vt 1.00000012 1
vt 1.00000012 0
vn -0 0 1
vn -0 0 1
vn -0 0 1
vn -0 0 1
vn -0 0 1
vn -0 0 1
vn -0 0 1
vn -0 0 1
vn -0 0 1
vn -0 0 1
vn -0 0 1
vn -0 0 1
vn -0 0 1
vn -0 0 1
vn -0 0 1
vn -0 0 1
vn -0 0 1
vn -0 0 1
vn -0 0 1
vn -0 0 1
vn -0 0 1
vn -0 0 1
vn -0 0 1
vn -0 0 1
vn -0 0 1
vn -0 0 1
vn -0 0 1
vn -0 0 1
vn -0 0 1
vn -0 0 1
vn -0 0 1
vn -0 0 1
vn -0 0 1
vn -0 0 1
vn -0 0 1
vn -0 0 1
vn -0 0 1
vn -0 0 1
vn -0 0 1
vn -0 0 1
vn -0 0 1
vn -0 0 1
vn -0 0 1
vn -0 0 1
vn -0 0 1
vn -0 0 1
vn -0 0 1
vn -0 0 1
vn -0 0 1
vn -0 0 1
g 8_0
f 3/3/3 2/2/2 1/1/1
f 4/4/4 3/3/3 1/1/1
f 5/5/5 3/3/3 4/4/4
f 6/6/6 5/5/5 4/4/4
f 7/7/7 5/5/5 6/6/6
f 8/8/8 7/7/7 6/6/6
f 9/9/9 7/7/7 8/8/8
f 10/10/10 9/9/9 8/8/8
f 11/11/11 9/9/9 10/10/10
f 12/12/12 11/11/11 10/10/10
f 13/13/13 11/11/11 12/12/12
f 14/14/14 13/13/13 12/12/12
f 15/15/15 13/13/13 14/14/14
f 16/16/16 15/15/15 14/14/14
f 17/17/17 15/15/15 16/16/16
f 18/18/18 17/17/17 16/16/16
f 19/19/19 17/17/17 18/18/18
f 20/20/20 19/19/19 18/18/18
f 21/21/21 19/19/19 20/20/20
f 22/22/22 21/21/21 20/20/20
f 23/23/23 21/21/21 22/22/22
f 24/24/24 23/23/23 22/22/22
f 25/25/25 23/23/23 24/24/24
f 26/26/26 25/25/25 24/24/24
f 27/27/27 25/25/25 26/26/26
f 28/28/28 27/27/27 26/26/26
f 29/29/29 27/27/27 28/28/28
f 30/30/30 29/29/29 28/28/28
f 31/31/31 29/29/29 30/30/30
f 32/32/32 31/31/31 30/30/30
f 33/33/33 31/31/31 32/32/32
f 34/34/34 33/33/33 32/32/32
f 35/35/35 33/33/33 34/34/34
f 36/36/36 35/35/35 34/34/34
f 37/37/37 35/35/35 36/36/36
f 38/38/38 37/37/37 36/36/36
f 39/39/39 37/37/37 38/38/38
f 40/40/40 39/39/39 38/38/38
f 41/41/41 39/39/39 40/40/40
f 42/42/42 41/41/41 40/40/40
f 43/43/43 41/41/41 42/42/42
f 44/44/44 43/43/43 42/42/42
f 45/45/45 43/43/43 44/44/44
f 46/46/46 45/45/45 44/44/44
f 47/47/47 45/45/45 46/46/46
f 48/48/48 47/47/47 46/46/46
f 49/49/49 47/47/47 48/48/48
f 50/50/50 49/49/49 48/48/48
