g char_mlyss_emitter_05
v -0.216004133 -0.0612540133 0
v -0.223980933 -0.118224181 0
v -0.281748772 -0.0735540539 0
v -0.280153394 0.00734654069 0
v 0.108201392 -0.10477943 0
v 0.0826755911 -0.164836705 0
v 0.0178322289 -0.168825105 0
v 0.0561209135 -0.122328416 0
v -0.110048704 0.24217236 0
v -0.0520846993 0.214321971 0
v -0.164493769 0.184451327 0
v -0.203032896 0.20220311 0
vt 0 0
vt 0 1
vt 1 1
vt 1 0
vt 0 0
vt 0 1
vt 1 1
vt 1 0
vt 0 0
vt 0 1
vt 1 1
vt 1 0
vn -0 0 1
vn -0 0 1
vn -0 0 1
vn -0 0 1
vn -0 0 1
vn -0 0 1
vn -0 0 1
vn -0 0 1
vn -0 0 1
vn -0 0 1
vn -0 0 1
vn -0 0 1
g char_mlyss_emitter_05_0
f 3/3/3 2/2/2 1/1/1
f 4/4/4 3/3/3 1/1/1
f 7/7/7 6/6/6 5/5/5
f 8/8/8 7/7/7 5/5/5
f 11/11/11 10/10/10 9/9/9
f 12/12/12 11/11/11 9/9/9
