g char_mlyss_emitter_01
v -0.347484797 -0.0523225069 0
v -0.208027393 0.199903652 0
v 0.134913802 -0.222530454 0
v 0.226982757 -0.282494932 0
v -0.308490872 -0.203423962 0
v 0.028763663 -0.295492887 0
v 0.243230239 -0.110542595 0
v 0.151161268 -0.0505781211 0
vt 0 0
vt 0 1
vt 1 1
vt 1 0
vt 0 0
vt 1 0
vt 1 0
vt 1 1
vn -0 0 1
vn -0 0 1
vn -0 0 1
vn -0 0 1
vn -0 0 1
vn -0 0 1
vn -0 0 1
vn -0 0 1
g char_mlyss_emitter_01_0
f 3/3/3 2/2/2 1/1/1
f 4/4/4 3/3/3 1/1/1
f 1/1/1 5/5/5 4/4/4
f 5/5/5 6/6/6 4/4/4
f 4/4/4 7/7/7 3/3/3
f 7/7/7 8/8/8 3/3/3
