g char_mlyss_emitter_06
v -0.0360743552 -0.0147063266 0
v -0.0302196052 -0.0213071872 0
v -0.0411821008 -0.023603145 0
v -0.0504647419 -0.0153653538 0
v 0.0164784156 -0.0225326736 0
v -0.00344983605 -0.0317530371 0
v -0.0205280464 -0.0181076396 0
v -0.000477331807 -0.0151521228 0
v -0.0189371072 0.00530368648 0
v -0.00444610557 -0.00165891112 0
v -0.0325483717 -0.00912657194 0
v -0.0421831533 -0.00468862616 0
vt 0 0
vt 0 1
vt 1 1
vt 1 0
vt 0 0
vt 0 1
vt 1 1
vt 1 0
vt 0 0
vt 0 1
vt 1 1
vt 1 0
vn -0 0 1
vn -0 0 1
vn -0 0 1
vn -0 0 1
vn -0 0 1
vn -0 0 1
vn -0 0 1
vn -0 0 1
vn -0 0 1
vn -0 0 1
vn -0 0 1
vn -0 0 1
g char_mlyss_emitter_06_0
f 3/3/3 2/2/2 1/1/1
f 4/4/4 3/3/3 1/1/1
f 7/7/7 6/6/6 5/5/5
f 8/8/8 7/7/7 5/5/5
f 11/11/11 10/10/10 9/9/9
f 12/12/12 11/11/11 9/9/9
