g general_kale_01
v -0.452658981 -0.301793337 0
v -0.452658981 -0.200636685 0
v 0.132165372 -0.200636685 0
v 0.132165372 -0.301793337 0
v -0.102160439 -0.534973204 0
v -0.174096927 -0.463854849 0
v 0.237064555 -0.0479632765 0
v 0.309001058 -0.119081602 0
v 0.310081333 -0.449657261 0
v 0.208931297 -0.450814307 0
v 0.202242032 0.133971855 0
v 0.303392053 0.1351289 0
v 0.539236903 -0.0965145081 0
v 0.46894604 -0.169259742 0
v 0.0483787507 0.237117857 0
v 0.118669629 0.30986312 0
v 0.449211299 0.314724416 0
v 0.451525271 0.213594228 0
v -0.133146212 0.200216606 0
v -0.135460094 0.301346809 0
v 0.0934705585 0.539825737 0
v 0.167015016 0.470371544 0
v -0.234525606 0.045183599 0
v -0.308070064 0.114637837 0
v -0.316711813 0.445102304 0
v -0.215614706 0.448572814 0
v -0.195550472 -0.135907382 0
v -0.296647578 -0.139377892 0
v -0.537729502 0.0868100822 0
v -0.469120979 0.161144152 0
v -0.0393680185 -0.235506892 0
v -0.107976481 -0.309840977 0
vt 0 0
vt 0 1
vt 1 1
vt 1 0
vt 0 0
vt 0 1
vt 1 1
vt 1 0
vt 0 0
vt 0 1
vt 1 1
vt 1 0
vt 0 0
vt 0 1
vt 1 1
vt 1 0
vt 0 0
vt 0 1
vt 1 1
vt 1 0
vt 0 0
vt 0 1
vt 1 1
vt 1 0
vt 0 0
vt 0 1
vt 1 1
vt 1 0
vt 0 0
vt 0 1
vt 1 1
vt 1 0
vn -0 0 1
vn -0 0 1
vn -0 0 1
vn -0 0 1
vn -0 0 1
vn -0 0 1
vn -0 0 1
vn -0 0 1
vn -0 0 1
vn -0 0 1
vn -0 0 1
vn -0 0 1
vn -0 0 1
vn -0 0 1
vn -0 0 1
vn -0 0 1
vn -0 0 1
vn -0 0 1
vn -0 0 1
vn -0 0 1
vn -0 0 1
vn -0 0 1
vn -0 0 1
vn -0 0 1
vn -0 0 1
vn -0 0 1
vn -0 0 1
vn -0 0 1
vn -0 0 1
vn -0 0 1
vn -0 0 1
vn -0 0 1
g general_kale_01_0
f 3/3/3 2/2/2 1/1/1
f 4/4/4 3/3/3 1/1/1
f 7/7/7 6/6/6 5/5/5
f 8/8/8 7/7/7 5/5/5
f 11/11/11 10/10/10 9/9/9
f 12/12/12 11/11/11 9/9/9
f 15/15/15 14/14/14 13/13/13
f 16/16/16 15/15/15 13/13/13
f 19/19/19 18/18/18 17/17/17
f 20/20/20 19/19/19 17/17/17
f 23/23/23 22/22/22 21/21/21
f 24/24/24 23/23/23 21/21/21
f 27/27/27 26/26/26 25/25/25
f 28/28/28 27/27/27 25/25/25
f 31/31/31 30/30/30 29/29/29
f 32/32/32 31/31/31 29/29/29
