g general_plane_43
v 0.0893510878 -0.363915861 -1.8189894E-12
v 0.188762933 -0.291458935 -1.8189894E-12
v 0.123960286 -0.378274113 -1.8189894E-12
v 0.157039046 -0.278125405 -1.8189894E-12
v 0.0544584394 -0.349443972 -1.8189894E-12
v 0.12931177 -0.266453296 -1.8189894E-12
v 0.0202094615 -0.334268183 -1.8189894E-12
v 0.102123857 -0.254422665 -1.8189894E-12
v -0.153409541 0.280510426 -1.67171499E-10
v -0.111138821 0.27245751 3.2888603E-10
v -0.116521001 0.245035127 6.59591048E-10
v -0.166191638 0.254497737 1.6353352E-10
v -0.166191638 0.254497737 1.6353352E-10
v -0.116521001 0.245035127 6.59591048E-10
v -0.121381104 0.219071597 3.2888603E-10
v -0.178732932 0.22923626 1.6353352E-10
v -0.178732932 0.22923626 1.6353352E-10
v -0.121381104 0.219071597 3.2888603E-10
v -0.125680804 0.194783285 -6.63229027E-10
v -0.191052616 0.204617441 -3.32524008E-10
v -0.191052616 0.204617441 -3.32524008E-10
v -0.125680804 0.194783285 -6.63229027E-10
v -0.129119515 0.170561373 -6.63229027E-10
v -0.202535629 0.179703087 -1.8189894E-12
v -0.202535629 0.179703087 -1.8189894E-12
v -0.129119515 0.170561373 -6.63229027E-10
v -0.130840719 0.146265194 6.59591048E-10
v -0.212288857 0.154396817 -6.63229027E-10
v -0.212288857 0.154396817 -6.63229027E-10
v -0.130840719 0.146265194 6.59591048E-10
v -0.132088184 0.122132003 -1.8189894E-12
v -0.221549392 0.128854871 -3.32524008E-10
v -0.221549392 0.128854871 -3.32524008E-10
v -0.132088184 0.122132003 -1.8189894E-12
v -0.131035209 0.0980729163 -1.8189894E-12
v -0.228468716 0.102887392 6.59591048E-10
v -0.131035209 0.0980729163 -1.8189894E-12
v -0.129985273 0.0742151439 -6.63229027E-10
v -0.235295832 0.0767178386 -6.63229027E-10
v -0.235295832 0.0767178386 -6.63229027E-10
v -0.129985273 0.0742151439 -6.63229027E-10
v -0.125907123 0.0506634451 -1.8189894E-12
v -0.238964081 0.0501359776 -1.8189894E-12
v -0.121944606 0.0273295529 1.32100109E-09
v -0.242546022 0.0233361758 -1.8189894E-12
v -0.242546022 0.0233361758 -1.8189894E-12
v -0.121944606 0.0273295529 1.32100109E-09
v -0.115065813 0.00456833281 -1.32463907E-09
v -0.24291116 -0.00375041366 -1.8189894E-12
v -0.107889712 -0.0179004222 -1.8189894E-12
v -0.242616057 -0.0310856514 -1.8189894E-12
v -0.242616057 -0.0310856514 -1.8189894E-12
v -0.107889712 -0.0179004222 -1.8189894E-12
v -0.0984808803 -0.0396192484 -1.32463907E-09
v -0.238905668 -0.0584981181 -1.8189894E-12
v -0.238905668 -0.0584981181 -1.8189894E-12
v -0.0984808803 -0.0396192484 -1.32463907E-09
v -0.0916054249 -0.0614719577 -1.8189894E-12
v -0.230319858 -0.0854989439 -1.8189894E-12
v -0.230319858 -0.0854989439 -1.8189894E-12
v -0.0916054249 -0.0614719577 -1.8189894E-12
v -0.0825961232 -0.0826968402 -1.32463907E-09
v -0.219034612 -0.112142324 -1.8189894E-12
v -0.219034612 -0.112142324 -1.8189894E-12
v -0.0825961232 -0.0826968402 -1.32463907E-09
v -0.0719028711 -0.103428081 1.32100109E-09
v -0.205452263 -0.138469681 -1.8189894E-12
v -0.205452263 -0.138469681 -1.8189894E-12
v -0.0719028711 -0.103428081 1.32100109E-09
v -0.059707582 -0.123580009 -1.8189894E-12
v -0.189749062 -0.164270714 -1.8189894E-12
v -0.189749062 -0.164270714 -1.8189894E-12
v -0.059707582 -0.123580009 -1.8189894E-12
v -0.0450386703 -0.142809317 -1.8189894E-12
v -0.17083627 -0.189264312 -1.8189894E-12
v -0.0296140611 -0.161667734 -1.8189894E-12
v -0.150575399 -0.213727415 -1.8189894E-12
v -0.0110073984 -0.179068685 -1.8189894E-12
v -0.126444459 -0.236639693 -1.8189894E-12
v 0.00762090087 -0.196441546 -1.8189894E-12
v -0.10176003 -0.259245634 -1.8189894E-12
v -0.10176003 -0.259245634 -1.8189894E-12
v 0.00762090087 -0.196441546 -1.8189894E-12
v 0.0298741758 -0.211819172 -2.64745914E-09
v -0.0730685592 -0.279471338 -1.8189894E-12
v 0.0518682003 -0.227367148 -1.8189894E-12
v -0.044172585 -0.299562871 -1.8189894E-12
v -0.044172585 -0.299562871 -1.8189894E-12
v 0.0518682003 -0.227367148 -1.8189894E-12
v 0.0769503415 -0.240905538 -1.8189894E-12
v -0.0121860802 -0.317087978 -1.8189894E-12
v 0.102123857 -0.254422665 -1.8189894E-12
v 0.0202094615 -0.334268183 -1.8189894E-12
vt 0.964285672 0
vt 1 1
vt 1 0
vt 0.964285731 1
vt 0.928571343 0
vt 0.928571463 1
vt 0.892857075 0
vt 0.892857134 1
vt 0 0
vt 0 1
vt 0.0357142873 1
vt 0.0357142873 0
vt 0.0357142873 0
vt 0.0357142873 1
vt 0.0714285746 1
vt 0.0714285746 0
vt 0.0714285746 0
vt 0.0714285746 1
vt 0.107142866 1
vt 0.107142866 0
vt 0.107142866 0
vt 0.107142866 1
vt 0.142857149 1
vt 0.142857149 0
vt 0.142857149 0
vt 0.142857149 1
vt 0.178571433 1
vt 0.178571433 0
vt 0.178571433 0
vt 0.178571433 1
vt 0.214285716 1
vt 0.214285731 0
vt 0.214285731 0
vt 0.214285716 1
vt 0.25 1
vt 0.25 0
vt 0.25 1
vt 0.285714298 1
vt 0.285714298 0
vt 0.285714298 0
vt 0.285714298 1
vt 0.321428567 1
vt 0.321428597 0
vt 0.357142866 1
vt 0.357142895 0
vt 0.357142895 0
vt 0.357142866 1
vt 0.392857134 1
vt 0.392857164 0
vt 0.428571433 1
vt 0.428571433 0
vt 0.428571433 0
vt 0.428571433 1
vt 0.464285702 1
vt 0.464285731 0
vt 0.464285731 0
vt 0.464285702 1
vt 0.5 1
vt 0.5 0
vt 0.5 0
vt 0.5 1
vt 0.535714269 1
vt 0.535714269 0
vt 0.535714269 0
vt 0.535714269 1
vt 0.571428537 1
vt 0.571428597 0
vt 0.571428597 0
vt 0.571428537 1
vt 0.607142806 1
vt 0.607142866 0
vt 0.607142866 0
vt 0.607142806 1
vt 0.642857134 1
vt 0.642857075 0
vt 0.678571403 1
vt 0.678571403 0
vt 0.714285672 1
vt 0.714285672 0
vt 0.74999994 1
vt 0.74999994 0
vt 0.74999994 0
vt 0.74999994 1
vt 0.785714209 1
vt 0.785714209 0
vt 0.821428478 1
vt 0.821428537 0
vt 0.821428537 0
vt 0.821428478 1
vt 0.857142806 1
vt 0.857142806 0
vt 0.892857134 1
vt 0.892857075 0
vn -0 0 1
vn -0 0 1
vn -0 0 1
vn -0 0 1
vn -0 0 1
vn -0 0 1
vn -0 0 1
vn -0 0 1
vn -0 0 1
vn -0 0 1
vn -0 0 1
vn -0 0 1
vn -0 0 1
vn -0 0 1
vn -0 0 1
vn -0 0 1
vn -0 0 1
vn -0 0 1
vn -0 0 1
vn -0 0 1
vn -0 0 1
vn -0 0 1
vn -0 0 1
vn -0 0 1
vn -0 0 1
vn -0 0 1
vn -0 0 1
vn -0 0 1
vn -0 0 1
vn -0 0 1
vn -0 0 1
vn -0 0 1
vn -0 0 1
vn -0 0 1
vn -0 0 1
vn -0 0 1
vn -0 0 1
vn -0 0 1
vn -0 0 1
vn -0 0 1
vn -0 0 1
vn -0 0 1
vn -0 0 1
vn -0 0 1
vn -0 0 1
vn -0 0 1
vn -0 0 1
vn -0 0 1
vn -0 0 1
vn -0 0 1
vn -0 0 1
vn -0 0 1
vn -0 0 1
vn -0 0 1
vn -0 0 1
vn -0 0 1
vn -0 0 1
vn -0 0 1
vn -0 0 1
vn -0 0 1
vn -0 0 1
vn -0 0 1
vn -0 0 1
vn -0 0 1
vn -0 0 1
vn -0 0 1
vn -0 0 1
vn -0 0 1
vn -0 0 1
vn -0 0 1
vn -0 0 1
vn -0 0 1
vn -0 0 1
vn -0 0 1
vn -0 0 1
vn -0 0 1
vn -0 0 1
vn -0 0 1
vn -0 0 1
vn -0 0 1
vn -0 0 1
vn -0 0 1
vn -0 0 1
vn -0 0 1
vn -0 0 1
vn -0 0 1
vn -0 0 1
vn -0 0 1
vn -0 0 1
vn -0 0 1
vn -0 0 1
vn -0 0 1
vn -0 0 1
g general_plane_43_0
f 3/3/3 2/2/2 1/1/1
f 2/2/2 4/4/4 1/1/1
f 1/1/1 4/4/4 5/5/5
f 4/4/4 6/6/6 5/5/5
f 5/5/5 6/6/6 7/7/7
f 6/6/6 8/8/8 7/7/7
f 11/11/11 10/10/10 9/9/9
f 12/12/12 11/11/11 9/9/9
f 15/15/15 14/14/14 13/13/13
f 16/16/16 15/15/15 13/13/13
f 19/19/19 18/18/18 17/17/17
f 20/20/20 19/19/19 17/17/17
f 23/23/23 22/22/22 21/21/21
f 24/24/24 23/23/23 21/21/21
f 27/27/27 26/26/26 25/25/25
f 28/28/28 27/27/27 25/25/25
f 31/31/31 30/30/30 29/29/29
f 32/32/32 31/31/31 29/29/29
f 35/35/35 34/34/34 33/33/33
f 36/36/36 35/35/35 33/33/33
f 38/38/38 37/37/37 36/36/36
f 39/39/39 38/38/38 36/36/36
f 42/42/42 41/41/41 40/40/40
f 43/43/43 42/42/42 40/40/40
f 44/44/44 42/42/42 43/43/43
f 45/45/45 44/44/44 43/43/43
f 48/48/48 47/47/47 46/46/46
f 49/49/49 48/48/48 46/46/46
f 50/50/50 48/48/48 49/49/49
f 51/51/51 50/50/50 49/49/49
f 54/54/54 53/53/53 52/52/52
f 55/55/55 54/54/54 52/52/52
f 58/58/58 57/57/57 56/56/56
f 59/59/59 58/58/58 56/56/56
f 62/62/62 61/61/61 60/60/60
f 63/63/63 62/62/62 60/60/60
f 66/66/66 65/65/65 64/64/64
f 67/67/67 66/66/66 64/64/64
f 70/70/70 69/69/69 68/68/68
f 71/71/71 70/70/70 68/68/68
f 74/74/74 73/73/73 72/72/72
f 75/75/75 74/74/74 72/72/72
f 76/76/76 74/74/74 75/75/75
f 77/77/77 76/76/76 75/75/75
f 78/78/78 76/76/76 77/77/77
f 79/79/79 78/78/78 77/77/77
f 80/80/80 78/78/78 79/79/79
f 81/81/81 80/80/80 79/79/79
f 84/84/84 83/83/83 82/82/82
f 85/85/85 84/84/84 82/82/82
f 86/86/86 84/84/84 85/85/85
f 87/87/87 86/86/86 85/85/85
f 90/90/90 89/89/89 88/88/88
f 91/91/91 90/90/90 88/88/88
f 92/92/92 90/90/90 91/91/91
f 93/93/93 92/92/92 91/91/91
