g general_plane_43_2
v 0.556953609 -1.40142202 -4.54747351E-12
v 0.786901474 -1.32159305 3.30250272E-09
v 0.813936532 -1.41863227 -4.54747351E-12
v 0.575383544 -1.46701789 -3.31159766E-09
v -0.265534371 0.581826031 -4.54747351E-12
v -0.234602243 0.574047685 -4.54747351E-12
v -0.242907479 0.497369885 -4.54747351E-12
v -0.28077668 0.500192404 9.87978449E-11
v -0.28077668 0.500192404 9.87978449E-11
v -0.242907479 0.497369885 -4.54747351E-12
v -0.239419043 0.418386489 -8.31310021E-10
v -0.284646153 0.417057544 2.02143163E-10
v -0.228418186 0.339238316 -8.31310021E-10
v -0.282109737 0.333829552 -4.54747351E-12
v -0.212102234 0.260559648 -8.31310021E-10
v -0.275638103 0.250660628 -4.54747351E-12
v -0.191714987 0.182644814 -1.65807257E-09
v -0.266572535 0.167517364 -4.54747351E-12
v -0.167725831 0.105633132 -1.65807257E-09
v -0.255390555 0.0843854845 -4.54747351E-12
v -0.255390555 0.0843854845 -4.54747351E-12
v -0.167725831 0.105633132 -1.65807257E-09
v -0.14014557 0.0296853445 -4.54747351E-12
v -0.242041647 0.00135181472 -4.54747351E-12
v -0.14014557 0.0296853445 -4.54747351E-12
v -0.108675063 -0.0448425673 -4.54747351E-12
v -0.226066411 -0.0813565105 -4.54747351E-12
v -0.0749190152 -0.118150964 -4.54747351E-12
v -0.208784342 -0.164164901 1.64897762E-09
v -0.208784342 -0.164164901 1.64897762E-09
v -0.0749190152 -0.118150964 -4.54747351E-12
v -0.0385648757 -0.190018564 -4.54747351E-12
v -0.189562067 -0.246887133 -4.54747351E-12
v -0.0385648757 -0.190018564 -4.54747351E-12
v 0.000353232026 -0.260166764 -4.54747351E-12
v -0.167970583 -0.32940805 -4.54747351E-12
v 0.0412061065 -0.328629166 3.30250272E-09
v -0.144106001 -0.411824137 -4.54747351E-12
v -0.144106001 -0.411824137 -4.54747351E-12
v 0.0412061065 -0.328629166 3.30250272E-09
v 0.0830633193 -0.395599157 -4.54747351E-12
v -0.117335618 -0.493909955 -4.54747351E-12
v -0.117335618 -0.493909955 -4.54747351E-12
v 0.121751949 -0.46300891 -3.31159766E-09
v -0.0818289071 -0.57278502 3.30250272E-09
v -0.0818289071 -0.57278502 3.30250272E-09
v 0.121751949 -0.46300891 -3.31159766E-09
v 0.162479654 -0.527510107 -3.31159766E-09
v -0.040961951 -0.6501863 -4.54747351E-12
v -0.040961951 -0.6501863 -4.54747351E-12
v 0.204302073 -0.589093983 -3.31159766E-09
v 0.00517718494 -0.726107061 -4.54747351E-12
v 0.00517718494 -0.726107061 -4.54747351E-12
v 0.204302073 -0.589093983 -3.31159766E-09
v 0.247665375 -0.647203565 -4.54747351E-12
v 0.0577615947 -0.799437523 -4.54747351E-12
v 0.0577615947 -0.799437523 -4.54747351E-12
v 0.247665375 -0.647203565 -4.54747351E-12
v 0.294803619 -0.701571584 -4.54747351E-12
v 0.117082 -0.867895544 -4.54747351E-12
v 0.117082 -0.867895544 -4.54747351E-12
v 0.294803619 -0.701571584 -4.54747351E-12
v 0.34824127 -0.754301906 -6.61864785E-09
v 0.179878771 -0.930093586 -4.54747351E-12
v 0.408218265 -0.809352934 -4.54747351E-12
v 0.241352618 -0.986566186 -4.54747351E-12
v 0.470383763 -0.869106054 -4.54747351E-12
v 0.298815399 -1.04177034 -4.54747351E-12
v 0.531303525 -0.931977272 -4.54747351E-12
v 0.353531659 -1.09824753 -4.54747351E-12
v 0.590706527 -0.998245955 -4.54747351E-12
v 0.405259103 -1.1559099 -4.54747351E-12
v 0.405259103 -1.1559099 -4.54747351E-12
v 0.590706527 -0.998245955 -4.54747351E-12
v 0.64748311 -1.06958413 3.30250272E-09
v 0.452362448 -1.21510601 -4.54747351E-12
v 0.452362448 -1.21510601 -4.54747351E-12
v 0.64748311 -1.06958413 3.30250272E-09
v 0.700459123 -1.14683652 -4.54747351E-12
v 0.494005024 -1.27577603 -4.54747351E-12
v 0.494005024 -1.27577603 -4.54747351E-12
v 0.700459123 -1.14683652 -4.54747351E-12
v 0.747825742 -1.23067093 -4.54747351E-12
v 0.529277802 -1.33784127 3.30250272E-09
v 0.529277802 -1.33784127 3.30250272E-09
v 0.747825742 -1.23067093 -4.54747351E-12
v 0.786901474 -1.32159305 3.30250272E-09
v 0.556953609 -1.40142202 -4.54747351E-12
vt 0.964285672 0
vt 0.964285731 1
vt 1 1
vt 1 0
vt 0 0
vt 0 1
vt 0.0357142873 1
vt 0.0357142873 0
vt 0.0357142873 0
vt 0.0357142873 1
vt 0.0714285746 1
vt 0.0714285746 0
vt 0.107142866 1
vt 0.107142866 0
vt 0.142857149 1
vt 0.142857149 0
vt 0.178571433 1
vt 0.178571433 0
vt 0.214285716 1
vt 0.214285731 0
vt 0.214285731 0
vt 0.214285716 1
vt 0.25 1
vt 0.25 0
vt 0.25 1
vt 0.285714298 1
vt 0.285714298 0
vt 0.321428567 1
vt 0.321428597 0
vt 0.321428597 0
vt 0.321428567 1
vt 0.357142866 1
vt 0.357142895 0
vt 0.357142866 1
vt 0.392857134 1
vt 0.392857164 0
vt 0.428571433 1
vt 0.428571433 0
vt 0.428571433 0
vt 0.428571433 1
vt 0.464285702 1
vt 0.464285731 0
vt 0.464285731 0
vt 0.5 1
vt 0.5 0
vt 0.5 0
vt 0.5 1
vt 0.535714269 1
vt 0.535714269 0
vt 0.535714269 0
vt 0.571428537 1
vt 0.571428597 0
vt 0.571428597 0
vt 0.571428537 1
vt 0.607142806 1
vt 0.607142866 0
vt 0.607142866 0
vt 0.607142806 1
vt 0.642857134 1
vt 0.642857075 0
vt 0.642857075 0
vt 0.642857134 1
vt 0.678571403 1
vt 0.678571403 0
vt 0.714285672 1
vt 0.714285672 0
vt 0.74999994 1
vt 0.74999994 0
vt 0.785714209 1
vt 0.785714209 0
vt 0.821428478 1
vt 0.821428537 0
vt 0.821428537 0
vt 0.821428478 1
vt 0.857142806 1
vt 0.857142806 0
vt 0.857142806 0
vt 0.857142806 1
vt 0.892857134 1
vt 0.892857075 0
vt 0.892857075 0
vt 0.892857134 1
vt 0.928571463 1
vt 0.928571343 0
vt 0.928571343 0
vt 0.928571463 1
vt 0.964285731 1
vt 0.964285672 0
vn -0 0 1
vn -0 0 1
vn -0 0 1
vn -0 0 1
vn -0 0 1
vn -0 0 1
vn -0 0 1
vn -0 0 1
vn -0 0 1
vn -0 0 1
vn -0 0 1
vn -0 0 1
vn -0 0 1
vn -0 0 1
vn -0 0 1
vn -0 0 1
vn -0 0 1
vn -0 0 1
vn -0 0 1
vn -0 0 1
vn -0 0 1
vn -0 0 1
vn -0 0 1
vn -0 0 1
vn -0 0 1
vn -0 0 1
vn -0 0 1
vn -0 0 1
vn -0 0 1
vn -0 0 1
vn -0 0 1
vn -0 0 1
vn -0 0 1
vn -0 0 1
vn -0 0 1
vn -0 0 1
vn -0 0 1
vn -0 0 1
vn -0 0 1
vn -0 0 1
vn -0 0 1
vn -0 0 1
vn -0 0 1
vn -0 0 1
vn -0 0 1
vn -0 0 1
vn -0 0 1
vn -0 0 1
vn -0 0 1
vn -0 0 1
vn -0 0 1
vn -0 0 1
vn -0 0 1
vn -0 0 1
vn -0 0 1
vn -0 0 1
vn -0 0 1
vn -0 0 1
vn -0 0 1
vn -0 0 1
vn -0 0 1
vn -0 0 1
vn -0 0 1
vn -0 0 1
vn -0 0 1
vn -0 0 1
vn -0 0 1
vn -0 0 1
vn -0 0 1
vn -0 0 1
vn -0 0 1
vn -0 0 1
vn -0 0 1
vn -0 0 1
vn -0 0 1
vn -0 0 1
vn -0 0 1
vn -0 0 1
vn -0 0 1
vn -0 0 1
vn -0 0 1
vn -0 0 1
vn -0 0 1
vn -0 0 1
vn -0 0 1
vn -0 0 1
vn -0 0 1
vn -0 0 1
g general_plane_43_2_0
f 3/3/3 2/2/2 1/1/1
f 4/4/4 3/3/3 1/1/1
f 7/7/7 6/6/6 5/5/5
f 8/8/8 7/7/7 5/5/5
f 11/11/11 10/10/10 9/9/9
f 12/12/12 11/11/11 9/9/9
f 13/13/13 11/11/11 12/12/12
f 14/14/14 13/13/13 12/12/12
f 15/15/15 13/13/13 14/14/14
f 16/16/16 15/15/15 14/14/14
f 17/17/17 15/15/15 16/16/16
f 18/18/18 17/17/17 16/16/16
f 19/19/19 17/17/17 18/18/18
f 20/20/20 19/19/19 18/18/18
f 23/23/23 22/22/22 21/21/21
f 24/24/24 23/23/23 21/21/21
f 26/26/26 25/25/25 24/24/24
f 27/27/27 26/26/26 24/24/24
f 28/28/28 26/26/26 27/27/27
f 29/29/29 28/28/28 27/27/27
f 32/32/32 31/31/31 30/30/30
f 33/33/33 32/32/32 30/30/30
f 35/35/35 34/34/34 33/33/33
f 36/36/36 35/35/35 33/33/33
f 37/37/37 35/35/35 36/36/36
f 38/38/38 37/37/37 36/36/36
f 41/41/41 40/40/40 39/39/39
f 42/42/42 41/41/41 39/39/39
f 44/44/44 41/41/41 43/43/43
f 45/45/45 44/44/44 43/43/43
f 48/48/48 47/47/47 46/46/46
f 49/49/49 48/48/48 46/46/46
f 51/51/51 48/48/48 50/50/50
f 52/52/52 51/51/51 50/50/50
f 55/55/55 54/54/54 53/53/53
f 56/56/56 55/55/55 53/53/53
f 59/59/59 58/58/58 57/57/57
f 60/60/60 59/59/59 57/57/57
f 63/63/63 62/62/62 61/61/61
f 64/64/64 63/63/63 61/61/61
f 65/65/65 63/63/63 64/64/64
f 66/66/66 65/65/65 64/64/64
f 67/67/67 65/65/65 66/66/66
f 68/68/68 67/67/67 66/66/66
f 69/69/69 67/67/67 68/68/68
f 70/70/70 69/69/69 68/68/68
f 71/71/71 69/69/69 70/70/70
f 72/72/72 71/71/71 70/70/70
f 75/75/75 74/74/74 73/73/73
f 76/76/76 75/75/75 73/73/73
f 79/79/79 78/78/78 77/77/77
f 80/80/80 79/79/79 77/77/77
f 83/83/83 82/82/82 81/81/81
f 84/84/84 83/83/83 81/81/81
f 87/87/87 86/86/86 85/85/85
f 88/88/88 87/87/87 85/85/85
