g Plane021
v -0.260312021 -0.21355246 0
v -0.0881384164 -0.120454274 0
v -0.103117347 -0.0866993591 0
v -0.287148356 -0.153359637 0
v -0.115006544 -0.0456084572 0
v -0.306027442 -0.0882946104 0
v -0.122101851 -0.00113403925 0
v -0.316930652 -0.0199193265 0
v -0.123454094 0.0426237546 0
v -0.319036722 0.0502697974 0
v -0.118948162 0.0814996734 0
v -0.310688794 0.120827898 0
v -0.109740973 0.111478463 0
v -0.288957179 0.190171719 0
v -0.0986435935 0.130125776 0
v -0.249261528 0.255127072 0
v -0.0877903774 0.139609307 0
v -0.187692031 0.307926536 0
v -0.0859986246 0.140402675 0
v -0.114862368 0.333995104 0
v -0.0782684758 0.139869362 0
v -0.0430206284 0.332401812 0
v -0.0574073493 0.133057386 0
v 0.0204003043 0.312659979 0
v -0.0261433646 0.116301425 0
v 0.0771441311 0.282562584 0
v 0.0116655668 0.0899952799 0
v 0.130075395 0.245848551 0
v 0.0534409247 0.056071382 0
v 0.180788964 0.204710364 0
v 0.0975917131 0.0167753324 0
v 0.229880542 0.161035135 0
v 0.143108711 -0.0256817658 0
v 0.27737686 0.11673706 0
v 0.189335346 -0.0691961646 0
v 0.322939962 0.0738454908 0
v 0.235926688 -0.111802086 0
v 0.365930766 0.0345199853 0
v 0.282936215 -0.151686475 0
v 0.405301988 0.00108055421 0
v 0.331166208 -0.187185079 0
v 0.43926698 -0.0240124874 0
v 0.382878184 -0.216398031 0
v 0.464859605 -0.0386619791 0
vt 0 0
vt 0 1
vt 0.0476190485 1
vt 0.0476190485 0
vt 0.095238097 1
vt 0.095238097 0
vt 0.142857149 1
vt 0.142857149 0
vt 0.190476194 1
vt 0.190476194 0
vt 0.238095239 1
vt 0.238095239 0
vt 0.285714298 1
vt 0.285714298 0
vt 0.333333343 1
vt 0.333333343 0
vt 0.380952388 1
vt 0.380952388 0
vt 0.428571433 1
vt 0.428571433 0
vt 0.476190478 1
vt 0.476190478 0
vt 0.523809552 1
vt 0.523809552 0
vt 0.571428597 1
vt 0.571428597 0
vt 0.619047642 1
vt 0.619047642 0
vt 0.666666687 1
vt 0.666666687 0
vt 0.714285731 1
vt 0.714285731 0
vt 0.761904776 1
vt 0.761904776 0
vt 0.809523821 1
vt 0.809523821 0
vt 0.857142866 1
vt 0.857142866 0
vt 0.90476191 1
vt 0.90476191 0
vt 0.952380955 1
vt 0.952380955 0
vt 1 1
vt 1 0
vn -0 0 -1
vn -0 0 -1
vn -0 0 -1
vn -0 0 -1
vn -0 0 -1
vn -0 0 -1
vn -0 0 -1
vn -0 0 -1
vn -0 0 -1
vn -0 0 -1
vn -0 0 -1
vn -0 0 -1
vn -0 0 -1
vn -0 0 -1
vn -0 0 -1
vn -0 0 -1
vn -0 0 -1
vn -0 0 -1
vn -0 0 -1
vn -0 0 -1
vn -0 0 -1
vn -0 0 -1
vn -0 0 -1
vn -0 0 -1
vn -0 0 -1
vn -0 0 -1
vn -0 0 -1
vn -0 0 -1
vn -0 0 -1
vn -0 0 -1
vn -0 0 -1
vn -0 0 -1
vn -0 0 -1
vn -0 0 -1
vn -0 0 -1
vn -0 0 -1
vn -0 0 -1
vn -0 0 -1
vn -0 0 -1
vn -0 0 -1
vn -0 0 -1
vn -0 0 -1
vn -0 0 -1
vn -0 0 -1
g Plane021_0
f 3/3/3 2/2/2 1/1/1
f 4/4/4 3/3/3 1/1/1
f 5/5/5 3/3/3 4/4/4
f 6/6/6 5/5/5 4/4/4
f 7/7/7 5/5/5 6/6/6
f 8/8/8 7/7/7 6/6/6
f 9/9/9 7/7/7 8/8/8
f 10/10/10 9/9/9 8/8/8
f 11/11/11 9/9/9 10/10/10
f 12/12/12 11/11/11 10/10/10
f 13/13/13 11/11/11 12/12/12
f 14/14/14 13/13/13 12/12/12
f 15/15/15 13/13/13 14/14/14
f 16/16/16 15/15/15 14/14/14
f 17/17/17 15/15/15 16/16/16
f 18/18/18 17/17/17 16/16/16
f 19/19/19 17/17/17 18/18/18
f 20/20/20 19/19/19 18/18/18
f 21/21/21 19/19/19 20/20/20
f 22/22/22 21/21/21 20/20/20
f 23/23/23 21/21/21 22/22/22
f 24/24/24 23/23/23 22/22/22
f 25/25/25 23/23/23 24/24/24
f 26/26/26 25/25/25 24/24/24
f 27/27/27 25/25/25 26/26/26
f 28/28/28 27/27/27 26/26/26
f 29/29/29 27/27/27 28/28/28
f 30/30/30 29/29/29 28/28/28
f 31/31/31 29/29/29 30/30/30
f 32/32/32 31/31/31 30/30/30
f 33/33/33 31/31/31 32/32/32
f 34/34/34 33/33/33 32/32/32
f 35/35/35 33/33/33 34/34/34
f 36/36/36 35/35/35 34/34/34
f 37/37/37 35/35/35 36/36/36
f 38/38/38 37/37/37 36/36/36
f 39/39/39 37/37/37 38/38/38
f 40/40/40 39/39/39 38/38/38
f 41/41/41 39/39/39 40/40/40
f 42/42/42 41/41/41 40/40/40
f 43/43/43 41/41/41 42/42/42
f 44/44/44 43/43/43 42/42/42
