g Plane001
v 0.0253999811 0.889055789 -0.126560584
v -0.127000019 0.889055789 -0.126560584
v -0.127000019 0.888479292 -0.381793082
v 0.0253999811 0.888479292 -0.381793082
v -0.127000004 0.634479403 -0.381793082
v 0.0761999786 0.888479292 -0.381793082
v 0.0761999786 0.889055789 -0.126560584
v 0.0253999941 0.634479403 -0.381793082
v -0.126999974 0.380479425 -0.381793082
v 0.126999974 0.888479292 -0.381793082
v 0.126999974 0.889055789 -0.126560584
v 0.127000004 0.634479403 -0.381793082
v 0.0761999935 0.634479403 -0.381793082
v 0.127000019 0.380479425 -0.381793082
v 0.0762000307 0.380479425 -0.381793082
v 0.126999974 0.126479432 -0.381793082
v 0.0254000295 0.380479425 -0.381793082
v -0.127000019 0.126479432 -0.381793082
v 0.0761999786 0.126479432 -0.381793082
v 0.126999974 -0.125919998 -0.379963249
v 0.0253999811 0.126479432 -0.381793082
v -0.127000019 -0.125919998 -0.379963249
v 0.0761999711 -0.125919998 -0.379963249
v 0.126999974 -0.125919998 -0.125963241
v 0.0253999699 -0.125919998 -0.379963249
v -0.127000019 -0.125919998 -0.125963241
v 0.0761999786 -0.125919998 -0.125963241
v 0.127000004 -0.125919998 0.128036752
v 0.0253999811 -0.125919998 -0.125963241
v -0.127000004 -0.125919998 0.128036752
v 0.0761999935 -0.125919998 0.128036752
v 0.127000004 -0.127788559 0.381793082
v 0.0253999941 -0.125919998 0.128036752
v -0.127000004 -0.127788559 0.381793082
v 0.0762000084 -0.127788559 0.381793082
v 0.127000004 0.126211435 0.381793082
v 0.0254000053 -0.127788559 0.381793082
v -0.127000004 0.126211435 0.381793082
v 0.0762000084 0.126211435 0.381793082
v 0.127000004 0.380211443 0.381793082
v 0.0254000053 0.126211435 0.381793082
v -0.127000004 0.380211443 0.381793082
v 0.0762000084 0.380211443 0.381793082
v 0.127000004 0.634211421 0.381793082
v 0.0254000053 0.380211443 0.381793082
v -0.127000004 0.634211421 0.381793082
v 0.0762000084 0.634211421 0.381793082
v 0.127000004 0.888211489 0.381793082
v 0.0254000053 0.634211421 0.381793082
v -0.127000004 0.888211489 0.381793082
v 0.0762000084 0.888211489 0.381793082
v 0.127000004 0.888366103 0.127951339
v 0.0254000053 0.888211489 0.381793082
v -0.127000004 0.888366103 0.127951339
v 0.0761999935 0.888366103 0.127951339
v 0.127000004 1.14236605 0.127951339
v 0.0253999941 0.888366103 0.127951339
v -0.127000004 1.14236605 0.127951339
v 0.0761999935 1.14236605 0.127951339
v 0.126999974 1.14233029 -0.126519606
v 0.0253999941 1.14236605 0.127951339
v -0.127000019 1.14233029 -0.126519606
v 0.0761999786 1.14233029 -0.126519606
v 0.126999974 0.889055789 -0.126560584
v 0.0761999786 0.889055789 -0.126560584
v 0.0253999811 1.14233029 -0.126519606
v -0.127000019 0.889055789 -0.126560584
v 0.0253999811 0.889055789 -0.126560584
vt 1 0.599999964
vt 1 -5.96046448E-08
vt 0.9375 -5.48860264E-08
vt 0.93750006 0.599999964
vt 0.875 -5.0167408E-08
vt 0.93750006 0.799999952
vt 1.00000012 0.799999952
vt 0.87500006 0.599999964
vt 0.8125 -4.54487861E-08
vt 0.93750006 0.99999994
vt 1.00000012 0.99999994
vt 0.87500006 0.99999994
vt 0.87500006 0.799999952
vt 0.81250006 0.99999994
vt 0.81250006 0.799999952
vt 0.75000006 0.99999994
vt 0.81250006 0.599999964
vt 0.75 -4.07301712E-08
vt 0.75000006 0.799999952
vt 0.687500119 0.99999994
vt 0.75000006 0.599999964
vt 0.6875 -3.60115493E-08
vt 0.68750006 0.799999952
vt 0.625000119 0.99999994
vt 0.68750006 0.599999964
vt 0.625 -3.12929309E-08
vt 0.62500006 0.799999952
vt 0.562500119 0.99999994
vt 0.62500006 0.599999964
vt 0.5625 -2.65743125E-08
vt 0.56250006 0.800000012
vt 0.500000119 0.99999994
vt 0.56250006 0.600000024
vt 0.5 -2.18556941E-08
vt 0.50000006 0.800000012
vt 0.43750006 0.99999994
vt 0.50000006 0.600000024
vt 0.4375 -1.71370758E-08
vt 0.43750006 0.800000012
vt 0.37500006 0.99999994
vt 0.43750006 0.600000024
vt 0.375 -1.24184574E-08
vt 0.37500006 0.800000012
vt 0.31250006 0.99999994
vt 0.37500006 0.600000024
vt 0.3125 -7.69983899E-09
vt 0.31250006 0.800000012
vt 0.25000006 0.99999994
vt 0.31250006 0.600000024
vt 0.25 -2.98121705E-09
vt 0.25000006 0.800000012
vt 0.18750006 1
vt 0.25000006 0.600000024
vt 0.1875 1.73739778E-09
vt 0.18750006 0.800000012
vt 0.12500006 1
vt 0.18750006 0.600000024
vt 0.125 6.45601972E-09
vt 0.12500006 0.800000012
vt 0.0625000596 1
vt 0.12500006 0.600000024
vt 0.0625 1.11746346E-08
vt 0.0625000596 0.800000012
vt 5.96046448E-08 1
vt 5.96046448E-08 0.800000012
vt 0.0625000596 0.600000024
vt 0 1.58932565E-08
vt 5.96046448E-08 0.600000024
vn -0 0.706365108 -0.707847595
vn -0 0.706365108 -0.707847595
vn -0 0.706307828 -0.707904696
vn -0 0.706307828 -0.707904696
vn -0 0 -1
vn -0 0.706307888 -0.707904756
vn -0 0.706365049 -0.707847655
vn -0 0 -1
vn -0 0 -1
vn -0 0.706307888 -0.707904756
vn -0 0.706365108 -0.707847595
vn -0 0 -1
vn -0 0 -1
vn -0 0 -1
vn -0 0 -1
vn -0 -0.0036247978 -0.999993443
vn -0 0 -1
vn -0 -0.0036247985 -0.999993443
vn -0 -0.0036247985 -0.999993443
vn -0 -0.709665239 -0.704539001
vn -0 -0.0036247985 -0.999993443
vn -0 -0.709665239 -0.704539001
vn -0 -0.709665239 -0.704539001
vn -0 -1 0
vn -0 -0.709665239 -0.704539001
vn -0 -1 0
vn -0 -1 0
vn -0 -0.999993205 -0.00368173188
vn -0 -1 0
vn -0 -0.999993205 -0.00368173188
vn -0 -0.999993205 -0.00368173188
vn -0 -0.709705353 0.704498649
vn -0 -0.999993205 -0.00368173188
vn -0 -0.709705353 0.704498589
vn -0 -0.709705353 0.704498589
vn -0 0 1
vn -0 -0.709705353 0.704498589
vn -0 0 1
vn -0 0 1
vn -0 0 1
vn -0 0 1
vn -0 0 1
vn -0 0 1
vn -0 0 1
vn -0 0 1
vn -0 0 1
vn -0 0 1
vn -0 0.706891418 0.70732218
vn -0 0 1
vn -0 0.706891418 0.70732218
vn -0 0.706891358 0.70732218
vn -0 0.706891418 0.70732218
vn -0 0.706891418 0.70732218
vn -0 0.706891418 0.70732218
vn -0 0.706891418 0.70732218
vn -0 0.707156539 0.707056999
vn -0 0.706891418 0.70732218
vn -0 0.707156539 0.70705694
vn -0 0.707156539 0.707056999
vn -0 0.70711416 -0.707099319
vn -0 0.707156539 0.707056999
vn -0 0.70711416 -0.707099378
vn -0 0.7071141 -0.707099378
vn -0 0.706365108 -0.707847595
vn -0 0.706365049 -0.707847655
vn -0 0.70711416 -0.707099378
vn -0 0.706365108 -0.707847595
vn -0 0.706365108 -0.707847595
g Plane001_0
f 3/3/3 2/2/2 1/1/1
f 4/4/4 3/3/3 1/1/1
f 5/5/5 3/3/3 4/4/4
f 6/6/6 4/4/4 1/1/1
f 7/7/7 6/6/6 1/1/1
f 8/8/8 5/5/5 4/4/4
f 9/9/9 5/5/5 8/8/8
f 10/10/10 6/6/6 7/7/7
f 11/11/11 10/10/10 7/7/7
f 10/10/10 12/12/12 6/6/6
f 6/6/6 13/13/13 4/4/4
f 12/12/12 13/13/13 6/6/6
f 13/13/13 8/8/8 4/4/4
f 12/12/12 14/14/14 13/13/13
f 14/14/14 15/15/15 13/13/13
f 13/13/13 15/15/15 8/8/8
f 14/14/14 16/16/16 15/15/15
f 17/17/17 9/9/9 8/8/8
f 15/15/15 17/17/17 8/8/8
f 18/18/18 9/9/9 17/17/17
f 16/16/16 19/19/19 15/15/15
f 15/15/15 19/19/19 17/17/17
f 16/16/16 20/20/20 19/19/19
f 21/21/21 18/18/18 17/17/17
f 19/19/19 21/21/21 17/17/17
f 22/22/22 18/18/18 21/21/21
f 20/20/20 23/23/23 19/19/19
f 19/19/19 23/23/23 21/21/21
f 20/20/20 24/24/24 23/23/23
f 25/25/25 22/22/22 21/21/21
f 23/23/23 25/25/25 21/21/21
f 26/26/26 22/22/22 25/25/25
f 24/24/24 27/27/27 23/23/23
f 23/23/23 27/27/27 25/25/25
f 24/24/24 28/28/28 27/27/27
f 29/29/29 26/26/26 25/25/25
f 27/27/27 29/29/29 25/25/25
f 30/30/30 26/26/26 29/29/29
f 28/28/28 31/31/31 27/27/27
f 27/27/27 31/31/31 29/29/29
f 28/28/28 32/32/32 31/31/31
f 33/33/33 30/30/30 29/29/29
f 31/31/31 33/33/33 29/29/29
f 34/34/34 30/30/30 33/33/33
f 32/32/32 35/35/35 31/31/31
f 31/31/31 35/35/35 33/33/33
f 32/32/32 36/36/36 35/35/35
f 37/37/37 34/34/34 33/33/33
f 35/35/35 37/37/37 33/33/33
f 38/38/38 34/34/34 37/37/37
f 36/36/36 39/39/39 35/35/35
f 35/35/35 39/39/39 37/37/37
f 36/36/36 40/40/40 39/39/39
f 41/41/41 38/38/38 37/37/37
f 39/39/39 41/41/41 37/37/37
f 42/42/42 38/38/38 41/41/41
f 40/40/40 43/43/43 39/39/39
f 39/39/39 43/43/43 41/41/41
f 40/40/40 44/44/44 43/43/43
f 45/45/45 42/42/42 41/41/41
f 43/43/43 45/45/45 41/41/41
f 46/46/46 42/42/42 45/45/45
f 44/44/44 47/47/47 43/43/43
f 43/43/43 47/47/47 45/45/45
f 44/44/44 48/48/48 47/47/47
f 49/49/49 46/46/46 45/45/45
f 47/47/47 49/49/49 45/45/45
f 50/50/50 46/46/46 49/49/49
f 48/48/48 51/51/51 47/47/47
f 47/47/47 51/51/51 49/49/49
f 48/48/48 52/52/52 51/51/51
f 53/53/53 50/50/50 49/49/49
f 51/51/51 53/53/53 49/49/49
f 54/54/54 50/50/50 53/53/53
f 52/52/52 55/55/55 51/51/51
f 51/51/51 55/55/55 53/53/53
f 52/52/52 56/56/56 55/55/55
f 57/57/57 54/54/54 53/53/53
f 55/55/55 57/57/57 53/53/53
f 58/58/58 54/54/54 57/57/57
f 56/56/56 59/59/59 55/55/55
f 55/55/55 59/59/59 57/57/57
f 56/56/56 60/60/60 59/59/59
f 61/61/61 58/58/58 57/57/57
f 59/59/59 61/61/61 57/57/57
f 62/62/62 58/58/58 61/61/61
f 60/60/60 63/63/63 59/59/59
f 59/59/59 63/63/63 61/61/61
f 60/60/60 64/64/64 63/63/63
f 64/64/64 65/65/65 63/63/63
f 66/66/66 62/62/62 61/61/61
f 63/63/63 66/66/66 61/61/61
f 63/63/63 65/65/65 66/66/66
f 67/67/67 62/62/62 66/66/66
f 65/65/65 68/68/68 66/66/66
f 68/68/68 67/67/67 66/66/66
