g Plane001
v -0.0250888746 0.123554863 0
v -0.0521337353 -0.0414289162 0
v 0.012669866 0.105977155 0
v -0.0959215686 -0.0210507978 0
v -0.0624328181 0.14261128 0
v -0.137700513 0.000263670925 0
v -0.0996507928 0.162814528 0
v -0.177746803 0.0219987053 0
v -0.137029529 0.183803707 0
v -0.216338634 0.0436676107 0
v -0.174862295 0.205188394 0
v -0.253747553 0.0648132414 0
v -0.213454261 0.226547271 0
v -0.290233284 0.0850091279 0
v -0.253121167 0.247425258 0
v -0.326044917 0.103862748 0
v -0.294183046 0.267328799 0
v -0.361427397 0.121019952 0
v -0.336949766 0.285721213 0
v -0.396635771 0.136169687 0
v -0.381700575 0.302022874 0
v -0.431956232 0.14904432 0
v -0.428658426 0.315619677 0
v -0.467730165 0.15940997 0
v -0.477970928 0.325886488 0
v -0.504374743 0.167044118 0
v -0.529489756 0.332131892 0
v -0.540832758 0.171509981 0
v -0.580594122 0.33298254 0
v -0.574844956 0.172063261 0
v -0.630301416 0.328834683 0
v -0.609624386 0.169145823 0
v -0.678490818 0.320609748 0
v -0.645389199 0.163026914 0
v -0.725187302 0.309193045 0
v -0.68221128 0.154012114 0
v -0.770499885 0.295400411 0
v -0.720079541 0.142476037 0
v -0.814566255 0.279977441 0
v -0.758953393 0.12886399 0
v -0.857518494 0.263611943 0
v -0.798797607 0.113678843 0
v -0.899463296 0.246948466 0
v -0.839603186 0.0974666253 0
v -0.940473497 0.230598763 0
v -0.881394625 0.0808063522 0
v -0.980584502 0.215145677 0
v -0.924233615 0.064305909 0
v -1.01979768 0.201140881 0
v -0.968216002 0.0486043468 0
v -1.05808735 0.189096138 0
v -1.01346493 0.0343805552 0
v -1.09541786 0.17947036 0
v -1.06011295 0.0223664884 0
v -1.13177502 0.172656834 0
v -1.10827196 0.0133593827 0
v -1.16721368 0.168981403 0
v -1.15798426 0.00822415855 0
v -1.20212114 0.168723583 0
v -1.20871425 0.00783665851 0
v -1.23822713 0.171640754 0
v -1.25738096 0.0117620481 0
v -1.27471936 0.17740269 0
v -1.30560768 0.0193711035 0
v -1.31136668 0.185919076 0
v -1.35320282 0.0304269213 0
v -1.34792507 0.197082877 0
v -1.39998746 0.0447097458 0
v -1.38414383 0.210770324 0
v -1.44578969 0.0620159581 0
v -1.41977 0.226842716 0
v -1.49043953 0.0821572691 0
v -1.4545511 0.245147794 0
v -1.53376687 0.104958832 0
v -1.48823762 0.265521348 0
v -1.57559872 0.130258143 0
v -1.52058351 0.287787616 0
v -1.61575794 0.157903448 0
v -1.55134797 0.311760604 0
v -1.65406263 0.187753469 0
v -1.58029675 0.33724454 0
v -1.69032431 0.219677463 0
v -1.6072036 0.364033103 0
v -1.72434664 0.253554106 0
v -1.62955785 0.389394134 0
v -1.75774539 0.29194653 0
v -1.64159381 0.409374416 0
v -1.78753293 0.34133178 0
v -1.64978123 0.43272087 0
v -1.80589008 0.39324823 0
v -1.65452385 0.460874617 0
v -1.8147943 0.445336193 0
v -1.65572238 0.494006276 0
v -1.8167249 0.496504962 0
v -1.65355837 0.531493425 0
v -1.8138833 0.54645896 0
v -1.64862883 0.572489977 0
v -1.80805206 0.595124006 0
v -1.64183116 0.616215289 0
v -1.80071604 0.642362833 0
v -1.63424265 0.662046313 0
v -1.79317904 0.687878251 0
v -1.62706304 0.709538937 0
v -1.78662193 0.731196523 0
v -1.62162125 0.758424938 0
v -1.78209782 0.771665454 0
v -1.61944139 0.80858767 0
v -1.78046334 0.808483899 0
vt 0.0188679248 1
vt 0 0
vt 0 1
vt 0.0188679248 0
vt 0.0377358496 1
vt 0.0377358496 0
vt 0.0566037744 1
vt 0.0566037744 0
vt 0.0754716992 1
vt 0.0754716992 0
vt 0.094339624 1
vt 0.094339624 0
vt 0.113207549 1
vt 0.113207549 0
vt 0.132075474 1
vt 0.132075474 0
vt 0.150943398 1
vt 0.150943398 0
vt 0.169811323 1
vt 0.169811323 0
vt 0.188679248 1
vt 0.188679248 0
vt 0.207547173 1
vt 0.207547173 0
vt 0.226415098 1
vt 0.226415098 0
vt 0.245283023 1
vt 0.245283023 0
vt 0.264150947 1
vt 0.264150947 0
vt 0.283018887 1
vt 0.283018887 0
vt 0.301886797 1
vt 0.301886797 0
vt 0.320754707 1
vt 0.320754707 0
vt 0.339622617 1
vt 0.339622617 0
vt 0.358490527 1
vt 0.358490527 0
vt 0.377358437 1
vt 0.377358437 0
vt 0.396226346 1
vt 0.396226346 0
vt 0.415094256 1
vt 0.415094256 0
vt 0.433962166 1
vt 0.433962166 0
vt 0.452830076 1
vt 0.452830076 0
vt 0.471697986 1
vt 0.471697986 0
vt 0.490565896 1
vt 0.490565896 0
vt 0.509433806 1
vt 0.509433806 0
vt 0.528301716 1
vt 0.528301716 0
vt 0.547169626 1
vt 0.547169626 0
vt 0.566037536 1
vt 0.566037536 0
vt 0.584905446 1
vt 0.584905446 0
vt 0.603773355 1
vt 0.603773355 0
vt 0.622641265 1
vt 0.622641265 0
vt 0.641509175 1
vt 0.641509175 0
vt 0.660377085 1
vt 0.660377085 0
vt 0.679244995 1
vt 0.679244995 0
vt 0.698112905 1
vt 0.698112905 0
vt 0.716980815 1
vt 0.716980815 0
vt 0.735848725 1
vt 0.735848725 0
vt 0.754716635 1
vt 0.754716635 0
vt 0.773584545 1
vt 0.773584545 0
vt 0.792452455 1
vt 0.792452455 0
vt 0.811320364 1
vt 0.811320364 0
vt 0.830188274 1
vt 0.830188274 0
vt 0.849056184 1
vt 0.849056184 0
vt 0.867924094 1
vt 0.867924094 0
vt 0.886792004 1
vt 0.886792004 0
vt 0.905659914 1
vt 0.905659914 0
vt 0.924527824 1
vt 0.924527824 0
vt 0.943395734 1
vt 0.943395734 0
vt 0.962263644 1
vt 0.962263644 0
vt 0.981131554 1
vt 0.981131554 0
vt 0.999999464 1
vt 0.999999464 0
vn -0 0 -1
vn -0 0 -1
vn -0 0 -1
vn -0 0 -1
vn -0 0 -1
vn -0 0 -1
vn -0 0 -1
vn -0 0 -1
vn -0 0 -1
vn -0 0 -1
vn -0 0 -1
vn -0 0 -1
vn -0 0 -1
vn -0 0 -1
vn -0 0 -1
vn -0 0 -1
vn -0 0 -1
vn -0 0 -1
vn -0 0 -1
vn -0 0 -1
vn -0 0 -1
vn -0 0 -1
vn -0 0 -1
vn -0 0 -1
vn -0 0 -1
vn -0 0 -1
vn -0 0 -1
vn -0 0 -1
vn -0 0 -1
vn -0 0 -1
vn -0 0 -1
vn -0 0 -1
vn -0 0 -1
vn -0 0 -1
vn -0 0 -1
vn -0 0 -1
vn -0 0 -1
vn -0 0 -1
vn -0 0 -1
vn -0 0 -1
vn -0 0 -1
vn -0 0 -1
vn -0 0 -1
vn -0 0 -1
vn -0 0 -1
vn -0 0 -1
vn -0 0 -1
vn -0 0 -1
vn -0 0 -1
vn -0 0 -1
vn -0 0 -1
vn -0 0 -1
vn -0 0 -1
vn -0 0 -1
vn -0 0 -1
vn -0 0 -1
vn -0 0 -1
vn -0 0 -1
vn -0 0 -1
vn -0 0 -1
vn -0 0 -1
vn -0 0 -1
vn -0 0 -1
vn -0 0 -1
vn -0 0 -1
vn -0 0 -1
vn -0 0 -1
vn -0 0 -1
vn -0 0 -1
vn -0 0 -1
vn -0 0 -1
vn -0 0 -1
vn -0 0 -1
vn -0 0 -1
vn -0 0 -1
vn -0 0 -1
vn -0 0 -1
vn -0 0 -1
vn -0 0 -1
vn -0 0 -1
vn -0 0 -1
vn -0 0 -1
vn -0 0 -1
vn -0 0 -1
vn -0 0 -1
vn -0 0 -1
vn -0 0 -1
vn -0 0 -1
vn -0 0 -1
vn -0 0 -1
vn -0 0 -1
vn -0 0 -1
vn -0 0 -1
vn -0 0 -1
vn -0 0 -1
vn -0 0 -1
vn -0 0 -1
vn -0 0 -1
vn -0 0 -1
vn -0 0 -1
vn -0 0 -1
vn -0 0 -1
vn -0 0 -1
vn -0 0 -1
vn -0 0 -1
vn -0 0 -1
vn -0 0 -1
vn -0 0 -1
g Plane001_0
f 3/3/3 2/2/2 1/1/1
f 4/4/4 1/1/1 2/2/2
f 1/1/1 4/4/4 5/5/5
f 6/6/6 5/5/5 4/4/4
f 5/5/5 6/6/6 7/7/7
f 8/8/8 7/7/7 6/6/6
f 7/7/7 8/8/8 9/9/9
f 10/10/10 9/9/9 8/8/8
f 9/9/9 10/10/10 11/11/11
f 12/12/12 11/11/11 10/10/10
f 11/11/11 12/12/12 13/13/13
f 14/14/14 13/13/13 12/12/12
f 13/13/13 14/14/14 15/15/15
f 16/16/16 15/15/15 14/14/14
f 15/15/15 16/16/16 17/17/17
f 18/18/18 17/17/17 16/16/16
f 17/17/17 18/18/18 19/19/19
f 20/20/20 19/19/19 18/18/18
f 19/19/19 20/20/20 21/21/21
f 22/22/22 21/21/21 20/20/20
f 21/21/21 22/22/22 23/23/23
f 24/24/24 23/23/23 22/22/22
f 23/23/23 24/24/24 25/25/25
f 26/26/26 25/25/25 24/24/24
f 25/25/25 26/26/26 27/27/27
f 28/28/28 27/27/27 26/26/26
f 27/27/27 28/28/28 29/29/29
f 30/30/30 29/29/29 28/28/28
f 29/29/29 30/30/30 31/31/31
f 32/32/32 31/31/31 30/30/30
f 31/31/31 32/32/32 33/33/33
f 34/34/34 33/33/33 32/32/32
f 33/33/33 34/34/34 35/35/35
f 36/36/36 35/35/35 34/34/34
f 35/35/35 36/36/36 37/37/37
f 38/38/38 37/37/37 36/36/36
f 37/37/37 38/38/38 39/39/39
f 40/40/40 39/39/39 38/38/38
f 39/39/39 40/40/40 41/41/41
f 42/42/42 41/41/41 40/40/40
f 41/41/41 42/42/42 43/43/43
f 44/44/44 43/43/43 42/42/42
f 43/43/43 44/44/44 45/45/45
f 46/46/46 45/45/45 44/44/44
f 45/45/45 46/46/46 47/47/47
f 48/48/48 47/47/47 46/46/46
f 47/47/47 48/48/48 49/49/49
f 50/50/50 49/49/49 48/48/48
f 49/49/49 50/50/50 51/51/51
f 52/52/52 51/51/51 50/50/50
f 51/51/51 52/52/52 53/53/53
f 54/54/54 53/53/53 52/52/52
f 53/53/53 54/54/54 55/55/55
f 56/56/56 55/55/55 54/54/54
f 55/55/55 56/56/56 57/57/57
f 58/58/58 57/57/57 56/56/56
f 57/57/57 58/58/58 59/59/59
f 60/60/60 59/59/59 58/58/58
f 59/59/59 60/60/60 61/61/61
f 62/62/62 61/61/61 60/60/60
f 61/61/61 62/62/62 63/63/63
f 64/64/64 63/63/63 62/62/62
f 63/63/63 64/64/64 65/65/65
f 66/66/66 65/65/65 64/64/64
f 65/65/65 66/66/66 67/67/67
f 68/68/68 67/67/67 66/66/66
f 67/67/67 68/68/68 69/69/69
f 70/70/70 69/69/69 68/68/68
f 69/69/69 70/70/70 71/71/71
f 72/72/72 71/71/71 70/70/70
f 71/71/71 72/72/72 73/73/73
f 74/74/74 73/73/73 72/72/72
f 73/73/73 74/74/74 75/75/75
f 76/76/76 75/75/75 74/74/74
f 75/75/75 76/76/76 77/77/77
f 78/78/78 77/77/77 76/76/76
f 77/77/77 78/78/78 79/79/79
f 80/80/80 79/79/79 78/78/78
f 79/79/79 80/80/80 81/81/81
f 82/82/82 81/81/81 80/80/80
f 81/81/81 82/82/82 83/83/83
f 84/84/84 83/83/83 82/82/82
f 83/83/83 84/84/84 85/85/85
f 86/86/86 85/85/85 84/84/84
f 85/85/85 86/86/86 87/87/87
f 88/88/88 87/87/87 86/86/86
f 87/87/87 88/88/88 89/89/89
f 90/90/90 89/89/89 88/88/88
f 89/89/89 90/90/90 91/91/91
f 92/92/92 91/91/91 90/90/90
f 91/91/91 92/92/92 93/93/93
f 94/94/94 93/93/93 92/92/92
f 93/93/93 94/94/94 95/95/95
f 96/96/96 95/95/95 94/94/94
f 95/95/95 96/96/96 97/97/97
f 98/98/98 97/97/97 96/96/96
f 97/97/97 98/98/98 99/99/99
f 100/100/100 99/99/99 98/98/98
f 99/99/99 100/100/100 101/101/101
f 102/102/102 101/101/101 100/100/100
f 101/101/101 102/102/102 103/103/103
f 104/104/104 103/103/103 102/102/102
f 103/103/103 104/104/104 105/105/105
f 106/106/106 105/105/105 104/104/104
f 105/105/105 106/106/106 107/107/107
f 108/108/108 107/107/107 106/106/106
