g Plane002
v 0.145776555 -0.364441365 0
v -0.145776555 -0.364441365 0
v 0.145776555 -0.29155308 0
v -0.145776555 -0.29155308 0
v 0.145776555 -0.21866481 0
v -0.145776555 -0.21866481 0
v 0.145776555 -0.14577654 0
v -0.145776555 -0.14577654 0
v 0.145776555 -0.0728882626 0
v -0.145776555 -0.0728882626 0
v 0.145776555 9.53674295E-09 0
v -0.145776555 9.53674295E-09 0
v 0.145776555 0.0728882849 0
v -0.145776555 0.0728882849 0
v 0.145776555 0.145776555 0
v -0.145776555 0.145776555 0
v 0.145776555 0.218664825 0
v -0.145776555 0.218664825 0
v 0.145776555 0.29155311 0
v -0.145776555 0.29155311 0
v 0.145776555 0.364441365 0
v -0.145776555 0.364441365 0
vt 0.6830706 0
vt 0.3169294 0
vt 0.6830706 0.100000001
vt 0.3169294 0.100000001
vt 0.6830706 0.200000003
vt 0.3169294 0.200000003
vt 0.6830706 0.300000012
vt 0.3169294 0.300000012
vt 0.6830706 0.400000006
vt 0.3169294 0.400000006
vt 0.6830706 0.5
vt 0.3169294 0.5
vt 0.6830706 0.600000024
vt 0.3169294 0.600000024
vt 0.6830706 0.700000048
vt 0.3169294 0.700000048
vt 0.6830706 0.800000072
vt 0.3169294 0.800000072
vt 0.6830706 0.900000095
vt 0.3169294 0.900000095
vt 0.6830706 1.00000012
vt 0.3169294 1.00000012
vn -0 0 1
vn -0 0 1
vn -0 0 1
vn -0 0 1
vn -0 0 1
vn -0 0 1
vn -0 0 1
vn -0 0 1
vn -0 0 1
vn -0 0 1
vn -0 0 1
vn -0 0 1
vn -0 0 1
vn -0 0 1
vn -0 0 1
vn -0 0 1
vn -0 0 1
vn -0 0 1
vn -0 0 1
vn -0 0 1
vn -0 0 1
vn -0 0 1
g Plane002_0
f 3/3/3 2/2/2 1/1/1
f 2/2/2 3/3/3 4/4/4
f 5/5/5 4/4/4 3/3/3
f 4/4/4 5/5/5 6/6/6
f 7/7/7 6/6/6 5/5/5
f 6/6/6 7/7/7 8/8/8
f 9/9/9 8/8/8 7/7/7
f 8/8/8 9/9/9 10/10/10
f 11/11/11 10/10/10 9/9/9
f 10/10/10 11/11/11 12/12/12
f 13/13/13 12/12/12 11/11/11
f 12/12/12 13/13/13 14/14/14
f 15/15/15 14/14/14 13/13/13
f 14/14/14 15/15/15 16/16/16
f 17/17/17 16/16/16 15/15/15
f 16/16/16 17/17/17 18/18/18
f 19/19/19 18/18/18 17/17/17
f 18/18/18 19/19/19 20/20/20
f 21/21/21 20/20/20 19/19/19
f 20/20/20 21/21/21 22/22/22
