g Plane003
v -0.0531801209 0.160763711 0
v -0.0738990754 0.157681018 0
v -0.0526751876 0.157446831 0
v -0.0731877834 0.15407531 0
v -0.0920129344 0.154005781 0
v -0.0521702506 0.154129952 0
v -0.0909929946 0.150165915 0
v -0.106896721 0.149786547 0
v -0.0724763349 0.150469646 0
v -0.0516653135 0.150813058 0
v -0.0717649609 0.146863967 0
v -0.0899729133 0.14632608 0
v -0.088952899 0.142486244 0
v -0.105415754 0.145804629 0
v -0.118707187 0.144866809 0
v -0.103934795 0.141822696 0
v -0.10245382 0.137840778 0
v -0.116508365 0.140939251 0
v -0.127656788 0.138794482 0
v -0.114309482 0.137011707 0
v -0.112110622 0.133084163 0
v -0.124341525 0.135419101 0
v -0.133477122 0.130569413 0
v -0.121026255 0.132043794 0
v -0.117711008 0.128668472 0
v -0.128825843 0.12891084 0
v -0.134362683 0.12038108 0
v -0.124174565 0.127252311 0
v -0.119523287 0.125593752 0
v -0.129359469 0.121477604 0
v -0.130172566 0.110914238 0
v -0.124356255 0.122574136 0
v -0.119353041 0.123670667 0
v -0.125895396 0.114014238 0
v -0.124187313 0.104275748 0
v -0.121618256 0.117114313 0
v -0.117341109 0.120214343 0
v -0.120814152 0.108517423 0
v -0.117447838 0.0995690152 0
v -0.117441051 0.112759128 0
v -0.114067912 0.117000826 0
v -0.114666238 0.104351595 0
v -0.109009817 0.0949820206 0
v -0.111884706 0.109134205 0
v -0.109103151 0.113916807 0
v -0.106563099 0.100043714 0
v -0.0989844948 0.0903347582 0
v -0.104116388 0.105105415 0
v -0.101669706 0.110167116 0
v -0.096745193 0.0955626741 0
v -0.0875905007 0.0855991319 0
v -0.0945058912 0.100790605 0
v -0.0922665894 0.106018521 0
v -0.0854887664 0.0909280181 0
v -0.0750910714 0.0807903484 0
v -0.0833870769 0.0962569192 0
v -0.0812853575 0.101585813 0
v -0.0730849952 0.0861737132 0
v -0.0617693216 0.0759389922 0
v -0.0710789934 0.0915571079 0
v -0.0690729544 0.0969404951 0
v -0.0598316081 0.0813388601 0
v -0.0479184575 0.071082294 0
v -0.0578939728 0.0867387578 0
v -0.0559563003 0.0921386406 0
v -0.0460297987 0.0764647946 0
v -0.0338370465 0.0662606284 0
v -0.0441412404 0.081847325 0
v -0.04225263 0.087229833 0
v -0.031982474 0.0715938658 0
v -0.0198275913 0.0615164228 0
v -0.0301279202 0.0769270957 0
v -0.0282733236 0.0822603181 0
v -0.0179938283 0.0667691156 0
v -0.0061953757 0.0568935089 0
v -0.0161601137 0.0720218271 0
v -0.0143263489 0.0772745088 0
v -0.00436904235 0.0620340668 0
v 0.00675081136 0.0524375364 0
v -0.00254270853 0.0671746209 0
v -0.00071637542 0.0723151788 0
v 0.0085855769 0.0574328415 0
v 0.0186973698 0.0481968671 0
v 0.0104203392 0.0624281392 0
v 0.0122550959 0.0674234405 0
v 0.0205620807 0.0530104637 0
v 0.0293221902 0.0442253873 0
v 0.0224267337 0.0578240678 0
v 0.0242914204 0.0626376718 0
v 0.0312496852 0.0488138013 0
v 0.0382849798 0.0405907147 0
v 0.0331771523 0.0534022301 0
v 0.0351046361 0.0579906553 0
v 0.0403315835 0.0448943116 0
v 0.0452016965 0.0374024101 0
v 0.0423781611 0.0491979159 0
v 0.0444247536 0.0535015091 0
v 0.0474763438 0.0413174145 0
v 0.0544103049 0.0314365104 0
v 0.04975098 0.0452324189 0
v 0.0520256124 0.0491474345 0
v 0.0570783094 0.0347624198 0
v 0.0624349192 0.0239797309 0
v 0.0597462729 0.0380883701 0
v 0.0624142624 0.0414142981 0
v 0.0657020733 0.0262406394 0
v 0.0647277161 0.0194866899 0
v 0.0689692274 0.0285015535 0
v 0.0722363815 0.0307624619 0
v 0.0683827251 0.0194133129 0
v 0.0634668246 0.0158964247 0
v 0.0720377341 0.0193399526 0
v 0.0756927356 0.0192665812 0
v 0.0658462644 0.0135935014 0
v 0.0560491532 0.0106090065 0
v 0.0682257116 0.0112905884 0
v 0.0706051588 0.00898769405 0
v 0.0572250076 0.00791457202 0
v 0.042064812 0.00555410376 0
v 0.042664621 0.00308491709 0
v 0.0584008619 0.00522011751 0
v 0.05957672 0.00252566324 0
v 0.0432644375 0.000615720754 0
v 0.0438642502 -0.00185347558 0
vt 1.00000036 0
vt 0.966667056 0
vt 1.00000036 0.333333343
vt 0.966667056 0.333333343
vt 0.933333695 0
vt 1.00000036 0.666666687
vt 0.933333695 0.333333343
vt 0.900000334 0
vt 0.966667056 0.666666687
vt 1.00000036 1
vt 0.966667056 1
vt 0.933333695 0.666666687
vt 0.933333695 1
vt 0.900000334 0.333333343
vt 0.866666973 0
vt 0.900000334 0.666666687
vt 0.900000334 1
vt 0.866666973 0.333333343
vt 0.833333611 0
vt 0.866666973 0.666666687
vt 0.866666973 1
vt 0.833333611 0.333333343
vt 0.80000025 0
vt 0.833333611 0.666666687
vt 0.833333611 1
vt 0.80000025 0.333333343
vt 0.766666889 0
vt 0.80000025 0.666666687
vt 0.80000025 1
vt 0.766666889 0.333333343
vt 0.733333528 0
vt 0.766666889 0.666666687
vt 0.766666889 1
vt 0.733333528 0.333333343
vt 0.700000167 0
vt 0.733333528 0.666666687
vt 0.733333528 1
vt 0.700000167 0.333333343
vt 0.666666806 0
vt 0.700000167 0.666666687
vt 0.700000167 1
vt 0.666666806 0.333333343
vt 0.633333445 0
vt 0.666666806 0.666666687
vt 0.666666806 1
vt 0.633333445 0.333333343
vt 0.600000083 0
vt 0.633333445 0.666666687
vt 0.633333445 1
vt 0.600000083 0.333333343
vt 0.566666722 0
vt 0.600000083 0.666666687
vt 0.600000083 1
vt 0.566666722 0.333333343
vt 0.533333361 0
vt 0.566666722 0.666666687
vt 0.566666722 1
vt 0.533333361 0.333333343
vt 0.5 0
vt 0.533333361 0.666666687
vt 0.533333361 1
vt 0.5 0.333333343
vt 0.466666669 0
vt 0.5 0.666666687
vt 0.5 1
vt 0.466666669 0.333333343
vt 0.433333337 0
vt 0.466666669 0.666666687
vt 0.466666669 1
vt 0.433333337 0.333333343
vt 0.400000006 0
vt 0.433333337 0.666666687
vt 0.433333337 1
vt 0.400000006 0.333333343
vt 0.366666675 0
vt 0.400000006 0.666666687
vt 0.400000006 1
vt 0.366666675 0.333333343
vt 0.333333343 0
vt 0.366666675 0.666666687
vt 0.366666675 1
vt 0.333333343 0.333333343
vt 0.300000012 0
vt 0.333333343 0.666666687
vt 0.333333343 1
vt 0.300000012 0.333333343
vt 0.266666681 0
vt 0.300000012 0.666666687
vt 0.300000012 1
vt 0.266666681 0.333333343
vt 0.233333334 0
vt 0.266666681 0.666666687
vt 0.266666681 1
vt 0.233333334 0.333333343
vt 0.200000003 0
vt 0.233333334 0.666666687
vt 0.233333334 1
vt 0.200000003 0.333333343
vt 0.166666672 0
vt 0.200000003 0.666666687
vt 0.200000003 1
vt 0.166666672 0.333333343
vt 0.13333334 0
vt 0.166666672 0.666666687
vt 0.166666672 1
vt 0.13333334 0.333333343
vt 0.100000009 0
vt 0.13333334 0.666666687
vt 0.13333334 1
vt 0.100000009 0.333333343
vt 0.0666666701 0
vt 0.100000009 0.666666687
vt 0.100000009 1
vt 0.0666666701 0.333333343
vt 0.0333333351 0
vt 0.0666666701 0.666666687
vt 0.0666666701 1
vt 0.0333333351 0.333333343
vt 0 0
vt 0 0.333333343
vt 0.0333333351 0.666666687
vt 0.0333333351 1
vt 0 0.666666687
vt 0 1
vn -0 0 -1
vn -0 0 -1
vn -0 0 -1
vn -0 0 -1
vn -0 0 -1
vn -0 0 -1
vn -0 0 -1
vn -0 0 -1
vn -0 0 -1
vn -0 0 -1
vn -0 0 -1
vn -0 0 -1
vn -0 0 -1
vn -0 0 -1
vn -0 0 -1
vn -0 0 -1
vn -0 0 -1
vn -0 0 -1
vn -0 0 -1
vn -0 0 -1
vn -0 0 -1
vn -0 0 -1
vn -0 0 -1
vn -0 0 -1
vn -0 0 -1
vn -0 0 -1
vn -0 0 -1
vn -0 0 -1
vn -0 0 -1
vn -0 0 -1
vn -0 0 -1
vn -0 0 -1
vn -0 0 -1
vn -0 0 -1
vn -0 0 -1
vn -0 0 -1
vn -0 0 -1
vn -0 0 -1
vn -0 0 -1
vn -0 0 -1
vn -0 0 -1
vn -0 0 -1
vn -0 0 -1
vn -0 0 -1
vn -0 0 -1
vn -0 0 -1
vn -0 0 -1
vn -0 0 -1
vn -0 0 -1
vn -0 0 -1
vn -0 0 -1
vn -0 0 -1
vn -0 0 -1
vn -0 0 -1
vn -0 0 -1
vn -0 0 -1
vn -0 0 -1
vn -0 0 -1
vn -0 0 -1
vn -0 0 -1
vn -0 0 -1
vn -0 0 -1
vn -0 0 -1
vn -0 0 -1
vn -0 0 -1
vn -0 0 -1
vn -0 0 -1
vn -0 0 -1
vn -0 0 -1
vn -0 0 -1
vn -0 0 -1
vn -0 0 -1
vn -0 0 -1
vn -0 0 -1
vn -0 0 -1
vn -0 0 -1
vn -0 0 -1
vn -0 0 -1
vn -0 0 -1
vn -0 0 -1
vn -0 0 -1
vn -0 0 -1
vn -0 0 -1
vn -0 0 -1
vn -0 0 -1
vn -0 0 -1
vn -0 0 -1
vn -0 0 -1
vn -0 0 -1
vn -0 0 -1
vn -0 0 -1
vn -0 0 -1
vn -0 0 -1
vn -0 0 -1
vn -0 0 -1
vn -0 0 -1
vn -0 0 -1
vn -0 0 -1
vn -0 0 -1
vn -0 0 -1
vn -0 0 -1
vn -0 0 -1
vn -0 0 -1
vn -0 0 -1
vn -0 0 -1
vn -0 0 -1
vn -0 0 -1
vn -0 0 -1
vn -0 0 -1
vn -0 0 -1
vn -0 0 -1
vn -0 0 -1
vn -0 0 -1
vn -0 0 -1
vn -0 0 -1
vn -0 0 -1
vn -0 0 -1
vn -0 0 -1
vn -0 0 -1
vn -0 0 -1
vn -0 0 -1
vn -0 0 -1
vn -0 0 -1
vn -0 0 -1
g Plane003_0
f 3/3/3 2/2/2 1/1/1
f 2/2/2 3/3/3 4/4/4
f 4/4/4 5/5/5 2/2/2
f 6/6/6 4/4/4 3/3/3
f 5/5/5 4/4/4 7/7/7
f 7/7/7 8/8/8 5/5/5
f 4/4/4 6/6/6 9/9/9
f 9/9/9 7/7/7 4/4/4
f 10/10/10 9/9/9 6/6/6
f 9/9/9 10/10/10 11/11/11
f 11/11/11 12/12/12 9/9/9
f 7/7/7 9/9/9 12/12/12
f 12/12/12 11/11/11 13/13/13
f 8/8/8 7/7/7 14/14/14
f 12/12/12 14/14/14 7/7/7
f 14/14/14 15/15/15 8/8/8
f 13/13/13 16/16/16 12/12/12
f 14/14/14 12/12/12 16/16/16
f 16/16/16 13/13/13 17/17/17
f 15/15/15 14/14/14 18/18/18
f 16/16/16 18/18/18 14/14/14
f 18/18/18 19/19/19 15/15/15
f 17/17/17 20/20/20 16/16/16
f 18/18/18 16/16/16 20/20/20
f 20/20/20 17/17/17 21/21/21
f 19/19/19 18/18/18 22/22/22
f 20/20/20 22/22/22 18/18/18
f 22/22/22 23/23/23 19/19/19
f 21/21/21 24/24/24 20/20/20
f 22/22/22 20/20/20 24/24/24
f 24/24/24 21/21/21 25/25/25
f 23/23/23 22/22/22 26/26/26
f 24/24/24 26/26/26 22/22/22
f 26/26/26 27/27/27 23/23/23
f 25/25/25 28/28/28 24/24/24
f 26/26/26 24/24/24 28/28/28
f 28/28/28 25/25/25 29/29/29
f 27/27/27 26/26/26 30/30/30
f 28/28/28 30/30/30 26/26/26
f 30/30/30 31/31/31 27/27/27
f 29/29/29 32/32/32 28/28/28
f 30/30/30 28/28/28 32/32/32
f 32/32/32 29/29/29 33/33/33
f 31/31/31 30/30/30 34/34/34
f 32/32/32 34/34/34 30/30/30
f 34/34/34 35/35/35 31/31/31
f 33/33/33 36/36/36 32/32/32
f 34/34/34 32/32/32 36/36/36
f 36/36/36 33/33/33 37/37/37
f 35/35/35 34/34/34 38/38/38
f 36/36/36 38/38/38 34/34/34
f 38/38/38 39/39/39 35/35/35
f 37/37/37 40/40/40 36/36/36
f 38/38/38 36/36/36 40/40/40
f 40/40/40 37/37/37 41/41/41
f 39/39/39 38/38/38 42/42/42
f 40/40/40 42/42/42 38/38/38
f 42/42/42 43/43/43 39/39/39
f 41/41/41 44/44/44 40/40/40
f 42/42/42 40/40/40 44/44/44
f 44/44/44 41/41/41 45/45/45
f 43/43/43 42/42/42 46/46/46
f 44/44/44 46/46/46 42/42/42
f 46/46/46 47/47/47 43/43/43
f 45/45/45 48/48/48 44/44/44
f 46/46/46 44/44/44 48/48/48
f 48/48/48 45/45/45 49/49/49
f 47/47/47 46/46/46 50/50/50
f 48/48/48 50/50/50 46/46/46
f 50/50/50 51/51/51 47/47/47
f 49/49/49 52/52/52 48/48/48
f 50/50/50 48/48/48 52/52/52
f 52/52/52 49/49/49 53/53/53
f 51/51/51 50/50/50 54/54/54
f 52/52/52 54/54/54 50/50/50
f 54/54/54 55/55/55 51/51/51
f 53/53/53 56/56/56 52/52/52
f 54/54/54 52/52/52 56/56/56
f 56/56/56 53/53/53 57/57/57
f 55/55/55 54/54/54 58/58/58
f 56/56/56 58/58/58 54/54/54
f 58/58/58 59/59/59 55/55/55
f 57/57/57 60/60/60 56/56/56
f 58/58/58 56/56/56 60/60/60
f 60/60/60 57/57/57 61/61/61
f 59/59/59 58/58/58 62/62/62
f 60/60/60 62/62/62 58/58/58
f 62/62/62 63/63/63 59/59/59
f 61/61/61 64/64/64 60/60/60
f 62/62/62 60/60/60 64/64/64
f 64/64/64 61/61/61 65/65/65
f 63/63/63 62/62/62 66/66/66
f 64/64/64 66/66/66 62/62/62
f 66/66/66 67/67/67 63/63/63
f 65/65/65 68/68/68 64/64/64
f 66/66/66 64/64/64 68/68/68
f 68/68/68 65/65/65 69/69/69
f 67/67/67 66/66/66 70/70/70
f 68/68/68 70/70/70 66/66/66
f 70/70/70 71/71/71 67/67/67
f 69/69/69 72/72/72 68/68/68
f 70/70/70 68/68/68 72/72/72
f 72/72/72 69/69/69 73/73/73
f 71/71/71 70/70/70 74/74/74
f 72/72/72 74/74/74 70/70/70
f 74/74/74 75/75/75 71/71/71
f 73/73/73 76/76/76 72/72/72
f 74/74/74 72/72/72 76/76/76
f 76/76/76 73/73/73 77/77/77
f 75/75/75 74/74/74 78/78/78
f 76/76/76 78/78/78 74/74/74
f 78/78/78 79/79/79 75/75/75
f 77/77/77 80/80/80 76/76/76
f 78/78/78 76/76/76 80/80/80
f 80/80/80 77/77/77 81/81/81
f 79/79/79 78/78/78 82/82/82
f 80/80/80 82/82/82 78/78/78
f 82/82/82 83/83/83 79/79/79
f 81/81/81 84/84/84 80/80/80
f 82/82/82 80/80/80 84/84/84
f 84/84/84 81/81/81 85/85/85
f 83/83/83 82/82/82 86/86/86
f 84/84/84 86/86/86 82/82/82
f 86/86/86 87/87/87 83/83/83
f 85/85/85 88/88/88 84/84/84
f 86/86/86 84/84/84 88/88/88
f 88/88/88 85/85/85 89/89/89
f 87/87/87 86/86/86 90/90/90
f 88/88/88 90/90/90 86/86/86
f 90/90/90 91/91/91 87/87/87
f 89/89/89 92/92/92 88/88/88
f 90/90/90 88/88/88 92/92/92
f 92/92/92 89/89/89 93/93/93
f 91/91/91 90/90/90 94/94/94
f 92/92/92 94/94/94 90/90/90
f 94/94/94 95/95/95 91/91/91
f 93/93/93 96/96/96 92/92/92
f 94/94/94 92/92/92 96/96/96
f 96/96/96 93/93/93 97/97/97
f 95/95/95 94/94/94 98/98/98
f 96/96/96 98/98/98 94/94/94
f 98/98/98 99/99/99 95/95/95
f 97/97/97 100/100/100 96/96/96
f 98/98/98 96/96/96 100/100/100
f 100/100/100 97/97/97 101/101/101
f 99/99/99 98/98/98 102/102/102
f 100/100/100 102/102/102 98/98/98
f 102/102/102 103/103/103 99/99/99
f 101/101/101 104/104/104 100/100/100
f 102/102/102 100/100/100 104/104/104
f 104/104/104 101/101/101 105/105/105
f 103/103/103 102/102/102 106/106/106
f 104/104/104 106/106/106 102/102/102
f 106/106/106 107/107/107 103/103/103
f 105/105/105 108/108/108 104/104/104
f 106/106/106 104/104/104 108/108/108
f 108/108/108 105/105/105 109/109/109
f 107/107/107 106/106/106 110/110/110
f 108/108/108 110/110/110 106/106/106
f 110/110/110 111/111/111 107/107/107
f 109/109/109 112/112/112 108/108/108
f 110/110/110 108/108/108 112/112/112
f 112/112/112 109/109/109 113/113/113
f 111/111/111 110/110/110 114/114/114
f 112/112/112 114/114/114 110/110/110
f 114/114/114 115/115/115 111/111/111
f 113/113/113 116/116/116 112/112/112
f 114/114/114 112/112/112 116/116/116
f 116/116/116 113/113/113 117/117/117
f 115/115/115 114/114/114 118/118/118
f 116/116/116 118/118/118 114/114/114
f 118/118/118 119/119/119 115/115/115
f 119/119/119 118/118/118 120/120/120
f 117/117/117 121/121/121 116/116/116
f 118/118/118 116/116/116 121/121/121
f 121/121/121 120/120/120 118/118/118
f 121/121/121 117/117/117 122/122/122
f 120/120/120 121/121/121 123/123/123
f 122/122/122 123/123/123 121/121/121
f 123/123/123 122/122/122 124/124/124
