g Cylinder001
v 0.312661439 0.54154563 0.26629284
v 0.10858614 0.615822911 0.371096373
v 0.10858614 0.615822971 0.26629284
v 0.312661439 0.54154563 0.371096373
v 0.479025155 0.401949912 0.26629284
v 0.10858614 0.615822911 0.475899875
v 0.479025155 0.401949883 0.371096373
v 0.587611318 0.213873059 0.26629287
v 0.312661439 0.54154563 0.475899965
v 0.10858614 0.615822852 0.580703497
v 0.587611318 0.213873044 0.371096402
v 0.625322938 4.33846203E-08 0.2662929
v 0.479025155 0.401949883 0.475899935
v 0.312661439 0.54154551 0.580703497
v 0.10858614 0.615822852 0.685506999
v 0.625322938 2.60307687E-08 0.371096432
v 0.587611139 -0.213873446 0.2662929
v 0.587611318 0.213873014 0.475899965
v 0.479025155 0.401949793 0.580703497
v 0.312661439 0.54154557 0.68550694
v 0.10858614 0.615822792 0.790310562
v 0.312661439 0.54154551 0.790310621
v 0.479025155 0.401949823 0.685506999
v 0.479025155 0.401949763 0.79031074
v 0.587611139 -0.213873461 0.371096432
v 0.479024887 -0.401950061 0.26629293
v 0.625322938 8.67691163E-09 0.475899994
v 0.587611318 0.213873014 0.580703497
v 0.587611318 0.213872999 0.685507119
v 0.587611318 0.213872984 0.790310562
v 0.479024887 -0.401950091 0.371096432
v 0.312661141 -0.54154563 0.266292959
v 0.587611139 -0.213873476 0.475899994
v 0.625322938 -8.67694361E-09 0.580703497
v 0.625322938 -2.60307935E-08 0.685507119
v 0.625322938 -4.33846274E-08 0.79031074
v 0.312661141 -0.541545689 0.371096432
v 0.108585879 -0.615822852 0.26629293
v 0.479024887 -0.401950091 0.475900024
v 0.587611139 -0.213873476 0.580703497
v 0.587611139 -0.213873491 0.685507119
v 0.587611139 -0.21387352 0.79031074
v 0.108585879 -0.615822852 0.371096492
v -0.108586445 -0.615822732 0.26629293
v 0.312661141 -0.541545689 0.475899994
v 0.479024887 -0.401950181 0.580703557
v 0.479024887 -0.401950151 0.685507119
v 0.479024887 -0.40195021 0.790310621
v -0.108586445 -0.615822732 0.371096492
v -0.312661648 -0.541545331 0.266292959
v 0.108585879 -0.615822852 0.475900084
v 0.312661141 -0.541545749 0.580703557
v 0.312661141 -0.541545689 0.685507119
v 0.312661141 -0.541545808 0.79031074
v -0.312661648 -0.541545391 0.371096432
v -0.479025275 -0.401949614 0.26629293
v -0.108586445 -0.615822732 0.475900084
v 0.108585879 -0.615822971 0.580703557
v 0.108585879 -0.615822911 0.685507119
v 0.108585879 -0.615822971 0.79031074
v -0.479025275 -0.401949644 0.371096432
v -0.587611377 -0.21387288 0.2662929
v -0.312661648 -0.541545391 0.475899994
v -0.108586445 -0.615822852 0.580703557
v -0.108586445 -0.615822792 0.685507119
v -0.108586445 -0.615822852 0.79031074
v -0.587611377 -0.21387291 0.371096432
v -0.625322938 1.3780577E-07 0.2662929
v -0.479025275 -0.401949644 0.475900024
v -0.312661648 -0.541545451 0.580703557
v -0.312661648 -0.541545391 0.685507119
v -0.312661648 -0.54154551 0.79031074
v -0.625322938 1.20451901E-07 0.371096432
v -0.587611318 0.213873103 0.26629287
v -0.587611377 -0.213872924 0.475899994
v -0.479025275 -0.401949733 0.580703557
v -0.479025275 -0.401949674 0.685507119
v -0.479025275 -0.401949763 0.790310621
v -0.587611318 0.213873073 0.371096402
v -0.479025155 0.401949912 0.26629284
v -0.625322938 1.03098046E-07 0.475899994
v -0.587611377 -0.213872924 0.580703497
v -0.587611377 -0.213872939 0.685507119
v -0.587611377 -0.213872969 0.79031074
v -0.479025155 0.401949883 0.371096373
v -0.312661499 0.54154563 0.26629284
v -0.587611318 0.213873059 0.475899965
v -0.625322938 8.57441904E-08 0.580703497
v -0.625322938 6.83903423E-08 0.685507119
v -0.625322938 5.10365084E-08 0.79031074
v -0.312661499 0.54154557 0.371096373
v -0.108586259 0.615822911 0.26629284
v -0.479025155 0.401949883 0.475899935
v -0.587611318 0.213873059 0.580703497
v -0.587611318 0.213873044 0.685507119
v -0.587611318 0.213873014 0.790310562
v -0.108586259 0.615822852 0.371096373
v 0.10858614 0.615822971 0.26629284
v 0.10858614 0.615822911 0.371096373
v -0.312661499 0.54154557 0.475899965
v -0.479025155 0.401949793 0.580703497
v -0.479025155 0.401949823 0.685506999
v -0.479025155 0.401949763 0.79031074
v -0.108586259 0.615822852 0.475899875
v 0.10858614 0.615822911 0.475899875
v -0.312661499 0.54154551 0.580703497
v -0.312661499 0.54154551 0.68550694
v -0.312661499 0.541545451 0.790310621
v -0.108586259 0.615822792 0.580703497
v 0.10858614 0.615822852 0.580703497
v -0.108586259 0.615822852 0.685506999
v -0.108586259 0.615822732 0.790310562
v 0.10858614 0.615822852 0.685506999
v 0.10858614 0.615822792 0.790310562
vt 0.916666687 0
vt 0.972222209 0.199999988
vt 0.972222209 0
vt 0.916666687 0.199999988
vt 0.861111045 0
vt 0.972222209 0.400000006
vt 0.861111045 0.199999988
vt 0.805555522 0
vt 0.916666687 0.400000006
vt 0.972222209 0.600000024
vt 0.805555522 0.199999988
vt 0.75 0
vt 0.861111045 0.400000006
vt 0.916666687 0.600000024
vt 0.972222209 0.800000012
vt 0.75 0.199999988
vt 0.694444299 0
vt 0.805555522 0.400000006
vt 0.861111045 0.600000024
vt 0.916666687 0.800000012
vt 0.972222209 1
vt 0.916666687 1
vt 0.861111045 0.800000012
vt 0.861111045 1
vt 0.694444299 0.199999988
vt 0.638888836 0
vt 0.75 0.400000006
vt 0.805555522 0.600000024
vt 0.805555522 0.800000012
vt 0.805555522 1
vt 0.638888836 0.199999988
vt 0.583333254 0
vt 0.694444299 0.400000006
vt 0.75 0.600000024
vt 0.75 0.800000012
vt 0.75 1
vt 0.583333254 0.199999988
vt 0.527777672 0
vt 0.638888836 0.400000006
vt 0.694444299 0.600000024
vt 0.694444299 0.800000012
vt 0.694444299 1
vt 0.527777672 0.199999988
vt 0.472222149 0
vt 0.583333254 0.400000006
vt 0.638888836 0.600000024
vt 0.638888836 0.800000012
vt 0.638888836 1
vt 0.472222149 0.199999988
vt 0.416666597 0
vt 0.527777672 0.400000006
vt 0.583333254 0.600000024
vt 0.583333254 0.800000012
vt 0.583333254 1
vt 0.416666597 0.199999988
vt 0.361111075 0
vt 0.472222149 0.400000006
vt 0.527777672 0.600000024
vt 0.527777672 0.800000012
vt 0.527777672 1
vt 0.361111075 0.199999988
vt 0.305555522 0
vt 0.416666597 0.400000006
vt 0.472222149 0.600000024
vt 0.472222149 0.800000012
vt 0.472222149 1
vt 0.305555522 0.199999988
vt 0.249999985 0
vt 0.361111075 0.400000006
vt 0.416666597 0.600000024
vt 0.416666597 0.800000012
vt 0.416666597 1
vt 0.249999985 0.199999988
vt 0.194444433 0
vt 0.305555522 0.400000006
vt 0.361111075 0.600000024
vt 0.361111075 0.800000012
vt 0.361111075 1
vt 0.194444433 0.199999988
vt 0.138888896 0
vt 0.249999985 0.400000006
vt 0.305555522 0.600000024
vt 0.305555522 0.800000012
vt 0.305555522 1
vt 0.138888896 0.199999988
vt 0.0833333507 0
vt 0.194444433 0.400000006
vt 0.249999985 0.600000024
vt 0.249999985 0.800000012
vt 0.249999985 1
vt 0.0833333507 0.199999988
vt 0.0277778096 0
vt 0.138888896 0.400000006
vt 0.194444433 0.600000024
vt 0.194444433 0.800000012
vt 0.194444433 1
vt 0.0277778096 0.199999988
vt -0.027777791 0
vt -0.027777791 0.199999988
vt 0.0833333507 0.400000006
vt 0.138888896 0.600000024
vt 0.138888896 0.800000012
vt 0.138888896 1
vt 0.0277778096 0.400000006
vt -0.027777791 0.400000006
vt 0.0833333507 0.600000024
vt 0.0833333507 0.800000012
vt 0.0833333507 1
vt 0.0277778096 0.600000024
vt -0.027777791 0.600000024
vt 0.0277778096 0.800000012
vt 0.0277778096 1
vt -0.027777791 0.800000012
vt -0.027777791 1
vn 0.49999997 0.866025448 3.10592554E-07
vn 0.17364803 0.98480773 0
vn 0.17364803 0.984807849 3.54987975E-07
vn 0.5 0.866025448 0
vn 0.766044497 0.642787457 2.08479932E-07
vn 0.173648044 0.984807849 3.54987833E-07
vn 0.766044497 0.642787457 0
vn 0.939692616 0.342020124 0
vn 0.49999997 0.866025448 3.10592497E-07
vn 0.173648059 0.98480773 0
vn 0.939692616 0.342020065 0
vn 1 0 0
vn 0.766044497 0.642787576 0
vn 0.5 0.866025448 0
vn 0.173648044 0.98480773 0
vn 1 0 0
vn 0.939692438 -0.342020661 0
vn 0.939692616 0.342020065 0
vn 0.766044497 0.642787576 0
vn 0.5 0.866025448 0
vn 0.173648059 0.98480773 7.09975609E-07
vn 0.50000006 0.866025329 6.21184313E-07
vn 0.766044438 0.642787635 0
vn 0.766044497 0.642787457 3.9568576E-07
vn 0.939692438 -0.34202075 0
vn 0.766043961 -0.642788112 -2.21244079E-07
vn 1 0 0
vn 0.939692616 0.342020124 0
vn 0.939692616 0.342020124 0
vn 0.939692616 0.342020094 0
vn 0.766043961 -0.642788112 0
vn 0.499999583 -0.866025686 -3.14847398E-07
vn 0.939692438 -0.342020661 0
vn 1 0 0
vn 1 0 0
vn 1 -2.31185282E-07 0
vn 0.499999523 -0.866025686 0
vn 0.173647642 -0.984807849 -3.5498806E-07
vn 0.766043961 -0.642788112 -2.04225259E-07
vn 0.939692438 -0.342020661 0
vn 0.939692438 -0.342020661 0
vn 0.939692438 -0.342020661 0
vn 0.173647642 -0.984807849 0
vn -0.173648641 -0.98480773 -3.72006838E-07
vn 0.499999523 -0.866025686 -3.14847284E-07
vn 0.766043961 -0.642788112 0
vn 0.76604408 -0.642788053 0
vn 0.766043961 -0.642788172 -3.91431684E-07
vn -0.173648596 -0.98480773 0
vn -0.500000298 -0.866025269 -3.23356744E-07
vn 0.173647642 -0.984807849 -3.54988174E-07
vn 0.499999493 -0.866025686 0
vn 0.499999583 -0.866025686 0
vn 0.499999434 -0.866025805 -6.29694341E-07
vn -0.500000298 -0.866025269 0
vn -0.766044557 -0.642787337 0
vn -0.173648641 -0.98480773 -3.63497634E-07
vn 0.173647642 -0.984807849 0
vn 0.173647672 -0.984807849 0
vn 0.173647642 -0.984807849 -7.09975609E-07
vn -0.766044557 -0.642787397 0
vn -0.939692616 -0.342019945 0
vn -0.500000298 -0.866025269 -3.14847227E-07
vn -0.173648641 -0.98480773 0
vn -0.173648641 -0.98480773 0
vn -0.173648611 -0.98480773 -7.26994301E-07
vn -0.939692616 -0.342019945 0
vn -1 0 0
vn -0.766044557 -0.642787337 0
vn -0.500000298 -0.866025269 0
vn -0.500000417 -0.866025269 0
vn -0.500000238 -0.866025269 -6.29694171E-07
vn -1 0 0
vn -0.939692557 0.342020184 0
vn -0.939692616 -0.342019945 0
vn -0.766044557 -0.642787397 0
vn -0.766044557 -0.642787337 0
vn -0.766044557 -0.642787337 -3.87176954E-07
vn -0.939692557 0.342020184 0
vn -0.766044497 0.642787576 2.08479989E-07
vn -1 0 0
vn -0.939692616 -0.342019975 0
vn -0.939692616 -0.342019975 0
vn -0.939692616 -0.342019916 0
vn -0.766044497 0.642787576 0
vn -0.5 0.866025448 3.1059264E-07
vn -0.939692616 0.342020154 0
vn -1 0 0
vn -1 0 0
vn -1 0 0
vn -0.50000006 0.866025448 0
vn -0.173648253 0.98480773 3.59242733E-07
vn -0.766044438 0.642787635 0
vn -0.939692557 0.342020184 0
vn -0.939692557 0.342020154 0
vn -0.939692616 0.342020124 0
vn -0.173648268 0.98480773 0
vn 0.17364803 0.984807849 3.54987975E-07
vn 0.17364803 0.98480773 0
vn -0.5 0.866025448 3.12719948E-07
vn -0.766044497 0.642787457 0
vn -0.766044438 0.642787635 0
vn -0.766044497 0.642787457 3.91431229E-07
vn -0.173648253 0.98480773 3.57115198E-07
vn 0.173648044 0.984807849 3.54987833E-07
vn -0.500000119 0.866025329 0
vn -0.50000006 0.866025329 0
vn -0.500000179 0.866025329 6.25439156E-07
vn -0.173648268 0.98480773 0
vn 0.173648059 0.98480773 0
vn -0.173648253 0.98480773 0
vn -0.173648283 0.98480773 7.14230396E-07
vn 0.173648044 0.98480773 0
vn 0.173648059 0.98480773 7.09975609E-07
g Cylinder001_0
f 3/3/3 2/2/2 1/1/1
f 2/2/2 4/4/4 1/1/1
f 1/1/1 4/4/4 5/5/5
f 2/2/2 6/6/6 4/4/4
f 4/4/4 7/7/7 5/5/5
f 5/5/5 7/7/7 8/8/8
f 6/6/6 9/9/9 4/4/4
f 4/4/4 9/9/9 7/7/7
f 6/6/6 10/10/10 9/9/9
f 7/7/7 11/11/11 8/8/8
f 8/8/8 11/11/11 12/12/12
f 9/9/9 13/13/13 7/7/7
f 7/7/7 13/13/13 11/11/11
f 10/10/10 14/14/14 9/9/9
f 9/9/9 14/14/14 13/13/13
f 10/10/10 15/15/15 14/14/14
f 11/11/11 16/16/16 12/12/12
f 12/12/12 16/16/16 17/17/17
f 13/13/13 18/18/18 11/11/11
f 11/11/11 18/18/18 16/16/16
f 14/14/14 19/19/19 13/13/13
f 13/13/13 19/19/19 18/18/18
f 15/15/15 20/20/20 14/14/14
f 14/14/14 20/20/20 19/19/19
f 15/15/15 21/21/21 20/20/20
f 21/21/21 22/22/22 20/20/20
f 20/20/20 22/22/22 23/23/23
f 20/20/20 23/23/23 19/19/19
f 22/22/22 24/24/24 23/23/23
f 16/16/16 25/25/25 17/17/17
f 17/17/17 25/25/25 26/26/26
f 18/18/18 27/27/27 16/16/16
f 16/16/16 27/27/27 25/25/25
f 19/19/19 28/28/28 18/18/18
f 19/19/19 23/23/23 28/28/28
f 18/18/18 28/28/28 27/27/27
f 23/23/23 24/24/24 29/29/29
f 23/23/23 29/29/29 28/28/28
f 24/24/24 30/30/30 29/29/29
f 25/25/25 31/31/31 26/26/26
f 26/26/26 31/31/31 32/32/32
f 27/27/27 33/33/33 25/25/25
f 25/25/25 33/33/33 31/31/31
f 28/28/28 34/34/34 27/27/27
f 28/28/28 29/29/29 34/34/34
f 27/27/27 34/34/34 33/33/33
f 29/29/29 30/30/30 35/35/35
f 29/29/29 35/35/35 34/34/34
f 30/30/30 36/36/36 35/35/35
f 31/31/31 37/37/37 32/32/32
f 32/32/32 37/37/37 38/38/38
f 33/33/33 39/39/39 31/31/31
f 31/31/31 39/39/39 37/37/37
f 34/34/34 40/40/40 33/33/33
f 34/34/34 35/35/35 40/40/40
f 33/33/33 40/40/40 39/39/39
f 35/35/35 36/36/36 41/41/41
f 35/35/35 41/41/41 40/40/40
f 36/36/36 42/42/42 41/41/41
f 37/37/37 43/43/43 38/38/38
f 38/38/38 43/43/43 44/44/44
f 39/39/39 45/45/45 37/37/37
f 37/37/37 45/45/45 43/43/43
f 40/40/40 46/46/46 39/39/39
f 40/40/40 41/41/41 46/46/46
f 39/39/39 46/46/46 45/45/45
f 41/41/41 42/42/42 47/47/47
f 41/41/41 47/47/47 46/46/46
f 42/42/42 48/48/48 47/47/47
f 43/43/43 49/49/49 44/44/44
f 44/44/44 49/49/49 50/50/50
f 45/45/45 51/51/51 43/43/43
f 43/43/43 51/51/51 49/49/49
f 46/46/46 52/52/52 45/45/45
f 46/46/46 47/47/47 52/52/52
f 45/45/45 52/52/52 51/51/51
f 47/47/47 48/48/48 53/53/53
f 47/47/47 53/53/53 52/52/52
f 48/48/48 54/54/54 53/53/53
f 49/49/49 55/55/55 50/50/50
f 50/50/50 55/55/55 56/56/56
f 51/51/51 57/57/57 49/49/49
f 49/49/49 57/57/57 55/55/55
f 52/52/52 58/58/58 51/51/51
f 52/52/52 53/53/53 58/58/58
f 51/51/51 58/58/58 57/57/57
f 53/53/53 54/54/54 59/59/59
f 53/53/53 59/59/59 58/58/58
f 54/54/54 60/60/60 59/59/59
f 55/55/55 61/61/61 56/56/56
f 56/56/56 61/61/61 62/62/62
f 57/57/57 63/63/63 55/55/55
f 55/55/55 63/63/63 61/61/61
f 58/58/58 64/64/64 57/57/57
f 58/58/58 59/59/59 64/64/64
f 57/57/57 64/64/64 63/63/63
f 59/59/59 60/60/60 65/65/65
f 59/59/59 65/65/65 64/64/64
f 60/60/60 66/66/66 65/65/65
f 61/61/61 67/67/67 62/62/62
f 62/62/62 67/67/67 68/68/68
f 63/63/63 69/69/69 61/61/61
f 61/61/61 69/69/69 67/67/67
f 64/64/64 70/70/70 63/63/63
f 64/64/64 65/65/65 70/70/70
f 63/63/63 70/70/70 69/69/69
f 65/65/65 66/66/66 71/71/71
f 65/65/65 71/71/71 70/70/70
f 66/66/66 72/72/72 71/71/71
f 67/67/67 73/73/73 68/68/68
f 68/68/68 73/73/73 74/74/74
f 69/69/69 75/75/75 67/67/67
f 67/67/67 75/75/75 73/73/73
f 70/70/70 76/76/76 69/69/69
f 70/70/70 71/71/71 76/76/76
f 69/69/69 76/76/76 75/75/75
f 71/71/71 72/72/72 77/77/77
f 71/71/71 77/77/77 76/76/76
f 72/72/72 78/78/78 77/77/77
f 73/73/73 79/79/79 74/74/74
f 74/74/74 79/79/79 80/80/80
f 75/75/75 81/81/81 73/73/73
f 73/73/73 81/81/81 79/79/79
f 76/76/76 82/82/82 75/75/75
f 76/76/76 77/77/77 82/82/82
f 75/75/75 82/82/82 81/81/81
f 77/77/77 78/78/78 83/83/83
f 77/77/77 83/83/83 82/82/82
f 78/78/78 84/84/84 83/83/83
f 79/79/79 85/85/85 80/80/80
f 80/80/80 85/85/85 86/86/86
f 81/81/81 87/87/87 79/79/79
f 79/79/79 87/87/87 85/85/85
f 82/82/82 88/88/88 81/81/81
f 82/82/82 83/83/83 88/88/88
f 81/81/81 88/88/88 87/87/87
f 83/83/83 84/84/84 89/89/89
f 83/83/83 89/89/89 88/88/88
f 84/84/84 90/90/90 89/89/89
f 85/85/85 91/91/91 86/86/86
f 86/86/86 91/91/91 92/92/92
f 87/87/87 93/93/93 85/85/85
f 85/85/85 93/93/93 91/91/91
f 88/88/88 94/94/94 87/87/87
f 88/88/88 89/89/89 94/94/94
f 87/87/87 94/94/94 93/93/93
f 89/89/89 90/90/90 95/95/95
f 89/89/89 95/95/95 94/94/94
f 90/90/90 96/96/96 95/95/95
f 91/91/91 97/97/97 92/92/92
f 92/92/92 97/97/97 98/98/98
f 97/97/97 99/99/99 98/98/98
f 93/93/93 100/100/100 91/91/91
f 91/91/91 100/100/100 97/97/97
f 94/94/94 101/101/101 93/93/93
f 94/94/94 95/95/95 101/101/101
f 93/93/93 101/101/101 100/100/100
f 95/95/95 96/96/96 102/102/102
f 95/95/95 102/102/102 101/101/101
f 96/96/96 103/103/103 102/102/102
f 97/97/97 104/104/104 99/99/99
f 100/100/100 104/104/104 97/97/97
f 104/104/104 105/105/105 99/99/99
f 101/101/101 106/106/106 100/100/100
f 101/101/101 102/102/102 106/106/106
f 100/100/100 106/106/106 104/104/104
f 102/102/102 103/103/103 107/107/107
f 102/102/102 107/107/107 106/106/106
f 103/103/103 108/108/108 107/107/107
f 104/104/104 109/109/109 105/105/105
f 106/106/106 109/109/109 104/104/104
f 106/106/106 107/107/107 109/109/109
f 109/109/109 110/110/110 105/105/105
f 107/107/107 108/108/108 111/111/111
f 107/107/107 111/111/111 109/109/109
f 109/109/109 111/111/111 110/110/110
f 108/108/108 112/112/112 111/111/111
f 111/111/111 113/113/113 110/110/110
f 111/111/111 112/112/112 113/113/113
f 112/112/112 114/114/114 113/113/113
