g Plane003
v -0.0110799531 -0.0234775543 -1.98832062E-08
v -0.00105556403 -0.0210577454 -1.85597582E-08
v -0.0118559236 -0.019830253 -6.57889387E-09
v -0.00204069866 -0.0174613018 -6.15290929E-09
v 0.00743159885 -0.0184265729 -1.7650656E-08
v -0.0126318941 -0.0161829516 6.7254291E-09
v 0.0061943247 -0.0149088958 -5.87818638E-09
v 0.0145048071 -0.015603438 -1.70057941E-08
v -0.00302583375 -0.0138648534 6.25394403E-09
v -0.0134078646 -0.0125356531 2.00297432E-08
v -0.00401096838 -0.010268406 1.86607902E-08
v 0.00495704869 -0.011391215 5.89428995E-09
v 0.00371977431 -0.00787353516 1.76667605E-08
v 0.01296004 -0.0122095281 -5.70113068E-09
v 0.0202901773 -0.0125889266 -1.65415006E-08
v 0.0114152702 -0.00881561916 5.60354252E-09
v 0.0098705031 -0.00542171113 1.69082099E-08
v 0.0183682889 -0.00939342007 -5.59029045E-09
v 0.0249080975 -0.00935144816 -1.62083289E-08
v 0.0164464023 -0.00619791076 5.36092681E-09
v 0.0145245139 -0.0030024033 1.63121374E-08
v 0.0225290041 -0.00648006657 -5.52563062E-09
v 0.0284435246 -0.00581394415 -1.59764859E-08
v 0.0201499071 -0.00360868475 5.15707521E-09
v 0.0177708138 -0.000737304741 1.58397775E-08
v 0.0255403109 -0.0034738027 -5.49366019E-09
v 0.0308763795 -0.00187854201 -1.58266769E-08
v 0.0226370972 -0.00113365939 4.98917263E-09
v 0.0197338834 0.00120648392 1.54720006E-08
v 0.0274653137 -0.000372028357 -5.48439028E-09
v 0.0320243575 0.00242224033 -1.57395323E-08
v 0.0240542516 0.00113448338 4.85790075E-09
v 0.0206431914 0.00264099613 1.52001842E-08
v 0.0283130538 0.00278438861 -5.48780887E-09
v 0.0317218006 0.00672343466 -1.56867337E-08
v 0.0246017501 0.00314653688 4.76391904E-09
v 0.0208904482 0.00350868632 1.50156438E-08
v 0.028098112 0.00584377209 -5.49091794E-09
v 0.0301474314 0.0105293104 -1.56378839E-08
v 0.0244744234 0.00496410858 4.70490358E-09
v 0.0208507329 0.004084446 1.49007198E-08
v 0.0269498639 0.00861085206 -5.48002799E-09
v 0.0277007688 0.0136294812 -1.55726454E-08
v 0.0237522982 0.00669239182 4.67783412E-09
v 0.0205547307 0.00477393251 1.48356909E-08
v 0.0250712857 0.0109854769 -5.44480017E-09
v 0.0246844906 0.0160653703 -1.54790456E-08
v 0.02244181 0.00834147166 4.6830495E-09
v 0.0198123287 0.0056974683 1.48108947E-08
v 0.0226330813 0.012951429 -5.37768985E-09
v 0.0212607607 0.0179193392 -1.53477693E-08
v 0.0205816701 0.00983748585 4.72367212E-09
v 0.0185302589 0.00672354456 1.48250283E-08
v 0.0197590981 0.0145061389 -5.27203081E-09
v 0.017524397 0.0192330424 -1.5169725E-08
v 0.0182574391 0.0110929376 4.80371209E-09
v 0.0167557783 0.00767973764 1.48794488E-08
v 0.016550757 0.0156334676 -5.12123766E-09
v 0.0135500804 0.0200048424 -1.4935253E-08
v 0.015577117 0.0120338909 4.92725327E-09
v 0.0146034742 0.00843431707 1.4975738E-08
v 0.0131027438 0.0163028408 -4.91853402E-09
v 0.00941106118 0.0202004444 -1.46336268E-08
v 0.00950928498 0.0164728072 -4.65678207E-09
v 0.0126554072 0.0126008382 5.0981912E-09
v 0.0122080715 0.00889883749 1.5114912E-08
v 0.00960750785 0.0127451699 5.32006483E-09
v 0.00970573071 0.00901753455 1.52969086E-08
vt 1 0
vt 0.9375 0
vt 1 0.333333343
vt 0.9375 0.333333343
vt 0.875 0
vt 1 0.666666687
vt 0.875 0.333333343
vt 0.8125 0
vt 0.9375 0.666666687
vt 1 1
vt 0.9375 1
vt 0.875 0.666666687
vt 0.875 1
vt 0.8125 0.333333343
vt 0.75 0
vt 0.8125 0.666666687
vt 0.8125 1
vt 0.75 0.333333343
vt 0.6875 0
vt 0.75 0.666666687
vt 0.75 1
vt 0.6875 0.333333343
vt 0.625 0
vt 0.6875 0.666666687
vt 0.6875 1
vt 0.625 0.333333343
vt 0.5625 0
vt 0.625 0.666666687
vt 0.625 1
vt 0.5625 0.333333343
vt 0.5 0
vt 0.5625 0.666666687
vt 0.5625 1
vt 0.5 0.333333343
vt 0.4375 0
vt 0.5 0.666666687
vt 0.5 1
vt 0.4375 0.333333343
vt 0.375 0
vt 0.4375 0.666666687
vt 0.4375 1
vt 0.375 0.333333343
vt 0.3125 0
vt 0.375 0.666666687
vt 0.375 1
vt 0.3125 0.333333343
vt 0.25 0
vt 0.3125 0.666666687
vt 0.3125 1
vt 0.25 0.333333343
vt 0.1875 0
vt 0.25 0.666666687
vt 0.25 1
vt 0.1875 0.333333343
vt 0.125 0
vt 0.1875 0.666666687
vt 0.1875 1
vt 0.125 0.333333343
vt 0.0625 0
vt 0.125 0.666666687
vt 0.125 1
vt 0.0625 0.333333343
vt 0 0
vt 0 0.333333343
vt 0.0625 0.666666687
vt 0.0625 1
vt 0 0.666666687
vt 0 1
vn -7.11943301E-07 3.4962477E-06 -1
vn -8.10370636E-07 3.25524479E-06 -1
vn -7.56455904E-07 3.45968033E-06 -1
vn -8.50893684E-07 3.21958373E-06 -1
vn -9.95794153E-07 3.0190115E-06 -1
vn -8.42771783E-07 3.4401794E-06 -1
vn -1.02872946E-06 2.98692453E-06 -1
vn -1.21834523E-06 2.79592382E-06 -1
vn -9.30109934E-07 3.19780816E-06 -1
vn -8.91572199E-07 3.40014071E-06 -1
vn -9.75346552E-07 3.15807574E-06 -1
vn -1.09475138E-06 2.96355961E-06 -1
vn -1.13332362E-06 2.92580944E-06 -1
vn -1.24561132E-06 2.76573837E-06 -1
vn -1.48991592E-06 2.54856673E-06 -1
vn -1.30251522E-06 2.73960632E-06 -1
vn -1.33704918E-06 2.70083115E-06 -1
vn -1.51195115E-06 2.51968049E-06 -1
vn -1.81838379E-06 2.22987705E-06 -1
vn -1.56112139E-06 2.48977312E-06 -1
vn -1.59290335E-06 2.4468718E-06 -1
vn -1.83465374E-06 2.202823E-06 -1
vn -2.19147705E-06 1.77576885E-06 -1
vn -1.87517958E-06 2.16888907E-06 -1
vn -1.90411401E-06 2.11786141E-06 -1
vn -2.2013046E-06 1.75210346E-06 -1
vn -2.54321321E-06 1.12206544E-06 -1
vn -2.23055622E-06 1.71581985E-06 -1
vn -2.25408758E-06 1.65087636E-06 -1
vn -2.5466918E-06 1.10343046E-06 -1
vn -2.73930527E-06 2.75393205E-07 -1
vn -2.56280691E-06 1.06813786E-06 -1
vn -2.57329862E-06 9.78980097E-07 -1
vn -2.7376675E-06 2.63006854E-07 -1
vn -2.66635061E-06 -6.1943399E-07 -1
vn -2.74155423E-06 2.30561156E-07 -1
vn -2.72266448E-06 1.09896938E-07 -1
vn -2.66242728E-06 -6.26201825E-07 -1
vn -2.35760217E-06 -1.37024745E-06 -1
vn -2.65693643E-06 -6.53720633E-07 -1
vn -2.6103844E-06 -7.62062029E-07 -1
vn -2.35348534E-06 -1.37381119E-06 -1
vn -1.94501285E-06 -1.89876039E-06 -1
vn -2.34395293E-06 -1.39197755E-06 -1
vn -2.30392402E-06 -1.44027194E-06 -1
vn -1.94169979E-06 -1.90040873E-06 -1
vn -1.52568646E-06 -2.24015298E-06 -1
vn -1.93376331E-06 -1.90918399E-06 -1
vn -1.91426147E-06 -1.92242646E-06 -1
vn -1.52356358E-06 -2.24070277E-06 -1
vn -1.13043916E-06 -2.45529941E-06 -1
vn -1.51876293E-06 -2.24416794E-06 -1
vn -1.51052075E-06 -2.24724636E-06 -1
vn -1.12929877E-06 -2.45539354E-06 -1
vn -7.5518426E-07 -2.58759655E-06 -1
vn -1.12684245E-06 -2.45658157E-06 -1
vn -1.12344333E-06 -2.45713773E-06 -1
vn -7.54656355E-07 -2.58757632E-06 -1
vn -3.8534418E-07 -2.6592852E-06 -1
vn -7.53621123E-07 -2.58789851E-06 -1
vn -7.52323047E-07 -2.58791079E-06 -1
vn -3.85127635E-07 -2.65928634E-06 -1
vn -1.9964267E-07 -2.68167582E-06 -1
vn -1.99704601E-07 -2.6816931E-06 -1
vn -3.84918337E-07 -2.65933136E-06 -1
vn -3.84577476E-07 -2.65932226E-06 -1
vn -1.99813115E-07 -2.68168901E-06 -1
vn -1.99936764E-07 -2.68172198E-06 -1
g Plane003_0
f 3/3/3 2/2/2 1/1/1
f 2/2/2 3/3/3 4/4/4
f 4/4/4 5/5/5 2/2/2
f 6/6/6 4/4/4 3/3/3
f 5/5/5 4/4/4 7/7/7
f 7/7/7 8/8/8 5/5/5
f 4/4/4 6/6/6 9/9/9
f 9/9/9 7/7/7 4/4/4
f 10/10/10 9/9/9 6/6/6
f 9/9/9 10/10/10 11/11/11
f 11/11/11 12/12/12 9/9/9
f 7/7/7 9/9/9 12/12/12
f 12/12/12 11/11/11 13/13/13
f 8/8/8 7/7/7 14/14/14
f 12/12/12 14/14/14 7/7/7
f 14/14/14 15/15/15 8/8/8
f 13/13/13 16/16/16 12/12/12
f 14/14/14 12/12/12 16/16/16
f 16/16/16 13/13/13 17/17/17
f 15/15/15 14/14/14 18/18/18
f 16/16/16 18/18/18 14/14/14
f 18/18/18 19/19/19 15/15/15
f 17/17/17 20/20/20 16/16/16
f 18/18/18 16/16/16 20/20/20
f 20/20/20 17/17/17 21/21/21
f 19/19/19 18/18/18 22/22/22
f 20/20/20 22/22/22 18/18/18
f 22/22/22 23/23/23 19/19/19
f 21/21/21 24/24/24 20/20/20
f 22/22/22 20/20/20 24/24/24
f 24/24/24 21/21/21 25/25/25
f 23/23/23 22/22/22 26/26/26
f 24/24/24 26/26/26 22/22/22
f 26/26/26 27/27/27 23/23/23
f 25/25/25 28/28/28 24/24/24
f 26/26/26 24/24/24 28/28/28
f 28/28/28 25/25/25 29/29/29
f 27/27/27 26/26/26 30/30/30
f 28/28/28 30/30/30 26/26/26
f 30/30/30 31/31/31 27/27/27
f 29/29/29 32/32/32 28/28/28
f 30/30/30 28/28/28 32/32/32
f 32/32/32 29/29/29 33/33/33
f 31/31/31 30/30/30 34/34/34
f 32/32/32 34/34/34 30/30/30
f 34/34/34 35/35/35 31/31/31
f 33/33/33 36/36/36 32/32/32
f 34/34/34 32/32/32 36/36/36
f 36/36/36 33/33/33 37/37/37
f 35/35/35 34/34/34 38/38/38
f 36/36/36 38/38/38 34/34/34
f 38/38/38 39/39/39 35/35/35
f 37/37/37 40/40/40 36/36/36
f 38/38/38 36/36/36 40/40/40
f 40/40/40 37/37/37 41/41/41
f 39/39/39 38/38/38 42/42/42
f 40/40/40 42/42/42 38/38/38
f 42/42/42 43/43/43 39/39/39
f 41/41/41 44/44/44 40/40/40
f 42/42/42 40/40/40 44/44/44
f 44/44/44 41/41/41 45/45/45
f 43/43/43 42/42/42 46/46/46
f 44/44/44 46/46/46 42/42/42
f 46/46/46 47/47/47 43/43/43
f 45/45/45 48/48/48 44/44/44
f 46/46/46 44/44/44 48/48/48
f 48/48/48 45/45/45 49/49/49
f 47/47/47 46/46/46 50/50/50
f 48/48/48 50/50/50 46/46/46
f 50/50/50 51/51/51 47/47/47
f 49/49/49 52/52/52 48/48/48
f 50/50/50 48/48/48 52/52/52
f 52/52/52 49/49/49 53/53/53
f 51/51/51 50/50/50 54/54/54
f 52/52/52 54/54/54 50/50/50
f 54/54/54 55/55/55 51/51/51
f 53/53/53 56/56/56 52/52/52
f 54/54/54 52/52/52 56/56/56
f 56/56/56 53/53/53 57/57/57
f 55/55/55 54/54/54 58/58/58
f 56/56/56 58/58/58 54/54/54
f 58/58/58 59/59/59 55/55/55
f 57/57/57 60/60/60 56/56/56
f 58/58/58 56/56/56 60/60/60
f 60/60/60 57/57/57 61/61/61
f 59/59/59 58/58/58 62/62/62
f 60/60/60 62/62/62 58/58/58
f 62/62/62 63/63/63 59/59/59
f 63/63/63 62/62/62 64/64/64
f 61/61/61 65/65/65 60/60/60
f 62/62/62 60/60/60 65/65/65
f 65/65/65 64/64/64 62/62/62
f 65/65/65 61/61/61 66/66/66
f 64/64/64 65/65/65 67/67/67
f 66/66/66 67/67/67 65/65/65
f 67/67/67 66/66/66 68/68/68
