g Plane005
v -0.236336544 -0.511211455 0
v -0.186718568 -0.498942703 1.31232116E-06
v -0.257845074 -0.389758557 0
v -0.214981109 -0.382738829 1.31232116E-06
v -0.139583409 -0.483786851 2.62463982E-06
v -0.174842238 -0.373443007 2.62463982E-06
v -0.0952212214 -0.46575132 3.93695973E-06
v -0.137429401 -0.361912996 3.93695973E-06
v -0.0537143089 -0.44481796 5.24927964E-06
v -0.102660812 -0.348167539 5.24927964E-06
v -0.0151627855 -0.420990229 6.56159864E-06
v -0.0704362541 -0.332203031 6.56159864E-06
v 0.0203221124 -0.394302249 7.87391946E-06
v -0.0406443216 -0.313985139 7.87391946E-06
v 0.0526306517 -0.364823222 9.18623937E-06
v -0.0131755518 -0.293445021 9.18623937E-06
v 0.0816708356 -0.332654923 1.04985593E-05
v 0.0120622963 -0.270480543 1.04985593E-05
v 0.10738264 -0.297922373 1.1810881E-05
v 0.0351290554 -0.244966969 1.1810881E-05
v 0.128922462 -0.261803836 1.31232009E-05
v 0.0546914786 -0.218715578 1.31232009E-05
v 0.146353319 -0.223752856 1.44355199E-05
v 0.0716407299 -0.189767733 1.44355199E-05
v 0.16082114 -0.183055401 1.57478407E-05
v 0.0871354714 -0.156491026 1.57478407E-05
v 0.172608837 -0.140242219 1.70601616E-05
v 0.100892678 -0.119786046 1.70601616E-05
v 0.181885257 -0.0958742574 1.83724824E-05
v 0.112743601 -0.0805232078 1.83724824E-05
v 0.188751802 -0.0505458973 1.96848014E-05
v 0.122586846 -0.0395398326 1.96848014E-05
v 0.19326964 -0.00487809349 2.09971222E-05
v 0.130361184 0.00235409569 2.09971222E-05
v 0.19547528 0.0404881425 2.23094412E-05
v 0.136030167 0.0443678349 2.23094412E-05
v 0.195388362 0.0848992616 2.3621762E-05
v 0.139574081 0.0857239068 2.3621762E-05
v 0.193015441 0.127694309 2.4934081E-05
v 0.140986457 0.125651553 2.4934081E-05
v 0.188349843 0.168210998 2.62464018E-05
v 0.140273899 0.163381919 2.62464018E-05
v 0.181036279 0.209083021 2.75587245E-05
v 0.137064546 0.201825321 2.75587245E-05
v 0.171167985 0.249282405 2.88710398E-05
v 0.131402254 0.240085632 2.88710398E-05
v 0.158779934 0.288702846 3.01833625E-05
v 0.123272173 0.278075248 3.01833625E-05
v 0.143898621 0.327338099 3.14956851E-05
v 0.112647824 0.315799773 3.14956851E-05
v 0.126550213 0.365188986 3.28080059E-05
v 0.0995028913 0.35325861 3.28080059E-05
v 0.106759131 0.402262509 3.41203231E-05
v 0.0838131458 0.390444905 3.41203231E-05
v 0.0845467746 0.438570946 3.54326403E-05
v 0.065556854 0.427346438 3.54326403E-05
v 0.0599308871 0.474130511 3.67449647E-05
v 0.0447167456 0.46394673 3.67449647E-05
v 0.0329246856 0.508960366 3.80572819E-05
v 0.0212792717 0.500226498 3.80572819E-05
v 0.0035925617 0.543015897 3.93696027E-05
v -0.00471725082 0.53610903 3.93696027E-05
vt 0 1
vt 0.0333333351 1
vt 0 0
vt 0.0333333351 0
vt 0.0666666701 1
vt 0.0666666701 0
vt 0.100000009 1
vt 0.100000009 0
vt 0.13333334 1
vt 0.13333334 0
vt 0.166666672 1
vt 0.166666672 0
vt 0.200000003 1
vt 0.200000003 0
vt 0.233333334 1
vt 0.233333334 0
vt 0.266666681 1
vt 0.266666681 0
vt 0.300000012 1
vt 0.300000012 0
vt 0.333333343 1
vt 0.333333343 0
vt 0.366666675 1
vt 0.366666675 0
vt 0.400000006 1
vt 0.400000006 0
vt 0.433333337 1
vt 0.433333337 0
vt 0.466666669 1
vt 0.466666669 0
vt 0.5 1
vt 0.5 0
vt 0.533333361 1
vt 0.533333361 0
vt 0.566666722 1
vt 0.566666722 0
vt 0.600000083 1
vt 0.600000083 0
vt 0.633333445 1
vt 0.633333445 0
vt 0.666666806 1
vt 0.666666806 0
vt 0.700000167 1
vt 0.700000167 0
vt 0.733333528 1
vt 0.733333528 0
vt 0.766666889 1
vt 0.766666889 0
vt 0.80000025 1
vt 0.80000025 0
vt 0.833333611 1
vt 0.833333611 0
vt 0.866666973 1
vt 0.866666973 0
vt 0.900000334 1
vt 0.900000334 0
vt 0.933333695 1
vt 0.933333695 0
vt 0.966667056 1
vt 0.966667056 0
vt 1.00000036 1
vt 1.00000036 0
vn 2.53389408E-05 4.4873691E-06 -1
vn 2.60270899E-05 5.65637674E-06 -1
vn 2.83838162E-05 6.47091338E-06 -1
vn 2.93491303E-05 7.97663688E-06 -1
vn 2.6496693E-05 7.66918583E-06 -1
vn 3.01711425E-05 1.06175648E-05 -1
vn 2.67397445E-05 9.94307902E-06 -1
vn 3.06516777E-05 1.35890114E-05 -1
vn 2.66343559E-05 1.24174303E-05 -1
vn 3.06339643E-05 1.68071383E-05 -1
vn 2.61126843E-05 1.50248452E-05 -1
vn 2.99944222E-05 2.01335279E-05 -1
vn 2.51266392E-05 1.76677222E-05 -1
vn 2.86529703E-05 2.33743413E-05 -1
vn 2.36606556E-05 2.02236406E-05 -1
vn 2.66054285E-05 2.63055954E-05 -1
vn 2.17418765E-05 2.25586391E-05 -1
vn 2.39413112E-05 2.87168587E-05 -1
vn 1.97222071E-05 2.49245822E-05 -1
vn 2.12636023E-05 3.14976569E-05 -1
vn 1.74081542E-05 2.73400165E-05 -1
vn 1.82741569E-05 3.40921579E-05 -1
vn 1.43205953E-05 2.85359401E-05 -1
vn 1.43701545E-05 3.38860955E-05 -1
vn 1.13115839E-05 2.86440518E-05 -1
vn 1.0879764E-05 3.23250679E-05 -1
vn 8.90780393E-06 2.8566461E-05 -1
vn 8.29523378E-06 3.12260927E-05 -1
vn 6.94808296E-06 2.8519029E-05 -1
vn 6.26836754E-06 3.05488138E-05 -1
vn 5.28862211E-06 2.86232789E-05 -1
vn 4.57496753E-06 3.02658791E-05 -1
vn 3.80623919E-06 2.89548716E-05 -1
vn 3.05401841E-06 3.03691504E-05 -1
vn 2.38901771E-06 2.95718946E-05 -1
vn 1.57035788E-06 3.08718736E-05 -1
vn 9.21539026E-07 3.05309441E-05 -1
vn -0 3.18112325E-05 -1
vn -7.3553764E-07 3.189583E-05 -1
vn -1.87555793E-06 3.3251803E-05 -1
vn -2.64464848E-06 3.24102439E-05 -1
vn -3.93746677E-06 3.37165657E-05 -1
vn -4.67075188E-06 3.19301253E-05 -1
vn -5.97243434E-06 3.29881732E-05 -1
vn -6.731741E-06 3.16284968E-05 -1
vn -8.00453563E-06 3.24546745E-05 -1
vn -8.75081969E-06 3.11101867E-05 -1
vn -9.95250866E-06 3.17112717E-05 -1
vn -1.06762782E-05 3.03470624E-05 -1
vn -1.17661093E-05 3.07400333E-05 -1
vn -1.24644412E-05 2.93624071E-05 -1
vn -1.34117527E-05 2.9577197E-05 -1
vn -1.40798547E-05 2.81887951E-05 -1
vn -1.48667186E-05 2.8263963E-05 -1
vn -1.54972331E-05 2.68654876E-05 -1
vn -1.61190928E-05 2.68431049E-05 -1
vn -1.67023263E-05 2.54345341E-05 -1
vn -1.71668053E-05 2.53552098E-05 -1
vn -1.77079419E-05 2.39591409E-05 -1
vn -1.80301558E-05 2.38589819E-05 -1
vn -1.86888356E-05 2.29443922E-05 -1
vn -1.89730072E-05 2.28269364E-05 -1
g Plane005_0
f 3/3/3 2/2/2 1/1/1
f 2/2/2 3/3/3 4/4/4
f 4/4/4 5/5/5 2/2/2
f 5/5/5 4/4/4 6/6/6
f 6/6/6 7/7/7 5/5/5
f 7/7/7 6/6/6 8/8/8
f 8/8/8 9/9/9 7/7/7
f 9/9/9 8/8/8 10/10/10
f 10/10/10 11/11/11 9/9/9
f 11/11/11 10/10/10 12/12/12
f 12/12/12 13/13/13 11/11/11
f 13/13/13 12/12/12 14/14/14
f 14/14/14 15/15/15 13/13/13
f 15/15/15 14/14/14 16/16/16
f 16/16/16 17/17/17 15/15/15
f 17/17/17 16/16/16 18/18/18
f 18/18/18 19/19/19 17/17/17
f 19/19/19 18/18/18 20/20/20
f 20/20/20 21/21/21 19/19/19
f 21/21/21 20/20/20 22/22/22
f 22/22/22 23/23/23 21/21/21
f 23/23/23 22/22/22 24/24/24
f 24/24/24 25/25/25 23/23/23
f 25/25/25 24/24/24 26/26/26
f 26/26/26 27/27/27 25/25/25
f 27/27/27 26/26/26 28/28/28
f 28/28/28 29/29/29 27/27/27
f 29/29/29 28/28/28 30/30/30
f 30/30/30 31/31/31 29/29/29
f 31/31/31 30/30/30 32/32/32
f 32/32/32 33/33/33 31/31/31
f 33/33/33 32/32/32 34/34/34
f 34/34/34 35/35/35 33/33/33
f 35/35/35 34/34/34 36/36/36
f 36/36/36 37/37/37 35/35/35
f 37/37/37 36/36/36 38/38/38
f 38/38/38 39/39/39 37/37/37
f 39/39/39 38/38/38 40/40/40
f 40/40/40 41/41/41 39/39/39
f 41/41/41 40/40/40 42/42/42
f 42/42/42 43/43/43 41/41/41
f 43/43/43 42/42/42 44/44/44
f 44/44/44 45/45/45 43/43/43
f 45/45/45 44/44/44 46/46/46
f 46/46/46 47/47/47 45/45/45
f 47/47/47 46/46/46 48/48/48
f 48/48/48 49/49/49 47/47/47
f 49/49/49 48/48/48 50/50/50
f 50/50/50 51/51/51 49/49/49
f 51/51/51 50/50/50 52/52/52
f 52/52/52 53/53/53 51/51/51
f 53/53/53 52/52/52 54/54/54
f 54/54/54 55/55/55 53/53/53
f 55/55/55 54/54/54 56/56/56
f 56/56/56 57/57/57 55/55/55
f 57/57/57 56/56/56 58/58/58
f 58/58/58 59/59/59 57/57/57
f 59/59/59 58/58/58 60/60/60
f 60/60/60 61/61/61 59/59/59
f 61/61/61 60/60/60 62/62/62
