g Plane005
v 0.000346586254 0.0261113551 -6.67238542E-10
v 0.00357959 0.0220220145 -5.64454039E-10
v 0.00314142904 0.0285799112 -2.76707851E-10
v 0.00664332043 0.0241476838 -1.71912248E-10
v 0.00577564258 0.0183597896 -4.93470043E-10
v 0.00593627198 0.0310484674 1.13823041E-10
v 0.0091085555 0.0200320985 -9.89471144E-11
v 0.00711113587 0.0150870224 -4.5110507E-10
v 0.0097070504 0.0262733549 2.20629098E-10
v 0.00873111747 0.0335170217 5.0435417E-10
v 0.0127707832 0.0283990242 6.13171125E-10
v 0.0124414675 0.0217044074 2.95575786E-10
v 0.0157743823 0.0233767163 6.900987E-10
v 0.0106711108 0.016196752 -5.58709433E-11
v 0.00776903564 0.0121072782 -4.33867636E-10
v 0.0142310858 0.0173064806 3.39363176E-10
v 0.0177910626 0.018416211 7.34597549E-10
v 0.0114671523 0.0125856558 -4.0640092E-11
v 0.00789397862 0.00927012693 -4.39494191E-10
v 0.0151652703 0.0130640343 3.5258757E-10
v 0.0188633893 0.0135424118 7.45815132E-10
v 0.0116200754 0.00912480988 -5.16196252E-11
v 0.00756627321 0.00642458862 -4.6796067E-10
v 0.0153461732 0.00897949282 3.36255218E-10
v 0.0190722719 0.00883417577 7.24130256E-10
v 0.0112318313 0.00574004278 -8.79210246E-11
v 0.00682735303 0.00347074284 -5.20684829E-10
v 0.0148973893 0.0050554974 2.92118801E-10
v 0.0185629483 0.00437095203 6.7215844E-10
v 0.0103914114 0.00237419992 -1.49136842E-10
v 0.0057229274 0.000362822087 -5.99024386E-10
v 0.013955472 0.00127765664 2.22411256E-10
v 0.0175195299 0.000181113253 5.93959548E-10
v 0.00918923225 -0.0010118247 -2.34839398E-10
v 0.00432342151 -0.00291800988 -7.03570258E-10
v 0.0126555376 -0.00238647196 1.29345951E-10
v 0.016121842 -0.00376111898 4.9353116E-10
v 0.00772394612 -0.00444815867 -3.44345052E-10
v 0.00175707729 -0.00476661138 -7.86129273E-10
v 0.0111244703 -0.00597830815 1.48802429E-11
v 0.0145249963 -0.00750845671 3.74105552E-10
v 0.00416099932 -0.00761723844 -4.84490337E-10
v -0.0019313622 -0.00771301612 -8.8286839E-10
v 0.00656492263 -0.0104678664 -1.82851193E-10
v 0.00896884594 -0.0133184958 1.18788201E-10
v 0.000303897861 -0.0106977336 -5.88697313E-10
v -0.00517587503 -0.00997033995 -9.21451637E-10
v 0.0025391581 -0.0136824483 -2.94525765E-10
v 0.00477441819 -0.0166671667 -3.54248206E-13
v -0.00316898548 -0.0131131615 -6.32823238E-10
v -0.00814312045 -0.0116952993 -9.15852783E-10
v -0.00116209697 -0.0162559822 -3.44194867E-10
v 0.000844791473 -0.0193988029 -5.55664924E-11
v -0.00641414616 -0.0149991727 -6.28982033E-10
v -0.0110402964 -0.0130545106 -8.77743156E-10
v -0.00468517188 -0.0183030441 -3.42111006E-10
v -0.00295619783 -0.0216069166 -5.52397537E-11
v -0.00960159674 -0.0164947249 -5.88518789E-10
v -0.0140987029 -0.0141995875 -8.15282453E-10
v -0.00816289615 -0.0199349374 -2.99294256E-10
v -0.00672419695 -0.0233751517 -1.0070153E-11
v -0.0129093807 -0.0177337695 -5.21609311E-10
v -0.0175300222 -0.0152546791 -7.35514982E-10
v -0.0165090021 -0.0188411027 -4.38056785E-10
v -0.0117200566 -0.0212679487 -2.27935976E-10
v -0.0105307344 -0.0248021316 6.57366869E-11
v -0.015487982 -0.0224275291 -1.40599019E-10
v -0.0144669618 -0.0260139536 1.56859872E-10
vt 1 0
vt 0.9375 0
vt 1 0.333333343
vt 0.9375 0.333333343
vt 0.875 0
vt 1 0.666666687
vt 0.875 0.333333343
vt 0.8125 0
vt 0.9375 0.666666687
vt 1 1
vt 0.9375 1
vt 0.875 0.666666687
vt 0.875 1
vt 0.8125 0.333333343
vt 0.75 0
vt 0.8125 0.666666687
vt 0.8125 1
vt 0.75 0.333333343
vt 0.6875 0
vt 0.75 0.666666687
vt 0.75 1
vt 0.6875 0.333333343
vt 0.625 0
vt 0.6875 0.666666687
vt 0.6875 1
vt 0.625 0.333333343
vt 0.5625 0
vt 0.625 0.666666687
vt 0.625 1
vt 0.5625 0.333333343
vt 0.5 0
vt 0.5625 0.666666687
vt 0.5625 1
vt 0.5 0.333333343
vt 0.4375 0
vt 0.5 0.666666687
vt 0.5 1
vt 0.4375 0.333333343
vt 0.375 0
vt 0.4375 0.666666687
vt 0.4375 1
vt 0.375 0.333333343
vt 0.3125 0
vt 0.375 0.666666687
vt 0.375 1
vt 0.3125 0.333333343
vt 0.25 0
vt 0.3125 0.666666687
vt 0.3125 1
vt 0.25 0.333333343
vt 0.1875 0
vt 0.25 0.666666687
vt 0.25 1
vt 0.1875 0.333333343
vt 0.125 0
vt 0.1875 0.666666687
vt 0.1875 1
vt 0.125 0.333333343
vt 0.0625 0
vt 0.125 0.666666687
vt 0.125 1
vt 0.0625 0.333333343
vt 0 0
vt 0 0.333333343
vt 0.0625 0.666666687
vt 0.0625 1
vt 0 0.666666687
vt 0 1
vn 9.53503303E-08 5.02485662E-08 -1
vn 9.7037848E-08 4.536086E-08 -1
vn 9.45794199E-08 5.06629725E-08 -1
vn 9.62489537E-08 4.58938061E-08 -1
vn 1.01196967E-07 3.50472327E-08 -1
vn 9.39420772E-08 5.14425871E-08 -1
vn 1.0037904E-07 3.58161003E-08 -1
vn 1.04060696E-07 2.36550264E-08 -1
vn 9.56658255E-08 4.67539714E-08 -1
vn 9.3379164E-08 5.17495913E-08 -1
vn 9.51260759E-08 4.71235388E-08 -1
vn 9.98872522E-08 3.68213584E-08 -1
vn 9.93963667E-08 3.72883235E-08 -1
vn 1.03349883E-07 2.46040628E-08 -1
vn 1.05107617E-07 1.23721122E-08 -1
vn 1.03030544E-07 2.56475872E-08 -1
vn 1.02653154E-07 2.61562896E-08 -1
vn 1.0462815E-07 1.33173437E-08 -1
vn 1.0449255E-07 0 -1
vn 1.04504814E-07 1.42440815E-08 -1
vn 1.0426804E-07 1.47141019E-08 -1
vn 1.04259385E-07 0 -1
vn 1.02999422E-07 0 -1
vn 1.04276893E-07 0 -1
vn 1.04160399E-07 0 -1
vn 1.02924744E-07 0 -1
vn 1.01547933E-07 0 -1
vn 1.02992495E-07 0 -1
vn 1.02951191E-07 0 -1
vn 1.0153579E-07 0 -1
vn 1.00801635E-07 -1.08349738E-08 -1
vn 1.01589031E-07 0 -1
vn 1.01581044E-07 0 -1
vn 1.00802559E-07 -1.07795843E-08 -1
vn 8.74363906E-08 -4.04591809E-08 -1
vn 1.00823421E-07 -1.07228475E-08 -1
vn 1.00824039E-07 -1.06830704E-08 -1
vn 9.08010094E-08 -3.04273762E-08 -1
vn 7.12572685E-08 -4.98279498E-08 -1
vn 9.26271397E-08 -2.73732965E-08 -1
vn 9.37600007E-08 -2.40928859E-08 -1
vn 7.26579756E-08 -4.55406202E-08 -1
vn 5.95256893E-08 -5.41873177E-08 -1
vn 7.46110587E-08 -4.34825438E-08 -1
vn 7.49183258E-08 -4.24459863E-08 -1
vn 5.97975358E-08 -5.3772105E-08 -1
vn 4.52589575E-08 -6.31397725E-08 -1
vn 6.02552319E-08 -5.34329168E-08 -1
vn 6.04759194E-08 -5.30993809E-08 -1
vn 4.55670985E-08 -6.27492724E-08 -1
vn 2.99113552E-08 -7.13449069E-08 -1
vn 4.60231853E-08 -6.24592644E-08 -1
vn 4.62539838E-08 -6.21696117E-08 -1
vn 3.0184804E-08 -7.10537265E-08 -1
vn 1.59131499E-08 -7.75281706E-08 -1
vn 3.05599528E-08 -7.0855144E-08 -1
vn 3.0751778E-08 -7.06514527E-08 -1
vn 1.60843872E-08 -7.73696982E-08 -1
vn -0 -8.11737166E-08 -1
vn 1.63190474E-08 -7.72678419E-08 -1
vn 1.64359797E-08 -7.71579849E-08 -1
vn -0 -8.1118138E-08 -1
vn -0 -8.23646644E-08 -1
vn -0 -8.23442861E-08 -1
vn -0 -8.10833427E-08 -1
vn -0 -8.10429341E-08 -1
vn -0 -8.23325479E-08 -1
vn -0 -8.23161272E-08 -1
g Plane005_0
f 3/3/3 2/2/2 1/1/1
f 2/2/2 3/3/3 4/4/4
f 4/4/4 5/5/5 2/2/2
f 6/6/6 4/4/4 3/3/3
f 5/5/5 4/4/4 7/7/7
f 7/7/7 8/8/8 5/5/5
f 4/4/4 6/6/6 9/9/9
f 9/9/9 7/7/7 4/4/4
f 10/10/10 9/9/9 6/6/6
f 9/9/9 10/10/10 11/11/11
f 11/11/11 12/12/12 9/9/9
f 7/7/7 9/9/9 12/12/12
f 12/12/12 11/11/11 13/13/13
f 8/8/8 7/7/7 14/14/14
f 12/12/12 14/14/14 7/7/7
f 14/14/14 15/15/15 8/8/8
f 13/13/13 16/16/16 12/12/12
f 14/14/14 12/12/12 16/16/16
f 16/16/16 13/13/13 17/17/17
f 15/15/15 14/14/14 18/18/18
f 16/16/16 18/18/18 14/14/14
f 18/18/18 19/19/19 15/15/15
f 17/17/17 20/20/20 16/16/16
f 18/18/18 16/16/16 20/20/20
f 20/20/20 17/17/17 21/21/21
f 19/19/19 18/18/18 22/22/22
f 20/20/20 22/22/22 18/18/18
f 22/22/22 23/23/23 19/19/19
f 21/21/21 24/24/24 20/20/20
f 22/22/22 20/20/20 24/24/24
f 24/24/24 21/21/21 25/25/25
f 23/23/23 22/22/22 26/26/26
f 24/24/24 26/26/26 22/22/22
f 26/26/26 27/27/27 23/23/23
f 25/25/25 28/28/28 24/24/24
f 26/26/26 24/24/24 28/28/28
f 28/28/28 25/25/25 29/29/29
f 27/27/27 26/26/26 30/30/30
f 28/28/28 30/30/30 26/26/26
f 30/30/30 31/31/31 27/27/27
f 29/29/29 32/32/32 28/28/28
f 30/30/30 28/28/28 32/32/32
f 32/32/32 29/29/29 33/33/33
f 31/31/31 30/30/30 34/34/34
f 32/32/32 34/34/34 30/30/30
f 34/34/34 35/35/35 31/31/31
f 33/33/33 36/36/36 32/32/32
f 34/34/34 32/32/32 36/36/36
f 36/36/36 33/33/33 37/37/37
f 35/35/35 34/34/34 38/38/38
f 36/36/36 38/38/38 34/34/34
f 38/38/38 39/39/39 35/35/35
f 37/37/37 40/40/40 36/36/36
f 38/38/38 36/36/36 40/40/40
f 40/40/40 37/37/37 41/41/41
f 39/39/39 38/38/38 42/42/42
f 40/40/40 42/42/42 38/38/38
f 42/42/42 43/43/43 39/39/39
f 41/41/41 44/44/44 40/40/40
f 42/42/42 40/40/40 44/44/44
f 44/44/44 41/41/41 45/45/45
f 43/43/43 42/42/42 46/46/46
f 44/44/44 46/46/46 42/42/42
f 46/46/46 47/47/47 43/43/43
f 45/45/45 48/48/48 44/44/44
f 46/46/46 44/44/44 48/48/48
f 48/48/48 45/45/45 49/49/49
f 47/47/47 46/46/46 50/50/50
f 48/48/48 50/50/50 46/46/46
f 50/50/50 51/51/51 47/47/47
f 49/49/49 52/52/52 48/48/48
f 50/50/50 48/48/48 52/52/52
f 52/52/52 49/49/49 53/53/53
f 51/51/51 50/50/50 54/54/54
f 52/52/52 54/54/54 50/50/50
f 54/54/54 55/55/55 51/51/51
f 53/53/53 56/56/56 52/52/52
f 54/54/54 52/52/52 56/56/56
f 56/56/56 53/53/53 57/57/57
f 55/55/55 54/54/54 58/58/58
f 56/56/56 58/58/58 54/54/54
f 58/58/58 59/59/59 55/55/55
f 57/57/57 60/60/60 56/56/56
f 58/58/58 56/56/56 60/60/60
f 60/60/60 57/57/57 61/61/61
f 59/59/59 58/58/58 62/62/62
f 60/60/60 62/62/62 58/58/58
f 62/62/62 63/63/63 59/59/59
f 63/63/63 62/62/62 64/64/64
f 61/61/61 65/65/65 60/60/60
f 62/62/62 60/60/60 65/65/65
f 65/65/65 64/64/64 62/62/62
f 65/65/65 61/61/61 66/66/66
f 64/64/64 65/65/65 67/67/67
f 66/66/66 67/67/67 65/65/65
f 67/67/67 66/66/66 68/68/68
