g Plane002
v 0.696471214 0.361712128 0
v 0.873087227 0.323779374 0
v 0.8563357 0.256605804 0
v 0.681968153 0.319521725 0
v 0.830437303 0.192326143 0
v 0.66237247 0.280461162 0
v 0.795609891 0.131682292 0
v 0.637467444 0.243789047 0
v 0.75231427 0.0752542987 0
v 0.606792092 0.208925307 0
v 0.701109946 0.0233583245 0
v 0.569786608 0.17555359 0
v 0.642511725 -0.0239427853 0
v 0.525936484 0.143610924 0
v 0.576907754 -0.0667589232 0
v 0.474853218 0.113207489 0
v 0.504545629 -0.105283581 0
v 0.416289568 0.0845365003 0
v 0.450003058 -0.129325569 0
v 0.375307024 0.0684950873 0
v 0.392922044 -0.149951786 0
v 0.328668445 0.0533842519 0
v 0.331916362 -0.168533161 0
v 0.275810748 0.0387204923 0
v 0.267613262 -0.185360879 0
v 0.218016341 0.0247185975 0
v 0.200750068 -0.200613469 0
v 0.156457588 0.0114807552 0
v 0.132134408 -0.214411274 0
v 0.0922367945 -0.000949057867 0
v 0.0626192093 -0.22684288 0
v 0.0264104325 -0.0125586931 0
v -0.00691194786 -0.237978399 0
v -0.0399950445 -0.0233543757 0
v -0.0755548626 -0.247877017 0
v -0.105974682 -0.0333533175 0
v -0.142389491 -0.256591022 0
v -0.170538589 -0.0425796434 0
v -0.206483543 -0.264168084 0
v -0.232709408 -0.0510621555 0
v -0.266893029 -0.270652413 0
v -0.291521072 -0.0588328056 0
v -0.322661281 -0.276085615 0
v -0.346021235 -0.0659265816 0
v -0.394540489 -0.282393754 0
v -0.413572431 -0.0739265308 0
v -0.469682574 -0.287045062 0
v -0.483012676 -0.0805860087 0
v -0.541787148 -0.289280415 0
v -0.548978567 -0.0852894038 0
v -0.610864043 -0.289077997 0
v -0.611460447 -0.0880584195 0
v -0.676922321 -0.286411107 0
v -0.670450032 -0.0889199674 0
v -0.739967346 -0.281246632 0
v -0.725940645 -0.0879070014 0
v -0.800001085 -0.273544431 0
v -0.77793169 -0.0850596204 0
v -0.857016504 -0.263256311 0
v -0.826429009 -0.0804262087 0
v -0.910994768 -0.250325739 0
v -0.871451855 -0.0740631968 0
vt 0 0
vt 0 1
vt 0.0333333351 1
vt 0.0333333351 0
vt 0.0666666701 1
vt 0.0666666701 0
vt 0.100000009 1
vt 0.100000009 0
vt 0.13333334 1
vt 0.13333334 0
vt 0.166666672 1
vt 0.166666672 0
vt 0.200000003 1
vt 0.200000003 0
vt 0.233333334 1
vt 0.233333334 0
vt 0.266666681 1
vt 0.266666681 0
vt 0.300000012 1
vt 0.300000012 0
vt 0.333333343 1
vt 0.333333343 0
vt 0.366666675 1
vt 0.366666675 0
vt 0.400000006 1
vt 0.400000006 0
vt 0.433333337 1
vt 0.433333337 0
vt 0.466666669 1
vt 0.466666669 0
vt 0.5 1
vt 0.5 0
vt 0.533333361 1
vt 0.533333361 0
vt 0.566666722 1
vt 0.566666722 0
vt 0.600000083 1
vt 0.600000083 0
vt 0.633333445 1
vt 0.633333445 0
vt 0.666666806 1
vt 0.666666806 0
vt 0.700000167 1
vt 0.700000167 0
vt 0.733333528 1
vt 0.733333528 0
vt 0.766666889 1
vt 0.766666889 0
vt 0.80000025 1
vt 0.80000025 0
vt 0.833333611 1
vt 0.833333611 0
vt 0.866666973 1
vt 0.866666973 0
vt 0.900000334 1
vt 0.900000334 0
vt 0.933333695 1
vt 0.933333695 0
vt 0.966667056 1
vt 0.966667056 0
vt 1.00000036 1
vt 1.00000036 0
vn -0 0 1
vn -0 0 1
vn -0 0 1
vn -0 0 1
vn -0 0 1
vn -0 0 1
vn -0 0 1
vn -0 0 1
vn -0 0 1
vn -0 0 1
vn -0 0 1
vn -0 0 1
vn -0 0 1
vn -0 0 1
vn -0 0 1
vn -0 0 1
vn -0 0 1
vn -0 0 1
vn -0 0 1
vn -0 0 1
vn -0 0 1
vn -0 0 1
vn -0 0 1
vn -0 0 1
vn -0 0 1
vn -0 0 1
vn -0 0 1
vn -0 0 1
vn -0 0 1
vn -0 0 1
vn -0 0 1
vn -0 0 1
vn -0 0 1
vn -0 0 1
vn -0 0 1
vn -0 0 1
vn -0 0 1
vn -0 0 1
vn -0 0 1
vn -0 0 1
vn -0 0 1
vn -0 0 1
vn -0 0 1
vn -0 0 1
vn -0 0 1
vn -0 0 1
vn -0 0 1
vn -0 0 1
vn -0 0 1
vn -0 0 1
vn -0 0 1
vn -0 0 1
vn -0 0 1
vn -0 0 1
vn -0 0 1
vn -0 0 1
vn -0 0 1
vn -0 0 1
vn -0 0 1
vn -0 0 1
vn -0 0 1
vn -0 0 1
g Plane002_0
f 3/3/3 2/2/2 1/1/1
f 4/4/4 3/3/3 1/1/1
f 5/5/5 3/3/3 4/4/4
f 6/6/6 5/5/5 4/4/4
f 7/7/7 5/5/5 6/6/6
f 8/8/8 7/7/7 6/6/6
f 9/9/9 7/7/7 8/8/8
f 10/10/10 9/9/9 8/8/8
f 11/11/11 9/9/9 10/10/10
f 12/12/12 11/11/11 10/10/10
f 13/13/13 11/11/11 12/12/12
f 14/14/14 13/13/13 12/12/12
f 15/15/15 13/13/13 14/14/14
f 16/16/16 15/15/15 14/14/14
f 17/17/17 15/15/15 16/16/16
f 18/18/18 17/17/17 16/16/16
f 19/19/19 17/17/17 18/18/18
f 20/20/20 19/19/19 18/18/18
f 21/21/21 19/19/19 20/20/20
f 22/22/22 21/21/21 20/20/20
f 23/23/23 21/21/21 22/22/22
f 24/24/24 23/23/23 22/22/22
f 25/25/25 23/23/23 24/24/24
f 26/26/26 25/25/25 24/24/24
f 27/27/27 25/25/25 26/26/26
f 28/28/28 27/27/27 26/26/26
f 29/29/29 27/27/27 28/28/28
f 30/30/30 29/29/29 28/28/28
f 31/31/31 29/29/29 30/30/30
f 32/32/32 31/31/31 30/30/30
f 33/33/33 31/31/31 32/32/32
f 34/34/34 33/33/33 32/32/32
f 35/35/35 33/33/33 34/34/34
f 36/36/36 35/35/35 34/34/34
f 37/37/37 35/35/35 36/36/36
f 38/38/38 37/37/37 36/36/36
f 39/39/39 37/37/37 38/38/38
f 40/40/40 39/39/39 38/38/38
f 41/41/41 39/39/39 40/40/40
f 42/42/42 41/41/41 40/40/40
f 43/43/43 41/41/41 42/42/42
f 44/44/44 43/43/43 42/42/42
f 45/45/45 43/43/43 44/44/44
f 46/46/46 45/45/45 44/44/44
f 47/47/47 45/45/45 46/46/46
f 48/48/48 47/47/47 46/46/46
f 49/49/49 47/47/47 48/48/48
f 50/50/50 49/49/49 48/48/48
f 51/51/51 49/49/49 50/50/50
f 52/52/52 51/51/51 50/50/50
f 53/53/53 51/51/51 52/52/52
f 54/54/54 53/53/53 52/52/52
f 55/55/55 53/53/53 54/54/54
f 56/56/56 55/55/55 54/54/54
f 57/57/57 55/55/55 56/56/56
f 58/58/58 57/57/57 56/56/56
f 59/59/59 57/57/57 58/58/58
f 60/60/60 59/59/59 58/58/58
f 61/61/61 59/59/59 60/60/60
f 62/62/62 61/61/61 60/60/60
