g bianyuan_01
v -0.0346990637 0.0131914094 -1.26999998E-06
v -0.0391003639 0.0444646999 -1.26999998E-06
v -0.0231281053 0.0395300016 -1.26999953E-06
v -0.0206423756 0.00955323502 -1.26999953E-06
v -0.0311118718 -0.0122972568 -1.26999998E-06
v -0.00924379751 0.0334915742 -1.26999907E-06
v -0.018795127 -0.0127239432 -1.26999976E-06
v -0.0284983143 -0.0308678038 -1.26999998E-06
v -0.00748657063 0.00666632038 -1.2699993E-06
v 0.00639910065 0.0275439918 -1.26999896E-06
v -0.0172887947 -0.0308896713 -1.26999987E-06
v -0.0265682116 -0.0445821546 -1.26999998E-06
v -0.0161323845 -0.0448353365 -1.26999998E-06
v 0.00639910065 0.00328959757 -1.26999919E-06
v 0.0191973262 0.0220625494 -1.26999873E-06
v -0.00616835523 -0.0134565728 -1.26999953E-06
v -0.00498743169 -0.0314843059 -1.26999987E-06
v -0.00410943897 -0.0448872857 -1.26999998E-06
v 0.0191973262 -0.000481434079 -1.26999907E-06
v 0.0319955349 0.0157382023 -1.26999873E-06
v 0.0319955349 -0.00407279376 -1.26999907E-06
v 0.00639911275 -0.0146481805 -1.26999953E-06
v 0.00639911275 -0.0317054354 -1.26999976E-06
v 0.00639910065 -0.0449622013 -1.26999998E-06
v 0.0191973131 -0.0164928753 -1.26999953E-06
v 0.0319955759 -0.0197449327 -1.26999953E-06
v 0.0191973206 -0.0322564356 -1.26999976E-06
v 0.0191973206 -0.0449622013 -1.26999998E-06
v 0.0319955386 -0.033492025 -1.26999987E-06
v 0.0319955349 -0.0449622013 -1.26999998E-06
vt 0 0.75
vt 0 1
vt 0.0714285746 1
vt 0.0714285746 0.75
vt 0 0.49999994
vt 0.142857164 1
vt 0.0714285746 0.5
vt 0 0.24999997
vt 0.142857164 0.75
vt 0.214285731 1
vt 0.0714285672 0.25
vt 0 0
vt 0.0714285746 0
vt 0.214285746 0.75
vt 0.285714298 1
vt 0.142857164 0.5
vt 0.142857164 0.25
vt 0.142857149 0
vt 0.285714269 0.75
vt 0.357142866 1
vt 0.357142866 0.75
vt 0.214285731 0.5
vt 0.214285731 0.25
vt 0.214285731 0
vt 0.285714269 0.5
vt 0.357142866 0.5
vt 0.285714239 0.24999997
vt 0.285714269 0
vt 0.357142836 0.24999997
vt 0.357142866 0
vn -0 -0.999999166 0.0013209756
vn 2.38407447E-05 -1 0.000187013284
vn -0 -1 0.000212599232
vn -0 -0.999999285 0.00120386295
vn -0 -0.999931335 0.0117240082
vn -0 -1 0.000271641824
vn 3.09570896E-05 -0.999971986 0.00748511404
vn -0 -0.970381677 0.241576657
vn -0 -0.999996781 0.00253218063
vn 4.03193262E-05 -0.999999881 0.000498527428
vn 2.88195242E-05 -0.996593535 0.0824705362
vn -2.38418579E-05 2.38418579E-05 1
vn -0 2.38418579E-05 1
vn 8.57227351E-05 0.999998569 0.00170117477
vn -0 0.999996662 0.00261634681
vn -0.000261086738 -0.998983085 0.0450862311
vn -0 -0.993028939 0.117870353
vn -0 2.38418579E-05 1
vn 1.20736477E-05 0.999999881 0.000524891424
vn -0 1 0.000282956171
vn 6.13875409E-06 1 0.000299000618
vn -4.66837155E-05 0.999994397 0.00336723635
vn -9.70588953E-05 0.998238564 0.0593276806
vn -4.76837158E-05 2.38418579E-05 1
vn 1.87269707E-05 0.999999166 0.0013193544
vn -2.70146438E-06 0.999999642 0.00087033707
vn -0 0.99986136 0.0166543648
vn -4.76837158E-05 2.38418579E-05 1
vn -8.54805239E-06 0.999952197 0.00978079159
vn -2.38418579E-05 2.38418579E-05 1
g bianyuan_01_0
f 3/3/3 2/2/2 1/1/1
f 4/4/4 3/3/3 1/1/1
f 4/4/4 1/1/1 5/5/5
f 6/6/6 3/3/3 4/4/4
f 7/7/7 4/4/4 5/5/5
f 7/7/7 5/5/5 8/8/8
f 9/9/9 6/6/6 4/4/4
f 9/9/9 4/4/4 7/7/7
f 10/10/10 6/6/6 9/9/9
f 11/11/11 7/7/7 8/8/8
f 11/11/11 8/8/8 12/12/12
f 13/13/13 11/11/11 12/12/12
f 14/14/14 10/10/10 9/9/9
f 15/15/15 10/10/10 14/14/14
f 16/16/16 9/9/9 7/7/7
f 16/16/16 7/7/7 11/11/11
f 14/14/14 9/9/9 16/16/16
f 17/17/17 11/11/11 13/13/13
f 17/17/17 16/16/16 11/11/11
f 18/18/18 17/17/17 13/13/13
f 19/19/19 15/15/15 14/14/14
f 20/20/20 15/15/15 19/19/19
f 21/21/21 20/20/20 19/19/19
f 22/22/22 14/14/14 16/16/16
f 22/22/22 16/16/16 17/17/17
f 19/19/19 14/14/14 22/22/22
f 23/23/23 17/17/17 18/18/18
f 23/23/23 22/22/22 17/17/17
f 24/24/24 23/23/23 18/18/18
f 21/21/21 19/19/19 25/25/25
f 25/25/25 19/19/19 22/22/22
f 25/25/25 22/22/22 23/23/23
f 26/26/26 21/21/21 25/25/25
f 27/27/27 23/23/23 24/24/24
f 27/27/27 25/25/25 23/23/23
f 26/26/26 25/25/25 27/27/27
f 28/28/28 27/27/27 24/24/24
f 29/29/29 26/26/26 27/27/27
f 29/29/29 27/27/27 28/28/28
f 30/30/30 29/29/29 28/28/28
