g char_ines_xx_03
v -2 -0.5 0
v -2 0.5 0
v 2 0.5 0
v 2 -0.5 0
v -0.99571991 0.5 0
v -0.99571991 1.5 0
v 0.99571991 1.5 0
v 0.99571991 0.5 0
v -0.99571991 -1.5 0
v -0.99571991 -0.5 0
v 0.99571991 -0.5 0
v 0.99571991 -1.5 0
vt 0 0
vt 0 1
vt 1 1
vt 1 0
vt 0 0
vt 0 1
vt 1 1
vt 1 0
vt 0 0
vt 0 1
vt 1 1
vt 1 0
vn -0 0 1
vn -0 0 1
vn -0 0 1
vn -0 0 1
vn -0 0 1
vn -0 0 1
vn -0 0 1
vn -0 0 1
vn -0 0 1
vn -0 0 1
vn -0 0 1
vn -0 0 1
g char_ines_xx_03_0
f 3/3/3 2/2/2 1/1/1
f 4/4/4 3/3/3 1/1/1
f 7/7/7 6/6/6 5/5/5
f 8/8/8 7/7/7 5/5/5
f 11/11/11 10/10/10 9/9/9
f 12/12/12 11/11/11 9/9/9
