g general_ring_07_2
v 1.88914835 -0.150506377 0
v 1.55460012 0.00959205627 0
v 1.89594924 0.00959205627 0
v 1.54902899 -0.121557951 0
v 1.8687948 -0.309451103 0
v 1.53235555 -0.251763105 0
v 1.83503485 -0.466097474 0
v 1.50470006 -0.38008523 0
v 1.78811204 -0.619316339 0
v 1.46626174 -0.505599499 0
v 1.72836459 -0.768003881 0
v 1.41731739 -0.627401948 0
v 1.65622282 -0.911088645 0
v 1.35821986 -0.744614959 0
v 1.57220626 -1.04754019 0
v 1.28939497 -0.856393754 0
v 1.4769206 -1.17637503 0
v 1.2113384 -0.961933076 0
v 1.37105215 -1.29666495 0
v 1.12461281 -1.06047261 0
v 1.25536382 -1.4075433 0
v 1.02984273 -1.15130222 0
v 1.13068914 -1.50821114 0
v 0.927711308 -1.23376763 0
v 0.997926474 -1.59794295 0
v 0.818954289 -1.30727446 0
v 0.858032227 -1.67609262 0
v 0.70435518 -1.37129343 0
v 0.712014377 -1.7420969 0
v 0.584739685 -1.42536294 0
v 0.560925007 -1.79548013 0
v 0.460969806 -1.46909368 0
v 0.405852795 -1.83585787 0
v 0.333937138 -1.50217032 0
v 0.24791491 -1.86293912 0
v 0.204557031 -1.5243547 0
v 0.0882493705 -1.87652862 0
v 0.0737616122 -1.53548706 0
v -0.0719934627 -1.87652862 0
v -0.0575066879 -1.53548706 0
v -0.231659025 -1.86293912 0
v -0.18830207 -1.5243547 0
v -0.389596879 -1.83585799 0
v -0.317682177 -1.50217021 0
v -0.544669211 -1.79548037 0
v -0.444714814 -1.46909344 0
v -0.695758522 -1.74209714 0
v -0.568484724 -1.42536283 0
v -0.841776431 -1.67609286 0
v -0.688100159 -1.37129319 0
v -0.981670737 -1.59794319 0
v -0.802699208 -1.30727422 0
v -1.11443341 -1.50821137 0
v -0.911456168 -1.23376739 0
v -1.23910797 -1.40754366 0
v -1.01358771 -1.15130198 0
v -1.35479641 -1.29666531 0
v -1.10835767 -1.06047225 0
v -1.46066487 -1.17637551 0
v -1.19508338 -0.961932719 0
v -1.55595064 -1.04754066 0
v -1.27313983 -0.856393337 0
v -1.63996708 -0.911089242 0
v -1.34196484 -0.744614482 0
v -1.71210909 -0.768004119 0
v -1.40106213 -0.627401829 0
v -1.77185667 -0.619316578 0
v -1.45000637 -0.50559938 0
v -1.81877947 -0.466097713 0
v -1.48844469 -0.380084991 0
v -1.8525393 -0.309451342 0
v -1.51610029 -0.251762867 0
v -1.87289298 -0.150506377 0
v -1.53277361 -0.121557951 0
v -1.87969387 0.00959205627 0
v -1.53834474 0.00959205627 0
vt 0.97297287 0
vt 1 1
vt 1 0
vt 0.972972989 1
vt 0.945945859 0
vt 0.945945978 1
vt 0.918918848 0
vt 0.918918967 1
vt 0.891891837 0
vt 0.891891897 1
vt 0.864864826 0
vt 0.864864886 1
vt 0.837837756 0
vt 0.837837875 1
vt 0.810810804 0
vt 0.810810924 1
vt 0.783783793 0
vt 0.783783793 1
vt 0.756756783 0
vt 0.756756783 1
vt 0.729729652 0
vt 0.729729772 1
vt 0.702702641 0
vt 0.702702701 1
vt 0.675675631 0
vt 0.675675631 1
vt 0.64864862 0
vt 0.64864862 1
vt 0.621621609 0
vt 0.621621609 1
vt 0.594594598 0
vt 0.594594598 1
vt 0.567567527 0
vt 0.567567587 1
vt 0.540540516 0
vt 0.540540576 1
vt 0.513513446 0
vt 0.513513565 1
vt 0.486486495 0
vt 0.486486554 1
vt 0.459459424 0
vt 0.459459484 1
vt 0.432432413 0
vt 0.432432473 1
vt 0.405405402 0
vt 0.405405462 1
vt 0.378378391 0
vt 0.378378391 1
vt 0.351351351 0
vt 0.351351351 1
vt 0.32432434 0
vt 0.32432434 1
vt 0.297297359 0
vt 0.297297359 1
vt 0.270270288 0
vt 0.270270288 1
vt 0.243243247 0
vt 0.243243247 1
vt 0.216216236 0
vt 0.216216236 1
vt 0.189189196 0
vt 0.189189196 1
vt 0.16216217 0
vt 0.16216217 1
vt 0.135135144 0
vt 0.135135144 1
vt 0.108108111 0
vt 0.108108118 1
vt 0.0810810849 0
vt 0.0810810924 1
vt 0.0540540554 0
vt 0.0540540591 1
vt 0.0270270277 0
vt 0.0270270295 1
vt 0 0
vt 0 1
vn -0 0 1
vn -0 0 1
vn -0 0 1
vn -0 0 1
vn -0 0 1
vn -0 0 1
vn -0 0 1
vn -0 0 1
vn -0 0 1
vn -0 0 1
vn -0 0 1
vn -0 0 1
vn -0 0 1
vn -0 0 1
vn -0 0 1
vn -0 0 1
vn -0 0 1
vn -0 0 1
vn -0 0 1
vn -0 0 1
vn -0 0 1
vn -0 0 1
vn -0 0 1
vn -0 0 1
vn -0 0 1
vn -0 0 1
vn -0 0 1
vn -0 0 1
vn -0 0 1
vn -0 0 1
vn -0 0 1
vn -0 0 1
vn -0 0 1
vn -0 0 1
vn -0 0 1
vn -0 0 1
vn -0 0 1
vn -0 0 1
vn -0 0 1
vn -0 0 1
vn -0 0 1
vn -0 0 1
vn -0 0 1
vn -0 0 1
vn -0 0 1
vn -0 0 1
vn -0 0 1
vn -0 0 1
vn -0 0 1
vn -0 0 1
vn -0 0 1
vn -0 0 1
vn -0 0 1
vn -0 0 1
vn -0 0 1
vn -0 0 1
vn -0 0 1
vn -0 0 1
vn -0 0 1
vn -0 0 1
vn -0 0 1
vn -0 0 1
vn -0 0 1
vn -0 0 1
vn -0 0 1
vn -0 0 1
vn -0 0 1
vn -0 0 1
vn -0 0 1
vn -0 0 1
vn -0 0 1
vn -0 0 1
vn -0 0 1
vn -0 0 1
vn -0 0 1
vn -0 0 1
g general_ring_07_2_0
f 3/3/3 2/2/2 1/1/1
f 2/2/2 4/4/4 1/1/1
f 1/1/1 4/4/4 5/5/5
f 4/4/4 6/6/6 5/5/5
f 5/5/5 6/6/6 7/7/7
f 6/6/6 8/8/8 7/7/7
f 7/7/7 8/8/8 9/9/9
f 8/8/8 10/10/10 9/9/9
f 9/9/9 10/10/10 11/11/11
f 10/10/10 12/12/12 11/11/11
f 11/11/11 12/12/12 13/13/13
f 12/12/12 14/14/14 13/13/13
f 13/13/13 14/14/14 15/15/15
f 14/14/14 16/16/16 15/15/15
f 15/15/15 16/16/16 17/17/17
f 16/16/16 18/18/18 17/17/17
f 17/17/17 18/18/18 19/19/19
f 18/18/18 20/20/20 19/19/19
f 19/19/19 20/20/20 21/21/21
f 20/20/20 22/22/22 21/21/21
f 21/21/21 22/22/22 23/23/23
f 22/22/22 24/24/24 23/23/23
f 23/23/23 24/24/24 25/25/25
f 24/24/24 26/26/26 25/25/25
f 25/25/25 26/26/26 27/27/27
f 26/26/26 28/28/28 27/27/27
f 27/27/27 28/28/28 29/29/29
f 28/28/28 30/30/30 29/29/29
f 29/29/29 30/30/30 31/31/31
f 30/30/30 32/32/32 31/31/31
f 31/31/31 32/32/32 33/33/33
f 32/32/32 34/34/34 33/33/33
f 33/33/33 34/34/34 35/35/35
f 34/34/34 36/36/36 35/35/35
f 35/35/35 36/36/36 37/37/37
f 36/36/36 38/38/38 37/37/37
f 37/37/37 38/38/38 39/39/39
f 38/38/38 40/40/40 39/39/39
f 39/39/39 40/40/40 41/41/41
f 40/40/40 42/42/42 41/41/41
f 41/41/41 42/42/42 43/43/43
f 42/42/42 44/44/44 43/43/43
f 43/43/43 44/44/44 45/45/45
f 44/44/44 46/46/46 45/45/45
f 45/45/45 46/46/46 47/47/47
f 46/46/46 48/48/48 47/47/47
f 47/47/47 48/48/48 49/49/49
f 48/48/48 50/50/50 49/49/49
f 49/49/49 50/50/50 51/51/51
f 50/50/50 52/52/52 51/51/51
f 51/51/51 52/52/52 53/53/53
f 52/52/52 54/54/54 53/53/53
f 53/53/53 54/54/54 55/55/55
f 54/54/54 56/56/56 55/55/55
f 55/55/55 56/56/56 57/57/57
f 56/56/56 58/58/58 57/57/57
f 57/57/57 58/58/58 59/59/59
f 58/58/58 60/60/60 59/59/59
f 59/59/59 60/60/60 61/61/61
f 60/60/60 62/62/62 61/61/61
f 61/61/61 62/62/62 63/63/63
f 62/62/62 64/64/64 63/63/63
f 63/63/63 64/64/64 65/65/65
f 64/64/64 66/66/66 65/65/65
f 65/65/65 66/66/66 67/67/67
f 66/66/66 68/68/68 67/67/67
f 67/67/67 68/68/68 69/69/69
f 68/68/68 70/70/70 69/69/69
f 69/69/69 70/70/70 71/71/71
f 70/70/70 72/72/72 71/71/71
f 71/71/71 72/72/72 73/73/73
f 72/72/72 74/74/74 73/73/73
f 73/73/73 74/74/74 75/75/75
f 74/74/74 76/76/76 75/75/75
