g general_plane_38
v -0.384113789 -0.30495891 2.82307155E-09
v -0.386410415 -0.365715474 -2.79396772E-09
v -0.399255872 -0.309844643 2.79396772E-09
v -0.368774652 -0.360197157 -2.82307155E-09
v -0.369529009 -0.300318956 2.6775524E-09
v -0.350825131 -0.354510456 8.73114914E-10
v -0.695783615 0.400734782 2.44472176E-09
v -0.659761071 0.356137395 -2.44472176E-09
v -0.672489524 0.344054163 -2.44472176E-09
v -0.708512068 0.388651609 2.44472176E-09
v -0.685218036 0.33197093 -2.44472176E-09
v -0.72124052 0.376568377 2.44472176E-09
v -0.697946489 0.319887757 -2.44472176E-09
v -0.733968973 0.364485204 2.44472176E-09
v -0.710674942 0.307804525 -2.44472176E-09
v -0.746697426 0.352402031 2.44472176E-09
v -0.723403335 0.295721352 -2.44472176E-09
v -0.759425879 0.340318799 2.44472176E-09
v -0.736131847 0.28363812 -2.44472176E-09
v -0.772154331 0.328235626 2.44472176E-09
v -0.747747064 0.272520393 -4.42378223E-09
v -0.785432518 0.31572178 4.07453626E-09
v -0.759153008 0.261658043 -2.79396772E-09
v -0.798795521 0.303070873 -2.32830644E-10
v -0.770066977 0.250415802 -3.7252903E-09
v -0.811635137 0.289895356 4.65661287E-09
v -0.780759454 0.23900494 -3.49245965E-09
v -0.824184597 0.276432306 1.62981451E-09
v -0.824184597 0.276432306 1.62981451E-09
v -0.780759454 0.23900494 -3.49245965E-09
v -0.790773034 0.227058724 -7.68341124E-09
v -0.836019278 0.262262911 3.02679837E-09
v -0.836019278 0.262262911 3.02679837E-09
v -0.790773034 0.227058724 -7.68341124E-09
v -0.800146699 0.214603648 -3.95812094E-09
v -0.847158611 0.247412562 2.09547579E-09
v -0.847158611 0.247412562 2.09547579E-09
v -0.800146699 0.214603648 -3.95812094E-09
v -0.80880034 0.20178014 -1.86264515E-09
v -0.857517123 0.231999859 4.42378223E-09
v -0.857517123 0.231999859 4.42378223E-09
v -0.80880034 0.20178014 -1.86264515E-09
v -0.816117525 0.188259453 -2.56113708E-09
v -0.866503954 0.215604708 3.49245965E-09
v -0.823186636 0.174663007 -2.79396772E-09
v -0.875096798 0.198991746 5.58793545E-09
v -0.875096798 0.198991746 5.58793545E-09
v -0.823186636 0.174663007 -2.79396772E-09
v -0.829041004 0.160631821 -2.79396772E-09
v -0.882374823 0.181656882 2.32830644E-09
v -0.834901989 0.146613017 -1.86264515E-09
v -0.889454722 0.164235666 1.39698386E-09
v -0.889454722 0.164235666 1.39698386E-09
v -0.834901989 0.146613017 -1.86264515E-09
v -0.838943958 0.132060081 -1.39698386E-09
v -0.894579411 0.145889625 3.25962901E-09
v -0.843117714 0.117539927 -3.25962901E-09
v -0.899572372 0.127510861 2.32830644E-09
v -0.899572372 0.127510861 2.32830644E-09
v -0.843117714 0.117539927 -3.25962901E-09
v -0.844238698 0.102784455 -2.32830644E-09
v -0.901299357 0.108319059 3.7252903E-09
v -0.845159173 0.0880153552 -2.79396772E-09
v -0.902478874 0.0890167579 3.25962901E-09
v -0.902478874 0.0890167579 3.25962901E-09
v -0.845159173 0.0880153552 -2.79396772E-09
v -0.844245195 0.0734931231 -1.39698386E-09
v -0.901447415 0.069690682 3.25962901E-09
v -0.842828572 0.0590427257 -2.79396772E-09
v -0.89949739 0.0503711328 2.79396772E-09
v -0.89949739 0.0503711328 2.79396772E-09
v -0.842828572 0.0590427257 -2.79396772E-09
v -0.839932621 0.0449657328 -2.79396772E-09
v -0.895620167 0.0313477814 3.7252903E-09
v -0.895620167 0.0313477814 3.7252903E-09
v -0.839932621 0.0449657328 -2.79396772E-09
v -0.836064696 0.0311210677 -3.7252903E-09
v -0.890307128 0.0125654321 3.7252903E-09
v -0.890307128 0.0125654321 3.7252903E-09
v -0.836064696 0.0311210677 -3.7252903E-09
v -0.8311854 0.0176491998 -2.79396772E-09
v -0.883529782 -0.00573081803 2.79396772E-09
v -0.883529782 -0.00573081803 2.79396772E-09
v -0.8311854 0.0176491998 -2.79396772E-09
v -0.824903607 0.00466965511 -3.7252903E-09
v -0.874896288 -0.0233889036 9.31322575E-10
v -0.874896288 -0.0233889036 9.31322575E-10
v -0.824903607 0.00466965511 -3.7252903E-09
v -0.817844987 -0.00785535388 -2.79396772E-09
v -0.865118563 -0.0402862579 1.86264515E-09
v -0.865118563 -0.0402862579 1.86264515E-09
v -0.817844987 -0.00785535388 -2.79396772E-09
v -0.808405161 -0.0190180093 -5.58793545E-09
v -0.852723241 -0.0553837456 2.79396772E-09
v -0.798854351 -0.0300726295 -2.79396772E-09
v -0.839938223 -0.0700560436 3.7252903E-09
v -0.839938223 -0.0700560436 3.7252903E-09
v -0.798854351 -0.0300726295 -2.79396772E-09
v -0.787489891 -0.0395382792 -1.86264515E-09
v -0.825412273 -0.0825318396 0
v -0.776235461 -0.0491285548 -2.79396772E-09
v -0.810776472 -0.0948829651 3.7252903E-09
v -0.810776472 -0.0948829651 3.7252903E-09
v -0.776235461 -0.0491285548 -2.79396772E-09
v -0.763716817 -0.0574448407 -2.79396772E-09
v -0.795024037 -0.105469972 4.65661287E-09
v -0.751229286 -0.0658303425 -4.65661287E-09
v -0.779165268 -0.115891621 2.79396772E-09
v -0.779165268 -0.115891621 2.79396772E-09
v -0.751229286 -0.0658303425 -4.65661287E-09
v -0.737322092 -0.0723618865 -2.79396772E-09
v -0.76231122 -0.123957448 5.58793545E-09
v -0.723118722 -0.0785297006 -4.65661287E-09
v -0.74520582 -0.131432563 0
v -0.74520582 -0.131432563 0
v -0.723118722 -0.0785297006 -4.65661287E-09
v -0.708483219 -0.0838174671 0
v -0.72786963 -0.137768582 3.7252903E-09
v -0.693632364 -0.0886778533 -1.86264515E-09
v -0.710408747 -0.143496707 0
v -0.678444743 -0.0928630531 -2.79396772E-09
v -0.692782283 -0.1483697 2.79396772E-09
v -0.662923753 -0.0963802189 -4.65661287E-09
v -0.675000668 -0.15242219 5.58793545E-09
v -0.647237897 -0.0994641632 -2.79396772E-09
v -0.657238245 -0.155913666 0
v -0.657238245 -0.155913666 0
v -0.647237897 -0.0994641632 -2.79396772E-09
v -0.631237328 -0.101701334 -3.7252903E-09
v -0.639523506 -0.158427805 3.7252903E-09
v -0.615154326 -0.103726164 -1.86264515E-09
v -0.621819854 -0.160665825 1.86264515E-09
v -0.621819854 -0.160665825 1.86264515E-09
v -0.615154326 -0.103726164 -1.86264515E-09
v -0.598725438 -0.104807712 -1.86264515E-09
v -0.604173481 -0.161876723 3.7252903E-09
v -0.582291663 -0.10589277 -3.7252903E-09
v -0.586531281 -0.163064241 9.31322575E-10
v -0.56572777 -0.106783792 -2.79396772E-09
v -0.569002271 -0.164018661 4.65661287E-09
v -0.549164236 -0.107682958 0
v -0.551472783 -0.164964914 2.79396772E-09
v -0.532211185 -0.107966863 -4.65661287E-09
v -0.534282565 -0.165257901 4.65661287E-09
v -0.515209913 -0.108174652 -4.65661287E-09
v -0.51713413 -0.165470824 2.79396772E-09
v -0.498208851 -0.10838262 -2.79396772E-09
v -0.499985635 -0.165683553 0
v -0.481207788 -0.108590767 -9.31322575E-10
v -0.482837141 -0.165896073 9.31322575E-10
v -0.464039892 -0.10908781 0
v -0.465870917 -0.166387036 2.79396772E-09
v -0.446752161 -0.109793603 -2.79396772E-09
v -0.449035436 -0.167076573 2.79396772E-09
v -0.429457009 -0.110528484 0
v -0.432210177 -0.1677908 0
v -0.412151754 -0.111301929 -5.58793545E-09
v -0.415398687 -0.168538377 2.79396772E-09
v -0.394821107 -0.112245396 0
v -0.398632854 -0.169447005 0
v -0.377423048 -0.113638073 -5.58793545E-09
v -0.381988108 -0.170784488 2.79396772E-09
v -0.360015601 -0.115089595 -1.86264515E-09
v -0.365363657 -0.172168061 0
v -0.342537045 -0.116944626 -1.86264515E-09
v -0.348891735 -0.173919812 1.86264515E-09
v -0.325059474 -0.118808523 -2.79396772E-09
v -0.332418889 -0.175662667 5.58793545E-09
v -0.307440221 -0.121408299 0
v -0.316268653 -0.178052917 5.58793545E-09
v -0.289818853 -0.124053247 0
v -0.300127089 -0.180447355 2.79396772E-09
v -0.300127089 -0.180447355 2.79396772E-09
v -0.289818853 -0.124053247 0
v -0.271934271 -0.127852738 -1.86264515E-09
v -0.284650296 -0.183753133 0
v -0.254000604 -0.131973237 -2.79396772E-09
v -0.269315809 -0.187218145 0
v -0.269315809 -0.187218145 0
v -0.254000604 -0.131973237 -2.79396772E-09
v -0.235599756 -0.13792935 -1.86264515E-09
v -0.255349308 -0.191748559 0
v -0.235599756 -0.13792935 -1.86264515E-09
v -0.21703282 -0.145039991 -1.86264515E-09
v -0.24201858 -0.196637154 4.65661287E-09
v -0.24201858 -0.196637154 4.65661287E-09
v -0.21703282 -0.145039991 -1.86264515E-09
v -0.198319644 -0.156726852 -4.65661287E-09
v -0.23271504 -0.202590838 3.7252903E-09
v -0.23271504 -0.202590838 3.7252903E-09
v -0.198319644 -0.156726852 -4.65661287E-09
v -0.180480987 -0.174083546 -1.86264515E-09
v -0.226369768 -0.208446026 4.65661287E-09
v -0.226369768 -0.208446026 4.65661287E-09
v -0.180480987 -0.174083546 -1.86264515E-09
v -0.168078989 -0.196309835 -2.79396772E-09
v -0.223091662 -0.212439135 9.31322575E-10
v -0.223091662 -0.212439135 9.31322575E-10
v -0.168078989 -0.196309835 -2.79396772E-09
v -0.167633414 -0.226221874 -1.86264515E-09
v -0.223720729 -0.214357197 1.39698386E-09
v -0.223720729 -0.214357197 1.39698386E-09
v -0.167633414 -0.226221874 -1.86264515E-09
v -0.175164819 -0.252352297 -3.25962901E-09
v -0.221268386 -0.218278736 2.79396772E-09
v -0.221268386 -0.218278736 2.79396772E-09
v -0.175164819 -0.252352297 -3.25962901E-09
v -0.190760106 -0.267092884 -2.32830644E-09
v -0.230983049 -0.226243556 1.86264515E-09
v -0.206810623 -0.28116858 -5.00585884E-09
v -0.240382552 -0.234698385 1.16415322E-10
v -0.240382552 -0.234698385 1.16415322E-10
v -0.206810623 -0.28116858 -5.00585884E-09
v -0.222207695 -0.291077554 -4.42378223E-09
v -0.253733695 -0.243195802 5.12227416E-09
v -0.237634361 -0.300941467 -2.79396772E-09
v -0.267055362 -0.25173828 4.88944352E-09
v -0.267055362 -0.25173828 4.88944352E-09
v -0.237634361 -0.300941467 -2.79396772E-09
v -0.25324589 -0.309725285 -4.36557457E-09
v -0.281204879 -0.259676874 5.00585884E-09
v -0.268889248 -0.318356216 -4.71482053E-09
v -0.295452476 -0.267553151 -5.82076609E-10
v -0.284812123 -0.326284349 -3.49245965E-10
v -0.310091585 -0.274830461 2.03726813E-09
v -0.300841093 -0.333947271 -2.91038305E-10
v -0.324869871 -0.281897575 2.91038305E-10
v -0.317160517 -0.341182977 -4.24915925E-09
v -0.339757353 -0.288495809 4.24915925E-09
v -0.333695859 -0.348096669 -2.44472176E-09
v -0.354720265 -0.294762552 2.91038305E-09
v -0.350825131 -0.354510456 8.73114914E-10
v -0.369529009 -0.300318956 2.6775524E-09
vt 0.988095224 0
vt 1 1
vt 1 0
vt 0.988095224 1
vt 0.976190448 0
vt 0.976190448 1
vt 0 0
vt 0 1
vt 0.0119047547 1
vt 0.0119047621 0
vt 0.0238095094 1
vt 0.0238095224 0
vt 0.0357142687 1
vt 0.0357142836 0
vt 0.047619015 1
vt 0.0476190448 0
vt 0.0595237687 0.999999881
vt 0.059523806 0
vt 0.0714285225 1
vt 0.0714285672 0
vt 0.0833332837 1
vt 0.0833333284 0
vt 0.0952380374 1
vt 0.0952380896 0
vt 0.107142791 1
vt 0.107142851 0
vt 0.119047552 1
vt 0.119047619 0
vt 0.119047619 0
vt 0.119047552 1
vt 0.130952314 1
vt 0.130952388 0
vt 0.130952388 0
vt 0.130952314 1
vt 0.14285706 1
vt 0.142857134 0
vt 0.142857134 0
vt 0.14285706 1
vt 0.154761806 1
vt 0.154761896 0
vt 0.154761896 0
vt 0.154761806 1
vt 0.166666567 1
vt 0.166666657 0
vt 0.178571314 1
vt 0.178571403 0
vt 0.178571403 0
vt 0.178571314 1
vt 0.19047606 1
vt 0.190476179 0
vt 0.202380806 0.999999881
vt 0.202380925 0
vt 0.202380925 0
vt 0.202380806 0.999999881
vt 0.214285597 1
vt 0.214285702 0
vt 0.226190343 1
vt 0.226190463 0
vt 0.226190463 0
vt 0.226190343 1
vt 0.238095105 1
vt 0.238095224 0
vt 0.249999851 1
vt 0.24999997 0
vt 0.24999997 0
vt 0.249999851 1
vt 0.261904627 1
vt 0.261904746 0
vt 0.273809373 1
vt 0.273809493 0
vt 0.273809493 0
vt 0.273809373 1
vt 0.28571412 1
vt 0.285714269 0
vt 0.285714269 0
vt 0.28571412 1
vt 0.297618866 1
vt 0.297619045 0
vt 0.297619045 0
vt 0.297618866 1
vt 0.309523642 1
vt 0.309523791 0
vt 0.309523791 0
vt 0.309523642 1
vt 0.321428388 1
vt 0.321428567 0
vt 0.321428567 0
vt 0.321428388 1
vt 0.333333135 1
vt 0.333333313 0
vt 0.333333313 0
vt 0.333333135 1
vt 0.345237911 1
vt 0.34523806 0
vt 0.357142687 1
vt 0.357142836 0
vt 0.357142836 0
vt 0.357142687 1
vt 0.369047433 1
vt 0.369047582 0
vt 0.380952179 1
vt 0.380952358 0
vt 0.380952358 0
vt 0.380952179 1
vt 0.392856896 1
vt 0.392857134 0
vt 0.404761672 1
vt 0.40476191 0
vt 0.40476191 0
vt 0.404761672 1
vt 0.416666448 1
vt 0.416666687 0
vt 0.428571224 1
vt 0.428571403 0
vt 0.428571403 0
vt 0.428571224 1
vt 0.440475941 1
vt 0.440476179 0
vt 0.452380717 1
vt 0.452380955 0
vt 0.464285493 1
vt 0.464285672 0
vt 0.476190209 1
vt 0.476190478 0
vt 0.488094985 1
vt 0.488095224 0
vt 0.488095224 0
vt 0.488094985 1
vt 0.499999762 1
vt 0.5 0
vt 0.511904478 1
vt 0.511904716 0
vt 0.511904716 0
vt 0.511904478 1
vt 0.523809254 1
vt 0.523809552 0
vt 0.53571403 1
vt 0.535714269 0
vt 0.547618747 1
vt 0.547619104 0
vt 0.559523582 1
vt 0.559523821 0
vt 0.571428299 1
vt 0.571428657 0
vt 0.583333075 1
vt 0.583333433 0
vt 0.595237792 1
vt 0.595238209 0
vt 0.607142568 1
vt 0.607142985 0
vt 0.619047284 1
vt 0.619047761 0
vt 0.63095212 1
vt 0.630952537 0
vt 0.642856896 1
vt 0.642857313 0
vt 0.654761672 1
vt 0.654762089 0
vt 0.666666448 1
vt 0.666666865 0
vt 0.678571224 1
vt 0.678571641 0
vt 0.690475941 1
vt 0.690476418 0
vt 0.702380717 1
vt 0.702381194 0
vt 0.714285493 1
vt 0.71428597 0
vt 0.726190209 1
vt 0.726190746 0
vt 0.738094926 1
vt 0.738095522 0
vt 0.738095522 0
vt 0.738094926 1
vt 0.749999702 1
vt 0.750000298 0
vt 0.761904478 1
vt 0.761905074 0
vt 0.761905074 0
vt 0.761904478 1
vt 0.773809254 1
vt 0.77380985 0
vt 0.773809254 1
vt 0.78571403 1
vt 0.785714567 0
vt 0.785714567 0
vt 0.78571403 1
vt 0.797618747 1
vt 0.797619224 0
vt 0.797619224 0
vt 0.797618747 1
vt 0.809523582 1
vt 0.809524059 0
vt 0.809524059 0
vt 0.809523582 1
vt 0.821428299 1
vt 0.821428776 0
vt 0.821428776 0
vt 0.821428299 1
vt 0.833333135 1
vt 0.833333552 0
vt 0.833333552 0
vt 0.833333135 1
vt 0.845237911 1
vt 0.845238328 0
vt 0.845238328 0
vt 0.845237911 1
vt 0.857142687 1
vt 0.857143044 0
vt 0.869047463 1
vt 0.869047761 0
vt 0.869047761 0
vt 0.869047463 1
vt 0.880952239 1
vt 0.880952477 0
vt 0.892857015 1
vt 0.892857254 0
vt 0.892857254 0
vt 0.892857015 1
vt 0.904761791 1
vt 0.90476203 0
vt 0.916666567 1
vt 0.916666746 0
vt 0.928571343 1
vt 0.928571463 0
vt 0.94047606 1
vt 0.940476179 0
vt 0.952380896 1
vt 0.952381015 0
vt 0.964285612 1
vt 0.964285731 0
vt 0.976190448 1
vt 0.976190448 0
vn -0 0 1
vn -0 0 1
vn -0 0 1
vn -0 0 1
vn -0 0 1
vn -0 0 1
vn -0 0 1
vn -0 0 1
vn -0 0 1
vn -0 0 1
vn -0 0 1
vn -0 0 1
vn -0 0 1
vn -0 0 1
vn -0 0 1
vn -0 0 1
vn -0 0 1
vn -0 0 1
vn -0 0 1
vn -0 0 1
vn -0 0 1
vn -0 0 1
vn -0 0 1
vn -0 0 1
vn -0 0 1
vn -0 0 1
vn -0 0 1
vn -0 0 1
vn -0 0 1
vn -0 0 1
vn -0 0 1
vn -0 0 1
vn -0 0 1
vn -0 0 1
vn -0 0 1
vn -0 0 1
vn -0 0 1
vn -0 0 1
vn -0 0 1
vn -0 0 1
vn -0 0 1
vn -0 0 1
vn -0 0 1
vn -0 0 1
vn -0 0 1
vn -0 0 1
vn -0 0 1
vn -0 0 1
vn -0 0 1
vn -0 0 1
vn -0 0 1
vn -0 0 1
vn -0 0 1
vn -0 0 1
vn -0 0 1
vn -0 0 1
vn -0 0 1
vn -0 0 1
vn -0 0 1
vn -0 0 1
vn -0 0 1
vn -0 0 1
vn -0 0 1
vn -0 0 1
vn -0 0 1
vn -0 0 1
vn -0 0 1
vn -0 0 1
vn -0 0 1
vn -0 0 1
vn -0 0 1
vn -0 0 1
vn -0 0 1
vn -0 0 1
vn -0 0 1
vn -0 0 1
vn -0 0 1
vn -0 0 1
vn -0 0 1
vn -0 0 1
vn -0 0 1
vn -0 0 1
vn -0 0 1
vn -0 0 1
vn -0 0 1
vn -0 0 1
vn -0 0 1
vn -0 0 1
vn -0 0 1
vn -0 0 1
vn -0 0 1
vn -0 0 1
vn -0 0 1
vn -0 0 1
vn -0 0 1
vn -0 0 1
vn -0 0 1
vn -0 0 1
vn -0 0 1
vn -0 0 1
vn -0 0 1
vn -0 0 1
vn -0 0 1
vn -0 0 1
vn -0 0 1
vn -0 0 1
vn -0 0 1
vn -0 0 1
vn -0 0 1
vn -0 0 1
vn -0 0 1
vn -0 0 1
vn -0 0 1
vn -0 0 1
vn -0 0 1
vn -0 0 1
vn -0 0 1
vn -0 0 1
vn -0 0 1
vn -0 0 1
vn -0 0 1
vn -0 0 1
vn -0 0 1
vn -0 0 1
vn -0 0 1
vn -0 0 1
vn -0 0 1
vn -0 0 1
vn -0 0 1
vn -0 0 1
vn -0 0 1
vn -0 0 1
vn -0 0 1
vn -0 0 1
vn -0 0 1
vn -0 0 1
vn -0 0 1
vn -0 0 1
vn -0 0 1
vn -0 0 1
vn -0 0 1
vn -0 0 1
vn -0 0 1
vn -0 0 1
vn -0 0 1
vn -0 0 1
vn -0 0 1
vn -0 0 1
vn -0 0 1
vn -0 0 1
vn -0 0 1
vn -0 0 1
vn -0 0 1
vn -0 0 1
vn -0 0 1
vn -0 0 1
vn -0 0 1
vn -0 0 1
vn -0 0 1
vn -0 0 1
vn -0 0 1
vn -0 0 1
vn -0 0 1
vn -0 0 1
vn -0 0 1
vn -0 0 1
vn -0 0 1
vn -0 0 1
vn -0 0 1
vn -0 0 1
vn -0 0 1
vn -0 0 1
vn -0 0 1
vn -0 0 1
vn -0 0 1
vn -0 0 1
vn -0 0 1
vn -0 0 1
vn -0 0 1
vn -0 0 1
vn -0 0 1
vn -0 0 1
vn -0 0 1
vn -0 0 1
vn -0 0 1
vn -0 0 1
vn -0 0 1
vn -0 0 1
vn -0 0 1
vn -0 0 1
vn -0 0 1
vn -0 0 1
vn -0 0 1
vn -0 0 1
vn -0 0 1
vn -0 0 1
vn -0 0 1
vn -0 0 1
vn -0 0 1
vn -0 0 1
vn -0 0 1
vn -0 0 1
vn -0 0 1
vn -0 0 1
vn -0 0 1
vn -0 0 1
vn -0 0 1
vn -0 0 1
vn -0 0 1
vn -0 0 1
vn -0 0 1
vn -0 0 1
vn -0 0 1
vn -0 0 1
vn -0 0 1
vn -0 0 1
vn -0 0 1
vn -0 0 1
vn -0 0 1
vn -0 0 1
vn -0 0 1
vn -0 0 1
vn -0 0 1
vn -0 0 1
vn -0 0 1
vn -0 0 1
vn -0 0 1
vn -0 0 1
vn -0 0 1
vn -0 0 1
vn -0 0 1
vn -0 0 1
vn -0 0 1
g general_plane_38_0
f 3/3/3 2/2/2 1/1/1
f 2/2/2 4/4/4 1/1/1
f 1/1/1 4/4/4 5/5/5
f 4/4/4 6/6/6 5/5/5
f 9/9/9 8/8/8 7/7/7
f 10/10/10 9/9/9 7/7/7
f 11/11/11 9/9/9 10/10/10
f 12/12/12 11/11/11 10/10/10
f 13/13/13 11/11/11 12/12/12
f 14/14/14 13/13/13 12/12/12
f 15/15/15 13/13/13 14/14/14
f 16/16/16 15/15/15 14/14/14
f 17/17/17 15/15/15 16/16/16
f 18/18/18 17/17/17 16/16/16
f 19/19/19 17/17/17 18/18/18
f 20/20/20 19/19/19 18/18/18
f 21/21/21 19/19/19 20/20/20
f 22/22/22 21/21/21 20/20/20
f 23/23/23 21/21/21 22/22/22
f 24/24/24 23/23/23 22/22/22
f 25/25/25 23/23/23 24/24/24
f 26/26/26 25/25/25 24/24/24
f 27/27/27 25/25/25 26/26/26
f 28/28/28 27/27/27 26/26/26
f 31/31/31 30/30/30 29/29/29
f 32/32/32 31/31/31 29/29/29
f 35/35/35 34/34/34 33/33/33
f 36/36/36 35/35/35 33/33/33
f 39/39/39 38/38/38 37/37/37
f 40/40/40 39/39/39 37/37/37
f 43/43/43 42/42/42 41/41/41
f 44/44/44 43/43/43 41/41/41
f 45/45/45 43/43/43 44/44/44
f 46/46/46 45/45/45 44/44/44
f 49/49/49 48/48/48 47/47/47
f 50/50/50 49/49/49 47/47/47
f 51/51/51 49/49/49 50/50/50
f 52/52/52 51/51/51 50/50/50
f 55/55/55 54/54/54 53/53/53
f 56/56/56 55/55/55 53/53/53
f 57/57/57 55/55/55 56/56/56
f 58/58/58 57/57/57 56/56/56
f 61/61/61 60/60/60 59/59/59
f 62/62/62 61/61/61 59/59/59
f 63/63/63 61/61/61 62/62/62
f 64/64/64 63/63/63 62/62/62
f 67/67/67 66/66/66 65/65/65
f 68/68/68 67/67/67 65/65/65
f 69/69/69 67/67/67 68/68/68
f 70/70/70 69/69/69 68/68/68
f 73/73/73 72/72/72 71/71/71
f 74/74/74 73/73/73 71/71/71
f 77/77/77 76/76/76 75/75/75
f 78/78/78 77/77/77 75/75/75
f 81/81/81 80/80/80 79/79/79
f 82/82/82 81/81/81 79/79/79
f 85/85/85 84/84/84 83/83/83
f 86/86/86 85/85/85 83/83/83
f 89/89/89 88/88/88 87/87/87
f 90/90/90 89/89/89 87/87/87
f 93/93/93 92/92/92 91/91/91
f 94/94/94 93/93/93 91/91/91
f 95/95/95 93/93/93 94/94/94
f 96/96/96 95/95/95 94/94/94
f 99/99/99 98/98/98 97/97/97
f 100/100/100 99/99/99 97/97/97
f 101/101/101 99/99/99 100/100/100
f 102/102/102 101/101/101 100/100/100
f 105/105/105 104/104/104 103/103/103
f 106/106/106 105/105/105 103/103/103
f 107/107/107 105/105/105 106/106/106
f 108/108/108 107/107/107 106/106/106
f 111/111/111 110/110/110 109/109/109
f 112/112/112 111/111/111 109/109/109
f 113/113/113 111/111/111 112/112/112
f 114/114/114 113/113/113 112/112/112
f 117/117/117 116/116/116 115/115/115
f 118/118/118 117/117/117 115/115/115
f 119/119/119 117/117/117 118/118/118
f 120/120/120 119/119/119 118/118/118
f 121/121/121 119/119/119 120/120/120
f 122/122/122 121/121/121 120/120/120
f 123/123/123 121/121/121 122/122/122
f 124/124/124 123/123/123 122/122/122
f 125/125/125 123/123/123 124/124/124
f 126/126/126 125/125/125 124/124/124
f 129/129/129 128/128/128 127/127/127
f 130/130/130 129/129/129 127/127/127
f 131/131/131 129/129/129 130/130/130
f 132/132/132 131/131/131 130/130/130
f 135/135/135 134/134/134 133/133/133
f 136/136/136 135/135/135 133/133/133
f 137/137/137 135/135/135 136/136/136
f 138/138/138 137/137/137 136/136/136
f 139/139/139 137/137/137 138/138/138
f 140/140/140 139/139/139 138/138/138
f 141/141/141 139/139/139 140/140/140
f 142/142/142 141/141/141 140/140/140
f 143/143/143 141/141/141 142/142/142
f 144/144/144 143/143/143 142/142/142
f 145/145/145 143/143/143 144/144/144
f 146/146/146 145/145/145 144/144/144
f 147/147/147 145/145/145 146/146/146
f 148/148/148 147/147/147 146/146/146
f 149/149/149 147/147/147 148/148/148
f 150/150/150 149/149/149 148/148/148
f 151/151/151 149/149/149 150/150/150
f 152/152/152 151/151/151 150/150/150
f 153/153/153 151/151/151 152/152/152
f 154/154/154 153/153/153 152/152/152
f 155/155/155 153/153/153 154/154/154
f 156/156/156 155/155/155 154/154/154
f 157/157/157 155/155/155 156/156/156
f 158/158/158 157/157/157 156/156/156
f 159/159/159 157/157/157 158/158/158
f 160/160/160 159/159/159 158/158/158
f 161/161/161 159/159/159 160/160/160
f 162/162/162 161/161/161 160/160/160
f 163/163/163 161/161/161 162/162/162
f 164/164/164 163/163/163 162/162/162
f 165/165/165 163/163/163 164/164/164
f 166/166/166 165/165/165 164/164/164
f 167/167/167 165/165/165 166/166/166
f 168/168/168 167/167/167 166/166/166
f 169/169/169 167/167/167 168/168/168
f 170/170/170 169/169/169 168/168/168
f 171/171/171 169/169/169 170/170/170
f 172/172/172 171/171/171 170/170/170
f 175/175/175 174/174/174 173/173/173
f 176/176/176 175/175/175 173/173/173
f 177/177/177 175/175/175 176/176/176
f 178/178/178 177/177/177 176/176/176
f 181/181/181 180/180/180 179/179/179
f 182/182/182 181/181/181 179/179/179
f 184/184/184 183/183/183 182/182/182
f 185/185/185 184/184/184 182/182/182
f 188/188/188 187/187/187 186/186/186
f 189/189/189 188/188/188 186/186/186
f 192/192/192 191/191/191 190/190/190
f 193/193/193 192/192/192 190/190/190
f 196/196/196 195/195/195 194/194/194
f 197/197/197 196/196/196 194/194/194
f 200/200/200 199/199/199 198/198/198
f 201/201/201 200/200/200 198/198/198
f 204/204/204 203/203/203 202/202/202
f 205/205/205 204/204/204 202/202/202
f 208/208/208 207/207/207 206/206/206
f 209/209/209 208/208/208 206/206/206
f 210/210/210 208/208/208 209/209/209
f 211/211/211 210/210/210 209/209/209
f 214/214/214 213/213/213 212/212/212
f 215/215/215 214/214/214 212/212/212
f 216/216/216 214/214/214 215/215/215
f 217/217/217 216/216/216 215/215/215
f 220/220/220 219/219/219 218/218/218
f 221/221/221 220/220/220 218/218/218
f 222/222/222 220/220/220 221/221/221
f 223/223/223 222/222/222 221/221/221
f 224/224/224 222/222/222 223/223/223
f 225/225/225 224/224/224 223/223/223
f 226/226/226 224/224/224 225/225/225
f 227/227/227 226/226/226 225/225/225
f 228/228/228 226/226/226 227/227/227
f 229/229/229 228/228/228 227/227/227
f 230/230/230 228/228/228 229/229/229
f 231/231/231 230/230/230 229/229/229
f 232/232/232 230/230/230 231/231/231
f 233/233/233 232/232/232 231/231/231
