g general_plane_39
v -0.392697901 -0.291214824 6.4028427E-09
v -0.495190918 -0.412538707 -1.3038516E-08
v -0.428314835 -0.275353193 1.3038516E-08
v -0.453475356 -0.431209028 -6.4028427E-09
v -0.35678947 -0.305955738 3.84170562E-09
v -0.411116868 -0.448576927 -1.54832378E-08
v -0.0826434344 0.263638973 5.58793545E-09
v -0.119487338 0.300991893 -5.58793545E-09
v -0.0901066437 0.333510906 -4.65661287E-09
v -0.0502932072 0.289077729 4.65661287E-09
v -0.0502932072 0.289077729 4.65661287E-09
v -0.0901066437 0.333510906 -4.65661287E-09
v -0.0581446886 0.364799798 -5.58793545E-09
v -0.0172321461 0.311924487 4.65661287E-09
v -0.0172321461 0.311924487 4.65661287E-09
v -0.0581446886 0.364799798 -5.58793545E-09
v -0.0228056591 0.394122124 -7.4505806E-09
v 0.016374629 0.331286758 5.58793545E-09
v 0.016374629 0.331286758 5.58793545E-09
v -0.0228056591 0.394122124 -7.4505806E-09
v 0.0167066883 0.420501322 -5.58793545E-09
v 0.0503114611 0.346532673 7.4505806E-09
v 0.0503114611 0.346532673 7.4505806E-09
v 0.0167066883 0.420501322 -5.58793545E-09
v 0.061398454 0.439953536 -7.4505806E-09
v 0.0854514688 0.354848444 9.31322575E-09
v 0.0854514688 0.354848444 9.31322575E-09
v 0.061398454 0.439953536 -7.4505806E-09
v 0.107158951 0.452991754 -7.4505806E-09
v 0.122341529 0.358571291 7.4505806E-09
v 0.122341529 0.358571291 7.4505806E-09
v 0.107158951 0.452991754 -7.4505806E-09
v 0.152884454 0.461975515 -1.86264515E-09
v 0.160574824 0.359435678 0
v 0.160574824 0.359435678 0
v 0.152884454 0.461975515 -1.86264515E-09
v 0.198279545 0.467940062 -1.11758709E-08
v 0.199697375 0.357926875 3.7252903E-09
v 0.199697375 0.357926875 3.7252903E-09
v 0.198279545 0.467940062 -1.11758709E-08
v 0.250013351 0.468851984 -5.58793545E-09
v 0.232318506 0.352978379 1.86264515E-09
v 0.232318506 0.352978379 1.86264515E-09
v 0.250013351 0.468851984 -5.58793545E-09
v 0.30302909 0.458294153 -3.7252903E-09
v 0.259788007 0.341639161 1.86264515E-09
v 0.259788007 0.341639161 1.86264515E-09
v 0.30302909 0.458294153 -3.7252903E-09
v 0.353565484 0.437761128 -1.11758709E-08
v 0.284436405 0.325773269 9.31322575E-09
v 0.284436405 0.325773269 9.31322575E-09
v 0.353565484 0.437761128 -1.11758709E-08
v 0.398704678 0.409562707 -9.31322575E-09
v 0.307801127 0.304671794 1.11758709E-08
v 0.307801127 0.304671794 1.11758709E-08
v 0.398704678 0.409562707 -9.31322575E-09
v 0.437154233 0.374913722 -1.3038516E-08
v 0.3277044 0.278294563 9.31322575E-09
v 0.3277044 0.278294563 9.31322575E-09
v 0.437154233 0.374913722 -1.3038516E-08
v 0.470995307 0.336059511 -3.7252903E-09
v 0.344845563 0.250161231 7.4505806E-09
v 0.470995307 0.336059511 -3.7252903E-09
v 0.497478992 0.292163938 -1.49011612E-08
v 0.361943513 0.222003967 7.4505806E-09
v 0.361943513 0.222003967 7.4505806E-09
v 0.497478992 0.292163938 -1.49011612E-08
v 0.518960357 0.245718524 -1.67638063E-08
v 0.376139343 0.191918522 1.11758709E-08
v 0.376139343 0.191918522 1.11758709E-08
v 0.518960357 0.245718524 -1.67638063E-08
v 0.533358932 0.196701676 -7.4505806E-09
v 0.385248393 0.159883976 9.31322575E-09
v 0.385248393 0.159883976 9.31322575E-09
v 0.533358932 0.196701676 -7.4505806E-09
v 0.54253 0.146605372 -1.3038516E-08
v 0.391152382 0.12718612 7.4505806E-09
v 0.391152382 0.12718612 7.4505806E-09
v 0.54253 0.146605372 -1.3038516E-08
v 0.546476543 0.0958990455 -1.49011612E-08
v 0.393870652 0.0939678401 1.11758709E-08
v 0.393870652 0.0939678401 1.11758709E-08
v 0.546476543 0.0958990455 -1.49011612E-08
v 0.544838369 0.0451218486 -1.49011612E-08
v 0.392986178 0.0603924915 7.4505806E-09
v 0.392986178 0.0603924915 7.4505806E-09
v 0.544838369 0.0451218486 -1.49011612E-08
v 0.536734283 -0.00467786752 -1.58324838E-08
v 0.387410104 0.0268589668 1.02445483E-08
v 0.387410104 0.0268589668 1.02445483E-08
v 0.536734283 -0.00467786752 -1.58324838E-08
v 0.52398175 -0.0530448742 -9.31322575E-09
v 0.378669202 -0.00639134832 1.76951289E-08
v 0.378669202 -0.00639134832 1.76951289E-08
v 0.52398175 -0.0530448742 -9.31322575E-09
v 0.506836712 -0.0994629413 -1.21071935E-08
v 0.366598159 -0.0392512828 8.38190317E-09
v 0.366598159 -0.0392512828 8.38190317E-09
v 0.506836712 -0.0994629413 -1.21071935E-08
v 0.485134333 -0.142878026 -1.58324838E-08
v 0.35029906 -0.0713815987 1.58324838E-08
v 0.35029906 -0.0713815987 1.58324838E-08
v 0.485134333 -0.142878026 -1.58324838E-08
v 0.460603505 -0.183989525 -1.76951289E-08
v 0.331413597 -0.102735303 1.67638063E-08
v 0.331413597 -0.102735303 1.67638063E-08
v 0.460603505 -0.183989525 -1.76951289E-08
v 0.434169859 -0.223449692 -1.3038516E-08
v 0.310841322 -0.133547768 1.39698386E-08
v 0.310841322 -0.133547768 1.39698386E-08
v 0.434169859 -0.223449692 -1.3038516E-08
v 0.405637562 -0.261092186 -5.58793545E-09
v 0.288379908 -0.163404286 5.58793545E-09
v 0.288379908 -0.163404286 5.58793545E-09
v 0.405637562 -0.261092186 -5.58793545E-09
v 0.373785466 -0.295994759 -5.58793545E-09
v 0.263056785 -0.190964118 5.58793545E-09
v 0.263056785 -0.190964118 5.58793545E-09
v 0.373785466 -0.295994759 -5.58793545E-09
v 0.339759022 -0.328905433 -1.35041773E-08
v 0.236261547 -0.216742352 1.35041773E-08
v 0.339759022 -0.328905433 -1.35041773E-08
v 0.303971827 -0.360070199 -1.3038516E-08
v 0.208366096 -0.241108775 1.49011612E-08
v 0.208366096 -0.241108775 1.49011612E-08
v 0.303971827 -0.360070199 -1.3038516E-08
v 0.26632911 -0.389219016 -1.28056854E-08
v 0.179277241 -0.26386255 1.53668225E-08
v 0.179277241 -0.26386255 1.53668225E-08
v 0.26632911 -0.389219016 -1.28056854E-08
v 0.22602053 -0.415026665 -1.3038516E-08
v 0.148251653 -0.283709228 2.14204192E-08
v 0.148251653 -0.283709228 2.14204192E-08
v 0.22602053 -0.415026665 -1.3038516E-08
v 0.183650956 -0.437268317 -1.02445483E-08
v 0.115708381 -0.30060786 1.02445483E-08
v 0.115708381 -0.30060786 1.02445483E-08
v 0.183650956 -0.437268317 -1.02445483E-08
v 0.139985487 -0.456821293 -1.52504072E-08
v 0.0822716579 -0.315536529 1.52504072E-08
v 0.139985487 -0.456821293 -1.52504072E-08
v 0.0952363312 -0.473773569 -1.44354999E-08
v 0.0480602719 -0.328629911 1.33295543E-08
v 0.0480602719 -0.328629911 1.33295543E-08
v 0.0952363312 -0.473773569 -1.44354999E-08
v 0.04929436 -0.487287283 -8.67294148E-09
v 0.0128441155 -0.339085937 1.92085281E-08
v 0.0128441155 -0.339085937 1.92085281E-08
v 0.04929436 -0.487287283 -8.67294148E-09
v 0.00247736042 -0.496589065 -1.70548446E-08
v -0.0233070944 -0.346164882 1.70548446E-08
v -0.0233070944 -0.346164882 1.70548446E-08
v 0.00247736042 -0.496589065 -1.70548446E-08
v -0.0447135456 -0.502687097 -1.03609636E-08
v -0.0599693656 -0.350833446 1.03609636E-08
v -0.0599693656 -0.350833446 1.03609636E-08
v -0.0447135456 -0.502687097 -1.03609636E-08
v -0.0920379832 -0.505889654 -8.92396201E-09
v -0.0969855338 -0.353351831 8.92396201E-09
v -0.0969855338 -0.353351831 8.92396201E-09
v -0.0920379832 -0.505889654 -8.92396201E-09
v -0.13928397 -0.505845845 -4.10818757E-09
v -0.134291366 -0.353309512 1.14032446E-08
v -0.134291366 -0.353309512 1.14032446E-08
v -0.13928397 -0.505845845 -4.10818757E-09
v -0.186252549 -0.502848625 -7.76344677E-09
v -0.171743929 -0.35092178 7.28323357E-09
v -0.171743929 -0.35092178 7.28323357E-09
v -0.186252549 -0.502848625 -7.76344677E-09
v -0.232715681 -0.497006893 -2.50292942E-09
v -0.209183633 -0.346213996 2.50292942E-09
v -0.209183633 -0.346213996 2.50292942E-09
v -0.232715681 -0.497006893 -2.50292942E-09
v -0.278502136 -0.488286763 -1.48720574E-08
v -0.24650526 -0.339060515 1.48720574E-08
v -0.24650526 -0.339060515 1.48720574E-08
v -0.278502136 -0.488286763 -1.48720574E-08
v -0.323561192 -0.477267325 -5.29689714E-09
v -0.283601761 -0.3299734 5.29689714E-09
v -0.283601761 -0.3299734 5.29689714E-09
v -0.323561192 -0.477267325 -5.29689714E-09
v -0.367782384 -0.463957876 -1.13504939E-08
v -0.320390612 -0.318884492 1.70548446E-08
v -0.411116868 -0.448576927 -1.54832378E-08
v -0.35678947 -0.305955738 3.84170562E-09
vt 0.979003906 0.999511719
vt 0.999511719 0.00048828125
vt 0.999511719 0.999511719
vt 0.979003906 -0.00048828125
vt 0.958496094 1.00048828
vt 0.958496094 0.00048828125
vt 0.00048828125 0.999511719
vt 0.00048828125 0.00048828125
vt 0.0209960938 0.00048828125
vt 0.0209960938 1.00048828
vt 0.0209960938 1.00048828
vt 0.0209960938 0.00048828125
vt 0.0415039062 -0.00048828125
vt 0.0415039062 0.999511719
vt 0.0415039062 0.999511719
vt 0.0415039062 -0.00048828125
vt 0.0629882812 0.00048828125
vt 0.0629882812 1.00048828
vt 0.0629882812 1.00048828
vt 0.0629882812 0.00048828125
vt 0.0834960938 -0.00048828125
vt 0.0834960938 1.00048828
vt 0.0834960938 1.00048828
vt 0.0834960938 -0.00048828125
vt 0.104003906 0.00048828125
vt 0.104003906 0.999511719
vt 0.104003906 0.999511719
vt 0.104003906 0.00048828125
vt 0.124511719 0.00048828125
vt 0.125488281 1.00048828
vt 0.125488281 1.00048828
vt 0.124511719 0.00048828125
vt 0.145996094 -0.00048828125
vt 0.145996094 0.999511719
vt 0.145996094 0.999511719
vt 0.145996094 -0.00048828125
vt 0.166503906 0.00048828125
vt 0.166503906 0.999511719
vt 0.166503906 0.999511719
vt 0.166503906 0.00048828125
vt 0.187011719 0.00048828125
vt 0.187988281 1.00048828
vt 0.187988281 1.00048828
vt 0.187011719 0.00048828125
vt 0.208496094 -0.00048828125
vt 0.208496094 0.999511719
vt 0.208496094 0.999511719
vt 0.208496094 -0.00048828125
vt 0.229003906 0.00048828125
vt 0.229003906 1.00048828
vt 0.229003906 1.00048828
vt 0.229003906 0.00048828125
vt 0.249511719 -0.00048828125
vt 0.250488281 1.00048828
vt 0.250488281 1.00048828
vt 0.249511719 -0.00048828125
vt 0.270996094 -0.00048828125
vt 0.270996094 0.999511719
vt 0.270996094 0.999511719
vt 0.270996094 -0.00048828125
vt 0.291503906 0.00048828125
vt 0.291503906 1.00048828
vt 0.291503906 0.00048828125
vt 0.312011719 -0.00048828125
vt 0.312988281 0.999511719
vt 0.312988281 0.999511719
vt 0.312011719 -0.00048828125
vt 0.333496094 0.00048828125
vt 0.333496094 0.999511719
vt 0.333496094 0.999511719
vt 0.333496094 0.00048828125
vt 0.354003906 0.00048828125
vt 0.354003906 1.00048828
vt 0.354003906 1.00048828
vt 0.354003906 0.00048828125
vt 0.374511719 -0.00048828125
vt 0.375488281 0.999511719
vt 0.375488281 0.999511719
vt 0.374511719 -0.00048828125
vt 0.395996094 0.00048828125
vt 0.395996094 1.00048828
vt 0.395996094 1.00048828
vt 0.395996094 0.00048828125
vt 0.416503906 -0.00048828125
vt 0.416503906 1.00048828
vt 0.416503906 1.00048828
vt 0.416503906 -0.00048828125
vt 0.437011719 -0.00048828125
vt 0.437988281 0.999511719
vt 0.437988281 0.999511719
vt 0.437011719 -0.00048828125
vt 0.458496094 0.00048828125
vt 0.458496094 1.00048828
vt 0.458496094 1.00048828
vt 0.458496094 0.00048828125
vt 0.479003906 -0.00048828125
vt 0.479003906 0.999511719
vt 0.479003906 0.999511719
vt 0.479003906 -0.00048828125
vt 0.499511719 0.00048828125
vt 0.500488281 0.999511719
vt 0.500488281 0.999511719
vt 0.499511719 0.00048828125
vt 0.520996094 0.00048828125
vt 0.520996094 1.00048828
vt 0.520996094 1.00048828
vt 0.520996094 0.00048828125
vt 0.541503906 -0.00048828125
vt 0.541503906 0.999511719
vt 0.541503906 0.999511719
vt 0.541503906 -0.00048828125
vt 0.562011719 0.00048828125
vt 0.562988281 1.00048828
vt 0.562988281 1.00048828
vt 0.562011719 0.00048828125
vt 0.583496094 -0.00048828125
vt 0.583496094 1.00048828
vt 0.583496094 1.00048828
vt 0.583496094 -0.00048828125
vt 0.604003906 -0.00048828125
vt 0.604003906 0.999511719
vt 0.604003906 -0.00048828125
vt 0.624511719 0.00048828125
vt 0.625488281 1.00048828
vt 0.625488281 1.00048828
vt 0.624511719 0.00048828125
vt 0.645996094 -0.00048828125
vt 0.645996094 0.999511719
vt 0.645996094 0.999511719
vt 0.645996094 -0.00048828125
vt 0.666503906 0.00048828125
vt 0.666503906 0.999511719
vt 0.666503906 0.999511719
vt 0.666503906 0.00048828125
vt 0.687011719 0.00048828125
vt 0.687988281 1.00048828
vt 0.687988281 1.00048828
vt 0.687011719 0.00048828125
vt 0.708496094 -0.00048828125
vt 0.708496094 0.999511719
vt 0.708496094 -0.00048828125
vt 0.729003906 0.00048828125
vt 0.729003906 1.00048828
vt 0.729003906 1.00048828
vt 0.729003906 0.00048828125
vt 0.749511719 -0.00048828125
vt 0.750488281 1.00048828
vt 0.750488281 1.00048828
vt 0.749511719 -0.00048828125
vt 0.770996094 -0.00048828125
vt 0.770996094 0.999511719
vt 0.770996094 0.999511719
vt 0.770996094 -0.00048828125
vt 0.791503906 0.00048828125
vt 0.791503906 1.00048828
vt 0.791503906 1.00048828
vt 0.791503906 0.00048828125
vt 0.812011719 -0.00048828125
vt 0.812988281 0.999511719
vt 0.812988281 0.999511719
vt 0.812011719 -0.00048828125
vt 0.833496094 0.00048828125
vt 0.833496094 0.999511719
vt 0.833496094 0.999511719
vt 0.833496094 0.00048828125
vt 0.854003906 0.00048828125
vt 0.854003906 1.00048828
vt 0.854003906 1.00048828
vt 0.854003906 0.00048828125
vt 0.874511719 -0.00048828125
vt 0.875488281 0.999511719
vt 0.875488281 0.999511719
vt 0.874511719 -0.00048828125
vt 0.895996094 0.00048828125
vt 0.895996094 0.999511719
vt 0.895996094 0.999511719
vt 0.895996094 0.00048828125
vt 0.916503906 -0.00048828125
vt 0.916503906 1.00048828
vt 0.916503906 1.00048828
vt 0.916503906 -0.00048828125
vt 0.937011719 -0.00048828125
vt 0.937011719 0.999511719
vt 0.958496094 0.00048828125
vt 0.958496094 1.00048828
vn -0 0 1
vn -0 0 1
vn -0 0 1
vn -0 0 1
vn -0 0 1
vn -0 0 1
vn -0 0 1
vn -0 0 1
vn -0 0 1
vn -0 0 1
vn -0 0 1
vn -0 0 1
vn -0 0 1
vn -0 0 1
vn -0 0 1
vn -0 0 1
vn -0 0 1
vn -0 0 1
vn -0 0 1
vn -0 0 1
vn -0 0 1
vn -0 0 1
vn -0 0 1
vn -0 0 1
vn -0 0 1
vn -0 0 1
vn -0 0 1
vn -0 0 1
vn -0 0 1
vn -0 0 1
vn -0 0 1
vn -0 0 1
vn -0 0 1
vn -0 0 1
vn -0 0 1
vn -0 0 1
vn -0 0 1
vn -0 0 1
vn -0 0 1
vn -0 0 1
vn -0 0 1
vn -0 0 1
vn -0 0 1
vn -0 0 1
vn -0 0 1
vn -0 0 1
vn -0 0 1
vn -0 0 1
vn -0 0 1
vn -0 0 1
vn -0 0 1
vn -0 0 1
vn -0 0 1
vn -0 0 1
vn -0 0 1
vn -0 0 1
vn -0 0 1
vn -0 0 1
vn -0 0 1
vn -0 0 1
vn -0 0 1
vn -0 0 1
vn -0 0 1
vn -0 0 1
vn -0 0 1
vn -0 0 1
vn -0 0 1
vn -0 0 1
vn -0 0 1
vn -0 0 1
vn -0 0 1
vn -0 0 1
vn -0 0 1
vn -0 0 1
vn -0 0 1
vn -0 0 1
vn -0 0 1
vn -0 0 1
vn -0 0 1
vn -0 0 1
vn -0 0 1
vn -0 0 1
vn -0 0 1
vn -0 0 1
vn -0 0 1
vn -0 0 1
vn -0 0 1
vn -0 0 1
vn -0 0 1
vn -0 0 1
vn -0 0 1
vn -0 0 1
vn -0 0 1
vn -0 0 1
vn -0 0 1
vn -0 0 1
vn -0 0 1
vn -0 0 1
vn -0 0 1
vn -0 0 1
vn -0 0 1
vn -0 0 1
vn -0 0 1
vn -0 0 1
vn -0 0 1
vn -0 0 1
vn -0 0 1
vn -0 0 1
vn -0 0 1
vn -0 0 1
vn -0 0 1
vn -0 0 1
vn -0 0 1
vn -0 0 1
vn -0 0 1
vn -0 0 1
vn -0 0 1
vn -0 0 1
vn -0 0 1
vn -0 0 1
vn -0 0 1
vn -0 0 1
vn -0 0 1
vn -0 0 1
vn -0 0 1
vn -0 0 1
vn -0 0 1
vn -0 0 1
vn -0 0 1
vn -0 0 1
vn -0 0 1
vn -0 0 1
vn -0 0 1
vn -0 0 1
vn -0 0 1
vn -0 0 1
vn -0 0 1
vn -0 0 1
vn -0 0 1
vn -0 0 1
vn -0 0 1
vn -0 0 1
vn -0 0 1
vn -0 0 1
vn -0 0 1
vn -0 0 1
vn -0 0 1
vn -0 0 1
vn -0 0 1
vn -0 0 1
vn -0 0 1
vn -0 0 1
vn -0 0 1
vn -0 0 1
vn -0 0 1
vn -0 0 1
vn -0 0 1
vn -0 0 1
vn -0 0 1
vn -0 0 1
vn -0 0 1
vn -0 0 1
vn -0 0 1
vn -0 0 1
vn -0 0 1
vn -0 0 1
vn -0 0 1
vn -0 0 1
vn -0 0 1
vn -0 0 1
vn -0 0 1
vn -0 0 1
vn -0 0 1
vn -0 0 1
vn -0 0 1
vn -0 0 1
vn -0 0 1
vn -0 0 1
vn -0 0 1
vn -0 0 1
vn -0 0 1
vn -0 0 1
vn -0 0 1
vn -0 0 1
vn -0 0 1
g general_plane_39_0
f 3/3/3 2/2/2 1/1/1
f 2/2/2 4/4/4 1/1/1
f 1/1/1 4/4/4 5/5/5
f 4/4/4 6/6/6 5/5/5
f 9/9/9 8/8/8 7/7/7
f 10/10/10 9/9/9 7/7/7
f 13/13/13 12/12/12 11/11/11
f 14/14/14 13/13/13 11/11/11
f 17/17/17 16/16/16 15/15/15
f 18/18/18 17/17/17 15/15/15
f 21/21/21 20/20/20 19/19/19
f 22/22/22 21/21/21 19/19/19
f 25/25/25 24/24/24 23/23/23
f 26/26/26 25/25/25 23/23/23
f 29/29/29 28/28/28 27/27/27
f 30/30/30 29/29/29 27/27/27
f 33/33/33 32/32/32 31/31/31
f 34/34/34 33/33/33 31/31/31
f 37/37/37 36/36/36 35/35/35
f 38/38/38 37/37/37 35/35/35
f 41/41/41 40/40/40 39/39/39
f 42/42/42 41/41/41 39/39/39
f 45/45/45 44/44/44 43/43/43
f 46/46/46 45/45/45 43/43/43
f 49/49/49 48/48/48 47/47/47
f 50/50/50 49/49/49 47/47/47
f 53/53/53 52/52/52 51/51/51
f 54/54/54 53/53/53 51/51/51
f 57/57/57 56/56/56 55/55/55
f 58/58/58 57/57/57 55/55/55
f 61/61/61 60/60/60 59/59/59
f 62/62/62 61/61/61 59/59/59
f 64/64/64 63/63/63 62/62/62
f 65/65/65 64/64/64 62/62/62
f 68/68/68 67/67/67 66/66/66
f 69/69/69 68/68/68 66/66/66
f 72/72/72 71/71/71 70/70/70
f 73/73/73 72/72/72 70/70/70
f 76/76/76 75/75/75 74/74/74
f 77/77/77 76/76/76 74/74/74
f 80/80/80 79/79/79 78/78/78
f 81/81/81 80/80/80 78/78/78
f 84/84/84 83/83/83 82/82/82
f 85/85/85 84/84/84 82/82/82
f 88/88/88 87/87/87 86/86/86
f 89/89/89 88/88/88 86/86/86
f 92/92/92 91/91/91 90/90/90
f 93/93/93 92/92/92 90/90/90
f 96/96/96 95/95/95 94/94/94
f 97/97/97 96/96/96 94/94/94
f 100/100/100 99/99/99 98/98/98
f 101/101/101 100/100/100 98/98/98
f 104/104/104 103/103/103 102/102/102
f 105/105/105 104/104/104 102/102/102
f 108/108/108 107/107/107 106/106/106
f 109/109/109 108/108/108 106/106/106
f 112/112/112 111/111/111 110/110/110
f 113/113/113 112/112/112 110/110/110
f 116/116/116 115/115/115 114/114/114
f 117/117/117 116/116/116 114/114/114
f 120/120/120 119/119/119 118/118/118
f 121/121/121 120/120/120 118/118/118
f 123/123/123 122/122/122 121/121/121
f 124/124/124 123/123/123 121/121/121
f 127/127/127 126/126/126 125/125/125
f 128/128/128 127/127/127 125/125/125
f 131/131/131 130/130/130 129/129/129
f 132/132/132 131/131/131 129/129/129
f 135/135/135 134/134/134 133/133/133
f 136/136/136 135/135/135 133/133/133
f 139/139/139 138/138/138 137/137/137
f 140/140/140 139/139/139 137/137/137
f 142/142/142 141/141/141 140/140/140
f 143/143/143 142/142/142 140/140/140
f 146/146/146 145/145/145 144/144/144
f 147/147/147 146/146/146 144/144/144
f 150/150/150 149/149/149 148/148/148
f 151/151/151 150/150/150 148/148/148
f 154/154/154 153/153/153 152/152/152
f 155/155/155 154/154/154 152/152/152
f 158/158/158 157/157/157 156/156/156
f 159/159/159 158/158/158 156/156/156
f 162/162/162 161/161/161 160/160/160
f 163/163/163 162/162/162 160/160/160
f 166/166/166 165/165/165 164/164/164
f 167/167/167 166/166/166 164/164/164
f 170/170/170 169/169/169 168/168/168
f 171/171/171 170/170/170 168/168/168
f 174/174/174 173/173/173 172/172/172
f 175/175/175 174/174/174 172/172/172
f 178/178/178 177/177/177 176/176/176
f 179/179/179 178/178/178 176/176/176
f 182/182/182 181/181/181 180/180/180
f 183/183/183 182/182/182 180/180/180
f 184/184/184 182/182/182 183/183/183
f 185/185/185 184/184/184 183/183/183
