g polySurface4
v 0.00703958375 -0.0585906617 -8.93074102E-05
v 0.0076698768 -0.0485516191 -0.00133459549
v 0.00766273262 -0.0500234403 -0.000114638293
v 0.00705913035 -0.0570164919 -0.00120779255
v 0.00745919906 -0.0471114069 -0.00255339639
v 0.00687963748 -0.0554712228 -0.00232792366
v 0.00703812391 -0.045562353 -0.0037398648
v 0.00650037499 -0.0539562292 -0.00341417058
v 0.00640568556 -0.044047121 -0.00484864693
v 0.00592705281 -0.0524726585 -0.00443090545
v 0.00557556329 -0.0425667241 -0.00584220979
v 0.0051717828 -0.0510213971 -0.00534357037
v 0.00456920639 -0.0410996713 -0.00668695336
v 0.00425384101 -0.0495824479 -0.00612108177
v 0.00341311423 -0.0396463163 -0.00735179894
v 0.00319722225 -0.0481561311 -0.00673461379
v 0.00213843305 -0.0382293984 -0.00780897588
v 0.00203027669 -0.0467634052 -0.00715835951
v 0.000782094954 -0.0368488543 -0.00803796947
v 0.000786732591 -0.0454042554 -0.00737305498
v -0.000615337922 -0.0355042443 -0.00802495424
v -0.000492088497 -0.0439438373 -0.00737419585
v -0.00201091473 -0.0341946334 -0.00776349055
v -0.00177195261 -0.0425197147 -0.00714635849
v -0.00336062792 -0.0329186693 -0.00725487527
v -0.00301225856 -0.041131936 -0.0066899606
v -0.00461866753 -0.0317036398 -0.00650700135
v -0.00417255145 -0.0397800282 -0.00601277733
v -0.00574509846 -0.0305170808 -0.00553845055
v -0.00521385437 -0.0384631678 -0.00512986351
v -0.00670126919 -0.0293563176 -0.00437373389
v -0.00609996123 -0.0371799655 -0.00406326959
v -0.00745261414 -0.0282228533 -0.00304403086
v -0.00679836189 -0.0359334163 -0.00284133898
v -0.00797064416 -0.0271130204 -0.00158671034
v -0.00728207314 -0.0347209983 -0.00149834028
v -0.00823403057 -0.0260181203 -4.41891825E-05
v -0.00753067667 -0.0335350968 -7.34111309E-05
v -0.00822862517 -0.024933802 0.0015376372
v -0.00753042987 -0.03237243 0.0013909298
v -0.00794845168 -0.0238553379 0.00311058434
v -0.00727295317 -0.0312567949 0.00285041169
v -0.0073960498 -0.0227776859 0.00462564966
v -0.00676241377 -0.0301557835 0.0042585358
v -0.00658257632 -0.0216955375 0.00603454141
v -0.00600878056 -0.0290650148 0.00557013741
v -0.00552759692 -0.0206033234 0.00729119265
v -0.00502997031 -0.0279797614 0.00674204342
v -0.00425866572 -0.0194953084 0.00835326035
v -0.00385141629 -0.0268950127 0.00773445284
v -0.00281058508 -0.0183656514 0.00918346643
v -0.00250543258 -0.0258054826 0.00851229019
v -0.0012244808 -0.0172083788 0.00975089706
v -0.00103032391 -0.0247056726 0.00904636644
v 0.000453356828 -0.0160175283 0.0100320196
v 0.000530690362 -0.0235898532 0.00931442343
v 0.00217279163 -0.0147871636 0.0100115603
v 0.00213073334 -0.0224522315 0.0093019437
v 0.00388130662 -0.0135114845 0.0096831508
v 0.00372065348 -0.0212868545 0.00900276471
v 0.00552556431 -0.0121848509 0.00904962607
v 0.00525050517 -0.0200877823 0.00841939822
v 0.00705298828 -0.0108019216 0.00812318083
v 0.00667106453 -0.0188490823 0.00756313559
v 0.00841339957 -0.00935771782 0.0069251433
v 0.00793536752 -0.0175649207 0.00645387685
v 0.00956053939 -0.00784776639 0.00548555609
v 0.00900015607 -0.0162296835 0.00511967298
v 0.0104532894 -0.00627257908 0.00384259853
v 0.00982730184 -0.0148380371 0.00359605462
v 0.0110571384 -0.00463483995 0.00204161881
v 0.0103850542 -0.0133850062 0.0019251029
v 0.0113458671 -0.00293285958 0.000133706635
v 0.010649099 -0.0118664503 0.00015433252
v 0.0113004912 -0.00119158509 -0.00182421261
v 0.0106030824 -0.0102852285 -0.00166427984
v 0.0109114051 0.000556911225 -0.00377138588
v 0.0102399085 -0.00864134729 -0.00347615941
v 0.0101816114 0.00231207674 -0.00564722717
v 0.00956218969 -0.00693302043 -0.00522571336
v 0.0091248285 0.00407333486 -0.00739186443
v 0.00858035032 -0.0051901699 -0.00685588084
v 0.00776531128 0.00584007241 -0.00894803926
v 0.00731495908 -0.00344015029 -0.00831153896
v 0.00613738643 0.00761164771 -0.0102629531
v 0.00579770794 -0.00168348849 -0.00954315625
v 0.00428458769 0.00938740559 -0.0112900576
v 0.0040689595 7.92485444E-05 -0.0105069513
v 0.00225855247 0.0111666583 -0.0119906506
v 0.00217670877 0.00184747519 -0.011166417
v 0.00011757906 0.0129487133 -0.0123352977
v 0.000175272595 0.0036205661 -0.0114936372
v -0.00207503047 0.014732833 -0.0123049663
v -0.00187627017 0.0053978716 -0.0114703961
v -0.00425282028 0.0165182929 -0.0118918987
v -0.00391578395 0.00717870286 -0.011088985
v -0.00634821877 0.0183043331 -0.0111001013
v -0.00587999029 0.00896235928 -0.0103527131
v -0.00829461683 0.0200901758 -0.00994552672
v -0.00770639395 0.0107481033 -0.00927607063
v -0.0100263795 0.0219390132 -0.00845663901
v -0.00933529157 0.0125351846 -0.00788455922
v -0.0114839766 0.0239085928 -0.0066718352
v -0.0107116736 0.0143229719 -0.00621415256
v -0.0126169119 0.0259946808 -0.00463813078
v -0.011785252 0.0161796622 -0.00431060232
v -0.0133829014 0.0281900074 -0.00241122954
v -0.012514648 0.018160928 -0.00222666911
v -0.01374943 0.0304845255 -5.41957452E-05
v -0.0128694605 0.0202624109 -2.1161577E-05
v -0.0136949848 0.0328654833 0.00236411649
v -0.0128295096 0.0224766135 0.00224185199
v -0.0132101756 0.0353178568 0.00477089267
v -0.0123858079 0.0247931909 0.00449471036
v -0.0122984443 0.0378244817 0.0070914086
v -0.0115411915 0.0271989834 0.00666798744
v -0.010976498 0.0403665565 0.00925122295
v -0.010310756 0.0296784248 0.00869251788
v -0.00927435886 0.0429240651 0.011178555
v -0.00872186478 0.0322138071 0.0105014546
v -0.00723491935 0.0454761386 0.0128066307
v -0.00681381673 0.0347856767 0.012032453
v -0.00491310749 0.0480016507 0.014076069
v -0.00463715196 0.0373733304 0.0132297939
v -0.00237459061 0.0504796207 0.0149370879
v -0.00225251052 0.0399552248 0.0140464371
v 0.00030600006 0.0528898463 0.0153515423
v 0.000270906923 0.0425095409 0.0144459149
v 0.00304722739 0.0552133769 0.015294658
v 0.00285722641 0.0450145192 0.0144039458
v 0.00576336356 0.0574329644 0.0147562884
v 0.00542617077 0.0474491455 0.0139097674
v 0.00836717244 0.0595335998 0.0137417996
v 0.00789558608 0.0497936904 0.0129669439
v 0.0107728606 0.0615029037 0.0122722806
v 0.0101841837 0.0520303138 0.0115938494
v 0.0128990607 0.0633315146 0.0103843901
v 0.0122143338 0.0541434288 0.00982348714
v 0.0146718193 0.0650133267 0.00812933873
v 0.0139148664 0.0561203882 0.00770282978
v 0.0160546955 0.0668245032 0.00557750789
v 0.0152249588 0.0579637624 0.00529184099
v 0.0169692896 0.0684803948 0.00279502408
v 0.0160930958 0.05965681 0.00266082049
v 0.0173841529 0.070049122 -0.000133269597
v 0.0164890476 0.0612654239 -0.000110205161
vt 5.1677227E-05 0.999771893
vt 0.0139389038 0.000245392323
vt 5.1677227E-05 0.000245392323
vt 0.0139389038 0.999771893
vt 0.0278261006 0.000245392323
vt 0.0278261006 0.999771893
vt 0.0417133272 0.000245392323
vt 0.0417133272 0.999771893
vt 0.0556005239 0.000245392323
vt 0.0556005239 0.999771893
vt 0.0694877505 0.000245392323
vt 0.0694877505 0.999771893
vt 0.0833749473 0.000245392323
vt 0.0833749473 0.999771893
vt 0.0972621739 0.000245392323
vt 0.0972621739 0.999771893
vt 0.111149371 0.000245392323
vt 0.111149371 0.999771893
vt 0.125036597 0.000245392323
vt 0.125036597 0.999771893
vt 0.138923794 0.000245392323
vt 0.138923794 0.999771893
vt 0.152811021 0.000245392323
vt 0.152811021 0.999771893
vt 0.166698217 0.000245392323
vt 0.166698217 0.999771893
vt 0.180585444 0.000245392323
vt 0.180585444 0.999771893
vt 0.194472641 0.000245392323
vt 0.194472641 0.999771893
vt 0.208359867 0.000245392323
vt 0.208359867 0.999771893
vt 0.222247064 0.000245392323
vt 0.222247064 0.999771893
vt 0.236134291 0.000245392323
vt 0.236134291 0.999771893
vt 0.250021487 0.000245392323
vt 0.250021487 0.999771893
vt 0.263908684 0.000245392323
vt 0.263908684 0.999771893
vt 0.277795911 0.000245392323
vt 0.277795911 0.999771893
vt 0.291683137 0.000245392323
vt 0.291683137 0.999771893
vt 0.305570334 0.000245392323
vt 0.305570334 0.999771893
vt 0.319457531 0.000245392323
vt 0.319457531 0.999771893
vt 0.333344758 0.000245392323
vt 0.333344758 0.999771893
vt 0.347231984 0.000245392323
vt 0.347231984 0.999771893
vt 0.361119181 0.000245392323
vt 0.361119181 0.999771893
vt 0.375006378 0.000245392323
vt 0.375006378 0.999771893
vt 0.388893604 0.000245392323
vt 0.388893604 0.999771893
vt 0.402780831 0.000245392323
vt 0.402780831 0.999771893
vt 0.416668028 0.000245392323
vt 0.416668028 0.999771893
vt 0.430555224 0.000245392323
vt 0.430555224 0.999771893
vt 0.444442451 0.000245392323
vt 0.444442451 0.999771893
vt 0.458329648 0.000245392323
vt 0.458329648 0.999771893
vt 0.472216874 0.000245392323
vt 0.472216874 0.999771893
vt 0.486104071 0.000245392323
vt 0.486104071 0.999771893
vt 0.499991387 0.000245392323
vt 0.499991387 0.999771893
vt 0.513878405 0.000245392323
vt 0.513878405 0.999771893
vt 0.527765572 0.000245392323
vt 0.527765572 0.999771893
vt 0.541652679 0.000245392323
vt 0.541652679 0.999771893
vt 0.555539846 0.000245392323
vt 0.555539846 0.999771893
vt 0.569426954 0.000245392323
vt 0.569426954 0.999771893
vt 0.583314061 0.000245392323
vt 0.583314061 0.999771893
vt 0.597201228 0.000245392323
vt 0.597201228 0.999771893
vt 0.611088336 0.000245392323
vt 0.611088336 0.999771893
vt 0.624975502 0.000245392323
vt 0.624975502 0.999771893
vt 0.63886261 0.000245392323
vt 0.63886261 0.999771893
vt 0.652749777 0.000245392323
vt 0.652749777 0.999771893
vt 0.666636884 0.000245392323
vt 0.666636884 0.999771893
vt 0.680523992 0.000245392323
vt 0.680523992 0.999771893
vt 0.694411159 0.000245392323
vt 0.694411159 0.999771893
vt 0.708298266 0.000245392323
vt 0.708298266 0.999771893
vt 0.722185373 0.000245392323
vt 0.722185373 0.999771893
vt 0.73607254 0.000245392323
vt 0.73607254 0.999771893
vt 0.749959707 0.000245392323
vt 0.749959707 0.999771893
vt 0.763846815 0.000245392323
vt 0.763846815 0.999771893
vt 0.777733922 0.000245392323
vt 0.777733922 0.999771893
vt 0.791621089 0.000245392323
vt 0.791621089 0.999771893
vt 0.805508196 0.000245392323
vt 0.805508196 0.999771893
vt 0.819395304 0.000245392323
vt 0.819395304 0.999771893
vt 0.833282471 0.000245392323
vt 0.833282471 0.999771893
vt 0.847169638 0.000245392323
vt 0.847169638 0.999771893
vt 0.861056685 0.000245392323
vt 0.861056685 0.999771893
vt 0.874943852 0.000245392323
vt 0.874943852 0.999771893
vt 0.888831019 0.000245392323
vt 0.888831019 0.999771893
vt 0.902718127 0.000245392323
vt 0.902718127 0.999771893
vt 0.916605234 0.000245392323
vt 0.916605234 0.999771893
vt 0.930492401 0.000245392323
vt 0.930492401 0.999771893
vt 0.944379508 0.000245392323
vt 0.944379508 0.999771893
vt 0.958266616 0.000245392323
vt 0.958266616 0.999771893
vt 0.972153783 0.000245392323
vt 0.972153783 0.999771893
vt 0.98604095 0.000245392323
vt 0.98604095 0.999771893
vt 0.999928057 0.000245392323
vt 0.999928057 0.999771893
vn -0.994887054 0.0569048487 0.0834368914
vn -0.974548101 0.0568905622 0.216839448
vn -0.994886935 0.0569048449 0.0834369138
vn -0.991190851 0.0570031703 0.119545817
vn -0.921974003 0.056494683 0.383108705
vn -0.955035746 0.0567413084 0.29101038
vn -0.840636909 0.0559846275 0.538697898
vn -0.889342904 0.0562757514 0.453764439
vn -0.734669268 0.0555000044 0.676151454
vn -0.796364725 0.0557665229 0.602240264
vn -0.60637176 0.0550580658 0.793272913
vn -0.678895414 0.0552949831 0.732149959
vn -0.459501088 0.0546685494 0.886493146
vn -0.54056114 0.0548721664 0.839513361
vn -0.298977405 0.0543431975 0.952711523
vn -0.385385543 0.0545089617 0.921144247
vn -0.130130112 0.0540917031 0.990020394
vn -0.218484893 0.0542149395 0.974333167
vn 0.0424688458 0.0540157966 0.997636557
vn -0.0474973433 0.0540258102 0.997409284
vn 0.213471234 0.0542777106 0.975440383
vn 0.126573697 0.0540869758 0.990481555
vn 0.377890468 0.054905396 0.9242208
vn 0.296977639 0.0545391068 0.953325629
vn 0.530547023 0.0559099652 0.845809639
vn 0.457920313 0.0553643405 0.887267649
vn 0.667105854 0.0572748892 0.742757857
vn 0.604661465 0.0565755889 0.794470727
vn 0.78421855 0.0589685962 0.617676258
vn 0.732913852 0.0581394695 0.677832603
vn 0.878103256 0.0609395318 0.474574536
vn 0.838906527 0.0600122213 0.540956914
vn 0.946104288 0.0631117001 0.317653388
vn 0.919563413 0.0621291511 0.387998939
vn 0.986322165 0.0653890148 0.151303753
vn 0.972551525 0.0643960536 0.223599359
vn 0.997512221 0.0676572025 -0.0197972506
vn 0.99638927 0.0667026341 0.052529294
vn 0.979183257 0.0697591007 -0.1906147
vn 0.990289629 0.0689186156 -0.120733596
vn 0.931660295 0.0715187043 -0.356222004
vn 0.954341054 0.0708543286 -0.290194422
vn 0.85607028 0.0728085339 -0.511705458
vn 0.889550209 0.072352834 -0.45107156
vn 0.754334927 0.0735235959 -0.652359664
vn 0.797627687 0.0733130872 -0.598677933
vn 0.629191875 0.0735838786 -0.773758948
vn 0.681125462 0.0736413524 -0.728453875
vn 0.484168589 0.0729529336 -0.871928036
vn 0.543386817 0.0732854381 -0.836277485
vn 0.323531628 0.0716430321 -0.943501234
vn 0.388492107 0.0722410008 -0.918615878
vn 0.152180552 0.0697175264 -0.985890746
vn 0.221166596 0.0705540553 -0.972680509
vn -0.0244899783 0.0672862306 -0.997433126
vn 0.0466316938 0.0683189407 -0.99657321
vn -0.200785801 0.0644978583 -0.977509558
vn -0.129562929 0.065670304 -0.989394128
vn -0.370956242 0.0615262762 -0.926609933
vn -0.301769227 0.0627724305 -0.951312184
vn -0.529426754 0.0585540347 -0.84633249
vn -0.464471996 0.0598029122 -0.88356626
vn -0.671040475 0.0557551421 -0.73932147
vn -0.612503648 0.0569367222 -0.788414538
vn -0.791274667 0.0532798842 -0.60913533
vn -0.741254091 0.0543305241 -0.669022024
vn -0.88637042 0.0512490831 -0.460131437
vn -0.846818507 0.0521128103 -0.529322922
vn -0.953512132 0.0497380905 -0.297221601
vn -0.926124692 0.0503769815 -0.373838335
vn -0.990887761 0.0487549007 -0.125556841
vn -0.97701925 0.0491618365 -0.207403943
vn -0.997613788 0.0482606553 0.0493726507
vn -0.998209596 0.0484470837 -0.035078682
vn -0.973863184 0.048170913 0.22196871
vn -0.989276528 0.0481737852 0.137881145
vn -0.920718968 0.0483505838 0.38721931
vn -0.950663567 0.0482355393 0.306450665
vn -0.839836717 0.0486803278 0.540651977
vn -0.883427441 0.0485018604 0.466051131
vn -0.733621359 0.0491041988 0.677782059
vn -0.789366961 0.0488835797 0.611972392
vn -0.605294287 0.0496011972 0.794454813
vn -0.671380758 0.0493468344 0.7394678
vn -0.458761603 0.0501515456 0.887142956
vn -0.533126056 0.049874261 0.844564497
vn -0.298435003 0.0507315099 0.953080654
vn -0.378776997 0.050443545 0.92411226
vn -0.129130244 0.051316034 0.990298867
vn -0.212984383 0.0510299169 0.975722134
vn 0.0440741032 0.0518797748 0.997680306
vn -0.0407366343 0.0516079441 0.997836292
vn 0.215979025 0.0523982383 0.974990964
vn 0.132782072 0.0521524288 0.989772141
vn 0.381419063 0.0528489649 0.922890246
vn 0.302341908 0.0526396632 0.951744974
vn 0.535408616 0.0532126911 0.842915237
vn 0.462818235 0.0530484766 0.88486445
vn 0.674271762 0.0532351919 0.736561894
vn 0.609689355 0.0532795303 0.790847778
vn 0.793755472 0.0522979498 0.605984509
vn 0.738988578 0.0528932139 0.671638489
vn 0.888992608 0.0502600633 0.455155075
vn 0.845416605 0.0513992533 0.531628489
vn 0.956081331 0.0477704555 0.289182276
vn 0.925608039 0.0490726493 0.375288576
vn 0.99241966 0.0453917235 0.114205271
vn 0.977272689 0.0466154814 0.206797123
vn 0.997026145 0.0433456823 -0.0637175143
vn 0.998499036 0.0444042087 0.0320613123
vn 0.970181882 0.0417435355 -0.238756046
vn 0.988763034 0.042567905 -0.143302545
vn 0.913239181 0.0406535938 -0.405390531
vn 0.948608756 0.0411985144 -0.313757926
vn 0.828482807 0.0400996171 -0.558576941
vn 0.879563928 0.0403468087 -0.474066794
vn 0.718969941 0.0400646105 -0.693885326
vn 0.784023762 0.0400217175 -0.619439244
vn 0.588366807 0.040497534 -0.807579279
vn 0.665109932 0.0401946567 -0.745662868
vn 0.440810531 0.0413195081 -0.896648645
vn 0.526531816 0.0408055447 -0.849175572
vn 0.28077215 0.0424331985 -0.9588359
vn 0.372465879 0.0417689569 -0.927105367
vn 0.11295063 0.043731004 -0.992637753
vn 0.207432747 0.0429834351 -0.977304459
vn -0.0578239337 0.0451043434 -0.99730742
vn 0.036207471 0.0443393625 -0.998360097
vn -0.22669147 0.0464521386 -0.97285831
vn -0.136271685 0.0457285494 -0.98961556
vn -0.388856858 0.0476904958 -0.920062959
vn -0.304999292 0.0470531359 -0.951189518
vn -0.539692163 0.0487597622 -0.840449274
vn -0.464995414 0.0482357964 -0.883998096
vn -0.674836814 0.0496312268 -0.736296117
vn -0.61141187 0.0492271408 -0.789779842
vn -0.790344536 0.0503139608 -0.6105932
vn -0.739661694 0.0500142314 -0.671117961
vn -0.883691132 0.0508468784 -0.46530056
vn -0.845820725 0.0506248884 -0.531059682
vn -0.951187789 0.05133982 -0.304312289
vn -0.925983965 0.0511299893 -0.37408489
vn -0.989179254 0.0518471599 -0.137245253
vn -0.977113366 0.0516378284 -0.206356913
vn -0.99499315 0.0518374592 -0.0854487196
vn -0.99499315 0.0518374592 -0.0854487196
g polySurface4_0
f 3/3/3 2/2/2 1/1/1
f 2/2/2 4/4/4 1/1/1
f 2/2/2 5/5/5 4/4/4
f 5/5/5 6/6/6 4/4/4
f 5/5/5 7/7/7 6/6/6
f 7/7/7 8/8/8 6/6/6
f 7/7/7 9/9/9 8/8/8
f 9/9/9 10/10/10 8/8/8
f 9/9/9 11/11/11 10/10/10
f 11/11/11 12/12/12 10/10/10
f 11/11/11 13/13/13 12/12/12
f 13/13/13 14/14/14 12/12/12
f 13/13/13 15/15/15 14/14/14
f 15/15/15 16/16/16 14/14/14
f 15/15/15 17/17/17 16/16/16
f 17/17/17 18/18/18 16/16/16
f 17/17/17 19/19/19 18/18/18
f 19/19/19 20/20/20 18/18/18
f 19/19/19 21/21/21 20/20/20
f 21/21/21 22/22/22 20/20/20
f 21/21/21 23/23/23 22/22/22
f 23/23/23 24/24/24 22/22/22
f 23/23/23 25/25/25 24/24/24
f 25/25/25 26/26/26 24/24/24
f 25/25/25 27/27/27 26/26/26
f 27/27/27 28/28/28 26/26/26
f 27/27/27 29/29/29 28/28/28
f 29/29/29 30/30/30 28/28/28
f 29/29/29 31/31/31 30/30/30
f 31/31/31 32/32/32 30/30/30
f 31/31/31 33/33/33 32/32/32
f 33/33/33 34/34/34 32/32/32
f 33/33/33 35/35/35 34/34/34
f 35/35/35 36/36/36 34/34/34
f 35/35/35 37/37/37 36/36/36
f 37/37/37 38/38/38 36/36/36
f 37/37/37 39/39/39 38/38/38
f 39/39/39 40/40/40 38/38/38
f 39/39/39 41/41/41 40/40/40
f 41/41/41 42/42/42 40/40/40
f 41/41/41 43/43/43 42/42/42
f 43/43/43 44/44/44 42/42/42
f 43/43/43 45/45/45 44/44/44
f 45/45/45 46/46/46 44/44/44
f 45/45/45 47/47/47 46/46/46
f 47/47/47 48/48/48 46/46/46
f 47/47/47 49/49/49 48/48/48
f 49/49/49 50/50/50 48/48/48
f 49/49/49 51/51/51 50/50/50
f 51/51/51 52/52/52 50/50/50
f 51/51/51 53/53/53 52/52/52
f 53/53/53 54/54/54 52/52/52
f 53/53/53 55/55/55 54/54/54
f 55/55/55 56/56/56 54/54/54
f 55/55/55 57/57/57 56/56/56
f 57/57/57 58/58/58 56/56/56
f 57/57/57 59/59/59 58/58/58
f 59/59/59 60/60/60 58/58/58
f 59/59/59 61/61/61 60/60/60
f 61/61/61 62/62/62 60/60/60
f 61/61/61 63/63/63 62/62/62
f 63/63/63 64/64/64 62/62/62
f 63/63/63 65/65/65 64/64/64
f 65/65/65 66/66/66 64/64/64
f 65/65/65 67/67/67 66/66/66
f 67/67/67 68/68/68 66/66/66
f 67/67/67 69/69/69 68/68/68
f 69/69/69 70/70/70 68/68/68
f 69/69/69 71/71/71 70/70/70
f 71/71/71 72/72/72 70/70/70
f 71/71/71 73/73/73 72/72/72
f 73/73/73 74/74/74 72/72/72
f 73/73/73 75/75/75 74/74/74
f 75/75/75 76/76/76 74/74/74
f 75/75/75 77/77/77 76/76/76
f 77/77/77 78/78/78 76/76/76
f 77/77/77 79/79/79 78/78/78
f 79/79/79 80/80/80 78/78/78
f 79/79/79 81/81/81 80/80/80
f 81/81/81 82/82/82 80/80/80
f 81/81/81 83/83/83 82/82/82
f 83/83/83 84/84/84 82/82/82
f 83/83/83 85/85/85 84/84/84
f 85/85/85 86/86/86 84/84/84
f 85/85/85 87/87/87 86/86/86
f 87/87/87 88/88/88 86/86/86
f 87/87/87 89/89/89 88/88/88
f 89/89/89 90/90/90 88/88/88
f 89/89/89 91/91/91 90/90/90
f 91/91/91 92/92/92 90/90/90
f 91/91/91 93/93/93 92/92/92
f 93/93/93 94/94/94 92/92/92
f 93/93/93 95/95/95 94/94/94
f 95/95/95 96/96/96 94/94/94
f 95/95/95 97/97/97 96/96/96
f 97/97/97 98/98/98 96/96/96
f 97/97/97 99/99/99 98/98/98
f 99/99/99 100/100/100 98/98/98
f 99/99/99 101/101/101 100/100/100
f 101/101/101 102/102/102 100/100/100
f 101/101/101 103/103/103 102/102/102
f 103/103/103 104/104/104 102/102/102
f 103/103/103 105/105/105 104/104/104
f 105/105/105 106/106/106 104/104/104
f 105/105/105 107/107/107 106/106/106
f 107/107/107 108/108/108 106/106/106
f 107/107/107 109/109/109 108/108/108
f 109/109/109 110/110/110 108/108/108
f 109/109/109 111/111/111 110/110/110
f 111/111/111 112/112/112 110/110/110
f 111/111/111 113/113/113 112/112/112
f 113/113/113 114/114/114 112/112/112
f 113/113/113 115/115/115 114/114/114
f 115/115/115 116/116/116 114/114/114
f 115/115/115 117/117/117 116/116/116
f 117/117/117 118/118/118 116/116/116
f 117/117/117 119/119/119 118/118/118
f 119/119/119 120/120/120 118/118/118
f 119/119/119 121/121/121 120/120/120
f 121/121/121 122/122/122 120/120/120
f 121/121/121 123/123/123 122/122/122
f 123/123/123 124/124/124 122/122/122
f 123/123/123 125/125/125 124/124/124
f 125/125/125 126/126/126 124/124/124
f 125/125/125 127/127/127 126/126/126
f 127/127/127 128/128/128 126/126/126
f 127/127/127 129/129/129 128/128/128
f 129/129/129 130/130/130 128/128/128
f 129/129/129 131/131/131 130/130/130
f 131/131/131 132/132/132 130/130/130
f 131/131/131 133/133/133 132/132/132
f 133/133/133 134/134/134 132/132/132
f 133/133/133 135/135/135 134/134/134
f 135/135/135 136/136/136 134/134/134
f 135/135/135 137/137/137 136/136/136
f 137/137/137 138/138/138 136/136/136
f 137/137/137 139/139/139 138/138/138
f 139/139/139 140/140/140 138/138/138
f 139/139/139 141/141/141 140/140/140
f 141/141/141 142/142/142 140/140/140
f 141/141/141 143/143/143 142/142/142
f 143/143/143 144/144/144 142/142/142
f 143/143/143 145/145/145 144/144/144
f 145/145/145 146/146/146 144/144/144
