g general_range_11_2
v 0.0725612417 0.0732685104 -1.19369554E-08
v 0.0832295194 0.0832195655 -1.34782034E-08
v 0.249533758 0.0829676017 -1.35171376E-08
v 0.240065321 0.0734131038 -1.19605126E-08
v 0.249161482 4.96089233E-05 -8.08231867E-12
v 0.239540055 5.33189377E-05 -8.68675704E-12
v 0.240065321 -0.0726443157 1.11779839E-08
v 0.249161482 6.86694475E-05 3.19695626E-09
v 0.239540055 6.49594294E-05 3.19723625E-09
v 0.249533758 -0.082198821 1.18993304E-08
v 0.0736568272 -0.0724997222 1.1167069E-08
v 0.0834045857 -0.0830849037 1.18812871E-08
v 0.0736734718 -0.0725963935 1.18274528E-08
v 0.0832358673 -0.0830601081 1.36655149E-08
v 0.0833725706 -0.249533758 4.06542071E-08
v 0.0738180578 -0.240065306 3.91116011E-08
v 4.95931381E-05 -0.249161482 4.05935552E-08
v 5.33189377E-05 -0.239540055 3.90260233E-08
v -0.0736998022 -0.240065306 3.84543242E-08
v -0.0832543075 -0.249533758 3.91616517E-08
v 6.86641797E-05 -0.249161482 4.38016983E-08
v 6.49594294E-05 -0.239540055 4.22338431E-08
v 0.0721165687 0.240065351 -3.97688815E-08
v -6.86852291E-05 0.249691695 -3.73854121E-08
v -6.49594294E-05 0.240070269 -3.58182035E-08
v 0.0832904875 0.249874681 -4.21467625E-08
v 0.0724629164 0.0731381178 -1.23803812E-08
v 0.0833958536 0.0834381729 -1.50454706E-08
v -0.0723826438 0.240065351 -3.91116046E-08
v -0.0819371566 0.249533758 -4.06542071E-08
v -4.96141874E-05 0.249691695 -4.05935552E-08
v -5.33189377E-05 0.240070269 -3.90260233E-08
vt 0.0112304688 -0.00048828125
vt 0.0112304688 1.00048828
vt 0.791503906 1.00048828
vt 0.791503906 -0.00048828125
vt 0.989746094 1.00048828
vt 0.989746094 -0.00048828125
vt 0.791503906 -0.00048828125
vt 0.989746094 1.00048828
vt 0.989746094 -0.00048828125
vt 0.791503906 1.00048828
vt 0.0112304688 -0.00048828125
vt 0.0112304688 1.00048828
vt -0.724121094 -0.00048828125
vt -0.724121094 1.00048828
vt 0.0561523438 1.00048828
vt 0.0561523438 -0.00048828125
vt 0.254394531 1.00048828
vt 0.254394531 -0.00048828125
vt 0.0561523438 -0.00048828125
vt 0.0561523438 1.00048828
vt 0.254394531 1.00048828
vt 0.254394531 -0.00048828125
vt 0.522949219 -0.00048828125
vt 0.721191406 1.00048828
vt 0.721191406 -0.00048828125
vt 0.522949219 1.00048828
vt -0.257324219 -0.00048828125
vt -0.257324219 1.00048828
vt 0.522949219 -0.00048828125
vt 0.522949219 1.00048828
vt 0.721191406 1.00048828
vt 0.721191406 -0.00048828125
vn -0 0 1
vn -0 0 1
vn -0 0 1
vn -0 0 1
vn -0 0 1
vn -0 0 1
vn -0 0 -1
vn -0 0 -1
vn -0 0 -1
vn -0 0 -1
vn -0 0 -1
vn -0 0 -1
vn -0 0 1
vn -0 0 1
vn -0 0 1
vn -0 0 1
vn -0 0 1
vn -0 0 1
vn -0 0 -1
vn -0 0 -1
vn -0 0 -1
vn -0 0 -1
vn -0 0 -1
vn -0 0 -1
vn -0 0 -1
vn -0 0 -1
vn -0 0 -1
vn -0 0 -1
vn -0 0 1
vn -0 0 1
vn -0 0 1
vn -0 0 1
g general_range_11_2_0
f 3/3/3 2/2/2 1/1/1
f 4/4/4 3/3/3 1/1/1
f 5/5/5 3/3/3 4/4/4
f 6/6/6 5/5/5 4/4/4
f 9/9/9 8/8/8 7/7/7
f 8/8/8 10/10/10 7/7/7
f 7/7/7 10/10/10 11/11/11
f 10/10/10 12/12/12 11/11/11
f 15/15/15 14/14/14 13/13/13
f 16/16/16 15/15/15 13/13/13
f 17/17/17 15/15/15 16/16/16
f 18/18/18 17/17/17 16/16/16
f 21/21/21 20/20/20 19/19/19
f 22/22/22 21/21/21 19/19/19
f 25/25/25 24/24/24 23/23/23
f 24/24/24 26/26/26 23/23/23
f 23/23/23 26/26/26 27/27/27
f 26/26/26 28/28/28 27/27/27
f 31/31/31 30/30/30 29/29/29
f 32/32/32 31/31/31 29/29/29
