g narant_s3_test003
v -0.0902283639 0.0226841867 -2.95427349E-09
v -0.0915890634 0.0213259589 -2.75397083E-09
v -0.103001185 0.0324928537 -1.37698597E-09
v -0.0994228497 0.0364664719 -1.47713664E-09
v -0.116235368 0.0449213646 6.82121032E-16
v -0.0884689167 0.0238868259 -3.13550008E-09
v -0.112074815 0.0541370846 6.82121032E-16
v -0.12968193 0.057590995 1.37698519E-09
v -0.0945193022 0.0393238664 -1.5677496E-09
v -0.12095359 0.0687856153 1.47713741E-09
v -0.145091638 0.0747527331 2.75397083E-09
v -0.132857949 0.0890130028 2.95427505E-09
v -0.0899112001 0.0409116708 -1.64882541E-09
v -0.0851376504 0.0248928964 -3.29765104E-09
v -0.105419822 0.0594318733 1.36424206E-15
v -0.11262092 0.0756340697 1.5677516E-09
v -0.119705848 0.096601814 3.13550164E-09
v -0.0962952897 0.0641425028 6.66982859E-16
v -0.101011634 0.0821364447 1.64882608E-09
v -0.105704084 0.102267504 3.29765104E-09
v -0.0835893899 0.0417731777 -1.72036196E-09
v -0.0822513178 0.0249844696 -3.44072437E-09
v -0.0861358419 0.0665421113 6.66982859E-16
v -0.0887561664 0.0861069709 1.72036263E-09
v -0.0910991877 0.105538793 3.44072504E-09
v -0.0761665478 0.0867263824 1.7823607E-09
v -0.0755751207 0.107105628 3.56472096E-09
v -0.0757685006 0.042013634 -1.7823607E-09
v -0.075784348 0.0249450654 -3.56472163E-09
v -0.0767579749 0.0663471222 -6.66982859E-16
v -0.0651146546 0.0868144855 1.83482218E-09
v -0.0638013184 0.107761264 3.66964281E-09
v -0.0664279982 0.0658677071 6.66982859E-16
v -0.0669796839 0.0415450819 -1.83482085E-09
v -0.0690546781 0.0239615105 -3.66964215E-09
v -0.0593682006 0.0222070701 -3.75548703E-09
v -0.0529408827 0.0863223597 1.87774396E-09
v -0.0507984459 0.107694119 3.75548703E-09
v -0.0550833344 0.0649505928 0
v -0.0564756803 0.0410139337 -1.87774329E-09
v -0.0505235009 0.0203407407 -3.82225451E-09
v -0.0405756868 0.0851641446 1.91112903E-09
v -0.0372597538 0.106771931 3.8222554E-09
v -0.043891646 0.0635563433 1.33396572E-15
v -0.0467371941 0.039667476 -1.91112703E-09
v -0.0284630898 0.0831775367 1.9349724E-09
v -0.0237470344 0.104802787 3.8699457E-09
v -0.0331791677 0.0615523048 0
v -0.0373117067 0.0376570523 -1.9349724E-09
v -0.0426112972 0.0183018353 -3.86994525E-09
v -0.0344759673 0.0159548614 -3.89856014E-09
v -0.0167367999 0.0804513395 1.94928118E-09
v -0.0108237443 0.101950154 3.89856147E-09
v -0.0226498581 0.0589525104 6.66982859E-16
v -0.0123734623 0.0558609627 -3.3349143E-16
v -0.0281259138 0.0354687534 -1.94927985E-09
v -0.0262160692 0.0133547485 -3.90809785E-09
v -0.00545216026 0.077114068 1.95404803E-09
v 0.00146914681 0.0983671919 3.90809785E-09
v 0.0129537089 0.0942706689 3.89856059E-09
v -0.0190042499 0.0329083614 -1.95404937E-09
v -0.0175597165 0.0104640583 -3.89856014E-09
v 0.00532533461 0.0733190253 1.94928051E-09
v 0.0240464024 0.0896307603 3.8699457E-09
v -0.00978737976 0.030426126 -1.94927985E-09
v -0.00986208394 0.00784757268 -3.86994525E-09
v -0.00230302429 0.052367378 6.66982859E-16
v 0.0155692799 0.0691849515 1.9349724E-09
v 0.0357258022 0.083760269 3.8222554E-09
v -0.000680160534 0.0270239692 -1.93497174E-09
v -0.00269673555 0.00521100638 -3.82225451E-09
v 0.00709218252 0.0487391539 6.66982859E-16
v 0.0261201672 0.06412296 1.91112837E-09
v 0.0481859185 0.0763354823 3.75548703E-09
v 0.00732635707 0.0242890604 -1.91112703E-09
v 0.00617912319 0.00138946157 -3.75548703E-09
v 0.0165145341 0.0444856398 6.66982859E-16
v 0.0376842022 0.0575989969 1.87774396E-09
v 0.0573623814 0.0698928833 3.66964281E-09
v 0.0166808255 0.0201259702 -1.87774329E-09
v 0.0145051349 -0.00229529594 -3.66964215E-09
v 0.0271825269 0.0388624817 6.66982859E-16
v 0.0466480702 0.0518458374 1.83482152E-09
v 0.0673269853 0.0624341965 3.56472296E-09
v 0.025219446 0.0157517511 -1.83482085E-09
v 0.0242956355 -0.00684007304 -3.56472163E-09
v 0.0359337553 0.0337987915 0
v 0.0565691739 0.0451156087 1.78236137E-09
v 0.0773669928 0.0543670543 3.44072504E-09
v 0.0350534953 0.0104784817 -1.7823607E-09
v 0.0343570262 -0.0115581332 -3.44072437E-09
v 0.0458113328 0.0277970489 6.66982859E-16
v 0.0666145086 0.037885759 1.72036263E-09
v 0.0867109448 0.0461042635 3.29765237E-09
v 0.0451095179 0.00492316065 -1.72036196E-09
v 0.0435092673 -0.0157425813 -3.29765104E-09
v 0.0558620058 0.0214044545 0
v 0.0759104937 0.0306425653 1.64882663E-09
v 0.0949850082 0.0376934595 3.13550164E-09
v 0.0543096513 -0.000280860928 -1.64882541E-09
v 0.0504412614 -0.0185321625 -3.13550097E-09
v 0.0651100799 0.0151808513 6.66982859E-16
v 0.083849065 0.0236370564 1.56775093E-09
v 0.107374795 0.0232295282 2.95427505E-09
v 0.0615771934 -0.0044757654 -1.56775093E-09
v 0.0563794933 -0.0211251266 -2.95427416E-09
v 0.0727131367 0.00958065037 6.66982859E-16
v 0.0946259648 0.012140858 1.47713741E-09
v 0.113891318 0.0105403177 2.75397261E-09
v 0.0691283122 -0.0100364694 -1.47713741E-09
v 0.0624714121 -0.0245813951 -2.75397194E-09
v 0.0818771422 0.0010521966 0
v 0.100656755 0.00200002291 1.37698719E-09
v 0.118163854 -0.00104700471 2.53459276E-09
v 0.0741876289 -0.0150805786 -1.37698586E-09
v 0.0692117363 -0.0294066519 -2.53459143E-09
v 0.0874221846 -0.00654027984 6.66982859E-16
v 0.105571583 -0.0082284892 1.26729716E-09
v 0.122024149 -0.0147290546 2.29613706E-09
v 0.0803870261 -0.0225914959 -1.26729582E-09
v 0.0753647983 -0.0350865684 -2.29613573E-09
v 0.092979297 -0.0154099856 0
v 0.110029347 -0.0200754907 1.14806864E-09
v 0.123978294 -0.0279172789 2.03860417E-09
v 0.112880193 -0.031491477 1.01930298E-09
v 0.0860397518 -0.0307682622 -1.14806797E-09
v 0.0815585032 -0.0415552966 -2.03860351E-09
v 0.0906840265 -0.0386400297 -1.01930153E-09
v 0.0980345681 -0.0254218727 1.33396572E-15
v 0.101782128 -0.0350658074 6.66982859E-16
vt 0.25000003 0
vt 0.225000024 0
vt 0.225000024 0.25
vt 0.25000003 0.25
vt 0.225000024 0.5
vt 0.275000036 0
vt 0.25000003 0.5
vt 0.225000024 0.75
vt 0.275000036 0.25
vt 0.25000003 0.75
vt 0.225000024 1
vt 0.25000003 1
vt 0.300000042 0.25
vt 0.300000042 0
vt 0.275000036 0.5
vt 0.275000036 0.75
vt 0.275000036 1
vt 0.300000042 0.5
vt 0.300000042 0.75
vt 0.300000042 1
vt 0.325000048 0.25
vt 0.325000048 0
vt 0.325000048 0.5
vt 0.325000048 0.75
vt 0.325000048 1
vt 0.350000054 0.75
vt 0.350000054 1
vt 0.350000054 0.25
vt 0.350000054 0
vt 0.350000054 0.5
vt 0.37500006 0.75
vt 0.37500006 1
vt 0.37500006 0.5
vt 0.37500006 0.25
vt 0.37500006 0
vt 0.400000066 0
vt 0.400000066 0.75
vt 0.400000066 1
vt 0.400000066 0.5
vt 0.400000066 0.25
vt 0.425000072 0
vt 0.425000072 0.75
vt 0.425000072 1
vt 0.425000072 0.5
vt 0.425000072 0.25
vt 0.450000077 0.75
vt 0.450000077 1
vt 0.450000077 0.5
vt 0.450000077 0.25
vt 0.450000077 0
vt 0.475000083 0
vt 0.475000083 0.75
vt 0.475000083 1
vt 0.475000083 0.5
vt 0.50000006 0.5
vt 0.475000083 0.25
vt 0.50000006 0
vt 0.50000006 0.75
vt 0.50000006 1
vt 0.525000036 1
vt 0.50000006 0.25
vt 0.525000036 0
vt 0.525000036 0.75
vt 0.550000012 1
vt 0.525000036 0.25
vt 0.550000012 0
vt 0.525000036 0.5
vt 0.550000012 0.75
vt 0.574999988 1
vt 0.550000012 0.25
vt 0.574999988 0
vt 0.550000012 0.5
vt 0.574999988 0.75
vt 0.599999964 1
vt 0.574999988 0.25
vt 0.599999964 0
vt 0.574999988 0.5
vt 0.599999964 0.75
vt 0.62499994 1
vt 0.599999964 0.25
vt 0.62499994 0
vt 0.599999964 0.5
vt 0.62499994 0.75
vt 0.649999917 1
vt 0.62499994 0.25
vt 0.649999917 0
vt 0.62499994 0.5
vt 0.649999917 0.75
vt 0.674999893 1
vt 0.649999917 0.25
vt 0.674999893 0
vt 0.649999917 0.5
vt 0.674999893 0.75
vt 0.699999869 1
vt 0.674999893 0.25
vt 0.699999869 0
vt 0.674999893 0.5
vt 0.699999869 0.75
vt 0.724999845 1
vt 0.699999869 0.25
vt 0.724999845 0
vt 0.699999869 0.5
vt 0.724999845 0.75
vt 0.749999821 1
vt 0.724999845 0.25
vt 0.749999821 0
vt 0.724999845 0.5
vt 0.749999821 0.75
vt 0.774999797 1
vt 0.749999821 0.25
vt 0.774999797 0
vt 0.749999821 0.5
vt 0.774999797 0.75
vt 0.799999774 1
vt 0.774999797 0.25
vt 0.799999774 0
vt 0.774999797 0.5
vt 0.799999774 0.75
vt 0.82499975 1
vt 0.799999774 0.25
vt 0.82499975 0
vt 0.799999774 0.5
vt 0.82499975 0.75
vt 0.849999726 1
vt 0.849999726 0.75
vt 0.82499975 0.25
vt 0.849999726 0
vt 0.849999726 0.25
vt 0.82499975 0.5
vt 0.849999726 0.5
vn 8.88614764E-08 -4.75122235E-08 1
vn 9.74439587E-08 -3.39142439E-08 1
vn 8.43796144E-08 -3.39282629E-08 1
vn 7.155068E-08 -4.58403591E-08 1
vn 6.99766787E-08 -3.96125266E-08 1
vn 6.88105644E-08 -7.22698417E-08 1
vn 5.90801363E-08 -5.23761869E-08 1
vn 5.63299558E-08 -4.72563642E-08 1
vn 5.26357411E-08 -6.44390212E-08 1
vn 4.66149217E-08 -5.67805927E-08 1
vn 4.15256238E-08 -4.59997267E-08 1
vn 3.41336346E-08 -5.42959313E-08 1
vn 3.50635503E-08 -7.57606955E-08 1
vn 4.4526054E-08 -8.99946855E-08 1
vn 4.29161524E-08 -6.67950673E-08 1
vn 3.52909346E-08 -7.05364158E-08 1
vn 2.61495146E-08 -6.65270505E-08 1
vn 2.82433739E-08 -7.41311865E-08 1
vn 2.43172416E-08 -7.95554911E-08 1
vn 1.90787315E-08 -7.7230105E-08 1
vn 1.7010592E-08 -8.38464302E-08 1
vn 2.3484672E-08 -9.98263019E-08 1
vn 1.02120747E-08 -7.85492418E-08 1
vn -0 -8.58866827E-08 1
vn -0 -8.53685549E-08 1
vn -0 -8.76038158E-08 1
vn -0 -8.7635641E-08 1
vn -0 -8.77886848E-08 1
vn -0 -1.03683853E-07 1
vn -0 -8.01465774E-08 1
vn -0 -8.72473294E-08 1
vn -0 -8.72419221E-08 1
vn -0 -8.14598593E-08 1
vn -0 -8.92128895E-08 1
vn -0 -1.02823208E-07 1
vn -0 -9.92882292E-08 1
vn -0 -8.69667147E-08 1
vn -0 -8.69584511E-08 1
vn -0 -8.2350553E-08 1
vn -0 -8.81562983E-08 1
vn -1.4849026E-08 -9.62402211E-08 1
vn -1.34491271E-08 -8.63782574E-08 1
vn -1.35281137E-08 -8.63663416E-08 1
vn -1.24910891E-08 -8.24750472E-08 1
vn -1.320028E-08 -8.71269989E-08 1
vn -1.85147311E-08 -8.54410445E-08 1
vn -1.85646005E-08 -8.54300382E-08 1
vn -1.74335462E-08 -8.19493522E-08 1
vn -1.82430355E-08 -8.62208367E-08 1
vn -2.0032612E-08 -9.42631004E-08 1
vn -2.40261606E-08 -9.21096941E-08 1
vn -2.30735733E-08 -8.43229699E-08 1
vn -2.30963284E-08 -8.43166887E-08 1
vn -2.17370602E-08 -8.13249059E-08 1
vn -2.52963659E-08 -8.09471103E-08 1
vn -2.22660557E-08 -8.50480149E-08 1
vn -2.67446012E-08 -8.96482391E-08 1
vn -2.69171583E-08 -8.31751166E-08 1
vn -2.69156093E-08 -8.31756282E-08 1
vn -3.00661469E-08 -8.20938411E-08 1
vn -2.52239154E-08 -8.41271657E-08 1
vn -3.00953715E-08 -8.67285621E-08 1
vn -3.00833918E-08 -8.20877162E-08 1
vn -3.37022392E-08 -8.06632627E-08 1
vn -2.89133943E-08 -8.25540383E-08 1
vn -3.35622659E-08 -8.42106402E-08 1
vn -2.88594144E-08 -8.04309366E-08 1
vn -3.37531709E-08 -8.06420815E-08 1
vn -3.82999161E-08 -7.85843213E-08 1
vn -3.26717036E-08 -8.12741163E-08 1
vn -3.68758037E-08 -8.11066485E-08 1
vn -3.2716418E-08 -7.9535269E-08 1
vn -3.83759193E-08 -7.85469396E-08 1
vn -4.22064268E-08 -7.65641417E-08 1
vn -3.66380348E-08 -7.93151074E-08 1
vn -4.17218295E-08 -7.71966597E-08 1
vn -3.72596567E-08 -7.8241797E-08 1
vn -4.22739852E-08 -7.65262342E-08 1
vn -4.45414301E-08 -7.52257847E-08 1
vn -4.17323776E-08 -7.67923041E-08 1
vn -4.45413058E-08 -7.52259837E-08 1
vn -4.19608028E-08 -7.65185959E-08 1
vn -4.4590287E-08 -7.51967306E-08 1
vn -4.61092213E-08 -7.42747233E-08 1
vn -4.45956729E-08 -7.51936184E-08 1
vn -4.61014196E-08 -7.42795834E-08 1
vn -4.45928521E-08 -7.51952527E-08 1
vn -4.61600251E-08 -7.4243161E-08 1
vn -4.77980073E-08 -7.31998213E-08 1
vn -4.61592471E-08 -7.42436868E-08 1
vn -4.77750497E-08 -7.32149346E-08 1
vn -4.61596557E-08 -7.42434025E-08 1
vn -4.78716018E-08 -7.31519165E-08 1
vn -5.02231892E-08 -7.15617219E-08 1
vn -4.78640381E-08 -7.31569827E-08 1
vn -5.01033881E-08 -7.16473849E-08 1
vn -4.78680278E-08 -7.31543039E-08 1
vn -5.03645019E-08 -7.14640862E-08 1
vn -5.55669644E-08 -6.75449243E-08 1
vn -5.03148598E-08 -7.15005655E-08 1
vn -5.49019994E-08 -6.81130459E-08 1
vn -5.03425746E-08 -7.148018E-08 1
vn -5.59454953E-08 -6.72550584E-08 1
vn -6.4867919E-08 -5.85251563E-08 1
vn -5.5658866E-08 -6.75189042E-08 1
vn -6.3203025E-08 -6.14152142E-08 1
vn -5.58391484E-08 -6.73523459E-08 1
vn -6.53120935E-08 -5.80045771E-08 1
vn -7.21994908E-08 -4.94387464E-08 1
vn -6.48664624E-08 -5.92006799E-08 1
vn -7.25502574E-08 -5.51877868E-08 1
vn -6.53023804E-08 -5.79856803E-08 1
vn -7.24085609E-08 -4.91189134E-08 1
vn -7.58933751E-08 -4.33534346E-08 1
vn -7.2856416E-08 -5.2037052E-08 1
vn -8.06489311E-08 -5.15353662E-08 1
vn -7.24564231E-08 -4.90632637E-08 1
vn -7.61459091E-08 -4.29127986E-08 1
vn -7.96372177E-08 -3.60953187E-08 1
vn -7.88539154E-08 -4.68521861E-08 1
vn -8.89434446E-08 -4.62013148E-08 1
vn -7.61260353E-08 -4.29446168E-08 1
vn -7.98768767E-08 -3.55618184E-08 1
vn -8.16311569E-08 -3.16423687E-08 1
vn -8.16225167E-08 -3.16648077E-08 1
vn -8.48838511E-08 -4.05960172E-08 1
vn -9.3489291E-08 -4.37179501E-08 1
vn -8.66976961E-08 -3.68796265E-08 1
vn -7.98696931E-08 -3.55820475E-08 1
vn -8.16043766E-08 -3.17117888E-08 1
g narant_s3_test003_0
f 3/3/3 2/2/2 1/1/1
f 1/1/1 4/4/4 3/3/3
f 5/5/5 3/3/3 4/4/4
f 4/4/4 1/1/1 6/6/6
f 4/4/4 7/7/7 5/5/5
f 8/8/8 5/5/5 7/7/7
f 6/6/6 9/9/9 4/4/4
f 7/7/7 4/4/4 9/9/9
f 7/7/7 10/10/10 8/8/8
f 11/11/11 8/8/8 10/10/10
f 10/10/10 12/12/12 11/11/11
f 6/6/6 13/13/13 9/9/9
f 13/13/13 6/6/6 14/14/14
f 9/9/9 15/15/15 7/7/7
f 10/10/10 7/7/7 15/15/15
f 15/15/15 9/9/9 13/13/13
f 12/12/12 10/10/10 16/16/16
f 15/15/15 16/16/16 10/10/10
f 16/16/16 17/17/17 12/12/12
f 16/16/16 15/15/15 18/18/18
f 13/13/13 18/18/18 15/15/15
f 17/17/17 16/16/16 19/19/19
f 18/18/18 19/19/19 16/16/16
f 19/19/19 20/20/20 17/17/17
f 14/14/14 21/21/21 13/13/13
f 14/14/14 22/22/22 21/21/21
f 13/13/13 23/23/23 18/18/18
f 19/19/19 18/18/18 23/23/23
f 21/21/21 23/23/23 13/13/13
f 20/20/20 19/19/19 24/24/24
f 23/23/23 24/24/24 19/19/19
f 24/24/24 25/25/25 20/20/20
f 25/25/25 24/24/24 26/26/26
f 23/23/23 26/26/26 24/24/24
f 26/26/26 27/27/27 25/25/25
f 22/22/22 28/28/28 21/21/21
f 22/22/22 29/29/29 28/28/28
f 21/21/21 30/30/30 23/23/23
f 23/23/23 30/30/30 26/26/26
f 21/21/21 28/28/28 30/30/30
f 27/27/27 26/26/26 31/31/31
f 31/31/31 32/32/32 27/27/27
f 26/26/26 30/30/30 33/33/33
f 28/28/28 33/33/33 30/30/30
f 33/33/33 31/31/31 26/26/26
f 29/29/29 34/34/34 28/28/28
f 28/28/28 34/34/34 33/33/33
f 29/29/29 35/35/35 34/34/34
f 34/34/34 35/35/35 36/36/36
f 32/32/32 31/31/31 37/37/37
f 37/37/37 38/38/38 32/32/32
f 31/31/31 33/33/33 39/39/39
f 34/34/34 39/39/39 33/33/33
f 39/39/39 37/37/37 31/31/31
f 36/36/36 40/40/40 34/34/34
f 34/34/34 40/40/40 39/39/39
f 40/40/40 36/36/36 41/41/41
f 38/38/38 37/37/37 42/42/42
f 42/42/42 43/43/43 38/38/38
f 37/37/37 39/39/39 44/44/44
f 40/40/40 44/44/44 39/39/39
f 44/44/44 42/42/42 37/37/37
f 41/41/41 45/45/45 40/40/40
f 40/40/40 45/45/45 44/44/44
f 43/43/43 42/42/42 46/46/46
f 46/46/46 47/47/47 43/43/43
f 42/42/42 44/44/44 48/48/48
f 48/48/48 44/44/44 45/45/45
f 48/48/48 46/46/46 42/42/42
f 49/49/49 45/45/45 41/41/41
f 45/45/45 49/49/49 48/48/48
f 41/41/41 50/50/50 49/49/49
f 49/49/49 50/50/50 51/51/51
f 47/47/47 46/46/46 52/52/52
f 52/52/52 53/53/53 47/47/47
f 46/46/46 48/48/48 54/54/54
f 54/54/54 48/48/48 49/49/49
f 54/54/54 52/52/52 46/46/46
f 52/52/52 54/54/54 55/55/55
f 51/51/51 56/56/56 49/49/49
f 49/49/49 56/56/56 54/54/54
f 55/55/55 54/54/54 56/56/56
f 56/56/56 51/51/51 57/57/57
f 53/53/53 52/52/52 58/58/58
f 55/55/55 58/58/58 52/52/52
f 58/58/58 59/59/59 53/53/53
f 60/60/60 59/59/59 58/58/58
f 57/57/57 61/61/61 56/56/56
f 56/56/56 61/61/61 55/55/55
f 61/61/61 57/57/57 62/62/62
f 58/58/58 63/63/63 60/60/60
f 63/63/63 58/58/58 55/55/55
f 64/64/64 60/60/60 63/63/63
f 62/62/62 65/65/65 61/61/61
f 55/55/55 61/61/61 65/65/65
f 65/65/65 62/62/62 66/66/66
f 55/55/55 67/67/67 63/63/63
f 65/65/65 67/67/67 55/55/55
f 63/63/63 68/68/68 64/64/64
f 68/68/68 63/63/63 67/67/67
f 69/69/69 64/64/64 68/68/68
f 66/66/66 70/70/70 65/65/65
f 70/70/70 66/66/66 71/71/71
f 72/72/72 67/67/67 65/65/65
f 67/67/67 72/72/72 68/68/68
f 65/65/65 70/70/70 72/72/72
f 68/68/68 73/73/73 69/69/69
f 73/73/73 68/68/68 72/72/72
f 74/74/74 69/69/69 73/73/73
f 71/71/71 75/75/75 70/70/70
f 72/72/72 70/70/70 75/75/75
f 75/75/75 71/71/71 76/76/76
f 72/72/72 77/77/77 73/73/73
f 75/75/75 77/77/77 72/72/72
f 73/73/73 78/78/78 74/74/74
f 78/78/78 73/73/73 77/77/77
f 79/79/79 74/74/74 78/78/78
f 76/76/76 80/80/80 75/75/75
f 77/77/77 75/75/75 80/80/80
f 80/80/80 76/76/76 81/81/81
f 77/77/77 82/82/82 78/78/78
f 80/80/80 82/82/82 77/77/77
f 78/78/78 83/83/83 79/79/79
f 83/83/83 78/78/78 82/82/82
f 84/84/84 79/79/79 83/83/83
f 81/81/81 85/85/85 80/80/80
f 82/82/82 80/80/80 85/85/85
f 85/85/85 81/81/81 86/86/86
f 82/82/82 87/87/87 83/83/83
f 85/85/85 87/87/87 82/82/82
f 83/83/83 88/88/88 84/84/84
f 88/88/88 83/83/83 87/87/87
f 89/89/89 84/84/84 88/88/88
f 86/86/86 90/90/90 85/85/85
f 87/87/87 85/85/85 90/90/90
f 90/90/90 86/86/86 91/91/91
f 87/87/87 92/92/92 88/88/88
f 90/90/90 92/92/92 87/87/87
f 88/88/88 93/93/93 89/89/89
f 93/93/93 88/88/88 92/92/92
f 94/94/94 89/89/89 93/93/93
f 91/91/91 95/95/95 90/90/90
f 92/92/92 90/90/90 95/95/95
f 95/95/95 91/91/91 96/96/96
f 92/92/92 97/97/97 93/93/93
f 95/95/95 97/97/97 92/92/92
f 93/93/93 98/98/98 94/94/94
f 98/98/98 93/93/93 97/97/97
f 99/99/99 94/94/94 98/98/98
f 96/96/96 100/100/100 95/95/95
f 97/97/97 95/95/95 100/100/100
f 100/100/100 96/96/96 101/101/101
f 97/97/97 102/102/102 98/98/98
f 100/100/100 102/102/102 97/97/97
f 98/98/98 103/103/103 99/99/99
f 103/103/103 98/98/98 102/102/102
f 104/104/104 99/99/99 103/103/103
f 101/101/101 105/105/105 100/100/100
f 102/102/102 100/100/100 105/105/105
f 105/105/105 101/101/101 106/106/106
f 102/102/102 107/107/107 103/103/103
f 105/105/105 107/107/107 102/102/102
f 103/103/103 108/108/108 104/104/104
f 108/108/108 103/103/103 107/107/107
f 109/109/109 104/104/104 108/108/108
f 106/106/106 110/110/110 105/105/105
f 107/107/107 105/105/105 110/110/110
f 110/110/110 106/106/106 111/111/111
f 107/107/107 112/112/112 108/108/108
f 110/110/110 112/112/112 107/107/107
f 109/109/109 108/108/108 113/113/113
f 113/113/113 108/108/108 112/112/112
f 114/114/114 109/109/109 113/113/113
f 111/111/111 115/115/115 110/110/110
f 112/112/112 110/110/110 115/115/115
f 115/115/115 111/111/111 116/116/116
f 112/112/112 117/117/117 113/113/113
f 115/115/115 117/117/117 112/112/112
f 114/114/114 113/113/113 118/118/118
f 118/118/118 113/113/113 117/117/117
f 119/119/119 114/114/114 118/118/118
f 116/116/116 120/120/120 115/115/115
f 117/117/117 115/115/115 120/120/120
f 120/120/120 116/116/116 121/121/121
f 117/117/117 122/122/122 118/118/118
f 120/120/120 122/122/122 117/117/117
f 119/119/119 118/118/118 123/123/123
f 123/123/123 118/118/118 122/122/122
f 124/124/124 119/119/119 123/123/123
f 125/125/125 124/124/124 123/123/123
f 121/121/121 126/126/126 120/120/120
f 122/122/122 120/120/120 126/126/126
f 126/126/126 121/121/121 127/127/127
f 127/127/127 128/128/128 126/126/126
f 123/123/123 122/122/122 129/129/129
f 125/125/125 123/123/123 129/129/129
f 126/126/126 129/129/129 122/122/122
f 129/129/129 126/126/126 128/128/128
f 125/125/125 129/129/129 130/130/130
f 128/128/128 130/130/130 129/129/129
