g fx_mesh_plane_013
v 0.247751489 -6.76791964E-17 0.18016775
v 0.317985952 -5.41433518E-17 0.169149637
v 0.311901987 -6.76791964E-17 0.197648436
v 0.254345149 -5.41433518E-17 0.150787532
v 0.180921987 -6.76791964E-17 0.16548638
v 0.324143618 -4.06075172E-17 0.14020972
v 0.18786037 -5.41433518E-17 0.134908259
v 0.109735243 -6.7732586E-17 0.159636214
v 0.261301547 -4.06075172E-17 0.120481007
v 0.330320239 -2.70716759E-17 0.110589676
v 0.116908535 -5.43079244E-17 0.129383817
v 0.037457034 -6.85062381E-17 0.16651316
v 0.195487767 -4.06075172E-17 0.103448868
v 0.268681526 -2.70716759E-17 0.0893092677
v 0.336590946 -1.3535838E-17 0.0801265389
v 0.0449595749 -5.5244455E-17 0.137674987
v -0.0330178998 -7.02996583E-17 0.179602727
v 0.125395834 -4.08530045E-17 0.0977786705
v 0.2038555 -2.70716759E-17 0.0706213117
v 0.276342064 -1.3535838E-17 0.0571601316
v 0.3429313 0 0.0487734824
v -0.0269221608 -5.67712716E-17 0.151102349
v -0.101885483 -7.25069467E-17 0.185094744
v 0.0537481979 -4.17655535E-17 0.106211469
v 0.135046348 -2.73225581E-17 0.0644860789
v 0.212707922 -1.3535838E-17 0.0376014523
v 0.284050763 0 0.0253101923
v 0.34906733 1.35358421E-17 0.0167831369
v -0.096773766 -5.88183186E-17 0.157388285
v -0.169006526 -7.47860146E-17 0.177948758
v -0.0182698146 -4.31457143E-17 0.11949192
v 0.0642282739 -2.80554319E-17 0.0714749098
v 0.145640776 -1.37032568E-17 0.0290922951
v 0.22183232 0 0.00596816465
v 0.291466027 1.35358421E-17 -0.00621409621
v 0.354773194 2.70716759E-17 -0.0155235771
v -0.16518636 -6.08467507E-17 0.149316981
v -0.236163199 -7.68595513E-17 0.158277735
v -0.0898166522 -4.47454485E-17 0.125062406
v -0.00806895457 -2.91063152E-17 0.0830566287
v 0.0762335137 -1.41237996E-17 0.0333831012
v 0.156682894 0 -0.00672881817
v 0.230504781 1.35418367E-17 -0.0259142853
v 0.298056185 2.70716759E-17 -0.0384546965
v 0.35984841 4.06075172E-17 -0.0478617512
v 0.303472161 4.06075172E-17 -0.0720968097
v 0.364192665 5.41433585E-17 -0.0801807269
v 0.237932369 2.70836651E-17 -0.0599607937
v 0.167281106 1.37667884E-17 -0.0426152013
v 0.0891961306 0 -0.00772924721
v 0.00417804625 -1.47073722E-17 0.0415347703
v 0.30749023 5.41433585E-17 -0.106395915
v 0.367759317 6.76791964E-17 -0.11185687
v 0.310259312 6.76791964E-17 -0.14017953
v 0.243652537 4.06255034E-17 -0.096417509
v 0.247234687 5.41433585E-17 -0.133391351
v 0.249263242 6.76791964E-17 -0.168590412
v 0.176124036 2.75556345E-17 -0.0800267458
v 0.10180328 1.42651184E-17 -0.0508759655
v 0.182374716 4.13091715E-17 -0.11922536
v 0.185620502 5.49609041E-17 -0.157719702
v 0.18653439 6.85062381E-17 -0.192725062
v 0.112344958 2.857643E-17 -0.0942851305
v 0.0181264598 0 -0.00465453649
v 0.119439729 4.28052302E-17 -0.13645345
v 0.122710109 5.68264147E-17 -0.175735146
v 0.12272235 7.05089681E-17 -0.212200582
v 0.0324176252 1.49258918E-17 -0.0551710501
v 0.0442580171 2.99058415E-17 -0.105159558
v 0.0516719371 4.47215297E-17 -0.151033476
v 0.0547319949 5.91503886E-17 -0.192823589
v 0.0548833609 7.30294999E-17 -0.232045814
v -0.0187023431 6.13211355E-17 -0.215486482
v -0.0168492794 7.52705108E-17 -0.25860247
v -0.0221429095 4.6581442E-17 -0.171171084
v -0.0294729546 3.12466848E-17 -0.121649273
v -0.0415054373 1.56154412E-17 -0.064962104
v -0.0558361486 0 -0.00719667273
v -0.0927883387 6.27801762E-17 -0.247636288
v -0.086533621 7.66308193E-17 -0.296440691
v -0.0995231941 4.7947147E-17 -0.195958421
v -0.107725039 3.23086953E-17 -0.141688034
v -0.11848069 1.61984149E-17 -0.0828462616
v -0.160305455 6.32409621E-17 -0.293607533
v -0.151632965 7.68757441E-17 -0.342228711
v -0.17026484 4.85360467E-17 -0.239215985
v -0.181126267 3.28729649E-17 -0.180452526
v -0.227248609 6.27377121E-17 -0.338430256
v -0.217679739 7.61441327E-17 -0.383276165
v -0.237906262 4.82968724E-17 -0.287570834
v -0.294016242 6.15447721E-17 -0.37395969
v -0.283749402 7.47860146E-17 -0.414250255
v -0.305251151 4.73970388E-17 -0.327999085
v -0.317049056 3.23048407E-17 -0.276539236
v -0.249348268 3.28501115E-17 -0.231257439
v -0.328802556 1.64089985E-17 -0.220779419
v -0.26094842 1.66276869E-17 -0.171430841
v -0.339986295 0 -0.162426919
v -0.192286357 1.65587695E-17 -0.119703799
v -0.27197966 0 -0.110857137
v -0.349847436 -1.65652099E-17 -0.104423568
v -0.203186125 0 -0.0600679964
v -0.281761736 -1.66341174E-17 -0.0525749139
v -0.358033568 -3.29489795E-17 -0.049027998
v -0.130520403 0 -0.0241311751
v -0.289858729 -3.29489795E-17 0.00108017912
v -0.364428818 -4.88951324E-17 0.00214627432
v -0.213156626 -1.64144662E-17 -0.00416899798
v -0.141979471 -1.59562776E-17 0.0289708022
v -0.296156406 -4.87244718E-17 0.048900038
v -0.369162798 -6.42461256E-17 0.0484108478
v -0.221396104 -3.24035994E-17 0.0456567071
v -0.0689377263 -1.53524043E-17 0.0431544259
v -0.300849289 -6.38721076E-17 0.0909424499
v -0.372764438 -7.89006492E-17 0.0904922336
v -0.304288685 -7.83630347E-17 0.127925366
v -0.22779423 -4.78228946E-17 0.0888245776
v -0.151945859 -3.14546876E-17 0.075835146
v -0.0803044066 -3.02983487E-17 0.0872313902
v -0.23261252 -6.26338116E-17 0.126025051
v -0.159673333 -4.64185503E-17 0.115753531
vt 0.900037587 0
vt 0.999976873 0.099999994
vt 0.999976873 0
vt 0.900037587 0.099999994
vt 0.800098181 0
vt 0.999976873 0.199999988
vt 0.800098181 0.099999994
vt 0.700158715 0
vt 0.900037587 0.199999988
vt 0.999976873 0.300000012
vt 0.700158715 0.099999994
vt 0.600219309 0
vt 0.800098181 0.199999988
vt 0.900037587 0.300000012
vt 0.999976873 0.400000006
vt 0.600219309 0.099999994
vt 0.500279903 0
vt 0.700158715 0.199999988
vt 0.800098181 0.300000012
vt 0.900037587 0.400000006
vt 0.999976873 0.5
vt 0.500279903 0.099999994
vt 0.400340497 0
vt 0.600219309 0.199999988
vt 0.700158715 0.300000012
vt 0.800098181 0.400000006
vt 0.900037587 0.5
vt 0.999976873 0.600000024
vt 0.400340497 0.099999994
vt 0.300401062 0
vt 0.500279903 0.199999988
vt 0.600219309 0.300000012
vt 0.700158715 0.400000006
vt 0.800098181 0.5
vt 0.900037587 0.600000024
vt 0.999976873 0.699999988
vt 0.300401062 0.099999994
vt 0.200461775 0
vt 0.400340497 0.199999988
vt 0.500279903 0.300000012
vt 0.600219309 0.400000006
vt 0.700158715 0.5
vt 0.800098181 0.600000024
vt 0.900037587 0.699999988
vt 0.999976873 0.800000012
vt 0.900037587 0.800000012
vt 0.999976873 0.900000036
vt 0.800098181 0.699999988
vt 0.700158715 0.600000024
vt 0.600219309 0.5
vt 0.500279903 0.400000006
vt 0.900037587 0.900000036
vt 0.999976873 1
vt 0.900037587 1
vt 0.800098181 0.800000012
vt 0.800098181 0.900000036
vt 0.800098181 1
vt 0.700158715 0.699999988
vt 0.600219309 0.600000024
vt 0.700158715 0.800000012
vt 0.700158715 0.900000036
vt 0.700158715 1
vt 0.600219309 0.699999988
vt 0.500279903 0.5
vt 0.600219309 0.800000012
vt 0.600219309 0.900000036
vt 0.600219309 1
vt 0.500279903 0.600000024
vt 0.500279903 0.699999988
vt 0.500279903 0.800000012
vt 0.500279903 0.900000036
vt 0.500279903 1
vt 0.400340497 0.900000036
vt 0.400340497 1
vt 0.400340497 0.800000012
vt 0.400340497 0.699999988
vt 0.400340497 0.600000024
vt 0.400340497 0.5
vt 0.300401062 0.900000036
vt 0.300401062 1
vt 0.300401062 0.800000012
vt 0.300401062 0.699999988
vt 0.300401062 0.600000024
vt 0.200461775 0.900000036
vt 0.200461775 1
vt 0.200461775 0.800000012
vt 0.200461775 0.699999988
vt 0.10052231 0.900000036
vt 0.10052231 1
vt 0.10052231 0.800000012
vt 0.000582936453 0.900000036
vt 0.000582936453 1
vt 0.000582936453 0.800000012
vt 0.000582936453 0.699999988
vt 0.10052231 0.699999988
vt 0.000582936453 0.600000024
vt 0.10052231 0.600000024
vt 0.000582936453 0.5
vt 0.200461775 0.600000024
vt 0.10052231 0.5
vt 0.000582936453 0.400000006
vt 0.200461775 0.5
vt 0.10052231 0.400000006
vt 0.000582936453 0.300000012
vt 0.300401062 0.5
vt 0.10052231 0.300000012
vt 0.000582936453 0.199999988
vt 0.200461775 0.400000006
vt 0.300401062 0.400000006
vt 0.10052231 0.199999988
vt 0.000582936453 0.099999994
vt 0.200461775 0.300000012
vt 0.400340497 0.400000006
vt 0.10052231 0.099999994
vt 0.000582936453 0
vt 0.10052231 0
vt 0.200461775 0.199999988
vt 0.300401062 0.300000012
vt 0.400340497 0.300000012
vt 0.200461775 0.099999994
vt 0.300401062 0.199999988
vn -0 1 0
vn -0 1 0
vn -0 1 0
vn -0 1 0
vn -0 1 0
vn -0 1 0
vn -0 1 0
vn -0 1 0
vn -0 1 0
vn -0 1 0
vn -0 1 0
vn -0 1 0
vn -0 1 0
vn -0 1 0
vn -0 1 0
vn -0 1 0
vn -0 1 0
vn -0 1 0
vn -0 1 0
vn -0 1 0
vn -0 1 0
vn -0 1 0
vn -0 1 0
vn -0 1 0
vn -0 1 0
vn -0 1 0
vn -0 1 0
vn -0 1 0
vn -0 1 0
vn -0 1 0
vn -0 1 0
vn -0 1 0
vn -0 1 0
vn -0 1 0
vn -0 1 0
vn -0 1 0
vn -0 1 0
vn -0 1 0
vn -0 1 0
vn -0 1 0
vn -0 1 0
vn -0 1 0
vn -0 1 0
vn -0 1 0
vn -0 1 0
vn -0 1 0
vn -0 1 0
vn -0 1 0
vn -0 1 0
vn -0 1 0
vn -0 1 0
vn -0 1 0
vn -0 1 0
vn -0 1 0
vn -0 1 0
vn -0 1 0
vn -0 1 0
vn -0 1 0
vn -0 1 0
vn -0 1 0
vn -0 1 0
vn -0 1 0
vn -0 1 0
vn -0 1 0
vn -0 1 0
vn -0 1 0
vn -0 1 0
vn -0 1 0
vn -0 1 0
vn -0 1 0
vn -0 1 0
vn -0 1 0
vn -0 1 0
vn -0 1 0
vn -0 1 0
vn -0 1 0
vn -0 1 0
vn -0 1 0
vn -0 1 0
vn -0 1 0
vn -0 1 0
vn -0 1 0
vn -0 1 0
vn -0 1 0
vn -0 1 0
vn -0 1 0
vn -0 1 0
vn -0 1 0
vn -0 1 0
vn -0 1 0
vn -0 1 0
vn -0 1 0
vn -0 1 0
vn -0 1 0
vn -0 1 0
vn -0 1 0
vn -0 1 0
vn -0 1 0
vn -0 1 0
vn -0 1 0
vn -0 1 0
vn -0 1 0
vn -0 1 0
vn -0 1 0
vn -0 1 0
vn -0 1 0
vn -0 1 0
vn -0 1 0
vn -0 1 0
vn -0 1 0
vn -0 1 0
vn -0 1 0
vn -0 1 0
vn -0 1 0
vn -0 1 0
vn -0 1 0
vn -0 1 0
vn -0 1 0
vn -0 1 0
vn -0 1 0
vn -0 1 0
g fx_mesh_plane_013_0
f 3/3/3 2/2/2 1/1/1
f 2/2/2 4/4/4 1/1/1
f 1/1/1 4/4/4 5/5/5
f 2/2/2 6/6/6 4/4/4
f 4/4/4 7/7/7 5/5/5
f 5/5/5 7/7/7 8/8/8
f 6/6/6 9/9/9 4/4/4
f 4/4/4 9/9/9 7/7/7
f 6/6/6 10/10/10 9/9/9
f 7/7/7 11/11/11 8/8/8
f 8/8/8 11/11/11 12/12/12
f 9/9/9 13/13/13 7/7/7
f 7/7/7 13/13/13 11/11/11
f 10/10/10 14/14/14 9/9/9
f 9/9/9 14/14/14 13/13/13
f 10/10/10 15/15/15 14/14/14
f 11/11/11 16/16/16 12/12/12
f 12/12/12 16/16/16 17/17/17
f 13/13/13 18/18/18 11/11/11
f 11/11/11 18/18/18 16/16/16
f 14/14/14 19/19/19 13/13/13
f 13/13/13 19/19/19 18/18/18
f 15/15/15 20/20/20 14/14/14
f 14/14/14 20/20/20 19/19/19
f 15/15/15 21/21/21 20/20/20
f 16/16/16 22/22/22 17/17/17
f 17/17/17 22/22/22 23/23/23
f 18/18/18 24/24/24 16/16/16
f 16/16/16 24/24/24 22/22/22
f 19/19/19 25/25/25 18/18/18
f 18/18/18 25/25/25 24/24/24
f 20/20/20 26/26/26 19/19/19
f 19/19/19 26/26/26 25/25/25
f 21/21/21 27/27/27 20/20/20
f 20/20/20 27/27/27 26/26/26
f 21/21/21 28/28/28 27/27/27
f 22/22/22 29/29/29 23/23/23
f 23/23/23 29/29/29 30/30/30
f 24/24/24 31/31/31 22/22/22
f 22/22/22 31/31/31 29/29/29
f 25/25/25 32/32/32 24/24/24
f 24/24/24 32/32/32 31/31/31
f 26/26/26 33/33/33 25/25/25
f 25/25/25 33/33/33 32/32/32
f 27/27/27 34/34/34 26/26/26
f 26/26/26 34/34/34 33/33/33
f 28/28/28 35/35/35 27/27/27
f 27/27/27 35/35/35 34/34/34
f 28/28/28 36/36/36 35/35/35
f 29/29/29 37/37/37 30/30/30
f 30/30/30 37/37/37 38/38/38
f 31/31/31 39/39/39 29/29/29
f 29/29/29 39/39/39 37/37/37
f 32/32/32 40/40/40 31/31/31
f 31/31/31 40/40/40 39/39/39
f 33/33/33 41/41/41 32/32/32
f 32/32/32 41/41/41 40/40/40
f 34/34/34 42/42/42 33/33/33
f 33/33/33 42/42/42 41/41/41
f 35/35/35 43/43/43 34/34/34
f 34/34/34 43/43/43 42/42/42
f 36/36/36 44/44/44 35/35/35
f 35/35/35 44/44/44 43/43/43
f 36/36/36 45/45/45 44/44/44
f 45/45/45 46/46/46 44/44/44
f 45/45/45 47/47/47 46/46/46
f 44/44/44 48/48/48 43/43/43
f 44/44/44 46/46/46 48/48/48
f 43/43/43 49/49/49 42/42/42
f 43/43/43 48/48/48 49/49/49
f 42/42/42 50/50/50 41/41/41
f 42/42/42 49/49/49 50/50/50
f 41/41/41 51/51/51 40/40/40
f 41/41/41 50/50/50 51/51/51
f 47/47/47 52/52/52 46/46/46
f 47/47/47 53/53/53 52/52/52
f 53/53/53 54/54/54 52/52/52
f 46/46/46 55/55/55 48/48/48
f 46/46/46 52/52/52 55/55/55
f 52/52/52 54/54/54 56/56/56
f 52/52/52 56/56/56 55/55/55
f 54/54/54 57/57/57 56/56/56
f 48/48/48 58/58/58 49/49/49
f 48/48/48 55/55/55 58/58/58
f 49/49/49 59/59/59 50/50/50
f 49/49/49 58/58/58 59/59/59
f 55/55/55 56/56/56 60/60/60
f 55/55/55 60/60/60 58/58/58
f 56/56/56 57/57/57 61/61/61
f 56/56/56 61/61/61 60/60/60
f 57/57/57 62/62/62 61/61/61
f 58/58/58 60/60/60 63/63/63
f 58/58/58 63/63/63 59/59/59
f 50/50/50 59/59/59 64/64/64
f 50/50/50 64/64/64 51/51/51
f 60/60/60 61/61/61 65/65/65
f 60/60/60 65/65/65 63/63/63
f 61/61/61 62/62/62 66/66/66
f 61/61/61 66/66/66 65/65/65
f 62/62/62 67/67/67 66/66/66
f 59/59/59 63/63/63 68/68/68
f 59/59/59 68/68/68 64/64/64
f 63/63/63 65/65/65 69/69/69
f 63/63/63 69/69/69 68/68/68
f 65/65/65 66/66/66 70/70/70
f 65/65/65 70/70/70 69/69/69
f 66/66/66 67/67/67 71/71/71
f 66/66/66 71/71/71 70/70/70
f 67/67/67 72/72/72 71/71/71
f 71/71/71 72/72/72 73/73/73
f 72/72/72 74/74/74 73/73/73
f 70/70/70 71/71/71 75/75/75
f 71/71/71 73/73/73 75/75/75
f 69/69/69 70/70/70 76/76/76
f 70/70/70 75/75/75 76/76/76
f 68/68/68 69/69/69 77/77/77
f 69/69/69 76/76/76 77/77/77
f 64/64/64 68/68/68 78/78/78
f 68/68/68 77/77/77 78/78/78
f 73/73/73 74/74/74 79/79/79
f 74/74/74 80/80/80 79/79/79
f 75/75/75 73/73/73 81/81/81
f 73/73/73 79/79/79 81/81/81
f 76/76/76 75/75/75 82/82/82
f 75/75/75 81/81/81 82/82/82
f 77/77/77 76/76/76 83/83/83
f 76/76/76 82/82/82 83/83/83
f 79/79/79 80/80/80 84/84/84
f 80/80/80 85/85/85 84/84/84
f 81/81/81 79/79/79 86/86/86
f 79/79/79 84/84/84 86/86/86
f 82/82/82 81/81/81 87/87/87
f 81/81/81 86/86/86 87/87/87
f 84/84/84 85/85/85 88/88/88
f 85/85/85 89/89/89 88/88/88
f 86/86/86 84/84/84 90/90/90
f 84/84/84 88/88/88 90/90/90
f 88/88/88 89/89/89 91/91/91
f 89/89/89 92/92/92 91/91/91
f 88/88/88 91/91/91 93/93/93
f 90/90/90 88/88/88 93/93/93
f 90/90/90 93/93/93 94/94/94
f 86/86/86 90/90/90 95/95/95
f 95/95/95 90/90/90 94/94/94
f 87/87/87 86/86/86 95/95/95
f 95/95/95 94/94/94 96/96/96
f 97/97/97 95/95/95 96/96/96
f 87/87/87 95/95/95 97/97/97
f 97/97/97 96/96/96 98/98/98
f 99/99/99 87/87/87 97/97/97
f 82/82/82 87/87/87 99/99/99
f 83/83/83 82/82/82 99/99/99
f 100/100/100 97/97/97 98/98/98
f 99/99/99 97/97/97 100/100/100
f 100/100/100 98/98/98 101/101/101
f 83/83/83 99/99/99 102/102/102
f 102/102/102 99/99/99 100/100/100
f 103/103/103 100/100/100 101/101/101
f 102/102/102 100/100/100 103/103/103
f 103/103/103 101/101/101 104/104/104
f 105/105/105 83/83/83 102/102/102
f 77/77/77 83/83/83 105/105/105
f 78/78/78 77/77/77 105/105/105
f 106/106/106 103/103/103 104/104/104
f 106/106/106 104/104/104 107/107/107
f 108/108/108 102/102/102 103/103/103
f 105/105/105 102/102/102 108/108/108
f 108/108/108 103/103/103 106/106/106
f 78/78/78 105/105/105 109/109/109
f 109/109/109 105/105/105 108/108/108
f 110/110/110 106/106/106 107/107/107
f 110/110/110 107/107/107 111/111/111
f 112/112/112 108/108/108 106/106/106
f 109/109/109 108/108/108 112/112/112
f 112/112/112 106/106/106 110/110/110
f 113/113/113 78/78/78 109/109/109
f 64/64/64 78/78/78 113/113/113
f 51/51/51 64/64/64 113/113/113
f 114/114/114 110/110/110 111/111/111
f 114/114/114 111/111/111 115/115/115
f 116/116/116 114/114/114 115/115/115
f 117/117/117 112/112/112 110/110/110
f 117/117/117 110/110/110 114/114/114
f 118/118/118 109/109/109 112/112/112
f 113/113/113 109/109/109 118/118/118
f 118/118/118 112/112/112 117/117/117
f 51/51/51 113/113/113 119/119/119
f 119/119/119 113/113/113 118/118/118
f 40/40/40 51/51/51 119/119/119
f 40/40/40 119/119/119 39/39/39
f 120/120/120 114/114/114 116/116/116
f 120/120/120 117/117/117 114/114/114
f 38/38/38 120/120/120 116/116/116
f 37/37/37 120/120/120 38/38/38
f 121/121/121 118/118/118 117/117/117
f 119/119/119 118/118/118 121/121/121
f 39/39/39 119/119/119 121/121/121
f 121/121/121 117/117/117 120/120/120
f 37/37/37 121/121/121 120/120/120
f 39/39/39 121/121/121 37/37/37
