g Plane003
v 0.0762000009 -0.127000004 0
v 0.127000004 -0.0762000009 0
v 0.127000004 -0.127000004 0
v 0.0762000009 -0.0762000009 0
v 0.0253999997 -0.127000004 0
v 0.127000004 -0.0253999997 0
v 0.0253999997 -0.0762000009 0
v -0.0253999997 -0.127000004 0
v 0.0762000009 -0.0253999997 0
v 0.127000004 0.0253999997 0
v -0.0253999997 -0.0762000009 0
v -0.0762000009 -0.127000004 0
v 0.0253999997 -0.0253999997 0
v 0.0762000009 0.0253999997 0
v 0.127000004 0.0762000009 0
v -0.0762000009 -0.0762000009 0
v -0.127000004 -0.127000004 0
v -0.127000004 -0.0762000009 0
v -0.0253999997 -0.0253999997 0
v -0.0762000009 -0.0253999997 0
v -0.127000004 -0.0253999997 0
v 0.0253999997 0.0253999997 0
v 0.0762000009 0.0762000009 0
v 0.127000004 0.127000004 0
v 0.0762000009 0.127000004 0
v 0.0253999997 0.0762000009 0
v 0.0253999997 0.127000004 0
v -0.0253999997 0.0253999997 0
v -0.0762000009 0.0253999997 0
v -0.127000004 0.0253999997 0
v -0.0253999997 0.0762000009 0
v -0.0253999997 0.127000004 0
v -0.0762000009 0.0762000009 0
v -0.127000004 0.0762000009 0
v -0.0762000009 0.127000004 0
v -0.127000004 0.127000004 0
vt 0.800000012 0
vt 1 0.200000003
vt 1 0
vt 0.800000012 0.200000003
vt 0.600000024 0
vt 1 0.400000006
vt 0.600000024 0.200000003
vt 0.400000006 0
vt 0.800000012 0.400000006
vt 1 0.600000024
vt 0.400000006 0.200000003
vt 0.200000003 0
vt 0.600000024 0.400000006
vt 0.800000012 0.600000024
vt 1 0.800000012
vt 0.200000003 0.200000003
vt 0 0
vt 0 0.200000003
vt 0.400000006 0.400000006
vt 0.200000003 0.400000006
vt 0 0.400000006
vt 0.600000024 0.600000024
vt 0.800000012 0.800000012
vt 1 1
vt 0.800000012 1
vt 0.600000024 0.800000012
vt 0.600000024 1
vt 0.400000006 0.600000024
vt 0.200000003 0.600000024
vt 0 0.600000024
vt 0.400000006 0.800000012
vt 0.400000006 1
vt 0.200000003 0.800000012
vt 0 0.800000012
vt 0.200000003 1
vt 0 1
vn -0 0 1
vn -0 0 1
vn -0 0 1
vn -0 0 1
vn -0 0 1
vn -0 0 1
vn -0 0 1
vn -0 0 1
vn -0 0 1
vn -0 0 1
vn -0 0 1
vn -0 0 1
vn -0 0 1
vn -0 0 1
vn -0 0 1
vn -0 0 1
vn -0 0 1
vn -0 0 1
vn -0 0 1
vn -0 0 1
vn -0 0 1
vn -0 0 1
vn -0 0 1
vn -0 0 1
vn -0 0 1
vn -0 0 1
vn -0 0 1
vn -0 0 1
vn -0 0 1
vn -0 0 1
vn -0 0 1
vn -0 0 1
vn -0 0 1
vn -0 0 1
vn -0 0 1
vn -0 0 1
g Plane003_0
f 3/3/3 2/2/2 1/1/1
f 2/2/2 4/4/4 1/1/1
f 1/1/1 4/4/4 5/5/5
f 2/2/2 6/6/6 4/4/4
f 4/4/4 7/7/7 5/5/5
f 5/5/5 7/7/7 8/8/8
f 6/6/6 9/9/9 4/4/4
f 4/4/4 9/9/9 7/7/7
f 6/6/6 10/10/10 9/9/9
f 7/7/7 11/11/11 8/8/8
f 8/8/8 11/11/11 12/12/12
f 9/9/9 13/13/13 7/7/7
f 7/7/7 13/13/13 11/11/11
f 10/10/10 14/14/14 9/9/9
f 9/9/9 14/14/14 13/13/13
f 10/10/10 15/15/15 14/14/14
f 11/11/11 16/16/16 12/12/12
f 12/12/12 16/16/16 17/17/17
f 16/16/16 18/18/18 17/17/17
f 13/13/13 19/19/19 11/11/11
f 11/11/11 19/19/19 16/16/16
f 16/16/16 20/20/20 18/18/18
f 19/19/19 20/20/20 16/16/16
f 20/20/20 21/21/21 18/18/18
f 14/14/14 22/22/22 13/13/13
f 13/13/13 22/22/22 19/19/19
f 15/15/15 23/23/23 14/14/14
f 14/14/14 23/23/23 22/22/22
f 15/15/15 24/24/24 23/23/23
f 24/24/24 25/25/25 23/23/23
f 23/23/23 25/25/25 26/26/26
f 23/23/23 26/26/26 22/22/22
f 25/25/25 27/27/27 26/26/26
f 22/22/22 28/28/28 19/19/19
f 19/19/19 28/28/28 20/20/20
f 22/22/22 26/26/26 28/28/28
f 20/20/20 29/29/29 21/21/21
f 28/28/28 29/29/29 20/20/20
f 29/29/29 30/30/30 21/21/21
f 26/26/26 27/27/27 31/31/31
f 26/26/26 31/31/31 28/28/28
f 28/28/28 31/31/31 29/29/29
f 27/27/27 32/32/32 31/31/31
f 29/29/29 33/33/33 30/30/30
f 31/31/31 33/33/33 29/29/29
f 31/31/31 32/32/32 33/33/33
f 33/33/33 34/34/34 30/30/30
f 32/32/32 35/35/35 33/33/33
f 33/33/33 35/35/35 34/34/34
f 35/35/35 36/36/36 34/34/34
