g general_plane_59
v -0.25 0.0590272062 0
v -0.25 0.075934872 0
v -0.194444448 0.0919008255 0
v -0.194444448 0.0714370385 0
v -0.194444448 0.0714370385 0
v -0.194444448 0.0919008255 0
v -0.138888896 0.107157826 0
v -0.138888896 0.0833024755 0
v -0.0833333433 0.121745251 0
v -0.0833333433 0.0946000144 0
v -0.0277777892 0.135567635 0
v -0.0277777892 0.105361938 0
v 0.0277777873 0.148669004 0
v 0.0277777873 0.115500659 0
v 0.0833333433 0.160998464 0
v 0.0833333433 0.125053465 0
v -0.194444448 0.0509904027 0
v -0.138888896 0.0594523922 0
v -0.0833333433 0.0675128549 0
v -0.0277777836 0.0751506686 0
v -0.25 0.0421466306 0
v -0.25 0.0590272062 0
v -0.25 0.0252755657 0
v -0.194444448 0.0305754784 0
v -0.25 0.00841926038 0
v -0.138888896 0.0356335901 0
v -0.0833333433 0.0404553525 0
v -0.0833333433 0.0675128549 0
v -0.0277777836 0.0450407714 0
v 0.0277777873 0.0823905915 0
v -0.0277777836 0.0450407714 0
v 0.0833333433 0.125053465 0
v -0.194444448 0.0101833278 0
v -0.25 -0.00841926225 0
v -0.138888896 0.011869017 0
v -0.194444448 -0.010183326 0
v -0.25 -0.0252755657 0
v -0.0833333433 0.0134763271 0
v -0.194444448 -0.0305754784 0
v -0.25 -0.0421466306 0
v -0.138888896 -0.0118690133 0
v -0.194444448 -0.0509904027 0
v -0.25 -0.0590272062 0
v -0.194444448 -0.0714370385 0
v -0.138888896 -0.0356335863 0
v -0.0833333433 -0.0134763233 0
v -0.0277777836 0.0150052579 0
v -0.138888896 -0.0594523922 0
v -0.0833333433 -0.0404553525 0
v -0.0277777836 -0.0150052542 0
v -0.0277777836 -0.0450407714 0
v -0.0277777836 -0.0150052542 0
v -0.0833333433 -0.0675128549 0
v -0.0833333433 -0.0675128549 0
v -0.0277777836 -0.0751506686 0
v -0.138888896 -0.0833024755 0
v -0.194444448 -0.0919008255 0
v -0.138888896 -0.107157826 0
v -0.0833333433 -0.0946000144 0
v -0.0833333433 -0.121745251 0
v -0.0277777836 -0.105361938 0
v -0.0277777836 -0.135567635 0
v 0.0277777892 -0.115500659 0
v 0.0277777892 -0.148669004 0
v 0.0833333433 -0.125053465 0
v 0.0833333433 -0.160998464 0
v 0.0277777892 -0.0823905915 0
v 0.0277777892 -0.0493898503 0
v 0.0833333433 -0.0892326087 0
v 0.0833333433 -0.125053465 0
v 0.138888896 -0.134040907 0
v 0.138888896 -0.172495916 0
v 0.0277777892 -0.0164558087 0
v 0.0833333433 -0.0535025857 0
v 0.138888896 -0.0956767127 0
v 0.194444448 -0.142462999 0
v 0.194444448 -0.183252484 0
v 0.25 -0.150319695 0
v 0.25 -0.193268165 0
v 0.25 -0.107371211 0
v 0.194444448 -0.101722911 0
v 0.25 -0.0644227192 0
v 0.194444448 -0.0610190183 0
v 0.25 -0.0214742385 0
v 0.138888896 -0.0573789701 0
v 0.194444448 -0.0203371998 0
v 0.25 0.0214742459 0
v 0.138888896 -0.019121781 0
v 0.194444448 0.0203372035 0
v 0.25 0.0644227192 0
v 0.0833333433 -0.0178279821 0
v 0.138888896 0.0191217847 0
v 0.194444448 0.0610190183 0
v 0.25 0.107371211 0
v 0.0833333433 0.0178279877 0
v 0.138888896 0.0573789701 0
v 0.194444448 0.101722911 0
v 0.25 0.150319695 0
v 0.0277777892 0.0164558124 0
v 0.0833333433 0.0535025857 0
v 0.0277777892 0.0493898503 0
v 0.0277777892 0.0493898503 0
v 0.0833333433 0.0892326087 0
v 0.138888896 0.0956767127 0
v 0.138888896 0.134040907 0
v 0.194444448 0.142462999 0
v 0.25 0.193268165 0
v 0.194444448 0.183252484 0
v 0.138888896 0.172495916 0
v -0.25 -0.075934872 0
v -0.25 -0.0590272062 0
v -0.194444448 -0.0714370385 0
v -0.194444448 -0.0919008255 0
vt 0 0.888888896
vt 0 1
vt 0.111111119 1
vt 0.111111119 0.888888896
vt 0.111111119 0.888888896
vt 0.111111119 1
vt 0.222222239 1
vt 0.222222239 0.888888896
vt 0.333333373 1
vt 0.333333373 0.888888896
vt 0.444444478 1
vt 0.444444478 0.888888896
vt 0.555555582 1
vt 0.555555582 0.888888955
vt 0.666666687 1
vt 0.666666627 0.888888896
vt 0.111111119 0.777777791
vt 0.222222239 0.777777791
vt 0.333333373 0.777777791
vt 0.444444478 0.777777791
vt 0 0.777777791
vt 0 0.888888896
vt 0 0.666666687
vt 0.111111119 0.666666687
vt 0 0.555555582
vt 0.222222239 0.666666687
vt 0.333333373 0.666666687
vt 0.333333373 0.777777791
vt 0.444444478 0.666666687
vt 0.555555582 0.777777791
vt 0.444444478 0.666666687
vt 0.666666627 0.888888896
vt 0.111111119 0.555555582
vt 0 0.444444478
vt 0.222222239 0.555555582
vt 0.111111119 0.444444478
vt 0 0.333333373
vt 0.333333373 0.555555582
vt 0.111111119 0.333333343
vt 0 0.222222239
vt 0.222222239 0.444444478
vt 0.111111112 0.222222224
vt 0 0.111111119
vt 0.111111112 0.111111112
vt 0.222222239 0.333333373
vt 0.333333343 0.444444478
vt 0.444444478 0.555555582
vt 0.222222209 0.222222209
vt 0.333333373 0.333333343
vt 0.444444478 0.444444478
vt 0.444444478 0.333333313
vt 0.444444478 0.444444478
vt 0.333333373 0.222222209
vt 0.333333373 0.222222209
vt 0.444444478 0.222222224
vt 0.222222224 0.111111112
vt 0.111111112 0
vt 0.222222224 0
vt 0.333333343 0.111111112
vt 0.333333343 0
vt 0.444444478 0.111111112
vt 0.444444478 0
vt 0.555555582 0.111111112
vt 0.555555582 0
vt 0.666666687 0.111111112
vt 0.666666687 0
vt 0.555555582 0.222222224
vt 0.555555582 0.333333313
vt 0.666666687 0.222222209
vt 0.666666687 0.111111112
vt 0.777777791 0.111111112
vt 0.777777791 0
vt 0.555555582 0.444444478
vt 0.666666746 0.333333373
vt 0.777777791 0.222222209
vt 0.888888896 0.111111112
vt 0.888888896 0
vt 1 0.111111112
vt 1 0
vt 1 0.222222224
vt 0.888888896 0.222222224
vt 1 0.333333343
vt 0.888888896 0.333333343
vt 1 0.444444478
vt 0.777777791 0.333333343
vt 0.888888836 0.444444478
vt 1 0.555555582
vt 0.777777791 0.444444478
vt 0.888888836 0.555555582
vt 1 0.666666687
vt 0.666666746 0.444444478
vt 0.777777791 0.555555582
vt 0.888888836 0.666666687
vt 1 0.777777791
vt 0.666666627 0.555555582
vt 0.777777791 0.666666687
vt 0.888888836 0.777777791
vt 1 0.888888896
vt 0.555555582 0.555555582
vt 0.666666687 0.666666687
vt 0.555555582 0.666666687
vt 0.555555582 0.666666687
vt 0.666666627 0.777777791
vt 0.777777791 0.777777791
vt 0.777777791 0.888888896
vt 0.888888836 0.888888896
vt 1 1
vt 0.888888896 1
vt 0.777777791 1
vt 0 0
vt 0 0.111111119
vt 0.111111112 0.111111112
vt 0.111111112 0
vn -0 0 1
vn -0 0 1
vn -0 0 1
vn -0 0 1
vn -0 0 1
vn -0 0 1
vn -0 0 1
vn -0 0 1
vn -0 0 1
vn -0 0 1
vn -0 0 1
vn -0 0 1
vn -0 0 1
vn -0 0 1
vn -0 0 1
vn -0 0 1
vn -0 0 1
vn -0 0 1
vn -0 0 1
vn -0 0 1
vn -0 0 1
vn -0 0 1
vn -0 0 1
vn -0 0 1
vn -0 0 1
vn -0 0 1
vn -0 0 1
vn -0 0 1
vn -0 0 1
vn -0 0 1
vn -0 0 1
vn -0 0 1
vn -0 0 1
vn -0 0 1
vn -0 0 1
vn -0 0 1
vn -0 0 1
vn -0 0 1
vn -0 0 1
vn -0 0 1
vn -0 0 1
vn -0 0 1
vn -0 0 1
vn -0 0 1
vn -0 0 1
vn -0 0 1
vn -0 0 1
vn -0 0 1
vn -0 0 1
vn -0 0 1
vn -0 0 1
vn -0 0 1
vn -0 0 1
vn -0 0 1
vn -0 0 1
vn -0 0 1
vn -0 0 1
vn -0 0 1
vn -0 0 1
vn -0 0 1
vn -0 0 1
vn -0 0 1
vn -0 0 1
vn -0 0 1
vn -0 0 1
vn -0 0 1
vn -0 0 1
vn -0 0 1
vn -0 0 1
vn -0 0 1
vn -0 0 1
vn -0 0 1
vn -0 0 1
vn -0 0 1
vn -0 0 1
vn -0 0 1
vn -0 0 1
vn -0 0 1
vn -0 0 1
vn -0 0 1
vn -0 0 1
vn -0 0 1
vn -0 0 1
vn -0 0 1
vn -0 0 1
vn -0 0 1
vn -0 0 1
vn -0 0 1
vn -0 0 1
vn -0 0 1
vn -0 0 1
vn -0 0 1
vn -0 0 1
vn -0 0 1
vn -0 0 1
vn -0 0 1
vn -0 0 1
vn -0 0 1
vn -0 0 1
vn -0 0 1
vn -0 0 1
vn -0 0 1
vn -0 0 1
vn -0 0 1
vn -0 0 1
vn -0 0 1
vn -0 0 1
vn -0 0 1
vn -0 0 1
vn -0 0 1
vn -0 0 1
vn -0 0 1
vn -0 0 1
g general_plane_59_0
f 3/3/3 2/2/2 1/1/1
f 4/4/4 3/3/3 1/1/1
f 7/7/7 6/6/6 5/5/5
f 8/8/8 7/7/7 5/5/5
f 9/9/9 7/7/7 8/8/8
f 10/10/10 9/9/9 8/8/8
f 11/11/11 9/9/9 10/10/10
f 12/12/12 11/11/11 10/10/10
f 13/13/13 11/11/11 12/12/12
f 14/14/14 13/13/13 12/12/12
f 15/15/15 13/13/13 14/14/14
f 16/16/16 15/15/15 14/14/14
f 8/8/8 5/5/5 17/17/17
f 10/10/10 8/8/8 18/18/18
f 18/18/18 8/8/8 17/17/17
f 12/12/12 10/10/10 19/19/19
f 19/19/19 10/10/10 18/18/18
f 14/14/14 12/12/12 20/20/20
f 20/20/20 12/12/12 19/19/19
f 17/17/17 5/5/5 21/21/21
f 5/5/5 22/22/22 21/21/21
f 17/17/17 21/21/21 23/23/23
f 24/24/24 17/17/17 23/23/23
f 18/18/18 17/17/17 24/24/24
f 24/24/24 23/23/23 25/25/25
f 19/19/19 18/18/18 26/26/26
f 26/26/26 18/18/18 24/24/24
f 27/27/27 19/19/19 26/26/26
f 20/20/20 28/28/28 27/27/27
f 29/29/29 20/20/20 27/27/27
f 30/30/30 14/14/14 20/20/20
f 30/30/30 20/20/20 31/31/31
f 32/32/32 14/14/14 30/30/30
f 33/33/33 24/24/24 25/25/25
f 26/26/26 24/24/24 33/33/33
f 33/33/33 25/25/25 34/34/34
f 27/27/27 26/26/26 35/35/35
f 35/35/35 26/26/26 33/33/33
f 36/36/36 33/33/33 34/34/34
f 35/35/35 33/33/33 36/36/36
f 36/36/36 34/34/34 37/37/37
f 38/38/38 27/27/27 35/35/35
f 31/31/31 27/27/27 38/38/38
f 39/39/39 36/36/36 37/37/37
f 39/39/39 37/37/37 40/40/40
f 41/41/41 35/35/35 36/36/36
f 38/38/38 35/35/35 41/41/41
f 41/41/41 36/36/36 39/39/39
f 42/42/42 39/39/39 40/40/40
f 42/42/42 40/40/40 43/43/43
f 44/44/44 42/42/42 43/43/43
f 45/45/45 41/41/41 39/39/39
f 45/45/45 39/39/39 42/42/42
f 46/46/46 38/38/38 41/41/41
f 46/46/46 41/41/41 45/45/45
f 47/47/47 31/31/31 38/38/38
f 47/47/47 38/38/38 46/46/46
f 48/48/48 42/42/42 44/44/44
f 48/48/48 45/45/45 42/42/42
f 49/49/49 46/46/46 45/45/45
f 49/49/49 45/45/45 48/48/48
f 50/50/50 46/46/46 49/49/49
f 51/51/51 50/50/50 49/49/49
f 52/52/52 47/47/47 46/46/46
f 51/51/51 49/49/49 53/53/53
f 54/54/54 49/49/49 48/48/48
f 55/55/55 51/51/51 53/53/53
f 56/56/56 48/48/48 44/44/44
f 54/54/54 48/48/48 56/56/56
f 56/56/56 44/44/44 57/57/57
f 58/58/58 56/56/56 57/57/57
f 59/59/59 54/54/54 56/56/56
f 59/59/59 56/56/56 58/58/58
f 55/55/55 54/54/54 59/59/59
f 60/60/60 59/59/59 58/58/58
f 61/61/61 59/59/59 60/60/60
f 61/61/61 55/55/55 59/59/59
f 62/62/62 61/61/61 60/60/60
f 63/63/63 61/61/61 62/62/62
f 64/64/64 63/63/63 62/62/62
f 65/65/65 63/63/63 64/64/64
f 66/66/66 65/65/65 64/64/64
f 67/67/67 55/55/55 61/61/61
f 63/63/63 67/67/67 61/61/61
f 67/67/67 68/68/68 55/55/55
f 68/68/68 51/51/51 55/55/55
f 69/69/69 67/67/67 63/63/63
f 70/70/70 69/69/69 63/63/63
f 71/71/71 70/70/70 66/66/66
f 72/72/72 71/71/71 66/66/66
f 68/68/68 73/73/73 51/51/51
f 73/73/73 52/52/52 51/51/51
f 74/74/74 68/68/68 67/67/67
f 69/69/69 74/74/74 67/67/67
f 75/75/75 69/69/69 70/70/70
f 71/71/71 75/75/75 70/70/70
f 76/76/76 71/71/71 72/72/72
f 77/77/77 76/76/76 72/72/72
f 78/78/78 76/76/76 77/77/77
f 79/79/79 78/78/78 77/77/77
f 78/78/78 80/80/80 76/76/76
f 76/76/76 81/81/81 71/71/71
f 80/80/80 81/81/81 76/76/76
f 81/81/81 75/75/75 71/71/71
f 80/80/80 82/82/82 81/81/81
f 82/82/82 83/83/83 81/81/81
f 81/81/81 83/83/83 75/75/75
f 82/82/82 84/84/84 83/83/83
f 75/75/75 85/85/85 69/69/69
f 83/83/83 85/85/85 75/75/75
f 85/85/85 74/74/74 69/69/69
f 84/84/84 86/86/86 83/83/83
f 83/83/83 86/86/86 85/85/85
f 84/84/84 87/87/87 86/86/86
f 85/85/85 88/88/88 74/74/74
f 86/86/86 88/88/88 85/85/85
f 87/87/87 89/89/89 86/86/86
f 86/86/86 89/89/89 88/88/88
f 87/87/87 90/90/90 89/89/89
f 88/88/88 91/91/91 74/74/74
f 74/74/74 91/91/91 68/68/68
f 91/91/91 73/73/73 68/68/68
f 89/89/89 92/92/92 88/88/88
f 88/88/88 92/92/92 91/91/91
f 90/90/90 93/93/93 89/89/89
f 89/89/89 93/93/93 92/92/92
f 90/90/90 94/94/94 93/93/93
f 91/91/91 95/95/95 73/73/73
f 92/92/92 95/95/95 91/91/91
f 93/93/93 96/96/96 92/92/92
f 92/92/92 96/96/96 95/95/95
f 94/94/94 97/97/97 93/93/93
f 93/93/93 97/97/97 96/96/96
f 94/94/94 98/98/98 97/97/97
f 95/95/95 99/99/99 73/73/73
f 73/73/73 99/99/99 52/52/52
f 99/99/99 47/47/47 52/52/52
f 96/96/96 100/100/100 95/95/95
f 95/95/95 100/100/100 99/99/99
f 100/100/100 101/101/101 99/99/99
f 99/99/99 102/102/102 47/47/47
f 102/102/102 31/31/31 47/47/47
f 102/102/102 30/30/30 31/31/31
f 103/103/103 30/30/30 102/102/102
f 100/100/100 103/103/103 102/102/102
f 103/103/103 32/32/32 30/30/30
f 96/96/96 104/104/104 100/100/100
f 104/104/104 103/103/103 100/100/100
f 97/97/97 104/104/104 96/96/96
f 105/105/105 32/32/32 103/103/103
f 104/104/104 105/105/105 103/103/103
f 97/97/97 106/106/106 104/104/104
f 106/106/106 105/105/105 104/104/104
f 98/98/98 106/106/106 97/97/97
f 98/98/98 107/107/107 106/106/106
f 107/107/107 108/108/108 106/106/106
f 106/106/106 108/108/108 105/105/105
f 108/108/108 109/109/109 105/105/105
f 105/105/105 109/109/109 32/32/32
f 109/109/109 15/15/15 32/32/32
f 112/112/112 111/111/111 110/110/110
f 113/113/113 112/112/112 110/110/110
