g chen_skin_02_emitter_01
v -0.0366647691 -0.0515402518 0
v -0.0749160051 0.0749160051 0
v 0.034539707 0.0472901128 0
v 0.125917643 -0.0770410672 0
v 0.541353822 -0.0515402518 0
v 0.517978072 0.102541886 0
v 0.674185336 0.0685407966 0
v 0.691185832 -0.0664157346 0
v 0.61573118 0.551979184 0
v 0.541353822 0.723061979 0
v 0.725186944 0.669935226 0
v 0.744312525 0.534978628 0
v -0.102541909 0.636981964 0
v -0.147168338 0.774063587 0
v -0.0100867338 0.723061979 0
v 0.0430399738 0.600855768 0
vt 0 0
vt 0 1
vt 1 1
vt 1 0
vt 0 0
vt 0 1
vt 1 1
vt 1 0
vt 0 0
vt 0 1
vt 1 1
vt 1 0
vt 0 0
vt 0 1
vt 1 1
vt 1 0
vn -0 0 1
vn -0 0 1
vn -0 0 1
vn -0 0 1
vn -0 0 1
vn -0 0 1
vn -0 0 1
vn -0 0 1
vn -0 0 1
vn -0 0 1
vn -0 0 1
vn -0 0 1
vn -0 0 1
vn -0 0 1
vn -0 0 1
vn -0 0 1
g chen_skin_02_emitter_01_0
f 3/3/3 2/2/2 1/1/1
f 4/4/4 3/3/3 1/1/1
f 7/7/7 6/6/6 5/5/5
f 8/8/8 7/7/7 5/5/5
f 11/11/11 10/10/10 9/9/9
f 12/12/12 11/11/11 9/9/9
f 15/15/15 14/14/14 13/13/13
f 16/16/16 15/15/15 13/13/13
