g general_ring_16.001
v -8.14603425E-08 -0.000960484147 0.25
v -0.0487726815 -0.000960484147 0.245196313
v -0.0895158798 0.296119601 0.450025737
v -1.6526424E-07 0.296119601 0.458842337
v -0.0487726815 -0.000960484147 0.245196313
v -0.0956709683 -0.000960484147 0.230969846
v -0.175591558 0.296119601 0.423914909
v -0.0895158798 0.296119601 0.450025737
v -0.0956709683 -0.000960484147 0.230969846
v -0.13889268 -0.000960484147 0.207867339
v -0.25491932 0.296119601 0.381513298
v -0.175591558 0.296119601 0.423914909
v -0.13889268 -0.000960484147 0.207867339
v -0.176776811 -0.000960484147 0.176776603
v -0.324450672 0.296119601 0.324450314
v -0.25491932 0.296119601 0.381513298
v -0.176776811 -0.000960484147 0.176776603
v -0.207867503 -0.000960499048 0.138892427
v -0.381513566 0.296119601 0.254918873
v -0.324450672 0.296119601 0.324450314
v -0.207867503 -0.000960499048 0.138892427
v -0.230969965 -0.000960499048 0.0956706777
v -0.423915118 0.296119601 0.175591022
v -0.381513566 0.296119601 0.254918873
v -0.230969965 -0.000960499048 0.0956706777
v -0.245196357 -0.000960499048 0.048772376
v -0.450025797 0.296119601 0.0895153508
v -0.423915118 0.296119601 0.175591022
v -0.245196357 -0.000960499048 0.048772376
v -0.25 -0.000960499048 -2.3047194E-07
v -0.458842278 0.296119571 -3.8863368E-07
v -0.450025797 0.296119601 0.0895153508
v -0.25 -0.000960499048 -2.3047194E-07
v -0.245196268 -0.000960499048 -0.0487728268
v -0.450025618 0.296119571 -0.0895160958
v -0.458842278 0.296119571 -3.8863368E-07
v -0.245196268 -0.000960499048 -0.0487728268
v -0.230969772 -0.000960499048 -0.0956711099
v -0.42391476 0.296119571 -0.175591752
v -0.450025618 0.296119571 -0.0895160958
v -0.230969772 -0.000960499048 -0.0956711099
v -0.207867235 -0.000960499048 -0.1388928
v -0.381513089 0.296119571 -0.254919529
v -0.42391476 0.296119571 -0.175591752
v -0.207867235 -0.000960499048 -0.1388928
v -0.176776469 -0.000960499048 -0.176776901
v -0.324450046 0.296119571 -0.324450821
v -0.381513089 0.296119571 -0.254919529
v -0.176776469 -0.000960499048 -0.176776901
v -0.138892278 -0.000960499048 -0.207867578
v -0.254918575 0.296119571 -0.381513685
v -0.324450046 0.296119571 -0.324450821
v -0.138892278 -0.000960499048 -0.207867578
v -0.0956705213 -0.000960499048 -0.23097001
v -0.175590739 0.296119571 -0.423915178
v -0.254918575 0.296119571 -0.381513685
v -0.0956705213 -0.000960499048 -0.23097001
v -0.0487722047 -0.000960499048 -0.245196372
v -0.0895150006 0.296119571 -0.450025797
v -0.175590739 0.296119571 -0.423915178
v -0.0487722047 -0.000960499048 -0.245196372
v -0 -0.000960499048 -0.249999985
v -1.57544591E-08 0.296119571 -0.458842188
v -0.0895150006 0.296119571 -0.450025797
vt 0.500488281 0.0102539062
vt 0.469238281 0.0102539062
vt 0.46875 1
vt 0.5 1
vt 0.469238281 0.0102539062
vt 0.437988281 0.0102539062
vt 0.4375 1
vt 0.46875 1
vt 0.437988281 0.0102539062
vt 0.406738281 0.0102539062
vt 0.40625 1
vt 0.4375 1
vt 0.406738281 0.0102539062
vt 0.375488281 0.0102539062
vt 0.375 1
vt 0.40625 1
vt 0.375488281 0.0102539062
vt 0.344238281 0.0102539062
vt 0.34375 1
vt 0.375 1
vt 0.344238281 0.0102539062
vt 0.312988281 0.0102539062
vt 0.3125 1
vt 0.34375 1
vt 0.312988281 0.0102539062
vt 0.281738281 0.0102539062
vt 0.28125 1
vt 0.3125 1
vt 0.281738281 0.0102539062
vt 0.250488281 0.0102539062
vt 0.25 1
vt 0.28125 1
vt 0.250488281 0.0102539062
vt 0.219238281 0.0102539062
vt 0.21875 1
vt 0.25 1
vt 0.219238281 0.0102539062
vt 0.187988281 0.0102539062
vt 0.1875 1
vt 0.21875 1
vt 0.187988281 0.0102539062
vt 0.156738281 0.0102539062
vt 0.15625 1
vt 0.1875 1
vt 0.156738281 0.0102539062
vt 0.125488281 0.0102539062
vt 0.125 1
vt 0.15625 1
vt 0.125488281 0.0102539062
vt 0.0942382812 0.0102539062
vt 0.09375 1
vt 0.125 1
vt 0.0942382812 0.0102539062
vt 0.0629882812 0.0102539062
vt 0.0625 1
vt 0.09375 1
vt 0.0629882812 0.0102539062
vt 0.0317382812 0.0102539062
vt 0.03125 1
vt 0.0625 1
vt 0.0317382812 0.0102539062
vt -0.00048828125 0.0102539062
vt 0 1
vt 0.03125 1
vn -0.0803147629 -0.573241293 0.815440953
vn -0.0803147629 -0.573241293 0.815440953
vn -0.0803147629 -0.573241293 0.815440953
vn -0.0803147629 -0.573241293 0.815440953
vn -0.237855598 -0.573241293 0.784104049
vn -0.237855598 -0.573241293 0.784104049
vn -0.237855598 -0.573241293 0.784104049
vn -0.237855598 -0.573241293 0.784104049
vn -0.386256576 -0.573241293 0.722634256
vn -0.386256576 -0.573241293 0.722634256
vn -0.386256576 -0.573241293 0.722634256
vn -0.386256576 -0.573241293 0.722634256
vn -0.519813776 -0.573241293 0.633394063
vn -0.519813776 -0.573241293 0.633394063
vn -0.519813776 -0.573241293 0.633394063
vn -0.519813776 -0.573241293 0.633394063
vn -0.633394837 -0.573241293 0.519812942
vn -0.633394837 -0.573241293 0.519812942
vn -0.633394837 -0.573241293 0.519812942
vn -0.633394837 -0.573241293 0.519812942
vn -0.722634792 -0.573241115 0.386255741
vn -0.722634792 -0.573241115 0.386255741
vn -0.722634792 -0.573241115 0.386255741
vn -0.722634792 -0.573241115 0.386255741
vn -0.784104288 -0.573241353 0.237854645
vn -0.784104288 -0.573241353 0.237854645
vn -0.784104288 -0.573241353 0.237854645
vn -0.784104288 -0.573241353 0.237854645
vn -0.815441191 -0.573241293 0.0803136006
vn -0.815441191 -0.573241293 0.0803136006
vn -0.815441191 -0.573241293 0.0803136006
vn -0.815441191 -0.573241293 0.0803136006
vn -0.815440953 -0.573241234 -0.0803150013
vn -0.815440953 -0.573241234 -0.0803150013
vn -0.815440953 -0.573241234 -0.0803150013
vn -0.815440953 -0.573241234 -0.0803150013
vn -0.78410393 -0.573241174 -0.237856135
vn -0.78410393 -0.573241174 -0.237856135
vn -0.78410393 -0.573241174 -0.237856135
vn -0.78410393 -0.573241174 -0.237856135
vn -0.722634137 -0.573241293 -0.386256874
vn -0.722634137 -0.573241293 -0.386256874
vn -0.722634137 -0.573241293 -0.386256874
vn -0.722634137 -0.573241293 -0.386256874
vn -0.633393705 -0.573241115 -0.519814372
vn -0.633393705 -0.573241115 -0.519814372
vn -0.633393705 -0.573241115 -0.519814372
vn -0.633393705 -0.573241115 -0.519814372
vn -0.519812584 -0.573241293 -0.633395076
vn -0.519812584 -0.573241293 -0.633395076
vn -0.519812584 -0.573241293 -0.633395076
vn -0.519812584 -0.573241293 -0.633395076
vn -0.386255175 -0.573241174 -0.72263515
vn -0.386255175 -0.573241174 -0.72263515
vn -0.386255175 -0.573241174 -0.72263515
vn -0.386255175 -0.573241174 -0.72263515
vn -0.23785387 -0.573241234 -0.784104586
vn -0.23785387 -0.573241234 -0.784104586
vn -0.23785387 -0.573241234 -0.784104586
vn -0.23785387 -0.573241234 -0.784104586
vn -0.0803136751 -0.573241174 -0.815441191
vn -0.0803136751 -0.573241174 -0.815441191
vn -0.0803136751 -0.573241174 -0.815441191
vn -0.0803136751 -0.573241174 -0.815441191
g general_ring_16.001_0
f 3/3/3 2/2/2 1/1/1
f 4/4/4 3/3/3 1/1/1
f 7/7/7 6/6/6 5/5/5
f 8/8/8 7/7/7 5/5/5
f 11/11/11 10/10/10 9/9/9
f 12/12/12 11/11/11 9/9/9
f 15/15/15 14/14/14 13/13/13
f 16/16/16 15/15/15 13/13/13
f 19/19/19 18/18/18 17/17/17
f 20/20/20 19/19/19 17/17/17
f 23/23/23 22/22/22 21/21/21
f 24/24/24 23/23/23 21/21/21
f 27/27/27 26/26/26 25/25/25
f 28/28/28 27/27/27 25/25/25
f 31/31/31 30/30/30 29/29/29
f 32/32/32 31/31/31 29/29/29
f 35/35/35 34/34/34 33/33/33
f 36/36/36 35/35/35 33/33/33
f 39/39/39 38/38/38 37/37/37
f 40/40/40 39/39/39 37/37/37
f 43/43/43 42/42/42 41/41/41
f 44/44/44 43/43/43 41/41/41
f 47/47/47 46/46/46 45/45/45
f 48/48/48 47/47/47 45/45/45
f 51/51/51 50/50/50 49/49/49
f 52/52/52 51/51/51 49/49/49
f 55/55/55 54/54/54 53/53/53
f 56/56/56 55/55/55 53/53/53
f 59/59/59 58/58/58 57/57/57
f 60/60/60 59/59/59 57/57/57
f 63/63/63 62/62/62 61/61/61
f 64/64/64 63/63/63 61/61/61
