g Plane001
v 0.29022491 -0.166592836 -0.0130428933
v 0.424873859 -0.0627880245 -0.0643075928
v 0.315996587 -0.0867656842 -0.113498159
v 0.395403177 -0.152858496 0.0394015536
v 0.247776151 -0.239380836 0.0901826471
v 0.506024897 -0.00809403136 0.00830057915
v 0.348403335 -0.2345009 0.145214379
v 0.193886027 -0.297029346 0.190027013
v 0.476801693 -0.106852926 0.111922197
v 0.547095478 0.0689896122 0.0932723805
v 0.28638348 -0.302566409 0.251609117
v 0.121303834 -0.343883574 0.300826401
v 0.429326504 -0.1963557 0.217148125
v 0.522736132 -0.0351804085 0.194108546
v 0.541832983 0.156727612 0.177671626
v 0.526611865 0.0518703572 0.274162561
v 0.479612589 -0.130099088 0.296264946
v 0.492467403 -0.0446829312 0.371875465
v 0.208770007 -0.354547352 0.362791657
v 0.0401728377 -0.373969138 0.414460361
v 0.36526221 -0.27251184 0.324091285
v 0.420511544 -0.210680023 0.398274511
v 0.445119143 -0.124918245 0.464743972
v 0.122822344 -0.38876909 0.476128489
v -0.0461690798 -0.383036196 0.531624734
v 0.286780745 -0.330234289 0.432983458
v 0.346055806 -0.273836762 0.503051341
v 0.379543304 -0.192064285 0.564659536
v 0.031134339 -0.401286751 0.593411982
v -0.132829398 -0.371497661 0.652652085
v 0.19989574 -0.369762033 0.543592274
v 0.262817085 -0.31906274 0.6093449
v 0.304585487 -0.242312685 0.666070282
v -0.0589403957 -0.392398149 0.712051451
v -0.217276365 -0.33854416 0.78155899
v 0.108490273 -0.387128115 0.656198442
v 0.177867636 -0.342030317 0.713465571
v 0.232063547 -0.270675421 0.759267867
v -0.145434722 -0.362310916 0.836525798
v -0.287396103 -0.28717646 0.90924567
v 0.0178553052 -0.383270204 0.770735323
v 0.0901372284 -0.344996005 0.823033392
v 0.150921404 -0.281273574 0.863892317
v -0.218114778 -0.313726932 0.960137784
v -0.346126944 -0.217084661 1.04794216
v -0.0669107437 -0.359212577 0.88723886
v 0.011253383 -0.329526961 0.929150224
v 0.0820478946 -0.275916427 0.958501101
v -0.277922273 -0.24830015 1.0908463
v -0.381281376 -0.14009212 1.18105686
v -0.140660599 -0.316232681 1.00584805
v -0.0614615567 -0.294485807 1.04258251
v 0.01290958 -0.25029102 1.06729305
v -0.316121399 -0.174559012 1.21887624
v -0.396832466 -0.0526578315 1.32661545
v -0.199918032 -0.258960009 1.12646592
v -0.11808572 -0.248248115 1.15207422
v -0.0386899821 -0.216984615 1.16571081
v -0.334541678 -0.0930479541 1.35444713
v -0.38950336 0.027415283 1.46357882
v -0.240810201 -0.191018283 1.24923134
v -0.16064775 -0.188311473 1.26998603
v -0.0812750757 -0.16662921 1.27967966
v -0.331573755 -0.0157877952 1.48617911
v -0.3599509 0.104852952 1.61253297
v -0.261963665 -0.118193612 1.37410021
v -0.183775797 -0.126474202 1.38430786
v -0.105016939 -0.117356159 1.38441229
v -0.307567865 0.0568403266 1.62502396
v -0.313208491 0.167886093 1.76124322
v -0.263622195 -0.0457105823 1.50102293
v -0.189642593 -0.0605943128 1.50723755
v -0.113983251 -0.059564095 1.50445771
v -0.267546058 0.116825573 1.7644465
v -0.257355988 0.209936753 1.90067875
v -0.245575711 0.0202920754 1.63016593
v -0.177282885 -0.00284144469 1.62768459
v -0.106333621 -0.0113257132 1.6177119
v -0.217121243 0.158887833 1.90027463
v -0.193397105 0.23404564 2.04758453
v -0.212670743 0.0758238807 1.7612741
v -0.151228175 0.0468576998 1.7518785
v -0.0861804932 0.0313235223 1.73671341
v -0.159683466 0.183177024 2.04061627
v -0.131323472 0.238484904 2.19163847
v -0.168120548 0.11658334 1.89442122
v -0.112476468 0.0848557204 1.88337183
v -0.0525992103 0.0650792122 1.86760497
v -0.103108533 0.189256996 2.18039322
v -0.0765916407 0.226067588 2.33260512
v -0.117515884 0.139905915 2.02955747
v -0.0685255677 0.105906032 2.0148356
v -0.014607151 0.0824923441 1.99701989
v -0.0526341908 0.179170504 2.31952167
v -0.0339611061 0.200432122 2.47120404
v -0.0667610392 0.146467894 2.1664691
v -0.023527924 0.111585289 2.15034366
v 0.025107963 0.0858057812 2.13257027
v -0.0132731237 0.155907929 2.45863032
v -0.00520908134 0.167369187 2.60924911
v -0.020981567 0.137539908 2.30504799
v 0.0174105652 0.10243246 2.28962135
v 0.0613834634 0.0749079511 2.27370691
v 0.0125773326 0.125238135 2.597996
v 0.0090472186 0.132564709 2.74573112
v 0.0144116199 0.115626447 2.44523478
v 0.0483641997 0.0806483254 2.43136978
v 0.0876906738 0.0518946014 2.41740036
v 0.0241769161 0.0926531851 2.73728967
v 0.0101372683 0.100875288 2.88179183
v 0.0366724692 0.0863681287 2.58674598
v 0.0665283054 0.0516430214 2.57575488
v 0.101466089 0.021852348 2.56527257
v 0.0225665495 0.063246645 2.87695622
v 0.000700538629 0.0764594078 3.01857066
v 0.0448290445 0.0551878363 2.72935653
v 0.0706028566 0.0208958667 2.72208548
v 0.10099829 -0.00955731422 2.71561766
v 0.010399946 0.0414639898 3.01740503
v -0.015918795 0.0631764457 3.16005087
v -0.00851013977 0.0312844776 3.16042352
v 0.0397126935 0.0274305437 2.8728323
v 0.0612954833 -0.00598771591 2.86948776
v 0.0869623274 -0.0364622101 2.86697698
v 0.0240543447 0.00779744051 3.01691651
v 0.00215384131 0.000339707942 3.16133404
v 0.0414788648 -0.0240846239 3.01711106
v 0.062437661 -0.0537506901 3.01798654
v 0.0159559064 -0.0293176863 3.16277289
v 0.0327442214 -0.0573617108 3.16472411
vt 0.960000157 0
vt 1.00000012 0.25
vt 1.00000012 0
vt 0.960000157 0.25
vt 0.920000136 0
vt 1.00000012 0.5
vt 0.920000136 0.25
vt 0.880000114 0
vt 0.960000157 0.5
vt 1.00000012 0.75
vt 0.880000114 0.25
vt 0.840000093 0
vt 0.920000136 0.5
vt 0.960000157 0.75
vt 1.00000012 1
vt 0.960000157 1
vt 0.920000136 0.75
vt 0.920000136 1
vt 0.840000093 0.25
vt 0.800000072 0
vt 0.880000114 0.5
vt 0.880000114 0.75
vt 0.880000114 1
vt 0.800000072 0.25
vt 0.76000005 0
vt 0.840000093 0.5
vt 0.840000093 0.75
vt 0.840000093 1
vt 0.76000005 0.25
vt 0.720000029 0
vt 0.800000072 0.5
vt 0.800000072 0.75
vt 0.800000072 1
vt 0.720000029 0.25
vt 0.680000007 0
vt 0.76000005 0.5
vt 0.76000005 0.75
vt 0.76000005 1
vt 0.680000007 0.25
vt 0.639999986 0
vt 0.720000029 0.5
vt 0.720000029 0.75
vt 0.720000029 1
vt 0.639999986 0.25
vt 0.599999964 0
vt 0.680000007 0.5
vt 0.680000007 0.75
vt 0.680000007 1
vt 0.599999964 0.25
vt 0.559999943 0
vt 0.639999986 0.5
vt 0.639999986 0.75
vt 0.639999986 1
vt 0.559999943 0.25
vt 0.519999921 0
vt 0.599999964 0.5
vt 0.599999964 0.75
vt 0.599999964 1
vt 0.519999921 0.25
vt 0.47999993 0
vt 0.559999943 0.5
vt 0.559999943 0.75
vt 0.559999943 1
vt 0.47999993 0.25
vt 0.439999938 0
vt 0.519999921 0.5
vt 0.519999921 0.75
vt 0.519999921 1
vt 0.439999938 0.25
vt 0.399999946 0
vt 0.47999993 0.5
vt 0.47999993 0.75
vt 0.47999993 1
vt 0.399999946 0.25
vt 0.359999955 0
vt 0.439999938 0.5
vt 0.439999938 0.75
vt 0.439999938 1
vt 0.359999955 0.25
vt 0.319999963 0
vt 0.399999946 0.5
vt 0.399999946 0.75
vt 0.399999946 1
vt 0.319999963 0.25
vt 0.279999971 0
vt 0.359999955 0.5
vt 0.359999955 0.75
vt 0.359999955 1
vt 0.279999971 0.25
vt 0.23999998 0
vt 0.319999963 0.5
vt 0.319999963 0.75
vt 0.319999963 1
vt 0.23999998 0.25
vt 0.199999988 0
vt 0.279999971 0.5
vt 0.279999971 0.75
vt 0.279999971 1
vt 0.199999988 0.25
vt 0.159999996 0
vt 0.23999998 0.5
vt 0.23999998 0.75
vt 0.23999998 1
vt 0.159999996 0.25
vt 0.119999997 0
vt 0.199999988 0.5
vt 0.199999988 0.75
vt 0.199999988 1
vt 0.119999997 0.25
vt 0.0799999982 0
vt 0.159999996 0.5
vt 0.159999996 0.75
vt 0.159999996 1
vt 0.0799999982 0.25
vt 0.0399999991 0
vt 0.119999997 0.5
vt 0.119999997 0.75
vt 0.119999997 1
vt 0.0399999991 0.25
vt 0 0
vt 0 0.25
vt 0.0799999982 0.5
vt 0.0799999982 0.75
vt 0.0799999982 1
vt 0.0399999991 0.5
vt 0 0.5
vt 0.0399999991 0.75
vt 0.0399999991 1
vt 0 0.75
vt 0 1
vn 0.35336253 -0.790461838 -0.500304937
vn 0.553650916 -0.699257374 -0.452227712
vn 0.383838147 -0.758192182 -0.527079642
vn 0.52460736 -0.740468621 -0.420111209
vn 0.281436473 -0.853688955 -0.438187957
vn 0.824424148 -0.506115854 -0.253320962
vn 0.4473162 -0.821562052 -0.35347417
vn 0.191642091 -0.91074264 -0.365815818
vn 0.794731557 -0.565145373 -0.22138758
vn 0.971413672 -0.236904427 -0.0152223594
vn 0.348679751 -0.895864069 -0.275408834
vn 0.0881948695 -0.953719854 -0.287471831
vn 0.719196618 -0.677387238 -0.154604733
vn 0.950709164 -0.309936732 0.00955750886
vn 0.990558386 -0.0896908864 0.103680559
vn 0.979341328 -0.157409206 0.126936555
vn 0.894294441 -0.442714632 0.065125227
vn 0.939442158 -0.295136124 0.174192563
vn 0.237458393 -0.951448798 -0.195853963
vn -0.0231844932 -0.97892499 -0.20289965
vn 0.619946301 -0.780805409 -0.0775200725
vn 0.813406467 -0.567192793 0.129082575
vn 0.876871407 -0.423378229 0.227700278
vn 0.1186295 -0.98653841 -0.1125568
vn -0.141352728 -0.983684778 -0.111281425
vn 0.507606983 -0.861586869 -0.00180304318
vn 0.718040049 -0.669119239 0.191567123
vn 0.796302438 -0.535241365 0.281813979
vn -0.0075620464 -0.999704659 -0.0230948739
vn -0.25550434 -0.966585815 -0.0207203086
vn 0.386718661 -0.919357538 0.0723208562
vn 0.613503337 -0.749766767 0.247918203
vn 0.707264066 -0.62651974 0.327491343
vn -0.127474755 -0.98986721 0.0625543818
vn -0.362734199 -0.928960264 0.0738697723
vn 0.259459019 -0.954070747 0.149766281
vn 0.501616597 -0.809491038 0.305131257
vn 0.611518323 -0.698306978 0.372038573
vn -0.239895657 -0.959156394 0.149897352
vn -0.454443216 -0.87555027 0.163990662
vn 0.138539821 -0.965485573 0.220554635
vn 0.393705606 -0.848178625 0.354385346
vn 0.514915407 -0.753177583 0.409372181
vn -0.336245775 -0.912886024 0.231469214
vn -0.527580559 -0.81229496 0.248667881
vn 0.0248669833 -0.957024276 0.288939476
vn 0.289741248 -0.870002151 0.398931295
vn 0.422911793 -0.791826844 0.440631121
vn -0.414038241 -0.857655346 0.304958433
vn -0.58069855 -0.747323334 0.322950453
vn -0.0743016452 -0.933914542 0.349689811
vn 0.196041018 -0.878651798 0.435360879
vn 0.33380571 -0.820210218 0.46457395
vn -0.473074108 -0.800307274 0.368387341
vn -0.616879523 -0.68756026 0.383041263
vn -0.157817721 -0.903041184 0.399512529
vn 0.112202361 -0.880837023 0.459931463
vn 0.254529059 -0.841597021 0.47637108
vn -0.515954614 -0.749076068 0.415542692
vn -0.640383363 -0.639199018 0.425833225
vn -0.226090983 -0.869970143 0.438217819
vn 0.0381092764 -0.880053103 0.4733437
vn 0.177545041 -0.860548496 0.477424324
vn -0.548421741 -0.707157075 0.446276039
vn -0.659517169 -0.603721678 0.447836041
vn -0.282723755 -0.841595888 0.460199594
vn -0.0304499567 -0.88140732 0.471374691
vn 0.105253011 -0.879314065 0.464465767
vn -0.576906621 -0.677888989 0.455681086
vn -0.680469215 -0.580265403 0.447497308
vn -0.333124101 -0.819953799 0.465514809
vn -0.0979629755 -0.885917723 0.453379631
vn 0.0287075676 -0.899672568 0.435620427
vn -0.608636081 -0.657856643 0.443606347
vn -0.709459782 -0.564098656 0.422444642
vn -0.382550836 -0.806119621 0.451471061
vn -0.167949736 -0.892402232 0.418821007
vn -0.0510970838 -0.918222308 0.392755598
vn -0.648421526 -0.64274168 0.407961547
vn -0.74867636 -0.548329651 0.37258321
vn -0.437736839 -0.795728862 0.418571532
vn -0.245934591 -0.895536721 0.370850593
vn -0.13923344 -0.930009007 0.340143025
vn -0.696558475 -0.625966787 0.350673497
vn -0.79418087 -0.525630176 0.304941863
vn -0.50019747 -0.785176039 0.365104139
vn -0.330484509 -0.89341867 0.304274797
vn -0.23605594 -0.933846235 0.268717051
vn -0.749688923 -0.600477338 0.278196871
vn -0.842168272 -0.492088586 0.220457405
vn -0.568508983 -0.767645776 0.295833468
vn -0.418716401 -0.879132986 0.227600157
vn -0.334262729 -0.923001707 0.190620869
vn -0.803705156 -0.563566804 0.1909201
vn -0.884727001 -0.448213309 0.127918199
vn -0.638981879 -0.737969697 0.217032015
vn -0.506260157 -0.849702835 0.147328749
vn -0.430693656 -0.895566285 0.111642823
vn -0.850888133 -0.516138613 0.0979310125
vn -0.916366339 -0.398389578 0.0394775346
vn -0.706854105 -0.695680082 0.12800929
vn -0.588312268 -0.806346476 0.0607781783
vn -0.520876169 -0.853177011 0.0278732572
vn -0.886135697 -0.463261098 0.0123526258
vn -0.936649323 -0.348252147 -0.0375302732
vn -0.765237153 -0.642596245 0.0384993479
vn -0.659076154 -0.75176096 -0.0217741691
vn -0.598477662 -0.799585342 -0.0498771966
vn -0.909949422 -0.410319954 -0.0602458529
vn -0.948285341 -0.302477449 -0.0962410122
vn -0.810292959 -0.584707856 -0.0392691679
vn -0.715705395 -0.692650199 -0.0894514546
vn -0.66209209 -0.740972281 -0.1122237
vn -0.925387979 -0.361682415 -0.11332684
vn -0.956030011 -0.262869 -0.130024582
vn -0.843575656 -0.527323961 -0.101535849
vn -0.760538995 -0.633997679 -0.140098095
vn -0.713813484 -0.682447374 -0.157276616
vn -0.937359154 -0.318762511 -0.140528277
vn -0.959673941 -0.243800581 -0.139954403
vn -0.943037927 -0.298566222 -0.146757185
vn -0.868824542 -0.474049151 -0.142903462
vn -0.797853649 -0.578595519 -0.16928333
vn -0.758059084 -0.626616418 -0.180826962
vn -0.891155124 -0.425268322 -0.15808022
vn -0.902334452 -0.400917649 -0.158295855
vn -0.832755923 -0.525951147 -0.172895506
vn -0.799906909 -0.572727859 -0.179253072
vn -0.850629449 -0.498334914 -0.167606264
vn -0.820619226 -0.545149148 -0.171453804
g Plane001_0
f 3/3/3 2/2/2 1/1/1
f 2/2/2 4/4/4 1/1/1
f 1/1/1 4/4/4 5/5/5
f 2/2/2 6/6/6 4/4/4
f 4/4/4 7/7/7 5/5/5
f 5/5/5 7/7/7 8/8/8
f 6/6/6 9/9/9 4/4/4
f 4/4/4 9/9/9 7/7/7
f 6/6/6 10/10/10 9/9/9
f 7/7/7 11/11/11 8/8/8
f 8/8/8 11/11/11 12/12/12
f 9/9/9 13/13/13 7/7/7
f 7/7/7 13/13/13 11/11/11
f 10/10/10 14/14/14 9/9/9
f 9/9/9 14/14/14 13/13/13
f 10/10/10 15/15/15 14/14/14
f 15/15/15 16/16/16 14/14/14
f 14/14/14 16/16/16 17/17/17
f 14/14/14 17/17/17 13/13/13
f 16/16/16 18/18/18 17/17/17
f 11/11/11 19/19/19 12/12/12
f 12/12/12 19/19/19 20/20/20
f 13/13/13 21/21/21 11/11/11
f 13/13/13 17/17/17 21/21/21
f 11/11/11 21/21/21 19/19/19
f 17/17/17 18/18/18 22/22/22
f 17/17/17 22/22/22 21/21/21
f 18/18/18 23/23/23 22/22/22
f 19/19/19 24/24/24 20/20/20
f 20/20/20 24/24/24 25/25/25
f 21/21/21 26/26/26 19/19/19
f 21/21/21 22/22/22 26/26/26
f 19/19/19 26/26/26 24/24/24
f 22/22/22 23/23/23 27/27/27
f 22/22/22 27/27/27 26/26/26
f 23/23/23 28/28/28 27/27/27
f 24/24/24 29/29/29 25/25/25
f 25/25/25 29/29/29 30/30/30
f 26/26/26 31/31/31 24/24/24
f 26/26/26 27/27/27 31/31/31
f 24/24/24 31/31/31 29/29/29
f 27/27/27 28/28/28 32/32/32
f 27/27/27 32/32/32 31/31/31
f 28/28/28 33/33/33 32/32/32
f 29/29/29 34/34/34 30/30/30
f 30/30/30 34/34/34 35/35/35
f 31/31/31 36/36/36 29/29/29
f 31/31/31 32/32/32 36/36/36
f 29/29/29 36/36/36 34/34/34
f 32/32/32 33/33/33 37/37/37
f 32/32/32 37/37/37 36/36/36
f 33/33/33 38/38/38 37/37/37
f 34/34/34 39/39/39 35/35/35
f 35/35/35 39/39/39 40/40/40
f 36/36/36 41/41/41 34/34/34
f 36/36/36 37/37/37 41/41/41
f 34/34/34 41/41/41 39/39/39
f 37/37/37 38/38/38 42/42/42
f 37/37/37 42/42/42 41/41/41
f 38/38/38 43/43/43 42/42/42
f 39/39/39 44/44/44 40/40/40
f 40/40/40 44/44/44 45/45/45
f 41/41/41 46/46/46 39/39/39
f 41/41/41 42/42/42 46/46/46
f 39/39/39 46/46/46 44/44/44
f 42/42/42 43/43/43 47/47/47
f 42/42/42 47/47/47 46/46/46
f 43/43/43 48/48/48 47/47/47
f 44/44/44 49/49/49 45/45/45
f 45/45/45 49/49/49 50/50/50
f 46/46/46 51/51/51 44/44/44
f 46/46/46 47/47/47 51/51/51
f 44/44/44 51/51/51 49/49/49
f 47/47/47 48/48/48 52/52/52
f 47/47/47 52/52/52 51/51/51
f 48/48/48 53/53/53 52/52/52
f 49/49/49 54/54/54 50/50/50
f 50/50/50 54/54/54 55/55/55
f 51/51/51 56/56/56 49/49/49
f 51/51/51 52/52/52 56/56/56
f 49/49/49 56/56/56 54/54/54
f 52/52/52 53/53/53 57/57/57
f 52/52/52 57/57/57 56/56/56
f 53/53/53 58/58/58 57/57/57
f 54/54/54 59/59/59 55/55/55
f 55/55/55 59/59/59 60/60/60
f 56/56/56 61/61/61 54/54/54
f 56/56/56 57/57/57 61/61/61
f 54/54/54 61/61/61 59/59/59
f 57/57/57 58/58/58 62/62/62
f 57/57/57 62/62/62 61/61/61
f 58/58/58 63/63/63 62/62/62
f 59/59/59 64/64/64 60/60/60
f 60/60/60 64/64/64 65/65/65
f 61/61/61 66/66/66 59/59/59
f 61/61/61 62/62/62 66/66/66
f 59/59/59 66/66/66 64/64/64
f 62/62/62 63/63/63 67/67/67
f 62/62/62 67/67/67 66/66/66
f 63/63/63 68/68/68 67/67/67
f 64/64/64 69/69/69 65/65/65
f 65/65/65 69/69/69 70/70/70
f 66/66/66 71/71/71 64/64/64
f 66/66/66 67/67/67 71/71/71
f 64/64/64 71/71/71 69/69/69
f 67/67/67 68/68/68 72/72/72
f 67/67/67 72/72/72 71/71/71
f 68/68/68 73/73/73 72/72/72
f 69/69/69 74/74/74 70/70/70
f 70/70/70 74/74/74 75/75/75
f 71/71/71 76/76/76 69/69/69
f 71/71/71 72/72/72 76/76/76
f 69/69/69 76/76/76 74/74/74
f 72/72/72 73/73/73 77/77/77
f 72/72/72 77/77/77 76/76/76
f 73/73/73 78/78/78 77/77/77
f 74/74/74 79/79/79 75/75/75
f 75/75/75 79/79/79 80/80/80
f 76/76/76 81/81/81 74/74/74
f 76/76/76 77/77/77 81/81/81
f 74/74/74 81/81/81 79/79/79
f 77/77/77 78/78/78 82/82/82
f 77/77/77 82/82/82 81/81/81
f 78/78/78 83/83/83 82/82/82
f 79/79/79 84/84/84 80/80/80
f 80/80/80 84/84/84 85/85/85
f 81/81/81 86/86/86 79/79/79
f 81/81/81 82/82/82 86/86/86
f 79/79/79 86/86/86 84/84/84
f 82/82/82 83/83/83 87/87/87
f 82/82/82 87/87/87 86/86/86
f 83/83/83 88/88/88 87/87/87
f 84/84/84 89/89/89 85/85/85
f 85/85/85 89/89/89 90/90/90
f 86/86/86 91/91/91 84/84/84
f 86/86/86 87/87/87 91/91/91
f 84/84/84 91/91/91 89/89/89
f 87/87/87 88/88/88 92/92/92
f 87/87/87 92/92/92 91/91/91
f 88/88/88 93/93/93 92/92/92
f 89/89/89 94/94/94 90/90/90
f 90/90/90 94/94/94 95/95/95
f 91/91/91 96/96/96 89/89/89
f 91/91/91 92/92/92 96/96/96
f 89/89/89 96/96/96 94/94/94
f 92/92/92 93/93/93 97/97/97
f 92/92/92 97/97/97 96/96/96
f 93/93/93 98/98/98 97/97/97
f 94/94/94 99/99/99 95/95/95
f 95/95/95 99/99/99 100/100/100
f 96/96/96 101/101/101 94/94/94
f 96/96/96 97/97/97 101/101/101
f 94/94/94 101/101/101 99/99/99
f 97/97/97 98/98/98 102/102/102
f 97/97/97 102/102/102 101/101/101
f 98/98/98 103/103/103 102/102/102
f 99/99/99 104/104/104 100/100/100
f 100/100/100 104/104/104 105/105/105
f 101/101/101 106/106/106 99/99/99
f 101/101/101 102/102/102 106/106/106
f 99/99/99 106/106/106 104/104/104
f 102/102/102 103/103/103 107/107/107
f 102/102/102 107/107/107 106/106/106
f 103/103/103 108/108/108 107/107/107
f 104/104/104 109/109/109 105/105/105
f 105/105/105 109/109/109 110/110/110
f 106/106/106 111/111/111 104/104/104
f 106/106/106 107/107/107 111/111/111
f 104/104/104 111/111/111 109/109/109
f 107/107/107 108/108/108 112/112/112
f 107/107/107 112/112/112 111/111/111
f 108/108/108 113/113/113 112/112/112
f 109/109/109 114/114/114 110/110/110
f 110/110/110 114/114/114 115/115/115
f 111/111/111 116/116/116 109/109/109
f 111/111/111 112/112/112 116/116/116
f 109/109/109 116/116/116 114/114/114
f 112/112/112 113/113/113 117/117/117
f 112/112/112 117/117/117 116/116/116
f 113/113/113 118/118/118 117/117/117
f 114/114/114 119/119/119 115/115/115
f 115/115/115 119/119/119 120/120/120
f 119/119/119 121/121/121 120/120/120
f 116/116/116 122/122/122 114/114/114
f 116/116/116 117/117/117 122/122/122
f 114/114/114 122/122/122 119/119/119
f 117/117/117 118/118/118 123/123/123
f 117/117/117 123/123/123 122/122/122
f 118/118/118 124/124/124 123/123/123
f 119/119/119 125/125/125 121/121/121
f 122/122/122 125/125/125 119/119/119
f 122/122/122 123/123/123 125/125/125
f 125/125/125 126/126/126 121/121/121
f 123/123/123 124/124/124 127/127/127
f 123/123/123 127/127/127 125/125/125
f 125/125/125 127/127/127 126/126/126
f 124/124/124 128/128/128 127/127/127
f 127/127/127 129/129/129 126/126/126
f 127/127/127 128/128/128 129/129/129
f 128/128/128 130/130/130 129/129/129
