g Plane001
v -0.508000016 0.380999982 -1.26808766E-06
v -0.533399999 0.406399995 -1.26977329E-06
v 0.533399999 0.406399995 -1.26893042E-06
v 0.508000016 0.380999982 -1.26893042E-06
v 0.533399999 -0.406399995 -1.26999998E-06
v 0.508000016 -0.380999982 -1.26786097E-06
v -0.533399999 -0.406399995 -1.26999998E-06
v -0.508000016 -0.380999982 -1.26786097E-06
v -0.533399999 0.406399995 -1.26977329E-06
v -0.508000016 0.380999982 -1.26808766E-06
vt 0 0
vt 0 1
vt 0.25 1
vt 0.25 0
vt 0.5 1
vt 0.5 0
vt 0.75 1
vt 0.75 0
vt 1 1
vt 1 0
vn -0 0 1
vn -0 0 1
vn -0 0 1
vn -0 0 1
vn -0 0 1
vn -0 0 1
vn -0 0 1
vn -0 0 1
vn -0 0 1
vn -0 0 1
g Plane001_0
f 3/3/3 2/2/2 1/1/1
f 4/4/4 3/3/3 1/1/1
f 5/5/5 3/3/3 4/4/4
f 6/6/6 5/5/5 4/4/4
f 7/7/7 5/5/5 6/6/6
f 8/8/8 7/7/7 6/6/6
f 9/9/9 7/7/7 8/8/8
f 10/10/10 9/9/9 8/8/8
