g Plane005
v -0.071930714 -0.325101793 0
v -0.0329999365 -0.356956095 0
v 0.00636146357 -0.310262173 0
v -0.0319019035 -0.277609229 0
v 0.0489148051 -0.257963777 0
v 0.00873751193 -0.227696851 0
v 0.0847746357 -0.202587649 0
v 0.0401252396 -0.179420099 0
v 0.102993116 -0.148186043 0
v 0.0529094525 -0.143503189 0
v 0.0934543014 -0.0967149064 0
v 0.0472486541 -0.116598114 0
v 0.0610610619 -0.0445055179 0
v 0.0214946549 -0.0755667761 0
v 0.0144383144 0.00720050512 0
v -0.021198269 -0.0283007193 0
v -0.0377538651 0.0571810529 0
v -0.0721129328 0.0204420183 0
v -0.0868561417 0.104232833 0
v -0.122629307 0.068869248 0
v -0.12578392 0.149454057 0
v -0.167397097 0.121193714 0
v -0.146294013 0.204409182 0
v -0.196522042 0.201680124 0
v -0.134789631 0.25385654 0
v -0.179688171 0.276537418 0
v -0.101512402 0.300904453 0
v -0.139492497 0.333886504 0
v -0.0566694997 0.348798037 0
v -0.0930227265 0.383565038 0
v -0.0104208272 0.400760561 0
v -0.0498690046 0.431971848 0
v 0.0270806272 0.459988445 0
v -0.0185250808 0.481211573 0
v 0.0457829237 0.527933896 0
v -0.00407362496 0.534614086 0
vt 0 0
vt 0 1
vt 0.0588235296 1
vt 0.0588235296 0
vt 0.117647059 1
vt 0.117647059 0
vt 0.176470593 1
vt 0.176470593 0
vt 0.235294119 1
vt 0.235294119 0
vt 0.294117659 1
vt 0.294117659 0
vt 0.352941185 1
vt 0.352941185 0
vt 0.411764711 1
vt 0.411764711 0
vt 0.470588237 1
vt 0.470588237 0
vt 0.529411793 1
vt 0.529411793 0
vt 0.588235319 1
vt 0.588235319 0
vt 0.647058845 1
vt 0.647058845 0
vt 0.70588237 1
vt 0.70588237 0
vt 0.764705896 1
vt 0.764705896 0
vt 0.823529422 1
vt 0.823529422 0
vt 0.882352948 1
vt 0.882352948 0
vt 0.941176474 1
vt 0.941176474 0
vt 1 1
vt 1 0
vn -0 0 -1
vn -0 0 -1
vn -0 0 -1
vn -0 0 -1
vn -0 0 -1
vn -0 0 -1
vn -0 0 -1
vn -0 0 -1
vn -0 0 -1
vn -0 0 -1
vn -0 0 -1
vn -0 0 -1
vn -0 0 -1
vn -0 0 -1
vn -0 0 -1
vn -0 0 -1
vn -0 0 -1
vn -0 0 -1
vn -0 0 -1
vn -0 0 -1
vn -0 0 -1
vn -0 0 -1
vn -0 0 -1
vn -0 0 -1
vn -0 0 -1
vn -0 0 -1
vn -0 0 -1
vn -0 0 -1
vn -0 0 -1
vn -0 0 -1
vn -0 0 -1
vn -0 0 -1
vn -0 0 -1
vn -0 0 -1
vn -0 0 -1
vn -0 0 -1
g Plane005_0
f 3/3/3 2/2/2 1/1/1
f 4/4/4 3/3/3 1/1/1
f 5/5/5 3/3/3 4/4/4
f 6/6/6 5/5/5 4/4/4
f 7/7/7 5/5/5 6/6/6
f 8/8/8 7/7/7 6/6/6
f 9/9/9 7/7/7 8/8/8
f 10/10/10 9/9/9 8/8/8
f 11/11/11 9/9/9 10/10/10
f 12/12/12 11/11/11 10/10/10
f 13/13/13 11/11/11 12/12/12
f 14/14/14 13/13/13 12/12/12
f 15/15/15 13/13/13 14/14/14
f 16/16/16 15/15/15 14/14/14
f 17/17/17 15/15/15 16/16/16
f 18/18/18 17/17/17 16/16/16
f 19/19/19 17/17/17 18/18/18
f 20/20/20 19/19/19 18/18/18
f 21/21/21 19/19/19 20/20/20
f 22/22/22 21/21/21 20/20/20
f 23/23/23 21/21/21 22/22/22
f 24/24/24 23/23/23 22/22/22
f 25/25/25 23/23/23 24/24/24
f 26/26/26 25/25/25 24/24/24
f 27/27/27 25/25/25 26/26/26
f 28/28/28 27/27/27 26/26/26
f 29/29/29 27/27/27 28/28/28
f 30/30/30 29/29/29 28/28/28
f 31/31/31 29/29/29 30/30/30
f 32/32/32 31/31/31 30/30/30
f 33/33/33 31/31/31 32/32/32
f 34/34/34 33/33/33 32/32/32
f 35/35/35 33/33/33 34/34/34
f 36/36/36 35/35/35 34/34/34
