g 平面
v 0.0200385991 0 0
v 0.0200385991 0.00864191819 0
v 0.0300385989 0.00999999978 0
v 0.0300385989 0 0
v 0.0200385991 -0.00864191819 0
v 0.0300385989 -0.00999999978 0
v 0.0100385994 -0.00724167144 0
v 0.0200385991 -0.00864191819 0
v 0.0100385994 0 0
v 0.0200385991 0.00864191819 0
v 0.0100385994 0.00724167144 0
vt 0.5 0.5
vt 0.5 1
vt 1 1
vt 1 0.5
vt 0.5 0
vt 1 0
vt 0 0
vt 0.5 0
vt 0 0.5
vt 0.5 1
vt 0 1
vn -0 0 1
vn -0 0 1
vn -0 0 1
vn -0 0 1
vn -0 0 1
vn -0 0 1
vn -0 0 1
vn -0 0 1
vn -0 0 1
vn -0 0 1
vn -0 0 1
g 平面_0
f 3/3/3 2/2/2 1/1/1
f 4/4/4 3/3/3 1/1/1
f 4/4/4 1/1/1 5/5/5
f 6/6/6 4/4/4 5/5/5
f 8/8/8 1/1/1 7/7/7
f 1/1/1 9/9/9 7/7/7
f 1/1/1 10/10/10 9/9/9
f 10/10/10 11/11/11 9/9/9
