g L_zhuzi_1
v -0.111835428 0.018624723 0.195183784
v 0.237508923 0.0312484335 0.0665027052
v 0.292880803 0.0784747675 0.146095544
v -0.340114981 -0.161717027 -0.308355272
v -0.334273398 -0.158706084 0.317130685
v -0.319899738 -0.162443966 -0.325652391
v -0.144281313 0.0583628081 0.279082835
v 0.33306396 0.170601323 0.29517594
v 0.315879464 0.14573656 0.32814163
v -0.333432794 -0.0307199396 0.324673563
v -0.315742016 0.0276068076 0.250830591
v -0.339492232 -0.00890425872 0.25398308
v -0.111835428 0.018624723 0.195183784
v 0.33306396 0.170601323 0.29517594
v -0.144281313 0.0583628081 0.279082835
v 0.292880803 0.0784747675 0.146095544
v -0.315742016 0.0276068076 0.250830591
v -0.315257341 0.00958226901 0.211211428
v -0.111835428 0.018624723 0.195183784
v -0.144281313 0.0583628081 0.279082835
v 0.237508923 0.0312484335 0.0665027052
v -0.111835428 0.018624723 0.195183784
v -0.315257341 0.00958226901 0.211211428
v -0.239512622 0.0185659565 -0.304415464
v -0.315010399 0.0179273002 -0.305799961
v -0.315010399 0.0179273002 -0.305799961
v -0.336165428 0.010458257 -0.309129685
v -0.313418865 -0.0042378353 -0.329201818
v -0.239512622 0.0185659565 -0.304415464
v -0.250530779 -0.00367723685 -0.329146981
v -0.339622945 -0.0182695501 0.218266249
v -0.315257341 0.00958226901 0.211211428
v -0.315742016 0.0276068076 0.250830591
v -0.339492232 -0.00890425872 0.25398308
v -0.336165428 0.010458257 -0.309129685
v -0.315010399 0.0179273002 -0.305799961
v -0.315257341 0.00958226901 0.211211428
v -0.339622945 -0.0182695501 0.218266249
v -0.313418865 -0.0042378353 -0.329201818
v -0.336165428 0.010458257 -0.309129685
v -0.340114981 -0.161717027 -0.308355272
v -0.319899738 -0.162443966 -0.325652391
v -0.340114981 -0.161717027 -0.308355272
v -0.336165428 0.010458257 -0.309129685
v -0.339622945 -0.0182695501 0.218266249
v -0.334273398 -0.158706084 0.317130685
v -0.339492232 -0.00890425872 0.25398308
v -0.333432794 -0.0307199396 0.324673563
v 0.315879464 0.14573656 0.32814163
v 0.313347697 -0.165269181 0.32641989
v -0.334273398 -0.158706084 0.317130685
v -0.333432794 -0.0307199396 0.324673563
v 0.337906688 -0.167480007 0.289065838
v 0.313347697 -0.165269181 0.32641989
v 0.315879464 0.14573656 0.32814163
v 0.33306396 0.170601323 0.29517594
v 0.329047412 7.12180117E-05 0.111813702
v 0.33306396 0.170601323 0.29517594
v 0.292880803 0.0784747675 0.146095544
v 0.343298823 0.00361654046 0.140762389
v 0.326943964 -0.132222265 0.00595954293
v 0.338110149 -0.167793289 0.0291073658
v 0.334899396 -0.164196447 0.00636861846
v 0.343298823 0.00361654046 0.140762389
v 0.338110149 -0.167793289 0.0291073658
v 0.337906688 -0.167480007 0.289065838
v 0.33306396 0.170601323 0.29517594
v 0.329047412 7.12180117E-05 0.111813702
v 0.292880803 0.0784747675 0.146095544
v 0.237508923 0.0312484335 0.0665027052
v 0.326943964 -0.132222265 0.00595954293
v -0.239512622 0.0185659565 -0.304415464
v -0.250530779 -0.00367723685 -0.329146981
v 0.334899396 -0.164196447 0.00636861846
v -0.104780883 -0.159155995 -0.326109827
v -0.104780883 -0.159155995 -0.326109827
v -0.250530779 -0.00367723685 -0.329146981
v -0.313418865 -0.0042378353 -0.329201818
v -0.319899738 -0.162443966 -0.325652391
v -0.334273398 -0.158706084 0.317130685
v 0.313347697 -0.165269181 0.32641989
v 0.337906688 -0.167480007 0.289065838
v 0.338110149 -0.167793289 0.0291073658
v 0.334899396 -0.164196447 0.00636861846
v -0.104780883 -0.159155995 -0.326109827
v -0.319899738 -0.162443966 -0.325652391
vt 0.71509707 0.328890979
vt 0.648804665 0.302770853
vt 0.63873589 0.319160402
vt 0.361330748 0.124673545
vt 0.361330748 0.0853600204
vt 0.360511541 0.125475913
vt 0.244963989 0.0533069223
vt 0.333033979 0.0752444118
vt 0.333034098 0.0693303198
vt 0.21193783 0.0341951698
vt 0.212534115 0.0501382202
vt 0.207602784 0.0460272878
vt 0.713835955 0.334439695
vt 0.62994647 0.354142129
vt 0.719247818 0.354142606
vt 0.637475133 0.324708641
vt 0.756196976 0.350359738
vt 0.756196976 0.327692926
vt 0.719132185 0.330656707
vt 0.724543929 0.350359738
vt 0.653192937 0.297474563
vt 0.719485164 0.323595226
vt 0.756550193 0.320631444
vt 0.742435396 0.223975062
vt 0.756550431 0.222481489
vt 0.0539809018 0.0529823527
vt 0.0546839982 0.0503160581
vt 0.0501303822 0.0485289916
vt 0.0359758288 0.0567652807
vt 0.0368688256 0.050605081
vt 0.172607332 0.0443724617
vt 0.171477109 0.0507420525
vt 0.179436773 0.0545418486
vt 0.179903537 0.0464523062
vt 0.0546839982 0.0503160581
vt 0.0539809018 0.0529823527
vt 0.164682046 0.050617896
vt 0.165812328 0.0442484245
vt 0.0532209463 0.0426083803
vt 0.0577745624 0.0443954468
vt 0.0577745624 0.0081038475
vt 0.0532209463 0.0081038475
vt 0.0652528554 0.0081038475
vt 0.0652528554 0.0443954468
vt 0.176381305 0.0383277535
vt 0.195808664 0.0081038475
vt 0.183677331 0.040407598
vt 0.195808783 0.035390079
vt 0.334571898 0.0633278936
vt 0.334571898 0.00584475696
vt 0.213475749 0.00584475696
vt 0.21347557 0.0281925648
vt 0.663430214 0.169022977
vt 0.655743957 0.169022977
vt 0.655743957 0.237453163
vt 0.663430214 0.241478264
vt 0.714486122 0.203419983
vt 0.677048564 0.241478264
vt 0.710632145 0.222094834
vt 0.708605111 0.204641879
vt 0.732071996 0.173278749
vt 0.728393078 0.169022977
vt 0.731938601 0.169022977
vt 0.701039314 0.204641879
vt 0.720827341 0.169022977
vt 0.669482827 0.169022977
vt 0.669482827 0.241478264
vt 0.72104311 0.203419983
vt 0.717189074 0.222094834
vt 0.742126584 0.213781178
vt 0.738629043 0.173278749
vt 0.868619025 0.20779711
vt 0.872344434 0.203610957
vt 0.738495529 0.169022977
vt 0.845257938 0.169022977
vt 0.00213897415 0.0081038475
vt 0.0339642763 0.0446843505
vt 0.0472258367 0.0426083803
vt 0.0472258367 0.0081038475
vt 0.361330748 0.0853600204
vt 0.320897281 0.0853600204
vt 0.319667399 0.0873175263
vt 0.319667399 0.10363251
vt 0.319970071 0.104771435
vt 0.348076165 0.125475913
vt 0.360511541 0.125475913
vn -0.186194167 0.89463973 -0.406142265
vn -0.186194167 0.89463973 -0.406142235
vn -0.186194181 0.89463973 -0.406142294
vn -0.0232432857 -0.999721348 0.00411434378
vn -0.0232432857 -0.999721348 0.00411434378
vn -0.0232432857 -0.999721348 0.00411434378
vn -0.215380266 0.783239901 0.58322084
vn -0.21467483 0.782819152 0.584045351
vn -0.21467483 0.782819152 0.584045351
vn -0.24503167 0.786696672 0.566628397
vn -0.272756904 0.788025498 0.551923454
vn -0.830311477 0.51782316 0.20601435
vn -0.190843388 0.844377637 -0.500604808
vn -0.189227641 0.842307031 -0.504689813
vn -0.191512898 0.845231593 -0.498905212
vn -0.188936397 0.841932237 -0.505423665
vn -0.0736169517 0.885615647 -0.458547205
vn -0.0736169517 0.885615647 -0.458547205
vn -0.0736169517 0.885615647 -0.458547205
vn -0.0736169517 0.885615647 -0.458547205
vn -0.0385050848 0.999176085 0.0128207728
vn -0.0385050811 0.999176085 0.0128207728
vn -0.0383259133 0.999182761 0.0128370458
vn -0.0363259725 0.999255121 0.0130186407
vn -0.0243965331 0.999602973 0.0141004734
vn 0.00519631803 0.749469697 -0.662018359
vn -0.0290093534 0.740855396 -0.671037734
vn 0.00748296874 0.750010192 -0.661384046
vn 0.00852418412 0.75025475 -0.661093891
vn 0.00852418505 0.75025475 -0.661093891
vn -0.812027931 0.545170248 -0.208326727
vn -0.812027931 0.545170188 -0.208326668
vn -0.812027931 0.545170248 -0.208326697
vn -0.812027931 0.545170248 -0.208326668
vn -0.239122242 0.970837295 0.0171911735
vn -0.195666596 0.980543554 0.0157754179
vn -0.739966154 0.671892345 0.0317913257
vn -0.742478073 0.669112504 0.0318528078
vn -0.628406703 0.0191491842 -0.777649224
vn -0.628406703 0.0191491824 -0.777649224
vn -0.628406703 0.0191491824 -0.777649283
vn -0.628406703 0.0191491842 -0.777649224
vn -0.999897599 0.013700299 0.00414840737
vn -0.999897599 0.0137002999 0.00414840737
vn -0.999901175 0.0134544652 0.00407204311
vn -0.999897122 0.0135699064 0.00465146499
vn -0.999908447 0.00485988706 0.0126321679
vn -0.999418974 0.0125328731 0.0316957086
vn -0.00500908121 -0.0120214261 0.999915242
vn -0.00500908075 -0.0120214261 0.999915242
vn -0.00500908121 -0.0120214261 0.999915242
vn -0.00500908121 -0.0120214261 0.999915242
vn 0.847373068 -0.00683775265 0.530953944
vn 0.847373068 -0.00683775265 0.530954003
vn 0.847373188 -0.00683775358 0.530953884
vn 0.847373009 -0.00683775265 0.530954003
vn 0.819245219 0.374271989 -0.434462667
vn 0.70106262 0.50349766 -0.504976451
vn 0.70106262 0.50349766 -0.504976451
vn 0.73782146 0.467972189 -0.486437649
vn 0.893540382 0.263556987 -0.363487571
vn 0.893925548 0.264148712 -0.362108588
vn 0.92657268 0.341769874 -0.157023817
vn 0.999919415 -0.00339823356 0.0122325271
vn 0.999919415 -0.00339823333 0.0122325281
vn 0.999919415 -0.00339823333 0.0122325271
vn 0.999919415 -0.00339823356 0.0122325281
vn 0.519109428 0.528702319 -0.671564817
vn 0.519082308 0.529043019 -0.671317399
vn 0.514885545 0.522959411 -0.679269016
vn 0.520032287 0.501600206 -0.691349208
vn 0.514384389 0.522280157 -0.680170655
vn 0.518105745 0.508400738 -0.687819183
vn 0.524029613 0.484857738 -0.700218499
vn 0.524029553 0.484857678 -0.700218558
vn 0.000887864211 -0.00776622491 -0.999969482
vn 0.000887864036 -0.00776622491 -0.999969482
vn 0.000887864036 -0.00776622398 -0.999969482
vn 0.000887864153 -0.00776622398 -0.999969482
vn -0.0077839056 -0.999969602 0.000475943409
vn -0.0100500174 -0.999079347 0.0417056642
vn -0.0113279037 -0.999920368 0.00557061331
vn -0.0133820046 -0.999909163 -0.00158916868
vn -0.00809570681 -0.999966502 -0.00120185118
vn -0.00734850392 -0.999973059 0.000137361305
vn -0.00734850345 -0.999973059 0.000137361305
g L_zhuzi_1_0
f 3/3/3 2/2/2 1/1/1
f 6/6/6 5/5/5 4/4/4
f 9/9/9 8/8/8 7/7/7
f 10/10/10 9/9/9 7/7/7
f 10/10/10 7/7/7 11/11/11
f 10/10/10 11/11/11 12/12/12
f 15/15/15 14/14/14 13/13/13
f 13/13/13 14/14/14 16/16/16
f 19/19/19 18/18/18 17/17/17
f 20/20/20 19/19/19 17/17/17
f 23/23/23 22/22/22 21/21/21
f 24/24/24 23/23/23 21/21/21
f 23/23/23 24/24/24 25/25/25
f 28/28/28 27/27/27 26/26/26
f 26/26/26 29/29/29 28/28/28
f 29/29/29 30/30/30 28/28/28
f 33/33/33 32/32/32 31/31/31
f 34/34/34 33/33/33 31/31/31
f 37/37/37 36/36/36 35/35/35
f 35/35/35 38/38/38 37/37/37
f 41/41/41 40/40/40 39/39/39
f 42/42/42 41/41/41 39/39/39
f 45/45/45 44/44/44 43/43/43
f 46/46/46 45/45/45 43/43/43
f 45/45/45 46/46/46 47/47/47
f 48/48/48 47/47/47 46/46/46
f 51/51/51 50/50/50 49/49/49
f 52/52/52 51/51/51 49/49/49
f 55/55/55 54/54/54 53/53/53
f 56/56/56 55/55/55 53/53/53
f 59/59/59 58/58/58 57/57/57
f 58/58/58 60/60/60 57/57/57
f 61/61/61 57/57/57 60/60/60
f 62/62/62 61/61/61 60/60/60
f 61/61/61 62/62/62 63/63/63
f 66/66/66 65/65/65 64/64/64
f 67/67/67 66/66/66 64/64/64
f 70/70/70 69/69/69 68/68/68
f 71/71/71 70/70/70 68/68/68
f 72/72/72 70/70/70 71/71/71
f 73/73/73 72/72/72 71/71/71
f 71/71/71 74/74/74 73/73/73
f 74/74/74 75/75/75 73/73/73
f 78/78/78 77/77/77 76/76/76
f 79/79/79 78/78/78 76/76/76
f 82/82/82 81/81/81 80/80/80
f 80/80/80 83/83/83 82/82/82
f 80/80/80 84/84/84 83/83/83
f 85/85/85 84/84/84 80/80/80
f 86/86/86 85/85/85 80/80/80
