g L_zhuzi_4
v 0.236676976 0.070288159 -0.30284825
v 0.299221694 0.112593383 -0.331570745
v 0.104869895 0.115351938 -0.330387294
v 0.30133602 0.155972585 0.297076821
v 0.300627857 0.153132781 -0.275363624
v 0.324195892 0.13188988 -0.279088914
v 0.326136768 0.130037233 0.293818772
v 0.267892957 0.153291464 -0.298155487
v 0.324195892 0.13188988 -0.279088914
v 0.300627857 0.153132781 -0.275363624
v 0.299221694 0.112593383 -0.331570745
v 0.324557871 0.095369339 -0.307776242
v 0.267892957 0.153291464 -0.298155487
v 0.060115546 0.154938355 -0.292251289
v 0.104869895 0.115351938 -0.330387294
v 0.299221694 0.112593383 -0.331570745
v 0.104869895 0.115351938 -0.330387294
v 0.060115546 0.154938355 -0.292251289
v 0.0332354866 0.124993287 -0.305803001
v 0.037455149 0.103699565 -0.31818065
v 0.0332354866 0.124993287 -0.305803001
v 0.060115546 0.154938355 -0.292251289
v -0.0604458041 0.157360077 0.0695986077
v -0.0832151175 0.131925955 0.0518302061
v -0.312156498 0.151086733 0.305723131
v -0.318489343 0.13439934 0.278259456
v -0.326191515 0.0854482278 0.270414352
v -0.303646475 0.0726449564 0.239768192
v -0.318489343 0.13439934 0.278259456
v -0.0952669531 0.05948494 0.0534562655
v -0.0832151175 0.131925955 0.0518302061
v -0.027940549 0.0518437959 -0.114554107
v 0.0332354866 0.124993287 -0.305803001
v 0.023706438 0.0443511195 -0.291719258
v 0.037455149 0.103699565 -0.31818065
v -0.318489343 0.13439934 0.278259456
v -0.312156498 0.151086733 0.305723131
v -0.311413169 0.137726665 0.328144819
v -0.315856308 0.109499663 0.328067958
v -0.323961169 0.0812860876 0.300666958
v -0.326191515 0.0854482278 0.270414352
v 0.0513052084 0.0274619292 -0.290099829
v 0.120183878 0.0392686464 -0.302145064
v 0.104869895 0.115351938 -0.330387294
v 0.037455149 0.103699565 -0.31818065
v 0.023706438 0.0443511195 -0.291719258
v 0.324557871 0.095369339 -0.307776242
v 0.299221694 0.112593383 -0.331570745
v 0.29252705 0.0405841805 -0.295141876
v 0.324488819 0.073457256 -0.292038351
v 0.30547595 -0.134381786 -0.0632800534
v 0.322596461 -0.134306028 -0.0417412557
v 0.324488819 0.073457256 -0.292038351
v 0.29252705 0.0405841805 -0.295141876
v 0.27964136 -0.135150909 -0.0634823292
v 0.120183878 0.0392686464 -0.302145064
v 0.0513052084 0.0274619292 -0.290099829
v 0.24376516 0.0243656915 -0.279036313
v 0.29252705 0.0405841805 -0.295141876
v 0.30547595 -0.134381786 -0.0632800534
v 0.304490179 -0.140551835 0.123269573
v 0.284048527 -0.154601589 0.075199753
v 0.201933533 -0.123903118 0.139771596
v 0.273909301 -0.108872682 0.206056058
v 0.149211526 -0.0805034637 0.216255501
v 0.304490179 -0.140551835 0.123269573
v 0.273909301 -0.108872682 0.206056058
v 0.30782637 0.024751205 0.330505669
v 0.326154828 0.026762465 0.307747424
v 0.324888825 -0.130298838 0.109086767
v 0.297648817 -0.152313843 0.0578553788
v 0.324795991 -0.145068124 0.000785138458
v 0.301826894 -0.157736659 -0.00258897548
v 0.324888825 -0.130298838 0.109086767
v 0.284048527 -0.154601589 0.075199753
v 0.304490179 -0.140551835 0.123269573
v 0.288287967 -0.14468056 -0.021792382
v 0.301826894 -0.157736659 -0.00258897548
v 0.324795991 -0.145068124 0.000785138458
v 0.324023783 -0.13526848 -0.0195901822
v 0.27964136 -0.135150909 -0.0634823292
v 0.322596461 -0.134306028 -0.0417412557
v 0.30547595 -0.134381786 -0.0632800534
v 0.303245932 0.101858057 0.330185473
v 0.326136768 0.130037233 0.293818772
v 0.326154828 0.026762465 0.307747424
v 0.30782637 0.024751205 0.330505669
v 0.265119195 0.136366725 0.330049992
v 0.254118294 0.156808466 0.302893549
v 0.30133602 0.155972585 0.297076821
v 0.307262689 0.14069809 0.31638369
v 0.303245932 0.101858057 0.330185473
v 0.326136768 0.130037233 0.293818772
v 0.254118294 0.156808466 0.302893549
v 0.265119195 0.136366725 0.330049992
v -0.311413169 0.137726665 0.328144819
v -0.312156498 0.151086733 0.305723131
v 0.254118294 0.156808466 0.302893549
v -0.312156498 0.151086733 0.305723131
v -0.0604458041 0.157360077 0.0695986077
v 0.300627857 0.153132781 -0.275363624
v 0.30133602 0.155972585 0.297076821
v 0.060115546 0.154938355 -0.292251289
v 0.267892957 0.153291464 -0.298155487
v 0.30782637 0.024751205 0.330505669
v 0.265119195 0.136366725 0.330049992
v 0.303245932 0.101858057 0.330185473
v -0.315856308 0.109499663 0.328067958
v -0.311413169 0.137726665 0.328144819
v -0.253677636 0.044226151 0.280548811
v -0.323961169 0.0812860876 0.300666958
v -0.315856308 0.109499663 0.328067958
v 0.30782637 0.024751205 0.330505669
v 0.149211526 -0.0805034637 0.216255501
v 0.273909301 -0.108872682 0.206056058
v -0.326191515 0.0854482278 0.270414352
v -0.323961169 0.0812860876 0.300666958
v -0.253677636 0.044226151 0.280548811
v -0.303646475 0.0726449564 0.239768192
v 0.149211526 -0.0805034637 0.216255501
v -0.303646475 0.0726449564 0.239768192
v -0.253677636 0.044226151 0.280548811
v -0.0952669531 0.05948494 0.0534562655
v 0.140602514 -0.0604540221 0.162576422
v -0.027940549 0.0518437959 -0.114554107
v 0.180743694 -0.0785847455 0.0984897017
v 0.25099808 -0.115438379 0.0440763049
v 0.023706438 0.0443511195 -0.291719258
v 0.0513052084 0.0274619292 -0.290099829
v 0.27964136 -0.135150909 -0.0634823292
v 0.140602514 -0.0604540221 0.162576422
v 0.149211526 -0.0805034637 0.216255501
v 0.201933533 -0.123903118 0.139771596
v 0.180743694 -0.0785847455 0.0984897017
v 0.284048527 -0.154601589 0.075199753
v 0.25099808 -0.115438379 0.0440763049
v 0.297648817 -0.152313843 0.0578553788
v 0.301826894 -0.157736659 -0.00258897548
v 0.288287967 -0.14468056 -0.021792382
v 0.27964136 -0.135150909 -0.0634823292
v 0.324195892 0.13188988 -0.279088914
v 0.324557871 0.095369339 -0.307776242
v 0.324488819 0.073457256 -0.292038351
v 0.324023783 -0.13526848 -0.0195901822
v 0.322596461 -0.134306028 -0.0417412557
v 0.326136768 0.130037233 0.293818772
v 0.324795991 -0.145068124 0.000785138458
v 0.324888825 -0.130298838 0.109086767
v 0.326154828 0.026762465 0.307747424
v 0.236676976 0.070288159 -0.30284825
v 0.24376516 0.0243656915 -0.279036313
v 0.29252705 0.0405841805 -0.295141876
v 0.299221694 0.112593383 -0.331570745
v 0.104869895 0.115351938 -0.330387294
v 0.120183878 0.0392686464 -0.302145064
v 0.24376516 0.0243656915 -0.279036313
v 0.236676976 0.070288159 -0.30284825
vt 0.351641744 0.0349426307
vt 0.339097112 0.0186618622
vt 0.345474452 0.0739460588
vt 0.345196575 0.354486972
vt 0.345196575 0.218631953
vt 0.339169294 0.220405787
vt 0.339169294 0.356423646
vt 0.351283401 0.210759133
vt 0.338162154 0.21720311
vt 0.344189614 0.215429276
vt 0.342211157 0.201371163
vt 0.334416419 0.209793299
vt 0.35784927 0.210939974
vt 0.406938165 0.210940093
vt 0.397380233 0.199873179
vt 0.348777026 0.199873179
vt 0.403565615 0.199873179
vt 0.41312325 0.210940093
vt 0.420071155 0.206515759
vt 0.420070976 0.199873179
vt 0.421803087 0.209732264
vt 0.414855361 0.214156479
vt 0.444996089 0.300093681
vt 0.450407654 0.295814544
vt 0.503953993 0.355905801
vt 0.503953993 0.351066858
vt 0.55535543 0.188428491
vt 0.548342943 0.183879524
vt 0.55535543 0.199400395
vt 0.485663891 0.144344002
vt 0.476926804 0.157657042
vt 0.438285589 0.121902131
vt 0.381232262 0.111537777
vt 0.395846367 0.101061843
vt 0.381955624 0.105698012
vt 0.56150502 0.197984457
vt 0.569067955 0.197984457
vt 0.573059022 0.194252074
vt 0.573059022 0.188085198
vt 0.5652771 0.186268687
vt 0.56150502 0.186887264
vt 0.38752526 0.0887941718
vt 0.380630195 0.07346946
vt 0.363868177 0.0814750195
vt 0.372606575 0.0991772413
vt 0.386497319 0.0945412517
vt 0.352849007 0.00463755988
vt 0.346988559 0.0109368172
vt 0.365252495 0.0128686037
vt 0.359119892 0.00463755988
vt 0.448811173 0.00722633209
vt 0.452802658 0.00377742853
vt 0.371607423 0.00377742853
vt 0.377739906 0.0120084723
vt 0.448877335 0.0177892912
vt 0.382615447 0.0637026876
vt 0.389510989 0.079027459
vt 0.384482503 0.0304436553
vt 0.377739906 0.0183557142
vt 0.448811173 0.0135736922
vt 0.515892088 0.0147618055
vt 0.505225956 0.0177039504
vt 0.52024132 0.0376138687
vt 0.535827458 0.0240857601
vt 0.538669407 0.0543352962
vt 0.523299396 0.0101032462
vt 0.543234766 0.0194272008
vt 0.587810397 0.0109490361
vt 0.584988475 0.00606825063
vt 0.521793067 0.00606825063
vt 0.500948071 0.00937082432
vt 0.486413628 0.00509872148
vt 0.485986143 0.0076963515
vt 0.514746845 0.00509872148
vt 0.505586743 0.0120758023
vt 0.516252697 0.00913383625
vt 0.473631293 0.0102333035
vt 0.479284197 0.0076963515
vt 0.47971192 0.00509872148
vt 0.473728091 0.00509872148
vt 0.463393837 0.0127633419
vt 0.467319399 0.00509872148
vt 0.463327914 0.00854774378
vt 0.339226991 0.373108417
vt 0.334801942 0.360825568
vt 0.334801942 0.390629739
vt 0.339226991 0.390629739
vt 0.35273096 0.367031485
vt 0.35609445 0.362402231
vt 0.345665187 0.359499007
vt 0.344062954 0.364438444
vt 0.344062954 0.373718768
vt 0.339637846 0.36143592
vt 0.361184686 0.362754375
vt 0.357821256 0.367383868
vt 0.496036947 0.367383868
vt 0.496036947 0.362754375
vt 0.361184686 0.357390195
vt 0.496036947 0.357390195
vt 0.437078983 0.301578134
vt 0.350755453 0.218631953
vt 0.350755453 0.354486972
vt 0.406938165 0.213962048
vt 0.35784927 0.213962048
vt 0.349153101 0.395715028
vt 0.357821256 0.371506363
vt 0.349153101 0.378193647
vt 0.496036947 0.37628451
vt 0.496036947 0.371506363
vt 0.57320118 0.160394132
vt 0.580683172 0.176686764
vt 0.588465214 0.178503215
vt 0.588465214 0.020170033
vt 0.54673171 0.0588976145
vt 0.543889523 0.0286481977
vt 0.562559068 0.180757523
vt 0.566863 0.180138767
vt 0.55938071 0.163846195
vt 0.556078613 0.176208496
vt 0.527251542 0.062598601
vt 0.550419152 0.176457465
vt 0.553721249 0.164095163
vt 0.487740099 0.136922076
vt 0.514965832 0.0672061592
vt 0.440361798 0.114480212
vt 0.498056471 0.0561314374
vt 0.485096753 0.0361412913
vt 0.397922575 0.0936401635
vt 0.398950636 0.0878930241
vt 0.458317339 0.0266547948
vt 0.517392039 0.0600402094
vt 0.529677629 0.0554326512
vt 0.511249304 0.0387112238
vt 0.5004825 0.0489653684
vt 0.496234 0.0188014247
vt 0.487522542 0.0289753415
vt 0.491595566 0.0160962678
vt 0.476633251 0.0144219734
vt 0.470980346 0.0169587471
vt 0.460742891 0.019488845
vt 0.334404558 0.220405787
vt 0.330658674 0.212996095
vt 0.325141162 0.2179856
vt 0.280773938 0.283029109
vt 0.281471789 0.277705818
vt 0.334404558 0.356423646
vt 0.278829455 0.287303239
vt 0.281811714 0.311317593
vt 0.314230502 0.356423646
vt 0.359533191 0.0320266075
vt 0.371995091 0.0297655668
vt 0.365252495 0.0176776238
vt 0.346988559 0.0157458391
vt 0.354426265 0.0786882043
vt 0.371188402 0.0706826448
vt 0.373055458 0.0374236181
vt 0.360593557 0.0396844782
vn -0.0179589093 -0.632891417 -0.774032176
vn -0.0179589093 -0.632891417 -0.774032176
vn -0.017958913 -0.632891476 -0.774032295
vn 0.699154258 0.714963675 -0.00319995685
vn 0.699154198 0.714963675 -0.00319995638
vn 0.699154258 0.714963675 -0.00319995685
vn 0.699154258 0.714963675 -0.00319995568
vn 0.428639799 0.752758622 -0.499622315
vn 0.481507152 0.71785593 -0.502825737
vn 0.428639859 0.752758563 -0.499622345
vn 0.522281706 0.687950313 -0.503930688
vn 0.775458097 0.418719381 -0.472587347
vn -0.00672347564 0.683015883 -0.730372488
vn -0.00672347611 0.683015823 -0.730372548
vn -0.00672347657 0.683015883 -0.730372488
vn -0.00672347564 0.683015883 -0.730372488
vn -0.203928769 0.516966164 -0.831359744
vn -0.203928798 0.516966224 -0.831359744
vn -0.203928784 0.516966224 -0.831359744
vn -0.203928769 0.516966045 -0.831359744
vn -0.669587672 0.706487477 -0.229189619
vn -0.669587612 0.706487536 -0.22918959
vn -0.572557271 0.747511804 -0.336755544
vn -0.588353455 0.742296517 -0.320680678
vn -0.436256111 0.7746104 -0.457885593
vn -0.436256111 0.7746104 -0.457885593
vn -0.722157598 0.274518281 -0.634923637
vn -0.660394132 0.226734981 -0.715870678
vn -0.661102295 0.227263764 -0.715048909
vn -0.822549582 0.143184677 -0.550373077
vn -0.843025684 0.129730463 -0.521993935
vn -0.943349302 0.0443378165 -0.328825772
vn -0.950780928 0.0622147694 -0.303554118
vn -0.957208991 0.0781864375 -0.27863571
vn -0.93373239 0.0593918115 -0.353010625
vn -0.983691216 0.169247434 0.0608834401
vn -0.985732794 0.152230576 0.0718099698
vn -0.985732794 0.152230591 0.0718099624
vn -0.983866811 0.16790916 0.0617453009
vn -0.982852042 0.175390333 0.0569218323
vn -0.982852042 0.175390333 0.056921836
vn -0.0865567029 -0.372886568 -0.923830867
vn -0.0826225132 -0.373187155 -0.924069703
vn -0.0826225057 -0.373187184 -0.924069703
vn -0.0841389224 -0.373072028 -0.923979461
vn -0.129943699 -0.369176567 -0.920230031
vn 0.46310991 -0.48099041 -0.744431019
vn 0.46310997 -0.48099041 -0.744431019
vn 0.46310997 -0.48099041 -0.744431019
vn 0.463109881 -0.48099041 -0.7444309
vn 0.66146785 -0.580336094 -0.475047767
vn 0.66146785 -0.580336094 -0.475047737
vn 0.66146791 -0.580336094 -0.475047708
vn 0.66146791 -0.580336094 -0.475047737
vn 0.0365067311 -0.797480524 -0.602239192
vn 0.0263274126 -0.797238588 -0.603090048
vn 0.031361118 -0.79538691 -0.605290055
vn 0.0298168119 -0.798709571 -0.600977421
vn 0.0574265346 -0.795214951 -0.603601992
vn 0.0575025938 -0.79521358 -0.603596509
vn -0.128940448 -0.926544547 0.35339728
vn -0.0985360965 -0.943921864 0.315122545
vn -0.140129313 -0.919465244 0.367351741
vn -0.1422223 -0.918099463 0.369954199
vn -0.1422223 -0.918099463 0.369954139
vn 0.650569141 -0.599680007 0.465986967
vn 0.653715372 -0.597999811 0.463737339
vn 0.653715432 -0.597999752 0.463737398
vn 0.653658688 -0.598030269 0.463778108
vn 0.647658467 -0.601219237 0.468053281
vn 0.483690143 -0.866496146 0.12340311
vn 0.495147407 -0.860312462 0.121208273
vn 0.495147467 -0.860312462 0.121208273
vn 0.447043091 -0.88498944 0.130177185
vn 0.43412441 -0.891058564 0.132478893
vn 0.43412441 -0.891058564 0.132478878
vn 0.164539993 -0.944052637 -0.28581664
vn 0.357018381 -0.765882611 -0.534753978
vn 0.357018411 -0.765882611 -0.534753919
vn 0.200038999 -0.921670914 -0.33242628
vn 0.0917681977 -0.975438356 -0.200246066
vn 0.100902162 -0.973576665 -0.204859018
vn 0.00171674602 -0.988087535 -0.153883904
vn 0.819363892 0.0705750957 0.568913043
vn 0.819363892 0.0705751106 0.568913043
vn 0.819363773 0.0705750957 0.568913102
vn 0.819363892 0.0705751106 0.568913043
vn 0.13112098 0.70212847 0.699873567
vn 0.0776590332 0.818745792 0.568880081
vn 0.16184935 0.8198452 0.549234509
vn 0.357665509 0.585985065 0.727115452
vn 0.418500423 0.246383786 0.874158084
vn 0.808306515 0.254230738 0.531043649
vn 0.00199882942 0.833695471 0.552220821
vn 0.00199882942 0.833695471 0.552220881
vn 0.00199882919 0.833695471 0.552220881
vn 0.00199882919 0.833695471 0.552220821
vn 0.00329909078 0.99999094 -0.00269228313
vn -0.00563236419 0.999932766 0.0101420227
vn 0.000984095968 0.999998331 0.00158479996
vn 0.00645454973 0.999973893 -0.0032529633
vn 0.00474658236 0.99997735 -0.00477234414
vn 0.0103987549 0.99994576 0.000527560827
vn 0.0109288655 0.999903679 -0.00855344906
vn 1.9132709E-05 0.00921782199 0.999957561
vn 2.03369746E-05 0.00914209336 0.999958277
vn 1.9132709E-05 0.00921782199 0.999957561
vn 0.000298690604 -0.00836363714 0.999964952
vn 0.00047927667 -0.0197224524 0.999805391
vn -0.0910500512 -0.659110904 0.746513784
vn -0.0913595408 -0.655975342 0.749232829
vn -0.0913595557 -0.655975342 0.749232829
vn -0.0893445686 -0.671000481 0.736054242
vn -0.0894232765 -0.671750605 0.735360205
vn -0.0866206884 -0.674062252 0.733578265
vn -0.456070155 -0.889877498 -0.0108707827
vn -0.456070155 -0.889877498 -0.0108707827
vn -0.456070125 -0.889877498 -0.0108707827
vn -0.456070125 -0.889877498 -0.0108707817
vn -0.316554248 -0.903038383 -0.290370554
vn -0.320063084 -0.903903067 -0.28375867
vn -0.320063114 -0.903902948 -0.28375864
vn -0.344981074 -0.908983529 -0.233959585
vn -0.400524259 -0.90196836 -0.161348939
vn -0.452966392 -0.886491179 -0.0946305841
vn -0.486661047 -0.87224412 -0.0484891832
vn -0.515452623 -0.855886638 -0.0420333967
vn -0.471113443 -0.87746489 -0.0900414363
vn -0.477053761 -0.874750793 -0.0850346163
vn -0.580081582 -0.814522207 0.00766766956
vn -0.745680869 -0.62035948 -0.243133962
vn -0.745680869 -0.62035948 -0.243133962
vn -0.67639935 -0.659986556 -0.326958299
vn -0.677508473 -0.659455955 -0.325730056
vn -0.608621895 -0.689368129 -0.392875165
vn -0.639539897 -0.705428421 -0.305547655
vn -0.66661787 -0.739106297 -0.0966568738
vn -0.687371135 -0.726054668 -0.0191144627
vn -0.672765374 -0.739604414 -0.0192896128
vn -0.656978548 -0.753657877 -0.0194670502
vn 0.999995947 0.000907322334 -0.00272859191
vn 0.999878883 0.000206927492 0.015563421
vn 0.999998927 0.00125653099 0.000806741766
vn 0.999994516 0.000861575012 -0.00321825407
vn 0.999999046 0.00127658795 0.000524715229
vn 0.999995351 0.000699062133 -0.00297036837
vn 0.999995232 0.000666779408 -0.00303235906
vn 0.999992728 -0.00281615206 0.00259610871
vn 0.999997377 0.000743784127 -0.0022016766
vn -0.155569538 -0.468461871 -0.869679034
vn -0.155569538 -0.468461931 -0.869679034
vn -0.155569553 -0.468461931 -0.869679034
vn -0.155569538 -0.468461871 -0.869679034
vn 0.0983683839 -0.38448894 -0.917873561
vn 0.0983683765 -0.38448894 -0.917873561
vn 0.0983683839 -0.384488881 -0.917873561
vn 0.0983683839 -0.384488851 -0.917873561
g L_zhuzi_4_0
f 3/3/3 2/2/2 1/1/1
f 6/6/6 5/5/5 4/4/4
f 7/7/7 6/6/6 4/4/4
f 10/10/10 9/9/9 8/8/8
f 9/9/9 11/11/11 8/8/8
f 12/12/12 11/11/11 9/9/9
f 15/15/15 14/14/14 13/13/13
f 16/16/16 15/15/15 13/13/13
f 19/19/19 18/18/18 17/17/17
f 20/20/20 19/19/19 17/17/17
f 23/23/23 22/22/22 21/21/21
f 24/24/24 23/23/23 21/21/21
f 23/23/23 24/24/24 25/25/25
f 24/24/24 26/26/26 25/25/25
f 29/29/29 28/28/28 27/27/27
f 30/30/30 28/28/28 29/29/29
f 31/31/31 30/30/30 29/29/29
f 30/30/30 31/31/31 32/32/32
f 31/31/31 33/33/33 32/32/32
f 34/34/34 32/32/32 33/33/33
f 33/33/33 35/35/35 34/34/34
f 38/38/38 37/37/37 36/36/36
f 39/39/39 38/38/38 36/36/36
f 39/39/39 36/36/36 40/40/40
f 36/36/36 41/41/41 40/40/40
f 44/44/44 43/43/43 42/42/42
f 45/45/45 44/44/44 42/42/42
f 42/42/42 46/46/46 45/45/45
f 49/49/49 48/48/48 47/47/47
f 50/50/50 49/49/49 47/47/47
f 53/53/53 52/52/52 51/51/51
f 54/54/54 53/53/53 51/51/51
f 57/57/57 56/56/56 55/55/55
f 58/58/58 55/55/55 56/56/56
f 58/58/58 59/59/59 55/55/55
f 60/60/60 55/55/55 59/59/59
f 63/63/63 62/62/62 61/61/61
f 61/61/61 64/64/64 63/63/63
f 64/64/64 65/65/65 63/63/63
f 68/68/68 67/67/67 66/66/66
f 69/69/69 68/68/68 66/66/66
f 69/69/69 66/66/66 70/70/70
f 73/73/73 72/72/72 71/71/71
f 72/72/72 74/74/74 71/71/71
f 75/75/75 71/71/71 74/74/74
f 76/76/76 75/75/75 74/74/74
f 79/79/79 78/78/78 77/77/77
f 80/80/80 79/79/79 77/77/77
f 80/80/80 77/77/77 81/81/81
f 82/82/82 80/80/80 81/81/81
f 81/81/81 83/83/83 82/82/82
f 86/86/86 85/85/85 84/84/84
f 87/87/87 86/86/86 84/84/84
f 90/90/90 89/89/89 88/88/88
f 91/91/91 90/90/90 88/88/88
f 91/91/91 88/88/88 92/92/92
f 93/93/93 90/90/90 91/91/91
f 91/91/91 92/92/92 93/93/93
f 96/96/96 95/95/95 94/94/94
f 97/97/97 96/96/96 94/94/94
f 100/100/100 99/99/99 98/98/98
f 100/100/100 98/98/98 101/101/101
f 98/98/98 102/102/102 101/101/101
f 103/103/103 100/100/100 101/101/101
f 101/101/101 104/104/104 103/103/103
f 107/107/107 106/106/106 105/105/105
f 106/106/106 108/108/108 105/105/105
f 106/106/106 109/109/109 108/108/108
f 112/112/112 111/111/111 110/110/110
f 113/113/113 112/112/112 110/110/110
f 110/110/110 114/114/114 113/113/113
f 114/114/114 115/115/115 113/113/113
f 118/118/118 117/117/117 116/116/116
f 119/119/119 118/118/118 116/116/116
f 122/122/122 121/121/121 120/120/120
f 121/121/121 123/123/123 120/120/120
f 124/124/124 120/120/120 123/123/123
f 124/124/124 123/123/123 125/125/125
f 124/124/124 125/125/125 126/126/126
f 126/126/126 125/125/125 127/127/127
f 125/125/125 128/128/128 127/127/127
f 128/128/128 129/129/129 127/127/127
f 129/129/129 130/130/130 127/127/127
f 133/133/133 132/132/132 131/131/131
f 134/134/134 133/133/133 131/131/131
f 135/135/135 133/133/133 134/134/134
f 136/136/136 135/135/135 134/134/134
f 136/136/136 137/137/137 135/135/135
f 138/138/138 137/137/137 136/136/136
f 139/139/139 138/138/138 136/136/136
f 136/136/136 140/140/140 139/139/139
f 143/143/143 142/142/142 141/141/141
f 143/143/143 141/141/141 144/144/144
f 145/145/145 143/143/143 144/144/144
f 141/141/141 146/146/146 144/144/144
f 146/146/146 147/147/147 144/144/144
f 146/146/146 148/148/148 147/147/147
f 146/146/146 149/149/149 148/148/148
f 152/152/152 151/151/151 150/150/150
f 153/153/153 152/152/152 150/150/150
f 156/156/156 155/155/155 154/154/154
f 157/157/157 156/156/156 154/154/154
