g L_zhuzi_3
v 0.268814474 0.196225598 0.188227192
v 0.176055863 0.25858584 0.0633464977
v 0.278880596 0.250751138 0.041525811
v 0.32854858 0.180329457 0.193882391
v 0.303410679 0.176813439 0.222272664
v 0.268814474 0.196225598 0.188227192
v -0.302277982 -0.384173274 -0.00657299021
v -0.273239881 -0.385162503 0.00402719481
v -0.309432298 -0.402745366 -0.0312049948
v -0.20341219 -0.28068158 0.0663437769
v 0.303410679 0.176813439 0.222272664
v 0.298935324 -0.00640310254 0.157928154
v 0.306250989 -0.240953058 -0.0476650149
v 0.306330681 -0.362995982 -0.181159124
v 0.000891574018 -0.377252758 -0.177010536
v -0.309432298 -0.402745366 -0.0312049948
v -0.222846925 -0.419249743 -0.127611905
v -0.304268569 -0.399297446 -0.181213096
v 0.305570692 -0.34313032 -0.220343545
v 0.326863617 -0.338795602 -0.200495645
v 0.312751949 0.0737120211 -0.211665913
v -0.276085645 -0.0160273928 -0.218183279
v -0.282110125 -0.0097973058 -0.13644062
v -0.313601404 -0.0138761327 -0.159049004
v -0.306099176 -0.0156104844 -0.199513659
v -0.308694273 -0.0366874859 -0.219639361
v -0.329852551 -0.0427753627 -0.18980211
v 0.0417463928 0.401241452 -0.139005512
v -0.282110125 -0.0097973058 -0.13644062
v -0.276085645 -0.0160273928 -0.218183279
v 0.0517155491 0.404088438 -0.208116844
v 0.156139985 0.41131857 -0.165038779
v 0.0417463928 0.401241452 -0.139005512
v 0.0517155491 0.404088438 -0.208116844
v 0.291973144 0.414698392 -0.214468881
v 0.295596242 0.416827321 -0.176970318
v 0.273781657 0.344036013 -0.07112699
v 0.156139985 0.41131857 -0.165038779
v 0.295596242 0.416827321 -0.176970318
v 0.0417463928 0.401241452 -0.139005512
v 0.129604936 0.358538657 -0.0521691889
v 0.179033205 0.300252467 0.0322206505
v 0.245633617 0.295902729 0.0231683925
v 0.245633617 0.295902729 0.0231683925
v 0.278880596 0.250751138 0.041525811
v 0.176055863 0.25858584 0.0633464977
v 0.179033205 0.300252467 0.0322206505
v 0.322790861 0.354572892 -0.214657128
v 0.329778373 0.363072038 -0.152404398
v 0.295596242 0.416827321 -0.176970318
v 0.291973144 0.414698392 -0.214468881
v 0.295596242 0.416827321 -0.176970318
v 0.329778373 0.363072038 -0.152404398
v 0.325938493 0.23380059 -0.0192395877
v 0.273781657 0.344036013 -0.07112699
v 0.295568198 0.226409853 0.031037407
v 0.329693317 0.166060507 0.0941767842
v 0.299234629 0.180290461 0.0921047181
v 0.278880596 0.250751138 0.041525811
v 0.273781657 0.344036013 -0.07112699
v 0.295568198 0.226409853 0.031037407
v 0.245633617 0.295902729 0.0231683925
v 0.299234629 0.180290461 0.0921047181
v 0.268814474 0.196225598 0.188227192
v 0.278880596 0.250751138 0.041525811
v 0.295568198 0.226409853 0.031037407
v 0.299234629 0.180290461 0.0921047181
v 0.329693317 0.166060507 0.0941767842
v 0.32854858 0.180329457 0.193882391
v 0.268814474 0.196225598 0.188227192
v -0.304218203 -0.300870627 0.00598459225
v 0.176055863 0.25858584 0.0633464977
v 0.268814474 0.196225598 0.188227192
v -0.312044472 -0.235723391 -0.0456043817
v 0.179033205 0.300252467 0.0322206505
v 0.129604936 0.358538657 -0.0521691889
v 0.0417463928 0.401241452 -0.139005512
v -0.282110125 -0.0097973058 -0.13644062
v -0.313601404 -0.0138761327 -0.159049004
v 0.268814474 0.196225598 0.188227192
v 0.303410679 0.176813439 0.222272664
v -0.20341219 -0.28068158 0.0663437769
v -0.304218203 -0.300870627 0.00598459225
v -0.304218203 -0.300870627 0.00598459225
v -0.31220597 -0.334302366 -0.00384192448
v -0.329552531 -0.339995325 -0.0443074964
v -0.312044472 -0.235723391 -0.0456043817
v -0.313601404 -0.0138761327 -0.159049004
v -0.329852551 -0.0427753627 -0.18980211
v -0.31220597 -0.334302366 -0.00384192448
v -0.329673797 -0.378561914 -0.0585075356
v -0.329552531 -0.339995325 -0.0443074964
v -0.302277982 -0.384173274 -0.00657299021
v -0.309432298 -0.402745366 -0.0312049948
v -0.20341219 -0.28068158 0.0663437769
v -0.31220597 -0.334302366 -0.00384192448
v -0.304218203 -0.300870627 0.00598459225
v -0.302277982 -0.384173274 -0.00657299021
v -0.273239881 -0.385162503 0.00402719481
v 0.330794066 0.0134496111 0.120423146
v 0.32854858 0.180329457 0.193882391
v 0.329693317 0.166060507 0.0941767842
v 0.325938493 0.23380059 -0.0192395877
v 0.312751949 0.0737120211 -0.211665913
v 0.329778373 0.363072038 -0.152404398
v 0.322790861 0.354572892 -0.214657128
v 0.326863617 -0.338795602 -0.200495645
v 0.330551803 -0.22146143 -0.0731833279
v 0.32854858 0.180329457 0.193882391
v 0.298935324 -0.00640310254 0.157928154
v 0.303410679 0.176813439 0.222272664
v 0.330794066 0.0134496111 0.120423146
v 0.330551803 -0.22146143 -0.0731833279
v 0.306250989 -0.240953058 -0.0476650149
v 0.306330681 -0.362995982 -0.181159124
v 0.326863617 -0.338795602 -0.200495645
v 0.298935324 -0.00640310254 0.157928154
v 0.306250989 -0.240953058 -0.0476650149
v -0.273239881 -0.385162503 0.00402719481
v -0.20341219 -0.28068158 0.0663437769
v 0.306250989 -0.240953058 -0.0476650149
v -0.309432298 -0.402745366 -0.0312049948
v -0.273239881 -0.385162503 0.00402719481
v 0.000891574018 -0.377252758 -0.177010536
v -0.222846925 -0.419249743 -0.127611905
v -0.123159304 -0.407076716 -0.169507802
v 0.0175744593 -0.381375879 -0.199758559
v 0.306330681 -0.362995982 -0.181159124
v 0.249771416 -0.380540967 -0.202952415
v 0.000891574018 -0.377252758 -0.177010536
v -0.122205913 -0.39923659 -0.198119238
v -0.123159304 -0.407076716 -0.169507802
v -0.304268569 -0.399297446 -0.181213096
v -0.222846925 -0.419249743 -0.127611905
v -0.301443875 -0.390918851 -0.200584859
v 0.0152449738 -0.350565791 -0.223280132
v 0.249771416 -0.380540967 -0.202952415
v 0.269314736 -0.357767731 -0.221754342
v 0.0175744593 -0.381375879 -0.199758559
v -0.120285168 -0.368663788 -0.221923292
v -0.122205913 -0.39923659 -0.198119238
v -0.309508443 -0.361542881 -0.220099375
v -0.301443875 -0.390918851 -0.200584859
v 0.269314736 -0.357767731 -0.221754342
v 0.249771416 -0.380540967 -0.202952415
v 0.306330681 -0.362995982 -0.181159124
v 0.305570692 -0.34313032 -0.220343545
v 0.326863617 -0.338795602 -0.200495645
v -0.304268569 -0.399297446 -0.181213096
v -0.301443875 -0.390918851 -0.200584859
v -0.309508443 -0.361542881 -0.220099375
v -0.330069482 -0.365821838 -0.192682341
v -0.329673797 -0.378561914 -0.0585075356
v -0.304268569 -0.399297446 -0.181213096
v -0.330069482 -0.365821838 -0.192682341
v -0.309432298 -0.402745366 -0.0312049948
v -0.308694273 -0.0366874859 -0.219639361
v -0.329852551 -0.0427753627 -0.18980211
v -0.330069482 -0.365821838 -0.192682341
v -0.309508443 -0.361542881 -0.220099375
v -0.329552531 -0.339995325 -0.0443074964
v -0.329673797 -0.378561914 -0.0585075356
v -0.330069482 -0.365821838 -0.192682341
v -0.329852551 -0.0427753627 -0.18980211
v -0.309508443 -0.361542881 -0.220099375
v -0.276085645 -0.0160273928 -0.218183279
v -0.308694273 -0.0366874859 -0.219639361
v -0.120285168 -0.368663788 -0.221923292
v 0.312751949 0.0737120211 -0.211665913
v 0.0152449738 -0.350565791 -0.223280132
v 0.269314736 -0.357767731 -0.221754342
v 0.305570692 -0.34313032 -0.220343545
v 0.322790861 0.354572892 -0.214657128
v 0.291973144 0.414698392 -0.214468881
v 0.0517155491 0.404088438 -0.208116844
vt 0.982046425 0.181268901
vt 0.955948532 0.201414078
vt 0.972953141 0.210642338
vt 0.0107020866 0.174239933
vt 0.00529749505 0.174865782
vt 0.00964464061 0.184174359
vt 0.866245687 0.0582512319
vt 0.870755613 0.0593634546
vt 0.864344537 0.0535980165
vt 0.89290899 0.0850344598
vt 0.990787804 0.169512779
vt 0.990787804 0.13285318
vt 0.988844454 0.0522327125
vt 0.988844454 0.0175091922
vt 0.928510845 0.0163753927
vt 0.866861165 0.0428362787
vt 0.883182347 0.0255810916
vt 0.866861165 0.0162029564
vt 0.111922756 0.069090724
vt 0.107796207 0.0684396625
vt 0.107796207 0.153042376
vt 0.255099595 0.165559053
vt 0.268970966 0.170046449
vt 0.266408205 0.16203475
vt 0.258864939 0.160925865
vt 0.255099595 0.158105552
vt 0.260807991 0.156397998
vt 0.178612232 0.231763288
vt 0.247713268 0.152271137
vt 0.238652825 0.143557474
vt 0.171363235 0.223843321
vt 0.140666083 0.233062297
vt 0.166650012 0.233062297
vt 0.159400955 0.22514233
vt 0.111728862 0.22834596
vt 0.112172678 0.233062297
vt 0.950984776 0.245303154
vt 0.921402514 0.257894039
vt 0.945712626 0.270433426
vt 0.902988017 0.244842291
vt 0.925612509 0.233501077
vt 0.942079604 0.218234032
vt 0.9526003 0.223400921
vt 0.958447754 0.219863176
vt 0.968182981 0.214173526
vt 0.951178372 0.204945177
vt 0.947927058 0.214696378
vt 0.109349221 0.213013247
vt 0.0985439718 0.214556053
vt 0.103547603 0.225946143
vt 0.109349221 0.226011351
vt 0.099643603 0.23055172
vt 0.0946399122 0.219161689
vt 0.0647387058 0.193986654
vt 0.0742442161 0.218860984
vt 0.0521754175 0.194491267
vt 0.0389171392 0.178498507
vt 0.0378937274 0.184991002
vt 0.96705395 0.220893353
vt 0.955702841 0.248485327
vt 0.97307688 0.222435206
vt 0.957318604 0.226583213
vt 0.991673529 0.201943249
vt 0.986267149 0.183981627
vt 0.977173746 0.213354915
vt 0.983196676 0.214896798
vt 0.0343212038 0.182821691
vt 0.035344556 0.176329195
vt 0.014072014 0.175215304
vt 0.0130144488 0.185149908
vt 0.860755503 0.0863750279
vt 0.948012531 0.198996872
vt 0.974110425 0.178851813
vt 0.854905665 0.101050407
vt 0.944761097 0.208748102
vt 0.928293884 0.224015117
vt 0.905669391 0.235356212
vt 0.852253973 0.148793012
vt 0.844900548 0.148110837
vt 0.981891453 0.178073853
vt 0.988844454 0.174121827
vt 0.890965521 0.0896433294
vt 0.868536294 0.0855971873
vt 0.312303245 0.105238996
vt 0.309797227 0.0982092246
vt 0.301315129 0.0967139229
vt 0.300774992 0.118851326
vt 0.27559346 0.164262116
vt 0.269993484 0.158625185
vt 0.311748236 0.0888805836
vt 0.300062031 0.079958722
vt 0.303266138 0.0873853415
vt 0.311078995 0.0783310384
vt 0.305537671 0.0752923936
vt 0.885091126 0.0834754407
vt 0.860664904 0.0726282299
vt 0.862662137 0.0794292092
vt 0.862887919 0.0624782145
vt 0.867397964 0.0635903776
vt 0.0336778909 0.137411654
vt 0.0158635508 0.167660654
vt 0.0371361524 0.168774664
vt 0.062957719 0.184262455
vt 0.103801087 0.151398063
vt 0.0928589255 0.209437609
vt 0.103664413 0.207894981
vt 0.103801087 0.0681610703
vt 0.0770569593 0.0900338292
vt 0.0119719999 0.15992032
vt 0.0217872746 0.124679431
vt 0.00656728912 0.160546169
vt 0.0297863409 0.129671201
vt 0.0731654093 0.0822932571
vt 0.0678349063 0.0782222599
vt 0.096514456 0.0557631105
vt 0.0999095365 0.0604208559
vt 0.988844454 0.12637189
vt 0.988844454 0.062459439
vt 0.873272121 0.058668226
vt 0.890965521 0.078553319
vt 0.988844454 0.0585378706
vt 0.866861165 0.0489813387
vt 0.873272121 0.0547464788
vt 0.928510845 0.0226807296
vt 0.883182347 0.0317259133
vt 0.903002083 0.0237213671
vt 0.932166636 0.00829187036
vt 0.988844454 0.0126332939
vt 0.978513539 0.00829187036
vt 0.928510845 0.0114995539
vt 0.903796017 0.00829187036
vt 0.903002083 0.0125401318
vt 0.866861165 0.0111668408
vt 0.883182347 0.0205448568
vt 0.866861165 0.00829187036
vt 0.176258668 0.061881192
vt 0.129709587 0.0588640645
vt 0.125056788 0.061881192
vt 0.176213607 0.0588640645
vt 0.203503236 0.061881192
vt 0.204135641 0.0588640645
vt 0.239771754 0.061881192
vt 0.238665015 0.0588640645
vt 0.117291041 0.0600777715
vt 0.121943779 0.0570608228
vt 0.110425301 0.0570608228
vt 0.109667845 0.0615426153
vt 0.105541177 0.0608913749
vt 0.259550959 0.0705206692
vt 0.256090939 0.0722608864
vt 0.252625942 0.0781938136
vt 0.257959694 0.0777329504
vt 0.290283293 0.0751869977
vt 0.263382286 0.0705206692
vt 0.261790961 0.0777329504
vt 0.295759052 0.0705206692
vt 0.251045793 0.151408672
vt 0.256379545 0.149701118
vt 0.256379545 0.0829092413
vt 0.251045793 0.0833700448
vt 0.295744717 0.0907244012
vt 0.29254061 0.0832980201
vt 0.264048278 0.085843794
vt 0.264048398 0.152635679
vt 0.241893664 0.0673476458
vt 0.235258177 0.135881364
vt 0.241893664 0.132886112
vt 0.205625147 0.0673476458
vt 0.115429007 0.152764082
vt 0.178380758 0.0673476458
vt 0.127178818 0.0673476458
vt 0.119555555 0.0688123107
vt 0.115429007 0.208952725
vt 0.120296501 0.219370782
vt 0.167968601 0.216167331
vn 0.15441452 0.919253767 0.362116933
vn 0.15441452 0.919253767 0.362116933
vn 0.15441452 0.919253767 0.362116933
vn 0.186885178 0.953318536 0.237187341
vn 0.186885208 0.953318536 0.237187371
vn 0.186885178 0.953318536 0.237187341
vn -0.191154212 -0.773092866 0.604803681
vn -0.191154212 -0.773092866 0.604803741
vn -0.191154227 -0.773092866 0.604803741
vn 0.0144404657 -0.34390974 0.938891709
vn 0.0144404648 -0.34390974 0.938891709
vn 0.014440462 -0.34390977 0.938891649
vn 0.0383462645 -0.732478917 0.679708838
vn 0.0383462645 -0.732478917 0.679708898
vn 0.0383462682 -0.732478917 0.679708838
vn -0.210101858 -0.976886451 -0.0393722802
vn -0.210101843 -0.976886451 -0.0393722877
vn -0.210101873 -0.976886451 -0.039372284
vn 0.639787078 0.00899612252 -0.768499613
vn 0.639787018 0.00899612159 -0.768499613
vn 0.639787018 0.00899612159 -0.768499613
vn -0.172935188 0.974797726 -0.140935972
vn -0.150091603 0.984566987 -0.0900027975
vn -0.221148983 0.969815016 -0.102723308
vn -0.305235267 0.933604896 -0.187651947
vn -0.578086257 0.620894253 -0.529439867
vn -0.769120097 0.590700626 -0.243981957
vn -0.783519864 0.617707372 -0.0673372075
vn -0.783519864 0.617707312 -0.0673372075
vn -0.783519864 0.617707372 -0.0673372075
vn -0.783519864 0.617707372 -0.0673372075
vn -0.049521558 0.998216927 0.0333256684
vn -0.0568504557 0.996120393 0.0671723709
vn -0.0544122159 0.996953368 0.0558858626
vn -0.0487964042 0.998358428 0.0299894735
vn -0.0487964042 0.998358428 0.029989481
vn 0.0970738232 0.864454448 0.493249685
vn 0.082282871 0.882486403 0.463084519
vn 0.00548619218 0.816890836 0.576766312
vn 0.100094423 0.894970119 0.434752196
vn 0.113711789 0.885339618 0.450825214
vn 0.14917545 0.857791305 0.491874725
vn 0.14917548 0.857791305 0.491874725
vn 0.187573448 0.558919072 0.807728767
vn 0.187573463 0.558919072 0.807728767
vn 0.187573403 0.558919072 0.807728767
vn 0.187573463 0.558919072 0.807728767
vn 0.884929061 0.453135401 -0.107559055
vn 0.884928942 0.453135371 -0.107559048
vn 0.884928942 0.453135371 -0.107559048
vn 0.884929061 0.453135401 -0.107559048
vn 0.589553893 0.582610726 0.559455812
vn 0.589554012 0.582610726 0.559455931
vn 0.598419845 0.604805768 0.525455594
vn 0.593472958 0.581273019 0.556696892
vn 0.457824826 0.73228097 0.504143775
vn 0.37928614 0.781708717 0.495048881
vn 0.37928617 0.781708717 0.49504891
vn 0.778424561 0.493972629 0.387358069
vn 0.686833858 0.570805848 0.44993335
vn 0.842709541 0.424567133 0.331033915
vn 0.598454237 0.628352284 0.497016966
vn 0.908238292 0.383670777 0.167032987
vn 0.908238232 0.383670747 0.167033002
vn 0.908238292 0.383670777 0.167032972
vn 0.908238232 0.383670777 0.167033002
vn 0.298844755 0.947531402 -0.113472566
vn 0.298844784 0.947531402 -0.113472566
vn 0.298844755 0.947531402 -0.113472566
vn 0.298844755 0.947531402 -0.113472566
vn -0.603504181 0.450648248 0.657798469
vn -0.604759753 0.454314023 0.654113472
vn -0.603504241 0.450648278 0.65779835
vn -0.58418113 0.439201564 0.682520628
vn -0.606409252 0.45918861 0.649163783
vn -0.550065577 0.420792282 0.721361041
vn -0.510282099 0.393436253 0.764735341
vn -0.511142373 0.392856061 0.764459074
vn -0.537117302 0.37493068 0.755600512
vn -0.555920243 0.359090179 0.749671221
vn -0.555920184 0.359090209 0.74967128
vn -0.555920243 0.359090209 0.749671221
vn -0.555920243 0.359090179 0.749671161
vn -0.930536926 0.149586052 0.334252983
vn -0.930536926 0.149586052 0.334253013
vn -0.930894732 0.151747361 0.332276702
vn -0.931178689 0.153498232 0.330672711
vn -0.931221306 0.153763458 0.330429524
vn -0.931221306 0.153763443 0.330429465
vn -0.892978609 -0.159063265 0.421056002
vn -0.892831266 -0.155954733 0.422528714
vn -0.892978609 -0.15906325 0.421056032
vn -0.892808557 -0.155496418 0.422745377
vn -0.890254855 -0.118708268 0.439721048
vn -0.457569301 -0.172951385 0.872191608
vn -0.456545234 -0.174116567 0.872496307
vn -0.480730057 -0.146124884 0.864607513
vn -0.452493012 -0.178709939 0.873677731
vn -0.452493042 -0.178709939 0.873677731
vn 0.999021173 0.0140370596 -0.0419494696
vn 0.999999166 0.000842232723 -0.000969849294
vn 0.999157429 -0.00798365101 -0.0402568057
vn 0.998950601 -0.0222368818 -0.040039558
vn 0.999113858 0.00902654696 -0.0411107652
vn 0.998543739 -0.0439049825 -0.0313504897
vn 0.998543739 -0.0439049937 -0.0313504934
vn 0.998670459 0.0296379924 -0.0421775393
vn 0.998670459 0.0296379924 -0.0421775393
vn 0.760833979 -0.255715132 0.596440613
vn 0.804932237 -0.347717255 0.480808377
vn 0.749283612 -0.257454813 0.610156596
vn 0.805702925 -0.349016935 0.478570819
vn 0.804472089 -0.397845596 0.441070765
vn 0.80412221 -0.394165993 0.444994986
vn 0.806661606 -0.433250219 0.401984304
vn 0.806661606 -0.433250159 0.401984245
vn 0.220131457 -0.634029329 0.741315663
vn 0.220131442 -0.634029388 0.741315603
vn 0.220131427 -0.634029329 0.741315663
vn 0.220131442 -0.634029329 0.741315663
vn 0.252289116 -0.91001296 0.328978002
vn 0.252070665 -0.909861267 0.329564512
vn 0.252289116 -0.91001296 0.328977972
vn 0.252185255 -0.909940898 0.329257101
vn 0.249178618 -0.907825172 0.33728829
vn 0.249178588 -0.907825172 0.33728829
vn 0.0479636379 -0.877146661 0.47782138
vn 0.0293654334 -0.849463701 0.526829183
vn 0.0293654352 -0.849463701 0.526829183
vn 0.130314082 -0.963539302 0.233688101
vn 0.0447652489 -0.978967845 -0.199042454
vn 0.0185363553 -0.969999373 -0.242399767
vn -0.0238223411 -0.939339519 -0.342160702
vn -0.0202999637 -0.951604426 -0.306654364
vn -0.0311842766 -0.908880472 -0.415889174
vn 0.0189033393 -0.553174019 -0.832851171
vn -0.01072466 -0.533488929 -0.845739007
vn -0.0107246572 -0.53348887 -0.845739007
vn 0.0185606647 -0.552950859 -0.833007097
vn 0.0164623484 -0.585140944 -0.810764492
vn 0.00970423594 -0.586019993 -0.810238481
vn -0.0205058232 -0.589614213 -0.807424664
vn -0.0205058232 -0.589614213 -0.807424664
vn 0.402868539 -0.782422066 -0.474881738
vn 0.394071281 -0.771416605 -0.499624074
vn 0.414866924 -0.797040641 -0.438875318
vn 0.418204516 -0.801017284 -0.428341269
vn 0.418204516 -0.801017404 -0.428341269
vn -0.648890734 -0.598628998 -0.469663799
vn -0.648890734 -0.598629057 -0.469663799
vn -0.648890734 -0.598629057 -0.469663739
vn -0.648890734 -0.598629057 -0.469663799
vn -0.759302914 -0.649129868 -0.0457111895
vn -0.785799146 -0.616170108 -0.0534220375
vn -0.788404047 -0.612765491 -0.0541981682
vn -0.754803181 -0.654444695 -0.0444327667
vn -0.815505207 0.00430856878 -0.578733683
vn -0.815505207 0.00430856878 -0.578733623
vn -0.815505207 0.00430856878 -0.578733683
vn -0.815505207 0.00430856925 -0.578733742
vn -0.999937296 0.00415618485 0.0104040317
vn -0.999937296 0.00415618578 0.0104040327
vn -0.999937296 0.00415618578 0.0104040336
vn -0.999937296 0.00415618578 0.0104040336
vn 0.00398009131 0.00357857067 -0.999985695
vn 0.00368029438 0.00754407095 -0.999964833
vn 0.00398009131 0.0035785709 -0.999985695
vn 0.00378588843 0.0110060889 -0.999932289
vn 0.00751864864 -0.000771962921 -0.999971509
vn 0.00361828459 0.0132294316 -0.999905944
vn 0.00293059973 0.0183911864 -0.99982661
vn 0.00293059926 0.0183911826 -0.99982661
vn 0.0106936712 -0.0124018723 -0.99986589
vn 0.00408283388 -0.00367227104 -0.99998498
vn -0.0282942411 0.0390786305 -0.998835504
g L_zhuzi_3_0
f 3/3/3 2/2/2 1/1/1
f 6/6/6 5/5/5 4/4/4
f 9/9/9 8/8/8 7/7/7
f 12/12/12 11/11/11 10/10/10
f 15/15/15 14/14/14 13/13/13
f 18/18/18 17/17/17 16/16/16
f 21/21/21 20/20/20 19/19/19
f 24/24/24 23/23/23 22/22/22
f 25/25/25 24/24/24 22/22/22
f 22/22/22 26/26/26 25/25/25
f 27/27/27 24/24/24 25/25/25
f 26/26/26 27/27/27 25/25/25
f 30/30/30 29/29/29 28/28/28
f 31/31/31 30/30/30 28/28/28
f 34/34/34 33/33/33 32/32/32
f 34/34/34 32/32/32 35/35/35
f 32/32/32 36/36/36 35/35/35
f 39/39/39 38/38/38 37/37/37
f 38/38/38 40/40/40 37/37/37
f 40/40/40 41/41/41 37/37/37
f 37/37/37 41/41/41 42/42/42
f 43/43/43 37/37/37 42/42/42
f 46/46/46 45/45/45 44/44/44
f 47/47/47 46/46/46 44/44/44
f 50/50/50 49/49/49 48/48/48
f 51/51/51 50/50/50 48/48/48
f 54/54/54 53/53/53 52/52/52
f 55/55/55 54/54/54 52/52/52
f 55/55/55 56/56/56 54/54/54
f 57/57/57 54/54/54 56/56/56
f 58/58/58 57/57/57 56/56/56
f 61/61/61 60/60/60 59/59/59
f 60/60/60 62/62/62 59/59/59
f 65/65/65 64/64/64 63/63/63
f 66/66/66 65/65/65 63/63/63
f 69/69/69 68/68/68 67/67/67
f 70/70/70 69/69/69 67/67/67
f 73/73/73 72/72/72 71/71/71
f 72/72/72 74/74/74 71/71/71
f 74/74/74 72/72/72 75/75/75
f 76/76/76 74/74/74 75/75/75
f 74/74/74 76/76/76 77/77/77
f 78/78/78 74/74/74 77/77/77
f 74/74/74 78/78/78 79/79/79
f 82/82/82 81/81/81 80/80/80
f 83/83/83 82/82/82 80/80/80
f 86/86/86 85/85/85 84/84/84
f 87/87/87 86/86/86 84/84/84
f 87/87/87 88/88/88 86/86/86
f 88/88/88 89/89/89 86/86/86
f 92/92/92 91/91/91 90/90/90
f 91/91/91 93/93/93 90/90/90
f 93/93/93 91/91/91 94/94/94
f 97/97/97 96/96/96 95/95/95
f 96/96/96 98/98/98 95/95/95
f 98/98/98 99/99/99 95/95/95
f 102/102/102 101/101/101 100/100/100
f 102/102/102 100/100/100 103/103/103
f 100/100/100 104/104/104 103/103/103
f 105/105/105 103/103/103 104/104/104
f 106/106/106 105/105/105 104/104/104
f 107/107/107 104/104/104 100/100/100
f 108/108/108 107/107/107 100/100/100
f 111/111/111 110/110/110 109/109/109
f 109/109/109 110/110/110 112/112/112
f 113/113/113 112/112/112 110/110/110
f 114/114/114 113/113/113 110/110/110
f 113/113/113 114/114/114 115/115/115
f 116/116/116 113/113/113 115/115/115
f 119/119/119 118/118/118 117/117/117
f 120/120/120 119/119/119 117/117/117
f 123/123/123 122/122/122 121/121/121
f 122/122/122 124/124/124 121/121/121
f 122/122/122 125/125/125 124/124/124
f 125/125/125 126/126/126 124/124/124
f 129/129/129 128/128/128 127/127/127
f 128/128/128 130/130/130 127/127/127
f 127/127/127 130/130/130 131/131/131
f 130/130/130 132/132/132 131/131/131
f 131/131/131 132/132/132 133/133/133
f 132/132/132 134/134/134 133/133/133
f 131/131/131 133/133/133 135/135/135
f 138/138/138 137/137/137 136/136/136
f 137/137/137 139/139/139 136/136/136
f 136/136/136 139/139/139 140/140/140
f 139/139/139 141/141/141 140/140/140
f 142/142/142 140/140/140 141/141/141
f 143/143/143 142/142/142 141/141/141
f 146/146/146 145/145/145 144/144/144
f 146/146/146 144/144/144 147/147/147
f 148/148/148 146/146/146 147/147/147
f 151/151/151 150/150/150 149/149/149
f 152/152/152 151/151/151 149/149/149
f 155/155/155 154/154/154 153/153/153
f 154/154/154 156/156/156 153/153/153
f 159/159/159 158/158/158 157/157/157
f 160/160/160 159/159/159 157/157/157
f 163/163/163 162/162/162 161/161/161
f 164/164/164 163/163/163 161/161/161
f 167/167/167 166/166/166 165/165/165
f 166/166/166 168/168/168 165/165/165
f 168/168/168 166/166/166 169/169/169
f 170/170/170 168/168/168 169/169/169
f 171/171/171 170/170/170 169/169/169
f 172/172/172 171/171/171 169/169/169
f 173/173/173 169/169/169 166/166/166
f 174/174/174 173/173/173 166/166/166
f 175/175/175 174/174/174 166/166/166
