g Line002
v -0.115396902 0.176221117 0.306671113
v 0.322046608 0.363900453 0.293900192
v 0.326810896 0.294949383 0.30689162
v -0.193308473 0.216005757 0.306671113
v 0.325024039 0.310788363 0.291721284
v 0.325024039 0.0653810725 -0.00759510323
v 0.325024039 0.0744564012 0.0705238953
v 0.325024068 0.373654991 0.292885453
v 0.321469337 0.544683576 0.0395145454
v 0.321469307 0.221547514 -0.311801881
v 0.321469307 0.180216178 -0.311801881
v 0.321469337 0.569106817 0.00381902559
v 0.321469367 0.787035406 0.180417299
v 0.321469337 0.726917446 0.0789669305
v 0.30925715 0.909620821 0.31135866
v 0.321469367 0.857171714 0.312605828
v -0.30852598 0.186811313 -0.152113199
v -0.30852598 0.49385497 -0.219186038
v -0.302137643 0.182339787 -0.0239300076
v -0.30852598 0.523365915 -0.284494311
v -0.308526039 0.59968096 0.0744424984
v -0.308526039 0.563908875 0.120648205
v -0.308526069 0.866480947 0.220511824
v -0.308526039 0.872442842 0.186230287
v -0.308526069 0.892413318 0.29995048
v -0.308526069 0.920683503 0.286409676
v -0.0476899594 1.01025462 0.0651461929
v 0.0168441683 1.01025462 -0.292620987
v 0.0737062842 1.01025462 -0.290152043
v -0.101025611 1.00739169 0.054058183
v -0.31014064 1.00469005 0.25001514
v -0.293546975 1.00280452 0.304519683
v 0.319199592 0.73695159 -0.00503358338
v 0.319199592 0.729893386 0.0850102901
v 0.319199592 0.747880399 0.106969222
v 0.313763738 0.714484453 -0.0142847626
v 0.319199592 0.748845935 -0.0393951237
v 0.311750054 0.788493872 -0.143801302
v 0.308067203 0.959572017 -0.31294331
v 0.307322621 0.978577077 -0.317577899
v 0.020254802 0.894683361 -0.304705918
v -0.287169516 0.553890824 -0.307806104
v -0.280192941 0.511780977 -0.307806104
v 0.016251836 0.931880593 -0.307806104
v 0.0297422428 0.91148144 -0.305206329
v 0.0248501003 0.978242993 -0.301923364
v 0.0529958978 0.940201342 -0.304488629
v 0.0675463676 0.978773773 -0.297914743
v 0.111403979 0.952331901 -0.306677252
v 0.0996495634 0.984525383 -0.309650719
v 0.286773264 0.959901273 -0.312724322
v 0.298207074 0.978591681 -0.317810923
v -0.308944345 0.13377054 0.315905362
v -0.308944285 0.174014091 -0.0254196934
v -0.308944345 0.188919142 0.303981334
v -0.308944285 0.162090063 -0.0865303054
v 0.308379561 0.908215404 0.305041611
v -0.285603702 0.933041871 0.306196809
v -0.291585118 0.982515514 0.306196809
v 0.321828634 0.850148559 0.306196809
vt 0.0273277313 0.757841229
vt 1.04302049 0.995699704
vt 0.853614628 0.732346535
vt 0.0392960533 0.998072207
vt 0.0600838885 0.82875526
vt 0.400097489 0.914882898
vt 0.319172919 0.842844367
vt 0.0161808189 0.923549891
vt 0.637521565 0.828873396
vt 0.941682458 0.917975008
vt 0.973123074 0.829864085
vt 0.560330987 0.906207025
vt 0.383525014 0.827403247
vt 0.481111407 0.886181653
vt 0.351007551 0.908360243
vt 0.306191772 0.830606937
vt 0.0328969061 0.928462386
vt 0.206932381 0.829603732
vt 0.0329844952 0.834385276
vt 0.215155408 0.927384913
vt 0.358581454 0.927801728
vt 0.345954329 0.83594197
vt 0.793627501 0.828991175
vt 0.77747035 0.934729934
vt 0.988241553 0.831171215
vt 0.985864818 0.937176466
vt 0.356699437 0.828167975
vt 0.937712908 0.914034903
vt 0.9575634 0.832784534
vt 0.311119616 0.920959473
vt 0.0626542866 0.924162388
vt 0.0362590924 0.831644773
vt 0.201846853 0.901169121
vt 0.103419743 0.868348002
vt 0.127699003 0.894094884
vt 0.129558235 0.842477262
vt 0.338968039 0.905471802
vt 0.277023286 0.827748895
vt 0.332009584 0.858929694
vt 0.372253984 0.912888944
vt 0.582268715 0.82879746
vt 0.987175345 0.913873672
vt 0.973888397 0.830312252
vt 0.582457423 0.911944687
vt 0.513997674 0.830394268
vt 0.514689684 0.917810142
vt 0.43789193 0.82547009
vt 0.429668039 0.896653473
vt 0.348477423 0.83813715
vt 0.341033101 0.91521275
vt 0.00984406471 0.853650093
vt 0.010812819 0.891955495
vt 0.328756392 0.833315134
vt 0.0881038979 0.92351073
vt 0.340593219 0.933978558
vt 0.0626291186 0.829817295
vt 0.953566432 0.994230807
vt 0.370782584 0.773074567
vt 0.492844403 0.937349379
vt 0.935827434 0.823589563
vn 0.0119309872 0.0401778035 0.999121368
vn -0.0432903245 0.16791667 0.984850287
vn -0.0492593199 0.181644127 0.982129753
vn 0.0158551764 0.0310497191 0.999392033
vn 1 -3.69850767E-07 3.03237925E-07
vn 1 0 0
vn 1 0 0
vn 1 -3.91253394E-07 3.20785773E-07
vn 1 0 0
vn 1 0 0
vn 1 0 0
vn 1 0 0
vn 0.96635747 0.221718088 -0.130362108
vn 0.999880791 0.0132834716 -0.00787182059
vn 0.966512918 0.226043984 -0.121477827
vn 0.967752218 0.222522333 -0.118065342
vn -0.998885453 0.0100734634 0.0461139381
vn -0.99999392 0.000746097357 0.00341586513
vn -0.998681366 0.0109560248 0.0501540937
vn -1 0 0
vn -1 0 0
vn -1 0 0
vn -1 9.70396968E-07 -5.0969976E-07
vn -1 3.31245616E-07 -5.88893386E-07
vn -1 0 0
vn -1 0 0
vn -0.0438710786 0.998935163 -0.014276241
vn -0.00416293135 0.999991059 -0.000750910491
vn -0 1 0
vn -0.0483823232 0.998513758 -0.0250855684
vn -0.000749378174 0.999578416 0.0290233362
vn 0.00260580098 0.999425888 0.0337819532
vn 0.977291942 -0.208114803 -0.0398565643
vn 0.999781668 -0.0208330378 -0.00163302186
vn 1 0 0
vn 0.971270859 -0.2282473 -0.0673507154
vn 0.958529353 -0.244137093 -0.147032306
vn 0.990500808 -0.0892826617 -0.104578614
vn 0.999394417 0.0300728865 -0.0175052416
vn 0.999268234 0.0359940939 -0.0129387341
vn 0.0865986869 -0.0715716109 -0.993669093
vn 0.0105965417 -0.000462481024 -0.999943733
vn 0.00851939712 0.00141145312 -0.999962687
vn 0.218304396 0.0185799636 -0.975703835
vn 0.0889579952 -0.0242138151 -0.99574101
vn 0.0834003538 0.0972693786 -0.991757572
vn -0.00995832309 0.10953562 -0.993933022
vn -0.0675874427 0.089261122 -0.993712366
vn -0.101572648 -0.0568781383 -0.993200839
vn -0.194215581 -0.1648864 -0.967002034
vn -0.0455782562 -0.224867582 -0.97332269
vn -0.0469321534 -0.23547776 -0.970745981
vn -1 0 0
vn -1 4.27103856E-07 0
vn -1 0 0
vn -1 4.53435348E-07 0
vn 0.00276699197 0.0196789801 0.99980253
vn 0.00199833931 0.00127957249 0.999997258
vn 0.00195473176 0.00023620858 0.999998093
vn 0.00280291867 0.0205393527 0.999785125
g Line002_0
f 3/3/3 2/2/2 1/1/1
f 4/4/4 1/1/1 2/2/2
f 7/7/7 6/6/6 5/5/5
f 8/8/8 5/5/5 6/6/6
f 11/11/11 10/10/10 9/9/9
f 10/10/10 12/12/12 9/9/9
f 12/12/12 13/13/13 9/9/9
f 14/14/14 13/13/13 12/12/12
f 15/15/15 13/13/13 14/14/14
f 16/16/16 13/13/13 15/15/15
f 19/19/19 18/18/18 17/17/17
f 18/18/18 20/20/20 17/17/17
f 21/21/21 20/20/20 18/18/18
f 22/22/22 21/21/21 18/18/18
f 23/23/23 21/21/21 22/22/22
f 24/24/24 21/21/21 23/23/23
f 25/25/25 24/24/24 23/23/23
f 26/26/26 24/24/24 25/25/25
f 29/29/29 28/28/28 27/27/27
f 28/28/28 30/30/30 27/27/27
f 30/30/30 31/31/31 27/27/27
f 31/31/31 32/32/32 27/27/27
f 35/35/35 34/34/34 33/33/33
f 34/34/34 36/36/36 33/33/33
f 36/36/36 37/37/37 33/33/33
f 38/38/38 37/37/37 36/36/36
f 39/39/39 37/37/37 38/38/38
f 40/40/40 37/37/37 39/39/39
f 43/43/43 42/42/42 41/41/41
f 44/44/44 41/41/41 42/42/42
f 41/41/41 44/44/44 45/45/45
f 46/46/46 45/45/45 44/44/44
f 45/45/45 46/46/46 47/47/47
f 48/48/48 47/47/47 46/46/46
f 47/47/47 48/48/48 49/49/49
f 50/50/50 49/49/49 48/48/48
f 49/49/49 50/50/50 51/51/51
f 52/52/52 51/51/51 50/50/50
f 55/55/55 54/54/54 53/53/53
f 56/56/56 53/53/53 54/54/54
f 59/59/59 58/58/58 57/57/57
f 60/60/60 57/57/57 58/58/58
