g char_huang_mesh_01
v -0.75 0.223991841 0
v -0.75 0.250123382 0
v 0.75 0.250123382 0
v 0.75 0.223991841 0
v -0.75 0.197860301 0
v 0.75 0.197860315 0
v -0.75 -0.246455058 0
v 0.75 -0.220323533 0
v 0.75 -0.246455058 0
v -0.75 -0.220323518 0
v 0.75 -0.194191992 0
v -0.75 -0.194191992 0
vt 0 0.666666627
vt 0 1
vt 1 1
vt 1 0.666666687
vt 0 0.333333313
vt 1 0.333333343
vt 0 0
vt 1 0.333333313
vt 1 0
vt 0 0.333333343
vt 1 0.666666627
vt 0 0.666666687
vn -0 0 1
vn -0 0 1
vn -0 0 1
vn -0 0 1
vn -0 0 1
vn -0 0 1
vn -0 0 1
vn -0 0 1
vn -0 0 1
vn -0 0 1
vn -0 0 1
vn -0 0 1
g char_huang_mesh_01_0
f 3/3/3 2/2/2 1/1/1
f 4/4/4 3/3/3 1/1/1
f 4/4/4 1/1/1 5/5/5
f 6/6/6 4/4/4 5/5/5
f 9/9/9 8/8/8 7/7/7
f 8/8/8 10/10/10 7/7/7
f 8/8/8 11/11/11 10/10/10
f 11/11/11 12/12/12 10/10/10
