g Plane002
v -0.246260926 -0.029243106 0
v -0.0957224816 0.029243106 0
v -0.0957224816 -0.029243106 0
v -0.246260926 0.029243106 0
v -0.0752692223 -0.029243106 0
v 0.0752692223 0.029243106 0
v 0.0752692223 -0.029243106 0
v -0.0752692223 0.029243106 0
v 0.0957224816 -0.029243106 0
v 0.246260941 0.029243106 0
v 0.246260941 -0.029243106 0
v 0.0957224816 0.029243106 0
vt 5.96046448E-08 0.44070065
vt 0.305648267 0.55929935
vt 0.305648267 0.44070065
vt 5.96046448E-08 0.55929935
vt 0.347175896 0.44070065
vt 0.652824163 0.55929935
vt 0.652824163 0.44070065
vt 0.347175896 0.55929935
vt 0.694351792 0.44070065
vt 1 0.55929935
vt 1 0.44070065
vt 0.694351792 0.55929935
vn -0 0 1
vn -0 0 1
vn -0 0 1
vn -0 0 1
vn -0 0 1
vn -0 0 1
vn -0 0 1
vn -0 0 1
vn -0 0 1
vn -0 0 1
vn -0 0 1
vn -0 0 1
g Plane002_0
f 3/3/3 2/2/2 1/1/1
f 4/4/4 1/1/1 2/2/2
f 7/7/7 6/6/6 5/5/5
f 8/8/8 5/5/5 6/6/6
f 11/11/11 10/10/10 9/9/9
f 12/12/12 9/9/9 10/10/10
