g Sphere0dx
v 0.794703782 -0.321497619 0.786642194
v 0.838857532 -0.163738072 0.664041817
v 1.1358062 -0.225912854 0.0406078175
v 1.07072473 -0.443133712 0.181317002
v 0.838857532 -0.163737968 0.344934583
v 0.724089921 -0.466439217 0.936315417
v 0.794703782 -0.321497709 0.450696319
v 0.967107058 -0.643211663 0.415716588
v 0.631182015 -0.592625856 1.09424353
v 0.724090278 -0.466439307 0.582828879
v 0.831691265 -0.818104148 0.694627285
v 0.521255016 -0.694634259 1.23556721
v 0.631181419 -0.592625856 0.721886039
v 0.6729182 -0.96030736 0.951527357
v 0.400229841 -0.767772615 1.33883727
v 0.521255016 -0.694634259 0.845057487
v 0.500098348 -1.06306005 1.1346643
v 0.27418229 -0.808335841 1.39280224
v 0.40023002 -0.767772615 0.933654547
v 0.322563052 -1.12069142 1.22467053
v 0.146661595 -0.819028318 1.39945173
v 0.274182498 -0.808335841 0.978100955
v 0.147660747 -1.13196409 1.23135161
v 0.0217463467 -0.818914652 1.37266135
v 0.146661595 -0.819028318 0.979620039
v -0.0218203738 -1.10619581 1.17730796
v -0.106411912 -0.796361506 1.31645226
v 0.0217463467 -0.818914652 0.948153734
v -0.181178182 -1.0687058 1.09147739
v -0.260303676 -0.766599417 1.23715234
v -0.106412299 -0.796361566 0.889059842
v -0.337541014 -1.00090516 1.0018518
v -0.386259079 -0.714617729 1.17897999
v -0.260303885 -0.766599536 0.803962529
v -0.477043748 -0.902776837 0.953073502
v -0.501310945 -0.649744093 1.15917397
v -0.386259168 -0.714617789 0.741999686
v -0.591982841 -0.779608965 0.973547816
v -0.600612342 -0.545562685 1.19210327
v -0.501310766 -0.649744093 0.718126297
v -0.681929231 -0.641633809 1.06236279
v -0.704962194 -0.409542382 1.32135081
v -0.600612581 -0.545562685 0.748344362
v -0.756179154 -0.488797933 1.2143482
v -0.794893622 -0.261986136 1.55919063
v -0.704962313 -0.409542441 0.873314679
v -0.828803539 -0.280684888 1.4672637
v -0.794893801 -0.261986226 1.10779464
vt 0.583687603 0.996503234
vt 0.625318825 0.996503234
vt 0.625318825 0.499999881
vt 0.583687603 0.499999881
vt 0.625318825 0.00349700451
vt 0.542056262 0.996503234
vt 0.583687603 0.00349700451
vt 0.542056262 0.499999881
vt 0.500425041 0.996503234
vt 0.542056262 0.00349700451
vt 0.500425041 0.499999881
vt 0.458793759 0.996503234
vt 0.500425041 0.00349700451
vt 0.458793759 0.499999881
vt 0.417162538 0.996503234
vt 0.458793759 0.00349700451
vt 0.417162538 0.499999881
vt 0.375531316 0.996503234
vt 0.417162538 0.00349700451
vt 0.375531316 0.499999881
vt 0.333900034 0.996503234
vt 0.375531316 0.00349700451
vt 0.333900034 0.499999881
vt 0.292268753 0.996503234
vt 0.333900034 0.00349700451
vt 0.292268753 0.499999881
vt 0.250637472 0.996503234
vt 0.292268753 0.00349700451
vt 0.250637472 0.499999881
vt 0.20900625 0.996503234
vt 0.250637472 0.00349700451
vt 0.20900625 0.499999881
vt 0.167374998 0.996503234
vt 0.20900625 0.00349700451
vt 0.167374998 0.499999881
vt 0.125743717 0.996503234
vt 0.167374998 0.00349700451
vt 0.125743717 0.499999881
vt 0.0841124654 0.996503234
vt 0.125743717 0.00349700451
vt 0.0841124654 0.499999881
vt 0.0424812138 0.996503234
vt 0.0841124654 0.00349700451
vt 0.0424812138 0.499999881
vt 0.000849992037 0.996503234
vt 0.0424812138 0.00349700451
vt 0.000849992037 0.499999881
vt 0.000849992037 0.00349700451
vn 0.758279026 -0.349207461 0.550515294
vn 0.853129804 -0.188968882 0.486271679
vn 0.484174341 -0.0967592746 -0.869605064
vn 0.454411745 -0.192206979 -0.869808316
vn 0.548795402 -0.122350484 -0.826954663
vn 0.593464375 -0.447951496 0.668684959
vn 0.5080024 -0.235069439 -0.828659177
vn 0.464696139 -0.326314002 -0.823150456
vn 0.414943367 -0.482415587 0.771425426
vn 0.470433146 -0.358217865 -0.806456864
vn 0.49160859 -0.535205126 -0.686932683
vn 0.271853536 -0.487826079 0.829530835
vn 0.420736194 -0.488338649 -0.764530182
vn 0.459490865 -0.784340262 -0.41674751
vn 0.161791638 -0.487074435 0.858243525
vn 0.337651193 -0.609517038 -0.717273057
vn 0.325908691 -0.935365558 -0.137385413
vn 0.0818485767 -0.490604311 0.867529988
vn 0.229096994 -0.695542395 -0.680981159
vn 0.159138277 -0.987190306 -0.0114214076
vn 0.0375445224 -0.498435885 0.866113245
vn 0.119451873 -0.73613435 -0.666211307
vn 0.0395427942 -0.99921608 0.00190109597
vn 0.00920489337 -0.518432736 0.855068803
vn 0.0495557226 -0.747147858 -0.662807882
vn -0.0106984861 -0.999926329 -0.00573133212
vn 0.00133750692 -0.539015293 0.842294931
vn 0.023971118 -0.745870531 -0.665659487
vn -0.0353802517 -0.99910754 -0.0230740793
vn -0.0100275418 -0.573990345 0.818800688
vn -0.00449636113 -0.735829473 -0.677151978
vn -0.068990685 -0.99722904 -0.0278314706
vn -0.0292611346 -0.612342775 0.790050685
vn -0.00901821349 -0.74507618 -0.666918337
vn -0.10582801 -0.994376183 -0.00407030806
vn -0.0595956631 -0.639733732 0.766282558
vn -0.0355215035 -0.75201112 -0.658192575
vn -0.158124581 -0.982230246 0.101096042
vn -0.0919969901 -0.631417155 0.769966781
vn -0.0610265434 -0.778399765 -0.624795616
vn -0.198746189 -0.938724875 0.281594843
vn -0.091688171 -0.632684171 0.768962979
vn -0.114129961 -0.795120299 -0.595615745
vn -0.214251012 -0.823904693 0.524668932
vn -0.112265244 -0.547659159 0.829135716
vn -0.1423513 -0.912766218 -0.38287589
vn -0.181720391 -0.643159032 0.743857563
vn -0.112540618 -0.993559599 -0.0131846778
g Sphere0dx_0
f 3/3/3 2/2/2 1/1/1
f 4/4/4 3/3/3 1/1/1
f 5/5/5 3/3/3 4/4/4
f 4/4/4 1/1/1 6/6/6
f 7/7/7 5/5/5 4/4/4
f 8/8/8 4/4/4 6/6/6
f 7/7/7 4/4/4 8/8/8
f 8/8/8 6/6/6 9/9/9
f 10/10/10 7/7/7 8/8/8
f 11/11/11 8/8/8 9/9/9
f 10/10/10 8/8/8 11/11/11
f 11/11/11 9/9/9 12/12/12
f 13/13/13 10/10/10 11/11/11
f 14/14/14 11/11/11 12/12/12
f 13/13/13 11/11/11 14/14/14
f 14/14/14 12/12/12 15/15/15
f 16/16/16 13/13/13 14/14/14
f 17/17/17 14/14/14 15/15/15
f 16/16/16 14/14/14 17/17/17
f 17/17/17 15/15/15 18/18/18
f 19/19/19 16/16/16 17/17/17
f 20/20/20 17/17/17 18/18/18
f 19/19/19 17/17/17 20/20/20
f 20/20/20 18/18/18 21/21/21
f 22/22/22 19/19/19 20/20/20
f 23/23/23 20/20/20 21/21/21
f 22/22/22 20/20/20 23/23/23
f 23/23/23 21/21/21 24/24/24
f 25/25/25 22/22/22 23/23/23
f 26/26/26 23/23/23 24/24/24
f 25/25/25 23/23/23 26/26/26
f 26/26/26 24/24/24 27/27/27
f 28/28/28 25/25/25 26/26/26
f 29/29/29 26/26/26 27/27/27
f 28/28/28 26/26/26 29/29/29
f 29/29/29 27/27/27 30/30/30
f 31/31/31 28/28/28 29/29/29
f 32/32/32 29/29/29 30/30/30
f 31/31/31 29/29/29 32/32/32
f 32/32/32 30/30/30 33/33/33
f 34/34/34 31/31/31 32/32/32
f 35/35/35 32/32/32 33/33/33
f 34/34/34 32/32/32 35/35/35
f 35/35/35 33/33/33 36/36/36
f 37/37/37 34/34/34 35/35/35
f 38/38/38 35/35/35 36/36/36
f 37/37/37 35/35/35 38/38/38
f 38/38/38 36/36/36 39/39/39
f 40/40/40 37/37/37 38/38/38
f 41/41/41 38/38/38 39/39/39
f 40/40/40 38/38/38 41/41/41
f 41/41/41 39/39/39 42/42/42
f 43/43/43 40/40/40 41/41/41
f 44/44/44 41/41/41 42/42/42
f 43/43/43 41/41/41 44/44/44
f 44/44/44 42/42/42 45/45/45
f 46/46/46 43/43/43 44/44/44
f 47/47/47 44/44/44 45/45/45
f 46/46/46 44/44/44 47/47/47
f 48/48/48 46/46/46 47/47/47
