g Plane001
v 0.453571379 -0.63499999 0
v 0.634999931 -0.453571439 0
v 0.634999931 -0.63499999 0
v 0.453571379 -0.453571439 0
v 0.634999931 -0.272142887 0
v 0.272142828 -0.63499999 0
v 0.453571379 -0.272142887 0
v 0.634999931 -0.0907143131 0
v 0.272142828 -0.453571439 0
v 0.0907142535 -0.63499999 0
v 0.453571379 -0.0907143131 0
v 0.634999931 0.0907142535 0
v 0.0907142535 -0.453571439 0
v -0.0907143131 -0.63499999 0
v 0.272142828 -0.272142887 0
v 0.453571379 0.0907142535 0
v 0.634999931 0.272142828 0
v -0.0907143131 -0.453571439 0
v -0.272142887 -0.63499999 0
v 0.0907142535 -0.272142887 0
v 0.272142828 -0.0907143131 0
v 0.453571379 0.272142828 0
v 0.634999931 0.453571379 0
v -0.272142887 -0.453571439 0
v -0.453571439 -0.63499999 0
v -0.0907143131 -0.272142887 0
v 0.0907142535 -0.0907143131 0
v 0.272142828 0.0907142535 0
v 0.453571379 0.453571379 0
v 0.634999931 0.634999931 0
v 0.453571379 0.634999931 0
v -0.453571439 -0.453571439 0
v -0.63499999 -0.63499999 0
v -0.63499999 -0.453571439 0
v -0.272142887 -0.272142887 0
v -0.453571439 -0.272142887 0
v -0.63499999 -0.272142887 0
v 0.272142828 0.272142828 0
v 0.272142828 0.453571379 0
v 0.272142828 0.634999931 0
v -0.0907143131 -0.0907143131 0
v 0.0907142535 0.0907142535 0
v -0.453571439 -0.0907143131 0
v -0.63499999 -0.0907143131 0
v -0.272142887 -0.0907143131 0
v 0.0907142535 0.272142828 0
v 0.0907142535 0.453571379 0
v 0.0907142535 0.634999931 0
v -0.0907143131 0.0907142535 0
v -0.453571439 0.0907142535 0
v -0.63499999 0.0907142535 0
v -0.272142887 0.0907142535 0
v -0.0907143131 0.272142828 0
v -0.0907143131 0.453571379 0
v -0.0907143131 0.634999931 0
v -0.272142887 0.272142828 0
v -0.453571439 0.272142828 0
v -0.63499999 0.272142828 0
v -0.272142887 0.453571379 0
v -0.272142887 0.634999931 0
v -0.453571439 0.453571379 0
v -0.63499999 0.453571379 0
v -0.453571439 0.634999931 0
v -0.63499999 0.634999931 0
vt 0.857142866 0
vt 1 0.142857149
vt 1 0
vt 0.857142866 0.142857149
vt 1 0.285714298
vt 0.714285731 0
vt 0.857142866 0.285714298
vt 1 0.428571463
vt 0.714285731 0.142857149
vt 0.571428597 0
vt 0.857142866 0.428571463
vt 1 0.571428597
vt 0.571428597 0.142857149
vt 0.428571463 0
vt 0.714285731 0.285714298
vt 0.857142866 0.571428597
vt 1 0.714285731
vt 0.428571463 0.142857149
vt 0.285714298 0
vt 0.571428597 0.285714298
vt 0.714285731 0.428571463
vt 0.857142866 0.714285731
vt 1 0.857142866
vt 0.285714298 0.142857149
vt 0.142857149 0
vt 0.428571463 0.285714298
vt 0.571428597 0.428571463
vt 0.714285731 0.571428597
vt 0.857142866 0.857142866
vt 1 1
vt 0.857142866 1
vt 0.142857149 0.142857149
vt 0 0
vt 0 0.142857149
vt 0.285714298 0.285714298
vt 0.142857149 0.285714298
vt 0 0.285714298
vt 0.714285731 0.714285731
vt 0.714285731 0.857142866
vt 0.714285731 1
vt 0.428571463 0.428571463
vt 0.571428597 0.571428597
vt 0.142857149 0.428571463
vt 0 0.428571463
vt 0.285714298 0.428571463
vt 0.571428597 0.714285731
vt 0.571428597 0.857142866
vt 0.571428597 1
vt 0.428571463 0.571428597
vt 0.142857149 0.571428597
vt 0 0.571428597
vt 0.285714298 0.571428597
vt 0.428571463 0.714285731
vt 0.428571463 0.857142866
vt 0.428571463 1
vt 0.285714298 0.714285731
vt 0.142857149 0.714285731
vt 0 0.714285731
vt 0.285714298 0.857142866
vt 0.285714298 1
vt 0.142857149 0.857142866
vt 0 0.857142866
vt 0.142857149 1
vt 0 1
vn -0 0 1
vn -0 0 1
vn -0 0 1
vn -0 0 1
vn -0 0 1
vn -0 0 1
vn -0 0 1
vn -0 0 1
vn -0 0 1
vn -0 0 1
vn -0 0 1
vn -0 0 1
vn -0 0 1
vn -0 0 1
vn -0 0 1
vn -0 0 1
vn -0 0 1
vn -0 0 1
vn -0 0 1
vn -0 0 1
vn -0 0 1
vn -0 0 1
vn -0 0 1
vn -0 0 1
vn -0 0 1
vn -0 0 1
vn -0 0 1
vn -0 0 1
vn -0 0 1
vn -0 0 1
vn -0 0 1
vn -0 0 1
vn -0 0 1
vn -0 0 1
vn -0 0 1
vn -0 0 1
vn -0 0 1
vn -0 0 1
vn -0 0 1
vn -0 0 1
vn -0 0 1
vn -0 0 1
vn -0 0 1
vn -0 0 1
vn -0 0 1
vn -0 0 1
vn -0 0 1
vn -0 0 1
vn -0 0 1
vn -0 0 1
vn -0 0 1
vn -0 0 1
vn -0 0 1
vn -0 0 1
vn -0 0 1
vn -0 0 1
vn -0 0 1
vn -0 0 1
vn -0 0 1
vn -0 0 1
vn -0 0 1
vn -0 0 1
vn -0 0 1
vn -0 0 1
g Plane001_0
f 3/3/3 2/2/2 1/1/1
f 4/4/4 1/1/1 2/2/2
f 2/2/2 5/5/5 4/4/4
f 1/1/1 4/4/4 6/6/6
f 7/7/7 4/4/4 5/5/5
f 5/5/5 8/8/8 7/7/7
f 9/9/9 6/6/6 4/4/4
f 4/4/4 7/7/7 9/9/9
f 6/6/6 9/9/9 10/10/10
f 11/11/11 7/7/7 8/8/8
f 8/8/8 12/12/12 11/11/11
f 13/13/13 10/10/10 9/9/9
f 10/10/10 13/13/13 14/14/14
f 15/15/15 9/9/9 7/7/7
f 7/7/7 11/11/11 15/15/15
f 9/9/9 15/15/15 13/13/13
f 16/16/16 11/11/11 12/12/12
f 12/12/12 17/17/17 16/16/16
f 18/18/18 14/14/14 13/13/13
f 14/14/14 18/18/18 19/19/19
f 20/20/20 13/13/13 15/15/15
f 13/13/13 20/20/20 18/18/18
f 21/21/21 15/15/15 11/11/11
f 11/11/11 16/16/16 21/21/21
f 15/15/15 21/21/21 20/20/20
f 22/22/22 16/16/16 17/17/17
f 17/17/17 23/23/23 22/22/22
f 24/24/24 19/19/19 18/18/18
f 19/19/19 24/24/24 25/25/25
f 26/26/26 18/18/18 20/20/20
f 18/18/18 26/26/26 24/24/24
f 27/27/27 20/20/20 21/21/21
f 20/20/20 27/27/27 26/26/26
f 28/28/28 21/21/21 16/16/16
f 16/16/16 22/22/22 28/28/28
f 21/21/21 28/28/28 27/27/27
f 29/29/29 22/22/22 23/23/23
f 23/23/23 30/30/30 29/29/29
f 31/31/31 29/29/29 30/30/30
f 32/32/32 25/25/25 24/24/24
f 25/25/25 32/32/32 33/33/33
f 34/34/34 33/33/33 32/32/32
f 35/35/35 24/24/24 26/26/26
f 24/24/24 35/35/35 32/32/32
f 32/32/32 36/36/36 34/34/34
f 36/36/36 32/32/32 35/35/35
f 37/37/37 34/34/34 36/36/36
f 38/38/38 28/28/28 22/22/22
f 22/22/22 29/29/29 38/38/38
f 29/29/29 31/31/31 39/39/39
f 39/39/39 38/38/38 29/29/29
f 40/40/40 39/39/39 31/31/31
f 26/26/26 41/41/41 35/35/35
f 41/41/41 26/26/26 27/27/27
f 42/42/42 27/27/27 28/28/28
f 28/28/28 38/38/38 42/42/42
f 27/27/27 42/42/42 41/41/41
f 36/36/36 43/43/43 37/37/37
f 44/44/44 37/37/37 43/43/43
f 35/35/35 45/45/45 36/36/36
f 45/45/45 35/35/35 41/41/41
f 43/43/43 36/36/36 45/45/45
f 38/38/38 39/39/39 46/46/46
f 46/46/46 42/42/42 38/38/38
f 39/39/39 40/40/40 47/47/47
f 47/47/47 46/46/46 39/39/39
f 48/48/48 47/47/47 40/40/40
f 49/49/49 41/41/41 42/42/42
f 41/41/41 49/49/49 45/45/45
f 42/42/42 46/46/46 49/49/49
f 43/43/43 50/50/50 44/44/44
f 51/51/51 44/44/44 50/50/50
f 45/45/45 52/52/52 43/43/43
f 52/52/52 45/45/45 49/49/49
f 50/50/50 43/43/43 52/52/52
f 53/53/53 49/49/49 46/46/46
f 46/46/46 47/47/47 53/53/53
f 49/49/49 53/53/53 52/52/52
f 47/47/47 48/48/48 54/54/54
f 54/54/54 53/53/53 47/47/47
f 55/55/55 54/54/54 48/48/48
f 56/56/56 52/52/52 53/53/53
f 52/52/52 56/56/56 50/50/50
f 53/53/53 54/54/54 56/56/56
f 50/50/50 57/57/57 51/51/51
f 57/57/57 50/50/50 56/56/56
f 58/58/58 51/51/51 57/57/57
f 54/54/54 55/55/55 59/59/59
f 59/59/59 56/56/56 54/54/54
f 56/56/56 59/59/59 57/57/57
f 60/60/60 59/59/59 55/55/55
f 57/57/57 61/61/61 58/58/58
f 61/61/61 57/57/57 59/59/59
f 59/59/59 60/60/60 61/61/61
f 62/62/62 58/58/58 61/61/61
f 63/63/63 61/61/61 60/60/60
f 61/61/61 63/63/63 62/62/62
f 64/64/64 62/62/62 63/63/63
